<?xml version="1.0" encoding="UTF-8"?>
<svg xmlns="http://www.w3.org/2000/svg" viewBox="0 0 128 128">
  <defs>
    <style>
      .cls-1 {
        fill: #3d9b6c;
      }

      .cls-2 {
        fill: #b6efa8;
        opacity: .11;
        stroke-width: 5px;
      }

      .cls-2, .cls-3 {
        stroke: #000;
        stroke-linejoin: round;
      }

      .cls-4 {
        fill: #78c66a;
      }

      .cls-5 {
        letter-spacing: 0em;
      }

      .cls-6 {
        letter-spacing: 0em;
      }

      .cls-7 {
        fill: #fff;
        font-family: MyriadPro-Regular, 'Myriad Pro';
        font-size: 16px;
      }

      .cls-3 {
        fill: none;
      }

      .cls-8 {
        letter-spacing: -.02em;
      }

      .cls-9 {
        letter-spacing: 0em;
      }

      .cls-10 {
        letter-spacing: 0em;
      }

      .cls-11 {
        letter-spacing: -.01em;
      }

      .cls-12 {
        letter-spacing: -.01em;
      }

      .cls-13 {
        letter-spacing: 0em;
      }

      .cls-14 {
        letter-spacing: 0em;
      }

      .cls-15 {
        letter-spacing: .01em;
      }
    </style>
  </defs>
  <g id="labels">
    <text class="cls-7" transform="translate(30.35 -15.57)"><tspan class="cls-8" x="0" y="0">P</tspan><tspan class="cls-14" x="8.26" y="0">r</tspan><tspan class="cls-6" x="13.33" y="0">o</tspan><tspan class="cls-9" x="22.11" y="0">t</tspan><tspan x="27.31" y="0">e</tspan><tspan class="cls-15" x="35.33" y="0">c</tspan><tspan x="42.7" y="0">ti</tspan><tspan class="cls-12" x="51.74" y="0">v</tspan><tspan x="59.28" y="0">e</tspan></text>
    <text class="cls-7" transform="translate(11.29 149.68)"><tspan class="cls-11" x="0" y="0">C</tspan><tspan x="9.1" y="0">ommunic</tspan><tspan class="cls-10" x="73.18" y="0">a</tspan><tspan class="cls-5" x="80.83" y="0">ti</tspan><tspan class="cls-13" x="89.87" y="0">v</tspan><tspan x="97.41" y="0">e</tspan></text>
  </g>
  <g id="Layer_5" data-name="Layer 5">
    <g>
      <path class="cls-2" d="M70.96,40.31v17.51l17.75.12v11.65l-17.75-.12.3,18.21-12.23.32v-19l-19.71.22.23-11.89,18.69-.13.12-17.38,12.19.08c.23,0,.42.19.42.42Z"/>
      <g>
        <path class="cls-1" d="M64.02,108.72c.62.4,1.39.43,2.04.08,5.9-3.23,32.43-20.35,37.69-49.25,5.86-32.23,3.42-29.79,0-29.79s-14.8.98-24.73-3.11c-12.33-5.08-12.06-7.89-14.99-7.89s.27,1.13-18.56,8.04c-7.5,2.75-13.58,3.55-18.03,3.25-5.02-.33-6.5-1.69-6.53,3.53-.03,5.49-1.9,24.21,9,42.28,10.07,16.69,14.37,20.02,34.12,32.86Z"/>
        <path d="M66.04,105.61c-.49-.31-1.16-.34-1.68-.06.35-.22,1.2-.62,1.75-.98,16.78-9.78,30.87-26.04,34.42-45.41,1.19-7.03,2.13-14.58,2.75-21.51.14-1.79.32-3.77.08-5.33-.01-.06-.06-.1.14.22.2.37.82.8,1.29.91.39.09.32.03.05.05-2.6.08-5.27.12-7.89.08-6.12-.12-12.43-.82-18.53-3.14-4.95-1.86-10.78-4.9-14.39-7.88.13,0-.39-.01-.17-.04.04,0,.27-.09.33-.12.15-.08.04-.03.01-.02-3.14,1.91-7.1,3.53-10.42,5.05-8.25,4.19-17.71,6.58-27.07,6-1.26-.1-2.38-.3-3.59-.38-.01,0-.13,0-.06,0,.04,0,.07-.01.1-.03.14,0,.44-.19.57-.26.25-.18.52-.46.63-.7.02-.03.04-.12.04-.11,0,0,0,.02,0,.02,0-.02-.02.09-.04.18-.13.71-.18,4.75-.23,5.56-.49,12.52,1.96,25.38,8.53,36.12,3.78,5.87,7.85,11.69,12.79,16.57,6.19,5.84,13.42,10.35,20.57,15.19h0ZM62,111.83c-6.6-4.42-12.84-9.72-18.83-15.17-2.97-2.7-6.43-4.82-8.77-8.1-13.76-18.36-18.05-33.91-16.67-56.69.14-2.74,1.74-5.12,4.45-5.4.59-.1,1.21-.05,1.78-.03,2.47.27,4.72.57,7.2.36,3.53-.24,6.56-.27,9.93-1.32,1.91-.6,4.18-2.04,6.09-2.77,4.6-1.78,9.24-3.56,13.23-6.39.27-.17.48-.31.94-.52,2.27-.98,5-.54,6.97.93,3.09,2.4,6.29,4.96,9.71,6.67,3.87,1.94,12.36,3.21,19.03,3.22,2.23.02,4.71-.05,6.96-.1,4.68-.53,6.58,2.86,6.51,7.05-.18,9.12-2.14,17.91-3.62,26.74,0,0-1.05,4.52-1.05,4.52-2.37,8.89-6.99,17.17-12.48,24.47-4.66,6.19-16.93,15.77-23.47,21.49-.74.65-1.73,1.1-2.64,1.52-1.69.72-3.74.53-5.26-.47h0Z"/>
      </g>
      <path class="cls-4" d="M85.74,67.45c-.32.06-9.51-.13-10.9-.06-1.37.06-5.88-.12-6.63.57-.82.75-.63,6.34-.69,10.8-.06,4.46.19,6.79,0,6.97-.19.19-3.51,0-4.51,0s-1.88.06-2.38-.19c-.5-.25.06-12.27,0-13.59-.06-1.31.32-4.19-1.07-4.44-1.37-.25-12.39.12-14.02,0-1.62-.13-2.81.32-3.13-.09-.32-.41-.13-6.36,0-6.66.12-.32,9.51-.25,10.82-.38,1.32-.12,6.2.5,6.82-.62.63-1.13.82-11.84.69-13.52-.12-1.69-.37-3.56,0-3.95.38-.37,6.07-.56,6.45,0,.37.57.19,8.33.19,10.45s-.19,6.57.5,7.02c.69.44,8.88,1.19,10.58.94,1.69-.25,6.69-.44,7.26-.06.56.37.31,6.76,0,6.82Z"/>
      <path class="cls-3" d="M85.74,67.45c-.32.06-9.51-.13-10.9-.06-1.37.06-5.88-.12-6.63.57-.82.75-.63,6.34-.69,10.8-.06,4.46.19,6.79,0,6.97-.19.19-3.51,0-4.51,0s-1.88.06-2.38-.19c-.5-.25.06-12.27,0-13.59-.06-1.31.32-4.19-1.07-4.44-1.37-.25-12.39.12-14.02,0-1.62-.13-2.81.32-3.13-.09-.32-.41-.13-6.36,0-6.66.12-.32,9.51-.25,10.82-.38,1.32-.12,6.2.5,6.82-.62.63-1.13.82-11.84.69-13.52-.12-1.69-.37-3.56,0-3.95.38-.37,6.07-.56,6.45,0,.37.57.19,8.33.19,10.45s-.19,6.57.5,7.02c.69.44,8.88,1.19,10.58.94,1.69-.25,6.69-.44,7.26-.06.56.37.31,6.76,0,6.82Z"/>
      <g>
        <path d="M90.04,60.8c-.23-1.79.48-3.1-.23-4.18-.72-1.08-10.99-.84-13.26-.71-2.27.12-4.07.12-4.42-.48-.36-.59-.12-15.29-.71-16.73-.59-1.41-4.63-1.45-7.06-1.45s-6.7-.25-7.75,1.01c-1.04,1.23-.67,6.4-.6,8.8.07,2.62-.07,7.65-.32,8.6-.23.96-5.06.84-7.57.59-2.52-.23-9.32-.35-10.16.79-.84,1.15-.36,9.25-.36,10.21s.12,3.94.84,4.18,13.02.12,14.57,0c1.56-.12,3.11-.68,3.47.14.35.82-.72,16.23.12,17.66.84,1.43,3.19,1.31,7.44,1.08,4.26-.24,6.77.11,7.37-1.2.59-1.32-.24-6.52,0-10.37.23-3.85-.76-6.36.21-6.95.97-.6,7.43.23,9.34.23s8.48.36,9.08-1.19c.6-1.56.24-8.24,0-10.04ZM85.74,67.45c-.32.06-9.51-.13-10.9-.06-1.37.06-5.88-.12-6.63.57-.82.75-.63,6.34-.69,10.8-.06,4.46.19,6.79,0,6.97-.19.19-3.51,0-4.51,0s-1.88.06-2.38-.19c-.5-.25.06-12.27,0-13.59-.06-1.31.32-4.19-1.07-4.44-1.37-.25-12.39.12-14.02,0-1.62-.13-2.81.32-3.13-.09-.32-.41-.13-6.36,0-6.66.12-.32,9.51-.25,10.82-.38,1.32-.12,6.2.5,6.82-.62.63-1.13.82-11.84.69-13.52-.12-1.69-.37-3.56,0-3.95.38-.37,6.07-.56,6.45,0,.37.57.19,8.33.19,10.45s-.19,6.57.5,7.02c.69.44,8.88,1.19,10.58.94,1.69-.25,6.69-.44,7.26-.06.56.37.31,6.76,0,6.82Z"/>
        <path class="cls-3" d="M85.74,67.45c-.32.06-9.51-.13-10.9-.06-1.37.06-5.88-.12-6.63.57-.82.75-.63,6.34-.69,10.8-.06,4.46.19,6.79,0,6.97-.19.19-3.51,0-4.51,0s-1.88.06-2.38-.19c-.5-.25.06-12.27,0-13.59-.06-1.31.32-4.19-1.07-4.44-1.37-.25-12.39.12-14.02,0-1.62-.13-2.81.32-3.13-.09-.32-.41-.13-6.36,0-6.66.12-.32,9.51-.25,10.82-.38,1.32-.12,6.2.5,6.82-.62.63-1.13.82-11.84.69-13.52-.12-1.69-.37-3.56,0-3.95.38-.37,6.07-.56,6.45,0,.37.57.19,8.33.19,10.45s-.19,6.57.5,7.02c.69.44,8.88,1.19,10.58.94,1.69-.25,6.69-.44,7.26-.06.56.37.31,6.76,0,6.82Z"/>
      </g>
    </g>
  </g>
</svg>