<?xml version="1.0" encoding="UTF-8"?>
<svg xmlns="http://www.w3.org/2000/svg" viewBox="0 0 128 128">
  <defs>
    <style>
      .cls-1 {
        fill: #fff;
        font-family: MyriadPro-Regular, 'Myriad Pro';
        font-size: 16px;
      }

      .cls-2, .cls-3 {
        fill: #5d67b2;
      }

      .cls-2, .cls-3, .cls-4 {
        stroke: #000;
        stroke-miterlimit: 10;
      }

      .cls-3 {
        stroke-width: 3px;
      }

      .cls-5 {
        letter-spacing: 0em;
      }

      .cls-6 {
        letter-spacing: 0em;
      }

      .cls-7 {
        letter-spacing: 0em;
      }
    </style>
  </defs>
  <g id="labels">
    <text class="cls-1" transform="translate(30.24 -10.32)"><tspan class="cls-7" x="0" y="0">D</tspan><tspan x="10.72" y="0">e</tspan><tspan class="cls-5" x="18.74" y="0">c</tspan><tspan x="25.81" y="0">epti</tspan><tspan class="cls-6" x="51.97" y="0">v</tspan><tspan x="59.5" y="0">e</tspan></text>
  </g>
  <g id="refs">
    <path class="cls-4" d="M97.04,74.09c0-.9-.77-1.62-1.68-1.56l-1,.08c-2.25.16-2.7.19-5.14.46-1.93.22-4.56-.01-6.5.15-12.31.99-23.29,1.63-38.02,0-1.91-.22-3.89-.42-5.8-.67-1.74-.22-2.61-.51-4.43-.51-.44,0-.95.02-1.54.06-2.23.04-3.39,1.09-3.39,1.86v13.74c0,6.35,4.76,12.57,10.43,15.24,2.07.97,4.37.74,6.45.92.78.06,1.49.09,2.16.09,4.42,0,6.72-.66,8.99-1.94,1.33-.75,2.59-1.46,4.43-2.03,2.35-.73,3.86.03,6.54,1.57,1.43.82,3.04,1.74,4.96,2.3,5.75,1.66,12.49.31,17.59-3.52,4.38-3.3,6.79-7.86,6.79-12.86l-.84-13.38ZM92.88,87.47c0,3.39-1.7,6.53-4.8,8.86-3.8,2.86-5.53,3.33-10.69,2.85-1.39-.12-5.07-1.23-6.36-1.97-2.8-1.6-5.97-3.42-10.52-2-2.35.73-2.57,1.45-4,2.25-2.39,1.36-5.38,2.44-9.7,2.07-5.41-.45-12.27-6.12-12.27-11.83v-10.65c1.24.14,2.49.3,3.72.46,1.97.26,4,.52,6.04.69,6.07.49,14.78.74,21.19.75,6.74.02,11.19-.23,17.63-.75,2.06-.17,4.11-.43,6.1-.69,1.2-.16,2.44-.32,3.66-.45v10.41Z"/>
    <path class="cls-4" d="M110.87,52.16c-4.74-1.98-10.01-2.43-15.11-3.27-.18-.17-.32-.29-.5-.45-1.49-5.7-1.31-7.43-3.72-12.65l-.19-.41c-1.43-3.13-5.55-11.21-10.97-11.82-3.63-.41-6.38.87-9.42,1.93-2.5.88-5.23,1.53-7.76,1.44-1.84-.07-3.97-.8-6.24-1.58-4.67-1.6-9.96-3.41-14.67.17-2.43,1.85-4.15,5.89-5.85,10.24l-.38.95c-1.57,3.91-2.76,7.39-3.67,10.72-.23.85-.92,1.49-1.79,1.63,0,0-.01,0-.01.01-4.75.79-9.67,1.61-14.11,3.46-1.57.65-5.76,2.8-5.52,6.63.08,1.17.88,4.39,11.43,7.28,10.15,2.79,20,4.32,31.11,4.08,4.47-.1,8.73.24,12.77.24,17.07,0,30.38-1.42,40.46-4.3,6.75-1.93,10.12-4.37,10.31-7.47.22-3.82-4.6-6.18-6.17-6.83ZM111.19,59.27c-.96.62-3.09,2.08-6.17,2.96-11.96,3.42-28.52,4.1-51.34,3.29-9.97-.35-21.46-1.07-31.12-3.72-3.38-.92-4.21-1.9-5.22-2.56-.37-.24-.46-.74-.36-1.18.12-.58.4-.49,1.42-.92,3.91-1.62,8.54-2.4,13.01-3.14,1.05-.18,2.09-.35,3.11-.53l.35-.07c.77-.13,1.39-.72,1.56-1.49l.08-.35c.91-4,2.08-6.2,4.03-11.07l.39-.99c.88-2.25,2.88-8.85,4.39-10,2.41-1.83,5.39-1,10.02.58,2.51.86,4.97,1.99,7.55,2.08,3.44.12,6.63-1.19,9.32-2.13,2.63-.92,5.1-1.79,7.61-1.5,2.48.28,3.45,2.13,4.83,5.13l.19.42c2.55,5.54,4.59,11.43,6.07,17.52,0,.01,0,.02.01.03l.15.63c.23.56.72.98,1.32,1.13l.28.05h.03l.21.04c.92.16,1.87.31,2.82.47,2.43.4,5.25.5,7.63,1.04,2.11.48,3.79,1.37,5.66,2.15,1.01.43,1.7.8,2.16,1.1.38.24.38.79.01,1.03Z"/>
    <path class="cls-2" d="M89.22,77.51c-1.99.26-4.04.52-6.1.69-6.44.52-10.89.77-17.63.75-6.41-.01-15.12-.26-21.19-.75-2.04-.17-4.07-.43-6.04-.69-1.23-.16-2.48-.32-3.72-.46v10.65c0,5.71,6.86,11.38,12.27,11.83,4.32.37,7.31-.71,9.7-2.07,1.43-.8,1.65-1.52,4-2.25,4.55-1.42,7.72.4,10.52,2,1.29.74,4.97,1.85,6.36,1.97,5.16.48,6.89.01,10.69-2.85,3.1-2.33,4.8-5.47,4.8-8.86v-10.41c-1.22.13-2.46.29-3.66.45ZM48.09,89.07c-3.9,0-7.06-1.51-7.06-3.38s3.16-3.37,7.06-3.37,7.05,1.51,7.05,3.37-3.16,3.38-7.05,3.38ZM78.85,89.73c-3.9,0-7.06-1.52-7.06-3.38s3.16-3.38,7.06-3.38,7.05,1.51,7.05,3.38-3.16,3.38-7.05,3.38Z"/>
    <path class="cls-3" d="M111.19,59.27c-.96.62-3.09,2.08-6.17,2.96-11.96,3.42-28.52,4.1-51.34,3.29-9.97-.35-21.46-1.07-31.12-3.72-3.38-.92-4.21-1.9-5.22-2.56-.37-.24-.46-.74-.36-1.18.12-.58.4-.49,1.42-.92,3.91-1.62,8.54-2.4,13.01-3.14,1.05-.18,2.09-.35,3.11-.53l.35-.07c.77-.13,1.39-.72,1.56-1.49l.08-.35c.91-4,2.08-6.2,4.03-11.07l.39-.99c.88-2.25,2.88-8.85,4.39-10,2.41-1.83,5.39-1,10.02.58,2.51.86,4.97,1.99,7.55,2.08,3.44.12,6.63-1.19,9.32-2.13,2.63-.92,5.1-1.79,7.61-1.5,2.48.28,3.45,2.13,4.83,5.13l.19.42c2.55,5.54,4.59,11.43,6.07,17.52,0,.01,0,.02.01.03l.15.63c.23.56.72.98,1.32,1.13l.28.05h.03l.21.04c.92.16,1.87.31,2.82.47,2.43.4,5.25.5,7.63,1.04,2.11.48,3.79,1.37,5.66,2.15,1.01.43,1.7.8,2.16,1.1.38.24.38.79.01,1.03Z"/>
    <path d="M84.39,87.35c-2.46-1.78-6.47-2.41-9.37-1.13-.68.3-1.33.61-1.56,1.15-.01.07.06.04.06-.02.08-.2.09-.04.28.19,1.01,1.58,3.29,1.42,5.05,1.61,2.75,1.13,5.69-2.19,5.54-1.8h0ZM88.84,87.35c.06,3.93-4.06,5.6-7.31,5.74-2.7.84-5.43.59-8.13-.47-6.57-1.94-6.09-8.41-.02-10.59,5.17-1.73,14.71-1.75,15.46,5.32h0Z"/>
    <path d="M53.38,86.7c-.04.07,0,.13-.03.1-.33-.41-.85-.72-1.52-.99-1.67-.56-3.88-.99-5.75-.82-.34.02-.59.37-.89.45-.99.18-2.13.63-2.72,1.26.02,0-.02,0,.02.09,1.22,1.54,3.65,1.67,5.6,1.74,1.12.08,2.27-.39,3.24-.27.82-.28,1.89-.87,2.13-1.6,0-.06-.07-.03-.07.04h0ZM58.32,86.7c-.1,3.2-3.24,4.83-5.86,5.46-.47.39-1.08.47-1.66.56-2.77.42-5.47.24-8.15-.83-6.92-2.74-5.25-9.31,1.28-11.11,1.49,0,2.68-.29,4.14-.46,3.98-.31,10.06,1.45,10.24,6.38h0Z"/>
  </g>
</svg>