<?xml version="1.0" encoding="UTF-8"?>
<svg xmlns="http://www.w3.org/2000/svg" viewBox="0 0 128 128">
  <defs>
    <style>
      .cls-1 {
        stroke: #000;
        stroke-miterlimit: 10;
        stroke-width: .5px;
      }

      .cls-2 {
        letter-spacing: 0em;
      }

      .cls-3, .cls-4 {
        fill: #fff;
      }

      .cls-4 {
        font-family: MyriadPro-Regular, 'Myriad Pro';
        font-size: 16px;
      }

      .cls-5 {
        letter-spacing: -.03em;
      }

      .cls-6 {
        letter-spacing: 0em;
      }

      .cls-7 {
        letter-spacing: -.01em;
      }

      .cls-8 {
        letter-spacing: 0em;
      }
    </style>
  </defs>
  <g id="labels">
    <text class="cls-4" transform="translate(11.29 -10.32)"><tspan class="cls-7" x="0" y="0">C</tspan><tspan x="9.1" y="0">ommunic</tspan><tspan class="cls-6" x="73.18" y="0">a</tspan><tspan class="cls-2" x="80.83" y="0">ti</tspan><tspan class="cls-8" x="89.87" y="0">v</tspan><tspan x="97.41" y="0">e</tspan></text>
    <text class="cls-4" transform="translate(41.98 149.68)"><tspan class="cls-5" x="0" y="0">V</tspan><tspan x="8.4" y="0">oting</tspan></text>
  </g>
  <g id="designs">
    <path class="cls-3" d="M107.24,62.86c-1.33,10.85-4.88,13.22-8.1,16.84-5.19,5.83-20.7,9.52-27.12,9.08-6.43-.45-6.43.22-10.2,3.99-3.75,3.77-10.84,8.92-18.6,8.92-1.31,0,5.74-7.34,2.65-13.8-2.43-5.06-9.3-6.64-15.5-11.74-6.2-5.09-8.64-18.38-5.76-26.36,2.88-7.97,7.75-17.95,19.72-20.82,11.96-2.89,21.26,0,28.36,0s22.81,5.31,26.58,9.52c3.76,4.21,9.3,13.51,7.97,24.37Z"/>
    <path class="cls-1" d="M90.11,60.25c-.24,3.73-5.73,5.03-8.27,2.91s-2.76-6.58,0-7.85,8.7-1.58,8.27,4.94Z"/>
    <path class="cls-1" d="M65.43,64.98c4.08-.58,4.75-5.21,3.26-7.34s-6.58-3.39-8.48-.85-.16,8.94,5.22,8.18Z"/>
    <path class="cls-1" d="M45.78,64.18c-5.27,1.29-7.21-2.64-7-4.8s3.35-4.94,4.91-4.8,3.56,1.5,4.53,3.38.78,2.98.52,4.08-2.06,1.92-2.96,2.14Z"/>
    <path class="cls-1" d="M97,28.4c-9.68-4.94-29.24-7-43.87-6.45-13.26.49-13.32,2.17-17.96,4.16-6.51,2.78-12.78,10.03-16.43,17.78-3.65,7.74-3.74,15.06,0,25.53,5.88,16.48,20.21,18.1,21.71,20.04,1.51,1.93-7.25,17.66-2.85,18.93,0,0,1.22.27,3.05.02,3.09-.41,13.99-1.96,18.5-4.11,4.53-2.16,8.53-7.64,10.26-8.5,1.72-.86,5.23-.75,13.82-2.04,8.6-1.29,15.27-4.73,21.72-10.11,6.45-5.37,10.75-18.91,10.53-28.59-.21-9.68-8.81-21.71-18.48-26.66ZM99.14,79.7c-5.05,5.96-20.7,9.52-27.12,9.08-6.43-.45-6.43.22-10.2,3.99-3.75,3.77-10.84,8.92-18.6,8.92-1.31,0,6.29-7.96,3.2-14.42-2.43-5.06-9.85-6.02-16.05-11.12-6.2-5.09-9.4-18.48-6.52-26.46,2.88-7.97,8.51-17.85,20.48-20.72,11.96-2.89,21.26,0,28.36,0s22.81,5.31,26.58,9.52c3.76,4.21,10.16,13,8.83,23.86-1.33,10.85-4.85,12.49-8.96,17.34Z"/>
  </g>
</svg>