<?xml version="1.0" encoding="UTF-8"?>
<svg xmlns="http://www.w3.org/2000/svg" viewBox="0 0 128 128">
  <defs>
    <style>
      .cls-1 {
        fill: #a27cce;
      }

      .cls-2 {
        letter-spacing: 0em;
      }

      .cls-3 {
        fill: #fff;
        font-family: MyriadPro-Regular, 'Myriad Pro';
        font-size: 16px;
      }

      .cls-4 {
        fill: #743c99;
      }

      .cls-5 {
        stroke: #000;
        stroke-miterlimit: 10;
      }

      .cls-6 {
        letter-spacing: 0em;
      }

      .cls-7 {
        letter-spacing: 0em;
      }

      .cls-8 {
        letter-spacing: .01em;
      }
    </style>
  </defs>
  <g id="labels">
    <text class="cls-3" transform="translate(19.05 -15.57)"><tspan class="cls-7" x="0" y="0">S</tspan><tspan x="7.84" y="0">t</tspan><tspan class="cls-6" x="13.14" y="0">r</tspan><tspan class="cls-2" x="18.21" y="0">ong </tspan><tspan class="cls-8" x="48.21" y="0">K</tspan><tspan x="57.04" y="0">illing</tspan></text>
  </g>
  <g id="designs">
    <g>
      <path class="cls-1" d="M97.43,30.25l-5.46,24.04c-.03.13-.1.26-.21.35l-48.28,41.4c-.24.21-.61.21-.85,0l-10.43-9.27c-.26-.23-.29-.61-.08-.88l39.09-49.5c.09-.11.21-.19.34-.22l25.08-6.66c.47-.12.9.29.79.77Z"/>
      <path d="M98.94,30.59c-.68,3.37-1.22,8.67-1.67,12.14-.42,4.14-1.82,8.05-2.69,12.1-.07.25-.13.51-.25.74-.28.68-.96,1.19-1.5,1.65-.7.61-2.68,2.41-3.41,3.05-8.41,7.46-18.85,17.01-27.25,24.47-2.36,1.91-7.13,5.77-9.5,7.67-1.36,1.08-3.4,2.76-4.81,3.77,0,0-2.46,1.82-2.46,1.82l-.21.16c-1.37,1.13-3.5.89-4.65-.44-2.97-2.63-7.01-6.26-9.97-8.87-1.38-1.07-1.67-3.21-.58-4.58.51-.66.85-1.29,1.25-1.99,2.91-4.16,6.18-8.08,9.5-11.94,3.86-4.73,7.37-9.74,11.31-14.4,1.4-1.48,2.55-3.17,3.78-4.79,3.49-5.03,7.66-9.5,11.53-14.22.25-.29,1.17-1.48,1.42-1.79.34-.43.71-.92,1.2-1.19.44-.29.95-.39,1.43-.52.52-.15,1.69-.44,2.21-.59,5.66-1.65,12.03-2.98,17.86-4.06,1.79-.27,3.55-.6,5.34-.88,1.36,0,2.45,1.39,2.11,2.71h0ZM94.18,29.51c-.53,2.39,1.86,3.6,3.13,3.29-4.31,1.48-9.01,1.97-13.53,2.56-3.03.43-5.88,1.64-8.81,2.49-.7.21-1.86.61-2.55.82,0,0-.18.05-.18.05.35-.08.74-.32.99-.61-1.41,1.88-3.67,4.78-5.51,6.88-9.65,10.51-17.19,22.72-26.32,33.64-1.14,1.3-2.84,3.34-3.79,4.78-.96,1.48-2.24,2.76-3.38,4.07.63-.8.52-2.04-.24-2.72,0,0,.11.1.11.1l.29.25c2.97,2.58,7.06,6.2,9.97,8.88.09.08-.08-.07-.09-.07-.24-.18-.52-.31-.81-.36-.58-.12-1.22.04-1.67.42-.06.05-.02.02-.02.01,0,0,.04-.03.04-.03,3.71-2.99,7.91-6.97,11.46-10.22,5.01-4.8,13.23-11.28,18.63-15.77,4.56-3.72,9.45-8.02,13.97-11.83,1.08-.9,3.05-2.66,4.16-3.5-.28.24-.52.66-.6,1.06.64-2.02,1.26-4.05,1.46-6.17.16-1.81.52-4.26.9-6.05,0,0,2.39-11.97,2.39-11.97h0Z"/>
    </g>
    <g>
      <polygon class="cls-4" points="23 111.18 23.2 116.75 11.49 116.92 11.31 105.21 17.27 105.75 26.33 96.18 31.88 101.26 32.83 102.26 23 111.18"/>
      <path d="M25.65,112.3c-.28.06-.16.29-.15.47l.08.56c.14,1.1.32,2.33.51,3.41.24,1.35-.66,2.64-2.01,2.88-1.75.03-3.48-.45-5.24-.3-1.41.17-2.98.26-4.39.32,0,0-2.93.15-2.93.15-1.6.09-2.96-1.23-2.92-2.83,0-3.33-.07-8.34-.18-11.72-.06-1.7,1.45-3.09,3.14-2.91,0,0,5.96.54,5.96.54l-2.35.89c1.73-1.28,3.44-2.85,4.98-4.36,1.54-1.56,3.11-3.1,4.08-5.21.58-1.32,2.38-1.68,3.42-.7,0,0,.61.56.61.56,1.22,1.13,6.09,5.48,7.07,6.68.89.93.85,2.41-.09,3.29-.91.67-2.16,1.36-3.06,2.09-2.34,1.86-4.65,3.9-6.56,6.18h0ZM20.7,110.21c3.13-3.48,6.64-7.02,10.19-10.09,0,0-.15,4.11-.15,4.11-.17-.47-.39-.89-.62-1.3-.88-1.36-3.2-4.49-5.73-4.63,0,0,4.03-.14,4.03-.14-2.81,3.41-6.35,6.14-9.8,8.87,0,0-1.52.58-1.52.58-1.86,1.05-4.04.67-6.05.47,0,0,3.14-2.91,3.14-2.91-.35,2.92-.34,5.86-.19,8.79.09.98.17,1.95.37,2.92l-2.92-2.83c1.95.04,3.91-.03,5.86-.11,1.94-.33,3.9-.32,5.86-.06,0,0-2.83,2.98-2.83,2.98-.04-1.63.06-3.42.16-5.05.07-.46-.01-1.2.22-1.59h0Z"/>
    </g>
    <g>
      <path class="cls-4" d="M51.3,105.77l-9.97,3.98c-.16.06-.35.03-.47-.09l-8.03-7.4-.09-.08-7.19-6.62-.08-.08-7.8-7.18c-.14-.12-.18-.32-.12-.49l3.41-9.05c.11-.3.49-.39.72-.18l9.62,8.55,11.31,10.05,8.83,7.84c.25.22.18.63-.13.76Z"/>
      <path d="M52.2,108.03c-1.65,1.19-3.34,2.26-5.34,2.57-1,.22-3.44.74-4.4.94,0,0-.37.07-.37.07-.8.33-2,.08-2.56-.56-.11-.16-.22-.3-.36-.42,0,0-8.61-8.09-8.61-8.09-3.85-3.13-6.5-7.59-10.72-10.2-1.16-.74-2.4-1.35-3.28-2.42-.19-.17-.36-.28-.53-.51-.46-.59-.52-1.22-.83-1.95-.07-.18-.06-.46-.06-.58-.02-.04,0-.07,0-.1.83-2.12,2.03-4.09,2.8-6.25.33-.81.54-1.73.8-2.56.36-1.16,1.65-2.04,2.89-1.91.9.03,1.66.64,2.28,1.23.68.6,2.62,2.3,3.33,2.93,1.41.95,3.21,2.68,4.52,3.81,2.81,2.49,10.36,9.19,13.27,11.76,1.49,1.29,2.78,2.81,4.22,4.16,1.22.88,2.11,2.07,3.09,3.2,0,0,.27.25.27.25l.13.13c1.29,1.17,1.23,3.73-.53,4.49h0ZM50.39,103.5c-1.72.73-1.32,2.67-.72,3.2,0,0-.28-.24-.28-.24l-1.11-.98c-.8-.6-1.38-1.42-2.05-2.15-1.4-1.39-3.21-2.33-4.55-3.77-2.68-2.9-5.12-6.07-8.29-8.47-3.03-2.52-6.57-4.48-9.35-7.28,0,0-2.23-1.94-2.23-1.94-.32-.27-1.36-1.17-1.69-1.44,0,0-.04-.03-.04-.03,0,0-.06-.06.01.01,1.01.94,2.77.31,3.12-.76,0,0-.03.09-.03.09l-.13.35c-.46,1.24-1.35,3.58-1.82,4.84-.48,1.2-.78,2.47-1.36,3.63-.01.03-.02.06-.05.08-.01-.04,0-.25-.06-.36-.25-.51-.24-.9-.54-1.25-.06-.07-.16-.18-.2-.2.09.13.35.34.47.44,1.65,1.22,3.67,2.88,5.2,4.22,1.6,1.31,5.36,4.28,6.87,5.59,1.39,1.32,9.17,8.68,10.72,10.15,0,0,.27.26.27.26,0,0,.13.13.13.13.09.08-.13-.12-.23-.18-.59-.43-1.53-.51-2.13-.24,0,0,.35-.13.35-.13,2.53-.9,7.14-2.65,9.71-3.57h0Z"/>
    </g>
    <path d="M35.86,91.19c-.32-1.79.56-2.58,1.21-3.52.7-.91,1.46-1.75,2.27-2.54,3.17-3.23,6.53-6.26,9.8-9.38,2.42-2.35,7.19-7.18,9.51-9.62,2.32-2.46,4.47-5.08,6.88-7.47,2.36-2.27,4.99-4.77,7.57-6.79.63-.5,1.55-.39,2.05.24.42.54.41,1.28,0,1.8-1.39,1.79-2.86,3.5-4.38,5.17-2.91,3.4-6.53,6.3-9.63,9.48-1.33,1.43-3.14,3.62-4.37,5.18-4.01,5.51-9.5,9.58-13.99,14.63-.73.85-1.45,1.71-2.26,2.48-.87.73-1.47,1.64-3.3,1.52-.69-.02-1.25-.53-1.37-1.18h0Z"/>
    <path class="cls-5" d="M110.41,18.44l-.93,5.32c-1.81,10.33-6.17,30.37-8.07,40.62-.02.14-.16.23-.29.19-.14-.02-.2-.14-.19-.28-.72-11.81,2.68-32.02,4.29-43.59-5.95,1.28-11.95,2.41-17.99,3.23-7.17,1.02-24.45,5.27-31.86,5.2-.14.02-.3-.09-.29-.25,0-.11.08-.21.18-.24,7.01-1.7,24.07-6.89,31.09-8.52l21.07-4.92c.95-.18,2.64-1.06,3.22-.28.46.45-.12,2.56-.22,3.52Z"/>
    <path d="M116.66,25.15c0,.33-.1,1.26-.11,1.61-.09,1.36-.38,5.02-.48,6.43-.04.49-.08.99-.11,1.47-.17,2.37-.37,4.73-.61,7.1-.07.29-.41.25-.5-.04-1.99-3.97-2.35-8.09-2.58-12.18h0c-.22-2.47.64-4.58,2.69-5.49.21-.1.44-.17.67-.23.04,0,.07-.02.12-.02.48-.04.8.32.91.64.09.41,0,.52,0,.71Z"/>
    <path d="M99.25,11.12c-.33.02-1.26.14-1.6.17-1.36.13-5,.55-6.41.69-.49.05-.98.11-1.47.16-2.36.25-4.72.53-7.07.85-.29.08-.24.42.05.5,4.03,1.86,8.16,2.08,12.26,2.17h0c2.47.14,4.56-.79,5.4-2.87.09-.22.15-.45.2-.68,0-.04.02-.07.02-.12.02-.48-.34-.79-.67-.88-.42-.08-.52.02-.71.02Z"/>
  </g>
</svg>