<?xml version="1.0" encoding="UTF-8"?>
<svg xmlns="http://www.w3.org/2000/svg" viewBox="0 0 128 128">
  <defs>
    <style>
      .cls-1 {
        stroke-width: 2px;
      }

      .cls-1, .cls-2, .cls-3 {
        stroke: #000;
        stroke-miterlimit: 10;
      }

      .cls-4 {
        fill: #fff6de;
      }

      .cls-5 {
        fill: #fff;
        font-family: MyriadPro-Regular, 'Myriad Pro';
        font-size: 16px;
      }

      .cls-2 {
        fill: none;
      }

      .cls-6 {
        fill: #5fa5aa;
      }

      .cls-7 {
        letter-spacing: -.03em;
      }

      .cls-3 {
        stroke-width: 3px;
      }
    </style>
  </defs>
  <g id="labels">
    <text class="cls-5" transform="translate(41.98 -10.32)"><tspan class="cls-7" x="0" y="0">V</tspan><tspan x="8.4" y="0">oting</tspan></text>
  </g>
  <g id="refs">
    <path class="cls-2" d="M109.28,73.48c-.89,7.44-4.94,30.91-6.09,31.73-1.28.92-79.01,1.1-79.93,0-.79-.96-4.14-23.24-4.86-31.12h41.7c4.03,0,40.17.71,49.18-.61Z"/>
    <path class="cls-2" d="M108.75,69.51c-2.54-.24-6.39.16-9.06.16-4.05,0-65,.51-68.87.34-2.67-.1-8.21-.8-11.59-.9,2.82-6.12,11.14-20.99,12.69-21.91.58-.35,6.97-.58,15.47-.71.81-.02,1.63-.03,2.47-.03,8.58-.11,18.81-.11,27.32,0,.99.01,1.96.02,2.89.05,8.04.12,14.03.36,14.65.7,1.73.94,11.34,16.48,14.03,22.32Z"/>
    <path class="cls-2" d="M109.28,73.48c-.89,7.44-4.94,30.91-6.09,31.73-1.28.92-79.01,1.1-79.93,0-.79-.96-4.14-23.24-4.86-31.12h41.7c4.03,0,40.17.71,49.18-.61Z"/>
    <path class="cls-2" d="M108.75,69.51c-2.54-.24-6.39.16-9.06.16-4.05,0-65,.51-68.87.34-2.67-.1-8.21-.8-11.59-.9,2.82-6.12,11.14-20.99,12.69-21.91.58-.35,6.97-.58,15.47-.71.81-.02,1.63-.03,2.47-.03,8.58-.11,18.81-.11,27.32,0,.99.01,1.96.02,2.89.05,8.04.12,14.03.36,14.65.7,1.73.94,11.34,16.48,14.03,22.32Z"/>
    <g>
      <path class="cls-6" d="M109.28,73.48c-.89,7.44-4.94,30.91-6.09,31.73-1.28.92-79.01,1.1-79.93,0-.79-.96-4.14-23.24-4.86-31.12h41.7c4.03,0,40.17.71,49.18-.61Z"/>
      <path class="cls-6" d="M108.75,69.51c-2.54-.24-6.39.16-9.06.16-4.05,0-65,.51-68.87.34-2.67-.1-8.21-.8-11.59-.9,2.82-6.12,11.14-20.99,12.69-21.91.58-.35,6.97-.58,15.47-.71.81-.02,1.63-.03,2.47-.03,8.58-.11,18.81-.11,27.32,0,.99.01,1.96.02,2.89.05,8.04.12,14.03.36,14.65.7,1.73.94,11.34,16.48,14.03,22.32Z"/>
    </g>
    <path class="cls-1" d="M114.25,68.93c-1.47-2.02-15.48-25.05-17.13-26.15-.74-.49-9.1-.39-19.09-.2-.92.01-1.86.03-2.8.06-9.8.19-20.58.43-27.11.28-.97-.02-1.84-.06-2.61-.09-.25-.01-.48-.03-.7-.04-10.87-.73-15.84,0-16.39,1.1-.55,1.11-7.92,13.81-9.94,17.87-2.02,4.05-5.16,7.18-5.16,9.2s4.97,37.02,6.45,38.31c1.47,1.29,85.27.92,87.85,0,2.23-.8,5.34-22.28,5.34-26.52s2.77-11.79,1.29-13.81ZM31.92,47.19c.58-.35,6.97-.58,15.47-.71.81-.02,1.63-.03,2.47-.03,8.58-.11,18.81-.11,27.32,0,.99.01,1.96.02,2.89.05,8.04.12,14.03.36,14.65.7,1.73.94,11.34,16.48,14.03,22.32-2.54-.24-6.39.16-9.06.16-4.05,0-65,.51-68.87.34-2.67-.1-8.21-.8-11.59-.9,2.82-6.12,11.14-20.99,12.69-21.91ZM103.19,105.21c-1.28.92-79.01,1.1-79.93,0-.79-.96-4.14-23.24-4.86-31.12h41.7c4.03,0,40.17.71,49.18-.61-.89,7.44-4.94,30.91-6.09,31.73Z"/>
    <path class="cls-3" d="M87.56,61c-.15.28-9.11.36-19.23.34-2.02.01-4.11,0-6.16-.01-1.53-.01-3.06-.02-4.54-.03-.73,0-1.45-.01-2.16-.01-8.55-.07-15.51-.19-15.74-.28-.6-.24-.8-1.82,0-2.27.26-.15,6.37-.21,14.12-.22.72-.01,1.46-.01,2.22-.01,3.84,0,7.96.01,11.92.01h.01c2.02.02,4,.02,5.88.03,7.6.06,13.5.12,13.69.19.54.19.34,1.63,0,2.27Z"/>
    <path class="cls-4" d="M79.58,51.64c.08.57-5.96,3.99-11.6,6.86h-.01c-3.96,0-8.09-.01-11.92-.01-4.54-8.38-13.53-26.67-13.42-27.21.13-.71,19.45-11.02,20.78-10.08,1.18.83,16.03,29.39,16.18,30.44Z"/>
    <path class="cls-3" d="M79.94,46.37c-.61-1.2-1.3-2.53-2.05-3.93-5.31-10.03-13.14-23.75-14.03-24.48-1.38-1.12-23.62,11.62-24.04,12.74-.16.44,2.33,5.69,5.55,11.98.61,1.19,1.24,2.43,1.88,3.67,2.2,4.22,4.54,8.56,6.51,12.01.02.04.04.08.07.12.72-.01,1.46-.01,2.22-.01-4.54-8.38-13.53-26.67-13.42-27.21.13-.71,19.45-11.02,20.78-10.08,1.18.83,16.03,29.39,16.18,30.44.08.57-5.96,3.99-11.6,6.86,2.02.02,4,.02,5.88.03.08-.04.16-.08.24-.12h.01c4.67-2.46,8.57-4.83,8.68-5.58.08-.47-1.08-2.98-2.86-6.46Z"/>
  </g>
</svg>