<?xml version="1.0" encoding="UTF-8"?>
<svg xmlns="http://www.w3.org/2000/svg" viewBox="0 0 128 128">
  <defs>
    <style>
      .cls-1 {
        fill: #fff;
        font-family: MyriadPro-Regular, 'Myriad Pro';
        font-size: 16px;
      }

      .cls-2 {
        fill: #9e3f7a;
      }

      .cls-3 {
        fill: #dd83b7;
      }

      .cls-4 {
        letter-spacing: 0em;
      }

      .cls-5 {
        letter-spacing: 0em;
      }

      .cls-6 {
        letter-spacing: 0em;
      }

      .cls-7 {
        letter-spacing: .01em;
      }
    </style>
  </defs>
  <g id="labels">
    <text class="cls-1" transform="translate(43.15 -15.57)"><tspan class="cls-7" x="0" y="0">K</tspan><tspan x="8.83" y="0">illing</tspan></text>
    <text class="cls-1" transform="translate(30.24 149.68)"><tspan class="cls-6" x="0" y="0">D</tspan><tspan x="10.72" y="0">e</tspan><tspan class="cls-4" x="18.74" y="0">c</tspan><tspan x="25.81" y="0">epti</tspan><tspan class="cls-5" x="51.97" y="0">v</tspan><tspan x="59.5" y="0">e</tspan></text>
  </g>
  <g id="designs">
    <g>
      <path class="cls-3" d="M112.71,15.41l-6.18,27.19c-.03.15-.12.29-.24.39l-54.63,46.84c-.28.24-.69.23-.96,0l-11.8-10.49c-.29-.26-.33-.69-.09-1l44.23-56.01c.1-.12.23-.21.39-.25l28.38-7.53c.53-.14,1.02.33.9.87Z"/>
      <path d="M114.22,15.76c-.78,3.8-1.47,9.79-2.02,13.7-.57,4.76-2.11,9.32-3.13,13.99-.17.56-.5,1.07-.92,1.48,0,0-.13.12-.13.12,0,0-.08.07-.08.07l-.65.56c-.79.69-3.04,2.72-3.87,3.44-3.25,2.89-12.1,10.79-15.46,13.79-5.97,5.28-14.57,13.34-20.8,18.17-3.09,2.44-7.64,6.32-10.78,8.64,0,0-2.76,2.08-2.76,2.08-.84.74-2.02,1.1-3.11.84-1.35-.27-2.17-1.49-3.2-2.3-2.93-2.57-7.29-6.52-10.19-9.06-1.28-1.12-1.47-3.2-.42-4.55.57-.73.97-1.44,1.43-2.23,3.33-4.69,7.01-9.13,10.75-13.51,4.36-5.36,8.36-11,12.8-16.29,1.57-1.69,2.88-3.59,4.28-5.42,3.98-5.66,8.66-10.75,13.02-16.11.28-.33,1.32-1.68,1.61-2.03.36-.45.75-.98,1.27-1.27.47-.31,1.01-.41,1.53-.55.58-.16,1.92-.5,2.5-.66,6.41-1.85,13.61-3.39,20.19-4.68,2-.33,3.97-.73,5.97-1.05,1.41,0,2.55,1.44,2.19,2.81h0ZM109.46,14.67c-.51,2.41,1.87,3.45,3,3.2-3.85,1.26-7.82,1.98-11.83,2.51-2.05.39-4.87.55-6.81,1.27-2.25.68-7.54,2.33-9.7,3,.36-.08.81-.38,1.02-.66,0,0-.03.04-.03.04-.48.64-1.41,1.82-1.91,2.48-2.79,3.67-5.9,7.08-8.88,10.58-7.28,8.92-13.97,18.3-20.93,27.46-2.03,2.65-4.39,5.45-6.58,8-1.88,2.52-3.72,5.11-5.87,7.4.61-.76.5-1.96-.23-2.6,0,0,.13.12.13.12l.32.28c3.23,2.79,7.79,6.86,10.96,9.76,0,0,.32.29.32.29l.03.03s-.11-.09-.11-.09c-.67-.56-1.85-.46-2.39.06.02-.02.1-.09.12-.1,5.91-4.86,12.29-10.98,18.02-16.1,10.18-8.49,21.76-17.94,31.75-26.61,1.22-1.02,3.45-3,4.7-3.96-.24.23-.51.63-.57,1.01,1.18-3.37,1.66-6.89,2.08-10.42.41-2.36,2.85-14.37,3.38-16.93h0Z"/>
    </g>
    <g>
      <polygon class="cls-2" points="28.5 106.98 28.73 113.29 15.48 113.48 15.27 100.23 22.02 100.84 32.27 90.01 38.55 95.76 39.62 96.89 28.5 106.98"/>
      <path d="M31.15,108.1c-.28.09-.16.35-.15.56l.09.66c.15,1.28.33,2.71.53,3.96.22,1.38-.72,2.67-2.1,2.88-1.91-.02-3.81-.43-5.73-.3-2.56.29-5.69.34-8.28.49-1.6.08-2.95-1.23-2.92-2.83.01-1.97-.02-4.69-.05-6.63,0,0-.16-6.63-.16-6.63-.05-1.7,1.45-3.09,3.14-2.91,0,0,6.74.61,6.74.61l-2.35.89c1.45-1.1,2.9-2.45,4.24-3.68,1.26-1.29,2.72-2.66,3.89-4.02.81-.95,1.53-1.97,2.12-3.12.64-1.3,2.43-1.62,3.49-.64,0,0,.54.49.54.49,1.28,1.19,6.86,6.17,7.88,7.42.91.96.87,2.46-.09,3.37-1,.72-2.36,1.56-3.33,2.36-2.66,2.15-5.3,4.49-7.52,7.06h0ZM26.2,106.02c3.56-3.87,7.51-7.81,11.48-11.26,0,0-.15,4.11-.15,4.11-.58-1.32-.96-1.86-1.95-3.01-1.5-1.59-2.91-3.39-5.25-3.72,0,0,4.03-.14,4.03-.14-2.36,2.9-5.27,5.29-8.08,7.75-.94.82-1.93,1.59-2.91,2.38l-1.52.58c-1.2.71-2.32.57-3.46.62-1.13.03-2.26-.03-3.38-.22,0,0,3.14-2.91,3.14-2.91-.24,2.21-.27,4.42-.27,6.63.01,2.22.11,4.43.47,6.62,0,0-2.92-2.83-2.92-2.83,2.21.04,4.42-.03,6.63-.12,2.19-.34,4.41-.32,6.63-.07,0,0-2.83,2.98-2.83,2.98-.05-1.81.04-3.8.14-5.6.06-.51-.02-1.32.21-1.77h0Z"/>
    </g>
    <g>
      <path class="cls-2" d="M60.52,100.86l-11.28,4.5c-.18.07-.39.03-.54-.1l-9.08-8.37-.1-.09-8.14-7.49-.09-.09-8.83-8.13c-.15-.14-.21-.36-.13-.56l3.86-10.24c.13-.34.55-.44.82-.2l10.88,9.67,12.79,11.37,9.99,8.87c.28.25.2.72-.15.86Z"/>
      <path d="M61.42,103.12c-1.89,1.29-3.82,2.46-6.06,2.86-1.12.27-3.86.91-4.94,1.15,0,0-.41.09-.41.09-.86.35-2.03.08-2.62-.58-.13-.18-.25-.33-.42-.47,0,0-9.76-9.14-9.76-9.14-4.33-3.58-7.45-8.46-12.15-11.52-1.29-.86-2.67-1.59-3.68-2.78-.2-.18-.38-.3-.57-.54-.47-.61-.53-1.25-.84-1.99-.07-.18-.05-.46-.06-.59.33-1.45,1.34-2.71,1.83-4.11.77-1.79,1.57-3.58,2.06-5.48.09-.26.1-.43.25-.75.73-1.78,3.25-2.28,4.62-.93,0,0,.63.55.63.55.77.68,2.96,2.61,3.76,3.32,1.58,1.1,3.63,3.05,5.1,4.33,3.18,2.82,11.72,10.4,15.01,13.31,1.68,1.47,3.16,3.15,4.8,4.67,1.36,1.01,2.41,2.33,3.53,3.58,0,0,.31.29.31.29,1.47,1.16,1.49,3.92-.39,4.74h0ZM59.61,98.59c-1.74.77-1.21,2.61-.72,3.09-.86-.79-1.99-1.69-2.79-2.52-1.02-1.35-2.36-2.37-3.69-3.4-4.47-3.36-7.47-8.33-12.01-11.66-3.42-2.86-7.34-5.16-10.51-8.31-.79-.69-3.01-2.62-3.79-3.28,0,0-.63-.54-.63-.54l-.04-.03s-.07-.06,0,0c.92.82,2.51.46,3-.67.08-.18.03-.09.03-.06,0,0-.04.1-.04.1,0,0-.15.39-.15.39-.52,1.4-1.53,4.05-2.06,5.48-.52,1.29-.85,2.66-1.46,3.92,0,0-.09.19-.09.19-.02.03-.02.07-.06.09-.01-.03-.01-.24-.06-.35-.26-.5-.24-.86-.53-1.21-.05-.07-.16-.18-.19-.2l.07.08c.25.27.84.71,1.13.94,1.6,1.22,3.69,3,5.18,4.3,1.81,1.5,6.03,4.89,7.73,6.38,1.58,1.49,10.39,9.8,12.15,11.46,0,0,.3.29.3.29l.15.15c-.44-.46-1.47-.72-2.18-.45-.07.02-.17.06-.12.04.29-.1,1.65-.62,1.96-.73,2.02-.75,7.33-2.73,9.41-3.5h0Z"/>
    </g>
    <path d="M43.14,84.45c-.22-1.9.76-2.8,1.51-3.85,2.43-2.99,5.32-5.55,8.04-8.25,3.31-3.1,7.86-7.49,10.99-10.67,3.16-3.2,7.55-7.82,10.48-11.15,3.44-3.67,7.27-7.29,11.15-10.49.62-.51,1.54-.41,2.05.21.44.54.43,1.3,0,1.83-1.6,2-3.28,3.92-5.01,5.8-4.15,4.74-9.38,8.76-13.42,13.6-2.37,2.86-4.91,6.07-7.47,8.73-3.48,3.71-7.49,6.92-10.81,10.78-.83.96-1.65,1.92-2.56,2.8-.97.84-1.66,1.86-3.6,1.85-.7.02-1.29-.5-1.37-1.18h0Z"/>
  </g>
</svg>