<?xml version="1.0" encoding="UTF-8"?>
<svg xmlns="http://www.w3.org/2000/svg" viewBox="0 0 128 128">
  <defs>
    <style>
      .cls-1 {
        fill: #cee0dd;
      }

      .cls-2 {
        letter-spacing: 0em;
      }

      .cls-3 {
        fill: #fff;
        font-family: MyriadPro-Regular, 'Myriad Pro';
        font-size: 16px;
      }

      .cls-4 {
        letter-spacing: -.01em;
      }

      .cls-5 {
        letter-spacing: 0em;
      }

      .cls-6 {
        letter-spacing: -.01em;
      }

      .cls-7 {
        letter-spacing: 0em;
      }

      .cls-8 {
        letter-spacing: .01em;
      }
    </style>
  </defs>
  <g id="labels">
    <text class="cls-3" transform="translate(21.62 -15.57)"><tspan class="cls-8" x="0" y="0">I</tspan><tspan class="cls-4" x="3.98" y="0">n</tspan><tspan class="cls-7" x="12.66" y="0">v</tspan><tspan class="cls-2" x="20.19" y="0">estig</tspan><tspan class="cls-5" x="52.53" y="0">a</tspan><tspan x="60.18" y="0">ti</tspan><tspan class="cls-6" x="69.22" y="0">v</tspan><tspan x="76.75" y="0">e</tspan></text>
  </g>
  <g id="designs">
    <g>
      <path d="M81.09,64.79c-3.23,6.88-9.21,10.11-13.08,12.2-2.41,1.31-8.18,4.33-16.1,4.2-3.04-.05-8.84-.15-14.31-4.01-4.36-3.07-7.3-6.84-9.01-10.37-2.67-5.52-5.27-13.89-2.22-22.99,3.45-10.29,13.12-14.6,16.95-16.23,2.04-.88,5.51-2.31,10.26-2.48,8.11-.29,14.09,3.32,16.45,4.95,1.04.73,5.46,3.9,8.77,9.92,1.18,2.16,7.52,13.65,2.29,24.8Z"/>
      <path class="cls-1" d="M81.09,64.79c-3.23,6.88-9.21,10.11-13.08,12.2-2.41,1.31-8.18,4.33-16.1,4.2-3.04-.05-8.84-.15-14.31-4.01-4.36-3.07-7.3-6.84-9.01-10.37-2.67-5.52-5.27-13.89-2.22-22.99,3.45-10.29,13.12-14.6,16.95-16.23,2.04-.88,5.51-2.31,10.26-2.48,8.11-.29,14.09,3.32,16.45,4.95,1.04.73,5.46,3.9,8.77,9.92,1.18,2.16,7.52,13.65,2.29,24.8Z"/>
      <path d="M109.41,100.32c-1.31-2.22-17.93-17.46-26.36-24.8.93-1.08,1.81-2.3,2.62-3.68,4.37-7.41,4.13-14.72,3.99-18.66-.25-7.87-2.79-13.59-3.99-16.24-1.25-2.75-2.52-5.52-5.16-8.4-.78-.86-4.31-4.58-12.58-7.57-5.44-1.96-12.9-4.67-22.32-2.91-3.89.72-16,3.64-23.27,15.26-7.18,11.45-4.59,23.33-3.81,26.89.8,3.7,4.42,17.69,17.93,25.16,8.96,4.97,17.58,4.46,20.21,4.21,8.43-.79,14.22-4.49,17.55-6.68.02-.01.06-.03.08-.06,7.23,8.38,25.26,29.23,30.98,27.58,6.53-1.88,5.85-7.19,4.14-10.1ZM68.01,76.98c-2.41,1.31-8.18,4.33-16.1,4.2-3.04-.05-8.84-.15-14.31-4.01-4.36-3.07-7.3-6.84-9.01-10.37-2.67-5.52-5.27-13.89-2.22-22.99,3.45-10.29,13.12-14.6,16.95-16.23,2.04-.88,5.51-2.31,10.26-2.48,8.11-.29,14.09,3.32,16.45,4.95,1.04.73,5.46,3.9,8.77,9.92,1.18,2.16,7.52,13.65,2.29,24.8-3.23,6.88-9.21,10.11-13.08,12.2Z"/>
      <path d="M83.05,75.52c-2.6-2.26-4.41-3.77-4.77-3.93"/>
      <path d="M74.29,82.84c-1.02-1.17-1.82-2.11-2.35-2.7"/>
      <path d="M53.08,30.69c7.05-1.52,14.85,1.77,19.08,7.56,1.41,2,5.05,8.07,1.11,9.03-.81.14-1.58-.17-2.08-.76-2.56-2.79-5-5.27-8.1-7.29-3.09-2.05-6.48-3.3-10.13-4.33-2.15-.6-2.03-3.75.12-4.22h0Z"/>
    </g>
  </g>
</svg>