<?xml version="1.0" encoding="UTF-8"?>
<svg id="Layer_1" data-name="Layer 1" xmlns="http://www.w3.org/2000/svg" viewBox="0 0 128 128">
  <defs>
    <style>
      .cls-1, .cls-2 {
        stroke: #000;
        stroke-miterlimit: 10;
        stroke-width: 2px;
      }

      .cls-2 {
        fill: #fdc500;
      }
    </style>
  </defs>
  <path class="cls-1" d="M63.78,27.94c47.82-3.13,46.06,62.61,7,66.68-55.42,5.78-53.53-63.63-7-66.68ZM41.42,43.99c-11.84,13.29-8.62,41.03,11.27,44.43,2.31.4,17.17,1.91,19.18,1.8,10.95-.61,21.78-16.04,23.26-25.95,4.71-31.5-35.59-40.61-53.71-20.28Z"/>
  <path class="cls-1" d="M2.82,52.09c-3.36-.9,1.33-3.63,3.28-3.9,6.67-.94,10.5,3.9,7.77,3.9-2.53,0-9.17.5-11.05,0Z"/>
  <path class="cls-1" d="M25.2,107.89c-1.61-1.57,7.55-9.92,9.07-10.54,2.38-.96,2.25.72,1.34,2.46-.77,1.48-9.2,9.28-10.42,8.08Z"/>
  <path class="cls-1" d="M117.94,77.09c4.52-.12,10.63,3.95,3.69,4.32-1.01.05-8.74-.61-9.13-.85-2.83-1.73,4.17-3.44,5.44-3.47Z"/>
  <path class="cls-1" d="M10.65,28.97c5.3-2.1,14.18,7.84,9,6.85-1.09-.21-12.1-5.63-9-6.85Z"/>
  <path class="cls-1" d="M9.73,80.82c-2.44-2.37,9.49-9.32,10.49-5.79.5,1.74-9.37,6.88-10.49,5.79Z"/>
  <path class="cls-1" d="M115.27,53.19c-2.68-2.58,10.38-7.13,11.04-4.68.79,2.93-10.42,5.29-11.04,4.68Z"/>
  <path class="cls-1" d="M95.1,97.96c.62,0,9.07,8.18,6.91,9.67-2.96,2.04-9.78-9.64-6.91-9.67Z"/>
  <path class="cls-1" d="M71.06,120.61c-3.53,3.58-3.66-14.09.04-10.81.95.84.42,10.35-.04,10.81Z"/>
  <path class="cls-1" d="M102.01,28.32c-1.21-1.19,3.58-9.83,5.24-9.39,2.74.73-3.13,11.47-5.24,9.39Z"/>
  <path class="cls-1" d="M40.67,20.59c-1.89,2.04-6.26-8.37-4.97-9.94s6.39,8.41,4.97,9.94Z"/>
  <path class="cls-1" d="M74.38,7.33c.33.36.28,9.75-1.92,9.39-3.13-.51-.6-12.15,1.92-9.39Z"/>
  <path class="cls-2" d="M41.42,43.99c18.12-20.33,58.42-11.22,53.71,20.28-1.48,9.91-12.31,25.34-23.26,25.95-2,.11-16.86-1.4-19.18-1.8-19.88-3.4-23.11-31.14-11.27-44.43Z"/>
</svg>