<?xml version="1.0" encoding="UTF-8"?>
<svg id="Layer_1" data-name="Layer 1" xmlns="http://www.w3.org/2000/svg" viewBox="0 0 128 128">
  <defs>
    <style>
      .cls-1 {
        font-family: MyriadPro-Regular, 'Myriad Pro';
        font-size: 16px;
      }

      .cls-2 {
        letter-spacing: 0em;
      }

      .cls-3 {
        letter-spacing: -.01em;
      }

      .cls-4 {
        letter-spacing: 0em;
      }

      .cls-5 {
        letter-spacing: -.01em;
      }

      .cls-6 {
        letter-spacing: 0em;
      }

      .cls-7 {
        letter-spacing: .01em;
      }
    </style>
  </defs>
  <text class="cls-1" transform="translate(21.62 69.68)"><tspan class="cls-7" x="0" y="0">I</tspan><tspan class="cls-3" x="3.98" y="0">n</tspan><tspan class="cls-6" x="12.66" y="0">v</tspan><tspan class="cls-2" x="20.19" y="0">estig</tspan><tspan class="cls-4" x="52.53" y="0">a</tspan><tspan x="60.18" y="0">ti</tspan><tspan class="cls-5" x="69.22" y="0">v</tspan><tspan x="76.75" y="0">e</tspan></text>
  <path d="M119.55,0H8.45C3.78,0,0,3.78,0,8.45v111.1c0,4.67,3.78,8.45,8.45,8.45h111.1c4.67,0,8.45-3.78,8.45-8.45V8.45c0-4.67-3.78-8.45-8.45-8.45ZM115.85,110.22c0,3.63-2.94,6.58-6.58,6.58H18.73c-3.64,0-6.58-2.95-6.58-6.58V19.67c0-3.63,2.94-6.58,6.58-6.58h90.54c3.64,0,6.58,2.95,6.58,6.58v90.55Z"/>
</svg>