<?xml version="1.0" encoding="UTF-8"?>
<svg id="Layer_1" data-name="Layer 1" xmlns="http://www.w3.org/2000/svg" viewBox="0 0 128 128">
  <defs>
    <style>
      .cls-1 {
        font-family: MyriadPro-Regular, 'Myriad Pro';
        font-size: 16px;
      }

      .cls-2 {
        letter-spacing: 0em;
      }

      .cls-3 {
        letter-spacing: 0em;
      }

      .cls-4 {
        letter-spacing: 0em;
      }
    </style>
  </defs>
  <text class="cls-1" transform="translate(30.24 69.68)"><tspan class="cls-4" x="0" y="0">D</tspan><tspan x="10.72" y="0">e</tspan><tspan class="cls-2" x="18.74" y="0">c</tspan><tspan x="25.81" y="0">epti</tspan><tspan class="cls-3" x="51.97" y="0">v</tspan><tspan x="59.5" y="0">e</tspan></text>
  <path d="M119.55,0H8.45C3.78,0,0,3.78,0,8.45v111.1c0,4.67,3.78,8.45,8.45,8.45h111.1c4.67,0,8.45-3.78,8.45-8.45V8.45C128,3.78,124.22,0,119.55,0ZM115.85,110.22c0,3.63-2.94,6.58-6.58,6.58H18.73c-3.64,0-6.58-2.95-6.58-6.58V19.67c0-3.63,2.94-6.58,6.58-6.58h90.54c3.64,0,6.58,2.95,6.58,6.58v90.55Z"/>
</svg>