<?xml version="1.0" encoding="UTF-8"?>
<svg id="designs" xmlns="http://www.w3.org/2000/svg" viewBox="0 0 128 128">
  <defs>
    <style>
      .cls-1 {
        fill: #2b81b4;
      }

      .cls-1, .cls-2 {
        stroke: #000;
        stroke-miterlimit: 10;
        stroke-width: 3px;
      }
    </style>
  </defs>
  <g id="hbl9A9.tif">
    <g>
      <path class="cls-2" d="M98.59,95.52c-9.68,1.49-25.14-7.37-31.09-13.97-10.97-12.17-16.94-41.24-8.6-56.7,1.15-2.15,8.01-9.9,1.7-8.69-16.91,3.26-35.84,26.44-38.38,41.93-5.56,33.71,26.42,61.42,61.4,52.02,5.63-1.51,20.21-7.97,22.48-13.38,1.99-4.74-5.45-1.52-7.5-1.22ZM100.84,98.22c-4.66,3.3-9.1,6.33-14.52,8.39-19.22,7.32-43.41-1.55-53.9-17.7-14.12-21.71-7.87-41.34,10.76-59.62,2.73-2.68,8.5-7.3,12.1-8.37,4.44-1.3.46,3.41-.22,5.19-10.78,28.25,5.1,67.32,37.89,71.57,1.15.15,6.58-.62,6.95-.59.87.09,1.17.84.93,1.14Z"/>
      <path class="cls-1" d="M100.84,98.22c-4.66,3.3-9.1,6.33-14.52,8.39-19.22,7.32-43.41-1.55-53.9-17.7-14.12-21.71-7.87-41.34,10.76-59.62,2.73-2.68,8.5-7.3,12.1-8.37,4.44-1.3.46,3.41-.22,5.19-10.78,28.25,5.1,67.32,37.89,71.57,1.15.15,6.58-.62,6.95-.59.87.09,1.17.84.93,1.14Z"/>
    </g>
  </g>
</svg>