<?xml version="1.0" encoding="UTF-8"?>
<svg xmlns="http://www.w3.org/2000/svg" viewBox="0 0 128 128">
  <defs>
    <style>
      .cls-1, .cls-2, .cls-3, .cls-4 {
        stroke: #000;
        stroke-miterlimit: 10;
      }

      .cls-1, .cls-4 {
        stroke-width: 2px;
      }

      .cls-2 {
        fill: #2b81b4;
      }

      .cls-2, .cls-3 {
        stroke-width: 3px;
      }

      .cls-5 {
        fill: #fff;
        font-family: MyriadPro-Regular, 'Myriad Pro';
        font-size: 16px;
      }

      .cls-6 {
        letter-spacing: 0em;
      }

      .cls-7 {
        letter-spacing: 0em;
      }

      .cls-8 {
        letter-spacing: 0em;
      }

      .cls-4 {
        fill: #fdc500;
      }

      .cls-9 {
        letter-spacing: 0em;
      }
    </style>
  </defs>
  <g id="labels">
    <text class="cls-5" transform="translate(24.21 -15.57)"><tspan class="cls-9" x="0" y="0">N</tspan><tspan class="cls-6" x="10.69" y="0">ig</tspan><tspan class="cls-7" x="23.38" y="0">h</tspan><tspan x="32.19" y="0">t + D</tspan><tspan class="cls-8" x="64.46" y="0">a</tspan><tspan x="72.05" y="0">y</tspan></text>
  </g>
  <g id="designs">
    <g>
      <path class="cls-1" d="M61.99,29.79c45.08-2.95,43.43,59.02,6.6,62.86-52.25,5.45-50.47-59.99-6.6-62.86ZM40.91,44.92c-11.17,12.53-8.12,38.68,10.62,41.89,2.18.37,16.19,1.8,18.08,1.69,10.32-.57,20.53-15.12,21.93-24.46,4.44-29.69-33.55-38.28-50.63-19.12Z"/>
      <path class="cls-1" d="M11.71,55.28c-3.17-.84.31-2.48,2.15-2.74,6.29-.88,9.9,2.74,7.33,2.74-2.39,0-7.71.47-9.48,0Z"/>
      <path class="cls-1" d="M20.09,29.24c5-1.98,12.42,6.45,7.54,5.52-1.02-.2-10.47-4.36-7.54-5.52Z"/>
      <path class="cls-1" d="M14.77,80.17c-2.3-2.23,8.41-7.1,8.95-4.51.35,1.67-7.89,5.54-8.95,4.51Z"/>
      <path class="cls-1" d="M47.23,23.2c-1.78,1.93-5.9-6.95-4.68-8.43s6.02,6.98,4.68,8.43Z"/>
      <path class="cls-1" d="M71.98,12.24c.31.34.15,9.62-1.81,8.85-2.5-.97-.57-11.46,1.81-8.85Z"/>
      <path class="cls-4" d="M40.91,44.92c17.08-19.17,55.07-10.58,50.63,19.12-1.4,9.34-11.61,23.89-21.93,24.46-1.89.1-15.9-1.32-18.08-1.69-18.75-3.2-21.79-29.36-10.62-41.89Z"/>
    </g>
    <g id="hbl9A9.tif">
      <g>
        <path class="cls-3" d="M81.17,27.9c4.64,7.98,2.17,24.61-1.58,32.09-6.92,13.81-30.39,29.04-46.82,27.04-2.28-.27-11.45-3.63-8.21,1.5,8.67,13.72,35.53,22.37,50.01,19.29,31.5-6.7,44.84-44.31,24.57-71.78-3.26-4.43-13.94-15-19.47-15.14-4.85-.12.54,5.31,1.51,7ZM82.76,25c4.5,2.96,8.68,5.82,12.35,9.86,13.03,14.35,13.56,38.64,2.98,53.4-14.21,19.86-33.59,21.12-56.04,11.04-3.29-1.48-9.33-4.95-11.51-7.74-2.67-3.45,2.84-1.57,4.63-1.59,28.51-.25,57.35-27.61,49.81-57.86-.27-1.06-2.8-5.56-2.91-5.89-.22-.79.33-1.32.68-1.21Z"/>
        <path class="cls-2" d="M82.76,25c4.5,2.96,8.68,5.82,12.35,9.86,13.03,14.35,13.56,38.64,2.98,53.4-14.21,19.86-33.59,21.12-56.04,11.04-3.29-1.48-9.33-4.95-11.51-7.74-2.67-3.45,2.84-1.57,4.63-1.59,28.51-.25,57.35-27.61,49.81-57.86-.27-1.06-2.8-5.56-2.91-5.89-.22-.79.33-1.32.68-1.21Z"/>
      </g>
    </g>
  </g>
</svg>