<?xml version="1.0" encoding="UTF-8"?>
<svg xmlns="http://www.w3.org/2000/svg" viewBox="0 0 128 128">
  <defs>
    <style>
      .cls-1, .cls-2 {
        stroke: #000;
        stroke-miterlimit: 10;
        stroke-width: 2px;
      }

      .cls-3 {
        fill: #fff;
        font-family: MyriadPro-Regular, 'Myriad Pro';
        font-size: 16px;
      }

      .cls-4 {
        letter-spacing: -.02em;
      }

      .cls-2 {
        fill: #fdc500;
      }
    </style>
  </defs>
  <g id="labels">
    <text class="cls-3" transform="translate(39.32 149.68)"><tspan class="cls-4" x="0" y="0">V</tspan><tspan x="8.67" y="0">isiting</tspan></text>
  </g>
  <g id="designs">
    <g>
      <path class="cls-1" d="M63.82,30.16c44.74-2.93,43.1,58.58,6.55,62.39-51.85,5.41-50.09-59.54-6.55-62.39ZM42.91,45.17c-11.08,12.43-8.06,38.39,10.54,41.57,2.17.37,16.07,1.79,17.94,1.68,10.25-.57,20.38-15.01,21.77-24.28,4.41-29.47-33.3-38-50.25-18.97Z"/>
      <path class="cls-1" d="M7.39,56.49c-2.33-.58,1.01-2.21,2.83-2.46,6.24-.88,9.18,2.03,6.91,2.58s-7.4.46-9.74-.12Z"/>
      <path class="cls-1" d="M30.52,105.8c-1.51-1.47,7.07-9.29,8.49-9.86,2.22-.9,2.1.67,1.26,2.3-.72,1.38-8.6,8.68-9.75,7.56Z"/>
      <path class="cls-1" d="M114.3,77.04c4.23,0,10.15,2.92,3.65,3.15-3.86.13-6.81-.22-8.55-.8-2.95-.98,2.31-2.35,4.9-2.35Z"/>
      <path class="cls-1" d="M14.12,31.12c4.96-1.96,13.27,7.34,8.42,6.41-1.02-.19-11.33-5.26-8.42-6.41Z"/>
      <path class="cls-1" d="M13.13,81.96c-2.29-2.21,8.88-8.72,9.82-5.42.46,1.63-8.76,6.44-9.82,5.42Z"/>
      <path class="cls-1" d="M112.01,53.78c-2.5-2.41,9.72-6.67,10.33-4.38.74,2.74-9.75,4.95-10.33,4.38Z"/>
      <path class="cls-1" d="M93.13,95.67c.58,0,8.48,7.65,6.46,9.05-2.77,1.91-9.15-9.02-6.46-9.05Z"/>
      <path class="cls-1" d="M70.02,113.8c-3.31,3.35-3.42-13.18.03-10.12.89.79.39,9.69-.03,10.12Z"/>
      <path class="cls-1" d="M99.6,30.51c-1.13-1.12,3.35-9.19,4.9-8.78,2.57.68-2.93,10.73-4.9,8.78Z"/>
      <path class="cls-1" d="M42.2,23.28c-1.77,1.91-5.86-7.83-4.65-9.3s5.97,7.87,4.65,9.3Z"/>
      <path class="cls-1" d="M73.74,10.87c.31.34.26,9.12-1.8,8.78-2.93-.47-.57-11.37,1.8-8.78Z"/>
      <path class="cls-2" d="M42.91,45.17c16.96-19.02,54.66-10.5,50.25,18.97-1.39,9.27-11.52,23.71-21.77,24.28-1.87.1-15.78-1.31-17.94-1.68-18.6-3.18-21.62-29.14-10.54-41.57Z"/>
    </g>
  </g>
</svg>