<?xml version="1.0" encoding="UTF-8"?>
<svg xmlns="http://www.w3.org/2000/svg" viewBox="0 0 128 128">
  <defs>
    <style>
      .cls-1 {
        stroke: #000;
        stroke-miterlimit: 10;
        stroke-width: 2px;
      }

      .cls-2 {
        fill: #fff;
        font-family: MyriadPro-Regular, 'Myriad Pro';
        font-size: 16px;
      }

      .cls-3 {
        fill: #fff597;
      }
    </style>
  </defs>
  <g id="labels">
    <text class="cls-2" transform="translate(36.76 -10.32)"><tspan x="0" y="0">One use</tspan></text>
  </g>
  <g id="designs">
    <path class="cls-1" d="M70.3,16.3c8.46-1.16,6.06,11.92,4.86,16.7-1.43,5.71-3.78,11.2-5.24,16.89-.31,1.21-.79,1.95.66,2.52,5,1.97,8.97,1.25,13.94,4.65,3.72,2.55-.28,13.19-2.84,17.99-4.03,7.58-10.2,17.14-15.7,23.57-2.67,3.12-6.23,8.95-13.53,11.07-3.65,1.06-5.45-3.76-4.88-10.08.73-7.94,4.18-15.18,6.57-22.81.03-.11.04-.22,0-.33l-.28-1.01c-.05-.18-.19-.33-.37-.37-3.73-.98-7.76-.99-11.58-1.6-6.26-1-7.79-4.09-5.06-9.84,4.57-9.62,13-25.81,19.11-34.52,3.32-4.73,8.48-12.03,14.32-12.83Z"/>
    <path class="cls-3" d="M78.11,68.18c-2.05,4.16-2.92,6.95-7.19,13.1-4.53,6.52-10.66,15.53-14.16,18.92-1.16,1.12-2.8,2.8-3.22,2.35-.97-1.05,2.25-9.7,3.66-13.04,1.57-3.75,3.92-12.1,4.4-15.79.87-6.55-7.57-6.26-10.92-6.6-3.71-.38-7.89.55-7.64-1.94,4.53-9.22,10.61-19.1,16.41-27.57,2.29-3.35,5.08-9.48,7.74-12.39.7-.77,1.32-1.62,2.48-1.28.48.2.51.68.53,1.08.06,2.16-2.84,11.83-3.7,14.39-1.64,4.91-3.56,9.72-5.37,14.57-1.17,4.1,4.03,4.44,6.85,4.99,3.92.77,10.9,1.05,12.07,3.54.56,1.19-.79,3.33-1.93,5.66Z"/>
  </g>
</svg>