<?xml version="1.0" encoding="UTF-8"?>
<svg xmlns="http://www.w3.org/2000/svg" viewBox="0 0 128 128">
  <defs>
    <style>
      .cls-1 {
        stroke: #000;
        stroke-miterlimit: 10;
        stroke-width: 2px;
      }

      .cls-2 {
        fill: #fff;
        font-family: MyriadPro-Regular, 'Myriad Pro';
        font-size: 16px;
      }

      .cls-3 {
        letter-spacing: -.04em;
      }

      .cls-4 {
        letter-spacing: -.01em;
      }

      .cls-5 {
        fill: #fff597;
      }
    </style>
  </defs>
  <g id="labels">
    <text class="cls-2" transform="translate(36.86 -10.32)"><tspan class="cls-3" x="0" y="0">T</tspan><tspan class="cls-4" x="7.31" y="0">w</tspan><tspan x="18.93" y="0">o use</tspan></text>
  </g>
  <g id="designs">
    <path class="cls-1" d="M57.34,24.19c7.48-1.02,5.36,10.54,4.3,14.77-1.26,5.05-3.34,9.9-4.63,14.94-.27,1.07-.7,1.73.58,2.23,4.42,1.74,7.94,1.1,12.33,4.12,3.29,2.26-.25,11.67-2.51,15.91-3.56,6.7-9.02,15.16-13.89,20.85-2.36,2.76-5.51,7.92-11.97,9.8-3.23.94-4.82-3.33-4.31-8.92.64-7.02,3.7-13.43,5.82-20.18.03-.09.03-.2,0-.29l-.24-.9c-.04-.16-.17-.29-.33-.33-3.3-.87-6.87-.87-10.25-1.42-5.54-.89-6.89-3.62-4.47-8.71,4.04-8.51,11.5-22.83,16.91-30.53,2.93-4.18,7.5-10.64,12.67-11.35Z"/>
    <path class="cls-5" d="M64.24,70.08c-1.81,3.68-2.58,6.15-6.36,11.59-4.01,5.77-9.43,13.74-12.53,16.74-1.03.99-2.48,2.48-2.85,2.08-.86-.93,1.99-8.58,3.24-11.53,1.39-3.32,3.46-10.71,3.89-13.97.77-5.79-6.7-5.54-9.66-5.83-3.28-.33-6.98.49-6.76-1.72,4.01-8.16,9.39-16.9,14.52-24.39,2.02-2.96,4.49-8.39,6.85-10.96.62-.68,1.17-1.43,2.19-1.13.42.18.45.6.47.95.06,1.91-2.52,10.47-3.28,12.73-1.45,4.35-3.15,8.6-4.75,12.89-1.04,3.63,3.57,3.92,6.06,4.41,3.46.68,9.65.93,10.67,3.13.49,1.05-.7,2.95-1.71,5.01Z"/>
    <path class="cls-1" d="M84.47,24.19c7.48-1.02,5.36,10.54,4.3,14.77-1.26,5.05-3.34,9.9-4.63,14.94-.27,1.07-.7,1.73.58,2.23,4.42,1.74,7.94,1.1,12.33,4.12,3.29,2.26-.25,11.67-2.51,15.91-3.56,6.7-9.02,15.16-13.89,20.85-2.36,2.76-5.51,7.92-11.97,9.8-3.23.94-4.82-3.33-4.31-8.92.64-7.02,3.7-13.43,5.82-20.18.03-.09.03-.2,0-.29l-.24-.9c-.04-.16-.17-.29-.33-.33-3.3-.87-6.87-.87-10.25-1.42-5.54-.89-6.89-3.62-4.47-8.71,4.04-8.51,11.5-22.83,16.91-30.53,2.93-4.18,7.5-10.64,12.67-11.35Z"/>
    <path class="cls-5" d="M91.37,70.08c-1.81,3.68-2.58,6.15-6.36,11.59-4.01,5.77-9.43,13.74-12.53,16.74-1.03.99-2.48,2.48-2.85,2.08-.86-.93,1.99-8.58,3.24-11.53,1.39-3.32,3.46-10.71,3.89-13.97.77-5.79-6.7-5.54-9.66-5.83-3.28-.33-6.98.49-6.76-1.72,4.01-8.16,9.39-16.9,14.52-24.39,2.02-2.96,4.49-8.39,6.85-10.96.62-.68,1.17-1.43,2.19-1.13.42.18.45.6.47.95.06,1.91-2.52,10.47-3.28,12.73-1.45,4.35-3.15,8.6-4.75,12.89-1.04,3.63,3.57,3.92,6.06,4.41,3.46.68,9.65.93,10.67,3.13.49,1.05-.7,2.95-1.71,5.01Z"/>
  </g>
</svg>