<?xml version="1.0" encoding="UTF-8"?>
<svg xmlns="http://www.w3.org/2000/svg" viewBox="0 0 128 128">
  <defs>
    <style>
      .cls-1 {
        fill: #fff;
        font-family: MyriadPro-Regular, 'Myriad Pro';
        font-size: 16px;
      }

      .cls-2 {
        letter-spacing: 0em;
      }

      .cls-3 {
        stroke: #000;
        stroke-miterlimit: 10;
        stroke-width: 3px;
      }

      .cls-4 {
        letter-spacing: -.01em;
      }

      .cls-5 {
        letter-spacing: 0em;
      }

      .cls-6 {
        fill: #fff597;
      }
    </style>
  </defs>
  <g id="labels">
    <text class="cls-1" transform="translate(31.81 -10.32)"><tspan class="cls-5" x="0" y="0">T</tspan><tspan x="7.84" y="0">h</tspan><tspan class="cls-4" x="16.72" y="0">r</tspan><tspan class="cls-2" x="21.79" y="0">ee use</tspan></text>
  </g>
  <g id="designs">
    <path class="cls-3" d="M48.83,28.49c6.7-.92,4.8,9.45,3.86,13.23-1.13,4.53-2.99,8.87-4.15,13.39-.25.96-.63,1.55.52,2,3.96,1.56,7.11.99,11.05,3.69,2.95,2.02-.22,10.45-2.25,14.26-3.19,6-8.08,13.58-12.45,18.68-2.12,2.47-4.94,7.1-10.72,8.78-2.9.84-4.32-2.98-3.86-7.99.58-6.29,3.32-12.03,5.21-18.08.03-.08.03-.18,0-.26l-.22-.8c-.04-.14-.15-.26-.3-.3-2.95-.78-6.15-.78-9.18-1.27-4.96-.79-6.18-3.24-4.01-7.8,3.62-7.62,10.31-20.45,15.15-27.36,2.63-3.75,6.72-9.53,11.35-10.17Z"/>
    <path class="cls-6" d="M55.02,69.61c-1.62,3.3-2.31,5.51-5.7,10.38-3.59,5.17-8.45,12.31-11.22,15-.92.88-2.22,2.22-2.55,1.86-.77-.83,1.78-7.69,2.9-10.33,1.25-2.97,3.1-9.59,3.49-12.51.69-5.19-6-4.96-8.66-5.23-2.94-.3-6.25.44-6.05-1.54,3.59-7.31,8.41-15.14,13.01-21.85,1.81-2.65,4.02-7.51,6.13-9.82.56-.61,1.04-1.28,1.96-1.02.38.16.41.54.42.86.05,1.71-2.25,9.38-2.94,11.41-1.3,3.89-2.82,7.71-4.26,11.55-.93,3.25,3.2,3.52,5.43,3.95,3.1.61,8.64.83,9.56,2.81.44.94-.62,2.64-1.53,4.49Z"/>
    <path class="cls-3" d="M73.14,28.49c6.7-.92,4.8,9.45,3.86,13.23-1.13,4.53-2.99,8.87-4.15,13.39-.25.96-.63,1.55.52,2,3.96,1.56,7.11.99,11.05,3.69,2.95,2.02-.22,10.45-2.25,14.26-3.19,6-8.08,13.58-12.45,18.68-2.12,2.47-4.94,7.1-10.72,8.78-2.9.84-4.32-2.98-3.86-7.99.58-6.29,3.32-12.03,5.21-18.08.03-.08.03-.18,0-.26l-.22-.8c-.04-.14-.15-.26-.3-.3-2.95-.78-6.15-.78-9.18-1.27-4.96-.79-6.18-3.24-4.01-7.8,3.62-7.62,10.31-20.45,15.15-27.36,2.63-3.75,6.72-9.53,11.35-10.17Z"/>
    <path class="cls-6" d="M79.33,69.61c-1.62,3.3-2.31,5.51-5.7,10.38-3.59,5.17-8.45,12.31-11.22,15-.92.88-2.22,2.22-2.55,1.86-.77-.83,1.78-7.69,2.9-10.33,1.25-2.97,3.1-9.59,3.49-12.51.69-5.19-6-4.96-8.66-5.23-2.94-.3-6.25.44-6.05-1.54,3.59-7.31,8.41-15.14,13.01-21.85,1.81-2.65,4.02-7.51,6.13-9.82.56-.61,1.04-1.28,1.96-1.02.38.16.41.54.42.86.05,1.71-2.25,9.38-2.94,11.41-1.3,3.89-2.82,7.71-4.26,11.55-.93,3.25,3.2,3.52,5.43,3.95,3.1.61,8.64.83,9.56,2.81.44.94-.62,2.64-1.53,4.49Z"/>
    <path class="cls-3" d="M97.44,28.49c6.7-.92,4.8,9.45,3.86,13.23-1.13,4.53-2.99,8.87-4.15,13.39-.25.96-.63,1.55.52,2,3.96,1.56,7.11.99,11.05,3.69,2.95,2.02-.22,10.45-2.25,14.26-3.19,6-8.08,13.58-12.45,18.68-2.12,2.47-4.94,7.1-10.72,8.78-2.9.84-4.32-2.98-3.86-7.99.58-6.29,3.32-12.03,5.21-18.08.03-.08.03-.18,0-.26l-.22-.8c-.04-.14-.15-.26-.3-.3-2.95-.78-6.15-.78-9.18-1.27-4.96-.79-6.18-3.24-4.01-7.8,3.62-7.62,10.31-20.45,15.15-27.36,2.63-3.75,6.72-9.53,11.35-10.17Z"/>
    <path class="cls-6" d="M103.63,69.61c-1.62,3.3-2.31,5.51-5.7,10.38-3.59,5.17-8.45,12.31-11.22,15-.92.88-2.22,2.22-2.55,1.86-.77-.83,1.78-7.69,2.9-10.33,1.25-2.97,3.1-9.59,3.49-12.51.69-5.19-6-4.96-8.66-5.23-2.94-.3-6.25.44-6.05-1.54,3.59-7.31,8.41-15.14,13.01-21.85,1.81-2.65,4.02-7.51,6.13-9.82.56-.61,1.04-1.28,1.96-1.02.38.16.41.54.42.86.05,1.71-2.25,9.38-2.94,11.41-1.3,3.89-2.82,7.71-4.26,11.55-.93,3.25,3.2,3.52,5.43,3.95,3.1.61,8.64.83,9.56,2.81.44.94-.62,2.64-1.53,4.49Z"/>
  </g>
</svg>