<?xml version="1.0" encoding="UTF-8"?>
<svg xmlns="http://www.w3.org/2000/svg" viewBox="0 0 128 128">
  <defs>
    <style>
      .cls-1 {
        fill: #c75000;
        stroke: #c75000;
        stroke-width: 2px;
      }

      .cls-1, .cls-2 {
        stroke-miterlimit: 10;
      }

      .cls-3 {
        fill: #fff;
        font-family: MyriadPro-Regular, 'Myriad Pro';
        font-size: 16px;
      }

      .cls-2 {
        stroke: #000;
      }

      .cls-4 {
        letter-spacing: -.02em;
      }

      .cls-5 {
        letter-spacing: -.04em;
      }

      .cls-6 {
        letter-spacing: -.01em;
      }
    </style>
  </defs>
  <g id="labels">
    <text class="cls-3" transform="translate(39.32 -10.32)"><tspan class="cls-4" x="0" y="0">V</tspan><tspan x="8.67" y="0">isiting</tspan></text>
    <text class="cls-3" transform="translate(36.86 149.68)"><tspan class="cls-5" x="0" y="0">T</tspan><tspan class="cls-6" x="7.31" y="0">w</tspan><tspan x="18.93" y="0">o use</tspan></text>
  </g>
  <g id="designs">
    <g>
      <path class="cls-1" d="M100.03,66.56c-.13,1.19-.26,6.73-.26,10.03s.35,9.15.21,11.66c-.13,2.5-.27,5.71-.21,7.97.05,2.3-.14,5.3-.66,5.56-.52.27-2.38,0-3.83.4-1.44.4-6.51.44-7.71.31-1.17-.13-4.41.03-5.08.08-.67.04-.52-.83-.58-2.02-.07-1.62.45-9.51,0-11.12-.45-1.61-.03-7.57-.03-9.34s.33-8.06-1.13-11.6c-1.45-3.55-9.02-4.03-12.08-4.1-3.06-.08-7.25.88-9.83.88s-6.35-.46-8.69.8c-2.53,1.36-1.81,5-2.21,6.98-.4,1.98.24,8.29.24,11.06s-.39,7.52-.26,11.47c.13,3.96.73,7.32.33,7.58-.4.26-4.03-.06-6.27-.18-2.24-.13-5.41.26-7.26-.04-1.84-.3-5.54.16-6.19,0-.67-.16-.23-3.61-.23-5.59s-.3-6.38-.46-8.23c-.18-1.85.16-5.81.01-7.78-.14-1.98.42-8.45.68-11.09.26-2.63-.8-8.7-.67-9.63.14-.92,4.62-5.67,6.2-7.25s5.94-5.54,7.4-6.86c1.44-1.32,5.27-4.09,7.25-6.2,1.98-2.11,4.75-5.68,6.86-7.52,2.11-1.85,5.14-5.68,8.04-6.2,2.92-.53,7.54,3.56,9.64,4.88,2.11,1.32,8.18,8.57,9.9,10.29s5.01,5.27,6.46,7.52c1.45,2.24,5.14,6.73,6.2,8.84,1.05,2.11,3.4,4.12,3.94,4.78.54.66.41,2.47.28,3.66Z"/>
      <path class="cls-2" d="M116.27,71.22c-1.76-3.2-10.49-12.63-12.4-15.3-1.91-2.67-7.02-7.85-9.34-10.78-2.34-2.93-3.46-4.66-5.06-6.26-2.76-2.78-5.24-6.15-7.05-8.22s-4.45-4.83-7.38-7.85c-2.93-3.01-8.19-4.56-9.64-4.65-1.48-.09-7.25,1.81-12.68,7.15-5.43,5.35-8.53,7.67-10.76,10.43-2.25,2.76-7.68,8.62-9.84,10.6-2.15,1.98-5.16,4.66-7.41,7.16-2.24,2.49-7.59,8.13-8.98,10.5-1.43,2.44-3.92,4.02-4.02,6.3-.06,1.43,3.41,3.39,4.47,3.07,1.75-.54,5.23-6.24,5.73-5.81.52.43-.75,8.4-.83,10.07-.06,1.42.12,5.39.12,7.28s.03,8.91.22,10.98c.66,7.12.22,8.43.63,10.32.37,1.71,1.98,3.38,7.13,3.39,2.52,0,5.68-.1,8.28.01,2.34.1,6.49.31,8.55.19,3.65-.22,6.01-.12,6.79-1.06.78-.95.6-4.48.96-6.47.33-1.98,1.02-6.81.94-10.86-.09-4.05-.28-10.91,0-13.35.23-2.15.34-4.4.94-4.92.6-.51,4.38-.08,7.96-.17,3.6-.08,7.64-.69,7.91-.69s2.4-.51,2.83.43c.43.95.78,10.09.78,12.93s.31,7.8.31,10.21.21,5.13.12,6.51c-.09,1.38.09,6.2,1.55,6.55,1.48.34,7.5.26,9.48.17,1.98-.08,7.58.09,9.31.09s4.67.04,6.68-.34c3.68-.69,3.75-3.27,3.75-5.25s.12-6.9.12-8.71-.17-5.95-.17-7.58.31-5.44.13-7.08c-.17-1.64.26-5.86.26-6.72s0-2.93.52-3.1c.52-.18,4,4.6,4.95,4.68.95.09,4.51-3.14,4.13-3.85ZM100.03,66.56c-.13,1.19-.26,6.73-.26,10.03s.35,9.15.21,11.66c-.13,2.5.1,5.77.16,8.03.05,2.3-.14,5.3-.66,5.56-.52.27-2.75-.06-4.2.34-1.44.4-6.51.44-7.71.31-1.17-.13-4.41.03-5.08.08-.67.04-.52-.83-.58-2.02-.07-1.62.45-9.51,0-11.12-.45-1.61-.03-7.57-.03-9.34s.33-8.06-1.13-11.6c-1.45-3.55-9.02-4.03-12.08-4.1-3.06-.08-7.25.88-9.83.88s-6.35-.46-8.69.8c-2.53,1.36-1.81,5-2.21,6.98-.4,1.98.24,8.29.24,11.06s-.39,7.52-.26,11.47c.13,3.96.73,7.32.33,7.58-.4.26-4.03-.06-6.27-.18-2.24-.13-5.41.26-7.26-.04-1.84-.3-5.54.16-6.19,0-.67-.16-.23-3.61-.23-5.59s-.3-6.38-.46-8.23c-.18-1.85.16-5.81.01-7.78-.14-1.98.42-8.45.68-11.09.26-2.63-.8-8.7-.67-9.63.14-.92,4.62-5.67,6.2-7.25s5.94-5.54,7.4-6.86c1.44-1.32,5.27-4.09,7.25-6.2,1.98-2.11,4.75-5.68,6.86-7.52,2.11-1.85,5.14-5.68,8.04-6.2,2.92-.53,7.54,3.56,9.64,4.88,2.11,1.32,8.18,8.57,9.9,10.29s5.01,5.27,6.46,7.52c1.45,2.24,4.84,6.91,6.2,8.84,1.7,2.43,3.4,4.12,3.94,4.78.54.66.41,2.47.28,3.66Z"/>
    </g>
  </g>
</svg>