<?xml version="1.0" encoding="UTF-8"?>
<svg id="Layer_1" data-name="Layer 1" xmlns="http://www.w3.org/2000/svg" viewBox="0 0 512 512">
  <defs>
    <style>
      .cls-1 {
        fill: #e74692;
      }

      .cls-2 {
        fill: #1c1c1c;
      }

      .cls-3 {
        fill: #9e4d1e;
      }

      .cls-4 {
        fill: #dc0832;
      }

      .cls-5 {
        fill: #b0cc5f;
      }
    </style>
  </defs>
  <g id="hJXmou">
    <g>
      <path class="cls-2" d="M260.61,512c-11.29.12-15.08-3.57-15.42-12.29-.28-7.1,1.86-13.47,5.39-19.51,7.02-12.01,17.15-21.34,26.74-31.13.25-.26.53-.5.82-.7,6.87-4.77,6.92-4.82.45-10.69-5.24-4.75-9.9-9.98-14.07-15.69-3.1-4.25-4.45-4.29-7.02-.05-9.82,16.16-20,32.14-25.53,50.48-.82,2.74-2.14,5.36-3.5,7.89-2.96,5.55-5.88,6.51-11.41,3.27-20.85-12.19-39.44-27.28-56.32-44.5-2.55-2.6-3.94-6.01-5.94-9-7.98-11.96,2.93-24.05,14.08-24.27,8.23-.16,15.66,2.29,22.62,6.28,6.1,3.49,12.17,7.09,17.89,11.16,3.77,2.68,5.62,1.57,7.2-2.03.43-.99.93-1.95,1.42-2.91,4.46-8.68,4.48-8.73-5.19-11.27-18.48-4.86-36.69-10.5-53.9-18.94-19.07-9.36-34.99-22.83-49.13-38.5-2.57-2.85-4.39-3.91-6.95-.18-8.27,12.07-26.2,10.69-35.46.48-2.71-2.99-4.3-2.89-6.63-.11-1.15,1.38-2.54,2.57-3.86,3.8-6.4,5.93-13.16,7.09-19.12,3.31-5.99-3.8-9.16-12.25-6.39-19.58,1.87-4.96.4-6.64-4.08-8.54-10.89-4.62-12.59-11.01-6.11-20.93,1.47-2.25,3.05-4.87,5.26-6.09,5.29-2.92,2.99-5.15-.08-7.59-9.26-7.37-8.51-21.52,4.6-27.81,7.55-3.62,15.14.04,21.68,4.57,2.16,1.5,4.01,3.72,5.4,5.99,2.78,4.54,4.71,2.87,6.98-.37,1.93-2.77,1.88-5.68,1.45-8.8-2.38-17.01-3.91-34.08-3.18-51.29.81-18.99,5.24-37.22,13.63-54.13,5.37-10.82,5.89-19.21-4.12-27.53-7.52-6.25-9.84-16.18-14.42-24.51-1.33-2.42.18-3.56,1.74-4.94,19.68-17.38,41.37-31.28,66.87-38.48,2.99-.84,3.63-2.38,3.46-5.01-.44-6.89,3.19-10.98,9.11-13.87,8.66-4.24,17.45-7.08,27.05-3.88,2.42.81,3.81-.37,5.33-1.52,19.48-14.79,41.08-24.63,64.96-30.45,20.01-4.87,40.28-8.01,60.53-11.17,14.94-2.33,30.09-.43,44.19,5.21,12.57,5.03,19.1,15.77,21.13,28.75.72,4.6,2.66,5.85,6.42,6.76,14.16,3.43,28.58,5.84,42.09,11.73,18.96,8.27,35.44,20.01,49.81,34.76,5.01,5.14,5.26,7.71,1.63,13.99-5.38,9.3-12.84,16.97-20.51,24.36-3.3,3.18-3.97,5.58-1.5,9.95,11.25,19.92,16.53,41.76,19.1,64.3,1.82,16,2.07,32.07.31,48.11-.29,2.63.25,4.19,3.13,4.39,1.07.08,2.12.59,3.18.59,13.97.04,21.42,8.69,26.81,20.14,1.36,2.9,1.64,5.92,1.04,8.99-2.65,13.67-15.71,25.95-29.6,27.56-2.58.3-2.83,1.31-2.76,3.41.2,5.92-1.36,11.45-4.49,16.45-4.91,7.85-13.11,11.49-21.28,8.79-3.47-1.15-5.31-.46-7.25,2.19-10.79,14.7-23.94,27.07-38.85,37.39-24.27,16.8-50.43,29.26-80.24,32.62-1.68.19-4.06-.16-4.74,1.59-.57,1.48,1.21,2.94,2.31,4.01,7.63,7.42,15.37,14.74,23.09,22.06,2.36,2.23,4.96,4.24,7.15,6.62,3.03,3.3,3.51,6.23-.02,10.25-7.59,8.66-13.48,18.91-22.3,26.39-16.74,14.2-33.49,28.79-54.67,29.66Z"/>
      <path class="cls-1" d="M418.63,336.53c-5.38,7.9-10.61,14.92-17.28,20.74-23.55,20.52-49.74,36.13-80.47,43.49-8.04,1.92-16.02,2.14-24.13,1.56-3.43-.25-6.53.09-8.36,3.52-1.76,3.29.62,5.6,2.27,7.7,9.31,11.81,20.1,22.18,31.64,31.77,6,4.99,6.3,6.1,1.74,12.31-13.24,18.01-28.87,33.18-50.03,41.73-3.19,1.29-6.4,2.49-9.82,2.86-7.05.75-9.61-2.09-7.83-9.03,1.86-7.25,5.45-13.72,10.27-19.43,8.15-9.64,16.29-19.24,28.05-24.95,4.89-2.37,5.12-5.86.77-9.29-11.6-9.12-21.28-19.87-29.26-32.27-2.67-4.15-10.84-2.86-13.16,2.22-5.85,12.83-14.12,24.26-20.74,36.65-3.93,7.35-6.89,15.01-9.55,22.85-1.2,3.54-2.55,4.83-6.51,2.28-16.13-10.43-31.02-22.36-44.82-35.68-3-2.9-5.35-6.33-7.36-9.99-1.81-3.3-1.95-6.38.51-9.53,2.43-3.12,5.69-3.27,8.8-2.26,4.25,1.39,8.43,3.19,12.35,5.34,6.31,3.46,12.38,7.38,18.58,11.05,2.25,1.33,4.04,2.99,4.84,5.56,1.07,3.48,3.87,3.81,6.91,3.87,3.05.06,3.36-2.1,4.51-4.29,4.66-8.86,8.07-18.55,15.9-25.47,1.89-1.67,3.57-3.84,2.76-6.61-.79-2.7-3.17-2.9-5.66-3.15-60.47-6.16-106.63-34.62-138.36-87-19.57-32.3-23.38-67.09-20.75-103.55,1.3-18.07,7.66-34.6,14.34-51.12,1.64-4.07,3.24-4.61,6.17-1.35.71.79,1.69,1.36,2.62,1.9,2,1.17,3.96,2.7,6.48,1.25,2.47-1.41,2.3-3.79,2.46-6.17,1.39-20.36,7.34-39.19,19.15-55.97,5.15-7.32,6.46-7.54,14.88-3.82,10.17,4.49,28.09-.46,34.25-9.77,1.76-2.66,3.22-1.38,4.95-.6,12.35,5.52,25.04,9.94,38.42,12.22,18.09,3.08,36.12,2.87,54.27.08,11.56-1.77,23.05-3.49,34.34-6.74,13.97-4.02,26.93-10.08,39.16-17.77,2.5-1.57,4.21-1.64,6.77-.21,26.63,14.92,42.33,37.83,49.41,67.1.58,2.42.31,4.97,1.19,7.42,2.16,5.95,6.12,7.15,10.46,2.65,3.71-3.86,8.2-6.39,12.74-9.02,2.72-1.58,3.93-.93,5.37,1.65,7.73,13.84,12.18,28.81,14.79,44.28,2.77,16.37,3.97,32.94,3.29,49.55-.29,6.99-1.7,13.94-2.06,20.93-.38,7.38,2.83,9.44,9.72,6.82,6.88-2.61,16.18-.36,20.75,5.01,6.37,7.5,6.88,13.4,1.83,21.73-1.78,2.94-3.76,5.73-6.33,8.06-5.92,5.35-10.29,5.57-16.83.89-1.17-.84-2.38-1.67-3.67-2.3-3.04-1.48-5.77-.31-7.81,1.81-2.37,2.46.14,4.16,1.58,5.92,5.23,6.38,5.58,17.7.77,24.26-4.18,5.71-10.02,5.12-13.04-1.29-2.13-4.52-1.43-9.22-.6-13.8.43-2.34.54-4.64.63-6.97.12-2.96-.26-5.45-4.07-5.67-3.38-.2-6.21.35-7.04,4.22-.37,1.75-.7,3.53-.81,5.31-.14,2.34.09,4.7-.08,7.04-.38,5.07-5.35,10.83-9.08,10.7-3.57-.13-5.65-4.17-6.09-10.65-.43-6.33,2.36-11.47,5.17-16.74,1.79-3.37,4.94-7.41.77-10.58-3.97-3.02-7.21.35-10.19,3.2-5.25,5.02-11.76,7.01-18.87,6.25-4.86-.52-5.68-2.65-3.46-7,6.97-13.62,19.2-19.13,35.82-16.14,6.73,1.21,9.16-1.41,7.47-7.94-1.53-5.91-3.94-11.61-3.8-17.91.03-1.37-.53-2.89-1.23-4.1-1.53-2.67-4.01-3.49-6.95-2.74-3.25.83-2.74,3.48-2.38,5.71.77,4.78,1.71,9.53,2.78,14.26.7,3.11.2,4.68-3.48,4.84-3.93.17-7.81,1.49-11.73,1.57-14.1.32-20.75,10.28-26.75,20.69-4.39,7.62,1.89,15.98,12,16.62,3.79.24,7.53-.19,11.28-.92,3.12-.6,5.73-.65,4.26,4.29-.94,3.15-.84,6.92-.16,10.2,1.84,8.91,5.33,15.25,20.34,15.83Z"/>
      <path class="cls-3" d="M244.36,91.61c-23.75.93-45.86-4.81-65.81-18.29-6.65-4.49-8.09-17.82-2.13-23.17,13.47-12.09,29.35-20.08,46.42-25.74,24.51-8.13,49.87-12.27,75.42-15.1,10.9-1.21,21.92-.48,32.78,1.85,23.1,4.97,29.37,33.43,13.2,50-9.73,9.97-22.21,15.36-35.01,19.76-20.9,7.19-42.44,11.2-64.87,10.68Z"/>
      <path class="cls-3" d="M452.41,97.25c.16,1.83-.28,3.82-1.57,5.38-9.54,11.5-18.54,23.54-31.47,31.66-1.22.77-2.57,1.33-3.77,2.11-2.6,1.68-3.84.73-4.5-2.02-4.72-19.63-15.49-35.76-28.9-50.47-6.32-6.93-14.39-11.32-21.74-16.78-1.96-1.46-5.74-2.45-4.6-5.81,1.36-4.01,3.68-7.71,5.77-11.44.23-.41,1.67-.27,2.53-.19,32.98,3.17,60.99,16.92,84.63,39.9,3.48,3.38,3.62,3.89,3.63,7.67Z"/>
      <path class="cls-1" d="M71.72,334.49c-.17-2.83,1.28-5.64,1.8-8.62.49-2.77,2.06-6.48-2.37-7.64-4.12-1.08-6.63.4-7.58,5.06-1.58,7.78-3.88,15.44-9.58,21.38-2.77,2.89-5.87,7.49-10.21,5.15-4.13-2.22-3.63-7.19-2.57-11.72,1.09-4.65,3.35-8.26,7.08-11.07,1.3-.97,2.73-1.8,3.89-2.92,2.05-1.97,4.79-4.07,2.55-7.3-2.23-3.21-5.35-2.36-8.18-.67-3.09,1.85-6.01,3.99-9.12,5.81-2.9,1.7-5.7,1.76-8.4-.78-2.67-2.52-1.32-4.95-.13-7.35,3.97-8.06,10.67-11.81,19.5-12.08,2.66-.08,5.9.53,6.2-3.4.32-4.26-2.97-4.04-5.91-4.37-4.1-.47-8.21-.97-12.03-2.81-3.88-1.87-6.49-4.87-6.76-9.08-.22-3.4,1.67-6.4,4.95-7.69,3.99-1.57,8.24-1.77,11.64,1.38,4.21,3.9,8.2,8.03,10.31,13.59.92,2.44,2.41,4.63,5.35,4.69,2.96.05,3.65-2.45,4.44-4.67.18-.51.44-.99.68-1.47.69-1.43,1.17-3.4,3.09-3.28,1.8.12,1.59,2.25,2.03,3.47,5.23,14.45,11.61,28.26,21.29,40.37,4.86,6.08,5.12,10.6,1.36,15.67-3.29,4.43-8.21,6.27-12.73,4.75-6.29-2.11-10.66-7.93-10.58-14.41Z"/>
      <path class="cls-3" d="M131.57,77.08c.11,3.44-2.03,5.78-4.27,7.82-16.67,15.13-24.6,34.65-28.44,56.24-.87,4.91-2.03,5.84-5.55,2.56-9.5-8.86-18.25-18.41-23.19-30.78-1.18-2.96.42-4.66,2.24-6.58,11.63-12.27,25.89-20.53,41.2-27.19,4.45-1.94,9.03-3.61,13.61-5.2,3.75-1.3,4.47-.69,4.39,3.14Z"/>
      <path class="cls-5" d="M140.05,65.98c-.02-11.35.52-11.95,11.57-13.61,9.07-1.36,9.25-1.4,11.6,7.56,1.81,6.89,3.83,13.78,1.97,21.15-.63,2.48-1.67,3.89-3.89,4.5-3.27.9-6.55,1.97-9.9,2.35-4.5.51-8.02-1-9.12-6.07-1.18-5.43-2.63-10.81-2.23-15.87Z"/>
      <path class="cls-2" d="M275.65,149.7c-.38-6.18.59-12.25,2.33-18.11,2.9-9.79,10.03-15.09,19.79-16.98,7.43-1.44,12.77,2.48,17.48,7.5,3.54,3.78,4.49,8.67,4.5,13.54.02,13.66-4.91,25.35-15.36,34.32-4.81,4.13-10.58,5.41-16.66,2.83-7.06-3-10.87-8.65-12.03-16.08-.36-2.28-.06-4.67-.06-7.01Z"/>
      <path class="cls-2" d="M239.14,133.1c-1.08,12.89-2.5,22.5-9.16,30.72-4.69,5.79-10.29,8.1-17.49,7.11-7.82-1.08-13.71-5.21-16.02-12.67-4.51-14.57-1.39-28.19,7.3-40.44,4.11-5.8,22.2-6.29,26.91-.57,4.38,5.32,9.24,10.88,8.46,15.85Z"/>
      <path class="cls-2" d="M306.41,240.56c-1,15.67-9.97,26.76-21.52,35.48-19.61,14.8-41.21,13.96-63,5.28-12.13-4.83-21.65-12.85-27.01-25.11-.96-2.19-1.69-4.7.19-6.62,1.9-1.93,4.5-1.89,7.1-1.25,1.41.35,2.26,1.15,2.66,2.4,5.59,17.52,19.99,22.94,35.95,26.11,17.21,3.42,31.92-2.02,43.86-14.15,6.13-6.23,11.28-13.71,10.33-23.52-.2-2.1.15-4.34.72-6.39.77-2.75,2.77-3.81,5.76-3.75,3.01.05,3.67,2.09,4.13,4.12.55,2.44.57,4.99.82,7.42Z"/>
      <path class="cls-2" d="M270.26,195.8c-.06,15.43-14.64,27.54-28.52,23.67-8.22-2.29-13.02-8.47-12.99-17.05.02-7.97,2.81-15.71,9.01-19.9,6.3-4.25,14.61-2.88,22.04-.78,8.1,2.28,10.49,5.63,10.46,14.05Z"/>
      <path class="cls-4" d="M238.7,201.23c.08-7.26,5.4-12.38,12.68-12.2,5.72.14,8.68,3.18,8.53,8.76-.19,6.95-6.53,14.06-12.49,14-5.63-.06-8.79-3.89-8.72-10.55Z"/>
    </g>
  </g>
</svg>