<?xml version="1.0" encoding="UTF-8"?>
<svg id="Layer_1" data-name="Layer 1" xmlns="http://www.w3.org/2000/svg" viewBox="0 0 512 512">
  <defs>
    <style>
      .cls-1 {
        fill: #9c760f;
      }

      .cls-1, .cls-2, .cls-3 {
        fill-rule: evenodd;
      }

      .cls-2 {
        fill: #212121;
      }

      .cls-3 {
        fill: #0055b8;
      }
    </style>
  </defs>
  <path class="cls-2" d="M309.84,18.06c.72,1.45,2.07,2.38,3.21,3.42,5.38,8.38-.93,18.22-7.76,20.91,4.45,7.04-1.24,16.25-6.42,19.67,3.21,5.8-1.14,10.87-5.38,12.94.41,3.52-1.24,5.9-4.14,5.38-.52-.83,2.38-1.97,1.97-4.14-1.66-.52-3.42.83-5.38.83-2.38,0-7.25-1.14-7.56-3-.52-3.42,4.97-5.07,8.8-4.14,1.66.41,3,3,4.76,3,1.97.1,5.38-3.62,5.8-5.18.62-2.07-.21-3.42-.62-4.76-3.83.72-7.45,3.21-12.32,3.21-3.42,0-8.38-1.55-8.38-4.55,0-3.83,8.38-5.9,12.94-5.38,3.52.41,5.69,2.07,7.76,3.42,4.35-2.28,10.56-10.76,6.42-16.15-6.42,2.07-17.08,6.42-27.12,5.59-3.21-.21-7.76-1.86-7.76-4.76,0-2.69,4.76-5.28,6.73-6,5.9-2.38,16.66-2.9,22.87-.41,1.76.72,3.73,2.48,4.97,2.59,3.11.1,8.9-6.73,9.73-9,1.66-4.66-1.35-11.9-5.38-11.9-1.04,0-3.21,1.55-4.76,2.38-1.76.93-3.52,1.55-4.97,2.17-6.21,2.48-14.59,6.11-21.94,7.35-3.21.52-7.14,1.35-10.56.83-3.21-.52-8.07-3.52-5.8-7.76.93-1.86,4.04-3.52,6-4.35,3-1.14,6.73-1.86,10.56-2.59,6.62-1.24,13.04-3.21,20.7-2.59,3.31.21,6.93,1.97,9.52,1.76,2.07-.21,6-3.73,7.56-5.8.93-1.24,2.07-4.14,1.76-5.38-.72-2.59-6.42-3.11-10.14-3.42-7.66-.72-16.46.52-24.32,1.55-8.07,1.04-15.32,2.17-21.53,4.14-4.24,1.35-10.97,3.93-10.76,8.38-3.21-2.48.41-5.9,2.38-7.14,9.83-6.52,31.36-8.07,47.2-9,3.62-.21,8.59-.31,11.9.41,2.38.52,6.93,3,7.35,5.38.72,6.11-4.86,9.21-7.87,12.11h0ZM289.44,17.85c-2.59.21-5.69,1.14-8.59,1.76-3.31.62-7.35,1.14-10.76,2.17-3.93,1.24-9.21,2.48-9,6.73,2.48,2.48,5.59,1.86,9.52,1.24,1.97-.31,3.93-.31,5.59-.62,7.04-1.24,12.83-3.93,18.53-6.21,3.11-1.24,6.52-1.86,8.18-4.35-3.93-.83-8.9-1.04-13.46-.72h0ZM271.12,45.69c5.28,2.48,14.39.93,20.08-.41,3.83-.93,7.76-1.86,9.73-3.83-8.07-4.14-26.6-4.14-29.81,4.24h0ZM278.37,62.46c4.35,3.21,13.15.93,16.56-1.76-3.52-3.52-14.49-2.9-16.56,1.76h0ZM280.54,74.16c2.17.93,7.04,1.55,8.8-.21-1.14-2.38-8.28-3.42-8.8.21h0Z"/>
  <path class="cls-2" d="M303.63,168.97c4.24-.21,10.56-.83,15.32-1.97,3.11-.72,8.18-2.28,7.35,2.79-.72,4.35-11.39,3.21-15.11,4.97,3.11,1.66,6.62,2.79,9.94,4.35,8.69,6.11,17.39,15.32,16.56,28.88-.1,1.14-.31,2.38-.62,3.42-2.9,9.63-13.66,13.97-22.87,17.49-5.69,1.97-10.97,4.35-15.11,7.97-1.04,1.55-2.28,2.9-3.62,4.14-1.86,4.24-4.24,7.25-2.79,13.56,1.66,7.04,9.52,11.08,15.94,14.49,7.87,4.04,19.77,6.31,26.91,11.18,2.48-1.66,4.55-3.62,6.21-6-1.86-4.14-9.32-6-8.8-12.52.21-3,3.11-5.69,5.8-6.52,2.59-.72,10.35-.21,12.52,1.04,1.86,1.14,2.59,3,4.35,3.42,2.79-4.35,7.87-10.56,15.32-10.76,7.66-.31,11.8,6.93,8.38,14.7,6.73.52,14.28,1.55,14.9,7.76.41,4.97-2.48,8.28-5.8,10.56,1.76,2.59,4.97,5.28,4.35,9.94-.72,5.38-8.28,8.9-15.73,7.14-3.73-.93-6.62-4.24-9.52-4.76-1.24.31-2.17,1.14-3.21,2.17-.72.72-2.28,2.07-2.38,2.79-.1,1.14,1.97,2.79,3,4.14,3,3.62,6.73,8.38,9,11.59,9.11,11.59,16.66,28.77,14.9,47.82-.93,10.66-3.31,20.8-6.93,30.43-2.17,5.9-5.69,10.35-8.38,15.11-6.11,7.35-13.66,13.77-21.94,19.87-5.9,4.35-13.25,7.87-21.11,10.35-2.59.83-5.07,2.17-7.56,2.79-1.55.41-3.21.31-4.76.62-2.07.52-3.62,1.55-6.21,1.97-4.45.62-10.04,1.14-14.9.83-3.62-.21-7.87-.72-12.11-.62.52,3.52,2.9,6.93,4.35,10.35,1.86,4.86,3.52,10.14,6,14.7.83,1.55,2.79,3,2.79,4.97,0,2.07-3.62,6.21-5.18,7.97-1.04,1.24-2.07,2.28-3,3.42-4.04,4.86-8.28,9.63-13.77,14.49-3.93,3.42-8.49,6.42-12.73,8.8-4.66,2.69-12.83,4.14-18.53,2.59-5.18-1.97-9.42-5.9-7.97-13.77,4.04-8.49,9.94-15.01,16.56-20.91,4.14-4.97,10.14-8.07,14.9-12.52-4.04-7.97-8.28-15.73-11.18-24.84-5.9-2.59-12.21-2.59-18.94-4.35-3.21-.83-7.14-2.48-10.56-3.62-1.35-.52-3.42-.83-5.59-1.55-1.97-.62-4.04-1.86-5.38-1.76-1.86.21-5.18,4.45-6.73,6-6.21,6.42-13.25,11.9-19.67,17.91,9.21,10.76,21.43,22.25,18.11,42.23-1.45,2.07-3.11,3.83-5.18,5.18-5.49.93-10.35-2.28-14.18-5.18-3.31-2.48-6.52-4.97-9-7.76-7.14-7.97-12.11-15.22-15.73-25.26-1.66-4.55-3.93-12.11-1.04-16.56,1.14-1.76,6.31-4.35,8.38-5.59,8.8-5.28,16.87-10.97,22.46-19.15-5.8-3-11.9-6-18.11-8.59-5.8-2.48-11.59-6.21-16.77-9.73-7.87-5.28-15.73-10.76-22.25-17.7-2.07-2.28-4.45-4.55-6.21-6.93-2.59-3.42-4.55-7.87-6.73-12.11-6-11.59-12.73-26.08-11.39-43.78.52-7.25,2.79-14.08,5.18-19.87,3.11-7.45,8.59-14.49,14.18-19.67,2.17-1.97,4.14-3.83,6.73-5.59-1.66-3-2.17-7.04-4.76-9-5.69,1.76-12.32,7.66-19.36,5.8-3.11-.83-7.25-4.14-6.93-8.8.21-3.31,3.31-7.76,5.59-9.52,2.79-1.97,5.8-2.69,9-3.83-1.14-2.38-4.24-3.83-5.59-6.21-.72-1.24-1.55-3.21-1.35-4.76.41-2.07,4.86-4.14,7.14-4.76,4.35-1.14,9.11.21,12.94.62-2.17-6.11-1.76-13.56,6.21-13.35,7.66.21,12.11,8.69,13.77,15.11,2.69-.52,5.28-2.17,8.59-2.38,6.62-.31,13.56,4.66,9.94,10.97-1.14,1.97-5.28,5.07-7.56,6.21-2.28,1.24-4.97,1.45-6.73,2.79-.41,1.66.21,4.14,1.04,5.18,10.04-2.9,25.98-4.35,37.47-4.97,15.32-.72,30.12.31,36.64-9.94.62-3.42-.1-6.42-1.97-9-2.59-3.73-6.42-5.9-10.97-7.97-3-1.45-6.73-2.79-10.14-4.14-10.04-3.83-19.87-9.32-24.84-17.7-2.9-4.97-2.38-12.01-.21-18.11,1.76-4.76,4.24-7.45,7.35-10.56,3.21-3.21,5.69-5.38,10.76-7.35,2.07-.83,4.14-2.07,5.8-2.59,8.38-2.48,17.8-3.11,27.43-3.42-2.38-1.66-5.59-2.9-9-4.35-3-1.24-7.25-2.69-8.59-4.55-.31-.41-1.04-2.28-.83-3,.31-1.14,3.11-1.76,4.55-1.55,1.55.21,2.69,1.86,4.14,2.59,2.17,1.04,4.66,1.97,6.93,3,2.38,1.04,4.86,1.97,7.14,2.59,6.42-20.91,9.73-43.68,21.74-59.1,6.52-6.52,14.28-11.28,26.7-10.76,6.31.21,9.63,2.07,13.35,4.97,1.24.93,2.69,1.76,3.42,2.59,5.59,6.11,7.04,16.77,6.21,26.91-1.24,16.15-7.45,32.29-10.14,45.44h0ZM302.8,145.89c2.17-8.69,4.14-17.91,4.35-26.7.21-10.56-2.59-20.39-11.18-23.29-10.35-3.42-19.56,1.86-25.05,6.42-7.35,8.18-11.7,19.87-15.32,32.09-1.24,4.45-2.48,9-3.62,13.56-1.14,4.66-2.79,9.21-3.21,13.77,13.15,5.18,29.4,7.97,46.78,7.76,2.9-6,4.97-14.59,7.25-23.6h0ZM322.15,280.03c-1.14-.41-2.38-.52-3.42-.83-7.45-2.48-14.49-6.31-21.32-9.32-5.59-4.66-13.15-10.87-11.59-21.94.52-3.73,2.79-6,3.83-9.52,2.17-1.97,3.31-4.14,5.38-6,4.45-3.93,10.97-6.11,17.08-8.59,9.52-3.83,21.63-8.8,18.53-23.29-.52-2.48-3.11-7.35-4.55-9.32-.52-.62-1.66-1.14-2.38-1.97-2.28-2.59-3.42-3.62-6.42-5.38-1.55-.93-3.52-2.07-4.97-2.59-4.45-1.66-9.42-2.17-13.56-4.14-.93-.41-1.66-1.35-2.59-1.55-1.97-.41-4.24.31-6.21.21-3.93-.1-7.66-.72-11.9-1.24-2.07-.31-4.24-.1-6.21-.41-2.79-.52-5.69-1.45-8.38-2.17-2.9-.72-6.31-1.86-8.8-1.97-1.35,0-1.55.41-2.79.41-2.17,0-3.93-.83-5.8-.83-1.86-.1-4.55.1-6.42.21-10.56.52-19.77.93-27.43,4.14-3.11,1.24-5.8,1.97-8.18,3.42-1.45.83-4.04,3-5.18,4.14-3.52,3.52-6.83,9-7.56,15.11-.83,7.56,4.76,12.73,8.8,15.73,4.86,3.62,11.8,5.69,17.91,7.97,6.42,2.38,11.7,5.07,17.29,8.59,4.24,5.18,8.38,10.76,6.73,17.29-1.04,3.83-5.18,7.66-8.8,9.32-4.76,2.07-12.83,4.04-18.73,4.55-8.07.62-17.8.21-25.05.83-5.07.41-10.56,1.55-15.32,2.17-3.62.52-7.35.93-10.56,1.97-1.97.62-3.52,1.97-5.18,1.97-.72,0-2.9-.93-3.42-2.17-.52-1.14.1-2.59,0-3.42-.62-3.52-2.38-6.62-2.79-10.14.93-2.38,5.49-1.35,7.56-1.97,3.73-1.14,11.59-6.31,7.35-9.94-3.21.1-5.49,1.24-7.97,2.17-2.17.93-2.69,3.93-4.97,4.35-1.86.31-4.14-1.04-4.55-2.59-.31-1.14.52-2.59.41-3.93,0-1.04-.41-2.69-.62-3.62-.52-1.97-1.76-4.66-2.79-6-1.14-1.45-2.9-3.31-4.97-2.59-1.86,2.9-1.14,5.38,0,8.18.72,1.86,7.76,9.21,2.59,9.94-3.11.41-4.35-3.42-6.21-4.55-1.97-1.14-6.42-2.17-9.32-2.17s-5.07,1.24-7.14,2.59c1.45,4.86,6,7.97,11.59,7.76,1.86-.1,3.62-.72,4.76.41.83.93.72,2.17.41,3.42-1.76,1.66-4.04.62-6.21.62-8.28.1-18.32,4.35-18.11,12.94,1.86,4.14,6,1.66,9.73,0,2.48-1.04,5.18-2.17,6.73-3.21,1.14-.72,2.28-2.48,3.42-2.79,4.45-1.35,4.55,1.66,5.8,4.14.31.72,1.04,1.24,1.55,1.97,1.45,2.38,2.38,4.97,3.62,7.14,5.8,2.79.1,5.49-3,7.97-5.9,4.66-11.7,10.45-15.32,16.35-3.31,5.49-6.62,14.59-7.35,22.25-.83,9.63.62,18.94,3,26.5.72,2.28,1.76,4.35,2.79,6.42,2.07,4.14,3.83,8.38,6,12.32,4.45,7.76,9.63,15.11,16.35,20.49,6.83,5.49,13.56,11.18,21.11,15.53,9.11,5.18,18.84,9.94,29.71,12.94.83,2.07,3.21,3.11,3.21,5.59.1,2.9-3.93,5.9-5.8,7.97-4.76,5.38-9.63,8.59-14.9,12.73-2.79,2.17-6,3.62-8.8,5.18-.62,1.35-2.28,1.86-2.79,3-1.66,3.62.31,9.42,1.97,12.94,4.14,9.11,9.42,17.18,15.94,23.5,3.73,3.62,8.49,7.76,13.56,9,4.86-6.21.83-16.04-1.97-21.53-1.66-3.21-3.83-6-5.18-8.59-1.86-1.76-3.52-3.62-5.59-5.8-1.14-1.24-5.28-4.55-5.38-6.21-.1-2.69,4.35-5.18,6.42-6.93,3-2.48,4.97-4.24,7.35-6.21,5.07-4.24,10.56-8.59,13.77-13.15,1.14-1.55,1.04-3.93,3.42-4.55,2.17-.52,4.04,1.04,5.59,1.76,2.48,1.14,5.59,1.86,8.38,2.79,8.38,2.79,18.01,5.49,27.43,6.42,2.38.21,7.56-.21,8.59,2.17.83,1.97.1,4.55.41,6.93.21,1.45,2.07,4.14,3,6.21,2.28,5.07,3.62,7.87,6.21,12.52,1.14,2.07,3.42,4.35,2.79,6.73-.41,1.35-4.35,3.31-6,4.55-4.97,3.42-7.66,5.69-11.59,9.52-1.97,1.86-4.24,3.62-5.59,5.18-.83,1.04-1.24,2.38-2.17,3.42-1.24,1.55-2.9,2.59-3.83,4.14-3,4.45-5.49,12.32,2.38,13.35,7.25,1.04,12.21-3.11,15.94-5.59,1.55-1.04,3.11-1.86,4.55-3,2.69-2.17,4.86-4.86,7.56-7.56,2.38-2.48,4.66-4.45,7.35-7.76,2.17-2.79,6.21-6.31,6.21-8.8,0-1.45-1.35-2.79-2.17-4.55-2.38-4.86-4.14-9.94-6-14.7-1.14-2.79-2.79-5.59-4.35-9.52-.93-2.48-3.93-7.97-3.21-10.14.52-1.45,2.69-2.28,4.76-1.76,1.76.41,1.97,2.69,3,3.42,4.86,1.66,7.56,2.07,12.52,2.17,1.97,0,3.93.21,5.8.21,6.42-.1,13.46-1.97,18.73-3.21,6.52-1.66,12.52-4.14,18.11-6.73,7.45-3.42,13.35-8.49,19.36-13.56,9.32-7.87,15.94-16.77,20.08-29.5,2.28-7.25,4.35-14.49,4.97-23.08,1.24-17.29-3.93-31.05-10.56-41.19-3.83-5.8-8.59-12.42-13.77-17.49-1.97-1.97-5.07-3.31-4.76-5.8.21-1.66,2.59-2.38,4.14-3.62,1.76-1.45,4.97-6.11,7.14-6.73,3.73-1.14,4.14,1.35,6,2.59,1.55,1.04,5.8,3.31,7.35,3.62,3.31.83,8.07-.52,8.8-3.42,1.14-4.04-2.9-6.11-6.21-6.73-1.24-.21-2.79.21-4.14-.21-1.97-.62-3.52-2.59-3.21-3.83.52-2.28,4.86-1.24,7.14-1.55,2.17-.31,4.24-1.04,5.38-1.76,1.04-.72,3.31-3.21,2.79-5.59-.41-1.97-3.31-2.69-6.42-2.38-2.59.31-7.14,2.69-8.38,3.62s-1.55,2.9-3.21,3c-.83.1-2.07-.62-2.79-1.35-4.14-3.52,1.86-5.9,3.83-8.59,2.07-2.69,3.73-6.31,2.79-10.97-7.76-.41-12.32,4.97-13.56,11.9-.21,1.24.21,2.9-.41,4.14-1.66,3.11-5.28-.1-6-1.55-1.24-2.28-1.66-5.07-3.42-6.93-2.28-2.28-11.18-3.42-11.39,1.04-.1,2.38,3,4.14,4.97,6,1.86,1.76,5.49,3.11,5.38,5.59,0,1.66-1.14,2.07-2.59,3.21-3.62,2.9-5.8,5.8-8.38,9.32-7.14-.62-10.76-5.69-16.56-7.56h0Z"/>
  <path class="cls-3" d="M295.45,169.69c-17.39.21-33.64-2.59-46.78-7.76.52-4.55,2.07-9.21,3.21-13.77,1.14-4.55,2.38-9.11,3.62-13.56,3.52-12.21,7.97-24.01,15.32-32.09,5.38-4.55,14.59-9.94,25.05-6.42,8.59,2.9,11.39,12.73,11.18,23.29-.21,8.8-2.17,18.01-4.35,26.7-2.17,8.8-4.24,17.39-7.25,23.6h0Z"/>
  <path class="cls-1" d="M338.3,287.59c2.59-3.42,4.76-6.31,8.38-9.32,1.45-1.14,2.59-1.66,2.59-3.21.1-2.48-3.62-3.83-5.38-5.59-1.97-1.86-5.07-3.62-4.97-6,.31-4.55,9.21-3.42,11.39-1.04,1.76,1.76,2.17,4.66,3.42,6.93.83,1.35,4.35,4.66,6,1.55.62-1.14.21-2.9.41-4.14,1.24-6.93,5.8-12.32,13.56-11.9.93,4.66-.72,8.28-2.79,10.97s-7.97,5.18-3.83,8.59c.72.62,1.97,1.35,2.79,1.35,1.66-.21,2.07-2.07,3.21-3,1.24-.93,5.8-3.42,8.38-3.62,3.11-.31,6,.41,6.42,2.38.52,2.38-1.76,4.86-2.79,5.59-1.14.72-3.21,1.45-5.38,1.76-2.28.31-6.62-.72-7.14,1.55-.31,1.24,1.24,3.21,3.21,3.83,1.24.41,2.9,0,4.14.21,3.42.52,7.35,2.69,6.21,6.73-.83,3-5.59,4.35-8.8,3.42-1.55-.41-5.8-2.59-7.35-3.62-1.86-1.24-2.38-3.73-6-2.59-2.07.62-5.38,5.28-7.14,6.73-1.45,1.24-3.83,1.97-4.14,3.62-.41,2.48,2.69,3.93,4.76,5.8,5.28,5.07,10.04,11.7,13.77,17.49,6.62,10.14,11.8,23.81,10.56,41.19-.62,8.59-2.69,15.84-4.97,23.08-4.04,12.83-10.66,21.63-20.08,29.5-6.11,5.07-11.9,10.25-19.36,13.56-5.59,2.48-11.59,5.07-18.11,6.73-5.28,1.35-12.32,3.11-18.73,3.21-1.86,0-3.83-.21-5.8-.21-4.97,0-7.66-.52-12.52-2.17-1.14-.83-1.24-3-3-3.42-2.07-.52-4.24.21-4.76,1.76-.72,2.17,2.28,7.66,3.21,10.14,1.55,3.93,3.21,6.73,4.35,9.52,1.97,4.66,3.73,9.83,6,14.7.83,1.76,2.17,3.11,2.17,4.55,0,2.59-4.04,6.11-6.21,8.8-2.59,3.31-4.86,5.28-7.35,7.76-2.69,2.69-4.86,5.38-7.56,7.56-1.45,1.14-3,1.97-4.55,3-3.73,2.48-8.69,6.62-15.94,5.59-7.87-1.04-5.38-8.9-2.38-13.35,1.04-1.55,2.59-2.59,3.83-4.14.93-1.04,1.35-2.48,2.17-3.42,1.35-1.55,3.62-3.31,5.59-5.18,4.04-3.83,6.73-6,11.59-9.52,1.66-1.14,5.69-3.21,6-4.55.62-2.28-1.66-4.66-2.79-6.73-2.69-4.66-3.93-7.45-6.21-12.52-1.04-2.17-2.79-4.76-3-6.21-.41-2.28.41-4.97-.41-6.93-1.04-2.38-6.21-1.97-8.59-2.17-9.32-1.04-18.94-3.62-27.43-6.42-2.9-.93-5.9-1.66-8.38-2.79-1.55-.62-3.42-2.28-5.59-1.76-2.38.62-2.38,3-3.42,4.55-3.31,4.66-8.69,8.9-13.77,13.15-2.38,1.97-4.24,3.83-7.35,6.21-2.17,1.76-6.62,4.24-6.42,6.93.1,1.76,4.24,5.07,5.38,6.21,2.07,2.28,3.73,4.04,5.59,5.8,1.35,2.59,3.52,5.38,5.18,8.59,2.79,5.49,6.73,15.32,1.97,21.53-5.07-1.24-9.83-5.38-13.56-9-6.52-6.31-11.8-14.39-15.94-23.5-1.55-3.52-3.62-9.32-1.97-12.94.52-1.14,2.17-1.66,2.79-3,2.79-1.66,6-3,8.8-5.18,5.28-4.14,10.04-7.35,14.9-12.73,1.86-2.07,5.9-5.07,5.8-7.97,0-2.48-2.38-3.62-3.21-5.59-10.87-3-20.6-7.76-29.71-12.94-7.56-4.35-14.28-10.04-21.11-15.53-6.83-5.38-11.9-12.73-16.35-20.49-2.28-3.83-4.04-8.18-6-12.32-1.04-2.07-2.07-4.24-2.79-6.42-2.38-7.56-3.93-16.87-3-26.5.72-7.66,4.04-16.77,7.35-22.25,3.62-5.9,9.42-11.7,15.32-16.35,3.11-2.48,8.8-5.18,3-7.97-1.35-2.17-2.17-4.76-3.62-7.14-.41-.72-1.14-1.24-1.55-1.97-1.24-2.38-1.35-5.49-5.8-4.14-1.14.41-2.38,2.07-3.42,2.79-1.55,1.04-4.14,2.17-6.73,3.21-3.73,1.66-7.87,4.14-9.73,0-.21-8.59,9.83-12.83,18.11-12.94,2.17,0,4.45.93,6.21-.62.21-1.24.41-2.48-.41-3.42-1.04-1.14-2.9-.52-4.76-.41-5.69.21-10.14-2.9-11.59-7.76,2.07-1.35,4.35-2.59,7.14-2.59s7.35,1.04,9.32,2.17,3.11,4.97,6.21,4.55c5.18-.72-1.86-8.07-2.59-9.94-1.14-2.79-1.86-5.28,0-8.18,1.97-.72,3.83,1.14,4.97,2.59,1.04,1.45,2.28,4.14,2.79,6,.31.93.62,2.59.62,3.62,0,1.24-.72,2.79-.41,3.83.31,1.55,2.69,2.9,4.55,2.59,2.28-.31,2.69-3.42,4.97-4.35,2.48-.93,4.76-2.07,7.97-2.17,4.24,3.62-3.62,8.8-7.35,9.94-2.07.62-6.62-.41-7.56,1.97.41,3.42,2.28,6.62,2.79,10.14.1.93-.52,2.38,0,3.42.52,1.24,2.69,2.17,3.42,2.17,1.66.1,3.21-1.35,5.18-1.97,3.21-1.04,6.93-1.45,10.56-1.97,4.66-.62,10.25-1.76,15.32-2.17,7.25-.62,16.87-.21,25.05-.83,5.9-.52,13.97-2.48,18.73-4.55,3.62-1.55,7.87-5.49,8.8-9.32,1.76-6.52-2.38-12.01-6.73-17.29-5.59-3.62-10.76-6.21-17.29-8.59-6.11-2.28-13.04-4.35-17.91-7.97-4.14-3-9.63-8.18-8.8-15.73.62-6.11,4.04-11.59,7.56-15.11,1.14-1.14,3.73-3.21,5.18-4.14,2.38-1.45,5.07-2.17,8.18-3.42,7.56-3.11,16.87-3.62,27.43-4.14,1.97-.1,4.55-.31,6.42-.21s3.62.83,5.8.83c1.24,0,1.45-.52,2.79-.41,2.59.1,6,1.14,8.8,1.97,2.79.72,5.69,1.66,8.38,2.17,2.07.31,4.14.1,6.21.41,4.14.52,7.87,1.14,11.9,1.24,1.97.1,4.24-.62,6.21-.21.93.21,1.66,1.04,2.59,1.55,4.24,1.86,9.21,2.38,13.56,4.14,1.45.52,3.42,1.66,4.97,2.59,3.11,1.86,4.14,2.9,6.42,5.38.72.72,1.86,1.24,2.38,1.97,1.35,1.97,4.04,6.83,4.55,9.32,3.11,14.49-9,19.36-18.53,23.29-6.11,2.48-12.63,4.66-17.08,8.59-2.07,1.86-3.21,4.04-5.38,6-1.14,3.52-3.42,5.8-3.83,9.52-1.45,11.18,6,17.39,11.59,21.94,6.93,2.9,13.87,6.83,21.32,9.32,1.14.41,2.28.52,3.42.83,6.21,1.97,9.83,7.04,16.56,7.66h0ZM249.7,179.53c-4.14,2.28-8.59,10.35-7.97,15.73.62,5.8,7.97,6.93,12.52,4.55,3.31-1.86,5.07-5.18,7.35-9,3.52-5.9,3.52-13.77-5.18-12.94-2.59.21-4.97.72-6.73,1.66h0ZM277.75,184.7c-4.14,4.66-3.83,16.77.21,21.11,3.52,3.83,10.25,3.62,13.35-.41,4.35-5.59,3.73-15.84-.41-21.11-3-3-10.04-1.76-13.15.41h0ZM296.28,228.07c1.14-1.97,3-5.28,2.79-6.42-.41-2.17-3.42-2.17-5.38-1.04-1.86,1.86-1.97,5.49-4.76,6.42-1.55-.52-1.86-1.76-3-2.17-3.73-1.24-7.56,1.55-8.38,4.35-.62,1.86.21,3.52.41,5.59.41,4.24-1.14,8.38-3.83,8.59,1.45-7.87-5.69-14.18-11.39-9.73-1.45,1.14-1.66,3.42-2.79,5.18-1.24,1.86-3.11,2.48-4.76,3.42-2.79-2.59-1.35-7.56-1.76-11.59-.21-2.69-1.45-5.9-2.59-7.14-.72-.72-3.93-2.9-4.97-3.21-2.69-.83-8.07-.83-8.18,1.55-.1,2.59,2.79,1.55,5.18,2.17.62.21,2.07,1.14,2.59,1.76,4.66,5.38-2.07,22.25,10.56,21.32,5.49-.41,8.59-5.9,10.76-9.73,2.17,2.38.72,6.11,1.97,8.38,2.79,5.18,11.9,1.45,13.56-1.97.52-2.79,1.76-6.52,1.55-9.94-.1-1.45-1.35-3.11.21-3.83,4.55,3,9.63,2.59,12.21-1.97h0Z"/>
  <path class="cls-2" d="M256.43,177.87c8.69-.83,8.69,7.04,5.18,12.94-2.28,3.83-3.93,7.25-7.35,9-4.55,2.48-11.8,1.35-12.52-4.55-.62-5.38,3.83-13.46,7.97-15.73,1.76-.93,4.14-1.45,6.73-1.66h0Z"/>
  <path class="cls-2" d="M290.89,184.29c4.14,5.38,4.76,15.53.41,21.11-3.11,4.04-9.83,4.24-13.35.41-4.04-4.35-4.35-16.46-.21-21.11,3.11-2.17,10.14-3.42,13.15-.41h0Z"/>
  <path class="cls-2" d="M284.06,230.04c-1.55.72-.31,2.38-.21,3.83.31,3.31-1.04,7.14-1.55,9.94-1.66,3.42-10.76,7.14-13.56,1.97-1.24-2.38.31-6-1.97-8.38-2.17,3.83-5.28,9.32-10.76,9.73-12.63.93-5.9-15.94-10.56-21.32-.52-.62-1.97-1.55-2.59-1.76-2.38-.62-5.28.41-5.18-2.17.1-2.38,5.49-2.28,8.18-1.55,1.04.31,4.24,2.48,4.97,3.21,1.14,1.24,2.38,4.45,2.59,7.14.31,4.04-1.04,9,1.76,11.59,1.66-.93,3.52-1.55,4.76-3.42,1.14-1.76,1.35-4.04,2.79-5.18,5.69-4.45,12.94,1.76,11.39,9.73,2.79-.21,4.24-4.45,3.83-8.59-.21-2.07-1.04-3.73-.41-5.59.93-2.79,4.76-5.59,8.38-4.35,1.14.41,1.45,1.66,3,2.17,2.79-.93,2.9-4.55,4.76-6.52,1.97-1.14,4.97-1.14,5.38,1.04.21,1.24-1.66,4.45-2.79,6.42-2.59,4.66-7.66,5.07-12.21,2.07h0Z"/>
  <path class="cls-2" d="M98.79,226.1c-4.35,4.14-7.04,10.87-7.56,18.11-1.76.1-1.86-2.07-1.97-2.79-.41-4.55,3.83-14.08,7.14-16.77.72-.62,3.83-2.17,4.35-.41.31,1.24-1.04,1.45-1.97,1.86h0Z"/>
  <path class="cls-2" d="M113.07,227.24c-.41,1.55-1.76,1.45-2.79,2.17-5.59,3.73-7.45,10.66-9,17.7-3-.52-1.35-4.55-.62-6.93,1.45-5.28,3.62-9.42,7.35-12.32,1.76-.1,3.73-3.11,5.07-.62h0Z"/>
  <path class="cls-2" d="M402.78,268.64h.41c6.31,1.04,11.9,11.8,6.93,17.7-.72.83-2.17,1.86-3.42.62,1.66-3.11,4.66-7.04,2.17-11.9-1.35-2.69-4.24-3.62-6-5.59v-.83h-.1Z"/>
  <path class="cls-2" d="M417.07,269.06h.41c6.52,3,6.62,17.18,2.38,22.87-.83-.31-1.24-.93-1.76-1.55,1.45-3.73,3.42-8.49,2.17-14.18-.62-3.11-3.21-4.66-3.21-7.14h0Z"/>
  <path class="cls-2" d="M135.02,451.02c-1.55-.1-1.97-1.86-2.17-2.79-1.14-6.83,3.31-16.66,6.21-20.08.83-.93,4.66-4.66,5.59-2.38.52,1.24-3,3.11-3.83,4.14-3.42,4.24-6.42,13.35-5.8,21.11h0Z"/>
  <path class="cls-2" d="M154.27,433.32c-5.49,3.52-8.69,10.14-8.38,18.73-2.17-.31-2.48-2.69-2.17-5.8.52-4.97,4.45-11.7,7.56-13.77.62-.52,2.59-1.04,3,.83h0Z"/>
  <path class="cls-2" d="M318.32,458.37h.41c7.66,5.18,7.66,20.18,3.83,30.02-1.45,3.73-2.48,8.18-5.38,9.52-1.97-1.24-.21-3.31.41-4.55,3.83-7.35,7.87-21.11,2.79-30.43-.62-1.24-2.07-2.28-2.38-3.83,0-.52.31-.52.31-.72h0Z"/>
  <path class="cls-2" d="M308.59,469.13h.41c2.07,1.14,3.73,4.66,3.21,8.38-.52,3.31-2.9,8.8-5.38,7.35.83-3.42,3.62-6.42,3.21-10.56-.1-1.86-1.45-3.11-1.45-5.18h0Z"/>
</svg>