<?xml version="1.0" encoding="UTF-8"?>
<svg id="Layer_1" data-name="Layer 1" xmlns="http://www.w3.org/2000/svg" viewBox="0 0 512 512">
  <defs>
    <style>
      .cls-1 {
        fill: #171717;
      }

      .cls-2 {
        fill: #189bd1;
      }

      .cls-3 {
        fill: #eb7f2b;
      }
    </style>
  </defs>
  <g id="efR5cE">
    <g>
      <path class="cls-1" d="M.25,281.83c.19-11.43-1.4-22.95,1.63-34.25,1.35-2.67,2.49-5.48,4.09-7.99,3.99-6.26,8.85-11.97,17.05-11.35,8.64.66,16.24,3.77,20.58,12.29,6.33,12.44,10.06,25.65,11.75,39.41.57,4.66,2.17,5.57,6.09,3.59.26-.13.58-.16.86-.25,13.06-3.87,12.95-3.84,9.86-16.89-5.72-24.11-5.73-48.17,1.71-71.94,1.36-4.36,1.09-7.09-2.98-9.6-6.29-3.87-8.19-13.59-13.5-15.55-4.5-1.66-10.97,6.8-17.93,8.11-7.2,1.36-13.91.71-18.96-5.18-5.37-6.26-6.13-13.44-3.17-21.07,1.76-4.54,4.74-8.3,8.08-12.22-2.61-4.34-8.55-6.35-8.75-12.51-.28-8.68,5.08-14.51,15.89-16.07,4.73-.68,9.05-.49,6.32-7.63-1.55-4.04.85-7.44,4.78-9.54,6.77-3.62,13.7-7.03,21.11-2.29,4.45,2.84,8.26,6.68,12.36,10.06,13.91-13.65,18.93-15.01,28.92-7.87,9.26,6.62,9.29,8.93.25,27.6,3.84.69,6.12-1.95,8.53-3.93,34.21-28.06,73.58-40.69,117.55-38.46,9.02.46,15.29-2.06,20.19-9.16,4.3,5.64-1.42,7.99-4.03,10.83-2.29,2.5-3.81,4.72-2.44,7.87,1.29,2.98,4.22,2.94,6.97,2.94,8.4,0,16.81-.03,25.21.04,5.95.05,10.05,2.85,10.25,8.98.44,14.01,17.14,19.79,29.45,14.65,9.29-3.88,20.65,3.71,20.16,13.95-.12,2.46-1.04,4.77,1.38,6.42,2.94,2,4.99-.22,7.2-1.73,6.32-4.32,11.79-10.09,19.77-11.56,7.13,5.83,14.25,11.65,21.38,17.48,2.87,2.6,5.74,5.2,8.61,7.8,6.12,6.55,12.23,13.1,18.35,19.65,2.58,4.63,5.64,8.9,9.44,12.63,14.51,25.55,24.36,52.64,27.42,82.03.69,6.62.78,13.21-.46,19.73-1,5.26.72,7.84,6.22,8.31,4.9.42,8.34.32,9.6-5.97,2.5-12.44,8.05-17.92,17.24-18.79,9.1-.86,15.59,3.41,17.88,12.73,1.8,7.32,2.62,14.95-2.12,21.67-2.68,3.8-3.12,5.89,2.28,7.36,6.39,1.74,9.89,5.92,9.7,13.22-.19,7.05-3.52,10.38-10.06,11.5-2.82.48-3.6,1.62-2.35,4.9,6.83,17.85-2.52,29.67-22.27,27.72-5.74-.57-7.6,0-9,6.17-2.95,13.04-18.89,21.5-31.06,17.69-11.81-3.69-17.15-17.52-12.07-31.4,1.3-3.54,2.76-7.03,4.3-10.92-4.25.2-5.38,3.4-7.26,5.39-29.02,30.71-64,50.12-106.1,55.8-5.36.72-7.07,2.96-7.46,7.89-.56,7.17-1.24,14.38-2.61,21.42-1.14,5.87.46,7.41,6.28,6.6,21.39-2.98,42.48.11,63.53,3.65,8.37,1.41,15.4,5.07,20.13,12.24,3.58,5.41,3.04,9.85-3.39,13.19-37.08,19.23-75.84,25.49-116.75,15.47-4.04-.99-7.95-2.66-11.77-4.37-6.83-3.06-9.81-7.44-7.29-15.65,5.58-18.19,7.49-36.95,6.84-56.03-.17-5.04-.84-7.26-6.64-7.8-61-5.63-113.44-28.8-153.97-76.05-3.73-4.35-7.44-8.69-10.02-13.77-2.79-5.48-5.63-6.29-10.92-2.63-11.37,7.87-22.61,15.88-32.58,25.46-4.95,4.75-10.58,7.72-16.99,9.63-12.58,3.75-19.39.05-22.85-12.5-.47-1.7-.31-3.63-1.97-4.84-4.01-7.77-3-16.61-5.29-24.82-1.91-6.84-1.54-14.31-2.17-21.5ZM309.58,484.07c25.23.37,47.37-5.73,68.72-15.15,3.75-1.66,8.12-3.75,7.46-8.99-.58-4.65-4.27-7.07-8.34-8.61-2.22-.84-4.62-1.5-6.98-1.63-21.82-1.19-43.66-4.33-65.3,2.25-8.01,2.44-11.29-.96-10.33-9.22,1.41-12.22,3.42-24.4,4.12-36.65.39-6.7,2.87-8.69,9.15-8.97,47.15-2.09,82.78-25.32,111.24-61.35,5.98-7.57,9.59-8.11,19.61-1.89,7.38,4.57,4.22,10.13,1.44,15.59-2.45,4.8-5.62,9.31-7.39,14.34-2.08,5.89-.31,11.53,5,15.1,5.28,3.55,9.76.08,13.86-2.93,8.62-6.32,6.6-15.27,5.56-23.92-.24-2-1.56-4.36.78-5.74,2.23-1.32,3.99.66,5.5,1.9,3.5,2.88,7.02,5.73,11.46,6.93,6.74,1.83,14.64-2.14,16.96-8.61,2.64-7.38-2.22-10.28-7.9-12.67-1.91-.81-3.76-1.9-5.41-3.16-1.71-1.31-2.96-3.16-2.07-5.47.83-2.15,2.93-1.69,4.65-1.75,3.9-.13,7.81-.07,11.71-.25,3.07-.14,6.72-.6,7.4-3.92.85-4.18-3.47-4.95-6.21-6.49-1.01-.57-2.3-.63-3.46-.96-10.38-2.99-11.48-6.47-4.45-14.7,3.3-3.87,7.49-7.15,8.61-12.42,1.11-5.18-.17-9.87-5.28-12.12-5.27-2.32-8.39.96-10.64,5.42-2.16,4.29-4.62,8.43-6.62,12.79-3.01,6.54-8.05,8.44-14.75,7.08-3.53-.72-7.06-1.41-10.58-2.18-5.04-1.1-7.6-3.94-7.69-9.43-.16-9.3-.4-18.64-1.43-27.87-5.49-48.89-23.7-90.92-65.55-120.01-4.18-2.91-7.87-8.06-12.3-8.72-6.01-.9-7.18,6.86-10.78,10.54-5.03,5.17-9.19,5.2-12.73-1.3-2.3-4.21-4.75-8.4-6.37-12.88-1.95-5.39-4.2-7.08-10.49-5.5-15.84,3.99-31.77-3.66-35.22-17.16-1.76-6.9-5.52-8.47-11.18-8.9-5.68-.44-11.41-.47-17.08-1.03-5.58-.55-11.78.29-15.97-4.59-2.7-3.14-5.9-3.5-9.62-3.54-18.47-.23-36.49,2.49-54.1,7.99-27.62,8.64-50.76,24.15-70.01,45.68-2.7,3.02-5.58,8.39-9.77,6.63-5.68-2.39-9.76-7.96-12.83-13.37-2.57-4.52,2.54-6.73,4.94-9.44,5.13-5.8,11.71-10.47,13.71-18.59.72-2.91.31-5.4-2.37-7.09-2.47-1.55-4.67-.31-6.65,1.08-3.8,2.67-5.44,7.11-8.33,10.53-5.64,6.67-10.17,6.31-14.77-1.01-1.75-2.79-3.15-5.87-5.3-8.31-4.75-5.38-10.18-3.09-14.36.43-4.64,3.9-.52,7.6,2.05,10.73,1.88,2.29,4.58,3.91,6.38,6.25,1.14,1.48,2.59,3.74.77,5.7-1.62,1.75-3.24-.13-4.86-.58-5.47-1.53-10.89-3.51-16.48-4.3-6.04-.85-11.35,1.58-11.17,8.48.17,6.64,6.12,6.41,10.85,6.24,3.85-.14,7.66-1.37,11.52-1.8,3.33-.37,7.54-.43,8.43,3.3.97,4.06-3.12,5.19-6.33,6-4.36,1.09-8.85,1.69-13.14,2.98-6.85,2.07-11.33,6.62-12.59,13.86-.77,4.41.2,8.5,3.67,11.47,3.52,3.01,7.41,1.68,11-.09,6.55-3.23,11.72-8.31,16.98-13.21,4.09-3.81,7.5-3.98,9.55,1.69,3.14,8.69,8.76,15.69,14.78,22.38,3.98,4.42,5.22,8.9,3.51,14.8-8.09,28.06-9.35,56.15,1.08,83.98,1.66,4.43.62,6.53-3.81,8.01-8.54,2.84-16.92,6.14-25.39,9.19-9.47,3.41-11.26,2.11-12.18-8.22-1.31-14.75-4.62-29.05-10.98-42.48-4.82-10.16-11.89-10.62-18.01-1.44-3.59,5.39-5.52,11.37-5.44,17.83.26,22.59,3.41,44.87,8.62,66.77,3.38,14.19,7.86,15.29,18.91,5.86,13.7-11.7,27.58-23.16,42.98-32.61,8.01-4.91,13.24-3.66,18.08,4.08,20.16,32.26,47.86,55.89,82.62,71.06,25.8,11.26,52.67,18.4,81.1,18.16,7.58-.06,11.08,2.22,11.16,10.89.18,19.93-1.21,39.63-5.87,58.97-2.09,8.7.9,12.93,8.9,15.41,11.01,3.42,22.19,5.12,32.05,4.83Z"/>
      <path class="cls-1" d="M366.46,121.54c-7.98,1.48-13.46,7.24-19.77,11.56-2.21,1.51-4.26,3.73-7.2,1.73-2.43-1.65-1.5-3.95-1.38-6.42.49-10.24-10.87-17.82-20.16-13.95-12.31,5.14-29.02-.65-29.45-14.65-.19-6.13-4.3-8.94-10.25-8.98-8.4-.07-16.81-.04-25.21-.04-2.75,0-5.68.04-6.97-2.94-1.37-3.16.15-5.38,2.44-7.87,2.61-2.85,8.34-5.19,4.03-10.83,8.72-9.01,17.6-17.88,26.1-27.09,4.53-4.9,8.13-4.04,11.67.72,5.35,7.2,10.17,14.69,13.23,23.25.88,2.46.62,6.2,4.92,6.56,4.31.35,5.39-2.65,6.95-5.6,8.01-15.16,17.57-29.17,30.72-40.44,1.81-1.55,3.74-2.98,5.61-4.47,1.45-1.15,3.17-2.4,4.65-.56,1.66,2.06-.8,3.07-1.81,4.29-1.5,1.81-3.21,3.45-4.83,5.16-4.94,3.6-9.22,7.85-12.71,12.89-7.36,6.31-11.63,14.78-15.94,23.18-.79,1.55-3.02,3.65.03,5.24,1.81.95,3.45,1.61,5.58-.35,10.12-9.36,22.33-15.64,34.16-22.45l-.07.07c2.37.7,5.31-1.72,7.21,1.05,1.43,2.09-.93,2.96-1.88,4.24-9.38,3.15-17.84,7.96-25.45,14.27-4.26,1.6-7.51,4.43-11.13,9.41,13.18-.38,24.23-7.26,36.35-5.64.93,5.23-3.15,4.76-6.2,5.45-7.41,1.7-15.09,2.52-22.27,6.27,1.07.9,1.68,1.85,2.44,1.98,11.15,2.05,22.32,3.99,33.49,5.96,3.67,3.01,8.45,2.18,12.63,3.5,5.38,1.7,3.71,4.12,1.64,7.07-7.92,5.15-15.35,10.87-21.15,18.44ZM308.91,112.72c11.83-.17,21.24-8.92,21.23-19.76-.01-8.68-5.13-13.51-14.22-13.42-11.02.11-22.12,10.71-21.79,20.82.23,7.05,6.71,12.47,14.79,12.35ZM296.96,73.02c-1.28-7.86-4.49-14.5-8.77-20.73-2.12-3.07-3.83-1.73-5.63.12-8.72,8.97-17.49,17.9-26.08,26.99-3.34,3.54-2.35,5.56,2.6,5.95,7.13.55,14.24,1.32,21.34,2.14,4.74.54,16.64-10.02,16.55-14.47ZM342.71,128.59c9.26-9.66,18.43-19.21,27.44-28.6-7.88-3.08-17.22-5.37-26.72-3.59-6.37,1.19-2.63,9.87-7.52,13.06-2.32,1.51-2.16,3.62-.51,6.13,2.76,4.18,4.95,8.73,7.31,13Z"/>
      <path class="cls-3" d="M309.58,484.07c-9.86.29-21.04-1.42-32.05-4.83-8.01-2.48-11-6.71-8.9-15.41,4.66-19.33,6.05-39.03,5.87-58.97-.08-8.67-3.58-10.96-11.16-10.89-28.42.24-55.3-6.9-81.1-18.16-34.76-15.17-62.45-38.8-82.62-71.06-4.84-7.74-10.07-8.99-18.08-4.08-15.4,9.44-29.27,20.91-42.98,32.61-11.04,9.43-15.53,8.33-18.91-5.86-5.21-21.9-8.37-44.19-8.62-66.77-.07-6.46,1.85-12.44,5.44-17.83,6.12-9.18,13.19-8.72,18.01,1.44,6.36,13.42,9.67,27.72,10.98,42.48.92,10.33,2.71,11.63,12.18,8.22,8.47-3.05,16.85-6.35,25.39-9.19,4.43-1.47,5.47-3.58,3.81-8.01-10.43-27.83-9.17-55.92-1.08-83.98,1.7-5.91.46-10.38-3.51-14.8-6.02-6.69-11.64-13.69-14.78-22.38-2.05-5.67-5.46-5.5-9.55-1.69-5.26,4.9-10.43,9.99-16.98,13.21-3.58,1.76-7.48,3.09-11,.09-3.46-2.96-4.43-7.05-3.67-11.47,1.26-7.24,5.74-11.79,12.59-13.86,4.29-1.3,8.78-1.89,13.14-2.98,3.21-.81,7.29-1.93,6.33-6-.89-3.73-5.1-3.67-8.43-3.3-3.86.43-7.66,1.66-11.52,1.8-4.73.18-10.68.4-10.85-6.24-.17-6.9,5.13-9.33,11.17-8.48,5.58.79,11,2.77,16.48,4.3,1.62.45,3.24,2.34,4.86.58,1.82-1.96.37-4.22-.77-5.7-1.8-2.33-4.5-3.96-6.38-6.25-2.58-3.13-6.69-6.83-2.05-10.73,4.18-3.51,9.6-5.81,14.36-.43,2.15,2.43,3.55,5.52,5.3,8.31,4.6,7.32,9.13,7.68,14.77,1.01,2.89-3.42,4.52-7.86,8.33-10.53,1.98-1.39,4.17-2.64,6.65-1.08,2.68,1.68,3.09,4.18,2.37,7.09-2,8.12-8.58,12.78-13.71,18.59-2.39,2.71-7.5,4.92-4.94,9.44,3.07,5.41,7.15,10.98,12.83,13.37,4.19,1.76,7.07-3.61,9.77-6.63,19.25-21.53,42.39-37.04,70.01-45.68,17.6-5.5,35.63-8.21,54.1-7.99,3.72.05,6.93.4,9.62,3.54,4.19,4.88,10.4,4.04,15.97,4.59,5.67.56,11.39.59,17.08,1.03,5.66.43,9.42,2,11.18,8.9,3.45,13.5,19.38,21.14,35.22,17.16,6.28-1.58,8.54.11,10.49,5.5,1.62,4.48,4.08,8.67,6.37,12.88,3.55,6.5,7.7,6.47,12.73,1.3,3.59-3.69,4.77-11.44,10.78-10.54,4.43.66,8.11,5.81,12.3,8.72,41.85,29.09,60.06,71.12,65.55,120.01,1.04,9.23,1.27,18.57,1.43,27.87.1,5.49,2.65,8.33,7.69,9.43,3.52.77,7.05,1.46,10.58,2.18,6.7,1.36,11.73-.54,14.75-7.08,2.01-4.36,4.46-8.5,6.62-12.79,2.25-4.46,5.37-7.74,10.64-5.42,5.1,2.25,6.38,6.94,5.28,12.12-1.13,5.27-5.31,8.55-8.61,12.42-7.03,8.23-5.93,11.71,4.45,14.7,1.15.33,2.45.39,3.46.96,2.73,1.54,7.06,2.31,6.21,6.49-.67,3.32-4.33,3.79-7.4,3.92-3.9.18-7.81.12-11.71.25-1.72.06-3.82-.4-4.65,1.75-.89,2.31.36,4.15,2.07,5.47,1.65,1.26,3.5,2.35,5.41,3.16,5.68,2.39,10.54,5.29,7.9,12.67-2.31,6.47-10.21,10.43-16.96,8.61-4.44-1.2-7.96-4.05-11.46-6.93-1.51-1.24-3.27-3.22-5.5-1.9-2.34,1.38-1.02,3.75-.78,5.74,1.04,8.65,3.06,17.6-5.56,23.92-4.11,3.01-8.59,6.48-13.86,2.93-5.31-3.57-7.08-9.21-5-15.1,1.77-5.02,4.94-9.54,7.39-14.34,2.79-5.46,5.94-11.02-1.44-15.59-10.02-6.21-13.63-5.68-19.61,1.89-28.46,36.03-64.1,59.25-111.24,61.35-6.28.28-8.77,2.27-9.15,8.97-.71,12.25-2.71,24.43-4.12,36.65-.95,8.26,2.32,11.66,10.33,9.22,21.64-6.58,43.48-3.44,65.3-2.25,2.35.13,4.76.79,6.98,1.63,4.07,1.54,7.76,3.97,8.34,8.61.66,5.24-3.71,7.33-7.46,8.99-21.34,9.42-43.49,15.52-68.72,15.15ZM268.03,329.34c-9.44-.09-18.75-.47-27.88-2.44-46.71-10.03-82.31-34.72-96.73-81.58-10.08-32.76-7.39-65.86,12.44-95.82,2.1-3.17,7.73-7.35,1.77-11.23-5.21-3.39-7.09,2.52-9.31,5.69-20.89,29.75-24.78,63.14-16.53,97.19,12.96,53.47,52.97,80.01,102.68,92.53,43.97,11.07,85.52-.24,124.8-21.5,30.92-16.74,47.9-43.5,56.84-76.41,1.09-4.02,1.79-8-3.49-9.47-6.58-1.83-5.59,3.97-6.37,7.15-3.02,12.4-7.87,23.97-15.18,34.39-29.94,42.68-72.98,59.19-123.04,61.49ZM253.77,165.11c9.47.09,16.8-7.01,21.13-20.16,1.82-5.53,2.06-10.78-2.79-14.75-5.22-4.27-11.1-4.21-16.68-.66-8.13,5.17-11.91,13.26-13.41,22.37-1.32,8.04,3.49,13.12,11.74,13.2ZM324.33,163.12c.12-8.84-9.27-14.73-18.1-10.85-10.02,4.4-14.28,13.3-15.97,23.42-1.56,9.37,5.43,15.34,14.81,13.22,8.57-1.94,19.12-16.08,19.26-25.78ZM325.51,228.44c-2.61.21-4.54,1.44-4.65,4.21-.1,2.39,1.46,3.8,3.83,3.92,2.85.14,4.46-1.78,4.76-4.21.29-2.4-1.67-3.5-3.93-3.92ZM200.05,157.43c-1.66.62-3.31,1.77-3.24,4.21.07,2.26,1.22,4.18,3.57,4.36,2.91.23,4.32-1.78,4.12-4.48-.16-2.22-1.51-3.79-4.45-4.09ZM187.42,171.98c2.13-.32,3.5-1.42,2.96-3.56-.59-2.32-1.81-4.63-4.58-4.68-2.08-.04-3.16,1.74-2.81,3.67.43,2.37,1.48,4.56,4.44,4.57ZM218.63,162.01c2.19-.84,3.51-2.34,2.97-4.72-.41-1.79-1.58-3.44-3.67-3.06-2.37.43-3.33,2.31-2.98,4.65.31,2,1.65,3.01,3.68,3.13ZM331.34,247.89c-.21-2.6-2.21-3.31-4.3-3.54-1.91-.21-3.76.66-4.08,2.64-.39,2.45,1.18,3.89,3.6,4.09,2.31.19,3.98-.84,4.79-3.19ZM206.25,147.84c2.02.22,3.05-.87,3.24-2.42.34-2.72-1.05-4.56-3.7-5.16-1.77-.4-2.92.92-3.09,2.39-.3,2.67,1.22,4.39,3.55,5.2ZM192.79,138.21c-.49-2.33-1.68-4.47-4.36-4.81-1.58-.2-2.58,1.19-2.71,2.9-.23,2.99,1.43,4.47,4.14,4.72,1.62.15,2.78-.82,2.93-2.81ZM356.09,229.84c-.73-2.47-2.6-3.27-4.79-3.07-1.84.17-3.6,1.17-3.13,3.39.48,2.28,2.18,3.45,4.6,3.06,1.9-.3,3.25-1.28,3.32-3.38ZM194.78,152.93c-.17-2.29-1.25-3.97-3.58-4.32-2.1-.32-3.35.95-3.38,3-.03,1.97,1.28,3.32,3.07,3.81,1.98.54,3.4-.37,3.88-2.49ZM322.94,214.73c-.55-1.56-1.55-2.99-3.66-2.67-2.3.36-3.72,1.91-3.52,4.28.13,1.58,1.4,2.63,3.07,2.52,2.31-.15,3.78-1.4,4.11-4.13ZM341.27,218.41c-.5-1.3-1.54-2.61-3.47-2.81-1.95-.21-3.66.76-4,2.63-.45,2.52,1.23,3.79,3.63,3.79,1.92,0,3.29-1.01,3.84-3.6ZM338.21,238.88c2.09-.02,3.75-1.04,3.75-3.06,0-2.02-1.77-3.06-3.75-3.11-1.94-.06-3.85.64-3.73,2.88.1,1.96,1.76,3.01,3.73,3.3Z"/>
      <path class="cls-2" d="M308.91,112.72c-8.08.12-14.57-5.3-14.79-12.35-.32-10.11,10.77-20.72,21.79-20.82,9.09-.09,14.21,4.74,14.22,13.42.01,10.83-9.39,19.59-21.23,19.76Z"/>
      <path class="cls-2" d="M296.96,73.02c.1,4.45-11.8,15.02-16.54,14.47-7.1-.82-14.22-1.59-21.34-2.14-4.95-.38-5.94-2.41-2.6-5.95,8.59-9.09,17.37-18.02,26.08-26.99,1.8-1.85,3.51-3.19,5.63-.12,4.28,6.22,7.49,12.86,8.77,20.73Z"/>
      <path class="cls-2" d="M342.71,128.59c-2.36-4.27-4.56-8.82-7.31-13.01-1.65-2.5-1.81-4.61.51-6.13,4.9-3.19,1.16-11.86,7.52-13.06,9.5-1.78,18.84.51,26.72,3.59-9.01,9.4-18.18,18.95-27.44,28.6Z"/>
      <path class="cls-1" d="M268.03,329.34c50.06-2.3,93.1-18.81,123.04-61.49,7.31-10.42,12.16-21.99,15.18-34.39.78-3.19-.21-8.99,6.37-7.15,5.28,1.47,4.58,5.45,3.49,9.47-8.94,32.91-25.92,59.67-56.84,76.41-39.28,21.27-80.83,32.57-124.8,21.5-49.71-12.52-89.72-39.06-102.68-92.53-8.25-34.05-4.36-67.44,16.53-97.19,2.23-3.17,4.1-9.08,9.31-5.69,5.96,3.87.33,8.06-1.77,11.23-19.83,29.96-22.52,63.05-12.44,95.82,14.41,46.86,50.01,71.55,96.73,81.58,9.14,1.96,18.44,2.34,27.88,2.43Z"/>
      <path class="cls-1" d="M253.77,165.11c-8.25-.08-13.06-5.16-11.74-13.2,1.49-9.11,5.28-17.2,13.41-22.37,5.57-3.55,11.46-3.6,16.68.66,4.85,3.97,4.61,9.22,2.79,14.75-4.33,13.15-11.67,20.25-21.13,20.16Z"/>
      <path class="cls-1" d="M324.33,163.12c-.13,9.71-10.69,23.84-19.26,25.78-9.38,2.13-16.37-3.85-14.81-13.22,1.69-10.12,5.95-19.02,15.97-23.42,8.83-3.87,18.22,2.01,18.1,10.85Z"/>
      <path d="M325.51,228.44c2.26.42,4.22,1.52,3.93,3.92-.3,2.43-1.9,4.35-4.76,4.21-2.37-.12-3.93-1.53-3.83-3.92.12-2.77,2.04-4,4.66-4.21Z"/>
      <path d="M200.05,157.43c2.95.29,4.29,1.87,4.45,4.09.19,2.71-1.21,4.71-4.12,4.48-2.34-.18-3.5-2.1-3.57-4.36-.07-2.44,1.57-3.59,3.24-4.2Z"/>
      <path d="M187.42,171.98c-2.96-.01-4-2.2-4.44-4.57-.35-1.92.74-3.71,2.81-3.67,2.77.05,3.99,2.36,4.58,4.68.55,2.14-.83,3.24-2.96,3.56Z"/>
      <path d="M218.63,162.01c-2.02-.12-3.37-1.13-3.68-3.13-.36-2.34.61-4.22,2.98-4.65,2.08-.38,3.26,1.27,3.67,3.06.54,2.38-.77,3.88-2.97,4.72Z"/>
      <path d="M331.34,247.89c-.81,2.35-2.48,3.38-4.79,3.19-2.42-.2-4-1.64-3.6-4.09.32-1.98,2.17-2.85,4.08-2.64,2.1.23,4.09.94,4.3,3.54Z"/>
      <path d="M206.25,147.84c-2.33-.8-3.85-2.53-3.55-5.2.16-1.47,1.32-2.79,3.09-2.39,2.65.6,4.04,2.45,3.7,5.16-.19,1.55-1.22,2.64-3.24,2.42Z"/>
      <path d="M192.79,138.21c-.15,2-1.31,2.96-2.93,2.81-2.71-.25-4.37-1.73-4.14-4.72.13-1.72,1.13-3.1,2.71-2.9,2.68.34,3.87,2.48,4.36,4.81Z"/>
      <path d="M356.09,229.84c-.06,2.1-1.41,3.08-3.32,3.38-2.42.39-4.13-.79-4.6-3.06-.46-2.22,1.29-3.22,3.13-3.39,2.19-.2,4.06.6,4.79,3.07Z"/>
      <path d="M194.77,152.93c-.48,2.11-1.89,3.02-3.88,2.49-1.79-.48-3.1-1.83-3.07-3.81.03-2.05,1.27-3.32,3.38-3,2.33.35,3.41,2.03,3.57,4.33Z"/>
      <path d="M322.94,214.73c-.33,2.73-1.8,3.98-4.11,4.13-1.67.11-2.93-.94-3.07-2.52-.2-2.37,1.22-3.92,3.52-4.28,2.11-.33,3.11,1.11,3.66,2.67Z"/>
      <path d="M341.27,218.41c-.55,2.59-1.92,3.6-3.84,3.6-2.4,0-4.09-1.27-3.63-3.79.34-1.86,2.05-2.83,4-2.63,1.93.2,2.98,1.52,3.47,2.81Z"/>
      <path d="M338.21,238.88c-1.97-.29-3.63-1.34-3.73-3.3-.12-2.24,1.79-2.94,3.73-2.88,1.98.06,3.74,1.09,3.75,3.11,0,2.03-1.66,3.05-3.74,3.06Z"/>
    </g>
  </g>
</svg>