<?xml version="1.0" encoding="UTF-8"?>
<svg id="Layer_1" data-name="Layer 1" xmlns="http://www.w3.org/2000/svg" viewBox="0 0 512 512">
  <defs>
    <style>
      .cls-1 {
        fill: #df072d;
      }

      .cls-2 {
        fill: #269dd5;
      }

      .cls-3 {
        fill: #1c1c1c;
      }

      .cls-4 {
        fill: #f7cd07;
      }

      .cls-5 {
        fill: #1f1f1f;
      }
    </style>
  </defs>
  <g id="QBJQTM">
    <g>
      <path class="cls-3" d="M277.45,270.26c-1.55,2.9-2.54,5.05-3.8,7.03-2.55,4.03-5.72,6.91-11.04,5.21-.63-.2-1.63-.45-1.97-.14-6.44,5.87-14.98,3.33-22.2,4.23-5.59.7-12.81-.47-18.95-2.17-5.77-1.59-6.09-7.23-6.23-12.33-.06-2.2,1.03-4.37.27-6.66-2.55.39-2.34,2.41-2.83,4.22-8.12,29.82-23.21,54.46-51.76,68.95-4.75,2.41-9.69,4.46-14.88,5.6-4.63,1.02-3.89,4.72-4.2,7.68-.34,3.25,2.68,2.33,4.48,2.75,5.84,1.37,11.81,2.27,17.2,5.12,9.26,4.89,10.16,12.96,2.17,19.67-8.56,7.18-18.77,6.77-28.93,5.89-6.16-.53-12.34-1.78-17.87-4.52-3.91-1.93-6.92-1.41-10.54.39-9.97,4.94-19.85,10.33-31.6,9.57-3.14-.2-6.1-.82-8.95-2.1-7.81-3.49-9.22-10.78-3.19-16.94,3.82-3.9,8.73-6.02,13.72-7.87,3.36-1.25,6.82-2.25,10.27-3.28,7.15-2.14,8.11-4.02,6.26-11.32-.74-2.93-3.23-2.29-4.91-2.71-14.54-3.62-28.6-8.37-41.27-16.62-16.55-10.77-26.78-25.68-30.06-45.31-1.1-6.56-4.34-11.55-11.35-13.6-4.77-1.39-6.32-6.09-4.58-12.55,1.77-6.56,5.24-12.14,11.49-15.09,3.77-1.78,4.91-4.46,5.81-8.12,4.11-16.74,10.03-32.74,20.01-47.01,12.42-17.76,29.23-29.23,50.13-34.6,3.6-.92,4.74-2.05,3.95-5.76-.83-3.92-.11-7.85,1.91-11.45,4.31-7.68,12.67-8.97,18.98-2.91,3.78,3.64,11.05,3.43,14.46-.47,2.78-3.19,5.86-5.85,10.33-6.1,5.13-.29,9.17,3.13,10.69,9.27.53,2.14.69,4.42.73,6.64.17,7.87.45,8.62,8.13,10.19,3.33.68,6.13,2.01,8.89,3.72,13.78,8.56,26.9,17.9,36.49,31.33,8.8,12.33,13.28,26.19,14.32,41.22.43,6.27,3.64,8.25,9.88,6.74,10.19-2.46,20.16-2.76,28.26,5.55,1.37,1.4,2.45.61,3.69.28,3.14-.83,6.29-2.51,9.4-2.42,7.81.22,9.9-4.17,11.63-10.81,6.53-25.11,18.07-47.37,38.98-63.77,13.08-10.26,28-16.48,44.21-19.69,3.29-.65,5.04-1.48,4.61-5.46-.59-5.51,1.33-10.52,5.28-14.53,5.63-5.73,12.8-5.34,17.76.89,2.75,3.45,7.64,3.57,10.7.26.82-.88,1.55-1.84,2.41-2.68,7.64-7.38,16.09-5.34,19.32,4.63,1.24,3.83,1.98,7.9.92,11.66-1.15,4.11.74,4.75,3.88,5.71,15.41,4.7,29.75,11.46,41.61,22.7,11.15,10.57,18.25,23.49,21.81,38.36.7,2.9,1.44,4.44,5.1,4.61,10.75.51,18.43,12.82,14.48,22.47-1.01,2.46-2.4,5.08-4.82,5.79-8.98,2.62-10.88,9.38-11.94,17.51-5.83,44.71-33.04,74.57-77.26,84.74-4.58,1.05-6.02,2.72-6.11,7.24-.18,9.17-.48,9.4,8.71,10.97,8.33,1.43,15.81,4.5,22.29,9.86,7.2,5.95,6.63,12.04-1.59,16.59-9.93,5.49-20.48,4.81-31.08,2.54-7.6-1.62-14.73-4.59-21.49-8.32-2.97-1.64-5.12-1.5-7.92.36-10.74,7.16-22.27,12.18-35.56,11.6-5.4-.23-10.57-1.42-15.06-4.55-6.24-4.35-6.61-10.81-1.07-16.03,6.68-6.29,15.13-8.47,23.75-10.29,1.68-.35,3.35-.87,5.04-.98,2.48-.16,3.02-1.24,2.89-3.66-.51-9.86-.38-9.99-9.99-12.59-18.45-5-35.55-12.52-49.53-25.99-13.42-12.94-20.3-29.03-22.77-48.36Z"/>
      <path class="cls-4" d="M501.98,236.07c-1.49-3.2-2.83-6.11-4.2-8.99-1.03-2.17-2.82-3.24-5.03-2.23-2.84,1.29-.77,3.24-.09,4.72,1.4,3.03,2.04,6.13,1.8,9.45-.24,3.26-2.58,4.62-5.17,4.65-2.69.03-1.88-2.67-2.11-4.39-.33-2.38-.61-4.77-.98-7.14-.32-2.05-1.2-3.73-3.66-3.3-2.31.4-2.92,2.06-2.53,4.22.85,4.74,1.65,9.45.17,14.25-.68,2.19-1.28,4.92-3.77,4.86-2.9-.07-2.82-3.16-2.83-5.25-.02-3.92.04-7.92.77-11.75.72-3.79-.82-4.44-3.76-3.52-2.92.91-5.73,2.21-8.55,3.45-2.86,1.26-6.02,1.16-7.28-1.51-1.47-3.12,1.14-5.41,3.85-6.84,2.75-1.44,5.74-2.08,8.89-2.19,6.1-.23,6.61-1.11,4.05-6.76-1.84-4.05-4.07-7.93-5.67-12.07-.83-2.16-2.19-1.81-3.63-1.71-2.3.17-2.25,2.03-1.82,3.46.78,2.61,1.88,5.13,2.99,7.63,1.39,3.11,1.4,4.98-2.86,5.46-3.77.42-7.15,2.4-9.87,5.14-5.24,5.27-3.25,12.44,3.94,14.22,1.64.41,3.54.74,5.1.31,6.04-1.65,7.56,1.09,7.64,6.58.06,4.17.18,9.27,5.42,10.47,5.39,1.24,9.54-1.7,12.75-5.98.44-.58.42-1.74,2.1-1.53.25,11.52-1.66,22.63-6.32,33.23-12.41,28.23-35.1,44.39-63.44,53.86-.81.27-1.66.43-2.46.73-3.47,1.31-8.57.37-10.28,3.42-1.63,2.91-.54,7.35-.58,11.12-.1,9.61-.06,9.49,9.22,11.86,6.94,1.77,14.15,2.95,20.16,7.26,2.5,1.79,5.8,3.91,5.44,7.02-.38,3.3-4.42,3.97-7.24,4.89-7.24,2.36-14.59,1.55-21.83-.13-6.68-1.55-13-4.2-19.37-6.73-4.21-1.67-5.66-4.52-5.65-8.56.01-6.19.17-12.37.23-18.55.02-2.06-.11-4.11-.11-6.17,0-1.99-.69-3.3-2.92-3.26-2.06.04-2.35,1.46-2.64,3.11-1.23,7.17-1.64,14.43-.41,21.54,1.22,7.05-1.36,11.4-7.36,14.62-10.35,5.55-20.94,9.49-32.93,6.51-3.22-.8-7.37-1.97-8.07-4.77-.77-3.09,3.13-5.37,5.7-7.2,7.22-5.14,15.67-6.99,24.26-7.4,4.37-.21,5.44-2.15,5.16-5.54-.44-5.31-.65-10.62-.97-15.92-.24-3.91-4.02-4.28-7.04-4.53-30.89-2.58-61.8-26.47-71.46-55.21-1.93-5.75-2.64-11.66-3.32-17.62-.14-1.24.21-3.61-1.42-3.36-4.64.72-5.74-2.38-7.77-5.39-2.27-3.36-6.33-2.45-9.98-2.3-1.58.07-4.64,2.29-4.86-1.3-.18-3.02-2.01-7.33,2.99-8.5,4.82-1.14,9.72-2.03,14.64-2.59,4.45-.5,6.15-2.73,7.04-7.04,4.14-20.12,12.3-38.44,25.53-54.34,13.53-16.26,30.89-26.39,51.17-31.72,4.17-1.1,8.66-1.28,12.76-.07,3.45,1.02,5.98.59,8.39-1.82,2.34-2.33,4.8-2.94,7.77-.98,1.4.92,3.24,2.03,4.83,1.07,4.92-2.95,9.44-1.59,13.96.78,1.61.84,3.52,1.08,5.01.59,6.06-2,11.42.55,16.81,2.37,20.63,6.97,38.04,18.13,48.31,38.24,3.45,6.75,5.87,13.9,7.02,21.35.69,4.46,2.72,5.68,6.88,5.13,4.77-.63,9,.55,11.18,5.35,2.05,4.5,1.87,8.89-1.74,13.27Z"/>
      <path class="cls-4" d="M246.97,258.17c-4.23,1.4-7.01-.54-9.89-1.98-2.3-1.15-4.58-2.36-7.18-2.65-1.24-.14-2.66.21-3.14,1.34-.41.96.64,1.93,1.51,2.39,1.12.6,2.22.82,1.31,2.54-2.21,4.12-1.58,8.45.12,12.43,1.43,3.34-.52,4.87-2.49,6.45-1.63,1.3-3.66,2.16-5.69.67-2.16-1.59-2.86-4-2.24-6.41.67-2.63,1.8-5.18,3.06-7.6,1.32-2.54.47-3.71-1.92-4.68-3.65-1.49-7.41-1.27-11.17-1.03-2.34.15-2.25,2.19-2.64,3.81-5.15,21.49-15.25,40.31-30.82,56.04-10.48,10.6-22.43,18.61-37.91,19.68-2.25.16-3.51,1.18-3.43,3.55.01.34-.02.69-.05,1.03q-1.3,14.61,13.21,16.94c3.75.59,7.45,1.36,10.76,3.23,4.72,2.68,5.15,6.55,1.49,10.54-3.77,4.1-8.71,5.43-13.91,5.69-9.89.5-19.39-1.5-28.67-4.93-2.76-1.02-3.6-2.51-3.54-5.32.18-7.39.11-14.78.08-22.17,0-1.57.64-3.5-2.23-3.64-2.71-.13-2.82,1.26-3.19,3.38-1.26,7.36-.73,14.74-.8,22.12-.01,1.65.63,3.4-1.3,4.61-9.7,6.06-19.59,11.44-31.62,10.4-3.5-.31-7.7-.99-8.8-4.08-.81-2.29,2.9-4.69,5.07-6.58,6.97-6.1,15.55-8.59,24.4-9.94,3.5-.53,4.34-1.99,4.08-5.01-.4-4.6-.8-9.21-1.12-13.81-.21-3.11-2.92-2.53-4.6-2.93-11.16-2.69-22.17-5.84-32.62-10.63-21.22-9.72-35.14-25.2-38.56-49.02-.4-2.82-.48-4.85,2.14-6.55,2.85-1.84,2.92,1.37,4.15,2.2,3.13,2.1,6.18,2.72,9.68,1.21,4.36-1.88,6.88-5.23,7.12-9.85.15-2.8.75-3.76,3.76-3.78,6.53-.05,10.99-5.72,10.74-13.03-.23-6.92-4.07-10.64-11.04-10.7-.85,0-1.69,0-2.79,0-.16-2.95,1.23-5.33,1.92-7.84.6-2.22.96-4.4.21-6.54-.5-1.43-1.49-2.95-3.36-2.58-1.4.27-2.62,1.31-2.39,2.92.84,6-2.4,10.93-4.29,16.16-1.3,3.59.09,4.43,3.13,4.13,2.02-.2,4.02-.78,5.97-1.38,1.9-.58,3.8-1.11,5.14.81,2.15,3.09,1.8,6.53.75,9.86-.66,2.09-2.2,3.24-4.65,3.33-3.14.11-6.81-3.56-9.05-.38-1.42,2.01-.1,5.87-.26,8.89-.07,1.32-.63,2.67-1.22,3.88-.76,1.55-2.16,2.2-3.88,1.71-1.9-.54-2.79-2.07-2.91-3.85-.21-3.08-.07-6.19-.24-9.27-.09-1.48-.29-3.41-2.01-3.71-1.61-.28-3,1.12-3.57,2.52-1.14,2.84-1.79,5.87-2.87,8.74-.71,1.89-1.58,4.53-3.85,4.23-2.5-.33-2.04-3.17-2.14-5.13-.25-4.73,2.74-8.36,4.41-12.44.48-1.18,1.87-2.5.25-3.49-1.11-.67-2.65-.35-3.87.57-2.63,1.99-3.26,5.15-4.75,7.82-1.2,2.15-2.26,5.69-5.15,4.51-2.21-.91-.94-4.24-.41-6.52,1.48-6.3,5.01-10.93,11.36-12.78,2.91-.85,3.97-2.54,4.57-5.32,4.4-20.31,11.46-39.47,24.81-55.8,11.68-14.28,26.75-23.33,44.36-28.35,1.48-.42,2.99-.54,4.52.17,1.23.57,2.58,1.04,3.92,1.18,4.37.47,7.64-2.68,11.36-3.67,3.42-.91,7.83,2.59,11.68.16,2.23-1.41,3.63-.79,5.53.23,4.97,2.67,10.07,4.54,15.51,1.09,1.23-.78,2.28.04,3.41.36,24.86,7.12,43.42,22.07,55.75,44.78,5.06,9.32,5.54,19.65,6.68,29.84.93,8.3,10.47,13.95,18.31,10.94,6.08-2.34,12.07-1.95,17.97.59,1.93.83,3.58,2.2,4.57,4.03,1.04,1.92,2.53,4.34.75,6.21-1.89,1.99-3.78-.39-5.42-1.29-2.86-1.56-5.46-3.64-8.8-4.07-1.3-.17-3-.47-3.57,1.21-.54,1.6.78,2.62,1.97,3.22,2.89,1.45,5.92,2.62,8.81,4.06.64.32.97,1.29,1.7,2.33Z"/>
      <path class="cls-2" d="M143.74,141.72c.28,2.89-.73,5.49-2.15,7.79-1.45,2.36-3.66,4.33-6.73,3.33-3.22-1.06-5.91-2.99-5.42-7.01.39-3.19.71-6.43,2.53-9.25,1.85-2.87,4.67-4.56,7.8-3.48,3.85,1.32,3.54,5.32,3.97,8.62Z"/>
      <path class="cls-2" d="M404.47,139.75c.52-6.12.99-10.89,6.07-13.4,3.12-1.54,5.54-1.25,6.74,2.54,1.46,4.63,1.31,9.03-1.4,13.2-2.11,3.25-5.16,3.63-8.55,2.81-3.75-.91-3.45-3.59-2.87-5.14Z"/>
      <path class="cls-2" d="M105.86,134.3c3.42.92,6.11,3.09,5.61,6.4-.59,3.94-1.96,8.09-5.18,10.87-2.07,1.79-4.66,3.2-6.92-.24-2.73-4.17-.99-13.07,3.27-15.72.99-.62,2.19-.9,3.22-1.3Z"/>
      <path class="cls-4" d="M248.93,281c0-4.72.03-9.01-.01-13.29-.02-2.39.75-4.51,2.64-5.86,2.4-1.71,4.59-2.09,5.92,1.61,2.49,6.93-1.04,14.77-8.55,17.53Z"/>
      <path class="cls-2" d="M373.83,140.75c.77-4.16,1.13-8.64,4.3-12.15,1.49-1.65,3.1-2.68,5.35-1.27,2.27,1.41,2.17,3.34,1.08,5.31-1.28,2.33-1.42,4.79-1.73,7.35-.42,3.48-3.46,5.02-6.55,5.21-2.6.16-2.23-2.46-2.46-4.45Z"/>
      <path class="cls-4" d="M243,271.44c-.12,3.27-.15,6.36-2.61,8.75-1.42,1.38-3.16,1.62-4.72.8-1.68-.88-.87-2.43-.05-3.52,1.92-2.57.16-4.93-.31-7.32-.57-2.93-2.5-6.59,2.11-7.43,4.47-.82,4.97,3.04,5.38,6.36.1.85.15,1.7.21,2.37Z"/>
      <path class="cls-4" d="M270.52,268.27c-.31,3.57-.97,6.96-4.56,8.59-1.48.67-3.38,1.3-2.71-1.99.6-2.97.18-6.13.7-9.12.29-1.68.78-4.13,3.14-4.12,2.41.01,2.41,2.51,3.04,4.19.29.78.28,1.67.4,2.46Z"/>
      <path class="cls-2" d="M393.23,143.25c-3.8.35-4.96-1.6-4.88-4.31.11-4,2.91-4.99,6.33-5.12,2.19-.09,4.05-.14,4.08,2.99.03,4.28-1.96,6.33-5.52,6.45Z"/>
      <path class="cls-2" d="M124.17,144.41c-.09,3.7-1.75,6.34-5.55,6.8-2.74.33-3.34-2.12-3.51-4.14-.27-3.16,3.56-7.03,6.43-6.84,1.92.13,2.61,1.23,2.63,4.19Z"/>
      <path class="cls-5" d="M382.97,246.12c-13.85-1.05-28.34-6-38.08-20.38-1.75-2.58-2.89-5.45-3.68-8.45-.37-1.4-1.32-3.15.9-3.88,1.93-.63,3.81-.43,4.78,1.73.97,2.18,1.53,4.6,2.76,6.61,6.53,10.61,16.77,15.46,28.55,17.18,21.55,3.15,34.94-3.87,45.28-23.08,1.47-2.72,2.62-7.38,6.66-5.08,3.19,1.82.6,5.68-.59,8.31-7.4,16.4-25.3,27.31-46.6,27.03Z"/>
      <path class="cls-5" d="M384.18,212.48c-8.45,0-13.82-3.92-14.69-10.44-1.04-7.76,2.42-12.64,10.76-14.97,3.47-.97,6.97-1.69,10.65-1.02,4.89.89,8.89,2.89,10.2,8.09,1.38,5.49-.21,10.24-4.48,13.89-3.64,3.11-7.98,4.64-12.43,4.44Z"/>
      <path class="cls-5" d="M414.11,170.82c-.05,5.91-4.59,11.72-9.29,11.87-3.96.12-7.14-3.68-7.07-8.45.09-6.31,4.8-12.22,9.65-12.1,4.14.1,6.75,3.48,6.71,8.69Z"/>
      <path class="cls-5" d="M365.9,174.17c.12-7.23,3.45-11.47,8.61-11.57,3.38-.07,4.88,1.66,5.64,4.7,1.26,5.05-.8,11.28-4.69,13.64-2.64,1.6-5.23,1.4-7.63-.45-2.21-1.7-1.4-4.38-1.93-6.31Z"/>
      <path class="cls-5" d="M70.59,223.01c4.36-1.03,7.13,1.08,9.64,3.77,12.74,13.67,29.46,17.4,47.14,10.57,9.36-3.62,16.97-9.54,23.16-17.36.85-1.07,1.63-2.23,2.61-3.16,1.41-1.33,3.19-1.31,4.78-.44,2.11,1.16.55,2.81.09,4.02-2.19,5.8-6.14,10.43-11.16,13.8-18.5,12.43-38.34,14.99-59.11,6.53-8-3.26-13.87-9.2-17.16-17.72Z"/>
      <path class="cls-5" d="M113.16,192.89c8.69.01,13.91,3.31,14.88,8.81,1.11,6.33-2.85,12.34-9.99,14.91-5.74,2.07-11.51,2.4-16.78-1.18-6.18-4.19-6.43-13.51-.66-18.27,3.91-3.23,8.63-3.97,12.55-4.28Z"/>
      <path class="cls-5" d="M140.21,180.32c-.07.43-.2,1.27-.33,2.12-.95,6.18-3.6,9.37-7.69,9.24-3.84-.12-6.54-3.51-6.94-8.72-.47-6.04,2.28-10.98,6.65-11.94,5-1.1,8.34,2.47,8.31,9.3Z"/>
      <path class="cls-5" d="M106.58,178.3c0,6.62-3.85,12.11-8.59,12.24-4.08.11-6.77-3-6.85-7.93-.1-6.07,3.94-11.29,8.86-11.44,4.58-.15,6.57,2.01,6.58,7.13Z"/>
      <path class="cls-1" d="M383.5,207.18c-5.24.03-7.76-2.31-7.75-7.22,0-5.66,4.58-9.2,11.88-9.2,4.57,0,7.49,2.54,7.52,6.53.04,5.16-5.49,9.85-11.65,9.89Z"/>
      <path class="cls-1" d="M109.81,212.33c-2.61.27-5.95-.75-6.88-4.72-.91-3.91,1.84-6.38,4.97-8.07,3.95-2.12,8.15-2.92,12.12-.11,2.43,1.72,2.74,4.53,1.53,6.93-2.11,4.19-5.97,5.85-11.74,5.97Z"/>
    </g>
  </g>
</svg>