<?xml version="1.0" encoding="UTF-8"?>
<svg id="Layer_1" data-name="Layer 1" xmlns="http://www.w3.org/2000/svg" viewBox="0 0 512 512">
  <defs>
    <style>
      .cls-1 {
        fill: #f4c703;
      }

      .cls-2 {
        fill: #050505;
      }

      .cls-3 {
        fill: #12513d;
      }

      .cls-4 {
        fill: #1c1c1c;
      }

      .cls-5 {
        fill: #030303;
      }

      .cls-6 {
        fill: #fff;
      }

      .cls-7 {
        fill: #121212;
      }

      .cls-8 {
        fill: #080808;
      }

      .cls-9 {
        fill: #1f1f1f;
      }

      .cls-10 {
        fill: #cb0927;
      }

      .cls-11 {
        fill: #0a0a0a;
      }

      .cls-12 {
        fill: #007732;
      }
    </style>
  </defs>
  <g id="Osw8PQ">
    <g>
      <path class="cls-5" d="M391.02,102.64l.14.13v-.09c-.05-.01-.09-.02-.14-.04ZM397.05,104.66s-.02,0-.03,0l.07.08s-.02-.05-.04-.07ZM409.01,144.42h-.09l.16.12s-.05-.08-.07-.12ZM421.4,122.78c1.14-1.99,2.36-2.23,3.68-.17l.92-.02.73.54c.9.45,1.79.9,2.68,1.34,1.1.25,2.2.5,3.31.75,5.27-.04,10.54-.09,15.82-.13.61-.14,1.22-.28,1.82-.42,1.09-1.3,2.48-1.8,4.15-1.56l.79-.53.95.07c1.01-1.55,2.49-2.03,4.25-1.87h.01c1.33-.64,2.67-1.27,4-1.91l.08-.03c.88-1.44,2.21-2.05,3.85-2.09,2.65-3.34,5.97-6.33,7.84-10.06,10.12-20.17,8.73-41.8,6.64-63.23-.66-6.8-4.88-7.62-10.18-2.25-9.34,9.45-20,17.27-32.12,22.92-7.88,3.66-10.57,1.82-10.18-6.78.29-6.52,4.11-9.51,10.14-9.94,4.41-.3,8.87-.06,15.33-.06-11.14-12.18-3.27-23.16-1.24-37.01-7.62,6.64-12.21,12.54-19.24,15.58-10.97,4.76-13-4.84-17.68-10.9q-7.08,21.77-20.12,26.83c3.67,6.31,9.98,11.65,8.21,20.26-4.61-.33-6.17-4.09-8.61-6.54-31.53-31.75-74.74-43.23-110.56-27.65-9.69,4.22-16.85,4.6-26.84,1.03-42.14-15.09-80.47-3.6-116.6,19.46-2.55,1.63-4.21,4.97-8.65,4.9,2.86-4.03,5.29-7.46,8.11-11.44-6.63-2.36-11.31-5.16-8.82-13.61,1.86-6.34,8.2-8.79,10.9-14.23-1.34-.66-1.91-1.17-2.5-1.19-1.3-.03-2.62.06-3.89.32q-15.39,3.17-23.95-10.48c-.85-1.37-1.47-3.24-3.54-2.52-1.87.66-1.72,2.64-1.94,4.24-1.19,8.61-2.31,17.43-11.29,21.78-6.91,3.35-4.92,4.94.42,7.74,8.71,4.55,9.7,10.51,3.81,18.54-1.5,2.05-3.81,3.6-3.93,7.17,5.85,2.21,14.01-.5,18.63,7.4-8.35.79-15.81.51-23.26-.79-1.3-.23-2.6-.52-3.88-.83-11.04-2.6-19.37-8.16-22.47-19.86-.83-3.15-2.24-6.43-6.38-6.63-2-.1-3.06,1.2-3.16,3.03-.8,14.18-6,27.93-4.33,42.34,2.22,19.17,17.68,29.63,36.21,24.49,10.47-2.9,18.96-9.08,26.65-16.58,2.15-2.1,3.4-5.81,7.53-5.29q-1.01,8.14-10.88,20.94c14.2,1.16,15.96,4.08,11.29,18.77-1.05,3.28-2.64,6.51-1.27,10.76,6.89-3.54,8.31-12.65,17.63-14.12-3.2,7.08-5.86,13.34-8.82,19.44-22.07,45.47-42.66,91.59-62.59,138.04-13.14,30.61-22.35,62.95-39.76,91.71-3.28,5.41-.85,8.74,4.16,10.89,6.17,2.66,12.8,3.42,19.39,3.68,46.28,1.83,92.55,3.69,138.84,5.14,19.92.62,19.94.18,20.52,20.28q.52,18.08-16.75,14.98c-38.87-6.99-64.47,3.3-82.71,33.24-1.91,7.17-2.49,14.46-2.15,21.85.08.67.17,1.34.25,2,3.45,4.63,5.84,10.09,10.79,13.52,2.73.83,5.27,2,7.15,4.26,1.65.01,3.08.46,3.98,1.98.64.19,1.29.38,1.94.56.96.41,1.92.82,2.88,1.23,1.69.18,3.37.36,5.05.54,25.41,1.57,47.76-6.48,68.36-23.5,0,4.44.02,7.01,0,9.59-.13,15.58.98,17.17,16.07,15.55,20.72-2.22,41.57-1.39,62.27-3.31,4.91-.46,11.04,5.18,14.38-.86,2.47-4.46-.5-10.3-1.16-15.51-.06-.49.53-1.06,1.16-2.23,4.23,2.46,8.59,4.66,12.59,7.39,17.21,11.74,36.83,16.04,57.01,18.04,22.53,2.24,44.4-11.5,49.35-30.15,4.97-18.73-6.04-37.81-27.85-48.13-2.09-.99-4.27-1.8-6.47-2.49-25.25-7.97-51.1-11.05-77.37-7.72-6.85.87-8.89-.69-8.64-7.01.11-2.97-.04-5.95-.09-8.92-.11-6.63,1.88-9.97,9.76-9.46,28.06,1.82,56.18,2.64,84.25,4.33,18.77,1.13,37.57,2.57,56.21,4.97,6.37.81,12.58,3.75,16.97-2.65,3.63-5.31,1.78-11.63-.36-17.03-13.16-33.16-20.95-68.01-32.25-101.75l-.51-.46.25-.65c-1.5-1.3-1.66-3.02-1.48-4.84-.57-.42-.7-.94-.39-1.58-1.51-1.11-1.78-2.65-1.53-4.38-.11-.63-.23-1.25-.34-1.88-.51-1.36-1.01-2.71-1.52-4.07-.22-1.12-.44-2.24-.66-3.36-1.37-1.25-1.71-2.84-1.49-4.61-.57-.46-.7-1.02-.39-1.68-1.42-1.1-1.68-2.6-1.46-4.27-.22-1.08-.45-2.16-.67-3.24-1.52-1.25-1.8-2.9-1.55-4.73-.56-.47-.66-1.03-.29-1.67-.5-1.42-.99-2.85-1.48-4.27-.23-1.02-.46-2.03-.68-3.04-1.6-1.32-1.63-3.08-1.38-4.92-.19-1.1-.37-2.2-.56-3.3-1.51-1.23-1.71-2.87-1.46-4.65-.19-1.06-.38-2.12-.57-3.18-.42-.92-.84-1.85-1.26-2.77-.17-.62-.33-1.23-.5-1.85-1.35-1.06-1.73-2.49-1.59-4.12-.61-.35-.79-.86-.52-1.52-.43-.82-.85-1.63-1.28-2.44-.2-1.28-.4-2.55-.6-3.83-1.56-1.77-2.03-3.84-1.7-6.14-.16-1.06-.32-2.13-.48-3.19-1.39-1.31-1.5-2.99-1.34-4.74-.23-1.04-.46-2.08-.69-3.12-.39-.94-.79-1.89-1.18-2.84-.21-1.22-.42-2.44-.63-3.67-1.42-1.1-1.71-2.61-1.53-4.29-.13-.6-.27-1.21-.4-1.81l-1.44-4.14c-.25-1.01-.51-2.03-.77-3.05-1.57-1.32-1.65-3.08-1.45-4.92-.57-.44-.69-.98-.39-1.62-1.47-1.1-1.89-2.6-1.65-4.35-.59-.45-.7-1-.32-1.64-.5-1.44-1-2.87-1.5-4.31-.61-.48-.76-1.08-.44-1.79-1.7-1.74-1.95-3.88-1.68-6.17-.57-.47-.68-1.04-.34-1.7-1.68-1.79-1.97-3.94-1.68-6.25-.17-1.03-.34-2.05-.5-3.07-.42-.96-.83-1.92-1.25-2.88-.16-.63-.31-1.27-.47-1.9-.51-1.35-1.01-2.71-1.52-4.06-.15-.65-.3-1.31-.45-1.96-1.29-1.04-1.9-2.35-1.63-4.01-.14-.61-.27-1.22-.4-1.83-.52-1.38-1.04-2.75-1.56-4.13-.22-.99-.43-1.97-.65-2.96-1.42-1.4-1.66-3.13-1.41-5-.15-1.2-.29-2.39-.44-3.59-.39-.78-.78-1.55-1.17-2.33-.29-1.15-.59-2.3-.88-3.46-1.17-1.59-2.96-3.19.08-4.66.88-1.72,2.44-1.83,4.09-1.73l.53-.55.75.14c1.23-1.5,2.88-1.83,4.7-1.68l.5-.53.7.18c.92-1.01,1.86-2.16,2.33.31.21,1.16.42,2.32.62,3.48,1.08,1.01,1.11,2.02.03,3.04-.24,1.15-.48,2.3-.72,3.44.2,1.21-.53,1.62-1.54,1.79l-.09.1c-.6.68-1.2,1.38-1.81,2.06h0c.07,1.27.14,2.52.21,3.77,1.98.63,4.64-.74,5.89,1.98,1.19.23,1.69.95,1.47,2.17.02,1.34.03,2.68.04,4.03.26,1.69-.07,3.15-1.57,4.18-.22.6-.43,1.2-.65,1.8-.44.73-.89,1.47-1.34,2.2-.2.59-.41,1.18-.62,1.77-.46.71-.93,1.43-1.39,2.14,2.28,6,8.68,1.02,11.91,4.47.51.48,1.02.95,1.53,1.42l.25.26c1.77.59,2.18,1.89,1.86,3.57v2.03c.35,3.23-1.27,6.57.47,9.72.62-.05,1.22.04,1.79.26.76-.69,1.52-1.38,2.28-2.07.46-.98.92-1.95,1.38-2.93.24-1.01.48-2.03.72-3.05-.19-1.66.03-3.19,1.44-4.33-.31-.67-.16-1.21.45-1.62.45-.96.91-1.93,1.36-2.89l-.13-.66.55-.41c-.16-1.31.44-2.15,1.65-2.6-.11-.73.19-1.18.9-1.34ZM140.15,62.4c11.59-13.43,27.42-19.6,43.68-24.25,16.18-4.63,32.53-8.09,49.34-6.82.4.02.8.06,1.19.09.56.05,1.12.11,1.68.17.41.04.82.09,1.24.14.5.06,1.01.13,1.52.2.82.11,1.66.23,2.49.38,1.28.21,2.56.45,3.84.74.43.08.86.18,1.29.28,1.47.34,2.84.7,4.12,1.09.32.1.63.2.94.3.31.09.61.19.91.3,1.19.4,2.28.83,3.28,1.29,1,.46,1.91.94,2.73,1.46.2.12.4.25.59.39.19.12.38.26.56.4.18.12.35.26.52.4.32.26.62.53.9.81.13.13.26.26.38.39.12.13.24.26.35.39s.21.26.31.39c0,.01.02.03.04.04.09.13.18.26.27.4.48.7.85,1.44,1.1,2.22.04.11.08.22.11.34.06.2.11.4.15.61.04.17.07.33.09.5.02.12.04.25.05.37.03.19.04.38.05.57.01.2.02.4.02.6,0,4.03-2.22,8.99-6.59,15.16-.46.66-.94,1.29-1.43,1.91-.22.29-.45.57-.69.85-.15.2-.32.4-.49.59-.41.5-.85.99-1.29,1.47-.34.36-.67.71-1.01,1.06-.4.4-.81.8-1.22,1.19-.48.45-.97.89-1.47,1.32-.39.34-.79.68-1.2,1-.16.13-.32.26-.49.38-.29.23-.58.45-.87.67-1.05.78-2.13,1.51-3.24,2.2-.44.27-.89.54-1.35.81-.13.07-.26.14-.39.21-.32.18-.64.36-.97.53-1.22.66-2.47,1.26-3.74,1.8-.49.22-.99.43-1.5.63-.55.22-1.11.43-1.67.64-.86.31-1.73.61-2.6.88-.88.28-1.76.53-2.66.78-.44.12-.89.24-1.34.35-.91.22-1.82.43-2.73.63-1.84.39-3.71.71-5.6.99-8.49,1.24-16.98,3.13-25.72,2.18-16.69-1.42-33.74-.45-49.68-7.44-9.72-4.27-10.58-7.12-3.8-14.98ZM140.32,84.05c5.23,2.32,14.66,2.51,14.87,7.03.31,6.38-4.48,13.22-9.8,20.65-.63-2.72-1.06-3.66-1.03-4.6.28-9.28-2.79-16.47-9.67-22.61-.92-.82-1.6-1.9-2.63-3.16,3.76-1.1,5.81,1.61,8.26,2.69ZM118.38,76.89c-.02.1-.04.2-.06.3-.02.1-.05.19-.09.29,0,.01,0,.02,0,.03-.03.08-.06.15-.1.22-.04.09-.08.17-.13.26-.06.12-.13.23-.21.34-.15.22-.33.44-.51.65-.19.21-.39.41-.6.62-.74.7-1.56,1.37-2.17,2.07-6.1,7.11-13.59,12.59-21.75,17.02-17.87,9.68-31.88.97-31.57-19.41,0-.33-.04-.67.02-.99,1-5.82.06-13.93,3.51-16.88,4.71-4.03,8.8,4.24,13.68,6.26,10.53,4.35,21.2,7.17,32.68,6.31,2.46-.19,5.71-1.93,7.06,1.24.19.45.28.88.28,1.27,0,.14-.01.27-.03.4ZM124.81,63.49c-.16.06-.33.11-.52.14-.09.03-.19.04-.29.06-.08.01-.16.02-.25.03-.14.02-.28.02-.43.03-3.76.13-7.45-4.97-11.57-6.86-8.74-4.01,1.57-9.15-1.18-12.89.3-3.58-.21-6.62-2.74-8.56-5.22-4-2.43-6.45-.34-11.5,2.47-6,5.48-7.44,8.66-7.19.16.01.31.02.47.05.15.01.3.04.45.07.19.02.39.06.58.1.31.07.61.15.91.23.23.06.47.13.7.21,2.18.68,4.38,1.7,6.51,2.21.14.03.28.06.43.09.3.06.61.11.91.15.01.01.02.01.03,0,.15.02.29.03.44.04.52.04.93.13,1.25.27.19.09.34.19.46.3.08.07.15.16.21.24.06.09.1.18.14.28h0c.03.1.06.2.08.31.17,1.15-.68,2.78-.78,4.04-.47,5.8-2.31,11.9,3.09,16.63,1.88,1.65,1.36,3.53.29,5.32-1.01,1.69-1.89,3.63-3.34,4.85-.14.11-.26.23-.38.36-.11.12-.22.25-.31.39-.1.13-.19.27-.27.42-.08.13-.14.26-.2.4,0,.03-.03.05-.03.08-.06.12-.11.24-.14.36-.04.09-.06.18-.09.26-.04.14-.08.28-.11.42-.07.3-.13.6-.17.91-.03.24-.06.47-.08.71s-.04.48-.05.72c0,.28-.03.56-.04.84-.02.28-.03.56-.04.83-.03.54-.07,1.08-.15,1.57-.04.28-.1.56-.17.82-.18.65-.46,1.22-.92,1.64-.09.09-.19.17-.29.24-.11.08-.22.15-.35.22-.12.06-.24.11-.38.16ZM139.7,115.01c.78,2.37-2.31,3.69-4.52,4.34-1.37.4-2.12.11-2.55-.5-.04-.06-.08-.12-.11-.18-.23-.38-.34-.86-.41-1.34-.03-.21-.06-.42-.08-.62-.03-.31-.05-.6-.08-.87-.77-7.06-11.32-12.3-3.8-20.94,1.48-1.7,1.01-6.36,4.77-4.03,2.89,1.79,8.3,1.19,8.38,4.19-.99,8.34-3.64,13.81-1.6,19.95ZM199.67,479.37c-1.28.93-2.56,1.83-3.86,2.7-.44.29-.87.58-1.3.86-1.31.86-2.63,1.68-3.96,2.47-1.32.79-2.66,1.55-4,2.27-1.18.64-2.37,1.25-3.57,1.83-.37.19-.75.37-1.12.54-.66.31-1.32.62-1.99.91-.53.24-1.06.47-1.59.69-1.66.69-3.33,1.34-5.02,1.93-.44.15-.88.3-1.32.45-.6.19-1.21.39-1.82.57-.54.17-1.07.33-1.61.47-.58.17-1.15.32-1.73.48-1.11.28-2.23.55-3.35.79-.06.01-.12.02-.18.03-.53.12-1.06.22-1.59.32-.42.08-.84.15-1.26.23-.38.06-.75.13-1.12.18-.49.08-.98.15-1.48.22-.08.01-.15.02-.22.03-.45.06-.92.12-1.38.17-1.14.14-2.29.24-3.45.33-1.76.13-3.53.2-5.33.21-2.54-.01-4.94-.21-7.2-.6-.11-.02-.23-.04-.34-.06-.7-.13-1.39-.27-2.06-.43-.36-.09-.72-.18-1.08-.28-1.06-.29-2.08-.63-3.06-1.01-.65-.25-1.28-.52-1.88-.82-.63-.3-1.23-.61-1.8-.95-.25-.15-.5-.3-.74-.46-.03-.01-.06-.03-.08-.05-.16-.1-.32-.2-.48-.32-.23-.15-.45-.3-.67-.47-.22-.16-.44-.32-.65-.5-.19-.14-.37-.29-.55-.46-.19-.15-.37-.31-.55-.48-.75-.69-1.42-1.42-2.02-2.2-.18-.23-.36-.47-.52-.71-.03-.03-.04-.05-.06-.08-.17-.25-.34-.51-.49-.76,0,0-.02-.02-.02-.03-.16-.26-.32-.52-.45-.79-.03-.04-.06-.09-.08-.14-.13-.24-.25-.48-.36-.72-.03-.04-.05-.09-.07-.14-.13-.29-.26-.59-.37-.89-.13-.31-.24-.63-.34-.95-.11-.32-.2-.65-.29-.98-.35-1.34-.51-2.8-.51-4.34,0-.31,0-.63.02-.94,0-.3.03-.59.06-.89.22-2.93.98-6.06,2.14-9.14.13-.34.26-.68.4-1.02.13-.34.27-.67.42-1.01.24-.55.49-1.08.75-1.62.13-.27.27-.54.4-.8.54-1.07,1.13-2.11,1.76-3.12l.48-.75c.16-.24.32-.49.49-.73.17-.25.33-.49.5-.72.18-.26.37-.51.56-.77.33-.44.67-.87,1.03-1.29.18-.22.36-.44.55-.65.36-.42.74-.84,1.13-1.24.18-.18.36-.36.54-.54.17-.18.35-.35.54-.52.91-.84,1.85-1.6,2.81-2.26.19-.13.39-.26.58-.38,1.87-1.18,3.46-1.33,4.92-.97.03,0,.06.01.09.02.12.04.24.07.36.11.12.03.23.07.35.12.11.04.22.09.33.14,1.03.44,2,1.09,2.98,1.75,16.36,11.05,33.33,20.29,53.97,19.54,1.88-.06,4.49-.07,4.91,2.3.51,2.99-2.02,4.81-4.1,6.32ZM148.37,443.47c13.26-9.8,28.34-10.45,43.49-7.52,8.45,1.64,16.92,3.2,25.17,7.55,7.3,3.86,17.31.67,26.08-.36-14.92,25.54-72.05,24.78-94.74.33ZM251.03,498.48c-3.63-.03-7.26-.01-10.89-.01-18.8,1.39-18.39,1.38-18.47-17.23-.04-8.29,2.12-13.39,10.26-16.71,6.26-2.55,12.14-6.56,17.01-11.64,1.47-1.53,2.81-4.42,5.53-2.87,2.34,1.34,1.49,4.18,1.28,6.36-1.07,11,.78,21.83,2.93,32.42,1.54,7.6-.93,9.73-7.65,9.68ZM293.32,492.01c-1.76,7.65-8.65,4.16-13.11,5.55-4.11,1.29-7.86.65-10.52-2.33-.09-.09-.18-.19-.26-.3-.22-.26-.43-.54-.62-.83-.12-.17-.23-.34-.34-.52-.09-.15-.18-.31-.27-.47-.14-.25-.27-.51-.4-.78-.13-.27-.25-.54-.37-.83-.14-.36-.28-.71-.4-1.07-.03-.07-.05-.14-.07-.21-.1-.31-.2-.62-.28-.93-.18-.6-.32-1.2-.43-1.8-.07-.31-.12-.62-.17-.93-.09-.52-.15-1.05-.21-1.57-.05-.41-.08-.81-.11-1.21-.04-.44-.07-.87-.09-1.3-.03-.43-.05-.86-.06-1.29-.03-.77-.05-1.53-.08-2.29-.02-.38-.03-.76-.05-1.14,0-.31-.02-.62-.04-.92-.06-1.21-.15-2.4-.31-3.57,0-.92-.07-1.58,0-2.23.57-4.43-2.1-10.55,1.84-12.91.56-.34,1.1-.48,1.63-.48.15,0,.3,0,.45.04.16.02.31.05.45.1.15.04.3.1.45.16.14.06.28.13.41.2.06.02.12.06.17.09.55.32,1.08.73,1.62,1.19.55.46,1.09.97,1.64,1.48.14.13.27.25.41.38.51.46,1.03.9,1.56,1.29.15.1.29.21.44.3.29.19.59.36.9.51.15.07.31.13.46.19.15.06.3.12.45.2.15.06.29.13.44.22.14.07.29.15.43.24.7.42,1.39.9,2.11,1.29,11.45,6.07,15.19,14.01,12.32,26.48ZM380.01,437.09c1.1.22,2.19.47,3.28.74,3.8.95,7.5,2.17,11.02,3.77,1.51.69,2.99,1.45,4.43,2.29,1.92,1.12,3.77,2.38,5.54,3.81,13.32,10.77,13.06,32.42-.62,44.37-7.93,6.93-17.11,10.75-27.97,10.71-23.93-.1-45.09-8.44-64.91-21.02-2.1-1.33-4.5-2.89-4.35-6.92,6.98-.91,14.23-1.08,21.04-2.89,18.97-5.05,35.73-13.79,45.29-32.07,2.01-3.84,4.5-3.36,7.25-2.79ZM306.54,435.64c16.93-9.19,35.38-5.36,53.27-1.87,6.18,1.21,2.68,5.15.8,7.2-6.67,7.3-13.99,14.06-23.35,17.73-16.28,6.4-32.92,6.31-49.5,1.21-11.41-3.51-19.26-11.01-23.13-22.67,2.4-2.07,4.7-.05,6.89.76,12.05,4.43,23.08,4.13,35.02-2.36ZM413.44,244.78c3.27,11.18,6.59,22.34,9.95,33.49,3.35,11.15,6.74,22.3,10.15,33.43,3.4,11.14,6.83,22.28,10.25,33.41,3.43,11.13,6.85,22.26,10.26,33.4,4.78,15.62,1.2,20.29-14.96,18-32.1-4.56-64.48-5.4-96.78-7.44-1.65-.11-3.29-.19-4.95-.27-1.65-.08-3.3-.16-4.95-.22-4.14-.16-8.27-.29-12.4-.46-2.48-.1-4.95-.22-7.43-.36-1.64-.1-3.29-.21-4.94-.33-1.64-.13-3.29-.27-4.93-.44-8.43-.86-10.75,3.3-10.71,10.07.04,6.92,1.21,13.82,1.25,20.74.03,5.89,2.28,13.31-7.21,14.79-1.06.17-2.14.25-3.24.25-.32,0-.64-.01-.96-.02-1.04-.05-2.07-.16-3.11-.34-.34-.06-.67-.13-1-.2-.32-.07-.63-.14-.95-.22-.03-.01-.06-.02-.09-.02-.64-.17-1.28-.36-1.91-.58-.77-.27-1.51-.57-2.24-.9-1.45-.67-2.8-1.47-4-2.38-.4-.3-.78-.62-1.14-.95-.18-.17-.36-.34-.53-.51-.86-.85-1.6-1.76-2.19-2.74h0c-.13-.24-.26-.47-.38-.7-.03-.06-.06-.12-.08-.17-.1-.2-.2-.41-.28-.62,0-.02-.02-.04-.02-.06-.07-.15-.12-.3-.17-.46-.06-.14-.11-.3-.15-.45-.07-.21-.12-.42-.17-.64-1.78-8.01-2.47-16.29-3.32-24.48-.46-4.49-.64-9.74-6.63-8.63-5.43,1.01-3.46,6.25-2.96,10,.88,6.53,2.02,13.03,3.04,19.54,1.27,8.14-5.44,10.48-10.35,14.01-1.29.92-2.61,1.8-3.98,2.56-.27.16-.55.31-.82.45-.28.15-.55.29-.83.42-.56.26-1.12.5-1.68.72h0c-.32.13-.64.25-.97.35-.3.11-.61.2-.92.28-.06.03-.12.04-.18.05-.31.08-.61.16-.92.22-.35.07-.69.14-1.04.19h-.03c-.35.05-.71.09-1.06.11-1.65.12-3.35-.03-5.11-.51-.39-.11-.73-.26-1.03-.45-.31-.19-.57-.43-.8-.69-.11-.13-.22-.27-.31-.42-.11-.15-.2-.31-.27-.47-.09-.16-.17-.33-.23-.5-.21-.52-.35-1.08-.45-1.66-.05-.29-.09-.59-.12-.89-.03-.3-.05-.6-.07-.89-.04-.6-.05-1.19-.05-1.74-.05-11.25-.4-22.54.41-33.74.32-4.41-.56-7.7-2.83-11.04-17.96-.46-35.91-.91-53.87-1.36-.69-.35-1.39-.69-2.08-1.04-37.78-1.38-75.56-2.85-113.35-4.09-8.13-.27-9.67-3.7-6.3-10.52,2.89-5.86,4.14-12.53,8.58-17.64,18.14-50.09,40.09-98.54,62.41-146.88,15.39-33.32,31.9-66.09,47.12-99.48,3.52-7.73,7.56-10.94,17.03-10.25,21.73,1.59,43.55,1.68,64.5-6.9,8.76-3.58,14.49-10.16,20.97-16.22,2.16-2.02,4.12-6.09,7.83-1.56,13.49,16.45,33.1,19.55,52.21,23.07,11.63,2.15,23.56,3.57,35.44.55,6.74-1.71,8.28,3.03,9.89,8.1,15.27,48.18,28.94,96.84,43.15,145.33ZM385.92,74.92c-15.02,5.57-30.48,8.85-45.43,8.38-17.69.44-33.18-4.21-48.46-9.71-8.17-2.94-12.67-8.11-13.19-17.61-.03-.62-.05-1.23-.05-1.82,0-.36.01-.71.02-1.06h0c0-.35.03-.68.06-1.01-.01-.02,0-.03,0-.04.01-.21.03-.42.06-.63,0-.18.03-.36.06-.54.07-.62.18-1.22.3-1.8.05-.22.1-.44.16-.65.04-.18.08-.35.14-.52.06-.22.12-.44.2-.66.23-.73.52-1.43.85-2.09.05-.11.1-.21.16-.32.1-.2.21-.39.32-.58.14-.25.29-.49.44-.72.18-.28.38-.56.58-.82.14-.18.28-.36.43-.54.12-.15.24-.29.37-.43.1-.11.2-.22.31-.33.51-.55,1.06-1.06,1.66-1.54.23-.18.47-.36.71-.54,1.07-.79,2.27-1.5,3.6-2.14.31-.15.63-.3.96-.45.43-.19.87-.37,1.32-.55,23.27-9.11,46.17-6.67,68.51,2.89,10.94,4.68,21.29,10.76,29.51,19.75,8.79,9.59,8.37,11.64-3.6,16.08ZM407.59,44.9c0-.08.03-.16.05-.25.13-.53.37-1.04.73-1.52.09-.11.19-.22.29-.34.11-.12.22-.24.35-.36.27-.27.58-.52.94-.78.24-.17.49-.33.77-.5.54-.33,1.1-.7,1.64-1.09.3-.22.59-.44.87-.68.2-.15.39-.32.57-.49.29-.26.57-.52.83-.8.34-.36.65-.73.94-1.11h0c.14-.2.27-.4.39-.59.13-.2.24-.41.34-.61,2.4-4.86,5.08-7.72,10.57-4.03,3.35-.48,6.55-1.03,9.78-1.37.12-.01.24-.03.36-.06.74-.19,1.56-.7,2.38-1.19.24-.15.48-.29.72-.42.05-.03.11-.07.17-.09.15-.08.3-.16.44-.22.14-.07.28-.14.42-.19.12-.05.23-.08.33-.11.43-.12.84-.14,1.2.02.08.03.17.08.25.14.01,0,.02,0,.02.01.08.06.16.13.23.21.22.24.41.58.56,1.05.04.09.07.19.09.29.03.1.06.21.08.33.06.23.1.49.14.76.56,3.98,4.44,10.96-4.5,12.34-.38.06-.76.12-1.13.19s-.73.15-1.09.23c0,0,0-.01,0,0-.32.07-.64.15-.95.22-.39.1-.78.21-1.15.33-.46.14-.9.29-1.33.45-.46.17-.91.36-1.34.56-.23.11-.45.22-.67.33-.22.12-.44.24-.65.36l-.63.39c-.2.13-.4.27-.6.41-.59.43-1.13.9-1.64,1.42-.14.13-.26.27-.38.41-.13.15-.25.29-.37.44-.13.16-.26.32-.38.49-.1.14-.2.29-.3.44-.09.13-.17.27-.26.41-.09.14-.17.29-.25.44-.11.2-.22.4-.32.61-.01.02-.02.05-.04.08-.28.6-.53,1.23-.74,1.91,0,.02,0,.03,0,.05-.06.21-.12.43-.18.65-.01.03-.02.06-.02.09-.06.23-.11.47-.16.71-.05.24-.1.49-.14.75-.09.55-.16,1.12-.21,1.72-.39,5.01-5.04,4.69-8.22,5.35-3.99.84-3.16-3.07-4.02-5.31-1.05-2.76-2.11-5.55-3.58-8.09-.97-1.68-1.4-3.11-1.18-4.39ZM427.15,67.5c-3.6,2.37-7.46,3.69-12.09,2.77,3.17-5.28,7.7-3.77,12.09-2.77ZM413.09,123.87c-4.37,3.25-8.56-1.47-9.1-3.74-1.84-7.72-.23-16.03-5.02-23.55.91-.1,1.82-.2,2.73-.3,3.93,5.98,7.29,12.47,11.97,17.8,3.69,4.19,2.83,7.26-.58,9.79ZM418.78,108.87c-.65-.69-1.29-1.38-1.93-2.08h0c-1.69-.71-2.33-2.05-2.26-3.8l.05.05s-.02-.03-.03-.04c-.47-.75-.94-1.49-1.42-2.25-.58-1.89-1.28-3.77-1.74-5.69-3.49-14.56-2.21-16.14,12.74-18.08,16.26-2.11,30-10.15,42.77-19.74,6.39-4.8,7.67-2.54,7.78,3.86.22,12.97-.45,25.67-5.84,37.9-6.81,15.47-36.73,26.96-50.11,9.87Z"/>
      <path class="cls-6" d="M359.81,433.77c-17.89-3.49-36.34-7.32-53.27,1.87-11.94,6.49-22.97,6.79-35.02,2.36-2.19-.81-4.49-2.83-6.89-.76,3.87,11.66,11.72,19.16,23.13,22.67,16.58,5.1,33.22,5.19,49.5-1.21,9.36-3.67,16.68-10.43,23.35-17.73,1.88-2.05,5.38-5.99-.8-7.2ZM299.7,457.23c-2.59-.03-4.4-1.25-4.14-4.17.19-2.14,1.49-3.46,3.64-3.91,2.78.59,3.49,2.83,3.63,5.09.11,1.81-1.31,3.01-3.13,2.99ZM313.76,458.71c-3.19.07-4.41-2.25-4.27-5.14.13-2.49,1.61-4.06,4.08-4.56,2.73.61,3.56,2.62,3.73,4.96.17,2.49-.78,4.68-3.54,4.74ZM327.93,454.49c-2.89-.55-4.55-2.31-4.45-5.43.07-2.21,1.27-4.06,3.46-4.11,3.47-.09,4.02,2.93,4.43,5.49.37,2.3-.91,3.73-3.44,4.05Z"/>
      <path class="cls-6" d="M217.03,443.5c-8.25-4.35-16.72-5.91-25.17-7.55-15.15-2.93-30.23-2.28-43.49,7.52,22.69,24.45,79.82,25.21,94.74-.33-8.77,1.03-18.78,4.22-26.08.36ZM186.69,451.13c-.22,1.58-.77,3.34-3.42,2.88-1.58-.62-3.39-1.56-3.19-4.01.18-2.33,1.67-3.61,3.95-3.33,2.54.31,2.94,2.43,2.66,4.46ZM197.71,457.16c-2.73.26-4.5-1.05-4.36-3.84.13-2.4,1.28-4.46,4.12-4.5,2.81-.04,2.49,2.42,2.92,3.33.36,3.01-.14,4.77-2.68,5.01ZM211.45,456.75c-3.29.19-4.46-1.7-4.91-4.07-.43-2.26.84-3.87,3.02-4.12,2.79-.33,4.04,1.67,4.51,4.07.45,2.34-.94,3.55-2.62,4.12Z"/>
      <path class="cls-12" d="M52.89,349.02c18.14-50.09,40.09-98.54,62.41-146.88,15.39-33.32,31.89-66.1,47.11-99.48,3.53-7.73,7.56-10.94,17.04-10.25,21.73,1.59,43.55,1.68,64.49-6.9,8.76-3.59,14.5-10.16,20.98-16.22,2.16-2.02,4.11-6.08,7.82-1.56,13.5,16.45,33.1,19.55,52.21,23.07,11.63,2.14,23.56,3.57,35.44.55,6.74-1.71,8.28,3.03,9.88,8.1,15.28,48.18,28.95,96.83,43.15,145.33,13.09,44.7,26.97,89.18,40.61,133.72,4.78,15.62,1.2,20.3-14.95,18-32.11-4.56-64.49-5.4-96.78-7.44-13.2-.83-26.47-.75-39.61-2.08-8.43-.86-10.75,3.3-10.71,10.08.04,6.91,1.21,13.82,1.25,20.73.03,5.9,2.28,13.31-7.21,14.8-9.47,1.48-20.87-3.91-22.61-11.71-1.79-8.01-2.47-16.29-3.32-24.48-.46-4.49-.64-9.74-6.63-8.63-5.43,1.01-3.46,6.25-2.96,9.99.88,6.53,2.01,13.03,3.03,19.54,1.27,8.14-5.44,10.48-10.35,14.01-5.22,3.74-11.02,6.66-17.54,4.85-3.1-.86-3.32-4.75-3.34-7.72-.05-11.25-.39-22.54.42-33.74.32-4.41-.56-7.69-2.83-11.04-1.03-2.1-2.93-2.52-4.99-2.47-29.39.72-58.58-2.89-87.87-4.17-23.42-1.02-46.81-2.24-70.26-1.92-1.93.03-3.88-.6-5.81-.98-4.36-.86-6-2.46-3.91-7.44,2.38-5.67,6.2-11.03,5.81-17.66ZM308.92,120.63c9.96-.87,19.18.72,26.68,8.01,3.08,2.22,6.11,6.34,10.19,2.88,2.76-2.34.21-5.63-1.28-8-11.36-18.07-48.04-17.64-59.13.58-1.47,2.42-2.62,4.83-.14,7.08,2.84,2.59,4.8.16,6.62-1.67,4.76-4.78,10.08-8.41,17.06-8.89ZM221.82,242.62c-2.52-5.99-8.29-6.52-13.2-6.31-7.98.33-11.05-1.97-10.82-10.42.14-5.24.41-12.45-7.94-13.6-4.27-2.46-8.67-2.71-13.36-1.14-9.63,3.22-12.77,1.51-13.86-8.59-.92-8.52-1.7-17.24.59-25.66,1.17-4.3.64-7.17-3.67-8.69-5.06-1.79-5.72,2.79-6.36,5.47-1.77,7.34-3.21,14.71-1.95,22.52,1.56,9.64,3.83,19.1,7.53,31.4-8.69-11.11-17.5-11.6-26.83-7.84-9.31,3.75-8.19,12.21-7.07,19.59,1.02,6.72-3.79,5.63-7.06,6.96-10.16,4.13-11.89,10.92-4.71,19.18,2.16,2.49,4.79,4.56,7.16,6.87,1.45,1.41,2.36,2.75,1.56,5.16-5.53,16.7-5.54,16.81,7.95,27.71,2.77,2.23,5.3,3.87,3.72,7.99-1.31,3.41-3.04,7.92,2.37,8.7,5.39.77,5.53-4.61,6.37-8.27.74-3.19.42-6.64,1.28-9.78,1.19-4.32,3.51-7.62,8.81-8.02,19.01-1.44,25.05,5.27,21.37,24.14-.31,1.61-1.1,3.18-1.15,4.78-.08,3.07,1.95,5.08,4.63,5.69,3.43.78,5.03-1.9,4.96-4.66-.2-7.56,4.72-8.97,10.63-10.44,12.83-3.2,17.81-9.03,19.21-21.72.98-8.8,8.38-10.39,13.59-8.35,10.88,4.26,20.84.94,31.19-.35,3.26-.41,6.74-1.65,9.75-.94,5.33,1.25,10.82,3,15.41,5.88,3.25,2.04-.56,6-.34,9.23.57,8.34,4.52,14.08,12.7,15.43,6.28,1.04,11.3,2.71,14.04,8.97.71,1.62,2.53,3.47,4.77,2.65,2.74-.99,2.52-3.61,2.26-5.94-.18-1.63-.59-3.24-.95-4.85-3.53-15.95-3.02-16.73,12.93-19.62,1.63-.29,3.28-.41,4.91-.72,16.37-3.06,17.44-2.43,20.85,13.21.54,2.46,1.31,4.48,4.01,4.99,2.4.45,5.57.34,5.63-2.4.17-6.98,5.79-7.07,10.03-9.02,7.41-3.41,13.95-8.1,11.09-17.26-2.03-6.48-1.74-10.66,3.81-15.05,3.21-2.54,4.91-6.89,6.18-11.12,4.25-14.1-1.72-23.7-15.43-24.49-9.99-.57-19.27-15.36-14.84-24.47,5.55-11.43,3.89-23.29,2.9-35.08-.31-3.76-2.09-8.27-7.36-7.76-6.6.64-3.25,5.9-3.82,9.33.22,13.54,1.52,27.52-14.08,34.63-.61.77-1.16,1.6-1.83,2.31-8.38,8.92-13.41,9.45-26.02,7.87-19.1-2.39-30.12-2.87-23.9,21.05,1.22,4.7-.34,6.41-4.53,7.66-7.78,2.33-14.73,6.21-18.54,13.8-2.44,4.86-.46,12.38-9.12,13.22-5.87.57-11.63,2.49-17.5,2.92-3.32.24-8.64-.32-7.29-5.5,3.41-13.06-3.12-22.22-10.7-31.24ZM262.25,200.06c13.04.68,30.3-13.46,31.19-25.56.82-11.18-12.85-23.41-26.78-23.98-12.23-.49-23.91,11.89-24.54,26-.57,12.82,8.05,22.91,20.13,23.53ZM230.86,108.78c-12.11-.01-20.46,4.75-23.82,14.01-1.3,3.59-3.32,8.65.8,10.6,3.81,1.8,4.54-3.62,6.11-6.21,8.57-14.1,24.37-14.46,33.01-.83,1.79,2.82,3.78,7.49,8.19,4.91,4.54-2.65,2.67-7.14.39-10.46-5.9-8.58-14.49-12.06-24.67-12.03Z"/>
      <path class="cls-10" d="M193.63,84.82c-16.69-1.43-33.74-.45-49.68-7.44-9.72-4.27-10.58-7.12-3.8-14.98,11.59-13.43,27.42-19.6,43.67-24.25,20.4-5.84,41.08-9.81,62.59-4.81,19.02,4.42,22.29,12.32,10.89,28.41-9.33,13.17-22.8,18.68-37.96,20.89-8.49,1.24-16.98,3.13-25.71,2.18Z"/>
      <path class="cls-10" d="M340.49,83.3c-17.69.44-33.18-4.21-48.47-9.71-8.16-2.94-12.67-8.11-13.19-17.6-.57-10.34,3.58-16.22,12.66-19.78,23.28-9.12,46.18-6.67,68.51,2.89,10.94,4.68,21.29,10.76,29.51,19.75,8.79,9.59,8.37,11.64-3.61,16.08-15.02,5.57-30.48,8.86-45.42,8.38Z"/>
      <path class="cls-10" d="M306.43,474.84c6.98-.91,14.23-1.08,21.04-2.89,18.96-5.04,35.72-13.79,45.29-32.07,2.01-3.84,4.5-3.36,7.25-2.79,8.81,1.82,17.19,4.9,24.27,10.61,13.33,10.77,13.06,32.42-.62,44.37-7.93,6.93-17.11,10.75-27.97,10.71-23.93-.1-45.1-8.44-64.91-21.01-2.11-1.34-4.5-2.9-4.35-6.92Z"/>
      <path class="cls-10" d="M413.18,100.75c-.59-1.9-1.28-3.77-1.74-5.7-3.49-14.56-2.21-16.14,12.74-18.08,16.26-2.11,30-10.14,42.76-19.74,6.39-4.8,7.67-2.54,7.78,3.86.23,12.97-.44,25.67-5.83,37.9-6.82,15.47-36.74,26.96-50.12,9.87-.64-.69-1.29-1.38-1.93-2.08,0,0,0-.01,0-.01.02-1.72-.47-3.15-2.26-3.79l.05.05c-.48-.76-.96-1.52-1.44-2.29Z"/>
      <path class="cls-10" d="M147.41,498.04c-13.86-.06-23.76-5.82-26.21-15.27-2.6-10.04,5.1-26.71,14.65-32.74,3.72-2.35,6.37-.62,9.03,1.17,16.36,11.05,33.33,20.29,53.97,19.55,1.88-.07,4.49-.07,4.91,2.3.52,2.99-2.02,4.81-4.1,6.32-15.57,11.33-32.64,18.58-52.25,18.66Z"/>
      <path class="cls-10" d="M61.18,79.28c0-.33-.04-.67.01-.99,1.01-5.82.06-13.92,3.52-16.88,4.7-4.03,8.8,4.24,13.68,6.26,10.53,4.36,21.2,7.17,32.68,6.31,2.46-.19,5.71-1.93,7.06,1.24,1.24,2.93-1.99,4.54-3.62,6.44-6.1,7.12-13.59,12.59-21.75,17.02-17.87,9.68-31.89.97-31.57-19.41Z"/>
      <path class="cls-10" d="M240.13,498.47c-18.8,1.38-18.39,1.38-18.47-17.23-.04-8.29,2.12-13.4,10.26-16.71,6.26-2.55,12.14-6.56,17.02-11.65,1.46-1.52,2.81-4.42,5.52-2.87,2.34,1.34,1.49,4.19,1.28,6.36-1.07,11,.79,21.83,2.93,32.42,1.54,7.6-.93,9.73-7.66,9.68-3.63-.03-7.26,0-10.89,0Z"/>
      <path class="cls-10" d="M265.13,473.27c0-.91-.07-1.58.01-2.23.57-4.43-2.11-10.55,1.83-12.91,3.74-2.24,6.7,4,10.6,5.46,1.21.45,2.27,1.33,3.43,1.94,11.45,6.07,15.19,14.02,12.32,26.49-1.76,7.65-8.65,4.15-13.11,5.55-5.46,1.71-10.29.03-12.78-6.07-2.47-6.01-1.48-12.33-2.29-18.23Z"/>
      <path class="cls-3" d="M110.56,44c.3-3.58-.2-6.62-2.74-8.56-5.22-4-2.43-6.45-.34-11.5,5.4-13.07,13.3-4.49,20.09-4.03,3.74.25,1.53,3.35,1.36,5.43-.47,5.8-2.32,11.9,3.09,16.64,1.88,1.64,1.35,3.53.29,5.31-1.01,1.69-1.89,3.63-3.34,4.85-3.84,3.21.59,11.4-5.67,11.62-3.76.13-7.45-4.98-11.57-6.86-8.74-4.01,1.57-9.15-1.18-12.89Z"/>
      <path class="cls-3" d="M426.86,31.75c3.35-.48,6.55-1.03,9.78-1.37,2.59-.27,6.53-5.53,7.39.54.56,3.98,4.44,10.96-4.5,12.34-8.12,1.25-14.22,4.76-14.95,14.09-.39,5-5.03,4.68-8.22,5.35-3.99.84-3.17-3.08-4.02-5.32-1.05-2.75-2.12-5.54-3.58-8.08-2.02-3.5-1.7-5.93,1.95-8.15,2.17-1.32,4.5-3.17,5.58-5.37,2.4-4.86,5.08-7.72,10.57-4.03Z"/>
      <path class="cls-12" d="M52.89,349.02c.39,6.63-3.43,12-5.81,17.66-2.09,4.98-.46,6.58,3.91,7.44,1.93.38,3.88,1.01,5.81.98,23.45-.32,46.84.9,70.26,1.92,29.3,1.28,58.49,4.89,87.87,4.17,2.06-.05,3.95.37,4.99,2.47-17.96-.45-35.92-.9-53.87-1.35-.69-.34-1.39-.69-2.08-1.04-37.78-1.39-75.56-2.85-113.35-4.09-8.13-.27-9.68-3.7-6.31-10.52,2.9-5.86,4.14-12.53,8.59-17.64Z"/>
      <path class="cls-3" d="M141.29,95.06c-.99,8.34-3.63,13.81-1.6,19.96.78,2.37-2.31,3.69-4.52,4.34-3.14.93-3.05-1.87-3.23-3.52-.77-7.05-11.31-12.3-3.8-20.94,1.48-1.7,1.01-6.35,4.77-4.03,2.89,1.79,8.29,1.19,8.37,4.19Z"/>
      <path class="cls-3" d="M401.69,96.28c3.93,5.99,7.29,12.47,11.98,17.8,3.69,4.19,2.82,7.26-.58,9.79-4.38,3.25-8.56-1.47-9.11-3.74-1.84-7.72-.23-16.03-5.02-23.54.91-.1,1.82-.21,2.73-.31Z"/>
      <path class="cls-10" d="M414.58,102.99c1.79.65,2.28,2.07,2.26,3.79-1.69-.7-2.33-2.04-2.26-3.79Z"/>
      <path class="cls-12" d="M163.96,381.27c.69.35,1.39.7,2.08,1.04-.7-.35-1.39-.69-2.08-1.04Z"/>
      <path class="cls-10" d="M413.18,100.75c.48.76.96,1.52,1.45,2.29-.48-.76-.96-1.52-1.45-2.29Z"/>
      <path class="cls-10" d="M416.84,106.79c.64.69,1.29,1.38,1.93,2.08-.64-.69-1.29-1.38-1.93-2.08Z"/>
      <path class="cls-2" d="M355.34,175.89c.57-3.42-2.77-8.69,3.82-9.33,5.27-.51,7.04,4,7.36,7.76.99,11.79,2.65,23.65-2.9,35.08-4.42,9.11,4.85,23.89,14.84,24.47,13.71.79,19.68,10.39,15.43,24.49-1.27,4.23-2.98,8.58-6.18,11.12-5.54,4.38-5.84,8.57-3.81,15.05,2.86,9.16-3.68,13.85-11.09,17.26-4.24,1.95-9.86,2.05-10.03,9.02-.07,2.74-3.24,2.85-5.63,2.4-2.69-.51-3.47-2.53-4.01-4.99-3.42-15.63-4.48-16.26-20.85-13.21-1.62.3-3.28.42-4.91.72-15.96,2.89-16.46,3.67-12.93,19.62.36,1.61.77,3.22.95,4.85.25,2.33.47,4.94-2.26,5.94-2.24.81-4.06-1.04-4.77-2.65-2.74-6.26-7.76-7.93-14.04-8.97-8.18-1.36-12.13-7.1-12.7-15.43-.22-3.24,3.59-7.19.34-9.23-4.58-2.88-10.07-4.63-15.41-5.88-3.01-.71-6.49.54-9.75.94-10.34,1.29-20.31,4.62-31.19.35-5.21-2.04-12.61-.46-13.59,8.35-1.41,12.68-6.38,18.52-19.21,21.72-5.91,1.47-10.83,2.88-10.63,10.44.07,2.76-1.52,5.44-4.96,4.66-2.69-.61-4.71-2.62-4.63-5.69.04-1.6.83-3.17,1.15-4.78,3.68-18.87-2.36-25.58-21.37-24.14-5.3.4-7.62,3.7-8.81,8.02-.86,3.14-.54,6.59-1.28,9.78-.85,3.65-.98,9.04-6.37,8.27-5.41-.78-3.68-5.29-2.37-8.7,1.58-4.12-.95-5.75-3.72-7.99-13.49-10.89-13.48-11-7.95-27.71.8-2.41-.11-3.75-1.56-5.16-2.37-2.31-5-4.38-7.16-6.87-7.18-8.26-5.45-15.05,4.71-19.18,3.27-1.33,8.08-.24,7.06-6.96-1.12-7.38-2.24-15.84,7.07-19.59,9.33-3.76,18.14-3.27,26.83,7.84-3.7-12.3-5.97-21.75-7.53-31.4-1.26-7.8.17-15.18,1.95-22.52.65-2.67,1.3-7.25,6.36-5.47,4.31,1.52,4.84,4.39,3.67,8.69-2.29,8.42-1.51,17.15-.59,25.66,1.09,10.1,4.23,11.81,13.86,8.59,4.69-1.57,9.08-1.32,13.36,1.14,1.16,1.6,2.27,3.24,3.49,4.78,5.03,6.35-1.5,18.25,5.73,20.65,6.91,2.29,15.36,1.83,22.73,4.9,7.58,9.02,14.11,18.18,10.71,31.24-1.35,5.18,3.97,5.74,7.29,5.5,5.87-.43,11.62-2.35,17.5-2.92,8.66-.84,6.68-8.36,9.12-13.22,3.81-7.59,10.76-11.46,18.54-13.8,4.19-1.26,5.75-2.96,4.53-7.66-6.22-23.92,4.8-23.44,23.9-21.05,12.61,1.58,17.64,1.04,26.02-7.87.67-.71,1.22-1.54,1.83-2.31,16.51-5.37,21.22-16.95,14.07-34.63ZM315.2,254.17c.78.49,1.56.98,2.34,1.47,2.34,1.65,6.01,2.96,3.82,6.67-1.6,2.72-4.75,1.74-7.25.85-2.8-1-5.46-2.36-8.22-3.48-6.74-2.72-13.49-2.79-20.31-.19-6.23,2.37-10.37,6.53-9.36,13.42,1.08,7.34,6.69,8.56,13.33,8.91,6.66.35,13.78-2.69,20.01,2.01-.66,4.62-4.85,3.56-7.64,4.77-6.04,2.63-11.23,6.04-10.43,13.78.47,4.59,3.77,5.81,7.8,5.68,5.18-.17,4.89-3.71,3.7-6.98-2.74-7.49.83-9.27,7.47-9.63,4.22-.23,8.33-2.19,12.55-2.54,12.66-1.04,25.45-4.23,37.89,1.35.8,3.78,2.8,6.32,6.91,4.83,3.93-1.43,6.54-4.53,7.16-8.81.55-3.78-1.33-6.66-4.71-7.85-2.73-.96-5.82-.93-8.76-1.18-3.07-.26-6.66-.51-6.73-4.3-.07-4.48,3.97-3.43,6.74-3.48,3.3-.05,6.7.81,9.88.26,8.29-1.43,12.47-7.35,13.51-15.12.56-4.18,2.89-10.19-2.99-12.22-6.23-2.15-10.34,3.03-14.27,6.96-2.35,2.36-4.19,5.76-8.11,3.33-3.59-2.23-3.01-5.71-1.21-8.76,3.44-5.8,2.21-11.5.1-17.21-1.55-4.2-2.34-10.31-8.26-9.29-4.99.86-8.33,5.63-8.84,10.93-.53,5.57-.11,11.24-.1,16.86,0,2.49,1.42,5.71-2.23,6.66-3.04.79-4.85-1.58-6.27-3.89-2.77-4.51-5.06-9.35-8.21-13.56-5.22-6.98-13.02-7.14-20.78-6.52-4,.32-5.57,3.34-5.94,6.87-.85,8.23,4.33,12.7,10.63,16.34.85.49,1.84.74,2.76,1.1.97,1.43,2.34,2.05,4.05,1.98l-.02-.02ZM180.38,255.72c-.12-1.35-.25-2.69-.38-4.04-.06-.62.08-1.18.41-1.7,1.54-.85,1.95-2.24,1.86-3.87,3.1-6.3,5.14-12.84,4.43-19.98-.26-2.62-.17-5.6-2.91-6.94-3.23-1.57-5.71.71-7.9,2.59-7.2,6.18-10.65,14.02-10.15,23.61.15,2.8.95,6.34-3.64,6.67-3.69.27-5.29-2.2-6.31-5.16-1.92-5.59-3.41-11.35-5.67-16.8-1.89-4.57-5.6-5.99-10.55-4.33-4.76,1.6-6.94,4.85-6.88,9.62.07,4.94,2.92,8.53,6.16,11.99,2.6,2.78,6.98,6.08,4.28,9.96-3.41,4.93-6.77-.48-10.03-1.88-1.51-.65-2.88-1.61-4.39-2.26-3.4-1.45-6.76-.9-9.03,1.84-2.66,3.22-.63,6.24,1.73,8.73,4.92,5.19,10.14,9.89,18.05,5.94,3.61-1.8,6.99-1.21,10.43.31,1.69,6.01-1.77,7.49-6.77,8-6.02.61-11.96,2.03-15.42,7.56-3.44,5.51.05,9.32,4.21,12.5,2.47,1.89,5,.94,5.17-1.83.65-11.16,7.8-10.09,15.32-8.66l.82.3.87-.05c9.06,3.79,18.66.94,27.92,2.28,3.66,2.42,4.87,5.73,4.47,10.11-.25,2.68-2.03,6.58,1.46,7.93,3.54,1.37,6.87-.93,9.81-3.25,5.17-4.06,5.35-9.43,4.29-15.19.12-6.53,6.54-6.88,9.96-10.17,11.98-7.14,14.04-11.27,10.5-21.05-5.21-14.4-16.88-16.7-32.02-6.33-3.41,1.05-5.87,4.77-10.07,3.62l-.06-.07Z"/>
      <path class="cls-11" d="M262.25,200.06c-12.08-.63-20.7-10.71-20.13-23.53.63-14.11,12.31-26.49,24.54-26,13.93.56,27.59,12.8,26.78,23.98-.88,12.09-18.14,26.23-31.19,25.55ZM251.7,179.68c-.31,7.6,3.12,11.89,10.94,12.05,9.69.2,21.15-9.83,21.24-18.46.09-8.01-5.63-12.87-15.25-12.95-11.19-.09-16.98,6.53-16.94,19.36Z"/>
      <path class="cls-8" d="M308.92,120.63c-6.98.48-12.3,4.11-17.06,8.89-1.82,1.83-3.78,4.26-6.62,1.67-2.47-2.26-1.33-4.67.14-7.08,11.09-18.22,47.76-18.65,59.13-.58,1.49,2.37,4.04,5.66,1.28,8-4.07,3.46-7.1-.66-10.19-2.88-5.25-10.23-12.9-12.53-26.68-8.01Z"/>
      <path class="cls-8" d="M230.86,108.78c10.18-.03,18.77,3.45,24.67,12.03,2.28,3.32,4.15,7.81-.39,10.46-4.41,2.58-6.4-2.09-8.19-4.91-8.64-13.63-24.44-13.27-33.01.83-1.57,2.59-2.3,8.02-6.11,6.21-4.12-1.95-2.1-7.01-.8-10.6,3.36-9.27,11.72-14.03,23.83-14.01Z"/>
      <path class="cls-12" d="M221.82,242.62c-7.36-3.07-15.82-2.6-22.73-4.9-7.24-2.4-.7-14.3-5.73-20.65-1.22-1.55-2.33-3.19-3.49-4.78,8.35,1.14,8.08,8.35,7.93,13.6-.23,8.45,2.84,10.75,10.82,10.42,4.91-.2,10.68.33,13.2,6.31Z"/>
      <path class="cls-12" d="M355.34,175.89c7.15,17.68,2.44,29.26-14.08,34.63,15.59-7.11,14.29-21.09,14.08-34.63Z"/>
      <path class="cls-12" d="M308.92,120.63c13.78-4.52,21.43-2.22,26.68,8.01-7.51-7.29-16.73-8.88-26.68-8.01Z"/>
      <path d="M327.93,454.49c-2.89-.55-4.55-2.31-4.45-5.43.07-2.21,1.27-4.06,3.46-4.11,3.47-.09,4.02,2.93,4.43,5.49.37,2.3-.91,3.73-3.44,4.05Z"/>
      <path class="cls-4" d="M313.76,458.71c-3.19.07-4.41-2.25-4.27-5.14.13-2.49,1.61-4.06,4.08-4.56,2.73.61,3.56,2.62,3.73,4.96.17,2.49-.78,4.68-3.54,4.74Z"/>
      <path d="M302.83,454.24c.11,1.81-1.31,3.01-3.13,2.99-2.59-.03-4.4-1.25-4.14-4.17.19-2.14,1.49-3.46,3.64-3.91,2.78.59,3.49,2.83,3.63,5.09Z"/>
      <path d="M211.45,456.75c-3.29.19-4.46-1.7-4.91-4.07-.43-2.26.84-3.87,3.02-4.12,2.79-.33,4.04,1.67,4.51,4.07.45,2.34-.94,3.55-2.62,4.12Z"/>
      <path class="cls-7" d="M197.71,457.16c-2.73.26-4.5-1.05-4.36-3.84.13-2.4,1.28-4.46,4.12-4.5,2.81-.04,2.49,2.42,2.92,3.33.36,3.01-.14,4.77-2.68,5.01Z"/>
      <path class="cls-9" d="M186.69,451.13c-.22,1.58-.77,3.34-3.42,2.88-1.58-.62-3.39-1.56-3.19-4.01.18-2.33,1.67-3.61,3.95-3.33,2.54.31,2.94,2.43,2.66,4.46Z"/>
      <path class="cls-10" d="M311.17,252.21c-.92-.36-1.91-.61-2.76-1.1-6.3-3.65-11.47-8.12-10.63-16.34.36-3.53,1.93-6.55,5.94-6.87,7.76-.62,15.56-.46,20.78,6.52,3.15,4.21,5.44,9.06,8.21,13.56,1.42,2.31,3.23,4.68,6.27,3.89,3.65-.95,2.23-4.17,2.23-6.66,0-5.63-.43-11.29.1-16.86.51-5.3,3.85-10.06,8.84-10.93,5.92-1.02,6.71,5.09,8.26,9.29,2.11,5.71,3.33,11.41-.1,17.21-1.81,3.05-2.38,6.53,1.21,8.76,3.92,2.43,5.76-.97,8.11-3.33,3.93-3.94,8.04-9.12,14.27-6.96,5.87,2.03,3.55,8.05,2.99,12.22-1.04,7.76-5.21,13.69-13.51,15.12-3.18.55-6.58-.31-9.88-.26-2.77.04-6.82-1-6.74,3.48.06,3.79,3.66,4.03,6.73,4.3,2.94.25,6.04.22,8.76,1.18,3.38,1.19,5.26,4.07,4.71,7.85-.63,4.27-3.23,7.38-7.16,8.81-4.11,1.5-6.11-1.04-6.91-4.83.18-2.84-1.33-3.9-3.96-4.62-7.44-2.04-14.77-1.41-22.39-1.05-8.2.39-16.99,6.96-24.98-.76-6.23-4.7-13.35-1.66-20.01-2.01-6.64-.35-12.25-1.57-13.33-8.91-1.01-6.89,3.13-11.05,9.36-13.42,6.82-2.6,13.58-2.53,20.31.19,2.76,1.11,5.42,2.48,8.22,3.48,2.5.89,5.65,1.87,7.25-.85,2.19-3.72-1.48-5.02-3.82-6.67-.78-.49-1.56-.98-2.34-1.47,0,0,.02.02.02.02-.73-1.92-2.23-2.28-4.05-1.98Z"/>
      <path class="cls-10" d="M180.41,249.98c-.34.52-.47,1.09-.41,1.7-1.45,1.49-1.91,2.89.38,4.04l.06.07c5.21,4.75,5.65,4.6,10.08-3.62,15.14-10.37,26.81-8.06,32.02,6.33,3.54,9.79,1.48,13.92-10.5,21.05-7.21,1.68-14.46.59-21.7.28-6.94-1.75-2.44,8.29-8.1,7.86-9.7-4.3-19.91-.84-29.82-1.97-5.91-1.25-12.08-4.75-16.93,2.35-1.13,1.66-.31,5.19-3.9,4.61-.78-.13-1.76-1.1-2.04-1.9-1.12-3.26,1.73-4.64,3.46-6.42,4.04-4.18,10.3-1.72,14.71-4.68,3.6-2.42,11.14-4.29,2.19-9.68-3.43-1.52-6.82-2.11-10.43-.31-7.9,3.95-13.12-.75-18.05-5.94-2.36-2.49-4.39-5.52-1.73-8.73,2.26-2.74,5.63-3.29,9.03-1.84,1.51.65,2.89,1.61,4.39,2.26,3.27,1.4,6.62,6.81,10.03,1.88,2.69-3.89-1.68-7.19-4.28-9.96-3.24-3.46-6.1-7.04-6.16-11.99-.06-4.77,2.11-8.02,6.88-9.62,4.94-1.66,8.65-.24,10.55,4.33,2.26,5.45,3.74,11.21,5.67,16.8,1.02,2.95,2.62,5.42,6.31,5.16,4.59-.33,3.79-3.87,3.64-6.67-.5-9.58,2.94-17.43,10.15-23.61,2.19-1.88,4.68-4.17,7.9-2.59,2.75,1.34,2.65,4.32,2.91,6.94.71,7.14-1.34,13.68-4.43,19.98-1.49.87-2.06,2.19-1.86,3.87Z"/>
      <path class="cls-10" d="M309.55,283.83c7.99,7.71,16.78,1.14,24.98.76,7.62-.36,14.95-1,22.39,1.05,2.63.72,4.14,1.79,3.96,4.62-12.44-5.58-25.23-2.39-37.89-1.35-4.23.35-8.33,2.31-12.55,2.54-6.64.36-10.21,2.14-7.47,9.63,1.2,3.27,1.48,6.81-3.7,6.98-4.03.13-7.33-1.08-7.8-5.68-.8-7.73,4.39-11.15,10.43-13.78,2.8-1.22,6.98-.15,7.64-4.77Z"/>
      <path class="cls-10" d="M182.23,287.71c5.66.43,1.16-9.61,8.1-7.86-2.25,10.61,7.94,6.45,11.74,9.89,1.06,5.77.87,11.13-4.29,15.19-2.94,2.31-6.28,4.61-9.81,3.25-3.48-1.35-1.7-5.25-1.46-7.93.4-4.38-.81-7.7-4.47-10.12.05-.79.11-1.58.16-2.37l.03-.04Z"/>
      <path class="cls-10" d="M149.91,270.02c8.95,5.39,1.41,7.26-2.19,9.68-4.41,2.96-10.67.5-14.71,4.68-1.73,1.79-4.58,3.16-3.46,6.42.27.8,1.26,1.77,2.04,1.9,3.59.58,2.77-2.95,3.9-4.61,4.84-7.1,11.01-3.61,16.93-2.35,0,.62.01,1.24.01,1.86-7.53-1.42-14.67-2.5-15.32,8.66-.16,2.77-2.7,3.72-5.17,1.83-4.16-3.18-7.65-6.99-4.21-12.5,3.45-5.53,9.4-6.95,15.42-7.56,5-.51,8.45-1.99,6.77-8Z"/>
      <path d="M202.07,289.73c-3.79-3.44-13.98.72-11.74-9.89,7.24.31,14.48,1.39,21.7-.28-3.42,3.29-9.84,3.65-9.96,10.17Z"/>
      <path class="cls-10" d="M152.42,287.59c0-.62,0-1.24-.01-1.86,9.91,1.13,20.12-2.33,29.82,1.97l-.03.04c-9.36.03-18.72.07-28.08.1l-.87.05-.82-.3Z"/>
      <path class="cls-10" d="M154.12,287.85c9.36-.03,18.72-.07,28.08-.1-.05.79-.11,1.58-.16,2.37-9.26-1.34-18.86,1.52-27.92-2.28Z"/>
      <path d="M190.51,252.17c-4.43,8.21-4.87,8.37-10.08,3.62,4.21,1.15,6.66-2.57,10.08-3.62Z"/>
      <path d="M180.41,249.98c-.21-1.69.36-3,1.86-3.87.09,1.63-.32,3.02-1.86,3.87Z"/>
      <path d="M180.38,255.72c-2.28-1.15-1.82-2.54-.38-4.04.12,1.34.25,2.69.38,4.04Z"/>
      <path class="cls-10" d="M311.17,252.21c1.82-.3,3.31.06,4.05,1.98-1.71.07-3.08-.54-4.05-1.98Z"/>
      <path class="cls-10" d="M315.2,254.17c.78.49,1.56.98,2.34,1.47-.78-.49-1.56-.98-2.34-1.47Z"/>
      <path class="cls-1" d="M251.71,179.67c-.05-12.82,5.73-19.44,16.93-19.35,9.61.08,15.34,4.93,15.25,12.95-.1,8.63-11.55,18.66-21.24,18.46-7.82-.16-11.25-4.46-10.93-12.06Z"/>
    </g>
  </g>
</svg>