<?xml version="1.0" encoding="UTF-8"?>
<svg id="Layer_1" data-name="Layer 1" xmlns="http://www.w3.org/2000/svg" viewBox="0 0 512 512">
  <defs>
    <style>
      .cls-1 {
        fill: #212121;
      }

      .cls-2 {
        fill: #fce200;
      }

      .cls-3 {
        fill: #e6007e;
      }
    </style>
  </defs>
  <path class="cls-1" d="M106.33,42.62c1.1,2.09,3.19,3.96,2.42,6.59-2.86,13.19-17.91,16.7-27.36,23.84,1.21,5.38,3.74,10.22,5.05,15.49,4.72-.33,8.9-3.96,13.52-5.05,19.34-7.47,40.66-10.99,62.08-8.13,29.23.55,53.84,21.21,66.59,46.7,1.76-.55,3.08-3.08,3.96-4.51-6.15-3.63-5.38-11.87-5.71-18.35,1.43-4.29,4.51-8.35,9.45-8.68,5.27-.77,11.21,1.76,14.17,6.37l1.76,3.08c3.63-2.2,8.68-2.64,12.42-.44,2.42,2.09,4.72,4.72,4.51,8.13-.22,2.75-.44,5.38-1.87,7.69,2.42,1.1,5.38.66,7.36,2.86.88,2.42,3.74,4.4,3.19,7.14-1.65,4.18-5.71,7.91-9.78,10,.44,1.1,1.98,1.76,2.97,2.64,2.31,3.85,4.51,9.01,2.09,13.41-.99,4.29-5.6,4.51-9.01,5.27-8.79.66-15.27-7.03-20.11-13.08-1.21.66-4.18,1.54-2.64,3.52,8.35,18.68,8.46,41.64,4.94,62.74-7.8,53.62-62.63,88.89-111.09,99.55-24.72,4.07-49.45-4.83-63.29-25.27-1.65-1.98-2.2-4.51-3.96-6.26l-6.15,6.26c4.18,5.27,6.48,12.53,4.29,19.12-1.32,5.6-7.36,8.79-12.42,9.56-4.29-.44-6.92-4.18-8.68-7.69.22-.77-.33-1.21-.55-1.87-4.83,5.93-11.54,10.44-18.9,10.33-2.86-.44-6.26-1.76-7.14-5.05-2.09-5.38.88-10.88,3.19-15.16l-.55-.55-.22.33c-3.96-1.21-7.91-3.52-10.33-7.36-.33-2.75-1.54-5.16,0-7.69,1.65-2.86,4.94-3.74,7.14-6.04-2.53-3.96-3.96-9.67-1.87-14.17,1.43-3.85,5.6-5.6,9.01-6.81,6.15-.33,12.2,1.43,15.16,6.81h1.1c1.65-3.52,7.8-5.93,6.81-10-12.31-21.98-17.25-48.13-17.14-75.27-.22-19.34,7.14-36.59,15.93-52.3l-9.78-6.26c-5.71,10.33-11.43,22.42-22.31,28.9-3.3.77-7.69,1.76-10.99.22-6.48-6.81-2.53-16.7-.88-24.39,4.72-11.98,10.22-23.4,17.58-34.17,3.74-3.63,7.69-7.03,13.41-5.6,10.55,3.3,20.11,10.33,30.44,14.94-.88-9.12-6.15-16.92-8.68-25.71-1.32-1.76-2.86-3.74-1.87-6.04,10.44-8.46,21.87-15.27,34.17-19.67,5.82-1.1,13.19-3.52,18.57.11h0Z"/>
  <path class="cls-2" d="M101.05,49.1c-2.86,11.1-15.27,12.2-22.53,19.12-1.98,0-2.97-.11-4.51.77-2.42,1.98-.11,4.72.22,6.92,1.76,6.37,4.72,12.31,5.82,18.79,1.87,2.64,5.16.88,7.91,1.32,19.01-7.69,37.36-15.49,59.88-14.06,31.21-2.53,60.1,15.16,72.74,42.74,1.21,2.86,1.65,6.81,4.72,8.13l2.64-.44c5.05-4.83,10.33-9.34,14.17-14.94,0-1.1,0-2.31-1.1-2.97-2.2.55-3.3-1.87-4.94-2.86-1.98-4.4-3.19-9.45-1.1-14.17,1.43,0,3.52-1.1,5.05,0,2.86,1.32,4.83,4.51,6.04,7.14,2.2,3.96-3.52,9.89,1.87,12.53,2.09-.44,4.4-.77,5.49-3.08-.22-3.96,1.54-7.8,4.51-9.78,1.76-.88,3.52,1.76,3.96,3.19,1.1,7.36-5.27,12.86-10.55,16.48-.88,1.76.22,3.63,1.87,4.51,5.93.11,9.12-7.58,15.16-6.37,1.21,1.21,2.64,3.41.77,5.05-3.41,2.97-7.58,6.37-12.09,4.18-2.31-.33-4.18,1.21-4.29,3.41,1.87,4.72,8.68,3.63,11.87,7.14,1.32,2.31,3.08,5.16,1.65,7.91-.66,1.21-2.31,2.09-3.74,1.32-5.82-3.41-11.98-8.35-14.17-14.94-6.7-5.49-8.35,5.93-14.06,6.92-2.42.99-1.1,2.97-1.1,4.72,12.2,22.96,8.57,51.53,2.09,76.37-9.89,31.1-40.11,56.04-69,68.45-21.54,9.78-49.45,17.14-71.09,3.52-9.56-6.15-16.48-15.16-20.99-24.72-1.87-1.54-3.63-3.52-6.04-3.41l-2.2.55c-3.41,4.4-6.81,9.23-11.32,13.08-.66,1.32-2.31,2.64-1.32,4.4,4.18,3.08,6.37,8.57,6.04,13.63-.88,1.98-1.1,4.72-3.63,5.6-2.64.77-2.64-2.64-3.41-4.29-1.21-4.07-1.98-8.24-2.42-12.64-1.98-.99-4.07-2.42-6.37-1.87-1.98,1.87-1.65,3.74-2.09,6.37-2.64,6.15-7.25,13.41-14.94,13.63-2.86-6.15,2.64-11.54,6.59-15.71,2.09-1.98,6.92-3.52,6.37-7.14-1.76-1.32-3.74-2.86-6.04-1.87-2.97,1.98-5.49,4.72-9.23,4.72-2.64-.22-4.94-1.65-6.37-3.96-1.43-3.19,1.98-4.07,3.74-5.82,3.96-.77,10.44,2.2,11.54-3.63-1.1-2.86-4.72-3.08-7.36-3.96-2.2-2.75-3.41-6.15-2.64-9.78.55-1.32,1.43-2.2,2.64-2.86,6.26-1.1,8.57,5.27,11.32,9.23,1.54,1.76,3.52,1.1,5.27.44.99-.99,2.97-1.43,2.97-3.08,3.85-4.61,9.56-9.12,12.09-14.17-15.6-29.01-23.62-64.5-15.71-99,3.19-10.99,7.91-21.32,14.17-30.99v-2.09l-15.49-10c-.88-2.31-3.52-2.42-5.82-2.64-3.74,4.29-5.38,9.23-7.58,14.39-4.07,6.59-8.35,13.19-13.84,18.9-1.21-.44-2.2.99-3.74.44-3.85-6.37.22-14.06,1.54-20.66,4.18-10.22,8.79-20.11,14.94-29.45,1.21-1.54,3.41-2.53,5.27-2.09,1.32.55,2.75.88,4.29,1.32,11.1,6.26,22.31,12.2,33.62,17.8,2.31-.11,4.51-1.54,5.82-3.96-3.19-13.08-7.91-25.27-12.75-37.58,10.44-7.47,22.2-13.3,35.05-15.71.99.33,2.97.33,3.85,1.54h0Z"/>
  <path class="cls-1" d="M200.6,160.74c.11,3.19,5.49,6.48,1.32,9.23-1.65.66-3.41,2.31-5.05.99-1.76-.77-1.21-2.64-2.09-3.96-13.08-19.01-34.61-28.57-57.8-25.16-15.49,2.97-30.33,12.97-36.59,28.35-3.63,15.38-1.76,32.85,4.51,46.7l-.22.33c4.29,10.66,10.55,20.88,19.67,29.34,1.54,3.08-2.53,3.63-3.96,5.05l-2.64-.22c-10.88-10.77-17.91-22.96-22.31-36.37l-.88-.44.55-1.1c-4.61-17.91-8.13-40.55,5.05-55.71,13.73-19.12,40-27.69,62.3-21.98,14.83,3.85,28.35,12.2,38.13,24.94h0Z"/>
  <path class="cls-1" d="M289.93,203.81c-1.65,4.83-7.47,5.38-10.55,9.56,8.46,2.31,14.39,11.1,17.03,18.79,2.09,8.13.22,16.59-5.6,22.31-4.51,6.26-11.65,7.91-18.02,7.69-4.07-1.43-8.24-2.42-12.2-4.18-.99,4.51,6.04,10.33-.22,13.3-1.43.44-3.3.44-4.29-1.1-6.26-14.5-2.31-31.65,4.83-44.61,3.96-8.9,13.19-16.92,21.43-21.98-.33-1.32,1.32-1.43,1.87-2.09,1.98.77,5.49-.77,5.71,2.31h0Z"/>
  <path class="cls-1" d="M209.28,221.94c2.2,5.27,3.63,12.75.77,18.02-1.87,3.85-5.71,8.46-10.55,7.91-4.61,1.21-6.81-3.3-9.45-6.04-3.85-8.02-5.27-18.24-.55-26.26,2.64-3.08,6.7-2.97,10.55-2.09,3.96.99,7.14,5.05,9.23,8.46h0Z"/>
  <path class="cls-1" d="M497.39,218.76c5.05,1.1,9.45,1.54,14.06,3.41l.55,1.1c-2.42.66-4.07-1.54-6.37-1.87-30-5.38-58.57-.44-85.38,10-48.57,16.04-93.29,61.09-112.63,108.45-10.66,20.66-17.58,43.18-21.54,66.15-2.75,7.36-2.42,15.93-5.05,23.4.33,11.1-3.63,20-2.64,30.77-.55,3.63,0,7.47.55,10.99-1.65.66-1.43-.99-2.09-1.76.33-9.56-3.52-17.8-4.51-27.14-1.65-11.43-4.83-21.32-7.58-32.3-7.58-20.88-15.16-43.84-36.04-57.25-.33-.66.55-.88.77-1.32,7.47,6.26,16.15,12.64,20.44,21.54,6.92,11.87,12.2,23.18,16.04,36.26,4.4,15.16,7.14,30.55,10.77,45.38.77-2.86.77-5.93,1.1-8.9.33-12.53,4.29-23.73,5.71-36.37,5.49-35.16,19.89-67.25,37.14-97.9,20.88-34.28,54.72-63.29,90.87-78.01,20.33-9.23,43.29-14.39,65.93-15.71,6.81,1.54,12.97-.66,19.89,1.1h0Z"/>
  <path class="cls-3" d="M289.06,234.47c1.32,5.38.33,11.21-3.08,15.16-2.75,3.74-6.92,5.71-11.1,5.6-4.94-1.65-10-2.97-13.84-6.59,1.21-11.43,5.93-21.54,13.19-30.22,7.25,2.31,12.2,9.56,14.83,16.04h0Z"/>
  <path class="cls-1" d="M175.88,241.83c3.19,6.92,4.4,15.05,0,21.76-2.75,2.97-6.15,4.29-10.33,3.96-3.85-.22-7.03-3.08-9.45-5.71-4.18-9.23-7.03-19.56-.55-28.68,3.19-3.63,8.46-2.09,12.42-1.32,3.74,2.42,5.49,6.59,7.91,10h0Z"/>
  <path class="cls-1" d="M224.45,285.89c-3.19,5.16-9.23,9.23-13.84,12.75-9.67,7.14-20.66,10.11-32.3,10.55h-2.64c-.11-.66,0-1.54.77-1.65,18.79.99,34.5-8.9,46.92-22.31.88-.33.88.22,1.1.66h0Z"/>
  <path class="cls-1" d="M225.76,303.03c-8.46,8.79-19.12,13.19-30.44,15.49-.88.11-2.31-.11-2.97-.77v-.77c11.98-.99,23.51-5.82,31.86-15.27h1.54v1.32Z"/>
  <path class="cls-1" d="M231.04,314.79c-1.54,4.61-6.81,7.91-10.77,10.55-4.18,3.08-9.34,3.52-13.95,5.05-.33-.33-.77-.33-.99-.77-.33-.66.33-.99.77-1.1,9.67-.55,17.8-6.15,23.84-13.63h1.1v-.11Z"/>
  <path class="cls-1" d="M231.26,330.39c-5.05,4.51-9.56,12.2-17.47,9.78v-.77c8.35,1.65,12.53-6.59,17.8-11.43,1.43.88-.55,1.65-.33,2.42h0Z"/>
</svg>