<?xml version="1.0" encoding="UTF-8"?>
<svg id="Layer_1" data-name="Layer 1" xmlns="http://www.w3.org/2000/svg" viewBox="0 0 512 512">
  <defs>
    <style>
      .cls-1 {
        fill: #b68400;
      }

      .cls-2 {
        fill: #4a8b2c;
      }

      .cls-3 {
        fill: #ce0e2d;
      }

      .cls-4 {
        fill: #00a0df;
      }
    </style>
  </defs>
  <g>
    <path class="cls-4" d="M72.88,135.95l-1.32-2.86-1.1,2.86c-3.62,9.45-9.01,16.8-14.28,24.05-2.97,4.06-6.04,8.35-8.79,12.96l-1.32,2.2,2.53-.22c1.1-.11,2.2-.11,3.51.11,2.2.22,4.39.88,6.59,1.43,1.98.55,3.84.99,5.49,1.21,1.87.22,3.29.11,4.5-.44l.88-.33-.11-.99c-.22-3.08.77-9.12,1.87-15.6,1.76-9.88,3.51-20.21,1.54-24.38Z"/>
    <path class="cls-3" d="M162.39,139.14c44.92-14.94,69.74-50.41,72.38-55.68,1.21-2.53.22-5.05-2.53-5.71-10.1-2.42-40.09-5.71-71.83,1.87-14.72,3.51-29,9.01-42.18,16.47-12.85,7.36-24.71,16.47-34.82,27.24l-1.1,1.1,1.21.88c13.29,9.34,27.68,15.05,42.51,16.8,12.3,1.54,24.71.88,36.35-2.97Z"/>
    <path class="cls-4" d="M72.11,118.49c1.1-.55.99-3.4,1.1-4.39.22-1.98.22-3.95.22-5.93-.11-3.4-.55-6.7-1.1-10.1-.33-1.87-.55-3.62-.77-5.38-.33-2.75-.77-5.93-2.2-9.23-.11-.33-.33-.77-.44-1.21-.44-1.43-.99-3.19-2.53-4.06l-.22-.11-.66-.11c-3.08-.33-12.96,4.28-16.15,9.01-1.65,2.42-1.32,4.17-.66,5.27,1.87,3.62,3.73,6.7,5.71,9.34,2.31,3.08,4.72,5.93,7.25,8.57.11.22.99.88,1.98,1.87,1.43,1.32,6.15,7.69,8.46,6.48Z"/>
    <path class="cls-3" d="M17.3,108.17l-.33,1.76c-2.09,12.3-4.83,27.46-7.03,39.65-1.76,9.78-3.19,17.68-3.62,20.54l-.77,4.94,3.08-3.95c6.7-8.57,36.13-29.87,48.33-39.1,0,0-25.81-14.72-38-23.06l-1.65-.77Z"/>
    <path class="cls-1" d="M403.15,96.19l-.66.55c-18.67,16.37-53.27,24.27-88.2,20.1-29.11-3.51-53.49-14.94-67-31.3l-.99-1.21-.99,1.21c-27.46,33.83-58.65,72.27-125.32,64.25-1.21-.11-4.28-.55-4.28-.55l-.44.66c-12.85,18.23-24.6,36.9-27.9,64.69-10.87,92.15,48.77,159.37,163.76,184.41-1.1,10.1.88,18.89,2.86,27.46,1.65,7.25,3.29,14.06,2.53,20.87-3.95.77-8.02,1.32-12.08,1.87-18.23,2.42-37.12,4.94-41.19,26.36l-.11.77.66.55c6.04,4.61,13.73,7.58,22.85,8.57,21.2,2.53,44.48-5.49,55.58-14.39l.55-.44-.11-.77c-.44-3.19-1.43-7.03-2.42-11.53-1.87-7.91-4.06-16.91-4.28-25.37l-.11-3.62c-.44-8.9-1.1-22.41,4.28-27.46,1.54-1.54,3.62-2.2,6.15-2.2.11,4.94.22,9.99.22,15.16.22,18.23.44,37.12,5.27,52.17l.22.66.55.22c2.75,1.1,5.82,2.2,9.01,3.51,14.28,5.71,32.18,12.74,49.75,14.83l.55.11c5.6.66,27.13,1.32,30.86-7.25,1.98-4.61,1.76-9.12-.55-13.51-8.79-16.15-43.93-25.26-54.7-27.24-1.32-8.68-3.19-17.02-5.05-25.04-1.1-4.94-2.2-9.78-3.19-14.83,35.04-2.64,63.81-6.15,86.88-23.28,24.05-17.9,55.03-53.38,62.93-94.35,15.6-80.4-11.75-157.72-64.91-183.86l-.99-.77ZM349.11,193.62c-.44.99-1.43,1.76-2.42,2.09-1.1.44-2.31.55-3.4.33-.99-.22-1.76-.88-1.98-1.76-.11-.33-.11-.66-.11-.99,0-1.32.99-2.2,1.87-3.08.77-.66,1.87-.99,2.86-.88,2.2.11,4.06,1.87,3.19,4.28ZM341.2,175.16c.77-.66,1.87-.99,2.86-.88,2.2.11,4.06,1.87,3.19,4.28-.44.99-1.43,1.76-2.42,2.09-1.1.44-2.31.55-3.4.33-.99-.22-1.76-.88-1.98-1.76-.11-.33-.11-.66-.11-.99,0-1.43.88-2.31,1.87-3.08ZM332.74,199.55c-.44.99-1.43,1.76-2.42,2.09-1.1.44-2.31.55-3.4.33-.99-.22-1.76-.88-1.98-1.76-.11-.33-.11-.66-.11-.99,0-1.32.99-2.2,1.87-3.08.77-.66,1.87-.99,2.86-.88,2.2.11,4.06,1.87,3.19,4.28ZM328.57,166.16c.77-.66,1.87-.99,2.86-.88,2.2.11,4.06,1.87,3.19,4.28-.44.99-1.43,1.76-2.42,2.09-1.1.44-2.31.55-3.4.33-.99-.22-1.76-.88-1.98-1.76-.11-.33-.11-.66-.11-.99,0-1.32.88-2.2,1.87-3.08ZM325.16,182.96c.77-.66,1.87-.99,2.86-.88,2.2.11,4.06,1.87,3.19,4.28-.44.99-1.43,1.76-2.42,2.09-1.1.44-2.31.55-3.4.33-.99-.22-1.76-.88-1.98-1.76-.11-.33-.11-.66-.11-.99,0-1.43.88-2.31,1.87-3.08ZM276.29,137.82c2.86-2.75,6.15-5.05,9.23-7.58,2.75-2.42,4.83-4.94,8.13-6.7,2.64-1.43,8.24-4.5,8.35.44.22,5.6-8.35,5.6-9.23,10.65.22-1.1,10.87-3.62,12.19-3.95,3.19-.77,13.51-2.75,14.83,1.65,1.32,4.17-6.15,4.39-8.57,5.05-2.42.55-4.72,1.43-7.14,2.09-1.43.33-6.48,1.43-6.26,2.31.11.22.55.55,1.76.77,2.42.44,4.94.66,7.47.88,2.31.11,10.1,1.21,7.58,5.27-2.31,3.62-10.98,2.09-14.39,1.76-2.64-.22-5.49-.44-8.13-.33-4.5.22-8.68-.22-13.18.22-3.29.22-8.68.77-10.21-3.08-1.21-3.62,5.6-7.47,7.58-9.45ZM315.28,179.23c-.44.99-1.43,1.76-2.42,2.09-1.1.44-2.31.55-3.4.33-.99-.22-1.76-.88-1.98-1.76-.11-.33-.11-.66-.11-.99,0-1.32.99-2.2,1.87-3.08.77-.66,1.87-.99,2.86-.88,2.2.11,4.06,1.98,3.19,4.28ZM200.29,156.82c1.43-.33,12.08-2.97,12.74-2.09-2.97-4.06-10.65-.22-13.07-5.27-2.09-4.5,4.28-4.39,7.25-4.28,3.73.11,6.7,1.43,10.32,2.2,3.84.88,7.8,1.43,11.64,2.53,2.75.77,10.54,1.1,10.87,4.94.44,4.06-4.72,6.15-7.69,7.36-4.06,1.76-7.69,4.06-11.75,5.82-2.42,1.1-4.83,2.64-7.03,4.06-2.86,1.76-9.88,7.14-13.62,5.05-4.17-2.53,2.31-7.03,4.28-8.24,2.09-1.32,4.28-2.64,6.26-4.17.99-.77,1.32-1.21,1.21-1.43-.22-.88-5.16.55-6.59.77-2.42.55-4.83.88-7.25,1.43-2.42.55-9.12,3.73-9.88-.55-.88-4.39,9.12-7.36,12.3-8.13ZM202.15,220.85c.99-.44,1.98-.55,2.97-.22,1.21.33,2.42.88,2.97,2.09.11.33.22.66.33.99.11.88-.33,1.76-1.21,2.42-.99.66-2.09.99-3.29.99-1.1,0-2.2-.22-2.97-.99-1.76-1.87-.77-4.28,1.21-5.27ZM200.29,214.26c-1.1,0-2.2-.22-2.97-.99-1.76-1.87-.77-4.17,1.21-5.16.99-.44,1.98-.55,2.97-.22,1.21.33,2.42.88,2.97,2.09.11.33.22.66.33.99.11.99-.33,1.76-1.21,2.42-.99.55-2.2.88-3.29.88ZM209.18,200.64c-1.76-1.87-.77-4.28,1.21-5.16.99-.44,1.98-.55,2.97-.22,1.21.33,2.42.88,2.97,2.09.11.33.22.66.33.99.11.88-.33,1.76-1.21,2.42-.88.66-2.09.99-3.29.99-.99-.11-2.2-.33-2.97-1.1ZM193.92,199.22c-.99.66-2.09.99-3.29.99-1.1,0-2.2-.22-2.97-.99-1.76-1.87-.77-4.28,1.21-5.16.99-.44,1.98-.55,2.97-.22,1.21.33,2.42.88,2.97,2.09.11.33.22.66.33.99,0,.88-.33,1.65-1.21,2.31ZM191.06,224.59c.11.88-.33,1.76-1.21,2.42-.99.66-2.09.99-3.29.99-1.1,0-2.2-.22-2.97-.99-1.76-1.87-.77-4.28,1.21-5.16.99-.44,1.98-.55,2.97-.22,1.21.33,2.42.88,2.97,2.09.22.22.22.55.33.88ZM180.74,207.12c.99-.44,1.98-.55,2.97-.22,1.21.33,2.42.88,2.97,2.09.11.33.22.66.22.99.11.88-.33,1.76-1.21,2.42-.99.66-2.09.99-3.29.99-1.1,0-2.2-.22-2.97-.99-1.76-1.98-.77-4.39,1.32-5.27ZM409.08,152.98c-1.87,0-3.19-2.31-4.83-.88-1.21,1.1-1.32,4.61-1.65,6.15-.66,2.97-.99,5.93-1.54,8.9-.99,6.7-2.31,13.4-3.73,19.99-1.1,5.16-1.87,10.54-3.29,15.6-.33,1.1-2.53,5.49-1.76,6.37,1.32,1.54,4.61-.77,6.04-1.1,3.84-.88,8.02-1.1,11.97-.55,3.51.44,8.24,1.65,10.32,5.27,2.42,3.95-2.09,12.96-4.39,16.15-1.98,2.64-4.39,4.83-7.03,6.7-2.75,1.98-7.58,2.97-9.78,5.27-5.38,5.27,12.85,20.54-2.31,18.45-.99-2.53-2.31-4.83-3.51-7.03-2.64-4.83-5.16-9.45-5.49-15.71,1.32-.44,2.75-.88,4.06-1.32,5.82-1.87,12.08-3.95,15.93-9.01,2.31-3.19,5.38-12.08-.66-13.4-7.91-1.76-11.64,9.88-18.67,9.23-3.08-.33-3.08-2.64-3.84-5.16-2.53-8.24-5.71-16.58-15.49-17.79-2.86-.33-7.14.22-11.2,4.94l-.22.33-.11.33c-.88,6.15,2.53,9.01,5.49,11.53,2.86,2.42,5.27,4.39,4.61,9.12-.33.22-.99.33-1.98.22-1.98-.22-4.5-1.43-7.25-2.64-3.29-1.43-6.59-2.97-9.78-3.29-4.72-.55-7.91,1.54-9.67,6.26l-.11.22v.33c.44,5.6,5.27,7.69,9.56,9.56,3.08,1.32,6.04,2.64,7.36,4.94-.77,2.09-2.31,2.86-5.49,2.42-1.76-.22-3.62-.66-5.6-1.21-2.09-.55-4.17-1.1-6.26-1.32-.99-.11-1.87-.11-2.75-.11-10.65.77-16.37,7.14-16.47,13.07-.11,4.5,3.08,10.21,12.41,11.42,2.42.33,5.05.22,7.91-.11,3.84-.55,6.59-2.31,9.01-3.95,2.64-1.76,4.94-3.29,8.13-2.86.33,0,.66.11.99.22.99,5.38,2.42,10.54,3.84,15.38,1.65,5.6,3.29,11.31,4.17,17.46-.99.33-2.53.22-3.73.11-.77-.11-1.43-.22-2.2-.33-.77-.11-1.54-.22-2.31-.33-.22,0-.44,0-.55-.11-2.09-5.71-4.39-12.41-5.93-19.77l-.22-1.32-1.32.22c-1.32.22-2.53.66-3.84.99-2.86.77-5.6,1.54-9.34,1.1l-.66-.11-.88.44c-16.8,19.11-51.07,36.35-84.13,32.4-3.19-.33-6.37-.99-9.34-1.76l-.33-.11-.33.11c-2.64.77-4.72,1.87-6.92,3.08-2.09,1.1-4.06,2.2-6.26,2.86l-1.21.33.22,1.21c2.2,9.78,3.4,20.1-.44,29.65-.77,1.98-2.09,4.06-3.84,4.61-.99.33-2.2.11-3.51-.77-3.29-2.2-.99-6.26-.55-9.34.44-3.4.88-6.59.66-9.99-.11-1.43-3.62-17.46-5.05-16.91,1.32-.44,2.86-.99,4.39-1.43,8.68-2.64,20.43-6.15,16.37-20.87l-.22-.77-.77-.22c-.55-.11-.99-.22-1.54-.22-5.6-.66-9.34,2.86-12.52,5.93-2.53,2.42-4.72,4.5-7.47,4.17-1.32-.11-2.75-.88-4.28-2.2,2.2-5.49,6.04-17.57,4.39-28.01l-.33-1.98-1.65,1.1c-6.92,4.5-11.42,12.3-13.18,23.17-.44,0-.99-.11-1.43-.11-2.53-.33-4.94-.99-7.14-1.98-1.76-10.76-4.17-21.75-11.75-28.89l-.77-.77-.88.55c-7.69,5.16-4.61,13.07-1.87,19.99,1.21,3.08,2.53,6.26,2.75,9.12-.88.22-1.76.22-2.64.11-10.98-1.32-17.24-15.6-29.33-14.28-6.37.77-11.42,8.46-7.03,13.84,3.29,4.06,9.56,6.37,14.5,7.36,4.94.99,11.31.99,15.27,4.39,2.2,1.76,2.97,4.06,1.98,6.81-1.43,3.95-3.73,8.24-5.38,12.3-.88,2.42-1.87,4.72-2.75,7.14-5.16.22-7.14-2.42-5.27-7.14,1.54-3.95,4.17-9.88,3.95-14.17-2.31-.77-4.61-1.43-7.03-2.09-14.72-4.39-29.98-8.9-27.46-21.97,1.54-8.02,12.19-13.29,24.16-11.86,2.64.33,5.27.99,7.8,1.87l3.4,1.32-1.87-3.19c-2.31-4.06-4.83-8.13-7.36-12.08-5.16-8.35-10.43-16.69-14.06-25.7-.99-2.31-1.76-4.72-2.53-7.03-.66-1.98-.77-5.6-1.87-7.25-1.76-2.64-4.5-.44-6.15,1.98-1.1,1.65-2.31,6.15-4.5,3.73-2.75-2.97,3.29-8.46,5.27-9.99,5.27-4.28,15.16-8.02,21.97-5.6,2.2.77,3.84,2.64,1.32,4.28-1.54.99-4.61.22-6.37.33-3.29.22-2.53.77-1.87,4.28.66,3.4,1.54,6.81,2.64,10.1,3.95,11.86,11.97,21.2,17.02,32.29,4.83-5.16,10.21-7.91,17.57-6.15,10.65,2.42,11.31,12.74,12.52,21.64,1.87-1.21,2.64-4.5,4.28-6.26,2.09-2.31,4.94-4.28,7.91-5.38,4.94-1.76,10.54-.99,14.28,2.97,3.62,3.84,3.29,9.99,2.2,14.83l-.33,1.54,1.54.11c1.76.11,3.62.22,5.6.44,8.68,1.1,14.06,3.4,16.47,7.14,1.76,2.75,1.98,6.48.55,10.98l-.55,1.65,1.76.11c33.5,1.87,59.64-6.92,77.76-26.14l1.76-1.87-2.42-.44c-8.79-1.43-13.4-7.25-12.19-15.71,1.32-9.12,9.45-18.12,19.55-16.91l2.31.33-.77-2.09c-2.09-4.61-1.21-11.64,2.2-16.26,1.98-2.75,5.71-5.93,11.97-5.16.66.11,1.43.22,2.09.44l2.42.55-.77-2.31c-1.65-4.72-1.1-8.9,1.54-12.19,3.84-4.72,11.75-7.14,20.32-6.15,5.05.66,8.46,2.2,12.41,5.05,2.86-1.65,4.72-8.24,5.49-11.2,1.1-4.06,10.54-38.44,1.65-39.54-1.32-.11-2.53.55-3.84,1.43-1.1.66-2.42,1.43-3.4,1.32-.22,0-.77-.11-1.43-.88,1.21-5.71,9.01-7.36,15.82-6.59,3.95.44,7.91,1.76,11.09,4.28,1.76,1.32,4.28,5.49-.22,5.38Z"/>
    <path class="cls-4" d="M446.42,78.62c-.66,7.14-1.43,14.5-.77,18.34l.22,1.43,1.43-.33c6.48-1.65,20.54-8.79,25.92-13.29l1.21-.99s-4.72-3.84-6.48-5.27c-5.82-4.83-18.23-11.97-18.23-11.97,0,0-2.86,7.03-3.29,12.08Z"/>
    <path class="cls-3" d="M417.86,65.88l-.33-.11c-15.71-6.04-32.62-10.21-50.19-12.3-46.57-5.6-89.73,4.17-112.47,25.59l-1.1.99,1.1.99c11.86,10.32,28.45,22.85,52.17,27.68,2.86.55,5.71,1.1,8.57,1.43,39.21,4.72,74.58-12.74,94.57-30.64,7.25-6.48,9.78-10.76,7.8-13.29l-.11-.33Z"/>
    <path class="cls-4" d="M454.55,27.88l.11-2.09-1.87.77c-4.17,1.65-15.16,6.04-21.75,6.81l-1.87.22.77,1.65c4.72,9.88,18.01,23.28,18.01,23.28,0,0,6.15-22.74,6.59-30.64Z"/>
    <path class="cls-3" d="M484.75,25.9l-.99,1.98c-5.38,10.54-14.72,24.6-23.28,32.29l-1.98,1.76,2.64.55c12.85,2.42,32.84,9.88,40.86,13.95l2.64,1.32-.77-2.86c-3.08-11.42-11.53-38-17.9-47.12l-1.21-1.87Z"/>
    <path d="M204.02,227.11c1.1,0,2.31-.33,3.29-.99.88-.55,1.21-1.43,1.21-2.42,0-.33-.11-.66-.33-.99-.55-1.21-1.76-1.65-2.97-2.09-.99-.33-2.09-.22-2.97.22-1.98.99-3.08,3.29-1.21,5.16.66.88,1.87,1.1,2.97,1.1Z"/>
    <path d="M194.79,195.81c-.55-1.21-1.76-1.65-2.97-2.09-.99-.33-2.09-.22-2.97.22-1.98.99-3.08,3.29-1.21,5.16.77.77,1.98.99,2.97.99,1.1,0,2.31-.33,3.29-.99.88-.55,1.21-1.43,1.21-2.42-.11-.22-.22-.55-.33-.88Z"/>
    <path d="M182.49,213.28c1.1,0,2.31-.33,3.29-.99.88-.55,1.21-1.43,1.21-2.42,0-.33-.11-.66-.22-.99-.55-1.21-1.76-1.65-2.97-2.09-.99-.33-2.09-.22-2.97.22-1.98.99-3.08,3.4-1.21,5.16.66.88,1.76,1.1,2.86,1.1Z"/>
    <path d="M204.68,210.86c0-.33-.11-.66-.33-.99-.55-1.21-1.76-1.65-2.97-2.09-.99-.33-2.09-.22-2.97.22-1.98.99-3.08,3.29-1.21,5.16.77.77,1.98.99,2.97.99,1.1,0,2.31-.33,3.29-.99.88-.44,1.32-1.32,1.21-2.31Z"/>
    <path d="M187.76,221.51c-.99-.33-2.09-.22-2.97.22-1.98.99-3.08,3.29-1.21,5.16.77.77,1.98.99,2.97.99,1.1,0,2.31-.33,3.29-.99.88-.55,1.32-1.43,1.21-2.42,0-.33-.11-.66-.33-.99-.55-1.1-1.76-1.65-2.97-1.98Z"/>
    <path d="M215.44,200.64c.88-.55,1.21-1.43,1.21-2.42,0-.33-.11-.66-.33-.99-.55-1.21-1.76-1.65-2.97-2.09-.99-.33-2.09-.22-2.97.22-1.98.99-2.97,3.29-1.21,5.16.77.77,1.98.99,2.97.99,1.21.11,2.42-.22,3.29-.88Z"/>
    <path d="M326.7,196.14c-.99.77-1.87,1.76-1.87,3.08,0,.33,0,.77.11.99.33.88.99,1.54,1.98,1.76,1.1.22,2.31.11,3.4-.33.99-.44,1.98-1.1,2.42-2.09.99-2.42-.88-4.17-3.19-4.28-1.1-.11-2.09.22-2.86.88Z"/>
    <path d="M328.79,171.98c1.1.22,2.31.11,3.4-.33.99-.44,1.98-1.1,2.42-2.09.99-2.42-.88-4.17-3.19-4.28-1.1,0-2.09.22-2.86.88-.99.77-1.87,1.76-1.87,3.08,0,.33,0,.77.11.99.33.88.99,1.54,1.98,1.76Z"/>
    <path d="M341.42,180.98c1.1.22,2.31.11,3.4-.33.99-.44,1.98-1.1,2.42-2.09.99-2.42-.88-4.17-3.19-4.28-.99,0-2.09.22-2.86.88-.99.77-1.87,1.76-1.87,3.08,0,.33,0,.77.11.99.22.88.99,1.54,1.98,1.76Z"/>
    <path d="M325.38,188.67c1.1.22,2.31.11,3.4-.33.99-.44,1.98-1.1,2.42-2.09.99-2.42-.88-4.17-3.19-4.28-1.1,0-2.09.22-2.86.88-.99.77-1.87,1.76-1.87,3.08,0,.33,0,.77.11.99.22.99.99,1.54,1.98,1.76Z"/>
    <path d="M341.2,193.29c0,.33,0,.77.11.99.33.88.99,1.54,1.98,1.76,1.1.22,2.31.11,3.4-.33.99-.44,1.98-1.1,2.42-2.09.99-2.42-.88-4.17-3.19-4.28-1.1,0-2.09.22-2.86.88-.99.88-1.87,1.76-1.87,3.08Z"/>
    <path d="M312.09,174.94c-1.1,0-2.09.22-2.86.88-.99.77-1.87,1.76-1.87,3.08,0,.33,0,.77.11.99.33.88.99,1.54,1.98,1.76,1.1.22,2.31.11,3.4-.33.99-.44,1.98-1.1,2.42-2.09.88-2.31-.99-4.17-3.19-4.28Z"/>
    <path d="M485.63,17.11c-.22,0-.44,0-.66.11-2.09,1.43-11.42,15.71-17.57,25.15-5.16,7.8-12.19,17.35-12.19,17.35,0,0,.77-5.49,3.84-16.15,1.65-5.82,3.95-13.84,3.95-15.6,0-2.64-.55-5.93-2.97-7.47-.11,0-.33-.11-.77-.22-6.81-.88-32.84,8.9-34.82,10.54-1.32,1.32-1.1,1.98,0,3.95.33.44.55.99.88,1.54,1.54,3.29,4.17,7.69,6.7,11.86,2.42,4.06,10.43,14.39,10.43,14.39,0,0-43.82-13.95-65.57-16.47-53.38-6.48-106.65,4.61-135.64,28.12l-.77.33-.55-.11c-.99-.11-2.97-.88-5.27-1.76-.66-.22-1.21-.44-1.43-.55-2.2-.66-4.5-1.32-6.7-1.76-4.39-.99-8.9-1.87-13.73-2.42-18.01-2.09-37.34-.33-57.33,5.27-16.58,4.61-33.72,11.97-50.74,21.64-4.17,2.31-7.69,5.16-11.42,8.02-1.65,1.32-3.4,2.64-5.27,4.06-.44.33-.88.77-1.32,1.32-1.43,1.43-3.08,3.29-5.27,3.08l-.55-.11c-3.51-1.1-3.84-7.14-3.84-9.67,0-5.93-.44-11.64-1.32-16.91l-.22-1.43c-.66-4.06-1.43-8.68-4.17-11.31-.88-.77-1.76-1.21-2.64-1.32-2.09-.22-4.39,1.32-6.7,2.86-1.21.88-2.53,1.76-3.84,2.31-2.64,1.21-5.16,2.64-8.24,4.83-1.1.77-2.31,1.54-3.4,2.2-1.1.66-2.2,1.32-3.29,2.09-.44.33-.99.66-1.65.99-1.1.55-2.2,1.21-2.42,2.09-.88,3.29,2.86,8.35,4.94,10.98l1.32,1.76c2.42,3.19,4.94,6.59,7.69,9.34,2.53,2.42,4.72,5.05,7.36,8.46,2.86,3.62,3.73,5.38,3.51,6.59l-.33.88-.55.33c-.44.22-.88.33-1.54.33-.99-.11-2.09-.66-3.51-1.32-2.97-1.32-5.71-2.97-8.24-4.61-3.73-2.42-7.36-4.94-10.98-7.47-2.53-1.76-4.94-3.51-7.47-5.16-3.62-2.42-7.36-4.94-11.42-6.81-.77-.33-4.72-1.98-6.81-2.2h-.44C5.99,119.81-3.89,177.58,1.6,184.17c4.5-.77,15.16-10.21,24.49-18.67,10.98-9.88,22.41-20.1,29.54-22.08l3.08-.88-1.54,2.75c-2.64,4.94-5.82,9.23-8.9,13.4-4.72,6.48-9.34,12.74-12.3,20.98,2.31.44,4.94.77,7.58,1.1,2.09.22,11.53,1.32,13.95,1.65,5.82.66,13.29,1.76,19.66,3.29,1.1-6.48,1.76-12.85,2.42-19,1.1-10.1,2.09-19.66,4.72-29.98l.44-1.65,1.54.77c1.87.99,3.51,1.98,5.27,2.97,4.61,2.64,8.9,5.16,14.5,6.81l1.87.55-1.21,1.54c-17.02,21.97-26.36,45.58-28.67,71.94-10.54,117.63,83.14,165.85,163.65,185.62l1.1.22v1.1c-.44,10.98,1.76,20.1,3.84,29l1.1,4.94-1.21.33c-3.73,1.1-8.24,1.98-12.96,2.97-16.91,3.4-38,7.69-40.75,24.38-.88,5.49.11,10.21,2.97,14.28,4.17,5.71,11.97,9.56,22.52,11.2l9.78,1.21c17.79-.11,34.82-3.95,50.63-11.2.88-.44,1.87-.88,2.86-1.43,4.28-2.09,9.12-4.5,12.08-4.5.55,0,1.21,0,1.87.11,4.5.55,9.67,2.97,15.16,5.49,4.72,2.2,9.67,4.5,14.5,5.71,8.68,2.2,16.8,3.73,24.27,4.72,19.11,2.31,32.18.11,38.99-6.59,4.28-4.17,6.04-10.32,5.16-18.12-2.09-19.11-31.41-28.67-52.83-35.7l-5.05-1.65.11-.99c.22-4.72-.66-8.46-1.54-12.52-.88-3.84-1.87-7.91-1.65-12.85l.11-1.21h1.21c48-.11,85.12-21.2,116.75-66.34,11.86-17.02,24.6-37.78,28.67-63.37,12.74-80.29-12.96-150.36-67.11-182.76l-1.76-.99s25.48-22.52,30.2-21.86c0,0-1.21,7.25-1.65,10.54-.88,6.37-.88,12.19.22,18.56.11.77,3.29,9.67,4.61,9.23,0,0,28.45-12.08,40.97-19.22-4.28-5.05-19.66-17.57-25.37-21.53,0,0,41.63,17.02,45.03,18.56,1.1.55,3.19,1.43,4.83,1.65,1.76.22,2.31-.44,2.64-1.32.44-3.73-13.18-52.39-23.28-65.13-1.54-2.53-2.64-2.97-3.08-3.08ZM8.63,171.1l-3.08,3.95.77-4.94c.44-2.97,1.87-10.76,3.62-20.54,2.2-12.19,4.94-27.35,7.03-39.65l.33-1.76,1.54.77c12.19,8.35,38,23.06,38,23.06-12.08,9.34-41.52,30.64-48.22,39.1ZM63.65,112.01c-1.1-.99-1.87-1.76-1.98-1.87-2.53-2.53-4.94-5.49-7.25-8.57-1.98-2.64-3.73-5.71-5.71-9.34-.55-1.1-.99-2.97.66-5.27,3.19-4.61,13.07-9.34,16.15-9.01l.55.11.22.11c1.54.88,2.09,2.64,2.53,4.06.11.44.22.88.44,1.21,1.43,3.29,1.87,6.48,2.2,9.23.22,1.76.44,3.62.77,5.38.55,3.29.99,6.7,1.1,10.1.11,1.98,0,3.95-.22,5.93-.11.99,0,3.95-1.1,4.39-2.2,1.21-6.92-5.16-8.35-6.48ZM69.48,175.93l.11.99-.88.33c-1.21.55-2.64.66-4.5.44-1.65-.22-3.51-.66-5.49-1.21-2.09-.55-4.39-1.1-6.59-1.43-1.32-.11-2.42-.22-3.51-.11l-2.53.22,1.32-2.2c2.75-4.61,5.82-8.79,8.79-12.96,5.27-7.14,10.65-14.61,14.28-24.05l1.1-2.86,1.32,2.86c1.98,4.17.22,14.5-1.54,24.38-.99,6.48-2.09,12.52-1.87,15.6ZM83.64,125.41l-1.21-.88,1.1-1.1c10.1-10.76,21.97-19.99,34.82-27.24,13.18-7.47,27.46-12.96,42.18-16.47,31.85-7.47,61.73-4.28,71.83-1.87,2.75.66,3.73,3.19,2.53,5.71-2.64,5.27-27.46,40.75-72.38,55.68-11.53,3.84-24.05,4.5-36.24,3.08-14.94-1.87-29.33-7.58-42.61-16.91ZM468.83,280.49c-7.91,40.97-38.88,76.44-62.93,94.35-23.06,17.13-51.73,20.65-86.88,23.28.99,4.94,2.09,9.88,3.19,14.83,1.76,8.13,3.62,16.47,5.05,25.04,10.76,1.98,45.91,11.09,54.7,27.24,2.42,4.39,2.64,9.01.55,13.51-3.73,8.46-25.26,7.91-30.86,7.25l-.55-.11c-17.57-2.09-35.48-9.23-49.75-14.83-3.19-1.21-6.15-2.42-9.01-3.51l-.55-.22-.22-.66c-4.83-15.05-5.05-33.94-5.27-52.17-.11-5.05-.11-10.1-.22-15.16-2.53,0-4.5.66-6.15,2.2-5.38,5.16-4.72,18.56-4.28,27.46l.11,3.62c.33,8.57,2.42,17.46,4.28,25.37,1.1,4.39,1.98,8.24,2.42,11.53l.11.77-.55.44c-11.09,8.9-34.38,16.91-55.58,14.39-9.01-1.1-16.69-3.95-22.85-8.57l-.66-.55.11-.77c4.06-21.42,22.95-23.94,41.19-26.36,4.06-.55,8.13-1.1,12.08-1.87.77-6.81-.88-13.62-2.53-20.87-1.98-8.57-4.06-17.35-2.86-27.46-114.99-25.04-174.63-92.26-163.76-184.41,3.29-27.79,15.05-46.46,27.9-64.69l.44-.66s3.19.44,4.28.55c66.67,8.02,97.86-30.31,125.32-64.25l.99-1.21.99,1.21c13.51,16.37,37.89,27.79,67,31.3,34.93,4.17,69.63-3.62,88.2-20.1l.66-.55.77.44c53.38,26.47,80.62,103.79,65.13,184.19ZM410.28,79.61c-19.99,17.9-55.36,35.37-94.57,30.64-2.86-.33-5.82-.77-8.57-1.43-23.83-4.83-40.42-17.35-52.17-27.68l-1.1-.99,1.1-.99c22.74-21.42,65.9-31.19,112.47-25.59,17.57,2.09,34.49,6.26,50.19,12.3l.33.11.22.33c1.76,2.53-.66,6.81-7.91,13.29ZM429.94,35.24l-.77-1.65,1.87-.22c6.59-.77,17.57-5.16,21.75-6.81l1.87-.77-.11,2.09c-.44,7.91-6.59,30.64-6.59,30.64,0,0-13.4-13.29-18.01-23.28ZM468.06,78.4c1.76,1.43,6.48,5.27,6.48,5.27l-1.21.99c-5.38,4.39-19.44,11.64-25.92,13.29l-1.43.33-.22-1.43c-.66-3.84,0-11.2.77-18.34.44-5.05,3.4-12.19,3.4-12.19,0,0,12.19,7.25,18.12,12.08ZM504.74,77.63l-2.64-1.32c-8.13-4.06-28.01-11.53-40.86-13.95l-2.64-.55,1.98-1.76c8.57-7.69,17.9-21.75,23.28-32.29l.99-1.98,1.21,1.76c6.37,9.12,14.83,35.7,17.9,47.12l.77,2.97Z"/>
    <path d="M382.17,149.68c.66.88,1.21.88,1.43.88.99.11,2.31-.66,3.4-1.32,1.32-.77,2.53-1.54,3.84-1.43,8.9,1.1-.55,35.48-1.65,39.54-.77,2.97-2.64,9.56-5.49,11.2-3.95-2.97-7.36-4.5-12.41-5.05-8.46-.99-16.47,1.43-20.32,6.15-2.64,3.29-3.19,7.47-1.54,12.19l.77,2.31-2.42-.55c-.77-.22-1.43-.33-2.09-.44-6.26-.77-9.88,2.42-11.97,5.16-3.4,4.61-4.28,11.64-2.2,16.26l.77,2.09-2.31-.33c-10.1-1.21-18.34,7.8-19.55,16.91-1.21,8.46,3.4,14.39,12.19,15.71l2.42.44-1.43,1.87c-18.12,19.22-44.26,28.01-77.76,26.14l-1.76-.11.55-1.65c1.43-4.5,1.32-8.24-.55-10.98-2.42-3.73-7.8-6.15-16.47-7.14-1.98-.22-3.84-.33-5.6-.44l-1.54-.11.33-1.54c1.1-4.83,1.32-10.98-2.2-14.83-3.62-3.84-9.34-4.61-14.28-2.97-2.97.99-5.82,3.08-7.91,5.38-1.65,1.76-2.42,5.16-4.28,6.26-1.21-8.9-1.87-19.22-12.52-21.64-7.36-1.76-12.74.99-17.57,6.15-5.05-11.09-13.07-20.43-17.02-32.29-1.1-3.29-1.98-6.7-2.64-10.1-.77-3.62-1.43-4.06,1.87-4.28,1.76-.11,4.83.66,6.37-.33,2.42-1.65.88-3.51-1.32-4.28-6.81-2.42-16.69,1.32-21.97,5.6-1.98,1.65-8.02,7.14-5.27,9.99,2.2,2.42,3.29-2.09,4.5-3.73,1.54-2.31,4.39-4.61,6.15-1.98,1.1,1.76,1.21,5.27,1.87,7.25.77,2.42,1.54,4.72,2.53,7.03,3.73,9.12,8.9,17.46,14.06,25.7,2.53,3.95,5.05,8.02,7.36,12.08l1.87,3.19-3.4-1.32c-2.53-.99-5.16-1.54-7.8-1.87-11.97-1.43-22.63,3.73-24.16,11.86-2.53,13.07,12.74,17.57,27.46,21.97,2.31.66,4.72,1.43,7.03,2.09.22,4.28-2.42,10.21-3.95,14.17-1.76,4.72.11,7.36,5.27,7.14.88-2.42,1.87-4.83,2.75-7.14,1.65-4.06,3.95-8.35,5.38-12.3.99-2.75.22-4.94-1.98-6.81-4.06-3.29-10.43-3.4-15.27-4.39-4.94-.99-11.31-3.29-14.5-7.36-4.28-5.38.66-13.07,7.03-13.84,12.19-1.43,18.34,12.96,29.33,14.28.99.11,1.87.11,2.64-.11-.22-2.75-1.54-5.93-2.75-9.12-2.75-6.92-5.82-14.83,1.87-19.99l.88-.55.77.77c7.58,7.14,9.99,18.12,11.75,28.89,2.31.99,4.61,1.65,7.14,1.98.44.11.88.11,1.43.11,1.76-10.87,6.26-18.56,13.18-23.17l1.65-1.1.33,1.98c1.76,10.32-2.2,22.41-4.39,28.01,1.54,1.32,2.97,2.09,4.28,2.2,2.64.33,4.83-1.76,7.47-4.17,3.29-3.08,6.92-6.59,12.52-5.93.44.11.99.11,1.54.22l.77.22.22.77c4.17,14.61-7.69,18.23-16.37,20.87-1.54.44-2.97.88-4.39,1.43,1.43-.55,4.94,15.49,5.05,16.91.22,3.4-.22,6.59-.66,9.99-.33,3.08-2.75,7.14.55,9.34,1.32.88,2.53,1.1,3.51.77,1.76-.55,3.08-2.64,3.84-4.61,3.73-9.56,2.53-19.88.44-29.65l-.22-1.21,1.21-.33c2.31-.66,4.28-1.76,6.26-2.86,2.09-1.1,4.28-2.31,6.92-3.08l.33-.11.33.11c2.97.77,6.15,1.32,9.34,1.76,33.06,3.95,67.44-13.29,84.13-32.4l.88-.44.66.11c3.73.44,6.37-.33,9.34-1.1,1.21-.33,2.53-.66,3.84-.99l1.32-.22.22,1.32c1.54,7.25,3.84,14.06,5.93,19.77.22,0,.44,0,.55.11.77.11,1.54.22,2.31.33.77.11,1.54.22,2.2.33,1.1.11,2.64.22,3.73-.11-.88-6.26-2.53-11.97-4.17-17.46-1.43-4.94-2.86-9.99-3.84-15.38-.33-.11-.66-.11-.99-.22-3.29-.44-5.49,1.1-8.13,2.86-2.42,1.65-5.16,3.4-9.01,3.95-2.86.33-5.49.44-7.91.11-9.34-1.1-12.52-6.81-12.41-11.42.11-5.93,5.82-12.3,16.47-13.07.88-.11,1.76,0,2.75.11,1.98.22,4.17.77,6.26,1.32,1.98.55,3.84.99,5.6,1.21,3.08.33,4.72-.33,5.49-2.42-1.21-2.42-4.17-3.62-7.36-4.94-4.28-1.87-9.12-3.95-9.56-9.56v-.33l.11-.22c1.76-4.72,5.05-6.81,9.67-6.26,3.19.33,6.48,1.87,9.78,3.29,2.75,1.21,5.27,2.42,7.25,2.64.99.11,1.65,0,1.98-.22.66-4.61-1.76-6.7-4.61-9.12-2.97-2.53-6.37-5.38-5.49-11.53l.11-.33.22-.33c4.06-4.72,8.35-5.27,11.2-4.94,9.78,1.21,12.96,9.56,15.49,17.79.77,2.42.88,4.83,3.84,5.16,7.03.66,10.76-10.98,18.67-9.23,5.93,1.32,2.97,10.32.66,13.4-3.84,5.05-10.1,7.14-15.93,9.01-1.32.44-2.75.88-4.06,1.32.33,6.26,2.86,10.87,5.49,15.71,1.21,2.2,2.53,4.5,3.51,7.03,15.16,2.09-3.08-13.18,2.31-18.45,2.31-2.2,7.03-3.29,9.78-5.27,2.64-1.87,5.16-4.06,7.03-6.7,2.31-3.08,6.81-12.19,4.39-16.15-2.2-3.51-6.81-4.83-10.32-5.27-3.95-.44-8.02-.22-11.97.55-1.43.33-4.72,2.53-6.04,1.1-.77-.88,1.43-5.27,1.76-6.37,1.43-5.16,2.2-10.43,3.29-15.6,1.43-6.7,2.75-13.29,3.73-19.99.44-2.97.88-5.93,1.54-8.9.33-1.54.44-5.05,1.65-6.15,1.65-1.54,2.97.77,4.83.88,4.5,0,1.98-4.06,0-5.6-3.08-2.53-7.14-3.84-11.09-4.28-6.92-.55-14.61,1.1-15.93,6.81Z"/>
    <path d="M197.76,165.72c2.42-.55,4.83-.88,7.25-1.43,1.43-.33,6.37-1.65,6.59-.77.11.22-.33.77-1.21,1.43-1.98,1.54-4.06,2.86-6.26,4.17-1.98,1.21-8.46,5.71-4.28,8.24,3.73,2.2,10.65-3.19,13.62-5.05,2.2-1.32,4.61-2.97,7.03-4.06,4.06-1.87,7.69-4.17,11.75-5.82,2.97-1.21,8.13-3.29,7.69-7.36-.33-3.84-8.24-4.17-10.87-4.94-3.84-1.1-7.8-1.65-11.64-2.53-3.62-.88-6.59-2.09-10.32-2.2-2.97-.11-9.34-.22-7.25,4.28,2.42,5.05,9.99,1.21,13.07,5.27-.66-.88-11.31,1.76-12.74,2.09-3.19.77-13.29,3.73-12.41,8.35.88,4.06,7.58.88,9.99.33Z"/>
    <path d="M279.15,150.23c4.39-.33,8.68.11,13.18-.22,2.64-.11,5.49.11,8.13.33,3.4.22,12.08,1.87,14.39-1.76,2.64-4.17-5.16-5.16-7.58-5.27-2.53-.11-5.05-.44-7.47-.88-1.21-.22-1.76-.44-1.76-.77-.22-.88,4.83-1.98,6.26-2.31,2.42-.66,4.72-1.43,7.14-2.09,2.42-.55,9.88-.88,8.57-5.05-1.32-4.39-11.64-2.42-14.83-1.65-1.43.33-12.08,2.86-12.19,3.95.77-5.05,9.34-5.05,9.23-10.65-.11-4.94-5.71-1.98-8.35-.44-3.19,1.76-5.38,4.28-8.13,6.7-3.08,2.53-6.26,4.83-9.23,7.58-2.09,1.98-8.9,5.82-7.47,9.34,1.32,3.95,6.81,3.4,10.1,3.19Z"/>
    <g>
      <path d="M252.68,231.62c-11.09-1.32-18.56-8.9-19.99-20.32-1.43-12.19,4.83-28.12,21.97-34.49,6.92-2.64,13.18-3.62,18.56-2.97,14.83,1.76,18.89,15.05,17.9,25.92-1.54,16.58-15.05,33.5-37.01,31.96-.33,0-.88-.11-1.43-.11h0Z"/>
      <path class="cls-2" d="M281.01,208.88c6.81-14.06-1.98-30.31-18.34-26.8-17.13,3.62-26.03,18.01-20.43,32.29,6.37,16.69,33.5,5.27,38.77-5.49Z"/>
    </g>
  </g>
  <path d="M83.86,129.91l-2.09-.22c-2.09-.22-3.84-1.76-4.39-3.84-.55-1.98.22-4.17,1.87-5.49,2.64-1.98,64.58-48.88,155.96-42.18,2.2.11,3.84,1.54,4.5,3.51.66,1.98.11,4.17-1.54,5.49-2.42,2.42-61.95,53.93-154.31,42.72ZM219.84,88.07c-57.44-.55-101.81,20.76-122.13,32.73,58.54,3.4,102.36-19.77,122.13-32.73Z"/>
  <path d="M279.15,89.16c-8.57-.99-17.46-2.42-26.25-3.95-2.2-.44-3.95-2.2-4.17-4.5-.33-2.31.99-4.39,3.08-5.38,2.53-1.1,62.38-27.35,144.54-17.46,9.99,1.21,20.1,2.97,29.98,5.16,2.09.44,3.73,2.2,3.95,4.28.33,2.09-.77,4.17-2.64,5.27-2.2,1.21-51.62,28.23-148.49,16.58ZM274.97,78.18c1.87.22,3.62.44,5.38.66,63.15,7.58,105.55-1.87,126.53-9.01-3.95-.66-8.02-1.21-11.97-1.65-52.5-6.26-96.32,2.97-119.94,9.99Z"/>
</svg>