<?xml version="1.0" encoding="UTF-8"?>
<svg id="Layer_1" data-name="Layer 1" xmlns="http://www.w3.org/2000/svg" viewBox="0 0 512 512">
  <defs>
    <style>
      .cls-1 {
        fill: #f39755;
      }

      .cls-2 {
        fill: #1c1c1c;
      }

      .cls-3 {
        fill: #212121;
      }

      .cls-4 {
        fill: #b16b00;
      }

      .cls-5 {
        fill: #1f1f1f;
      }

      .cls-6 {
        fill: #e9328c;
      }

      .cls-7 {
        fill: #fee233;
      }

      .cls-8 {
        fill: #fdfdfd;
      }
    </style>
  </defs>
  <g id="ILooRL">
    <g>
      <path class="cls-2" d="M334.97,510.84c-17.56,2.28-36.77-2.17-55.83-7.96-5.37-1.63-11.07-2.21-16.68-1.53-25.56,3.13-51.39,3.38-76.88,7.72-9.13,1.55-18.57-.98-25.84-7.78-6-5.61-5.68-11.18-.27-17.37,10.29-11.78,23.85-16.56,38.61-19.32,11.53-2.15,22.91-5.28,34.82-4.12,2.38.23,3.68-.28,2.92-3.15-1.61-6.09-3.09-12.21-4.49-18.35-.52-2.3-2.18-1.93-3.67-1.87-54.98,2.38-123.25-38.7-139.61-117.32-1.82-8.73-4.08-17.41-4.03-26.41.01-2.12-1.04-2.57-2.85-2.82-9.65-1.36-14.22-7.55-15.22-16.7-.41-3.73-1.45-5.72-5.72-6.36-7.8-1.17-12.04-6.12-13.09-14.28-1.41-10.99-.54-21.71,4.67-31.76.79-1.53,1.88-2.74-.58-4.1-7.56-4.18-8.39-11.06-6.9-18.66,2.14-10.88,8.94-18.86,16.64-26.18,2.28-2.17,3.03-3.26.17-5.84-6.52-5.88-6.96-10.45-2.83-18.21,3.18-5.97,8.22-9.94,14.03-13.07,6.5-3.5,13.48-5.84,20.46-8.12,2.31-.75,2.84-1.44,1.65-3.97-3.33-7.07-2.41-10.38,3.44-15.74,5.81-5.32,12.52-8.91,20.23-10.58,1.7-.37,3.2-.4,3.55-2.91,2.08-15.01,7.47-20.49,22.48-23.28,6.17-1.15,12.27-1.04,17.89,2.09,2.08,1.16,3.48,1.26,4.79-.83.27-.44.7-.78,1.06-1.17,2.53-2.75,6.62-3.95,8.66-6.42,1.8-2.16-2.25-6.15-2.09-9.84.23-5.24,2.39-8.99,7.11-11.35,3.85-1.93,8.09-2.87,12.19-2.81,6.8.11,10.26-3.15,13.94-8.59,12.45-18.39,30.92-27.33,52.38-30.67,11.72-1.82,23.45-1.95,34.86,1.87,17.88,5.98,29.33,17.74,32.46,36.81,1.29,7.85,2.19,8.23,10.05,10.16,7.45,1.83,14.06,5.54,18.48,12.13,1.84,2.74,3.68,5.73,2.33,9.29-1.4,3.7.46,5.76,3.49,7.03,4.69,1.96,9.32,3.69,12.4,8.29,1.81,2.71,4.67,1.44,6.19-.7,4.78-6.74,10.95-7.19,18.08-4.78,7.2,2.44,12.25,6.91,13.42,14.65.84,5.56,2.97,8.58,9.19,9.42,8.71,1.18,15.29,6.62,20.34,13.76,1.21,1.71,2.82,3.52,2.64,5.62-.61,7.27,3.72,9.8,9.56,12.75,12.51,6.33,16.13,25.69,7.52,37.05-1.88,2.48-2.49,3.55.16,6.12,10.07,9.77,9.22,24.43-1.6,33.25-1.98,1.61-3.71,2.8-2.03,5.91,4.94,9.14,2.58,17.49-3.13,25.51-5.67,7.96-13.54,12.47-22.61,15.24-3.48,1.06-3.84,2.75-2.84,6.2,9.87,34.14,8.03,67.09-10.08,98.49-9.23,15.99-22.61,27.86-36.26,39.81-16.72,14.63-37.05,19.79-57.74,24.64-10.49,2.46-10.37,2.58-11.64,13.59-.52,4.54-.84,9.06-1.04,13.62-.2,4.31.68,5.8,5.68,5.79,21.95-.05,43.1,5.04,63.61,12.33,13.59,4.83,15.41,18.72,4.54,28.21-2.67,2.34-5.69,4.09-8.97,5.38-5.78,2.26-11.84,3.11-18,3.26-7.2.18-14.39-.06-24.15-1.11Z"/>
      <path class="cls-4" d="M302.91,425.63c-1.02,13.09-2.17,26.17-2.98,39.27-.33,5.32,4.38,9.93,9.62,8.87,21.34-4.29,41.31,1.84,61.41,7.33,3.41.93,7.49.67,8.99,5.16,1.66,4.98-.71,10.15-6.44,12.75-2.52,1.14-5.35,2.23-8.04,2.25-25.05.2-50.16.89-74.81-4.98-12.94-3.08-12.07-3.07-11.52-16.03.63-15.02-.39-30.11-.89-45.17-.17-5-3.91-5.72-7.91-5.37-4.48.39-5.8,3.11-5.23,7.33,2.21,16.23,2.33,32.44-.04,48.69-.51,3.51-1.74,5.38-5.37,5.71-8.19.75-16.35,2.14-24.55,2.4-16.68.51-33.16,2.54-49.6,5.1-4.87.76-9.45.22-13.58-2.6-2.68-1.83-3.47-3.78-1.31-6.97,6.46-9.59,16.42-12.84,26.8-14.95,11.8-2.41,23.68-4.63,35.74-5.45,3.56-.24,6.98-.16,9.89,2.45,2.01,1.8,4.36,2.17,6.78.62,2.69-1.73,3.07-4.47,2.07-6.98-4.17-10.48-6.23-21.5-8.72-32.41-1.06-4.64-4.53-5.24-8.48-5.1-13.92.48-27.67-.7-41.03-4.83-42.75-13.2-71.63-41.1-87.63-82.69-6.35-16.53-8.83-33.79-10.17-51.29-.32-4.16,7.35-11.16,11.25-9.98,3.62,1.09,6.15-.82,8.65-2.62,3.75-2.69,6.45-6.36,8.74-10.38,4.79-8.42,11.76-15.81,11.58-26.48-.04-2.47,1.41-4.68,4.06-5.64,11.6-4.23,16.34-13.64,18.38-24.84.78-4.27,1.51-7.28,6.68-8.88,10.85-3.36,17.56-11.89,22.31-21.78,3.45-7.18.94-14.18-2.53-20.6-2.12-3.92-1.37-5.82,2.52-7.58,4.15-1.89,7.84-4.59,11.08-7.9,7.13-7.29,8.88-15.25,4.38-24.46-1.72-3.53-.51-4.59,2.27-5.82,3.56-1.56,6.72-3.84,9.56-6.44,6.15-5.61,7.88-9.75,4.2-16.03-.57-.97-1.38-2.38-.54-3.39.84-1.01,2.33-.47,3.5-.2,19.12,4.34,38.27,8.46,57.75,10.86,10.28,1.27,20.59,1.88,30.94,1.45,2.64-.11,4.3.6,6.07,2.81,4.55,5.67,10.31,10.11,16.97,12.98,3.44,1.49,3.86,3.11,2.52,6.26-1.93,4.54-2.81,9.4-3.43,14.26-.89,7.04-.06,13.73,5.62,18.8,2.63,2.34,2.67,4.17.46,7.04-4.93,6.4-7.13,13.82-7.79,21.94-1.42,17.57,11.12,24.96,24.38,26.29,5.17.52,6.17,2.53,6.27,6.61.11,4.44.92,8.76,2.96,12.69,4.24,8.17,13.65,12.27,23.88,10.01,3.56-.79,4.82.02,6.11,3.3,3.89,9.87,9.3,18.5,20.48,21.63,2.58.72,2.81,3.44,3.53,5.49,8.98,25.53,6.63,50.53-2.97,75.44-9.08,23.57-26.94,39.71-45.21,55.72-12.97,11.35-28.81,15.39-45,18.86-6.51,1.39-12.97,3-19.45,4.5-1.51.52-2.39,1.7-3.16,3Z"/>
      <path class="cls-7" d="M109.92,268.45c-1.47-2.2-.82-3.96-.69-5.59.24-3.09-.06-5.69-3.77-6.35-3.8-.68-6.09,1.02-6.99,4.64-1.18,4.74-2.02,9.5-5.14,13.6-2.98,3.93-6.29,8.12-11.35,7-5.26-1.16-5.34-6.68-5.82-11.26-.64-6.19,1.22-11.82,3.95-17.17,1.47-2.88,1.99-5.76-.89-7.35-2.93-1.62-6.33-.99-8.28,2.23-1.71,2.84-2.85,6.02-4.55,8.86-2.17,3.62-4.97,3.63-7.35.1-1.16-1.72-2.31-3.54-2.43-5.75-.86-14.87,2.21-28.27,14.32-38.3,1.15-.95,2.96-1.55,2.02-3.67-.85-1.92-2.09-3.02-4.41-2.98-2.94.05-5.57.77-7.8,2.64-1.57,1.32-3.14,2.48-5.14,1.16-1.83-1.2-1.98-3.22-1.87-5.19.49-8.66,4.43-15.82,10.22-21.94,5.07-5.35,10.5-10.33,17.85-12.54,1.52-.46,3.19-1.3,2.86-3.23-.39-2.25-2-3.86-4.28-4.05-2.6-.22-5.25.21-7.87.14-5.16-.14-7.88-4.4-5.76-9.1,1.75-3.88,4.2-7.25,7.91-9.59,9.76-6.17,20.08-10.62,31.86-10.97,2.07-.06,4.4-.45,4.98-2.94.6-2.62-1.05-4.11-3.19-5.4-7.05-4.23-7.52-9.31-.39-13.73,6.96-4.31,14.08-9.66,23.35-6.47,1.31.45,2.92.46,3.69-1.12.82-1.69.61-3.12-.79-4.72-4.71-5.4-4.56-10.94.82-15.5,7.35-6.23,15.92-7.59,25.16-4.98,2.38.67,3.73,2.34,4.92,4.41,1.13,1.96,3.2,2.69,5.42,2.5,2.35-.2,2.49-2.33,2.73-3.94,1.29-8.72,9.03-11.9,17.99-7.42,1.72.86,3.4,2.2,5.22,2.43,8.25,1.05,10.13,7.71,12.63,13.85,1.02,2.52.66,4.67-1.67,6.51-6.86,5.42-13.99,10.03-23.3,9.4-1.25-.09-3-.78-3.51,1.21-.41,1.57-.2,3.15,1,4.42,1.36,1.44,3.12,2.16,4.95,2.84,8.65,3.19,10.88,12.81,4.39,19.66-5.71,6.02-12.51,10.18-21.12,10.48-1.68.06-3.24.11-3.64,2.14-.32,1.59.59,2.47,1.8,3.44,12.52,10.06,13.26,22.67,2.03,34.1-1.46,1.49-3.13,2.83-4.85,4.02-5.72,3.96-5.73,3.91-9.74-1.75-2.14-3.02-5.12-3.84-8.31-2.21-3.79,1.94-2.25,4.99-.9,7.7,4.66,9.36,1.71,23.66-6.21,30.09-2.55,2.07-4.41,3.19-5.83-1.26-1.24-3.9-4.74-4.53-8.25-3.29-3.66,1.29-3.16,4.54-2.02,7.08,5.16,11.42.88,21.19-5.08,30.63-2.66,4.22-5.78,8.16-8.87,12.48Z"/>
      <path class="cls-7" d="M325.62,96.36c9.42-1.47,17.73-4.03,24.68-9.83,2.97-2.48,5.92-1.37,8.88-.26,5.96,2.25,10.07,6.88,14.28,11.34,5.13,5.45,5.73,5.37,10.5-.07,2.41-2.75,5.13-5.29,7.98-7.59,2.97-2.4,5.92-2.05,7.96,1.41,2.75,4.67,4.53,9.56,1.96,14.93-1.51,3.16-.68,6.01,1.66,8.07,2.31,2.03,5,1.6,7.79.06,8.92-4.92,22.04,2.15,23,12.4.35,3.74-.97,6.94-5.08,8.16-2.12.63-5.01.75-4.31,4.03.66,3.11,2.69,5.29,6.11,5.61,3.07.28,5.82-.96,8.65-1.9,7.38-2.45,12.1-.05,14.68,7.37,3.55,10.22-.73,19.23-11.16,23.95-2.97,1.34-2.76,3.8-1.04,6.07,1.43,1.89,3.64,2.8,5.88,3.24,10.75,2.1,11.58,8.12,8.23,18.95-1.45,4.68-5.09,8-10.83,7.26-.69-.09-1.4.01-2.1.05-2.4.13-4.91.71-5.27,3.34-.34,2.45,1.66,4.12,3.78,5.19,8.66,4.35,10.35,9.07,6.15,17.89-2.15,4.52-5.5,8.11-9.45,11.12-.79.6-1.99,1.42-2.74,1.21-4.31-1.2-6.54,1.67-8.84,4.28-3.46,3.93-7.17,4.02-11.07.92-7.77-6.19-12.34-13.83-10.3-24.2.54-2.77.62-5.41-2.12-6.96-2.88-1.63-5.86-1.25-8.28,1-2.73,2.54-5.55,4.72-9.32,5.58-5.5,1.26-9.23-.42-11.24-5.74-2.6-6.87-1.51-13.81.08-20.71.57-2.48,2.42-5.37-.66-7.08-2.83-1.58-6-1.37-8.9.68-1.69,1.19-3.58,2.35-5.55,2.87-6.69,1.76-16.35-2-16.95-11.77-.51-8.32,1.63-15.62,6.95-21.94,2.82-3.35,5.83-6.55,8.95-9.63,1.82-1.8,2.84-3.37,1.33-5.92-1.41-2.37-3.1-3.6-5.97-3.22-9.27,1.24-10.54-.02-9.66-9.58.67-7.28,2.94-14.01,7.13-20.07,3.27-4.72,2.3-7.02-3.21-8.43-3.73-.95-7.5-1.83-11.09-3.17-4.43-1.65-8.47-4.04-11.44-8.92Z"/>
      <path class="cls-1" d="M288.56,47.29c-20.54-.26-37.62-5.03-54.77-9.39-3.23-.82-6.42-1.8-9.68-2.43-4.25-.81-3.84-2.5-1.33-5.06,10.69-10.92,23.78-17.07,38.69-19.72,6.96-1.24,13.97-1.25,20.98-1,16.69.59,31.12,13.34,34.04,29.85.59,3.36.12,5.17-3.86,5.45-8.91.63-17.79,1.68-24.06,2.29Z"/>
      <path class="cls-1" d="M306.12,87.71c-37.64-1.39-71.17-7.17-103.55-19.03-4.97-1.82-9.39-4.66-13.56-7.95-2.67-2.1-3.29-4.34-1.64-7.28,1.98-3.51,5.41-4.15,8.94-4.54.29-.03.88.59.95.98,1.41,7.72,7.97,9.95,13.87,12.2,29.18,11.12,59.58,13.94,90.52,12.38,7.16-.36,14.31-1.07,21.44-2.16,5.21-.8,8.1-2.84,7.59-8.4-.44-4.81,1.76-5.99,6.11-4.64,3.64,1.13,8.1,1.27,9.23,5.79,1.23,4.92-.25,9.14-4.29,12.69-4.36,3.84-9.21,6.49-14.84,7.43-7.94,1.33-15.87,3.06-20.77,2.52Z"/>
      <path class="cls-8" d="M279.85,64.21c-22.39-.08-44.38-2.64-65.26-11.35-1.95-.82-5.6-.84-4.03-4.63,1.33-3.21,2.69-6.11,7.62-4.75,17.53,4.85,35.02,9.9,53.02,12.8,9.96,1.6,19.94.78,29.91.26,4.73-.25,9.46-.44,14.19-.54,1.56-.03,3.64-.74,3.63,2.25-.01,2.8-1.57,3.65-3.93,3.84-8.74.71-17.47,1.47-26.21,2.09-2.97.21-5.96.03-8.94.03Z"/>
      <path d="M302.91,425.63c.08-2.02.99-3.18,3.16-3-1.05,1-2.1,2-3.16,3Z"/>
      <path class="cls-2" d="M266.6,290.83c-10.41.29-19.48-1.95-28.6-3.48-2.78-.47-3.56.21-4.63,2.41-5.5,11.33-12.67,14.63-25.34,11.72-2.17-.5-3.43-.36-4.67,1.77-2.3,3.96-4.5,7.93-5.79,12.34-1.31,4.48-4.57,5.06-8.26,3.84-3.96-1.3-4.04-4.59-2.64-7.77,3.18-7.21,6.91-14.16,9.77-21.53,1.48-3.81,6.19-4.5,9.17-1.76.77.7,1.37,1.59,2.01,2.42,5.89,7.51,11.24,3.7,15.26-2.6,2.31-3.62-2.51-9.51-7.82-9.9-1.57-.11-3.16.18-4.73.13-2.08-.05-4.4.16-5.18-2.52-.81-2.78.38-4.7,2.76-6.14,3.72-2.25,7.54-4.28,10.09-8.15,3-4.56,3.83-10.34,1.23-12.59-3.07-2.64-6.92-1.14-11.65,3.79-2.7,2.82-2.54,6.75-4.92,9.74-2.8,3.53-5.75,3.86-9.14,1.89-3.62-2.1-2.7-5.08-1.04-8.18,4.11-7.67,6.92-15.68,6.25-24.61-.4-5.35-1.66-6.28-6.55-3.89-6.99,3.41-11.11,8.9-11.42,16.89-.18,4.74,0,9.45.84,14.15.36,2.02.72,4.39-1.93,5.38-2.29.86-4.6.76-6.3-1.21-2.17-2.51-4.12-5.21-6.21-7.8-3.14-3.89-7.53-4.65-11.03-1.97-3.63,2.78-3.59,5.68-.16,10.47,3.09,4.31,6.86,6.9,12.44,6.13,2.41-.33,4.61.22,5.68,2.74.98,2.3-.06,3.98-1.75,5.54-3.7,3.42-5.78,7.92-7.78,12.39-1.79,4-4.88,4.55-8.21,3.09-3.59-1.58-2.58-4.91-.98-7.18,4.05-5.76,3.71-9-2.96-13.28-5.88-3.77-10.73-10.25-9.22-18.74,1.32-7.42,12.09-14.61,20.33-12.35,5.82,1.6,7.01-.59,7.54-5.29.72-6.42,4.24-11.07,9.77-14.12,3.61-1.99,4.79-4.37,3.65-8.58-1.19-4.38-1.05-9.06.17-13.53.73-2.67,1.3-5.91,5.2-5.35,3.83.55,5.73,2.92,5.59,6.96-.13,3.5.12,7.02.07,10.53-.03,2.04.54,3.2,2.78,3.63,9.24,1.77,11.8,8.47,11.62,16.71-.08,3.9.95,5.02,5.12,5.67,10.89,1.69,17.54,6.91,16.17,19.59-.36,3.31-1.36,6.12-4.15,8.13-2.81,2.02-2.48,3.57.41,5.45,7.41,4.83,15.79,6.46,24.24,8.13,18.64,3.68,35.84.52,51.41-10.51,4.34-3.08,7.54-7.29,10.15-11.92,2.56-4.54,7.1-6.49,10.18-4.4,3.18,2.16,3.32,6.1.1,10.71-10.44,14.96-25.13,23-42.85,25.9-5.01.82-10.06,1.58-14.14,1.1Z"/>
      <path class="cls-2" d="M405.47,301.92c2.88-3.93,4.05-8,4-12.48-.06-6.39-6.16-11.97-12.49-11.29-1.91.2-3.77.84-5.67,1.05-6.99.77-9.25-1.46-8.07-8.29.63-3.66.75-7.31.92-10.99.14-3.19.01-6.42-1.55-9.22-1.82-3.27-.05-4.98,2.34-6.4,2.76-1.64,4.92.07,6.18,2.17,2.73,4.55,4.37,9.45,3.71,14.96-.95,7.91-.85,7.92,6.83,9.27,8.7,1.53,17,8.35,18.06,14.85,1.7,10.42-2.49,20.7-10.68,25.41-3.35,1.93-5.2,5.08-7.68,7.75-4.61,4.97-9.01,10.52-16.9,10.05-.87-.05-1.95.1-2.58-.34-5.76-4.02-9.75-1.7-14.4,2.63-5.67,5.28-11.77,5.18-17.92,1.46-6.28-3.8-9.58-10.95-8.49-18.47.2-1.38.59-2.74.79-4.12.31-2.22-.27-3.02-2.89-2.66-6.26.84-12-1.34-14.67-6.95-2.77-5.82-4-12.4.95-18.31,6.7-8.02,14.21-14.63,25.3-15.23,2.99-.16,3.16-1.52,2.2-3.74-1.25-2.9-2.51-5.78-3.79-8.66-.96-2.15-2-4.77.44-6.12,2.48-1.38,5.73-1.35,7.53,1.5,4.68,7.45,8.34,15.42,10.91,23.83.92,3-.67,4.76-3.89,4.55-1.38-.09-2.81-.31-4.1-.8-9.24-3.51-22.15,1.8-26,11.03-1.22,2.93-1.52,6.46,1.01,8.93,2.34,2.29,4.94.32,7.27-.75,3.37-1.55,6.25-3.84,9.15-6.13,2.05-1.62,4.24-3.13,6.55-4.36,2.19-1.17,4.47-.84,6.27,1.03,1.65,1.71.87,3.53.07,5.35-1.15,2.63-2.88,4.82-4.96,6.73-5.63,5.19-6.96,11.87-7,19.12-.02,3.56,2.12,5.47,4.78,6.94,3.01,1.66,4.5-1.07,6.1-2.7,5.04-5.11,7.41-11.34,7.37-18.53-.02-4.51,2.96-8.04,6.34-7.77,3.18.25,5.15,4.1,4.4,8.79-.41,2.59-1.05,5.15-1.43,7.74-.36,2.4.12,4.59,2.4,5.94,2.33,1.39,4.34.61,6.24-.99,7.65-6.44,9.47-9.38,4.41-18.74-.5-.93-1.03-1.83-1.5-2.78-1.05-2.14-4.22-4.34-.59-6.61,3.43-2.15,6.96-1.48,9.21,1.91,2.11,3.17,3.6,6.75,5.51,10.44Z"/>
      <path class="cls-2" d="M298.85,159.19c-13.92-.08-22.16-9.75-20.18-23.69,1.91-13.5,9.32-21.67,22.57-24.92,11.77-2.88,23.2,6.49,22.49,18.65-.69,11.79-4.95,21.61-15.9,27.6-2.85,1.56-5.75,2.46-8.98,2.36Z"/>
      <path class="cls-2" d="M239.28,153.02c-13.21.18-18.31-4.7-18.68-16.63-.12-4.04.07-8.03,1.11-11.99,3.13-11.93,12.61-18.75,24.94-17.79,8.67.67,16.36,8.87,16.28,17.65-.09,10.27-2.8,19.34-12.01,25.42-4.01,2.65-8.26,3.68-11.64,3.35Z"/>
      <path class="cls-2" d="M266.72,167.63c14.8-1.05,22.08,6.76,24.78,18.28,3.06,13.03-8.55,28.59-21.72,30.94-8.21,1.47-15.97,1.82-23.43-2.35-15.18-8.49-12.76-32.21-.7-40.33,6.73-4.53,12.62-6.62,21.07-6.54Z"/>
      <path d="M215.2,188.75c-3.22.45-4.76-1.31-4.85-4.42-.08-2.72,2.01-3.68,4.17-3.6,2.78.1,5.1,1.32,5.03,4.71-.06,2.75-1.79,3.5-4.35,3.31Z"/>
      <path d="M226.54,177.09c1.98.78,4.88,1.15,4.39,4.44-.32,2.1-2.17,3.2-4.32,2.78-2.38-.47-5.07-1.13-4.91-4.3.14-2.7,2.3-3.12,4.84-2.92Z"/>
      <path class="cls-3" d="M326.22,185.95c-.2,2.92-1.65,3.92-3.9,3.68-2.58-.27-4.24-1.89-4.37-4.42-.13-2.52,1.77-3.18,3.93-2.99,2.54.22,4.26,1.41,4.35,3.74Z"/>
      <path d="M301.88,194.98c-3.15-.03-5.02-1.1-5.18-3.85-.12-2.02.54-3.99,3.07-3.88,2.76.13,4.58,1.78,4.77,4.56.14,1.97-1.03,3.25-2.67,3.16Z"/>
      <path d="M313.86,192.34c2.39.87,3.79,2.45,3.66,5.08-.11,2.29-1.63,3.04-3.62,2.72-2.34-.38-4.65-1.24-4.58-4.13.06-2.72,2.58-2.92,4.54-3.67Z"/>
      <path d="M204.04,183.02c-2.41-.43-3.67-2.16-3.71-4.35-.05-2.13,1.33-3.64,3.68-3.5,2.36.14,3.92,1.4,4.11,3.89.23,2.88-2.06,3.25-4.08,3.96Z"/>
      <path class="cls-3" d="M308.3,207.83c-.24,2.54-2.02,3.5-3.96,3.5-2.29,0-4.17-1.55-4.03-3.87.14-2.16,1.93-3.96,4.23-3.79,2.23.17,3.61,1.89,3.76,4.16Z"/>
      <path d="M312.33,178.7c0,2.33-1.01,3.69-3.46,3.5-2.34-.18-3.95-1.18-4.02-3.84-.05-2.03.53-3.46,2.88-3.37,2.43.1,4.56.63,4.61,3.7Z"/>
      <path class="cls-5" d="M208.96,199.33c-2.4.11-4.15-.65-4.03-3.42.1-2.39,1.68-3.15,3.85-3.22,2.76-.1,4.37,1.25,4.33,3.93-.04,2.58-2.15,2.73-4.14,2.71Z"/>
      <path d="M330.21,201.01c-.18,2.92-1.67,3.76-3.9,3.62-2.6-.16-3.66-1.76-3.59-4.18.07-2.38,1.47-3.51,3.76-3.24,2.43.28,3.55,1.91,3.73,3.81Z"/>
      <path d="M217.92,172.91c-2.53-.18-3.72-1.58-3.69-4.08.02-1.79.68-3.31,2.7-2.91,2.1.42,3.9,1.55,3.87,4.18-.02,1.91-.88,2.92-2.87,2.81Z"/>
      <path class="cls-5" d="M218.11,195.28c.4-1.52.35-3.44,2.49-3.4,2.35.04,3.18,1.89,3.39,3.85.18,1.64-.9,2.51-2.54,2.55-2.09.06-3.18-.99-3.35-3Z"/>
      <path class="cls-7" d="M146.05,183.07c-.9.52-1.3.9-1.73.95-.36.04-.75-.33-1.13-.51.28-.34.5-.85.86-.97.34-.11.81.19,2.01.53Z"/>
      <path class="cls-6" d="M259.75,208.61c-11.67-.35-17.24-10.32-12.17-21.81,3.77-8.54,19.72-13.66,27.76-8.99,4.23,2.46,6.08,5.92,5.62,10.86-1.15,12.3-9.57,20.29-21.2,19.94Z"/>
    </g>
  </g>
</svg>