<?xml version="1.0" encoding="UTF-8"?>
<svg id="Layer_1" data-name="Layer 1" xmlns="http://www.w3.org/2000/svg" viewBox="0 0 512 512">
  <defs>
    <style>
      .cls-1 {
        fill: #1c1c1c;
      }

      .cls-2 {
        fill: #269fda;
      }

      .cls-3 {
        fill: #e0062d;
      }

      .cls-4 {
        fill: #1f1f1f;
      }
    </style>
  </defs>
  <g id="UklqoY">
    <g>
      <path class="cls-1" d="M354.32,91.45c-2.91-1.17-3.75-2.92-3.89-5.74-.41-8.96-1.95-17.75-4.46-26.36-9.52-32.77-30.49-53.47-64.64-58.43-16.59-2.41-33.04-.2-48.57,7.74-20.81,10.64-37.61,24.56-44.62,47.87-.58,1.9-1.14,3.85-3.32,5.61,0-3.69.19-6.86-.04-10.01-.26-3.51-1.13-6.89-5.04-8.23-4.16-1.41-7.63-.14-10.9,2.66-3.05,2.59-1.06,7.93-4.01,9.25-3.16,1.44-7.46.21-10.9,2.19-.89.52-1.76,1.08-2.56,1.73-3.01,2.41-3.88,5.46-1.4,8.5,2.15,2.63,2.13,4.94,1.02,7.95-.8,2.16-1.18,5.07,1.29,6.6,3.37,2.09,3.23,4.73,2.34,8-1.37,5.05.69,9.24,5.31,11.41,6.86,3.2,16.18-.34,19.2-7.24.75-1.72.41-4.65,3.48-4.16,2.77.43,3.23,2.97,3.2,5.2-.08,5.97,1.79,11.52,3.37,17.12,5.81,20.62,17.56,35.84,38.67,42.71,4.54,1.48,8.72,4.01,13.14,5.88,2.55,1.08,3.52,2.69,3.45,5.53-.2,7.4.2,14.81-.07,22.21-1.17,32.11.57,64.34-3.94,96.31,1.87,48.01-.51,96.03.4,144.06.05,2.96.26,5.64-3.91,5.44-1.2-.06-2.33.61-1.74,1.8,3.07,6.24-2.24,5.02-5.07,5.66-18.88,4.27-34.24,13.15-42.27,31.79-.82,1.88-2.31,2.93-4.04,3.76-4.27,2.04-5.07,5.15-3.17,9.33,1.43,3.15,2.1,6.47,2.08,10-.04,8,2.79,11.49,10.65,13.26,10.37,2.34,20.53.97,30.42-2.46,2.95-1.03,5.03-2.38,7.91.86,2.53,2.87,6.86,2.79,10.72,2.31,5.13-.64,10.17-1.76,14.96-3.7,2.55-1.03,4.83-.95,7.39.09,6.28,2.56,12.82,3.75,19.66,3.07,2.88-.3,5.69-1.19,6.95-3.77,1.5-3.1,3.21-2.39,5.69-1.64,14.77,4.42,29.49,3.94,44.1-.87,1.55-.51,3.43-.64,3.84-2.84,1.18-6.22,3.31-12.3,3.04-18.75-.15-3.62-1.19-7.24-4.83-8.38-3.55-1.11-5.07-3.6-6.88-6.29-1.72-2.55-3.71-4.96-5.84-7.18-10.36-10.88-23.74-16.07-37.91-19.55-2.94-.73-3.72-1.18-1.92-4.14,2.96-4.85,1.96-6.46-3.78-6.11-3.47.22-3.44-1.29-3.39-3.88.5-23.91.94-47.84,1.3-71.76.95-62.99,2.13-125.97,5.18-188.9.15-3.35.73-4.99,4.38-5.91,13.22-3.33,25.03-9.39,34.53-19.46.58-.62,1.22-1.48,1.94-1.61,4.79-.87,8.3-3.11,9.56-8.12.38-1.54,1.84-1.28,2.99-1.44,5.26-.72,8.47-3.57,9.05-8.95.21-1.91.92-3.06,2.75-3.83,5.72-2.43,8.32-7.15,8.3-13.07-.03-6.27-3.43-10.8-9.17-13.1ZM288.52,434.13c-.37,2.91-1.93,4.19-3.94,5.01-.18.07-1.18-.97-1.1-1.34.56-2.44,2.35-3.27,5.03-3.67Z"/>
      <path class="cls-2" d="M250.04,443.26c3.06-4.5,2.79-7.45-1.94-8.91-2.22-.68-1.96-2.54-1.94-4.25.66-53.87.98-107.74,2.13-161.59.68-31.8,1.16-63.63,3.57-95.38.14-1.88.04-3.79.17-5.67.44-6.2-2.57-9.84-8.17-12.17-8.06-3.35-16.57-5.63-24-10.55-14.78-9.79-21.88-24.24-25.38-40.92-1.09-5.2-1.83-10.5-2.28-15.79-.25-2.88-1.27-4.06-4.07-3.89-1.2.07-2.41,0-3.61-.01q-8.71-.02-12.01,8.12c-1.18,2.89-2.28,5.85-6.28,5.82-2.64-.02-4.14-1.4-5.09-3.61-1.28-2.97-.1-5.37,2.03-7.38,1.62-1.53,3.43-2.85,5.11-4.33,1.08-.95,1.91-2.14,1.1-3.61-.96-1.73-2.61-1.47-4.09-.96-1.62.56-3.13,1.43-4.73,2.04-1.1.42-2.39.96-3.2-.47-.81-1.42-.25-2.64.88-3.67,1.86-1.7,4.38-1.89,6.56-2.87,1.52-.69,2.87-1.41,2.54-3.33-.35-2.04-2-2.07-3.6-2.05-1.2.02-2.41.17-3.61.11-1.6-.09-3.86.58-4.11-1.88-.24-2.44,1.59-3.75,3.75-4.22,3.43-.76,6.34.94,9.34,2.25,1.19.52,2.43,2.01,3.71,1.16,1.47-.98.75-2.85.62-4.31-.22-2.55-1.25-5.05-.67-7.66.48-2.19,1.65-4.11,4.1-3.81,2.42.3,1.61,2.63,1.72,4.21.22,3.15-.71,6.15-1.58,9.1-.91,3.08.38,4.43,3.11,5.33,6.91,2.28,10.01.91,12.72-5.9,8.61-21.7,21.89-39.47,43.74-49.15,28.39-12.58,68.94-9.7,90.11,21.59,11.34,16.75,16.03,35.57,16.45,55.55.09,4.28,1.26,6.19,5.74,6.48,6.64.43,9.74,7.75,5.83,13.12-1.03,1.42-2.06,1.85-3.02-.06-.31-.61-.59-1.24-.88-1.87-1.17-2.52-3.04-4.95-5.84-3.66-2.4,1.1-.86,3.89-.45,5.99.63,3.18,1.92,6.27,1.45,9.62-.29,2.06-1.25,3.97-3.33,4.04-2.87.09-1.5-2.5-1.65-3.89-.32-3.03.33-7.52-3.57-7.4-4.13.13-3.54,4.73-3.42,7.88.11,2.91.87,5.8.1,8.71-.54,2.02-1.22,4.43-3.75,4.17-2.45-.26-3.81-2.38-3.71-4.86.13-3.08.58-6.14,1-9.2.55-4.02-.34-6.14-4.96-4.38-1.99.76-4.68,2.19-5.87-.69-1.16-2.79,1.01-4.88,3.19-6.38,2.95-2.02,6.57-1.85,9.9-2.46,3.39-.62,4.74-2.01,2.94-5.18-2.1-3.7-2.74-7.74-3.2-11.85-.26-2.33-.63-4.81-3.65-4.6-3.27.22-2.69,3.03-2.71,5.18q-.11,9.07-6.92,13.83c-8.28,5.78-7.56,14.5,1.72,18.66,2.04.91,1.8,2.18,1.85,3.65.09,2.75-.37,5.78,1.38,8.01,3.06,3.91.82,5.96-2.06,8.28-9.14,7.33-19.58,12.13-30.75,15.19-4.45,1.22-5.37,3.5-5.58,7.58-1.53,30.26-1.69,60.54-2.3,90.83-1.16,58.16-3.32,116.3-3.04,174.48.01,2.43.84,5.15-3.75,4.75-3.91-.34-2.14,2.79-1.59,4.77.38,1.35,2.47,2.71.61,4.02-1.71,1.2-4,.85-6.03.5-1.92-.34-1.47-2.06-1.52-3.35-1.18-28.91-.48-57.8.69-86.7.7-17.19.48-34.42.67-51.63.35-31.5.53-62.99,1.12-94.49.27-14.26,1.74-28.51.85-42.79-.12-1.92,1.17-5.34-1.92-5.47-2.8-.11-3.98,2.97-4.46,5.59-1.37,7.51-.44,15.11-.53,22.65-.44,36.83.02,73.68-.68,110.51-.89,46.63-2.44,93.25-1.84,139.9.08,6.73-4.95,4.31-9.14,5.61Z"/>
      <path class="cls-3" d="M297.39,452.81c-1.16,2.74-3.21,2.98-4.87,3.79-1.29.64-2.45,1.36-2.21,3.06.23,1.64,1.6,2.16,2.86,2.62,1.49.55,2.69-.05,3.47-1.42.51-.89.93-1.83,1.42-2.74.88-1.64,1.59-3.88,4.09-2.52,1.95,1.06,3.74,2.4,2.41,5.29-3.01,6.56-5.18,13.42-6.64,20.49-.28,1.35-.59,2.65-2.52,2.63-1.78-.02-2.69-.49-3.26-2.39-3.39-11.4-8.82-21.56-18.29-29.17-1.83-1.47-.69-2.21.8-2.83,3.67-1.52,7.51-1.22,11.17-.48,3.81.77,7.46,2.32,11.56,3.66Z"/>
      <path class="cls-3" d="M251.96,450.05c-4.16,4.45-8.18,8.15-10.93,12.87-3.19,5.48-6.58,10.87-7.32,17.38-.14,1.22-.32,2.54-1.85,2.65-1.26.09-1.71-1.1-1.99-2.04-2.34-7.68-4.62-15.38-6.93-23.07-.62-2.05,1.19-2.15,2.24-2.81,1.15-.72,2.5-1.6,3.78-.56.99.8.98,2.11.51,3.33-.58,1.49-2.17,3.17.28,4.33,1.59.75,3.46.88,4.85-.45,1.94-1.87.37-3.58-.79-4.91-2.72-3.12-1.68-4.57,1.9-5.46,5.11-1.27,10.22-2.14,16.25-1.26Z"/>
      <path class="cls-3" d="M225.89,498.94c-2.1,2.92-4.7,3.46-7.1,4.18-8.6,2.57-17.22,2.39-25.94.31-3.93-.94-4.48-3.63-3.7-6.53.86-3.17,3.36-.97,5.03-.6,10.26,2.25,20.56,3.95,31.72,2.64Z"/>
      <path class="cls-3" d="M277.92,503.92c-3.1.23-6.49-.26-9.79-1.3-1.89-.59-3.34-1.56-3.7-3.8-.9-5.68.55-7,6.07-5.53,4.14,1.1,8.3,2.19,12.51,2.99,2.33.44,3.81.94,3.56,3.83-.24,2.79-1.31,4.09-4.16,3.83-1.37-.12-2.75-.02-4.49-.02Z"/>
      <path class="cls-3" d="M241.11,504.57c-3.19.37-4.71.1-4.6-2.05.11-2.01-1.22-4.94,2.05-5.5,6.06-1.04,12.11-1.98,17.85-4.3.96-.39,1.86-.02,1.78,1.04-.21,2.72.93,5.94-2.62,7.56-5.07,2.3-10.57,2.55-14.46,3.26Z"/>
      <path class="cls-3" d="M251.91,487.03c-21.18,7.06-42.39,9.71-63.64.54,20.62,5.67,41.04,3.16,61.42-1.67,1.03-.19,2.33-.93,2.22,1.13Z"/>
      <path class="cls-3" d="M207.65,484.68c5.52-1.7,8.32-4.53,9.62-8.74,1.02-3.31.44-6.29-3.05-7.71-3.15-1.28-4.25,1.4-5.25,3.52-1.45,3.07-2.11,6.06,2.55,7.03.22.05.35.5.62.91-3.14,2.48-4.94,1.6-5.57-2.15-.73-4.33,4.07-13.54,7.83-15.48,1.79-.93,2.03.45,2.58,1.41,3.16,5.45,4.3,11.5,5.22,17.62.39,2.6-1.1,3.47-3.21,3.55-3.38.13-6.76.04-11.33.04Z"/>
      <path class="cls-3" d="M276.71,481.23c5.29-6.75,5.11-8.27-1.03-12.32-.42-.28-.98-.49-1.22-.88q-3.59-5.91-8.93-4.26v-11.06c8.13,5.18,13.27,11.94,16.98,19.95.43.93.76,1.91,1.08,2.89.73,2.25,3.15,5.22,1.67,6.61-2.15,2.02-5.42.28-8.55-.93Z"/>
      <path class="cls-3" d="M339.3,492.18c.5,5.15-1.4,7.19-5.73,7.94-10.25,1.78-20.46,2.37-30.72.42-1-.19-1.99-.49-2.96-.81-.44-.14-.82-.46-2-1.15,14.48-.09,28.27.65,41.42-6.41Z"/>
      <path class="cls-3" d="M318.14,478.87c.04-1.19.25-2.42.08-3.58-.44-2.94-2.03-4.88-5.21-4.1-3.37.82-4.77,3.22-3.74,6.63.56,1.87,2.12,3.06,3.65,4.19.63.61.64,1.22.01,1.84q-8.95.68-6.18-7.87c1.06-3.26,2.31-6.47,3.29-9.76,1.25-4.21,2.9-3.61,5.34-.84,4.14,4.71,5.36,10.13,2.74,13.46,0,0,.02.04.02.04Z"/>
      <path class="cls-3" d="M249.93,477.81c-4.79,2.42-5.54,2.64-10.01,2.79,3.32-11.03,8.74-20.23,18.83-27.04.76,3.68,1.67,6.47-3.3,5.87-1.49-.18-3.87,1.1-3.76,2.19.6,5.76-8.02,7.2-6.01,13.48.73,2.28,2.16,2.9,4.26,2.74v-.02Z"/>
      <path class="cls-3" d="M196.66,473.29c1.64,1.96,3.19,3.97,5.86,4.74,2.37.69,3.08,3.21,2.77,4.93-.41,2.33-2.82.66-4.33.86-.48.06-1-.19-1.5-.3-7.91-1.78-8.41-3.56-2.8-10.23Z"/>
      <path class="cls-3" d="M258.78,450.53c-11.82,6.71-16.81,18.34-21.87,31.4-.51-11.78,10.31-27.22,21.87-31.4Z"/>
      <path class="cls-3" d="M320.49,468.51c-2.01-2.52-4.06-5.01-6-7.58-.67-.89-1.62-2-.28-3.08,1.08-.87,1.86.05,2.63.67,1.58,1.28,3.03,2.79,4.77,3.8,3.4,1.97,3.76,3.9.41,6.19-.51.62-1.02.56-1.53,0Z"/>
      <path class="cls-3" d="M312.93,483.84c0-.61,0-1.23-.01-1.84,3.3.75,5.97.53,8.81-2.17,2.77-2.65,7.78.34,10.81-3.29-2.13,4.84-9.74,7.48-19.6,7.3Z"/>
      <path class="cls-3" d="M307.59,491.14c3.88-1.68,8.06-.57,12.06-1.28,5.86-1.04,11.42-3.02,17.04-4.83l.05.06c-6.36,5.24-14.05,6.32-21.86,7.05-2.32-1.14-5.02.49-7.3-1Z"/>
      <path class="cls-3" d="M295.5,492.16c-9.93-.44-19.28-3.31-28.43-7.06,9.57,1.72,18.81,4.99,28.49,6.12.26.23.34.44.24.65-.1.2-.2.3-.29.3Z"/>
      <path class="cls-3" d="M301.02,481.93c1.38-7.51,3.23-14.82,7.45-21.28-2.1,7.25-3.49,14.72-7.45,21.28Z"/>
      <path class="cls-3" d="M320.49,468.51c.51,0,1.02,0,1.53,0-.12,2.27.04,4.48,2.78,5.08,2.28.49,3.43-.7,3.54-2.97-.28-.26-.35-.48-.21-.67.13-.17.25-.26.37-.26,2,.69,3.37,1.93,2.68,4.18-.52,1.7-1.67,3.02-3.75,2.92-2.28-.11-4.58-.34-5.51-2.87-.64-1.74-.97-3.6-1.43-5.4Z"/>
      <path class="cls-3" d="M225.37,479.94c-2.03-6.58-4.07-13.16-6.1-19.74,4.92,5.64,5.56,12.65,6.1,19.74Z"/>
      <path class="cls-3" d="M207.82,465.03c-1.43-4.16,1.12-8.17,4.71-8.2.41,0,1.06.19,1.2.48.39.84.04,1.65-.59,2.29-1.64,1.69-3.3,3.37-5.32,5.43Z"/>
      <path class="cls-3" d="M249.94,477.83c.26-.43.45-.91.78-1.27,1.02-1.11,1.76-2.29.19-3.41-2.07-1.47-1.69,1.77-3.57,2.19.27-2.94,1.18-4.78,3.81-4.8,2.64-.02,3.34,2.5,3.48,4.34.26,3.32-2.58,2.8-4.71,2.93,0,0,.01.02.01.02Z"/>
      <path class="cls-3" d="M282.03,465.34c4.88,4.93,5.87,11.52,6.87,18.11-2.35-5.98-4.69-11.97-7.04-17.95l.17-.15Z"/>
      <path class="cls-3" d="M205.83,469.03c-1.96,1.96-1.35,5.88-4.01,6.1-1.9.16-2.55-2.87-2.17-4.59.89-4.07,4.53.97,6.18-1.51Z"/>
      <path class="cls-3" d="M281.86,465.49c-4.59-4.62-8.57-9.83-13.6-14.03,6.01,3.22,11.11,7.34,13.77,13.88,0,0-.17.15-.17.15Z"/>
      <path class="cls-3" d="M318.12,478.84c-2.57,1.88-4.78,1.22-6.58-1.09-.95-1.22-.87-2.65.47-3.58,1.17-.82,2.62-1.03,3.78.02,1.33,1.21.16,1.76-.67,2.74-1.23,1.44-.99,1.64,3.02,1.96,0,0-.03-.04-.03-.04Z"/>
      <path class="cls-3" d="M288.01,446.93c4.97.03,8.43,1.25,11.64,3.51-3.82.21-7.23-1.23-11.64-3.51Z"/>
      <path class="cls-3" d="M272.63,472.63c-.85,2.22-3.01,4.25.31,7.5-2.84-1.13-5.69-1.16-5.51-2.6.32-2.5,2.59-4.19,5.24-4.85l-.04-.05Z"/>
      <path class="cls-3" d="M253.08,465.33c-.19-2.4.46-4.2,3.77-3.88,1.27.12,1.72,1.17,1.79,2.15.05.74-.27,1.85-.82,2.23-1.42.99-1.32-.54-1.88-1.27-2.21-2.84-.67,2.79-2.85.77Z"/>
      <path class="cls-3" d="M258.63,474.3c-2.88-1.13-2.83-4.09-4.33-6.24q5.32.8,4.33,6.24Z"/>
      <path class="cls-3" d="M295.5,492.16c-.04-.32-.02-.63.06-.94,4.01-.03,8.03-.05,12.04-.08,2.37.76,5.06-.76,7.3,1-6.46,0-12.93.01-19.39.02Z"/>
      <path class="cls-2" d="M277.59,439c-.55.68-.37,2.31-1.77,1.84-1.37-.46-1.68-1.97-1.96-3.26-.21-.97.21-1.67,1.35-1.35,1.37.38,2.36,1.16,2.38,2.77Z"/>
      <path class="cls-3" d="M205.28,464.26c-.21,1.36-.88,2.55-2.29,2.9-.97.24-1.58-.61-1.48-1.52.16-1.33.55-2.75,2.13-3.02.93-.16,1.38.72,1.64,1.63Z"/>
      <path class="cls-2" d="M247.94,436.47c.88.02,1.72.23,1.82,1.27.15,1.58-.7,2.61-2.2,2.85-.97.16-1.51-.69-1.53-1.59-.03-1.27.43-2.31,1.91-2.53Z"/>
      <path class="cls-3" d="M251.91,487.03c-.41-1.02-1.39-.92-2.22-1.13,2.49-.91,4.98-1.82,8.85-3.24-2.54,2.8-4.28,4.06-6.64,4.36Z"/>
      <path class="cls-3" d="M266,474.33q-.55-3.81,4.86-4.49c-1.87,1.73-3.27,3.03-4.86,4.49Z"/>
      <path class="cls-3" d="M210.71,476.41c-.48-2.33-.34-4.31,1.95-5.22.26-.1,1.04.32,1.08.57.38,2.4-2.61,2.68-3.03,4.65Z"/>
      <path class="cls-3" d="M220.41,453.94c1.17-3.24,3.72-3,6.43-3.85-1.53,3.02-3.81,3.26-6.43,3.85Z"/>
      <path class="cls-3" d="M303.29,452.23c2.16-.51,3.43.09,4.25,1.5.13.21-.31,1.09-.61,1.17-2.02.49-3.04-.63-3.65-2.67Z"/>
      <path class="cls-3" d="M272.67,472.68c2.73-1.93,4.7-1.77,6.08,2.82-2.6-1.28-3.79-3.62-6.12-2.87,0,0,.04.05.04.05Z"/>
      <path class="cls-3" d="M328.5,469.68c.02.32-.03.63-.16.93-.45-.18-.89-.46-1.36-.51-1.01-.12-.04,3.05-2.04,1.29-.39-.35-.58-1.26-.44-1.81.32-1.33,1.51-1.12,2.44-.91.57.12,1.04.66,1.55,1.02Z"/>
      <path class="cls-3" d="M336.69,485.03c1.29-1.9,2.57-3.83,6.05-4.15-1.92,2.48-3.59,3.85-5.99,4.21,0,0-.05-.06-.05-.06Z"/>
      <path class="cls-4" d="M260.39,105.04c-19.7.74-41.08-11.2-45.19-33.54-.36-1.96-1.06-3.19-3.4-2.66-.89.2-2.35.52-2.42-.95-.04-.86.63-1.97,1.31-2.62,2.31-2.21,5.21-3.3,8.35-3.66,1.74-.2,3.8-.07,4.73,1.4,1.17,1.87-1.53,1.7-2.11,2.76-1.26,2.31-.69,4.7-.09,6.98,2.76,10.5,9.19,17.81,19.21,22.06,19.46,8.26,46.29,1.93,58.76-13.98,3.12-3.98,5.27-8.42,6.26-13.4.44-2.19,1.37-4.18-2.19-5.02-3.1-.72-1.44-2.75.16-3.38,3.97-1.57,8.1-1.5,11.97.45,1.5.75,2.87,2.33.08,3.08-2.16.58-2.41,1.93-2.93,3.64-7.61,25.04-26.34,38.87-52.48,38.84Z"/>
      <path class="cls-4" d="M280.23,33.67c3.88.05,6.5,3.18,6.48,7.74-.02,6.11-3.9,11.42-8.29,11.33-4.23-.08-7.05-4.03-6.95-9.75.09-5.68,3.58-9.39,8.76-9.33Z"/>
      <path class="cls-4" d="M245.78,43.39c-.2-1.9.5-3.79,1.49-5.64,1.63-3.02,3.97-4.66,7.53-4.05,3.62.62,3.53,3.76,4.19,6.32.49,1.9-.12,3.78-.75,5.53-1.31,3.65-3.04,7.61-7.7,6.69-4.22-.83-4.9-4.76-4.76-8.85Z"/>
    </g>
  </g>
</svg>