<?xml version="1.0" encoding="UTF-8"?>
<svg id="Layer_1" data-name="Layer 1" xmlns="http://www.w3.org/2000/svg" viewBox="0 0 512 512">
  <defs>
    <style>
      .cls-1 {
        fill: #e7520e;
      }

      .cls-2 {
        fill: #1c1c1c;
      }

      .cls-3 {
        fill: #0997d4;
      }

      .cls-4 {
        fill: #0796d3;
      }

      .cls-5 {
        fill: #fff;
      }

      .cls-6 {
        fill: #f2a7bc;
      }

      .cls-7 {
        fill: #0495d3;
      }
    </style>
  </defs>
  <g id="TbgJtc">
    <g>
      <path class="cls-2" d="M117.74,124.04c-4.16,8.86-11.42,10.29-19.52,8.84-3.21-.58-4.33.43-5.4,2.94-2.63,6.13-3.61,12.37-2.84,19.08.92,8.07-.09,8.82-8.04,7.55-7.89-1.26-15.55-3.57-23.67-3.84-6.31-.21-7.51-3.46-4.55-9.12,2.2-4.2,6.21-7.31,7.76-12.72-10.28,3.66-15.17,16.46-28.4,14.23,6.66-10.35,14.96-18.1,26.08-23.07-1.42-2.25-3.05-1.03-4.49-.68-4.03.99-7.46,3.31-11.14,5.1-3.01,1.47-6.02,3.08-9.52,2.88-1.89-.11-4.21-.61-4.71-2.38-.49-1.73,1.76-2.46,3.15-3.3,3.14-1.89,6.25-3.82,9.17-6.41-3.71.58-7.4,1.41-11.13,1.65-1.7.11-4.34-.06-4.85-1.98-.57-2.11,1.91-2.92,3.46-3.72,6.94-3.58,14.61-4.21,23.27-5.3-4.77-4.43-10.29-6.15-15.03-9.07-1.1-.68-2.29-1.26-3.51-1.7-2.12-.76-4.05-2.19-3.12-4.34.98-2.27,3.61-1.83,5.39-.7,7.88,4.98,17.17,7.28,24.62,13.03.75.58,1.47,1.03,3.14.44-4.71-6.97-5.03-15.9-11.7-21.6-1.11-.95-1.52-2.17-1.23-3.51.38-1.72,1.88-1.51,3.17-1.5,10.13.08,19.93-2.49,29.86-3.87,14.47-2.02,16.87.55,12.02,14.24-1.55,4.38-3.16,8.73-3.08,13.92,4.67-1.16,9.08-2.42,13.7-1.32,4.49,1.07,8.27,3.01,10.08,7.7,7.3-8.21,12.82-9.31,24.16-4.89-.26-5.03-1.68-8.44-7.18-9.78-6.61-1.61-12.53-4.81-16.29-10.94-4.88-7.96-3.4-15.04,4.3-20.12,15.95-10.52,34.08-13.5,52.59-14.99,6.69-.54,13.42-.75,20.14-.79,2.93-.02,4.35-1.15,5.35-3.77,11.97-31.6,45.9-57.63,85.88-48.27,17.13,4.01,31.31,11.63,42.29,25.16,3.7,4.56,5.03,10.37,6.45,15.93.75,2.95,2.01,3.73,4.89,3.96,11.52.92,23.01,2.08,34.4,4.23,11.62,2.19,21.72,7.5,31.39,13.92,4.89,3.25,7.44,8.27,9.6,13.47,1.4,3.35-.28,6.36-2.17,8.79-5.16,6.66-10.9,12.62-19.29,15.48-8.47,2.89-16.99,5.68-25.78,7.17-4.99.85-6.87,3.12-6.76,8.12,3.39-1.53,6.38-3.59,9.94-4.48,5.28-1.33,10.12-.92,13.98,3.09,2.32,2.42,4.26,2.16,6.81.62,6.07-3.67,12.09-4.94,17.77.91.64.66,1.94,1.98,2.79.71,1.59-2.37,4.59-4.19,4.12-7.51-.67-4.77-1.57-9.53-2.66-14.22-.59-2.54-.39-4.57,2.17-5.55,10.2-3.92,20.54-7.15,31.48-3.09,8.38,3.11,9.18,6.19,4.08,13.65-.89,1.3-2.37,2.45-1.79,4.68,4.83-1.65,8.65-4.94,13.01-7.21,3.36-1.74,6.81-3.03,10.68-2.67,2.5.23,4.41,1.66,4.82,3.92.49,2.69-1.54,3.64-4.02,4.3-3.49.94-7.06,2.01-10.34,5.48,4.48.34,8.13.57,11.77.92,1.84.18,3.72.39,5.47.94,2.85.9,6.43,2.36,5.57,5.67-.79,3.08-4.45,2.47-7.3,1.96-6.35-1.13-12.63-.47-19.27.93,3.26,2.62,7.17,1.79,10.5,2.95,3.81,1.33,9.79,2.08,9.19,6.36-.45,3.23-6.51,1.42-10.08,1.42-3.88,0-7.67-1.6-12.31-.69,2.88,2.25,5.44,4.21,7.94,6.23,2.09,1.68,3.68,3.76,3.95,6.51.15,1.51-.26,3.18-1.76,3.79-1.34.54-2.55-.48-3.26-1.62-3.81-6.16-10.1-6.78-16.87-8.07,1.72,7.73,2.4,14.91,2.37,22.14-.02,6.42-1.81,7.28-7.79,5.36-9-2.88-18.15-5.34-27.32-7.63-8.84-2.21-10.15-5.22-5.06-12.72,2.09-3.08,4.11-6.21,6.07-9.38.98-1.59,2.06-3.38,0-4.95-2.33-1.77-2.8.97-3.78,1.88-8.21,7.62-15.99,7.93-23.99.15-3.29-3.2-5.13-1.21-7.63.84,9.39,10.48,17.29,21.92,23.53,34.54,8.05,16.28,10.29,33.69,10.86,51.51.07,2.28-1.25,5.5,3.32,5.46,3.48-.04,5.5-.04,5.85-4.78.54-7.27,3.43-14.07,8.09-19.92,2.73-3.43,6.02-6.06,10.25-7.44,10.04-3.28,17.33,1,19.53,11.28,1.41,6.61,1.38,13.03-2.04,19-2.58,4.49-.73,5.46,3.57,6.13,9.65,1.52,14.4,6.02,15.81,14.07.64,3.68.19,7.39-2.43,9.94-2.24,2.17-1.66,3.47-.25,5.5,1.71,2.46,2.76,5.27,3.15,8.27,1.09,8.29-1.89,12.88-10.07,14.54-3.48.71-4.31,1.5-3.62,5.33,1.94,10.87-5.88,24.34-19.99,22.96-1.48-.15-2.98-.14-4.47-.22-12.34-.7-19.51-7.21-21.35-19.38-.61-4.02-3.32-3.21-5.85-3.15-8.05.17-8.24.19-7.46,7.95,2.35,23.33-2.45,44.92-13.32,65.77-7.01,13.45-16.38,24.24-28.48,32.79-16.6,11.73-33.76,22.51-53.47,28.54-4.05,1.24-7.49,4.15-11.82,4.88-2.41.41-2.61,2.34-2.67,4.28-.21,6.53-.2,13.08-.67,19.59-.23,3.24,1.88,3.68,3.93,4.36,9.89,3.3,19.7,6.79,29.1,11.37,5.38,2.62,10.37,5.83,15.28,9.26,7.9,5.52,6.94,13.96,5.99,21.33-.72,5.59-5.88,9.81-11.73,11.66-15.56,4.94-31,2.53-46.31-1.33-9.01-2.27-17.96-4.9-26.53-8.5-5.54-2.32-10.54-1.96-16.14.09-13.27,4.86-26.86,9.07-40.73,11.64-12.38,2.29-24.62.44-34.68-8.08-8.09-6.85-7.54-18.48,1.44-24.3,11.17-7.24,23.63-11.64,36.81-13.85,1.47-.25,2.97-.25,4.46-.39,4.86-.48,7.12-2.48,6.28-7.98-.99-6.43-1.28-13.02-1.2-19.54.05-4.03-1.68-4.52-4.96-4.64-13.28-.49-26.38-2.56-39.18-5.98-9.88-2.64-19.28-6.96-28.33-11.64-13.38-6.92-26.23-14.67-36.9-25.76-6.85-7.11-11.95-15.16-16.82-23.57-17.45-30.15-24.68-62.95-24.12-97.4.32-19.53,3.54-38.72,8.82-57.8,8.1-29.26,21.94-55.16,40.45-78.82,3.82-4.89-2.53-4.57-3.1-7.29Z"/>
      <path class="cls-1" d="M259.55,471.85c-.34-14.75,3.04-29.27,2.61-44.06-.12-3.98-.15-6.35-4.7-6.96-4.8-.64-6.64,1.74-6.47,5.89.76,18.85-4.29,37.43-2.59,56.3.39,4.34-1.31,6.18-5.3,7.51-14.3,4.78-28.43,10.1-43.82,10.05-4.5-.01-8.95-.64-13.17-2.12-5.43-1.91-6.7-6.47-3.23-11.04,1.94-2.55,4.39-4.53,7.47-5.67,13.08-4.84,26.42-8.78,40.13-11.39,3.27-.62,4.8-2.22,4.53-5.74-.89-11.69-1.27-23.44-2.57-35.08-.46-4.12-3.76-7.24-8.53-7.12-21.82.57-42.04-4.95-62.21-13.29-34.1-14.1-55.91-38.62-67.81-72.83-9.49-27.25-12.91-55.17-10.53-84.05,1.64-19.87,5.96-39.21,13.11-57.38,8.78-22.29,20.07-43.69,36.75-61.6,4.21-4.52,10.02-7.19,13.63-12.35,1.04-1.48,2.38-.47,3.47.16,4.27,2.45,8.95,2.35,13.57,1.98,4.81-.39,8.87-2.36,9.31-7.83.27-3.28,2.01-3.73,4.46-3.3,21.5,3.83,43.24,5.23,65,6.2,16.97.76,33.96.89,50.94-.11,10.04-.6,20.1-1.04,30.14-1.67,2.47-.16,4.24.64,5.88,2.43,4.88,5.3,11.02,7.61,18.14,6.72,3.16-.4,5.38.48,7.32,2.84.81.99,1.86,1.89,2.97,2.51,24.65,13.76,35.36,36.77,41.5,62.72,2.79,11.81,4.31,23.79,3.08,35.99-.37,3.64,1.64,5.57,5.29,5.66,6.69.16,13.39-.36,20.07.93,4.44.86,6.58-1.37,6.38-6.01-.26-5.96-.38-11.95,2.25-17.56,2.01-4.28,4.25-8.29,8.98-10.22,2.82-1.15,4.1-.53,4.4,2.66.98,10.41-1.79,19.49-8.92,27.26-1.55,1.69-5.11,2.94-2.64,6.28,2.22,3,5.33,4.05,8.93,2.89,2.29-.74,4.42-2.02,6.73-2.69,5.99-1.75,11.69.56,13.09,4.89.97,3.02.4,5.04-2.69,6.23-2.61,1.01-5.1,2.28-8.05,1.97-1.29-.13-2.64-.15-3.91.07-3.25.57-7.76.9-7.57,4.88.17,3.34,4.27,4.11,7.64,4.12,2.8,0,5.64-.16,8.39.23,5.55.8,7.53,3.47,7.11,8.71-.44,5.5-4.25,5.77-8.45,5.75-2.33,0-4.4-.81-6.45-1.64-1.83-.74-3.51-.95-5.4-.21-2,.79-3.99,1.8-4.21,4.01-.24,2.43,1.89,3.35,3.85,4.15,6.48,2.66,8.49,6.56,6.62,12.97-1.1,3.79-3.01,7.1-7.47,7.18-5.76.1-11.16-1.07-14.54-6.5-2.18-3.5-2.67-7.39-2.18-11.33.69-5.44-2.75-6.86-6.7-6.15-7.84,1.41-15.64.47-23.45.62-7.3.14-8.53,2.13-6.94,9.22,6.06,27.12.97,52.4-13.06,76.14-11.62,19.66-29.69,31.62-49.65,40.94-10.92,5.1-22.33,9.25-33.91,12.78-7.27,2.22-11.68,8.48-11.01,15.8.61,6.59-.62,12.99-1.44,19.44-.85,6.63.76,8.62,7.27,9.76,16.02,2.8,30.46,9.71,44.07,18.25,4.98,3.13,4.83,9.06,3.93,14.27-.78,4.47-4.67,4.87-8.59,5.49-19.13,3.04-36.86-2.45-54.56-8.39-3.18-1.07-6.2-2.68-9.44-3.45-5.37-1.28-7.95-4.03-6.93-9.8.42-2.36.07-4.84.07-7.27Z"/>
      <path class="cls-6" d="M197,62.28c-3.61,7.88-2.3,11.32,5.62,13.48,15.47,4.23,31.23,7.48,47.23,8.6,24.82,1.74,49.6,1.61,73.73-5.92,5.55-1.73,10.78-4.09,15.48-7.59,3.24-2.41,4.64-4.85,1.06-8.12-1.24-1.13-2.6-2.5-1.96-4.34.75-2.15,2.86-1.32,4.38-1.32,18.12.03,35.59,3.31,52.06,11.03,12.51,5.86,13.17,10.8,3.01,19.82-4.59,4.07-10.09,6.19-15.8,8.08-26.29,8.71-53.46,11.28-80.94,12.43-30.04,1.27-60.03,1.9-90.02-1.11-24.32-2.44-48.44-5.8-71.73-13.6-3.73-1.25-7.31-2.81-10.41-5.32-5.26-4.27-5.28-7.69.3-11.47,7.34-4.98,15.61-7.87,24.19-9.86,14.22-3.3,28.69-4.23,43.81-4.81Z"/>
      <path class="cls-6" d="M266.01,51.21c-14.25,2.17-30.91-2.93-47.7-7.22-3.05-.78-2.17-1.97-1.18-3.78,11.48-21.04,39-34.13,62.79-29.82,14.24,2.58,27.37,7.44,36.94,19.01,8.57,10.35,7.75,12.74-4.81,16.34-13.93,3.99-28.28,4.45-46.04,5.47Z"/>
      <path class="cls-5" d="M275.24,75.85c-21.32.23-43.09-2.23-64.57-7.58-3.78-.94-4.16-2.77-3.7-5.87,1.63-11.16,2.58-11.71,12.93-8.53,24.89,7.64,50.28,8.17,75.85,4.73,8.85-1.19,17.63-2.95,26.39-4.71,2.89-.58,3.91.23,4.62,2.99,2.23,8.62,2.37,8.67-6.17,12.12-14.31,5.78-29.53,5.7-45.36,6.86Z"/>
      <path class="cls-4" d="M80.05,90.16q7.81-.05,5.66,7.18c-.11.36-.27.69-.37,1.05-2.91,9.8-4.5,10.67-14.01,7.66-1.44-.46-7-10.89-6.55-12.35.49-1.56,2.03-1.55,3.19-1.75,4.01-.71,8.05-1.21,12.08-1.79Z"/>
      <path class="cls-3" d="M421.79,97.49c6.16,0,11.49-.02,16.81.01,1.75,0,2.13.86,1.69,2.55-1.08,4.13-1.92,8.32-2.96,12.45-.78,3.1-3.72,2.7-5.91,3.22-2.08.5-3.06-1.38-3.5-2.91-1.45-5.14-3.38-10.08-6.14-15.32Z"/>
      <path class="cls-3" d="M72.88,133.47c-2.98-.05-4.97-1.45-5.59-4.4-1.04-4.92,1.02-8.76,4.74-11.67,3.89-3.04,7.78.5,11.7.51.34,0,.85,1.51.98,2.36.82,5.5-6.26,13.35-11.83,13.19Z"/>
      <path class="cls-4" d="M421.19,152.99c4.06-5.36,8.52-8.71,15.01-8.73,2.08,0,3.44.14,4.06,2.55.87,3.35,3.69,7.09,1.23,9.93-1.75,2.02-5.48-.4-8.29-.96-3.92-.77-7.79-1.79-12.02-2.79Z"/>
      <path class="cls-3" d="M87.64,150c-7.54,1.77-12.93,3.04-18.33,4.29-3.21.74-4.67-.38-3.88-3.79.21-.9.31-1.84.55-2.73,1.65-5.98,8.81-8.26,13.77-4.35,2.3,1.82,4.51,3.75,7.89,6.59Z"/>
      <path class="cls-7" d="M438.59,127.21c0,5.11-4.44,10.38-8.96,10.35-4.01-.02-6.09-2.51-6.45-6.24-.4-4.12,5.66-7.81,12.23-8.01,3.13-.09,3.24,1.68,3.17,3.89Z"/>
      <path class="cls-2" d="M264.09,285.85c-5.89-.41-10.64-2.1-13.85-.58-3.25,1.54-.89,6.86-1.76,10.54-2.82,11.99-21.14,20.87-31.68,12.99-6.12-4.58-6.5-3.8-8.93,3.45-1.28,3.82-1.97,9.96-7.86,7.7-4.88-1.86-1.67-6.81-.76-10.31,1.18-4.52,3.44-8.59,6.03-12.52,3.48-5.3,7.17-5.39,10.24.08,1.92,3.42,10.62,8.33,13.87,7.83,4.88-.76,9.26-5.65,10.16-11.35,1.2-7.61-4.06-12.8-11.62-11.21-2.64.55-5.33,1.72-6.45-1.8-1.08-3.4,2.21-3.77,4.13-4.94,1.75-1.06,3.85-1.65,5.38-2.93,1.82-1.53,5.33-3.07,3.14-6.08-2.07-2.83-5.27-5.03-9.23-2.79-2.26,1.28-4.32,2.92-6.57,4.22-1.39.8-2.94.71-4.1-.56-1.17-1.29-.98-2.96-.16-4.18,1.23-1.84,2.69-3.62,4.39-5.03,3.78-3.15,4.81-7.9,7.08-11.89,1.62-2.84-1-5.25-4.56-4.67-6.6,1.08-12.21,8.33-11.25,15.02.44,3.09-.28,5.31-3.25,6.08-3.09.8-5.42-.29-6.31-3.77-.98-3.83-2.55-7.39-5.57-10.14-3.67-3.35-8.24-3.64-11.62-.7-3.44,3.01-4.28,9.21-1.35,12.67,2.51,2.96,5.36,5.65,9.12,7.18,2.7,1.1,3.14,2.68.89,5.03-4.35,4.54-9.51,8.41-12.02,14.55-.56,1.36-2.1,2.93-4.07,1.89-1.73-.91-1.86-2.52-1.36-4.36,1.12-4.13,3.92-7.17,6.64-10.19,1.91-2.12,2.99-3.28-.36-5.33-7.31-4.49-10.37-11.03-7.44-19.56,1.19-3.48-1.46-5.75-2.76-8.13-6.49-11.87-8.06-25.02-10.41-37.95-2.75-15.11-1.41-30.01,3.34-44.61.46-1.41.86-2.84,1.4-4.22.96-2.5,3.18-3.09,5.46-2.99,2.88.12,2.98,2.85,2.87,4.61-.21,3.3-1.08,6.58-1.84,9.83-5.81,24.84-1.01,48.32,9.08,71.11.88,1.99,2.07,3.17,4.77,2.33,5.76-1.8,11.17-.14,15.82,3.26,2.5,1.83,3.56,1.44,5.29-.77,3.06-3.92,7.24-6.52,11.94-7.96,4.78-1.46,9.73-1.82,13.51,2.34,3.55,3.9,3.51,8.9,1.58,13.17-1.89,4.21-2.02,6.1,2.78,8.01,5.17,2.05,8.67,5.91,6.44,12.36-1.01,2.94,1.62,3.31,3.38,4.07,7.89,3.4,16.31,2.43,24.32,1.66,22.02-2.1,41.97-9.81,58.58-24.93,17.31-15.74,25.72-35.64,27.32-58.73.64-9.3,1.31-18.53-2.14-27.54-.79-2.06-.48-4.72,2.66-5.13,3.32-.43,7.07-1.16,8.35,3.28,1.87,6.47,2.9,13.15,2.24,19.87-.89,9.06-1.94,18.1-3.77,27.06-4.63,22.59-17.75,39.23-35.76,52.73-19.36,14.51-41.32,21.28-63.4,22.93Z"/>
      <path class="cls-2" d="M255.42,167.71c5.74.08,11.57.21,16.37,4.87,8.76,8.51,10.46,17.91,4.75,28.8-5.79,11.04-23.34,19.18-35.6,16.51-11.86-2.58-19.32-14.78-16.83-26.72,2.45-11.76,15.56-25.12,31.31-23.46Z"/>
      <path class="cls-2" d="M276.34,155.46c-.39-4.81.36-8.58,1.78-12.28,3.46-9.02,9.59-12.7,18.62-11.04,7.59,1.4,12.24,7.92,11.78,17.07-.18,3.5-.93,6.98-2.31,10.28-3.8,9.07-11.68,13.49-21.36,11.74-5.75-1.04-7.52-5.56-8.45-10.49-.37-1.98-.06-4.08-.06-5.27Z"/>
      <path class="cls-2" d="M210.14,154.04c-.17-6.49.79-11.93,3.99-16.77,3.84-5.8,10.72-7.7,17.78-5.03,5.95,2.24,7.39,5.47,6.71,13.49-.41,4.89-1.32,9.56-3.58,13.93-3.56,6.87-12.85,10.05-19.71,6.61-5.53-2.77-5.58-7.84-5.19-12.24Z"/>
      <path class="cls-1" d="M248.06,210.47c-8.26-.03-14.32-5.79-14.29-13.58.04-11.8,9.67-22.3,20.44-22.28,9.37.01,15.41,6.25,15.39,15.89-.02,11.46-9.25,20.02-21.55,19.97Z"/>
    </g>
  </g>
</svg>