<?xml version="1.0" encoding="UTF-8"?>
<svg id="Layer_1" data-name="Layer 1" xmlns="http://www.w3.org/2000/svg" viewBox="0 0 512 512">
  <defs>
    <style>
      .cls-1, .cls-2, .cls-3, .cls-4 {
        fill-rule: evenodd;
      }

      .cls-2 {
        fill: #004a98;
      }

      .cls-3 {
        fill: #f32735;
      }

      .cls-4 {
        fill: #a88032;
      }
    </style>
  </defs>
  <g>
    <path class="cls-1" d="M471.73,191.69c6.94-.22,15.97.88,22.57,5.18,6.61,6.61,12,14.43,14.87,24.78.44,16.74-10.35,27.09-27.09,26.65-1.65,2.09-.44,5.07-1.43,8.15-1.65,5.07-8.15,14.21-12.22,17.84-3.63,3.19-8.48,4.85-13.65,2.97-3.19,4.96-3.19,10.9-5.18,15.97-5.51,13.88-13.54,28.08-23.35,38.54-2.31,2.53-3.85,4.96-5.95,7.38-3.19,3.85-8.59,7.16-12.55,11.45-4.18,4.4-8.04,8.26-12.55,11.45-11.89,8.37-23.35,15.09-36.34,20.7,2.09,9.91,5.18,21.14,0,29.29-3.41,5.4-9.69,7.05-14.87,9.58-1.54,4.63-.44,8.81,0,13.32,1.65,15.2,3.96,30.61,7.38,46.36,1.21,5.62,5.07,15.75,2.64,20.04-.99,1.54-2.31,1.98-4.85,2.97-2.09.88-3.85,2.09-5.18,2.64-10.13,3.41-29.07,2.42-32.27-7.38-.99-2.97-.66-10.57-.33-15.2.66-9.8,1.54-19.82,1.1-29.62-.44-10.13-1.1-19.93-.33-28.52-9.47.55-16.63.99-26.65,1.43-1.54,14.65-.99,32.6-.33,48.89-1.76,4.07-4.85,4.63-11.12,6.28-10.79,2.75-23.9.66-27.42-7.82.66-14.98,4.85-30.39,2.97-46.69-7.93.66-19.49-.77-27.09-.77-5.62,26.54-6.17,56.16-11.45,80.83-6.28,3.85-18.06,5.07-26.65,1.43-5.07-2.09-13.32-7.93-14.43-12.55-1.65-6.5,1.87-11.34,2.2-17.84-1.32-1.98-4.18-1.43-6.72-1.1-27.75-7.49-63.1-10.35-76.75-33.37-1.32-3.63.11-6.61-.77-9.58-1.1-3.96-8.26-8.04-11.45-11.12-3.41-3.3-8.48-8.7-8.48-13.65s4.07-11.01,7.82-12.99c2.09-1.1,5.73-1.87,8.15-2.2,16.74-2.31,40.52,5.73,54.84,8.15,1.65-7.93,3.3-15.64,6.72-21.91-6.06-5.07-13.54-7.16-20.37-10.79-6.28-3.3-12-7.82-18.17-11.45-6.17-3.74-11.89-7.49-17.4-11.89-5.18-4.07-9.91-9.58-14.43-14.87-9.8-11.23-18.5-22.9-26.32-36.34-10.24-17.73-16.52-37.22-19.27-62.66-.33-2.53.11-6.28-.77-8.15-.77-1.65-3.74-2.97-4.85-4.07-2.53-2.53-4.63-6.17-7.05-9.58-2.31-3.3-4.96-6.39-6.72-10.02-6.83-14.43-10.46-35.24-4.07-54.07,5.73-17.07,16.85-29.73,28.52-41.52-.11-14.65,5.62-26.43,18.5-29.29.77-12,10.57-17.95,19.6-23.02-.66-20.04,14.32-29.29,35.57-28.85,7.16.11,10.24,5.4,14.43,9.58,12.77-9.03,27.42-15.42,43.39-20.7,15.31-5.07,31.71-10.79,49.99-12.99,4.4-.55,10.02-.55,14.1-.77,21.8-.88,43.28,1.54,64.09,3.3,9.8.88,20.15,4.18,28.85,7.05,14.43,4.63,27.42,11.78,39.97,18.94,8.26,4.63,15.42,10.68,23.02,16.3,22.35,16.41,40.41,37.33,54.51,62.66,4.63,8.37,8.37,17.62,12.55,26.65,4.29,9.14,8.81,18.39,11.45,27.42,2.97,10.46,2.42,19.93,7.05,29.18ZM475.47,231.77c1.87,2.42,3.52,5.4,6.28,6.28,7.93,2.53,14.1-4.63,15.53-9.25,2.64-8.81-4.96-23.02-10.79-25.99-3.63-1.87-10.46-2.2-14.1-.77-2.09.88-5.18,4.74-9.58,4.07-1.76-.22-5.51-3.3-5.95-5.51-.44-1.98.66-4.29.77-6.28.99-26.21-12.22-49.11-21.47-70.04-4.74-10.79-11.01-19.71-17.07-28.85-11.12-16.96-25.66-31.16-41.18-42.95-2.86-2.53-7.05-3.52-8.92-7.05-12.66-5.62-24.78-15.86-39.64-21.47-3.08-1.21-6.61-2.09-10.02-3.3-3.19-1.1-6.61-2.64-10.02-3.74-8.04-2.42-16.3-2.42-24.45-2.97-3.85-.22-7.6-1.54-11.45-1.87-20.81-1.43-44.82-2.97-64.86.77-16.96,3.19-32.6,7.82-48.12,14.1-5.73,2.31-11.67,4.51-17.84,8.15-5.4,3.19-13.76,7.16-14.87,11.45-.44,2.09.55,4.07.33,6.28-.66,7.05-4.96,15.42-9.58,19.27-3.08,2.64-7.6,3.52-11.45,5.95-3.19,12.88-10.9,21.47-22.57,25.99-2.09,11.34-7.82,19.05-17.07,23.35-13.32,13.65-19.49,34.14-24.67,56.93-8.48,37.55-1.87,76.42,13.32,103.73,4.96,8.92,11.12,17.73,17.4,25.99,6.39,8.26,12.66,16.96,20.04,23.35,6.39,5.51,13.65,9.91,21.14,14.43,13.21,8.04,26.76,16.3,43.72,19.6,6.06,8.04-3.3,12.55-6.28,20.7-1.1,2.97-1.65,6.94-1.87,10.02-.22,3.41.99,6.83,0,9.58-1.87,5.73-9.47,3.52-12.55.33-10.24-.44-16.3-3.74-25.99-5.18-7.16-1.1-31.82-5.84-31.82,3.3,0,2.75,3.08,5.07,5.18,7.38,2.2,2.42,4.51,5.07,6.72,5.95,3.74,1.43,7.82.11,11.12-.33,17.95-2.42,41.07-.44,57.04-.33.22-13.21,3.41-30.83,11.45-37.77,2.97-2.53,7.27-4.96,10.02-5.18,2.53-.22,5.84.77,6.28,2.2,1.76,5.18-6.39,6.06-8.48,8.48-4.18,7.93-10.35,16.85-8.48,31.16.44,3.52,2.75,5.73,1.43,8.48-2.09,4.63-7.82,1.54-11.89,1.1-3.63-.33-8.81.11-13.65,0-4.4-.11-8.81.66-12.55.33-3.52-.33-5.95-1.54-8.92-1.43-3.52,0-6.72,1.21-10.79,1.43-7.16.55-14.1.44-15.2,5.95-1.21,5.51,5.95,11.01,10.02,13.32,8.81,5.07,20.37,7.71,32.27,10.79,14.65,3.74,28.85,6.83,43.39,6.28,6.94-2.09,4.4-11.56,4.4-17.84.11-23.79,7.93-43.28,15.53-59.68,2.42-1.65,2.86-3.63,5.51-4.4,5.07-1.43,7.71,1.32,11.12,2.64,12.22,4.74,29.62,4.63,41.85,4.85,6.06.11,10.9-1.21,17.07-1.87,7.38-.77,14.21-.44,20.7-1.43,6.61-.99,12.99-2.75,19.27-4.07,6.39-1.43,12.22-2.53,17.84-4.85,33.81-13.88,60.57-32.71,81.49-59.68,10.57-13.65,20.48-30.17,22.57-51.1-5.84,3.19-10.46,8.81-17.07,11.12-4.96,1.76-11.23.33-14.87-1.87-9.58-5.84-8.15-24.23-5.18-34.8-19.49,8.26-41.18-10.13-30.06-27.75,1.65-2.53,5.62-5.51,9.25-8.15,3.52-2.53,7.71-5.07,11.12-6.72,7.05-3.19,16.74-2.09,25.55-2.97-.44-5.84-2.53-11.56-5.18-18.5-1.65-4.29-6.94-14.43-4.85-17.4,1.32-1.87,4.85-2.09,7.38-1.1,3.63,1.43,4.74,9.14,5.51,11.89,2.53,4.74,4.63,10.24,6.28,15.97,1.65,5.62,3.74,11.89,3.3,18.17-3.74,5.18-7.6.33-12.22-.33-7.16-1.1-18.28,1.21-24.78,4.85-2.09,1.21-3.85,3.41-6.28,5.18-2.53,1.87-5.29,3.19-6.28,5.51-3.63,8.92,3.85,14.1,10.79,13.65,4.29-.22,11.45-2.42,15.53-4.4,4.4-2.2,6.83-6.39,12.55-5.18,7.16,7.49-3.3,11.12-6.28,17.84-2.53,5.62-6.39,26.98,2.2,28.19,3.74.44,10.68-4.96,12.55-7.38,4.07-5.4,4.07-12.33,4.4-20.37,3.08-3.19,8.26-3.41,10.35-.77,2.42,3.19-.44,8.37.77,13.65.99,4.74,6.28,10.57,11.45,9.58,4.07-.77,11.34-12.11,12.22-15.97,2.97-12.55-8.92-14.32-8.92-24.12,6.17-5.84,11.12-.66,14.1,3.41ZM110.86,65.38c1.54-3.74,4.96-6.39,5.95-11.45,1.32-6.39-1.98-15.86-6.72-18.17-5.07-2.42-14.54-.44-18.5,1.87-4.96,2.86-7.93,8.7-7.82,14.43,2.86,2.09,6.5.99,9.25,1.87,6.72,2.09,9.14,8.92,12.99,13.65,1.98-.44,2.86-1.76,4.85-2.2ZM95.34,79.03c1.32-7.49-1.54-12.44-5.51-16.3-12.22-1.43-24.67,2.97-25.22,14.87,1.76,1.1,3.41,2.2,6.28,2.2,5.4,3.41,8.37,9.14,12.55,13.65,4.29-2.31,10.68-8.15,11.89-14.43ZM44.9,102.82c-.11,6.17,2.97,13.21,6.28,15.2,9.47,5.62,21.36-2.42,21.91-13.65.44-12.11-8.04-18.17-18.94-18.5-.44,0-.22.33-.33.33-4.74,1.43-8.81,10.46-8.92,16.63ZM37.08,118.02c-1.65,1.76-3.52,3.63-5.51,6.72-1.54,2.2-3.19,3.85-4.85,5.95-11.78,14.76-17.95,43.06-7.38,64.09,2.42,4.74,5.18,9.8,9.25,12.99,2.75-30.39,10.57-58.14,24.12-78.96-7.05-1.76-11.45-7.27-15.64-10.79ZM310.18,398.49c-25.11,4.85-51.43,7.27-78.19,3.3-5.07-.77-11.78-3.3-15.53-2.64-5.73.99-7.71,9.8-8.92,14.43,3.63,2.42,8.59,3.96,14.1,4.4,19.27,1.87,38.65.66,58.91,0,14.54-.44,30.39-1.54,42.95-3.74,4.85-.88,9.58-1.21,13.65-2.2,3.63-.88,10.46-3.85,12.22-7.05,2.2-3.96,2.75-14.54-2.2-16.63-10.79,5.51-23.35,7.49-37,10.13ZM322.4,425.14c1.76,4.4.55,8.92.33,13.76-.11,3.41-.11,6.83,0,10.35.77,16.96-.55,34.14.33,47.02,4.85,3.96,15.2,3.19,19.6-.77-1.1-11.89-5.18-23.35-7.05-35.24-1.98-12.44-2.09-24.89-5.95-35.9-2.42.11-4.85.44-7.27.77ZM202.04,435.16c-.77,5.62-2.2,12.44-1.43,18.94,1.54,13.43-3.52,23.57-16.3,24.12-1.76,6.17-5.73,15.42-.33,20.37,4.63,1.98,9.58,3.74,16.3,3.74,2.53-2.97,1.98-7.38,2.64-11.12,1.87-10.9,2.09-22.02,3.3-32.93.99-9.47,4.18-19.6,1.43-28.85,0-1.43,1.21-1.76,1.1-3.3-6.94-3.85-5.95,2.75-6.72,9.03ZM262.06,428.44c-.44.11-.77.44-.77,1.1,0,8.26-1.32,21.91-2.2,30.72-.44,4.18-.88,9.58.33,11.45,2.31,3.52,9.69,2.2,12.99,0,1.32-15.31,1.1-28.74-.77-43.39-3.19.11-6.39.11-9.58.11Z"/>
    <path class="cls-2" d="M461.39,228.38c0,9.69,11.89,11.45,8.92,24.12-.88,3.74-8.15,15.2-12.22,15.97-5.29.99-10.46-4.85-11.45-9.58-1.1-5.4,1.76-10.57-.77-13.65-2.09-2.64-7.27-2.42-10.35.77-.44,8.04-.33,14.98-4.4,20.37-1.87,2.42-8.92,7.93-12.55,7.38-8.7-1.1-4.74-22.57-2.2-28.19,2.97-6.72,13.43-10.35,6.28-17.84-5.73-1.21-8.26,2.97-12.55,5.18-4.07,2.09-11.23,4.18-15.53,4.4-6.83.33-14.32-4.85-10.79-13.65.99-2.42,3.74-3.63,6.28-5.51,2.42-1.76,4.18-3.96,6.28-5.18,6.5-3.63,17.73-5.95,24.78-4.85,4.63.77,8.48,5.62,12.22.33.44-6.28-1.76-12.55-3.3-18.17-1.65-5.73-3.74-11.23-6.28-15.97-.88-2.64-1.87-10.35-5.51-11.89-2.53-.99-6.06-.77-7.38,1.1-2.09,2.97,3.19,13.21,4.85,17.4,2.64,6.94,4.74,12.66,5.18,18.5-8.81.88-18.5-.33-25.55,2.97-3.41,1.54-7.6,4.07-11.12,6.72-3.63,2.64-7.6,5.62-9.25,8.15-11.23,17.73,10.57,36.01,30.06,27.75-2.86,10.57-4.4,28.96,5.18,34.8,3.52,2.2,9.91,3.52,14.87,1.87,6.61-2.31,11.12-7.93,17.07-11.12-2.09,20.92-12,37.55-22.57,51.1-21.03,26.98-47.68,45.81-81.49,59.68-5.62,2.31-11.34,3.41-17.84,4.85-6.28,1.32-12.66,3.08-19.27,4.07-6.61.99-13.32.77-20.7,1.43-6.17.66-11.01,1.98-17.07,1.87-12.22-.22-29.62-.11-41.85-4.85-3.41-1.32-6.06-4.07-11.12-2.64-2.64.77-3.19,2.86-5.51,4.4-7.71,16.41-15.42,35.79-15.53,59.68,0,6.17,2.53,15.75-4.4,17.84-14.54.55-28.74-2.53-43.39-6.28-11.89-3.08-23.35-5.62-32.27-10.79-4.07-2.31-11.12-7.82-10.02-13.32,1.1-5.51,8.04-5.4,15.2-5.95,3.96-.33,7.16-1.43,10.79-1.43,2.86,0,5.4,1.21,8.92,1.43,3.85.33,8.26-.55,12.55-.33,4.96.11,10.02-.33,13.65,0,4.07.44,9.8,3.52,11.89-1.1,1.21-2.86-.99-4.96-1.43-8.48-1.87-14.21,4.29-23.13,8.48-31.16,2.09-2.53,10.24-3.41,8.48-8.48-.44-1.54-3.74-2.42-6.28-2.2-2.64.22-7.05,2.64-10.02,5.18-8.04,6.94-11.23,24.56-11.45,37.77-15.97-.11-39.09-1.98-57.04.33-3.3.44-7.38,1.76-11.12.33-2.2-.77-4.51-3.52-6.72-5.95-2.09-2.42-5.18-4.63-5.18-7.38,0-9.14,24.67-4.4,31.82-3.3,9.69,1.43,15.75,4.74,25.99,5.18,3.19,3.19,10.68,5.29,12.55-.33.99-2.86-.22-6.28,0-9.58.22-3.08.77-7.05,1.87-10.02,2.97-8.15,12.33-12.77,6.28-20.7-16.96-3.3-30.5-11.56-43.72-19.6-7.49-4.51-14.76-8.92-21.14-14.43-7.38-6.39-13.65-15.09-20.04-23.35-6.28-8.26-12.44-17.07-17.4-25.99-15.2-27.31-21.91-66.18-13.32-103.73,5.18-22.79,11.34-43.28,24.78-57.04,9.25-4.29,14.98-12,17.07-23.35,11.67-4.51,19.38-12.99,22.57-25.99,3.85-2.42,8.37-3.3,11.45-5.95,4.74-3.85,9.03-12.22,9.58-19.27.22-2.2-.88-4.18-.33-6.28.99-4.4,9.47-8.37,14.87-11.45,6.17-3.63,12-5.84,17.84-8.15,15.53-6.28,31.16-10.9,48.12-14.1,20.04-3.74,43.94-2.09,64.86-.77,3.85.22,7.6,1.54,11.45,1.87,8.15.55,16.41.55,24.45,2.97,3.3.99,6.83,2.53,10.02,3.74,3.41,1.21,6.94,2.09,10.02,3.3,14.87,5.73,26.98,15.86,39.64,21.47,1.87,3.52,6.06,4.51,8.92,7.05,15.53,11.78,30.06,25.99,41.18,42.95,5.95,9.14,12.22,18.17,17.07,28.85,9.25,20.81,22.46,43.83,21.47,70.04-.11,1.98-1.1,4.29-.77,6.28.44,2.31,4.18,5.29,5.95,5.51,4.51.66,7.49-3.19,9.58-4.07,3.63-1.43,10.46-1.1,14.1.77,5.73,2.97,13.43,17.07,10.79,25.99-1.43,4.74-7.71,11.78-15.53,9.25-2.75-.88-4.51-3.85-6.28-6.28-3.41-3.96-8.37-9.14-14.21-3.3ZM333.98,43.49c.22-4.18-3.63-4.4-6.28-5.51-1.54-.66-2.53-1.87-4.07-2.2-5.84-1.32-8.59,2.97-14.43,2.2-7.49-.99-12-10.46-21.91-6.28-3.96,1.65-9.36,9.14-13.65,8.92-5.29-.33-8.92-10.46-14.87-11.12-2.31-.22-6.5.55-8.15,1.1-5.62,2.09-9.58,10.46-14.87,10.35-4.85-.11-7.82-8.59-12.22-10.79-11.23-5.51-18.5,10.46-25.22,10.02-4.85-.33-5.95-6.5-8.48-8.92-2.86-.66-6.5-.55-8.15,1.1,1.21,12.33,15.2,19.27,26.32,12.99,3.52-1.98,6.94-7.93,10.35-7.38,1.32.22,2.75,2.53,3.74,3.74,5.18,5.84,11.67,9.69,20.7,5.95,3.08-1.21,10.68-9.8,13.32-9.58,2.42.11,3.08,3.19,5.18,5.18,7.6,7.05,16.96,6.17,24.45.33,2.09-1.65,4.4-4.4,6.28-4.4,3.19-.11,7.27,4.63,11.89,6.28,5.4,1.98,11.45.44,15.97-1.1,3.52,1.98,6.83,4.29,12.22,2.64.77-1.76,1.76-1.87,1.87-3.52ZM153.94,63.53c-2.31,2.75,4.51,10.02,5.95,11.12,6.28,4.51,12.66,1.21,18.17-1.87,2.2-1.21,7.71-5.62,10.79-5.18,2.2.33,7.82,7.38,9.58,8.48,11.01,6.61,19.82-3.08,30.39-7.38,4.74-1.98,11.45-3.96,17.4-2.97,3.85.66,5.84,3.85,8.48,5.95,1.87,1.43,4.63,3.52,7.05,4.4,14.21,5.29,21.8-11.67,34.8-8.92,2.31.44,4.07,3.3,5.51,4.4,5.62,4.29,13.32,4.96,20.04,1.87,2.42-1.1,3.96-3.63,6.72-3.74,6.06-.22,8.81,6.06,16.63,7.82,11.78,2.53,11.23-10.79.33-8.48-6.61-3.96-12.44-9.47-22.24-6.28-3.85,1.21-6.94,5.07-10.79,4.85-3.41-.22-5.73-5.62-8.15-7.05-5.73-3.41-21.36,0-27.09,2.97-4.18,2.09-5.95,5.29-9.58,5.18-5.73-.11-11.23-8.48-15.97-10.02-11.01-3.52-21.36,1.32-29.29,4.4-4.85,1.98-11.78,7.6-15.97,7.38-6.06-.33-9.03-10.13-15.2-10.79-11.12-1.21-16.52,7.71-24.45,9.58-1.65-1.43-9.14-10.57-13.1-5.73ZM213.18,146.12c-1.43.55-2.97.22-4.4.77s-3.74,1.98-5.51,2.97c-5.4,2.86-7.6,5.07-11.45,9.58-4.4,5.18-6.61,10.02-9.25,17.07-1.32,3.41-2.42,7.38-2.64,10.02-.99,14.87,7.38,24.45,15.53,30.72,11.12,8.59,25.11,14.87,41.52,11.12,18.39-4.18,29.62-14.21,38.21-27.42.66-4.74,2.75-7.6,3.3-11.89,1.54-11.01-2.2-20.37-6.72-27.75-4.29-7.16-10.35-11.45-18.94-14.43-4.96-1.76-9.03-3.08-13.65-4.4-5.84,1.32-12.55-1.32-19.27-.33-2.64.77-4.4,3.08-6.72,3.96ZM202.39,288.4c-.77,10.57,10.13,16.41,17.4,11.12,7.93-5.84,5.73-22.68-7.82-20.37-5.84.99-9.25,4.96-9.58,9.25Z"/>
    <path class="cls-1" d="M332.43,46.88c-5.4,1.65-8.7-.66-12.22-2.64-4.51,1.54-10.46,3.08-15.97,1.1-4.63-1.65-8.7-6.39-11.89-6.28-1.98,0-4.18,2.86-6.28,4.4-7.6,5.73-16.85,6.61-24.45-.33-2.2-1.98-2.86-5.07-5.18-5.18-2.64-.11-10.24,8.37-13.32,9.58-9.14,3.74-15.53-.11-20.7-5.95-.99-1.1-2.42-3.52-3.74-3.74-3.41-.55-6.83,5.4-10.35,7.38-11.12,6.28-25.11-.66-26.32-12.99,1.65-1.65,5.29-1.76,8.15-1.1,2.53,2.42,3.74,8.59,8.48,8.92,6.72.44,13.88-15.42,25.22-10.02,4.4,2.09,7.38,10.68,12.22,10.79,5.18.11,9.25-8.37,14.87-10.35,1.65-.66,5.84-1.43,8.15-1.1,5.95.66,9.47,10.79,14.87,11.12,4.29.22,9.8-7.27,13.65-8.92,9.91-4.07,14.43,5.29,21.91,6.28,5.84.77,8.59-3.52,14.43-2.2,1.54.33,2.53,1.54,4.07,2.2,2.75,1.1,6.61,1.43,6.28,5.51-.11,1.76-1.1,1.87-1.87,3.52Z"/>
    <path class="cls-2" d="M106.02,67.58c-3.85-4.74-6.28-11.56-12.99-13.65-2.75-.88-6.39.22-9.25-1.87-.11-5.73,2.75-11.56,7.82-14.43,4.07-2.31,13.43-4.29,18.5-1.87,4.63,2.2,7.93,11.78,6.72,18.17-.99,5.07-4.4,7.82-5.95,11.45-1.98.44-2.86,1.76-4.85,2.2Z"/>
    <path class="cls-1" d="M167.58,69.45c7.93-1.98,13.32-10.79,24.45-9.58,6.17.66,9.14,10.46,15.2,10.79,4.18.22,11.12-5.51,15.97-7.38,7.82-3.19,18.28-7.93,29.29-4.4,4.74,1.54,10.13,9.91,15.97,10.02,3.63.11,5.51-3.08,9.58-5.18,5.73-2.86,21.36-6.39,27.09-2.97,2.42,1.43,4.74,6.83,8.15,7.05,3.74.22,6.83-3.63,10.79-4.85,9.8-3.08,15.64,2.31,22.24,6.28,10.9-2.31,11.34,11.12-.33,8.48-7.93-1.76-10.68-7.93-16.63-7.82-2.75.11-4.29,2.53-6.72,3.74-6.72,3.19-14.43,2.42-20.04-1.87-1.54-1.21-3.3-3.96-5.51-4.4-12.99-2.86-20.7,14.21-34.8,8.92-2.42-.88-5.18-2.97-7.05-4.4-2.64-2.09-4.63-5.29-8.48-5.95-5.95-.99-12.66.99-17.4,2.97-10.57,4.29-19.38,13.99-30.39,7.38-1.87-1.1-7.49-8.26-9.58-8.48-3.08-.44-8.59,3.96-10.79,5.18-5.51,3.08-11.89,6.39-18.17,1.87-1.43-1.1-8.26-8.37-5.95-11.12,3.74-5.07,11.23,4.07,13.1,5.73Z"/>
    <path class="cls-2" d="M83.44,93.46c-4.18-4.51-7.27-10.35-12.55-13.65-2.86,0-4.63-1.1-6.28-2.2.55-11.78,12.99-16.3,25.22-14.87,3.96,3.85,6.94,8.81,5.51,16.3-1.21,6.28-7.6,12.11-11.89,14.43Z"/>
    <path class="cls-2" d="M53.82,86.08c.11,0,0-.33.33-.33,10.79.33,19.38,6.39,18.94,18.5-.44,11.23-12.33,19.38-21.91,13.65-3.3-1.98-6.39-9.03-6.28-15.2.11-6.06,4.18-15.09,8.92-16.63Z"/>
    <path class="cls-2" d="M52.72,128.7c-13.54,20.7-21.36,48.56-24.12,78.96-4.07-3.19-6.83-8.15-9.25-12.99-10.57-21.03-4.29-49.33,7.38-64.09,1.65-2.09,3.3-3.74,4.85-5.95,2.09-2.97,3.85-4.85,5.51-6.72,4.18,3.63,8.59,9.14,15.64,10.79Z"/>
    <path class="cls-1" d="M220.1,142.02c6.72-.99,13.43,1.65,19.27.33,4.74,1.43,8.81,2.75,13.65,4.4,8.48,2.97,14.54,7.27,18.94,14.43,4.51,7.38,8.26,16.74,6.72,27.75-.66,4.29-2.64,7.05-3.3,11.89-8.48,13.21-19.82,23.24-38.21,27.42-16.41,3.74-30.39-2.53-41.52-11.12-8.15-6.28-16.52-15.86-15.53-30.72.22-2.64,1.32-6.5,2.64-10.02,2.64-7.05,4.85-11.89,9.25-17.07,3.85-4.51,6.06-6.72,11.45-9.58,1.76-.99,4.07-2.42,5.51-2.97s2.97-.11,4.4-.77c2.42-.77,4.18-3.08,6.72-3.96ZM222.75,155.02c-2.42.44-5.07-.55-7.38,0-10.13,2.31-18.28,13.43-21.14,22.24-.33,1.1-1.1,1.87-1.43,2.97-2.31,7.05-2.2,14.98.77,20.37,2.86,5.18,9.25,10.9,14.43,13.65,14.65,7.82,34.25,4.96,45.59-4.4,8.04-6.61,15.31-16.74,14.1-31.16-.22-2.75-2.09-6.06-3.3-8.92-4.96-11.34-16.63-18.39-32.93-17.4-3.96.33-5.62,2.09-8.7,2.64Z"/>
    <path class="cls-3" d="M231.23,152.48c16.41-.99,27.97,6.06,32.93,17.4,1.21,2.86,3.08,6.06,3.3,8.92,1.21,14.43-6.06,24.45-14.1,31.16-11.34,9.36-30.94,12.33-45.59,4.4-5.29-2.75-11.56-8.48-14.43-13.65-2.97-5.4-3.08-13.32-.77-20.37.33-.99,1.1-1.87,1.43-2.97,2.86-8.81,11.01-19.93,21.14-22.24,2.42-.55,4.96.44,7.38,0,3.3-.66,4.96-2.42,8.7-2.64Z"/>
    <path class="cls-1" d="M212.39,279.12c13.54-2.31,15.75,14.54,7.82,20.37-7.27,5.29-18.28-.55-17.4-11.12.22-4.29,3.63-8.26,9.58-9.25Z"/>
    <path class="cls-4" d="M347.18,388.36c4.96,2.2,4.4,12.66,2.2,16.63-1.76,3.19-8.59,6.17-12.22,7.05-4.07.99-8.81,1.32-13.65,2.2-12.55,2.2-28.52,3.19-42.95,3.74-20.26.66-39.64,1.87-58.91,0-5.51-.55-10.46-2.09-14.1-4.4,1.21-4.63,3.19-13.43,8.92-14.43,3.85-.66,10.57,1.87,15.53,2.64,26.76,3.96,53.08,1.43,78.19-3.3,13.54-2.75,26.1-4.74,37-10.13Z"/>
    <path class="cls-4" d="M329.78,424.37c3.85,11.01,3.96,23.46,5.95,35.9,1.87,11.89,5.84,23.35,7.05,35.24-4.51,3.96-14.87,4.74-19.6.77-.88-12.99.44-30.06-.33-47.02-.11-3.52-.11-6.94,0-10.35.11-4.85,1.43-9.36-.33-13.76,2.31-.33,4.74-.66,7.27-.77Z"/>
    <path class="cls-4" d="M208.74,426.07c.11,1.65-1.1,1.87-1.1,3.3,2.75,9.25-.44,19.49-1.43,28.85-1.21,10.9-1.43,22.13-3.3,32.93-.66,3.74,0,8.15-2.64,11.12-6.72.11-11.67-1.65-16.3-3.74-5.29-4.96-1.43-14.21.33-20.37,12.77-.55,17.84-10.57,16.3-24.12-.77-6.39.66-13.21,1.43-18.94.88-6.06-.11-12.66,6.72-9.03Z"/>
    <path class="cls-4" d="M271.64,428.44c1.87,14.54,2.09,27.97.77,43.39-3.3,2.2-10.68,3.52-12.99,0-1.21-1.87-.77-7.38-.33-11.45.88-8.81,2.2-22.46,2.2-30.72,0-.66.33-.99.77-1.1,3.19-.11,6.39-.11,9.58-.11Z"/>
  </g>
  <path class="cls-1" d="M204.47,92.69c11.56-.88,17.18,6.94,17.62,18.17.22,5.73-2.42,16.08-6.94,20.48-6.39,6.28-17.51,7.82-23.68.88-10.79-12.33-6.94-34.14,6.94-38.65,1.76-.66,3.3-.77,6.06-.88Z"/>
  <path class="cls-1" d="M294.43,102.6c5.95,6.83,8.37,18.72,4.51,28.19-2.2,5.18-6.17,9.03-9.47,12.22-5.07,1.87-10.13,2.75-14.54,1.43-9.03-2.86-14.76-14.54-12-27.09,1.54-6.72,6.5-12.33,10.57-16.19,2.64-.22,4.74-2.2,7.49-2.53,5.51-.55,9.58,2.2,13.43,3.96Z"/>
</svg>