<?xml version="1.0" encoding="UTF-8"?>
<svg id="Layer_1" data-name="Layer 1" xmlns="http://www.w3.org/2000/svg" viewBox="0 0 512 512">
  <defs>
    <style>
      .cls-1 {
        fill: #1c1c1c;
      }

      .cls-2 {
        fill: #e6388c;
      }

      .cls-3 {
        fill: #019cde;
      }

      .cls-4 {
        fill: #fee048;
      }

      .cls-5 {
        fill: #1f1f1f;
      }
    </style>
  </defs>
  <g id="_6FK9vW" data-name="6FK9vW">
    <g>
      <path class="cls-1" d="M412.17,269.66c6.85,4.33,9.74,10.56,7.52,17.47-2.29,7.15-7.84,12.1-15.98,12.43-4.53.19-5.54,2.08-5.41,6.41.32,10.15-6.23,18-15.05,18.96-7.58.82-13.41-2.39-16.69-9.25-2.26-4.72-2.85-9.8-3.16-14.95-.12-1.9,1.22-4.63-2.71-4.78-3.37-.13-3.33,1.84-3.64,4.16-2.62,19.67-5.8,39.26-12.09,58.14-8,24.01-21.73,43.28-46.43,53.65,9.41,6.11,18.53,12.03,27.64,17.95,7.23,4.7,8.42,7.6,4.67,15.27-9.28,19.02-17.54,38.7-31.56,54.95-5.22,6.04-10.9,12-20.04,11.93-7.19-.06-10.01-2.58-10.13-9.75-.07-4.48.76-8.89,2.31-13.08,4.98-13.43,9.64-27.03,19.61-38.24-11.06-2.9-20.54-8.49-30.66-14.03.76,13.39,1.36,26.16,5.06,38.55,1.77,5.92.82,8.13-5.03,10.71-8.01,3.52-16.51,5.46-24.97,7.51-11.45,2.77-22.89,5.57-34.33,8.38-4.23,1.04-8.56,1.17-12.77.55-4.81-.7-10.19-1.13-11.99-7.06-1.79-5.92.05-11.09,5.88-15.08,7.45-5.1,14.81-10.38,23.31-13.8,7.44-3,14.67-6.52,22.03-9.71,2.08-.9,3.29-1.67,2.85-4.46-1.26-8.11-2.38-16.27-2.95-24.45-.32-4.52-2.28-6.45-6.42-7.55-16.35-4.37-32.36-9.62-47.5-17.4-37.24-19.12-61.69-48.62-74.61-88.46-6.11-18.82-9.81-37.66-8.92-57.4,2.07-46.18,20.1-84.88,55.59-114.59,14.14-11.84,30.39-20.95,47.83-28.08-2.12-2.21-5.06-2.59-7.56-3.74-6.55-3.01-12.98-6.18-18.07-11.47-.7-.72-1.86-1.43-1.44-2.51.46-1.17,1.77-1.44,3.03-1.58,2.37-.26,4.28.76,6.25,1.86,6.87,3.85,13.99,7.11,22.22,9.46-.85-7.36-1.62-14.39-2.5-21.4-1.83-14.59-.62-28.93,2.29-43.33C204.84,6.25,245.24-4.79,267.99,1.81c22.89,6.63,29.95,22.32,28.02,45.74-1.43,17.4-5.65,34.35-11.23,50.91-.31.93-.54,1.9-1,3.51,4.41-.54,7.14-3.12,10.07-5.2,3.9-2.77,7.67-5.73,11.62-8.43,2.51-1.72,5.83-2.92,7.81-.06,2,2.89-.47,5.3-2.9,7.13-7.65,5.75-15.51,11.19-24.58,16.15,3.85,1.16,7.08,1.92,10.16,3.08,23.6,8.96,38.51,26.51,47.98,49.21,10.24,24.53,15.41,50.25,17.39,76.67.17,2.31-.08,4.59,3.25,4.48,2.66-.09,5.61.68,6.33-3.34,1.05-5.83,3.31-11.05,7.9-15.1,4.86-4.29,10.35-7.39,16.8-5.31,6.65,2.13,8.9,8.5,11.16,14.45.3.78.44,1.67.44,2.51,0,5.08,2.19,7.54,7.58,7.64,3.45.07,5.96,2.5,6.86,6.02,1.24,4.88-.23,9.17-3.51,12.77-1.59,1.74-3.63,3.08-5.97,5.01Z"/>
      <path class="cls-4" d="M365.89,252.35c1.71-.09,3.42-.22,5.13-.27,7.62-.2,8.83-1.03,9.62-8.65.54-5.24,2.68-9.55,6.16-13.2,3.52-3.7,7.12-2.87,9.23,1.78,3.7,8.16,2.87,12.01-3.92,17.9-1.16,1.01-2.45,1.89-3.53,2.98-1.31,1.33-4.04,2.26-2.14,4.86,1.67,2.28,4.07,3.34,6.75,1.88,2.54-1.39,4.87-3.16,7.29-4.77,3.03-2.02,6-4,9.96-2.3,1.39.6,1.83,1.39,1.61,2.73-.72,4.32-3.36,7.1-7.34,8.47-3.71,1.27-7.62,1.97-11.31,3.28-2.08.74-5.35,1.27-4.83,4.27.48,2.79,3.21,3.65,6.04,3.7,2.91.05,5.88,0,8.7.62,4.09.89,7.47,2.92,7.12,7.92-.32,4.53-3.76,7.97-8.32,8.29-3.1.22-6.15-.1-8.94-1.73-1.83-1.07-3.73-1.64-5.87-.86-3.95,1.44-4.83,4.09-2.05,7.25,4.61,5.24,4.33,10.89,1.66,16.73-1.9,4.15-5.32,4.67-8.57,1.38-4.33-4.38-4.9-9.93-4.74-15.73.28-9.86-.9-11.02-10.89-11.25-14.94-.35-14.75-.33-16.76,16.15-2.63,21.61-6.9,42.83-15.32,63.08-7.03,16.93-18.07,29.72-35.42,36.47-2.85,1.11-5.85,1.86-8.82,2.64-2.89.76-5.18,2.46-5.73,5.27-.55,2.79,2.41,3.46,4.23,4.37,11.99,5.99,22.36,14.57,34.03,21.05,3.78,2.1,3.15,5.04,1.91,7.89-2.86,6.58-5.76,13.17-9.19,19.46-5.73,10.51-11.31,21.13-18.65,30.66-1.25,1.62-2.63,3.16-4.04,4.65-2.34,2.47-5.48,4.77-8.54,3.19-2.69-1.39-.96-4.98-.44-7.49,3.48-16.92,10.04-32.24,23.41-43.91,1.44-1.26,2.64-2.78,1.98-4.9-.6-1.92-1.77-3.05-4.01-3.36-16.03-2.2-30.12-8.67-42.01-19.71-2.1-1.95-3.86-3.75-7.1-1.97-3.07,1.69-3.59,3.85-3.24,7.19,1.69,15.99,2.57,32.08,6.47,47.76.54,2.17.18,3.34-2.28,4.08-18.33,5.54-36.96,9.92-55.61,14.19-2.41.55-5.19.34-7.63-.24-4.91-1.16-5.73-4.72-1.97-8.15,4.45-4.07,9.55-7.25,14.97-9.87,8.78-4.23,17.63-8.3,26.42-12.5,2.28-1.09,4.67-.87,7.04-1.08,4.4-.39,5.95-2.49,5.09-6.83-2.35-11.93-4.36-23.92-4.57-36.1-.06-3.71-1.95-4.62-4.92-5.16-25.98-4.72-50.11-14.93-71.59-29.59-24.77-16.9-40.98-41.16-51-69.69-6.73-19.15-10.42-38.45-9.49-58.8,1.59-34.93,13.43-65.51,35.89-92.43,17.2-20.61,40.18-31.92,63.72-42.72,5.78-2.65,11.4-3.29,17.96-2.27,16.31,2.54,32.67.09,49.05-.6,11.16-.47,22.96,1.55,33.66,6.71,9.4,4.54,15.87,11.62,22.1,19.96,16.1,21.57,20.41,47.18,26.24,72.2,2.21,9.47,3.56,19.51,2.11,29.56-.5,3.46,1.91,5.73,5.47,5.98,3.24.23,6.5.05,9.75.05,0-.16,0-.33,0-.49Z"/>
      <path class="cls-2" d="M204.1,71.01c-.37-8.26.88-16.37,2.09-24.51,1.95-13.06,8.81-22.55,19.89-29.59,12.47-7.92,25.42-11,40.05-7.25,14.84,3.8,19.17,11.89,20.08,25.91,1.17,18-3.51,35.26-8.6,52.32-1.71,5.72-2.94,11.6-5.62,17.02-1.22,2.47-2.67,4.22-5.6,4.55-17.52,1.99-35.02,3.68-52.63.67-4-.69-5.75-2.68-6.41-6.51-1.85-10.8-3.64-21.6-3.26-32.62Z"/>
      <path class="cls-1" d="M325.19,249.53c.96,40.69-38.55,81.43-75.77,85.87-13.37,1.6-25.84-1.44-38.57-3.65-3.88-.67-6.68-4.04-9.79-6.44-4.01-3.1-7.99-4.19-13.32-2.82-6.15,1.57-12.71.92-18.4-2.48-2.47-1.47-3.69-1.1-5.46.93-5.72,6.54-13.71,10.17-20.42,15.44-2.03,1.59-4.18.69-5.69-.51-2.03-1.6-.24-3.42.68-4.95,1.21-2,3.38-2.78,5.33-3.84,7.85-4.24,14.93-9.22,16.98-18.71.55-2.57,2.55-2.98,4.58-3.34,2.19-.38,3.31.74,4.27,2.73,4.41,9.15,14.2,12.64,23.03,7.99,3.2-1.69,6.07-4.54,4.55-8.71-1.54-4.23-5.13-5.13-9.27-4.09-2.32.58-4.59,1.46-6.94,1.79-2.02.28-3.75-.84-4.47-2.76-.69-1.85.95-2.72,2.19-3.6,3.17-2.23,6.67-3.39,10.6-3.29,2.22.06,4.53.04,6.47-1.25,2.57-1.7,3.41-4.28,2.77-7.17-.7-3.14-3.34-3-5.77-2.88-5.6.29-10.75,2-15.34,5.21-1.58,1.1-3.06,2.26-5.14,1.6-1.31-.42-2.63-.88-3.15-2.36-.57-1.6.39-2.63,1.47-3.51,3.18-2.6,6.43-5.12,9.61-7.71,3.77-3.07,5.77-7.08,6.36-11.9.43-3.5-.77-4.7-4.3-3.97-8.45,1.75-13.74,7.06-15.06,15.39-.44,2.74.19,6.32-4.23,6.26-4.22-.05-5.59-3.15-5.77-6.56-.26-4.96-1.35-8.76-7.3-9.01-4.54-.19-6.38,1.83-5.47,6.23.97,4.64,4.04,7.42,8.24,9.04,3.67,1.42,4.7,4.4,1.64,6.35-8.37,5.32-15.82,12.06-24.93,16.22-1.23.56-2.56,1.13-3.88,1.25-2.25.2-4.85-.03-5.79-2.32-1.15-2.81,1.82-3.19,3.45-4.1,6.27-3.5,12.77-6.6,18.55-10.94,1.9-1.43,2.27-2.21.24-4.14-7.97-7.58-8.28-18.52-.71-26.46,1.92-2.01,2.42-3.75,1.94-6.31-2.81-14.85-1.51-29.67.54-44.47.43-3.07,1.72-5.21,5.23-4.98,3.82.25,4.17,2.86,3.77,5.83-1.57,11.56-2.36,23.16-1.23,34.81.25,2.55,1.04,5.07,1.06,7.6.06,7.02,6.47,8.11,10.43,11.45,1.19,1,2.03-.8,2.9-1.4,6.02-4.18,12.5-7.02,19.95-7.28,6.63-.23,11.26,5.04,9.76,11.58-.79,3.45-3.95,7.24-3.09,9.95.88,2.77,6.11.84,9.25,2.35,6.6,3.17,8.23,10.8,2.88,17.22-2.02,2.43-2.37,3.88-.43,6.33,3.02,3.82,3.58,8.13,1.14,12.46-1.73,3.06-.49,4.58,2.22,6.01,16.87,8.88,34.35,10.85,52.53,4.74,28.41-9.55,43.02-31.71,52.99-58.13,3.59-9.51,1.98-19.2,1.69-28.9-.26-8.75-3.54-16.64-5.94-24.8-.67-2.28-2.9-5.04.65-6.61,3.44-1.53,6.48-.36,8.12,3.14,2.69,5.76,4.17,11.94,5.42,18.12,1.39,6.87,2.11,13.87,2.19,22.47Z"/>
      <path class="cls-1" d="M222.91,243.02c-5.78.27-12.43-2.21-18.59-6.14-9.04-5.76-12.28-14.19-11.19-24.63,1.27-12.29,7.21-21.23,18.74-25.96,14.53-5.95,31.83-1.28,41.72,10.97,7.94,9.85,6.97,25.94-2.23,34.64-7.48,7.08-16.33,11.05-28.44,11.12Z"/>
      <path class="cls-1" d="M255.14,169.22c2.5,2.49,5.33,3.18,7.87,4.35,2.17,1,4.36,1.95,6.46,3.07,1.86.99,1.96,2.67,1.24,4.43-.71,1.75-2.11,2.06-3.8,1.57-9.58-2.77-18.67-6.52-26.54-12.86-3.2-2.57-3.28-4.82-.09-7.42,4.41-3.6,9.19-6.57,14.57-8.39,7.43-2.51,14.92-4.82,22.42-7.1,2.19-.66,5.03-1.34,5.88,1.56.95,3.23-1.92,3.91-4.33,4.35-6.45,1.18-12.26,4.02-18.17,7.38,2.53,0,5.06.06,7.59-.02,2.96-.09,5.78.47,8.47,1.65,1.67.74,3.04,1.83,2.36,3.93-.7,2.13-2.07,2.62-4.4,2.14-6.38-1.33-12.72-.85-19.53,1.36Z"/>
      <path class="cls-5" d="M197.77,166.08c-6.11-1.8-11.09-2.85-16.24-2.9-2.44-.02-4.84-.77-5.02-3.33-.19-2.67,2.69-2.59,4.53-3.09,5.74-1.56,11.19.24,16.63,1.71,3.27.88,6.47,1.99,10.71,3.32-1.54-3.75-3.82-5.32-6.32-6.57-3.06-1.52-6.3-2.68-9.3-4.31-1.81-.98-4.92-1.8-3.97-4.51.97-2.78,4.06-2.22,6.32-1.59,5.78,1.61,11.32,3.99,15.96,7.84,3,2.49,5.39,5.72,8.09,8.59,2.66,2.84,1.31,4.92-1.61,5.77-12.02,3.49-23.63,8-35.04,13.1-2.57,1.15-5.03.49-6.09-1.98-1.09-2.53,1.36-3.62,3.19-4.43,5.6-2.45,11.28-4.74,18.17-7.61Z"/>
      <path class="cls-3" d="M226.58,234.52c-16.67-.64-28.9-9.99-23.43-27.06,4.32-13.49,15.72-19.15,29.75-14.49,9.52,3.16,14.41,10.68,16.12,20.15,1.16,6.4-2.64,11.14-7.06,15.11-4.72,4.25-10.32,6.67-15.38,6.29Z"/>
    </g>
  </g>
</svg>