<?xml version="1.0" encoding="UTF-8"?>
<svg id="Layer_1" data-name="Layer 1" xmlns="http://www.w3.org/2000/svg" viewBox="0 0 512 512">
  <defs>
    <style>
      .cls-1 {
        fill: #7f2346;
      }

      .cls-1, .cls-2, .cls-3, .cls-4 {
        fill-rule: evenodd;
      }

      .cls-2 {
        fill: #cf3339;
      }

      .cls-4 {
        fill: #f8b3ae;
      }
    </style>
  </defs>
  <path class="cls-3" d="M325.27,2.48c-8.66,44.77-12,96.95-2.61,145.17,14.09,1.77,23.06-11.9,34.23-4.9,0,10.75-11.06,10.96-19.72,13.57,53.43,21.92,90.79,58.65,101.34,120.64,24.21,1.46,32.35,44.67,3.97,48.01-4.91,10.23-1.46,24-2.61,34.44-5.84,50.51-64.7,61.47-121.06,66.48,1.25,13.46,29.85,18.47,30.26,33.19.31,10.23-21.71,24.21-35.59,33.19-21.5,13.98-52.08,31.62-68.46,8.66-.63-31.31,25.26-37.88,47.38-48.01-1.98-5.53-13.88-12.42-19.72-18.47-15.86,15.55-23.17,39.03-36.84,56.56-23.9-8.45-73.58-29.33-64.5-62.72,5.84-21.6,44.67-12.52,57.92,0,4.07-1.15,3.24-6.78,6.57-8.66-68.15-14.71-129.1-42.58-119.81-125.55-10.12,4.91-12.21,24.42-27.66,24.63-8.45.1-18.26-6.57-17.12-20.87-9.71-1.15-16.28-5.32-19.72-12.31,1.88-9.71,6.26-17.12,15.76-19.72-1.46-4.38-7.93-4.07-7.93-9.81,1.57-12.52,17.32-13.98,27.66-14.72-1.25-29.43,50.82-27.97,39.45,4.9,24.53-47.17,66.37-78.27,126.38-92.26-5.64-5.32-16.28-6.05-17.12-15.97,11.58-8.45,20.14,9.29,34.23,9.81,7.83-49.68,4.28-93.2,2.61-144.02,15.65-1.36,38.3-6.89,52.7-1.25ZM272.67,159.96c-62.83,1.25-137.13,61.99-144.75,123.04-6.47,51.45,7.1,76.18,35.59,99.67,18.16,10.64,42.48,19.2,65.85,23.38,7.1,1.25,18.26.1,22.33,7.41-6.78,10.02-9.29,24.11-21.08,29.53-10.54-8.77-25.57-19.41-43.41-17.22-11.17,27.97,23.69,41.85,44.77,51.66,4.59-11.06,10.44-20.04,18.47-32.04,5.01-7.62,11.9-28.6,23.69-27.03,3.86.52,6.47,7.1,9.18,9.81,7.51,7.62,23.38,16.07,28.91,25.88-8.66,7.51-21.5,10.02-31.62,15.97-10.23,6.05-20.87,11.69-23.69,24.63,4.59,9.39,18.79,5.74,25.05,3.65,20.14-6.47,39.76-26.51,52.7-38.2-10.85-14.09-27.86-22.44-35.59-39.34,10.12-7.72,23.59-4.7,35.59-6.16,51.03-6.05,99.46-24.32,93.51-75.04-13.98-8.14-21.29,7.1-32.87,7.41-12.21.31-20.66-10.44-17.12-25.88-31.62,2.19-19.1-36.53,5.22-33.19-.21-11.06-13.98-15.45-11.9-24.63,17.12-1.98,21.6,18.26,27.66,30.79-10.33,4.7-30.16.52-28.91,15.97,12.11,6.68,20.35-14.09,27.66-1.25-3.86,7.72-15.55,20.45-3.97,28.28,12.21-2.61,11.79-16.8,15.76-27.03h6.57c5.95,4.07-3.44,17.85,6.57,19.72,15.97-4.07,1.36-24.32,3.97-33.19,1.57-1.46,4.7-1.36,7.93-1.25,6.26,2.71,3.44,14.09,7.93,18.47,7.72-5.64,6.68-11.69,3.97-20.87-4.7-5.43-16.18-4.49-21.08-9.81-9.18-79-63.14-124.82-152.89-123.15ZM98.91,257.23c-4.07-6.47-18.16-7.93-26.3-3.65,2.82,10.75,22.86.52,25.05,9.81-7.51,9.91-38.2,4.17-31.62,23.38,16.28,4.8,23.27-19.2,32.87-4.91-5.43,6.99-22.23,13.05-13.15,25.88,16.38.52,10.75-19.52,18.47-27.03,5.74-.83,7.41,2.09,13.15,1.25-.52-10.33,3.13-16.8,5.22-24.63-3.97-.42-10.23,1.36-10.54-2.5,1.25-6.89,5.01-17.12,1.36-24.63-25.36-5.64,0,24.11-14.51,27.03Z"/>
  <path class="cls-3" d="M246.27,175.93c10.64,1.98,19.41,5.64,27.66,9.81-1.98,10.33-3.86,32.25-18.47,30.79-14.19-1.46-10.54-27.55,3.97-30.79-2.09-5.32-14.19-1.36-13.15-9.81Z"/>
  <path class="cls-3" d="M335.81,179.69c-1.46,5.64-9.39,5.22-14.51,7.41,7.62,8.35,4.28,36.94-17.12,33.19-9.91-4.17-4.59-19.2-6.57-28.28,11.69-4.28,24.52-14.09,38.2-12.31Z"/>
  <path class="cls-3" d="M266.1,226.44c28.8-3.97,77.44,14.4,76.39,45.5-.52,17.01-19.72,31.2-32.87,36.94-31.83,13.78-96.53,11.48-102.69-24.63-5.95-33.81,25.46-53.12,59.17-57.82ZM234.48,246.06c-9.81,7.51-21.08,30.16-14.51,43.1,18.68,36.74,104.99,15.13,109.27-15.97,4.07-29.74-41.64-39.55-64.5-36.94-11.17,1.36-22.86,4.17-30.26,9.81Z"/>
  <path class="cls-1" d="M264.74,236.25c22.86-2.61,68.57,7.2,64.5,36.94-4.28,31.1-90.59,52.7-109.27,15.97-6.57-12.94,4.7-35.59,14.51-43.1,7.41-5.64,19.1-8.45,30.26-9.81Z"/>
  <path class="cls-3" d="M322.66,359.3c-12.52,2.92-17.74-11.17-28.91-13.57-27.13,7.72-3.65,56.56-39.45,54.16-19.62-1.36-28.18-30.06-17.12-49.26-10.85-.63-14.51,15.45-25.05,7.41,5.43-29.64,108.12-36.74,110.52,1.25ZM262.13,387.68c6.89-11.58,1.15-35.07,11.9-43.1-29.85-12.94-41.95,47.07-11.9,43.1Z"/>
  <path class="cls-4" d="M273.93,344.58c-10.64,8.04-5.01,31.41-11.9,43.1-29.95,3.97-17.85-56.04,11.9-43.1Z"/>
  <path class="cls-3" d="M355.54,445.5c18.58,2.5,17.22,26.72,3.97,34.44-5.53-7.41,5.32-13.78,3.97-20.87-1.15-6.37-7.1-5.53-7.93-13.57Z"/>
  <path class="cls-2" d="M425.35,283.01c4.8,5.32,16.38,4.38,21.08,9.81,2.71,9.18,3.76,15.34-3.97,20.87-4.49-4.38-1.57-15.76-7.93-18.47-3.24-.21-6.37-.21-7.93,1.25-2.61,8.87,12,29.22-3.97,33.19-10.02-1.88-.63-15.55-6.57-19.72h-6.57c-3.97,10.23-3.65,24.53-15.76,27.03-11.58-7.83.1-20.56,3.97-28.28-7.31-12.84-15.55,7.83-27.66,1.25-1.25-15.55,18.68-11.27,28.91-15.97-6.05-12.42-10.54-32.77-27.66-30.79-2.09,9.18,11.69,13.57,11.9,24.63-24.42-3.34-36.84,35.38-5.22,33.19-3.55,15.34,4.91,26.09,17.12,25.88,11.69-.31,18.89-15.45,32.87-7.41,6.05,50.72-42.48,68.98-93.51,75.04-11.9,1.46-25.46-1.57-35.59,6.16,7.72,17.01,24.63,25.36,35.59,39.34-12.84,11.69-32.46,31.62-52.7,38.2-6.26,1.98-20.45,5.74-25.05-3.65,2.82-12.94,13.46-18.47,23.69-24.63,10.02-5.95,22.96-8.56,31.62-15.97-5.64-9.71-21.39-18.16-28.91-25.88-2.71-2.71-5.32-9.39-9.18-9.81-11.79-1.57-18.68,19.41-23.69,27.03-7.93,12-13.78,20.87-18.47,32.04-20.98-9.81-55.94-23.79-44.77-51.66,17.95-2.19,32.98,8.45,43.41,17.22,11.79-5.43,14.3-19.52,21.08-29.53-4.17-7.31-15.24-6.05-22.33-7.41-23.38-4.17-47.59-12.73-65.85-23.38-28.49-23.59-41.95-48.32-35.59-99.67,7.62-61.16,81.92-121.89,144.75-123.04,89.96-1.57,143.91,44.25,152.89,123.15ZM259.42,185.85c-14.51,3.24-18.16,29.33-3.97,30.79,14.61,1.46,16.49-20.45,18.47-30.79-8.24-4.17-17.01-7.93-27.66-9.81-1.04,8.35,11.06,4.38,13.15,9.81ZM297.62,192c1.98,9.08-3.34,24.11,6.57,28.28,21.39,3.65,24.73-24.94,17.12-33.19,5.11-2.19,13.05-1.77,14.51-7.41-13.67-1.77-26.51,8.04-38.2,12.31ZM206.82,284.26c6.16,36.11,70.86,38.41,102.69,24.63,13.15-5.74,32.35-19.93,32.87-36.94,1.04-31.2-47.48-49.57-76.39-45.5-33.6,4.7-65.02,24-59.17,57.82ZM212.04,358.15c10.54,8.14,14.09-7.93,25.05-7.41-11.06,19.2-2.5,47.9,17.12,49.26,35.9,2.4,12.31-46.44,39.45-54.16,11.17,2.4,16.49,16.49,28.91,13.57-2.3-38.09-104.99-31-110.52-1.25Z"/>
  <path class="cls-2" d="M113.31,230.1c3.76,7.51,0,17.74-1.36,24.63.31,3.86,6.57,2.09,10.54,2.5-2.09,7.83-5.84,14.19-5.22,24.63-5.74.83-7.41-2.09-13.15-1.25-7.62,7.62-2.09,27.66-18.47,27.03-9.08-12.73,7.72-18.79,13.15-25.88-9.71-14.3-16.59,9.71-32.87,4.91-6.68-19.2,24-13.46,31.62-23.38-2.19-9.39-22.23.94-25.05-9.81,8.14-4.28,22.23-2.71,26.3,3.65,14.61-2.82-10.75-32.56,14.51-27.03Z"/>
</svg>