<?xml version="1.0" encoding="UTF-8"?>
<svg id="Layer_1" data-name="Layer 1" xmlns="http://www.w3.org/2000/svg" viewBox="0 0 512 512">
  <defs>
    <style>
      .cls-1 {
        fill: #fff;
      }

      .cls-1, .cls-2, .cls-3 {
        fill-rule: evenodd;
      }

      .cls-2 {
        fill: #212121;
      }

      .cls-3 {
        fill: #009845;
      }
    </style>
  </defs>
  <path class="cls-2" d="M273.33,47.82c7.53-2.18,14.62-4.69,21.06-7.97,1.96.44,3.71-.87,5.13,0,7.31,5.68-4.04,8.62-9.71,10.7-5.78,2.07-10.26,4.15-13.97,5.46,2.4,2.18,5.35,3.38,8.19,5.13,2.62,1.64,4.69,3.93,7.31,5.78,3.71,2.62,7.86,4.58,11.57,7.31,3.6,2.62,6.88,5.57,10.37,8.51,6.77,5.78,14.3,10.59,21.06,16.81,6.55,5.89,13.31,11.9,19.21,18.55,2.95,3.27,5.24,7.2,7.97,11.02,6.11,8.4,14.41,20.95,14.3,34.7,0,2.84-1.31,6.55-2.73,10.04-1.96,5.02-3.49,10.7-6.44,14.62-2.29,3.16-6.55,6.55-10.7,10.04-5.46,4.69-9.71,8.08-15.82,11.57-2.29,1.31-4.47,3.49-6.44,4.26-3.38,1.42-7.2,1.75-9.71,3.93,1.75,12.11,3.82,23.9,5.46,35.91,5.89-2.18,13.75-5.13,19.21-8.84-4.69-10.48-1.96-26.63,7.64-30.45,15.39-.76,21.06,9.49,21.06,23.14,12.33-2.07,22.7,3.27,21.94,15.28-.33,4.37-2.4,6.66-4.58,9.71,6.66,2.18,12.44,11.02,7.97,18.33-3.49,5.57-12.66,7.42-18.55,10.37,5.78,11.57-8.62,25.65-19.75,23.14-4.8-1.09-11.13-7.2-12.44-12.77-1.2-5.24-.22-10.15,0-15.82-4.91.87-10.37,3.82-14.62,6.44,1.31,12.11,3.93,19.97,3.06,33.83-.44,7.97-4.15,18.44-7.31,24.99-1.96,4.04-5.46,8.62-8.19,12.22-8.29,10.8-17.57,17.9-30.78,23.79-8.08,3.6-17.13,4.91-25.54,8.19,5.24,10.91,9.06,23.25,15.5,32.85,9.82-5.78,24.45-18.01,38.42-21.94,6.22-1.75,14.08-.87,15.5,5.46.11,8.08-2.51,13.64-4.91,19.75-4.58,11.57-11.35,17.79-20.08,26.85-7.97,8.19-14.3,14.62-23.79,20.74-4.47,2.84-13.75,6.22-19.21,2.4-6.98-4.8-11.57-17.68-16.15-25.87-1.64-2.95-3.6-5.68-5.13-8.51-7.31-12.99-11.02-26.63-17.03-38.74-8.29,15.61-15.72,34.6-23.79,51.51,6.22,5.02,13.1,9.6,20.08,14.95,6.33,4.91,14.62,10.37,17.68,17.35,5.68,13.1-8.95,22.48-21.94,18.55-3.27-.98-6.55-2.84-10.04-4.26-16.15-6.66-30.01-17.03-42.67-28.92-1.96-1.86-4.69-3.71-7.64-6.66-2.18-2.18-6-6.44-6.11-7.97-.11-2.4,4.04-6.44,5.46-8.84,5.46-8.95,11.57-16.59,17.35-24.66,8.62-10.04,15.28-22.05,21.28-34.7-4.04-2.73-8.62-3.82-12.77-5.46-8.19-3.38-14.84-9.06-21.28-14.95-14.41-12.88-23.14-32.85-21.06-60.35-12.66,2.07-20.52-4.8-20.08-17.68-11.24-.22-17.24-4.37-18.23-14.95-.44-4.04.33-8.51,1.53-12.22,4.15-12.99,15.93-22.7,27.72-24.99-.44-29.58,1.42-59.81,7.31-90.15,5.68-29.03,15.93-53.91,31.65-72.79,5.57-6.66,13.21-11.35,18.88-17.35-4.8-1.31-12.77-.76-13.1-5.78-.44-6.98,13.75-1.96,20.08-2.4,3.49-7.2,6-16.04,9.71-23.46,5.68-11.35,11.68-24.88,23.46-29.9,5.24-2.18,13.86-3.82,19.75-1.53,3.93,1.42,8.51,6.33,10.7,10.04,5.24,9.49,6.55,23.35,7.75,36.67h0ZM259.91,24.9c-2.29-8.19-4.58-17.24-13.75-16.81-8.95.44-14.51,7.09-18.55,13.42-6.55,10.04-11.35,22.48-15.5,34.38,17.57,0,35.14-1.53,50.86-5.46-.11-9.6-.87-17.68-3.06-25.54h0ZM316.01,233.57c-.33-2.18-.11-4.8-.65-7.31-1.09-5.24-4.58-11.79-3.06-15.28,1.75-3.93,9.39-3.06,13.75-3.06,5.57-2.51,10.8-6.11,15.82-9.71,4.91-3.49,10.26-7.42,13.97-11.9,2.95-3.49,4.15-7.86,6.11-12.77,2.84-6.98,3.82-11.9,1.53-20.08-2.29-8.29-6.77-15.06-11.24-21.28-2.07-2.95-4.04-6.33-6.11-8.84-5.02-6.33-12.22-12.33-18.88-18.01-19.21-16.48-42.67-35.14-64.94-46.06-11.24,2.51-24.88,3.71-37.43,4.58-4.04.33-10.15-.33-12.77.65-1.42.55-2.29,2.29-3.6,3.06-.98.55-2.4.55-3.71,1.2-5.78,3.16-10.7,8.73-15.82,13.42-5.13,4.69-9.6,9.82-13.75,15.5-4.04,5.57-6.98,12.55-10.04,19.21-9.39,20.52-13.53,45.29-16.81,70.94-1.09,8.84-1.2,18.33-1.86,27.39-.65,9.39-.76,19.1,0,28.05.22,2.07,1.31,5.13.65,7.31-1.31,3.82-6.44.87-10.04,1.2-8.19.65-17.13,12.44-19.21,19.54-2.51,8.29-.55,19.21,8.51,17.68,2.84-6.22,6.55-11.79,9.71-17.68,1.75-1.2,7.64-4.91,8.84-.33.76,2.73-3.38,7.31-5.13,10.7-2.07,3.71-4.37,8.08-4.58,11.9-.33,5.35,1.09,14.84,7.97,13.42,1.96-.44,3.6-4.37,3.93-5.13,1.75-3.93,2.29-8.19,2.4-12.22,1.09-2.18,4.69-4.91,7.64-3.71,3.49,1.53.76,10.48,2.18,15.82.98,3.82,7.31,11.68,10.37,12.22,6.98,1.2,9.28-7.75,8.19-13.42-.65-3.93-2.73-7.2-4.91-10.37-3.27-1.31-8.84-1.53-8.51-4.91.22-2.29,4.15-5.02,6.98-5.13,4.26-.33,8.62,4.47,12.77,2.18,3.27-4.8,7.53-17.46,0-20.08-3.49.55-6.88.11-9.49,1.86-1.86,1.2-2.18,3.6-4.58,4.58-1.96.76-4.04,1.09-6.44-1.53,1.42-11.35,1.96-24.45,3.6-35.69.65-4.04,1.86-7.86,1.86-11.24,0-1.53-.87-3.06-.33-4.58.98-2.51,7.86-4.04,9.71-.87,1.42,2.4-.22,6.98-.65,10.37-1.2,9.71-3.6,21.83-3.6,31.98,6.98-2.18,18.23-2.62,21.94,3.71,2.4,6.33.44,19.43-3.93,24.66-2.07,2.4-5.24,3.93-8.19,4.26.55,3.38,2.29,6,2.73,9.49.98,9.06-4.15,19.21-11.24,21.61-8.4,2.84-15.39-.33-19.75-5.78-.33,14.08,0,24.99,4.58,35.69,2.84,6.55,7.09,11.35,11.57,15.82,8.19,8.19,17.03,16.26,29.9,19.21,1.42.33,2.95,0,4.26.65,2.07.87,6,4.69,6.11,6.98.11,2.29-2.95,6.55-4.58,9.49-5.68,9.93-10.48,18.44-16.15,26.52-8.19,11.46-17.03,20.95-23.14,33.5,8.62,9.49,17.46,17.13,28.05,24.99,4.47,3.27,9.71,6.77,16.48,10.04,3.38,1.64,14.95,7.64,20.08,6.44,4.04-.98,4.04-6.88,2.18-10.04-1.75-3.06-5.68-5.78-8.84-8.51-6.88-6-11.9-10.04-20.08-15.28-1.96-1.31-9.82-4.91-10.04-7.64-.22-1.75,2.62-5.57,3.6-7.97,8.62-18.88,16.81-38.09,25.32-56.1-.44-5.24,4.58-8.29,9.49-6.11,1.86.87,1.75,2.18,2.73,4.58,5.89,14.62,11.79,29.25,18.01,42.34,3.93,8.29,8.51,13.75,11.24,21.94,1.75,2.07,3.16,4.69,4.91,7.31,1.2,1.86,3.38,6,5.78,6.44,2.29.33,6.66-2.84,9.17-4.58,3.16-2.29,5.57-4.37,7.64-6.44,12.44-12.22,24.66-21.83,30.78-39.29,1.2-3.27,3.49-6.98,2.4-11.02-12.11,4.15-24.77,11.35-34.7,19.54-2.62,2.18-6.88,8.19-10.04,8.19-2.4,0-4.8-2.4-6.44-3.93.11-6-2.51-8.08-4.91-12.44-5.35-9.6-8.62-23.79-15.28-30.45-.65-2.07-1.86-2.62-1.2-4.58,1.31-4.47,9.17-2.51,13.42-3.38,19.86-3.93,37.11-13.64,47.26-26.85,3.27-4.26,7.09-9.49,9.17-13.97,1.31-2.84,1.96-6.44,3.06-9.71,2.51-7.97,3.82-18.01,2.4-27.72-.98-7.09-5.13-13.42-4.58-21.61,1.96-2.18,4.26-1.2,6.44-1.86,1.96-.55,3.82-2.07,5.78-3.06,4.47-2.07,7.75-2.95,12.77-4.91,1.96-.76,4.47-2.84,6.11-3.06,3.38-.33,7.2,1.86,7.31,5.13.11,1.53-1.09,3.06-1.53,4.58-2.07,7.53-3.27,22.59,3.93,22.81,3.93.11,9.6-6,9.71-9.17.33-6.33-10.59-9.49-4.91-14.95,2.73-1.64,5.24,1.2,8.51,1.2,2.4,0,6.11-2.07,8.19-3.06,4.47-2.18,8.84-4.91,5.13-10.04-4.8-.33-9.17,3.16-14.3,2.73-3.49-.22-6.77-2.95-6.11-6.11.65-2.84,3.6-2.4,6.44-3.71,4.47-1.96,8.51-6.44,10.7-10.37,0-2.73.22-5.46-.87-6.98-5.57-1.2-10.04-.76-13.97,1.86-2.18,1.42-3.71,6.11-6.98,6.11-2.4,0-6.44-3.38-6.44-6.11,0-1.86,2.84-3.38,4.26-5.78,1.09-1.96,2.29-5.68,2.4-7.64.44-5.13-1.09-11.9-5.46-12.22-5.57-.33-7.53,11.68-7.31,15.28.44,5.57,10.7,16.81-1.86,15.82-3.49,2.62-7.86,2.95-12.44,5.13-6.66,3.27-12.55,11.46-21.06,4.91,0-9.71-2.07-18.99-3.93-30.12h0Z"/>
  <path class="cls-3" d="M262.97,50.55c-15.72,3.93-33.29,5.46-50.86,5.46,4.15-12,8.95-24.45,15.5-34.38,4.15-6.22,9.6-12.99,18.55-13.42,9.17-.44,11.46,8.62,13.75,16.81,2.18,7.75,2.95,15.82,3.06,25.54h0Z"/>
  <path class="cls-1" d="M319.93,263.8c8.51,6.66,14.3-1.64,21.06-4.91,4.58-2.29,8.95-2.62,12.44-5.13,12.55.98,2.29-10.37,1.86-15.82-.22-3.49,1.75-15.5,7.31-15.28,4.37.22,5.89,7.09,5.46,12.22-.22,1.86-1.31,5.68-2.4,7.64-1.42,2.4-4.26,3.93-4.26,5.78,0,2.73,4.04,6.11,6.44,6.11,3.27,0,4.8-4.69,6.98-6.11,3.93-2.51,8.4-3.06,13.97-1.86,1.09,1.53.98,4.37.87,6.98-2.18,3.93-6.22,8.4-10.7,10.37-2.84,1.2-5.78.87-6.44,3.6-.76,3.06,2.62,5.78,6.11,6.11,5.13.44,9.49-3.06,14.3-2.73,3.71,5.13-.76,7.86-5.13,10.04-2.07.98-5.89,3.06-8.19,3.06-3.27,0-5.78-2.84-8.51-1.2-5.68,5.46,5.24,8.62,4.91,14.95-.11,3.16-5.78,9.28-9.71,9.17-7.31-.22-6-15.28-3.93-22.81.44-1.53,1.64-3.06,1.53-4.58-.11-3.38-3.93-5.57-7.31-5.13-1.64.22-4.15,2.29-6.11,3.06-5.02,1.96-8.29,2.84-12.77,4.91-2.07.87-3.82,2.51-5.78,3.06-2.18.65-4.37-.33-6.44,1.86-.55,8.19,3.6,14.51,4.58,21.61,1.31,9.71.11,19.75-2.4,27.72-1.09,3.38-1.75,6.88-3.06,9.71-2.07,4.47-5.89,9.82-9.17,13.97-10.15,13.21-27.39,22.81-47.26,26.85-4.26.87-12-1.2-13.42,3.38-.55,1.96.55,2.51,1.2,4.58,6.55,6.66,9.93,20.84,15.28,30.45,2.4,4.37,5.02,6.55,4.91,12.44,1.53,1.53,3.93,4.04,6.44,3.93,3.16-.11,7.42-6.11,10.04-8.19,9.93-8.08,22.59-15.39,34.7-19.54,1.09,3.93-1.31,7.64-2.4,10.91-6.11,17.46-18.33,27.07-30.78,39.29-2.07,2.07-4.37,4.15-7.64,6.44-2.4,1.75-6.77,4.91-9.17,4.58-2.4-.33-4.58-4.58-5.78-6.44-1.75-2.62-3.16-5.24-4.91-7.31-2.73-8.19-7.31-13.64-11.24-21.94-6.22-13.1-12-27.72-18.01-42.34-.98-2.4-.87-3.71-2.73-4.58-4.8-2.18-9.93.87-9.49,6.11-8.51,18.01-16.59,37.11-25.32,56.1-1.09,2.4-3.82,6.11-3.6,7.97.22,2.62,8.08,6.33,10.04,7.64,8.29,5.13,13.21,9.28,20.08,15.28,3.16,2.84,7.09,5.46,8.84,8.51,1.86,3.16,1.86,9.06-2.18,10.04-5.24,1.31-16.7-4.8-20.08-6.44-6.77-3.27-12-6.77-16.48-10.04-10.59-7.86-19.43-15.5-28.05-24.99,6.11-12.66,14.95-22.05,23.14-33.5,5.68-7.97,10.48-16.59,16.15-26.52,1.64-2.84,4.69-7.2,4.58-9.49s-4.04-6.11-6.11-6.98c-1.42-.55-2.84-.33-4.26-.65-12.88-2.95-21.72-11.02-29.9-19.21-4.47-4.47-8.73-9.28-11.57-15.82-4.58-10.7-4.91-21.61-4.58-35.69,4.37,5.46,11.46,8.62,19.75,5.78,7.2-2.4,12.33-12.55,11.24-21.61-.44-3.49-2.18-6.11-2.73-9.49,2.95-.33,6.22-1.86,8.19-4.26,4.47-5.35,6.44-18.33,3.93-24.66-3.71-6.22-14.95-5.89-21.94-3.6,0-10.15,2.4-22.26,3.6-31.98.44-3.38,2.07-7.97.65-10.37-1.86-3.16-8.73-1.64-9.71.87-.55,1.53.33,2.95.33,4.58,0,3.49-1.2,7.2-1.86,11.24-1.75,11.24-2.18,24.23-3.71,35.69,2.4,2.62,4.37,2.29,6.44,1.53,2.4-.98,2.62-3.27,4.58-4.58,2.62-1.64,6-1.2,9.49-1.86,7.53,2.62,3.27,15.28,0,20.08-4.15,2.4-8.51-2.4-12.77-2.18-2.84.22-6.77,2.84-6.98,5.13-.33,3.38,5.24,3.49,8.51,4.91,2.07,3.16,4.15,6.44,4.91,10.37.98,5.68-1.31,14.62-8.19,13.42-3.06-.55-9.39-8.4-10.37-12.22-1.42-5.35,1.42-14.3-2.18-15.82-2.95-1.2-6.44,1.42-7.64,3.6-.11,4.04-.65,8.29-2.4,12.22-.33.76-1.96,4.69-3.93,5.13-6.77,1.53-8.29-8.08-7.97-13.42.22-3.82,2.51-8.08,4.58-11.9,1.86-3.38,5.89-7.86,5.13-10.7-1.2-4.58-7.09-.98-8.84.33-3.16,5.89-6.88,11.46-9.71,17.68-9.06,1.53-11.02-9.28-8.51-17.68,2.07-7.09,11.02-18.77,19.21-19.54,3.6-.33,8.84,2.62,10.04-1.2.76-2.18-.44-5.24-.65-7.31-.76-8.95-.65-18.66,0-28.05.65-9.17.76-18.55,1.86-27.39,3.16-25.76,7.31-50.53,16.81-70.94,3.06-6.66,6-13.64,10.04-19.21,4.15-5.68,8.51-10.91,13.75-15.5,5.13-4.69,10.04-10.26,15.82-13.42,1.31-.65,2.62-.65,3.71-1.2,1.31-.65,2.18-2.51,3.6-3.06,2.62-.98,8.73-.33,12.77-.65,12.66-.87,26.19-2.07,37.43-4.58,22.15,10.8,45.73,29.47,64.94,46.06,6.66,5.68,13.86,11.68,18.88,18.01,2.07,2.51,4.04,5.89,6.11,8.84,4.47,6.33,8.95,13.1,11.24,21.28,2.29,8.19,1.31,13.1-1.53,20.08-1.96,4.91-3.16,9.28-6.11,12.77-3.71,4.47-9.06,8.4-13.97,11.9-5.02,3.6-10.26,7.31-15.82,9.71-4.26,0-12-.87-13.75,3.06-1.53,3.49,1.96,10.04,3.06,15.28.55,2.4.22,5.13.65,7.31,1.96,11.24,4.04,20.52,4.04,30.34h0ZM238.63,100.2c-8.95,6.44-13.86,32.74-3.38,40.49,4.15,3.06,11.13,3.06,15.28.87,5.35-2.84,12.77-9.82,14.95-16.81,2.18-6.77.76-13.21,0-20.41-1.53-.98-1.86-3.06-2.73-4.58-3.27-2.73-6.98-4.91-13.42-4.58-.22,0-.33,0-.33.33-3.93,1.2-6.98,3.06-10.37,4.69h0ZM234.37,278.42c-11.57-10.15-19.21-31.32-17.68-49.98.22-2.4,1.64-5.78.65-8.51-.87-2.29-7.31-4.37-9.71-1.2-1.09,1.42-1.09,7.2-1.2,9.17-.87,20.08,3.82,33.29,11.57,45.73,4.69,7.53,10.15,11.79,17.68,16.15,2.4,1.42,4.91,3.27,7.31,4.26,12.66,5.13,28.7,2.84,38.96-3.71,2.29-1.75,3.93-3.6,6.44-6.11,1.96-2.07,5.78-3.49,5.78-6.98s-2.84-5.68-6.11-5.46c-4.37.22-6.22,6.55-8.84,8.51-12.44,12.88-34.6,7.09-44.85-1.86h0Z"/>
  <path class="cls-2" d="M249,95.62c-.11-.22.11-.33.33-.33,6.44-.44,10.15,1.86,13.42,4.58.87,1.53,1.31,3.6,2.73,4.58.76,7.2,2.18,13.64,0,20.41-2.18,6.98-9.6,13.86-14.95,16.81-4.04,2.18-11.13,2.18-15.28-.87-10.48-7.86-5.57-34.05,3.38-40.49,3.38-1.75,6.44-3.6,10.37-4.69h0Z"/>
  <path class="cls-2" d="M279.12,280.28c2.62-1.96,4.47-8.29,8.84-8.51,3.27-.22,6.11,2.18,6.11,5.46,0,3.49-3.82,4.91-5.78,6.98-2.4,2.51-4.04,4.37-6.44,6.11-10.37,6.55-26.3,8.73-38.96,3.71-2.4-.98-4.91-2.84-7.31-4.26-7.53-4.37-12.99-8.62-17.68-16.15-7.75-12.33-12.44-25.65-11.57-45.73.11-1.96.11-7.75,1.2-9.17,2.4-3.06,8.84-1.09,9.71,1.2,1.09,2.73-.44,6.11-.65,8.51-1.53,18.66,6.11,39.83,17.68,49.98,10.37,8.95,32.52,14.73,44.85,1.86h0Z"/>
</svg>