<?xml version="1.0" encoding="UTF-8"?>
<svg id="Layer_1" data-name="Layer 1" xmlns="http://www.w3.org/2000/svg" viewBox="0 0 512 512">
  <defs>
    <style>
      .cls-1 {
        fill: #fff;
      }

      .cls-1, .cls-2, .cls-3, .cls-4, .cls-5, .cls-6 {
        fill-rule: evenodd;
      }

      .cls-2 {
        fill: #ffcd00;
      }

      .cls-3 {
        fill: #00a0df;
      }

      .cls-5 {
        fill: #e04403;
      }

      .cls-6 {
        fill: #00953b;
      }
    </style>
  </defs>
  <path class="cls-1" d="M210.08,16.09c-1.97,1.75-4.59,1.09-6.99,1.97-3.71,1.31-6,4.91-9.28,6.55-1.64-.11-2.18-1.31-3.49-1.75-4.59-9.93,2.84-20.09,13.97-17.36,3.71,1.64,5.9,5.02,5.79,10.59Z"/>
  <path class="cls-1" d="M217.06,42.29c1.09-3.38,5.68-6.77,6.11-10.81.44-4.26-2.84-6.77-5.24-9.72,4.15-2.62,14.85-4.04,19.21-.87,1.64,1.2,4.59,6.11,4.69,9.17.33,10.92-17.25,23.36-24.78,12.23Z"/>
  <path class="cls-2" d="M200.47,40.87c-6.66-3.93-.76-15.72,6.99-15.94,2.29-.11,3.93,1.86,6.11.87,4.48,2.51-.33,10.37-3.17,12.55-2.73,1.86-6.88,2.29-9.93,2.51Z"/>
  <path class="cls-1" d="M189.99,30.82c.11,1.86-.44,3.17-.33,5.13.11,1.53,1.2,2.73.87,4.04-.22,1.2-3.17,3.17-4.37,4.26-2.4,2.18-4.91,5.24-9.93,4.8-9.06-8.62,3.49-26.86,13.76-18.23Z"/>
  <path class="cls-1" d="M208,46.22c-.11,0,.11-.33.33-.33,1.09.11,4.69,4.37,4.91,5.46.98,4.26-3.6,10.26-4.69,11.68-2.62,3.28-17.03,10.26-20.31,2.62-1.75-4.15-.22-11.79,1.75-14.3.66-.87,2.62-1.97,3.49-2.51,1.09-.66,2.84-2.07,3.82-2.29,2.51-.55,6.22.98,10.15,0,.11,0,.22-.33.55-.33Z"/>
  <path class="cls-3" d="M294.03,83.12c-5.35,4.37-11.46,7.97-19.76,9.39-.55-13.32-4.8-23.04-11.03-30.79-2.95-2.62-5.68-5.24-9.28-7.42-.98-.55-2.84-1.09-2.95-2.51,21.94-2.18,39.74,12.34,43.01,31.33Z"/>
  <path class="cls-6" d="M263.57,95.35c-1.42-.11-1.97.55-3.49.33-1.31-6.33-.22-11.68-2.95-17.14-2.51-5.02-6.99-11.35-11.9-15.39-3.71-3.06-10.04-5.35-15.72-6.22-.98-.87-2.29-1.31-3.49-1.97-2.29.22-4.26.44-4.91-1.42v-.87c2.95-.44,7.64.98,10.81-.33,5.79,2.84,12.99,4.26,18.56,8.3,7.21,5.24,11.57,11.79,13.97,22.49.98,4.48,1.86,8.52-.87,12.23Z"/>
  <path class="cls-3" d="M249.6,96.22c-8.19.44-16.7-.55-24.45-2.29-2.62-.55-5.46-.66-7.53-1.75-3.28-1.64-5.35-4.69-8.73-5.46,2.07-11.46,11.03-18.45,19.76-22.49,2.84-1.31,7.42,1.64,9.93,3.38,3.28,2.4,7.64,6.55,9.93,10.59,2.62,5.02,3.28,14.3,1.09,18.01Z"/>
  <path class="cls-1" d="M294.9,93.05c.22-.11.33.11.33.33,1.97,4.37.11,8.41-1.42,12.01-1.75,4.15-2.4,6.44-6.99,8.84-1.09.55-2.73.87-4.04,1.42-4.26,1.75-7.64,1.97-13.65,2.51-5.13.55-10.59,1.97-15.72,1.97-18.12.33-36.57-2.51-45.96-10.04-1.97-3.38-1.64-10.04-.87-14.52,23.14,9.06,53.71,10.48,77.62,2.29,3.82-1.2,7.21-3.71,10.7-4.8Z"/>
  <path class="cls-3" d="M308.66,123.62c-19.65,16.38-66.16,25.76-100.55,15.94-9.93-2.84-16.7-5.13-22.93-10.81-2.95-2.73-6.66-4.48-6.44-9.39.44-7.86,10.7-12.45,18.89-13.65.87,1.97.22,3.82.33,6.33,3.49,5.68,11.79,7.64,19.21,10.59,7.21,2.84,15.72,4.48,24.45,4.59,2.07,0,4.04-.66,6.11-.55,19.87.76,41.27-1.2,51.75-11.68,2.95-2.95,4.69-5.46,5.24-10.04,3.6-2.29,9.39,3.6,9.61,7.1.11,5.13-4.59,8.52-5.68,11.57Z"/>
  <path class="cls-5" d="M297.85,444.91c-6.66,10.7-32.1,11.9-44.43,5.46.11-3.82-.33-7.97-.33-12.88.11-6.66,3.38-14.85-6.66-12.55-3.6,5.35-.55,16.38-1.42,24.02-9.72,3.93-22.49,3.6-29.91-2.51,1.09-2.95,1.97-6.66,2.95-10.59,1.31-5.57,3.82-13.65-2.07-15.94-3.38-1.31-5.68.76-9.06.87-7.1.11-15.39-1.86-22.93-3.71-7.42-1.86-14.52-3.71-20.63-6.55-13.21-6-24.67-12.01-34.06-19.98-4.8-4.15-9.06-8.84-13.32-13.65-4.48-5.02-8.95-9.39-12.23-14.85-3.49-5.79-7.1-11.03-9.93-17.14-3.93-8.84-7.64-17.14-9.28-28.82-.55-3.6-1.75-6.77-2.07-9.39-2.84-23.8,4.91-46.94,14.19-60.48,4.37-6.33,8.19-11.14,14.3-16.27,2.29-1.97,4.37-2.29,4.04-6.88,6.33-2.95,9.61-9.06,11.9-15.94,14.74.33,31-4.48,42.69-9.72,12.55-5.57,23.8-14.63,32.53-23.91,2.95-3.17,4.69-5.79,7.31-9.39,2.95-4.15,6.88-9.72,9.06-14.85,30.79,3.28,55.02-1.09,77.62-9.39,2.95-1.09,5.79-3.17,8.73-4.04,1.2-.33,2.4,0,3.49-.33,1.53-.33,2.62-1.42,4.04-1.97,5.35-1.97,10.92-2.29,17.47-3.38,13.1-2.18,26.64-2.29,41.27-1.09,9.61.76,19.87,5.24,28.17,8.84,8.73,3.71,16.81,8.95,21.83,14.85,9.93,11.68,10.15,34.93.33,47.38-.87,1.09-2.4,2.29-3.49,3.38-7.42,7.64-18.23,13.97-29.91,18.01-6.66,2.18-14.19,3.49-21.83,5.68-6.55,1.97-16.16,4.26-22.71,3.38-2.07-.33-2.62-1.75-5.57-1.97-2.29-.22-6.11,1.31-6.44,3.38-.33,2.07,2.62,5.68,4.37,6.55,2.07.98,4.26.22,6.66.87,1.53.33,3.71,1.53,5.57,2.29,4.91,2.07,10.48,5.57,14.52,8.3,6.66,4.37,11.46,8.19,15.94,14.3,4.48,6,7.97,12.23,11.35,19.11,3.17,6.44,6.88,14.19,8.41,21.73,3.17,14.74,2.4,33.41-1.42,46.18-3.82,12.77-11.03,24.45-18.01,33.08-7.31,8.95-17.58,17.25-28.82,22.82-8.62,4.26-18.34,7.53-28.82,9.93-6.11,1.42-12.23,4.48-19.76,4.8-5.13.22-10.59-1.64-11.35,4.26-.44,3.49,1.75,6.88,3.17,9.93,1.75,3.06,3.17,6,4.59,8.73ZM109.75,321.33c-2.95,3.17-9.28,8.08-10.48.55-1.31-8.19,7.97-16.38,14.19-15.94,1.97.11,6.22,2.95,8.73.87,2.29-1.97.55-11.35,1.42-16.81.22-.98,1.31-3.17.87-5.13-.44-2.29-5.02-2.51-7.31-1.09-2.07,4.91-.76,11.24-2.07,16.81-10.15.44-22.82,7.75-23.58,19.11-.55,9.06,6.22,14.63,14.52,12.55.22,7.86.55,16.92,6.66,18.23,7.53,1.64,11.68-4.69,15.72-8.84,4.59,6.55,13.43,14.19,22.71,8.3,4.48-2.84,5.9-8.95,6.99-15.72,6.33-.55,12.01-1.64,15.94-5.13,3.38-2.95,6.77-9.39,6.44-14.52-.98-12.34-17.47-10.04-28.82-10.26-1.09-4.69,4.59-10.92,2.95-14.85-1.31-3.17-6.22-2.4-7.86,0-1.64,2.4-1.64,7.64-2.29,10.26-1.2,4.15-6.22,13.1,2.62,12.23,1.53-.11,2.84-1.31,4.37-1.75,5.57-1.53,14.85-1.2,18.34,1.42,7.86,6-3.71,18.34-11.35,16.27-3.49-.98-2.07-4.8-5.79-6.55-2.4.55-4.69.44-5.57,1.97-1.42,2.73,1.75,5.68,2.62,8.52,1.31,4.48-.22,13.97-4.91,14.3-3.82.22-8.52-6.55-9.93-10.59-1.42-4.15-.11-9.28-2.29-12.55-2.07-.33-5.13-.55-6.44,1.09-1.09,1.53-.33,3.6-.55,6-.76,6.44-4.8,12.01-9.28,14.3-5.57-6.99-1.42-16.81,2.07-22.27,1.42-2.29,4.26-5.57,2.62-7.75-1.42-1.97-4.26-.55-6.66,0-1.42,2.29-2.4,4.69-4.59,6.99ZM344.68,310.52c-.55-5.02.22-12.77-.33-17.14-.44-3.71-5.57-5.35-8.41-2.29-.11,5.79,1.97,13.43.55,19.98-2.95.66-7.86-.11-11.03,1.09-6.22,2.4-13.65,11.79-14.19,19.11-.76,8.41,6.22,10.48,12.77,11.14-1.31,5.35-4.48,14.85.33,18.78,1.64,1.42,5.02,1.97,6.99,1.97,4.91,0,8.19-3.6,11.9-5.13,1.64,6.44,7.75,12.23,15.72,10.81,7.42-1.31,9.61-10.48,12.23-16.59,6.44.11,11.35.66,15.72-1.42,8.08-3.93,9.17-16.05,6.11-25.44-4.37-3.71-11.24-4.91-18.34-6-1.31-7.75,2.84-16.92-1.2-21.07-8.08-1.97-6.88,3.93-6.66,9.39.22,5.68-.87,11.79-.55,16.59.66.33.98,1.2,1.42,1.75,3.17,1.86,5.79-.33,9.06-.55,4.04-.33,8.84,1.53,9.61,4.59,1.86,7.21-.87,14.63-5.24,16.27-2.4.87-6.77,1.09-9.61-.55-1.75-.98-1.97-4.04-3.82-5.13-2.62-1.53-6.44.11-6.99,1.42-.76,3.49,1.64,4.8,2.07,7.1.76,4.26-3.17,13.54-6.44,13.65-2.73.11-4.91-3.38-5.57-6-1.42-6.88,4.48-13.43,1.2-18.23-2.51-.66-5.79-.11-6.99,1.42-.22,5.57-3.38,8.62-6.66,12.01-2.07,2.07-4.15,5.02-7.31,5.13-2.95-4.04-1.2-9.93.55-13.97.76-1.64,2.29-4.04,3.49-5.46.98-1.09,3.82-3.82,5.24-4.8,1.2-.87,2.18-.66,2.62-1.75.76-1.86-.87-3.6-1.75-4.59-1.31-.33-2.84-.55-4.04-.33-4.04.98-10.15,10.7-15.94,9.39-2.73-.55-2.73-4.59-1.75-7.42,1.31-3.71,7.31-10.26,11.68-11.35,5.46-1.53,9.5,2.73,14.19-.33.66-1.53-.44-3.49-.65-6Z"/>
  <path class="cls-2" d="M181.25,135.63c-2.84,2.4-6.55,2.73-9.61,4.26-8.52,4.26-16.81,10.48-24.13,16.59-9.83,8.19-18.45,17.69-25,29.15-5.9-1.75-1.86-7.97.33-12.23,9.28-18.34,26.09-32.64,47.05-38.21,3.6.44,8.62-1.75,11.35.44Z"/>
  <path class="cls-2" d="M189.77,140.98c-9.17,9.17-20.52,15.72-31.11,23.36-10.48,7.53-21.29,15.17-32.86,21.4,8.84-16.92,24.45-28.49,40.07-39.08,2.84-1.86,5.24-3.71,8.19-5.13,3.06-1.42,7.42-1.86,10.81-3.71,1.75.98,3.38,1.97,4.91,3.17Z"/>
  <path class="cls-2" d="M200.8,144.69c-1.09,3.71-4.48,5.24-6.11,8.52-8.52,8.62-18.01,16.05-29.04,21.94-10.81,5.79-22.6,12.12-37.45,13.65,1.75-2.73,4.91-4.15,7.53-6,8.19-5.57,16.81-10.81,25.33-16.59,11.24-7.64,22.16-16.05,31.99-23.69-.11.11,1.42-.44,1.2,0,2.29.66,4.26,1.53,6.55,2.18Z"/>
  <path class="cls-2" d="M204.84,146.11c1.42.22,2.84.44,3.82,1.09,0,2.4-1.64,4.59-2.95,6.88-9.39,16.59-23.91,30.35-42.69,37.99-4.15,1.75-8.95,3.82-13.97,5.13-7.42,1.86-15.17,4.15-21.83,1.42-.55-1.97-1.42-5.02-1.2-6.88,7.97-.55,14.96-1.64,22.05-4.8,13.86-6.33,29.26-13.54,39.52-22.82,6.33-5.68,11.24-12.23,17.25-18.01Z"/>
  <path class="cls-4" d="M274.38,177.01c-.11,4.04-1.64,9.06-3.6,12.34-.76,1.2-2.07,2.62-3.49,3.93-3.38,3.49-8.08,7.75-13.97,8.41-4.8.44-7.53-1.64-10.59-3.38-1.64-2.62-3.49-5.79-2.73-10.04.66-3.38,2.95-7.86,4.59-10.7,2.73-4.8,7.97-7.64,11.68-10.15,6.55-2.18,13.97.76,16.7,5.57.66,1.2.55,2.73,1.42,4.04Z"/>
  <path class="cls-2" d="M105.38,184.98c0-.22.11-.33.33-.33,11.57,2.95,15.94,15.28,11.03,25.98-1.75,3.82-8.3,8.84-12.45,10.04-3.06.87-8.08.22-11.57-1.2-11.68-4.59-7.64-19.98-1.75-27.62,3.6-4.91,7.86-5.02,14.41-6.88Z"/>
  <path class="cls-4" d="M114.44,314.45c2.4-.55,5.24-1.97,6.66,0,1.64,2.18-1.2,5.46-2.62,7.75-3.49,5.46-7.64,15.28-2.07,22.27,4.48-2.29,8.52-7.86,9.28-14.3.33-2.4-.55-4.48.55-6,1.2-1.75,4.37-1.53,6.44-1.09,2.29,3.28.98,8.41,2.29,12.55,1.42,4.04,6.11,10.81,9.93,10.59,4.69-.33,6.33-9.83,4.91-14.3-.87-2.84-4.04-5.9-2.62-8.52.76-1.53,3.06-1.53,5.57-1.97,3.71,1.75,2.4,5.68,5.79,6.55,7.64,2.07,19.21-10.26,11.35-16.27-3.38-2.62-12.66-2.95-18.34-1.42-1.53.44-2.84,1.53-4.37,1.75-8.84.87-3.82-8.08-2.62-12.23.76-2.62.76-7.86,2.29-10.26,1.64-2.4,6.55-3.17,7.86,0,1.64,3.93-4.04,10.15-2.95,14.85,11.35.22,27.84-2.07,28.82,10.26.44,5.13-2.95,11.57-6.44,14.52-4.04,3.49-9.61,4.59-15.94,5.13-1.09,6.66-2.51,12.88-6.99,15.72-9.28,5.9-18.12-1.75-22.71-8.3-4.04,4.15-8.19,10.48-15.72,8.84-6.11-1.31-6.44-10.37-6.66-18.23-8.41,2.07-15.17-3.49-14.52-12.55.76-11.35,13.32-18.67,23.58-19.11,1.2-5.57,0-11.9,2.07-16.81,2.18-1.42,6.77-1.2,7.31,1.09.44,1.97-.66,4.15-.87,5.13-.87,5.57.76,14.96-1.42,16.81-2.51,2.07-6.77-.76-8.73-.87-6.33-.44-15.61,7.86-14.19,15.94,1.2,7.42,7.53,2.62,10.48-.55,2.07-2.4,3.06-4.8,4.59-6.99Z"/>
  <path class="cls-4" d="M345.23,316.75c-4.69,3.06-8.84-1.2-14.19.33-4.37,1.2-10.37,7.64-11.68,11.35-.98,2.84-.98,6.88,1.75,7.42,5.79,1.31,11.9-8.41,15.94-9.39,1.31-.33,2.84,0,4.04.33.87.98,2.51,2.73,1.75,4.59-.44.98-1.42.87-2.62,1.75-1.42,1.09-4.26,3.71-5.24,4.8-1.2,1.31-2.73,3.71-3.49,5.46-1.86,4.04-3.6,9.93-.55,13.97,3.17-.11,5.13-3.06,7.31-5.13,3.28-3.38,6.55-6.33,6.66-12.01,1.2-1.53,4.48-2.07,6.99-1.42,3.28,4.8-2.62,11.46-1.2,18.23.55,2.62,2.84,6.11,5.57,6,3.28-.22,7.21-9.39,6.44-13.65-.44-2.29-2.73-3.6-2.07-7.1.55-1.31,4.37-2.95,6.99-1.42,1.86,1.09,2.07,4.15,3.82,5.13,2.84,1.64,7.21,1.42,9.61.55,4.37-1.64,7.1-9.06,5.24-16.27-.76-3.06-5.57-4.91-9.61-4.59-3.17.22-5.9,2.4-9.06.55-.55-.55-.76-1.31-1.42-1.75-.22-4.69.76-10.81.55-16.59-.22-5.46-1.42-11.35,6.66-9.39,4.04,4.26-.11,13.32,1.2,21.07,7.1,1.09,13.97,2.29,18.34,6,3.06,9.39,1.97,21.51-6.11,25.44-4.37,2.07-9.28,1.53-15.72,1.42-2.62,6-4.8,15.28-12.23,16.59-7.97,1.42-14.08-4.37-15.72-10.81-3.71,1.53-6.99,5.13-11.9,5.13-1.97,0-5.24-.55-6.99-1.97-4.69-3.93-1.64-13.43-.33-18.78-6.55-.66-13.54-2.73-12.77-11.14.66-7.31,8.08-16.7,14.19-19.11,3.17-1.2,8.08-.44,11.03-1.09,1.42-6.55-.66-14.19-.55-19.98,2.84-3.06,7.97-1.42,8.41,2.29.55,4.37-.22,12.12.33,17.14.33,2.29,1.42,4.26.65,6Z"/>
  <path class="cls-3" d="M244.68,456.81c.66,15.39,1.86,31.22,2.95,46.51-6.99,3.28-19.43,1.42-27.95,0,.44-4.26,1.75-8.52,2.62-13.65.87-5.57,3.6-16.92-2.29-18.01-1.86-.33-4.37.87-5.57,2.29-.76.98-.76,2.29-1.42,3.38-1.31,2.18-4.04,4.37-6.44,6.55-2.18,1.97-4.48,4.59-6.66,6-7.75,5.13-17.69,8.3-25.55,11.68,6.77-7.64,13.76-14.52,20.09-22.27,3.28-3.93,6.55-7.64,9.61-11.68,3.17-4.26,5.13-9.5,8.41-13.97,8.3,3.93,21.07,6.11,32.21,3.17Z"/>
  <path class="cls-3" d="M332.13,499.61c-12.12-.98-21.83-3.71-30.79-7.97-6.22-2.95-9.72-6-14.19-10.26-1.42-1.31-3.38-2.62-4.69-4.04-1.31-1.31-1.86-3.6-3.49-4.26-1.75-.76-4.04.11-5.79,0-2.73,1.97-.87,5.35-.33,8.84.22,1.64-.11,3.38,0,5.13.33,6.44,2.51,12.66,2.95,16.81-5.68.66-12.23.98-17.47,0-.44-.98-1.42-1.53-2.07-2.29-1.75-12.55-2.84-28.17-2.95-42.8,5.68.22,11.03,2.07,17.14,2.29,11.57.44,23.8-2.95,31.66-7.1h.55c5.02,7.64,9.72,15.5,14.52,23.14,4.91,7.64,11.14,14.3,14.96,22.49Z"/>
  <path class="cls-4" d="M326.89,476.57c3.38,5.9,9.17,13.21,13.65,19.98,2.07,3.17,5.46,7.42,2.07,10.26-10.15.98-22.49-1.42-33.41-4.26-10.48-2.73-20.74-9.28-27.62-15.39-.87,5.13,1.42,10.37,3.17,14.52,1.2,2.73,2.73,6.22,0,8.3-1.97,1.53-10.7,1.2-13.97,1.09-8.3-.11-13.97.76-19.76-.87-5.57.87-12.45,2.07-19.21,1.75-2.4-.11-4.59-.87-6.99-1.09-5.46-.55-11.35.33-15.07-2.51-1.2-6.66,4.8-12.23,3.82-19.65-3.93,2.07-6.66,5.35-10.81,7.64-3.71,2.07-7.97,3.93-12.55,6-6.22,2.84-11.79,6.11-20.31,7.42-4.37.66-12.99,2.29-12.45-3.38.22-1.97,4.8-5.13,6.66-6.55,7.75-5.79,13.86-12.55,19.43-19.98-.55-1.2-3.49.55-4.37-.87-4.8-6.66,7.86-12.99,7.86-3.71,3.38-1.97,5.02-5.57,7.31-8.52-.66-.55-2.73.44-3.82-.33-5.9-6.88,6.44-14.3,6.44-3.71,3.17-2.62,4.8-6.77,6.44-10.81-1.97-.11-2.95.87-4.37.33-3.93-1.53-2.4-8.84,1.42-9.17,2.73-.22,3.6,1.97,5.24,3.38,2.4-4.8,4.59-11.35,4.69-17.36-6.66-1.31-14.63-2.07-22.38-3.71-1.64-.33-2.84-1.09-4.37-1.42-4.69-.98-9.28-1.53-13.97-2.84-3.93-1.09-8.3-3.6-12.45-5.46-12.45-5.46-23.47-11.79-33.19-19.98-6.55-5.46-11.79-11.79-17.47-18.01-5.79-6.22-10.15-13.32-15.07-19.98-10.7-18.67-19.11-43.78-17.14-71.07,1.86-24.56,13.86-43.89,25.87-58.19-21.83-.44-28.82-19.87-19.21-35.04,1.86-2.95,4.26-6.66,6.66-8.52,1.64-1.31,4.04-1.75,5.57-3.17.98-.87,1.31-2.62,2.62-3.17,3.93-1.64,10.26,1.09,15.07.33,5.79-12.34,13.21-23.91,23.25-32.86,4.04-3.6,10.15-8.08,15.07-10.81,6.44-3.6,14.63-5.13,22.38-8.52-4.48-18.01,10.81-25.22,25.55-27.95,1.97-8.73,3.82-17.58,6.99-25.11-13.54,3.71-27.62-1.2-24.13-18.01-9.5-.66-14.3-6.33-14.85-14.52-.66-10.7,8.73-16.27,16.59-18.89-3.06-14.41,5.46-23.91,20.09-21.94,8.3,1.09,14.19,6.77,15.39,14.3,4.91-.87,10.37-1.09,15.94,0,5.46.98,9.28,2.73,12.23,6.22,1.42,1.75,3.38,4.69,3.82,6.33,1.53,5.79-1.42,12.01-4.37,17.14,19.32-.66,33.19,4.48,43.34,13.1,4.37,3.82,11.35,12.66,13.43,19.11,1.97,6.11,2.62,12.99,2.95,20.52,11.24,1.97,21.29,9.28,17.47,22.6-1.09,1.64-2.84,2.51-3.49,4.59,6.88.22,13.32-2.29,20.31-2.51,7.31-.33,15.72,0,22.05,0,4.26,0,10.15,0,14.52.87,6.22,1.2,12.01,3.71,18.01,5.68,8.62,2.95,16.81,6,23.58,10.81,11.9,8.52,22.49,23.04,20.63,42.25-2.18,23.47-20.85,36.25-39.52,44.21-12.88,5.46-27.95,7.64-42.47,11.46,6.22,4.59,12.45,7.53,18.34,12.23,1.86,1.53,4.04,2.73,5.79,4.26,4.59,4.04,8.84,10.92,12.77,17.14,3.82,6.11,7.1,13.32,9.93,19.65,1.2,2.62,1.42,5.68,2.29,8.3.33.87,1.2,1.75,1.42,2.62,1.42,4.48,1.86,9.93,2.29,14.3,2.07,20.2-2.18,40.72-9.83,54.8-7.42,13.65-17.79,27.07-30.79,35.7-6.22,4.15-13.21,8.62-21.18,11.68-3.49,1.31-7.53,2.18-11.35,3.38-5.57,1.75-11.35,3.28-17.14,5.13-3.17.98-4.8,1.53-9.06,1.97-3.49.33-5.68,1.64-8.73,2.29,1.09,6.88,5.02,10.81,7.53,16.27,2.18-1.75,2.84-5.57,6.99-4.59,4.8,1.2,3.49,11.68-3.49,10.26,1.2,3.17,3.06,5.79,4.91,8.3,1.09-2.07,1.75-4.59,3.82-5.68,10.15-.76,6.55,10.48-1.42,9.17,1.42,4.59,4.48,7.64,6.99,11.14-.33-3.38,2.51-7.75,5.57-7.97,3.28-.22,5.9,3.17,4.91,6.55-.76,2.18-6.77,5.35-9.39,2.73ZM204.29,5.5c-11.14-2.62-18.56,7.42-13.97,17.36,1.31.44,1.86,1.64,3.49,1.75,3.28-1.64,5.68-5.24,9.28-6.55,2.4-.87,5.02-.22,6.99-1.97.11-5.57-2.07-8.95-5.79-10.59ZM241.74,30.06c-.11-3.06-2.95-7.86-4.69-9.17-4.37-3.28-15.07-1.75-19.21.87,2.4,2.95,5.68,5.35,5.24,9.72-.44,4.04-4.91,7.42-6.11,10.81,7.64,11.14,25.22-1.31,24.78-12.23ZM210.4,38.25c2.95-2.18,7.64-10.04,3.17-12.55-2.18.98-3.82-.98-6.11-.87-7.64.22-13.65,12.01-6.99,15.94,3.06-.11,7.21-.55,9.93-2.51ZM176.34,49.17c5.02.44,7.42-2.62,9.93-4.8,1.2-1.09,4.04-3.06,4.37-4.26.33-1.31-.76-2.4-.87-4.04-.22-1.97.44-3.28.33-5.13-10.37-8.73-22.93,9.5-13.76,18.23ZM207.46,46.55c-4.04.98-7.64-.55-10.15,0-.98.22-2.73,1.64-3.82,2.29-.87.66-2.84,1.75-3.49,2.51-1.97,2.51-3.49,10.15-1.75,14.3,3.38,7.75,17.79.76,20.31-2.62,1.09-1.42,5.68-7.42,4.69-11.68-.22-1.09-3.93-5.35-4.91-5.46-.22,0-.33.33-.33.33-.33,0-.44.33-.55.33ZM251.02,51.68c0,1.53,1.97,1.97,2.95,2.51,3.6,2.18,6.33,4.8,9.28,7.42,6.22,7.75,10.48,17.47,11.03,30.79,8.41-1.42,14.41-5.02,19.76-9.39-3.28-18.89-21.07-33.41-43.01-31.33ZM264.44,83.12c-2.4-10.7-6.77-17.36-13.97-22.49-5.57-4.04-12.77-5.46-18.56-8.3-3.17,1.31-7.86-.11-10.81.33v.87c.66,1.97,2.62,1.64,4.91,1.42,1.2.66,2.51,1.2,3.49,1.97,5.68.98,11.9,3.17,15.72,6.22,4.91,4.04,9.39,10.37,11.9,15.39,2.62,5.46,1.64,10.81,2.95,17.14,1.53.22,2.07-.44,3.49-.33,2.73-3.71,1.86-7.75.87-12.23ZM248.4,78.21c-2.18-4.04-6.66-8.19-9.93-10.59-2.4-1.75-6.99-4.8-9.93-3.38-8.73,4.15-17.69,11.14-19.76,22.49,3.38.66,5.35,3.82,8.73,5.46,2.07.98,4.91,1.09,7.53,1.75,7.75,1.75,16.16,2.73,24.45,2.29,2.29-3.71,1.64-12.99-1.09-18.01ZM284.2,97.97c-23.91,8.19-54.48,6.77-77.62-2.29-.76,4.48-1.09,11.14.87,14.52,9.28,7.42,27.73,10.26,45.96,10.04,5.02-.11,10.59-1.53,15.72-1.97,6-.55,9.5-.87,13.65-2.51,1.42-.55,2.95-.87,4.04-1.42,4.59-2.4,5.24-4.69,6.99-8.84,1.53-3.49,3.49-7.64,1.42-12.01,0-.22,0-.33-.33-.33-3.49.98-6.88,3.49-10.7,4.8ZM314.12,111.94c-.22-3.6-6-9.39-9.61-7.1-.55,4.48-2.29,7.1-5.24,10.04-10.48,10.48-31.88,12.45-51.75,11.68-1.97-.11-4.04.55-6.11.55-8.73-.11-17.25-1.75-24.45-4.59-7.31-2.84-15.72-4.91-19.21-10.59-.11-2.51.66-4.37-.33-6.33-8.19,1.2-18.45,5.79-18.89,13.65-.33,4.91,3.38,6.66,6.44,9.39,6.22,5.79,13.1,7.97,22.93,10.81,34.39,9.83,80.9.44,100.55-15.94,1.31-2.95,6-6.33,5.68-11.57ZM293.48,436.07c-1.42-3.06-3.6-6.44-3.17-9.93.76-5.9,6.22-4.04,11.35-4.26,7.53-.33,13.65-3.38,19.76-4.8,10.48-2.51,20.2-5.79,28.82-9.93,11.24-5.57,21.51-13.86,28.82-22.82,7.1-8.62,14.19-20.31,18.01-33.08,3.82-12.88,4.59-31.44,1.42-46.18-1.64-7.53-5.35-15.28-8.41-21.73-3.38-6.88-6.88-13.1-11.35-19.11-4.59-6.11-9.39-9.93-15.94-14.3-4.15-2.73-9.61-6.22-14.52-8.3-1.86-.76-4.04-1.97-5.57-2.29-2.4-.55-4.59.11-6.66-.87-1.75-.87-4.69-4.48-4.37-6.55s4.04-3.6,6.44-3.38c2.84.22,3.49,1.75,5.57,1.97,6.44.87,16.16-1.42,22.71-3.38,7.64-2.29,15.17-3.49,21.83-5.68,11.68-3.93,22.6-10.26,29.91-18.01,1.09-1.2,2.62-2.4,3.49-3.38,9.93-12.45,9.61-35.7-.33-47.38-5.02-5.9-13.1-11.03-21.83-14.85-8.3-3.6-18.56-8.08-28.17-8.84-14.63-1.09-28.28-.98-41.27,1.09-6.55,1.09-12.12,1.53-17.47,3.38-1.42.55-2.51,1.64-4.04,1.97-1.09.22-2.29,0-3.49.33-2.95.76-5.79,2.95-8.73,4.04-22.6,8.3-46.83,12.66-77.62,9.39-2.18,5.13-6.11,10.7-9.06,14.85-2.51,3.6-4.26,6.22-7.31,9.39-8.73,9.28-20.09,18.45-32.53,23.91-11.79,5.24-27.95,10.04-42.69,9.72-2.29,6.88-5.57,12.99-11.9,15.94.33,4.59-1.75,4.91-4.04,6.88-6.11,5.13-9.93,9.93-14.3,16.27-9.28,13.65-17.03,36.68-14.19,60.48.33,2.62,1.53,5.9,2.07,9.39,1.64,11.68,5.35,19.98,9.28,28.82,2.73,6.11,6.44,11.35,9.93,17.14,3.17,5.35,7.75,9.83,12.23,14.85,4.26,4.8,8.52,9.61,13.32,13.65,9.39,7.97,20.74,13.97,34.06,19.98,6.11,2.84,13.21,4.8,20.63,6.55,7.53,1.86,15.83,3.82,22.93,3.71,3.28,0,5.68-2.18,9.06-.87,5.9,2.29,3.38,10.37,2.07,15.94-.98,3.93-1.86,7.64-2.95,10.59,7.42,6.11,20.2,6.55,29.91,2.51.98-7.64-2.18-18.56,1.42-24.02,10.04-2.29,6.77,5.9,6.66,12.55-.11,4.91.33,8.95.33,12.88,12.34,6.44,37.77,5.24,44.43-5.46-1.64-2.62-3.06-5.57-4.59-8.73ZM169.9,134.97c-20.96,5.57-37.77,19.98-47.05,38.21-2.18,4.26-6.11,10.48-.33,12.23,6.55-11.46,15.17-20.96,25-29.15,7.31-6,15.61-12.23,24.13-16.59,3.06-1.53,6.77-1.86,9.61-4.26-2.73-1.97-7.75.22-11.35-.44ZM184.75,137.81c-3.28,1.86-7.64,2.29-10.81,3.71-2.95,1.42-5.35,3.28-8.19,5.13-15.72,10.59-31.33,22.16-40.07,39.08,11.57-6.22,22.38-13.86,32.86-21.4,10.59-7.64,21.94-14.19,31.11-23.36-1.42-1.2-3.06-2.18-4.91-3.17ZM194.03,142.73c.22-.44-1.2.11-1.2,0-9.83,7.64-20.74,16.05-31.99,23.69-8.52,5.79-17.14,11.03-25.33,16.59-2.62,1.86-5.9,3.28-7.53,6,14.85-1.64,26.64-7.86,37.45-13.65,11.14-6,20.63-13.32,29.04-21.94,1.64-3.28,5.02-4.8,6.11-8.52-2.07-.87-4.04-1.75-6.55-2.18ZM187.7,164.12c-10.26,9.28-25.66,16.48-39.52,22.82-7.1,3.28-14.19,4.26-22.05,4.8-.22,1.75.66,4.8,1.2,6.88,6.55,2.73,14.3.44,21.83-1.42,5.02-1.31,9.83-3.38,13.97-5.13,18.78-7.64,33.41-21.4,42.69-37.99,1.31-2.18,2.95-4.48,2.95-6.88-.87-.66-2.29-.98-3.82-1.09-6.11,5.79-11.03,12.34-17.25,18.01ZM90.86,191.74c-5.9,7.75-9.93,23.04,1.75,27.62,3.6,1.42,8.52,1.97,11.57,1.2,4.26-1.09,10.81-6.22,12.45-10.04,4.91-10.7.55-23.04-11.03-25.98-.22,0-.33,0-.33.33-6.44,1.97-10.7,2.07-14.41,6.88ZM212.37,453.76c-3.28,4.48-5.24,9.83-8.41,13.97-3.06,4.04-6.33,7.75-9.61,11.68-6.33,7.75-13.32,14.63-20.09,22.27,7.86-3.38,17.9-6.55,25.55-11.68,2.18-1.42,4.59-3.93,6.66-6,2.29-2.18,5.02-4.37,6.44-6.55.66-1.09.66-2.51,1.42-3.38,1.2-1.42,3.71-2.62,5.57-2.29,6,.98,3.17,12.45,2.29,18.01-.87,5.13-2.18,9.39-2.62,13.65,8.52,1.42,20.85,3.28,27.95,0-1.09-15.28-2.29-31.11-2.95-46.51-11.03,2.84-23.8.66-32.21-3.17ZM317.28,477.12c-4.8-7.64-9.5-15.39-14.52-23.14h-.55c-7.86,4.15-20.09,7.53-31.66,7.1-6.11-.22-11.46-2.07-17.14-2.29.11,14.63,1.09,30.24,2.95,42.8.66.76,1.64,1.31,2.07,2.29,5.24.98,11.79.66,17.47,0-.33-4.15-2.62-10.48-2.95-16.81-.11-1.64.22-3.49,0-5.13-.55-3.49-2.4-6.88.33-8.84,1.86.11,4.04-.76,5.79,0,1.64.66,2.18,2.95,3.49,4.26,1.31,1.31,3.28,2.62,4.69,4.04,4.59,4.26,7.97,7.31,14.19,10.26,8.95,4.26,18.67,6.99,30.79,7.97-3.93-8.19-10.15-14.85-14.96-22.49Z"/>
  <path d="M203.85,265.65c-1.42,24.67-5.35,56.77,18.01,73.47,19.65,14.08,47.27,5.79,62.23-10.92,9.28-10.37,14.96-23.25,18.45-36.46,1.2-4.48-5.9-6.44-7.1-1.97-6.55,24.89-25,52.84-55.13,48.91-35.15-4.59-30.68-48.14-29.26-73.15.44-4.48-6.99-4.48-7.21.11h0Z"/>
</svg>