<?xml version="1.0" encoding="UTF-8"?>
<svg id="Layer_1" data-name="Layer 1" xmlns="http://www.w3.org/2000/svg" viewBox="0 0 512 512">
  <defs>
    <style>
      .cls-1 {
        fill: #050505;
      }

      .cls-2 {
        fill: #1c1c1c;
      }

      .cls-3 {
        fill: #030303;
      }

      .cls-4 {
        fill: #d72029;
      }

      .cls-5 {
        fill: #212121;
      }

      .cls-6 {
        fill: #064b85;
      }

      .cls-7 {
        fill: #fff;
      }

      .cls-8 {
        fill: #080808;
      }

      .cls-9 {
        fill: #f7ca00;
      }

      .cls-10 {
        fill: #1a1a1a;
      }
    </style>
  </defs>
  <g id="zLkyCY">
    <g>
      <path class="cls-1" d="M441.39,261.85c-4.91-2.1-10.21-1.13-16.44-2.42,3.78-5.83,6.99-10.69,8.22-16.44,1.3-5.98-.63-11.01-5.29-14.69-4.6-3.64-9.6-3.27-14.57-.32-6.28,3.73-11.99,8.41-12.58,15.97-.7,8.81-5.26,10.31-12.59,9.1-2.09-.34-4.29-.33-6.42-.16-6.15.51-6.52-2.44-4.53-7.12,5.49-12.93,10.72-25.97,16.42-38.82,6.91-15.61,11.71-31.51,9.06-48.87-.27-1.76-.64-3.94.11-5.35,9.23-17.29,5.81-35.08,1.44-52.51-4.83-19.27-17.22-32.6-35.58-40.49-17.15-7.37-34.67-6.57-52.21-2.56-4.74,1.08-5.61.34-5.82-4.2-.54-11-1.36-22.02-5.22-32.49-5.34-14.53-20.7-22.9-35.83-19.86-13.78,2.77-20.37,12.77-24.66,24.69-7.47,20.75-4.07,40.91,4.14,60.7.81,1.96,3.9,5.18.82,6.23-7.98,2.72-13.48,9.62-22.98,10.39-17.57,1.43-29.45,8.85-32.41,25.59-1.3,7.4-4.86,12.01-10.93,15.64-2.31,1.38-4.24,3.5-6.14,5.49q-10.62,11.16-19.01-1.58c-.67-1.02-1.22-2.13-1.95-3.1-2.87-3.78-2.54-6.5,1.24-10.01,4.63-4.31,10.33-7.64,13.4-13.65,4.64-9.06.36-16.82-9.79-17.32-5.18-.26-10.17.98-13.2,5.1-4.27,5.81-7.86,5.75-12.68.83-2.32-2.36-5.64-3.57-9.13-3.89-7.15-.66-12.78,3.97-11,10.81,1.65,6.35,0,7.02-5.63,7.82-10.26,1.47-16.57,10.52-11.32,16.12,5.75,6.12,2.89,9.98.37,15.48-6.63,14.42.04,23.45,15.85,22.38,10.51-.71,17.21-6.78,22.52-16,2.04,2.7,3.69,4.85,5.3,7.03,1.8,2.46,3.26,5.26,5.43,7.34,4.21,4.04,3.9,7.81.35,11.96-1.18,1.38-2.09,3.01-3.07,4.56-23.39,36.86-37.43,76.1-30.7,120.62.58,3.82-.6,5.31-4.54,6.03-12.01,2.19-23.93,4.88-36.22,7.44-.6-9.65,1.35-19.52-1.72-29.06-2.45-7.61-6.81-13.25-15.35-13.55-8.41-.29-12.46,5.32-14.89,12.54-8.16,24.26-10.33,49.01-5.6,74.21,2.22,11.86,6.51,13.41,16.06,6.15,17.19-13.08,35.82-23.32,56.58-29.55,15.75-4.73,17.11-4.09,27.47,7.88,17.53,20.27,38.42,35.7,65,41.92,6.43,1.51,9.27,5.07,10.17,11.13,3.07,20.8,3.55,41.41-3.36,61.69-4.33,12.7-1.88,16.21,11.73,16.02,25.76-.37,48.64-10.69,71.01-21.98,7.96-4.01,12.85-15.94,10.22-21.86-3.92-8.84-12.03-9.37-20.24-9.08-2.73.1-5.54.36-8.16,1.1-8.23,2.32-16.45,4.69-24.53,7.45-4.6,1.56-5.65.51-5.54-4.29.24-10.68,1.75-21.57-.96-32.01-1.85-7.15-.05-10.58,6.68-13.13,50.25-19.02,86.6-52.92,108.16-102.28,2.6-5.94,5.95-8.68,12.69-7.22,4.73,1.02,11.29-.86,14.19,1.73,4.18,3.73-1.46,9.16-2.06,14.04-1.29,10.57,5.04,20.87,14.96,23.36,9.53,2.4,15.71-1.47,19.56-12.75,1.03-3,1.69-4.29,5.5-4.03,10.89.75,13.23-1.43,13.7-12.8.15-3.7.82-4.56,4.39-4.67,6.39-.19,13.04-1.64,13.57-9.4.54-8.02-3.89-13.79-11.46-17.03ZM380.29,86.09c-2.17-3.18-1.92-6.52-.93-10.87,4.33,3.02,7.43,6,9,10.39,11.9,15.88,11.39,34.18,10.16,52.57-.24,3.74-3.05,5.16-6.56,4.66-5.41-.78-10.89-1.44-16.17-2.8-6.4-1.64-4.58-6.39-2.73-10.25,6.68-13.9,8.4-28.54,7.23-43.7ZM371.94,84.08c.66,3.59.88,7.26,1.05,8.72.03,12.78-2.59,22.81-6.63,32.43-1.78,4.24-4.23,6.81-7.66,6.63-.22,0-.44-.03-.67-.07-.24-.04-.49-.09-.75-.15-.25-.06-.5-.14-.75-.23-.26-.09-.52-.19-.78-.31-.13-.05-.27-.11-.4-.18-.27-.13-.55-.27-.83-.43-.14-.07-.28-.15-.42-.25-.3-.17-.6-.37-.92-.59-.13-.08-.26-.17-.39-.26-2.41-1.73-4.87-3.41-7.34-5.08-3.23-2.2-6.47-4.39-9.61-6.72-.44-.32-.88-.65-1.32-.98-.57-.43-1.14-.86-1.7-1.3-.12-.1-.25-.2-.37-.3-.48-.38-.96-.76-1.43-1.16-1.15-.94-2.28-1.91-3.38-2.92-.55-.5-1.1-1.02-1.63-1.54-.54-.52-1.07-1.05-1.59-1.59-4.86-5.03-5.52-9.51.28-14.68,9.74-8.67,20.28-15.75,33.17-18.5,10.76-2.29,12.14-1.19,14.07,9.46ZM315.76,66.54c14.28-6.88,28.7-5.7,43.34-.63-14.84,4.69-27.73,11.95-38.91,22.28-1.07.99-2.76,2.83-3.79,1.52-3.67-4.7-3.59-10.8-5.18-16.28-1.08-3.74,1.61-5.48,4.54-6.89ZM249.82,49.51c-.34-10.18,1.64-19.64,6.61-28.36.47-.83.96-1.62,1.48-2.37.14-.21.29-.42.44-.62.6-.85,1.24-1.65,1.9-2.4.21-.23.42-.46.64-.69.23-.24.47-.49.71-.72.28-.28.58-.55.88-.82.29-.26.6-.52.9-.77.32-.26.64-.5.97-.74.17-.13.34-.24.51-.36.25-.17.5-.34.76-.5.23-.15.46-.29.7-.42.55-.32,1.1-.61,1.67-.87.26-.12.52-.24.79-.35.57-.24,1.15-.45,1.73-.63.27-.08.53-.16.8-.23.27-.08.54-.14.81-.21.32-.06.65-.13.98-.19.27-.05.55-.09.82-.12.27-.04.55-.07.82-.09.32-.03.64-.05.97-.07.3-.01.61-.02.91-.02,1.32,0,2.67.13,4.04.38.37.07.73.14,1.08.22.25.06.5.12.74.18.65.17,1.28.35,1.89.57.2.06.39.13.58.2,1.48.55,2.85,1.24,4.11,2.05.16.09.31.19.46.29.55.37,1.08.77,1.59,1.2.11.08.22.18.32.27.27.23.53.47.78.71.2.19.39.38.58.58.29.3.57.62.84.94.79.92,1.51,1.92,2.15,3,.29.48.56.97.81,1.47,1.02,2.02,1.79,4.25,2.33,6.65,3.55,15.85,2.39,32.22,4.35,48.26.42,3.39-1.19,5.29-4.66,5.21-11.81-.27-22.94,3.36-34.07,6.45-4.96,1.38-6.75-.39-8.17-4.26-3.91-10.67-7.06-21.48-6.55-32.82ZM247.18,102.76c16.09-7.75,32.59-13.97,50.72-14.86.58-.03,1.14-.04,1.68-.02.13,0,.27,0,.4.01.07,0,.14,0,.21,0,.24.01.48.03.71.06.8.08,1.54.23,2.23.44.18.05.35.11.52.18.2.08.41.17.6.26.24.11.47.23.69.37.46.29.89.63,1.28,1.02.07.07.15.14.21.22.16.17.31.35.45.54.19.24.36.5.53.78.08.14.16.28.24.43.15.29.3.6.43.93.07.17.14.34.2.51l.18.54c.06.18.11.37.16.56.03.1.06.2.08.31.03.11.06.23.09.35.04.18.08.36.12.55,1.81,9.06,7.18,16.19,14.18,21.97,1.18.97,2.36,1.93,3.55,2.88.47.38.94.75,1.42,1.13,1.02.8,2.04,1.59,3.07,2.37.5.39,1.01.77,1.52,1.14.4.31.8.61,1.21.9,2.43,1.8,4.9,3.53,7.4,5.2.45.3.89.59,1.34.88,1.2.78,2.4,1.55,3.62,2.3.56.35,1.13.69,1.7,1.03.5.3,1,.6,1.5.89.47.28.93.55,1.4.81.75.43,1.5.85,2.26,1.26,1.21.67,2.43,1.31,3.67,1.94,1.33.67,2.68,1.33,4.03,1.96,1.87.87,3.75,1.69,5.67,2.46.53.21,1.05.42,1.58.63.52.2,1.05.4,1.58.6.53.2,1.06.4,1.59.58.71.26,1.43.5,2.14.74,1.44.47,2.89.92,4.35,1.35,2.2.63,4.43,1.2,6.69,1.7.76.16,1.52.32,2.28.47.81.16,1.52.35,2.16.58.43.15.82.32,1.18.51.36.19.69.4.99.64.15.12.3.24.44.38.14.13.27.27.4.41.15.18.3.37.43.56.06.09.12.19.18.29.24.39.45.81.64,1.28.25.63.46,1.34.63,2.14,1.33,5.99,1.36,11.75.57,17.38,0,.08,0,.15-.03.22-.17,1.16-.37,2.33-.6,3.48,0,.07-.03.14-.04.21-.13.59-.26,1.18-.39,1.76-.14.61-.29,1.22-.45,1.82-.14.53-.28,1.06-.43,1.59-.59,2.12-1.27,4.23-2,6.33-.43,1.23-.88,2.46-1.34,3.69-.46,1.23-.94,2.46-1.42,3.69-.36.91-.78,1.65-1.31,2.17-.07.07-.14.13-.2.19-.21.17-.44.3-.68.4-.08.04-.16.07-.25.09-.06.02-.13.04-.2.05-.08.02-.17.04-.26.05-.12.01-.24.02-.36.02-.67,0-1.46-.21-2.38-.66-14.87-7.25-29.81-14.28-46.7-15.66-2.75-.23-2.7-.88-1.63-11.56.04-1.07.03-2.18-.03-3.29,0-.18-.01-.35-.02-.53-.06-1-.17-2-.33-3-.03-.2-.06-.41-.1-.61-.04-.26-.08-.51-.14-.76-.05-.26-.1-.51-.16-.77-.17-.76-.38-1.53-.62-2.28-.08-.26-.16-.51-.25-.76-.18-.5-.37-1-.58-1.5,0-.01,0-.02,0-.03-.17-.42-.36-.84-.57-1.25-.03-.07-.07-.14-.1-.2-.12-.25-.25-.49-.38-.73s-.27-.48-.41-.72c-.28-.49-.58-.96-.91-1.42-.16-.24-.33-.47-.5-.7-.17-.23-.35-.46-.53-.68-.18-.23-.37-.45-.56-.67-.58-.67-1.21-1.32-1.89-1.94-.22-.21-.46-.42-.7-.62-.23-.2-.48-.41-.73-.6-.25-.2-.51-.4-.77-.59-.26-.2-.53-.39-.81-.58-.26-.18-.52-.36-.79-.52-1.33-.88-2.67-1.73-4.01-2.52-.53-.32-1.07-.63-1.61-.92-2.7-1.5-5.43-2.78-8.21-3.76-.26-.09-.51-.18-.77-.27-.44-.15-.88-.28-1.32-.41-.24-.08-.49-.15-.73-.21-.3-.09-.6-.17-.9-.24-.3-.08-.6-.15-.9-.21-.24-.06-.48-.11-.72-.16-.36-.07-.72-.14-1.08-.2-.21-.04-.41-.07-.61-.1-.19-.03-.38-.06-.57-.08-.21-.03-.42-.06-.64-.08-.2-.03-.41-.05-.61-.07-.15-.02-.31-.03-.47-.04-.29-.03-.57-.05-.86-.06-5.82-.32-11.85.95-18.13,4.46-2.63,1.47-5.15,3.28-7.96,4.24-2.21.76-4.75.46-7.04-.51-.31-.13-.62-.28-.92-.43-.75-.39-1.47-.85-2.12-1.36-.26-.21-.51-.42-.75-.64-.17-.16-.34-.33-.51-.5-.24-.27-.48-.54-.69-.82-.12-.16-.23-.31-.34-.47-.17-.25-.32-.51-.46-.77-.06-.12-.12-.24-.17-.35-.05-.12-.1-.24-.15-.35-.12-.31-.22-.61-.29-.92-.03-.14-.06-.28-.08-.42-.03-.14-.04-.27-.05-.41,0-.14-.02-.28-.02-.42,0-.39.04-.79.14-1.18,2.96-12.4-1.38-21.68-11.3-28.67-4.1-2.89-4.09-4.71.31-6.83ZM324.89,171.3c0,15.53-15.67,30.38-31.93,30.25-15.11-.12-24.25-9.1-24.19-23.77.07-17.36,11.35-29.23,27.78-29.21,17.36.01,28.34,8.82,28.34,22.73ZM228.45,111.36c12.1-.16,21.46,7.96,21.72,18.85.36,14.97-13.53,30.25-27.52,30.29-12.01.04-20.51-9.46-20.74-23.19-.27-15.63,10.04-25.72,26.54-25.95ZM443.91,276.88c-.02.11-.05.22-.09.33,0,.03,0,.06-.02.08-.1.37-.24.7-.41.99,0,.01,0,.03-.02.04-.09.15-.19.29-.3.41,0,.01,0,.01,0,.01-.08.1-.16.19-.26.28-.07.08-.15.15-.24.22-.02.02-.05.04-.08.06-.08.07-.17.13-.26.18-.11.08-.23.15-.35.22-.11.06-.23.11-.36.16-.17.08-.34.15-.53.21-.28.09-.56.17-.85.23,0,.01-.02.01-.03.01-.28.05-.57.1-.85.14-.06.02-.13.03-.2.03-.25.03-.5.05-.75.07-2.54.2-5.07.34-7.58.15-.85-.07-1.7-.18-2.54-.34,0,0,0,.01,0,0-1.69-.33-3.36-.85-5-1.67-.14-.07-.28-.14-.42-.2-1.75-.86-3.55-1.62-5.45-1.86-.11-.02-.23-.03-.35-.04-.11-.02-.23-.03-.36-.03-.17-.01-.35-.02-.53-.02-.81-.01-1.64.09-2.49.33-.13.77-.19,1.49-.19,2.16,0,.26,0,.52.04.77-.01.08,0,.15,0,.21.02.25.05.5.1.73h0c.04.22.08.43.14.63.03.14.07.28.12.41.1.34.22.66.38.96.07.15.15.3.23.44.14.27.3.52.49.76.1.14.21.28.32.42.11.14.23.27.35.4.35.36.73.7,1.15,1.01.02.02.05.04.08.06.19.14.38.27.58.4,1.13.73,2.46,1.33,3.95,1.83.57.19,1.15.37,1.72.58.19.07.38.14.56.22.3.12.58.26.84.41.14.08.27.16.39.25.13.08.25.17.36.27.12.09.23.2.33.31.1.11.2.22.28.35.08.1.16.22.22.34.14.25.26.53.34.85.03.09.05.18.06.28.03.08.04.17.05.27,0,.07.02.14.02.22.03.27.04.56.02.88-.13,2.31-.8,4.33-2.96,5.25-2.89,1.24-5.35.09-7.36-2.11-.61-.67-1.2-1.37-1.79-2.07-.29-.35-.59-.7-.89-1.04,0-.01,0-.01,0-.01-.3-.34-.61-.67-.93-.99h-.01c-.5-.51-1.01-1.05-1.54-1.55-.11-.1-.22-.2-.32-.3-.6-.54-1.22-1.01-1.88-1.33-.18-.09-.36-.16-.55-.23-.13-.04-.26-.07-.39-.1-.1-.03-.21-.04-.32-.06-.32-.04-.66-.04-1.01.01-.19.03-.38.07-.57.13-.1.03-.19.06-.29.1-.3.11-.6.26-.91.45-3.99,2.42-1.19,5.68.24,7.87,2.56,3.94,3.18,7.66,1.67,12.08-.1.29-.2.56-.31.83-.02.05-.05.11-.07.16-.1.25-.21.48-.33.71-.1.21-.21.4-.33.59-.56.95-1.23,1.7-2.04,2.27-.12.08-.24.16-.36.23-.17.1-.34.2-.51.28-.1.05-.2.1-.31.14-.13.06-.27.11-.41.16-.05.02-.1.03-.15.04-.15.06-.31.11-.48.14-.08.03-.15.05-.23.06-.12.03-.24.06-.37.07-.15.04-.3.06-.46.08-.2.03-.41.05-.62.06-.25.02-.51.03-.78.03h-.34c-.51-.01-.99-.04-1.45-.11-.2-.02-.39-.05-.58-.1-.58-.11-1.11-.27-1.6-.49-.1-.04-.19-.08-.28-.13-.13-.06-.25-.13-.37-.2-.17-.09-.33-.2-.48-.31-.2-.14-.39-.29-.57-.46-.1-.09-.2-.19-.29-.29-.14-.14-.26-.28-.38-.44-.13-.15-.24-.31-.35-.48-.11-.17-.22-.35-.32-.53-.3-.56-.55-1.18-.76-1.88-2.39-8.1-1.85-15.83,4.3-22.03.5-.51.97-1,1.4-1.48.22-.25.42-.48.61-.72.19-.24.37-.48.53-.72.16-.23.31-.47.43-.71.13-.23.24-.47.32-.71.1-.24.17-.49.21-.73.04-.2.06-.4.07-.61,0-.2,0-.41-.03-.61,0-.13-.04-.27-.07-.41,0-.03,0-.06-.02-.1-.04-.15-.09-.3-.14-.45-.06-.16-.13-.33-.22-.5-.07-.14-.15-.3-.24-.45-.11-.19-.24-.39-.39-.59-.12-.17-.26-.35-.41-.53h0c-.15-.19-.31-.37-.49-.56-13.27-3.24-27.25-.53-40.37-4.92h0c-.22.03-.44.07-.64.11-.2.04-.4.1-.58.16-.15.04-.3.09-.43.15-.12.05-.24.1-.35.16-.12.06-.24.12-.35.18-.08.05-.16.1-.24.16-.32.21-.61.45-.88.73-.14.14-.27.29-.4.45-.12.14-.23.3-.33.45-.06.08-.11.16-.16.25-.4.63-.73,1.34-1.05,2.11-.15.37-.3.75-.45,1.14-20.03,51.93-56.45,87.46-108.21,107.46-2.8,1.08-5.88,1.7-8.88,1.93-.21.02-.42.04-.61.07-.62.09-1.15.23-1.6.44-.09.03-.18.08-.26.12s-.16.09-.24.14c-.18.1-.35.22-.49.35-.11.09-.2.19-.29.29-.09.1-.17.2-.25.31-.07.09-.13.19-.18.29-.05.08-.09.15-.12.22-.05.09-.09.19-.13.3-.04.09-.08.2-.11.3-.03.09-.06.19-.08.29-.03.09-.05.19-.07.29-.18.87-.19,1.86-.15,2.92,5.51,17,5.14,34.31,2.81,51.73-.08,1.73-.17,3.46-.25,5.19.12.17.24.33.36.49.37.47.75.89,1.15,1.27.2.19.4.37.6.53.21.17.42.33.63.47.16.11.32.21.49.3.17.1.33.19.5.27.17.08.34.15.52.22.2.08.41.15.62.21.13.04.27.08.41.11.11.03.21.05.32.07.13.03.27.05.4.06.17.03.34.04.51.05.68.04,1.39,0,2.13-.13.24-.04.49-.1.74-.16.07-.02.15-.04.22-.06.24-.06.49-.14.74-.22,4.36-5.33,10.65-6.33,16.87-7.5,3.87-1.94,7.85-3.48,11.94-4.61,4.1-1.14,8.3-1.87,12.6-2.17.4-.02.8-.05,1.22-.07.56-.03,1.14-.05,1.71-.03.17,0,.34.01.51.02.21.02.43.03.64.06.12.02.23.03.34.05.11.01.22.03.34.06.3.06.59.13.88.23.1.03.2.07.3.11.2.08.39.17.58.27.09.05.18.1.27.16.09.05.18.11.26.17.17.12.34.26.5.42.2.19.39.41.56.65.09.12.17.25.25.39,1.91,3.33-.36,6.49-2.3,9.25-2.88,4.08-6.74,7.21-11.24,9.23-14.79,6.66-29.87,12.59-45.76,16.15-4.78,1.07-10.97,2.84-14.09-.44-3.33-3.5.24-9.04,1.93-13.5,1.63-20.11,3.78-40.21-1.36-60.17-1.27-8.75-6.59-12.4-15.05-14.6-.69-.18-1.37-.36-2.05-.55-.46-.12-.92-.25-1.38-.39-.25-.07-.5-.14-.75-.21-.5-.15-1-.3-1.49-.45-1.38-.42-2.74-.85-4.09-1.31-.43-.14-.85-.29-1.28-.44-.66-.23-1.32-.47-1.98-.71-.81-.3-1.62-.6-2.42-.92-1.65-.64-3.28-1.32-4.89-2.04-.7-.31-1.39-.62-2.08-.94-.38-.18-.75-.36-1.13-.54-1.3-.62-2.58-1.26-3.85-1.94-.02-.01-.04-.02-.05-.03-.7-.36-1.39-.73-2.07-1.12-.24-.13-.47-.26-.69-.38-.59-.33-1.18-.67-1.76-1.02-.75-.44-1.49-.89-2.22-1.35-.74-.45-1.46-.92-2.18-1.4-.06-.04-.13-.09-.2-.13-.65-.43-1.3-.87-1.94-1.32-.71-.49-1.41-.99-2.11-1.51-.67-.49-1.34-.99-2-1.51-.02-.02-.04-.03-.06-.05-.6-.46-1.2-.94-1.79-1.42-.19-.15-.38-.3-.56-.46-.42-.34-.83-.69-1.24-1.04-.23-.19-.45-.38-.67-.57-.57-.5-1.14-1.01-1.7-1.52-.6-.54-1.19-1.09-1.77-1.65-.08-.07-.16-.15-.24-.23-.59-.57-1.18-1.15-1.76-1.74-1.84-1.85-3.61-3.8-5.32-5.83-.07-.1-.15-.19-.23-.28-.5-.6-1-1.21-1.48-1.83-.56-.7-1.11-1.41-1.65-2.13-.54-.72-1.07-1.45-1.6-2.19-1.05-1.48-2.07-3.01-3.07-4.57-.49-.78-.98-1.58-1.46-2.38-.52-.87-1.07-1.57-1.65-2.15-.1-.12-.22-.23-.34-.34-.23-.2-.47-.4-.72-.58-.25-.17-.49-.33-.74-.47-.25-.14-.51-.27-.77-.38-.19-.09-.39-.16-.58-.23-.1-.04-.2-.07-.3-.1-.23-.08-.46-.15-.7-.2-.26-.07-.54-.13-.81-.18-.55-.1-1.11-.17-1.67-.22-.56-.06-1.13-.1-1.7-.14-.42-.03-.84-.06-1.27-.1h-.05c-.42-.04-.85-.09-1.28-.15-7.1,4.06-15.41,3.07-22.9,5.5-5.6,2.23-11.16,4.54-16.62,7.02-1.1.5-2.19,1-3.27,1.51-.84.39-1.67.79-2.5,1.19-.39.18-.78.37-1.17.57-.58.28-1.15.56-1.71.85-.9.44-1.8.89-2.7,1.36-1.07.54-2.13,1.09-3.18,1.67-.87.46-1.73.94-2.59,1.42-.38.2-.75.41-1.13.63,0,0-.02.01-.03.02-.62.33-1.23.69-1.84,1.05-.75.44-1.5.88-2.24,1.32-1.03.62-2.05,1.25-3.07,1.89-1.02.64-2.03,1.29-3.04,1.96-1,.66-2,1.34-2.99,2.03-1,.69-1.98,1.39-2.96,2.11-2.81,2.06-4.24,1.96-5,.98-.08-.1-.15-.22-.22-.34-.03-.06-.07-.12-.09-.19-.06-.13-.11-.26-.16-.41-.07-.21-.13-.44-.18-.68-.05-.24-.09-.48-.12-.73-.03-.25-.06-.5-.08-.75-.02-.24-.04-.48-.05-.72,0-.09,0-.19-.02-.28,0-.16-.02-.31-.03-.45,0-.08,0-.15-.02-.23-.01-.15-.02-.28-.04-.41,0-.06-.01-.13-.02-.19-3.05-22.15-1.26-43.86,6.89-64.86.5-3.47,2.34-5.96,5.97-5.5,5.18.67,6.48,4.82,6.96,9.32,1.14,8.62,1.54,17.24-.18,25.84-.44,1.76-.78,3.55-1.33,5.27-.81,2.53-.77,4.82,1.52,6.57,1.12.86,2.2,1.23,3.27,1.23.17,0,.35-.01.52-.03.13-.01.26-.03.39-.06.1-.01.2-.03.29-.06.12-.03.24-.06.36-.1.17-.05.33-.1.5-.17.02,0,.04-.01.06-.03.16-.06.33-.13.49-.21.16-.07.31-.15.47-.24.2-.1.4-.21.59-.34.18-.11.36-.23.54-.35.56-.38,1.13-.74,1.7-1.09.57-.36,1.15-.71,1.73-1.03.58-.34,1.16-.66,1.75-.96.59-.32,1.18-.62,1.78-.9.6-.29,1.2-.57,1.8-.84s1.21-.52,1.82-.77c.61-.25,1.22-.49,1.84-.72.54-.2,1.07-.4,1.61-.58.36-.12.72-.24,1.08-.36.43-.15.86-.28,1.29-.42.43-.14.87-.27,1.31-.39.43-.13.87-.25,1.31-.37.44-.12.88-.24,1.32-.35.44-.12.89-.23,1.33-.33.36-.09.72-.17,1.09-.25.52-.13,1.05-.25,1.58-.35.89-.2,1.8-.38,2.7-.54.9-.17,1.8-.33,2.71-.48,5.44-.54,10.88-1.52,16.32-1.51,6.82.01,8.67-3.21,7.32-9.23-1.13-5.06-2.25-10.11-1.87-15.35-2.07-8.31-2.48-16.62-.03-24.93.2-2.25.4-4.5.59-6.75,1.1-9.22,2.53-18.37,6.85-26.77,5.69-20.22,14.95-38.75,28.11-55,4.68-5.78,3.94-9.9-.2-14.25-6.56-6.9-12.22-14.32-16.92-22.61-.27-.48-.54-.9-.82-1.28s-.56-.71-.84-1c-.12-.12-.24-.23-.36-.33-.11-.1-.23-.2-.34-.28-.12-.1-.25-.18-.37-.25s-.23-.13-.35-.19c-.13-.07-.27-.12-.4-.16-.1-.04-.2-.07-.31-.09-.02-.01-.03-.01-.04-.01-.11-.03-.22-.05-.33-.06-.12,0-.23-.02-.35-.02h-.01c-.11,0-.22.01-.33.02-.09.01-.19.02-.29.04-.35.07-.69.2-1.03.38-.11.06-.22.12-.32.19,0,.01,0,0,0,0-.21.14-.42.29-.63.48-.32.27-.63.59-.93.95-.1.12-.21.24-.3.37-.4.52-.79,1.12-1.15,1.78-.22.4-.44.81-.64,1.22-.38.75-.74,1.5-1.11,2.26-.23.47-.46.95-.68,1.43-.26.55-.53,1.09-.81,1.63-.13.27-.27.54-.42.81-.16.3-.32.61-.5.91-.13.23-.26.45-.39.67-.16.27-.32.53-.5.8-.16.25-.32.49-.49.72-.14.22-.3.43-.46.64-.19.26-.4.51-.61.76s-.43.49-.65.73c-.23.23-.46.46-.7.69-.87.81-1.77,1.54-2.71,2.17-.17.12-.35.23-.53.34-.18.11-.36.22-.54.32-.55.31-1.11.59-1.67.84-.19.08-.38.16-.57.24-.38.16-.77.29-1.17.41-.52.16-1.05.3-1.58.41-1.37.28-2.79.39-4.26.3-.29-.01-.59-.03-.89-.06-.05-.01-.1-.01-.15-.02-.35-.04-.7-.09-1.06-.15-3.14-.53-4.49-2.93-4.12-6.13.68-6,2.38-11.47,8.45-14.2,2.49-1.12,5.13-1.92,7.75-2.72,2.69-.82,5.98-1.57,5.29-5.05-.03-.15-.06-.29-.1-.42-.04-.12-.07-.23-.11-.33-.1-.27-.22-.51-.37-.72-.05-.09-.12-.18-.19-.26-.07-.09-.14-.17-.22-.24-.15-.16-.32-.29-.51-.4-.18-.11-.37-.2-.57-.28-.15-.05-.3-.1-.46-.14-.32-.09-.67-.14-1.03-.16-.61-.05-1.25,0-1.89.06-.45.05-.9.12-1.34.19-.3.05-.61.09-.9.16-2.8.65-6.33,1.83-8.98,1.48-.23-.03-.44-.07-.65-.13-.09-.02-.17-.04-.25-.07-.04,0-.09-.02-.13-.04-.08-.02-.16-.05-.23-.08-.2-.08-.4-.17-.58-.29-.1-.06-.18-.12-.27-.19-.11-.06-.2-.14-.29-.24-.06-.04-.12-.09-.17-.15-.09-.09-.17-.18-.24-.27-.05-.06-.09-.13-.14-.21-.07-.07-.11-.15-.15-.23-.09-.13-.16-.27-.23-.42-.28-.6-.46-1.33-.54-2.23-.08-.92-.02-1.72.17-2.4.13-.49.32-.92.57-1.3.17-.26.35-.49.56-.7.25-.26.53-.49.84-.69.2-.15.41-.27.64-.39.27-.14.57-.27.88-.39.15-.07.31-.13.47-.17.16-.06.33-.11.49-.16.34-.09.68-.18,1.03-.26.35-.08.7-.16,1.07-.22,2.17-.39,4.52-.59,6.48-1.1.58-.15,1.13-.21,1.68-.21.16,0,.33.01.49.02.17.01.35.03.52.06.17.02.34.05.5.09.17.03.33.07.5.12.16.04.32.09.48.15.32.1.64.23.95.37.16.06.31.14.47.21,1.28.6,2.53,1.37,3.79,2,.17.08.35.17.53.25s.36.16.55.24c.02.01.05.02.08.03.21.08.42.16.63.23.18.06.37.11.55.16,1,.25,2.03.31,3.13.06.2-.04.39-.1.59-.17.17-.06.35-.12.53-.2.12-.06.25-.12.38-.18.67-1.99.69-3.88-.86-5.52-1.85-.93-3.9-1.59-5.51-2.83-2.82-2.18-5.7-4.55-5.74-8.58-.02-2.17,1.59-3.08,3.55-3.23,4.51-.35,7.25,2.07,9,5.95,3.46,2.99,2.61,9.09,7.8,10.84,5.24-2.9,3.6-10.48,9.02-13.26.48-.23.98-.53,1.48-.87.5-.34,1-.72,1.51-1.11.34-.26.68-.52,1.02-.76.33-.25.67-.49,1.01-.71,1-.66,1.99-1.13,2.91-1.13.09,0,.19,0,.28.02.07,0,.14.01.21.03.08.01.15.03.23.06h.01c.07.02.14.05.21.08.02.01.04.02.06.03.06.02.12.05.18.09.06.03.12.07.18.11.06.04.13.09.2.14.11.09.21.18.31.29.09.08.18.17.26.28.18.23.33.45.46.67.02.04.05.09.07.14.06.11.12.23.16.34.02.02.02.04.03.06.07.16.12.32.17.48.05.19.08.38.1.57.02.15.03.29.03.44,0,.12,0,.24-.02.36-.06.74-.32,1.46-.71,2.17-.05.1-.1.19-.16.28-.51.87-1.21,1.72-1.97,2.54-.12.14-.24.27-.37.4-.57.59-1.16,1.18-1.73,1.74-.16.16-.32.31-.47.47-.16.15-.31.31-.46.46-.91.93-1.97,1.7-3.04,2.46-.43.31-.86.61-1.29.91-.21.16-.42.31-.63.47-.29.39-.59.75-.92,1.08-.33.33-.67.63-1.03.9-.18.14-.36.27-.55.39-.19.13-.38.25-.57.36-1.35.81-2.83,1.4-4.3,2.01-.63.26-1.25.53-1.85.83-.38,1.79-.76,3.59-1.14,5.38h0c.52.5,1.03,1,1.52,1.51.47.47.93.96,1.37,1.45.45.49.89.99,1.31,1.49.33.38.66.77.97,1.16,1.11,1.34,2.15,2.71,3.16,4.12.35.5.71.99,1.05,1.49,3.66,5.25,6.92,10.79,10.6,16.02,4.08,5.8,6.92,6.82,11.45.5,3.72-5.17,8.43-9.64,12.77-14.37,4.87-5.32,8.97-5.64,11.37,2.12.08.27.17.53.26.79.05.15.11.29.16.43.1.27.21.53.32.79.34.78.72,1.52,1.14,2.2.16.25.32.5.48.74.22.32.45.63.69.92.12.15.24.3.38.44.1.14.22.28.36.41.11.13.23.26.37.38.23.24.46.46.7.67.03.03.06.06.1.08.31.28.64.54.97.79.21.16.42.31.64.45.21.15.43.29.66.42.22.14.45.27.68.4.54.31,1.11.58,1.7.84.67.29,1.37.55,2.1.79,4.45,1.45,8.77,2.17,12.96,2.17.46,0,.91-.01,1.36-.03.14,0,.28,0,.42,0,.46-.03.91-.06,1.37-.1.52-.04,1.04-.1,1.55-.17.52-.07,1.03-.15,1.54-.24.55-.1,1.09-.21,1.63-.33.45-.11.9-.22,1.35-.34.04-.02.08-.03.12-.04.47-.13.93-.27,1.39-.41.57-.19,1.13-.38,1.69-.59.45-.17.9-.35,1.35-.54.98-.41,1.96-.87,2.92-1.38.96-.51,1.92-1.06,2.87-1.66.95-.59,1.89-1.24,2.82-1.94.47-.34.93-.69,1.39-1.06h0c2.5-3.31,4.23-7.92,9.08-8.08,1.36-.04,2.57.16,3.61.57.47.19.91.42,1.32.69.53.36,1,.79,1.38,1.27.14.16.27.34.39.52.13.18.25.37.35.57,0,.01.02.03.03.05.1.18.18.36.27.56.02.04.04.09.05.14.08.17.15.36.2.55.16.47.28.97.36,1.5.02.2.05.41.07.62,0,.07,0,.15,0,.23.02.24.03.49.03.74,0,.66-.06,1.35-.16,2.07-.11.71-.27,1.45-.49,2.21-2.14,7.35-3.33,14.58-2.17,21.62.03.2.07.41.11.61.03.24.07.47.13.7.08.39.16.78.26,1.16.09.38.2.77.31,1.15.08.31.17.61.28.91.08.27.17.54.27.81.09.27.19.53.29.79.7,1.85,1.61,3.69,2.76,5.51.21.35.44.7.67,1.05,4.42,5.9,11.47,7.56,17.49,10.88,7.91,1.08,15.82,1.74,23.72-.02,3.27-2.19,7.56-3.68,9.63-6.69,8.86-12.9,20.89-9.66,32.64-6.94,9.18,2.11,18.19,5.04,25.81,11.03h0c6.2,2.64,6.92,6.89,4.05,12.6-4.66,9.25-8.97,18.68-13.61,27.94-1.19,2.37-1.67,4.63-1.51,6.62.04.46.11.9.21,1.32.01.07.03.14.05.2.05.18.1.35.16.52,0,.03.02.06.03.08.07.21.15.41.25.6.08.19.18.38.28.56.24.41.51.8.83,1.15.16.19.34.37.53.53.03.04.06.07.1.1.17.16.35.3.54.44.18.13.37.26.56.38.06.03.12.07.18.11.21.11.43.23.66.34.02,0,.03.01.05.02.26.12.52.23.79.32.03.01.06.02.09.03.24.08.49.16.74.22.09.03.18.05.27.07.24.06.49.11.74.15.02.01.05.01.07.02.32.05.64.09.98.12.34.03.7.05,1.07.06,4.02.07,8.03.07,12.04.17,1.15.02,2.29.06,3.44.11,2.86.12,5.72.32,8.56.68,1.14.14,2.27.31,3.41.5,6.1,1.04,8.65-1.27,7.78-7.47-.04-.29-.08-.59-.11-.88-.06-.56-.1-1.12-.12-1.66-.03-.79-.02-1.55.03-2.3.01-.16.02-.31.04-.46,0-.05.01-.1.01-.15.03-.23.05-.46.09-.69.03-.25.07-.5.12-.74,0-.07.02-.14.04-.22.05-.26.11-.51.17-.76.07-.28.14-.55.23-.82.06-.22.14-.44.22-.66.49-1.39,1.18-2.68,2.07-3.86.12-.16.25-.32.38-.48.4-.49.83-.96,1.31-1.41.21-.21.43-.4.66-.6.08-.07.17-.14.25-.21.16-.13.32-.26.49-.39.09-.08.19-.15.29-.22.27-.2.55-.4.84-.59.87-.58,1.82-1.11,2.85-1.6,1.65-.78,3.49-1.98,5.17-.81.14.1.27.2.39.31.12.11.24.22.33.34.1.12.19.24.26.36.08.12.15.25.21.38.61,1.35.26,3.02-.19,4.5-.17.58-.35,1.16-.53,1.73-.27.88-.56,1.75-.87,2.6-.21.56-.43,1.12-.68,1.68-.47,1.08-1.01,2.12-1.67,3.1-.16.25-.34.5-.52.74-.01.02-.02.04-.04.06-.35.46-.73.9-1.14,1.32-.22.22-.44.44-.67.65-.24.21-.48.41-.73.61-.03.28-.05.57-.11.85-.11.57-.34,1.1-.63,1.61-.06.1-.12.21-.19.31-1.29,2.02-3.64,3.71-4.65,5.78-.05.1-.1.2-.14.31-.07.15-.12.3-.16.46-.04.11-.07.22-.09.33-.02.09-.04.18-.05.28-.02.08-.03.16-.03.24-.06.62.03,1.28.31,2,.23.58.59,1.2,1.09,1.86.13.17.26.34.4.49.13.15.27.3.41.43.38.36.76.64,1.15.86.19.11.39.21.6.29.2.08.4.15.6.2.38.1.77.16,1.16.18,2.96.17,6.22-1.69,9.22-1.8.98-.04,1.96-.1,2.94-.15,1.36-.07,2.72-.13,4.06-.08.5.02.99.06,1.48.11.22.03.44.06.66.09.33.05.65.11.97.18.17.04.34.08.52.13.17.04.34.08.51.14.17.05.34.1.51.17.17.05.34.12.51.19.28.11.56.23.84.37.17.08.35.17.52.27.21.11.43.24.64.37.19.12.37.24.54.37.1.07.2.15.3.23.1.07.19.15.28.23.28.25.54.51.78.78.26.3.48.61.68.94.09.16.18.32.26.48,0,.01,0,.02.02.04.08.17.15.34.21.51.05.14.1.27.14.41.25.9.3,1.89.11,2.94Z"/>
      <path class="cls-7" d="M228.45,111.36c-16.5.23-26.81,10.32-26.54,25.95.23,13.73,8.73,23.23,20.74,23.19,13.99-.04,27.88-15.32,27.52-30.29-.26-10.89-9.62-19.01-21.72-18.85ZM231.27,150.03c-6.56-.02-11.24-3.1-12.04-9.94-.75-6.45,6.43-12.83,13.7-12.87,6.47-.03,10.45,2.65,10.81,11.09.03,5.16-5.92,11.73-12.47,11.72Z"/>
      <path class="cls-7" d="M296.55,148.57c-16.43-.02-27.71,11.85-27.78,29.21-.06,14.67,9.08,23.65,24.19,23.77,16.26.13,31.94-14.72,31.93-30.25,0-13.91-10.98-22.72-28.34-22.73ZM298.42,188.14c-6.56-.17-12.3-6.15-11.71-12.57.69-7.57,5-11.49,12.67-11.25,6.87.21,11.76,2.84,11.92,9.45-.29,7.81-6.84,14.52-12.88,14.37Z"/>
      <path class="cls-10" d="M167.64,502.92c9.27,3.73,18.47,8.4,28.82,2.29-4.16,9.98-18.89,8.75-28.82-2.29Z"/>
      <path class="cls-5" d="M93.59,109.4c-8.48,5.98-12.25,14.71-14.74,24.26-2.5-11.28,3.81-21.9,14.74-24.26Z"/>
      <path d="M27.19,400.47c7.95,3.7,15.93,5.56,24.67.67-1.81,4.97-2.8,6.03-6.96,6.41-6.94.63-13.62.19-17.72-7.08Z"/>
      <path d="M473.89,300.3c.73-7.3,2.98-14.43,2.68-21.85,3.89,7.83,2.64,15.07-2.68,21.85Z"/>
      <path d="M479.8,310.71c6.02-6.1,7.85-13.01,9.83-21.58,2.33,11.44-.94,18.56-9.83,21.58Z"/>
      <path class="cls-5" d="M40.46,419.74c-6.41,3.24-11.85,2.19-18.81-4.05,7.97,1.72,13.39,2.88,18.81,4.05Z"/>
      <path class="cls-2" d="M74.16,105.81c-3.06,3.71-5.24,6.4-7.47,9.04-1.66,1.96-1.25,7.65-5.19,5.12-2.88-1.85,1.55-4.97,2.75-7.38,1.68-3.35,4.08-6.47,9.91-6.79Z"/>
      <path class="cls-9" d="M265.72,197.86c4.42,5.9,11.47,7.56,17.49,10.88,4.97,5.59,18.58,5.58,23.72-.03,3.27-2.19,7.55-3.68,9.62-6.69,8.86-12.9,20.89-9.65,32.64-6.94,9.17,2.12,18.2,5.05,25.81,11.04.11,3.51,4.96,5.49,2.69,9.98-4.65,9.21-8.46,18.86-13.38,27.91-5.82,10.7-1.38,19.56,10.86,19.99,7.92.28,15.9.58,23.78-.05,9.78-.77,13.32,4.56,14.59,12.91-1.04,6.25,2.33,9.37,7.76,11.19,2.51.84,5.38,1.48,5.18,5.22-.12,2.31-.8,4.33-2.96,5.26-2.88,1.24-5.34.09-7.36-2.11-1.23-1.35-2.33-2.83-3.62-4.12-2.14-2.14-4.41-4.93-7.79-2.87-3.99,2.42-1.19,5.67.24,7.87,2.56,3.94,3.18,7.65,1.67,12.08-1.38,4.03-3.8,5.93-8.1,5.85-3.89-.07-6.33-1.7-7.43-5.42-2.39-8.1-1.86-15.83,4.29-22.03,3.23-3.26,5.35-5.89,1.54-9.88-12.78-7.2-26.77-4.43-40.37-4.91-3.57.47-4.66,2.93-5.87,6.05-20.03,51.93-56.45,87.46-108.21,107.46-2.8,1.08-5.88,1.7-8.87,1.94-4.32.34-4.71,3.03-4.59,6.33-1.5,1.88-1.04,3.93-.72,6.08,1.59,10.76,3.12,21.54,3.12,32.46-2.28,6.15-3.51,12.29.17,18.38,2.61,3.65,6.01,4.93,10.34,3.48,5.84-2.03,12.41-2.38,16.87-7.5,7.74-3.87,15.93-6.16,24.54-6.77,3.03-.21,6.67-.44,8.35,2.49,1.91,3.33-.36,6.49-2.3,9.24-2.88,4.09-6.74,7.21-11.24,9.24-14.79,6.66-29.87,12.58-45.76,16.14-4.78,1.07-10.97,2.84-14.09-.44-3.33-3.5.24-9.04,1.93-13.5.51.1,1.03.25,1.54.27.14,0,.37-.41.42-.65,2.78-15.55,2.27-31.26,1.58-46.9-.19-4.3.25-9.98-4.91-12.89-1.27-8.75-6.59-12.39-15.05-14.59-28.4-7.39-51.86-22.41-67.21-48.1-3.31-5.54-7.95-4.59-12.58-5.24-8.2-.51-16.21-.24-22.9,5.5-17.92,7.12-35.38,15.13-51.04,26.6-6.37,4.67-5.67-1.76-6.03-4.4-3.05-22.16-1.25-43.87,6.89-64.86,5.83-4.56,9.37-2.19,11.69,3.86.2,8.61-1.58,17.3,1.05,25.8-.43,1.76-.78,3.55-1.33,5.27-.81,2.53-.77,4.82,1.52,6.57,2.57,1.98,4.93,1.36,7.48-.36,9-6.05,19.17-9,29.75-10.74,6.26,2.23,12.76,1.24,19.06.76,4.92-.38,8.78-3.24,7.31-9.27-3.97-16.26-2.03-32.84-2.79-49.27,2.49-8.79,5.39-17.5,5.6-26.77,5.69-20.22,14.95-38.75,28.11-54.99,4.68-5.78,3.94-9.9-.2-14.26-6.56-6.89-12.22-14.32-16.91-22.61-3.13-5.53-6.82-4.37-9.51.54-2.49,4.54-4.09,9.64-7.96,13.28-4.21,3.97-9.38,5.77-15.13,4.8-3.14-.53-4.49-2.93-4.12-6.14.69-6,2.39-11.46,8.45-14.19,2.49-1.12,5.13-1.92,7.75-2.72,2.68-.82,5.98-1.57,5.29-5.05-.68-3.42-3.95-3.18-6.79-2.69-.3.05-.61.09-.9.16-4.96,1.16-12.23,3.97-12.85-3.07-.64-7.31,7.77-6.39,13.2-7.78,6.18-1.59,10.13,6.29,16.35,3.24,1.86.33,7.16-6.15,4.87,2.49-.44,1.67.53,2.89,2.27,3.34,8.33,7.84,13.5,18.04,19.98,27.24,4.08,5.79,6.92,6.81,11.45.5,3.72-5.18,8.43-9.65,12.77-14.38,4.87-5.32,8.98-5.64,11.37,2.12,1.86,6,5.87,9.66,11.71,11.54,9.08,7.49,27.92,5.03,36.74-4.82,1.41-1.14,2.88-2.23,4.21-3.45,2.21-2.02,3.97-4.78,7.73-2.54,3.45,2.05,2.97,5.07,2.35,8.03-.74,3.56-2.46,6.99-2.76,10.56-.77,9.02-2.09,18.45,7.86,24.07ZM214.16,194.37c-5.96,9.11-2.02,18.39,9.25,21.77,12.4,4.14,16.9,2.59,26.41-9.11,5.84-5.42,5.5-13.33-.78-18.2-3.38-2.31-6.76-4.62-10.14-6.93-8.43-4.21-14.78-2.36-20.1,5.86-1.54,2.21-3.08,4.41-4.63,6.62ZM172.36,267.63c-9.92,8.1-3.86,33.45,7.88,41.39,9.82,6.64,21.09,6.22,27.41-1.44,7.42-6.11,12.91-13.73,17.88-21.88,5.66-9.28,12.07-18.09,19.99-25.59,3.45-3.27,12.21-2.99,9.77-9.81-2.28-6.34-9.56-2.23-14.64-2.7-.29-.03-.59.14-.89.22-1.76.35-3.61.48-5.28,1.08-12.9,4.67-23.7,1.59-33.02-8.29-3.91-4.14-6.31-8.45-7.03-14.31-.9-7.37-5.73-10.5-10.16-7.87-5.35,3.75-2.04,9.4-3.09,14.09-.64-3.48-1.27-6.95-1.91-10.43,2.15,10.51-1.76,20.64-1.75,30.92-1.73,4.87-3.45,9.75-5.18,14.62Z"/>
      <path class="cls-9" d="M333.62,173.19c.28-8.1-1.73-17.88-11.1-24.22-13.28-8.99-27.3-14.13-42.93-5.39-2.63,1.47-5.15,3.28-7.96,4.24-6.11,2.1-14.8-3.94-13.45-9.55,2.96-12.4-1.38-21.68-11.3-28.67-4.1-2.89-4.09-4.71.31-6.83,16.09-7.74,32.59-13.96,50.72-14.86,6.14-.3,9.72,1.6,11.01,8.05,1.82,9.05,7.18,16.19,14.18,21.96,18.84,15.54,39.17,28.4,63.57,33.23,4.28.85,6.11,2.5,7.06,6.78,3.18,14.27-1.05,27.26-6.13,40.17-1.04,2.63-2.57,3.81-5.64,2.32-14.87-7.25-29.81-14.29-46.7-15.66-2.76-.23-2.7-.88-1.63-11.56Z"/>
      <path class="cls-4" d="M249.82,49.5c-.34-10.17,1.64-19.64,6.61-28.35,5.6-9.81,14.37-14.63,24.22-12.81,10.14,1.87,16.11,8.74,18.26,18.33,3.55,15.85,2.39,32.21,4.36,48.26.41,3.39-1.2,5.29-4.67,5.21-11.81-.27-22.93,3.36-34.06,6.45-4.96,1.38-6.76-.4-8.18-4.27-3.91-10.66-7.05-21.48-6.55-32.82Z"/>
      <path class="cls-4" d="M372.99,92.8c.04,12.78-2.59,22.81-6.63,32.43-2.67,6.36-6.84,8.97-13.56,4.16-9.67-6.93-20.02-12.92-28.38-21.58-4.85-5.03-5.52-9.52.28-14.68,9.74-8.67,20.29-15.76,33.17-18.5,10.76-2.29,12.14-1.2,14.07,9.46.65,3.59.87,7.26,1.04,8.72Z"/>
      <path class="cls-6" d="M388.37,85.61c11.9,15.87,11.38,34.18,10.16,52.57-.25,3.74-3.05,5.16-6.56,4.66-5.42-.78-10.89-1.44-16.17-2.8-6.4-1.64-4.58-6.39-2.73-10.25,6.67-13.9,8.4-28.54,7.23-43.69,2.23-7.91,5.42.35,8.07-.48Z"/>
      <path class="cls-6" d="M359.11,65.91c-14.84,4.69-27.73,11.95-38.91,22.28-1.07.99-2.76,2.83-3.79,1.51-3.67-4.69-3.6-10.79-5.18-16.28-1.08-3.74,1.6-5.48,4.54-6.89,14.28-6.88,28.7-5.7,43.34-.63Z"/>
      <path class="cls-9" d="M413.57,276.87c-1.28-8.35-4.81-13.68-14.59-12.91-7.88.62-15.86.33-23.78.05-12.24-.43-16.67-9.3-10.86-19.99,4.92-9.05,8.72-18.71,13.38-27.91,2.27-4.48-2.58-6.46-2.69-9.98,6.21,2.63,6.92,6.89,4.05,12.59-4.66,9.25-8.97,18.68-13.61,27.94-3.73,7.43-.5,13.81,7.68,13.96,9.18.17,18.36-.09,27.45,1.46,6.1,1.04,8.65-1.27,7.78-7.47-1.2-8.56,1.91-14.94,9.87-18.7,1.65-.78,3.49-1.98,5.17-.81,2.06,1.44,1.61,3.84,1,5.89-1.41,4.66-2.82,9.37-6.93,12.56-.47-5.26,5.03-9.05,3.57-15-5.64.76-8.24,4.35-9.66,9.34-.66,2.32-2.21,4.73-.17,6.88,2.6,2.74,3.99-1.91,6.35-1.35-.04.3-.06.6-.12.9-.92,4.64-9.21,7.08-4.55,13.19,3.84,5.03,8.98.83,13.54.66,4.83-.19,9.72-1.01,14.16,1.79,2.55,1.61,3.85,4.02,3.31,6.93-.53,2.9-3.23,3.49-5.61,3.67-5.13.41-10.26.57-15.13-1.86-2.97-1.48-6.11-2.79-9.6-1.83ZM418.26,273.22c5.24,2.76,10.31,5.82,16.49,5.57,2.49-.1,5.27-.32,5.57-3.32.32-3.14-2.39-3.97-4.89-3.95-5.63.04-11.33-.82-17.17,1.71Z"/>
      <path class="cls-9" d="M265.72,197.86c-9.95-5.61-8.63-15.05-7.86-24.07.31-3.57,2.02-7,2.76-10.56.61-2.96,1.1-5.98-2.35-8.03-3.76-2.23-5.52.52-7.73,2.54-1.34,1.22-2.8,2.31-4.21,3.45,0-.62,0-1.24-.01-1.86,2.5-3.31,4.23-7.91,9.08-8.07,6.43-.21,9.52,5.05,7.42,12.29-3.45,11.85-4.43,23.41,2.92,34.31Z"/>
      <path class="cls-9" d="M124.79,271.42c.76,16.43-1.18,33.01,2.79,49.27,1.47,6.03-2.39,8.89-7.31,9.27-6.3.48-12.8,1.46-19.06-.76,5.44-.54,10.88-1.52,16.32-1.51,6.82.01,8.66-3.21,7.32-9.23-1.13-5.06-2.25-10.11-1.87-15.35,0-8.31-.02-16.62-.03-24.93.2-2.25.39-4.5.59-6.74h.62s.62-.01.62-.01Z"/>
      <path class="cls-9" d="M218.96,403.88c5.16,2.91,4.72,8.59,4.91,12.89.69,15.63,1.19,31.35-1.58,46.9-.04.25-.28.66-.42.65-.52-.01-1.03-.17-1.54-.27,1.63-20.1,3.78-40.22-1.37-60.17Z"/>
      <path class="cls-9" d="M134.3,127.63c-1.85-.92-3.9-1.59-5.51-2.83-2.82-2.17-5.7-4.55-5.73-8.58-.02-2.17,1.58-3.07,3.54-3.22,4.51-.35,7.25,2.07,9,5.95-2.52,2.58,1.93,6.21-1.3,8.69Z"/>
      <path class="cls-9" d="M152.42,116.52c3.36-1.58,7.3-6.87,10.06-3.44,3.19,3.97-1.79,7.97-4.86,11.12-1.45,1.48-3.29,2.57-4.96,3.84-2.62-.17-3.85-1.17-2.71-4.01.97-2.45,1.67-5,2.49-7.51Z"/>
      <path class="cls-9" d="M231.51,433.3c0-10.92-1.53-21.69-3.12-32.46-.32-2.15-.78-4.2.72-6.08,5.51,16.99,5.14,34.31,2.81,51.73-.14-4.4-.27-8.79-.41-13.19Z"/>
      <path class="cls-9" d="M356.65,272.99c13.6.48,27.59-2.29,40.37,4.91-13.26-3.24-27.24-.53-40.37-4.91Z"/>
      <path class="cls-9" d="M246.31,159.33c0,.62,0,1.24.01,1.86-8.83,9.84-27.66,12.31-36.74,4.82,13.44,4.37,25.68,2.14,36.73-6.67Z"/>
      <path class="cls-9" d="M306.94,208.72c-5.14,5.6-18.75,5.62-23.72.03,7.91,1.08,15.82,1.74,23.72-.03Z"/>
      <path class="cls-9" d="M134.3,127.63c3.23-2.48-1.22-6.1,1.3-8.69,3.47,2.99,2.62,9.09,7.81,10.84,0,1.27.02,2.54.02,3.82-.38,1.79-.75,3.59-1.13,5.38-1.74-.45-2.71-1.67-2.27-3.34,2.29-8.64-3.01-2.16-4.87-2.49.67-2,.69-3.88-.86-5.53Z"/>
      <path class="cls-9" d="M124.79,271.42h-.62s-.62.01-.62.01c1.1-9.23,2.53-18.37,6.85-26.78-.21,9.27-3.11,17.97-5.6,26.77Z"/>
      <path class="cls-9" d="M101.22,341.45c6.69-5.74,14.7-6.01,22.9-5.5-7.1,4.07-15.41,3.08-22.9,5.5Z"/>
      <path class="cls-9" d="M143.43,133.6c0-1.27-.02-2.54-.02-3.82,5.24-2.9,3.6-10.48,9.02-13.26-.82,2.51-1.51,5.06-2.49,7.51-1.13,2.84.1,3.83,2.71,4.01-2.29,3.15-5.98,3.98-9.22,5.57Z"/>
      <path class="cls-6" d="M388.37,85.61c-2.65.83-5.83-7.43-8.07.48-2.18-3.18-1.93-6.53-.93-10.87,4.33,3.01,7.42,6,9,10.39Z"/>
      <path class="cls-9" d="M63.79,328.45c-2.63-8.51-.86-17.2-1.06-25.8,0,0,.62,0,.62,0l.62-.05c1.14,8.62,1.54,17.24-.18,25.84Z"/>
      <path class="cls-9" d="M122.96,278.17c0,8.31.02,16.62.03,24.93-2.07-8.31-2.48-16.62-.03-24.93Z"/>
      <path class="cls-9" d="M63.97,302.61l-.62.05s-.62,0-.62,0c-2.32-6.05-5.87-8.42-11.69-3.86.5-3.46,2.35-5.96,5.97-5.49,5.19.67,6.48,4.82,6.96,9.31Z"/>
      <path class="cls-9" d="M258.88,447.66c-4.46,5.12-11.04,5.48-16.87,7.5,4.37-5.33,10.65-6.33,16.87-7.5Z"/>
      <path class="cls-9" d="M231.51,433.3c.14,4.4.27,8.8.41,13.19-.08,1.73-.16,3.46-.25,5.19-3.68-6.09-2.45-12.23-.17-18.38Z"/>
      <path class="cls-3" d="M181.2,232.52c1.05-4.69-2.26-10.34,3.09-14.09,5.53,1.36,6.93,5.25,7.99,10.54,4.29,21.39,30.49,31.59,47.5,18.85.3-.08.6-.24.89-.22,5.08.47,12.36-3.65,14.64,2.7,2.45,6.82-6.32,6.54-9.77,9.81-7.93,7.51-14.33,16.32-19.99,25.59-4.97,8.15-10.46,15.78-17.88,21.88-17.68,8.17-34.29-.42-36.73-19.07-.92-7.04-.43-14.02,1.43-20.89,1.73-4.87,3.45-9.75,5.18-14.62,2.94-6.52,5.66-13.08,3.65-20.49Z"/>
      <path class="cls-8" d="M238.89,181.9c3.38,2.31,6.76,4.62,10.14,6.93,3.2,5.94,2.69,12.04.78,18.2-9.51,11.7-14,13.25-26.41,9.11-6.61-5.76-12.57-11.79-9.24-21.76,1.54-2.21,3.08-4.41,4.63-6.62,6.07-4.14,12.56-6.79,20.1-5.85ZM241.07,201.27c0-2.23-.01-4.45-.02-6.68-2.21-7.78-7.71-3.37-11.69-2.76-4.93.75-7.02,4.6-6.31,9.45.6,4.07,2.25,7.85,7.15,8.08,5.67.27,10.14-1.52,10.87-8.1Z"/>
      <path class="cls-9" d="M239.77,247.82c-17.01,12.74-43.21,2.54-47.5-18.85-1.06-5.29-2.46-9.18-7.99-10.54,4.43-2.63,9.26.5,10.16,7.87.71,5.87,3.12,10.17,7.03,14.31,9.33,9.88,20.12,12.96,33.02,8.29,1.67-.6,3.51-.73,5.27-1.08Z"/>
      <path class="cls-9" d="M172.36,267.63c-1.86,6.87-2.35,13.85-1.43,20.89,2.43,18.64,19.05,27.24,36.73,19.07-6.33,7.66-17.59,8.08-27.41,1.44-11.75-7.94-17.81-33.29-7.88-41.39Z"/>
      <path class="cls-9" d="M181.2,232.52c2.01,7.4-.71,13.97-3.65,20.49-.01-10.28,3.89-20.4,1.75-30.92.64,3.48,1.27,6.95,1.91,10.43Z"/>
      <path class="cls-9" d="M214.16,194.37c-3.32,9.97,2.63,16.01,9.24,21.76-11.27-3.38-15.21-12.65-9.24-21.76Z"/>
      <path class="cls-9" d="M249.81,207.03c1.91-6.16,2.42-12.26-.78-18.2,6.28,4.87,6.62,12.79.78,18.2Z"/>
      <path class="cls-9" d="M238.89,181.9c-7.54-.94-14.04,1.72-20.1,5.85,5.33-8.21,11.67-10.06,20.1-5.85Z"/>
      <path class="cls-1" d="M311.3,173.77c-.29,7.81-6.84,14.52-12.88,14.37-6.56-.17-12.3-6.15-11.71-12.57.69-7.57,5-11.49,12.67-11.25,6.87.21,11.76,2.84,11.92,9.45Z"/>
      <path class="cls-1" d="M243.74,138.31c.03,5.16-5.92,11.73-12.47,11.72-6.56-.02-11.24-3.1-12.04-9.94-.75-6.45,6.43-12.83,13.7-12.87,6.47-.03,10.45,2.65,10.81,11.09Z"/>
      <path class="cls-9" d="M418.26,273.22c5.84-2.53,11.54-1.67,17.17-1.71,2.5-.02,5.21.81,4.89,3.95-.3,3-3.08,3.22-5.57,3.32-6.18.26-11.25-2.81-16.49-5.57Z"/>
      <path class="cls-9" d="M417.55,253.42c-2.35-.56-3.75,4.09-6.35,1.35-2.04-2.15-.49-4.56.17-6.88,1.42-4.99,4.02-8.58,9.66-9.34,1.46,5.96-4.04,9.74-3.57,15,0,0,.09-.13.09-.13Z"/>
      <path class="cls-9" d="M241.05,194.59c0,2.23.01,4.45.02,6.68-1.63,1.33-3.21,2.73-4.9,3.97-3.37,2.47-7.12,3.08-9.22-1-1.85-3.58-1.97-7.82,2.99-9.77,3.67-1.44,7.45-2.76,11.12.12Z"/>
      <path class="cls-9" d="M241.05,194.59c-3.67-2.88-7.44-1.56-11.11-.12-4.96,1.95-4.84,6.19-2.99,9.77,2.1,4.08,5.86,3.47,9.22,1,1.69-1.24,3.27-2.64,4.9-3.97-.73,6.57-5.2,8.36-10.87,8.09-4.9-.23-6.54-4.01-7.15-8.08-.72-4.85,1.38-8.7,6.31-9.45,3.98-.61,9.48-5.02,11.69,2.76Z"/>
    </g>
  </g>
</svg>