<?xml version="1.0" encoding="UTF-8"?>
<svg id="Layer_1" data-name="Layer 1" xmlns="http://www.w3.org/2000/svg" viewBox="0 0 512 512">
  <defs>
    <style>
      .cls-1 {
        fill: #171717;
      }

      .cls-2 {
        fill: #05995f;
      }

      .cls-3 {
        fill: #fff;
      }

      .cls-4 {
        fill: #e52e32;
      }
    </style>
  </defs>
  <g id="_3UmUFg" data-name="3UmUFg">
    <g>
      <path class="cls-1" d="M266.28,109.63c12.19-.2,20.79-1.8,29.45-2.75,5.04-.55,6.06-2.99,5.98-7.42-.23-12.56-2.84-24.73-5.54-36.89-.43-1.91.49-5.08-2.72-5.41-2.51-.26-3.95,2.03-5.31,3.72-3.9,4.84-6.77,10.49-12,14.25-6.71,4.83-12.67,3.98-17.14-2.95-1.46-2.26-2.07-5.05-3.3-7.49-1.4-2.78-1.73-6.93-5.67-7.17-3.76-.23-5.12,3.54-6.94,6.12-1.14,1.61-2.17,3.42-2.72,5.3-2.89,9.8-5.25,19.78-8.54,29.44-1.93,5.66.5,7.32,5.15,7.89,10.88,1.33,21.78,2.5,29.3,3.35ZM511.86,231.23c-2.94-9.62-8.5-17.02-18.27-20.38-13.76-4.74-28.02,1.88-35.43,16.15-4.16,8.01-9.28,9.04-15.76,3.2-3.46-3.12-7.48-4.85-12.18-5.09-15.46-.77-15.51-.8-14.97-16.3,1.06-30.49,1.9-60.99,3.53-91.45.33-6.27-.46-8.29-6.98-8.85-22.72-1.92-45.47-1.56-68.21-1.95-4.29-.08-8.58-.01-14.17-.01,4.7-3.14,8.04-5.24,11.25-7.54,1.88-1.36,1.95-3.42,1.13-5.41-.78-1.9-2.43-2.14-4.34-2.14-2.86-.01-5.23.97-7.71,2.35-4.35,2.42-8.93,4.46-13.47,6.52-2.41,1.09-4.13,1.12-4.26-2.51-.39-10.54-3.03-20.76-5.07-31.05-1.51-7.6-.86-17.44-10.53-19.69-9.96-2.31-15.03,6.13-20.06,12.94-8.1,10.95-7.99,11.03-13.33-.76-.41-.91-.75-1.86-1.25-2.72-5.35-9.16-16.85-10.2-23.81-2.17-4.36,5.02-6.98,10.93-8.69,17.25-2.1,7.72-4.04,15.47-5.97,23.23-1.38,5.53-4.13,7.41-9.6,4.44-5.04-2.73-10.24-5.2-15.55-7.37-1.85-.76-4.72-1.54-5.97,1.07-1.09,2.24,1.1,3.63,2.59,4.85,2.74,2.24,5.63,4.3,10.1,7.66-32.37-1.63-62.48,1.8-92.68,2.22-5.28.07-7.65,1.2-7.76,7.01-.64,35.76-4.15,71.37-5.95,107.08-.19,3.76-1.05,5.36-5.1,5.22-9.75-.33-19.51-.4-29.26-.31-3.22.03-3.93-1.13-4.52-4.19-2.09-10.94-11.58-18.93-22.56-19.65-22.84-1.5-43.28,24.37-35.28,45.75,8.99,24.01,28.62,24.27,45.35,12.44,3-2.12,5.5-4.93,9.64-4.41,2.43,4.85.22,10.14,1.43,15.1.51,1.12,1.02,2.25,1.53,3.37,2.66,2.32,5.32,4.65,7.98,6.97q11.79,4.7,14.75,10.36c1.81,2.64,3.61,5.27,5.41,7.91,1.15,1.11,2.3,2.22,3.44,3.33,2.17.97,4.26,2.03,5.6,4.12.72,1.42,2.14,1.46,3.44,1.75,3.94-.28,4.95,1.92,4.69,5.36-.2,2.62-.22,5.25-.31,7.88,0,4,0,8.01,0,12.01.87,10.3-1,20.44-1.87,30.63-.73,8.57,1.14,11.06,9.47,11.12,32.25.23,64.46,2.75,96.73,1.7,3.35-.11,4.28.8,4.14,4.15-.38,8.74-.64,17.5-.41,26.24.1,4.12-1.18,5.43-5.2,6.19-14.52,2.76-27.48,8.85-38.21,19.31-5.07,4.93-9.19,10.02-6.29,17.74,2.87,7.65,8.84,10.99,16.49,12.23,24.73,4.02,47.07-2.4,67.69-15.78,3.8-2.46,6.79-2.76,10.8-.44,10.96,6.35,23.04,9.65,35.52,11.12,15.33,1.81,30.46,1.67,44.05-7.45,9.16-6.15,11.24-17.09,4.46-26.01-8.3-10.92-19.36-17.77-32.5-21.51-4.48-1.28-11.15,1.26-13.12-2.92-1.85-3.95.47-9.74.46-14.72,0-3.88,1.58-4.48,5.06-4.18,6.96.61,13.98.64,20.96,1.07,24.98,1.55,50,.59,74.99.89,4.06.04,8.93.48,8.95-6.11.06-22.53,4.25-44.86,4.17-67.3-.05-12.74,9.73-20.99,11.07-32.62.17-1.51,2.34-1.47,3.81-1.79,10.45-2.24,17.27-8.52,20.35-18.75.75-2.48,1.43-4.86,4.62-4.98,3.85-.15,2.39,3.24,2.95,4.94,6.4,19.44,30.73,25.2,45.69,11.31,11.37-10.54,13.03-23.54,12.32-37.67ZM19.94,224.37c-1.87,1.13-3.7,2.36-5.46,3.66-1.62,1.19-2.19,5.03-4.77,3.33-2.63-1.73-1.26-4.94-.11-7.41,1.94-4.18,4.41-7.84,9.77-7.68,2.48.08,4.18,1.13,4.47,3.27-.51,2.78-2.17,3.79-3.9,4.83ZM109.22,217.13c.05-1.15.13-2.43.23-3.84.59-8.49,1.17-16.98,1.72-25.47.14-2.12.28-4.24.4-6.36.12-1.81.23-3.61.33-5.41.01-.09.02-.18.02-.28.1-1.65.2-3.3.29-4.95.02-.28.03-.55.04-.83.08-1.36.16-2.73.23-4.09.07-1.18.13-2.37.19-3.55.1-1.89.19-3.78.28-5.67.37-7.56.67-15.12.88-22.69.02-.59.03-1.19.04-1.79.05-1.41.08-2.82.11-4.23.04-1.76.07-3.53.1-5.29.07-4.59,1.65-5.88,6.05-6.22,24.96-1.92,49.94-2.61,74.96-2.39,20.91.18,41.8-1.04,62.67,2.44,10.24,1.7,20.93,1,31.4-.61,23.41-3.6,46.91-1.04,70.36-.53,14.25.31,28.48,1.27,42.73,1.59.26,0,.52.02.76.03.48.03.93.08,1.34.16.21.04.4.08.59.13.21.05.4.11.58.18.11.03.22.08.32.13.02,0,.03.01.04.02.06.03.12.05.18.09.08.03.15.07.22.12.07.04.14.08.2.13.01,0,.02.01.02.01.09.06.19.13.26.2.13.1.24.22.33.33.08.08.14.15.19.24.03.02.05.05.06.08.04.05.08.12.11.18.07.09.12.18.16.28.07.13.12.26.17.41.12.32.21.68.26,1.08.03.16.04.32.05.48.06.57.05,1.21,0,1.93-.18,2.54-.35,5.07-.52,7.61-.5,7.86-.91,15.72-1.24,23.58-.09,2.17-.19,4.33-.27,6.49-.08,2.17-.16,4.34-.23,6.5-.08,2.2-.15,4.4-.21,6.6-.01.33-.02.66-.03.99-.07,2.53-.14,5.05-.2,7.58-.06,2.54-.12,5.08-.18,7.61-.1,5.08-.19,10.16-.27,15.24-.04,2.35-.07,4.71-.1,7.06-.04,2.72-.07,5.45-.1,8.17-.06,4.78-1.34,6.87-6.59,5.93-5.57-.99-10.71.31-15.55,3.81-.68.49-1.36.91-2.03,1.23-.16.08-.32.16-.48.22-.13.06-.25.11-.38.16-.15.06-.3.12-.44.16-.1.03-.21.06-.31.09-.54.16-1.07.25-1.59.26-.27.02-.54.02-.8-.01-.1,0-.2-.02-.29-.04-.07,0-.15-.02-.23-.04-.17-.03-.33-.07-.5-.12-.32-.1-.64-.22-.95-.39-.15-.08-.3-.17-.45-.26-.33-.21-.64-.47-.94-.76-.13-.11-.26-.25-.38-.39-.62-.7-1.18-1.58-1.67-2.67-.1-.22-.2-.44-.29-.67-2.22-5.56-6.01-9.96-11.3-12.57-3.61-1.78-3.78-3.73-2.59-7.08.58-1.65,1.15-3.3,1.7-4.96.41-1.25.82-2.49,1.22-3.74s.79-2.51,1.18-3.76c.78-2.5,1.55-5.01,2.32-7.52,1.13-3.64,1.19-7.3-3.13-8.72-4.64-1.52-5.99,1.78-6.93,5.55-.14.54-.27,1.09-.42,1.63-.43,1.63-.89,3.26-1.37,4.87-.16.54-.32,1.08-.49,1.62-.33,1.07-.67,2.15-1.02,3.22-.17.53-.34,1.07-.52,1.6-2.61,7.94-5.99,14.32-15,18.01-11.18,4.57-17.77,14.3-18.35,27-.15,3.32-1.51,5.48-3.94,7.61-5.7,5.02-11.92,9.31-19.03,11.79-31.89,11.14-63.54,11.68-94.65-3.02-6.59-3.11-11.63-6.04-8.79-15.61,2.27-7.67,1.74-16.43-2.34-24.15-3.74-7.08-9.09-12.29-17.58-11.79-6.53.38-8.91-2.43-9.7-8.39-.6-4.47-1.54-8.89-1.17-13.4.32-3.94-1.77-5.46-5.2-5.8-4.08-.42-4.29,2.42-4.29,5.35,0,1.5.08,3.02-.05,4.51-.6,6.83,4.58,14.11,2.07,19.64-2.53,5.57-9.63,9.1-12.11,15.69-.92,2.43-2.82,3.31-5.33,3.26-3.51-.07-7.01-.02-10.51-.02-3.71,0-6.5,0-8.6-.23-.2-.02-.38-.04-.56-.07-1.08-.15-1.94-.37-2.64-.72-.1-.05-.2-.1-.29-.15-.28-.16-.52-.33-.74-.54-.09-.08-.17-.16-.24-.25-.08-.08-.15-.17-.22-.27-.08-.09-.14-.19-.2-.29-.09-.15-.17-.31-.25-.47,0,0,0,0-.01,0-.07-.17-.13-.34-.19-.52-.04-.11-.08-.22-.1-.33-.03-.09-.05-.18-.08-.27-.03-.13-.05-.26-.08-.4-.02-.12-.04-.24-.06-.37-.02-.13-.04-.27-.05-.41-.17-1.42-.14-3.22-.02-5.5ZM386.98,269.62c-3.62-1.25-3.59-5.06-4.14-8.21-.21-1.21-.04-2.49-.04-4.83,1.35-6.1-.03-14.14,6.66-19.66,5.83-4.81,10.58-3.51,11.9,3.76,1.69,9.31.01,17.94-6.95,24.91-2.05,2.06-3.98,5.22-7.43,4.03ZM333.65,229.92c-3.01,2.85-3.62,6.94-5.51,10.5-4.48-5.09-4.28-11.94.27-14.87,1.63-1.05,3.51-2.32,5.37-.35,1.45,1.55,1.2,3.45-.13,4.72ZM165.19,223c-.24,1.93-1.78,3.16-3.58,3.35-4.17.46-8.55-.39-11.96,2.27-3.13.47-3.19-1.33-2.75-3.17,1.25-5.17,10.99-9.18,15.54-6.51,1.6.94,2.99,2.09,2.75,4.06ZM106.71,255.75c1.14-4.66,3.35-9.83,8.95-9.33,6.46.58,5.1,6.72,5.68,11.14.33,5.27-1.45,9.87-4.49,13.9-2.8,3.71-5.54,3.56-7.93-.75-2.65-4.76-3.47-9.81-2.21-14.96ZM83.32,248.78c-2.1,5.34-4.24,10.64-4.11,16.56.09,4.01.23,9.12-5.18,9.05-5.6-.09-6.73-4.99-6.67-10.45.59-7.97,4.3-14.68,11.8-18.99.42-.24.9-.49,1.4-.68.13-.06.25-.1.38-.13.25-.09.5-.14.75-.17.7-.08,1.41.03,2.04.53.11.08.21.17.31.27,1.39,1.4-.22,2.73-.72,4.01ZM91.52,277.31c-.35-.23-.67-.52-.98-.85-.14-.15-.27-.3-.4-.46-.13-.16-.26-.32-.38-.49-5.41-7.41.69-25.75,11.02-29.45-4.15,8.86-3.31,17.45-3.16,26.02.04,2.24-.36,4.65-2.83,5.6-.14.06-.28.1-.42.14-.09.02-.18.04-.27.06-.18.04-.35.06-.52.06-.14,0-.28-.02-.41-.03-.09,0-.17,0-.26-.02-.23-.04-.45-.1-.67-.19-.12-.05-.25-.11-.37-.17-.12-.07-.24-.14-.35-.22ZM409.73,280.67c-.01.16-.04.33-.07.5-.02.12-.04.23-.07.35-.06.27-.14.55-.22.82-.11.37-.25.73-.38,1.06-.13.34-.26.64-.39.91-.49,1.03-1.02,2.02-1.58,2.95-.37.62-.76,1.22-1.17,1.8-.01,0,0,0,0,0-.8,1.15-1.67,2.22-2.6,3.2-.23.25-.47.49-.71.72-.22.24-.47.48-.72.69-.49.46-.99.89-1.51,1.29-.26.22-.52.41-.78.6-1.06.78-2.18,1.48-3.33,2.1-.58.31-1.17.6-1.78.86-.43.19-.87.37-1.31.54-.49.2-.99.37-1.49.54-.64.22-1.29.41-1.96.58-.33.08-.66.16-1,.24-.44.1-.9.2-1.35.28-.45.09-.91.16-1.38.23-.24.04-.47.07-.71.1-.34.05-.69.09-1.03.12-.62.07-1.24.12-1.87.16-1.44.09-2.88.12-4.33.07-.4-.01-.81-.03-1.21-.06-.05,0-.11,0-.17-.01-.17,0-.34-.02-.51-.04-.22,0-.45-.03-.69-.06-.4-.05-.82-.09-1.22-.15-.55-.07-1.11-.17-1.66-.28-.27-.05-.54-.11-.82-.18-.67-.15-1.35-.34-2.02-.55-.31-.1-.62-.21-.93-.32-.23-.08-.46-.17-.68-.26-.21-.08-.42-.17-.63-.26-.24-.1-.48-.21-.72-.32s-.47-.23-.71-.36c-.3-.15-.59-.32-.89-.49-.3-.16-.59-.34-.88-.53-.22-.14-.45-.28-.67-.41-.23-.13-.46-.26-.7-.39-.23-.12-.47-.24-.71-.35-.15-.07-.3-.14-.45-.2-.15-.06-.3-.12-.46-.18-.21-.08-.43-.16-.65-.22-.15-.04-.29-.08-.43-.12-.37-.09-.72-.15-1.08-.19-.31-.03-.61-.03-.91-.01-.13.02-.25.03-.38.05-.03,0-.06,0-.08,0-.15.03-.31.07-.46.11-.01,0-.02,0-.03,0-.16.05-.31.11-.46.18-.12.06-.24.12-.36.2-.11.07-.22.14-.32.22,0,0-.01,0-.02.02-.11.09-.22.19-.33.3l-.06.06c-.08.09-.16.18-.24.28-.05.06-.1.12-.14.19-.06.08-.12.16-.17.25-.07.1-.12.2-.18.3-.07.14-.14.27-.2.4-.11.27-.2.52-.27.77-.03.12-.05.24-.07.36-.02.16-.03.32-.03.47,0,.1,0,.21.02.31,0,.11.03.21.05.32.02.1.04.19.07.29.03.1.06.19.1.29.06.15.13.3.21.44.08.15.17.28.27.42h.01c.1.14.2.27.32.4.64.72,1.51,1.33,2.41,1.86.16.1.31.18.47.27.66.37,1.32.69,1.9.99,1.06.54,2.13,1.04,3.21,1.48.32.13.63.26.95.38.33.13.65.25.98.36.64.24,1.28.45,1.92.64.42.13.84.25,1.27.37.51.14,1.03.27,1.55.39.64.15,1.28.29,1.93.4.14.03.28.06.43.08.61.11,1.23.2,1.85.27.27.04.54.07.82.1.73.08,1.46.14,2.19.18,5.45.3,10.97-.44,16.45-2.13.42-.13.82-.24,1.19-.35.29-.08.57-.15.83-.2s.51-.1.75-.14.47-.07.69-.09c.11-.01.21-.02.31-.02.2-.02.39-.02.57,0,.09,0,.17,0,.25.02.33.03.63.1.88.21.09.03.18.08.26.13.03.01.05.02.06.04.07.03.13.07.19.13.09.06.18.13.25.22.07.06.14.14.2.23.24.34.42.77.54,1.31.06.27.1.56.13.87.07.8.05,1.77-.05,2.92-.84,9.46-1.63,18.93-2.39,28.39-.76,9.46-1.49,18.92-2.17,28.39-.28,3.83-2.34,4.56-5.43,4.46-1.2-.04-2.41-.07-3.61-.1h-.03c-2.4-.05-4.8-.08-7.2-.1-1.24-.01-2.48-.01-3.72-.01-1.65,0-3.3.01-4.95.02-5.02.03-10.03.1-15.05.15-1.34.02-2.68.04-4.02.04-1.34.01-2.69.02-4.03.03-2.62.02-5.23.03-7.84,0-5.1-.02-10.2-.13-15.29-.37-1.28-.05-2.55-.11-3.83-.19-2.54-.15-5.09-.34-7.64-.56-.42-.04-.84-.07-1.26-.1-.84-.06-1.68-.11-2.52-.15-.43-.02-.85-.04-1.27-.05-.63-.02-1.26-.04-1.9-.06-4.42-.1-8.86-.07-13.28-.37-.45-.03-.86-.04-1.25-.02-.38,0-.74.04-1.06.1-.18.03-.34.06-.5.11-.04.01-.07.02-.1.03-.16.04-.31.09-.45.15-.12.05-.23.1-.34.17-.07.03-.13.07-.19.1-.09.05-.18.11-.26.18-.08.06-.16.12-.23.19-.08.06-.15.13-.22.21-.05.06-.11.12-.16.19-.16.19-.3.41-.41.64-.05.09-.1.19-.13.29-.12.25-.21.52-.27.81-.04.14-.08.28-.1.43-.1.49-.16,1.03-.19,1.61-.01.17-.01.34-.02.52,0,.18,0,.36,0,.55-.02,2.12-.06,4.24-.15,6.35-.04,1.06-.09,2.11-.16,3.17-.05,1.06-.12,2.12-.22,3.17-.04.53-.09,1.05-.14,1.58-.04.53-.09,1.05-.16,1.58-.05.53-.11,1.06-.17,1.58-.25,2.11-.56,4.21-.95,6.31-.1.52-.2,1.05-.3,1.57-.04.2-.07.4-.11.6-.06.39-.1.75-.12,1.11-.03.45-.02.86.02,1.24.03.23.06.46.1.67.08.43.22.82.4,1.17.08.18.18.34.29.5.1.16.22.31.34.45.12.13.25.26.38.37,1.3,1.15,3.37,1.62,6,1.62h.49c1.23-.03,2.45-.03,3.67,0,.59.02,1.18.04,1.77.07.35,0,.7.03,1.05.06.42.02.84.05,1.26.09.5.04,1,.09,1.49.14.37.04.75.08,1.12.13.63.08,1.26.17,1.89.28.84.13,1.67.28,2.49.45,1.67.35,3.32.79,4.93,1.31.75.24,1.5.5,2.24.79,1.47.56,2.92,1.21,4.33,1.95.29.15.58.3.86.46.21.11.42.23.63.35.47.27.93.54,1.38.83.45.28.91.58,1.35.88.27.19.53.37.79.56.53.37,1.05.77,1.57,1.19.26.21.52.42.77.63.25.21.51.43.76.65,1.6,1.4,3.13,2.96,4.6,4.69,2.74,3.25,4.07,6.06,3.89,8.69,0,.08,0,.15-.02.23-.02.2-.05.4-.09.6,0,.05-.01.1-.03.15-.04.2-.09.39-.15.58,0,.02,0,.04-.02.06-.03.09-.06.19-.1.28-.09.25-.19.5-.32.75-.54,1.12-1.39,2.22-2.56,3.31-.18.18-.38.35-.58.52-.6.52-1.27,1.05-2.02,1.57-10.59,7.42-22.68,7.43-34.68,6.24-12.19-1.21-24.16-3.74-34.53-11.07-.33-.23-.64-.47-.93-.72-.1-.08-.2-.16-.29-.25-.15-.13-.29-.26-.42-.39-.16-.15-.32-.31-.46-.47-.15-.16-.29-.33-.42-.5-.14-.16-.26-.33-.38-.5-.12-.17-.24-.35-.34-.53-.12-.21-.24-.42-.35-.64-.13-.26-.24-.53-.34-.81-.03-.07-.06-.15-.08-.22-.03-.09-.06-.18-.08-.26-.06-.15-.1-.3-.13-.45-.05-.15-.09-.3-.11-.46-.04-.15-.07-.3-.09-.45-.03-.19-.05-.38-.08-.58-.03-.24-.05-.48-.07-.73,0-.17-.02-.35-.02-.53,0-.29-.02-.6,0-.91.05-2.42.08-4.84.11-7.25v-.23c.03-2.39.04-4.77.06-7.16.05-9.63,0-19.27.04-28.9,0-1.5.05-3-.03-4.5-.2-3.95-2.58-6.02-6.26-6.02-.18,0-.35.01-.51.03-.05-.01-.1,0-.15,0-.14.01-.27.03-.39.06-.07.01-.13.02-.19.04-.12.02-.23.06-.34.1-.15.05-.28.1-.41.17-.24.13-.44.27-.61.45-.04.04-.08.07-.11.11-.07.08-.15.16-.21.25-.07.08-.12.17-.17.26-.11.21-.21.44-.28.67-.02.05-.03.09-.04.14-.04.09-.06.19-.08.28s-.04.18-.05.27c-.01.04-.02.07-.02.1-.02.13-.03.27-.05.41-.02.21-.03.42-.04.64-.03.73,0,1.48,0,2.15,0,1.17,0,2.33,0,3.5-.03,8.37-.26,16.79.22,25.12.04.82.1,1.64.16,2.45.12,1.64.28,3.26.47,4.89,1.85,15.63-5.4,23.78-18.77,29.73-.74.33-1.48.65-2.23.96-.75.32-1.49.63-2.24.93-1.49.6-2.98,1.17-4.48,1.7-.69.24-1.38.48-2.08.71-.24.08-.48.16-.73.24-.56.19-1.12.36-1.69.53-.75.23-1.51.45-2.26.66-.58.16-1.16.32-1.74.46-.42.11-.84.21-1.26.31-.51.13-1.03.25-1.54.36-.77.17-1.53.33-2.29.47-.76.15-1.53.29-2.29.41-.68.11-1.36.21-2.05.3-.15.02-.3.04-.46.06-.05.01-.1.02-.16.02-.64.09-1.3.16-1.95.22-.02,0-.05,0-.07,0-.75.07-1.51.14-2.26.18-.69.05-1.37.09-2.06.11-1.76.07-3.53.07-5.31,0-.45-.01-.9-.03-1.35-.07-.9-.04-1.8-.11-2.7-.2-.45-.04-.91-.09-1.36-.15-.91-.1-1.82-.23-2.74-.37-3.86-.6-6.78-2.05-8.27-5.48-.99-2.28-.26-4.02.96-5.52.21-.25.43-.49.65-.73.23-.24.46-.47.7-.7.24-.22.48-.45.71-.67.24-.22.47-.44.69-.65,1.27-1.23,2.56-2.41,3.88-3.53.32-.27.64-.55.97-.82.33-.27.66-.54.99-.81.33-.26.66-.53,1-.79.33-.26.67-.51,1.01-.77.34-.26.68-.51,1.02-.75,1.37-.99,2.77-1.92,4.19-2.8,1.78-1.09,3.61-2.1,5.49-3,.94-.45,1.89-.87,2.85-1.27.49-.2.97-.39,1.46-.58.49-.18.98-.36,1.48-.53,2.6-.9,5.28-1.6,8.07-2.1.46-.08.93-.16,1.4-.23.47-.07.94-.13,1.42-.19.54-.06,1.09-.12,1.64-.17.22-.02.43-.04.64-.07.41-.05.81-.11,1.2-.17.38-.07.75-.14,1.1-.23.18-.04.35-.08.52-.13.33-.09.65-.2.96-.31.79-.29,1.48-.65,2.07-1.08.16-.11.31-.23.45-.36.16-.14.31-.28.46-.43.14-.15.28-.3.41-.47.13-.16.25-.33.36-.51.08-.11.15-.24.22-.36.15-.25.28-.51.38-.78.09-.21.17-.42.24-.64.07-.22.14-.45.2-.68.06-.24.11-.48.15-.73.05-.25.09-.51.12-.77.09-.73.13-1.51.13-2.35,0-.3,0-.61-.01-.93-.05-1.54-.1-3.07-.14-4.61-.03-1.44-.06-2.89-.07-4.33,0-1.17-.02-2.33-.02-3.5,0-1.78.01-3.56.04-5.33.03-1.78.08-3.56.13-5.33h0c.12-3.57.29-7.12.52-10.66.06-.89.06-1.72,0-2.46,0-.17-.03-.35-.04-.51,0-.01,0-.02,0-.02-.02-.17-.04-.32-.07-.48-.12-.8-.32-1.5-.59-2.11-.11-.24-.23-.46-.36-.68,0,0,0-.01,0-.01-.12-.21-.27-.41-.42-.59-.11-.13-.22-.26-.34-.37-.12-.12-.24-.23-.37-.34-.05-.05-.11-.09-.17-.13-.14-.11-.28-.21-.43-.3-.19-.12-.38-.23-.59-.32-.12-.07-.25-.12-.38-.17-.17-.07-.35-.14-.53-.2-.14-.05-.29-.1-.45-.14-.26-.07-.53-.13-.81-.19-.49-.1-1.02-.17-1.58-.21-.21,0-.42-.03-.64-.04-.43-.02-.87-.03-1.34-.03-2.51,0-5.02,0-7.53-.01-4.69,0-9.38,0-14.07,0-9.38-.01-18.76-.04-28.14-.12-4.48-.03-8.97-.08-13.45-.13-.21,0-.41-.01-.62-.01-1.09,0-2.18-.03-3.27-.07-.49,0-.98-.02-1.47-.04-1.18-.03-2.35-.07-3.53-.12-1.18-.04-2.35-.09-3.53-.15-1.31-.06-2.63-.12-3.94-.18-.09-.01-.18-.01-.27-.01-2.53-.12-5.06-.25-7.59-.36-1.31-.06-2.62-.11-3.94-.15-.83-.03-1.67-.06-2.51-.07-.47,0-.94-.02-1.42-.03-.17,0-.34-.01-.5-.02-.75-.04-1.42-.11-2-.24-.17-.04-.33-.08-.48-.13-.57-.18-1.04-.43-1.41-.77-.17-.16-.32-.34-.45-.54-.07-.1-.13-.21-.18-.32-.07-.13-.12-.27-.16-.41-.04-.11-.07-.22-.1-.34-.07-.27-.11-.57-.13-.9-.03-.37-.02-.77.01-1.22.02-.25.05-.51.08-.79.16-1.22.3-2.44.42-3.66.25-2.28.44-4.57.58-6.86,0-.2.02-.39.04-.59.07-1.19.14-2.37.18-3.56.03-.63.06-1.26.08-1.9.02-.59.04-1.18.06-1.78.04-1.22.07-2.44.09-3.67.01-.48.02-.96.02-1.43.01-.47.02-.95.02-1.42.01-.77.01-1.54.01-2.3.02-3.47,0-6.95-.03-10.42-.02-2.71-.04-5.41-.06-8.12,0-.24,0-.48.01-.71,0-.34.04-.66.07-.97.02-.16.04-.31.06-.46.03-.2.07-.4.12-.58.09-.37.21-.71.34-1.02.14-.33.32-.63.53-.9.1-.13.21-.26.33-.38.12-.13.25-.24.39-.35.12-.1.25-.19.39-.28.26-.16.55-.3.86-.42.09-.04.19-.07.29-.1.34-.12.7-.21,1.09-.28.23-.05.46-.08.71-.11.29-.03.57-.08.85-.13.28-.04.56-.1.83-.16.29-.07.59-.15.88-.24,1.31-.38,2.57-.95,3.76-1.65.64-.38,1.27-.8,1.88-1.26.27-.2.55-.41.83-.63.13-.1.28-.21.42-.32.25-.18.5-.38.75-.59.71-.57,1.37-1.18,1.88-1.84.2-.25.37-.51.51-.78.14-.27.26-.55.33-.84.04-.15.07-.29.09-.44,0-.04.02-.09.02-.14,0-.03,0-.06,0-.09.01-.17.01-.34,0-.52-.03-.44-.15-.9-.38-1.38-.06-.13-.12-.25-.19-.38-.08-.15-.17-.3-.27-.45-.51-.77-1.06-1.3-1.64-1.64-.7-.41-1.44-.53-2.19-.45-.07,0-.14,0-.21.03-.06.01-.13.02-.2.03-.14.03-.28.06-.41.1-.14.04-.28.08-.42.13-.27.1-.54.22-.82.36-.13.06-.27.13-.4.21-.13.08-.27.16-.4.24-.01,0-.01.01-.01.01-.23.14-.45.3-.68.45,0,0,0,.01,0,.01-.56.41-1.1.85-1.59,1.29-1.54,1.36-3.12,2.3-4.76,2.88h0c-.41.15-.82.28-1.23.38h-.01c-.41.11-.83.2-1.25.26-.85.14-1.71.2-2.58.2-.34,0-.69,0-1.03-.03-.58-.03-1.16-.08-1.75-.17-.23-.02-.47-.05-.71-.1-.23-.04-.47-.08-.71-.12-.47-.09-.95-.19-1.43-.3-6.95-1.6-11.48-5.54-16.29-14.43,4.58-1.01,8.72-2,11.86-5.17,1.1-1.12,2.41-1.46,4.06-1.38,1.42.07,2.75.08,4.02.02.28-.01.55-.02.81-.04.44-.03.87-.06,1.29-.11.33-.03.66-.07.98-.13.31-.04.61-.09.91-.15.06,0,.11,0,.16-.03.21-.03.42-.07.62-.12.75-.16,1.47-.35,2.15-.59.19-.06.38-.13.57-.2.42-.15.82-.32,1.22-.51.17-.08.34-.16.5-.25.16-.07.31-.15.45-.24.2-.1.4-.22.59-.34.37-.22.72-.46,1.06-.72.53-.39,1.03-.83,1.5-1.29.38-.38.74-.79,1.09-1.22.17-.21.34-.43.5-.66.17-.23.33-.46.48-.71.16-.24.31-.48.45-.74.29-.51.57-1.04.83-1.6.25-.55.49-1.13.71-1.74,0,0,0,0,0,0,.22-.6.42-1.24.61-1.9.38-1.32.69-2.75.95-4.29.21-1.28-.15-2.83-.09-4.24,0-.2.02-.39.05-.59.04-.24.09-.47.16-.69.04-.11.08-.22.13-.33.05-.1.1-.21.16-.31.05-.08.1-.16.16-.24.07-.08.13-.15.2-.22.09-.11.18-.2.29-.27,0,0,.01-.01.02-.01.13-.11.28-.21.45-.32.16-.09.32-.17.51-.24.09-.04.19-.08.29-.11.1-.04.2-.07.31-.1.29-.08.57-.14.84-.18.12-.02.24-.03.35-.04.1-.01.19-.02.28-.02.37-.01.73.02,1.07.09.08.02.17.04.24.06.1.02.2.04.3.08.09.02.17.05.25.09.03,0,.06.01.08.03.1.03.19.07.28.12.09.03.18.08.27.13.28.15.56.32.82.51.93.66,1.76,1.55,2.6,2.45.25.26.49.52.74.77.1.1.2.2.29.3.46.47.91.92,1.37,1.34.45.43.9.84,1.36,1.23.23.2.46.39.68.58.69.57,1.38,1.1,2.07,1.59.22.15.44.3.66.45.17.13.34.24.51.34.17.11.34.22.51.32.23.16.47.3.7.43.11.07.22.13.33.19.72.41,1.44.77,2.16,1.09.13.06.26.12.39.17.64.28,1.29.53,1.93.73.27.09.55.17.82.25.41.12.82.22,1.23.31.41.09.83.17,1.24.24.28.05.56.09.83.12.08.02.16.02.23.03.15.02.29.04.43.04.06,0,.12.02.18,0,.27.03.55.04.83.05.54.02,1.08.03,1.62,0,.24,0,.47-.02.71-.04.24,0,.48-.04.72-.06.35-.04.72-.08,1.08-.14.36-.05.71-.12,1.07-.19.48-.1.97-.21,1.45-.34.36-.09.72-.19,1.08-.31.21-.07.42-.13.64-.21.39-.13.78-.27,1.17-.42.76-.3,1.53-.63,2.31-1.01.29-.14.58-.29.88-.44.28-.15.56-.3.85-.46.38-.2.77-.42,1.15-.66.24-.14.49-.29.73-.44.63-.39,1.26-.81,1.9-1.25.44-.3.86-.58,1.27-.81.27-.16.53-.31.79-.44.64-.34,1.24-.6,1.83-.77.09-.03.18-.06.27-.08.18-.06.36-.1.53-.13.2-.04.38-.07.57-.09.15-.02.29-.03.43-.03.21-.01.41-.01.61-.01.16,0,.32.02.48.03.15.02.3.04.45.07.3.06.62.14.93.23.29.08.59.19.89.32.12.04.24.1.37.16.2.09.41.19.61.3.13.07.26.13.38.21.26.13.53.29.8.47.19.11.37.23.55.35.19.12.38.25.57.38.86.6,1.73,1.17,2.61,1.72.22.14.46.28.69.42,1.05.65,2.12,1.26,3.19,1.84.88.47,1.77.92,2.67,1.36.45.22.89.43,1.34.63.42.19.83.38,1.25.56.06.03.11.05.17.07.43.19.87.37,1.31.55.45.19.91.37,1.37.55.51.2,1.02.39,1.53.58,1.02.37,2.06.72,3.09,1.05,1.9.61,3.83,1.14,5.77,1.62.64.15,1.29.31,1.94.45.16.04.32.08.49.11,1.4.3,2.8.57,4.2.82.69.12,1.38.24,2.07.34.59.1,1.18.19,1.77.27.67.09,1.34.18,2.01.26.39.05.78.1,1.17.14.59.07,1.18.14,1.78.2.49.05.99.1,1.48.15,1.53.14,3.06.26,4.6.36,1.17.08,2.35.15,3.53.2,1.18.07,2.36.12,3.54.16,3.04.1,6.08.14,9.09.1,1.06-.01,2.13-.04,3.19-.07h.03c1.06-.03,2.12-.08,3.18-.13,4.27-.21,8.5-.59,12.67-1.19.69-.09,1.36-.19,2.04-.3.47-.07.94-.15,1.4-.23.16-.02.31-.05.46-.08,1.45-.25,2.9-.53,4.33-.83.68-.15,1.36-.3,2.04-.46.69-.16,1.36-.32,2.04-.5,1.35-.33,2.69-.7,4.02-1.1,0,0,0-.01.02-.01,1.34-.39,2.67-.82,4-1.28.76-.26,1.51-.53,2.26-.81.38-.14.76-.28,1.13-.43.37-.14.75-.29,1.12-.44.67-.26,1.33-.53,1.98-.82.55-.23,1.1-.47,1.65-.72.92-.41,1.84-.85,2.76-1.3.92-.44,1.83-.91,2.73-1.39.64-.34,1.27-.68,1.9-1.04.63-.35,1.26-.72,1.89-1.09,1.25-.75,2.49-1.53,3.73-2.34.61-.41,1.23-.82,1.84-1.25.44-.31.86-.57,1.26-.78.13-.07.26-.14.39-.19.13-.06.26-.12.38-.16.37-.13.72-.2,1.06-.2.13,0,.26,0,.39.03.19.04.37.1.55.18.08.04.16.08.24.14.08.05.16.11.24.17.11.09.23.2.35.33.06.06.11.13.17.2.07.07.12.14.17.22.06.07.11.15.17.24.07.09.12.19.18.28.11.18.22.38.32.59.66,1.32,1.71,2.46,2.67,3.61,3.85,4.63,8.13,7.8,12.54,9.53.44.17.88.33,1.32.47.33.11.67.21,1,.3.33.09.67.18,1,.25.26.06.52.12.77.16.19.04.38.07.57.1.29.05.57.09.86.12.16.02.32.04.48.05.28.03.56.05.84.07h.09c.36.02.72.03,1.08.03.34,0,.68,0,1.02-.03.6-.02,1.19-.08,1.78-.16.18-.02.35-.05.52-.08.37-.06.74-.13,1.1-.21.42-.08.84-.19,1.25-.31.22-.06.43-.12.65-.19.94-.29,1.86-.65,2.78-1.08.23-.1.45-.21.68-.33.72-.35,1.43-.76,2.13-1.21.34-.21.69-.44,1.03-.68.86-.6,1.71-1.26,2.54-2,.15-.13.3-.26.45-.4.88-.8,1.74-1.67,2.58-2.62.26-.3.52-.61.78-.92.4-.47.79-.96,1.15-1.46.2-.25.39-.5.57-.76.18-.25.36-.51.53-.76.41-.62.82-1.25,1.21-1.89.27-.43.53-.85.79-1.28.33-.53.65-1.07.97-1.6,0,0,0-.01,0-.01.17-.27.33-.53.49-.79.05-.08.09-.16.13-.24.09-.15.17-.32.26-.48.16-.29.31-.58.49-.86.05-.08.11-.16.16-.24.05-.07.1-.15.16-.22.05-.07.11-.14.17-.21.04-.04.08-.09.12-.13.11-.11.22-.21.35-.29.06-.03.12-.07.18-.1.29-.15.63-.21,1.02-.15,2.49.35,1.78,2.73,1.67,4.26-.44,6.08,1.19,10.98,5.76,15.45,1.35,1.32,2.67,2.43,4.04,3.23.16.1.32.19.48.27.14.08.28.15.42.21.14.07.28.14.42.19.27.11.54.21.81.3.19.07.38.13.57.17.11.03.21.05.32.07.32.07.64.12.97.14.21.02.42.03.63.03.67,0,1.35-.08,2.06-.26.07-.02.14-.04.21-.06.07-.02.14-.04.21-.06.14-.04.27-.08.41-.13.14-.05.29-.1.45-.16.39-.15.79-.33,1.19-.54,1.42-.74,2.79-.96,4.12-.9.14.01.29.02.43.03.31.03.62.07.93.13.13.02.25.04.37.07.29.06.59.13.88.21.24.06.47.12.71.2.64.18,1.28.4,1.92.6.25.08.5.16.76.24.24.09.49.16.73.22.26.08.53.15.79.22.23.06.46.11.7.16.26.06.51.11.78.14.17.03.33.05.5.06.77.09,1.55.09,2.35-.04.47-.08.81,0,1.04.2.06.05.11.11.16.17.18.26.25.62.25,1.04,0,.13,0,.28-.03.43ZM404.67,269.65c6.48-10.76,7.67-21.19,6.27-32.07-.08-.65-.14-1.31-.09-1.94,0-.12.02-.24.04-.35.02-.14.04-.27.08-.4.03-.13.07-.26.12-.38.04-.11.09-.21.15-.32.02-.05.05-.1.08-.15.04-.07.1-.14.15-.21.08-.1.17-.2.27-.29.1-.1.21-.18.33-.26.16-.1.34-.19.55-.27.2-.08.42-.14.67-.19,2.41-.47,3.65,1.37,4.46,3.22,3.27,7.53.07,30.23-13.08,33.61ZM423.18,266.33c5.23-9.62,4.9-18.86,4.67-28.07-.12-4.86,2.47-5,5.68-3,.19.12.37.24.56.38.14.1.28.21.42.33.13.1.27.22.4.34,0,0,.03,0,.04.03.19.17.38.35.55.53.05.05.11.1.15.16.18.19.36.39.52.6.11.13.21.27.31.41.09.12.18.24.25.36.14.2.27.41.38.63.12.22.22.43.31.65,2.63,6.41-1.84,25-14.24,26.65ZM479.09,227.36c-3.45,4.8-7.04,9.37-8.09,15.55-.5,2.92-2.82,1.89-4.44.24-2.12-2.16-1.78-5.02-2.21-7.02.36-7.02,1.14-13.12,8.34-15.75,2.26-.82,4.34-1.22,6.11.82,1.69,1.94,1.71,4.18.29,6.16Z"/>
      <path class="cls-3" d="M479.09,227.36c-3.45,4.8-7.04,9.37-8.09,15.55-.5,2.92-2.82,1.89-4.44.24-2.12-2.16-1.78-5.02-2.21-7.02.36-7.02,1.14-13.12,8.34-15.75,2.26-.82,4.34-1.22,6.11.82,1.69,1.94,1.71,4.18.29,6.16Z"/>
      <path class="cls-3" d="M333.65,229.92c-3.01,2.85-3.62,6.94-5.51,10.5-4.48-5.09-4.28-11.94.27-14.87,1.63-1.05,3.51-2.32,5.37-.35,1.45,1.55,1.2,3.45-.13,4.72Z"/>
      <path class="cls-3" d="M165.19,223c-.24,1.93-1.78,3.16-3.58,3.35-4.17.46-8.55-.39-11.96,2.27-3.13.47-3.19-1.33-2.75-3.17,1.25-5.17,10.99-9.18,15.54-6.51,1.6.94,2.99,2.09,2.75,4.06Z"/>
      <path class="cls-3" d="M23.84,219.54c-.51,2.78-2.17,3.79-3.9,4.83-1.87,1.13-3.7,2.36-5.46,3.66-1.62,1.19-2.19,5.03-4.77,3.33-2.63-1.73-1.26-4.94-.11-7.41,1.94-4.18,4.41-7.84,9.77-7.68,2.48.08,4.18,1.13,4.47,3.27Z"/>
      <path class="cls-4" d="M91.94,287.32c4.58-1.01,8.71-2,11.86-5.18,1.1-1.11,2.41-1.46,4.06-1.37,13.84.7,20.28-4.49,22.46-17.57.44-2.63-1.55-6.47,2.64-7.67,3.77-1.08,5.8,1.69,8.11,4.09,11.13,11.54,22.85,13.06,36.12,3.85,4.78-3.32,7.72-3.03,12.33.16,16.04,11.11,34.7,13.76,53.56,14.41,25.4.87,49.95-2.69,71.51-17.7,2.58-1.79,4.31-2.08,5.87,1.05.66,1.32,1.71,2.46,2.67,3.62,12.72,15.26,30.05,14.7,41.56-1.36,1.45-2.03,2.68-4.21,3.99-6.34.78-1.26,1.37-3.15,3.04-2.92,2.5.35,1.78,2.73,1.67,4.26-.44,6.08,1.19,10.98,5.76,15.45,4.05,3.96,7.94,6.12,13.19,3.39,5.62-2.92,10.36,2.23,15.98,1.34,2.52-.39,1.17,3.62.28,5.48-5.25,11.02-14.51,16.3-26.28,17.01-6.19.37-12.51-.25-18.06-3.8-3.13-2-7.32-3.52-9.3.11-2.17,3.99,2.4,6.14,5.26,7.59,10.75,5.48,22.22,5.99,33.55,2.51,5.9-1.81,7.59-.77,7.05,5.29-1.67,18.91-3.19,37.84-4.56,56.78-.28,3.83-2.34,4.55-5.42,4.46-25.73-.81-51.49,1.2-77.21-1.09-6.71-.6-13.5-.29-20.23-.74-4.85-.33-5.86,1.99-5.89,6.27-.07,8.48-.57,16.93-2.25,25.31-1.18,5.93,2.1,7.84,7.79,7.72,15.1-.31,28.67,3.38,38.95,15.52,5.69,6.72,5.3,11.62-2,16.73-10.58,7.42-22.68,7.43-34.68,6.24-12.19-1.21-24.16-3.74-34.53-11.07-3.38-2.39-4.69-5.2-4.61-9.4.28-14.51.18-29.02.21-43.53,0-1.5.05-3.01-.03-4.5-.2-3.95-2.58-6.02-6.26-6.02-4.1,0-3.66,3.6-3.64,6.14.08,12-.55,24.11.85,35.97,1.85,15.63-5.41,23.78-18.77,29.72-15.25,6.79-30.6,10.47-47.29,7.86-3.86-.6-6.78-2.05-8.27-5.48-1.65-3.81,1.5-6.14,3.72-8.27,10.33-9.97,22.32-17.03,36.86-18.34,7.27-.65,9.86-3.7,9.59-11-.41-11.24-.27-22.54.46-33.76.47-7.27-2.7-9.31-9.12-9.31-21.27,0-42.53,0-63.8-.27-10.5-.13-20.98-.98-31.48-1.19-4.13-.08-5.9-1.18-5.32-5.67,1.96-15.18,1.49-30.46,1.41-45.72-.02-3.98,1.24-6.1,5.19-6.56,3.05-.35,5.76-1.6,8.2-3.44,2.81-2.13,6.56-4.51,3.99-8.39-2.64-4-6.42-1.51-8.98.76-4.69,4.16-9.89,4.29-15.47,3.01-6.95-1.6-11.49-5.54-16.29-14.43Z"/>
      <path class="cls-4" d="M123.55,227.93c-14.75.01-15.1,0-14.09-14.64,2.08-30.18,4.14-60.36,4.62-90.61.07-4.59,1.65-5.88,6.05-6.22,24.96-1.92,49.94-2.61,74.96-2.39,20.91.18,41.8-1.04,62.68,2.44,10.24,1.71,20.92,1,31.4-.61,23.41-3.6,46.9-1.04,70.36-.53,14.25.31,28.48,1.27,42.72,1.59,4.6.1,6.17,1.66,5.84,6.21-2.32,32.44-2.98,64.93-3.35,97.44-.06,4.77-1.33,6.87-6.59,5.93-5.57-.99-10.71.31-15.55,3.81-4.7,3.4-9.22,3.03-11.73-3.23-2.22-5.56-6.01-9.95-11.3-12.56-3.61-1.79-3.79-3.74-2.6-7.08,2.34-6.59,4.36-13.29,6.43-19.98,1.13-3.64,1.19-7.31-3.13-8.72-4.64-1.52-6,1.78-6.93,5.55-1.08,4.36-2.41,8.67-3.82,12.94-2.61,7.95-6,14.32-15.01,18.01-11.18,4.58-17.77,14.3-18.35,27-.15,3.32-1.51,5.48-3.94,7.61-5.7,5.02-11.92,9.3-19.03,11.79-31.89,11.14-63.54,11.68-94.66-3.02-6.58-3.11-11.62-6.04-8.79-15.61,2.27-7.67,1.74-16.43-2.34-24.15-3.74-7.08-9.08-12.29-17.58-11.79-6.52.38-8.9-2.43-9.7-8.39-.6-4.46-1.53-8.89-1.17-13.39.32-3.94-1.77-5.46-5.2-5.81-4.09-.41-4.29,2.42-4.29,5.36,0,1.5.08,3.01-.05,4.5-.59,6.84,4.58,14.11,2.07,19.65-2.53,5.57-9.63,9.1-12.11,15.69-.92,2.43-2.82,3.31-5.33,3.26-3.5-.07-7.01-.02-10.51-.02ZM223.81,176.54c.05,9.61,4.02,15.28,9.74,15.74,6.49.53,12.52-4.71,14.08-12,1.01-4.75.46-9.43-.11-14.13-.44-3.62-1.34-7.15-5.45-8.07-4.3-.97-8.72-.7-11.65,3.11-3.86,5.01-6.49,10.65-6.61,15.35ZM307.87,173.51c-.11-2-.07-4.01-.35-5.98-.56-3.94-.74-8.44-5.68-9.5-5.22-1.11-10-.04-13.02,5-1.15,1.92-2.31,3.87-3.16,5.93-3.32,8.05-2.3,16.69,2.44,21.09,3.42,3.18,7.4,2.88,11.18,1.07,7.38-3.55,9.09-10.09,8.58-17.61Z"/>
      <path class="cls-2" d="M266.28,109.63c-7.51-.85-18.41-2.03-29.29-3.35-4.65-.57-7.08-2.23-5.15-7.89,3.29-9.66,5.65-19.64,8.54-29.44.55-1.88,1.58-3.69,2.72-5.3,1.83-2.58,3.18-6.35,6.94-6.12,3.94.24,4.27,4.39,5.67,7.17,1.23,2.43,1.84,5.23,3.3,7.49,4.47,6.93,10.43,7.78,17.14,2.95,5.22-3.76,8.1-9.41,12-14.25,1.36-1.69,2.8-3.98,5.31-3.72,3.21.33,2.3,3.5,2.72,5.41,2.7,12.16,5.31,24.34,5.54,36.89.08,4.43-.94,6.86-5.98,7.42-8.67.95-17.26,2.55-29.45,2.75Z"/>
      <path class="cls-4" d="M382.8,256.58c1.35-6.1-.04-14.14,6.66-19.66,5.83-4.81,10.58-3.52,11.9,3.76,1.69,9.32,0,17.94-6.95,24.92-2.05,2.05-3.98,5.21-7.42,4.03-3.63-1.25-3.59-5.06-4.14-8.21-.21-1.21-.04-2.49-.04-4.83Z"/>
      <path class="cls-4" d="M121.34,257.56c.34,5.26-1.45,9.87-4.49,13.9-2.8,3.7-5.53,3.56-7.93-.75-2.65-4.76-3.47-9.81-2.21-14.96,1.14-4.66,3.35-9.84,8.95-9.33,6.46.58,5.1,6.72,5.68,11.14Z"/>
      <path class="cls-4" d="M67.36,263.94c.59-7.97,4.3-14.68,11.81-19,1.39-.8,3.38-1.69,4.88-.18,1.38,1.4-.22,2.73-.72,4.01-2.1,5.34-4.24,10.64-4.11,16.56.09,4.01.23,9.12-5.18,9.04-5.6-.08-6.73-4.99-6.67-10.44Z"/>
      <path class="cls-4" d="M423.18,266.33c5.23-9.62,4.9-18.86,4.67-28.07-.12-4.86,2.47-4.99,5.68-2.99,1.61,1,3.18,2.68,3.89,4.41,2.64,6.42-1.84,25-14.24,26.66Z"/>
      <path class="cls-4" d="M404.67,269.65c6.48-10.76,7.67-21.2,6.27-32.08-.26-2.01-.24-4.26,2.36-4.76,2.4-.47,3.65,1.37,4.45,3.23,3.27,7.53.07,30.23-13.08,33.61Z"/>
      <path class="cls-4" d="M100.78,246.06c-4.14,8.85-3.31,17.45-3.16,26.02.04,2.24-.36,4.65-2.82,5.6-2.19.85-3.78-.46-5.03-2.18-5.42-7.41.69-25.75,11.01-29.44Z"/>
      <path class="cls-1" d="M223.81,176.54c.12-4.7,2.75-10.34,6.61-15.35,2.94-3.81,7.35-4.08,11.65-3.11,4.1.93,5.01,4.45,5.45,8.07.57,4.71,1.13,9.39.11,14.13-1.55,7.29-7.59,12.52-14.08,12-5.73-.46-9.69-6.13-9.74-15.74Z"/>
      <path class="cls-1" d="M307.87,173.51c.5,7.52-1.2,14.05-8.58,17.61-3.77,1.82-7.75,2.11-11.18-1.07-4.74-4.41-5.77-13.05-2.44-21.09.85-2.06,2.01-4.01,3.16-5.93,3.02-5.03,7.8-6.11,13.02-5,4.93,1.05,5.12,5.55,5.68,9.5.28,1.97.24,3.99.35,5.98Z"/>
    </g>
  </g>
</svg>