<?xml version="1.0" encoding="UTF-8"?>
<svg id="Layer_1" data-name="Layer 1" xmlns="http://www.w3.org/2000/svg" viewBox="0 0 512 512">
  <defs>
    <style>
      .cls-1 {
        fill: #e2052e;
      }

      .cls-2 {
        fill: #1c1c1c;
      }

      .cls-3 {
        fill: #269fda;
      }
    </style>
  </defs>
  <g id="hE6tft">
    <g>
      <path class="cls-2" d="M68.61,287.3c-15.66,6.99-27.74,5.3-36.01-4.86-6.71-8.24-6-16.43,2.66-27.94-4.8-2.17-9.93-3.81-12.42-9.11-1.41-3-1.77-6.04-1.32-9.15,1.67-11.4,11.95-19.25,27.45-21.15-.84-4.95-1.96-9.87-2.45-14.86-1.1-11.21,5.35-18.35,16.72-18.91,12.79-.63,24.48,8.49,28.96,22.26.64,1.98-.18,5.41,2.33,5.75,3.08.43,4.95-2.4,6.25-5.02.74-1.51,1.19-3.18,1.67-4.81,16.65-56.87,49.65-99.1,107-119.56.78-.28,1.43-.89,2.39-1.5-4.97-4.26-9.92-8.31-14.61-12.63-1.77-1.63-4.49-3.86-2.5-6.44,1.69-2.2,4.79-2.84,7.81-1.97,6.53,1.88,11.28,6.59,16.4,10.6,5.15,4.03,8.02,4.21,10.86-2.69,6.55-15.89,15.2-30.66,27.73-42.69,20.71-19.87,45.56-26.36,73.31-20.6,28.58,5.93,46.04,34.55,40.8,65.61-1.03,6.1-2.55,12.12-3.94,18.63,7.52.58,14.15-2.24,21-3.67,10.18-2.12,18.46.16,17.59,5.02-1.51,8.39-9.32,7.61-15.64,8.46-5.05.68-10.12,1.25-15.32,1.89.61,4.01,4.03,4.97,6.31,6.82,21.13,17.14,40.75,35.69,55.76,58.63,21.83,33.36,28.57,70.22,25.29,109.39-.24,2.88-2.28,6.25,2.75,7.34,15.37,3.34,21.52,14.8,24.28,28.7,2.22,11.21.72,22.18-4.72,32.33-4.94,9.22-12.67,14.71-23.31,14.69-4.02,0-5.88,1.6-8.22,4.45-7.67,9.36-16.65,15.75-29.56,9.87-3.69-1.68-5.82,1.23-8.3,2.91-20.31,13.74-40.9,26.88-64.9,33.52-11.21,3.1-22.62,4.66-35.17,4.77,4.76,9.36,11.42,15.93,17.54,22.88,15.3,17.34,15.38,17.33-.38,33.72-17.97,18.68-37.41,35.1-63.58,41.17-7.24,1.68-14.47,2.96-21.95,2.85-23.98-.38-35.53-17.97-26.32-40.26,3.51-8.48,9.74-14.68,17.19-19.66,4.72-3.16,9.65-6.04,14.69-8.65,12.35-6.38,12.4-6.28,1.68-16.08-1.89-1.73-3.8-3.46-5.59-5.29-7.27-7.45-7.31-7.5-13.28,1.82-13.58,21.18-22.8,44.49-32.47,67.54-2.31,5.49-5.17,7.17-10.8,6.71-22.08-1.8-42.61-7.67-59.69-22.45-11.96-10.35-18.86-23.36-18.8-39.58.06-16.64,9.07-25.45,25.78-25.08,13.5.3,25.58,5.23,36.98,11.88,5.02,2.93,7.47,2.01,9.25-3.41,1.67-5.11,3.57-10.26,6.18-14.94,3.25-5.81,3.12-8.39-4.02-11.49-27.19-11.78-50.03-29.29-66.2-54.65-5.37-8.42-9.75-17.32-13.3-26.66-.86-2.27-.81-5.2-5.46-4.58-18.87,2.51-26.33-1.98-34.36-19.87Z"/>
      <path d="M376.83,470.59c3.14-14.14,5.59-28.05-4.98-40.45,9.21-.15,13.43,4.6,15.49,16.62,2.03,11.89-1.66,20.72-10.51,23.83Z"/>
      <path class="cls-1" d="M449.22,258.96c-.39,4.27.8,12.54-1.21,20.75-2.19,8.94,4.38,11.4,11.09,12.91,5.61,1.26,11.23,2.25,14.96,7.19,10.07,13.36,1.97,34.56-8.76,42.82-2.93,2.26-4.15.6-4.16-2.35-.03-5.13-.14-10.29.3-15.39.51-5.94-3.26-7.46-7.76-7.93-5.81-.6-3.94,4.14-4.43,7.13-1.47,8.95-1.56,18.12-4.84,26.76-1.48,3.89-3.4,7.15-7.26,9.03-6.79,3.32-12.17.16-11.89-7.38.18-4.79,1.26-9.55,1.84-14.33.55-4.5-.92-8.36-5.64-9.03-4.56-.64-6.16,2.78-6.82,6.94-.71,4.46-1.87,8.86-3.12,13.21-.7,2.43-1.67,4.89-3.05,6.98-3.53,5.35-14.34,9.9-16.88,6.77-4.22-5.2-2.83-11.42.53-16.63,3.38-5.23,7.7-9.85,11.46-14.85,1.65-2.19,4.11-4.45,1.92-7.58-1.95-2.8-5.07-2.51-7.83-2.02-3.9.7-7.68,2.03-11.55,2.94-3.5.82-7.19.73-9.36-2.38-2.21-3.15-.9-6.69,1.13-9.58,5.79-8.21,14.37-9.66,23.45-8.58,14.14,1.67,14.94.67,12.88-14.47-1.34-9.85-1.96-19.8,1.65-29.56,1.26-3.41,3.6-8.38-1.64-10.23-5.08-1.79-8.74,1.95-10.66,6.38-1.44,3.32-2.48,6.93-2.27,10.77.23,4.27-.42,8.62.18,12.82,1.22,8.55-.66,13.59-10.69,13.92-8.89.29-15.97,5.24-22.13,11.62-8.99,9.3-6.05,25.35,6.33,29.19,6.17,1.92,5.53,3.89,4.18,8.82-2.8,10.19-5.17,20.79,5.13,28.83,2.9,2.27,1.39,3.92-.77,5.22-20.21,12.08-41,22.31-65.49,21.59-6.91-.2-16.29-3.47-19.74,3.65-3.27,6.78,3.57,13.74,7.86,19.47,6.12,8.19,13.19,15.67,19.93,23.4,1.85,2.13,4.51,3.77,1.47,7.02-18.16,19.48-36.86,38.16-63.75,45.44-4.18,1.13-8.35,1.53-12.64,1.74-19.02.96-21.76-14.96-15.19-25.08,9.87-15.19,24.27-25.42,42.89-27.85,7.69-1,8.83-2.65,5.08-9.56-2.31-4.25-6.12-6.86-9.89-9.23-9.14-5.77-15.86-13.49-21.64-22.56-8.52-13.38-15.17-13.25-23.89.24-12.1,18.71-21.19,38.93-29.18,59.7-8.54,22.19-8.72,22.21-31.39,14.28-12.19-4.27-23.66-9.98-32.81-19.35-5.9-6.04-9.87-12.94-9.43-22.03.59-12.16,8.46-18.92,20.35-16.71,9.46,1.75,17.44,6.69,25.42,11.69,20.4,12.77,16.51,10.44,25.12-7.57,4.77-9.98,8.29-20.56,12.7-30.73,2.5-5.76,1.1-8.05-5.02-10.13-39.19-13.34-69.14-37.57-83.77-77.13-22.93-62-12.67-119.14,28.42-170.67,18.75-23.51,42.24-40.41,71.55-48.67,6.25-1.76,12.21-1.78,18.46-.21,29.56,7.4,59.38,13.12,90.05,12.72.86-.01,1.77.21,2.56-.03,20.38-6.15,35.03,4.21,48.89,16.88,28.96,26.49,53.71,55.78,64.12,94.85,3.69,13.86,5.49,27.86,4.68,46.12Z"/>
      <path class="cls-3" d="M325.95,89.15c-27.08.05-53.69-3.62-80-9.92-4.04-.97-6.6-2.02-4.95-6.58,10.67-29.59,27.62-53.82,60.62-59.71,42.81-7.64,61.47,21.4,55.76,54.46-4.68,27.14-1.43,20.93-26.3,21.74-1.71.05-3.42,0-5.13,0Z"/>
      <path class="cls-1" d="M98.36,238.74c-.16,9.15.97,16.1-2.7,22.42-1.2,2.07-.19,3.76.92,5.51,3.82,5.97,4.37,12.87,5.05,19.63.39,3.89,2.2,9.01-4.62,9.81-5.89.7-10.33-1.49-11.93-7.19-1.45-5.15-2.37-10.5-2.13-16,.15-3.3.67-7.42-3.1-9.02-3.23-1.37-5.88,1.28-8.33,3.24-4.22,3.37-8.09,7.3-12.69,10.03-4.91,2.91-11.47,4.74-15.24-.59-3.78-5.34-1.63-11.61,3.38-16.03,4.98-4.39,11.25-6.53,17.23-9.19,3.07-1.36,8.38-2.1,6.23-7.24-1.68-4.01-5.93-4.79-10.29-3.92-5.55,1.1-11.11,2.28-16.73,2.86-3.2.33-7.83,1.07-8.77-3.02-.99-4.33,1.27-8.22,5.66-10.47,2.35-1.2,4.68-1.82,7.31-1.93,6.25-.27,12.52-.57,18.74-1.21,2.62-.27,6.56,1.1,7.49-2.41,1.01-3.81-1.94-6.5-5.22-7.83-7.21-2.94-9.43-8.69-9.25-15.7.09-3.39.92-7.1,4.76-8.29,3.51-1.09,6.61.28,9.28,2.92,5.19,5.15,5.71,12.17,7.9,18.56,2.03,5.9,2.74,14.04,12.8,8.84,3.03-1.57,3.08,1.45,3.25,3.27.49,5.09.8,10.21,1,12.96Z"/>
      <path class="cls-2" d="M260.37,290.9c38.8.23,78.2-28.44,90.07-65.11,1.91-5.88,5.1-13.07,11.9-10.56,6.49,2.39,3.9,10.29,1.4,14.98-20.91,39.37-54.72,74.99-106,73.12-55.65-2.04-103.7-50.28-102.85-105.01.1-6.33,1.37-12.39,3.64-18.3,1.5-3.91,4.53-4.1,7.68-3.33,3.73.92,2.27,3.92,1.89,6.31-7.97,49.8,28.7,100.22,78.62,107.81,4.45.68,9.1.09,13.65.09Z"/>
      <path class="cls-2" d="M296.6,150.33c.62-10.16,4.05-19.34,14.74-24.04,10.25-4.5,15.83-1.3,18.52,9.57,2.49,10.06-.24,18.58-7.11,25.68-5.15,5.32-11.68,8.19-19.25,5.28-7.49-2.88-6.42-9.72-6.91-16.5Z"/>
      <path class="cls-2" d="M268.12,130.48c-1.42,9.56-3.83,18.75-13.44,23.89-8.64,4.62-17.36-.35-17.84-9.92-.44-8.76.62-16.97,7.15-23.58,4.88-4.95,11.04-6.19,17.18-4.14,6.02,2.02,6.01,8.21,6.94,13.75Z"/>
    </g>
  </g>
</svg>