<?xml version="1.0" encoding="UTF-8"?>
<svg id="Layer_1" data-name="Layer 1" xmlns="http://www.w3.org/2000/svg" viewBox="0 0 512 512">
  <defs>
    <style>
      .cls-1 {
        fill: #042549;
      }

      .cls-2 {
        fill: #0d2951;
      }

      .cls-3 {
        fill: #052040;
      }

      .cls-4 {
        fill: #06223d;
      }

      .cls-5 {
        fill: #d5c540;
      }

      .cls-6 {
        fill: #0b2b4c;
      }

      .cls-7 {
        fill: #2a5a94;
      }

      .cls-8 {
        fill: #171717;
      }

      .cls-9 {
        fill: #052142;
      }

      .cls-10 {
        fill: #215ea6;
      }

      .cls-11 {
        fill: #f1d500;
      }

      .cls-12 {
        fill: #062246;
      }

      .cls-13 {
        fill: #d1323f;
      }

      .cls-14 {
        fill: #141414;
      }

      .cls-15 {
        fill: #fff;
      }

      .cls-16 {
        fill: #cc3741;
      }

      .cls-17 {
        fill: #27945d;
      }

      .cls-18 {
        fill: #062143;
      }

      .cls-19 {
        fill: #f7d503;
      }

      .cls-20 {
        fill: #0b2749;
      }

      .cls-21 {
        fill: #e2d147;
      }

      .cls-22 {
        fill: #da303e;
      }

      .cls-23 {
        fill: #2d5b93;
      }
    </style>
  </defs>
  <g id="h0jArF">
    <g>
      <path class="cls-14" d="M362.62,147.81c51.96,23.64,80.42,63.18,81.85,121,.11,4.29-.96,8.08,5.43,10.21,12.07,4.03,17.22,18.6,13.69,34.61-2.98,13.48-11,20.13-24.36,20.16-1.27,0-3.58-.51-3.67-.24-3.88,12.24-18.98,11.1-24.88,22.12-20.64,38.51-54.13,59.73-96.56,67.7-2.22.42-4.45.81-6.69,1.19-2.22.37-4.45.71-7.76,1.24,5.11,8.95,11.59,15.81,19.3,21.68,11.87,9.04,12.2,12.78,1.33,22.62-12.23,11.06-23.95,22.8-38.08,31.52-5.2,3.21-10.63,6.27-16.32,8.39-11.81,4.39-22.2,1.31-27.55-7.41-4.73-7.7-2.65-19.55,4.88-27.69,4.67-5.04,10.44-8.65,16.13-12.37,3.19-2.09,6.98-3.39,9.41-7.04-7.96-3.42-13.9-9.38-20.4-14.6-9.64-7.75-9.97-7.62-14.23,4.4-4.77,13.48-6.98,27.58-9.71,41.52-1.33,6.82-4.28,8.93-11.12,8.16-19.53-2.2-38.44-6.25-54.5-18.28-7.71-5.78-16.7-12.43-13.51-23.67,2.97-10.47,13.59-12.02,22.78-13.77,8.94-1.71,18.07-1.4,27.07.11,3.45.58,7.22,2.73,7.03-3.59-.14-4.44,4.5-10.01-4.15-12.05-14.18-3.34-27.88-8.34-41.16-14.33-31.13-14.05-56.24-34.28-68.47-67.53-.79-2.13-1.39-4.55-4.05-4.98-8.01-1.29-12.34-6.39-14.86-13.64-.37-1.08-1.37-2.61-2.24-2.73-9.77-1.35-13.08-7.79-16.35-16.48-5.61-14.89-5.8-23.72,7.97-31.28,12.95-7.11,15.69-17.34,18.5-29.92,9.56-42.79,29.73-78.48,70.82-98.88,6-2.98,12.24-5.48,18.37-8.2,10.56,3.15,21.33,5.54,31.94,8.56,17.34,4.94,34.91,8.89,53.42,9.25,37.1.72,73.88-2.35,110.7-5.77ZM80.8,271.81c-8.52,1.88-15.07,6.82-20.4,13.47-1.49,1.86-4.4,4.18-2.04,6.56,2.63,2.65,4.66-.63,6.11-2.36,4.34-5.19,9.92-6.72,16.32-6.41.02,1.45.05,2.9.07,4.34-5.69,3.78-10.76,8.19-14.1,14.25-1.5,2.72-1.92,5.73,1.07,7.78,3.76,2.57,5.06-.74,6.5-3.19,3.2-5.44,6.44-10.73,14.18-8.87.68,7.1-5.91,11.3-7.03,17.76-1.08,6.21.45,11.69,6.28,13.7,6.51,2.24,9.06-3.2,10.54-8.44.96-3.39,1.59-6.93,1.89-10.44.34-4.02.73-8.02,4.71-10,4.64-2.32,6.93,1.85,9.81,4.24,7.61,6.29,13.67,4.76,17.31-4.36,5.03-12.59-.16-20.41-13.52-20.38-10.98.02-11.94-1.32-8.63-11.82,2.71-8.61,6.66-16.86,7.26-26.08.12-1.88.65-3.99,3.02-4.45,2.8-.53,4.06,1.47,5.13,3.53,3.72,7.18,1.01,13.92-1.64,20.55-2.1,5.25-2.89,8.46,4.8,9.79,11.29,1.95,16.81,10.08,16.09,20.77-.86,12.79-9.23,25.11-19.19,24.65-9.87-.46-16.09,2.06-19.83,11.03-.47,1.12-1.63,2.03-2.63,2.83-4.99,3.97-4.67,8.63-2.2,13.85,4.47,9.43,9.94,18.16,17.24,25.67,20.74,21.31,46.78,33.06,74.68,41.51,24.24,7.35,23.9,7.35,20.72,32.46-1.05,8.28-3.95,9.39-11.3,7.04-12.08-3.86-24.52-6.53-36.99-1.35-9.3,3.86-10.23,7.71-3.05,14.83,12.84,12.71,29.5,16.85,46.63,19.39,5.49.81,6.12-3.55,6.46-7.61,1.39-16.64,5.59-32.48,13.53-47.23,5.65-10.49,8.8-11.62,17.82-4.31,11.06,8.96,22.14,17.74,34.13,25.49,8.78,5.67,7.96,9.79-1.5,14.11-7.28,3.32-15.59,4.41-21.42,10.84-5.84,6.44-11.15,13.24-8.04,22.33,1.49,4.34,15.65,3.27,23.48-2.12,13.05-8.98,25.77-18.43,37.05-29.72,3.87-3.88,3.9-6.37.16-10.34-7.31-7.76-14.11-16.02-21.01-24.16-2.45-2.9-6.79-6.04-5.31-9.64,1.41-3.41,6.78-2.7,10.43-3.28,21.32-3.36,41.49-10.01,60.24-20.72,20.85-11.91,37.41-27.89,47.95-51.66-7.9,4.76-14.47,5.88-20.98.73-6.87-5.43-8.79-12.63-7.16-20.84.76-3.82,2.58-6.67-2.91-9.22-11.06-5.14-12.37-14.23-4.1-23.09,5.23-5.6,11.49-9.82,19.39-9.78,6.19.03,6.5-2.28,5.39-7.54-1.59-7.53-3.05-15.24-.7-23.05.91-3,1.75-5.95,5.31-5.83,3.79.12,4.42,3.29,4.35,6.37-.21,9.87,2.03,19.29,5.25,28.49,2.48,7.06-.12,10.36-7.2,10.86-6.44.46-13.06.07-19.11,2.73-4.61,2.03-9.41,5.4-7.17,10.92,2.21,5.46,7.08,1.99,10.85.68.91-.32,1.76-.82,2.67-1.17,2.76-1.06,5.81-2.27,8.14.27,2.49,2.71.61,5.32-1.1,7.82-1.64,2.4-3,4.99-4.44,7.52-2.8,4.94-4.62,10.11-2.09,15.67.88,1.94,2.82,2.49,4.96,1.52,5.98-2.69,8.08-8.07,9.53-13.84.39-1.55.08-3.27.46-4.82.68-2.82,1.43-5.66,2.56-8.32.74-1.74,2.24-3.74,4.29-3.4,2.12.36,2.68,2.67,2.66,4.67-.04,4.53-.19,9.06-.41,13.59-.22,4.48.34,9.52,5.13,10.28,5.05.8,6.23-4.48,7.72-8.42,2.15-5.67.88-11.55,1.33-17.32.28-3.58-1.64-8.85,3.99-9.43,5.65-.58,5.01,4.63,5.61,8.33.41,2.55.92,5.09,1.37,7.64.47,2.65,1.27,5.14,4.16,6.02,3.44,1.04,5.44-1.35,7.41-3.5,9.09-9.93,5.69-27.51-6.58-32.81-6.06-2.62-9.14-6.14-8.67-13.22.79-11.66-.65-23.28-3.28-34.66-10-43.22-39.16-69.41-77.78-87.14-3.22-1.48-6.25-.44-9.45.22-50.67,10.37-101.07,9.27-150.54-5.99-11.36-3.5-20.8-2.57-30.71,1.92-13.07,5.91-24.99,13.66-35.31,23.69-25.47,24.76-35.46,56.48-40.4,90.41-.52,3.61-.67,7.13-4.23,9.23Z"/>
      <path class="cls-8" d="M357.64,118.46c-4.43-4.45-9.94-7.1-15.93-8.92-2.2-.67-5.54-.04-5.79-3.88-.99-14.87-11.01-24.95-20.15-36.37,11.07-.14,20.25-2.47,24.91-12.75,1.49-3.3,4.14-2.33,6.57-2.56,13.17-1.21,19.8-7.84,19.42-19.39-.4-11.72-8.41-19.54-20.68-19.66-3.41-.04-6.18.37-7.57-3.8-2.94-8.81-10.35-11.49-18.5-11.09-8.6.42-14.18,5.74-16.58,14.07-.76,2.59-1.75,4.02-4.79,5.05-14.36,4.88-17.94,17.53-7.62,28.45,5.1,5.39.73,7.44-1.98,9.86-2.61,2.35-6.26.63-9.39.25-34.98-4.29-64.05,10.85-79.91,42.26-2.39,4.72-4.98,6.52-10.27,6.44-7.83-.12-15.41,1.58-21.15,7.72-.67.7-1.34,1.38-2.01,2.08-.49.66-.98,1.32-1.47,1.98-.59.29-.78.75-.55,1.37v10.96c-.26.61-.09,1.06.5,1.35.5.77,1.01,1.55,1.52,2.32-.25.6-.13,1.13.34,1.57,10.57,3.15,21.34,5.54,31.94,8.56,17.35,4.94,34.91,8.89,53.43,9.25,37.1.73,73.88-2.35,110.7-5.77-3.77-1.73-2.86-3.7-.98-6.67,5.41-8.58,2.53-16.1-4.01-22.68ZM339.27,37.07c.5-1.5.62-3.22.48-4.81-.39-4.6-1.59-9.49,5.77-9.29,7.04.18,9.46,4.44,9.85,9.64-.41,6.48-2.85,10.63-8.33,11.58-4.97.86-10.51,1.13-7.77-7.12ZM334.43,32.21c-.49,5.5-4.83,7.92-10.15,8.16-4.23.19-6.87-2.19-6.98-6.21-.17-6.18,4.73-7.54,9.1-8.79,4.63.48,8.44,2.28,8.03,6.84ZM321.56,9.72c3.94-.46,6.07,2.43,5.85,6.04-.29,4.72-4.61,4.59-7.61,5.43-3.28.22-5.7-.66-5.66-3.99.05-4.68,3.34-7,7.42-7.48ZM312.58,53.14c.51-6.82,5.89-5.62,10.26-5.2,3.02.29,7.37-1.57,8.37,3.33-1.98,6.29-6.32,8.55-11.95,8.49-4.1-.05-7-2.39-6.68-6.62ZM310.31,79.39c4.09,6.45,12.58,13.59,9.71,19.88-2.99,6.55-14.09,3.55-21.38,5.35-8.48,1.4-8.99-2.17-5.81-8.56,3.02-6.06,5.57-12.36,8.6-18.42,1.86-3.73,4.43-4.51,7.16-.6.56.79,1.2,1.53,1.72,2.35ZM304.23,27.02c7.42-.4,2.18,5.7,3.61,7.22,1.33,4.98.78,8.27-4.01,8.63-5.03.38-6.68-3.21-6.68-7.34,0-4.52,2.03-8.24,7.08-8.51ZM293.84,61.82c.33-.5.71-1,1.14-1.45.14-.15.29-.3.44-.44.14-.14.29-.27.45-.39.53-.44,1.12-.78,1.74-.96.12-.04.23-.07.35-.09.43-.1.87-.11,1.32-.03.2.03.4.08.61.16.41.15.82.38,1.24.7.05.04.09.07.13.1.04.03.08.07.12.11.14.12.25.24.34.37.04.06.08.11.11.16.05.08.1.16.14.24s.07.16.09.25c.02.05.03.11.04.16.01.06.02.11.02.17.13,1.48-1.6,3-2.29,4.28-3.3,6.09-6.65,12.15-10.01,18.21-3.36,6.05-6.74,12.1-10.11,18.15-.13.24-.27.49-.4.73-.26.49-.52.99-.81,1.46-.14.24-.29.46-.46.67-.08.11-.17.21-.25.31-.07.07-.13.14-.2.21-.08.08-.17.16-.26.23-.1.09-.2.17-.31.24,0,0-.01.02-.02.01-.11.08-.22.15-.34.21-.15.09-.3.16-.46.22-.08.03-.15.05-.23.07-.23.08-.48.14-.75.17-3.3-.6-3.4-2.54-2.18-4.96,6.65-13.24,12.62-26.86,20.8-39.27ZM219.3,90.02c12.24-18.11,30.44-23.96,51.08-24.81.97,0,1.96-.13,2.91.02,2.99.48,7.22-1.65,8.68,1.91,1.13,2.79-2.62,4.77-4.29,7.02-5.63,7.61-10.16,15.82-12.69,24.94-1.29,4.65-3.74,6.07-8.36,5.65-4.48-.41-8.92-1.04-13.33-1.81-1.47-.25-2.94-.51-4.41-.8-1.47-.27-2.94-.56-4.4-.86-2.19-.44-4.39-.9-6.58-1.36-2.19-.46-4.39-.93-6.58-1.38-6.41-1.32-4.4-5-2.03-8.52ZM205.89,115.2c2.1-3.52-.14-12.16,8.66-9.28,11.7,3.82,23.86,5.48,35.82,8.03,18.43,1.04,36.86,1.15,55.3.14,3.45-.72,6.87-1.8,10.35-2.05,3.08-.22,8.02-4.94,8.78,2.38.51,4.93,1.79,10.38-5.68,12.3-36.86,9.48-73.45,8.89-109.97-1.89-6.5-1.92-5.25-6.3-3.26-9.63ZM352.24,133.63c-.14.31-.28.61-.43.9-.07.15-.15.29-.23.43-.08.14-.16.28-.24.42-.16.27-.33.54-.51.8s-.37.51-.56.76c-.18.22-.36.44-.54.66l-.05.05c-.2.23-.41.45-.63.66-.03.04-.06.07-.1.1-.18.18-.37.36-.56.53-.23.2-.46.4-.7.59-.14.12-.29.23-.44.34-.09.07-.18.14-.27.19-.33.24-.67.47-1.02.69-.33.21-.68.42-1.03.61-.03.02-.07.04-.1.05-.26.15-.52.29-.79.42-.15.08-.29.15-.44.22-.31.15-.62.29-.94.43-.3.13-.6.26-.91.38-1.26.51-2.57.95-3.9,1.35-.68.2-1.36.4-2.04.58-.43.13-.86.24-1.29.35-.66.18-1.33.34-2,.51-.89.21-1.78.41-2.68.6-.89.19-1.79.37-2.69.54-1.6.3-3.21.57-4.83.81-.8.12-1.6.23-2.4.33-1.14.15-2.28.28-3.42.4-1.14.12-2.3.23-3.45.33-2.12.18-4.27.33-6.43.44-.84.04-1.67.08-2.52.12-1.07.04-2.14.08-3.22.12-1.11.04-2.22.07-3.34.09-1.28.03-2.56.05-3.86.07-5.17.08-10.45.09-15.88.14-25.51-.61-53.33-1.27-80.24-9.6-1.87-.58-3.7-1.23-5.5-1.96-.89-.36-1.77-.75-2.64-1.16-.88-.41-1.74-.84-2.58-1.3-3.38-1.82-6.56-4.04-9.47-6.76-4.33-4.04-4.22-7.3,1.54-9.08,5.35-1.66,13.81-11.23,13.61,4.77-.04,3.41,4.56,5.17,7.7,6.81,12.91,6.73,27.11,8.85,41.24,9.82,1.6.11,3.2.21,4.81.31l3.72.21c1.1.07,2.19.12,3.28.17,1.3.07,2.59.13,3.88.18,2.45.1,4.9.18,7.35.23,1.39.04,2.78.06,4.17.08,1.44.02,2.87.03,4.31.03.95,0,1.9-.01,2.85-.02.65,0,1.29-.01,1.94-.02.8,0,1.59-.02,2.39-.04.96-.03,1.91-.05,2.87-.08,1.26-.04,2.52-.09,3.79-.15.78-.03,1.56-.07,2.34-.12,1.79-.1,3.58-.22,5.37-.35,1.58-.12,3.17-.26,4.76-.41,2.39-.24,4.78-.51,7.17-.81,1.58-.2,3.17-.43,4.76-.67.36-.06.72-.11,1.08-.17,1.09-.17,2.17-.34,3.24-.52.54-.09,1.08-.18,1.61-.28.53-.1,1.06-.2,1.59-.31.7-.14,1.4-.3,2.09-.47.43-.11.87-.23,1.29-.35.38-.1.74-.21,1.11-.33.47-.15.94-.31,1.41-.48.38-.14.76-.29,1.13-.44.03-.01.06-.03.09-.04.33-.14.65-.29.97-.44.33-.15.65-.31.96-.48.01,0,.02,0,.02,0,.31-.17.61-.34.91-.52.31-.18.61-.37.9-.57.3-.2.59-.41.87-.63.09-.06.18-.13.27-.21.09-.07.18-.15.27-.22.06-.04.12-.09.18-.15.18-.15.35-.3.52-.46.24-.21.47-.44.69-.67.03-.02.06-.05.08-.08.19-.2.38-.41.56-.62.07-.07.14-.15.19-.23.17-.2.33-.4.49-.61.28-.35.54-.73.79-1.12.15-.24.3-.48.45-.74.02-.02.03-.05.05-.08.18-.32.36-.65.53-1,.13-.26.26-.53.37-.8.11-.22.2-.45.3-.69.07-.17.13-.34.2-.51.05-.15.11-.3.16-.46.12-.31.22-.64.32-.97.12-.38.23-.78.33-1.18.12-.48.23-.96.33-1.47.05-.27.11-.51.18-.73.14-.44.32-.8.52-1.09.1-.14.21-.27.32-.38.56-.54,1.27-.68,2.04-.58.19.02.39.06.59.11.24.06.48.14.71.23,1.32.48,2.64,1.33,3.57,1.74,5.31,2.36,9.61,6.31,6.74,12.92Z"/>
      <path class="cls-15" d="M327.41,15.76c-.29,4.72-4.61,4.59-7.61,5.43-3.28.22-5.7-.66-5.66-3.99.05-4.68,3.34-7,7.42-7.48,3.94-.46,6.07,2.43,5.85,6.04Z"/>
      <path class="cls-15" d="M303.83,42.87c-5.03.38-6.68-3.21-6.68-7.34,0-4.52,2.03-8.24,7.08-8.51,7.42-.4,2.18,5.7,3.61,7.22,1.33,4.98.78,8.27-4.01,8.63Z"/>
      <path class="cls-15" d="M331.21,51.27c-1.98,6.29-6.32,8.55-11.95,8.49-4.1-.05-7-2.39-6.68-6.62.51-6.82,5.89-5.62,10.26-5.2,3.02.29,7.37-1.57,8.37,3.33Z"/>
      <path class="cls-15" d="M355.37,32.61c-.41,6.48-2.85,10.63-8.33,11.58-4.97.86-10.51,1.13-7.77-7.12.5-1.5.62-3.22.48-4.81-.39-4.6-1.59-9.49,5.77-9.29,7.04.18,9.46,4.44,9.85,9.64Z"/>
      <path class="cls-14" d="M164.2,119.57c0,3.65,0,7.31,0,10.96-2.42-3.65-2.56-7.31,0-10.96Z"/>
      <path class="cls-14" d="M168.23,114.14c-.67.7-1.35,1.39-2.02,2.09.67-.7,1.35-1.39,2.02-2.09Z"/>
      <path class="cls-14" d="M166.27,116.14c-.51.69-1.02,1.37-1.52,2.06.51-.69,1.02-1.37,1.52-2.06Z"/>
      <path class="cls-14" d="M164.7,131.88c.51.77,1.01,1.55,1.52,2.32-.51-.77-1.01-1.55-1.52-2.32Z"/>
      <path class="cls-10" d="M80.85,287.41c-.02-1.45-.05-2.9-.07-4.34-6.1-1.98-10.6-4.22-1.61-8.96.74-.39,1.09-1.52,1.62-2.3,3.56-2.1,3.71-5.62,4.24-9.23,4.94-33.93,14.93-65.65,40.4-90.41,10.32-10.03,22.24-17.78,35.31-23.69,9.91-4.49,19.36-5.42,30.71-1.92,49.47,15.26,99.88,16.37,150.54,5.99,3.2-.65,6.23-1.7,9.45-.22,38.61,17.73,67.78,43.92,77.78,87.14,2.63,11.38,4.07,23,3.28,34.66-.48,7.08,2.61,10.6,8.67,13.22,12.27,5.3,15.67,22.88,6.58,32.81-1.96,2.15-3.97,4.54-7.41,3.5-2.89-.88-3.69-3.37-4.16-6.02-.45-2.55-.96-5.08-1.37-7.64-.59-3.7.05-8.91-5.61-8.33-5.63.58-3.71,5.84-3.99,9.43-.45,5.77.82,11.65-1.33,17.32-1.5,3.94-2.67,9.22-7.72,8.42-4.79-.76-5.34-5.8-5.13-10.28.22-4.53.37-9.06.41-13.59.02-2-.54-4.32-2.66-4.67-2.05-.35-3.55,1.66-4.29,3.4-1.13,2.66-1.87,5.5-2.56,8.32-.38,1.55-.07,3.27-.46,4.82-1.45,5.77-3.55,11.15-9.53,13.84-2.14.97-4.08.42-4.96-1.52-2.52-5.57-.71-10.73,2.09-15.67,1.44-2.53,2.8-5.12,4.44-7.52,1.71-2.51,3.58-5.12,1.1-7.82-2.33-2.54-5.38-1.33-8.14-.27-.91.35-1.75.85-2.67,1.17-3.78,1.31-8.64,4.78-10.85-.68-2.24-5.52,2.56-8.89,7.17-10.92,6.05-2.66,12.67-2.27,19.11-2.73,7.08-.51,9.69-3.8,7.2-10.86-3.23-9.2-5.47-18.62-5.25-28.49.07-3.08-.56-6.25-4.35-6.37-3.56-.12-4.4,2.83-5.31,5.83-2.36,7.81-.9,15.51.7,23.05,1.11,5.27.8,7.58-5.39,7.54-7.9-.04-14.16,4.18-19.39,9.78-8.27,8.86-6.96,17.95,4.1,23.09,5.49,2.55,3.67,5.4,2.91,9.22-1.63,8.2.29,15.4,7.16,20.84,6.51,5.15,13.09,4.03,20.98-.73-10.54,23.77-27.1,39.75-47.95,51.66-18.74,10.71-38.92,17.35-60.24,20.72-3.65.58-9.02-.14-10.43,3.28-1.49,3.6,2.86,6.74,5.31,9.64,6.9,8.15,13.69,16.4,21.01,24.16,3.75,3.98,3.72,6.46-.16,10.34-11.27,11.29-23.99,20.74-37.05,29.72-7.83,5.39-21.99,6.46-23.48,2.12-3.12-9.09,2.2-15.89,8.04-22.33,5.83-6.43,14.14-7.51,21.42-10.84,9.45-4.31,10.28-8.44,1.5-14.11-12-7.75-23.07-16.53-34.13-25.49-9.02-7.31-12.17-6.18-17.82,4.31-7.94,14.75-12.15,30.59-13.53,47.23-.34,4.06-.97,8.43-6.46,7.61-17.14-2.54-33.8-6.68-46.63-19.39-7.19-7.12-6.25-10.97,3.05-14.83,12.47-5.17,24.91-2.51,36.99,1.35,7.35,2.35,10.25,1.24,11.3-7.04,3.18-25.11,3.52-25.12-20.72-32.46-27.9-8.45-53.94-20.2-74.68-41.51-7.3-7.5-12.77-16.24-17.24-25.67-2.47-5.22-2.8-9.88,2.2-13.85,1-.8,2.17-1.71,2.63-2.83,3.74-8.98,9.96-11.49,19.83-11.03,9.96.46,18.33-11.85,19.19-24.65.72-10.69-4.79-18.82-16.09-20.77-7.68-1.33-6.9-4.54-4.8-9.79,2.65-6.63,5.36-13.38,1.64-20.55-1.07-2.06-2.33-4.06-5.13-3.53-2.37.45-2.9,2.57-3.02,4.45-.6,9.22-4.55,17.47-7.26,26.08-3.31,10.51-2.35,11.85,8.63,11.82,13.36-.03,18.55,7.79,13.52,20.38-3.64,9.11-9.7,10.65-17.31,4.36-2.88-2.38-5.17-6.55-9.81-4.24-3.97,1.98-4.37,5.98-4.71,10-.29,3.51-.93,7.05-1.89,10.44-1.48,5.24-4.03,10.68-10.54,8.44-5.83-2.01-7.36-7.49-6.28-13.7,1.12-6.46,7.71-10.66,7.03-17.76-1.89-3.83-9.03-3.62-7.66-9.96ZM314.04,303.85c.04-14.62-4.35-25.29-14.22-35.92-20.75-22.34-46.98-26.99-74.76-20.13-40.84,10.08-57.21,54.96-33.52,88.12,17.7,24.78,54.34,35.32,82.52,23.74,24.06-9.88,39.92-32.02,39.98-55.81ZM294.67,191.95c.06-13.46-3.57-19.14-11.03-19.56-8.21-.46-14.88,6.15-16.01,16.08-.29,2.54-.33,5.17-.05,7.72.75,6.75,1.09,14.26,9.95,15.37,8.98,1.13,13.48-4.84,16.08-12.34,1.03-2.96.94-6.32,1.06-7.27ZM242.33,185.99c.81-8.56-1-16.04-10.25-18.34-6.92-1.72-14.85,6.23-16.43,15.87-1.28,7.83-.8,15.7,4.96,21.79,3.1,3.27,7.73,3.41,11.69,1.05,7.7-4.58,10.79-11.65,10.02-20.37ZM187.2,229.41c-.21-2.05-1.25-3.5-3.43-3.61-1.78-.09-2.97,1.19-3.14,2.79-.22,2.15,1.13,3.5,3.28,3.59,1.73.07,2.75-1.11,3.28-2.77ZM198.9,233.03c-.19-2.1-1.38-3.37-3.5-3.56-1.85-.16-2.98,1.16-3.25,2.7-.36,2.1.94,3.67,2.95,4.03,2.17.38,3.44-.94,3.8-3.17ZM310.49,236.36c2.2.21,3.29-.93,3.6-2.6.37-1.98.04-3.95-2.41-4.34-1.85-.3-3.02.96-3.37,2.61-.42,2.02.07,3.79,2.19,4.33ZM331.66,221.05c.99-.53,2.86-1.17,2.73-3.49-.12-2.05-1.81-2.3-3.43-2.17-1.73.15-3.03,1.23-3.11,2.92-.09,1.77,1.12,2.78,3.81,2.74ZM179.56,218.64c-.73-.77-1.56-2.14-2.77-2.83-1.45-.82-3.28-.63-3.88,1.28-.57,1.83.73,3.03,2.29,3.65,1.59.63,3.12.47,4.36-2.1ZM167.56,223.23c-.12-1.9-1.18-3.02-2.79-3.29-1.72-.3-3.08.67-3.44,2.37-.41,1.99,1.05,2.77,2.69,2.9,1.55.12,3.13-.09,3.54-1.97ZM323.34,225.9c-2.1.46-3.45,1.69-3.34,3.89.07,1.3.93,2.52,2.43,2.33,2.14-.26,3.4-1.72,3.32-3.87-.04-1.28-.82-2.37-2.41-2.36ZM192.53,213.64c-1.29.23-2.56.52-2.66,2.17-.12,1.95,1.02,3.06,2.76,3.24,1.29.13,2.52-.5,2.64-2.13.14-1.96-.99-2.88-2.74-3.29ZM317.35,215.65c-.12-1.73-1.41-1.95-2.7-1.97-1.81-.03-3.38,1.02-3.48,2.64-.1,1.66,1.28,2.94,3.23,2.57,1.7-.32,2.77-1.42,2.95-3.24ZM345.19,222.47c-.4-.96-.47-2.39-2.15-2.4-1.79-.01-3.01,1.03-3.27,2.65-.22,1.31.69,2.28,2.18,2.4,1.84.16,2.91-.67,3.25-2.66Z"/>
      <path class="cls-7" d="M80.85,287.41c-1.37,6.33,5.77,6.13,7.65,9.96-7.74-1.85-10.98,3.44-14.18,8.87-1.44,2.45-2.74,5.77-6.5,3.19-2.99-2.05-2.57-5.06-1.07-7.78,3.33-6.06,8.41-10.47,14.1-14.25Z"/>
      <path class="cls-23" d="M80.8,271.81c-.53.78-.88,1.91-1.62,2.3-8.99,4.75-4.5,6.98,1.61,8.96-6.4-.31-11.98,1.22-16.32,6.41-1.45,1.73-3.48,5.01-6.11,2.36-2.36-2.38.54-4.7,2.04-6.56,5.34-6.65,11.88-11.59,20.4-13.47Z"/>
      <path class="cls-19" d="M305.66,114.09c3.45-.72,6.87-1.8,10.36-2.05,3.07-.22,8.02-4.94,8.78,2.39.51,4.92,1.79,10.38-5.68,12.3-36.86,9.48-73.45,8.89-109.97-1.89-6.5-1.92-5.25-6.31-3.25-9.64,2.1-3.51-.14-12.15,8.66-9.28,11.7,3.82,23.85,5.48,35.81,8.03.7,1.73,2.17,2.28,3.85,2.28,16.75.03,33.5.05,50.26.03,1.38,0,2.59-.46,1.19-2.16Z"/>
      <path class="cls-16" d="M277.8,149.64c-25.51-.61-53.33-1.27-80.24-9.6-7.48-2.32-14.36-5.74-20.19-11.18-4.32-4.04-4.21-7.3,1.55-9.08,5.34-1.65,13.81-11.22,13.61,4.77-.04,3.41,4.56,5.17,7.7,6.81,12.91,6.73,27.11,8.85,41.24,9.82,23.24,1.58,46.6,2.08,69.76-1.46,11.54-1.77,23.38-3.35,26.35-18.3,1.05-5.26,5.67-1.71,7.93-.7,5.32,2.36,9.61,6.31,6.74,12.93-2.64,6.08-8.32,8.76-14.38,10.57-18.89,5.65-38.34,5.23-60.05,5.43Z"/>
      <path class="cls-22" d="M270.38,65.21c.97,0,1.96-.13,2.91.02,3,.48,7.23-1.65,8.68,1.91,1.14,2.79-2.62,4.77-4.28,7.02-5.64,7.61-10.16,15.82-12.69,24.94-1.29,4.65-3.74,6.07-8.36,5.65-11.95-1.09-23.6-3.79-35.3-6.21-6.41-1.33-4.4-5.01-2.03-8.52,12.24-18.11,30.44-23.96,51.08-24.81Z"/>
      <path class="cls-13" d="M298.64,104.62c-8.48,1.4-9-2.16-5.81-8.56,3.02-6.06,5.57-12.36,8.59-18.42,1.86-3.73,4.43-4.5,7.17-.6.56.79,1.19,1.53,1.71,2.35,4.09,6.46,12.59,13.6,9.71,19.88-2.99,6.55-14.09,3.55-21.38,5.35Z"/>
      <path class="cls-17" d="M275.22,106.05c-3.31-.6-3.41-2.53-2.19-4.96,6.65-13.24,12.62-26.85,20.81-39.27,1.57-2.38,4.34-4.76,7.29-2.51,2.5,1.91-.36,4.11-1.3,5.84-6.6,12.18-13.38,24.26-20.12,36.36-1.07,1.93-1.86,4.21-4.48,4.53Z"/>
      <path class="cls-5" d="M326.39,25.37c4.63.48,8.44,2.28,8.04,6.84-.49,5.5-4.83,7.92-10.15,8.16-4.23.19-6.86-2.19-6.98-6.21-.17-6.18,4.73-7.54,9.1-8.8ZM325.08,38.16c3.21-.78,5.87-2.51,6.09-6.17.19-3.2-2.53-3.13-4.76-3.16-3.17-.05-5.85,1.02-6.2,4.54-.3,3.1,1.77,4.52,4.86,4.79Z"/>
      <path class="cls-21" d="M305.66,114.09c1.4,1.71.19,2.16-1.19,2.16-16.75.03-33.5,0-50.26-.03-1.69,0-3.15-.55-3.85-2.28,18.43,1.04,36.86,1.15,55.3.15Z"/>
      <path class="cls-8" d="M314.04,303.85c-.07,23.79-15.93,45.92-39.98,55.81-28.18,11.58-64.82,1.03-82.52-23.74-23.69-33.16-7.32-78.04,33.52-88.12,27.78-6.86,54.01-2.2,74.76,20.13,9.87,10.63,14.26,21.31,14.22,35.92Z"/>
      <path class="cls-8" d="M294.67,191.95c-.13.95-.04,4.3-1.06,7.27-2.6,7.5-7.1,13.47-16.08,12.34-8.86-1.12-9.2-8.63-9.95-15.37-.28-2.54-.24-5.17.05-7.72,1.13-9.93,7.8-16.54,16.01-16.08,7.46.42,11.09,6.1,11.03,19.56Z"/>
      <path class="cls-8" d="M242.33,185.99c.76,8.72-2.33,15.79-10.03,20.37-3.95,2.35-8.59,2.22-11.69-1.05-5.76-6.09-6.24-13.96-4.96-21.79,1.58-9.63,9.52-17.59,16.43-15.87,9.24,2.3,11.05,9.78,10.25,18.34Z"/>
      <path class="cls-6" d="M187.2,229.41c-.53,1.66-1.55,2.84-3.28,2.77-2.15-.09-3.5-1.44-3.28-3.59.17-1.6,1.36-2.88,3.14-2.79,2.17.11,3.21,1.56,3.43,3.61Z"/>
      <path class="cls-3" d="M198.9,233.03c-.36,2.24-1.64,3.56-3.8,3.17-2.01-.36-3.31-1.93-2.95-4.03.27-1.54,1.4-2.86,3.25-2.7,2.13.18,3.31,1.46,3.5,3.56Z"/>
      <path class="cls-4" d="M310.49,236.36c-2.12-.54-2.61-2.31-2.19-4.33.35-1.66,1.52-2.91,3.37-2.61,2.45.4,2.78,2.37,2.41,4.34-.31,1.67-1.39,2.81-3.6,2.6Z"/>
      <path class="cls-20" d="M331.66,221.05c-2.68.03-3.9-.97-3.81-2.75.08-1.69,1.38-2.77,3.11-2.92,1.61-.14,3.31.12,3.43,2.17.13,2.32-1.74,2.96-2.73,3.49Z"/>
      <path class="cls-12" d="M179.56,218.64c-1.24,2.56-2.76,2.73-4.36,2.1-1.57-.62-2.86-1.82-2.29-3.65.6-1.91,2.42-2.1,3.88-1.28,1.22.69,2.05,2.06,2.77,2.83Z"/>
      <path class="cls-1" d="M167.56,223.23c-.41,1.88-1.99,2.09-3.54,1.97-1.64-.13-3.1-.91-2.69-2.9.35-1.7,1.72-2.66,3.44-2.37,1.61.28,2.67,1.4,2.79,3.29Z"/>
      <path class="cls-2" d="M323.34,225.9c1.58,0,2.36,1.08,2.41,2.36.07,2.15-1.18,3.61-3.32,3.87-1.5.18-2.36-1.03-2.43-2.33-.11-2.21,1.24-3.44,3.34-3.89Z"/>
      <path class="cls-18" d="M192.53,213.65c1.75.4,2.89,1.32,2.74,3.28-.12,1.63-1.35,2.26-2.64,2.13-1.74-.18-2.88-1.29-2.76-3.24.1-1.66,1.37-1.94,2.66-2.17Z"/>
      <path class="cls-9" d="M317.35,215.65c-.18,1.81-1.25,2.91-2.95,3.24-1.95.37-3.33-.9-3.23-2.57.1-1.62,1.67-2.67,3.48-2.64,1.3.02,2.59.24,2.7,1.97Z"/>
      <path class="cls-12" d="M345.19,222.47c-.33,1.99-1.41,2.81-3.24,2.66-1.49-.12-2.39-1.09-2.18-2.4.27-1.62,1.49-2.67,3.27-2.65,1.68.01,1.74,1.43,2.15,2.4Z"/>
      <path class="cls-11" d="M325.08,38.16c-3.1-.28-5.17-1.69-4.86-4.79.34-3.52,3.02-4.59,6.2-4.54,2.23.03,4.95-.04,4.76,3.16-.22,3.66-2.88,5.39-6.09,6.17Z"/>
    </g>
  </g>
</svg>