<?xml version="1.0" encoding="UTF-8"?>
<svg id="Layer_1" data-name="Layer 1" xmlns="http://www.w3.org/2000/svg" viewBox="0 0 512 512">
  <defs>
    <style>
      .cls-1 {
        fill: #b56c1b;
      }

      .cls-2 {
        fill: #00aeec;
      }

      .cls-3 {
        fill: #fff;
      }
    </style>
  </defs>
  <g id="aBIUow">
    <g>
      <path d="M393.86,204.51c-4.3-1.94-4.47-3.99-3.42-8.41,3.2-13.49-6.49-24.27-19.27-21.52-7.95,1.7-13.43,7.28-15.67,15.16-1.23,4.32-2.48,4.88-6.79,3.3-14.89-5.45-28.58-2.46-41.43,6.68-8.98,6.39-15.87,14.9-24.38,22.65-4.4-8.34-4.18-16.56-2.68-25.12,1.96-11.1,9.5-19.04,15.57-27.64,10.33-14.65,11.05-38.39-1.22-52.78-6.23-7.3-13.61-12.72-21.46-18.41,8.02-6.33,15.35-12.25,22.84-17.96,3.1-2.37,6.35-4.68,2.95-8.75-2.92-3.49-6.49-2.54-9.73.04-5.25,4.18-10.47,8.41-15.77,12.53-7.99,6.21-8.04,6.18-10.41-3.25-6.25-24.84-12.6-49.66-18.63-74.55-1.32-5.45-4.64-7.44-9.27-6.05-21.6,6.45-44.01,9.88-65.27,17.61-5.19,1.88-6.59,3.63-3.96,9.18,12.44,26.19,20.68,54.03,31.17,81,1.89,4.87.62,6.73-4.41,6.79-7.63.08-15.26.47-22.88.4-3.65-.04-8.55-1.39-8.94,3.42-.42,5.09,4.87,5.5,8.73,5.67,6.71.3,13.44.08,22.25.08-11.94,13.45-19.67,27.34-25.92,42.25-8.58,20.46-13.19,41.82-16.22,63.65-.29,2.13.63,4.64-2.84,5.87-13.3,4.71-25.31-1.67-28.03-15.19-1.22-6.07-.9-10.09,7.27-8.15,3.09.74,6.96.27,9.91-.98,6.72-2.85,12.15-7.34,11.73-15.66-.31-6.23-3.83-11.35-9.88-11.14-8.13.28-9.52-3.77-9.99-10.12-.18-2.38-.91-4.87-1.98-7-5.72-11.33-16.23-20.43-27.19-3.8-2.52,3.82-5.24,1.98-7.92,2.11-8.74.43-16.82,6.73-14.85,13.73,1.94,6.89-1.56,9.38-5.06,13.42-4.29,4.96-9.51,10.4-6.58,17.86,2.79,7.11,9.36,9.66,16.38,9.47,5.82-.15,5.87,2.96,6.55,7.17,4.57,28.54,28.17,49.18,53.29,45.96,6.87-.88,7.76,1.08,8.55,7.07,3.81,28.98,15.02,54.56,36.7,74.83,7.28,6.81,14.91,13.24,22.64,20.06-19,10.97-35.42,23.74-46.97,42.28-3.22-6.93-6.01-13.33-9.14-19.57-3.8-7.59-10.17-10.24-18.27-8.27-8.48,2.06-13.33,8.71-13.11,17.5.69,27.77,11.24,52.2,26.11,74.96,5.67,8.68,13.28,8.05,16.94-1.67,6.79-18.08,18.82-32.7,29.97-47.87,9.73-13.24,19.5-26.6,32.94-36.64,4.13-3.1,5.86-2.98,7.26,2.39,1.6,6.16,4.12,12.08,6.39,18.05,4.74,12.42,10.87,24.59,21.3,32.59,15.87,12.18,33.74,14.25,51.53,3.24,4.73,18.51,8.89,36.69,20.9,51.71,7.64,9.55,15.53,9.73,23.59.63,7.99-9.03,5.43-19.55,3.85-29.69-2.64-16.94-8.38-33.04-14.34-49.04-5.5-14.74-10.27-16.44-24.3-8.58-1.34.75-2.57,1.68-3.93,2.37-23.22,11.84-38.68.9-44.88-21.36-1.4-5.04.71-6.32,5.55-6.17,5.78.18,11.6-.33,17.37-.83,21.18-1.83,38.9-9.89,50.22-28.83,8.47-14.17,7.62-30.07,6.88-45.53-1.15-23.95-8.47-45.53-28.53-60.86-5.31-4.07-10.64-8.1-15.96-12.16-1.4-1.07-3.41-1.8-2.7-4.19,3.55-11.88,19.76-28.59,32.82-19.86-3.31,4.35-7.06,8.53-8.25,14.04-1.31,6.04-2.35,12.31,2.93,17.12,4.83,4.4,10.62,4.46,16.21,1.72,2.71-1.32,4.27-.94,6.34,1,5.56,5.22,11.99,7.52,19.2,3.62,6.63-3.6,7.3-10.47,6.98-16.77-.25-4.94,1.31-5.94,5.64-6.93,6.82-1.56,10.86-6.51,11.83-13.54.93-6.73.22-13.16-6.85-16.34ZM148.8,251.68c-.1,1.3-.19,2.54-.34,3.71-.05.39-.11.77-.18,1.14-.13.74-.29,1.44-.51,2.1-.27.83-.62,1.58-1.09,2.25-.19.27-.39.52-.62.76-1.47,1.57-3.81,2.51-7.6,2.6-24.62.56-45.47-23.84-40.07-47.92.76-3.4,2.55-6.56-1.39-8.79-3.38-1.91-6.34-.62-9.13,1.82-3.79,3.3-8.89,5.07-12.02.63-2.63-3.73.83-7.93,3.86-11.12,4.2-4.44,9.5-4.92,15.19-4.7.68.02,1.41.08,2.16.11,2.75.1,5.61-.21,5.89-3.85.14-1.75-.31-2.88-1.11-3.63-1.52-1.46-4.36-1.46-6.76-1.7-1.61-.16-3.41.07-5.01-.15-.46-.06-.89-.16-1.3-.32-.28-.11-.54-.24-.79-.4-.86-.56-1.54-1.5-1.92-3.06-.44-1.8.62-3.91,2.31-4.63,4.14-1.75,8.33-1.74,11.92,1.49,1.57,1.42,2.77,3.3,4.46,4.52,1.8,1.3,4.12,1.56,6.02.13.12-.09.24-.18.34-.28,1.54-1.41,1.02-3.03.2-4.59-.15-.28-.31-.55-.46-.82-.76-1.32-1.71-2.53-2.45-3.86-.99-1.74-1.27-3.46-.66-4.94.07-.18.15-.35.25-.51.1-.17.2-.33.33-.49.06-.08.13-.16.19-.24.07-.08.15-.16.22-.22.29-.31.64-.59,1.05-.85,3.64-2.34,4.87,1.12,6.1,3.3,2.6,4.6,3.9,9.65,3.51,14.97-.24,3.27.2,5.74,1.74,7.19.15.14.3.26.46.38,1.32.94,3.28,1.28,6.07.91.56-.07,1.14-.16,1.73-.23.82-.09,1.65-.15,2.45-.09.35.02.69.07,1.02.15.22.05.43.11.65.19.31.11.62.26.92.45.2.12.39.26.57.42.1.08.19.17.27.26.27.26.52.58.75.94,1.29,2.07.23,4.17-1.13,5.9-2.47,3.15-5.64,4.58-9.68,3.47-.59-.16-1.2-.29-1.77-.49-5.73-2.05-9.29-3.25-11.49-2.96-.2.03-.38.07-.56.11-.7.2-1.24.59-1.65,1.22-.06.08-.11.18-.17.27-.06.09-.11.19-.15.3-.05.1-.09.21-.14.32-.27.68-.45,1.52-.58,2.54-.08.61-.14,1.29-.18,2.03-.02.14-.02.28-.03.42,0,.16-.01.33-.02.5-.08,1.91-.09,4.23-.08,6.99.04,20.49,9.74,29.88,30.78,29.87,4.61,0,10.27-1.97,9.63,6.48ZM250.3,76.91c4.62,23.68,8.57,18.02-14.28,27.49-7,2.91-14.44,4.79-19.2,6.34-8.22,1.37-7.84-3.58-9.21-6.55-6.69-14.53-6.6-14.47,8.5-19.35,8.98-2.9,17.85-6.12,25.97-11.09,3.99-2.44,6.99-3.14,8.22,3.16ZM194.55,71.37c-.46-1.66-.96-3.31-1.49-4.94-.79-2.46-1.64-4.88-2.54-7.29-3.29-8.84-7.2-17.43-10.87-26.11-1.84-4.35-.9-6.52,3.58-8.31,14.54-5.84,30.05-7.8,45.04-11.77,3.21-.85,5.49.43,6.34,3.57,3.51,12.95,6.91,25.92,10.34,38.89.3,3.25-1.27,5.1-3.88,6.73-11.5,7.18-23.85,11.95-37.13,14.87-5.88,1.3-8.14-1.18-9.39-5.64ZM389.67,221.83c-2.4,5.11-6.84,5.64-11.54,5.12-3.54-.39-6.86-2.37-10.61-1.51h0v.76c0,.99-.03,1.95.17,2.89.04.15.08.31.13.46.2.65.53,1.29,1.06,1.91,1.36,1.58,2.6,3.45,3.27,5.41,1.43,4.15,1.49,8.39-1.02,12.27-.16.25-.34.46-.51.64-.88.89-1.92.89-2.98.5-.22-.07-.43-.17-.64-.27-.21-.1-.42-.21-.63-.34-1.77-1.01-3.13-2.24-4.11-3.67-.28-.41-.53-.84-.74-1.28-.92-1.87-1.27-4.03-1.08-6.47.02-.3.09-.6.18-.89.54-1.64.81-3.23.53-4.56-.08-.36-.2-.7-.37-1.02-.44-.85-1.22-1.53-2.48-1.97-.31-.1-.65-.19-1.02-.27-4.36-.88-5.5,2.19-6.47,5.81-1.06,3.93-1.45,8.65-6.46,10.11-.24.07-.6.02-.97-.11-.1-.03-.2-.07-.3-.12-.05-.02-.1-.05-.14-.07-.15-.07-.28-.15-.4-.24-.19-.15-.34-.31-.4-.46-1.79-4.59-.75-8.97,1.62-13.05,1.84-3.17,3.98-6.27,7.59-7.61,5.77-2.14,5.64-4.47,3.47-6.71-.11-.11-.22-.22-.33-.33-.12-.11-.24-.22-.36-.32-.37-.32-.77-.64-1.2-.96s-.88-.63-1.35-.94c-.34-.22-.68-.44-1.02-.65-.69-.42-1.39-.81-2.11-1.17-.71-.36-1.44-.69-2.18-.99-1.48-.61-3.01-1.1-4.56-1.48-.78-.19-1.56-.35-2.35-.49-4.59-.78-9.36-.64-13.94.36-.74.17-1.48.35-2.21.56-.37.1-.73.21-1.09.33-1.45.47-2.87,1.02-4.25,1.66-1.03.48-2.04,1.01-3.01,1.59-.66.39-1.29.79-1.92,1.22-.62.43-1.23.88-1.82,1.35-.59.47-1.17.97-1.72,1.48-2.51,2.31-4.64,5.04-6.26,8.16-11.92,23.01-14.06,15.64,7.14,32.23,2.14,1.67,4.35,3.24,6.52,4.85,2.95,2.28,5.64,4.69,8.08,7.23,7.32,7.63,12.34,16.46,14.94,26.55.29,1.12.55,2.26.78,3.41.69,3.45,1.11,7.05,1.26,10.79,2.48,10.42,2.37,20.85.05,31.27h0c-.61,5.97-1.45,11.85-5.39,16.74-7.3,13.68-19.79,19.39-34.23,21.09-3.26.39-6.53.78-9.81,1.08-3,.27-6.01.47-9.03.5-3.02.03-6.06-.1-9.13-.48-.39-.05-.79-.1-1.19-.16-10.9-1.58-12.86,1.62-10.92,12.47,1.42,7.87,2.94,15.44,7.01,22.5,11.81,20.47,28.57,23.02,47.51,14.89.88-.38,1.71-.74,2.51-1.08,1.18-.51,2.28-.98,3.28-1.39,1.68-.7,3.13-1.26,4.39-1.66,2.26-.73,3.93-.95,5.31-.55.11.03.22.07.33.11.22.08.43.18.63.29,0,0,0,.01,0,.01.16.09.32.19.47.31.14.1.28.21.42.34.1.08.19.17.28.27.04.04.09.09.13.14.1.1.2.21.29.33.63.74,1.22,1.7,1.83,2.91.16.29.31.6.46.92,1.02,2.14,2.14,4.92,3.57,8.44,5.55,13.65,9.68,27.63,11.7,42.17.84,6.09,3.48,14.83-3.49,17.25-5.64,1.95-8.84-6.3-11.37-11.21-6.14-11.94-11.19-24.34-12.51-37.96-1.4-14.38-4.23-15.65-15.83-7.44-13.19,9.34-33.05,6.18-43.51-6.36-10.65-12.76-16.04-27.96-21.03-43.34-5.19-15.99-8.17-17.12-21.06-6.93-27.85,22-46.21,51.6-64.79,81.03-.28.43-.54.88-.8,1.36-.26.47-.52.97-.8,1.51-.56,1.08-1.18,2.32-2,3.86-13.13-20.66-21.9-41.68-24.02-65.21-.28-3.05.11-6.17,2.15-8.05.15-.14.31-.28.48-.4.68-.5,1.51-.88,2.52-1.1,4.57-1.01,6.02,3.39,7.61,6.57,4.78,9.56,9.46,19.22,10.67,30.01.08.67.18,1.3.33,1.88.09.38.21.75.34,1.09.26.69.61,1.28,1.07,1.76.81.85,1.94,1.36,3.54,1.44,3.98.22,4.88-2.98,5.66-6,7.17-27.62,26.81-43.38,51.59-54.23,2.71-1.18,6.26-1.21,6.94-5.04.78-4.39-2.98-5.62-5.59-7.45-26.99-18.87-48.33-42.01-56.71-74.91-3.79-14.89-5.04-29.97-3.68-45.35,2.63-29.91,6.46-59.48,20.46-86.67,1.66-3.21,3.67-6.24,5.52-9.36,1.09-4.6,3.78-8.21,7.13-11.4.73-1.01,1.45-2.02,2.18-3.02,1.42-2.19,2.9-4.25,4.48-6.15.91-1.09,1.84-2.13,2.82-3.11,5.13-5.17,11.36-8.82,19.73-10.3,10.68-1.89,20.86-6.7,31.21-10.37,9.76-3.46,19.28-1.61,26.4,5.17.34.31.68.65,1.01,1.01.33.34.66.7.98,1.07,2.12,2.46,3.97,4.84,5.56,7.16,1,1.45,1.89,2.88,2.67,4.29.15.28.31.57.46.85.45.84.86,1.68,1.23,2.51.61,1.39,1.13,2.78,1.55,4.16.17.55.32,1.1.45,1.64,2.39,9.97-.64,19.84-9.1,32.03-2.62,3.79-5.19,7.56-7.46,11.46-3.02,5.21-5.49,10.66-6.84,16.7-.17.76-.32,1.52-.45,2.3-.13.77-.25,1.56-.34,2.35-.96,8.19-.08,15.81,3.27,23.2,6.08,13.38,11.23,14.23,20.87,3.54,8.88-14.53,21.13-25.04,37.53-29.97,7.13-2.15,13.81,1.36,20.16,4.29,4.62,2.13,9.06,3.44,13.97,1.36.49-6.4,1.07-12.81,5.77-17.8,2.12-2.24,4.68-4.31,8.02-3,3.57,1.4,3.03,4.83,3.1,7.84.12,5.06-2.5,8.56-6.38,11.41-2.07,1.52-5.51,2.59-3.53,6.15,1.67,3.01,4.56,3.93,7.83,2.44,3.54-1.62,6.95-4.37,10.48.09,2.59,3.27,2.6,6.55.89,10.19Z"/>
      <path class="cls-3" d="M236.02,104.4c-7,2.91-14.44,4.79-19.2,6.34-8.22,1.37-7.84-3.58-9.21-6.55-6.69-14.53-6.6-14.47,8.5-19.35,8.98-2.9,17.85-6.12,25.97-11.09,3.99-2.44,6.99-3.14,8.22,3.16,4.62,23.68,8.57,18.02-14.28,27.49Z"/>
      <path d="M370.78,410.58c15.29,7.66,21.22,29.82,11.09,45.7-.49-9.81,2.99-17.54.44-25.34-2.48-7.61-7.3-13.79-11.54-20.36Z"/>
      <path d="M403.73,413.42c11.79,5.66,17.64,20.82,13.19,31.37-.6,1.41-1.11,3.01-2.78,3.13-1.37.1-2.51-1.45-2.05-2.44,5.87-12.87-.32-22.56-8.36-32.05Z"/>
      <path d="M446.53,422.8c3,6.16,2.79,12.21-.79,19.06-3.86-5.29.25-10.33-.97-14.94.59-1.37,1.17-2.74,1.76-4.12Z"/>
      <path d="M446.53,422.8c-.59,1.37-1.17,2.74-1.76,4.12-.81-2.26-1.56-4.56-2.47-6.78-.74-1.83-2.66-3.36-1.15-6.09,3.72,1.94,4.65,5.29,5.37,8.76Z"/>
      <path class="cls-2" d="M336.52,359.54c-7.31,13.68-19.79,19.39-34.23,21.09-9.62,1.13-19.29,2.37-29.17.94-10.9-1.58-12.86,1.62-10.91,12.46,1.41,7.87,2.93,15.44,7.01,22.5,11.81,20.47,28.57,23.02,47.51,14.89,17.42-7.48,16.93-7.78,23.91,9.39,5.55,13.65,9.68,27.64,11.69,42.17.84,6.09,3.48,14.83-3.49,17.25-5.64,1.95-8.84-6.3-11.37-11.21-6.14-11.94-11.19-24.34-12.52-37.96-1.4-14.38-4.23-15.65-15.83-7.44-13.19,9.34-33.05,6.18-43.51-6.36-10.65-12.77-16.04-27.96-21.03-43.34-5.19-15.98-8.17-17.12-21.06-6.93-27.85,22-46.21,51.6-64.79,81.03-1.1,1.75-1.96,3.66-3.6,6.73-13.13-20.66-21.9-41.68-24.02-65.21-.38-4.19.51-8.52,5.15-9.54,4.57-1.01,6.02,3.39,7.61,6.56,4.78,9.56,9.45,19.22,10.67,30.02.4,3.56,1.6,5.97,5.27,6.17,3.98.21,4.88-2.98,5.66-6,7.17-27.62,26.81-43.38,51.59-54.23,2.71-1.19,6.26-1.21,6.94-5.04.78-4.39-2.98-5.62-5.59-7.45-26.99-18.87-48.33-42.01-56.71-74.91-3.79-14.89-5.04-29.97-3.69-45.35,2.64-29.91,6.46-59.48,20.47-86.67,1.66-3.21,3.67-6.24,5.52-9.36.09.64.18,1.28.26,1.92-11.96,23.64-18.86,49.15-21.14,75.06-1.82,20.66-5.22,41.7,1.78,62.98,4.39,13.36,9.49,26.09,16.8,37.68,11.94,18.93,33.41,28.63,47.09,46.11.37.47,1.67.43,2.49.3,9.59-1.49,12.63,4.8,15.23,12.23,3.56,10.18,7.53,20.22,11.52,30.24.88,2.21,2.68,4.97,5.36,3.82,2.55-1.1,3.96-4.32,2.58-7.04-3.79-7.42-5.99-15.22-7.29-23.4-.48-3.03-7.4-4.65-1.27-9.26,3.45-2.59,5.98-5.54,10.93-5.2,6.69.46,13.47.61,20.14.02,18.41-1.61,36.3-4.72,47.64-21.89.12.74.25,1.49.38,2.23ZM349.49,484.53c-2.18-17.48-7.92-34.64-14.63-51.54-1.08-2.71-1.43-7.07-5.7-4.69-3.15,1.76-7.3,4.48-4.57,9.43,1.35,2.45,2.61,4.68,2.57,7.6-.22,15.42,6.68,28.82,12.59,42.39,1.37,3.14,3.09,8.98,7.68,7.51,3.73-1.19.92-6.56,2.06-10.72ZM289,445.3c3.84,0,6.27-.1,8.69.02,3.52.18,6.58-1.2,6.45-4.72-.16-4.11-4.26-2.74-6.5-2.46-7.79.96-14.15-1.6-19.86-6.61-1.79-1.58-3.72-3.15-5.86-4.11-1.09-.49-3.06,0-4.15.74-1.45.99-1.13,2.96-.03,4.02,6.46,6.23,10.65,16.51,21.26,13.13Z"/>
      <path class="cls-1" d="M244.96,55.41c.3,3.25-1.27,5.1-3.88,6.73-11.51,7.18-23.85,11.95-37.14,14.88-5.87,1.29-8.14-1.18-9.39-5.64-3.71-13.28-9.56-25.71-14.9-38.34-1.84-4.35-.9-6.52,3.58-8.32,14.54-5.84,30.05-7.79,45.04-11.77,3.2-.85,5.49.43,6.34,3.58,3.51,12.94,6.9,25.92,10.34,38.89Z"/>
      <path class="cls-2" d="M108.39,215.33c.05,20.49,9.75,29.88,30.79,29.87,4.61,0,10.27-1.97,9.63,6.48-.52,6.92-.99,12.34-10.34,12.56-24.62.56-45.47-23.84-40.07-47.92.76-3.39,2.55-6.56-1.39-8.79-3.38-1.91-6.34-.62-9.14,1.82-3.79,3.3-8.88,5.08-12.01.64-2.63-3.73.82-7.93,3.85-11.13,4.2-4.43,9.5-4.92,15.19-4.69,3.18.12,7.7.88,8.05-3.74.39-5.14-4.24-4.96-7.87-5.32-3.44-.35-7.81,1.1-9.02-3.94-.43-1.8.62-3.91,2.31-4.63,4.14-1.76,8.33-1.74,11.92,1.49,1.57,1.42,2.78,3.29,4.47,4.52,1.8,1.3,4.11,1.56,6.01.14,2.28-1.71,1.18-3.8.09-5.69-.76-1.32-1.71-2.53-2.45-3.86-1.56-2.78-1.35-5.49,1.38-7.25,3.64-2.34,4.87,1.12,6.1,3.3,2.6,4.6,3.9,9.64,3.51,14.96-.45,6.05,1.45,9.39,8.27,8.48,2.9-.38,6.36-1.08,8.36,2.09,1.3,2.06.23,4.17-1.13,5.9-2.47,3.15-5.65,4.58-9.69,3.47-.59-.16-1.19-.29-1.77-.49-14.69-5.25-15.1-4.93-15.06,11.75Z"/>
      <path class="cls-2" d="M184.29,155.66c-.09-.64-.17-1.28-.26-1.92,1.09-4.6,3.78-8.21,7.13-11.4,1.36,2.16,3.24,2.78,5.33,1.29.8-.57,1.67-2.12,1.43-2.88-.73-2.3-3.39.31-4.58-1.43,6.49-10,14.28-17.31,27.03-19.56,10.68-1.89,20.86-6.7,31.2-10.36,10.7-3.79,21.1-1.22,28.39,7.24,15.97,18.54,16.88,32.39,2.83,52.65-7,10.1-13.61,20.08-15.1,32.8-.96,8.19-.08,15.81,3.28,23.2,6.08,13.38,11.23,14.23,20.86,3.54,2.83-2,5.66-4,9.26-6.55-1.13,5.94-4.3,9.86-6.95,14.03-1.41-.47-2.68-1.17-4.3-.24-9.37,5.4-13.18,4.84-18.6-3.81-7.89-12.59-8.23-26.15-4.57-40.27,2.93-11.29,10.96-19.48,16.5-29.17,5.59-9.76,9.08-20.08,3.33-30.88-8.77-16.46-18.03-26.99-39.82-17.76-7.22,3.06-14.71,5.45-22.08,8.16-6.56,2.41-7.92,7.02-2.73,11.66,4.03,3.6,5.79,7.97,6.12,12.8.94,13.82-2.77,25.92-14.45,34.57-.06-.69-.13-1.39-.19-2.08,6.77-9.84,13.68-19.57,11.41-32.63-1.96-11.28-10.88-14.86-20.13-8.14-5.94,4.32-6.5,10.91-8.09,17.13-.49-.01-.97-.03-1.46-.07-.55-2.77,1.77-7.03-1.9-8-3.27-.87-4.46,3.31-6.17,5.72-.68.95-1.79,1.59-2.71,2.37ZM202.99,133.6c4.59-.16,8.16.89,9.92-3.2.63-1.45.33-3.36-1.58-3.58-4-.46-5.71,2.56-8.34,6.78Z"/>
      <path class="cls-2" d="M363.5,204.51c.49-6.4,1.06-12.81,5.77-17.79,2.12-2.24,4.67-4.32,8.01-3.01,3.58,1.4,3.03,4.83,3.1,7.84.12,5.06-2.5,8.56-6.38,11.41-2.06,1.52-5.5,2.6-3.53,6.15,1.67,3.01,4.56,3.93,7.83,2.44,3.53-1.61,6.95-4.36,10.48.09,2.59,3.27,2.6,6.55.89,10.19-2.4,5.11-6.85,5.64-11.54,5.12-3.54-.39-6.87-2.38-10.62-1.51-.71-.42-1.86-1.34-2.07-1.17-1.82,1.56-2.45,4.72-6.26,2.91-3.78-1.8-1.32-4.06-1.06-6.13.5-3.97-1.65-6.41-4.68-8.19-8.71-5.11-17.88-7.27-28.06-5.16-5.33,1.1-9.97,3.92-16.65,6.37,13.88-14.68,28.06-15.42,43.62-7.38,4.05,2.09,8.63,4.56,11.15-2.2ZM374.33,187.39c-4.01,2.2-7.23,5.1-6.83,10.41.12,1.6-.63,4.52,1.98,4.02,5.67-1.08,6.69-6.47,8.27-10.92.68-1.92-.99-3.28-3.41-3.52Z"/>
      <path class="cls-2" d="M363.5,204.51c-2.51,6.76-7.09,4.3-11.14,2.2-15.55-8.04-29.74-7.31-43.62,7.38,6.68-2.45,11.32-5.27,16.65-6.37,10.18-2.11,19.36.05,28.06,5.16,3.03,1.78,5.18,4.21,4.68,8.19-.26,2.07-2.72,4.32,1.06,6.13,3.81,1.81,4.44-1.35,6.26-2.91.2-.18,1.36.75,2.07,1.17,0,2.1-.26,4.15,1.35,6.02,1.37,1.58,2.6,3.45,3.27,5.41,1.43,4.16,1.49,8.39-1.02,12.27-1.31,2.02-3.08,1.49-4.77.53-4.41-2.53-6.31-6.39-5.92-11.42.02-.3.09-.6.18-.89,1.17-3.6,1.1-6.93-3.34-7.82-4.36-.88-5.5,2.19-6.47,5.81-1.06,3.93-1.45,8.65-6.45,10.11-.62.18-2-.44-2.22-1-1.79-4.6-.75-8.97,1.62-13.05,1.84-3.17,3.98-6.27,7.59-7.61,8.01-2.97,4.65-6.33.23-9.26-15.57-10.35-39.65-5.05-48.45,11.93-11.92,23.01-14.06,15.64,7.15,32.23,2.13,1.67,4.34,3.24,6.52,4.85-1.44.12-2.87.24-4.31.36-4.94-1.81-7.98-6.28-12.27-8.91-7.55-4.62-11.49-10.04-6.07-18.7,2.65-4.17,5.82-8.09,6.95-14.03-3.61,2.55-6.43,4.55-9.26,6.55,8.89-14.53,21.14-25.05,37.53-29.98,7.13-2.15,13.81,1.36,20.16,4.3,4.62,2.13,9.06,3.44,13.97,1.36ZM363.74,232.29c.81,4.77-2.02,9.71,2.39,13.87,1.29,1.22,3.16.44,3.78-.95,2.36-5.34-1.65-8.82-4.11-12.71-.09-.14-.54-.07-2.05-.2Z"/>
      <path class="cls-2" d="M312.48,263.91c1.44-.12,2.87-.24,4.31-.36,15.72,12.15,24.27,28.04,25.06,47.98.02,10.42.04,20.85.06,31.27-.61,5.96-1.46,11.85-5.39,16.74-.13-.74-.25-1.49-.38-2.23,1.01-5.02,2.1-10.03,3.02-15.07,3.43-18.76-.2-37.01-6.25-54.43-3.43-9.87-11.69-17.56-20.43-23.89Z"/>
      <path class="cls-2" d="M341.91,342.8c-.02-10.42-.04-20.85-.06-31.27,2.49,10.42,2.37,20.85.06,31.27Z"/>
      <path class="cls-2" d="M193.33,139.31c1.18,1.75,3.85-.87,4.58,1.43.24.76-.63,2.31-1.43,2.88-2.08,1.49-3.96.87-5.33-1.29.73-1.01,1.45-2.02,2.18-3.02Z"/>
      <path class="cls-2" d="M312.48,263.91c8.74,6.34,17,14.02,20.43,23.89,6.06,17.42,9.68,35.67,6.25,54.43-.92,5.04-2.01,10.05-3.02,15.07-11.33,17.17-29.22,20.28-47.64,21.89-6.67.58-13.46.44-20.14-.02-4.94-.34-7.48,2.61-10.93,5.2-6.14,4.61.79,6.24,1.27,9.26,1.29,8.19,3.49,15.98,7.29,23.4,1.39,2.72-.02,5.94-2.58,7.04-2.68,1.15-4.48-1.61-5.36-3.82-3.99-10.02-7.96-20.06-11.52-30.24-2.6-7.43-5.64-13.72-15.23-12.23-.82.13-2.12.17-2.49-.3-13.68-17.48-35.15-27.18-47.09-46.11-7.31-11.59-12.41-24.32-16.8-37.68-7-21.29-3.6-42.33-1.78-62.98,2.28-25.91,9.19-51.42,21.14-75.06.92-.78,2.04-1.42,2.71-2.37,1.71-2.41,2.91-6.59,6.17-5.72,3.67.98,1.35,5.23,1.9,8-4.99,7.94-4.56,18.81,1,25.36,4.33,5.1,11.43,5.28,17.46.43,11.68-8.65,15.4-20.75,14.45-34.57-.33-4.83-2.09-9.2-6.12-12.8-5.19-4.64-3.83-9.26,2.73-11.66,7.37-2.7,14.86-5.1,22.08-8.16,21.79-9.22,31.06,1.3,39.82,17.76,5.75,10.8,2.26,21.12-3.33,30.88-5.55,9.69-13.57,17.88-16.5,29.17-3.66,14.12-3.32,27.68,4.57,40.27,5.43,8.65,9.23,9.21,18.6,3.81,1.62-.93,2.89-.23,4.3.24-5.43,8.66-1.48,14.08,6.07,18.7,4.29,2.63,7.33,7.1,12.27,8.91ZM182.31,241.86c0-3.97.04-7.94-.01-11.9-.06-3.86,1.01-8.7-4.94-8.96-5.93-.26-5.5,4.77-5.72,8.52-.95,15.95,0,31.93,4.16,47.27,5.28,19.51,14.48,37.03,32.39,48.32,14.01,8.84,26.14,7.88,38.78-2.48,12.45-10.2,14.57-23.64,11.35-38.12-3.54-15.91-3.79-31.46,1.49-46.93,1.35-3.96,3.1-8.25-2.44-9.72-4.84-1.28-7.07,2.74-8.24,6.73-4.1,13.91-6.38,27.94-3.06,42.44,1.15,5.04,1.95,10.21,2.31,15.37.96,13.67-3.27,22.23-13.32,26.58-11.09,4.8-19.4-.79-27.05-8.04-19.87-18.82-25.95-42.75-25.7-69.08ZM264.73,157.36c.35-12.62-3.35-19.78-9.98-21.15-6.39-1.33-13.46,4.29-17.55,13.33-3.44,7.6-3.79,15.32-1.82,23.2,1.21,4.83,3.27,9.46,8.82,10.6,6,1.23,10.73-1.21,14.19-6.14,4.53-6.48,5.93-13.9,6.33-19.84Z"/>
      <path class="cls-2" d="M349.49,484.53c-1.15,4.15,1.66,9.52-2.06,10.71-4.58,1.46-6.31-4.37-7.68-7.51-5.91-13.58-12.81-26.98-12.59-42.39.04-2.92-1.22-5.16-2.57-7.6-2.73-4.95,1.42-7.68,4.57-9.43,4.27-2.38,4.62,1.97,5.7,4.69,6.71,16.9,12.45,34.06,14.63,51.54Z"/>
      <path class="cls-2" d="M289,445.3c-10.62,3.38-14.8-6.9-21.26-13.13-1.1-1.06-1.42-3.02.03-4.02,1.09-.75,3.06-1.23,4.15-.74,2.14.96,4.07,2.54,5.86,4.11,5.71,5.01,12.07,7.58,19.86,6.61,2.24-.28,6.34-1.65,6.5,2.46.14,3.52-2.92,4.9-6.45,4.72-2.42-.12-4.85-.02-8.69-.02Z"/>
      <path d="M196.53,155.64c1.59-6.23,2.15-12.81,8.09-17.13,9.24-6.72,18.17-3.14,20.13,8.14,2.27,13.07-4.64,22.8-11.41,32.63-10.61,5.76-15.38,3.41-17.76-8.3-1.07-5.29.68-10.23.95-15.34Z"/>
      <path class="cls-2" d="M196.53,155.64c-.27,5.11-2.02,10.04-.95,15.34,2.38,11.72,7.15,14.06,17.76,8.3.06.69.13,1.39.19,2.08-6.04,4.85-13.13,4.67-17.46-.43-5.56-6.55-5.99-17.42-1-25.36.48.04.97.06,1.46.07Z"/>
      <path class="cls-2" d="M202.99,133.6c2.63-4.22,4.34-7.24,8.34-6.78,1.92.22,2.21,2.13,1.58,3.58-1.77,4.08-5.33,3.04-9.92,3.2Z"/>
      <path class="cls-2" d="M374.33,187.39c2.42.24,4.09,1.59,3.41,3.52-1.57,4.45-2.6,9.83-8.27,10.92-2.61.5-1.86-2.42-1.98-4.02-.4-5.31,2.82-8.21,6.83-10.41Z"/>
      <path class="cls-2" d="M363.74,232.29c1.51.14,1.96.06,2.05.2,2.46,3.89,6.48,7.37,4.11,12.71-.62,1.39-2.49,2.17-3.78.95-4.4-4.16-1.57-9.09-2.39-13.87Z"/>
      <path d="M182.31,241.86c-.25,26.34,5.82,50.26,25.7,69.08,7.65,7.25,15.96,12.84,27.05,8.04,10.05-4.35,14.28-12.91,13.32-26.58-.36-5.15-1.16-10.33-2.31-15.37-3.32-14.5-1.04-28.54,3.06-42.44,1.18-3.99,3.4-8.01,8.24-6.73,5.54,1.47,3.8,5.76,2.44,9.72-5.29,15.47-5.03,31.02-1.49,46.93,3.22,14.48,1.1,27.92-11.35,38.12-12.64,10.35-24.77,11.32-38.78,2.48-17.9-11.3-27.1-28.81-32.39-48.32-4.15-15.34-5.1-31.32-4.16-47.27.22-3.74-.22-8.77,5.72-8.52,5.95.26,4.88,5.1,4.94,8.96.06,3.96.01,7.93.01,11.9Z"/>
      <path d="M264.73,157.36c-.4,5.94-1.79,13.36-6.33,19.84-3.46,4.94-8.2,7.38-14.19,6.14-5.55-1.14-7.61-5.78-8.82-10.6-1.98-7.88-1.62-15.6,1.82-23.2,4.09-9.03,11.16-14.65,17.55-13.33,6.62,1.37,10.32,8.53,9.98,21.15Z"/>
    </g>
  </g>
</svg>