<?xml version="1.0" encoding="UTF-8"?>
<svg id="Layer_1" data-name="Layer 1" xmlns="http://www.w3.org/2000/svg" viewBox="0 0 512 512">
  <defs>
    <style>
      .cls-1 {
        fill: #e43d30;
      }

      .cls-1, .cls-2, .cls-3, .cls-4, .cls-5, .cls-6 {
        fill-rule: evenodd;
      }

      .cls-2 {
        fill: #fff;
      }

      .cls-3 {
        fill: #009ade;
      }

      .cls-5 {
        fill: #007934;
      }

      .cls-6 {
        fill: #d41367;
      }
    </style>
  </defs>
  <path class="cls-3" d="M276.83,79.91c-21.96,2.47-56.4,3.92-80.93-.93,3.92-25.16,80.83-43.51,80.93.93Z"/>
  <path class="cls-2" d="M275.9,90.32c1.24,5.77-6.91,7.32-11.44,8.56-20.83,5.46-61.76,4.12-75.16-6.7.82-1.13,1.24-2.58.93-4.74,24.43,4.23,58.25,3.81,85.68,2.89Z"/>
  <path class="cls-3" d="M284.46,101.76c3.3-.52.52-7.11,2.89-8.56,7.01.31,12.89,1.75,16.19,5.67-3.71,9.28-16.81,10-28.56,12.37-17.11,3.51-36.5,6.19-58.05,4.74-21.24-1.44-45.16-4.95-53.3-18.04,3.92-2.47,9.49-3.2,14.33-4.74,18.25,23.3,78.15,21.75,106.5,8.56Z"/>
  <path class="cls-1" d="M55.98,103.62c4.85,13.09,10.72,27.22,10.52,42.79-.1,7.84-4.33,15.05-5.67,22.89-2.17,11.65.62,21.55-1.86,31.45-7.22-8.56-4.64-24.02-5.67-38.04-1.44-20-11.65-40.42-7.63-58.05,3.2-.52,6.08-1.44,10.31-1.03Z"/>
  <path class="cls-5" d="M319.72,138.88c-9.28,4.43-22.68,4.54-31.45,9.49-5.46-24.13-43.3-18.76-48.56,1.86-3.81.62-10.1-1.24-12.37.93.62-25.57-35.98-23.51-43.82-6.7-10.1-1.96-21.34-2.78-31.45-4.74,3.3-9.49,16.7-16.91,26.7-22.89,28.66,9.28,72.69,9.69,103.72,1.86,13.09,6.29,27.32,11.03,37.22,20.21Z"/>
  <path class="cls-1" d="M495.81,122.69c-3.61,7.94-6.29,16.7-10.52,25.67-2.78,5.98-7.32,18.97-13.3,21.86-12.99,6.29-45.98-6.29-62.79-4.74,1.03-16.08,4.95-29.38,5.67-45.67,0-1.65.72-2.47,1.86-2.89,25.98,2.37,53.51,3.09,79.08,5.77Z"/>
  <path class="cls-2" d="M212.08,139.81c9.9,13.2-.62,37.01-15.26,35.26-16.6-2.17-6.6-43.92,15.26-35.26ZM200.74,150.33c-2.47,3.2-4.33,7.01-3.81,13.3,12.68,8.76,22.99-18.25,3.81-13.3Z"/>
  <path class="cls-2" d="M273.94,141.77c9.49,15.88-1.96,38.35-21.86,33.3-11.75-15.05,1.13-41.34,21.86-33.3ZM269.2,153.11c-3.09-10-20.83-1.24-13.3,9.49,8.04,5.26,15.26-3.09,13.3-9.49Z"/>
  <path class="cls-4" d="M255.9,162.7c-7.53-10.83,10.21-19.49,13.3-9.49,1.96,6.29-5.26,14.64-13.3,9.49Z"/>
  <path class="cls-4" d="M196.92,163.63c-.62-6.29,1.34-10.1,3.81-13.3,19.18-4.95,8.87,22.06-3.81,13.3Z"/>
  <path class="cls-6" d="M236.82,175.07c13.4,16.08-17.42,28.35-19.07,12.37-.72-7.53,9.18-12.99,19.07-12.37Z"/>
  <path class="cls-5" d="M69.28,213.11c-2.17-7.84,10.41-23.4,14.23-13.3,1.75,4.54-1.44,9.59-3.81,13.3-2.99.31-7.73,2.27-10.41,0Z"/>
  <path class="cls-4" d="M171.15,205.48c.41,4.54-6.19,2.06-6.7,5.67,13.82,52.58,93.51,52.07,119.91,13.3,3.51-5.16,6.5-18.56,17.11-13.3-6.5,22.79-27.84,42.27-52.38,48.56-42.89,11.03-83.31-11.34-93.31-43.82-1.65-1.24-5.05,5.67-9.49,1.86,1.03-10.62,14.54-17.01,24.85-12.27Z"/>
  <path class="cls-5" d="M397.76,204.56c3.81,7.53-4.85,10.21-6.7,15.26-3.71.82-3.4-2.37-5.67-2.89-.93-8.66,6.29-13.71,12.37-12.37Z"/>
  <path class="cls-5" d="M55.06,207.44c2.27,3.4,5.88,5.57,4.74,12.37-9.18-.93-14.85,1.65-20,4.74-3.71-11.03,3.71-18.25,15.26-17.11Z"/>
  <path class="cls-5" d="M418.69,218.89c2.68,11.65-12.37,14.64-17.11,7.63v-5.67c2.37-4.54,13.4-7.22,17.11-1.96Z"/>
  <path class="cls-5" d="M62.69,234.04c-9.79,0-12.78,6.91-19.07,10.52-9.18-10.72,16.5-25.98,19.07-10.52Z"/>
  <path class="cls-5" d="M410.14,238.79c2.78,12.06-14.23,11.44-17.11,4.74-.1-10.41,10.21-6.7,17.11-4.74Z"/>
  <path class="cls-5" d="M52.17,257.86c-5.57-10.72,17.01-26.5,14.23-6.7-3.51,3.4-6.08,7.84-14.23,6.7Z"/>
  <path class="cls-5" d="M403.43,256.93c-.1,7.32-9.38,9.07-16.19,6.7-5.88-12.27,10-8.35,16.19-6.7Z"/>
  <path class="cls-5" d="M241.67,413.95c3.3.21,4.12,2.78,4.74,5.67-1.96-1.55-4.43-2.47-4.74-5.67Z"/>
  <path class="cls-2" d="M179.81,422.61c-1.59,1.42-3.18,1.41-4.43.63,1.24.74,2.78.71,4.33-.73-1.73-1.72-1.26-5.63-2.81-7.53h.02c1.65,1.86,1.14,5.88,2.89,7.63Z"/>
  <path class="cls-1" d="M299.71,437.77c2.17,13.4-15.05,14.02-25.67,14.23-18.15.41-37.63-5.67-51.45-7.63-1.44-4.33-2.17-9.28-1.86-15.26,13.71,6.29,26.7-1.13,40-.93,14.64.31,27.32,2.27,38.97,9.59Z"/>
  <path class="cls-1" d="M211.15,444.47c-15.36,9.49-49.39,18.87-64.75,8.56,9.28-21.03,39.8-19.8,63.82-23.82-.52,5.88,1.65,9.07.93,15.26Z"/>
  <path class="cls-1" d="M404.36,124.55c2.27,2.37-1.13,7.73-1.86,12.37-1.34,8.56-1.55,19.49-2.89,27.63-3.92.1-5.98-1.65-10.52-.93,4.02-14.12,11.65-24.64,15.26-39.08Z"/>
  <path class="cls-4" d="M414.88,119.91c-.1-1.65.62-2.48,1.85-2.89,25.99,2.27,53.51,2.99,79.08,5.77-3.61,7.94-6.29,16.71-10.51,25.68-2.79,5.98-7.22,18.86-13.3,21.85-12.99,6.4-45.99-6.28-62.79-4.74,1.03-16.08,4.84-29.28,5.67-45.67ZM404.47,124.55c2.26,2.37-1.14,7.73-1.86,12.37-1.34,8.66-1.55,19.49-2.89,27.63-4.02.1-5.98-1.65-10.51-.93,3.91-14.12,11.54-24.64,15.26-39.07ZM397.76,204.55c3.82,7.63-4.94,10.21-6.7,15.26-3.61.83-3.3-2.37-5.67-2.88-.93-8.66,6.29-13.72,12.37-12.38ZM276.83,79.8c-21.96,2.48-56.4,3.92-80.94-.93,3.92-25.05,80.83-43.4,80.94.93ZM190.22,87.43c24.44,4.23,58.25,3.82,85.68,2.89,1.24,5.67-6.91,7.32-11.45,8.56-20.72,5.46-61.75,4.02-75.16-6.71.83-1.13,1.24-2.57.93-4.74ZM177.85,93.2c18.35,23.31,78.25,21.76,106.5,8.56,3.3-.51.62-7.01,2.89-8.56,7.01.31,12.89,1.65,16.19,5.68-3.72,9.27-16.81,10-28.56,12.37-17.12,3.5-36.5,6.18-58.05,4.74-21.24-1.34-45.16-4.95-53.3-18.04,3.92-2.48,9.48-3.2,14.33-4.75ZM178.88,117.02c28.66,9.28,72.69,9.59,103.72,1.86,12.99,6.08,27.22,10.82,37.22,20.2-9.28,4.34-22.79,4.54-31.45,9.49-5.46-24.13-43.3-18.76-48.56,1.86-3.81.61-10.1-1.24-12.37.92.52-25.57-35.98-23.61-43.82-6.7-10.1-1.96-21.34-2.78-31.44-4.74,3.3-9.49,16.7-16.91,26.7-22.89ZM252.08,175.07c-11.75-15.06,1.14-41.35,21.86-33.3,9.48,15.87-1.96,38.35-21.86,33.3ZM236.82,167.44c-6.6.72-13.71.82-17.11,4.74,1.85-4.64,6.49-19.18,18.04-14.23-1.65,1.76-.62,6.29-.93,9.49ZM236.93,175.07c13.3,16.08-17.43,28.35-19.08,12.37-.82-7.53,9.08-12.99,19.08-12.37ZM196.92,175.07c-16.7-2.17-6.7-43.92,15.26-35.26,9.8,13.3-.62,37.11-15.26,35.26ZM45.57,104.65c3.3-.52,6.19-1.44,10.31-1.03,4.95,13.09,10.72,27.22,10.52,42.79-.11,7.83-4.23,15.05-5.67,22.88-2.07,11.65.72,21.65-1.86,31.45-7.22-8.56-4.64-24.02-5.67-38.04-1.55-20.01-11.65-40.42-7.63-58.05ZM55.06,207.44c2.26,3.4,5.87,5.57,4.74,12.37-9.18-.92-14.85,1.65-20,4.75-3.71-11.04,3.71-18.25,15.26-17.12ZM62.69,234.04c-9.8.1-12.89,6.91-19.08,10.52-9.17-10.73,16.5-25.98,19.08-10.52ZM66.5,251.16c-3.61,3.4-6.19,7.83-14.23,6.7-5.67-10.73,16.91-26.5,14.23-6.7ZM83.61,199.81c1.76,4.54-1.44,9.59-3.81,13.3-3.09.31-7.84,2.27-10.41,0-2.27-7.83,10.41-23.4,14.22-13.3ZM211.15,444.47c-15.36,9.49-49.38,18.87-64.75,8.56,9.28-21.03,39.8-19.8,63.82-23.82-.51,5.88,1.65,9.07.93,15.26ZM299.61,437.87c2.17,13.4-15.05,14.02-25.67,14.23-18.15.31-37.63-5.67-51.45-7.63-1.34-4.33-2.06-9.28-1.85-15.26,13.71,6.29,26.7-1.13,40-.93,14.74.21,27.42,2.17,38.97,9.59ZM241.67,414.06c3.3.2,4.12,2.78,4.74,5.67-1.96-1.65-4.43-2.58-4.74-5.67ZM268.27,408.28c-2.58,3.09-4.64,6.81-9.49,7.63v-4.74c3.82-.31,4.64-3.61,9.49-2.89ZM355.8,246.52c-11.65,50.93-40.21,110.01-78.97,136.09-8.66,5.88-17.32,7.73-28.56,11.44-1.34,4.75.72,11.86,0,20.93-1.45-3.3-6.39-4.95-10.52-2.88-1.13,5.25,6.29,7.01,4.74,9.48-8.24,2.99-18.25-.1-22.88-3.81-.62-8.15,1.75-19.49-1.86-24.75-2.99.11-5.36-2.27-7.63,0-2.17,6.6-.31,17.43-.93,25.68-4.95,1.75-8.86,4.43-15.26,4.74-.41-2.89,5.06-9.18,3.82-13.3-1.14-2.48-5.26-.62-5.67-1.86.41-18.35-22.17-20.62-35.26-28.56-35.26-21.34-67.02-61.86-62.79-118.05.72-8.86,5.05-15.88,3.81-24.74-6.39-4.23-17.01.51-24.74.93.31-6.5-4.54-12.27-3.82-16.19,18.36,2.47,19.18-12.68,36.19-11.45,9.9-24.33,21.34-47.22,38.05-64.74,10.62,3.91,25.98,3.19,36.19,7.63-6.91,21.13,13.4,37.73,29.59,26.91-9.9,28.76,40.62,30.82,40.93,3.81,21.75,4.33,35.57-11.75,38.04-26.7,11.24-5.26,25.47-7.53,38.04-11.45,15.99,18.56,28.36,40.83,29.49,74.24,12.27,3.4,27.32,3.91,35.26,9.48-4.53,3.09-11.13,11.03-6.7,17.12-7.73.82-21.44-2.17-28.56,0ZM387.25,263.53c-5.88-12.17,10-8.25,16.18-6.7-.1,7.32-9.38,9.17-16.18,6.7ZM393.02,243.63c-.1-10.52,10.21-6.81,17.12-4.74,2.78,12.06-14.23,11.44-17.12,4.74ZM401.58,226.41v-5.67c2.37-4.43,13.4-7.11,17.11-1.96,2.68,11.65-12.37,14.64-17.11,7.63ZM485.3,183.73c-11.24,10.62-41.97,1.75-56.19,10.51-9.69,5.88-7.94,17.22-20,14.23-2.38-8.35,3.91-11.85,2.88-19.07-1.54-10.93-14.33-9.59-22.89-15.26,17.74-.83,42.58,4.12,64.75,5.67,29.9,2.06,34.64-11.96,42.89-33.2-3.92,10.31-2.06,28.25-11.44,37.12ZM472.92,112.48c-23.71-2.26-48.45-5.36-71.34-3.81-5.05,10-8.66,19.49-13.3,30.41-3.71,8.67-13.51,23.2-12.37,32.38,1.85,15.26,32.99,10.82,23.81,25.67-14.02-3.71-21.85,6.5-25.67,16.19h-8.56c-.31-14.64-4.64-25.16-9.48-38.05,18.25-34.74-17.01-63.61-43.82-70.41,2.47-14.34-11.75-19.9-25.67-20.93,3.92-31.24-28.25-45.88-62.79-37.12-20.62,5.26-37.01,24.12-42.79,38.04-10.82,1.65-22.06,2.79-26.7,10.52-1.65,5.05,3.3,6.6.93,9.49-30.42,4.63-61.76,41.75-43.82,72.37-8.15,6.09-5.67,22.79-17.12,25.67,1.55-14.74-13.91-20-23.81-12.37-1.65-19.07,7.52-32.47,6.7-47.63-.93-16.91-6.6-30.72-12.37-45.67-12.99-6.4-30.73-1.04-33.3,11.44-10.52,2.89-27.12-2.99-31.45,1.86,1.96,3.81,10.1,1.34,13.3,3.81-2.17.62-7.42-1.75-6.7,1.86,4.53,5.36,16.29-1.55,21.86,1.85-8.15,1.34-20.42-1.44-23.82,4.74,4.43,3.51,13.3-1.85,17.11.93-6.8.72-14.74.42-17.11,5.67,7.84,3.1,17.84-4.95,25.67-1.85-8.25.82-16.19,2.16-21.86,5.67,2.27,4.53,2.07,1.75.93,7.63,4.02,1.23,7.01-3.71,9.49-.93-3.3.62-7.43.21-6.7,4.74,8.86.93,17.21-6.6,26.7-3.81-9.8,2.58-22.37,2.37-27.63,9.48,6.6,2.68,15.57-5.15,21.86-2.88-7.84,2.88-19.28,2.26-21.86,10.51,4.95,1.14,7.94-4.64,11.44-1.85-4.12.51-7.42,2.06-8.56,5.67.62,2.27,4.23,1.54,2.89,5.67,7.22-3.61,18.25-8.35,25.67-8.56-9.38,3.71-24.64,6.39-25.67,15.26,6.91-1.34,15.36-9.38,25.67-10.52-1.13,14.33,1.45,22.17,2.89,36.19-15.05.62-22.78,22.68-10.52,31.45-7.93,6.39-.72,18.66,6.71,20.93-.62,4.02.61,6.29.92,9.48,11.76,10.42,35.37,1.86,34.23-15.26,4.54.11,7.22-1.65,11.45-1.85-15.47,80.52,35.05,134.75,92.48,157.02,1.86,5.88.82,9.69,1.86,15.26-2.17-1.96-2.38-5.88-6.71-5.67-3.6.2-5.46,2.16-7.63,3.81-.51,4.44,3.41,9.28,2.89,10.52-12.89,6.39-39.8,9.69-36.19,29.49,3.82,20.62,48.77,10.93,61.86,6.7,7.63-2.48,15.88-8.04,21.86-8.56,11.24-1.03,26.91,7.53,42.79,8.56,18.66,1.13,41.86-1.14,47.63-11.45,12.58-22.58-25.26-28.04-45.67-32.37,4.95-2.06,9.07-4.85,8.55-12.37-4.53-3.2-11.34,1.85-13.3.93v-6.71c58.67-24.74,86.3-80.62,105.68-144.44,4.74-.62,7.43.82,11.45.93-4.85,24.12,42.58,23.61,38.04-2.89,5.05-3.61,10.21-9.69,6.7-14.33,4.95-5.46,12.79-16.7,5.67-25.67,6.6-23.2,32.48-12.17,54.23-17.12,26.6-5.98,28.36-55.47,31.45-78.97-11.13-5.98-25.98-3.51-39.08-4.75ZM175.01,422.98c-.12-.09-.23-.18-.34-.28-.1-.1-.19-.19-.28-.29-.11-.12-.21-.24-.3-.37-.1-.13-.2-.26-.27-.4-.1-.14-.18-.28-.25-.43-1.02-1.92-1.14-4.54.36-6.33h2.89s.05.06.08.1c1.55,1.9,1.08,5.81,2.81,7.53-1.55,1.44-3.09,1.47-4.33.73-.13-.08-.25-.16-.37-.26Z"/>
  <path class="cls-5" d="M209.3,179.81c-9.9,28.66,40.62,30.83,40.93,3.81,21.75,4.33,35.67-11.65,38.04-26.7,11.24-5.26,25.47-7.53,38.04-11.44,15.98,18.56,28.35,40.83,29.49,74.23,12.17,3.51,27.22,4.02,35.26,9.49-4.54,3.09-11.03,11.03-6.7,17.11-7.73.82-21.45-2.17-28.56,0-11.65,51.04-40.21,110.01-78.98,136.09-8.66,5.77-17.32,7.73-28.56,11.44-1.34,4.74.72,11.86,0,20.93-1.44-3.3-6.39-4.95-10.52-2.89-1.13,5.26,6.29,7.01,4.74,9.49-8.14,2.99-18.25-.1-22.89-3.81-.72-8.14,1.75-19.49-1.86-24.74-2.99.1-5.36-2.27-7.63,0-2.17,6.7-.31,17.42-.93,25.67-4.95,1.75-8.87,4.43-15.26,4.74-.41-2.89,5.05-9.28,3.81-13.3-1.24-2.58-5.36-.72-5.67-1.86.41-18.35-22.17-20.62-35.26-28.56-35.26-21.34-67.12-61.86-62.79-118.05.72-8.87,5.05-15.88,3.81-24.74-6.39-4.23-17.01.52-24.74.93.31-6.5-4.54-12.27-3.81-16.19,18.35,2.47,19.07-12.58,36.19-11.44,9.9-24.33,21.34-47.22,38.04-64.75,10.62,3.92,25.98,3.2,36.19,7.63-6.91,21.34,13.4,37.94,29.59,26.91ZM146.4,217.86c4.54,3.71,7.84-3.2,9.49-1.86,10,32.48,50.42,54.75,93.31,43.82,24.54-6.29,45.88-25.78,52.38-48.56-10.62-5.16-13.61,8.14-17.11,13.3-26.39,38.77-106.09,39.28-119.91-13.3.52-3.61,7.01-1.24,6.7-5.67-10.41-4.85-23.92,1.55-24.85,12.27Z"/>
  <path class="cls-1" d="M496.74,146.51c-3.92,10.31-1.96,28.25-11.44,37.12-11.13,10.52-41.86,1.75-56.19,10.52-9.59,5.88-7.94,17.32-20,14.23-2.47-8.35,3.81-11.86,2.89-19.07-1.55-10.93-14.23-9.49-22.89-15.26,17.73-.72,42.58,4.23,64.75,5.67,29.9,2.17,34.64-11.86,42.89-33.2Z"/>
  <path class="cls-5" d="M237.85,157.95c-1.65,1.75-.72,6.29-.93,9.49-6.6.72-13.71.82-17.11,4.74,1.75-4.64,6.39-19.18,18.04-14.23Z"/>
</svg>