<?xml version="1.0" encoding="UTF-8"?>
<svg id="Layer_1" data-name="Layer 1" xmlns="http://www.w3.org/2000/svg" viewBox="0 0 512 512">
  <defs>
    <style>
      .cls-1 {
        fill: none;
      }

      .cls-2 {
        fill: #a8adb3;
      }

      .cls-3 {
        fill: #998600;
      }

      .cls-4 {
        fill: #fff;
      }

      .cls-5 {
        fill: #c19234;
      }

      .cls-6 {
        fill: #ffcd00;
      }

      .cls-7 {
        fill: #009845;
      }
    </style>
  </defs>
  <path class="cls-1" d="M478.25,199.94c-17.64,15.33-34.79,35.03-52.91,51.21-2.43,2.19-6.69,5.84-7.18,7.54-.24.61.36,2.07.36,2.8-.24,2.31-2.07,4.74-2.8,7.18-.36,1.34,0,2.55-.36,3.77-1.09,4.14-3.89,7.66-5.47,11.68-.49,1.22-.24,2.55-.73,3.77-.85,2.43-2.55,4.01-3.77,6.57-2.07,4.26-3.41,9.12-5.84,12.04,8.88-8.27,17.52-17.15,25.42-26.76,8.64-10.58,16.79-22.87,25.42-32.6,2.19-2.55,4.14-5.96,6.2-8.88,6.69-9.61,12.53-19.58,18.85-29.19.24-3.77,3.16-4.87,3.41-8.64,0-.36-.24-.49-.61-.49Z"/>
  <path d="M499.18,148.73c-1.46-.73-2.92-.12-4.87-1.7-2.07,1.34-4.62-.49-6.93,0-3.28.61-5.11,4.26-7.54,6.93-4.01,4.26-9.12,8.15-13.75,12.77-4.38,4.38-9.12,9-13.75,13.02-9.85,8.64-18.61,18.25-28.22,25.42,0-20.44-3.28-38.56-8.64-55.71-6.57-15.94-13.75-31.51-22.63-44.03-1.22-1.7-1.95-3.89-3.04-5.47-3.77-4.87-8.51-9-12.77-13.38-2.19-2.31-4.14-4.38-6.57-6.57-2.31-2.19-4.62-4.5-6.57-6.93,7.91-.73,17.03-.12,20.68-5.11v-4.5c-5.35-6.93-14.84,2.07-23.36-.73,2.68-12.53,8.03-24.33,7.91-37.83-.73-2.31-2.07-3.89-1.7-7.18-2.8-3.16-4.62-7.54-7.54-10.34-1.22-1.22-4.99-3.89-6.2-4.5-4.74-2.31-12.53-3.16-16.79-2.8-23.48,2.07-35.52,21.65-43.67,38.8-5.47-3.65-9.73-8.39-13.38-13.75-3.28-1.09-6.93-1.22-8.88,1.34.73,8.88,9.12,10.1,12.04,16.79-4.38.73-9.49-.49-14.11-.73-14.6-.61-28.71,2.92-41.97,5.47-1.22-4.87-3.41-8.76-4.5-13.75-8.03-11.19-21.41-21.53-39.53-22.02-5.6-.12-10.1,2.07-15.08,2.07-16.18,7.06-31.87,22.02-34.79,42.7-.85,6.45.73,13.99.97,18.85-9,1.46-11.43,4.99-15.81,10.7-1.7,2.31-4.14,4.5-5.47,6.57-1.7,2.55-2.55,5.35-4.5,7.54-2.31,2.68-5.72,6.33-8.88,7.91-5.47,2.8-14.96,2.55-20.68.36-2.07-.85-3.41-2.68-5.47-2.8-8.51-.36-6.57,9.24-4.5,14.84,1.82,4.74,4.74,9,7.54,11.68,3.65,3.41,9,7.42,13.38,8.88,1.82.61,3.89.12,5.11,2.07-.61,2.19-2.43,4.5-4.14,7.18-1.22,2.07-2.92,5.96-4.87,6.57-1.46.49-3.16-.36-4.5-.36-2.31.12-5.11,1.34-7.91,2.07-5.96,1.58-6.33,2.68-9.97,5.47-4.74,3.65-9.24,8.76-9.61,16.18-.12,2.19,1.7,5.47,1.34,8.27-.24,2.07-2.92,3.28-3.77,5.47-2.8,6.93-.49,13.87,3.04,19.95-5.6,12.41,2.92,23.84,14.11,25.79-.85,26.64,4.99,55.1,13.02,77-3.89.97-6.2,3.41-10.34,4.14-6.08-9.12-11.8-18.61-27.49-18.25-5.84-5.84-17.15-11.56-26.52-6.93-6.81,3.41-13.14,11.56-13.02,21.65,0,9.49,3.28,19.95,5.84,29.56,1.7,6.57,4.99,12.41,7.91,16.79,4.01,6.33,7.79,12.65,13.02,16.79,3.89,2.68,10.7,2.31,15.08,4.5,2.8,10.83,16.06,17.15,25.06,9.24,1.82-1.58,3.41-4.74,5.11-7.18,3.77-5.23,9.49-10.46,15.08-12.77,1.09,2.07,3.41,2.92,4.5,5.11,18.73,9.24,37.47,18.37,56.08,27.86.12.61.73.85.73,1.7,4.5,1.09,8.39,4.38,12.41,6.57,3.89,2.19,9,3.65,10.34,8.64-12.65,10.22-24.57,21.29-39.17,29.56-13.62,12.41-29.07,22.99-44.03,34.06-.97,2.68-1.58,5.47-2.43,8.27.85,1.95,1.95,3.77,2.43,6.2,5.47,5.96,14.84,11.68,26.52,8.27,1.46-1.09,2.92-2.31,5.11-2.8,17.88-17.52,40.14-30.65,57.05-49.14,8.15-4.87,13.99-12.16,22.02-17.15,4.38,1.95,8.27,3.53,12.77,5.47,4.14,1.82,7.42,5.23,11.31,7.18,9.24,4.74,18.25,8.64,26.76,13.75,4.01,2.43,7.79,4.87,12.04,6.93,8.15,3.89,14.84,10.34,22.75,14.84,2.31,1.34,5.11,1.95,6.57,4.5,7.18,2.31,16.3,10.1,24.69,12.41,3.16.85,7.06,1.34,9.97.73,2.92-.61,5.47-4.14,6.93-6.2.36-.49,1.22-.85,1.7-1.34,2.92-3.04,4.14-5.47,3.41-11.31-.49-3.77-1.82-8.03-3.04-10.34-7.3-2.31-12.04-5.6-17.88-9.24-1.34-.85-5.23-2.43-5.47-3.77,0,0,1.34-1.46,1.34-1.7,3.04-8.03.85-21.53.97-30.53.12-3.53,1.34-7.18,1.34-10.95.24-14.72,1.46-27.49,2.8-40.51,5.6,2.19,7.79-1.34,11.68-4.14,2.92-2.07,5.96-2.92,7.91-4.5,1.58-1.22,2.8-3.16,4.5-4.5,6.69-5.11,13.99-9.85,20.68-15.81,6.57-5.84,12.29-12.89,19.22-18.61,3.41-2.8,6.57-6.08,9.61-9.24,4.5-4.74,9.49-8.88,13.75-13.38,5.6-6.08,12.04-11.8,16.18-18.61,2.31-1.22,3.65-3.53,5.84-4.87,6.69-9.61,14.48-18.73,21.29-27.86,2.43-3.16,5.23-5.84,7.54-8.88,9.49-12.65,17.52-26.15,26.52-39.53,1.09-6.81,5.6-10.1,7.54-15.45.49-1.22.24-2.55.73-3.77.61-1.46,2.19-2.55,2.8-4.14.61-1.95.12-5.23.97-7.18,1.09-2.68,4.5-4.5,6.2-7.18,5.96-9.12,3.53-21.17-5.47-25.42ZM306.98,35.72c3.41-5.84,6.2-11.19,10.95-15.45,1.22-1.09,2.43-2.68,3.41-3.41.73-.61,2.19-.85,3.04-1.34.97-.61,1.46-1.7,2.07-2.07,9.97-5.6,23.84-3.04,28.59,4.87,5.35,8.76,1.82,19.95-.97,28.83-1.95,5.96-4.01,11.92-6.93,15.08-9.97-1.58-20.68-4.87-29.56-8.64-3.65-1.46-7.18-1.95-8.64-5.47-1.95-.49-4.14-.61-5.47-1.7-.24-3.65,1.58-7.42,3.53-10.7ZM150.91,39.49c2.68-4.26,12.77-14.6,19.58-15.81,2.8-.49,4.87-.12,8.88-.36,11.92-.73,26.4,5.35,31.26,12.41,4.14,5.84,6.33,17.03,3.41,27.13-1.46,5.11-2.92,7.66-5.47,11.31-2.31,3.28-5.72,8.27-8.64,10.7-11.56,9.73-32.36,12.89-45.74,2.43-4.5-3.53-9-9.97-10.7-15.45-3.04-10.95,2.31-23.96,7.42-32.36ZM82.92,125.01c-1.7-1.95-3.41-4.74-4.14-7.54,18.85,3.41,31.26-2.68,39.53-13.75,2.55-3.41,4.38-7.91,7.18-11.31,1.58-1.95,8.39-9.49,11.68-8.88h.36c3.28,2.07,4.38,5.96,6.81,8.64,2.07,2.07,5.84,4.26,8.88,6.2,3.16,1.95,7.06,3.89,10.34,4.87,1.7.49,3.77.24,5.47.97,2.43,1.22,6.08,5.96,6.93,8.64,2.19,7.06,1.34,18.73-1.7,25.42-7.66,16.79-35.15,25.91-32.6,46.71.73,5.84,3.89,11.31,6.93,14.84,3.04,3.65,7.91,6.2,9.61,11.31-16.91.85-25.79-8.39-32.97-18.25-1.7-2.31-3.77-4.74-5.11-6.93-5.47-8.51-8.03-22.63-8.27-33.33-.36-13.02,4.38-28.95,10.34-36.49,4.38-5.47,10.83-7.54,15.45-12.41-.97-3.41-3.41-5.6-6.2-5.47-4.62.12-7.42,6.69-11.68,6.93-2.19,2.68-4.26,5.35-6.93,7.54-1.34,4.62-4.74,9.49-6.2,14.11-.85,2.8-.49,5.35-2.43,6.57-1.82,1.09-6.81.61-8.88,0-4.01-1.34-10.22-5.96-12.41-8.39ZM107,179.99c-3.28-.97-6.45-2.07-8.88-3.77.12-5.47-1.58-9.49-2.43-13.02,2.31-2.92,2.8-7.79,6.57-9.24,1.7.85,1.58,4.26,1.7,7.18.24,6.93,1.7,13.99,3.04,18.85ZM83.52,167.34c4.01,1.7,4.62,9.61,2.43,14.48-2.19.73-3.89-.73-6.2-.97-5.23-.73-10.46,1.34-14.84,1.7-2.31-7.06,11.8-18.25,18.61-15.21ZM76.71,189.96c2.43.73,6.93,5.47,5.47,9.24-1.7,4.38-8.64,2.19-13.75,3.04-2.92.49-4.14,2.55-6.93,2.8-4.74-7.42,8.03-17.27,15.21-15.08ZM72.21,230.59c-4.5-.49-9.97-4.01-8.64-10.95.73-3.41,8.88-9.73,12.77-9.61,5.23.12,6.45,4.99,8.64,8.88-1.34,6.69-5.96,12.41-12.77,11.68ZM89.73,333.02c-4.5,1.09-6.69,4.38-11.31,5.11-1.34-2.07-2.19-4.62-2.8-7.54,3.89-3.04,13.5-4.5,14.11,2.43ZM20.39,346.4c-1.22-8.64-5.47-19.58-5.11-28.83.24-6.69,4.87-12.89,11.31-13.75,3.28-.49,8.27.97,8.64,3.41.36,2.31-2.31,3.41-3.41,5.47-3.28,6.2-2.43,16.91-1.7,26.52.97,12.53,8.39,23.48,9.61,32.97-10.22-4.87-14.48-15.69-19.34-25.79ZM91.19,352.6c-2.07,2.19-3.04,5.47-2.8,9.97-5.35,4.38-12.04,8.51-16.79,14.11-2.31,2.68-5.47,10.1-9.24,10.34-3.65.24-5.6-5.47-7.91-9.61-2.31-4.26-4.01-8.27-5.47-12.04-3.16-7.91-7.54-18.49-8.64-26.15-.97-6.81-1.46-16.79,1.34-21.65,4.14-7.3,10.83-5.84,16.18,0,3.41,3.77,7.79,12.89,9.97,18.85,2.19,5.96.61,17.88,7.54,18.61,4.26.36,5.23-2.43,7.18-6.2,4.14-1.22,8.51-7.42,15.08-8.64,4.38-.73,10.83.49,10.7-4.87-.12-2.92-2.92-3.04-4.5-5.11-.97-3.53-3.41-5.47-5.84-7.54-2.43-6.2-7.3-11.56-9.61-18.61-1.82-5.47-2.07-11.56-4.87-16.79-1.82-15.45-5.96-31.51-3.77-48.78,1.82-1.09,3.77-1.46,5.47-2.43,5.35-2.92,12.16-13.5,8.88-22.38-.85-2.43-4.01-4.99-4.14-7.18-.12-2.68,2.92-5.84,3.04-9.24.24-4.14-3.16-8.03.73-9.97,5.72,2.31,11.56,4.5,18.85,5.11,7.66,10.1,14.6,20.07,28.22,25.42,8.76,3.41,17.88,3.04,28.59,1.7,2.31-1.46,3.65-3.53,3.41-6.2-.24-3.04-2.92-4.01-4.87-6.2-2.8-3.28-5.96-8.64-8.88-11.68,3.04-1.58,5.96-3.16,10.34-3.41,4.01-2.8,9.85-4.74,14.84-7.18,4.5-2.19,9.49-7.18,14.11-10.34,3.04-2.07,11.8-7.54,12.04-12.04.12-4.01-4.5-6.93-7.18-6.93-3.53.12-4.99,3.77-7.18,6.2-3.89,4.38-9.49,8.39-15.45,12.04-9.12,5.6-15.81,10.1-28.22,9.97.85-13.38,13.62-18.98,22.02-27.49,3.89-3.89,8.27-9.37,10.34-14.48,4.74-11.56,3.41-26.88-1.34-38.44,22.14-5.96,37.83-20.07,42.33-42.57,10.83-4.38,23.36-6.93,35.4-7.54,11.31-.61,23.6,3.04,35.03,3.77,1.95.12,3.77-.24,5.47,0,4.38.61,9.12,4.38,14.11,6.57,9.24,4.14,18.85,6.45,30.53,8.64,7.66,7.91,18.98,12.29,24.45,22.38,4.14,3.77,8.51,8.03,12.04,12.77.97,1.34,1.34,3.28,2.43,4.87,1.82,2.55,4.5,4.62,5.84,7.18,1.82,3.41,3.53,7.06,5.11,10.7,1.7,3.65,3.41,7.06,5.11,10.7,6.2,13.02,9.85,28.1,10.95,43.3.36,5.23.24,11.19,0,17.15-.24,5.84-2.92,11.68-.73,17.88-18.85,19.95-40.51,36.86-60.46,55.71-11.68,10.95-23.96,21.9-36.13,32.97-32.36,29.44-65.2,58.39-99.99,85.27-9.49-.73-18.25.73-26.15-1.34-3.41-.85-6.69-3.28-9.97-4.5-1.46-.49-2.8-.24-4.14-.73-5.6-1.95-11.8-5.35-17.15-8.64-14.6-8.88-29.68-16.42-44.4-25.79-1.34-.85-2.31-2.31-3.41-2.8-7.66-3.04-12.41,3.28-18.49,3.28ZM166.73,405.15c-9-4.62-18.61-10.58-28.22-15.45-4.14-2.07-8.27-4.74-12.77-6.57-4.01-1.7-8.76-3.16-13.38-5.84-6.57-3.77-13.14-6.2-13.75-14.48,4.26-8.15,12.89-1.46,18.61,2.07,24.45,15.33,52.55,30.53,76.63,44.64-1.34,3.28-4.99,4.14-7.18,6.57-4.5-4.5-13.5-7.66-19.95-10.95ZM184.97,445.05c-17.64,14.6-34.79,30.78-54.01,44.4-2.55,2.55-5.11,5.23-8.64,6.93-2.8,6.57-13.99,9-19.22,3.04-1.58-1.82-1.22-4.14-3.04-5.84,11.56-8.88,24.45-16.3,34.67-26.52,21.53-13.99,40.63-30.41,60.46-46.1,1.22,3.77,3.04,7.06,6.93,8.27-5.11,5.72-11.19,10.95-17.15,15.81ZM200.42,424.49c-2.19-5.35,5.6-11.07,10.34-7.54-.61,5.11-4.14,9.12-10.34,7.54ZM320.12,480.08c2.8,1.95,11.31,6.93,11.31,10.34,0,2.31-4.26,5.23-6.2,5.47-4.99.61-9-3.16-13.38-5.11-4.74-2.19-8.88-4.14-11.68-6.93-1.58.24-1.95-.73-3.41-.73-25.91-18.61-56.93-31.99-84.18-49.14,2.8-2.92,6.2-7.06,9.61-8.27,9.97,3.65,18.98,10.1,28.83,14.84,9.24,4.38,18.73,9.73,28.22,15.08,10.83,6.2,22.75,13.5,34.06,20.68,1.95,1.34,4.5,2.19,6.81,3.77ZM261.24,404.54c2.8-.85,5.84-.24,8.88-.73,3.28-.49,6.93-2.55,10.34-3.04,1.46-.24,2.55.36,3.77,0,4.26-1.09,7.91-4.62,12.04-5.11h.73c-.12,18-.97,38.68-1.7,57.78-14.84-6.57-28.1-16.06-42.57-22.99-7.42-3.65-14.84-7.06-21.65-11.68,2.92-4.01,7.3-6.45,10.95-9.61,3.41.12,7.3,0,10.7-.73,3.16-.85,5.6-3.16,8.51-3.89ZM259.9,394.57c11.68-11.43,25.67-20.68,37.47-31.99h.73c0,7.18.12,13.5-.73,19.22-10.34,6.93-23.11,10.46-37.47,12.77ZM303.57,442.25c.12-1.34.85-2.8.97-4.14.61-6.08-.12-13.26,0-20.31.24-11.31,1.46-23.23,1.7-36.49.12-6.69.49-12.65.97-18.85.24-2.8-.61-5.72,0-7.91.85-2.68,4.01-3.28,5.84-5.47h.73c0,26.03-1.7,51.94-3.77,78.34-.85,11.07,0,22.38-1.7,33.33-1.95.24-4.26-1.82-6.2-2.8,2.07-4.74.97-10.46,1.46-15.69ZM394.32,293.12c-4.99,10.22-11.19,19.95-18.25,28.83-2.55,3.16-5.47,5.84-8.27,8.88-2.68,3.04-4.87,6.69-7.54,9.61-2.68,3.04-5.96,5.47-9.24,8.27-9,7.54-18,16.91-29.19,21.65.73-9,2.07-20.19,1.7-30.29,25.3-23.6,52.06-45.86,78.7-68,.36,0,.61.12.73.36-2.19,7.66-5.35,14.11-8.64,20.68ZM475.46,208.94c-6.45,9.61-12.16,19.58-18.85,29.19-2.07,2.92-4.01,6.45-6.2,8.88-8.64,9.85-16.79,22.14-25.42,32.6-7.91,9.61-16.54,18.61-25.42,26.76,2.43-2.92,3.77-7.79,5.84-12.04,1.22-2.55,3.04-4.14,3.77-6.57.36-1.22.24-2.55.73-3.77,1.58-4.01,4.38-7.54,5.47-11.68.36-1.22,0-2.43.36-3.77.61-2.43,2.55-4.87,2.8-7.18,0-.61-.49-2.07-.36-2.8.49-1.7,4.74-5.35,7.18-7.54,18.25-16.18,35.28-35.88,52.91-51.21.36,0,.61.12.73.36-.36,3.89-3.28,4.99-3.53,8.76ZM496.74,164.54c-2.19,4.14-5.84,6.81-7.91,10.95-3.28,2.07-5.72,5.11-8.27,7.91-2.55,2.8-5.35,5.35-8.27,7.91-5.84,4.99-10.95,10.58-16.54,15.81-11.07,10.46-20.92,22.26-31.99,32.6-11.07,10.34-22.38,20.56-34.06,30.65-5.72,4.99-12.16,9.37-17.88,14.48-5.6,4.99-11.07,10.34-16.79,15.08-23.36,19.46-46.1,39.78-68.73,60.21-11.31,10.22-23.48,19.58-35.4,29.19-11.8,9.61-23.23,19.71-35.4,28.83-1.34-3.41-4.01-5.6-7.54-6.93,22.99-20.56,47.56-39.41,71.89-59.85,11.8-9.85,22.38-21.41,34.67-31.26,11.92-9.61,23.11-20.56,34.67-30.9,11.43-10.22,22.87-21.04,34.42-31.63,11.56-10.58,23.96-20.07,34.42-31.26,5.35-5.72,10.58-11.43,16.18-16.79,5.47-5.35,11.43-10.1,17.15-15.81,5.35-5.23,11.19-10.7,17.15-15.81,6.08-5.11,10.95-11.8,16.91-15.81,2.07-1.34,4.87-3.04,6.81-4.14,3.53-1.82,5.72,3.28,4.5,6.57Z"/>
  <path class="cls-7" d="M309.05,48.01c1.46,3.53,4.99,4.01,8.64,5.47,8.88,3.65,19.58,7.06,29.56,8.64,2.8-3.28,4.99-9.12,6.93-15.08,2.8-8.88,6.33-20.07.97-28.83-4.74-7.79-18.61-10.46-28.59-4.87-.61.36-1.09,1.46-2.07,2.07-.85.61-2.31.73-3.04,1.34-1.09.85-2.19,2.31-3.41,3.41-4.87,4.26-7.66,9.61-10.95,15.45-1.95,3.41-3.77,7.18-3.41,10.7,1.22,1.09,3.53,1.22,5.35,1.7Z"/>
  <path class="cls-6" d="M154.44,87.18c13.38,10.46,34.18,7.42,45.74-2.43,2.92-2.43,6.2-7.3,8.64-10.7,2.55-3.65,4.01-6.33,5.47-11.31,2.92-10.22.61-21.29-3.41-27.13-4.87-7.06-19.34-13.14-31.26-12.41-4.01.24-6.08-.12-8.88.36-6.81,1.22-16.91,11.56-19.58,15.81-5.23,8.39-10.46,21.53-7.18,32.36,1.46,5.47,5.96,12.04,10.46,15.45Z"/>
  <path class="cls-3" d="M109.68,349.19c1.09.49,2.07,1.82,3.41,2.8,14.6,9.37,29.8,16.91,44.4,25.79,5.35,3.28,11.56,6.69,17.15,8.64,1.34.49,2.68.24,4.14.73,3.28,1.22,6.57,3.53,9.97,4.5,7.91,2.07,16.66.61,26.15,1.34,34.79-26.88,67.75-55.83,99.99-85.27,12.16-11.07,24.33-22.02,36.13-32.97,20.07-18.73,41.72-35.76,60.46-55.71-2.19-6.2.49-12.04.73-17.88.24-5.96.36-11.92,0-17.15-1.09-15.21-4.74-30.29-10.95-43.3-1.7-3.65-3.53-7.06-5.11-10.7-1.58-3.53-3.41-7.3-5.11-10.7-1.34-2.55-4.01-4.62-5.84-7.18-1.09-1.46-1.34-3.53-2.43-4.87-3.53-4.62-7.91-9-12.04-12.77-5.47-10.1-16.67-14.48-24.45-22.38-11.8-2.07-21.29-4.5-30.53-8.64-4.87-2.19-9.73-5.84-14.11-6.57-1.7-.24-3.65.12-5.47,0-11.43-.73-23.72-4.38-35.03-3.77-12.04.73-24.57,3.28-35.4,7.54-4.38,22.5-20.19,36.61-42.33,42.57,4.74,11.68,6.08,26.88,1.34,38.44-2.07,5.11-6.45,10.46-10.34,14.48-8.27,8.51-21.04,14.11-22.02,27.49,12.29.12,19.1-4.38,28.22-9.97,5.96-3.65,11.56-7.66,15.45-12.04,2.19-2.43,3.65-6.08,7.18-6.2,2.68-.12,7.42,2.92,7.18,6.93-.24,4.5-9,9.97-12.04,12.04-4.5,3.16-9.61,8.03-14.11,10.34-4.99,2.43-10.7,4.5-14.84,7.18-4.26.24-7.3,1.82-10.34,3.41,2.92,3.04,6.08,8.39,8.88,11.68,1.82,2.07,4.62,3.16,4.87,6.2.24,2.68-1.09,4.74-3.41,6.2-10.58,1.34-19.71,1.7-28.59-1.7-13.62-5.35-20.56-15.33-28.22-25.42-7.42-.61-13.26-2.8-18.85-5.11-3.77,1.95-.49,5.84-.73,9.97-.12,3.41-3.28,6.57-3.04,9.24.12,2.19,3.28,4.87,4.14,7.18,3.28,8.88-3.65,19.46-8.88,22.38-1.7.97-3.65,1.34-5.47,2.43-2.19,17.27,1.95,33.33,3.77,48.78,2.8,5.35,3.04,11.43,4.87,16.79,2.31,6.93,7.18,12.29,9.61,18.61,2.43,2.07,4.87,4.14,5.84,7.54,1.58,2.07,4.38,2.19,4.5,5.11.12,5.35-6.33,4.01-10.7,4.87-6.57,1.09-11.07,7.42-15.08,8.64-1.95,3.77-2.92,6.57-7.18,6.2-6.93-.61-5.35-12.53-7.54-18.61-2.19-6.08-6.57-15.08-9.97-18.85-5.23-5.84-11.92-7.3-16.18,0-2.8,4.87-2.31,14.84-1.34,21.65,1.09,7.54,5.47,18.25,8.64,26.15,1.46,3.77,3.16,7.79,5.47,12.04,2.31,4.14,4.26,9.85,7.91,9.61,3.77-.24,6.93-7.54,9.24-10.34,4.74-5.6,11.56-9.61,16.79-14.11-.24-4.5.61-7.79,2.8-9.97,6.08.12,10.83-6.2,18.49-3.28ZM166.12,237.41c1.22-9,11.8-13.38,20.68-15.08-1.7-3.65-6.33-12.41-5.11-18.85.85-4.62,7.42-9.12,12.41-9.24,5.11-.24,9.49,2.8,13.02,4.87,2.31-4.26,3.53-9.49,6.2-13.38,9.73-8.15,28.95-2.43,31.26,9.61,1.7,9.24-2.8,17.27-5.84,23.72,2.19,5.35,11.19,9.24,14.11,13.75,1.95,2.92,1.7,8.27-2.43,8.88-4.74.85-8.15-4.38-11.31-7.91-4.26-4.74-9.12-6.81-11.31-11.31-2.8-5.72.49-6.81,3.04-10.95,2.43-3.77,6.33-14.72,3.41-18.25-2.43-3.04-9.24-2.92-12.04-.97-2.43,1.7-4.87,6.08-5.11,8.88-.73,6.2,2.68,9.37,3.04,16.18-4.99,6.69-8.27-1.82-12.04-6.2-4.74-5.47-10.1-10.34-16.18-4.14-.12,1.82.24,5.23.73,6.93.61,1.95,3.16,6.45,5.47,8.27,3.16,2.55,9.97,3.53,8.88,8.88-.24,1.22-2.31,3.28-4.14,3.41-2.8.24-4.5-2.8-8.88-3.04-6.2-.36-19.58,3.28-17.15,11.68.61,2.19,3.28,3.28,4.87,3.41,4.5.36,10.22-4.74,14.11-5.11,3.53-.36,8.76,2.07,7.91,6.57-.73,3.77-6.33,3.77-10.7,6.2-3.89,2.19-9.12,7.42-8.27,13.75.36,2.31,4.38,6.57,7.18,6.93,5.72.61,15.57-5.72,18.25-8.64,3.16-3.41,4.87-7.79,3.77-14.48,1.58-2.8,6.69-2.19,9.61-.97,4.01,4.74,9.49,9.85,13.75,15.45,1.82,2.43,3.77,4.87,3.77,7.18,0,5.35-6.08,6.57-9.61,3.04-3.04-2.92-3.41-9.61-7.54-10.95-3.28,3.28-4.99,6.93-8.88,9.97-9.12,6.81-23.6,12.41-34.06,3.04-6.2-5.47-9.37-13.87-4.14-23.36-5.6-4.14-11.92-8.88-10.7-17.76Z"/>
  <path d="M290.44,120.99c5.96-1.46,11.43-5.23,16.54-7.3,3.77-4.26-.49-10.1-4.26-10.22-3.28-.12-4.01,3.65-6.33,4.87-.61.36-1.34,0-2.43.36-1.7.49-3.77,2.31-5.72,2.68-3.04.73-8.03.85-10.83,0-5.72-1.82-7.91-9.49-3.89-14.84,1.22-1.58,5.47-4.14,8.39-5.11,1.58-.49,3.41-.12,4.87-.85,4.26-2.43.12-8.39-3.65-8.76-4.74-.36-10.22,4.62-13.26,4.87-4.14,4.14-7.66,8.64-7.91,15.45-.36,14.72,15.21,22.02,28.46,18.85Z"/>
  <path class="cls-4" d="M104.2,133.28c1.95-1.22,1.58-3.77,2.43-6.57,1.46-4.62,4.87-9.49,6.2-14.11,2.68-2.19,4.74-4.87,6.93-7.54,4.26-.12,7.06-6.81,11.68-6.93,2.8-.12,5.23,2.07,6.2,5.47-4.62,4.87-11.07,6.81-15.45,12.41-5.96,7.42-10.7,23.48-10.34,36.49.24,10.7,2.8,24.82,8.27,33.33,1.34,2.19,3.53,4.62,5.11,6.93,7.18,9.85,16.06,19.1,32.97,18.25-1.7-5.11-6.57-7.66-9.61-11.31-2.92-3.53-6.2-8.88-6.93-14.84-2.55-20.8,24.94-30.05,32.6-46.71,3.04-6.69,3.89-18.37,1.7-25.42-.85-2.55-4.38-7.42-6.93-8.64-1.7-.85-3.77-.49-5.47-.97-3.16-.97-7.18-2.8-10.34-4.87-3.16-1.95-6.93-4.14-8.88-6.2-2.55-2.68-3.65-6.45-6.81-8.64h-.36c-3.28-.49-10.1,7.06-11.68,8.88-2.92,3.41-4.74,8.03-7.18,11.31-8.27,11.07-20.68,17.15-39.53,13.75.73,2.8,2.31,5.6,4.14,7.54,2.19,2.43,8.39,7.06,12.41,8.27,2.07.73,7.06,1.22,8.88.12Z"/>
  <path class="cls-3" d="M102.13,153.96c-3.77,1.58-4.26,6.33-6.57,9.24.73,3.65,2.55,7.54,2.43,13.02,2.55,1.7,5.72,2.8,8.88,3.77-1.34-4.87-2.68-11.92-3.04-18.85-.12-2.92,0-6.33-1.7-7.18Z"/>
  <path class="cls-5" d="M492.24,158.09c-2.07,1.09-4.87,2.8-6.81,4.14-5.96,4.01-10.7,10.7-16.91,15.81-5.96,5.11-11.92,10.58-17.15,15.81-5.72,5.72-11.68,10.46-17.15,15.81-5.6,5.47-10.83,11.19-16.18,16.79-10.46,11.19-22.87,20.68-34.42,31.26-11.56,10.58-22.99,21.41-34.42,31.63-11.68,10.34-22.75,21.29-34.67,30.9-12.29,9.85-22.87,21.41-34.67,31.26-24.33,20.31-48.9,39.29-71.89,59.85,3.53,1.34,6.2,3.41,7.54,6.93,12.16-9.12,23.6-19.34,35.4-28.83,11.92-9.61,24.09-18.98,35.4-29.19,22.63-20.44,45.37-40.63,68.73-60.21,5.72-4.74,11.19-10.1,16.79-15.08,5.72-5.11,12.16-9.49,17.88-14.48,11.56-10.1,22.99-20.19,34.06-30.65,11.07-10.46,20.92-22.26,31.99-32.6,5.6-5.23,10.7-10.83,16.54-15.81,2.92-2.55,5.72-5.11,8.27-7.91,2.55-2.8,4.99-5.84,8.27-7.91,2.07-4.14,5.72-6.93,7.91-10.95,1.22-3.41-.97-8.51-4.5-6.57Z"/>
  <path class="cls-3" d="M79.75,180.72c2.31.36,4.01,1.82,6.2.97,2.19-4.87,1.58-12.65-2.43-14.48-6.93-3.04-20.92,8.15-18.61,15.08,4.38-.24,9.61-2.31,14.84-1.58Z"/>
  <path d="M176.7,254.92c-5.23,9.49-2.07,17.88,4.14,23.36,10.46,9.37,24.94,3.77,34.06-3.04,4.01-3.04,5.72-6.69,8.88-9.97,4.14,1.34,4.62,8.15,7.54,10.95,3.53,3.53,9.61,2.19,9.61-3.04,0-2.43-1.95-4.74-3.77-7.18-4.26-5.6-9.73-10.7-13.75-15.45-2.92-1.22-8.03-1.7-9.61.97,1.09,6.57-.61,10.95-3.77,14.48-2.68,2.8-12.53,9.24-18.25,8.64-2.92-.36-6.93-4.62-7.18-6.93-.97-6.33,4.38-11.56,8.27-13.75,4.26-2.43,9.97-2.43,10.7-6.2.85-4.5-4.38-6.93-7.91-6.57-3.89.36-9.61,5.47-14.11,5.11-1.58-.12-4.14-1.22-4.87-3.41-2.31-8.51,10.95-12.04,17.15-11.68,4.38.24,6.08,3.28,8.88,3.04,1.82-.12,3.89-2.31,4.14-3.41.97-5.35-5.72-6.45-8.88-8.88-2.31-1.82-4.87-6.33-5.47-8.27-.49-1.58-.85-4.99-.73-6.93,6.08-6.33,11.43-1.34,16.18,4.14,3.77,4.38,7.06,12.89,12.04,6.2-.36-6.81-3.77-9.97-3.04-16.18.36-2.8,2.68-7.18,5.11-8.88,2.8-1.95,9.61-1.95,12.04.97,2.8,3.53-.97,14.48-3.41,18.25-2.68,4.14-5.96,5.23-3.04,10.95,2.19,4.5,7.06,6.57,11.31,11.31,3.16,3.53,6.57,8.76,11.31,7.91,4.14-.73,4.26-5.96,2.43-8.88-2.92-4.5-11.92-8.39-14.11-13.75,3.04-6.45,7.54-14.48,5.84-23.72-2.31-12.04-21.53-17.76-31.26-9.61-2.68,3.89-3.89,9.12-6.2,13.38-3.53-1.95-8.03-4.99-13.02-4.87-4.87.24-11.56,4.62-12.41,9.24-1.22,6.57,3.41,15.33,5.11,18.85-8.88,1.7-19.46,6.2-20.68,15.08-1.09,9.12,5.23,13.87,10.7,17.76Z"/>
  <path class="cls-3" d="M82.19,199.33c1.46-3.77-3.04-8.51-5.47-9.24-7.06-2.31-19.95,7.66-15.08,15.08,2.8-.24,4.01-2.19,6.93-2.8,4.99-.97,11.92,1.22,13.62-3.04Z"/>
  <path class="cls-3" d="M84.98,218.92c-2.07-4.01-3.41-8.76-8.64-8.88-3.77-.12-12.04,6.2-12.77,9.61-1.34,6.93,4.14,10.58,8.64,10.95,6.81.73,11.43-4.99,12.77-11.68Z"/>
  <path class="cls-3" d="M402.23,272.2c-26.76,22.26-53.4,44.52-78.7,68,.36,10.1-.97,21.29-1.7,30.29,11.19-4.74,20.19-14.11,29.19-21.65,3.28-2.8,6.57-5.23,9.24-8.27,2.68-2.92,4.87-6.57,7.54-9.61,2.68-3.04,5.72-5.72,8.27-8.88,7.06-9,13.14-18.61,18.25-28.83,3.28-6.57,6.45-13.02,8.64-20.68-.12-.36-.36-.49-.73-.36Z"/>
  <path class="cls-3" d="M31.7,312.7c1.09-2.07,3.77-3.16,3.41-5.47-.36-2.55-5.23-3.89-8.64-3.41-6.57.85-11.07,7.06-11.31,13.75-.36,9.24,3.89,20.19,5.11,28.83,4.99,9.97,9.12,20.92,19.22,25.79-1.22-9.49-8.64-20.44-9.61-32.97-.61-9.61-1.46-20.31,1.82-26.52Z"/>
  <path class="cls-3" d="M89.73,333.02c-.73-6.93-10.22-5.47-14.11-2.43.49,2.92,1.34,5.47,2.8,7.54,4.74-.85,6.93-4.01,11.31-5.11Z"/>
  <path class="cls-5" d="M308.44,460.86c1.7-10.95.85-22.26,1.7-33.33,2.07-26.52,3.77-52.31,3.77-78.34h-.73c-1.82,2.31-5.11,2.8-5.84,5.47-.61,2.19.24,5.11,0,7.91-.49,6.2-.85,12.16-.97,18.85-.24,13.14-1.46,25.06-1.7,36.49-.12,6.93.61,14.11,0,20.31-.12,1.34-.85,2.8-.97,4.14-.49,5.23.61,10.95-1.34,15.81,1.7.85,4.14,2.92,6.08,2.68Z"/>
  <path class="cls-5" d="M193.97,409.65c-24.09-14.23-52.18-29.32-76.63-44.64-5.72-3.53-14.23-10.22-18.61-2.07.61,8.27,7.18,10.7,13.75,14.48,4.62,2.68,9.37,4.14,13.38,5.84,4.5,1.82,8.51,4.38,12.77,6.57,9.61,4.87,19.22,10.83,28.22,15.45,6.45,3.28,15.33,6.33,19.95,10.95,2.07-2.43,5.84-3.28,7.18-6.57Z"/>
  <path class="cls-3" d="M298.1,362.58h-.73c-11.8,11.31-25.79,20.56-37.47,31.99,14.23-2.31,27.13-5.84,37.47-12.77.85-5.72.73-12.04.73-19.22Z"/>
  <path class="cls-2" d="M200.42,424.49c6.2,1.58,9.73-2.43,10.34-7.54-4.74-3.65-12.41,2.07-10.34,7.54Z"/>
  <path class="cls-5" d="M195.31,420.96c-19.95,15.57-38.93,32.11-60.46,46.1-10.22,10.1-23.23,17.64-34.67,26.52,1.82,1.7,1.46,4.01,3.04,5.84,5.23,5.84,16.42,3.41,19.22-3.04,3.53-1.7,5.96-4.26,8.64-6.93,19.22-13.62,36.25-29.68,54.01-44.4,5.96-4.87,12.04-10.1,17.15-15.81-3.89-1.22-5.72-4.5-6.93-8.27Z"/>
  <path class="cls-5" d="M279.12,455.75c-9.49-5.35-18.85-10.7-28.22-15.08-9.85-4.62-18.98-11.07-28.83-14.84-3.41,1.22-6.81,5.35-9.61,8.27,27.37,17.15,58.39,30.53,84.18,49.14,1.46-.12,1.82.85,3.41.73,2.8,2.68,6.93,4.74,11.68,6.93,4.5,2.07,8.39,5.84,13.38,5.11,1.95-.24,6.2-3.16,6.2-5.47-.12-3.41-8.64-8.39-11.31-10.34-2.31-1.58-4.74-2.43-6.93-3.77-11.07-7.3-23.11-14.6-33.94-20.68Z"/>
</svg>