<?xml version="1.0" encoding="UTF-8"?>
<svg id="Layer_1" data-name="Layer 1" xmlns="http://www.w3.org/2000/svg" viewBox="0 0 512 512">
  <defs>
    <style>
      .cls-1 {
        fill: #1c1c1c;
      }

      .cls-2 {
        fill: #269fda;
      }

      .cls-3 {
        fill: #fff;
      }

      .cls-4 {
        fill: #cc0d5d;
      }
    </style>
  </defs>
  <g id="r3WNac">
    <g>
      <path class="cls-1" d="M281.76.04c79.69.03,138.45,44.17,163.43,121.83,7.6,23.64,11.26,47.96,12.26,72.7.16,3.86,1.14,6.77,4.12,9.2,5.21,4.27,10.06,8.99,15.44,13.01,26.9,20.11,25.14,56.04,3.77,77.07-9.22,9.07-19.92,15.74-31.85,20.41-3.1,1.21-4.71,2.99-6.1,5.84-25.53,52.51-65.4,88.82-121.3,106.87-3.27,1.06-3.57,2.58-4.07,6.11-1.35,9.5,4.92,8.42,10.44,9.46,14.13,2.67,26.57,8.72,36.35,19.5,11.54,12.7,12.51,27.87,3.03,40.9-2.61,3.59-5.95,4.93-10.14,6.06-15.24,4.12-29.81-.56-44.44-3-15.99-2.67-31.75-6.7-47.59-10.26-3.57-.8-6.68-.72-10.11,1.05-17.86,9.21-37.17,13.8-56.99,15.12-12.4.83-23.85-4.15-33.33-12.4-5.33-4.64-5.28-10.79-2.83-17.02,3.3-8.41,9.87-13.94,17.03-18.83,11.65-7.96,24.46-13.55,37.88-17.7,3.56-1.1,4.49-2.23,1.93-5.37-1.13-1.39-2.33-3.46-2.15-5.06.69-5.84-3.14-5.82-7.11-6.56-36.12-6.74-68.94-20.5-96.31-45.72-20.41-18.81-35.27-41.48-46.14-66.84-1.68-3.93-3.7-5.7-7.9-6.35-23.89-3.7-39.25-18.75-43.76-42.54-1.09-5.73.83-11.13,2.44-16.47,4.4-14.66,12.7-27.21,23.44-37.72,8.25-8.08,11.34-17.36,13.43-28.32,12.55-65.84,45.15-118.46,103.87-152.99C190.11,13.43,224.69,4.06,261.11,1.07c7.27-.6,14.54-1.24,20.65-1.03Z"/>
      <path class="cls-2" d="M305.96,28.1c5.07,11.72,10.17,22.68,16.68,32.97,20.88,32.94,50.3,55.35,85.9,70.19,6.88,2.87,13.94,5.39,21.07,7.58,3.3,1.01,4.93,2.76,5.85,5.89,2.01,6.86,3.24,13.83,3.12,20.97-.37,21.95,2.99,43.63,4.77,65.41,4.58,56.02-14.04,102.87-54.99,140.9-22.91,21.28-49.78,35.56-80.4,42.39-4.26.95-5.48,2.66-5.68,7.02-.44,9.71-.91,19.42-1.12,29.14-.08,3.82.59,5.43,5.07,5.74,12.29.85,24.57,2.23,36.28,6.56,3.38,1.25,6.42,2.99,9.34,5.05,7.33,5.18,9.2,15.16,1.38,22.92-6.99,6.93-13.54,4.19-20.43,3.26-20.54-2.78-41.08-5.7-60.54-13.53-4.17-1.68-5.48-4.05-5.64-8.36-.53-13.64.77-27.33-.95-40.93-.42-3.32-1.2-6.59-1.65-9.91-.54-4.02-2.97-4.86-6.65-4.95-4.21-.1-4.87,2.45-5.46,5.57-2.03,10.79-1.18,21.61-.49,32.43.46,7.27,1.11,14.53,1.6,21.8.12,1.82.42,3.75-1.73,4.9-20.65,11.09-41.93,19.09-65.92,12.98-8.29-2.11-8.5-2.89-4.72-10.56,4.44-8.99,12.24-14,21.29-17.09,9.18-3.13,18.51-5.84,27.88-8.34,5.14-1.37,6.52-4.34,5.23-9.04-1.33-4.86-2.84-9.66-4.24-14.5-.88-3.04-2.49-6.13-2.4-9.15.23-7.67-4.24-8.91-10.49-9.88-30.01-4.66-57.85-15.18-82.43-33.19-34.59-25.35-55.8-59.21-63.08-101.66-3.35-19.51-6.1-39.08-8.05-58.78-.15-1.47-.12-3.4-1-4.29-4.65-4.72-2.06-9.54-.6-14.4,5.48-18.23,8.84-37.06,15.32-55.01,3.18-8.81,7.11-17.24,12.35-25.09,2.05-3.07,4.27-3.98,7.79-3.91,32,.65,63.36-3.39,93.87-13.28,44.74-14.5,82.21-39.7,111.97-76.23.34-.42.83-.71,1.87-1.59Z"/>
      <path class="cls-2" d="M281.29,31.62c-7.37,10.86-17,19.37-27.18,27.27-31.45,24.44-67.19,38.7-106.45,44.57-13.49,2.02-27.03,3.29-40.67,3.25-1.74,0-3.99.89-5.1-1.11-1.19-2.16.6-3.88,1.65-5.57,1.68-2.69,3.83-5.13,5.22-7.96,1.46-2.95,3.75-3.97,6.66-4.17,51.02-3.62,97.37-22.09,142.42-44.69,7.79-3.91,15.62-7.73,23.44-11.59Z"/>
      <path class="cls-2" d="M276.85,24.86c-13.19,9.31-27.4,16.62-41.89,23.35-34.41,15.99-70.4,26.97-107.76,33.5-.18.03-.37.12-.55.1-2.29-.17-5.38,1.6-6.66-.82-1.25-2.35,1.15-4.56,2.95-6.09,5.26-4.47,10.45-9.08,16.14-12.96,4.31-2.94,9.84-1.46,14.76-1.99,23.68-2.58,46.26-9.2,68.63-16.93,17.23-5.95,34.2-12.66,51.77-17.6.86-.24,1.74-.39,2.62-.58Z"/>
      <path class="cls-2" d="M430.49,123.09c-.12,4.11-2.78,1.74-4.16,1.19-12.19-4.77-24.13-10.07-35.44-16.73-28.33-16.69-51.44-38.29-65.45-68.66-2.64-5.73-3.28-12.31-7.5-17.35-.84-1-.95-2.18.14-2.92,1.34-.92,2.46-.26,3.21,1.07,1.92,3.41,3.68,6.93,5.8,10.22,15.28,23.62,36.13,41.7,58.44,58.27,11.55,8.58,23.06,17.23,35.91,23.89,4.48,2.32,7.82,5.73,9.04,11.03Z"/>
      <path class="cls-2" d="M327.97,23.5c9.83,4.79,17.67,11.34,25.88,17.31,13.87,10.09,26.79,22.04,41.87,29.79,14.23,7.31,18.61,20.19,26.3,32.03-14.38-.99-81.2-57.32-94.05-79.13Z"/>
      <path class="cls-2" d="M478.83,258.77c-1.26,13.33-5.71,27.32-20.9,35.34-1.74.92-3.91,2.66-5.55,1.32-1.35-1.11-.02-3.44.38-5.25,4.61-20.65,7.81-41.47,6.92-62.73-.06-1.36-.96-3.29.73-3.99,1.44-.6,2.69.91,3.92,1.72,9.23,6.05,14.52,17.44,14.49,33.61Z"/>
      <path class="cls-2" d="M48.61,226.02c1.21,22.56,5.89,43.77,10.46,64.99.85,3.97-1.06,3.65-3.45,3.18-8.6-1.68-14.88-6.55-18.97-14.23-8.4-15.75-2.96-41.86,11.97-53.94Z"/>
      <path class="cls-2" d="M256.52,25.82c-22.42,7.43-44.52,15.87-67.4,21.89-12.47,3.28-25.09,5.77-38.01,7.1,1.98-3.35,6.12-6.28,13.44-9.74,13.13-6.2,27.18-9.22,41.32-11.86,16.08-3,32.21-5.7,48.32-8.52,1.2-.49,2.43-1.04,2.33,1.13Z"/>
      <path class="cls-2" d="M390.2,59.59c-16-8.46-30.1-19.63-43.99-31.15,18.46,3.77,31.48,15.95,44.06,28.83.61.8.55,1.57-.08,2.33Z"/>
      <path class="cls-2" d="M250.75,17.23c-16.35,6.26-33.37,9.71-50.74,11.68,15.92-8.01,32.97-11.28,50.74-11.68Z"/>
      <path class="cls-2" d="M256.52,25.82c-.49-.97-1.45-.96-2.33-1.13,10.16-3.27,20.56-5.79,30.59-9.61-8.66,5.6-18.46,8.18-28.26,10.75Z"/>
      <path class="cls-2" d="M390.2,59.59c.02-.78.05-1.55.07-2.33,2.84.42,3.87,3.06,5.82,4.69-2.48.37-4.21-.94-5.9-2.36Z"/>
      <path class="cls-1" d="M256.6,234.02c23.65.06,38.8-11.48,51.14-27.9,3.59-4.77,6.78-9.86,10.47-14.54,2.83-3.59,1.84-5.63-1.91-7.25-1.02-.44-2.31-.8-2.9-1.61-1.69-2.31-2.89-5.08,1.39-5.75,11.99-1.86,23.57-.71,33.71,6.62,3.48,2.51,5.29,6.3,3.7,10.89-.48,1.39-.69,3.03-2.53,3.33-1.92.31-3.11-.79-4.21-2.2-1.75-2.24-1.99-6.88-5.4-6.28-3.34.59-4,5-5.4,7.97-6.66,14.2-9.3,29.47-11.76,44.8-3.16,19.7-4.83,39.65-10.14,58.98-.64,2.34-1.44,4.64-2.09,6.98-11.63,41.94-52.13,47.73-80.06,35.83-24.85-10.59-37.7-30.04-39.27-57.09-1.08-18.67-.31-37.4-2.25-56.03-1.09-10.43-3.24-20.58-7.46-30.26-1.77-4.06-3.68-4.12-6.34-1-2.06,2.42-4,4.94-6.19,7.23-1.74,1.81-4.11,3.1-6.56,2.1-2.29-.93-1.62-3.54-1.75-5.51-.33-4.96,2.23-8.6,5.81-11.55,7.69-6.34,16.65-8.96,26.56-8.65,4.09.13,5.42,2.35,3.02,5.29-2.45,3-1.43,4.77.38,7.24,10.44,14.23,22.71,26.3,39.11,33.56,7.28,3.22,14.85,5.02,20.91,4.83Z"/>
      <path class="cls-1" d="M253.03,183.5c-13.34.07-21.58-4.99-24.66-14.4-3.31-10.13.21-19.72,9.83-26.91,6.48-4.84,13.65-7.56,21.82-7.52,9.64.04,18.25,4.97,21.02,12.17,3.88,10.1,1.7,21.3-5.64,27.91-6.67,6-14.55,8.98-22.38,8.75Z"/>
      <path class="cls-1" d="M305.53,132.74c-13.37-.04-23-6.61-25.9-17.85-.71-2.75-2.22-5.97,1.42-7.93,3.53-1.9,7.29-2.31,10.41.65,2.42,2.29,4.33,5.11,6.53,7.64,4.56,5.26,9.4,5.44,14.25.34,2.95-3.1,5.56-6.52,8.48-9.65,2.07-2.21,4.65-3.33,7.51-1.4,2.86,1.93,5.17,4.15,4.5,8.23-1.98,12.04-12.74,20.01-27.2,19.97Z"/>
      <path class="cls-1" d="M209.1,135.82c-11.29.01-21.79-6.57-24.93-15.77-.7-2.06-1.9-4.49-.13-6.38,2-2.15,4.79-2.88,7.75-2.12,4.7,1.22,8.76,3.73,11.26,7.8,2.29,3.73,4.76,3.41,7.97,1.85,3.6-1.75,6.34-4.59,9.32-7.12,1.73-1.46,3.47-2.8,5.61-3.6,2.95-1.1,5.68-.29,7.96,1.37,2.45,1.78,1.24,4.37.58,6.69-2.99,10.48-12.96,17.26-25.39,17.28Z"/>
      <path class="cls-3" d="M257.75,285.66c-2.08,15.05-1.04,29.82-1.09,44.56-.01,4.47-.85,5.83-5.65,4.91-12.87-2.48-12.52-2.23-11.66-15.2.82-12.25,1.8-24.6-.47-36.83-.65-3.5,1.17-4.51,3.95-4.36,4.62.26,8.99,1.99,13.72,2.17,2.54.1.27,3.43,1.21,4.76Z"/>
      <path class="cls-3" d="M280.5,296.57c-.21,9.52-.63,19-2.54,28.36-.88,4.3-9.52,9.8-13.69,8.71-1.66-.43-1.37-1.23-1.18-2.42,2.42-15.23.94-30.56.96-45.84,0-3.56.75-5.09,4.75-5.51,11.68-1.22,11.65-1.46,11.71,10.54.01,2.05,0,4.11,0,6.16Z"/>
      <path class="cls-3" d="M232.77,302.61c0,7.3-.15,14.6.06,21.89.12,4.09-1.26,4.4-4.54,2.75-7.33-3.69-10.28-10.19-10.88-17.72-.86-10.84.52-21.63,1.72-32.4.32-2.84,1.49-3.27,3.92-3.03,8.07.79,9.72,2.51,9.72,10.56,0,5.99,0,11.98,0,17.96Z"/>
      <path class="cls-3" d="M287,322.05c-1.62-4.66-1.12-8.55-.77-12.33.9-9.85,1.18-19.72.65-29.58-.19-3.52.39-5.71,4.27-6.06,2.48-.22,4.48-1.66,6.96-3.14,4.85,18.79-.73,34.97-11.1,51.1Z"/>
      <path class="cls-3" d="M258.04,260.25c0,1.87,0,3.73,0,5.6,0,7.58-.54,8.04-7.89,6.74q-11.55-2.05-11.55-13.64v-3.36c0-10.02.09-10.35,9.55-7.88,3.28.86,7.94-1.6,9.56,2.02,1.32,2.96.27,6.97.27,10.52.02,0,.05,0,.07,0Z"/>
      <path class="cls-3" d="M264.72,272.45c1.6-7.44.86-14.5.77-21.53-.04-3.08.3-5.07,4.12-4.68,3.45.35,7.6-3.36,10.02-.68,2.29,2.53.48,7.15.73,10.84.06.93,0,1.87,0,2.8q0,11.66-11.76,12.75c-1.12.1-2.22.29-3.89.51Z"/>
      <path class="cls-3" d="M232.77,256.15c0,.37,0,.74,0,1.12q0,11.89-11.21,8.93c-1.22-.32-1.99-.49-1.59-2.1,1.8-7.11.64-14.46,1.59-21.67.56-4.26,1.42-3.2,4.69-2.1,8.8,2.97,6.16,9.84,6.5,15.82Z"/>
      <path class="cls-3" d="M296.75,234.9c2.2,9.15,1.12,17.24,2.41,25.11.31,1.93-9.26,7.84-10.9,6.91-.67-.38-1.1-1.45-1.32-2.29-1.87-7.2.49-14.44-.12-21.66-.1-1.25.87-1.47,1.76-1.73,3.09-.9,5.55-2.77,8.18-6.35Z"/>
      <path class="cls-3" d="M203.6,227.11c8.67.25,12.71,5.36,11.76,13.03-.64,5.14-.26,10.4-.36,15.6-.06,3.17-.14,7.52-3.47,7.82-3.38.31-3.53-4.32-4-7.01-1.12-6.41.07-12.98-1.09-19.47-.59-3.3-1.23-6.52-2.84-9.97Z"/>
      <path class="cls-3" d="M210.02,298.66c-3.61-9.89.04-18.85-3.19-27.03,7.03-.87,7.44,2.75,6.5,7.62-1.14,5.93-2.04,11.91-3.31,19.41Z"/>
      <path class="cls-3" d="M306.58,240.06c-2.77-3.76-3.58-6.86-1.87-10.41.66-1.36,1.41-2.87,3.1-2.22,1.33.51,1.17,1.97.81,3.36-.74,2.8-1.26,5.66-2.04,9.27Z"/>
      <path class="cls-4" d="M253.22,170.88c-9.53,0-13.41-6.66-9.22-15.18,3.34-6.79,10.38-10.18,17.67-8.48,4.55,1.06,4.65,5.06,4.83,8.4.27,4.98-1.96,9.41-4.8,13.4-2.29,3.23-5.87,1.32-8.48,1.87Z"/>
    </g>
  </g>
</svg>