<?xml version="1.0" encoding="UTF-8"?>
<svg id="Layer_1" data-name="Layer 1" xmlns="http://www.w3.org/2000/svg" viewBox="0 0 512 512">
  <defs>
    <style>
      .cls-1 {
        fill: #f7d201;
      }

      .cls-2 {
        fill: #5d95cd;
      }

      .cls-3 {
        fill: #e32a44;
      }
    </style>
  </defs>
  <g id="wqH6zZ">
    <g>
      <path d="M477.42,163.6c9.07,12.75,15.15,26.71,16.24,42.45.32,4.6,1.92,7.36,5.74,10.12,11.77,8.51,15.64,20.98,10.12,34.19-5.51,13.19-12.06,25.94-22.83,35.93-1.73,1.6-3.33,3.64-4.24,5.79-26.71,63.09-76.62,97.61-140.93,114.08-12.82,3.28-25.96,5.56-39.09,7.24-6.87.88-10.17,3.17-9.86,10.2.14,3.13.33,6.44-.5,9.39-1.83,6.47,1.22,8.22,6.89,9.32,14.83,2.89,29.1,7.55,41.6,16.35,8.08,5.69,13.95,12.76,12.33,23.64-1.65,11.1-7.97,17.24-19.1,18.97-25.32,3.93-50.37,2.44-74.39-6.15-14.6-5.23-28.35-5.56-42.96-1.28-16.69,4.89-33.17,11.11-51.09,10.12-13.78-.77-24.92-8.37-27.08-18.95-2.35-11.54,3.46-21.83,16.52-28.55,13.27-6.83,27.84-9.19,42.38-10.86,7.84-.9,9.04-4.63,8.19-11.18-2.27-17.52-2.17-17.59-19.75-22.51-31.05-8.69-60.98-19.98-88.18-37.65-17.73-11.52-33.32-25.37-45.76-42.6-1.02-1.41-2.16-3.97-3.18-3.94-13.76.43-21.92-9.45-31.87-16.32-3.38-2.33-7.41-3.83-9.97-7.22-12.17-16.11-7-49.33,10.09-59.9,8.67-5.36,13.57-11.58,15.33-21.82,1.69-9.85,5.34-19.53,12.18-27.43,6.9-1.88,13.53-1.82,20.42.91,10.15,4.03,14.76.8,15.1-9.54.04-1.35.11-3.05.89-3.97,10.33-12.12,8.09-28.78,16.46-42.47,8.47-13.85,10.22-31.83,19.63-46.23,2.09-3.19,2.2-10.93,6.1-8.95,5.65,2.87,14.28-.08,17.24,8.07-11.65-5.91-17.11.22-22.31,10.07-14.89,28.24-25.72,57.97-34.05,88.64-4.82,17.72-5.74,18.6-20.92,8.99-6.4-4.05-9.78-2.96-12.63,3.89-3.22,7.75-7.28,15.43-7.95,23.69-.7,8.62-4.33,14.33-11.33,18.55-9.44,4.96-17.38,11.03-18.2,24.85,6.9-3.94,11.24-9.83,18.35-9.54,3.96,4.36-.98,6.07-2.76,8.42-3.37,4.43-7.71,8.17-10.75,12.79-4.93,7.49-3.92,14.34,3.91,19.91,6.89-20.95,11.89-25.79,23.47-22.48-3.66,7.13-10.29,12.66-11.44,20.94-.92,6.62-.5,12.86,7.69,14.87,7.67,1.88,11.96-1.97,14.3-8.76,1.02-2.96,1.7-6.04,2.55-9.06,4.12-14.55,6.8-15.5,17.49-5.88,4.13,3.71,9.05,5.5,13.04,1.64,3.53-3.42,1.96-8.5-.83-12.49-4.24-6.07-10.99-8.38-17.32-11.29-3.46-1.59-7.71-2.72-7.23-7.71.75-7.74,2.5-15.27,8.27-20.99,2.98-2.95,6.82-6.26,10.9-2.53,3.54,3.24-.29,6.36-2.05,9.11-7.96,12.45-8.01,12.42,4.72,17.74,11.48,4.8,18,17.01,14.9,27.94-2.61,9.22-9.39,12-24.36,9.94-1.03-.14-2.01-.57-3.02-.86-2.12-.61-3.46.29-3.63,2.37-.44,5.46-4.35,8.62-7.85,11.96-4.17,3.99-3.94,7.3.06,11.48,8.46,8.84,16.81,17.79,26.49,25.33,33.2,25.82,71.54,40.32,111.84,50.38,4.23,1.06,8.17,1.55,8.99,6.96,1.62,10.69,3.45,21.35,5.31,32,1.16,6.68-1.2,9.38-8.26,9.49-13.32.21-26.46,2.3-38.8,7.66-12.26,5.33-19.33,16.18-16.56,24.79,2.78,8.65,12.73,12.19,26.93,10.09,16.35-2.42,31.47-9.46,47.51-12.57,8.74-1.7,10.35-5.44,10.24-13.22-.23-15.69-.98-31.46,1.79-47.06.75-4.21-.17-11.28,4.89-11.03,6.8.34,4.03,7.76,4.02,11.98-.04,16.42-.67,32.84-1.36,49.25-.21,4.87-.19,8.84,5.43,10.86,25.01,8.99,50.47,14.04,77.05,9,7.8-1.48,15.23-4.61,16.64-13.65,1.47-9.45-4.72-14.93-12.18-18.84-9.09-4.77-19.17-6.18-29.17-7.96-22.24-3.95-22.91-4.17-20.61-26.18,2.49-23.79-2.38-18.05,20.29-21.33,45.03-6.52,86.99-20.34,122.14-50.55,17.88-15.37,31.98-33.56,41.16-56.18-2,0-3.07-.26-3.94.04-21.32,7.43-31.96-.49-30.16-23.28.47-5.95-2.9-4.2-5.56-4.57-13.64-1.88-18.64-10.33-13.2-23.03,3.49-8.13,9.57-13.68,18.34-15.85q12.21-3.02,6.39-15.32c-.3-.63-.66-1.24-.87-1.9-.73-2.27-2.32-4.7.1-6.76,2.73-2.34,5.53-.62,7.63.96,8.05,6.06,9.61,14.87,9.83,24.26.12,5.03-2,6.91-6.88,6.55-6.76-.49-13.36.48-19.1,4.28-5.93,3.93-8.67,10.34-5.7,16.38,2.62,5.32,8.56,2.1,13.11.78.67-.19,1.33-.43,1.98-.7,6.09-2.53,8.56-.31,7.73,6-.81,6.21-2.34,12.39-2.45,18.6-.13,6.95,3.78,10.38,10.95,8.32,11.85-3.41,17.08-18.48,10.18-28.74-1.37-2.04-5.33-3.8-2.3-6.86,2.87-2.9,6.52-1.98,9.57.25,7.67,5.6,8.57,13.43,5.56,24.14,15.88-14.24,6.5-27,1.82-39.81,11.08-3.77,14.08,6.68,20.27,11.21,4.38-12.77,2.22-22.72-7.64-30.5-5.64-4.45-8.47-9-8.89-16.44-.77-13.8-5.85-26.46-13.41-38.11-4.58-7.06-8.85-8.6-15.55-1.86-12.22,12.3-16.41,11.94-22.64-4.28-9.99-26.02-25.93-47.64-44.88-67.47,9.66-.2,15.11,5.69,19.29,13.38,2.46,4.52,4.46,9.35,7.35,13.56,9.25,13.45,22.18,24.53,25.3,41.85,1.12,6.24,6.26,8.13,10.7,3.42,6.77-7.18,13.37-11.22,22.93-5.36,1.26.77,3.41.09,5.15.08l-.03-.06c.5.71,1.01,1.42,1.51,2.13Z"/>
      <path d="M475.94,161.52c-1.74,0-3.89.69-5.15-.08-9.56-5.85-16.16-1.81-22.93,5.36-4.44,4.71-9.58,2.83-10.7-3.42-3.11-17.32-16.05-28.4-25.3-41.85-2.9-4.21-4.9-9.04-7.35-13.56-4.18-7.68-9.63-13.58-19.29-13.38-1.78-1.08-3.92-1.82-5.28-3.29-12.44-13.53-26.09-18.84-42.62-6.89-.82.59-1.93.78-2.92,1.15-32.72,12.16-66.85,17.41-101.46,18.62-31.4,1.1-62.76-.56-92.85-11.33-2.96-8.14-11.59-5.2-17.24-8.07-3.9-1.98-4.01,5.75-6.1,8.95-9.41,14.4-11.16,32.38-19.63,46.23-8.37,13.68-6.14,30.35-16.46,42.47-.78.92-.85,2.62-.89,3.97-.34,10.34-4.94,13.57-15.1,9.54-6.89-2.73-13.52-2.79-20.42-.91-3.65-7.87-12.15-8.46-18.54-12.09-11.72-6.65-11.94-6.64-5.01-17.55,15.36-24.2,35.11-44.12,58.77-60.22,2.31-1.57,4.66-3.08,6.9-4.73.41-.3.39-1.17.71-2.24-4.66-2.18-10.49.33-14.71-3.34,7.8-4.38,16.33-1.57,24.46-2.59,2.85-.36,8.11,2.6,7.64-4.18,4.42-3.29.1-6.37-.23-9.55,1.82-3.32,3.32-1.43,5.49-.09,3.06,1.9,3.28,1.55,5.37-1.77,8.18-5.25,9.55-13.96,10.5-22.4.83-7.45,1.25-15.5-8.01-19.06-5.66-3.63-9.86.04-14.24,2.83-10.54,6.52-6.35,16.77-6.14,26.89-4.94-2.56-9.48-4.11-11.78-8.88,1.8-20.6,9.53-29.52,26.11-30.13,17.15-.63,28.45,11.36,26.7,28.45-.31,3.07-1.06,6.1-1.5,8.56,62.81-30.96,127.65-32.37,194.92-12.97-3.49-9.1-6.01-18.08-.51-26.94,4.03-6.5,9.72-10.84,16.94-13.28,14.39-4.87,24.97.11,29.25,14.57,1.35,4.56,2.19,5.46,6.75,3.38,8.55-3.91,17.77-3.96,26.68-1.34,18.23,5.36,22.64,23.09,9.32,36.62-2.18,2.21-4.7,4.08-8.3,7.16,28.32,9.75,52.93,22.99,74.99,40.73,4.63,3.72,8.88,8.01,13.86,11.17,9.14,5.81,6.31,10.88-.51,15.61-6.87,4.76-13.92,9.34-21.24,13.35-5.08,2.79-6.22,5.81-2.95,10.51ZM402.41,62.93c.96-.54,1.92-1.09,2.88-1.63.49-.06.91-.27,1.24-.64.72-.64,1.45-1.29,2.17-1.93,1.1-.81,2.2-1.62,3.29-2.43,8.35-5.27,6.74-11.61,1.97-18.28-9.98-6.58-22.08-4.67-31.02,5.56-5.18,5.93-9.53,12.59-14.25,18.92-1,.88-2.12,1.75.05,2.57l.2.17c9.16,4.26,18.32,3.23,27.5.06.64.01,1.25-.13,1.82-.43,1.79.23,3.12-.55,4.16-1.93,0,0,0,0,0,0ZM96.18,104.9c-.83.63-1.65,1.26-2.48,1.89-25.79,15.48-46.93,35.76-63.2,61.1-2.38,3.71-3.48,6.71,1.91,8.96,10.93,4.56,21.8,9.28,32.53,14.29,5.47,2.55,8.55,1.4,9.93-4.47,5.42-23.17,15.04-44.87,23.42-67.01,2.45-1.49,2.28-3.91,2.24-6.29l-.03.05c3.63-3.81,4.54-8.58,5.44-13.82-4.71.11-7.26,2.67-9.77,5.3h0ZM344.32,54.51c4.74,4.58,9.42,11.4,14.64.45,7.95-10.69,11.26-22.15,5.85-35.06-.11-.67-.5-1.06-1.18-1.17-10.86-6.21-16.48,1.15-22.1,8.53-7.08,7.98-5.85,20,2.79,27.26ZM146.39,70.96c-1.28.53-2.78.79-3.79,1.64-3.09,2.6-8.88,3.64-8.36,8.47.55,5.04,6.33,4.65,10.12,5.84,22.18,6.98,45.21,8.86,68.19,9.18,41.53.59,81.88-6.94,120.94-21.08,4.08-1.48,10.83-1.52,10.98-6.49.15-4.84-6.59-5.4-10.51-6.99-39.92-16.18-81.48-17.57-123.51-12.34-14.78,1.84-29.68,4.24-43.11,11.59-7.58,2.18-14.65,5.39-20.96,10.18ZM376.18,76.85c11.54,10.37,22.24,18.04,30.85,28.15,12.96,15.23,23.32,32.05,32.97,49.42,1.68,3.02,2.92,8.25,8.24,4.37,12.12-8.83,26.23-14.48,37.81-24.2,4.99-4.19,5.77-7.07-.11-11.14-12.02-8.33-23.29-17.81-35.66-25.54-21.78-13.62-45.2-22.64-74.1-21.06Z"/>
      <path d="M115.09,76.67c-2.1,3.32-2.31,3.66-5.37,1.77-2.17-1.35-3.67-3.23-5.49.09-1.14-1.12-2.28-2.24-3.42-3.35-1.62-3.93-4.4-6.78-8.14-8.73-1.69-1.15-3.24-2.64-5.1-3.38-6.81-2.7-13.56-3-19.47,2.14-4.13,3.59-4.56,8.44-3.18,13.36,2.22,7.93,8.85,10.03,15.89,11.22,7.99,1.34,15.8-.64,23.65-1.7.47,6.78-4.79,3.83-7.64,4.18-8.13,1.02-16.66-1.79-24.46,2.59-9.2-2.86-14.31-9.48-16.19-18.53-2.25-10.85,2.29-17.02,13.95-19.88,4.79,0,9.58,0,14.37.01l.35-.47.58.08c2.3,4.77,6.83,6.32,11.78,8.88-.21-10.12-4.4-20.37,6.13-26.89-.43,1.19-.85,2.38-1.28,3.57-3.12,3.49-2.19,8.14-3.49,12.14.31,1.56.62,3.13.93,4.69,2.23,8.62,6.72,15.3,15.6,18.22Z"/>
      <path d="M84.49,56.45c-4.79,0-9.57,0-14.37-.01,4.79-2.26,9.58-2.06,14.37.01Z"/>
      <path d="M477.42,163.6c-.5-.71-1-1.42-1.51-2.13.5.71,1,1.42,1.51,2.13Z"/>
      <path class="cls-2" d="M140.1,92.85c30.09,10.77,61.45,12.43,92.85,11.33,34.61-1.21,68.73-6.46,101.46-18.62.98-.37,2.1-.55,2.92-1.15,16.53-11.95,30.18-6.63,42.62,6.89,1.35,1.47,3.5,2.21,5.28,3.29,18.95,19.83,34.88,41.45,44.88,67.47,6.23,16.21,10.41,16.58,22.64,4.28,6.7-6.74,10.97-5.2,15.55,1.86,7.56,11.65,12.64,24.32,13.41,38.11.42,7.44,3.25,12,8.89,16.44,9.86,7.77,12.02,17.72,7.64,30.5-6.19-4.54-9.19-14.99-20.27-11.21,4.68,12.81,14.05,25.57-1.82,39.81,3-10.71,2.11-18.54-5.56-24.14-3.05-2.23-6.7-3.15-9.57-.25-3.03,3.06.93,4.82,2.3,6.86,6.9,10.25,1.67,25.33-10.18,28.74-7.17,2.06-11.08-1.37-10.95-8.32.11-6.21,1.64-12.4,2.45-18.6.82-6.31-1.64-8.52-7.73-6-.64.27-1.31.51-1.98.7-4.55,1.31-10.5,4.54-13.11-.78-2.97-6.04-.23-12.46,5.7-16.39,5.74-3.8,12.34-4.77,19.1-4.28,4.88.35,6.99-1.52,6.88-6.55-.22-9.4-1.78-18.2-9.83-24.26-2.1-1.58-4.9-3.3-7.63-.96-2.41,2.07-.83,4.5-.1,6.76.21.66.57,1.27.87,1.9,5.83,12.34,5.82,12.3-6.39,15.32-8.77,2.17-14.85,7.71-18.34,15.85-5.44,12.7-.44,21.15,13.2,23.03,2.66.37,6.03-1.38,5.56,4.57-1.8,22.79,8.84,30.71,30.16,23.28.87-.3,1.93-.04,3.94-.04-9.18,22.62-23.28,40.81-41.16,56.18-35.15,30.21-77.11,44.03-122.14,50.55-22.67,3.28-17.8-2.46-20.29,21.33-2.3,22.02-1.64,22.24,20.61,26.18,10,1.77,20.08,3.18,29.17,7.96,7.46,3.92,13.65,9.39,12.18,18.84-1.41,9.04-8.84,12.17-16.64,13.65-26.58,5.04-52.04,0-77.05-9-5.62-2.02-5.64-5.99-5.43-10.86.7-16.41,1.33-32.83,1.36-49.25,0-4.22,2.78-11.64-4.02-11.98-5.06-.25-4.14,6.82-4.89,11.03-2.77,15.6-2.02,31.37-1.79,47.06.11,7.78-1.5,11.52-10.24,13.22-16.04,3.11-31.16,10.15-47.51,12.57-14.2,2.1-24.14-1.44-26.93-10.09-2.77-8.61,4.3-19.47,16.56-24.79,12.34-5.36,25.47-7.45,38.8-7.66,7.06-.11,9.42-2.81,8.26-9.49-1.86-10.65-3.69-21.31-5.31-32-.82-5.41-4.76-5.91-8.99-6.96-40.3-10.06-78.64-24.55-111.84-50.38-9.69-7.54-18.03-16.49-26.49-25.33-4-4.18-4.22-7.49-.06-11.48,3.49-3.35,7.41-6.5,7.85-11.96.17-2.09,1.51-2.98,3.63-2.37,1.01.29,1.99.72,3.02.86,14.97,2.06,21.75-.71,24.36-9.94,3.09-10.93-3.42-23.14-14.9-27.94-12.73-5.32-12.68-5.29-4.72-17.74,1.76-2.75,5.59-5.87,2.05-9.11-4.07-3.72-7.91-.42-10.9,2.53-5.77,5.72-7.52,13.25-8.27,20.99-.48,4.99,3.77,6.12,7.23,7.71,6.33,2.92,13.08,5.23,17.32,11.29,2.79,3.99,4.36,9.07.83,12.49-3.99,3.87-8.91,2.08-13.04-1.64-10.69-9.63-13.38-8.67-17.49,5.88-.85,3.02-1.53,6.1-2.55,9.06-2.34,6.79-6.63,10.64-14.3,8.76-8.19-2-8.61-8.24-7.69-14.87,1.15-8.27,7.78-13.8,11.44-20.94-11.58-3.32-16.58,1.52-23.47,22.48-7.83-5.57-8.84-12.42-3.91-19.91,3.04-4.62,7.37-8.36,10.75-12.79,1.79-2.34,6.72-4.06,2.76-8.42-7.2-2.2-14.48-4.31-2.51-11.02,1.21-.68,1.59-2.82,2.35-4.29,6.99-4.22,10.63-9.92,11.33-18.55.67-8.26,4.73-15.95,7.95-23.69,2.85-6.85,6.23-7.95,12.63-3.89,15.18,9.61,16.1,8.73,20.92-8.99,8.34-30.67,19.17-60.4,34.05-88.64,5.19-9.85,10.65-15.99,22.3-10.08ZM144.03,187.46c-10.84-6.15-25.5-3.75-33.21,4.36-1.73,1.82-5.16,3.8-2.99,6.79,1.55,2.13,4.7,1.04,6.79-.22,6.37-3.82,7.93-1.32,9.06,5.2,6.3,36.1,26.18,62.56,58.31,79.88,31.54,17.01,65.13,21.54,100.42,16.85,55.74-7.4,108.45-39.04,123.99-105.16,1.2-5.09,2.05-9.69,9.21-6.79,2.07.83,5.44.95,6.5-1.74,1.35-3.42-1.96-5.04-4.26-6.05-9.57-4.21-18.74-2.91-29.82,3.38,12.04,1.71,9.15,8.14,7.36,14.06-5.86,19.39-15.75,36.52-29.77,51.09-43.22,44.92-111.03,58.68-168.02,32.92-34.52-15.6-56.68-42.19-63.85-80.23-1.55-8.22-2.3-15.17,10.29-14.35ZM234.59,153.45c.08-12.19-3.81-18.34-11.93-18.83-7.82-.47-15.18,6.91-16.77,17.07-.82,5.23-.2,10.43,1.24,15.52,2.63,9.26,10.3,12.24,18.58,7.24,8.03-4.85,8.82-12.77,8.88-21ZM308.23,155.68c.18-14.18-3.54-20.4-11.47-21.05-8.1-.66-14.62,5.93-16.98,16.72-1.25,5.71-.06,11.16,1.35,16.5,2.33,8.77,10.01,11.48,18.03,6.8,8.11-4.73,9.27-12.48,9.07-18.97ZM253.76,178.48c-14.11-.27-22.85,7.58-23.14,20.79-.26,11.45,7.06,18.97,18.6,19.11,14.85.18,25.08-9.06,25.24-22.79.14-12-5.69-16.82-20.7-17.11ZM223.96,210.18c-.3-1.83-1.54-3.51-3.88-3.54-2.45-.02-3.86,1.77-3.45,4.06.37,2.08,1.95,3.72,4.4,3.41,1.85-.24,3.09-1.38,2.94-3.94ZM199.05,191.36c-1.62.08-2.89,1.1-2.94,2.96-.05,1.83,1.27,3.1,2.96,3.63,1.9.6,3.48-.38,3.76-2.18.37-2.35-1.49-3.46-3.78-4.4ZM220.85,193.93c-.43-2.29-1.8-3.91-4.11-3.85-.98.02-2.59,1.39-2.75,2.35-.32,1.87,1.25,3.22,2.89,3.78,1.9.64,3.22-.49,3.97-2.28ZM306.42,205.89c.03,2.01,1.24,3.17,3.02,3.56,2.08.46,3.55-.82,3.45-2.71-.09-1.75-1.55-3.07-3.54-3.08-1.45-.01-2.68.52-2.93,2.23ZM211.36,206.7c-.37-1.86-1.53-2.96-3.38-3.01-1.4-.03-2.6.63-2.74,2.25-.16,1.94.88,3.2,2.71,3.49,1.96.31,3.01-.91,3.4-2.73ZM190.37,200.75c.24-2.29-1.01-3.26-2.85-3.49-1.39-.17-2.68.36-3.09,1.88-.54,2,.53,3.26,2.3,3.78,1.96.58,3.1-.55,3.65-2.18ZM294.21,205.77c-1.5.25-2.63,1.03-2.65,2.61-.02,1.41.49,2.85,2.21,2.94,2.02.1,3.22-1.13,3.23-3.08,0-1.64-1.36-2.2-2.79-2.47ZM326.5,205.49c.07-2.12-1.35-3.17-3.07-3.46-1.43-.24-2.63.66-2.77,2.31-.17,2.11,1.16,3.25,2.98,3.39,1.28.1,2.75-.44,2.86-2.24ZM297.95,191.83c-1.74.06-2.69,1.35-2.38,2.68.25,1.08,1.53,2.34,2.62,2.7,1.24.41,2.86-.11,2.96-1.95.12-2.15-1.44-2.92-3.2-3.43ZM325.99,192.94c.52-3.02-.89-3.99-2.66-4.18-1.39-.15-2.59.66-2.66,2.35-.09,1.96.82,3.47,2.75,3.46,1.03,0,2.06-1.28,2.58-1.64ZM313.39,192.32c-.28-1.09-.81-2.65-2.72-3.18-1.55-.43-2.75.45-3.29,1.84-.84,2.13.6,3.3,2.3,3.88,1.49.5,2.62-.44,3.72-2.53Z"/>
      <path class="cls-2" d="M30.92,246.69c-.76,1.47-1.15,3.61-2.35,4.29-11.97,6.71-4.69,8.82,2.51,11.02-7.11-.29-11.45,5.6-18.35,9.54.81-13.82,8.76-19.89,18.2-24.85Z"/>
      <path class="cls-3" d="M146.39,70.96c6.31-4.79,13.39-8,20.96-10.18,2.09-.07,4.36.39,6.23-.28,29.51-10.44,60.1-10.67,90.87-10.27,22.21.29,43.54,4.25,64.17,12.31,3.5,1.37,9.07,1.63,9.16,5.59.1,4.16-5.49,4.36-8.98,5.66-46.24,17.35-94.37,20.94-143.05,18.18-16.36-.93-32.89-4.01-48.76-10.57,2.6-4.81,8.51-5.36,9.38-10.43Z"/>
      <path class="cls-3" d="M376.18,76.85c28.89-1.58,52.32,7.44,74.1,21.06,12.37,7.74,23.64,17.22,35.66,25.54,5.87,4.07,5.1,6.95.11,11.14-11.58,9.72-25.69,15.37-37.81,24.2-5.32,3.88-6.56-1.35-8.24-4.37-9.65-17.38-20-34.19-32.97-49.42-8.61-10.12-19.31-17.79-30.85-28.15Z"/>
      <path class="cls-3" d="M98.29,119.66c-8.37,22.14-18,43.84-23.42,67.01-1.37,5.87-4.46,7.02-9.93,4.47-10.73-5.01-21.6-9.73-32.53-14.29-5.38-2.25-4.29-5.25-1.91-8.96,16.27-25.34,37.41-45.62,63.2-61.1.83-.63,1.65-1.26,2.47-1.89h0c5.6.73,3.67,5.29,4.33,8.53,0,0,.03-.05.03-.05-2.58,1.44-2.28,3.91-2.24,6.29Z"/>
      <path class="cls-3" d="M146.39,70.96c-.87,5.07-6.79,5.62-9.38,10.43,15.87,6.56,32.4,9.65,48.76,10.57,48.68,2.76,96.81-.83,143.05-18.18,3.49-1.31,9.07-1.51,8.98-5.66-.09-3.96-5.66-4.23-9.16-5.59-20.64-8.06-41.96-12.02-64.17-12.31-30.77-.4-61.35-.17-90.87,10.27-1.88.66-4.15.21-6.23.28,13.43-7.34,28.33-9.75,43.11-11.59,42.03-5.23,83.58-3.83,123.51,12.34,3.92,1.59,10.66,2.15,10.51,6.99-.15,4.97-6.91,5.01-10.98,6.49-39.06,14.13-79.41,21.67-120.94,21.08-22.98-.33-46.01-2.2-68.19-9.18-3.78-1.19-9.57-.8-10.12-5.84-.53-4.82,5.27-5.86,8.36-8.47,1.01-.85,2.51-1.11,3.79-1.64Z"/>
      <path class="cls-1" d="M368.68,62.49c4.72-6.33,9.07-12.99,14.25-18.92,8.94-10.23,21.04-12.14,31.02-5.56,2.24,6.41,1.22,12.46-1.97,18.28-1.1.81-2.2,1.62-3.29,2.43-.72.64-1.45,1.29-2.17,1.93-.33.37-.74.58-1.24.64-.96.54-1.92,1.09-2.88,1.63h0c-1.76-.17-3.21.35-4.16,1.93-.57.3-1.18.44-1.82.43-2.22-.12-4.45-.25-6.68-.37-1.37-1.27-2.75-2.55-4.12-3.82,3.61-.67,7.73,1.01,10.78-2.31.39-.21.81-.3,1.26-.29.94-.52,1.89-1.04,2.83-1.56,4.14-3.12,6.28-6.87,2.36-11.43-3.74-4.36-8.48-3-12.27-.35-4.53,3.17-8.77,7.02-8.9,13.35-2.01-.11-2.78-4.27-5.8-1.49-2.86,2.63-2.46,5.15-.71,7.99-2.08.08-4.16.15-6.24.23l-.2-.17c-.02-.86-.03-1.71-.05-2.57Z"/>
      <path class="cls-1" d="M115.09,76.67c-8.88-2.92-13.38-9.6-15.6-18.21-.31-1.56-.62-3.13-.93-4.69,1.3-4.01.37-8.66,3.49-12.14l.6.5c-.64,3.63.05,5.92,4.47,4.38-3.78,6.96-1.87,13.33,2.12,19.42,1.1,1.67,2.94,4.37,4.71,2.72,5.15-4.8,6.8-11.39,5.27-18.05-1.65-7.21-6.99-6.22-12.26-3.98,6.34-9.84,10.79-2.04,15.86,2.32.71-6.02-3.17-9.19-5.87-12.9l.63-.81c9.26,3.55,8.85,11.61,8.01,19.06-.94,8.44-2.32,17.15-10.5,22.4Z"/>
      <path class="cls-1" d="M104.47,88.08c-7.85,1.06-15.65,3.05-23.65,1.7-7.04-1.18-13.67-3.29-15.89-11.22-1.38-4.92-.94-9.77,3.18-13.36,5.91-5.14,12.66-4.85,19.47-2.14,1.85.74,3.41,2.23,5.1,3.38-.25.27-.5.54-.74.81-5.57-1.9-11.29-2.98-17.16-2.08-5.13.78-7.75,4.01-7.86,9.2-.12,5.56,3.1,9.27,7.86,10.73,2.1.65.44-2.52.69-3.92,5.81,2.1,11.81,2.89,17.97,2.62,2.48.71,4.98,3.51,7.51,1.29,3.52-3.09-.93-6.17-.74-9.35l.6-.56c1.14,1.12,2.28,2.23,3.42,3.35.33,3.18,4.65,6.26.23,9.55Z"/>
      <path class="cls-1" d="M341.54,27.24c5.62-7.38,11.24-14.74,22.1-8.53-4.01,1.07-8.86-1.49-12.64,3.22,2.85,1.65,6.9,2.08,6.99,6.32-6.72-4.67-9.24-1.15-10.14,5.27-.87,6.2,2.67,11.23,4.61,16.68-8.31-3.8-5.68-12.05-7.35-19.07-5.21,6.5-.19,12.96-1.17,19.1l-.7.57c-5.19-7.52-3.25-15.56-1.7-23.57Z"/>
      <path class="cls-1" d="M364.82,19.89c5.41,12.92,2.1,24.38-5.85,35.07,0,0-.63-.52-.63-.52.03-1.34.06-2.69.08-4.03.25-.11.53-.18.72-.35.12-.11.09-.38.13-.57-.3.3-.6.59-.89.89-.83-.17-1.67-.33-2.5-.5,2.59-5.82,5.17-11.64,3.9-18.29,3.31.69,1.58,4.89,5.04,6.66,0-6.51,0-12.43,0-18.36Z"/>
      <path class="cls-1" d="M364.82,19.89v18.36c-3.46-1.76-1.73-5.96-5.03-6.66-.6-1.11-1.2-2.23-1.79-3.34-.09-4.23-4.14-4.67-6.99-6.32,3.77-4.71,8.62-2.14,12.64-3.22.67.12,1.07.51,1.18,1.18Z"/>
      <path d="M341.54,27.24c-1.55,8.01-3.49,16.04,1.7,23.57.36,1.23.73,2.46,1.09,3.7-8.64-7.26-9.87-19.28-2.79-27.26Z"/>
      <path class="cls-3" d="M100.5,113.43c-.66-3.24,1.27-7.8-4.33-8.53,2.51-2.63,5.06-5.19,9.77-5.3-.9,5.24-1.81,10.01-5.44,13.82Z"/>
      <path class="cls-1" d="M389.76,64.91c2.22.12,4.45.25,6.68.37-9.17,3.17-18.34,4.21-27.5-.05,2.08-.08,4.16-.15,6.24-.23,4.86-.03,9.72-.06,14.58-.09Z"/>
      <path class="cls-1" d="M344.32,54.51c-.36-1.23-.73-2.46-1.09-3.7,0,0,.7-.57.7-.57,4.62,2,7.01,11.67,14.4,4.2,0,0,.63.52.63.52-5.22,10.95-9.89,4.13-14.64-.45Z"/>
      <path class="cls-1" d="M102.05,41.62c.43-1.19.85-2.38,1.28-3.57,4.38-2.79,8.59-6.46,14.24-2.83,0,0-.63.81-.63.8-5.99-.83-9.99,2.99-14.3,6.1l-.6-.5Z"/>
      <path d="M411.99,56.29c3.19-5.82,4.21-11.88,1.97-18.28,4.77,6.68,6.38,13.02-1.97,18.28Z"/>
      <path class="cls-3" d="M98.29,119.66c-.04-2.38-.33-4.84,2.24-6.29.03,2.37.21,4.8-2.24,6.29Z"/>
      <path class="cls-1" d="M398.25,64.86c.96-1.58,2.4-2.1,4.16-1.93-1.05,1.38-2.37,2.16-4.16,1.93Z"/>
      <path class="cls-3" d="M96.18,104.9c-.82.63-1.65,1.26-2.47,1.89.82-.63,1.65-1.26,2.47-1.89Z"/>
      <path class="cls-1" d="M406.52,60.66c.72-.64,1.45-1.29,2.17-1.93-.72.64-1.45,1.29-2.17,1.93Z"/>
      <path class="cls-1" d="M402.41,62.93c.96-.54,1.92-1.08,2.88-1.63-.96.54-1.92,1.08-2.88,1.63Z"/>
      <path class="cls-1" d="M368.68,62.49c.02.86.03,1.71.05,2.57-2.17-.81-1.06-1.69-.05-2.57Z"/>
      <path class="cls-1" d="M92.68,66.44c3.74,1.96,6.51,4.81,8.14,8.73,0,0-.6.56-.6.56-2.76-2.83-5.52-5.66-8.28-8.49.25-.27.49-.54.74-.81Z"/>
      <path d="M98.56,53.76c.31,1.56.62,3.13.93,4.69-.31-1.56-.62-3.13-.93-4.69Z"/>
      <path d="M144.03,187.46c-12.58-.81-11.84,6.13-10.29,14.35,7.18,38.04,29.34,64.63,63.85,80.23,56.99,25.76,124.8,12,168.02-32.92,14.02-14.57,23.91-31.7,29.77-51.09,1.79-5.92,4.68-12.35-7.36-14.06,11.09-6.3,20.26-7.59,29.82-3.38,2.3,1.01,5.61,2.64,4.26,6.05-1.06,2.69-4.43,2.58-6.5,1.74-7.16-2.89-8.01,1.7-9.21,6.79-15.54,66.12-68.25,97.76-123.99,105.16-35.29,4.69-68.88.15-100.42-16.85-32.13-17.33-52.01-43.79-58.31-79.88-1.14-6.52-2.69-9.03-9.06-5.2-2.09,1.25-5.24,2.34-6.79.22-2.17-2.99,1.26-4.97,2.99-6.79,7.71-8.11,22.37-10.51,33.21-4.36Z"/>
      <path d="M234.59,153.45c-.06,8.22-.85,16.14-8.88,20.99-8.28,5.01-15.95,2.03-18.58-7.24-1.44-5.09-2.06-10.28-1.24-15.52,1.59-10.16,8.95-17.54,16.77-17.07,8.12.49,12.02,6.64,11.94,18.83Z"/>
      <path d="M308.23,155.68c.2,6.49-.95,14.24-9.07,18.97-8.02,4.67-15.7,1.97-18.03-6.8-1.42-5.33-2.6-10.79-1.35-16.5,2.36-10.78,8.88-17.38,16.98-16.72,7.92.65,11.65,6.87,11.47,21.05Z"/>
      <path d="M253.76,178.48c15,.28,20.84,5.11,20.7,17.11-.16,13.73-10.39,22.97-25.24,22.79-11.54-.14-18.86-7.66-18.6-19.11.3-13.21,9.03-21.06,23.14-20.79ZM256.93,186.34c-10.03-.02-17.47,5.46-17.26,13.1.17,6.04,2.37,11,9.83,10.82,8.06-.2,16.56-8.36,16.62-15.94.05-6.52-3.71-8.43-9.18-7.99Z"/>
      <path d="M223.96,210.18c.15,2.56-1.09,3.7-2.94,3.94-2.44.31-4.02-1.33-4.4-3.41-.41-2.29,1.01-4.09,3.45-4.06,2.34.02,3.58,1.71,3.88,3.54Z"/>
      <path d="M199.05,191.36c2.3.95,4.16,2.05,3.78,4.4-.29,1.8-1.86,2.78-3.76,2.18-1.69-.53-3.01-1.8-2.96-3.63.05-1.86,1.32-2.88,2.94-2.96Z"/>
      <path d="M220.85,193.94c-.75,1.78-2.07,2.91-3.97,2.27-1.64-.56-3.21-1.91-2.89-3.78.16-.96,1.77-2.33,2.75-2.35,2.3-.06,3.67,1.56,4.1,3.86Z"/>
      <path d="M306.43,205.89c.25-1.7,1.48-2.24,2.93-2.23,1.99.01,3.45,1.33,3.54,3.08.09,1.89-1.37,3.17-3.45,2.71-1.78-.4-2.99-1.56-3.01-3.57Z"/>
      <path d="M211.36,206.7c-.39,1.83-1.44,3.05-3.4,2.74-1.83-.29-2.87-1.55-2.71-3.49.13-1.62,1.33-2.29,2.74-2.25,1.85.04,3,1.15,3.38,3Z"/>
      <path d="M190.37,200.75c-.55,1.63-1.68,2.76-3.65,2.18-1.76-.52-2.84-1.79-2.3-3.78.41-1.52,1.71-2.05,3.09-1.88,1.83.22,3.08,1.2,2.85,3.48Z"/>
      <path d="M294.21,205.77c1.43.27,2.8.84,2.79,2.47,0,1.95-1.21,3.18-3.23,3.08-1.72-.09-2.23-1.52-2.21-2.94.02-1.58,1.15-2.36,2.65-2.61Z"/>
      <path d="M326.51,205.49c-.12,1.8-1.59,2.34-2.86,2.24-1.82-.14-3.15-1.28-2.98-3.39.13-1.65,1.34-2.55,2.77-2.31,1.72.29,3.14,1.33,3.08,3.46Z"/>
      <path d="M297.96,191.83c1.75.51,3.31,1.28,3.19,3.43-.1,1.84-1.72,2.36-2.96,1.95-1.09-.36-2.37-1.62-2.62-2.7-.31-1.33.64-2.62,2.39-2.68Z"/>
      <path d="M325.99,192.94c-.52.35-1.54,1.63-2.58,1.64-1.93.01-2.84-1.5-2.75-3.46.08-1.69,1.28-2.5,2.66-2.35,1.77.19,3.18,1.16,2.66,4.18Z"/>
      <path d="M313.39,192.32c-1.1,2.1-2.23,3.04-3.72,2.53-1.7-.58-3.14-1.74-2.3-3.88.54-1.39,1.74-2.27,3.29-1.84,1.91.53,2.44,2.09,2.72,3.18Z"/>
      <path d="M397.66,58.49c-.44-.02-.86.08-1.26.29-4.85-.15-9.71-.29-14.56-.44l-.16.16c.13-6.33,4.37-10.19,8.9-13.35,3.79-2.65,8.52-4.01,12.27.35,3.91,4.56,1.78,8.31-2.37,11.43-.94.52-1.89,1.04-2.83,1.56ZM391.92,56.74c3.79-.98,8.6-1.31,9.58-6.08.7-3.42-2.65-4.46-5.59-4.31-4.66.23-7.88,3.37-9.07,7.27-1.15,3.75,2.82,2.62,5.08,3.13Z"/>
      <path class="cls-1" d="M389.76,64.91c-4.86.03-9.72.06-14.58.09-1.74-2.84-2.14-5.36.71-7.99,3.02-2.78,3.79,1.38,5.8,1.49,0,0,.16-.16.15-.16.48,2,2.14,2.37,3.79,2.75,1.37,1.27,2.75,2.55,4.12,3.82Z"/>
      <path class="cls-1" d="M385.63,61.09c-1.65-.38-3.31-.75-3.79-2.75,4.85.15,9.7.29,14.56.44-3.04,3.32-7.16,1.64-10.77,2.31Z"/>
      <path class="cls-1" d="M397.66,58.49c.94-.52,1.89-1.04,2.83-1.56-.94.52-1.89,1.04-2.83,1.56Z"/>
      <path d="M106.96,46.61c5.27-2.25,10.61-3.23,12.26,3.98,1.53,6.67-.12,13.25-5.27,18.05-1.77,1.65-3.62-1.05-4.71-2.72-3.99-6.09-5.9-12.46-2.12-19.42,0,0-.16.11-.16.11Z"/>
      <path class="cls-1" d="M102.65,42.12c4.31-3.11,8.32-6.93,14.3-6.1,2.71,3.71,6.58,6.88,5.87,12.91-5.08-4.36-9.52-12.16-15.86-2.32,0,0,.16-.11.16-.1-4.43,1.54-5.11-.75-4.47-4.38Z"/>
      <path class="cls-1" d="M91.93,67.24c2.76,2.83,5.52,5.66,8.28,8.49-.19,3.19,4.26,6.26.74,9.36-2.53,2.22-5.03-.58-7.51-1.29.42-.77.85-1.54,1.27-2.3,2.44-4.08-.74-4.76-3.46-5.72-2.59-1.59-5.09-3.35-7.78-4.73-3.53-1.81-7.36-2.35-10.37.77-3.96,4.09.29,6.55,2.37,9.37-.25,1.4,1.41,4.57-.69,3.92-4.76-1.46-7.97-5.17-7.86-10.73.11-5.19,2.73-8.42,7.86-9.2,5.87-.89,11.58.18,17.16,2.08Z"/>
      <path d="M75.47,81.17c-2.07-2.82-6.32-5.28-2.37-9.37,3.02-3.12,6.84-2.58,10.37-.77,2.69,1.38,5.19,3.14,7.78,4.73,1.15,1.91,2.3,3.81,3.46,5.72-.42.77-.85,1.53-1.27,2.3-6.16.28-12.16-.52-17.97-2.62Z"/>
      <path d="M357.99,28.25c.6,1.11,1.2,2.23,1.79,3.34,1.26,6.64-1.31,12.47-3.9,18.29-1.14.11-2.28.22-3.42.33-1.94-5.45-5.48-10.48-4.61-16.68.9-6.43,3.42-9.94,10.14-5.27Z"/>
      <path class="cls-1" d="M352.46,50.21c1.14-.11,2.28-.22,3.42-.33.84.16,1.67.33,2.51.49l.04.04c-.03,1.34-.06,2.69-.09,4.03-7.39,7.47-9.78-2.2-14.4-4.2.98-6.14-4.04-12.59,1.17-19.1,1.67,7.02-.96,15.27,7.36,19.07Z"/>
      <path class="cls-1" d="M358.39,50.37c.3-.3.6-.59.89-.89-.04.2-.02.46-.13.57-.19.17-.48.24-.72.35,0,0-.03-.04-.03-.04Z"/>
      <path class="cls-1" d="M256.93,186.34c5.48-.45,9.23,1.47,9.18,7.99-.06,7.57-8.56,15.74-16.62,15.94-7.45.18-9.66-4.78-9.83-10.82-.21-7.64,7.23-13.12,17.26-13.1ZM257.29,188.76c-8.24-.16-12.96,3.24-14.16,10.5-.68,4.13.59,8.22,5.69,8.15,7.46-.11,12.71-4.26,14.27-11.5.93-4.31-1.79-7.25-5.79-7.15Z"/>
      <path d="M391.92,56.74c-2.26-.51-6.23.62-5.08-3.13,1.19-3.9,4.41-7.04,9.07-7.27,2.94-.15,6.29.89,5.59,4.31-.98,4.78-5.79,5.1-9.58,6.09Z"/>
      <path class="cls-1" d="M94.71,81.49c-1.15-1.91-2.3-3.81-3.46-5.72,2.72.96,5.9,1.64,3.46,5.72Z"/>
      <path class="cls-1" d="M257.29,188.76c4-.1,6.72,2.84,5.79,7.15-1.56,7.24-6.81,11.39-14.27,11.5-5.09.07-6.37-4.01-5.69-8.15,1.2-7.26,5.93-10.66,14.16-10.5Z"/>
    </g>
  </g>
</svg>