<?xml version="1.0" encoding="UTF-8"?>
<svg id="Layer_1" data-name="Layer 1" xmlns="http://www.w3.org/2000/svg" viewBox="0 0 512 512">
  <defs>
    <style>
      .cls-1 {
        fill: #1c1c1c;
      }

      .cls-2 {
        fill: #cd0a70;
      }

      .cls-3 {
        fill: #1f9dd9;
      }

      .cls-4 {
        fill: #f7f7f6;
      }

      .cls-5 {
        fill: #fefefe;
      }

      .cls-6 {
        fill: #0d8f42;
      }
    </style>
  </defs>
  <g id="fmfweG">
    <g>
      <path class="cls-1" d="M511.32,491.45c-1.45-1.56-2.09.22-2.83.88-5.79,5.14-12.3,4.19-18.94,2.32-2.57-.72-2.52-2.06-1.27-4.12,1.87-3.11,3.07-6.48,3.16-10.19.08-3.28-.29-6.23-4.08-7.35-3.86-1.14-6.88.25-8.87,3.45-2.65,4.26-2.88,8.72.14,13.03,1.36,1.95,1.94,3.64-1.04,4.71-5.36,1.89-10.73,2.33-16.14.41-1.87-.67-2.79-1.58-1.15-3.71,2.44-3.18,3.78-6.95,4.11-10.93.3-3.57.75-7.52-3.85-8.99-3.83-1.24-7.44,1.06-9.62,5.77-2.46,5.35-1.71,10.56.75,15.67-6,1.77-11.2,1.72-14.91,0-2.11-.98-3.3-1.92-1.42-4.48,2.14-2.91,3.38-6.37,3.49-10.09.09-3.01-.05-6.01-3.81-6.9-3.48-.82-6.04.57-7.79,3.55-2.3,3.92-2.75,8.1-1.28,12.38.61,1.79.64,3-1.47,3.42-4.6.9-9.21,1.24-13.64-.78-2.4-1.09-3.39-2.46-1.42-5.09,2.15-2.89,3.61-6.26,4.27-9.84.63-3.36-1.13-5.6-4.04-6.98-3.09-1.49-5.32-.13-6.98,2.45-2.53,3.92-3.27,8.18-2.34,12.79.25,1.24,1.77,3.19-.95,3.64-4.96.84-9.88,1.08-14.54-1.48-2.2-1.2-3.13-2.26-.9-4.51,2.98-3,4.76-6.72,4.53-11.11-.17-2.98-1.4-5.43-4.49-6.19-3.1-.77-5.38.88-6.85,3.43-2.05,3.55-2.81,7.52-1.42,11.41,1.02,2.88-.35,3.83-2.55,4.23-4.89.89-9.59.43-13.68-2.8-2.24-1.78-3.14-3.12.08-5.28,4.03-2.71,7.12-6.54,7.93-11.59.55-3.42.02-6.56-3.64-8.2-3.79-1.69-6.74-.22-9.12,2.62-2.5,3-3.39,6.71-3.68,10.53-.48,6.37-2.16,7.36-8.23,4.84-4.3-1.78-6.71-5.16-8.23-9.34-.82-2.25-.38-3.82,2.06-4.91,2.32-1.05,4.49-2.52,6.55-4.05,2.82-2.1,4.35-4.95,3.44-8.53-.67-2.68-3.03-3.78-5.46-4.05-3.73-.4-6.17,1.8-7.69,4.95-1.09,2.3-1.97,4.75-2.68,7.21-.6,2.06-1.58,2.73-3.71,2.15-3.61-.99-6.74-2.48-8.42-6.1-1.45-3.11-1.58-5.4,2.62-6.38,3.96-.93,7.29-3.12,9.19-6.89,1.52-2.99,1.79-6.17-1.14-8.38-2.82-2.12-5.85-1.41-8.52.73-2.22,1.8-3.14,4.46-4.49,6.83-.87,1.52-.8,4.23-3.14,4.13-2.06-.09-3.54-1.85-4.65-3.73-3.38-5.75-2.44-8.37,3.84-10.46,9.28-3.09,11.95-7.01,9.98-15.15,22.69-2.02,45.04-.25,67.37-.17,5.46.02,10.78-.02,16.03,2.63,4.99,2.53,7.73.19,8.02-5.39.88-17.16,1.97-34.32,2.73-51.49,1.23-27.82,3.39-55.71.45-83.48-6.23-58.89-35.66-101.99-89.18-128.14-1.95-.95-4.14-1.51-5.74-3.27,1.32-1.63,3.22-1.97,4.99-2.45,5.12-1.39,10.3-2.56,15.39-4.03,4.11-1.19,3.88-4.52,2.79-7.52-1.1-3.03-3.4-5.13-6.79-2.84-7.17,4.84-15.68,5.71-23.58,8.38-2.92.99-4.42.43-4.35-3.13.13-5.67-.18-11.34-.23-17.01-.18-18.21,2.25-36.41.39-54.63-1.61-15.77-7.6-29.38-19.98-39.81-22.19-18.69-60.41-12.38-79.72,4.36-17.33,15.02-24.6,34.7-27.14,56.59-1.8,15.53-2.98,31.13-4.2,46.72-.3,3.91-1.67,4.85-5.08,3.26-3.57-1.67-7.28-3.1-10.65-5.09-3.54-2.08-6.95-4.48-10.07-7.14-3.07-2.61-6.33-2.9-8.58-.03-2.34,2.97,1.13,4.92,3.05,6.57,4.46,3.79,9.44,6.83,14.73,9.37,2.82,1.35,5.52,2.95,8.35,4.48-.62.65-.81,1-1.09,1.13-2.04.88-4.09,1.77-6.18,2.53-23.8,8.63-44.45,22.77-60.33,41.86-23.2,27.87-41.15,59.21-48.58,95.37-1.28,6.26-5.01,9.67-9.11,13.4-2.87,2.61-5.4,2.44-7.8-.75-2.72-3.62-6.25-6.37-10.19-8.55-4.65-2.57-9.34-2.09-13.74.5-4.48,2.64-5.82,7.09-5.51,11.98.36,5.71,1.81,11.09,7.23,14.8-6.17,3.16-11.19,6.64-14.13,12.44-4.19,8.27-1.68,14.94,6.92,18.06,1.74.64,3.56,1.08,5.6,1.68-2.29,4.96-2.84,10.03-1.97,15.18,1.17,6.97,7.24,12.13,12.13,8.73,6.82-4.73,10.18-1.08,14.67,2.31,1.18.9,2.78,1.38,4.26,1.7,1.99.44,2.66,1.34,2.71,3.47.15,6.88.82,13.73.89,20.6.13,11.06,1.6,12.77,12.62,13.46,1.21.07,2.41.06,3.61.13,19.91,1.15,39.84.74,59.77,2.06,25.87,1.71,51.71,3.85,77.54,5.99,6.25.52,8.4,3.08,7.41,9.73-.58,3.92-4.24.46-6.28,1.49-.43.22-1.02.12-1.53.17-1.83.18-3.42.83-4.02,2.7-.59,1.81.16,3.33,1.44,4.67,1.01,1.05,2.74,1.63,2.52,3.81-.58.12-1.19.27-1.81.38-14.37,2.63-28.59,5.6-41.34,13.35-5.71,3.46-7.68,8.46-7.51,14.72.17,6.21,2.89,10.86,8.53,13.62,2.16,1.05,4.37,2.02,6.63,2.81,4.51,1.57,8.12,3.75,9.95,8.71,1.57,4.27,5.11,7.45,9.43,9.03,6.4,2.33,12.84,4.54,19.84,4.81,22.5.87,43.88-5.04,65.32-10.53,3.4-.88,5.87-3.32,6.58-7.18.56-3.1.71-6.18.04-9.22-4.11-18.5-3.52-37.19-2.44-55.92.7-12.11.85-12.36,13-12.12.68.01,1.37.06,2.05.02,2.27-.13,3.23.75,3.69,3.15.99,5.29,3.6,9.7,8.86,11.83,2.12.86,2.08,2.48,2.19,4.15.4,5.92,2.83,10.55,8.36,13.18,1.29.62,2.14,1.24,2.38,2.9,1.09,7.3,5.8,11.4,12.6,13.37,2.25.65,3.73,1.69,4.52,4.13,2.87,8.82,9.23,13.39,18.38,13.97,2.23.14,3.69.85,5.3,2.4,5.98,5.74,13.08,8.1,21.25,5.63,1.96-.59,3.25-.06,4.73.95,6.13,4.22,12.73,5.79,19.97,3.26,2.11-.73,3.94-.56,5.78.88,6.06,4.75,13,5,20.07,3.25,2.33-.58,4.1-.59,6.28.57,6.3,3.35,12.99,4.27,19.92,2.15,1.77-.54,3.19-.27,4.88.51,7.24,3.3,14.62,3.41,21.94.19,2.15-.95,4.23-1.56,6.38-.27,5.48,3.31,11.48,3.09,17.5,2.54,3.16-.29,6-1.5,7.9-4.23.75-1.07.83-2.31-.1-3.33ZM340.87,445.1c1.31.06,2.41.35,2.09,2.06.04,2.9-3.94,7.1-6.91,7.35-.72.06-1.28.1-1.58-.73-.92-2.55,3.68-8.81,6.4-8.68ZM321.86,432.7c1.2-1.62,3.2-2.98,4.79-1.86,1.94,1.38.73,3.64-.31,5.41-1.55,2.6-4.22,3.16-7.38,4.12.08-3.47,1.39-5.63,2.9-7.67ZM206.26,436.12c-3.25-.39-6.16-1.76-6.82-5.15-.37-1.93,1.94-1.83,3.38-2.04,3.04.6,6.34.78,6.55,5,.12,2.32-1.51,2.4-3.1,2.2ZM316.73,412.56c1.78-.1,2.96.34,2.84,2.51-.19,3.5-4.91,7.41-9.13,7.43-1.26.18-1.84-.14-1.68-1.63.37-3.6,4.56-8.09,7.97-8.31ZM299.06,420.25c-.58-.62-1.04-1.36-1.47-2.11-3.09-5.49-2.36-7.06,3.7-7.53,2.86-.22,5.76-.04,9.2-.04-1.82,3.24-3.39,5.87-4.8,8.59-2.05,3.91-3.67,4.22-6.63,1.08ZM354.13,469.53c-.23-3.72.96-7.04,3.06-10.05,1.09-1.57,2.49-3.25,4.56-2.5,1.89.69,2.26,2.81,2.56,4.4.14,3.6-4.4,9.17-7.84,10.24-2.24.69-2.26-.7-2.34-2.1ZM380.3,477.97c-2.43.21-1.1-2.97-1.69-4.39.17-3.18.57-6.34,4.28-6.56,2.33-.14,2.03,2.46,1.84,3.92-.38,2.96-.76,6.73-4.43,7.02ZM404.91,482.73c-1.72-.46-1.34-2.88-1.44-5.31.17-.62.4-1.96.89-3.2.72-1.83,1.91-3.63,4.12-2.91,2.32.77.99,2.86.83,4.41-.13,1.17-.36,2.41-.89,3.45-.78,1.55-1.27,4.17-3.51,3.56ZM430.44,486.34c-1.97.64-2.08-2.53-2.05-4.31.05-3.54.69-7.08,4.84-7.86,2.27-.42,2.43,1.82,2.45,4.24-.58,2.94-1.64,6.76-5.23,7.92ZM455.53,489.13c-2.66-.5-2.59-3.55-2.64-5.95-.06-3.65,1.17-6.68,4.42-8.57.84-.49,2.26-1.03,2.76.01,1.47,3.09.82,6.26-.32,9.33-.12.32-.24.64-.39.94-.9,1.82-1.99,4.57-3.82,4.23ZM482.91,489.29c-2.39-.49-2.23-3.87-2.77-5.63.12-2.29.47-3.96,1.4-5.45,1-1.61,2.53-2.4,4.38-2.04,2.37.46,1.9,2.57,1.93,4.15.02,1.34-.24,2.8-.8,4.01-.94,2.04-1.4,5.51-4.15,4.97Z"/>
      <path class="cls-2" d="M302.64,401.91c2.91-2.22,6.37-2.59,8.79-4.86,1.75-1.64,2.9-3.41,2.14-5.87-.84-2.74-3.08-2.89-5.41-2.77-5.16.28-9.15,2.47-11.86,7-2.2,3.67-5.58,3.75-7.85.15-1.68-2.67-2.38-5.31,2.22-5.58,3.9-.23,7.42-1.39,10.44-3.89,3.63-3.01,4.28-7.49,1.64-11.01-2.11-2.83-7.21-3.07-10.74-.6-2.94,2.06-4.52,5.18-6.07,8.16-1.67,3.22-3.42,2.74-5.53.92-1.68-1.45-3.27-2.97-4.27-5.08-3.04-6.42-2.32-8.11,4.42-10.05,1.64-.47,3.29-1.02,4.84-1.73,2.57-1.18,4.22-3.11,3.39-6.11-.78-2.79-2.82-4.13-5.75-4.27-4.79-.22-7.58,2.5-9.79,6.29-.81,1.38-1.27,3.57-3.53,3.17-2.2-.39-3.51-2.08-4.21-4.12-1.02-2.99-1.06-5.97-.39-9.12.48-2.26,1.19-3.37,3.62-3.14,4.22.41,7.96-1.12,10.72-4.09,4.1-4.42,9.5-5.53,14.89-6.04,8.63-.82,16-4.38,22.21-9.91,8.54-7.62,19.64-8.18,29.66-11.45,6.15-2.01,13.69,6.02,15.86,14.91.37,1.5.51,3.07,1,4.52,1.35,3.94,4.64,4.64,7.95,3.59,3.59-1.13,2.81-4.09,1.71-6.85-2.17-5.41-4.2-10.87-7.84-15.54-7.08-9.06-16.77-11.66-27.52-7.31-5.21,2.11-10.21,5.12-16.23,3.82-5.65-1.22-8-4.69-7.36-10.96.6-5.89,4.58-10.36,9.58-10.24,3.23.08,6.45.84,9.68,1.25,1.59.2,3.65,1.36,4.4-1,.74-2.33,0-4.45-2.38-5.63-3.48-1.74-7.25-1.87-11.04-2.03-1.57-.06-3.91.99-4.56-1.1-.7-2.26,1.35-3.75,2.99-4.91,3.93-2.78,8.2-3.4,12.66-1.29,1.86.88,3.55,2.13,5.44,2.91,1.62.67,3.73,2.15,4.97-.25.98-1.9.61-4.02-1.21-5.61-3.77-3.29-8.51-4.24-13.11-5.58-1.71-.5-4.27-.26-4.6-2.57-.3-2.13,1.99-3.05,3.45-4.11,8.9-6.52,14.29-5.47,20.39,3.82.66,1,1.24,2.12,2.12,2.89,1.5,1.3,3.38,1.95,5.23.83,1.81-1.09,1.9-3.16.9-4.56-3.67-5.15-1.28-9.97.27-14.96,1.7-5.48,4.58-6.99,9.97-5.03,4.31,1.57,6.94,4.89,7.64,9.04,1.54,9.14-.16,17.49-8.08,23.53-1.23.94-2.47,1.87-3.61,2.9-2.98,2.68-4.04,4.89.62,7.33,4.38,2.29,6.32,7.11,9.15,10.96,2.13,2.9,4.06,5.95,6.19,8.85,1.71,2.34,4.13,2.59,6.37,1.14,2.48-1.6,1.71-3.87.3-5.85-3.48-4.88-6.82-9.89-10.65-14.48-2.32-2.78-2.23-4.56.4-6.86,5.57-4.85,8.6-11.08,8.98-18.46.75-14.52-6.2-23.89-20.48-26.93-3.47-.74-4.53-1.93-4.5-5.29.06-8.52-4.05-15.5-9.03-21.96-2.64-3.42-2.83-6.69-1.42-10.58,2.46-6.79.64-12.22-5.33-16.03-5.38-3.44-11.29-5.87-17.24-8.09-9.13-3.41-15.38,2.57-20.68,8.04-9.73,10.06-14.31,22.8-15.56,36.72-.23,2.56.42,4.85,2.25,6.6,2.98,2.85,5.95,5.74,9.22,8.22,3.41,2.59,7.18,2.35,11.2.82,6.62-2.52,10.09-.12,10.72,6.93.52,5.86-.59,11.31-4.32,16.01-2.43,3.07-4.08,6.38-3.37,10.43.43,2.45-1.17,3.78-2.62,5.24-3.4,3.41-5.46,7.29-5.51,12.33-.04,5.26-8.77,11.56-13.82,10.44-1.71-.38-2.26-1.49-2.41-2.89-.88-7.83-5.97-10.22-13.05-11.13-9.58-1.23-9.88-2.26-4.96-11.07,1.77-3.17,3.4-6.39,4.16-9.94.47-2.21.6-4.57-1.9-5.88-2.45-1.29-4.4-.09-5.92,1.69-3.11,3.65-5.66,7.89-9.15,11.12-26.1,24.11-66.15,26.87-90.01-5.91-2.42-3.32-5.19-3.79-8.46-2.22-3.44,1.66-1.8,4.27-.73,6.61,5.91,12.88,8.15,26.44,8.16,40.56.01,11.85.75,23.7,5.34,34.88,4.56,11.09,11.69,20.04,21.94,26.47,11.31,7.09,22.18,3.48,32.76-1.47,9.11-4.26,14.77-12.09,19.16-20.88.9-1.81,1.51-4.33,4.31-2.39,2.51,1.74,8.04-.1,6.99,5.98-1.26,7.29-.13,13.73,7.19,17.53,1.68.87,1.8,2.54,1.94,3.97.61,6.38,4.05,10.81,9.3,14.05,1.99,1.23,3.38,2.56,3.4,5.21.05,5,4.53,6.91,8.27,10.48-7.03.81-13.17-.94-19.33-1.09-5.97-.15-8.13.8-8.53,6.83-.73,10.97-1.23,21.95-1.97,32.92-.11,1.66,1.1,4.31-1.44,4.84-3.64.75-7.03,3.29-10.95,2.13-1.78-.53-.89-1.89-.21-2.89,1.05-1.56,2.32-3,3.21-4.65,1.99-3.67,1.21-8.77-1.42-10.34-2.03-1.21-3.16-.6-7.24,4.15-1.71-4.53-2.41-8.93-2.65-13.44-.19-3.77-.36-7.54-.67-11.31-.28-3.33-2.44-4.09-5.45-3.94-3.29.17-3.24,2.29-3.2,4.66.08,4.98.13,9.93.84,14.91,1.33,9.41-.64,11.17-10.95,10.07,1.49-2.82,3.04-5.41,4.27-8.15,2.5-5.56.67-8.45-5.32-7.78-4.12.46-5.43-.59-5.33-4.81.12-5.39-3.36-8.44-8.74-8.68-29.86-1.34-59.66-3.47-89.45-5.93-9.57-.79-19.25-.38-28.87-.4-8.42-.02-16.8-.12-25.15-1.48-3.72-.61-5.06-2.3-5.65-5.93-3.54-21.71-3.09-43.59-1.57-65.32,1.94-27.69,7.97-54.65,19.22-80.21,13.37-30.38,30.63-57.92,57.56-78.39,13.64-10.37,28.19-18.93,44.67-24.02,5.57-1.72,10.96-1.99,16.68-.53,22.46,5.72,45.36,4.64,68.19,3.71,13.2-.54,26.36-2.01,39.56-2.48,9.44-.34,17.48,4.81,25.59,8.68,28.55,13.63,49.73,34.85,63.99,63.18,11.2,22.24,16.06,45.89,16.68,70.5.94,37.32-1.85,74.51-4.78,111.68-.3,3.75-2.68,2.86-4.71,2.86-21.67,0-43.34-.06-65-.09-10.27-.02-20.55,0-31.28,0Z"/>
      <path class="cls-6" d="M300.43,120.3c-.03,4.13-.1,8.25-.06,12.38.02,2.45-.97,3.5-3.48,4.14-6.41,1.64-12.97,1.03-19.44,1.71-18.3,1.92-36.72,1.77-55.09,1.11-9.89-.36-19.75-1.87-29.44-4.15-2.12-.5-4.25-1.01-3.95-4.25,2.14-22.98,1.92-46.26,8.25-68.73,6.47-22.95,20.25-39.26,43.78-45.6,16.25-4.38,31.75-1.73,45.26,8.69,7.88,6.07,10.73,15.25,13.05,24.51,1.01,4.03,1.15,8.14,1.13,12.26,1,4.74.39,9.54.42,14.31.1,12.85.05,25.71.01,38.56,0,1.69.41,3.43-.45,5.05Z"/>
      <path class="cls-2" d="M50.32,297.1c-3.2,19.78-4.8,39.23-4.81,58.81,0,1.24.65,3.04-1.26,3.43-1.73.35-2.89-.87-3.64-2.31-1.86-3.55-.68-6.96.46-10.42.83-2.51,2.65-5.79-1.23-6.93-3.19-.93-6.22.94-7.42,4.16-1.39,3.71-2.61,7.46-5.05,10.64-1.24,1.61-2.56,3.76-4.91,3.01-2.63-.84-2.57-3.65-2.25-5.7,1.14-7.45,5.01-13.39,10.92-18.02.94-.74,1.97-1.37,2.96-2.06,1.94-1.34,2.87-3.08,1.48-5.24-1.33-2.07-3.5-2.35-5.46-1.27-2.23,1.22-4.26,2.85-6.25,4.46-5.54,4.5-10.35,5.25-13.25,1.96-2.48-2.83-.75-9.15,3.52-13.21,2.67-2.55,5.91-3.37,9.44-3.37,2.06,0,4.12.24,6.18.21,2.09-.03,4.25-.17,4.62-2.94.35-2.65-1.29-3.71-3.51-4.2-3.79-.83-6.95-2.66-9.79-5.33-3.78-3.56-3.62-8.03-2.96-12.44.4-2.68,2.6-3.5,5.13-2.14,5.4,2.89,9.88,6.76,12.55,12.4,2.26,4.79,5.26,5.12,8.77.98,1.48-1.74,2.27-4.38,5.77-4.47Z"/>
      <path class="cls-5" d="M265.62,480.17c1.47,4.19-.95,6.02-4.92,7.35-12.09,4.04-24.56,6.27-37.1,8.18-1.89.29-4.26.61-3.31-2.57,1.45-4.89.05-9.5-.85-14.2-.74-3.89,4.41-9.72,8.18-9.22,1.79.24,2.3,1.96,2.42,3.5.17,2.22-.03,4.47.16,6.69.29,3.36,3.01,4.94,5.73,3.29,2.43-1.47,3.25-4.06,3.23-6.66-.02-2.47-.95-5-3.86-5.31-2.38-.25-3.39-1.72-3.91-3.48-.7-2.39,1.82-2.9,3.01-4.23,7.2-8.07,16.74-7.17,26.14-7.04,1.85.03,2.57.85,2.55,2.39-.1,7.1,2.37,13.87,2.52,21.29Z"/>
      <path class="cls-3" d="M211.5,487.14c.02,9.68.02,9.63-7.88,9.13-4.47-.28-8.91-.59-13.15-2.24-7.92-3.08-10-10.22-4.85-16.96,4-5.23,9.69-8.14,15.46-10.84,2.7-1.27,4.18.8,5.47,2.61,4.3,6.05,4.73,13.09,4.95,18.3Z"/>
      <path class="cls-3" d="M171.73,476.1c-1.85-.63-4.58-1.25-7.02-2.45-6.57-3.23-7.37-10.01-1.58-14.45,3.1-2.37,6.71-4.11,10.18-5.96,2.31-1.23,4.49-.56,5.88,1.54,1.6,2.42,3.13,4.95,4.19,7.64,1.17,2.95-7.78,14.02-11.66,13.69Z"/>
      <path class="cls-4" d="M221.16,443.24c4.1.3,8.2.61,12.29.9,1.06.07,2.11.14,2.37,1.44.26,1.32-.11,2.4-1.48,2.87-1.45.5-2.9,1.07-4.39,1.32-6.74,1.16-13.4,2.61-19.96,4.55-3.49,1.03-9.71-4.26-9.43-7.75.12-1.52,1.39-1.2,2.27-1.45,6-1.68,12.14-1.93,18.33-1.89Z"/>
      <path class="cls-4" d="M201.4,455.43c-.94,2.32-3.2,2.76-5.21,3.37-1.92.58-4.08,2.53-5.76-.45-.42-.74-1.22-1.49-1.19-2.21.11-2.65-5.54-4.81-1.35-7.4,5.93-3.67,8.63-2.65,11.6,2.89.64,1.19,1.22,2.42,1.92,3.81Z"/>
      <path class="cls-4" d="M226.07,464.78c-1.66,3.14-4.79,5.97-7.41,5.69-2.77-.29-5.44-4.91-4.99-7.38.69-3.77,5.59-2.6,8.59-3.15,2.42-.44,2.73,2.94,3.81,4.84Z"/>
      <path class="cls-2" d="M300.48,379.12c-.27,4.49-6.01,8.27-9.97,7.35-1.49-.35-1.52-1.17-1.15-2.16,1.27-3.41,2.97-6.53,6.72-7.79,2.91-.97,4.72-.29,4.4,2.6Z"/>
      <path class="cls-6" d="M300.43,120.3c0-19.31,0-38.61.01-57.92,1.16,1.07.96,2.49.96,3.84,0,16.74-.02,33.48-.05,50.23,0,1.34.2,2.76-.91,3.86Z"/>
      <path class="cls-2" d="M221.42,421.72c1.73-.17,2.62.46,2.43,1.98-.17,1.33-.44,2.71-1,3.92-.82,1.79-1.36,4.77-3.54,4.44-2.47-.37-1.51-3.31-1.58-5.19-.1-2.7,1.24-4.5,3.69-5.15Z"/>
      <path class="cls-2" d="M282.59,358.89c1.72-.01,3.26.35,3.03,1.74-.63,3.75-4.05,4.12-6.95,4.93-1.03.29-2.38,0-1.99-1.42.85-3.14,3.57-4.29,5.91-5.25Z"/>
      <path class="cls-2" d="M300.07,397.45c.3-2.62,2.15-3.59,3.85-4.67,1.73-1.1,4.13-2.36,5.28-.37,1.02,1.77-1.48,3.2-3.03,3.97-1.73.87-3.63,1.91-6.1,1.07Z"/>
      <path class="cls-4" d="M237.23,456.78c-1.74,2.68-4.04,3.83-6.21,5.14-2.02,1.22-2.74-.41-3.46-1.7-1.04-1.87.1-2.36,1.75-2.53,2.52-.27,4.88-1.7,7.92-.9Z"/>
      <path class="cls-2" d="M246.34,444.11c-1.31-.35-1.55-1.15-1.37-2.03.23-1.16.44-2.38.97-3.41.86-1.67,1.12-4.37,3.67-4.02,1.34.19,1.4,2.22.99,3.56-.76,2.48-2.29,4.46-4.27,5.9Z"/>
      <path class="cls-1" d="M277.07,182.88c-.35,16.02-5.79,26.06-15.19,34.26-5.73,5-12,6.04-19.13,3.7-6.93-2.27-9.27-8.01-10.29-14.17-1.71-10.32,2.66-28.8,15.6-36.24,6.44-3.7,12.59-6.57,19.68-2.4,6.9,4.06,9.52,10.44,9.33,14.85Z"/>
      <path class="cls-1" d="M210.89,179.64c-.2,14.3-3.91,25.4-16.71,31.23-12.12,5.51-24.98-2.69-24.52-16.09.4-11.58,3.51-22.46,11.58-31.55,4.39-4.94,9.59-6.68,15.63-5.51,6.11,1.18,10.29,5.23,12.49,11.08,1.46,3.9,1.79,8,1.54,10.84Z"/>
    </g>
  </g>
</svg>