<?xml version="1.0" encoding="UTF-8"?>
<svg id="Layer_1" data-name="Layer 1" xmlns="http://www.w3.org/2000/svg" viewBox="0 0 512 512">
  <defs>
    <style>
      .cls-1 {
        fill: none;
      }

      .cls-2 {
        fill: #1c1c1c;
      }

      .cls-3 {
        fill: #ea0029;
      }

      .cls-4 {
        fill: #284797;
      }

      .cls-5 {
        fill: #00a142;
      }
    </style>
  </defs>
  <path class="cls-5" d="M131.06,308.84c-1.42-.44-2.74-.98-4.16-1.64,1.31.66,2.74,1.2,4.16,1.64h0Z"/>
  <path class="cls-5" d="M254.69,465.28c-3.5.22-7.11.44-10.61.77,3.5-.22,7-.55,10.61-.77h0Z"/>
  <path class="cls-5" d="M302.71,461.34c0,.77-.11,1.64-.33,2.41.22-.77.33-1.64.33-2.41h0Z"/>
  <path class="cls-5" d="M117.93,172.52c0-.22.22-.44.22-.77,0,.22-.22.44-.22.77h0Z"/>
  <path class="cls-5" d="M122.75,164.86c1.09-1.09,2.3-1.97,3.61-2.74-1.31.77-2.63,1.64-3.61,2.74h0Z"/>
  <path class="cls-5" d="M245.93,453.47c1.09-.22,2.3-.33,3.39-.55-1.09.22-2.3.33-3.39.55h0Z"/>
  <path class="cls-1" d="M117.6,173.72c0-.11,0-.22.11-.44,0,.11,0,.22-.11.44"/>
  <path class="cls-5" d="M243.09,453.9c.88-.11,1.75-.22,2.52-.44-.88.11-1.75.22-2.52.44h0Z"/>
  <path class="cls-5" d="M301.18,455.33c.98,2.08,1.42,3.94,1.42,5.91,0-1.86-.44-3.83-1.42-5.91h0Z"/>
  <path class="cls-5" d="M256.76,465.17h0v-.66c-.98-2.95-2.19-5.91-3.06-8.97.88,3.06,2.08,6.02,3.06,8.97v.66h0Z"/>
  <path class="cls-5" d="M273.06,99.55c-2.63.77-5.25,1.53-7.88,2.19,2.63-.66,5.25-1.31,7.88-2.19,2.52-.77,2.84-.88,3.06-2.95-.22,2.08-.55,2.19-3.06,2.95h0Z"/>
  <path class="cls-5" d="M224.6,468.67c.33,0,.66-.22.98-.22h.22-.22c-.33,0-.66,0-.98.22h0Z"/>
  <path class="cls-5" d="M228.54,468.02c2.95-.55,5.91-1.09,8.86-1.42.98,0,1.97-.22,2.95-.33-.98,0-1.97.22-2.95.33-2.95.33-5.91.88-8.86,1.42h0Z"/>
  <path class="cls-5" d="M289.69,14.65c.77-2.3,1.31-4.7,2.08-7.11-20.24,2.95-40.37,6.02-60.5,8.42,20.13-2.41,40.37-5.47,60.5-8.42-.66,2.41-1.31,4.81-2.08,7.11h0Z"/>
  <path class="cls-5" d="M113.45,278.75c0-.55.11-1.09.22-1.64,0,.55-.11,1.09-.22,1.64h0Z"/>
  <path class="cls-5" d="M126.03,306.65c-1.97-1.09-3.83-2.52-5.47-4.16,1.64,1.64,3.5,3.06,5.47,4.16h0Z"/>
  <path class="cls-5" d="M120.45,302.38c-.33-.33-.66-.77-1.09-1.2.33.44.66.77,1.09,1.2h0Z"/>
  <path class="cls-5" d="M134.45,309.6c-.55,0-.98-.22-1.53-.33.55.11.98.22,1.53.33h0Z"/>
  <path class="cls-1" d="M235.87,455.44c.44-.11.88-.22,1.31-.33-.44.11-.88.22-1.31.33"/>
  <path class="cls-5" d="M237.62,455c1.75-.44,3.5-.77,5.25-1.09-1.75.33-3.5.66-5.25,1.09h0Z"/>
  <path class="cls-1" d="M233.46,456.31c.55-.22,1.2-.44,1.75-.66-.55.22-1.2.44-1.75.66"/>
  <path class="cls-1" d="M128.87,196.7l.33-.33c0,.11-.22.22-.33.33"/>
  <path class="cls-5" d="M126.36,262.12c3.17,16.63,7.77,32.6,17.29,47.26-9.41-14.66-14.11-30.63-17.29-47.26h0Z"/>
  <path class="cls-5" d="M120.45,167.6c-.66.98-1.31,2.08-1.86,3.17,0,.11-.11.22-.22.44,0-.11.11-.22.22-.44.55-1.09,1.09-2.19,1.86-3.17h0Z"/>
  <path class="cls-5" d="M141.56,164.53c.55.77.66,1.2.11,2.08-.88,1.53-1.64,3.06-2.52,4.7.88-1.53,1.75-3.06,2.52-4.7.44-.88.44-1.31-.11-2.08-2.74-3.61-6.56-4.38-10.61-3.83-.88.11-1.75.33-2.52.55.77-.22,1.64-.44,2.52-.55,4.05-.55,7.88.22,10.61,3.83h0Z"/>
  <path class="cls-5" d="M133.03,185.54c.66-2.08,1.42-4.16,2.3-6.24,1.09-2.74,2.52-5.36,3.83-7.99-1.42,2.63-2.74,5.25-3.83,7.99-.88,2.08-1.64,4.05-2.3,6.24h0Z"/>
  <path class="cls-5" d="M251.84,452.7c.11,0,.33,0,.44.22-.11,0-.22-.11-.44-.22h0Z"/>
  <path class="cls-5" d="M279.19,381.81c0,.77-.22,1.42-.22,2.19-.44,3.72-.77,7.44-.98,11.05.22-3.72.44-7.44.98-11.05,0-.77.22-1.42.22-2.19h0Z"/>
  <path class="cls-5" d="M277.66,81.94c-.44,4.05-.88,8.1-1.2,12.14.44-4.05.77-8.1,1.2-12.14h0Z"/>
  <path class="cls-5" d="M252.06,104.36c-.22,0-.55,0-.77.11.22,0,.55,0,.77-.11h0Z"/>
  <path class="cls-5" d="M263.77,102.07c-1.42.33-2.84.66-4.27.88,1.42-.33,2.84-.55,4.27-.88h0Z"/>
  <path class="cls-5" d="M292.76,477.1h0c.77-.55,1.09-.77,1.31-.98,1.97-2.41,4.16-4.81,5.91-7.33-1.86,2.52-3.94,4.92-5.91,7.33-.22.22-.55.44-1.31.98h0Z"/>
  <path class="cls-5" d="M292.43,374.04c-1.75,8.42-2.08,16.96-2.3,25.49.11-8.53.55-17.07,2.3-25.49.33-1.64.44-3.28.66-4.81-.55,0-.98.22-1.53.22.55,0,.98-.22,1.53-.22-.22,1.53-.33,3.17-.66,4.81h0Z"/>
  <path class="cls-5" d="M290.35,465.17c.55,1.09.98,2.19,1.53,3.17,0,.11,0,.22.11.33,0-.11,0-.22-.11-.33-.55-1.09-.98-2.08-1.53-3.17h0Z"/>
  <path class="cls-5" d="M280.39,61.48c-.55,3.5-.98,6.89-1.42,10.39.44-3.5.98-6.89,1.42-10.39h0Z"/>
  <path class="cls-5" d="M380.83,140.58c-3.94-.33-7.22.98-9.96,3.5-3.28,2.95-3.94,7-4.27,11.16-.22,2.19-.98,2.84-2.95,1.97-1.86-.88-2.41-1.86-1.86-3.94.22-1.09.55-2.08.66-3.17,0-.77,0-1.75-.33-2.3-2.19-2.63-4.49-5.25-6.89-7.77-6.89-7.22-14.77-13.35-23.08-18.82-7-4.59-14.44-8.64-22.32-11.38-4.92-1.64-10.17-2.74-15.43-3.61-3.72-.66-7.66-.55-11.38-1.2-2.63-.44-4.92,0-7.33.66-2.52.77-5.03,1.64-7.66,2.19-9.52,1.86-19.15,3.72-28.77,5.25-9.3,1.53-18.71,2.52-28.12,2.41-2.52,0-5.25-.44-7.55.33-4.38,1.53-8.75,3.5-12.69,5.91-9.74,6.02-18.38,13.35-25.6,22.32-5.91,7.33-11.82,14.77-16.19,23.08-3.06,5.69-6.02,11.49-8.53,17.4-1.86,4.27-2.95,8.97-4.59,13.35-2.95,7.99-4.38,16.3-5.25,24.62-.66,6.02-.88,12.03-.98,18.05,0,3.06.11,6.13.77,9.19,1.64,8.42,3.17,16.96,5.36,25.27,1.53,5.91,3.72,11.6,6.13,17.18,3.06,7,6.89,13.57,11.6,19.69,3.83,5.03,8.1,9.52,12.69,13.68,5.91,5.36,12.36,10.17,19.25,14.22,6.78,4.05,13.68,7.99,20.57,11.6,4.27,2.19,8.75,4.16,13.24,5.69,5.25,1.86,10.61,3.5,16.08,4.81,4.7,1.2,9.3,3.61,14.66,2.63.44,1.42,1.2,2.74,1.2,4.05-.22,3.5-.98,7-1.2,10.5-.66,10.17-.33,20.24.44,30.3.77,9.96,2.63,19.69,5.25,29.21,2.41,8.75,5.47,17.18,8.21,25.82.44,1.53-1.86,5.8-3.39,6.13h-1.09c-2.3.11-4.49.22-6.78.44-4.81.44-9.52.66-14.22,1.31-4.59.66-9.3,1.31-13.68,2.63-4.92,1.42-9.3,4.16-13.24,7.44-1.86,1.64-3.61,3.61-4.92,5.69-1.75,2.95-.55,6.56,2.52,9.08,7.55,6.24,16.41,8.75,26.04,8.31,6.24-.22,12.36-.98,18.6-1.53,7.66-.55,13.89-4.27,20.13-8.21,4.27-2.63,7.44-6.35,10.17-10.5,3.28-4.7,4.59-9.74,1.86-14.99-6.35-12.03-10.17-24.94-11.82-38.4-1.09-9.08-2.3-18.27-2.63-27.35-.55-11.6,1.42-23.08,2.84-34.57,0-.44.22-.88.55-1.2,1.75-1.42,3.06-3.5,5.8-3.17.44,0,.98,0,1.53-.22,6.35-1.75,12.69-3.39,18.93-5.36,6.56-2.08,12.58-5.03,18.38-8.75,5.58-3.5,11.38-6.78,16.63-10.72,4.92-3.72,9.3-8.21,13.78-12.58,2.84-2.63,5.47-5.47,7.99-8.42,1.97-2.3,3.5-5.03,5.47-7.44,7.88-9.74,13.46-20.68,18.16-32.27,4.81-11.71,8.21-23.74,9.08-36.43.11-1.86.33-3.72.44-5.58.33-5.14,1.31-10.28.98-15.43-.66-10.72-2.52-21.22-5.8-31.4-.77-2.41-1.53-4.92-3.94-6.35-1.2-.77-.55-1.97.11-2.3,1.75-.77,3.61-1.53,5.47-1.64,3.06-.22,5.69-1.31,7.66-3.5,6.35-7.44,6.13-21.22-.33-28.99-3.61-4.49-8.21-7.33-14.11-7.88l-.33.33ZM261.47,152.72c.33-1.2.55-2.74,1.31-3.61s1.2-1.64,1.31-2.84c0-.66.55-1.42.98-1.97,4.81-6.24,10.94-10.39,17.94-13.46,3.17-1.42,6.45-2.52,9.96-2.19,1.53.22,2.95,1.31,2.95,2.63s-1.09,2.19-2.63,2.19c-7.77,0-13.68,4.38-19.91,9.08,4.49-.88,8.31-1.97,12.36-2.41,2.95-.33,5.91,0,8.97,0,1.31,0,2.63.22,3.83.66,1.09.44,1.86,1.42,1.42,2.74-.33,1.2-1.31,1.53-2.52,1.42-4.92-.22-9.85-1.09-14.77.22-3.94,1.09-7.77,2.3-11.6,3.39v.55h1.31c7.44-.22,14.55,1.75,21.33,4.7.55.22.98.55,1.42.88.98.88,1.75,1.97.88,3.39-.66,1.09-2.3,1.31-3.61.66-8.21-3.83-16.74-5.91-25.93-4.59-1.53.22-3.28.77-4.49-.77-.22-.33-.66-.88-.55-1.09v.44ZM253.92,177.12c4.49-.55,8.75-1.09,13.02.55,2.74.98,5.47,2.19,7.99,3.72,2.95,1.75,3.72,4.92,4.38,8.1,1.2,6.02,0,11.6-3.28,16.74-2.41,3.72-5.14,7.11-8.97,9.52-3.61,2.3-7.77,2.84-11.92,2.95-4.38.11-8.53-.77-12.36-2.84-5.69-3.06-10.5-10.83-9.63-17.94,1.53-11.27,10.17-19.25,20.79-20.57v-.22ZM221.21,143.53c.33-1.2,1.53-2.41,2.74-3.39,3.5-2.74,8.75-1.64,10.61,2.08,1.86,3.61,1.97,7.33,2.3,11.16-.66,3.06-1.31,6.13-2.19,9.08-.55,2.08-2.3,3.39-5.14,3.61-2.52.11-4.59-.66-6.02-2.3-3.06-3.5-3.94-7.66-3.94-11.71,0-2.84.66-5.69,1.53-8.42l.11-.11ZM361.35,280.94c-.88.98-3.61.77-4.92-.33-5.03-4.27-9.96-8.53-14.99-12.8-.44-.33-.88-.77-1.31-1.09-2.08-1.53-2.08-2.3-.98-4.59,1.86-4.05,3.94-8.1,5.36-12.36,1.53-4.38,1.53-8.97.22-13.57-.55-2.08-2.3-2.41-3.83-2.84-1.42-.44-2.41.55-3.39,1.53-4.92,5.14-5.03,10.83-2.41,17.07.77,1.64,1.2,3.39,1.75,5.14.66,2.3-.33,3.39-2.52,2.74-1.2-.33-2.19-1.2-3.28-1.97-1.31-.98-2.52-2.3-3.94-3.28-4.49-3.28-9.41-5.58-14.66-7.44-2.63-.88-5.03-.11-7.11,1.53-2.08,1.64-2.41,4.49-.77,7,1.75,2.74,4.05,4.7,7.22,5.69,4.16,1.31,8.1,3.06,12.14,4.7.33.11.66.44.98.66,1.09.66,1.53,1.64,1.09,2.84-.55,1.42-1.64,1.53-2.95,1.2-2.84-.66-5.58-1.42-8.42-1.86-7.11-1.2-12.8,1.53-17.83,6.13-1.97,1.75-1.97,4.16-1.2,6.45.77,2.3,2.74,2.84,4.92,3.17,3.61.55,7-.22,10.17-2.08,2.95-1.75,6.13-2.63,9.52-2.95.98,0,2.08.22,2.95.77,1.64.88,1.53,3.17-.22,3.83-3.06,1.31-6.24,2.74-9.52,3.61-4.7,1.2-10.28,7.44-10.83,12.25,0,.55-.22.98-.33,1.42-.88,4.16,1.75,7.22,6.13,6.89,7.11-.44,11.38-4.7,14.44-10.61.55-1.09.98-2.19,1.53-3.28,1.64-3.28,4.7-3.5,7-.66,3.83,4.81,7.99,9.41,11.92,14.11.88,1.09,1.75,2.19,2.41,3.28.88,1.53-.22,3.28-2.08,3.5-2.52.33-3.94-1.31-5.36-2.95-3.28-3.72-6.45-7.55-9.52-11.27-1.97,2.3-3.72,4.81-5.91,6.89-4.92,4.7-10.72,7.66-17.83,5.8-8.86-2.3-10.94-10.39-7.66-17.83.88-1.97,2.08-3.83,3.17-5.69-2.19-1.09-3.39-1.09-5.03.66-4.49,4.59-10.28,6.89-16.19,8.75-5.58,1.86-11.27,2.95-17.07,2.84-10.5-.22-20.68-1.64-30.2-6.67-7.77-4.16-15.54-8.64-21.77-14.88-10.07-10.07-17.29-21.88-19.47-36.32-.77-5.36-.88-10.83-1.2-15.97h-.11c.11-.66.22-1.31.22-2.08-3.17.88-6.24,2.41-8.75,4.59-.55.55-1.42.55-2.08,0s-.55-1.53,0-2.08c1.53-1.31,3.17-2.41,4.92-3.28,6.35-3.17,13.57-3.83,20.57-2.84.77.11,1.2,1.09.98,1.75-.22.77-.98,1.09-1.75.98h-1.31c-.44,0-.88,0-1.31-.11h-4.81v.33c0,.66,0,1.31.22,1.86-.11,0-.22,0-.33.11.11,1.53.22,3.17.44,4.7.44,4.59.44,9.19,1.53,13.68,1.09,4.59,2.95,9.08,5.03,13.35,2.3,4.59,5.14,9.08,8.21,13.24,2.95,3.94,6.56,7.44,10.83,10.07,3.06,1.97,6.02,3.94,8.97,5.91,6.78,4.38,14.11,7,22.21,7.66,7.44.66,14.88.88,22.1-1.09,4.92-1.42,9.63-3.39,13.78-6.45,2.74-2.08,2.74-1.97,1.31-5.03-2.19-4.59-1.09-9.63,2.95-13.35,3.28-2.95,7.11-4.7,11.27-5.91.33,0,.55-.22.77-.22-1.86-1.97-3.83-3.83-5.36-6.02-1.64-2.3-2.95-4.92-2.08-7.77.98-3.39,3.17-6.13,6.78-7.33,4.05-1.31,7.99-1.42,12.03.33.55.22,1.2.44,1.97.66.44-.98.98-1.97,1.2-2.95,1.64-6.78,3.5-13.46,3.39-20.46,0-4.05-.55-7.99-.88-12.03,0-.88,0-1.75.11-2.74.33-.66.55-1.31.77-1.97-1.86,0-3.83,0-5.69.22-.77,0-1.42-.77-1.42-1.42s.66-1.31,1.42-1.42c1.75-.22,3.5-.33,5.25-.22,6.35.22,12.69,2.19,18.05,5.58.66.44.88,1.31.55,1.97s-1.31.98-1.97.55c-1.42-.98-2.95-1.75-4.59-2.52-2.08-.88-4.16-1.53-6.35-2.08,0,.77.11,1.42.33,2.08h-.44c2.3,13.68,0,26.58-4.59,39.49.98.66,2.3,1.42,3.72,2.3v-1.75c-.44-3.28-.33-6.56,1.09-9.52,3.83-7.88,12.03-13.13,20.46-5.14.88.77,1.31,2.19,1.64,3.28,2.08,7.99.44,15.54-2.95,22.87-.77,1.75-1.53,3.39-2.41,5.36,4.38,3.61,8.75,7.22,13.24,10.94.66.55,1.31.98,1.86,1.53,1.64,1.53,1.97,3.5.88,4.7l-.11.55Z"/>
  <path class="cls-5" d="M223.18,16.84c2.41-.22,4.81-.55,7.22-.88-2.41.33-4.81.55-7.22.88h0Z"/>
  <path class="cls-5" d="M204.03,18.81c4.92-.44,9.96-.98,14.88-1.53-4.92.55-9.96,1.09-14.88,1.53h0Z"/>
  <path class="cls-5" d="M188.5,20.12c1.31,0,2.74-.22,4.05-.33-1.31,0-2.74.22-4.05.33h0Z"/>
  <path class="cls-5" d="M293.3,429.29c1.09,4.59,1.97,9.19,3.28,13.78,1.31,4.16,2.74,8.42,4.7,12.36-1.97-3.94-3.39-8.1-4.7-12.36-1.31-4.49-2.19-9.19-3.28-13.78h0Z"/>
  <path class="cls-5" d="M290.35,411.35c0,.55,0,1.2.11,1.75,0-.55,0-1.2-.11-1.75h0Z"/>
  <path class="cls-5" d="M206.33,107.21c.11.55.55,1.31.98,1.42-.44-.11-.88-.88-.98-1.42h0Z"/>
  <path class="cls-5" d="M291.55,421.19c0,.66.22,1.2.33,1.86-.11-.66-.22-1.2-.33-1.86h0Z"/>
  <path class="cls-5" d="M209.61,108.96h2.08c3.61,0,7.22-.22,10.72-.44-3.61.33-7.11.44-10.72.44h-2.08Z"/>
  <path class="cls-1" d="M205.67,105.13c-.22-.88-.44-1.64-.66-2.52.22.88.44,1.64.66,2.52"/>
  <path class="cls-2" d="M396.47,142.11c-5.91-5.58-18.49-8.53-25.82-3.94-1.75,1.09-3.61,2.19-5.47,3.17-19.69-21.33-42.34-37.63-72.64-41.68,2.19-1.09,4.05-1.86,5.8-2.74,7.66-3.94,15.43-7.77,22.97-11.71,3.61-1.86,7-4.16,10.5-6.35,1.75-1.09,2.3-3.17,1.2-4.92s-2.19-1.86-4.27-.55c-1.31.77-2.63,1.42-3.94,2.3-11.49,7.44-23.85,13.35-36.43,18.71-1.86.77-3.72,1.42-5.8,2.19.22-2.95.44-5.58.77-8.21.88-7.66,1.86-15.32,2.95-22.97.98-7.22,2.08-14.33,3.39-21.44,1.2-6.67,2.3-13.35,4.05-19.91,1.86-6.78,3.61-13.68,6.67-20.02.44-.88.33-2.84-.33-3.39-.88-.66-2.52-.77-3.83-.55-1.31.11-2.41.98-3.72,1.2-11.82,1.75-23.63,3.5-35.45,5.14-5.14.77-10.28,1.53-15.54,2.19-9.41,1.09-18.71,2.3-28.12,3.17-12.69,1.09-25.38,1.97-38.07,2.95-4.27.33-8.53.55-12.8.77-1.53,0-2.52.98-2.84,2.3-.33,1.53-.22,2.95,1.53,3.83.98.44,1.64,1.53,2.19,2.52,4.16,7.22,8.31,14.33,12.36,21.66,2.95,5.58,6.13,11.05,8.42,16.85,4.92,12.36,10.07,24.72,13.57,37.63.77,2.95,1.53,5.91,2.41,9.08h-2.19c-7.11-.55-14.33-.88-21.44-1.75-8.53-.98-16.85-2.95-24.94-5.69-1.97-.66-2.84-.33-3.61,1.53-.77,1.86-.22,3.28,1.64,3.94,2.95,1.09,5.91,2.08,8.86,3.06,8.42,2.63,17.07,3.72,25.71,4.7,1.64.22,3.28.44,5.36.66-19.58,11.05-33.15,27.68-44.86,45.51-2.3-1.42-4.16-3.17-6.45-3.94-4.92-1.75-9.85-2.3-14.88.11-4.59,2.41-7.77,6.45-9.96,10.72-2.74,5.36-4.05,11.49-2.84,17.61,1.31,7.11,4.59,12.91,11.38,16.08,1.53.77,3.28.98,5.14,1.42-.22.98-.55,1.97-.77,2.95-1.97,10.07-3.28,20.13-3.61,30.3,0,.88-.44,1.97-.98,2.74-3.61,5.69-7.55,11.16-9.85,17.5-1.09,2.84-1.86,5.69-2.74,8.64-1.97,7.22-3.5,14.44-2.41,21.99,1.09,7.44,4.27,13.78,9.41,19.15,4.38,4.49,10.07,6.35,15.75,8.21,4.16,1.31,8.42.88,12.69.22,1.31-.22,2.41-.11,3.28,1.2,5.91,8.53,13.46,15.21,21.55,21.55,10.07,7.88,21.11,14.44,32.6,20.13,13.24,6.56,27.13,10.72,41.79,13.57-2.74,25.82-.98,51.2,7.11,76.03h-1.42c-8.21.55-16.3,1.42-23.41,6.24-4.05,2.74-8.21,5.14-10.17,10.07-1.2,2.95-.98,5.69.33,8.31-2.74,1.86-5.47,3.83-8.21,5.58-.22.11-.44.22-.66.44-.88.98-1.86,1.97-3.06,2.74v.22c-.22.33-.55.55-.77.77-2.84,2.74-4.38,6.13-3.94,10.17.44,4.05,2.63,7.11,5.47,9.63,8.1,7.22,17.72,10.39,28.44,10.28,6.13,0,12.14-.66,18.27-1.2,7.77-.66,15.1-2.63,21.55-7.22,0,0,.22-.11.33-.22,1.53-1.2,3.39-2.19,5.36-2.84h0c5.03-3.28,7.99-8.1,11.16-12.91,1.2-1.86,2.52-3.61,4.49-4.92,6.78-4.16,11.05-10.28,13.57-17.72.66-1.86.98-2.84,1.64-3.39v-2.84c-.33,0-.77-.44-.88-.66-.88-2.08-1.75-4.27-2.63-6.45h.22c-.44-.98-.77-1.97-1.09-3.06-.55-.11-.88-.44-1.09-1.09-.11-.66-.55-1.31-.66-1.97-1.42-5.58-2.52-11.16-4.16-16.63-1.53-5.25-2.52-10.72-2.74-16.08-.33-8.75,0-17.5.22-26.26,0-2.41.44-4.7.77-7.11.44-3.39,1.2-6.67,1.53-10.07.11-1.75.98-2.3,2.41-2.84,2.95-.98,5.91-1.97,8.64-3.39,6.67-3.5,13.24-7,19.58-10.83,3.94-2.3,7.77-4.81,11.16-7.66,5.47-4.49,10.61-9.41,15.86-14.22.22-.22.44-.66.66-.88,3.5-4.38,7-8.75,10.39-13.13,2.08-2.74,4.27-5.47,6.02-8.42,2.41-3.94,4.49-7.99,6.45-12.14,2.84-5.8,5.69-11.6,7.99-17.61,3.39-8.75,5.8-17.94,6.89-27.35.44-4.05.55-8.21.88-12.36.66-6.89,1.31-13.78.33-20.68-.98-6.89-2.08-13.68-3.5-20.46-.66-3.5-1.97-7-2.95-10.5,1.97-.88,3.83-1.75,5.58-2.74,1.42-.88,2.95-1.75,4.05-3.06,4.38-4.81,6.02-10.61,5.69-16.85-.44-8.42-3.61-15.75-9.85-21.77l.77-.33ZM193.31,67.82c-3.06-7.55-6.35-15.1-10.07-22.32-4.16-7.99-8.97-15.75-13.46-23.63,0-.11-.11-.33-.22-.55v-.22c6.35-.22,12.69-.66,18.93-1.09,1.31,0,2.74-.22,4.05-.33,2.52-.22,5.14-.44,7.66-.66,1.31-.11,2.52-.22,3.83-.33,4.92-.44,9.96-.98,14.88-1.53,1.42-.11,2.84-.33,4.27-.44,2.41-.22,4.81-.55,7.22-.88h.88c20.13-2.41,40.37-5.47,60.5-8.42-.66,2.41-1.31,4.81-2.08,7.11-.22.55-.33,1.09-.55,1.75-.77,2.19-1.42,4.27-1.97,6.45-.55,2.19-1.09,4.38-1.53,6.56-.22,1.09-.44,2.19-.66,3.28-.66,3.28-1.2,6.67-1.75,9.96-.44,2.84-.88,5.8-1.31,8.64-.55,3.39-.98,6.78-1.53,10.17-.55,3.5-.98,6.89-1.42,10.39-.22,1.86-.55,3.72-.77,5.58-.22,1.53-.44,3.06-.55,4.59-.44,4.05-.88,8.1-1.2,12.14,0,.55,0,1.09-.11,1.64v.88c-.22,2.08-.55,2.19-3.06,2.95-2.63.77-5.25,1.53-7.88,2.19-.44.11-.98.22-1.42.33-1.42.33-2.84.66-4.27.88-2.41.55-4.92.98-7.33,1.42-.22,0-.55,0-.77.11-1.31.22-2.63.44-3.94.66-1.42.22-2.84.44-4.38.66-1.42.22-2.84.44-4.38.66-5.47.88-10.83,1.64-16.3,2.08-3.61.33-7.11.44-10.72.44h-2.08c-.77,0-1.53-.11-2.19-.33h0c-.44-.11-.88-.88-.98-1.42-.22-.66-.44-1.42-.55-2.08-.22-.88-.44-1.64-.66-2.52-1.09-4.05-2.19-8.1-3.5-12.03-2.52-7.66-5.25-15.21-8.21-22.65l-.44-.11ZM124.28,197.03c-5.14-2.41-7-7.11-7.77-12.36-.11-.77,0-1.64,0-2.41h-.55c.33-1.42.55-2.84.77-4.16v-.22c.22-1.31.55-2.74.88-3.94,0-.11,0-.22.11-.44,0-.22.22-.55.22-.77s.22-.44.22-.77c0-.22.11-.33.22-.55,0-.11.11-.22.22-.44.55-1.09,1.09-2.19,1.86-3.17.66-.98,1.42-1.97,2.3-2.74,1.09-1.09,2.3-1.97,3.61-2.74.66-.33,1.42-.66,2.08-.88.77-.22,1.64-.44,2.52-.55,4.05-.55,7.88.22,10.61,3.83.55.77.66,1.2.11,2.08-.88,1.53-1.75,3.06-2.52,4.7-1.42,2.63-2.74,5.25-3.83,7.99-.88,2.08-1.64,4.05-2.3,6.24-.98,2.95-1.86,5.91-2.84,8.75-.22.88-.66,1.53-1.09,2.08,0,.11-.22.22-.33.33-.44.44-.98.66-1.53.88h-.33c-.77.11-1.75,0-2.74-.55l.11-.22ZM143.64,309.38c-1.64.33-3.28.55-4.92.55h0c-1.42,0-2.84-.11-4.16-.33-.55,0-.98-.22-1.53-.33-.66-.11-1.2-.33-1.86-.44-1.42-.44-2.74-.98-4.16-1.64-.33-.22-.66-.33-.98-.55-1.97-1.09-3.83-2.52-5.47-4.16h0c-.33-.33-.66-.77-1.09-1.2-1.2-1.42-2.19-2.95-3.06-4.59-.77-1.64-1.42-3.5-1.86-5.25-.22-1.09-.44-2.19-.66-3.28-.44-1.97-.55-3.94-.55-5.91v-3.28c0-.55.11-1.09.22-1.64.22-1.31.44-2.74.66-4.05.22-.77.33-1.64.55-2.41.77-2.95,1.64-5.91,2.52-8.75,1.42-4.7,2.95-9.52,6.02-13.57.11-.22.33-.33.55-.77.55,3.39,1.09,6.78,1.64,10.17.11.66.22,1.31.33,1.97.11.77.33,1.53.44,2.3,3.17,16.63,7.77,32.6,17.29,47.26l.11-.11ZM222.74,464.74c2.52-4.27,6.45-6.67,10.72-8.42.55-.22,1.2-.44,1.75-.66h.66c.44-.11.88-.22,1.31-.33.11,0,.33,0,.44-.11,1.75-.44,3.5-.77,5.25-1.09h.22c.88-.11,1.75-.22,2.52-.44h.33c1.09-.22,2.3-.33,3.39-.55h2.52c.11,0,.33,0,.44.22.22.11.33.22.55.44.33.33.55.88.77,1.53,0,.22.11.44.22.66.88,3.06,2.08,6.02,3.06,8.97v.66c-.66,0-1.42,0-2.08.11-3.5.22-7.11.44-10.61.77-1.2,0-2.52.22-3.72.33-.98,0-1.97.22-2.95.33-2.95.33-5.91.88-8.86,1.42-.88.11-1.75.33-2.63.44h-.33c-.33,0-.66,0-.98.22h-.33c-.88.22-1.64.44-2.41-.66-.98-1.42.22-2.52.88-3.5l-.11-.33ZM301.18,455.33c.98,2.08,1.42,3.94,1.42,5.91h0c0,.77-.11,1.64-.33,2.41-.11.55-.33,1.09-.44,1.53-.22.55-.44.98-.77,1.53-.33.55-.55.98-.98,1.53,0,.11-.22.33-.33.44-1.86,2.52-3.94,4.92-5.91,7.33-.22.22-.55.44-1.31.98,0-1.42.22-2.52,0-3.5-.22-1.64-.11-3.39-.77-4.81,0-.11,0-.22-.11-.33-.55-1.09-.98-2.08-1.53-3.17-.98-2.08-1.86-4.16-2.74-6.35-2.84-7.11-4.92-14.44-6.13-21.99-.88-5.91-1.97-11.82-2.63-17.72-.77-6.56-1.09-13.13-.98-19.8h0c0-1.42,0-2.84.11-4.27.22-3.72.44-7.44.98-11.05,0-.77.22-1.42.22-2.19.44-3.17.77-6.24,1.2-9.41v-.33c.11-.33.33-.77.55-.77,3.5-.66,7-1.2,10.5-1.75.55,0,.98-.22,1.53-.22-.22,1.53-.33,3.17-.66,4.81-1.75,8.42-2.08,16.96-2.3,25.49v8.64c0,.98,0,2.08.22,3.06,0,.55,0,1.2.11,1.75.22,2.74.55,5.47,1.09,8.21,0,.66.22,1.2.33,1.86.22.98.44,1.97.55,2.95.22,1.09.44,2.19.77,3.17,1.09,4.59,1.97,9.19,3.28,13.78,1.31,4.16,2.74,8.42,4.7,12.36l.33-.11ZM395.27,177.44c-1.86,2.3-4.49,3.39-7.66,3.5-1.86.11-3.72.88-5.47,1.64-.66.33-1.42,1.53-.11,2.3,2.41,1.53,3.17,3.94,3.94,6.35,3.28,10.28,5.14,20.79,5.8,31.4.33,5.03-.66,10.28-.98,15.43-.11,1.86-.33,3.72-.44,5.58-.77,12.69-4.27,24.72-9.08,36.43-4.7,11.49-10.28,22.54-18.16,32.27-1.97,2.41-3.5,5.14-5.47,7.44-2.52,2.95-5.25,5.69-7.99,8.42-4.49,4.27-8.86,8.75-13.78,12.58-5.25,3.94-11.05,7.22-16.63,10.72-5.8,3.72-11.82,6.67-18.38,8.75-6.24,1.97-12.58,3.61-18.93,5.36-.44.11-.98.33-1.53.22-2.74-.44-4.16,1.64-5.8,3.17-.33.22-.55.77-.55,1.2-1.42,11.49-3.39,22.97-2.84,34.57.44,9.19,1.64,18.27,2.63,27.35,1.64,13.46,5.47,26.26,11.82,38.4,2.74,5.25,1.42,10.28-1.86,14.99-2.84,4.05-5.91,7.77-10.17,10.5-6.24,3.94-12.58,7.66-20.13,8.21-6.24.44-12.36,1.2-18.6,1.53-9.63.44-18.49-2.08-26.04-8.31-3.06-2.52-4.27-6.13-2.52-9.08,1.2-2.08,2.95-4.16,4.92-5.69,3.94-3.28,8.31-6.02,13.24-7.44,4.38-1.31,9.08-1.97,13.68-2.63,4.7-.66,9.52-.88,14.22-1.31,2.3-.22,4.49-.33,6.78-.44h1.09c1.53-.33,3.83-4.59,3.39-6.13-2.74-8.64-5.91-17.07-8.21-25.82-2.63-9.52-4.59-19.25-5.25-29.21-.77-10.17-.98-20.24-.44-30.3.22-3.5.98-7,1.2-10.5,0-1.2-.77-2.52-1.2-4.05-5.25.98-9.85-1.42-14.66-2.63-5.36-1.42-10.83-2.95-16.08-4.81-4.49-1.64-9.08-3.5-13.24-5.69-7-3.72-13.78-7.66-20.57-11.6-6.89-4.05-13.24-8.86-19.25-14.22-4.59-4.16-8.86-8.64-12.69-13.68-4.7-6.13-8.53-12.69-11.6-19.69-2.41-5.58-4.59-11.27-6.13-17.18-2.19-8.31-3.72-16.85-5.36-25.27-.55-2.95-.77-6.13-.77-9.19.11-6.02.33-12.14.98-18.05.98-8.42,2.3-16.74,5.25-24.62,1.64-4.38,2.74-9.08,4.59-13.35,2.63-5.91,5.47-11.71,8.53-17.4,4.49-8.31,10.28-15.75,16.19-23.08,7.22-8.97,15.86-16.41,25.6-22.32,3.94-2.41,8.31-4.38,12.69-5.91,2.3-.77,5.03-.33,7.55-.33,9.41,0,18.82-.88,28.12-2.41,9.63-1.53,19.15-3.39,28.77-5.25,2.63-.55,5.03-1.42,7.66-2.19,2.41-.77,4.7-1.2,7.33-.66,3.72.66,7.66.55,11.38,1.2,5.14.98,10.39,1.97,15.43,3.61,7.99,2.74,15.32,6.67,22.32,11.38,8.31,5.47,16.08,11.6,23.08,18.82,2.41,2.52,4.7,5.14,6.89,7.77.44.55.44,1.53.33,2.3,0,1.09-.44,2.08-.66,3.17-.44,2.08,0,3.06,1.86,3.94,1.97.88,2.84.22,2.95-1.97.33-4.05,1.09-8.21,4.27-11.16,2.74-2.52,6.02-3.83,9.96-3.5,5.91.55,10.5,3.39,14.11,7.88,6.45,7.88,6.67,21.55.33,28.99l.33-.33Z"/>
  <path class="cls-4" d="M182.68,45.61c3.78,7.22,7.11,14.77,10.22,22.32,3.11,7.44,5.77,15.1,8.33,22.65,1.33,3.94,2.44,7.99,3.55,12.03.22.88.44,1.64.67,2.52.22.66.44,1.42.56,2.08.11.55.56,1.31,1,1.42h0c.78.11,1.44.22,2.22.33h2.11c3.66,0,7.33-.22,10.88-.44,5.55-.44,11.11-1.2,16.55-2.08,1.44-.22,2.89-.44,4.44-.66,1.44-.22,2.89-.44,4.44-.66,1.33-.22,2.67-.44,4-.66.22,0,.56,0,.78-.11,2.44-.44,5-.88,7.44-1.42,1.44-.33,2.89-.55,4.33-.88.44-.11,1-.22,1.44-.33,2.67-.66,5.33-1.31,8-2.19,2.55-.77,2.89-.88,3.11-2.95v-.88c0-.55,0-1.09.11-1.64.44-4.05.78-8.1,1.22-12.14.22-1.53.33-3.06.56-4.59.22-1.86.56-3.72.78-5.58.44-3.5,1-6.89,1.44-10.39.44-3.39,1-6.78,1.55-10.17.44-2.84.89-5.8,1.33-8.64.56-3.28,1.11-6.67,1.78-9.96.22-1.09.44-2.19.67-3.28.44-2.19,1-4.38,1.55-6.56.56-2.19,1.22-4.38,2-6.45.22-.55.33-1.09.56-1.75.78-2.3,1.33-4.7,2.11-7.11-20.54,2.95-40.98,6.02-61.41,8.42h-.89c-2.44.33-4.89.55-7.33.88-1.44.11-2.89.33-4.33.44-5,.55-10.11,1.09-15.1,1.53-1.33.11-2.55.22-3.89.33-2.55.22-5.22.44-7.77.66-1.33,0-2.78.22-4.11.33-6.44.44-12.77.77-19.21,1.09v.22c0,.22.11.44.22.55,4.55,7.88,9.44,15.54,13.66,23.63l.44.11Z"/>
  <path class="cls-4" d="M218.91,17.39c1.42-.11,2.84-.33,4.27-.44-1.42.11-2.84.33-4.27.44h0Z"/>
  <path class="cls-4" d="M277.66,81.94c.22-1.53.33-3.06.55-4.59.22-1.86.55-3.72.77-5.58-.22,1.86-.55,3.72-.77,5.58-.22,1.53-.44,3.06-.55,4.59h0Z"/>
  <path class="cls-4" d="M281.93,51.3c.44-2.84.88-5.8,1.31-8.64.55-3.28,1.09-6.67,1.75-9.96-.66,3.28-1.2,6.67-1.75,9.96-.44,2.84-.88,5.8-1.31,8.64h0Z"/>
  <path class="cls-1" d="M192.54,19.79c2.52-.22,5.14-.44,7.66-.66-2.52.22-5.14.44-7.66.66"/>
  <path class="cls-1" d="M251.29,104.47c-1.31.22-2.63.44-3.94.66,1.31-.22,2.63-.44,3.94-.66"/>
  <path class="cls-4" d="M276.13,96.6v-.88c0-.55,0-1.09.11-1.64,0,.55,0,1.09-.11,1.64v.88h0Z"/>
  <path class="cls-4" d="M205.02,102.61c-1.09-4.05-2.19-8.1-3.5-12.03-2.52-7.66-5.25-15.21-8.21-22.65-3.06-7.55-6.35-15.1-10.07-22.32-4.16-7.99-8.97-15.75-13.46-23.63,0-.11-.11-.33-.22-.55,0,.22.11.44.22.55,4.49,7.88,9.3,15.54,13.46,23.63,3.72,7.22,7,14.77,10.07,22.32,3.06,7.44,5.69,15.1,8.21,22.65,1.31,3.94,2.41,7.99,3.5,12.03h0Z"/>
  <path class="cls-1" d="M285.65,29.31c-.22,1.09-.44,2.19-.66,3.28.22-1.09.44-2.19.66-3.28"/>
  <path class="cls-4" d="M281.93,51.3c-.55,3.39-.98,6.78-1.53,10.17.44-3.39.98-6.78,1.53-10.17h0Z"/>
  <path class="cls-4" d="M259.5,102.94c-2.41.55-4.92.98-7.33,1.42,2.41-.44,4.92-.88,7.33-1.42h0Z"/>
  <path class="cls-4" d="M287.18,22.86c.55-2.19,1.2-4.38,1.97-6.45.22-.55.33-1.09.55-1.75-.22.55-.33,1.09-.55,1.75-.77,2.19-1.42,4.27-1.97,6.45h0Z"/>
  <path class="cls-1" d="M247.36,105.13c-1.42.22-2.84.44-4.38.66,1.42-.22,2.84-.44,4.38-.66"/>
  <path class="cls-4" d="M222.41,108.63c5.47-.44,10.94-1.2,16.3-2.08,1.42-.22,2.84-.44,4.38-.66-1.42.22-2.84.44-4.38.66-5.47.88-10.83,1.64-16.3,2.08h0Z"/>
  <path class="cls-1" d="M265.19,101.74c-.44.11-.98.22-1.42.33.44-.11.98-.22,1.42-.33"/>
  <path class="cls-4" d="M207.31,108.63h0c.77.11,1.42.22,2.19.33-.77,0-1.53-.11-2.19-.33h0Z"/>
  <path class="cls-4" d="M169.46,21.11h0c6.35-.22,12.69-.66,18.93-1.09-6.35.44-12.58.77-18.93,1.09h0Z"/>
  <path class="cls-5" d="M293.3,429.29c-.22-1.09-.55-2.19-.77-3.28-.22-.98-.44-1.97-.55-2.95-.11-.66-.22-1.2-.33-1.86-.44-2.74-.77-5.47-1.09-8.21,0-.55,0-1.2-.11-1.75,0-.98-.11-2.08-.22-3.06v-8.64c.11-8.53.55-17.07,2.3-25.49.33-1.64.44-3.28.66-4.81-.55,0-.98.22-1.53.22-3.5.55-7,1.2-10.5,1.75-.22,0-.44.44-.55.77v.33c-.44,3.17-.88,6.24-1.2,9.41,0,.77-.22,1.42-.22,2.19-.44,3.72-.77,7.44-.98,11.05,0,1.42-.11,2.84-.11,4.27h0c-.11,6.56.22,13.13.98,19.8.77,5.91,1.75,11.82,2.63,17.72,1.2,7.66,3.28,14.99,6.13,21.99.88,2.08,1.75,4.27,2.74,6.35.55,1.09.98,2.19,1.53,3.17,0,.11,0,.22.11.33.55,1.42.55,3.28.77,4.81.11.98,0,2.08,0,3.5.77-.55,1.09-.77,1.31-.98,1.97-2.41,4.16-4.81,5.91-7.33,0-.11.22-.33.33-.44.33-.55.66-.98.98-1.53s.55-.98.77-1.53.33-1.09.44-1.53c.22-.77.33-1.64.33-2.41h0c0-1.86-.44-3.83-1.42-5.91-1.97-3.94-3.39-8.1-4.7-12.36-1.31-4.49-2.19-9.19-3.28-13.78l-.33.22Z"/>
  <path class="cls-5" d="M291.88,423.16c.22.98.44,1.97.55,2.95-.22-.98-.44-1.97-.55-2.95h0Z"/>
  <path class="cls-5" d="M290.57,413.1c.22,2.74.55,5.47,1.09,8.21-.44-2.74-.77-5.47-1.09-8.21h0Z"/>
  <path class="cls-5" d="M290.24,408.17c0,.98,0,2.08.22,3.06,0-.98-.11-2.08-.22-3.06h0Z"/>
  <path class="cls-5" d="M290.35,465.17c-.98-2.08-1.86-4.16-2.74-6.35.88,2.08,1.75,4.27,2.74,6.35h0Z"/>
  <path class="cls-5" d="M302.38,463.75c-.11.55-.33,1.09-.44,1.53.22-.55.33-1.09.44-1.53h0Z"/>
  <path class="cls-5" d="M277.88,399.31c0-1.42,0-2.84.11-4.27,0,1.42-.11,2.84-.11,4.27h0Z"/>
  <path class="cls-5" d="M280.5,372.07v.33c-.44,3.17-.88,6.24-1.2,9.41.44-3.17.77-6.24,1.2-9.41v-.33h0Z"/>
  <path class="cls-5" d="M278.86,419.11c-.77-6.56-1.09-13.13-.98-19.8-.11,6.56.22,13.13.98,19.8.77,5.91,1.75,11.82,2.63,17.72,1.2,7.66,3.28,14.99,6.13,21.99-2.84-7.11-4.92-14.44-6.13-21.99-.88-5.91-1.97-11.82-2.63-17.72h0Z"/>
  <path class="cls-5" d="M292.76,473.6c-.22-1.64-.11-3.39-.77-4.81.55,1.42.55,3.28.77,4.81.11.98,0,2.08,0,3.5,0-1.42.22-2.52,0-3.5h0Z"/>
  <path class="cls-5" d="M292.54,426.12c.22,1.09.44,2.19.77,3.28-.22-1.09-.55-2.19-.77-3.28h0Z"/>
  <path class="cls-5" d="M281.16,371.31c3.5-.66,7-1.2,10.5-1.75-3.5.55-7,1.2-10.5,1.75-.22,0-.44.44-.55.77.11-.33.33-.77.55-.77h0Z"/>
  <path class="cls-5" d="M299.98,468.78c0-.11.22-.33.33-.44.33-.55.66-.98.98-1.53-.33.55-.55.98-.98,1.53,0,.11-.22.33-.33.44h0Z"/>
  <path class="cls-5" d="M125.92,259.82c-.11-.66-.22-1.31-.33-1.97-.55-3.39-1.09-6.78-1.64-10.17-.33.33-.44.55-.55.77-3.06,4.05-4.59,8.75-6.02,13.57-.88,2.95-1.75,5.8-2.52,8.75-.22.77-.44,1.64-.55,2.41-.33,1.31-.55,2.74-.66,4.05,0,.55-.11,1.09-.22,1.64v3.28c0,1.97.22,3.94.55,5.91.22,1.09.44,2.19.66,3.28.44,1.86.98,3.61,1.86,5.25.88,1.75,1.86,3.28,3.06,4.59.33.44.66.77,1.09,1.2h0c1.64,1.64,3.5,3.06,5.47,4.16.33.22.66.33.98.55,1.31.66,2.74,1.2,4.16,1.64.55.22,1.2.33,1.86.44.55.11.98.22,1.53.33,1.42.22,2.84.33,4.16.33h0c1.64,0,3.28-.22,4.92-.55-9.41-14.66-14.11-30.63-17.29-47.26-.11-.77-.33-1.53-.44-2.3l-.11.11Z"/>
  <path class="cls-5" d="M123.29,248.34c.11-.22.33-.33.55-.77.55,3.39,1.09,6.78,1.64,10.17-.55-3.39-1.09-6.78-1.64-10.17-.33.33-.44.55-.55.77-3.06,4.05-4.59,8.75-6.02,13.57-.88,2.95-1.75,5.8-2.52,8.75.77-2.95,1.64-5.91,2.52-8.75,1.42-4.7,2.95-9.52,6.02-13.57h0Z"/>
  <path class="cls-5" d="M113.23,282.14c0,1.97.22,3.94.55,5.91.22,1.09.44,2.19.66,3.28-.22-1.09-.44-2.19-.66-3.28-.44-1.97-.55-3.94-.55-5.91h0Z"/>
  <path class="cls-5" d="M125.92,259.82c.11.77.33,1.53.44,2.3-.11-.77-.33-1.53-.44-2.3h0Z"/>
  <path class="cls-5" d="M114.54,291.22c.44,1.86.98,3.61,1.86,5.25.88,1.75,1.86,3.28,3.06,4.59-1.2-1.42-2.19-2.95-3.06-4.59-.77-1.64-1.42-3.5-1.86-5.25h0Z"/>
  <path class="cls-5" d="M132.92,309.27c-.66-.11-1.2-.33-1.86-.44.55.22,1.2.33,1.86.44h0Z"/>
  <path class="cls-5" d="M143.64,309.38h0c-1.64.33-3.28.55-4.92.55,1.64,0,3.28-.22,4.92-.55h0Z"/>
  <path class="cls-1" d="M127.01,307.2c-.33-.22-.66-.33-.98-.55.33.22.66.33.98.55"/>
  <path class="cls-5" d="M138.61,309.93c-1.42,0-2.84-.11-4.16-.33,1.42.22,2.84.33,4.16.33h0Z"/>
  <path class="cls-5" d="M114.32,273.06c.22-.77.33-1.64.55-2.41-.22.77-.44,1.64-.55,2.41h0Z"/>
  <path class="cls-5" d="M128.87,196.7l.33-.33c.44-.55.77-1.2,1.09-2.08.88-2.95,1.86-5.91,2.84-8.75.66-2.08,1.42-4.16,2.3-6.24,1.09-2.74,2.52-5.36,3.83-7.99.88-1.53,1.75-3.06,2.52-4.7.44-.88.44-1.31-.11-2.08-2.74-3.61-6.56-4.38-10.61-3.83-.88.11-1.75.33-2.52.55s-1.42.55-2.08.88c-1.31.77-2.63,1.64-3.61,2.74-.88.88-1.53,1.75-2.3,2.74-.66.98-1.31,2.08-1.86,3.17,0,.11-.11.22-.22.44,0,.22-.11.33-.22.55,0,.22-.22.44-.22.77,0,.22-.22.55-.22.77,0,.11,0,.22-.11.44-.33,1.31-.66,2.63-.88,3.94v.22c-.22,1.42-.44,2.84-.77,4.16h.55v2.41c.77,5.25,2.63,9.85,7.77,12.36.98.44,1.97.66,2.74.55h.33c.55-.11,1.09-.44,1.53-.88l-.11.22Z"/>
  <path class="cls-1" d="M118.26,171.76c0-.22.11-.33.22-.55,0,.22-.11.33-.22.55"/>
  <path class="cls-5" d="M116.73,177.66c.22-1.31.55-2.74.88-3.94-.33,1.31-.66,2.63-.88,3.94h0Z"/>
  <path class="cls-1" d="M117.71,173.29c0-.22.22-.55.22-.77,0,.22-.22.55-.22.77"/>
  <path class="cls-5" d="M124.28,197.03c-5.14-2.41-7-7.11-7.77-12.36-.11-.77,0-1.64,0-2.41v2.41c.77,5.25,2.63,9.85,7.77,12.36.98.44,1.97.66,2.74.55-.77.11-1.75,0-2.74-.55h0Z"/>
  <path class="cls-5" d="M128.87,196.7c-.44.44-.98.66-1.53.88.55-.11,1.09-.44,1.53-.88h0Z"/>
  <path class="cls-5" d="M120.45,167.6c.66-.98,1.42-1.97,2.3-2.74-.88.88-1.53,1.75-2.3,2.74h0Z"/>
  <path class="cls-5" d="M126.36,162.13c.66-.33,1.42-.66,2.08-.88-.77.22-1.42.55-2.08.88h0Z"/>
  <path class="cls-5" d="M116.73,177.88c-.22,1.42-.44,2.84-.77,4.16h.33-.33c.33-1.42.55-2.84.77-4.16h0Z"/>
  <path class="cls-5" d="M129.2,196.37c.44-.55.77-1.2,1.09-2.08.88-2.95,1.86-5.91,2.84-8.75-.98,2.95-1.86,5.91-2.84,8.75-.22.88-.66,1.53-1.09,2.08h0Z"/>
  <path class="cls-5" d="M222.74,464.74c-.66,1.09-1.86,2.08-.88,3.5.66.98,1.53.88,2.41.66h.33c.33,0,.66-.22.98-.22h.33c.88-.11,1.75-.33,2.63-.44,2.95-.55,5.91-1.09,8.86-1.42.98,0,1.97-.22,2.95-.33,1.2,0,2.52-.22,3.72-.33,3.5-.22,7-.55,10.61-.77.66,0,1.42,0,2.08-.11v-.66c-.98-2.95-2.19-5.91-3.06-8.97,0-.22-.11-.44-.22-.66-.22-.66-.44-1.2-.77-1.53-.11-.22-.33-.33-.55-.44-.11,0-.22-.11-.44-.22h-2.52c-1.09.22-2.3.33-3.39.55h-.33c-.88.11-1.75.22-2.52.44h-.22c-1.75.33-3.5.66-5.25,1.09-.11,0-.33,0-.44.11-.44.11-.88.22-1.31.33h-.66c-.55.22-1.2.44-1.75.66-4.27,1.64-8.21,4.16-10.72,8.42l.11.33Z"/>
  <path class="cls-5" d="M253.7,455.55c0-.22-.11-.44-.22-.66-.22-.66-.44-1.2-.77-1.53.33.33.55.88.77,1.53,0,.22.11.44.22.66h0Z"/>
  <path class="cls-5" d="M225.69,468.46h.11c.88-.11,1.75-.33,2.63-.44-.88.11-1.75.33-2.63.44h-.11Z"/>
  <path class="cls-5" d="M244.07,466.05c-1.2,0-2.52.22-3.72.33,1.2,0,2.52-.22,3.72-.33h0Z"/>
  <path class="cls-1" d="M237.07,455.11c.11,0,.33,0,.44-.11-.11,0-.33,0-.44.11"/>
  <path class="cls-5" d="M224.27,468.78c-.88.22-1.64.44-2.41-.66-.98-1.42.22-2.52.88-3.5,2.52-4.27,6.45-6.67,10.72-8.42-4.27,1.64-8.21,4.16-10.72,8.42-.66,1.09-1.86,2.08-.88,3.5.66.98,1.53.88,2.41.66h0Z"/>
  <path class="cls-5" d="M256.76,465.17h0c-.66,0-1.42,0-2.08.11.66,0,1.42,0,2.08-.11h0Z"/>
  <path class="cls-2" d="M358.62,274.7c-4.49-3.72-8.97-7.33-13.24-10.94.88-1.97,1.64-3.72,2.41-5.36,3.39-7.33,4.92-14.88,2.95-22.87-.33-1.2-.77-2.52-1.64-3.28-8.53-7.99-16.63-2.74-20.46,5.14-1.42,2.84-1.53,6.24-1.09,9.52v1.75c-1.42-.88-2.74-1.64-3.72-2.3,4.7-12.91,7-25.82,4.59-39.49h.44c-.11-.66-.22-1.42-.33-2.08-1.75-.33-3.5-.55-5.25-.66-.22.66-.44,1.31-.77,1.97,0,.98-.22,1.86-.11,2.74.22,4.05.77,7.99.88,12.03,0,7-1.75,13.68-3.39,20.46-.22.98-.77,1.97-1.2,2.95-.77-.33-1.42-.44-1.97-.66-3.94-1.64-7.99-1.64-12.03-.33-3.61,1.2-5.8,3.83-6.78,7.33-.77,2.84.44,5.47,2.08,7.77,1.53,2.08,3.5,3.94,5.36,6.02-.11,0-.44.11-.77.22-4.16,1.2-7.99,2.95-11.27,5.91-4.05,3.72-5.14,8.75-2.95,13.35q1.42,2.95-1.31,5.03c-4.16,3.17-8.86,5.14-13.78,6.45-7.22,1.97-14.66,1.86-22.1,1.09-8.1-.77-15.43-3.28-22.21-7.66-3.06-1.97-6.02-3.94-8.97-5.91-4.27-2.74-7.88-6.13-10.83-10.07-3.06-4.16-5.91-8.64-8.21-13.24-2.08-4.27-3.94-8.75-5.03-13.35-1.09-4.38-1.09-9.08-1.53-13.68-.11-1.53-.22-3.17-.44-4.7.11,0,.22,0,.33-.11,0-.66-.22-1.31-.22-1.86v-.33c-2.19.11-4.38.55-6.45,1.09,0,.66-.11,1.31-.22,2.08h.11c.33,5.14.44,10.61,1.2,15.97,2.08,14.33,9.41,26.26,19.47,36.32,6.24,6.24,14,10.72,21.77,14.88,9.41,5.03,19.69,6.35,30.2,6.67,5.8.11,11.49-.98,17.07-2.84,5.91-1.97,11.71-4.16,16.19-8.75,1.64-1.64,2.84-1.75,5.03-.66-1.09,1.86-2.3,3.72-3.17,5.69-3.17,7.44-1.09,15.54,7.66,17.83,7,1.86,12.8-1.09,17.83-5.8,2.19-2.08,3.94-4.59,5.91-6.89,3.06,3.61,6.24,7.44,9.52,11.27,1.42,1.64,2.84,3.28,5.36,2.95,1.86-.22,2.95-1.97,2.08-3.5-.66-1.2-1.53-2.3-2.41-3.28-3.94-4.7-7.99-9.41-11.92-14.11-2.3-2.84-5.36-2.63-7,.66-.55,1.09-.98,2.19-1.53,3.28-3.06,5.91-7.33,10.17-14.44,10.61-4.27.22-7-2.74-6.13-6.89,0-.44.33-.98.33-1.42.55-4.81,6.13-11.05,10.83-12.25,3.28-.88,6.35-2.3,9.52-3.61,1.75-.77,1.86-2.95.22-3.83-.88-.44-1.97-.77-2.95-.77-3.39.22-6.56,1.09-9.52,2.95-3.17,1.86-6.45,2.52-10.17,2.08-2.19-.33-4.16-.88-4.92-3.17s-.66-4.7,1.2-6.45c5.03-4.59,10.83-7.44,17.83-6.13,2.84.55,5.58,1.2,8.42,1.86,1.31.33,2.41.22,2.95-1.2.55-1.31,0-2.19-1.09-2.84-.33-.22-.66-.44-.98-.66-4.05-1.64-7.99-3.39-12.14-4.7-3.17-.98-5.47-2.95-7.22-5.69-1.53-2.41-1.31-5.25.77-7,2.08-1.64,4.49-2.41,7.11-1.53,5.14,1.75,10.17,4.16,14.66,7.44,1.31.98,2.52,2.19,3.94,3.28.98.77,2.08,1.64,3.28,1.97,2.19.66,3.17-.55,2.52-2.74-.55-1.75-.98-3.5-1.75-5.14-2.74-6.24-2.52-11.92,2.41-17.07.98-.98,1.97-2.08,3.39-1.53,1.53.55,3.28.88,3.83,2.84,1.31,4.59,1.31,9.19-.22,13.57-1.42,4.27-3.5,8.31-5.36,12.36-1.09,2.3-.98,3.06.98,4.59.44.33.88.66,1.31,1.09,5.03,4.27,9.96,8.53,14.99,12.8,1.31,1.09,3.94,1.31,4.92.33,1.09-1.2.77-3.06-.88-4.7-.55-.55-1.2-1.09-1.86-1.53l.11-.66Z"/>
  <path class="cls-2" d="M242.76,215.63c3.83,2.08,7.99,2.95,12.36,2.84,4.16-.11,8.31-.66,11.92-2.95,3.83-2.41,6.67-5.8,8.97-9.52,3.28-5.03,4.49-10.72,3.28-16.74-.66-3.06-1.53-6.35-4.38-8.1-2.52-1.53-5.25-2.63-7.99-3.72-4.27-1.64-8.53-1.09-13.02-.55-10.5,1.31-19.25,9.3-20.79,20.57-.98,7.11,3.94,14.88,9.63,17.94v.22ZM239.26,197.36c1.09-4.81,3.5-8.97,7.77-11.82,7.11-4.81,14.55-4.27,22.1-.98,3.83,1.75,4.7,5.47,4.7,9.19,0,6.56-3.28,11.71-8.1,15.97-3.5,3.06-7.88,3.61-12.58,3.5-8.97.44-15.32-8.86-13.78-15.86h-.11Z"/>
  <path class="cls-2" d="M266.61,154.58c9.08-1.31,17.61.66,25.93,4.59,1.31.55,2.95.33,3.61-.66.98-1.42.22-2.52-.88-3.39-.44-.33-.88-.66-1.42-.88-6.78-2.95-13.89-4.92-21.33-4.7h-1.31v-.55c3.83-1.2,7.77-2.41,11.6-3.39,4.92-1.31,9.85-.55,14.77-.22,1.2,0,2.19-.22,2.52-1.42.44-1.31-.33-2.3-1.42-2.74-1.2-.44-2.52-.66-3.83-.66-2.95-.11-6.02-.44-8.97,0-3.94.44-7.88,1.53-12.36,2.41,6.24-4.7,12.14-8.97,19.91-9.08,1.64,0,2.63-.88,2.63-2.19,0-1.42-1.42-2.52-2.95-2.63-3.61-.44-6.78.77-9.96,2.19-7,2.95-13.13,7.22-17.94,13.46-.44.55-.88,1.31-.98,1.97,0,1.2-.55,1.97-1.31,2.84-.77.98-.98,2.41-1.31,3.61,0,.33.22.77.55,1.09,1.31,1.53,2.95.98,4.49.77v-.44Z"/>
  <path class="cls-2" d="M229.52,165.96c2.84-.22,4.49-1.53,5.14-3.61.88-3.06,1.42-6.02,2.19-9.08-.22-3.83-.44-7.55-2.3-11.16-1.86-3.61-7.22-4.7-10.61-2.08-1.2.98-2.41,2.19-2.74,3.39-.77,2.74-1.53,5.58-1.53,8.42,0,4.05.88,8.21,3.94,11.71,1.42,1.64,3.5,2.41,6.02,2.3l-.11.11Z"/>
  <path class="cls-3" d="M252.93,213.33c4.7,0,9.08-.44,12.58-3.5,4.81-4.27,8.1-9.41,8.1-15.97,0-3.72-.77-7.44-4.7-9.19-7.44-3.39-14.88-3.94-22.1.98-4.27,2.84-6.67,7-7.77,11.82-1.64,7.11,4.81,16.3,13.78,15.86h.11Z"/>
  <path d="M196.15,224.71v.55h4.81c.44,0,.88,0,1.31.11h1.31c.77.11,1.53-.22,1.75-.98.22-.66-.22-1.64-.98-1.75-6.89-.98-14.22-.33-20.57,2.84-1.75.88-3.39,1.97-4.92,3.28-.55.55-.55,1.53,0,2.08s1.42.55,2.08,0c2.52-2.19,5.58-3.61,8.75-4.59v-1.31c2.3.33,4.38.11,6.45-.33v.11Z"/>
  <path d="M196.15,224.71c-2.08.55-4.16.66-6.45.33v1.31c2.08-.66,4.27-.98,6.45-1.09v-.55h0Z"/>
  <path d="M328.53,203.81v.88c2.19.44,4.27,1.09,6.35,2.08,1.64.66,3.17,1.53,4.59,2.52.66.44,1.64.11,1.97-.55.44-.66.11-1.53-.55-1.97-5.36-3.39-11.71-5.36-18.05-5.58-1.75,0-3.5,0-5.25.22-.77,0-1.42.55-1.42,1.42s.66,1.53,1.42,1.42c1.86-.22,3.83-.33,5.69-.22.22-.55.33-1.09.44-1.75,1.53.66,3.17,1.2,4.81,1.53h0Z"/>
  <path d="M328.53,204.25v-.44c-1.64-.33-3.28-.88-4.81-1.53,0,.55-.22,1.09-.44,1.75,1.75,0,3.5.33,5.25.66v-.44h0Z"/>
</svg>