<?xml version="1.0" encoding="UTF-8"?>
<svg id="Layer_1" data-name="Layer 1" xmlns="http://www.w3.org/2000/svg" viewBox="0 0 512 512">
  <defs>
    <style>
      .cls-1 {
        fill: #eb9bb0;
      }

      .cls-2 {
        fill: #fff;
      }

      .cls-3 {
        fill: #00a7e1;
      }
    </style>
  </defs>
  <path d="M221.11,179.02c22.48-1.46,31.35-51.69,0-45.06-21.46,4.5-28.88,46.97,0,45.06Z"/>
  <path d="M297.42,142.05c-18.99-31.35-52.03,22.25-28.88,35.85,16.3,9.55,35.62-10.68,28.88-35.85Z"/>
  <path d="M406.09,177.9c1.12-8.09-2.14-24.5-6.97-33.49-.11,13.49,2.36,24.61,6.97,33.49Z"/>
  <path class="cls-3" d="M417.66,177.9c1.35,14.61-2.47,33.94,1.12,40.46-.79-13.15,1.46-29.33-1.12-40.46Z"/>
  <path d="M260.33,187.11c-25.4-9.66-55.74,22.36-36.97,45.06,8.99,10.9,33.94,12.59,47.42,1.12,14.05-15.73,1.91-41.47-10.45-46.19ZM259.21,229.93c-9.66,2.47-23.26,1.57-27.76-4.61-2.02-8.99-1.46-17.08,2.36-21.91,15.62-20.45,45.96,6.63,25.4,26.52Z"/>
  <path class="cls-3" d="M233.81,203.29c-3.71,4.83-4.38,13.04-2.36,21.91,4.5,6.18,18.09,7.08,27.76,4.61,20.57-19.78-9.78-46.86-25.4-26.52Z"/>
  <path class="cls-3" d="M97.38,199.36c-.34,8.2-4.5,17.19-1.12,24.84,5.62-5.84,1.35-16.74,1.12-24.84Z"/>
  <path class="cls-3" d="M97.38,227.57c-3.48,2.36-5.17,12.59-2.36,17.31-.11-5.96,5.73-11.91,2.36-17.31Z"/>
  <path d="M208.3,285.44c10.23-17.64-3.6-30.68-20.79-25.4-6.29,1.91-11.35,10.45-13.82,10.45s-7.64-7.64-13.82-8.09c-13.04-.9-19.89,8.54-17.31,18.54-35.85-.67-20.79,28.43-2.36,35.85-2.14,6.41-7.3,9.66-6.97,18.54,3.71.22,5.06,2.58,9.22,2.36,2.58-8.99,8.88-14.27,10.45-24.27-5.96-7.19-18.54-7.64-21.91-17.31,8.09-14.72,19.89,5.62,28.88,3.48,4.94-10.56-10.56-15.06-4.61-26.63,19.33-4.27,7.53,22.48,23.15,21.91,4.27-11.46,4.72-26.97,21.91-25.4.67,14.16-8.77,18.21-11.58,28.88,1.69,1.69,4.83,2.02,5.73,4.61,6.86-2.25,17.42-13.15,24.27-4.61-1.12,17.08-17.08,18.43-32.37,18.54-.79,9.22-3.71,16.41-3.48,26.63,2.47,2.14,6.18,3.03,10.45,3.48,3.93-4.83,1.24-16.52,4.61-21.91,32.25,6.86,44.61-44.5,10.34-39.67Z"/>
  <path d="M347.09,273.87c-5.17-13.15-33.71-21.91-40.46-4.61-1.69,5.62,5.39,8.43,2.36,11.58-12.47-2.81-28.77,4.5-26.63,19.67.79,5.06,10.34,8.99,10.45,12.7,0,1.8-9.33,10.45-10.45,13.82-4.94,16.29,6.74,25.62,17.31,26.63,14.27,1.24,23.6-10.11,32.37-17.31,4.27,5.39,5.84,13.37,15.06,13.82,1.01-2.02,2.81-3.37,3.48-5.73-6.18-5.39-11.69-25.17-26.63-21.91.45,11.35-25.29,31.02-31.24,17.31-6.18-14.16,13.82-26.3,28.88-26.63.11-4.27,1.35-3.26,0-6.97-8.2-3.71-26.86,2.92-28.88-6.97,4.27-19.1,28.43-2.02,39.33-6.97,3.6-11.69-16.74-7.3-13.82-21.91,20.23-7.64,20.34,14.16,32.37,18.54,5.28-4.5,7.53-17.76,17.31-13.82-2.81,10.68-10.34,16.63-20.79,19.67,4.05,8.54,9.44,21.01,19.67,19.67,1.01-7.87-4.94-8.88-5.73-15.06,11.35-3.48,20.45-17.08,15.06-30.01-9.33-7.08-24.16-4.83-28.99,4.5Z"/>
  <path class="cls-3" d="M261.57,453c6.63-1.24,12.14,4.83,16.18,2.36-2.92-6.74-3.26-20.79-1.12-28.88-17.08-3.15-9.66,18.09-15.06,26.52Z"/>
  <path class="cls-3" d="M187.51,468.06c.34,8.54,11.24,12.47,24.27,12.7-1.57-11.46,7.75-20.34,9.22-32.37-12.59,2.7-33.94,6.74-33.49,19.67Z"/>
  <path class="cls-3" d="M412.94,227.57c-1.91-11.13.22-22.36,0-34.73-.67-35.06-11.69-68.78-27.76-92.49-.9-1.12-4.05.45-5.73-2.36-6.29-9.1-8.88-21.91-18.54-27.76,3.82,9.44,16.41,21.8,11.58,32.37-10-26.3-30.9-47.76-55.52-55.52,24.39,11.01,45.85,31.24,48.55,60.12-9.89-10.9-12.59-26.18-21.91-36.97-7.53-8.65-18.32-11.8-26.63-19.67,10,11.58,40.79,28.54,38.21,56.64-8.65-12.92-12.36-30.79-25.4-39.33,6.18,12.25,17.19,25.96,13.82,43.94-7.3-4.5-4.61-13.82-6.97-20.79-5.73-16.97-17.08-25.96-28.88-35.85-3.37-2.92-15.62-14.38-13.82-10.45,21.35,12.92,39.33,43.72,38.21,71.7-9.89-13.26-10.11-35.85-19.67-49.67-3.82-5.51-10.68-9.66-15.06-12.7,12.02,12.7,23.71,37.76,20.79,57.76-9.33-22.59-14.72-55.4-34.73-63.61,16.41,11.13,20.57,40.91,19.67,60.12-9.22-18.88-8.99-54.28-27.76-62.48,3.93,8.77,11.91,22.7,13.82,35.85,1.12,7.53,2.47,18.99-2.36,24.27-4.61-16.18-3.48-38.1-12.7-49.67,2.02,13.49,10.34,37.53,2.36,49.67-3.37-18.21-2.58-40.57-9.22-55.52-.67,8.99,2.36,19.78,2.36,30.01,0,9.1.79,22.93-6.97,26.63,1.69-21.58,2.58-49.67-3.48-67.09-2.36,18.54-2.92,42.25-5.73,57.76-.67,3.71.56,11.69-4.61,11.58-.56-15.4,3.82-39.78,3.48-54.39,0-1.24.9-5.73,0-1.12-7.3,13.94-4.83,37.65-10.45,53.16-6.07-21.24,5.06-51.13,9.22-65.85-13.71,16.41-11.24,48.88-23.15,67.09.56-16.86,8.32-42.48,11.58-56.64-3.15,7.98-8.09,15.62-11.58,24.27-3.37,8.43-3.82,19.1-10.45,25.4.9-20.79,11.91-41.24,21.91-56.64-4.27,2.92-12.02,13.37-17.31,21.91-5.96,9.66-9.22,22.03-17.31,27.76,5.17-19.1,18.65-36.07,26.63-48.55-17.98,13.04-22.59,39.78-39.33,53.16,4.94-13.94,14.95-28.99,19.67-39.33-12.36,10.79-17.19,28.99-30.01,39.33,4.27-18.88,20-32.37,27.76-43.94-11.8,10.23-22.25,24.95-30.01,38.1-2.25,3.71-4.38,12.47-10.45,10.45,6.07-13.82,15.4-30.01,25.4-40.46,2.58-2.7,11.8-9.44,8.09-8.09-17.98,9.44-25.73,35.17-40.46,43.94,4.61-13.15,17.31-24.27,20.79-34.73-11.01,13.26-20.34,28.21-31.24,41.58.11-13.15,12.36-23.82,19.67-33.49-6.86,2.47-17.53,20.9-25.4,30.01-3.37-1.91,1.8-5.96-1.12-6.97-18.65,28.66-39.22,57.65-36.97,101.7.67,13.49-2.02,20.9-3.48,32.37-1.91,15.06-11.58,20.45-10.45,38.1,2.58,38.88,13.82,82.71,35.85,111.03,17.76,22.7,65.07,42.48,97.1,41.58,11.69,13.26,2.58,44.17-4.61,59,13.04,17.31,64.84,32.37,82.04,10.45-5.28-24.16-43.6-22.48-55.52-35.85,5.51-9.89,2.81-28.09,9.22-36.97,33.04-3.48,64.73-9.22,87.88-26.63,28.32-21.24,47.31-49.9,59-89,5.51-18.43,12.92-42.25,11.58-62.48-.22-3.15-2.81-7.42-3.48-11.01ZM334.73,207.45c9.1,17.76-19.67,28.32-24.27,15.06-3.93-11.46,11.46-23.15,24.27-15.06ZM221.11,133.96c31.35-6.63,22.48,43.6,0,45.06-28.88,1.91-21.46-40.57,0-45.06ZM181.44,201.16c9.1,17.76-19.67,28.32-24.27,15.06-4.05-11.35,11.35-23.15,24.27-15.06ZM197.96,324.66c-3.37,5.51-.67,17.08-4.61,21.91-4.27-.34-7.98-1.35-10.45-3.48-.22-10.23,2.58-17.42,3.48-26.63,15.28-.11,31.24-1.46,32.37-18.54-6.86-8.54-17.42,2.36-24.27,4.61-.9-2.58-4.05-2.92-5.73-4.61,2.81-10.68,12.25-14.72,11.58-28.88-17.31-1.46-17.64,13.94-21.91,25.4-15.62.56-3.82-26.18-23.15-21.91-5.96,11.58,9.55,16.07,4.61,26.63-8.99,2.14-20.79-18.21-28.88-3.48,3.37,9.66,16.07,10.11,21.91,17.31-1.46,10-7.75,15.28-10.45,24.27-4.16.34-5.62-2.14-9.22-2.36-.34-8.77,4.83-12.14,6.97-18.54-18.43-7.42-33.49-36.52,2.36-35.85-2.58-10,4.38-19.44,17.31-18.54,6.18.45,11.46,8.09,13.82,8.09,2.58,0,7.53-8.43,13.82-10.45,17.19-5.28,31.02,7.87,20.79,25.4,34.28-4.38,21.91,46.97-10.34,39.67ZM270.78,233.41c-13.49,11.46-38.43,9.66-47.42-1.12-18.77-22.7,11.58-54.73,36.97-45.06,12.36,4.61,24.5,30.34,10.45,46.19ZM268.42,177.9c-23.15-13.6,9.89-67.2,28.88-35.85,6.86,25.17-12.47,45.4-28.88,35.85ZM360.91,299.27c.79,6.07,6.74,7.08,5.73,15.06-10.23,1.35-15.51-11.13-19.67-19.67,10.45-3.03,18.09-8.88,20.79-19.67-9.89-3.82-12.02,9.33-17.31,13.82-12.02-4.38-12.14-26.07-32.37-18.54-2.92,14.72,17.42,10.23,13.82,21.91-10.9,4.83-35.06-12.14-39.33,6.97,2.02,9.89,20.68,3.26,28.88,6.97,1.35,3.6.11,2.58,0,6.97-15.06.22-35.06,12.47-28.88,26.63,5.96,13.6,31.69-5.96,31.24-17.31,14.95-3.26,20.45,16.52,26.63,21.91-.67,2.36-2.47,3.71-3.48,5.73-9.22-.45-10.79-8.54-15.06-13.82-8.77,7.3-18.09,18.65-32.37,17.31-10.68-1.01-22.25-10.34-17.31-26.63,1.01-3.48,10.45-12.02,10.45-13.82-.11-3.71-9.66-7.75-10.45-12.7-2.25-15.17,14.05-22.48,26.63-19.67,3.03-3.15-4.05-5.96-2.36-11.58,6.74-17.31,35.29-8.54,40.46,4.61,4.83-9.33,19.67-11.58,28.88-4.61,5.51,13.04-3.6,26.63-14.95,30.12ZM406.09,177.9c-4.61-8.88-6.97-20-6.97-33.49,4.83,8.88,8.09,25.4,6.97,33.49Z"/>
  <path class="cls-3" d="M386.42,94.62c-3.93-3.37-5.62-8.99-9.22-12.7,2.02,4.5,3.82,15.28,9.22,12.7Z"/>
  <path class="cls-3" d="M416.43,174.41c2.81-2.7-4.5-26.75-4.61-26.63.45,10,4.05,16.74,4.61,26.63Z"/>
  <path class="cls-2" d="M104.35,204.42c-1.46-6.86,1.24-10.9-1.12-16.18-.9,5.51-1.12,15.4,1.12,16.18Z"/>
  <path class="cls-2" d="M427.55,239.48c-.11-.11-.34-.22-.67-.34.11.11.45.22.67.34Z"/>
  <path d="M448.79,205.65c11.13-5.06,17.53-32.81,1.12-33.49-7.64-.34-18.32,13.82-6.97,21.91,11.58-2.81-5.51-13.71,5.73-17.31,11.58,5.73,3.26,23.49-5.73,24.27-16.07,1.46-12.59-19.55-15.06-33.49-5.28-29.56-22.36-63.94-40.46-89-21.35-29.44-58.89-43.49-101.7-48.55,7.64-9.78,21.01-13.71,34.73-17.31-13.26-6.07-28.77,4.94-35.85,12.7,2.02-7.3,11.24-17.31,19.67-21.91V0h-4.61c-9.78,7.87-17.53,17.87-24.27,28.88-2.92-6.41,8.2-19.78,2.36-25.4-5.62,5.96-7.08,16.07-8.09,26.63-5.96-6.07-7.42-16.52-19.67-16.18,2.14,7.08,10.56,7.98,12.7,15.06-9.78,1.12-26.97-17.76-38.1-4.61,7.87-.22,20.79.56,26.63,5.73-99.34,14.61-149.13,78.89-165.42,176.66-2.58-2.47-3.15-6.86-6.97-8.09-7.53,3.26-11.24,10.34-18.54,13.82-.9,7.42,1.8,11.35,5.73,13.82-3.6,1.8-4.05,6.74-3.48,12.7-10-2.02-5.96-11.46-2.36-17.31-5.17-4.05-6.86,3.37-9.22,5.73v10.45c10,6.86,20.79,13.04,31.24,19.67,1.57,49.78,15.17,91.7,35.85,122.61,16.41,24.5,45.63,37.98,78.67,46.3,7.64,1.91,20.23-1.46,25.4,8.09-1.57,5.17-8.88,4.72-12.7,5.73-13.82,3.93-31.69,8.09-33.49,23.15-1.69,13.6,8.77,22.93,20.79,26.63,5.62,1.69,12.14-.45,18.54,1.12,5.73,1.46,9.89,6.97,15.06,9.22,14.27,6.52,34.39,8.77,42.82,11.58h16.18c36.97-3.82,27.98-40.12,1.12-49.67-2.92-11.58-4.61-24.5-2.36-38.1,43.49-10.56,74.4-29.22,98.22-59,23.6-29.44,32.59-70.01,40.46-115.64,31.92,19.33,46.41-36.75,22.03-43.94ZM66.14,212.51h3.48c-.56,5.96,2.81,7.98,3.48,12.7-3.82-2.7-7.75-5.28-6.97-12.7ZM82.32,250.72c-3.15-1.57-6.18-3.15-9.22-4.61,1.12-3.15,5.84-2.7,9.22-3.48v8.09ZM68.5,239.14v-8.09c4.27-1.35,10.79,1.35,15.06,3.48-.56,5.62-12.36,4.94-15.06,4.61ZM83.45,226.44c-6.18-2.81-10.56-13.04-6.97-21.91,3.71-.9,3.26,8.2,6.97,3.48,3.37,4.83-1.57,11.35,0,18.43ZM386.42,94.62c-5.39,2.58-7.19-8.2-9.22-12.7,3.6,3.71,5.28,9.33,9.22,12.7ZM97.38,199.36v-1.8,1.8c.22,8.09,4.5,19.1-1.12,24.84-3.37-7.75.67-16.63,1.12-24.84ZM97.38,227.57c3.37,5.39-2.47,11.35-2.36,17.31-2.81-4.72-1.12-14.95,2.36-17.31ZM211.78,480.76c-13.15-.22-23.94-4.16-24.27-12.7-.45-12.92,20.9-16.97,33.49-19.67-1.46,12.02-10.79,20.9-9.22,32.37ZM404.85,301.63c-11.69,39.11-30.68,67.76-59,89-23.15,17.42-54.84,23.15-87.88,26.63-6.52,8.88-3.71,27.08-9.22,36.97,11.91,13.37,50.23,11.69,55.52,35.85-17.19,21.91-69.11,6.97-82.04-10.45,7.19-14.83,16.29-45.74,4.61-59-32.14.9-79.45-18.99-97.1-41.58-22.03-28.21-33.26-72.15-35.85-111.03-1.24-17.64,8.54-23.04,10.45-38.1,1.46-11.46,4.16-18.99,3.48-32.37-2.25-44.05,18.32-73.05,36.97-101.7,3.03,1.01-2.25,5.06,1.12,6.97,7.87-9.22,18.65-27.53,25.4-30.01-7.3,9.66-19.55,20.45-19.67,33.49,10.9-13.37,20.12-28.43,31.24-41.58-3.48,10.34-16.18,21.58-20.79,34.73,14.83-8.77,22.48-34.5,40.46-43.94,3.71-1.35-5.51,5.39-8.09,8.09-10.11,10.45-19.44,26.63-25.4,40.46,5.96,2.02,8.2-6.63,10.45-10.45,7.75-13.26,18.21-27.98,30.01-38.1-7.75,11.58-23.49,25.06-27.76,43.94,12.81-10.34,17.76-28.54,30.01-39.33-4.72,10.23-14.72,25.4-19.67,39.33,16.74-13.37,21.35-40.23,39.33-53.16-7.98,12.47-21.46,29.44-26.63,48.55,8.09-5.73,11.35-18.09,17.31-27.76,5.28-8.54,13.04-19.1,17.31-21.91-10,15.4-21.13,35.85-21.91,56.64,6.52-6.41,6.97-16.97,10.45-25.4,3.48-8.77,8.43-16.29,11.58-24.27-3.26,14.16-11.01,39.78-11.58,56.64,11.91-18.21,9.44-50.68,23.15-67.09-4.16,14.83-15.28,44.73-9.22,65.85,5.62-15.62,3.15-39.22,10.45-53.16.9-4.61,0-.11,0,1.12.34,14.5-4.05,39-3.48,54.39,5.17.11,3.93-7.75,4.61-11.58,2.81-15.62,3.48-39.33,5.73-57.76,6.07,17.42,5.06,45.51,3.48,67.09,7.75-3.6,6.97-17.53,6.97-26.63,0-10.34-2.92-21.01-2.36-30.01,6.63,14.95,5.84,37.31,9.22,55.52,7.98-12.14-.22-36.3-2.36-49.67,9.22,11.58,8.09,33.6,12.7,49.67,4.83-5.28,3.37-16.74,2.36-24.27-1.91-13.15-10-26.97-13.82-35.85,18.77,8.2,18.54,43.49,27.76,62.48.9-19.22-3.26-49-19.67-60.12,20,8.2,25.29,41.02,34.73,63.61,2.92-20-8.77-45.18-20.79-57.76,4.38,3.03,11.24,7.19,15.06,12.7,9.55,13.82,9.78,36.41,19.67,49.67,1.24-27.98-16.86-58.77-38.21-71.7-1.8-3.93,10.45,7.53,13.82,10.45,11.8,9.89,23.26,18.88,28.88,35.85,2.36,6.97-.34,16.29,6.97,20.79,3.26-17.98-7.64-31.69-13.82-43.94,13.04,8.54,16.74,26.41,25.4,39.33,2.7-28.09-28.09-45.06-38.21-56.64,8.2,7.87,19.1,11.01,26.63,19.67,9.33,10.79,12.02,26.07,21.91,36.97-2.7-28.88-24.16-49.11-48.55-60.12,24.61,7.75,45.51,29.22,55.52,55.52,4.83-10.56-7.75-22.93-11.58-32.37,9.55,5.84,12.14,18.65,18.54,27.76,1.69,2.7,4.83,1.12,5.73,2.36,16.07,23.71,27.08,57.43,27.76,92.49.22,12.25-1.91,23.49,0,34.73.67,3.6,3.26,7.75,3.48,11.58,1.35,19.55-6.07,43.38-11.58,61.92ZM277.75,455.36c-4.05,2.47-9.55-3.48-16.18-2.36,5.39-8.43-1.91-29.67,15.06-26.63-2.14,8.2-1.8,22.25,1.12,28.99ZM416.43,174.41c-.56-9.78-4.16-16.63-4.61-26.63.11-.22,7.42,23.94,4.61,26.63ZM418.79,218.35c-3.6-6.52.11-25.85-1.12-40.46,2.58,11.13.34,27.31,1.12,40.46ZM447.67,247.23c-9.1.56-16.52-.45-20.79-4.61.67-.79,1.46-2.47.67-3.15l-.67-.34c.34,0,.45.22.67.34,4.94,2.25,21.58,3.71,24.72-3.82,3.15,3.93-3.03,8.54-4.61,11.58ZM446.55,225.32c-.45,3.93,5.06,1.91,6.97,3.48-2.92,8.32-26.86,13.82-25.4-2.36,7.19.67,9.66-3.48,15.06-4.61.45-5.51-.56-9.44-2.36-12.7-5.17.22-9.55,1.24-10.45,5.73.79,2.81,5.39.22,5.73-1.12,1.69.22.45,3.48,2.36,3.48-.56,4.05-5.39,3.82-9.22,4.61-2.92-8.09.9-11.69,0-20.79,4.5,2.47,8.2,5.62,16.18,4.61-1.69,6.63,12.7,6.41,10.45,17.31-2.02,2.92-7.87-2.47-9.33,2.36Z"/>
  <path class="cls-1" d="M334.73,207.45c-12.81-8.09-28.21,3.71-24.27,15.06,4.61,13.26,33.38,2.7,24.27-15.06Z"/>
  <path class="cls-1" d="M181.44,201.16c-12.81-8.09-28.21,3.71-24.27,15.06,4.61,13.26,33.26,2.7,24.27-15.06Z"/>
</svg>