<?xml version="1.0" encoding="UTF-8"?>
<svg id="Layer_1" data-name="Layer 1" xmlns="http://www.w3.org/2000/svg" viewBox="0 0 512 512">
  <defs>
    <style>
      .cls-1 {
        fill: #1c70b7;
      }

      .cls-2 {
        fill: #1c1c1c;
      }

      .cls-3 {
        fill: #ca0d5c;
      }

      .cls-4 {
        fill: #fefefe;
      }
    </style>
  </defs>
  <g id="H9zgXw">
    <g>
      <path class="cls-2" d="M453.59,205.92c3.12.96,6.27.17,9.35-.29,6.12-.91,14.9-6.91,16.68-11.13-.17-.04-.38-.18-.47-.13-.72.42-1.44.85-2.13,1.32-7.11,4.88-14.52,8.9-23.62,7.55-2.32-.35-4.19-.88-4.56-3.93-.51-4.11-.23-6.66,5.02-6.22,9.26.8,16.67-3.7,23.57-9.2,1.97-1.57,2.19-2.72,1.62-6.28-6.95,9.03-16.19,12.89-27.34,12.64-2.66-.06-4.02-.72-4.09-3.82-.07-2.81.8-3.66,3.45-3.74,4.59-.16,8.12-3.01,11.68-5.45,2.42-1.67,2.8-4.1,1.71-7.31-2.81,4.94-6.64,8.12-11.96,9.58-3.65,1.01-5.37.51-5.69-3.69-.42-5.56-1.51-11.07-2.2-16.61-3.76-29.82-15.23-56.24-34.2-79.61-22.56-27.81-53.81-39.21-87.09-46.8-8.9-2.02-18.05-2.88-27.45-4.34,5.78-4.91,13.02-4.48,20.1-6.89-2.67-1.89-4.63-1.64-6.46-1.38-5.78.79-11.28,2.53-15.88,6.2-2.7,2.14-5.41,2.62-8.81,1.72,1.26-3.23,3.61-5.28,5.94-7.33,4.79-4.22,10.58-6.67,16.43-9.02,1.09-.43,2.72-.62,1.84-2.34-.61-1.19-1.74-.53-2.76-.17-8.65,3.13-16.47,7.61-22.72,14.44-2.15,2.35-4.14,5.4-7.66,3.68-2.92-1.44-.49-4.65-1.01-7,.39-1.6.86-3.25-1.88-2.33-.77,1.75-1.38,3.51-1.51,5.47-.09,1.64,1.03,3.94-2.32,4.11-3.12.16-3.48-1.99-3.63-3.93-.23-3.08-.08-6.23.23-9.33.26-2.48.98-4.9.4-7.5-2.44.5-2.23,2.29-2.55,3.72-.95,4.27-1.19,8.56-.84,12.92.11,1.32,1.53,3.71-1.59,3.9-2.72-1.7-3.16,2.78-5.52,2.03-2.09.14-4.2.12-6.25.43-22.65,3.42-43.51,11.79-63.97,21.88-23.84,11.76-41.38,30.28-56.16,51.39-11.84,16.94-18.87,36.55-23,56.77-1.75,8.52-5.95,11.63-13.63,13.15-12.21,2.42-21.79-1.72-28.09-12.9-.72-1.28-1.28-2.96-3.56-2.75.15,4.27,2.16,7.57,5.04,10.49,9,9.14,19.78,10,31.5,6.9,1.58-.42,4.7-2.01,4.69.28-.01,2.8,1.14,7.79-2.94,8.49-12.98,2.19-26.05,3.31-37.81-4.86-1.43-1-2.59-2.79-5.15-2.07,3.69,4.9,8.39,7.67,13.86,9.33.95.77,2.02,1.07,3.13,1.23-1.03-.01-2.07.13-3.12.45-5.22.36-9.43,2.93-12.35,6.95-4.71,6.51-4.61,13.85-1.73,21.53-4.65.41-8.8.8-12.97,1.13-4.15.35-8.09,1.15-9.47,5.81-1.44,4.85-.8,9.37,3.1,12.95,1.59,1.46,3.4,2.69,5.14,4.04-3.23,4.29-6.91,7.87-8.65,12.78-1.21,3.41-1.66,7.53,1.73,8.88,7.73,3.09,8.73,8.57,7.5,15.58-.17.99.22,2.08.35,3.12.98,8.17,6.94,15.73,14.05,17.78,8.94,2.57,17.87-.2,23.5-7.27,3.58-4.49,6.29-9.76,6.14-15.27-.19-6.69,3.64-6.03,7.83-6.17,2.52-.07,3.31.65,3.02,3.29-2.43,21.43-1.49,42.91-.74,64.39.12,3.3.09,6.73.96,9.88,6.29,22.91,18.94,41.74,37.25,56.78,18.66,15.33,40.6,23.35,63.9,28.11,2.7.56,3.62.53,2.55,4.01-3.35,10.88-7.31,21.32-13.63,30.9-3.63,5.51-6.04,11.73-7.94,18.12-.81,2.69.03,4.07,2.21,5.6,3.92,2.77,8.67,3.52,12.76,5.9,14.2,8.24,29.68,12.8,45.84,15.17,9.21,1.34,17.79-1.12,24.3-7.2,3.59-3.36,6.76-3.69,10.86-3.83,22.35-.74,43.39-6.23,62.55-18.03,4.88-3.01,5.22-4.89,1.72-9.16-8.39-10.22-11.62-22.45-13.76-35.06-.69-4.09-1.54-7.07,5.08-9.62,50.32-19.4,85.51-54.91,105.38-104.84,12.57-31.56,15.87-64.89,13.7-98.73-.24-3.73.54-5.61,4.8-4.63,5.97,1.37,11.8.13,17.51-1.6,1.58-.48,4.09-1.04,3.24-3.21-.67-1.7-2.68-.43-4.12.12-4.8,1.8-9.73,2.3-14.9,2.03-5.66-.28-7.47-2.93-7.17-8.3.17-2.92.19-4.81,3.86-3.68ZM77.67,187.96c-.7-.21-1.4-.39-2.1-.52.99.09,1.96.24,2.86.67-.25-.06-.5-.11-.77-.15ZM98.65,192.34c-.47,2.17-.39,4.72-3.27,5.33-2.66.56-5.23.49-7.06-2-2.18-3-4.58-5.7-7.98-7.01,4.98,1.09,10.01.68,15.02.13,2.88-.31,3.89.8,3.29,3.56ZM281.15,455.46c-11.34,1.72-22.13,4.81-30.76,12.96-1.52,1.45-2.81,1.47-4.67.83-3.93-1.34-7.94-2.55-12.67-2.58,1.75-7.24,3.48-13.97,4.95-20.76.4-1.88,1.19-2.27,2.82-1.95,14.04,2.72,28.11,2.04,42.17.36,3.09-.37,2.9,1.37,3.3,3.28,1.48,6.91,1.52,6.85-5.15,7.87Z"/>
      <path d="M274.87,20.36c-.18-1.14-.44-2.21-1.88-2.33,1.83-5.54,4.99-10.27,9.16-14.28,1.46-1.41,3.32-2.48,5.16-3.38.97-.48,2.56-.75,3.12.78.48,1.3-.83,1.79-1.69,2.2-5.54,2.6-9.56,6.6-11.83,12.32-.63,1.58-1.35,3.13-2.03,4.69Z"/>
      <path d="M261.18,27.41c-2.07.05-3.01,3.15-5.51,2.03,2.24-.79,2.99-1.85,1.48-4.2-3.46-5.39-6.16-11.35-12.12-14.68-.85-.48-1.65-1.29-1.55-3.07,9.76,3.48,13.37,12.04,17.71,19.93Z"/>
      <path class="cls-1" d="M373.25,187.99c10.42-2.32,21.09-2.2,31.63-3.34,2.18-.23,3.05,1.03,3.87,2.72,5.88,12.09,15.24,20.74,27.13,26.63,3.91,1.94,5.71,4.25,4.25,9.05-6.43-4.63-13.47-4.7-20.76-2.97-1.95.46-2.65-.77-3.12-2.58-1.02-3.89-2.56-7.54-5.41-10.58-4.1-4.36-8.92-5.12-14.31-3.21-4.68,1.65-7.66,4.75-7.65,10.03,0,3.19-1.65,3.1-4.1,2.49-3.51-.88-6.89-2.29-10.66-2.22-6.3.11-9.92,3.75-12.37,8.9-2.33,4.9-3.81,10,.86,14.46,2.13,2.03.82,2.78-.8,3.86-4.23,2.83-7.91,6.19-10.96,10.36-5.4,7.37-6.65,16.61-2.55,21.82,5.94,7.56,15.29,9.64,24.41,5.45,3.52-1.62,6.78-3.7,9.54-6.35,2.18-2.1,3.41-1.79,4.68.69.39.76,1.1,1.35,1.59,2.07,1.78,2.61,3.97,4.14,6.96,2,3.33-2.38,1.61-4.93-.35-7.05-2.06-2.23-3.25-4.94-4.78-7.47-3.67-6.04-8.54-5.9-12.28-.12-3.13,4.83-7.04,8.92-13.15,10.5-3.65.94-6.2-.33-8.55-2.42-2.37-2.12-2.04-4.82-1.03-7.72,3.79-10.91,14.77-18.9,27.21-19.58,2.66-.14,6.28.68,6.32-3.44.04-4.33-3.1-5.21-6.91-4.99-3.48.21-7.02.29-10.35-1.01-3.17-1.25-4.33-3.02-2.05-6.37,4.74-6.93,17.21-6.86,23.22.33.88,1.06,1.59,2.41,2.7,3.09,2.07,1.27,4.34,1.43,6.17-.59,1.72-1.9.66-3.44-.7-5.03-1.95-2.28-3.3-4.85-3.57-7.96-.28-3.22.78-5.64,3.99-6.4,3.34-.8,5.28,1.42,6.42,4.13,1.38,3.28,1.2,6.85,1.06,10.34-.12,3.11.11,6.14,3.26,7.66,2.73,1.31,4.43-1.27,6.43-2.41,3-1.72,5.64-4.07,9.38-4.27,4.01-.22,6.88,1.27,7.99,5.19,1.06,3.74-.66,6.49-3.91,8.21-6.03,3.2-12.41,4.48-19.2,2.95-2.2-.49-4.84-1.4-6.42.47-1.62,1.91-.2,4.39.74,6.42,1.35,2.91,2.26,5.86,1.87,9.08-.34,2.85,1.18,4.73,3.27,6.12,2.74,1.82,5.14.47,5.32-2.79.03-.52-.13-1.05-.08-1.57.33-2.9-2.87-6.12-.7-8.3,1.7-1.7,5.29-.61,8.06-1.16,4.65-.92,9.19-1.93,13.38-4.18,2.78-1.49,3.4-.25,3.19,2.26-.69,8.32-1.41,16.64-2.08,24.96-.18,2.23-1.93,2.82-3.57,3.3-15.87,4.6-31.92,8.31-48.41,9.97-9.51.96-19.03,1.94-28.47,3.4-10.35,1.6-20.8,2.18-31.2,2.68-11.67.56-23.39.88-35.03,1.53-23.76,1.33-47.51.94-71.24.59-23.52-.35-47.05-1.61-70.53-3.15-13.15-.86-26.23-2.91-39.11-6.04-3.99-.97-5.6-2.8-4.82-6.78.44-2.22.77-4.46,1.26-6.67,1.74-7.87-3.64-13.6-11.66-12.38-4.33.66-8.58.85-12.96-.16-6.4-1.48-8.32.7-6.69,6.94,2.15,8.2-.64,16.89-6.73,21.03-8.68,5.9-16.77,2.02-17.73-8.47-.64-6.92.18-13.24,6.64-17.49,1.3-.85,2.33-2.1,3.49-3.15,1.92-1.72,3.95-3.98,1.82-6.19-1.94-2.01-4.89-3.04-7.92-.83-2.79,2.04-5.41,4.42-8.98,5.23-1.37.31-2.88,1.08-3.93-.06-1.27-1.36-.33-2.93.42-4.33,3.05-5.73,7.28-9.7,14.24-9.87,2.25-.06,4.49-.62,6.74-.87,2.06-.22,3.09-1.19,3.17-3.36.1-2.43-1.19-3.72-3.3-3.92-2.95-.27-5.95-.31-8.9-.08-4.08.32-7.42-1.47-10.92-3.07-2.37-1.08-2-2.98-2.02-4.87-.02-2.62,1.91-2.39,3.66-2.58,3.11-.33,6.2-.83,9.3-1.16,3.77-.4,7.29.06,10.16,2.97,1.49,1.51,3.35,2.06,5.12.45,1.8-1.63,1.22-3.56.04-5.2-1.72-2.39-3.58-4.71-5.54-6.91-4.96-5.54-1.43-14.01,2.65-17.18,4.52-3.52,9.61-1.81,11.85,4.33,2.13,5.83,2.45,11.97,1.23,18.05-1.17,5.88.04,7.5,6.01,7.81,5.36.27,10.78-.88,16.09,1.02,2.51.9,3.1-.84,3.46-3.13,1-6.42,1-12.86,1.01-19.31,0-5.16,1.29-8.87,6.69-11.57,6.36-3.17,11.33-8.71,15.59-14.49,1.44-1.96,2.24-2.52,4.87-2.11,22.14,3.49,44.35,6.62,66.68,8.66,33.43,3.05,66.96,2.23,100.47,2.2,12.4-.01,24.81-.1,37.21-.16,8.98-.93,17.99-.12,26.98-.42,2.23-.07,4.51.41,6.7-.39Z"/>
      <path class="cls-1" d="M111.69,355.38c11.12,2.93,22.08,6.1,33.19,8.68,23.4,5.44,47.1,9.08,70.97,11.79,28.09,3.19,56.22,6.36,84.49,5.71,28.38-.66,56.84-1.22,84.99-5.87,2.04-.34,5-2.75,6.12-.3,1.06,2.32-2.35,3.83-3.99,5.49-14.94,15.1-31.38,28.15-51.26,36.24-5.14,2.09-10.46,3.89-15.86,5.19-4.5,1.08-5.98,3.67-5.76,7.85.8,15.64,5.51,30.11,13.79,43.3,2.16,3.44,1.63,4.4-1.61,6.04-16.18,8.21-33.1,12.69-51.38,11.31-3.33-.25-5.31-1.05-6.37-4.67-1.26-4.3-4.86-7.2-8.57-9.56-2.47-1.57-2.08-2.67-.14-4.26,10-8.16,20.97-12.24,33.94-8.42,5.07,1.49,6.88-.13,5.99-5.31-1.32-7.7-5.61-14.61-5.72-22.7-.03-2.49-2.9-2.46-5.08-2.12-4.81.76-9.51,1.97-14.34,2.71-12.18,1.86-23.93.26-35.68-2.73-7.85-2-10.5.16-10.86,8.04-.38,8.09-3.59,15.55-5.55,23.28-2.34,9.21-.78,11.06,8.72,9.59,8.01-1.23,22.72,5.41,26.48,11.96,4.51,7.86.33,15.55-8.75,15.71-16.81.3-32.11-5.48-47.15-12.16-1.11-.5-2.2-1.05-3.29-1.61-9.56-4.89-10.99-3.15-4.33-14.32,7.75-12.99,13.19-26.87,18.65-40.8,2.81-7.17,1.59-8.95-6.08-9.78-28.69-3.1-53.8-14.02-74.39-34.47-8.97-8.92-18.57-23.06-21.19-33.81Z"/>
      <path class="cls-4" d="M107.24,331.17c21.85,3.69,44.02,4.78,66.06,5.26,35.25.76,70.48,3.36,105.76,2.36,31.2-.88,62.4-1.78,93.42-5.94,15.53-2.08,31.22-2.97,46.82-4.53,4.28-.43,4.79,1.14,3.03,4.53-4.97,9.61-10.78,18.69-16.93,27.58-1.21,1.75-3.05,2.06-4.89,2.63-15.71,4.91-31.97,6.63-48.23,8.06-22.6,2-45.26,2.98-67.98,2.35-30-.83-59.83-3.24-89.44-8.22-18.49-3.11-37.22-4.92-55.39-9.74-9.52-2.53-18.77-6.07-28.21-8.92-2.82-.85-4.06-2.37-4.04-5.18.02-3.47,0-6.94,0-10.25Z"/>
      <path class="cls-4" d="M292.78,181.48c-33.74.88-67.44.27-101.04-3.17-24.31-2.49-48.45-6.08-72.24-11.8-3.21-.77-4.53-1.55-3.41-5.48,2.49-8.71,4.62-17.5,8.3-25.83.94-2.12,1.86-3.43,4.64-2.72,38.17,9.73,77.22,13.64,116.25,17.89,48.73,5.3,97.59,6.33,146.52,5.99,12.59-.09,25.13-1.12,37.5-3.51,3.44-.66,4.88-.06,4.97,3.58.06,2.42.73,4.82,1.06,7.23,1.18,8.53,1.15,8.35-7.2,9.6-44.88,6.76-90.14,7.19-135.36,8.19Z"/>
      <path class="cls-4" d="M347.06,148c-31.6-.59-63.19-1.68-94.68-4.41-39.53-3.42-78.76-9.08-117.54-17.62-6.04-1.33-5.44-1.31-3.39-6.83,2.77-7.45,7.62-5.48,13.1-4.81,22.03,2.68,44.17,3.56,66.37,3.12,28.46-.57,56.94-.89,85.33-3.08,29.85-2.3,59.52-6.12,88.93-11.98,8.14-1.62,16.37-2.91,24.52-4.56,1.97-.4,3.14.16,4.28,1.9,7.88,12.03,13.65,24.96,16.92,38.98.67,2.88.83,4.61-3.44,5.38-24.22,4.37-48.64,3.94-73.06,3.9-2.45,0-4.89,0-7.34,0Z"/>
      <path class="cls-4" d="M435.66,287.34c-1.02,10.08-3.19,19.14-6.48,27.96-.41,1.1-.51,1.97-2.24,2.23-24.15,3.63-48.39,6.38-72.67,8.93-32.2,3.39-64.48,4.02-96.8,3.96-44.55-.08-89.01-2.26-133.45-5.19-5.06-.33-9.98-1.43-14.82-3-1.67-.54-2.74-1.07-2.7-3.14.14-7.33.15-14.67.13-22,0-2.21.47-2.89,3.01-2.49,50.71,7.95,101.82,9.01,153.01,8.68,33.19-.21,66.38-.78,99.41-4.29,24.43-2.6,48.82-5.68,73.59-11.64Z"/>
      <path class="cls-1" d="M319.6,101.2c-3.39-19.39-9.86-37.47-22.38-53.1,5.99,2.92,10.19,7.83,14.19,12.63,9.14,10.94,15.2,23.63,19.56,37.19,1.22,3.79.26,5.37-3.49,5.71-5.02.45-10.05.77-15.04,1.43-3.4.45-4.63-1.08-5.22-4.13-2.57-13.47-6.08-26.69-11.21-39.44-2.1-5.2-4.36-10.34-6.03-15.76,16.45,14.97,23.37,35,29.61,55.48Z"/>
      <path class="cls-1" d="M246.07,40.93c-7.23,7.67-13.99,15.48-19.7,24.28-8.28,12.77-13.82,26.71-19.17,40.81-1.36,3.57-7.98,5.86-11.11,3.87-1.73-1.1-1.04-2.79-.68-4.25,1.5-6.14,4.23-11.87,7.55-17.11,6.87-10.86,13.25-22.05,21.55-31.99,5.91-7.08,13.2-11.96,21.57-15.61Z"/>
      <path class="cls-1" d="M251.27,43.3c-6.87,8.59-11.44,17.44-15.94,26.34-5.81,11.5-9.12,23.91-13.32,35.99-1.32,3.79-8.14,6.42-11.32,4.21-1.58-1.1-.92-2.79-.59-4.29,1.53-7.01,4.57-13.54,7.59-19.89,6.8-14.31,14.69-28.05,26.7-38.85,1.64-1.48,3.12-3.25,6.88-3.51Z"/>
      <path class="cls-1" d="M258.03,41.52c-1.39,5.83-4.29,10.59-6.6,15.51-7.42,15.81-11.93,32.57-16.53,49.28-1.48,5.38-5.17,3.98-8.2,3.67-4.15-.43-1.95-3.52-1.41-5.56,5.54-20.68,13.82-40.09,26.69-57.36,1.52-2.04,2.96-4.28,6.05-5.54Z"/>
      <path class="cls-1" d="M268.26,40.72c-4.23,21.72-4.11,42.75-4.98,63.7-.23,5.53-4.24,4.24-6.97,4.6-6.22.82-6.4.46-5.72-5.55,1.93-16.96,6.19-33.39,11.93-49.41,1.5-4.18,1.09-9.26,5.74-13.34Z"/>
      <path class="cls-1" d="M220.87,46.82c-.04,1.92-1.06,2.75-2.01,3.42-8.1,5.75-13.64,13.57-18.91,21.85-6.54,10.27-12.75,20.71-18.12,31.62-1.5,3.05-2.16,5.92-6.74,5.65-4.06-.24-4.23-1.6-2.94-4.7,4.93-11.84,12.19-22.22,19.52-32.67,6.36-9.06,14.52-15.86,23.28-22.22,1.71-1.24,3.45-2.3,5.92-2.94Z"/>
      <path class="cls-1" d="M228.15,47.78c-5.55,7.75-11.33,15.06-16.6,22.84-7.65,11.29-13.62,23.35-19,35.73-1.89,4.35-4.53,4.56-7.77,2.95-3.33-1.66-.74-4.25.1-6.01,7.63-16.09,16.66-31.34,28.3-44.9,4.05-4.71,9.03-8.37,14.99-10.61Z"/>
      <path class="cls-1" d="M316.57,44.35c9.76,3.97,17.22,10.11,24.54,16.02,10.98,8.86,20.58,19.31,28.93,30.77.97,1.32,3.83,4.06,1,5.01-2.6.87-6.5,3.63-9.09.14-7.98-10.73-15.37-21.86-24.71-31.6-5.33-5.56-10.75-10.92-16.72-15.76-1.31-1.06-3.05-1.73-3.94-4.58Z"/>
      <path class="cls-1" d="M237,109.21c5.49-24.09,13.06-46.76,25.41-68.23,1.55,2.96-.09,5.17-.76,7.22-6.24,19.04-11.29,38.37-14.15,58.22-.28,1.96-.88,2.83-2.83,2.8-2.42-.04-4.84-.01-7.68-.01Z"/>
      <path class="cls-1" d="M278.79,39.84c3.8,3.84,5.17,8.54,6.53,12.99,5.11,16.63,8.83,33.52,8.76,51.08-.01,3.12-1.96,2.84-3.7,3.06-2.11.27-3.95.38-4.19-2.92-.82-11.42-2.12-22.81-3.03-34.23-.69-8.69-3.27-17-4.84-25.51-.25-1.34-.7-2.59.46-4.47Z"/>
      <path class="cls-1" d="M304.66,47.75c8.72,4.86,15.62,11.36,21.37,19,7.11,9.45,14.03,19.05,18.5,30.17,1.42,3.53.44,4.49-3,4.97-4.8.68-7.36-.51-8.91-5.68-5.17-17.23-13.78-32.6-26.63-45.4-.49-.49-.93-1.04-1.31-1.62-.14-.22-.02-.6-.02-1.44Z"/>
      <path class="cls-1" d="M315.58,49.52c7.87,4.04,14.05,10.26,19.95,16.72,5.13,5.62,9.63,11.83,14.82,17.39,3.38,3.62,4.82,8.38,8.08,12.01,1.58,1.76.68,2.81-1.58,3.48-4.64,1.38-8.25,2.09-10.67-3.91-4.21-10.46-10.78-19.7-17-29.06-1.42-2.14-3.33-4.02-5.22-5.79-3.29-3.06-6.74-5.94-10.12-8.9.58-.65,1.16-1.3,1.74-1.95Z"/>
      <path class="cls-1" d="M331.37,47.46c7.68,4.57,14.32,8.23,20.66,12.35,11.52,7.49,20.8,17.38,28.77,28.47,1.1,1.53,4.83,3.71,1.48,5.8-2.56,1.59-5.96,2.18-8.52-1.73-3.32-5.08-7.25-9.8-11.26-14.37-8.27-9.43-17.2-18.18-27.53-25.41-1.24-.87-2.62-1.78-3.61-5.09Z"/>
      <path class="cls-1" d="M164.67,94.52c-3.89,2.83-6.69,6.66-8.6,10.9-1.61,3.57-3.93,3.03-6.33,1.94-3.65-1.65-1.04-4.09.08-5.48,6.13-7.54,10.09-16.92,17.47-23.23,7.22-6.18,13.56-13.63,22.37-17.84,1.16-.2,1.63.3,1.45,1.44-7.53,9.7-17.54,17.27-23.99,27.91-.88,1.45-2.43,2.52-2.51,4.42l.06-.07Z"/>
      <path class="cls-1" d="M275.17,45.28c2.78,5.81,3.35,12.14,4.32,18.31,2.02,12.84,3.58,25.74,3.7,38.77.02,2.49.22,4.94-3.32,5.25-3.9.34-3.03-2.72-3.21-4.63-1.73-19.18-2.55-38.38-1.49-57.69Z"/>
      <path class="cls-1" d="M270,46.4c2.01,1.17,1.56,2.54,1.51,3.61-.57,12.71,1.44,25.34,1.17,38.05-.12,5.56,1.41,11.01,1.13,16.62-.14,2.8-1.2,3.52-3.78,3.56-2.61.05-3.66-.65-3.73-3.48-.49-19.43.44-38.75,3.7-58.36Z"/>
      <path class="cls-1" d="M439.96,213.14c-12.66-5.6-22.53-13.47-28.27-25.93-.49-1.06-1.33-2.73.25-3.08,2.4-.53,5.47-1.89,7.31.56,5.26,7.04,11.36,12.93,18.89,17.64,3.12,1.95,2.3,6.49,1.82,10.8Z"/>
      <path class="cls-1" d="M347.08,53.65c4.45-.94,7.41,1.48,10.35,3.28,12.97,7.91,25.5,16.46,34.68,28.88,1.17,1.59,4.7,3.83,1.75,5.84-2.63,1.79-6.37,1.7-8.66-1.89-2.8-4.39-6.45-8.07-9.8-12.01-7.72-9.07-15.81-17.51-26.48-23.1-.62-.32-1.23-.66-1.84-1Z"/>
      <path class="cls-1" d="M164.61,94.58c3.3-1.55,5.49-4.41,7.15-7.35,5.13-9.11,14.59-14.25,19.79-23.1,1.8,1.15,1.43,2.21.77,3.01-9.68,11.78-16.67,25.18-23.41,38.73-1.39,2.8-7.22,4.52-9.86,2.92-2.25-1.35-.69-3.07-.14-4.55,1.33-3.58,5.5-5.49,5.76-9.72,0,0-.06.07-.06.07Z"/>
      <path class="cls-1" d="M357.13,52.69c5.39.7,10.23,2.95,14.7,5.25,12.86,6.61,23.05,16.65,32.39,27.53.87,1.01,2.74,2.57.46,3.83-2.28,1.25-5.09,2.26-6.97-.6-5.33-8.11-12.62-14.28-19.7-20.71-5.58-5.07-11.8-9.04-18.41-12.53-1.03-.54-2.09-1.14-2.47-2.76Z"/>
      <path class="cls-1" d="M289.65,53.45c4.06,7.83,6.91,14.98,8.77,22.25,2.18,8.55,5.18,16.94,6.11,25.81.22,2.13,1.37,4.29-2.07,4.55-2.95.22-5.55.27-5.73-3.96-.48-11.27-2.02-22.42-4.11-33.52-.87-4.64-3.83-8.86-2.97-15.13Z"/>
      <path class="cls-1" d="M110.23,194.04c.04-6.77-.81-12.99,7.31-15.14,2.74-.72,4.03-5.12,7.99-3.3,1.84.85,3.14,1.85,1.74,3.92-4.23,6.24-9.39,11.37-17.04,14.52Z"/>
      <path class="cls-1" d="M163.45,77.59c.81,2.07-.07,2.91-.89,3.78-6.69,7.12-11.9,15.3-16.63,23.77-.99,1.77-2.03,2.26-3.7,1.66-1.66-.59-1.98-1.81-1.04-3.31,6.08-9.66,13.7-17.95,22.26-25.91Z"/>
      <path class="cls-1" d="M439.26,195.56c.11,2.31-.66,3.48-3.05,2.16-4.97-2.75-9.15-6.33-11.87-11.44-1.5-2.82-.35-3.9,2.45-3.83,3.13.07,12.5,9.99,12.48,13.11Z"/>
      <path class="cls-1" d="M373.25,187.99c-3.25,1.86-6.79.8-10.18.86-7.83.15-15.67-.02-23.5-.06,5.76-1.91,11.69-.71,17.53-.92,5.37-.19,10.76.06,16.14.12Z"/>
      <path class="cls-1" d="M434.53,181.57c2.69-.22,3.29,1.35,3.54,3.15.16,1.13-.23,2.22-1.6,1.89-1.9-.45-3.54-1.69-4-3.56-.52-2.09,1.6-1.02,2.06-1.48Z"/>
      <path class="cls-1" d="M117.28,174.88c-.57,1.52-1.78,2.16-3.2,2.36-1.33.19-1.87-.63-1.82-1.88.08-1.92,1.37-2.2,2.9-2.15,1.11.04,2.07.28,2.12,1.67Z"/>
      <path class="cls-1" d="M191.1,62.25c-.48-.48-.97-.96-1.45-1.44,1.43-2.07,3.74-2.62,6.65-4.91-1.08,4.15-3.72,4.72-5.2,6.35Z"/>
      <path class="cls-2" d="M310.69,227.29c.19,6.25-2.28,11.58-5.8,16.49-4.38,6.12-11.34,9.28-17.04,7.71-7.38-2.04-10.3-8.02-11.89-14.63-1.57-6.53,5.23-22.1,10.67-25.65,8.46-5.52,22.46.88,23.72,10.87.22,1.73.23,3.48.34,5.22Z"/>
      <path class="cls-2" d="M249.76,220.23c.26,6.75-2.23,12.6-6.14,17.87-4.74,6.37-10.5,7.71-17.33,4.34-7.51-3.7-10.19-9.21-8.44-16.89,1.27-5.57,2.08-11.13,6.67-15.41,5.29-4.94,11.32-6.48,17.99-3.68,5.02,2.11,7.29,6.41,7.25,13.77Z"/>
      <path class="cls-2" d="M251.9,283.38c-7.26-.61-13.96-2.43-17.48-9.51-4.86-9.77,2.03-20.62,13.96-22.08,4.87-.6,9.76-.11,14.46,1.43,4.43,1.45,8.21,4.19,8.28,9.04.09,6-.21,12.26-5.6,16.64-4,3.26-8.75,4.01-13.62,4.48Z"/>
      <path class="cls-3" d="M250.07,275.74c-3.6-.42-7.32-1.87-8.25-5.73-.9-3.71,1.21-7.1,4.52-9.2,4.4-2.81,9.24-2.68,14.07-1.34,1.87.52,2.61,2.03,2.61,4.02,0,5.88-6.73,12.43-12.95,12.25Z"/>
    </g>
  </g>
</svg>