<?xml version="1.0" encoding="UTF-8"?>
<svg id="Layer_1" data-name="Layer 1" xmlns="http://www.w3.org/2000/svg" viewBox="0 0 512 512">
  <defs>
    <style>
      .cls-1 {
        fill: #1c1c1c;
      }

      .cls-2 {
        fill: #0e8d37;
      }
    </style>
  </defs>
  <g id="_9mbWod" data-name="9mbWod">
    <g>
      <path class="cls-1" d="M511.92,208.96c-.48-25.48-4-50.56-11.98-74.79-7.97-24.21-20.86-44.9-43.69-58.15-16.22-9.42-33.39-12.32-51.42-7.33-28.12,7.79-51.32,22.79-67.42,47.81-9.64,14.98-23.49,23.84-40.94,27.84-22.65,5.2-45.59,8.48-68.55,11.78-46.05,6.59-92.37,9.88-138.75,12.69-18.37,1.11-36.71,2.96-54.59,7.54-13.11,3.35-24.64,9.47-31.95,21.61-2.84,4.71-3.36,9.59-1.64,14.88,3.39,10.45,10.6,17.61,19.61,23.2,10.1,6.25,21.26,10.04,32.63,13.14,31.01,8.46,62.63,14.12,94.14,20.24,32.57,6.33,65.03,13.35,97.93,17.9,15.73,2.18,31.59,3.68,46.91,8.08,21.16,6.07,24.98,12.96,19.5,34.08-1.38,5.35-2.85,10.73-2.12,16.35,1.79,13.77,10.58,21.69,22.62,26.82,9.22,3.93,18.92,6.29,28.57,8.86,1.41.38,4.24-.09,3.95,2.56-.48,4.4-.67,9.46-4.09,12.38-2.05,1.74-4.71-2.13-7.37-2.82-.16-.04-.3-.18-.46-.25-10.84-4.63-21.91-7.87-33.78-4.65-7.54,2.04-8.92,3.96-8.84,11.78.18,16.29,9.87,25.87,23.58,32.08,16.13,7.29,33.14,8.28,50.36,5.16,3.04-.55,5.02.1,7.35,1.57,13.37,8.43,27.06,8.55,40.43.43,16.5-10.02,26.32-25.15,31.97-43.38,1.13-3.66.33-5.52-2.79-7.34-6.88-4.02-13.61-8.3-21.6-13.21,11.37-3.49,20.51-7.75,28.57-14.14,16.82-13.33,26.1-31.46,31.93-51.49,9.6-33.03,12.55-66.95,11.91-101.21ZM393.41,406.69c-.76-6.54,1.66-11.02,3.25-15.66.6-1.76,1.77-1.22,3.02-.72,3.3,1.33,6.41,2.96,9.48,5.2-5.01,3.8-10.89,5.79-15.75,11.19Z"/>
      <path class="cls-2" d="M501.23,242.73c-1.23,28.62-4.75,56.76-16.81,83.2-6.14,13.46-16.7,22.48-29.29,29.44-9.39,5.2-19.29,9.27-29.49,12.63-5.77,1.9-5.76,2.56-1.74,7.38,4.87,5.85,11.47,8.97,18.03,12.24,10.81,5.39,10.68,5.34,6.18,16.35-3.03,7.39-7.56,13.79-12.7,19.7-9.22,10.6-21.4,12.74-34.66,10.96-2.71-.36-3.65-2.07-3.85-4.85-.77-10.53,4.95-17.14,13.12-22.21,4.7-2.92,9.83-5.16,15.21-6.51,3.93-.99,3.39-2.98,1.62-5.35-2.97-3.99-7.27-6.37-11.55-8.52-6.85-3.44-14.01-6.27-20.91-9.63-2.95-1.44-3.73.19-4.75,2.28-5.56,11.35-7.82,23.59-9.76,35.92-.61,3.86-1.36,7.7-1.82,11.58-.3,2.54-1.59,3.33-3.94,3.1-12.38-1.23-24.91-1.58-36.59-6.7-8.14-3.57-14.03-8.99-16.11-17.99-1.36-5.9-.69-7.16,5.04-8.69,8.14-2.17,15.45.62,22.7,3.7,4.6,1.95,9.1,4.14,13.73,6.02,2.79,1.13,4.86.65,6.27-2.66,3.29-7.76,5.7-15.66,6.71-24.08.37-3.12-.87-4.12-3.12-5.19-7.13-3.38-14.69-5.46-22.22-7.65-7.72-2.24-15.37-4.6-21.76-9.82-6.96-5.67-8.55-13.17-7.87-21.65.28-3.47,2.61-2.78,4.62-2.79,7.55-.04,14.87-1.19,21.88-4.14,13.66-5.74,21.49-16.14,23.8-30.56.68-4.25,1.87-5.81,6.16-4.38,1.7.56,4.35,1.54,5.13-.75.59-1.74-1.84-2.77-3.38-3.6-7.03-3.8-14.37-5.26-22.13-2.49-1.43.51-3.41,1.02-3.29,3.01.13,2.17,2.09,2.16,3.69,2.11,4.41-.15,4.41,1.97,3.41,5.48-3.45,12.01-9.48,21.61-22.44,24.88-3.6.91-7.36,1.28-11.08,1.61-4.33.39-3.1-3.01-3.08-5.22.16-12.48-4.82-21.91-15.72-28.39-7.81-4.64-16.31-7.15-24.99-9.13-19.27-4.41-39.12-5.05-58.53-8.59-49.48-9.01-99.09-17.38-147.94-29.58-15.72-3.93-31.65-7.13-46.68-13.44-5.62-2.36-10.84-5.36-15.13-9.88-6.29-6.62-6.62-14.81-.29-21.37,8.54-8.86,19.4-13.05,31.35-14.71,14.66-2.03,29.45-2.46,44.2-3.39,14.2-.89,28.35-2.62,42.52-3.94,12.58-1.17,25.18-2.18,37.75-3.47,15.39-1.59,30.74-3.55,46.14-5.09,18.59-1.87,37.02-4.8,55.44-7.78,14.78-2.39,29.45-5.34,43.4-10.97,12.39-4.99,20.86-14.62,28.65-24.99,12.61-16.79,27.45-31.21,46.86-39.78,30.85-13.61,60.81-7.97,82.77,19.72,15.31,19.31,22.63,41.27,25.18,65.33.92,8.68,2.23,17.31,2.08,26.07,1.13,12.21.26,24.44.44,36.66.05,3.51.65,7.08-.46,10.55Z"/>
      <path class="cls-2" d="M501.23,242.73c0-15.74,0-31.47.02-47.21.88.79.97,1.84.97,2.91,0,13.8,0,27.6,0,41.41,0,1.07-.03,2.14-.98,2.89Z"/>
      <path class="cls-1" d="M461.44,300.77c.7-1.86.48-4.78,3.72-4.04,2.64.6,5.82.72,6.05,4.75.13,2.31-.29,6.01,2.58,6.01,2.58,0,3.88-3.43,4.4-6.11,1.62-8.32.06-16.17-6.91-21.17-4.3-3.09-5.82-6.48-6.25-11.19-.55-6.08-.75-12.13,1.05-18.04,1.45-4.73,4.55-6.19,8.54-4.31,1.73.82,2.95,1.68,2.34,4.07-.93,3.61-.4,7.41-1.31,11.12-1.6,6.53,1.64,11.79,6.33,15.52,13.02,10.35,9.45,29.65-3.14,38.05-6.52,4.35-12.47,9.53-18.89,14.03-3.99,2.8-8.4,1.08-12.24-.56-2.14-.91-3.54-.82-5.39.1-6.68,3.31-13.23,2.98-19.07-1.7-5.8-4.66-7.06-10.84-4.78-17.86.7-2.16,1.5-4.15-1.89-5.4-9.49-3.48-12.79-9.3-10.65-17.75,2.02-7.97,10.38-13.94,18.85-12.18,6.03,1.26,6.86-1.2,6.69-5.93-.04-1.23.06-2.53.43-3.7.44-1.41.39-3.36,2.72-3.38,2.08-.01,3.41,1.1,4.13,2.85,1.7,4.09,1.68,8.37.88,12.64-1.42,7.55-1.44,7.38-9.34,6.11-3.14-.5-6.45-.45-9.62-.12-4.56.48-8.13,4.87-7.27,8.38,1.17,4.71,4.57,6.29,10.07,4.6,2.22-.68,4.37-1.58,6.61-2.17,2.16-.58,4.45-.46,5.98,1.31,1.86,2.17-.53,3.65-1.52,5.06-3.31,4.72-6.44,9.45-6.32,15.53.06,2.97.47,5.97,3.91,6.8,3.64.88,6.35-.93,7.77-4.21,1.64-3.78,1.78-7.93,2.32-11.98.39-2.97.53-6.43,4.91-6.27,4.46.16,4.94,3.27,4.81,6.79-.12,3.22-.22,6.44-.19,9.65.02,1.89-.39,4.28,2.31,4.73,2.14.36,3.53-1.04,4.83-2.7,1.58-2.02,1.55-4.3,1.69-6.61,1.2-3.5-.37-7.23.88-10.73Z"/>
      <path class="cls-1" d="M368.9,140.86c-.28-6.83,1.61-12.7,7.09-17.09,6.4-5.13,14.44-2.5,15.52,5.48.9,6.68,1.01,13.5-2.73,19.72-1.44,2.4-3.25,4.19-5.71,5.41-6.73,3.35-11.76,1.12-13.42-6.12-.55-2.4-.52-4.93-.75-7.4Z"/>
      <path class="cls-2" d="M461.44,300.77c-.22,3.58.94,7.28-.89,10.73.22-3.58-1.16-7.3.89-10.73Z"/>
    </g>
  </g>
</svg>