<?xml version="1.0" encoding="UTF-8"?>
<svg id="Layer_1" data-name="Layer 1" xmlns="http://www.w3.org/2000/svg" viewBox="0 0 512 512">
  <defs>
    <style>
      .cls-1 {
        fill: #1c1c1c;
      }

      .cls-2 {
        fill: #f3e622;
      }

      .cls-3 {
        fill: #219ed7;
      }

      .cls-4 {
        fill: #e4186b;
      }

      .cls-5 {
        fill: #da0816;
      }

      .cls-6 {
        fill: #3faa3b;
      }
    </style>
  </defs>
  <g id="uF0JBR">
    <g>
      <path class="cls-1" d="M454.28,244.69c-2.1-1.56-4.51-2.69-6.79-4.01-2.27-1.31-6.12-.47-7-2.74-.77-2.02.91-4.95,1.41-7.49,3.23-16.08-9.97-28.39-24.99-23.34-9.74,3.28-15.99,10.43-20.68,19.13-1.52,2.82-1.68,5.95-.49,9.18.87,2.34,3.76,4.9,2.35,6.88-1.41,2.02-4.77,2.69-7.3,3.87-1.25.58-2.56,1.01-4.68,1.83,0-3.01-.18-5.3.02-7.56,2.65-28.63.12-57.25-.03-85.88-.02-3.32-.29-6.7-.99-9.94-.9-4.16-3.38-6.85-8.12-6.64-19.01.86-37.92-1.52-56.89-1.7-2.86-.02-4.24-.86-5.45-3.51-8.25-18.19-16.79-36.24-25.07-54.41-4.81-10.54-9.78-21.04-13.95-32.7,4.31,2.67,6.45,6.15,9.1,9.17,8.26,9.43,17.66,16.81,30.66,18.75,10.77,1.59,20.76,2.24,29.22-6.77,9.15-9.74,13.21-9.11,21.04,1.88,2.77,3.9,5.71,4.06,8.87.35,2.97-3.53,6.45-6.44,10.13-9.16,6.14-4.54,6.56-8.57,1.51-14.44-1.26-1.45-2.84-2.62-4.19-4-1.49-1.52-2.2-3.38-.6-5.14,3.73-4.13,1.72-7.78-1.37-10.56-5.7-5.11-11.52-9.83-13.67-17.77-.71-2.59-3.71-4.14-6.3-5.34-5.75-2.66-11.73-3.11-18-2.15-7.58,1.16-12.22,6.3-17.08,11.45-7.67,8.16-15.46,8.39-23.5.99-1.3-1.19-2.55-2.43-3.91-3.55-12.15-10.07-30.57-8.37-40.5,3.55-2.94,3.55-2.9,8.18-5.15,11.96-6.1,10.25-11.8,20.73-18.42,30.68-7.27,10.96-14.87,21.82-20.9,33.45-6.7,12.95-14.46,25.23-21.62,37.87-1.78,3.16-3.98,4.13-7.56,4.08-27.94-.4-55.9.08-83.8-2.17-6.81-.55-8.02.54-8.23,7.58-.27,8.95-.21,17.92-.22,26.89-.02,12.31-.65,24.57-2.27,36.8-.52,3.97-2.11,6.11-6.35,6.65-6.78.87-13.52,2.05-20.03,4.29-5.51,1.9-9.25,5.37-11.11,11.01-5.33,16.05,1.35,32.96,16.39,40.68,4.2,2.15,8.58,4.03,13.02,5.6,4.43,1.58,6.1,4.16,6.07,9-.05,8.92.29,17.82-.13,26.76-.85,18.42.63,36.89-1.15,55.31-.76,7.85-.9,15.79-.89,23.7.01,6.32,3.66,9.06,9.85,7.95,2.11-.37,4.17-.23,6.28-.03,25.88,2.43,51.74,5.19,77.8,4.67,4.75-.1,9.46.4,14.17,1.03,4.21.58,6.44,2.3,5.06,7.08-3.3-.74-6.88-2.91-9.82.24-3.12,3.37,1.94,5.35,1.98,8.66-2.37,0-4.61.01-6.85,0-29.99-.17-52.44,22.01-56.94,43.02-1.03,4.84-2.67,6.87-7.64,7.61-8.4,1.25-10.84,5.63-8.65,13.89,1.3,4.93,2.58,9.77,2.17,15-.56,7.11,1.02,9.48,8.15,11.2,21.15,5.11,42.07,3.98,62.54-3.46,3.69-1.34,5.77-1.66,6.06,3.21.2,3.27,1.57,6.45,5.59,6.43,12.09-.04,24.29,1.42,36.1-2.44,1.96-.64,3.84-.89,5.57.22,5.42,3.46,11.49,3.73,17.64,4.3,4.94.45,9.84-.08,14.72.28,6.32.46,8.13-.47,8.58-6.45.22-2.98.52-3.4,3.51-2.39,16.66,5.63,33.77,7.72,51.37,6.71,9.18-.52,17.78-3.65,26.77-5,6.56-.98,8.88-4.92,8.96-11.66.05-3.69.73-7.37.81-11,.19-8.54.87-17.61-9.51-21.64-2.66-1.03-2.55-3.78-2.88-5.81-.44-2.71-1.52-5-2.84-7.25-7.31-12.39-17.87-21-31.07-26.52-12.26-5.13-25.17-6.96-38.55-7.48,1.28-3.07,4.11-5.78,1.53-8.92-3.12-3.8-6.34-.2-9.49.42-1.48-7.05-1.48-6.99,5.09-7.12,15.44-.33,30.77,2.35,46.19,1.98,15.13-.37,30.14,1.1,45.17,2.2,7.86.57,10.44-1.41,9.78-9.42-.51-6.14-1.39-12.31-.55-18.39,1.68-12.09-.39-24.14.3-36.27.56-9.88-.51-19.98-.38-30,.15-13.08.07-13.08,12.64-17.25.48-.16.98-.18,1.63-.3.9,6.74,3.63,12.52,8.77,16.93,9.9,8.51,21.67,5.12,25.28-7.36.7-2.41,1.49-3,3.94-2.58,5.15.88,10.16.13,14.8-2.42,6.63-3.62,8.31-8.53,5.26-15.4-1.12-2.53-2.45-4.98-3.83-7.78,6.82-1.34,11.41-4.9,12.47-11.52,1.1-6.88-2.79-11.71-7.95-15.56ZM192.54,410.27c-1.3-.97-3.19-2.26-1.26-4.17,1.69-1.68,3.22-.46,4.49.82,1.47,1.49,2.42,3.28,3.23,5.86-3.07-.11-4.83-1.29-6.46-2.51ZM275.66,411.22c.46-3.05,3.16-3.79,5.08-4.97,1.22-.12,2.21.02,1.89,1.22-.73,2.75-2.83,4.19-5.4,5.01-1.11.35-1.72-.22-1.56-1.27Z"/>
      <path class="cls-3" d="M261.3,418.41c-6.75,2.33-13.4,1.89-20.09.18-2.11-.54-2.66-1.9-2.54-3.91.27-4.56.19-9.14.71-13.67.35-3.08-.12-5.97-.83-8.84-.76-3.11-3.32-3.15-5.92-2.92-2.83.26-1.98,2.39-2.02,3.99-.15,5.8-.47,11.61-.26,17.4.13,3.64-1.41,5.63-4.59,6.68-4.95,1.63-9.94,3.02-16.39,1.14,5.42-3.27,8.38-7.1,8.58-12.66.08-2.35.32-4.61-1.88-6.14-2.08-1.44-3.67.08-5.23,1.14-3.13,2.13-4.03.82-3.8-2.35.19-2.52-.42-4.92-1.25-7.22-.99-2.75-3.15-4.72-6.06-3.9-6.17,1.76-12.2-.06-18.28.05-24.61.44-49.03-2.8-73.59-3.48-13.81-.38-14.07-.73-13.66-14.47.9-30.4,1.54-60.79,1.11-91.2-.05-3.29.68-4.54,4.18-3.5,8.87,2.63,17.75,5.27,26.73,7.49,4.9,1.21,4.82,3.25,2.31,6.75-3.77,5.27-7.28,10.72-11.07,15.98-2.01,2.79-2.06,5.09.79,7.23,2.92,2.19,5.23.74,6.6-1.7,3.07-5.48,6.77-10.53,10.02-15.86,3.8-6.21,6.6-8.02,13.36-6.57,4.35.94,7.53,8.68,6.76,13.02-2.04,11.39-11.06,18.49-16.19,27.93-1.18,2.17-2.62,4.11-.12,5.93,2.49,1.8,5.41,1.53,6.69-1.36,2.48-5.57,7.85-8.92,10.38-14.44,1.65-3.61,4.66-2.67,7.03-.81,6.78,5.34,14.15,5.03,22,3.19,7.94-1.86,10.97-8.05,12.41-14.68.87-4,2.37-4.27,5.47-4.03,5.37.41,10.66.48,13.95-5.05,1.23-2.07,3.01-.48,4.23-.08,16.24,5.26,31.95,2.65,47.18-3.56,19.33-7.88,32.18-22.68,41.12-41.03,5.46-11.2,9.84-22.86,9.72-35.65-.01-1.55-.22-3.13-.55-4.65-.6-2.73-2.16-4.26-5.22-4.01-3.3.27-3.53,2.89-3.42,4.99,1.16,21.29-7.63,39.23-20.76,54.59-11.37,13.31-25.99,22.31-44.52,24.25-7.92.83-14.79-1.45-22.11-2.55-2.08-.31-2.92-1.78-3.57-3.45-2.36-6.05-6.43-9.86-13.17-10.34-3.66-.26-4.37-2.11-2.86-5.3,8.1-17.08-6.72-34.7-25.16-31.5-6.5,1.13-11.71-3.35-17.88-3.36-1.35,0-1.13-1.59-1.45-2.52-1.77-5.13-3.67-10.1-2.12-15.85.93-3.45-1.32-6.34-4.91-6.83-4.1-.56-4.12,2.87-4.29,5.69-.35,5.82.46,11.51,1.75,17.19,1.41,6.24.18,8.07-6.17,8.66-6.93.65-11.77,3.99-15.14,9.89-.63,1.11-.9,3.04-2.82,2.49-1.29-.37-2.93-1.04-3.5-2.08-1-1.84,1.21-2.61,2.17-3.66,3.09-3.35,6.18-6.56,8.22-10.83,4.73-9.92,3-18.78-3.77-26.88-6.63-7.93-15.53-10.67-25.45-9.44-3.38.42-3.93-.2-3.85-3.18.54-19.49,1.65-38.98,1.14-58.49-.07-2.56.94-3.43,3.45-3.24,31.39,2.45,62.88.25,94.31,1.94,24.01,1.29,48.02,2.62,72.05,3.68,30.51,1.34,61.08,1.35,91.54,3.81,4.02.32,8.08.25,12.13.21,2.83-.03,3.95,1.02,4.1,4.01,1.19,24.39,1.7,48.81.66,73.19-.39,9.2.26,18.54-1.91,27.72-1.18,4.97,3.52,8.38,8.43,6.4,7.62-3.06,14.68-7.46,22.85-9.21,1.82-.39,2.09-2.22,1.89-3.85-.11-.83-.53-1.69-1.03-2.39-2.83-3.98-6.66-7.69-3.34-13.2,4.46-7.39,9.61-14.1,18.97-15.21,7.49-.89,11.68,4.13,10.65,11.68-1.05,7.67-5.42,12.72-11.83,16.38-2.52,1.44-5.35,2.82-3.18,6.39,1.99,3.28,4.9,3.08,7.75,1.19,7.55-5.02,15.01-4.69,22.57-.03,3.38,2.09,5.08,5.03,4.19,8.85-.84,3.58-3.76,5.39-7.23,6.09-4.05.83-8.01.16-11.92-1.08-2.33-.74-4.68-1.53-7.08-1.89-1.8-.27-4.18-.66-4.89,1.84-.58,2.05.7,3.78,2.2,4.97,2.8,2.22,6.29,2.9,9.64,3.91,4.36,1.32,8.76,2.68,10.84,7.49,2.13,4.92,0,9.21-5.33,10.11-4.79.82-9.06-.37-12.59-3.84-1.25-1.23-2.42-2.56-3.77-3.67-2.06-1.69-4.31-1.27-6.32.06-2.52,1.67-.39,3.45.24,5.03.71,1.77,1.89,3.35,2.78,5.05,1.94,3.72.9,6.89-2.18,9.34-3.28,2.61-6.54,1.93-9.49-.77-4.73-4.32-4.91-9.96-3.88-15.58.49-2.66,1.05-5.02-1.52-6.48-2.4-1.37-4.88-1.06-7.39.57-6.31,4.1-13.01,7.47-20.37,9.25-3.84.93-5.44,2.8-4.17,6.79,1.52,4.74,1.39,9.67,1.38,14.58-.05,23.73-.03,47.46-.03,71.19,0,1.05.03,2.11-.05,3.16-.57,6.98-.98,7.52-7.87,7.4-28.28-.49-56.56-.9-84.79-2.86-1.93-.13-3.86-.23-5.79-.18-8.4.2-8.89.78-7.88,9.1.17,1.39.63,2.74.8,4.13.32,2.64-.13,4.38-3.3,2.47-1.96-1.18-4.07-1.18-6.06-.29-3.45,1.54-3.91,5.05-1.3,8.26,1.51,1.85,4.19,2.66,4.89,5.62Z"/>
      <path class="cls-6" d="M83.41,231.71c.03,10.2,4.52,16.57,13.21,19.01,10.15,2.84,19.19,8.47,29.3,11.36,9.55,2.73,17.81,8.71,27.66,10.8,4.95,1.05,8.78,5.07,13.89,6.04,1.09.21,1.63,1.33,1.47,2.5-.24,1.69-1.49,2.21-3,2.39-5.03.61-9.73-1.2-14.43-2.33-25.66-6.21-50.94-13.7-75.73-22.86-10.62-3.93-16.52-11.25-18.42-22.23-1.28-7.36,4.18-16.69,10.75-19.46,10.32-4.36,21.58-4.07,32.09-7.2,4.65-1.38,8.89-2.38,13.72-.59,14.14,5.24,18.22,21.75,6.33,34.23-2.79,2.93-6.92,3.55-10.75,3.4-5.63-.22-11.08-1.76-15.8-5.02-6.46-4.46-7.07-12.1-1.55-17.65,6.99-7.02,13.93-8.05,21.16-3.58,4.14,2.56,3.07,6.39,2.91,9.89-.19,3.96-3.43,5.48-6.67,6.56-3.23,1.08-6.18.39-8.82-1.87-2.1-1.79-.67-3.6-.04-5.25.62-1.63,1.7-3.11,3.87-2.98,2.3.14,2.04,1.88,2.32,3.42.51,2.77,2.19,3.3,4.63,2.15,3.11-1.47,3.48-4.14,2.04-6.58-2.1-3.56-5.94-4.98-9.86-5.2-3.36-.19-5.13,2.48-6.59,5.24-4.04,7.66-3.81,11.06.97,14.95,3.08,2.51,6.66,2.01,10.09,1.75,6.91-.52,13.87-7.01,14.43-13.11.65-7.1-3.93-13.38-11.28-15.84-7.48-2.5-13.87-1.4-19.68,4.34-4.29,4.23-9.34,7.71-8.24,13.73Z"/>
      <path class="cls-5" d="M296,135.92c-27.02-1.07-54.04-2.12-81.05-3.22-4.03-.16-8.04-.73-12.06-.82-3.46-.08-3.03-1.37-2-3.91,2.16-5.33,5.54-7.71,11.39-6.4,2.54.57,5.24.63,7.86.6,25.13-.28,50.1,3.12,75.2,3.51,4.08.06,8.59.22,9.65,5.82.59,3.13.31,5.23-3.73,4.66-1.72-.24-3.51-.04-5.27-.04,0-.07,0-.13,0-.2Z"/>
      <path class="cls-2" d="M240.79,103.44c13.65-.69,29.01.98,44.38,2.14,6.06.46,10.87,2.54,12.77,9.18.79,2.77.36,3.24-2.29,3.35-10.55.44-21.06-.38-31.52-1.37-11.88-1.13-23.73-2.12-35.66-1.76-5.11.15-10.13-.49-15.18-1.05-3.24-.36-3.78-1.74-2.24-4.56,2.09-3.84,4.06-6.79,9.52-6.09,6.04.77,12.26.18,20.21.18Z"/>
      <path class="cls-5" d="M261.6,427.53c3.35-.04,5.93-.25,7.89-1.57,7.74-5.2,15.15-1.83,22.66.46,2.97.9,3.26,2.29,1.65,4.89-1.67,2.7-3.72,4.56-6.77,5.39-2.53.69-4.1,2.37-3.37,5.02.67,2.42,2.64,3.59,5.26,3.49,2.76-.1,4.46-1.6,4.38-4.22-.12-4,1.19-7.07,4.22-9.69,1.57-1.36,2.86-1.69,4.65-.67,1.65.94,2.02,2.13,1.56,3.94-2.99,11.71-5.64,23.49-5.96,35.65-.05,1.85-.96,2.65-2.61,2.37-2.55-.43-5.79,1.86-7.56-1.68-.93-1.88-1.64-3.88-2.31-5.87-4.32-12.87-11.58-23.91-20.75-33.79-.82-.88-1.5-1.89-2.95-3.74Z"/>
      <path class="cls-3" d="M265.8,17.16c3.92-7.05,12.82-9.71,20.45-7,3.48,1.23,6.4,3.06,8.8,6.23,9.89,13.1,28.24,10.75,37.3-.33,4.92-6.02,11.22-8.79,18.6-9.51,3.81-.37,6.85,1.31,8.55,4.9,1.02,2.16,1.33,4.54-.09,6.53-1.41,1.99-3.46.73-5.32.39-8.59-1.58-15.79.21-21.36,7.67-8.3,11.13-22.34,12.59-33.22,3.85-1.78-1.43-3.62-2.83-5.12-4.52-7.46-8.44-16.22-12.72-28.59-8.2Z"/>
      <path class="cls-5" d="M277.89,491.65c5.83,0,10.15.02,14.47,0,20.84-.1,41.49-1.77,61.69-7.31,1.81-.5,4.31-2.88,5.83.49,1.57,3.49-.1,9.43-3.09,10.42-6.28,2.1-12.56,4.51-19.04,5.64-16.25,2.85-32.43,1.34-48.39-2.49-3.85-.92-7.79-1.95-11.48-6.76Z"/>
      <path class="cls-2" d="M269.33,24.56c4.33-3.27,8.3-2.99,12.25-.91,3.13,1.64,5.72,4.06,8.1,6.66,9.81,10.73,22.05,13.73,35.85,10.79,5.45-1.16,9.59-4.91,13.19-9.12,7.51-8.76,9.29-9.15,19.65-4.37,3,1.39,5.68,2.54,8.11-1.28,1.27-2,7.46.78,7.68,3.58.28,3.63-3.29,5.1-5.08,7.58-1.36,1.88-2.78.44-4.1-.23-13.94-7.11-19.28-4.2-30.06,6.37-6.54,6.41-14.21,8.45-22.65,6.52-7.72-1.77-14.73-5.5-20.43-11.32-6.32-6.46-13.41-10.93-22.5-14.26Z"/>
      <path class="cls-3" d="M289.63,46.22c11.32,7.07,22.68,14.03,37.01,11.21,5.28-1.04,9.88-3.26,13.59-7.24,1.68-1.79,3.37-3.6,5.24-5.18,6.78-5.73,12.22-5.59,18.41.69,3.25,3.29,6.17,6,10.43,1.36,1.3-1.42,2.9-.56,4.18.59,1.45,1.3,2.27,2.81,1.06,4.61-1.69,2.5-4,4.39-6.43,6.15-3.63,2.63-5.35-1.12-7.52-2.52-9.75-6.28-16.04-5.86-24.43,2.09-12.96,12.27-31.07,11.67-43.53-1.34-3.01-3.14-6.29-6.03-9.44-9.04-.23-1.19.23-1.66,1.42-1.38Z"/>
      <path class="cls-5" d="M281.97,98.03c-17.36-1.43-35.41-2.27-53.5-2.12-.18,0-.37.04-.52-.03-2.44-.97-7.14.76-6.9-3.15.22-3.58,2.03-7.28,7.54-7.64,17.55-1.17,35.03-1.11,52.52.6,2.98.29,8.6,7.95,8.07,10.96q-.27,1.53-7.2,1.38Z"/>
      <path class="cls-5" d="M171.29,459.55c.77,10.1.75,10.31-7.87,9.86-7.86-.41-15.68-1.57-23.54-1.95-3.77-.18-5.03-1.74-4.74-5.16.16-1.92-.03-3.99.66-5.7.81-2,.68-5.74,4.22-4.84,2.8.71,6.84-.53,7.33,5.11.58,6.67,3.63,8.55,8.39,7.24,4.97-1.37,10.36-9.35,8.93-13.46-1.35-3.87-4.59-4.13-7.82-3.2-3.25.94-4.76,3.39-3.95,6.86.4,1.72,1.42,2.99,3.37,2.33,2.05-.69,2.33-1.84.54-3.39-1.01-.87-.47-1.92.31-2.75.77-.83,1.76-1.24,2.85-.87,1.4.47,1.66,1.71,1.59,3-.1,1.99-.92,3.76-2.08,5.31-1.8,2.4-4.35,4.13-7.24,2.91-2.64-1.12-2.42-4.18-2.01-6.55,1.46-8.37,7.72-13.08,14.15-17.44,2.34-1.59,2.37,1.16,2.84,2.38,2.66,6.91,4.23,14.06,4.08,20.32Z"/>
      <path class="cls-5" d="M268.23,472.66c-7.78-.89-15.64-1.47-23.31-3.35-3.37-.82-4.05-2.53-1.43-4.99,2.9-2.71,4.84-5.9,5.99-9.7.66-2.2,1.7-4.3,4.66-4.15,3.74.19,5.49,2.61,6.71,5.74,1.02,2.61,1.19,5.18-.66,7.43-.82,1-2.29.91-3.45.43-1.2-.51-1.81-1.65-2.02-2.9-.33-2,.95-1.7,2.28-1.64.95.04,1.58-.83,1.44-1.78-.26-1.73-1.62-2.1-3.12-2.16-1.75-.07-3.36.49-3.64,2.3-.57,3.63-.09,7.52,3.48,9.11,3.54,1.57,6.93-.08,8.86-3.6,3.2-5.81-1.22-14.45-8.46-15.74-2.79-.5-4.15-1.18-5.13-3.87-1.53-4.19-4.4-6.7-9.38-5.17-2.03.62-3.51.03-3.27-2.52.28-3.08-1.34-7.32,1.42-8.92,2.62-1.52,5.81,1.4,8.26,3.19,13.1,9.59,21.05,22.71,25.68,38.06,1.58,5.24-1.9,4.37-4.9,4.24Z"/>
      <path class="cls-5" d="M212.42,427.96c-.96,1.42-1.38,2.47-2.15,3.12-10.23,8.69-14.51,20.67-18.54,32.87-.79,2.41-1.37,6.49-4.67,6.04-4.03-.54-2-4.61-2.06-7.05-.25-9.93-2.7-19.4-6.03-28.59-1.72-4.75.9-5.46,4.02-7.14,4.02-2.17,4.27,1.32,5.74,3.1.85,1.04,1.15,2.12-.03,3.21-2.05,1.87-1.8,4.4-1.93,6.85-.14,2.8.78,5.01,3.66,5.48,2.55.42,4.85-.69,6.2-3,1.8-3.07,1.5-5.94-1.05-8.62-1.8-1.89-3.44-3.95-4.97-6.06-.8-1.1-1.62-2.97.43-3.37,3.16-.62,6.4-2.68,9.62-.98,3.58,1.89,7.44,2.81,11.76,4.13Z"/>
      <path class="cls-5" d="M324.32,463.41c3.2.28,5.61-1.29,7.05-3.8,1.82-3.17,4.18-4.38,7.71-3.9.97.13,2.02-.46,3.05-.58,1.6-.18,3.65-2.97,4.7.24.78,2.37,1.49,5.41-1.82,6.83-7.67,3.3-15.87,4.92-23.84,7.26-.49.14-1.05,0-1.57.04-9.83.98-9.78.99-9.34-8.82.3-6.68,1.86-13.13,3.23-19.63.49-2.33,1.3-3.26,3.42-2.02,5.16,3.03,10.14,6.28,12.79,12.05,1.43,3.12,1.36,5.81-1.77,7.76-3,1.86-6.04,1.63-8.82-.49-1.44-1.1-1.53-2.72-.83-4.29.58-1.27,1.83-1.67,3.1-1.5,2.56.33,1.03,1.91.93,3.12-.05.59.2,1.52.63,1.77.89.54,1.63-.17,2.2-.86,1.1-1.31,1.5-2.78.75-4.39-.78-1.68-1.89-2.81-3.99-2.86-3.9-.1-5.92,2.05-6.54,5.52-.8,4.53,2.31,6.64,5.84,8.19.92.4,2.07.25,3.12.36Z"/>
      <path class="cls-5" d="M184.31,483.18c-17.81.45-36.25-1.22-54.62-4.14-3.12-.5-5.59-1.95-8.03-3.63-1.24-.86-2.92-1.88-1.55-3.77,1.08-1.49,3.13-1.85,4.21-.72,7.51,7.83,17.5,4.55,26.31,5.69,12.46,1.61,25.21,2.63,37.71,1.88,11.11-.66,22.43.99,33.41-2.31,2.47-.74,7.16-1.77,7.6.44.75,3.81-4.12,3.55-6.58,4.13-12.38,2.92-25.05,2.5-38.48,2.43Z"/>
      <path class="cls-5" d="M178.18,492.11c-6.68,3.76-13.97,4.84-21.2,5.71-10.59,1.29-21.15,2.14-31.8-.66-4.05-1.07-5.67-2.33-5.64-6.44.07-7.52-.12-7.37,7.22-5.66,14.52,3.38,29.3,4.84,44.17,5.56,2.4.11,4.91-.35,7.25,1.49Z"/>
      <path class="cls-2" d="M254,77.01c-6.49,0-12.98.04-19.47-.04-1.04-.01-2.62.7-2.95-1.21-.34-1.96,5.09-8.83,7.29-9.38,10.79-2.72,21.53-1.58,32.17.72,1.82.39,4.4-.72,5.6,1.86,1.1,2.36,3.66,4.9,2.79,7.07-.95,2.37-4.51,1.85-7.04,1.89-6.13.1-12.26.03-18.39.03,0-.31,0-.62,0-.93Z"/>
      <path class="cls-5" d="M278.12,484.13c-11.45.41-22,.35-32.31-2.14-2.54-.61-7.34-.35-6.31-4.48.85-3.43,4.77-.75,6.86-.33,16.6,3.36,33.36,5.15,50.19,3.69,12.33-1.07,24.85-1.96,36.71-5.92,7.8-2.6,16.45-1.3,23.86-5.66,1.55-.91,2.02.84,1.4,2.17-1.14,2.45-3.52,3.42-5.85,4.13-14.3,4.31-28.8,7.56-43.85,7.63-10.54.05-21.04,1.6-30.7.92Z"/>
      <path class="cls-2" d="M177.5,271.05c7.53,7.92,17.46,10.8,27.61,13.42,2.6.67,5.02,2.43,4.25,6.2-.78,3.82-3.63,3.82-6.39,4.02-4.07.28-8.05-.55-11.93-1.61-5.68-1.56-10.9-1.36-16.11,1.88-4.51,2.81-8.58,1.73-10.89-2.1,11.74-.1,17.3-9.36,12.3-20.48-.31-1.05.07-1.51,1.17-1.33Z"/>
      <path class="cls-5" d="M213.04,463.06c-1.22-3.58-1.25-6.51,2.24-7.89,3.07-1.22,4.77,1.29,6.42,3.38.21.27.33.62.49.93,3.91,7.46,3.54,7.98-4.82,9.11-4.37.59-8.73.79-13.12.95-3.3.12-3.98-1.26-3.2-4.14,2.49-9.13,7.57-16.93,13.07-24.38,3.06-4.15,6.75-7.88,11.56-10.44,3.54-1.89,4.37-.78,4.46,2.5.04,1.4.06,2.82-.05,4.21-.14,1.76-.69,2.39-2.71,1.5-5.89-2.6-10.57.31-10.86,6.97-.15,3.5-.44,6.08-3.97,8.12-2.93,1.69-2.9,5.4-2.35,8.65.3,1.78,1.49,2.69,3.3,2.82,2.6.19,3.85-1.14,4.33-3.57.21-1.1.48-2.23-.82-2.62-3.21-.97-1.96,2.58-3.95,3.9Z"/>
      <path class="cls-5" d="M257.1,504.58c-3.17-.22-6.2-.17-9.12-.7-8.04-1.46-10.96-5.17-11.14-13.25-.05-2.23,1.18-2.34,2.64-2.07,8.63,1.6,17.32,2.54,26.06,3.27,4.27.35,2.19,4.44,2.67,6.89.53,2.71-.25,5.03-3.41,5.44-2.61.33-5.26.3-7.71.42Z"/>
      <path class="cls-5" d="M208.63,502.19c-2.37,0-4.12.02-5.87,0-5.55-.06-6.36-1.1-6.18-6.84.08-2.59.9-3.42,3.6-3.83,8.45-1.28,17.1-.54,25.45-2.85,3.26-.91,4.08,1.73,4.67,4.26.6,2.6,1.54,5.09-2.19,6.37-6.54,2.25-13.2,3.29-19.47,2.9Z"/>
      <path class="cls-5" d="M181.72,461.87c0,.52-.05,2.62.01,4.72.08,2.62-1.08,3.89-3.74,3.86-2.43-.02-3.45-1.24-3.44-3.59.03-10.21-1.96-20.12-4.89-29.83-.91-3,.6-3.58,2.6-4.59,2.86-1.43,3.35.81,3.95,2.47,2.99,8.2,5.87,16.44,5.49,26.95Z"/>
      <path class="cls-3" d="M182.83,259.19c.23-3.01-.33-5.92-.97-8.84-.65-2.92.95-3.93,3.54-3.41,4.82.97,8.12,3.98,9.98,8.43,1.97,4.68,1.5,9.28-1.41,13.45-.98,1.4-2.81,3.08-4.41,1.9-2.53-1.87-6.15-2.98-6.69-6.8-.22-1.55-.03-3.15-.03-4.72Z"/>
      <path class="cls-5" d="M251.61,427.83c4.33-.52,7.31,1.93,9.77,4.74,9.3,10.63,17.23,22.15,21.47,35.8.46,1.49,3.03,4.05-.36,5.15-3.21,1.04-4.47-1.06-5.33-4.04-2.15-7.42-5.24-14.47-9.19-21.15-3.79-6.41-8.58-11.93-13.95-17.02-.95-.9-2.49-1.44-2.4-3.49Z"/>
      <path class="cls-5" d="M337.36,452.82c-1.57-.14-3.57-.08-4.59-2.24-3.03-6.48-8.77-10.33-14.26-14.33-2.3-1.67-3.53-3.14-2.11-6.02,1.63-3.31,3.8-1.51,5.73-.73,3.24,1.31,6.34,2.9,9.15,5.05,2.77,2.12,5.9,3.46,1.87,7.72-2.06,2.18-.72,5.73,2.02,7.75,1.04.77,2.43.66,3.47-.08.84-.6,1.46-1.58,1.09-2.74-.46-1.44-1.31-1.79-2.79-1.09-1.16.55-2.09-.02-2.03-1.41.04-1.03.87-1.38,1.8-1.53,2.08-.32,3.84.36,5.17,1.9,1.37,1.58,1.69,3.44.68,5.36-1.03,1.96-2.81,2.48-5.21,2.39Z"/>
      <path class="cls-3" d="M162.26,303.38c7.05,1.28,12.97.12,18.78-1.86,2.07-.7,4.3-2.18,6.04.39,1.73,2.55.83,5.08-.75,7.31-5.21,7.38-16.53,6.75-21.79-1.18-.75-1.13-1.21-2.44-2.29-4.66Z"/>
      <path class="cls-3" d="M143.69,250.77c7.27-.05,14.89,6.29,15.81,12.77.35,2.45-.08,3.65-3.05,2.57-5.37-1.96-10.9-3.47-16.28-5.39-1.81-.64-4.71-.55-4.72-3.27,0-2.34,1.99-3.93,3.75-5.42,1.48-1.25,3.3-.9,4.5-1.26Z"/>
      <path class="cls-5" d="M264.02,59.18c-6.12-.45-12.15-1.63-18.28-1.31-1.31.07-2.82-.51-1.89-2.12,1.73-2.99,2.64-7.06,7.74-6.21,4.11.68,8.31.76,12.45,1.24,3.66.42,7.52,1.76,6.99,5.99-.47,3.81-4.64,1.51-7.02,2.42Z"/>
      <path class="cls-5" d="M224.45,425.98c.56,1.85-.09,2.47-.82,2.95-13.7,9.03-21.24,22.28-25.72,37.61-.53,1.81-.7,4.47-3.37,3.48-2.56-.95-.5-3.06-.03-4.45,3.36-9.93,6.88-19.83,13.79-28.01,4.39-5.2,9.47-9.39,16.15-11.57Z"/>
      <path class="cls-5" d="M301.09,465.57c.48-10.02,2.66-19.72,5.56-29.27.28-.91.4-2.28,1.82-2.16,1.47.12,2.06,1.17,1.97,2.58-.08,1.22-.09,2.46-.34,3.65-1.86,9.09-2.95,18.28-3.84,27.5-.16,1.7.3,3.57-2.44,3.72-3.26.18-2.5-2.17-2.72-3.92-.09-.69-.01-1.4-.01-2.1Z"/>
      <path class="cls-5" d="M144.55,449.47c-1.62-.35-4.42.83-4.46-2.08-.03-2.76,2.4-1.59,4-1.71,4.96-.38,6.82-3.6,7.11-8.11.27-4.15,4.75-9.27,8.79-10.16,1.92-.43,2.91.45,3.76,1.99.88,1.58.94,2.98-.53,4.18-2.57,2.1-5.12,4.22-7.77,6.21-2.57,1.93-4.79,4.22-6.01,7.15-1,2.41-2.37,3.32-4.9,2.54Z"/>
      <path class="cls-3" d="M162.86,244.35c6.3-.13,12.81,7.91,11.68,14.2-.33,1.86-1.24,2.81-3.08,2.9-1.72.09-3.54.52-4.38-1.75-1.66-4.49-4.24-8.38-7.87-11.56-.61-.53-1.55-1.19-1.01-2.12,1.06-1.82,3.16-1.09,4.66-1.67Z"/>
      <path class="cls-5" d="M230.29,457.48c-.52,2.34,1.32,6.49-1.93,7.09-2.49.46-2.71-3.86-3.69-6.17-.85-2.02-2.42-3.42-3.75-5.04-2.98-3.64-2.99-8.23-.22-11.59,1.4-1.7,3.03-2.48,5.05-1.33,1.62.93,1.63,2.63,1.33,4.22-.56,2.96-2.03,1.98-3.7.88-.91-.6-1.59.24-2.08,1.01-.44.7-.3,1.47.26,1.9.95.73,2.23,1.97,3.07,1.77,7.08-1.7,5.32,3.43,5.65,7.25Z"/>
      <path class="cls-5" d="M240.95,449c-2.38-2.26-1.96-4.6-.53-6.76.88-1.32,2.39-2.25,4.09-1.34,2.24,1.19,2.78,3.28,2.8,5.7.04,6.83-2.16,12.57-8.34,17.55-.18-3.83-.29-6.99-.49-10.15-.08-1.29.77-1.35,1.64-1.46,1.42-.18,2.73-.66,3.75-1.67,1.22-1.2,1.62-2.72.98-4.31-.22-.54-.95-1.21-1.47-1.23-2.58-.09-.7,2.64-2.43,3.66Z"/>
      <path class="cls-2" d="M252.39,41.79c1.38-4.65,3.98-8.41,6.76-12.24,2.28,2.42,3.34,5.2,4.49,7.9,2.01,4.7.88,6.14-4.39,5.54-2.22-.25-4.4-.76-6.86-1.2Z"/>
      <path class="cls-3" d="M207.95,411.13c.23-4.1,1.31-7.32,5.47-8.17,2.12-.43,2.16,1.38,1.97,2.75-.53,3.76-1.8,7.45-5.8,8.46-2.48.62-.95-2.27-1.63-3.04Z"/>
      <path class="cls-3" d="M261.32,406.16c2.86,1.88,3.99,4.87,4.63,8.05.21,1.02-.41,1.96-1.82,1.89-2.2-.11-7.3-5.1-7.01-7.07.33-2.24,2.42-2.11,4.2-2.86Z"/>
      <path class="cls-5" d="M183.44,422.96c-1.8,2.14-4.47,2.99-7.11,3.51-1.79.35-3.26-1.55-2.84-2.89.84-2.67,3.78-2.21,5.97-2.59,1.46-.26,3.2-.36,3.97,1.98Z"/>
      <path class="cls-5" d="M168.24,423.49c2.25.61,3.81,2.1,3.89,4.32.07,1.87-1.99,2.45-3.43,2.53-2.8.16-3.2-2.54-3.67-4.34-.62-2.39,1.99-1.73,3.2-2.51Z"/>
      <path class="cls-5" d="M311.11,431.5c-1.77-.26-2.73-1.19-2.45-2.49.39-1.88,1.31-3.71,3.67-3.66,1.33.03,2.5.95,2.01,2.33-.59,1.66-1.08,3.77-3.22,3.82Z"/>
      <path class="cls-3" d="M289.63,46.22c-.47.46-.95.92-1.42,1.38-2.31-1.82-4.6-3.67-4.96-7.32,2.13,1.98,4.26,3.96,6.38,5.94Z"/>
      <path class="cls-5" d="M293.72,423.39c2.67-2.53,4.6-.27,7.3.13-2.91,2.63-4.92,1.61-7.3-.13Z"/>
      <path class="cls-5" d="M305.62,424.3c.91.07,1.61.34,1.44,1.18-.27,1.35-.8,2.68-2.43,2.82-.63.05-1.33-.35-1.39-1.2-.13-1.82,1.63-1.92,2.39-2.8Z"/>
      <path class="cls-5" d="M147.66,437.72c.6,3.3-.94,4.32-3.48,4.95-.29-2.6,1-3.87,3.48-4.95Z"/>
      <path class="cls-2" d="M177.5,271.05c-.39.44-.78.88-1.17,1.33-2.14-.93-4.29-1.86-6.98-3.02,3.47-1.49,5.78.28,8.15,1.69Z"/>
      <path class="cls-5" d="M190.98,421.22c-1.75.97-3.13,1.42-4.9-.62,1.97-.93,3.35-1.28,4.9.62Z"/>
      <path class="cls-1" d="M272.02,156.88c10.27-.04,18.41,4.89,20.86,13.83,3.29,11.97-7.96,33.07-19.68,36.92-5.59,1.84-15.59-1.25-19.14-5.92-8.95-11.76-7.22-30.79,3.38-40.9,3.74-3.57,8.05-3.81,14.59-3.93Z"/>
      <path class="cls-1" d="M183.79,181.84c-.37-4.48.37-8.99,2.37-13.16,2.82-5.89,5.79-11.63,13.44-12.61,9.87-1.27,18.26.89,23.34,10.08,3.02,5.46,2.61,11.56,1.08,17.42-2.41,9.27-7.01,16.49-17.11,19.38-11.68,3.34-18.59,0-22.05-11.61-.91-3.06-1.22-6.17-1.07-9.51Z"/>
      <path class="cls-1" d="M234.98,202.5c12.69-.04,22.17,6.16,25.24,16.54,2.13,7.22.08,13.59-4.59,19.04-7.06,8.23-15.16,14.94-27.08,12.52-12.42-2.52-21.51-14.73-20.18-26.45,1.47-12.9,12.17-21.61,26.61-21.66Z"/>
      <path class="cls-4" d="M238.11,210.73c11.33,0,16.76,8.22,12.49,18.17-2.28,5.33-6,9.44-10.93,12.42-9.08,5.49-21.13-.39-21.95-11-.62-8.02-.92-12.26,8.99-15.9,2.78-1.02,5.47-2.32,8.26-3.31,1.12-.4,2.42-.3,3.14-.38Z"/>
    </g>
  </g>
</svg>