<?xml version="1.0" encoding="UTF-8"?>
<svg id="Layer_1" data-name="Layer 1" xmlns="http://www.w3.org/2000/svg" viewBox="0 0 512 512">
  <defs>
    <style>
      .cls-1 {
        fill: none;
      }

      .cls-2 {
        fill: #feca00;
      }

      .cls-3 {
        fill: #b6babd;
      }

      .cls-4 {
        fill: #050505;
      }

      .cls-5 {
        fill: #f0db9f;
      }

      .cls-6 {
        fill: #030303;
      }

      .cls-7 {
        fill: #4087ca;
      }

      .cls-8 {
        fill: #748083;
      }

      .cls-9 {
        fill: #0d0d0d;
      }

      .cls-10 {
        fill: #eb1335;
      }

      .cls-11 {
        fill: #00ab50;
      }

      .cls-12 {
        fill: #fefefe;
      }
    </style>
  </defs>
  <g id="wnA3rj">
    <g>
      <path class="cls-6" d="M494.91,170.55c-1.6-2.2-3.51-3.64-6.41-2.72-15.97,5.12-33.36,6.26-47.27,17.17-2.53,1.97-5.64,3.2-9.72,5.46,1.57-4.84,1.12-8.24-.02-11.46-1.31-3.71-.86-5.17,3.53-6.43,15.21-4.34,21.33-13.02,19.58-27.61-1.36-11.35-7.83-19.21-18.49-23.57-1.43-.59-5.35-.12-2.79-3.48,2.83-3.72,4.42-9.59,11.78-6.63,3.12,1.26,6.04,1.82,8.65,4.47,7.85,7.93,22.46,5.97,25.63-3.7-2.09,1.21-3.69,2.32-5.44,3.11-5.61,2.56-11.08,2.43-16.23-1.24-2.31-1.66-2.91-3.45-.21-5.34.56-1.06-.05-1.78-.73-2.47-.06-.04-.12-.09-.18-.14-.31.3-.63.59-.96.88-6.45-2.51-3.05-7.12-1.61-10.42,1.73-3.94,4.91-3.12,7.55-.24-.01.2-.02.4-.04.6.26,0,.52-.02.77-.07.79-.52,1.25-1.11,1.27-1.78.01-.46-.17-.96-.59-1.51.1-1.74-4.56-1.96-1.55-4.58,12.01-10.48,10.89-23.74,7.82-37.33-1.73-7.69-2.26-7.81-8.47-3.33-5.19,3.74-10.43,7.39-15.57,11.21-4.88,3.62-5.6-1.68-7.65-3.65-1.31-1.26-4.12-2.73-.86-5.38,5.12-4.18,9.77-8.93,14.84-13.18,5.32-4.47,5.34-5.77-.13-10.32-5.75-4.79-12.78-5.91-19.73-7.14-13.11-2.34-24.71,6.27-26.37,19.56-.45,3.59-.27,7.31.08,10.92.35,3.44-.81,4.37-3.75,2.86-7.71-3.95-15.63-4.81-23.87-2.01-2.78.93-3.42.17-3.42-2.82.03-14.68-13-24.22-27.56-20.26-4.4,1.18-8.67,2.84-12.59,5.31-.98.61-1.83,2.25-3.42.69-2.91-2.88-5.29-15.08-3.52-18.49.42-1.49-.19-2-1.63-1.71-2.57,4.01-5.48,5.5-10.32,2.99-3.41-1.78-7.52-1.3-11.46-.66-8.97,1.45-15.84,6.42-21.88,12.91-10.9-17.9-37.45-24.03-47.6.85-2.02-1.55-3.92-3.21-6-4.57-9.62-6.35-24.09-6.05-29.84,3.02-5.67,8.96-10.62,7.66-18.81,5.03-15.01-4.82-31.95,7.74-30.46,22.2.67,6.55-1.23,7.2-6.62,6.25-8.99-1.58-18.1-1.91-25.17,5.01-3.96,3.88-7.01,6.2-12.4,2.43-2.55-1.78-6.35-1.48-9.34-.24-3.31,1.37-5.88.6-9.03-.66-5.27-2.11-10.78-2.31-15.61,1.2,3.49.86,6.94.49,10.26.95,4,.56,7.38,1.66,2.77,6.58-3.42,3.65-2.89,8.09.48,11.76,2.29,2.47,5.43,2.7,8.14.83,3.88-2.7,4.52-6.46,2.88-10.91-.64-1.73-3.03-3.66-1.08-5.55,2.54-2.42,5.98-2.39,9.04-1.13,2.82,1.16,6.5,2.22,5.72,6.5-.82,4.5.13,8.65,1.82,12.7,1.34,3.22.87,4.51-3.01,4.2-7.38-.57-14.34,1.32-19.56,6.57-3.39,3.41-5.63,2.35-8.65.16-12.31-8.95-27.31-11.23-41.13-16.45-3.02-1.13-5.88-.5-7.89,2.38-1.94,2.78-.76,5.21.86,7.56,1.15,1.69,2.32,3.42,3.7,4.93,10.19,11.12,20.32,22.32,33.66,29.93,3.03,1.73,5.8,3.93,9.06,6.16-5.7,3.76-10.21,7.55-13.35,12.78-6.46,10.79-3.86,17.84,8.44,20.79,5.53,1.32,7.46,2.53,5.07,8.7-2.88,7.44-1.46,15.17,4.48,20.95,5.84,5.69,13.06,5.86,20.49,3.11,1.2-.44,2.34-1.55,3.85-.36-1.13,2.21-2.59,4.35-3.37,6.7-1.73,5.24-4.9,7.3-10.38,5.9-1.8-.46-4.43-1.68-5.38,1.06-1.14,3.34,2.26,3.37,4.07,4.28,2.5,1.26,5.74,1.12,3.72,5.89-6.4,15.12-9.05,31.17-9.66,47.46-.22,6.04-2.12,6.98-7.59,6.2-4.42-.63-4.69-3.58-5.62-6.55-3.13-9.96-9.24-17.39-19.17-20.93-9.33-3.31-17.22,3.94-15.11,13.58.62,2.79,1.72,5.47,2.72,8.54-10.19-.47-20.36-.39-24.64,10.61-3.4,8.73,5.03,11.31,10.35,14.99-1.83,2.01-3.58,3.51-4.81,5.35-3.18,4.74-5.28,9.99-2.38,15.43,2.77,5.21,7.82,8.37,13.6,7.59,5.62-.75,6.06,1.05,6.27,5.93.64,14.32,15.11,22.92,26.11,15.53,8.37-5.63,14.59-13.17,15.3-23.97.08-1.4-.79-3.16,1.6-3.85,6.2-1.78,14.2,2.96,15,9.22,2.78,21.37,13.24,38.88,28.19,53.62,28.33,27.92,62.16,44.57,102.27,47.2,4.12.26,6.08,1.78,6.78,5.93,1.06,6.29,2.63,12.52,4.12,18.74,1.79,7.44,1.84,7.12-6.13,7.41-15.17.58-30.23,1.98-42.89,11.75-10.61,8.19-9.79,20.63,1.61,27.53,9.71,5.87,20.37,8.06,31.48,8.14,19.67.14,38.03-4.39,54.3-16.02,2.26-1.61,4.27-3.1,7.87-1.15,18.71,10.12,38.9,12.75,59.81,9.89,8.33-1.14,15.82-4.48,21.59-10.92,7.32-8.16,6.44-19.7-2.21-26.55-9.13-7.22-19.79-10-31.27-10.61-5.37-.28-12.56,3.22-15.56-.75-2.95-3.92-1.61-10.98-2.44-16.61-.68-4.56,1.01-6.54,5.56-7.34,14.07-2.46,27.18-7.38,39.52-14.85,29.04-17.58,50.07-41.8,61.77-73.67,12.19-33.25,17.82-67.09,6.53-101.93-2.39-7.37-.85-12.49,6.1-16.16,20.69-10.96,40.24-23.29,54.9-42.06,1.69-2.16,3.52-4.19,5.17-6.37,1.53-2.03,1.6-4.19.05-6.33ZM442.69,94.46c8.17-1.42,7.96,3.33,6.72,8.89-.39,1.72,1.11,4.64-2.01,4.72-2.65.06-5.54-.74-6.38-3.96-.86-3.24-1.47-6.55-2.39-10.74,1.63.46,2.94,1.29,4.07,1.09ZM89.69,87.41c-2.96-.03-4.27-2.43-4.46-5.05-.23-3.23,1.81-6.63,4.45-6.51,3,.14,2.52,4.64,3.98,6.4-.06,3.28-1.36,5.19-3.97,5.17Z"/>
      <path class="cls-9" d="M356.7,4.03c3.17.04,5.76,1.89,9,3.37-2.71-7.96-8.47-9.31-17.25-4.95-2.36,1.17-4.14,3.31-7.31,3.2-6.59-.24-11.67,2.94-15.53,8.16.53.57,1.08,1.13,1.63,1.71,3.7-2.69,6.95-6.38,12.83-5.97-1,3.25-2.03,6.02-1.81,8.96.18,2.4.76,4.81,3.55,5.06,3.41.31,7.28.33,9.49-2.6,2.11-2.79,2.24-6.34.56-9.74-2.59-5.17-1.08-7.3,4.84-7.2ZM344.93,20.38c-2.4.02-3.83-1.75-3.3-4.05.51-2.25.8-5.81,3.47-5.82,2.96-.02,3.91,3.17,4.19,5.48.15,3.59-2.07,4.36-4.36,4.38Z"/>
      <path d="M461.52,96.82c-.27,3.82-2.28,6.68-4.93,9.18-.31.3-.63.59-.96.88.62.58,1.25,1.15,1.88,1.73,6.06-4.33,7.86-8.28,6.05-13.65-.17-.49-.37-1-.59-1.51-.18,1.07-.21,2.21-1.4,2.77l-.04.6Z"/>
      <path class="cls-2" d="M51.11,344.94c-5.6-5.54-6.31-12.68-1.51-19.64,2.05-2.98,4.84-5.45,7.29-8.15,1.58-1.74,3.38-3.57.69-5.71-2.03-1.61-3.81-1.56-5.78.74-4.24,4.96-9.66,8.35-15.96,10.18-3.14.91-6.49,1.5-8.87-1.48-2.54-3.18-1.33-6.59.45-9.61,3.72-6.31,10.06-8.1,16.73-9.43,2.9-.58,8.01-.01,7.65-3.86-.43-4.68-5.46-2.74-8.52-2.53-4.61.31-9.15.29-13.62-.76-2.88-.68-6.07-1.45-6.41-5.19-.33-3.63,2.57-5.11,5.15-6.56,7.78-4.37,15.48-1.88,23.25.26,2.58.71,5.85,4.43,7.8.92,1.76-3.17-2.87-4.45-4.77-6.43-2.37-2.46-5.35-4.39-7.48-7.01-2.62-3.23-3.48-7.2-.44-10.65,3.25-3.69,6.82-2.43,10.37.05,5.58,3.89,8.86,9.49,10.21,15.77,1.51,7.07,5.44,10.09,12.25,10.37,2.04.08,4.08.53,6.12.61,8.61.36,8.09.35,7.88-8.12-.47-18.51,3.51-36.27,10.3-53.44.93-2.35,2.59-2.86,4.86-2.74,7.51.41,15.02.73,22.53,1.09-4.24,1.8-8.56.54-12.85.84,10.26.07,20.53.06,30.8.07,2.27,0,4.54.06,6.81.06,5.09,0,8.43,2.08,9.3,7.35,1,1.26,1.09,2.72.93,4.24-.54,4.88,2.05,8.63,4.48,12.45,13.11,17.97,31.25,22.63,52.24,19.76,2.01-.27,4.02-.57,6.02-.85,5.11-.27,9.23-3.15,13.68-5.17,3.65-1.66,4.56-.23,3.66,3.25-3.26,8.28-2.07,16.05,2.74,23.38,2.41,3.02,5.07,5.57,9.37,5.21,7.01,1.34,14,2.25,20.85-.79,12.01-5.33,17.17-14.43,14.41-28.46,10.96,6.43,21.83,9.49,33.41,9.6,23.87.23,41.25-11.79,48.82-34.36,1.77-5.28,3.96-7.34,9.57-6.78,10.6,1.05,21.35-.88,31.93,1.31-6.41,1.47-12.81.56-19.24.65,3.79.23,7.68.54,11.43.04,6.24-.84,9.93,1.22,10.81,7.63.55.83,1.1,1.65,1.66,2.48,1.27,5.88,2.22,11.83,4.09,17.57,2.15,9.88,1.94,19.74-.1,29.6-2.02,5.21-2.1,10.66-2.01,16.13-7.37,37.4-23.17,69.77-54.45,93.35-16.54,12.47-34.19,21.92-54.94,24.71-5.13.69-7.01,3.4-6.51,8.43.7,7.04,1.3,14.09,1.61,21.16.28,6.45,2.96,8.88,9.59,7.69,8.33-1.51,16.82-2.27,25.17-.05,6.34,1.68,12.83,3.32,16.78,9.38,4.18,7.97,3.3,11.27-5.29,19.85-16.18,8.02-32.78,6.87-49.54,2.29-5.36-1.93-10.7-3.95-16.39-4.74-8.84-4-8.5-12.69-10.35-20.27-.87-9.13-1.8-18.25-1.39-27.44-.29,4.32.97,8.65-.85,12.91-1.57-4.67-.3-9.5-.82-14.23-.3-2.77-.63-5.46-3.12-7.27-1.32-.96-2.71-1.97-4.33-.92-1.59,1.02-.21,2.39-.19,3.63.27,16.04,2.08,31.84,7.27,47.12.77,2.28.09,3.92-1.89,5.24-22.27,14.88-46.36,19.68-72.38,12.6-5.39-1.47-11.67-3.42-12.17-10.37-.49-6.98,5.04-10.27,10.41-13.04,2.8-1.45,5.89-2.35,8.85-3.5,11.92-2.37,23.96-3.35,36.11-3.24,1.36.01,2.69-.34,3.56-1.57.19-8.82-4.62-16.55-5.52-25.15-.24-2.26-.91-4.46-1.37-6.7-2.25-10.93-3.68-12.11-14.86-13-2.9-.23-5.96.25-8.66-1.34-3.95-.99-7.82-2.56-12.03-1.91-18.33-4.41-35.2-12.12-50.86-22.56-1.79-1.83-3.49-3.79-6.15-4.4-11.12-7.7-20.95-16.68-28.17-28.26-2.28-4.26-4.71-8.4-8.17-11.85-3.23-4.54-4.96-9.71-6.3-15.04-1-5.95-2.06-11.89-3.9-17.66-2.04-2.39-4.44-4.23-7.62-4.82-5.23-2.33-10.7-3.09-16.38-2.59-4.81-.44-8.18-.26-5.82,6.47,1.79,5.09.49,10.37-3.17,14.73-2.05,1.06-3.19,3.07-4.74,4.64-3.97,4.04-8.52,5.51-13.99,3.83Z"/>
      <path class="cls-11" d="M400.01,119.22c-2.65-3.48-2.66-5.85,1.23-9.19,6.73-5.78,12.63-12.56,18.6-19.17,2.62-2.9,4.78-2.66,7.6-.6,6.62,4.82,7.73,14.14,2.32,20.6-2.69,3.2-6.24,5.33-9.66,7.6-1.65,1.09-2.87,2.39-2.28,4.49.57,2.04,2.26,2.78,4.19,2.96,1.36.13,2.77.27,4.11.05,13.2-2.15,25.02,11.89,21.17,27.91-1.98,8.23-11.19,14.09-21.27,13.66-2.04-.09-4.08-.47-6.1-.79-2.03-.33-4.63-1.16-5.55,1.07-1.18,2.87,2.14,2.87,3.66,3.79,9.59,5.83,10.12,17.52,1.02,24.49-9.81,7.52-22.91,5.94-30.74-3.64-1.54-1.88-2.82-4.49-5.87-3.99-1.93.32-1.93,2.34-2.38,3.82-3.44,11.08-7.38,14.36-16.93,14.01-9.87-.36-17.97-6.61-20.16-15.65-.37-1.54-.5-3.16-.61-4.75-.15-2.14-.5-4.33-2.76-5.07-2.64-.86-3.58,1.62-4.55,3.25-3.6,6.09-7.82,11.2-15.38,12.46-7.54,1.25-11.3-1.04-12.93-8.39-.63-2.82-.27-6.52-4.25-6.82-3.61-.27-3.75,3.43-4.97,5.71-3.28,6.14-12.63,11.43-19.55,10.21-8.36-1.47-14.88-5.75-17.64-14.34-.49-1.51-.58-3.15-1.05-4.67-.57-1.86-1.84-3.24-3.78-3.61-2.53-.48-2.83,1.77-3.6,3.33-3.94,7.94-9.46,14.39-18.67,15.46-8.52.99-15.66-1.85-19.81-10.29-2.88-5.87-4.66-5.82-8.39-.49-8.21,11.73-19.29,14.22-29.23,6.62-2.87-2.19-4.9-4.82-4.83-8.59.05-2.63.05-5.45-3.23-5.84-3.14-.37-4.24,2.44-4.97,4.79-3.39,10.96-11.18,17.11-21.94,19.39-10.01,2.12-14.8-2.09-14.87-12.29-.02-2.5.96-5.4-2.17-6.44-3.24-1.08-4.15,2.02-5.5,4.01-5.45,8.06-13.45,12.2-22.56,14.42-5.51,1.34-10.11-2.01-11.28-8.17-1.36-7.19.41-13.61,5.69-18.86,1.46-1.45,3.14-2.66,4.61-4.1,1.12-1.1,2.49-2.37,1.55-4.14-.95-1.79-2.76-1.33-4.28-.93-3.75.99-7.41,2.4-11.2,3.13-4.43.86-9.09.44-11.76-3.59-2.54-3.84.53-7.42,2.39-10.67,1.22-2.12,3.21-3.84,4.99-5.6,4.41-4.36,8.97-5.93,14.24-1.07,2.16,1.99,4.88,3.37,7.38,4.98,4.23,2.71,8.93,4.89,12.61,8.2,3.61,3.25.9,9.47,6.4,14.83-2.25-19.83,2.47-35.35,19.28-45.03-.37-2.32-.85-2.48-4.03-1.29-5.6,4.99-10.86,4.83-16.83.04-6.75-5.42-14.05-10.2-21.33-14.91-4.38-2.83-2.11-4.71.48-6.54,8.12-5.74,17.3-4.84,26.44-3.87,1.53.16,3.3,1.21,4.11-.9.58-1.52-.69-2.61-1.81-3.34-6.47-4.25-9.69-10.08-6.91-17.56,3.08-8.31,10.1-12.04,18.57-13.18,5.81-.78,11.3,1.12,16.88,2.26,6.93,1.41,7.58.6,5.28-5.9-2.88-8.15-1.09-14.69,5.35-19.46,8.59-6.37,18.02-6.99,25.33-1.51,2.74,2.05,5.26,4.4,7.93,6.54,1.07.86,2.32,1.71,3.75.98,1.65-.84.84-2.26.65-3.59-1.15-8.11,1.59-13.67,8.25-16.92,5.88-2.88,14.1-1.47,19.02,3.39,2.43,2.4,4.54,5.15,7.07,7.44,2.75,2.48,4.94,1.89,5.93-1.87.64-2.43,1.09-4.92,1.95-7.27,2.88-7.87,8.07-11.37,16.15-11.1,7.36.25,14.05,5.55,16.04,12.76.48,1.75.6,3.66,1.38,5.25,1.03,2.08,2.79,3.8,5.24,4.01,2.8.23,2.79-2.43,3.75-4.15,4.86-8.72,11.99-14.22,22.13-15.36,8.57-.96,14.39,3.56,16.26,11.99.95,4.29-1.16,10.44,3.51,12.5,5.14,2.27,6.19-4.76,9.66-6.96,3.93-2.5,8-4.36,12.47-5.47,5.99-1.49,11.36-.68,15.55,4.29,4.13,4.91,2.84,10.09,1.04,15.5-.77,2.32-4.82,4.43-.77,7.59,3.69,2.88,6.15.92,9.03-1.24,8.16-6.1,16.8-6.5,25.73-1.71,4.21,2.26,6.07,4.4,1.16,8.41-7.09,5.78-13.53,12.4-18.92,19.79-3.92,5.37-7.74,5.49-12.52,1.75-.96-1.18-2.34-1.13-3.33-.51-.57.36.5,1.33.72,2.07,14.19,7.41,22.73,20.24,31.49,32.85,3.43.49,2.16-1.64,1.82-3.26Z"/>
      <path class="cls-12" d="M210.41,263.85c-27.82-.15-45.92-26.89-35.69-52.88,2.81-7.14,6.64-12.62,15.95-12.21,5.95.27,11.54-2.71,15.67-7.42,1.89-2.15,3.16-2.24,5.52-.26,10.14,8.48,21.29,11.32,33.48,4.45,2.88-1.62,4.35.25,5.92,1.66,8.36,7.52,9.72,17.4,8.17,27.68-3.55,23.48-23.48,39.11-49.02,38.97Z"/>
      <path class="cls-12" d="M337.15,193.72c4.82,12.11,14.62,16.48,25.43,18.33,5.56.95,7.25,3.84,8.27,8.28,3.05,13.25-4.78,32.18-17.26,39.95-15.01,9.34-31,11.63-47.7,4.47-26.65-11.41-25.02-49.19-6.21-63.67,2.3-1.77,4.69-2.97,7.54-1.46,11.09,5.85,20.67,3,29.93-5.9Z"/>
      <path class="cls-3" d="M413.32,82.38c.46-2.83,2.28-6.1-.86-8.19-3.37-2.25-6,.64-8.51,2.43-3.62,2.58-7.07,5.41-10.68,8.2-1.37-2.57.75-3.2,1.69-4.13,5.33-5.32,10.71-10.6,16.23-15.72,3.48-3.23,4.55-6.07,1.42-10.53-4.74-6.75-4.8-14.28-.16-21.19,4.55-6.78,11.55-8.66,19.28-7.47,5.8.89,13.84.84,15.82,6,1.44,3.74-6.43,7-10.22,10.35-10.55,9.32-10.31,8.92-1.65,20.24,4.5,5.88,7.94,6.6,13.5,1.69,4.39-3.87,9.62-6.77,14.8-10.33,2.63,7.34,3.88,14.18.95,21.14-5.85,13.88-20.58,17.83-31.8,7.42-6.21-5.77-9.78-5.17-14.19.9-.64.88-1.71,1.44-2.59,2.16-1.67-.32-2.65-1.35-3.05-2.97Z"/>
      <path class="cls-2" d="M137.28,216.68c-7.97,0-15.95-.18-23.91.07-4.84.15-4.85-1.79-2.91-5.15,1.25-2.17,2.38-4.42,3.75-6.5,5.45-8.24,5.49-8.25,13.93-2.98,7.66,4.77,15.28,3.17,22.82-.16,4-1.77,7.67-4.37,10.3-7.76,4.45-5.74,7.63-5.63,12.28.11,1.91,2.36,1.81,2.93.26,4.62-2.98,3.23-5.8,6.91-6.36,11.14-.89,6.73-4.76,7.61-10.34,7.35-6.59-.3-13.21-.07-19.82-.07,0-.22,0-.45,0-.67Z"/>
      <path class="cls-7" d="M266.23,289.76c-10.02-.3-15.21-5.78-14.74-15.58.4-8.33,12.33-16.84,22.99-16.42,7.33.29,13.01,6.9,12.84,14.94-.2,9.53-9.92,17.39-21.09,17.06Z"/>
      <path class="cls-2" d="M102.13,145.23c-5.94-3.97-11.88-7.94-17.81-11.9-3.36-3.53-7.5-5.95-11.75-8.2-1.17-.66-2.31-1.37-3.5-1.98-5.29-2.72-7.19-5.56-.87-9.53,1.58-.99,2.83-3.05,3.49-4.89,1.57-4.35,3.54-3.04,5.8-.79,10.76,8.09,22.04,15.4,33.51,22.43,10.19,5.81,9.68,4.05,5.07,12.6-.81.47-1.45,1.22-1.62,2.04-1.12,5.36-4.04,4.69-7.71,2.59-1.48-.85-2.54-2.64-4.61-2.36Z"/>
      <path class="cls-10" d="M419.95,222.71c-3.21-3.09-4.47-7.31-6.48-11.1-.4-3.26,2.42-4.03,4.27-5.56,6.86-4.1,13.72-8.19,20.58-12.29.33-.31.66-.67,1.07-.84,3.33-1.36,5.81-5.44,9.53-4.7,3.8.75,3.2,5.59,4.99,8.4,5.47,8.6,5.06,9.35-4.95,13.34-5.25,2.85-10.5,5.71-15.76,8.56-2.53,1.13-5.18,2.07-7.18,4.12l.05-.04c-2.03,1.01-4.07,1.33-6.13.11Z"/>
      <path class="cls-2" d="M401.95,208.53c5,5.3,8.23,11.69,12.5,19.08-11.58,0-21.97-.01-32.35.01-1.95,0-2.81-.87-3.05-2.81-.51-4.08-1.37-8.1-3.4-11.75-1.32-2.37.32-3.34,1.98-4.18,2.73-1.38,4.55-3.73,6.58-5.86,4.39-2.05,7.16,1.89,10.72,2.91,2.4.69,4.64,1.82,7.02,2.59Z"/>
      <path class="cls-2" d="M258.33,247.83c3.84-6.71,6.62-13.8,8.12-21.41,1.03-5.23,5.73-4.47,9.18-4.96,3.65-.53,3.56,2.5,3.22,5.13-.68,7.01-1.48,14.02,2.03,20.62.63,2.83.42,5.31-3.37,4.57-7.34-1.43-13.83.94-20.24,3.95l.15-.08c-2.09.57-3.88.53-2.61-2.33.87-1.96,3.19-3.1,3.51-5.5Z"/>
      <path class="cls-5" d="M456.59,182.85c3.28-.88,6.58-1.74,9.85-2.66,3.07-.86,5.56-1.83,7.84,2.21,2.15,3.82,1.61,6.09-1.3,8.68-1.35,1.2-2.3,2.86-3.69,4-2.45,2-3.62,6.7-7.87,5.07-3.86-1.48-4.65-5.54-5.36-9.28-.73-2.73-1.61-5.47.51-8.02Z"/>
      <path class="cls-2" d="M288.15,201.96c-2.45,4.4-4.22,7.8-6.2,11.07-2.94,4.86-8.09,3.12-12.28,3.53-3.8.37-2.55-3.58-3.06-5.69-1.26-5.22-3.75-9.91-5.88-15.21,8.14,5.45,16.72,8.1,27.41,6.3Z"/>
      <path class="cls-5" d="M58.03,114.04c-1.41-.14-11.32-11.4-10.72-12.57,1.11-2.17,1.76-6.6,5.06-4.88,4.73,2.47,12.8-.23,13.96,7.81.56,3.85-5.33,9.93-8.29,9.64Z"/>
      <path class="cls-8" d="M409.5,76.75c.14,5.26-3.24,7.06-5.3,9.49-4.11,4.86-8.6,9.4-12.95,14.05-.89.95-1.83,2.52-3.31,1.53-1.24-.83-.87-2.48-.49-3.81.85-2.93,2.71-5.25,4.87-7.3,5.08-4.85,10.27-9.58,17.17-13.96Z"/>
      <path class="cls-3" d="M413.32,82.38c1.46.53,2.48,1.52,3.05,2.97-6.63,6.91-13.25,13.82-19.91,20.7-.87.9-1.82,2.66-3.27,1.54-1.86-1.43-.24-2.85.73-4.03,6.08-7.42,12.41-14.61,19.4-21.19Z"/>
      <path class="cls-2" d="M258.33,247.83c.46,2.31-.98,3.75-2.31,5.31-1.65,1.92.28,2.04,1.41,2.52-3.69,3.32-7.39,6.63-11.09,9.95-.3-3.73-2.24-2.99-4.62-1.84-4.02,1.93-7.78,4.87-12.72,3.77,11.36-4.2,21.58-10.11,29.33-19.7Z"/>
      <path class="cls-2" d="M165.31,231.94c-.04.22-.02.5-.14.66-.23.3-.54.54-.82.81-.82-9.27-8.08-7.92-13.96-8.08-11.05-.3-22.12-.09-33.19-1.72,4.68,0,9.37,0,14.05,0,8.8.07,17.63.54,26.4.07,6.55-.35,8.55,2.3,7.66,8.25Z"/>
      <path class="cls-1" d="M461.57,96.22c-.01.2-.02.4-.04.6"/>
      <path class="cls-2" d="M248.81,470.53c-.81,2.81-3.04,3.01-5.43,3.03-10.65.08-21.39-.86-31.77,2.64-.65.22-1.64-.54-2.47-.85,9.43-4.2,19.55-3.53,29.48-4.17,3.4-.22,6.79-.43,10.19-.65Z"/>
      <path d="M448.96,209.96c.87-.69,1.65-1.6,2.64-2.02,5.25-2.26,7.22-5.18,2.12-9.64-2.85-2.49-1.21-8.66-5.7-8.85-3.16-.14-6.46,2.76-9.69,4.31.82-2.78,3.66-3.28,5.57-4.8,4.32-3.44,7.45-2.31,9.25,2.92.58,1.69,1.45,3.31,2.4,4.83,5.2,8.31,3.49,11.79-6.57,13.25Z"/>
      <path class="cls-2" d="M111,130.37c-8.21-2.27-14.16-8.32-21.07-12.74-4.4-2.82-9.69-4.68-12.44-9.69,11.67,6.73,22.91,14.1,33.51,22.43Z"/>
      <path class="cls-2" d="M257.27,255.74c5.42-4.88,12.16-5.75,18.85-5.05,3.81.4,4.52-.51,4.15-3.73-.4-.51-.34-.95.23-1.29,1.37,2.31,2.55,4.68,2.7,8.52-9.22-4.58-17.45-.21-25.93,1.54Z"/>
      <path class="cls-7" d="M487.28,174.95c-.01,3.07-2.46,4.3-4.14,5.98-1.3,1.3-3,2.64-4.44.24-1.12-1.87-.38-3.75,1.46-4.59,2.18-.99,4.47-2.08,7.12-1.62Z"/>
      <path class="cls-2" d="M277.51,456.08v-14.05c.43,9.59,3.36,18.99,2.24,28.58-1.38-4.75-2.49-9.54-2.24-14.53Z"/>
      <path class="cls-2" d="M420.43,243.03c-4.65-12.11-15.72-4.4-25.16-8.31,8.64,0,15.4,0,22.17,0,2.57,2.2,3.74,4.91,2.99,8.31Z"/>
      <path class="cls-2" d="M51.11,344.94c8.03,1.13,12.9-4.74,18.73-8.48-6.07,9.27-11.56,11.75-18.73,8.48Z"/>
      <path class="cls-2" d="M356.03,493.33c.59-3.38,3.98-4.7,5.49-7.49,2.3-4.27.95-8.26-.2-12.36,5.99,6.23,3.87,14.18-5.29,19.85Z"/>
      <path class="cls-2" d="M102.13,145.23c.59-.2,1.53-.73,1.72-.54,4.91,5.07,8.76,3.1,12.22-1.73-.43,1.29-.94,2.55-1.27,3.86-1.16,4.51-3.4,5.41-7.1,2.34-1.74-1.44-3.7-2.63-5.57-3.93Z"/>
      <path class="cls-2" d="M424.07,308.82c-2.49-5.96.19-11.72.68-17.56,0-.07.46-.18.48-.14.31.51.57,1.04.85,1.57.29,5.5-.89,10.81-2.01,16.13Z"/>
      <path class="cls-2" d="M426.17,263.08c-2.63,1.33-1.55-1.1-1.6-1.79-.35-5.34-3.63-10.21-2.5-15.77,2.6,5.57,4.06,11.4,4.09,17.57Z"/>
      <path class="cls-2" d="M401.95,208.53c-6.51.1-11.29-5.39-17.73-5.5.53-1.55,1.18-3.2,3.23-2.17,4.88,2.47,9.68,5.1,14.51,7.67Z"/>
      <path class="cls-2" d="M290.1,490.88c6.02-1.1,11.01,2.61,16.58,3.6.1.02.21.4.17.58-.04.2-.23.38-.36.56-5.72-.69-11.21-2.2-16.39-4.74Z"/>
      <path class="cls-2" d="M280.5,245.67c-.08.43-.16.86-.23,1.29-3.87-6.55-3.01-13.43-1.42-20.37.88,6.33-.03,12.82,1.65,19.08Z"/>
      <path class="cls-2" d="M78.82,315.27c5.85-1.63,11.41-1.41,16.38,2.59-5.46-.86-10.92-1.72-16.38-2.59Z"/>
      <path class="cls-2" d="M102.82,322.67c2.65,5.59,4.68,11.31,3.9,17.66-2.72-5.57-3.44-11.59-3.9-17.66Z"/>
      <path class="cls-7" d="M37.7,91.28c3.21.97,6.28.53,6.8,4.13.16,1.12-.85,2.46-2.02,2.29-2.87-.41-3.97-2.66-4.79-6.42Z"/>
      <path class="cls-2" d="M170.73,248.63c-3.87-3.29-6.41-7.06-4.48-12.45,1.49,4.15,2.99,8.3,4.48,12.45Z"/>
      <path class="cls-3" d="M381.76,95.6c1.91-3.99,4.69-7.17,9.45-8.57-2.68,3.25-5.35,6.5-8.03,9.76-.47-.4-.95-.79-1.42-1.19Z"/>
      <path class="cls-2" d="M113.02,355.37c3.81,2.25,6.69,6.42,8.17,11.85-3.39-3.48-6.39-7.24-8.17-11.85Z"/>
      <path class="cls-2" d="M72.56,125.12c4.91,1.31,9.41,3.21,11.75,8.2-4.31-2.16-8.21-4.93-11.75-8.2Z"/>
      <path d="M366.7,89.63c-1.99-.45-3.81-1.18-5.85-3.69,3.88-1.29,6.33-.44,8.46,2.13-1.17.03-2.08.48-2.61,1.56Z"/>
      <path class="cls-2" d="M206.37,422.43c4.3-2.57,8.24.73,12.38.79.04,0,.14.42.08.6-.07.2-.28.35-.43.52-4.17.36-8.13-.57-12.03-1.91Z"/>
      <path class="cls-2" d="M258.44,294.2c-5,1.65-7.6-1.03-9.37-5.21,3.12,1.74,6.24,3.47,9.37,5.21Z"/>
      <path class="cls-2" d="M258.16,193.65c-2.9-.98-4.7-1.78-5.14-4-.08-.39.76-1.39,1.08-1.35,2.55.33,3.42,2.15,4.06,5.35Z"/>
      <path class="cls-10" d="M419.95,222.71c2.04-.04,4.09-.07,6.13-.11-2.01,2.27-4.01,4.64-6.13.11Z"/>
      <path class="cls-10" d="M426.03,222.65c1.37-3.15,4.03-4.07,7.18-4.12-1.98,2.09-4.27,3.64-7.18,4.12Z"/>
      <path class="cls-10" d="M417.73,206.05c-1.42,1.85-2.85,3.71-4.27,5.56-2.74-5.05,1.53-4.72,4.27-5.56Z"/>
      <path class="cls-2" d="M149.36,395.47c3.21-.16,5.16,1.45,6.15,4.4-2.44-.92-4.48-2.4-6.15-4.4Z"/>
      <path d="M456.59,182.85c-.17,2.67-.34,5.35-.51,8.02-1.85-2.8-2.54-5.53.51-8.02Z"/>
      <path d="M400.01,119.22c1.49,1.58,2.31,3.69.7,5.18-1.22,1.12-2.08-.68-2.52-1.92,1.34-.68,1.61-1.95,1.82-3.26Z"/>
      <path d="M132.3,126.4c1.3-1.41,2.89-2.11,4.57-.97,1.17.8.81,1.78-.54,2.26-.98-1.57-2.58-1.17-4.03-1.29Z"/>
      <path class="cls-6" d="M331.06,347.34c-1.88-7.37-2.96-15.08-8.85-20.73-1.67-1.41-3.31-2.85-4.52-4.7-3.89-2.9-8.09-7.81-12.85-3.14-4.86,4.78.36,9.1,3,13.05,1.63,2.44,3.84,4.48,5.72,6.76,1.09,1.32,2.97,2.5,1.5,4.64-1.35,1.97-3.32,1.36-4.92.68-6.2-2.61-12.74-3.42-19.33-3.65-6.76-.24-9.47,3.33-7.68,9.49,2.69,1.85,5.91,2.19,8.93,3.09,6.49,1.77,13.55-.5,19.81,2.84,2.29,4.11-.6,4.67-3.53,5-3.85.44-7.74.58-11.57,1.1-3.66.5-7.07,1.82-9.94,4.25-3.21,2.72-5.04,6.08-3.58,10.27,1.44,4.14,5.16,4.83,8.96,4.84,6.27.02,11.32-3,16.18-6.58,6.08-4.47,7.41-4.2,10.91,2.37,3,5.63,5.91,11.33,8.5,17.16.88,1.99,3.26,4.92,0,6.59-3.73,1.9-5.16-1.4-6.5-4.11-2.03-4.09-4.18-8.12-5.98-12.31-1.53-3.55-3.1-3.96-6.64-1.99-10.22,5.71-20.63,6.64-30.7-.68-2.6-5.37-5.97-8.52-12.69-6.33-3.35,1.09-7.16-.29-10.7-1.08-9.38-1.18-18.56-3.29-27.63-5.92-5.8-.96-10.84-3.52-15.34-7.24-11.17-7.93-20.4-17.5-25.54-30.46-.92-2.32-1.67-4.74-2.22-7.17-.47-2.05-2.01-4.96,1.33-5.67,2.29-.49,4.22,1.28,5.11,3.71,1.41,3.85,2.52,7.86,4.4,11.47,6.04,11.64,14.48,20.97,26.83,26.22,3.86,1,7.79,1.84,10.96,4.53,8.3,2.46,16.8,3.88,25.44,4.29,10.04.47,20.16,1,26.59-9.59-2.78-2.24-7.6-2.85-9.26-7.23-1.85-3.05-2.26-6.12-.13-9.23,6.48-9.52,16.08-7.13,26.05-6.23-1.53-2.88-2.79-5.11-3.91-7.41-2.16-4.45-2.1-8.82.81-12.95,2.95-4.2,7.36-4.29,11.72-3.66,7.87,1.15,13.99,5.48,18.63,11.71,3.4,4.56,5.84,4.35,8.31-.59,2.03-4.08,4.26-8.06,6.17-12.19,2.27-4.91,2.88-9.63-2.35-13.37-1.15-.82-3.02-2.03-1.53-3.84,1.77-2.14,3.22-.11,4.64.82,3.24,2.11,6.44,4.28,9.65,6.43,2.22,1.29,4.47,1.07,6.73.12,5.38-1.81,7.91-7.67,13.63-9.19-2.73,5.32-6.74,9.33-12.19,11.94-2.51,1.64-5.69-.59-8.13,1.41-2.61,6-5.21,12-8.14,18.76,6.03-1.95,11.44-2.27,16.82.59,6.6,3.5,8.95,9.14,5.92,15.94-3.45,7.75-8.86,14.04-16.41,17.77-5.53,2.73-5.38,5.61-2.34,9.89,1.71,2.41,3.14,5.02,4.67,7.56.84,1.39,1.71,2.92.32,4.35-1.55,1.6-3.7,1.3-4.96,0-5.64-5.81-9-13.11-12.17-20.38-1.09-2.48,2.1-3.06,4-3.51,8.66-2.04,14.24-7.8,18.52-15.13,2.02-3.46,3.72-7.07.07-10.54-3.71-3.54-7.29-2.04-11.21.07-6.96,3.74-9.12,10.43-11.47,17.11-1.97,2.53-3.93,2.65-5.9,0Z"/>
      <path class="cls-2" d="M254.58,374.19c5.66-.53,11.33.27,17.03-.52,5.77-.8,4.05,5.39,6.36,7.93-3.71-5.97-9.41-5.98-15.54-5.62-2.56.15-5.98,1.86-7.86-1.79Z"/>
      <path class="cls-2" d="M311.89,355.67c-6.87-1.65-14.15-.07-20.9-2.65.44-.75,1-.85,1.69-.31,4.67.03,9.34-.05,13.99.15,2.06.09,4.82-.58,5.22,2.81Z"/>
      <path class="cls-2" d="M211.61,361.03c5.11,2.41,10.23,4.82,15.34,7.24-6.59.73-11.45-2.23-15.34-7.24Z"/>
      <path class="cls-2" d="M275.1,341.88c-.66,3.09-.38,6.16.13,9.23-3.98-3.66-4-5.7-.13-9.23Z"/>
      <path class="cls-2" d="M232.47,363.64c-3.87-.99-7.6-2.3-10.96-4.53,4.57-.71,8.31.58,10.96,4.53Z"/>
      <path class="cls-2" d="M292.68,352.71c-.56.1-1.12.21-1.69.31-2.98-.21-6.13-.04-7.84-3.28,3.44.13,6.52,1.45,9.53,2.97Z"/>
      <path class="cls-2" d="M331.06,347.34c1.96,1.18,3.93,1.37,5.9,0,.52,2.92-1.72,2.65-3.33,2.61-1.41-.04-3.49-.03-2.57-2.62Z"/>
      <path d="M353.33,304.89c2.33-2.65,5.39-1.16,8.14-1.41-2.49,1.78-5.31,1.63-8.14,1.41Z"/>
      <path d="M360.03,300.72c-2.28,1.91-4.53,2.09-6.73-.12,2.24.04,4.49.08,6.73.12Z"/>
      <path class="cls-2" d="M317.69,321.91c1.96,1.13,3.52,2.65,4.52,4.7-2.56-.56-4.06-2.13-4.52-4.7Z"/>
      <path class="cls-2" d="M313.64,465.38c1.22.11,3.47.1,3.51.36.2,1.69-1.29.75-2.05.9-.54.11-1.18-.24-1.77-.38.1-.29.21-.59.31-.88Z"/>
      <path class="cls-4" d="M233.88,213.85c-.06,6.9-3.64,11.21-8.58,11.25-4.87.05-9.9-5.1-9.97-10.21-.07-5.06,5.57-10.55,10.8-10.1,5.97.52,7.88,4.56,7.76,9.06Z"/>
      <path class="cls-4" d="M333.95,218.14c-.19,5.62-6.3,11.12-12.06,10.82-5.79-.3-9.83-4.2-9.72-9.37.14-6.38,4.66-10.75,10.95-10.57,6.02.17,10.98,4.35,10.82,9.12Z"/>
    </g>
  </g>
</svg>