<?xml version="1.0" encoding="UTF-8"?>
<svg id="Layer_1" data-name="Layer 1" xmlns="http://www.w3.org/2000/svg" viewBox="0 0 512 512">
  <defs>
    <style>
      .cls-1 {
        fill: #fff;
      }

      .cls-1, .cls-2, .cls-3, .cls-4, .cls-5 {
        fill-rule: evenodd;
      }

      .cls-2 {
        fill: #212121;
      }

      .cls-3 {
        fill: #ffcd00;
      }

      .cls-4 {
        fill: #009ade;
      }

      .cls-5 {
        fill: #ce0e2d;
      }
    </style>
  </defs>
  <path class="cls-2" d="M337.65,27.26c5.75-6.31,14.66-14.43,24.92-15.45,9.02-.9,17.7,6.43,19.84,13.19,3.83,11.73-3.04,25.26-7.44,34.05,3.16,3.27,8.12,3.95,12.18,6.09,11.27,5.86,22.1,16.69,32.36,24.92,3.72,2.93,7.33,5.41,10.49,8.46,6.54,6.31,12.4,13.08,18.15,19.84,23.45,27.96,39.57,61.56,49.16,103.05,4.4,18.83,7.1,39.35,5.75,62.01-.56,8.57.11,14.88-4.4,19.51-15.11,6.88-31.68,8.57-50.17,7.44-3.27,5.86-3.72,12.63-5.75,18.83-.79,2.37-2.14,4.85-3.04,7.44-4.62,13.53-12.29,25.82-20.18,36.42-6.2,8.23-12.74,16.35-20.86,22.89-21.54,17.36-49.38,34.39-82.19,37.77-9.25.9-18.49.79-27.96,2.03-1.58,6.31.11,16.12-1.01,22.55,3.61,1.8,9.13,1.69,14.21,1.69s9.7-.68,14.43-.34c3.83.34,7.67,1.01,11.5,1.35,3.61.34,7.22.23,10.49.68,11.84,1.58,21.08,7.44,27.62,14.77,3.61,6.09.79,13.3-3.38,18.83-3.38,4.62-10.37,9.81-14.77,11.84-1.13.45-2.82.45-4.4,1.01-2.25.79-4.4,2.59-6.09,3.04-5.75,1.47-13.53.56-20.18.34-6.88-.23-14.54.23-20.18-1.01-5.98-1.24-13.19-2.48-19.17-3.38-6.65-1.01-13.08-1.69-18.83-1.35-6.65.45-15.33,2.82-21.54,3.72-10.15,1.35-20.75.79-31.68,1.01-4.85.11-9.7-.34-14.77-1.01-5.41-.68-10.94-.45-15.78-1.35-8.79-1.58-20.75-5.75-25.93-11.5-6.2-6.88-1.24-20.86,5.41-24.92,3.61-2.14,9.25-3.83,14.09-5.41,14.32-4.51,32.36-7.44,48.82-8.79-1.69-8.12-2.25-17.25-4.74-24.58-10.49-2.37-20.29-4.51-30.33-7.44-19.05-5.52-36.08-15-51.19-24.92-11.27-7.44-20.52-16.01-29.31-25.93-6.65,3.83-12.85,10.15-22.21,8.12-6.31-1.35-10.94-6.65-15.11-10.82-4.28,3.83-8.34,8.34-15.11,8.12-9.13-.34-18.94-7.33-18.49-18.15-12.18.23-20.63-4.85-18.15-17.48.34-1.8,1.8-3.72,1.69-5.75-.23-3.16-3.83-5.98-4.74-8.79-4.51-14.32,5.98-26.72,18.15-28.3,3.38-.45,7.89-.56,11.5-.34s8.46,1.92,11.16,1.01c1.8-.56,2.93-3.27,4.74-5.41,2.59-3.04,4.4-4.17,4.74-8.46.45-5.3-.56-11.16-.68-16.8-.34-16.01.34-33.15,2.71-48.14-8.79-6.2-17.25-12.63-24.24-21.87-1.92-2.59-5.19-7.1-5.41-9.81-.11-2.37,2.37-6.88,3.72-10.15,3.83-9.13,8.79-19.28,12.85-27.62,6.2-12.97,15.22-22.66,21.2-33.04,15.78-16.57,34.61-31.57,55.25-43.75,13.98-8.23,28.75-14.32,44.42-21.54,7.67-3.5,16.24-6.65,24.58-8.46,8.79-1.92,17.93-4.06,27.29-5.75,16.12-2.93,33.26-5.86,51.19-3.72-.56-12.85,4.74-26.61,11.5-33.04,10.82-10.15,30.1-2.25,34.73,8.12,1.01,2.37.11,6.09,2.03,8.12,1.69,1.69,6.2,1.13,8.79,2.03,2.71,1.13,5.3,3.38,7.78,4.28h0ZM291.76,10.46c-1.35,1.01-2.93,4.06-4.74,7.1-4.06,6.65-6.31,16.91-5.07,27.29,1.13,9.58,13.19,8.01,15.78.34.9-2.59.68-5.86,1.69-8.12,2.48-5.64,6.99-8.68,10.82-11.84,4.74-12.97-8.91-21.76-18.49-14.77h0ZM365.95,20.16c-3.5-.11-11.05,3.5-13.19,5.07-2.82,2.14-9.36,10.37-10.15,13.19-.79,2.82.11,6.31-1.01,9.47-1.01,2.93-3.61,4.62-3.72,7.44-.11,4.85,4.4,7.44,6.76,9.81,5.75.34,9.7-.56,13.19-2.71,7.78-4.85,15-18.72,16.12-29.31.23-2.48-.23-4.51,0-6.43-1.92-3.27-3.38-6.43-8.01-6.54h0ZM329.87,48.12c4.74-5.64,5.19-17.14-3.72-16.8-1.47,0-2.71,1.35-4.06,1.35s-2.48-.9-3.72-.68c-1.13.11-3.72,1.47-5.07,2.71-4.96,4.62-7.55,11.39-3.72,17.48,7.78,4.28,16.12,1.01,20.29-4.06h0ZM252.41,46.43c-14.32,2.03-27.51,3.5-39.8,6.43-13.53,3.16-25.37,5.19-37.09,10.15-7.33,3.04-14.77,6.31-21.54,9.81-6.99,3.61-14.32,6.65-20.86,10.49-19.84,11.5-37.21,25.48-53.22,40.82-7.33,10.26-14.09,19.51-20.86,31.34-4.4,7.78-8.57,17.7-12.85,26.61-1.58,3.38-3.61,7.1-3.38,9.81.45,4.74,6.09,9.81,9.47,13.42,4.17,4.62,8.12,7.89,12.85,10.49,12.18,6.76,25.14,14.43,40.48,16.46,1.24-10.6-.56-23.11.34-36.42.45-6.76,3.04-14.09,5.41-21.2,4.85-14.88,8.79-24.8,15.45-37.77,2.03-3.83,6.43-15.56,10.82-16.12,3.72-.56,4.74,1.69,7.44,2.71,2.03,7.33,7.55,11.27,13.08,15.45,4.17,3.16,8.57,5.98,12.85,8.46,9.47,5.52,20.75,7.78,30.67,12.18,20.52,4.28,41.6,10.71,65.39,13.87,23.34,3.04,47.58,6.2,72.05,4.4,10.37-.79,21.08-2.03,31.34-3.38,10.37-1.35,20.75-2.59,29.65-5.75,3.72-1.35,5.98-4.17,10.49-2.71s4.28,5.52,5.41,10.49c.56,2.48,1.8,4.51,2.37,7.1,4.17,18.94-.11,41.04-6.43,56.6-4.4,10.26-8.91,20.07-14.09,29.99-1.47,2.82-5.19,6.99-4.74,10.15.34,2.93,6.76,6.09,10.49,8.12,4.51,2.48,9.13,4.28,12.85,5.75,20.07,7.55,52.88,10.26,72.38,1.35,1.01-3.61,3.27-5.86,4.06-9.13,1.13-5.07.56-12.52.34-19.17-.23-6.31-.11-12.18-.68-17.48-4.17-38.45-15.22-69.9-30.33-95.95-10.03-17.36-22.44-33.82-36.76-47.47-6.76-6.54-14.54-12.85-22.55-19.51-10.37-8.57-21.42-16.01-35.74-18.49-3.95,3.38-10.82,6.88-17.14,6.76-10.26-.11-14.66-7.67-20.52-13.42-6.31,3.04-13.3,3.04-20.18.34-2.25-.9-5.3-3.95-7.44-4.06-2.71-.11-5.41,2.59-8.12,3.04-10.26,1.47-17.59-4.51-21.2-13.19-6.99-.68-14.77-2.03-20.18-1.35h0ZM406.32,179.25c-5.75-1.35-10.82,2.59-16.46,3.04-1.24.11-2.59-.45-3.72-.34-2.93.34-5.86,1.58-8.79,2.03-5.64.9-11.95,1.01-18.15,1.69-13.53,1.47-30.1,3.16-45.44,2.03-19.05-1.35-38.56-3.27-57.28-6.43-13.42-2.25-26.5-5.41-39.12-9.13-6.65-1.92-13.08-2.71-19.17-4.74-6.2-2.03-12.4-3.83-18.15-6.09-15.67-6.09-28.75-16.01-39.46-26.61,0-.23,0-.34-.34-.34-8.34,14.77-15.78,30.56-20.52,48.82,9.81,3.72,19.39,4.85,28.3,8.46,2.71,1.01,5.07,2.93,7.78,4.06,5.41,2.25,10.71,5.41,17.48,6.09,4.51-4.17,9.58-8.68,15.45-11.84,1.58-.9,3.5-1.13,5.07-2.03,2.93-1.69,4.74-4.28,8.46-5.07,3.16-.68,7.22-.68,10.15-.34,9.02.9,21.87,7.22,27.29,11.84,8.01,6.88,12.06,18.15,14.77,29.99,3.83,0,5.52.34,9.13.68,6.2-8.01,12.52-16.01,22.89-19.84,3.83.34,6.76-3.16,10.49-3.72,6.31-.9,16.57,2.48,21.87,4.4,7.89,2.71,13.53,5.98,19.17,10.82,6.65,5.64,11.84,11.39,13.87,20.52,6.65-.34,13.53-1.35,20.52-2.03,6.99-.56,14.43-.34,20.86-1.69,3.38-.68,6.31-2.93,10.15-1.69,5.07-15.11,10.15-36.87,2.93-52.54h0ZM117,193.68c-.9,8.12-.56,24.02-.68,34.39,0,3.61,1.92,6.2,1.69,9.81-.68,7.89-7.67,4.4-13.19,3.04-3.38-.79-7.22-1.24-10.49-2.03-8.12-2.14-16.24-7.22-22.89-9.13-4.62,21.54-1.69,44.87-1.35,66.07-1.35,2.82-4.51,3.5-6.43,5.75-2.59,2.93-3.95,11.16-8.79,11.84-2.14.34-4.51-1.01-6.76-1.69-5.19-1.58-16.12-3.16-21.87-.34-5.19,2.48-7.89,8.12-7.1,16.8,2.59-.56,4.62-3.72,7.78-5.41,3.5-1.92,15.78-5.64,16.12,1.01.34,4.62-5.41,3.95-8.79,5.75-5.52,2.82-13.98,16.12-11.16,23.23,10.6,2.93,12.4-9.7,18.83-12.18,3.27-1.24,7.89-.23,8.46,3.38.79,5.52-7.1,8.79-8.79,13.87-1.24,3.83-.34,6.09.34,10.82,6.65,7.1,13.53-.45,15.45-7.78.68-2.37.23-5.41,1.69-6.76s4.96-.9,7.1-1.01c4.51,1.92,2.59,5.98,3.72,10.15,1.24,4.62,7.22,11.27,12.18,11.5,4.17.11,10.82-5.3,12.85-7.78,2.14-2.59,5.19-8.23,6.09-12.52.45-2.25.79-6.54,0-8.46-1.8-3.95-10.82-4.62-16.8-3.72-2.03.23-3.72,1.58-5.75,1.35-2.48-.34-5.52-3.27-5.41-6.09.11-2.59,4.06-6.65,5.75-9.13,6.54-9.81,12.06-18.27,20.86-24.58,3.95.34,7.22,1.13,7.44,5.07.23,4.4-4.74,6.09-7.1,8.46-4.96,5.07-9.13,12.29-12.18,16.46,11.73-.23,19.28,3.83,23.56,11.16.11,5.07.68,9.36-.68,14.21-.68,2.48-3.16,4.85-3.04,7.1.11,2.93,6.54,9.58,9.13,12.18,4.06,4.06,7.89,6.88,11.84,9.81,24.69,18.27,55.47,32.81,92,36.76,3.72,2.14,2.93,4.51,3.38,9.81.23,3.27,1.58,6.76,2.03,10.15.23,1.47-.23,3.16,0,4.74.45,3.04,4.17,10.37,3.72,13.87-.79,6.09-6.99,3.27-11.5,3.04-5.19-.34-11.5.56-16.8,1.35-4.96.79-10.03,1.8-14.77,3.04-4.28,1.01-9.81,2.14-14.77,3.72-4.28,1.35-10.94,3.61-12.85,5.75-1.58,1.8-3.04,7.44-2.71,9.81.79,4.4,11.27,7.78,16.12,8.79,5.3,1.01,11.05,1.13,16.46,1.69,5.3.56,10.26,1.69,15.45,1.69,16.24,0,32.47.68,45.44-4.74-.34-22.89-8.01-41.49-5.07-66.41,3.72-3.72,11.84-2.59,12.18,3.38.11,2.14-1.8,4.85-2.03,6.76-2.48,18.04,5.07,37.55,6.09,53.56,3.5,3.72,9.47,2.71,15.45,3.72,8.57,1.35,18.27,3.95,27.62,4.74,7.78.68,19.05,1.13,25.93,0,4.74-.79,8.68-2.82,12.52-4.74,2.82-1.35,6.2-3.61,8.12-5.41,2.71-2.59,7.22-8.79,5.75-13.53-1.24-4.06-10.71-8.68-16.8-9.47-3.61-.45-7.78-.23-12.18-.68-11.84-1.35-27.17-2.48-38.79-1.35-2.14.23-4.06,1.35-6.09,1.01-2.25-.34-5.98-3.83-6.43-6.09-.56-2.71.68-6.54,1.01-10.15,1.01-10.26-1.92-17.36-1.35-24.58,1.92-3.83,7.1-2.25,11.5-2.03,8.34.34,16.8-.9,24.92-1.69,17.03-1.69,32.36-6.54,44.76-13.19,12.63-6.65,24.69-14.54,34.39-23.56,10.03-9.36,18.27-19.96,26.27-31.68,1.92-2.82,3.72-5.86,5.41-9.13,5.64-11.16,11.39-23,13.19-37.77-16.35-2.82-31.34-8.79-43.41-15.78-6.2-3.61-11.84-7.55-13.53-14.43,6.65-11.5,14.43-21.99,18.83-35.74-16.57,1.47-29.43,1.58-45.78,3.72-1.01,6.65-2.82,11.61-5.75,16.46-4.28,7.33-14.43,14.43-22.55,18.15-3.83,1.8-9.7,4.28-13.19,5.07-13.42,2.93-26.61-1.92-38.45-6.76-2.48-3.38-6.43-5.19-9.13-8.79-6.88-9.25-6.99-23.34-4.4-36.42-2.37-.56-4.06,2.25-6.09,3.04-1.47,5.75-4.4,9.47-7.78,13.53-3.72,4.51-5.86,5.64-10.49,8.79-6.09,4.06-12.18,5.19-20.86,7.1-10.26,2.14-19.51,1.47-27.62-2.03-5.86-2.48-9.36-5.64-13.76-9.47-10.82-9.25-15.67-28.07-6.76-43.41-13.19-9.92-30.33-14.88-48.14-19.51-.23-.23-.11.45-.34.68h0ZM206.86,195.71c-3.61,1.47-7.78,1.13-11.84,2.71-1.92.79-4.28,3.04-6.76,4.74-6.31,4.4-9.81,8.68-13.19,15.45-3.38,6.99-6.2,16.8-1.35,25.26,2.48,4.28,11.16,10.71,15.78,12.52,4.4,1.58,10.03,2.25,14.77,2.03,7.44-.45,17.25-2.25,22.55-5.41,4.96-2.82,10.71-9.02,13.08-12.85,2.37-3.83,4.62-10.37,4.4-15.45-.34-7.33-5.98-20.29-11.16-23.9-3.72-2.59-11.61-6.76-16.8-7.78-2.14-.45-4.17-.23-5.07,0-1.8.56-2.48,1.92-4.4,2.71h0ZM293.79,213.52c-7.55.68-11.95,6.2-15.78,11.16-1.69,2.25-4.06,4.4-5.41,6.76-4.96,8.91-7.22,26.72-.68,35.4,5.86,7.67,17.36,10.82,27.96,11.16,5.98.11,10.94-1.92,15.11-3.38,11.5-4.06,21.2-12.97,25.26-23.23,3.27-8.23,1.69-17.93-2.37-23.23-6.09-7.89-21.76-15.45-36.42-14.77-3.83,1.58-3.72-.23-7.67.11h0Z"/>
  <path class="cls-4" d="M310.37,25.23c-3.83,3.16-8.34,6.09-10.82,11.84-1.01,2.25-.79,5.41-1.69,8.12-2.59,7.67-14.66,9.25-15.78-.34-1.24-10.37,1.01-20.63,5.07-27.29,1.8-3.04,3.38-6.09,4.74-7.1,9.47-6.99,23.11,1.8,18.49,14.77h0Z"/>
  <path class="cls-4" d="M373.96,26.58c-.23,1.92.23,3.95,0,6.43-1.13,10.6-8.34,24.47-16.12,29.31-3.5,2.14-7.33,3.04-13.19,2.71-2.37-2.37-6.88-4.85-6.76-9.81.11-2.82,2.71-4.51,3.72-7.44,1.13-3.04.23-6.65,1.01-9.47.79-2.71,7.22-10.94,10.15-13.19,2.03-1.58,9.58-5.07,13.19-5.07,4.62.23,6.09,3.38,8.01,6.54h0Z"/>
  <path class="cls-4" d="M309.69,52.18c-3.83-6.09-1.24-12.85,3.72-17.48,1.24-1.13,3.95-2.48,5.07-2.71,1.24-.23,2.37.68,3.72.68s2.59-1.35,4.06-1.35c8.91-.23,8.34,11.16,3.72,16.8-4.28,5.07-12.63,8.34-20.29,4.06h0Z"/>
  <path class="cls-3" d="M272.26,47.11c3.61,8.57,11.05,14.66,21.2,13.19,2.71-.34,5.41-3.16,8.12-3.04,2.03.11,5.07,3.16,7.44,4.06,6.88,2.71,13.87,2.71,20.18-.34,5.86,5.75,10.26,13.3,20.52,13.42,6.31.11,13.19-3.38,17.14-6.76,14.21,2.59,25.37,9.92,35.74,18.49,8.01,6.65,15.78,12.97,22.55,19.51,14.21,13.76,26.61,30.1,36.76,47.47,15.11,26.05,26.16,57.61,30.33,95.95.56,5.3.45,11.16.68,17.48.23,6.65.79,14.09-.34,19.17-.79,3.16-3.04,5.41-4.06,9.13-19.51,8.91-52.32,6.2-72.38-1.35-3.72-1.35-8.23-3.27-12.85-5.75-3.61-1.92-10.03-5.19-10.49-8.12-.45-3.16,3.27-7.33,4.74-10.15,5.19-9.92,9.81-19.73,14.09-29.99,6.31-15.56,10.6-37.66,6.43-56.6-.56-2.59-1.8-4.62-2.37-7.1-1.13-4.85-.9-9.02-5.41-10.49-4.51-1.47-6.65,1.35-10.49,2.71-8.91,3.16-19.28,4.4-29.65,5.75-10.26,1.35-20.97,2.59-31.34,3.38-24.47,1.8-48.82-1.35-72.05-4.4-23.68-3.04-44.87-9.47-65.39-13.87-9.92-4.28-21.2-6.65-30.67-12.18-4.28-2.48-8.68-5.3-12.85-8.46-5.52-4.17-11.16-8.12-13.08-15.45-2.71-1.01-3.72-3.27-7.44-2.71-4.28.68-8.79,12.29-10.82,16.12-6.76,12.85-10.71,22.89-15.45,37.77-2.37,7.22-4.96,14.43-5.41,21.2-.9,13.3.9,25.71-.34,36.42-15.33-2.14-28.3-9.81-40.48-16.46-4.62-2.59-8.68-5.86-12.85-10.49-3.38-3.72-9.02-8.79-9.47-13.42-.23-2.59,1.69-6.31,3.38-9.81,4.28-8.91,8.34-18.83,12.85-26.61,6.76-11.84,13.64-21.08,20.86-31.34,16.01-15.33,33.37-29.31,53.22-40.82,6.65-3.83,13.87-6.88,20.86-10.49,6.88-3.5,14.32-6.65,21.54-9.81,11.73-4.96,23.56-6.88,37.09-10.15,12.18-2.82,25.48-4.4,39.8-6.43,5.75,0,13.53,1.35,20.18,1.35h0Z"/>
  <path class="cls-5" d="M403.27,231.79c-3.72-1.24-6.76,1.01-10.15,1.69-6.43,1.35-13.87,1.01-20.86,1.69-7.1.56-13.87,1.69-20.52,2.03-1.92-9.13-7.22-15-13.87-20.52-5.64-4.85-11.39-8.01-19.17-10.82-5.3-1.92-15.56-5.3-21.87-4.4-3.72.45-6.54,4.06-10.49,3.72-10.37,3.83-16.69,11.84-22.89,19.84-3.61-.34-5.3-.68-9.13-.68-2.82-11.84-6.76-23-14.77-29.99-5.41-4.62-18.27-10.94-27.29-11.84-2.93-.23-6.88-.34-10.15.34-3.61.79-5.41,3.27-8.46,5.07-1.47.9-3.38,1.13-5.07,2.03-5.98,3.16-10.94,7.55-15.45,11.84-6.88-.56-12.06-3.83-17.48-6.09-2.71-1.13-5.07-2.93-7.78-4.06-9.02-3.61-18.49-4.74-28.3-8.46,4.85-18.38,12.18-34.16,20.52-48.82.34,0,.34.11.34.34,10.6,10.6,23.68,20.52,39.46,26.61,5.75,2.25,11.95,4.06,18.15,6.09,6.09,2.03,12.63,2.82,19.17,4.74,12.63,3.72,25.71,6.88,39.12,9.13,18.72,3.16,38.22,4.96,57.28,6.43,15.45,1.13,31.91-.56,45.44-2.03,6.2-.68,12.52-.79,18.15-1.69,2.93-.45,5.86-1.69,8.79-2.03,1.13-.11,2.48.45,3.72.34,5.75-.45,10.82-4.4,16.46-3.04,7.33,15.67,2.25,37.43-2.93,52.54h0Z"/>
  <path class="cls-5" d="M117.68,192.66c17.93,4.62,34.95,9.58,48.14,19.51-8.91,15.45-4.17,34.16,6.76,43.41,4.51,3.83,7.89,6.88,13.76,9.47,8.12,3.5,17.36,4.17,27.62,2.03,8.79-1.8,14.88-3.04,20.86-7.1,4.62-3.04,6.65-4.28,10.49-8.79,3.27-4.06,6.31-7.67,7.78-13.53,2.03-.79,3.72-3.61,6.09-3.04-2.71,13.08-2.48,27.06,4.4,36.42,2.71,3.61,6.54,5.41,9.13,8.79,11.73,4.74,24.92,9.7,38.45,6.76,3.5-.79,9.25-3.27,13.19-5.07,8.12-3.72,18.27-10.94,22.55-18.15,2.82-4.96,4.74-9.92,5.75-16.46,16.46-2.14,29.31-2.25,45.78-3.72-4.4,13.76-12.18,24.24-18.83,35.74,1.69,6.88,7.33,10.82,13.53,14.43,12.06,7.1,27.06,12.97,43.41,15.78-1.8,14.77-7.55,26.5-13.19,37.77-1.69,3.27-3.5,6.31-5.41,9.13-8.01,11.73-16.24,22.32-26.27,31.68-9.7,9.02-21.76,16.91-34.39,23.56-12.4,6.54-27.74,11.39-44.76,13.19-8.12.79-16.57,2.03-24.92,1.69-4.28-.23-9.47-1.8-11.5,2.03-.56,7.22,2.37,14.32,1.35,24.58-.34,3.61-1.58,7.44-1.01,10.15.45,2.25,4.17,5.64,6.43,6.09,1.92.34,3.95-.79,6.09-1.01,11.61-1.13,26.83,0,38.79,1.35,4.28.45,8.57.23,12.18.68,6.09.79,15.56,5.3,16.8,9.47,1.47,4.62-3.04,10.82-5.75,13.53-1.92,1.8-5.3,4.06-8.12,5.41-3.72,1.92-7.78,3.95-12.52,4.74-6.88,1.13-18.15.68-25.93,0-9.36-.79-19.05-3.38-27.62-4.74-5.98-.9-12.06.11-15.45-3.72-1.01-16.01-8.57-35.52-6.09-53.56.23-1.92,2.14-4.62,2.03-6.76-.23-5.98-8.34-7.1-12.18-3.38-2.93,24.92,4.74,43.52,5.07,66.41-13.08,5.41-29.2,4.74-45.44,4.74-5.3,0-10.15-1.13-15.45-1.69-5.52-.56-11.16-.68-16.46-1.69-4.85-.9-15.33-4.28-16.12-8.79-.45-2.25,1.13-7.89,2.71-9.81,1.8-2.14,8.46-4.4,12.85-5.75,4.96-1.58,10.6-2.59,14.77-3.72,4.85-1.24,9.92-2.25,14.77-3.04,5.3-.79,11.61-1.69,16.8-1.35,4.51.23,10.6,3.16,11.5-3.04.45-3.5-3.27-10.71-3.72-13.87-.23-1.58.23-3.27,0-4.74-.34-3.38-1.8-6.88-2.03-10.15-.34-5.3.34-7.55-3.38-9.81-36.53-3.95-67.31-18.49-92-36.76-3.95-2.93-7.78-5.64-11.84-9.81-2.59-2.59-9.02-9.13-9.13-12.18-.11-2.14,2.37-4.51,3.04-7.1,1.35-4.85.79-9.13.68-14.21-4.28-7.22-11.84-11.27-23.56-11.16,3.04-4.17,7.1-11.5,12.18-16.46,2.37-2.37,7.22-4.06,7.1-8.46-.11-3.83-3.5-4.74-7.44-5.07-8.79,6.31-14.32,14.77-20.86,24.58-1.58,2.48-5.64,6.54-5.75,9.13-.11,2.82,2.93,5.75,5.41,6.09,2.03.23,3.72-1.01,5.75-1.35,5.98-.9,15.11-.23,16.8,3.72.79,1.8.45,6.09,0,8.46-.79,4.28-3.95,9.92-6.09,12.52-2.03,2.37-8.57,7.89-12.85,7.78-4.85-.11-10.94-6.76-12.18-11.5-1.01-4.17.79-8.12-3.72-10.15-2.14.11-5.64-.34-7.1,1.01-1.47,1.35-1.01,4.4-1.69,6.76-2.03,7.33-8.91,14.88-15.45,7.78-.68-4.74-1.58-6.99-.34-10.82,1.69-4.96,9.47-8.23,8.79-13.87-.45-3.61-5.07-4.62-8.46-3.38-6.43,2.37-8.34,15.11-18.83,12.18-2.93-7.1,5.64-20.41,11.16-23.23,3.38-1.69,9.02-1.01,8.79-5.75-.45-6.65-12.63-2.93-16.12-1.01-3.16,1.69-5.19,4.85-7.78,5.41-.9-8.68,1.8-14.32,7.1-16.8,5.75-2.82,16.69-1.24,21.87.34,2.25.68,4.62,2.03,6.76,1.69,4.74-.68,6.2-8.91,8.79-11.84,1.92-2.25,5.07-2.93,6.43-5.75-.34-21.2-3.27-44.54,1.35-66.07,6.65,1.8,14.77,6.99,22.89,9.13,3.27.79,7.1,1.24,10.49,2.03,5.52,1.35,12.52,4.85,13.19-3.04.34-3.5-1.69-6.2-1.69-9.81.11-10.26-.23-26.27.68-34.39-.11.11-.23-.56.34-.68h0ZM213.29,278.92c-2.59,4.51-5.64,11.61-5.75,17.81-.11,8.01,4.96,17.81,9.47,21.54,4.28,3.5,9.36,5.86,15.11,6.43,10.26.9,17.93-3.83,23.9-7.44,2.71-1.58,3.27-2.14,5.41-4.4,4.62-4.85,8.23-13.08,8.79-20.86.23-3.5-.45-9.36-2.37-13.19-3.38-6.88-19.28-15.45-32.02-13.42-9.7,1.58-18.49,6.31-22.55,13.53h0ZM332.24,295.38c-11.27-1.47-18.15,5.86-15.45,17.81-10.15-6.09-24.24-.68-28.64,7.78-.9,8.12,4.06,10.37,7.1,14.43-7.78,3.72-17.7,12.52-16.46,23.56.68,6.09,5.75,12.4,11.16,13.87,11.61,3.16,20.63-7.55,29.31-10.15-.56,5.3,1.01,11.95,1.35,17.48.11,1.58-.56,2.82,0,4.4,1.13,3.38,7.67,6.65,10.82,3.72,4.06-3.95-.56-8.68-1.35-12.52-.23-1.35-.23-3.61-.34-5.75-.11-3.61-.23-8.57-.34-12.85-.11-4.51.45-9.25-2.03-11.16-1.47-1.13-6.09-1.47-7.78-.68-2.37,1.13-3.95,6.31-6.09,8.46-2.59,2.59-6.65,4.62-10.15,6.43-3.61,1.92-7.78,3.95-12.52,4.06-3.61-4.28-.56-11.5,1.69-14.43,3.04-4.06,8.12-7.22,13.53-8.46,4.62-1.01,10.6.34,11.84-3.38,3.04-9.36-19.39-5.64-19.51-12.52,0-2.03,2.93-3.61,3.72-4.06,5.41-3.5,11.16-1.8,16.46,1.01,5.19,2.71,9.47,9.13,13.42,3.38.9-4.51-2.82-6.2-4.06-8.79-2.71-5.86-2.25-15.45,6.76-12.85,3.95,1.13,9.92,7.67,10.49,13.42.23,2.59-2.25,4.85-2.03,7.78.11,2.14,3.27,6.43,6.43,6.43,1.24,0,5.19-3.5,6.76-4.74,5.3-3.95,11.16-8.46,19.17-6.76,1.01,3.5-1.92,6.43-3.72,8.46-3.83,4.17-9.13,8.57-15.45,9.47-5.19.68-11.27-3.83-15.11,1.35-.11,2.14,1.69,3.95,2.71,7.1,1.35,4.17,1.47,9.58,2.71,13.19,1.35,4.06,7.67,7.67,10.49,3.04-.23-5.86-2.82-9.36-3.04-15.11,6.2-1.01,11.73-2.14,16.46-4.4,4.28-2.03,14.66-12.29,15.45-16.46,2.37-12.4-9.13-16.69-18.15-15.45-5.19.68-9.13,3.04-13.53,4.4-3.95-8.46-10.82-19.05-22.1-20.52h0ZM230.43,366.86c8.68.23,9.25-17.48-3.04-14.43-8.79,2.03-3.27,14.21,3.04,14.43h0Z"/>
  <path class="cls-1" d="M211.6,193c.9-.23,2.93-.45,5.07,0,5.19,1.01,13.19,5.19,16.8,7.78,5.19,3.61,10.82,16.57,11.16,23.9.23,5.07-2.03,11.73-4.4,15.45-2.37,3.83-8.12,9.92-13.08,12.85-5.41,3.04-15.11,4.96-22.55,5.41-4.85.34-10.37-.34-14.77-2.03-4.74-1.69-13.42-8.23-15.78-12.52-4.85-8.46-2.03-18.27,1.35-25.26,3.27-6.88,6.88-11.05,13.19-15.45,2.48-1.69,4.85-3.95,6.76-4.74,4.06-1.58,8.23-1.24,11.84-2.71,1.58-.79,2.25-2.14,4.4-2.71h0ZM219.04,227.05c-.56,12.29,9.13,14.77,14.77,7.78,3.16-3.83,2.93-9.47-.68-13.19-6.09-2.82-12.4.11-14.09,5.41h0Z"/>
  <path class="cls-1" d="M301.57,213.18c14.66-.68,30.33,6.88,36.42,14.88,4.06,5.3,5.64,15,2.37,23.23-4.06,10.26-13.76,19.17-25.26,23.23-4.28,1.47-9.25,3.5-15.11,3.38-10.6-.34-22.1-3.38-27.96-11.16-6.54-8.68-4.28-26.38.68-35.4,1.35-2.37,3.61-4.51,5.41-6.76,3.83-4.96,8.34-10.49,15.78-11.16,3.83-.23,3.72,1.58,7.67-.23h0ZM286.01,249.6c10.71.23,13.08-20.41-1.01-18.83-10.71,1.13-8.12,18.6,1.01,18.83h0Z"/>
  <path class="cls-2" d="M233.13,221.64c3.61,3.72,3.83,9.25.68,13.19-5.75,6.99-15.33,4.62-14.77-7.78,1.69-5.3,8.01-8.23,14.09-5.41h0Z"/>
  <path class="cls-2" d="M285,230.77c14.09-1.47,11.73,19.05,1.01,18.83-9.13-.23-11.73-17.7-1.01-18.83h0Z"/>
  <path class="cls-2" d="M235.84,265.5c12.74-2.03,28.64,6.65,32.02,13.42,1.92,3.83,2.59,9.7,2.37,13.19-.56,7.78-4.17,16.12-8.79,20.86-2.14,2.25-2.71,2.82-5.41,4.4-6.09,3.61-13.64,8.34-23.9,7.44-5.86-.45-10.94-2.82-15.11-6.43-4.51-3.72-9.58-13.53-9.47-21.54.11-6.31,3.16-13.3,5.75-17.81,4.06-7.33,12.85-12.06,22.55-13.53h0ZM254.78,304.51c4.51-6.2,7.67-22.1.34-26.27-1.8-1.01-5.75-2.03-8.12-2.37-6.54-1.01-9.92,2.37-16.46,1.69-11.27,4.4-16.57,26.72-5.75,35.4,11.05,5.86,24.92-1.69,29.99-8.46h0Z"/>
  <path class="cls-5" d="M224.79,312.97c-10.94-8.57-5.52-30.89,5.75-35.4,6.65.68,10.03-2.71,16.46-1.69,2.25.34,6.31,1.35,8.12,2.37,7.33,4.17,4.28,20.07-.34,26.27-5.07,6.76-18.94,14.32-29.99,8.46h0Z"/>
  <path class="cls-2" d="M354.11,316.01c4.4-1.35,8.34-3.72,13.53-4.4,9.02-1.24,20.63,3.04,18.15,15.45-.79,4.28-11.16,14.43-15.45,16.46-4.74,2.25-10.26,3.38-16.46,4.4.23,5.86,2.82,9.36,3.04,15.11-2.71,4.62-9.13,1.01-10.49-3.04-1.13-3.61-1.35-9.02-2.71-13.19-1.01-3.16-2.82-4.96-2.71-7.1,3.95-5.19,10.03-.56,15.11-1.35,6.31-.9,11.61-5.3,15.45-9.47,1.8-1.92,4.74-4.96,3.72-8.46-8.12-1.8-13.87,2.82-19.17,6.76-1.58,1.13-5.52,4.74-6.76,4.74-3.16.11-6.2-4.28-6.43-6.43-.23-2.93,2.25-5.19,2.03-7.78-.45-5.75-6.54-12.29-10.49-13.42-9.02-2.71-9.47,6.99-6.76,12.85,1.24,2.59,4.96,4.28,4.06,8.79-3.95,5.75-8.34-.68-13.53-3.38-5.41-2.82-11.05-4.51-16.46-1.01-.79.45-3.72,2.03-3.72,4.06.11,6.76,22.55,3.16,19.51,12.52-1.24,3.72-7.1,2.37-11.84,3.38-5.41,1.24-10.37,4.4-13.53,8.46-2.25,2.93-5.3,10.26-1.69,14.43,4.74-.11,8.91-2.14,12.52-4.06,3.5-1.8,7.55-3.83,10.15-6.43,2.14-2.14,3.61-7.33,6.09-8.46,1.69-.79,6.2-.45,7.78.68,2.48,1.8,1.92,6.65,2.03,11.16.11,4.28.23,9.13.34,12.85.11,2.03.11,4.4.34,5.75.79,3.72,5.41,8.57,1.35,12.52-3.04,2.93-9.7-.34-10.82-3.72-.56-1.58.11-2.82,0-4.4-.34-5.52-1.92-12.18-1.35-17.48-8.68,2.48-17.7,13.3-29.31,10.15-5.3-1.47-10.49-7.78-11.16-13.87-1.13-11.05,8.79-19.84,16.46-23.56-3.04-4.17-8.01-6.43-7.1-14.43,4.4-8.46,18.49-13.87,28.64-7.78-2.71-11.95,4.17-19.28,15.45-17.81,11.61,1.35,18.49,11.95,22.21,20.52h0Z"/>
  <path class="cls-2" d="M227.5,352.32c12.29-3.04,11.73,14.77,3.04,14.43-6.43-.11-11.95-12.29-3.04-14.43h0Z"/>
</svg>