<?xml version="1.0" encoding="UTF-8"?>
<svg id="Layer_1" data-name="Layer 1" xmlns="http://www.w3.org/2000/svg" viewBox="0 0 512 512">
  <defs>
    <style>
      .cls-1 {
        fill: #fff;
      }

      .cls-1, .cls-2, .cls-3, .cls-4, .cls-5, .cls-6, .cls-7 {
        fill-rule: evenodd;
      }

      .cls-2 {
        fill: #ffcd00;
      }

      .cls-3 {
        fill: #c1531b;
      }

      .cls-4 {
        fill: #1f1f1f;
      }

      .cls-5 {
        fill: #cb9700;
      }

      .cls-6 {
        fill: #ed2848;
      }

      .cls-7 {
        fill: #007934;
      }
    </style>
  </defs>
  <path class="cls-7" d="M329.93,15.37c4.68-1.56,13.7,2.78,15.37,8.24-5.23,1.67-8.91-7.35-15.37-8.24Z"/>
  <path class="cls-1" d="M94.33,17.7h5.9c-.33,10.58-.67,21.27-3.56,26.05-5.23-6.68-.45-16.14-2.34-26.05Z"/>
  <path class="cls-7" d="M324.03,21.27c4.57-2.12,9.58,5.34,14.25,7.13.22,1.56-6.9,1.56-2.34,3.56-5.57,2.56-6.46-9.35-11.91-10.69Z"/>
  <path class="cls-7" d="M348.86,35.52c5.23,1.89-1.45,10.69-2.34,14.25-7.35-2.89-1.22-11.8,2.34-14.25Z"/>
  <path class="cls-7" d="M357.1,37.86c4.12,2.23.33,5.46,0,9.46-3.34-1.89,1.67-5.34,0-9.46Z"/>
  <path class="cls-7" d="M371.35,46.1c6.57,1.11,15.59,5.34,14.25,10.69-5.68-2.67-10.91-5.68-14.25-10.69Z"/>
  <path class="cls-7" d="M366.56,54.45c3.79-2.56,7.35,5.23,11.8,5.9-3.34,5.68-7.91-4.57-11.8-5.9Z"/>
  <path class="cls-3" d="M352.42,62.69c2.34-2.23.67,9.46,1.22,13.03-2.45,2.23-.78-9.46-1.22-13.03Z"/>
  <path class="cls-3" d="M348.86,62.69c3.23,1.45,0,6.12,0,8.24-3.23-1.34,0-6.12,0-8.24Z"/>
  <path class="cls-3" d="M360.66,67.47c4.57.56,2.23,8.02,4.79,10.69-3.45,2.89-2.78-8.24-4.79-10.69Z"/>
  <path class="cls-3" d="M392.62,71.04c.22-1.34,2.12-1,3.56-1.22,10.02,12.92,15.92,33.4,23.72,56.78,7.68,23.27,17.93,45.32,21.27,69.81,1.11,7.79,1,17.93-3.56,24.83-3.23-41.2-19.48-88.29-31.96-123.14-3.67-10.13-3.34-21.6-13.03-27.06Z"/>
  <path class="cls-3" d="M366.56,73.37c5.68,2.23,4.45,11.36,5.9,17.7-4.23-3.56-2.89-12.69-5.9-17.7Z"/>
  <path class="cls-3" d="M371.35,73.37c25.27,58.34,39.64,127.71,49.66,201.2-15.14-68.48-29.84-137.4-49.66-201.2Z"/>
  <path class="cls-3" d="M364.23,81.61c1.78,1.67,2.45,4.57,2.34,8.24-3.34-.11-2.12-4.9-2.34-8.24Z"/>
  <path class="cls-3" d="M410.43,86.4c.89-2.12,2.12-.22,3.56,0,11.58,25.72,22.94,61.35,29.62,95.87-11.69-31.4-22.49-63.58-33.18-95.87Z"/>
  <path class="cls-3" d="M385.49,94.64c2.45,4.34,5.23,8.13,5.9,14.25-2.78-1.34-4.68-7.91-5.9-14.25Z"/>
  <path class="cls-3" d="M340.51,95.87c3.12,5.79-2.78,20.04-1.22,3.56,1.45-.22,1.11-2.23,1.22-3.56Z"/>
  <path class="cls-3" d="M437.6,139.62c-3.12-8.91-7.24-20.26-10.69-31.96,5.34,8.24,11.58,21.49,10.69,31.96Z"/>
  <path class="cls-3" d="M402.08,149.09c2.34,1.56,2.67,5.23,3.56,8.24-3.9,0-2.56-5.23-3.56-8.24Z"/>
  <path class="cls-3" d="M404.42,161c5.01,2.12,5.57,10.91,7.13,17.7,4.34,18.59,11.47,47.21,13.03,66.25.22,3.01-.33,31.18-1.22,9.46-4.79-32.62-10.69-64.24-18.93-93.42Z"/>
  <path class="cls-1" d="M87.2,164.56h5.9c-2.23,2.89-.78,9.46-1.22,14.25-3.34,1-3.12-1.67-5.9-1.22-.78-5.68,1.45-8.24,1.22-13.03Z"/>
  <path class="cls-4" d="M273.04,166.9c11.47,13.7-7.01,36.41-21.27,24.83-4.57-14.92,6.12-29.62,21.27-24.83Z"/>
  <path class="cls-4" d="M290.85,201.2c-3.67-18.82,19.71-32.73,27.28-20.15,9.58,16.26-16.26,37.97-27.28,20.15Z"/>
  <path class="cls-5" d="M89.65,187.06c-4.57,6.57-12.8,9.35-24.83,8.24-1-12.36,16.26-8.91,24.83-8.24Z"/>
  <path class="cls-3" d="M153.56,189.39c-7.13,5.23-19.37,1-3.56,1.22.89,0,1.89-1.78,3.56-1.22Z"/>
  <path class="cls-5" d="M90.77,204.76c.22,13.03-22.49,18.15-29.62,9.46-5.01-12.14,28.84-12.92,29.62-9.46Z"/>
  <path class="cls-4" d="M223.38,205.98c.33,2.78-.22,4.57-1.22,5.9-4.68.67-5.23-2.67-5.9-5.9,2.23-2.34,4.34-.45,7.13,0Z"/>
  <path class="cls-4" d="M267.13,210.66c12.8-.78,20.38,5.57,21.27,15.37,2.56,26.83-44.65,26.5-41.42-1.22,1.22-9.35,8.46-13.36,20.15-14.14ZM257.67,230.81c5.68,10.24,25.16,2.34,17.7-10.69-8.35-1.67-19.26-.89-17.7,10.69Z"/>
  <path class="cls-4" d="M202.11,214.22c4.79-.45,7.46,1.22,7.13,5.9-3.67,3.01-8.46-.33-7.13-5.9Z"/>
  <path class="cls-4" d="M218.59,215.45c4.68-.33,6.46,2.23,5.9,7.13-1.34-.22-2.12.22-2.34,1.22-4.01.45-3.56-3.56-5.9-4.79.45-1.56,2.12-1.89,2.34-3.56Z"/>
  <path class="cls-2" d="M275.48,220.12c7.35,13.03-12.02,20.93-17.7,10.69-1.67-11.58,9.24-12.36,17.7-10.69Z"/>
  <path class="cls-5" d="M90.77,226.03c-.22,8.13-17.26,12.36-20.15,3.56,6.46-.67,15.81-4.79,20.15-3.56Z"/>
  <path class="cls-4" d="M212.69,232.04c-2.89,2.56-8.8.89-8.24-3.56.78-6.24,10.47-3.45,8.24,3.56Z"/>
  <path class="cls-4" d="M219.81,226.03c4.23-.67,6.12,1,7.13,3.56.89,3.23-2.34,2.34-2.34,4.79-2.89.22-3.67-1.89-5.9-2.34-.45-2.78.11-4.57,1.11-6.01Z"/>
  <path class="cls-4" d="M311,233.15c-3.34,2.67-9.46.67-8.24-4.79,3.23-2.67,9.35-.56,8.24,4.79Z"/>
  <path class="cls-3" d="M426.91,227.25c1.34,2.78,2.12,4.34,2.34,5.9,2.23,13.25-3.45,7.46-2.34-5.9Z"/>
  <path class="cls-4" d="M331.04,236.71c.89,3.56-1.22,4.34-1.22,7.13-4.57.22-8.24-.45-7.13-5.9,1.67-1.67,5.23-1.22,8.35-1.22Z"/>
  <path class="cls-4" d="M319.24,243.84c.45,6.68-11.13,6.12-9.46-1.22,2.56-2.45,7.91-.89,9.46,1.22Z"/>
  <path class="cls-4" d="M303.88,249.74c-2.23,2.34-5.57.56-8.24,0-2.67-9.58,10.35-8.46,8.24,0Z"/>
  <path class="cls-3" d="M429.36,244.95c2.34-2.23.67,9.46,1.22,13.03-2.45,2.34-.78-9.46-1.22-13.03Z"/>
  <path class="cls-4" d="M332.27,248.52c1,3.34-1.67,3.12-1.22,5.9-5.68,1.22-9.13-4.23-7.13-7.13,2.67-2.56,6.01.11,8.35,1.22Z"/>
  <path class="cls-4" d="M315.68,257.98c-1.11.89-1.78,2.12-2.34,3.56-5.34.67-7.68-1.78-7.13-7.13,3.45-3.23,8.68-1.78,9.46,3.56Z"/>
  <path class="cls-4" d="M231.62,263.99c1.11,5.01-2.78,5.01-7.13,4.79,4.79,9.02,9.13,18.48,17.7,23.72,17.37,1.11,24.27-8.13,34.29-14.25-1.11-2.89-4.79-3.12-3.56-8.24,9.91,2.67,23.72,6.68,21.27,17.7-6.57,2.34-4.12-3.56-5.9-3.56-3.34,0-10.8,15.81-10.69,15.37-3.23,9.91-1.22,22.05-3.56,29.62-8.8,28.39-61.13,33.07-66.25-3.56-2.78-19.6,10.8-28.28,7.13-52.11-4.23,1.34-7.57,5.46-13.03,2.34,1.56-11.58,19.15-17.15,29.73-11.8Z"/>
  <path class="cls-3" d="M421.01,275.8c1.89,2.45,4.01,9.24-1.22,9.46.33-5.9.56-5.01,1.22-9.46Z"/>
  <path class="cls-6" d="M100.23,331.47c-5.01,5.68-15.48,5.9-22.49,9.46-6.01-14.92,18.26-24.16,22.49-9.46Z"/>
  <path class="cls-6" d="M105.02,340.93c-1.67,3.67-8.46,2.34-8.24-2.34,3.9-2.12,6.57-.89,8.24,2.34Z"/>
  <path class="cls-6" d="M96.67,346.83c-7.24,2.78-19.26.45-14.25,13.03h5.9c2.23-5.23,7.01-7.91,11.8-10.69,7.57,5.68,2.56,23.27,11.8,29.62-8.13,1.56-24.5-1.78-34.29,1.22-2.12-10.13-5.68-23.83-2.34-35.52,9.35-.11,18.15-7.46,21.38,2.34Z"/>
  <path class="cls-5" d="M129.85,359.86c-2.78,4.34-7.68,2.78-13.03,2.34,2.45-4.01,8.35-3.45,13.03-2.34Z"/>
  <path class="cls-6" d="M81.3,383.46c11.58.22,24.83-1.11,33.18,2.34-9.58,4.68-14.81,13.58-26.05,16.59-2.45-5.68-8.57-13.14-7.13-18.93Z"/>
  <path class="cls-4" d="M123.95,410.74c1.78.67,3.01,1.78,4.79,2.34-3.23,13.47-11.8,27.61-27.28,24.83,9.35-7.13,20.49-12.58,22.49-27.17Z"/>
  <path class="cls-5" d="M267.13,433.23c2.45,4.79-1.67,13.25-5.9,15.37-2.45-5.34,3.12-11.58,5.9-15.37Z"/>
  <path class="cls-6" d="M284.95,452.16c3.23,4.68-4.12,18.59-3.56,28.39-9.8,7.24-18.71,15.25-33.18,17.7-2.23-4.12-.45-12.14-3.56-15.37,2.89-6.24,5.9-12.25,13.03-14.25,2.12,1.56-1.89,6.9,1.22,9.46,5.9.78,7.46-2.89,8.24-7.13-.33-4.01-5.01-3.67-8.24-4.79,2.45-10.69,19.93-6.68,26.05-14.03Z"/>
  <path class="cls-6" d="M290.85,453.39c3.79,1.34,4.79,5.46,7.13,8.24-1.11,6.35-8.35,6.68-9.46,13.03-3.67-6.79,2.89-13.58,2.34-21.27Z"/>
  <path class="cls-6" d="M250.54,465.19c-.78,5.12-6.12,5.68-7.13,10.69-2.34-1.56-4.01-3.9-4.79-7.13,4.9-.33,6.01-4.45,11.91-3.56Z"/>
  <path class="cls-6" d="M234.07,472.32c7.46,5.23,7.46,17.81,9.46,28.39-9.58.56-18.04-.22-22.49-4.79-.22-12.36,7.57-16.92,13.03-23.6Z"/>
  <path class="cls-7" d="M318.02,31.96c-.45-2.89,2.12-2.56,1.22-5.9,4.23,2.89,6.35,7.79,9.46,11.8,1.45,1.89-7.13-5.01-10.69-5.9Z"/>
  <path class="cls-7" d="M374.91,40.19c7.24-4.45,10.47,5.34,16.59,5.9-3.79,4.9-8.68-7.24-16.59-5.9Z"/>
  <path class="cls-3" d="M306.22,42.64c-3.23,4.34-15.92,9.35-23.72,13.03,6.68-5.68,15.14-9.35,23.72-13.03Z"/>
  <path class="cls-3" d="M287.29,46.1c-29.62,16.81-59.12,36.08-85.18,59.23-8.13,7.24-20.15,15.25-24.83,22.49-4.23,6.68-9.58,17.37-18.93,23.72,5.01-8.8,16.26-19.71,16.59-20.15,27.28-33.07,64.91-72.26,112.34-85.29Z"/>
  <path class="cls-4" d="M334.61,0h10.69c12.36,2,17.37,15.92,10.69,27.28,4.23-.22,7.13.78,8.24,3.56,23.05-18.71,57.23,5.79,34.29,29.62,63.58,36.19,70.59,149.64,36.74,222.57,8.13-.33,20.38-8.57,27.28-2.34-4.57,4.12-14.81,2.56-20.15,5.9,5.68,3.01,18.04-.67,18.93,7.13-9.35.67-19.04-4.68-27.28-1.22,8.68,1.56,17.59,2.89,18.93,11.8-8.24-2.78-13.7-8.46-24.83-8.24,2.56,7.35,14.59,11.36,13.03,18.93-7.24.56-8.24-11.36-13.03-9.46,2.67,4.01,8.57,11.13,5.9,16.59-7.79-1.22-5.68-12.47-11.8-15.37-1.45,7.57-7.35,10.8-9.46,17.7,18.93,8.68,27.28,33.96,4.79,46.21-3.67,2-8.68,1.22-13.03,3.56-8.02,4.23-13.47,16.03-26.05,9.46-23.27,19.82-51.33,40.86-87.63,43.76,6.12,14.03,16.14,24.05,22.49,37.86-16.7,17.26-36.19,42.42-67.47,46.21-18.37,2.23-36.3-3.01-37.86-17.7-2.56-23.83,22.38-32.29,37.86-41.42-4.23-2.78-10.8-3.34-11.8-9.46-.11-4.01,8.91-2.67,4.79-7.13-.56-2.23-2.56-3.01-2.34-5.9-35.85-9.13-61.91-28.06-85.18-49.66-22.49,10.24-40.31,25.16-61.57,36.74-30.29-8.35-42.31-98.09-7.13-104.22,17.37-3.01,27.28,11.47,33.18,26.05,4.79-3.45,5.46,7.68,8.24,5.9-6.35-26.83-21.04-70.37-10.69-106.55-13.03-6.57-19.15,5.9-29.62,7.13-21.04,2.34-20.6-15.92-34.29-29.62v-10.69c11.02-3.12.33-14.14,5.9-21.27,3.56-4.57,8.13-3.45,18.93-4.79,6.01-57.56,7.01-112.57,10.69-168.13,7.35-4.79,22.71-6.35,29.62,0-5.34,48.66-5.23,90.08-9.46,142.07,12.47-.89,22.83,3.12,24.83,13.03,1.45,7.24-4.68,14.81-2.34,18.93C165.37,111.68,208.01,43.42,306.22,30.73c2.89-16.81,13.36-26.17,28.39-30.73ZM174.83,131.38c-.33.33-11.47,11.36-16.59,20.15,9.35-6.35,14.7-17.04,18.93-23.72,4.68-7.24,16.7-15.25,24.83-22.49,26.05-23.05,55.67-42.31,85.18-59.23-47.32,13.03-84.95,52.22-112.34,85.29ZM345.3,23.72c-1.67-5.46-10.69-9.8-15.37-8.24,6.46.78,10.13,9.8,15.37,8.24ZM96.67,43.76c2.89-4.79,3.23-15.48,3.56-26.05h-5.9c1.89,9.91-2.89,19.37,2.34,26.05ZM335.83,31.96c-4.45-2,2.56-2,2.34-3.56-4.57-1.78-9.69-9.24-14.25-7.13,5.57,1.34,6.46,13.25,11.91,10.69ZM328.71,37.86c-3.12-4.01-5.23-8.91-9.46-11.8,1,3.34-1.67,3.12-1.22,5.9,3.56.89,12.14,7.79,10.69,5.9ZM346.52,49.66c.89-3.45,7.57-12.36,2.34-14.25-3.56,2.56-9.69,11.47-2.34,14.25ZM357.1,47.32c.33-4.01,4.12-7.24,0-9.46,1.67,4.12-3.34,7.57,0,9.46ZM391.5,46.1c-6.12-.67-9.35-10.35-16.59-5.9,7.91-1.34,12.8,10.8,16.59,5.9ZM282.5,55.67c7.79-3.67,20.49-8.68,23.72-13.03-8.57,3.67-17.04,7.35-23.72,13.03ZM385.49,56.78c1.45-5.34-7.57-9.58-14.25-10.69,3.45,5.01,8.68,8.02,14.25,10.69ZM261.23,76.94c-37.08,28.17-77.49,54.89-102.99,89.96,46.54-40.19,98.65-81.28,145.64-117.13-14.92,7.57-29.06,16.81-42.64,27.17ZM250.54,99.43c-22.94,21.71-52.67,35.07-72.15,56.78,47.54-34.52,92.08-72.04,140.85-105.33-27.06,9.13-50.44,31.29-68.7,48.55ZM299.09,80.5c5.68-5.12,13.47-13.03,17.7-15.37,2.34-1.22,15.48-8.02,11.8-11.8-2.23,2.89-5.23,5.01-9.46,5.9-3.56,2.12,3.23,3.67,0,4.79-43.53,32.85-91.52,73.93-140.85,102.99-3.34,2-10.91,3.34-10.69,7.13,52.22-19.93,93.86-59.35,131.5-93.64ZM378.48,60.35c-4.45-.67-8.02-8.46-11.8-5.9,3.79,1.34,8.35,11.58,11.8,5.9ZM179.62,136.06c30.95-28.62,70.15-55.34,100.65-80.5-36.85,22.83-76.6,49.1-100.65,80.5ZM154.68,184.61c51.33-12.58,86.96-40.08,119.58-69.81,19.71-18.04,38.41-36.52,54.45-55.67-49.88,49.99-101.32,98.32-174.03,125.48ZM353.54,75.71c-.45-3.56,1.11-15.25-1.22-13.03.56,3.56-1.11,15.25,1.22,13.03ZM348.86,71.04c0-2.12,3.23-6.9,0-8.24,0,2-3.23,6.79,0,8.24ZM378.48,204.76c9.91,26.61,18.82,52.44,34.29,71.04-33.51-55.23-45.98-131.61-55.67-210.66,2.12,53.78,6.46,99.76,21.38,139.62ZM365.45,78.16c-2.56-2.56-.11-10.13-4.79-10.69,2,2.45,1.34,13.58,4.79,10.69ZM158.24,190.51c55.67-5.34,95.75-45.54,136.17-79.28,9.24-14.47,25.5-28.17,31.96-41.42-45.87,50.44-95.64,96.87-168.13,120.7ZM430.47,219.01c1.22,6.01-.11,14.59,5.9,18.93-10.47-61.24-22.49-121.14-47.32-168.13,17.7,43.53,31.29,100.32,41.42,149.2ZM405.64,98.2c12.47,34.74,28.73,81.95,31.96,123.14,4.57-6.9,4.68-17.04,3.56-24.83-3.45-24.61-13.58-46.54-21.27-69.81-7.79-23.38-13.7-43.87-23.72-56.78-1.45.22-3.34-.22-3.56,1.22,9.69,5.34,9.35,16.81,13.03,27.06ZM413.88,169.24c-5.23-25.39-12.92-52.55-20.15-75.71-2.23-7.24-5.01-16.92-10.69-20.15,12.25,30.06,20.38,64.24,30.84,95.87ZM295.53,75.71c-4.23-1.67-7.46,3.45-10.69,5.9-29.62,22.27-60.01,46.1-88.74,67.47,37.86-19.71,66.03-49.21,99.43-73.37ZM372.46,91.08c-1.45-6.35-.22-15.48-5.9-17.7,3.01,5.01,1.67,14.14,5.9,17.7ZM421.01,274.57c-10.13-73.49-24.38-142.85-49.66-201.2,19.82,63.8,34.52,132.72,49.66,201.2ZM340.51,88.74c3.67.33,4.01-13.36,2.34-10.69,0,4.34-1.78,6.9-2.34,10.69ZM353.54,79.28c-7.01,42.76,4.01,100.1,18.93,134.95,6.24,14.59,12.92,31.18,18.93,40.19,1.89,2.89,4.01,9.13,7.13,7.13-27.28-48.43-44.43-107.11-44.98-182.27ZM347.63,82.84c0-7.46-2,0-1.22,3.56-10.91,68.36,10.91,133.72,41.42,175.14,2.56,3.23,1.34,2.89,2.34,7.13,6.68,6.01,13.36,11.91,20.15,17.7-37.63-42.98-69.26-116.35-62.69-203.53ZM366.56,89.96c.11-3.67-.56-6.57-2.34-8.24.22,3.23-1,8.02,2.34,8.24ZM443.5,182.27c-6.68-34.52-18.04-70.15-29.62-95.87-1.45-.22-2.67-2.12-3.56,0,10.8,32.29,21.6,64.47,33.18,95.87ZM131.07,200.08c-4.79-5.9-16.81-4.45-23.72-8.24,2.89-9.02,19.71-27.95-2.34-28.39-2.89,16.48,2.34,37.08-4.79,54.45,4.45,11.36,21.6,5.57,29.62,8.24,0,1.22,1,1.45,1.22,2.34-18.37,33.18-3.9,90.97,9.46,118.36-1.56,6.35-10.02,5.79-14.25,9.46,5.34-1,7.35,1.34,8.24,4.79-1.67,5.79-8.24,6.68-16.59,5.9,2,4.68,2.67,10.8,8.24,11.8,7.24-.56,19.04-14.92,29.62-11.8,3.45,1,9.58,9.69,15.37,15.37,15.14,14.7,36.74,28.84,58.01,34.29,5.46,1.45,11.13.22,14.25,2.34,7.13,5.12,5.34,21.38,14.25,22.49,1.78-6.57,5.01-11.58,11.8-13.03,7.13,4.23-.11,14.81,1.22,18.93,4.45-3.01,11.13-3.79,13.03-9.46-3.56-5.46-7.68-10.47-7.13-20.15,35.96-3.01,61.8-16.37,81.73-35.52-14.59-.89-17.81-16.37-11.8-28.39-23.83-6.12-8.46-39.42,16.59-29.62.33-11.91-1.45-25.94,7.13-29.62,2.67,1.22,5.23,2.67,7.13,4.79-6.12,13.47,4.01,29.84-5.9,37.86-6.35-5.01-26.39-9.02-24.83,5.9,7.13,3.56,17.04-7.68,21.27,2.34-2.67,9.24-16.14,13.58-10.69,27.28,13.14,3.67,13.03-15.14,18.93-22.49,3.67-.11,6.57.56,8.24,2.34,2.23,9.91-5.79,15.14-2.34,22.49,14.92-.22,15.03-14.7,13.03-26.05,9.02-4.23,14.81,2.67,13.03,13.03,29.39-16.92-11.47-30.4-15.37-44.98,1.56-2.34,7.91-3.56,10.69-1.22,2.89-6.9,7.24-12.47,10.69-18.93-68.25-28.39-98.54-114.68-85.18-209.55-48.55,53.89-100.21,116.02-197.86,112.68ZM410.43,263.99c-18.71-53.89-30.4-114.79-44.98-172.8,9.02,63.47,20.38,124.82,44.98,172.8ZM194.98,100.65c-9.46,11.69,8.91-5.46,8.24-7.13-3.67,3.56-5.9,4.12-8.24,7.13ZM391.5,108.89c-.67-6.01-3.56-9.91-5.9-14.25,1.11,6.35,3.01,12.92,5.9,14.25ZM339.4,99.43c-1.56,16.48,4.23,2.23,1.22-3.56-.22,1.34.11,3.34-1.22,3.56ZM441.16,152.65c-1.67.67-2.89-4.57-3.56-1.22,3.67,1.11,2.89,6.57,5.9,8.24-.67-8.02-2.23-15.14-4.79-21.27-1.89,5.9,2,8.68,2.45,14.25ZM426.91,107.67c3.45,11.69,7.57,23.05,10.69,31.96.89-10.47-5.34-23.72-10.69-31.96ZM377.25,255.64c-21.49-37.75-39.97-85.4-37.86-139.62.89-3.79-1.45-9.02-1.22-2.34v11.8c-1.11,55.45,14.59,111.23,41.42,130.16h-2.34ZM409.21,246.18c-6.9-39.64-19.15-91.86-31.96-131.38,8.02,46.43,19.71,89.19,31.96,131.38ZM145.21,170.47c12.47-7.24,23.6-22.16,29.62-31.96-8.91,10.8-21.38,24.27-29.62,31.96ZM405.64,157.44c-.89-3.01-1.22-6.68-3.56-8.24,1,2.89-.33,8.13,3.56,8.24ZM184.3,157.44c2.34-1,6.79-3.34,11.8-7.13-6.9,2-18.93,10.24-11.8,7.13ZM423.46,254.53c.78,21.71,1.45-6.46,1.22-9.46-1.56-19.04-8.68-47.77-13.03-66.25-1.56-6.79-2.12-15.59-7.13-17.7,8.13,29.06,14.03,60.68,18.93,93.42ZM150,178.7c9.13-3.45,20.93-10.58,23.72-16.59-6.79,6.68-16.48,10.47-23.72,16.59ZM150,172.8c1.78,2.34-5.12,5.9-7.13,8.24,7.13-5.46,21.04-10.58,22.49-17.7-2.89,5.23-11.8,8.57-15.37,9.46ZM86.09,177.59c2.89-.45,2.56,2.12,5.9,1.22.45-4.68-1.11-11.36,1.22-14.25h-5.9c.11,4.79-2.12,7.35-1.22,13.03ZM151.12,184.61c.56,1.89-6.46,1.89-5.9,0,5.68-2.23,11.69-4.12,15.37-8.24-6.57,4.12-16.14,4.79-20.15,9.46,3.9-4.68.33,5.57,1.22,3.56.89-3.12,12.8-1.34,9.46-4.79ZM64.71,195.29c12.03,1,20.38-1.78,24.83-8.24-8.46-.67-25.72-4.12-24.83,8.24ZM150,190.51c-15.81-.22-3.56,4.01,3.56-1.22-1.67-.45-2.67,1.34-3.56,1.22ZM61.15,214.22c7.13,8.68,29.73,3.56,29.62-9.46-.78-3.45-34.63-2.67-29.62,9.46ZM426.91,219.01c-.45-3.01-2.12-5.23-3.56-9.46,0,9.69,5.68,21.49,3.56,9.46ZM70.73,229.59c2.89,8.8,19.93,4.57,20.15-3.56-4.45-1.22-13.81,2.89-20.15,3.56ZM429.36,233.15c-.22-1.56-1-3.12-2.34-5.9-1.22,13.36,4.45,19.15,2.34,5.9ZM430.47,257.98c-.45-3.56,1.11-15.25-1.22-13.03.56,3.56-1.11,15.37,1.22,13.03ZM410.43,278.13c-3.67-.67-7.35-12.58-8.24-8.24,3.23,1.45,3.23,12.36,8.24,8.24ZM419.9,285.26c5.23-.22,3.01-7.01,1.22-9.46-.78,4.45-1,3.56-1.22,9.46ZM77.74,340.93c7.01-3.56,17.48-3.79,22.49-9.46-4.23-14.7-28.5-5.46-22.49,9.46ZM96.67,338.48c-.11,4.68,6.57,6.01,8.24,2.34-1.56-3.12-4.23-4.34-8.24-2.34ZM75.4,344.38c-3.34,11.69.33,25.39,2.34,35.52,9.91-2.89,26.17.45,34.29-1.22-9.35-6.35-4.23-23.94-11.8-29.62-4.79,2.67-9.58,5.46-11.8,10.69h-5.9c-5.01-12.58,6.9-10.24,14.25-13.03-3.34-9.69-12.14-2.34-21.38-2.34ZM116.82,362.2c5.34.45,10.24,2,13.03-2.34-4.68-1.11-10.58-1.67-13.03,2.34ZM88.43,402.39c11.25-3.01,16.48-11.91,26.05-16.59-8.35-3.45-21.49-2.12-33.18-2.34-1.45,5.79,4.68,13.25,7.13,18.93ZM261.23,448.6c4.23-2.12,8.35-10.58,5.9-15.37-2.78,3.79-8.35,10.02-5.9,15.37ZM258.89,466.3c3.34,1,8.02.67,8.24,4.79-.89,4.23-2.34,7.91-8.24,7.13-3.12-2.67.89-7.91-1.22-9.46-7.13,1.89-10.13,8.02-13.03,14.25,3.12,3.23,1.34,11.25,3.56,15.37,14.47-2.56,23.38-10.58,33.18-17.7-.67-9.8,6.79-23.72,3.56-28.39-6.12,7.24-23.6,3.23-26.05,14.03ZM288.51,474.65c1.11-6.35,8.35-6.68,9.46-13.03-2.23-2.89-3.34-6.9-7.13-8.24.56,7.68-6.01,14.47-2.34,21.27ZM238.74,468.75c.78,3.23,2.34,5.57,4.79,7.13.89-5.01,6.35-5.46,7.13-10.69-6.01-.89-7.13,3.23-11.91,3.56ZM221.04,495.92c4.45,4.57,12.92,5.23,22.49,4.79-2-10.69-2-23.16-9.46-28.39-5.46,6.68-13.25,11.25-13.03,23.6Z"/>
  <path class="cls-3" d="M303.88,49.66c-46.99,35.85-98.98,77.05-145.64,117.24,25.5-35.07,65.91-61.8,102.99-89.96,13.58-10.35,27.72-19.6,42.64-27.28Z"/>
  <path class="cls-3" d="M319.24,50.88c-48.77,33.29-93.31,70.81-140.85,105.33,19.48-21.71,49.32-35.18,72.15-56.78,18.26-17.26,41.64-39.42,68.7-48.55Z"/>
  <path class="cls-3" d="M167.71,174.03c-.33-3.79,7.24-5.12,10.69-7.13,49.32-29.06,97.31-70.15,140.85-102.99,3.23-1.11-3.56-2.67,0-4.79,4.23-.89,7.24-3.01,9.46-5.9,3.67,3.79-9.58,10.58-11.8,11.8-4.34,2.34-12.14,10.24-17.7,15.37-37.75,34.4-79.39,73.82-131.5,93.64Z"/>
  <path class="cls-3" d="M280.16,55.67c-30.51,25.16-69.59,51.89-100.65,80.5,24.16-31.51,63.91-57.79,100.65-80.5Z"/>
  <path class="cls-3" d="M328.71,59.12c-16.03,19.15-34.74,37.63-54.45,55.67-32.51,29.73-68.25,57.34-119.58,69.81,72.71-27.17,124.15-75.49,174.03-125.48Z"/>
  <path class="cls-3" d="M357.1,65.14c9.69,79.16,22.05,155.43,55.67,210.66-15.48-18.48-24.38-44.31-34.29-71.04-14.92-39.86-19.26-85.85-21.38-139.62Z"/>
  <path class="cls-3" d="M326.37,69.81c-6.46,13.36-22.71,26.94-31.96,41.42-40.42,33.74-80.5,73.93-136.17,79.28,72.48-23.83,122.25-70.26,168.13-120.7Z"/>
  <path class="cls-3" d="M389.05,69.81c24.83,46.99,36.85,106.78,47.32,168.13-6.01-4.34-4.68-12.92-5.9-18.93-10.13-48.88-23.72-105.66-41.42-149.2Z"/>
  <path class="cls-3" d="M383.15,73.37c5.68,3.12,8.35,12.92,10.69,20.15,7.24,23.27,14.92,50.33,20.15,75.71-10.58-31.62-18.71-65.8-30.84-95.87Z"/>
  <path class="cls-3" d="M196.1,149.09c28.84-21.38,59.12-45.21,88.74-67.47,3.23-2.45,6.46-7.57,10.69-5.9-33.4,24.16-61.57,53.67-99.43,73.37Z"/>
  <path class="cls-3" d="M342.96,78.16c1.67-2.67,1.34,10.91-2.34,10.69.45-3.9,2.23-6.46,2.34-10.69Z"/>
  <path class="cls-3" d="M398.52,261.54c-3.01,2-5.23-4.23-7.13-7.13-6.01-9.13-12.69-25.61-18.93-40.19-14.92-34.85-25.94-92.19-18.93-134.95.56,75.16,17.7,133.83,44.98,182.27Z"/>
  <path class="cls-3" d="M410.43,286.48c-6.79-5.9-13.47-11.8-20.15-17.7-1-4.12.22-3.9-2.34-7.13-30.51-41.42-52.33-106.89-41.42-175.14-.78-3.56,1.11-11.02,1.22-3.56-6.68,87.07,24.94,160.44,62.69,203.53Z"/>
  <path class="cls-3" d="M365.45,91.08c14.59,58.12,26.28,119.03,44.98,172.8-24.61-47.88-35.96-109.23-44.98-172.8Z"/>
  <path class="cls-3" d="M203.22,93.53c.67,1.67-17.81,18.82-8.24,7.13,2.34-3.01,4.57-3.56,8.24-7.13Z"/>
  <path class="cls-3" d="M438.82,138.51c2.56,6.12,4.01,13.25,4.79,21.27-3.01-1.78-2.34-7.13-5.9-8.24.67-3.45,1.89,1.78,3.56,1.22-.56-5.68-4.45-8.46-2.45-14.25Z"/>
  <path class="cls-3" d="M379.59,255.64c-26.94-19.04-42.53-74.82-41.42-130.16v-11.8c-.22-6.57,2.12-1.45,1.22,2.34-2.12,54.34,16.37,101.88,37.86,139.62h2.34Z"/>
  <path class="cls-3" d="M377.25,114.79c12.8,39.53,25.05,91.75,31.96,131.38-12.25-42.2-23.94-84.95-31.96-131.38Z"/>
  <path class="cls-3" d="M174.83,138.51c-6.01,9.8-17.15,24.72-29.62,31.96,8.24-7.68,20.71-21.16,29.62-31.96Z"/>
  <path class="cls-3" d="M196.1,150.31c-5.01,3.79-9.58,6.12-11.8,7.13-7.13,3.12,4.9-5.12,11.8-7.13Z"/>
  <path class="cls-3" d="M173.61,162.11c-2.67,6.01-14.59,13.03-23.72,16.59,7.35-6.12,17.04-9.91,23.72-16.59Z"/>
  <path class="cls-3" d="M165.37,163.34c-1.45,7.24-15.37,12.25-22.49,17.7,2-2.34,8.91-6.01,7.13-8.24,3.56-.89,12.47-4.23,15.37-9.46Z"/>
  <path class="cls-3" d="M141.65,189.39c-.89,2,2.67-8.24-1.22-3.56,3.9-4.68,13.58-5.34,20.15-9.46-3.79,4.12-9.69,6.12-15.37,8.24-.56,1.89,6.46,1.89,5.9,0,3.34,3.45-8.57,1.67-9.46,4.79Z"/>
  <path class="cls-3" d="M423.46,209.55c1.45,4.23,3.01,6.57,3.56,9.46,2,12.03-3.67.22-3.56-9.46Z"/>
  <path class="cls-3" d="M402.08,269.89c1-4.34,4.57,7.68,8.24,8.24-4.9,4.12-4.9-6.79-8.24-8.24Z"/>
  <path class="cls-5" d="M328.71,87.63c-13.25,94.75,17.04,181.04,85.18,209.44-3.45,6.46-7.68,12.02-10.69,18.93-2.78-2.34-9.13-1.22-10.69,1.22,3.9,14.59,44.87,28.06,15.37,44.98,1.78-10.35-4.01-17.26-13.03-13.03,2,11.36,1.89,25.83-13.03,26.05-3.45-7.35,4.57-12.58,2.34-22.49-1.67-1.78-4.57-2.45-8.24-2.34-5.9,7.35-5.79,26.17-18.93,22.49-5.57-13.58,7.91-17.93,10.69-27.28-4.23-10.02-14.14,1.11-21.27-2.34-1.56-14.92,18.48-10.91,24.83-5.9,10.02-8.02-.22-24.38,5.9-37.86-1.89-2-4.45-3.45-7.13-4.79-8.57,3.67-6.79,17.7-7.13,29.62-25.05-9.8-40.31,23.49-16.59,29.62-6.01,12.14-2.67,27.5,11.8,28.39-19.93,19.15-45.65,32.51-81.73,35.52-.56,9.69,3.45,14.7,7.13,20.15-1.89,5.68-8.57,6.46-13.03,9.46-1.34-4.12,5.9-14.7-1.22-18.93-6.79,1.45-10.02,6.46-11.8,13.03-8.8-1.11-7.01-17.37-14.25-22.49-3.01-2.12-8.8-1-14.25-2.34-21.27-5.46-42.87-19.6-58.01-34.29-5.9-5.68-11.91-14.36-15.37-15.37-10.58-3.12-22.38,11.25-29.62,11.8-5.68-1.11-6.35-7.13-8.24-11.8,8.35.78,14.81-.11,16.59-5.9-.89-3.45-2.89-5.79-8.24-4.79,4.23-3.67,12.58-3.12,14.25-9.46-13.36-27.5-27.84-85.18-9.46-118.36-.22-1-1.22-1.22-1.22-2.34-8.02-2.78-25.16,3.12-29.62-8.24,7.13-17.37,1.89-37.97,4.79-54.45,22.05.45,5.23,19.37,2.34,28.39,6.9,3.79,18.93,2.34,23.72,8.24,97.87,3.23,149.53-58.9,197.86-112.57ZM251.77,191.73c14.25,11.58,32.85-11.25,21.27-24.83-15.14-4.79-25.83,9.91-21.27,24.83ZM318.02,181.04c-7.57-12.69-30.84,1.34-27.28,20.15,11.13,17.81,36.97-3.9,27.28-20.15ZM216.25,205.98c.67,3.23,1.22,6.68,5.9,5.9,1-1.34,1.56-3.12,1.22-5.9-2.78-.45-4.9-2.34-7.13,0ZM247.09,224.91c-3.23,27.61,43.98,28.06,41.42,1.22-.89-9.8-8.57-16.14-21.27-15.37-11.8.67-19.04,4.68-20.15,14.14ZM209.12,220.12c.33-4.68-2.23-6.46-7.13-5.9-1.22,5.57,3.56,8.91,7.13,5.9ZM216.25,219.01c2.34,1.22,1.89,5.23,5.9,4.79.22-.89,1-1.34,2.34-1.22.45-4.79-1.22-7.46-5.9-7.13-.22,1.67-1.89,2-2.34,3.56ZM204.45,228.48c-.45,4.45,5.34,6.12,8.24,3.56,2.23-7.01-7.46-9.8-8.24-3.56ZM218.59,232.04c2.23.56,3.01,2.56,5.9,2.34,0-2.34,3.23-1.56,2.34-4.79-1-2.56-2.89-4.23-7.13-3.56-.89,1.45-1.45,3.23-1.11,6.01ZM302.65,228.48c-1.11,5.34,5.01,7.46,8.24,4.79,1.22-5.46-4.9-7.57-8.24-4.79ZM322.81,237.94c-1.11,5.46,2.45,6.24,7.13,5.9,0-2.78,2-3.45,1.22-7.13-3.23,0-6.79-.45-8.35,1.22ZM309.78,242.62c-1.67,7.35,9.91,7.79,9.46,1.22-1.56-2.12-6.9-3.67-9.46-1.22ZM295.53,249.74c2.67.56,6.01,2.34,8.24,0,2.23-8.46-10.8-9.58-8.24,0ZM324.03,247.4c-2,2.89,1.34,8.24,7.13,7.13-.45-2.89,2.12-2.56,1.22-5.9-2.45-1.22-5.79-3.9-8.35-1.22ZM306.22,254.53c-.67,5.34,1.78,7.68,7.13,7.13.56-1.45,1.22-2.67,2.34-3.56-.78-5.46-6.01-6.9-9.46-3.56ZM202.11,275.8c5.34,3.12,8.8-1,13.03-2.34,3.67,23.72-9.8,32.51-7.13,52.11,5.12,36.63,57.45,31.96,66.25,3.56,2.34-7.57.33-19.71,3.56-29.62-.11.45,7.35-15.37,10.69-15.37,1.78,0-.67,5.9,5.9,3.56,2.45-11.13-11.47-15.03-21.27-17.7-1.22,5.12,2.45,5.46,3.56,8.24-10.02,6.12-17.04,15.37-34.29,14.25-8.57-5.23-12.92-14.7-17.7-23.72,4.23.33,8.24.33,7.13-4.79-10.8-5.34-28.39.22-29.73,11.8Z"/>
</svg>