<?xml version="1.0" encoding="UTF-8"?>
<svg id="Layer_1" data-name="Layer 1" xmlns="http://www.w3.org/2000/svg" viewBox="0 0 512 512">
  <defs>
    <style>
      .cls-1 {
        fill: #1c1c1c;
      }

      .cls-2 {
        fill: #b19217;
      }
    </style>
  </defs>
  <g id="kfS8v2">
    <g>
      <path class="cls-1" d="M210.68,19.39c2.96-1.42,4.7-.2,6.44.8,5.44,3.12,10.72,6.73,14.31,11.77,4.49,6.3,9.86,7.08,16.77,4.66-3.78-10.98-9.98-20.78-17.52-30.42,5.19-.09,7.38,3.01,9.28,6.3,3.96,6.86,8.13,13.64,11.53,20.78,2.02,4.25,5.15,3.22,8.23,3.12,3.34-.11,2.17-3.01,2.42-4.77,1.46-10.19,6.24-19.3,9.2-29,.47-1.55,1.71-3.26,3.33-2.42,2.11,1.1,1.26,3.46.32,4.96-4.57,7.33-5.91,15.72-7.93,23.86-.57,2.3-2.76,5.55,1.24,7.03,4.28,1.58,9.69-.13,11.13-3.25,3.97-8.63,8.93-16.71,13.79-24.84.35-.59.71-1.18,1.12-1.74,1.05-1.45,2.52-3.13,4.22-2.02,2.11,1.38.12,3.26-.76,4.32-5.79,6.97-9.28,15.25-13.45,23.14-.64,1.21-2.8,3.14-.48,4.33,1.63.83,3.72.79,5.56-1.17,6.13-6.56,12.61-12.77,20.84-16.79,6.05-2.95,12.39-4.15,19.07-3.58,1.49.13,3.58.26,3.29,2.31-.25,1.78-2.16,1.13-3.45,1.01-15.78-1.41-25.86,8.05-36.56,18.85,10.57,2.05,20.11,3.72,29.47,6.25,30.6,8.27,54.46,27.08,73.84,50.86,27.31,33.5,42.19,72.75,46.87,115.77.2,1.88.23,3.79.17,5.69-.11,3.25,1.16,5.73,3.97,7.32,3.27,1.85,5.88,4.64,8.79,6.72,10.96,7.84,12.07,19.59,13.59,31.05,2.93,22.2-13.93,41.48-31.26,50.54-3.37,1.76-4.99,3.84-6.24,7.27-10.73,29.51-26.05,55.94-51.81,75.09-19.79,14.72-42.06,22.66-66.72,23.53-3.65.13-4.62,1.33-4.67,4.78-.14,8.8.62,17.62-.43,26.41-.42,3.53,2.48,2.7,4.24,2.92,10.82,1.33,21.42,3.52,31.64,7.38,5.18,1.96,10.28,4.15,14.37,8,11.56,10.91,7.94,30.32-7.07,37.64-11.03,5.38-22.87,4.86-34.57,3.72-18.23-1.77-36.11-5.44-53.37-11.74-3.06-1.12-5.24.52-7.77,1.55-23.63,9.59-47.66,17.48-73.7,13.6-8.38-1.25-16.33-4.36-22.94-10.04-6.26-5.38-6.82-11.1-1.8-17.67,5.75-7.52,13.66-12.05,22.13-15.7,10.96-4.73,22.35-8.05,34.23-9.42,2.8-.32,3.7-1.15,3.37-4.23-1.05-9.78-1.82-19.6-2.34-29.42-.16-2.98-1.73-3.22-3.87-3.62-13.04-2.44-25.83-5.92-38.63-9.42-17.5-4.78-31.56-15.3-44.68-27.12-18.09-16.3-33.43-34.84-43.92-57.06-2.07-4.39-3.54-8.98-4.71-13.65-.45-1.8-.76-3.19-2.97-3.57-25.87-4.51-39.87-25.91-30.65-56.82,4.04-13.53,11.56-24.2,24.46-30.5,3.21-1.57,2.42-4.33,2.59-6.69,1.8-25.96,8.88-50.58,20.07-73.87,9.11-18.97,19.47-37.34,34.33-52.68,11.14-11.5,24.03-20.59,37.72-28.83,17.47-10.51,35.85-18.21,56.18-20.84,2.22-.29,4.46-.65,6.69-.64,4.77.03,4.25-1.87,2.07-4.83-3.15-4.26-7.35-7.25-11.62-10.2-2.21-1.52-4.42-3.02-6.99-4.79Z"/>
      <path class="cls-2" d="M269.73,47.67c22.79-.5,45.21,1.94,65.78,12.32,24.94,12.58,44.99,30.63,59.98,54.67,12.25,19.64,22,40.05,27.59,62.51,6.58,26.49,8.35,53.26,6.21,80.43-1.76,22.37-5.1,44.34-13.65,65.27-9.47,23.18-22.61,44.1-41.79,60.23-13.42,11.29-29.04,19.56-46.91,22.26-7.84,1.19-15.74,1.69-23.66,2.09-6.66.34-8.17,2.35-8.09,9.06.14,12.06,1.09,24.14-.82,36.16-.83,5.21,2.25,9,7.82,8.82,15.84-.52,31.37,1.11,45.05,10.29,5.65,3.79,7.12,9.9,3.5,15.22-3.41,5-8.16,8.24-14.18,9.61-7.12,1.63-14.06-.07-20.97-1.12-13.9-2.12-27.89-3.79-41.38-8.13-5.37-1.73-8.02-4.11-8.17-10.46-.47-18.73-5.04-37.2-3.81-56.09.31-4.7-2.36-6.29-6.82-6.24-4.7.05-5.7,2.51-5.74,6.63-.13,15.72,1.42,31.31,2.91,46.92.44,4.63.2,9.32.49,13.97.16,2.45-1.28,3.3-3.08,4.14-19.74,9.26-40.16,15.41-62.29,13.44-6.01-.54-11.76-2.29-17.27-4.89-2.55-1.21-2.81-2.52-1.54-4.81,1.75-3.15,4.39-5.32,7.41-7.03,12.5-7.07,25.44-13,39.83-15.11,2.41-.35,4.77-.04,7.19.29,5.31.71,7.54-1.29,6.63-6.59-2.31-13.45-3.51-26.92-3.17-40.58.13-5.23-6.89-10.02-14.77-11.46-16.61-3.04-32.85-7.29-48.18-14.65-15.96-7.67-28.03-20.02-39.61-32.83-10.05-11.12-19.64-22.62-26.44-36.26-7.35-14.73-10.2-30.57-12.81-46.49-2.66-16.24-2.47-32.66-1.04-48.99,3.42-38.9,13.69-75.5,34.77-109.01,10.42-16.57,22.76-31.24,38.48-42.09,20.36-14.05,42.04-26.1,67.73-28.56,14.93-1.43,29.8-3.08,44.82-2.91Z"/>
      <path class="cls-2" d="M70.15,233.26c0,3.01.22,5.54-.04,8.02-1.9,18.13,0,36.02,3.78,53.72.96,4.49-1,3.91-3.62,3.11-6.76-2.08-11.1-6.79-13.36-13.31-5.72-16.46-2.64-31.73,6.72-46,1.45-2.22,3.29-4.31,6.53-5.53Z"/>
      <path class="cls-2" d="M443.27,234.08c17.16,7.09,23.13,41.77-5.54,63.89,3.4-21.75,7.62-42.21,5.54-63.89Z"/>
      <path class="cls-1" d="M318.14,147.82c0,12.36-9,25.07-19.76,27.91-7.45,1.96-16.18-2.61-17.97-9.82-3.1-12.44-.96-23.93,7.57-33.73,5.57-6.4,13.32-8.7,19.41-5.95,7.41,3.34,10.2,9.77,10.74,17.45.1,1.37.01,2.76.01,4.14Z"/>
      <path class="cls-1" d="M258.27,243.66c-3.7.34-7.23-.32-10.6-1.71-14.44-5.95-17.84-22.28-8.14-35.56,11.04-15.12,31.04-15.98,43.45-6.3,8.24,6.43,10.38,16.94,5.69,26.28-6.35,12.66-17.22,16.91-30.39,17.28Z"/>
      <path class="cls-1" d="M249.95,143.95c.07,8.63-1.76,15.5-6.83,21.51-5.84,6.93-10.63,8.77-18.91,6.3-7.56-2.25-11.7-6.96-11.64-15.56.07-10.31,4.19-19.43,11.79-26.46,3.96-3.66,9.67-5.23,14.43-2.53,6.55,3.71,13.19,8.27,11.17,16.74Z"/>
      <path class="cls-1" d="M266.59,296.47c-.09,8.67-7.03,16.75-14.35,16.7-5.6-.04-9.74-4.21-9.72-9.81.02-8.34,7.41-15.95,15.5-15.95,5.94,0,8.65,2.86,8.58,9.06Z"/>
      <path class="cls-2" d="M257.58,233.26c-9.85-.03-14.3-6.1-10.97-16.79,4.24-13.61,20.04-18.51,29.39-9.13,5.38,5.4,5.43,13.55.06,18.94-4.72,4.73-10.38,7.23-18.49,6.98Z"/>
    </g>
  </g>
</svg>