<?xml version="1.0" encoding="UTF-8"?>
<svg id="Layer_1" data-name="Layer 1" xmlns="http://www.w3.org/2000/svg" viewBox="0 0 512 512">
  <defs>
    <style>
      .cls-1 {
        fill: #e87200;
      }

      .cls-1, .cls-2, .cls-3, .cls-4 {
        fill-rule: evenodd;
      }

      .cls-2 {
        fill: #fff;
      }

      .cls-3 {
        fill: #212121;
      }

      .cls-4 {
        fill: #ffd100;
      }

      .cls-5 {
        fill: #0033a1;
      }
    </style>
  </defs>
  <path class="cls-3" d="M296.38,53.04c6.31-.65,11.98-3.59,17.75-6.42,3.37-1.74,5.55-4.79,11.65-3.81,1.2,1.63,2.83,1.85,3.05,3.81.98,8.27-14.04,8.49-17.31,13.61,19.27,2.83,34.73,8.6,50.08,17.75,7.95,4.68,16.11,8.82,22.97,13.93,14.15,10.56,27,22.21,37.99,36.14,5.33,6.64,10.23,14.37,15.46,21.88,5.23,7.51,11,14.59,14.26,22.64,3.48,8.49,6.31,18.18,8.27,28.63,1.85,10.23,5.01,21.12,5.66,31.24.33,5.55-.22,11.54,0,17.31.76,17.2-1.63,33.42-5.66,49.75-1.85,7.4-3.27,15.02-5.66,21.45-1.42,3.92-3.81,7.51-5.23,11.65-3.48,10.02-8.6,19.16-14.26,27.54-5.23,7.73-13.72,15.57-21.12,22.21-12.08,10.89-26.13,20.25-41.04,28.31-5.66,3.05-10.89,5.66-17.75,8.27-1.96.76-3.81,2.4-5.66,3.05-3.48,1.2-7.51,1.63-11.32,3.05-3.48,1.2-7.08,2.61-10.56,3.37-5.55,1.31-11.32.98-16.98,2.29-4.25.87-8.27,3.48-12.41,3.81-.76,5.01-.76,11.1-.76,17.75,5.55,4.14,14.91,4.46,22.97,5.99,10.67,3.81,21.66,6.64,31.68,11.65,4.46,2.18,10.02,5.23,12.41,7.95,7.51,8.38-2.07,19.7-9.8,22.64-19.27,7.4-56.72,6.97-75.01-.33-4.57.44-8.82-1.63-13.93-1.09-2.18.22-4.46,1.52-6.75,2.29-8.16,2.4-18.29,4.79-26.78,6.75-19.16,4.57-42.57,7.29-56.94-4.57-2.4-3.59-3.48-9.14-2.29-13.61,5.77-11.54,18.18-14.26,32.01-19.16,11.1-4.03,21.66-4.9,34.29-6.75-1.2-10.23-2.4-20.47-3.05-29.39-12.52-3.92-24.82-4.35-36.14-7.19-32.77-8.16-62.82-19.92-85.9-37.99-17.53-13.83-36.47-29.94-47.79-50.51-6.42-11.54-12.08-23.62-15.02-38.76-.54-2.5-.54-5.23-1.09-7.95-2.07-10.12-4.46-21.56-4.9-33.86-1.2-32.22,6.1-61.73,18.51-83.61,3.27-5.77,6.53-10.89,9.8-16.22,9.58-15.79,23.95-27.33,35.82-41.8,27.54-23.3,60.09-41.59,100.92-51.6-2.61-2.61-6.53-3.48-10.56-5.66-2.83-1.52-8.49-4.57-7.19-8.27.87-2.5,4.68-2.94,8.27-2.29,2.29.44,3.81,2.5,5.99,3.81,3.81,2.18,7.95,3.7,12.41,4.14C226.38,27.13,235.64-.95,271.02.02c8.38.22,18.51,5.23,21.88,10.56,1.31,2.07,2.29,5.77,3.37,8.71,3.92,9.91,2.29,22.21.11,33.75h0ZM281.69,12.76c-2.5-2.18-8.38-3.48-12.41-3.37-17.2.54-28.2,13.93-31.68,26.78,15.13,3.81,32.55,2.29,48.55-1.52,3.59-5.33-1.96-19.7-4.46-21.88h0ZM234.98,46.62c-1.96,3.05-3.05,7.08-3.37,11.65,13.61,3.92,37.56,2.72,51.6-.76,1.09-3.7,2.4-7.19,2.61-11.65-16.44.76-32.88,2.83-50.84.76h0ZM355.82,482.84c-.44-2.4-5.66-5.12-9.47-7.19-9.25-5.12-20.47-7.62-31.68-10.12-2.61-.54-4.57-1.63-6.75-1.85-3.05-.33-6.42.33-8.71,0-4.25-.65-12.85-4.03-13.61-7.51-.44-1.96.87-5.33,1.09-8.27.22-3.05.33-5.99.33-9.04,0-4.25-.87-15.02,1.85-17.31,3.92-3.27,10.34.54,13.93.76,8.49.54,19.49-2.72,28.31-5.23,18.51-5.33,29.39-11,43.66-19.92,18.07-11.32,36.58-24.71,48.55-40.28,8.82-11.54,14.81-24.71,19.92-40.28,5.23-15.79,9.58-32.77,10.89-49.75.98-11.87.54-25.04-.76-37.34-1.63-15.89-5.12-34.62-10.12-48.23-2.29-6.31-6.31-14.48-10.12-20.36-1.09-1.74-2.94-2.83-4.14-4.57-1.2-1.74-1.85-3.81-3.05-5.66-2.18-3.27-5.12-6.42-7.51-9.8-7.51-10.67-16-19.16-24.82-27.54-12.19-11.54-25.58-21.12-41.04-28.96-11.32-5.77-26.02-12.3-40.28-13.93-9.04-1.09-18.29.76-27.87-3.05-1.85,0-5.66.76-8.27,1.09-2.29.33-4.46,1.2-6.75,1.52-8.16.98-18.07-.22-26.02-.33-2.72-.11-5.99-.65-8.27-.33-1.74.22-3.48,1.85-5.23,2.29-9.58,2.18-20.9,2.61-30.48,5.99-4.68,1.63-9.47,3.92-14.37,5.66-25.04,9.04-45.83,22.43-64.01,37.67-6.97,5.88-13.5,13.61-19.92,20.68-9.69,10.67-18.18,22.1-25.26,35.38-2.4,4.57-5.33,8.49-7.19,13.17-7.73,19.92-12.63,42.35-11.87,67.82.33,9.8,2.29,22.1,3.81,29.72.65,3.27,1.63,6.64,2.29,9.8,9.69,47.57,41.59,71.52,74.57,96.02,28.09,13.17,63.36,27.22,99.83,29.72,3.27.22,7.4-.44,9.04,1.09,1.09,1.09,1.31,6.31,1.52,8.71.76,10.56.65,21.34,2.61,29.39.54,2.4,2.4,3.59,2.29,5.99-.11,2.18-2.29,4.14-3.81,5.23-6.31-2.83-15.35-.54-21.12.76-10.45,2.5-23.52,5.44-30.92,9.47-4.03,2.18-11.65,5.33-12.08,9.47-.65,6.97,9.8,8.82,16.98,9.04,13.83.54,30.59-4.25,42.57-7.95,6.97-2.18,14.15-2.94,19.92-6.42-3.59-16.77-2.61-37.78-2.29-53.89.11-4.03.65-7.95,2.29-10.89,2.83-.76,7.4-.11,9.04,2.61,1.74,2.94,0,10.78-.33,15.79-1.2,17.64-.65,36.47,3.81,47.47,20.47,9.04,51.49,8.49,74.25,1.85,1.85-2.61,5.66-3.27,4.79-8.16h0Z"/>
  <path class="cls-4" d="M286.15,34.64c-16,3.81-33.42,5.33-48.55,1.52,3.37-12.74,14.48-26.13,31.68-26.78,4.14-.11,9.91,1.2,12.41,3.37,2.5,2.18,8.06,16.55,4.46,21.88h0Z"/>
  <path class="cls-2" d="M285.82,45.86c-.33,4.46-1.63,7.95-2.61,11.65-14.04,3.48-37.99,4.68-51.6.76.44-4.68,1.42-8.71,3.37-11.65,17.96,2.07,34.4,0,50.84-.76h0ZM234.98,47.38c-1.2,3.27-2.83,7.4-2.61,10.89,17.31,2.94,33.86,2.18,50.08-1.09,1.2-3.27,2.4-6.64,2.61-10.89-15.79,1.63-33.1,2.72-50.08,1.09h0Z"/>
  <path class="cls-1" d="M350.92,491.12c-22.75,6.64-53.78,7.19-74.25-1.85-4.46-11-4.9-29.83-3.81-47.47.33-5.12,2.07-12.96.33-15.79-1.63-2.72-6.21-3.48-9.04-2.61-1.63,2.94-2.18,6.86-2.29,10.89-.33,16.11-1.31,37.12,2.29,53.89-5.88,3.48-13.06,4.25-19.92,6.42-11.98,3.7-28.74,8.38-42.57,7.95-7.19-.22-17.64-2.07-16.98-9.04.44-4.14,7.95-7.19,12.08-9.47,7.4-4.03,20.36-6.97,30.92-9.47,5.66-1.31,14.81-3.59,21.12-.76,1.52-1.09,3.59-3.16,3.81-5.23.11-2.4-1.63-3.7-2.29-5.99-1.96-7.95-1.85-18.72-2.61-29.39-.22-2.4-.33-7.51-1.52-8.71-1.63-1.63-5.77-.87-9.04-1.09-36.47-2.5-71.74-16.55-99.83-29.72-32.99-24.6-64.78-48.55-74.57-96.13-.65-3.16-1.63-6.53-2.29-9.8-1.42-7.73-3.48-19.92-3.81-29.72-.76-25.47,4.14-47.79,12.08-67.82,1.85-4.68,4.79-8.6,7.19-13.17,7.08-13.28,15.57-24.71,25.26-35.38,6.42-7.08,12.96-14.81,19.92-20.68,18.18-15.24,39.08-28.63,64.01-37.67,4.9-1.74,9.58-4.03,14.37-5.66,9.69-3.37,21.01-3.81,30.48-5.99,1.74-.44,3.48-1.96,5.23-2.29,2.29-.33,5.55.33,8.27.33,7.95.22,17.85,1.42,26.02.33,2.29-.33,4.46-1.2,6.75-1.52,2.61-.44,6.42-1.2,8.27-1.09,9.58,3.7,18.94,1.96,27.87,3.05,14.37,1.63,28.96,8.16,40.28,13.93,15.46,7.95,28.85,17.42,41.04,28.96,8.82,8.38,17.31,16.77,24.82,27.54,2.4,3.37,5.33,6.42,7.51,9.8,1.2,1.85,1.74,3.92,3.05,5.66,1.2,1.74,3.05,2.83,4.14,4.57,3.92,5.88,7.84,14.04,10.12,20.36,5.01,13.61,8.49,32.33,10.12,48.23,1.31,12.3,1.63,25.37.76,37.34-1.31,16.98-5.77,33.97-10.89,49.75-5.12,15.57-11.1,28.74-19.92,40.28-11.98,15.57-30.59,28.96-48.55,40.28-14.26,9.04-25.15,14.7-43.66,19.92-8.82,2.5-19.81,5.77-28.31,5.23-3.59-.22-10.02-4.03-13.93-.76-2.72,2.29-1.85,13.06-1.85,17.31,0,3.05-.11,5.99-.33,9.04-.22,2.94-1.52,6.31-1.09,8.27.76,3.48,9.36,6.97,13.61,7.51,2.29.33,5.55-.33,8.71,0,2.18.22,4.25,1.31,6.75,1.85,11.21,2.61,22.32,5.12,31.68,10.12,3.7,2.07,9.04,4.79,9.47,7.19.76,4.9-3.05,5.55-5.01,8.27h0ZM201.78,131.1c-3.48,4.9-7.51,13.72-7.95,20.68-.33,6.53,1.31,12.74,4.57,18.51,2.61,1.52,3.37,3.7,5.66,4.9,9.47,5.12,18.94,1.42,25.58-3.81,10.34-8.16,19.38-23.41,12.85-39.19-1.85-4.46-5.01-7.4-9.04-9.47-4.9-2.61-10.23-2.72-16.22-2.61-1.96,5.33-12.08,6.1-15.46,11h0ZM273.41,168.77c4.79,15.35,24.6,18.29,36.58,8.27,15.13-12.52,17.85-47.36-4.14-53.13-2.18-.54-4.9-.65-7.19-.33-9.69,1.09-12.41,6.1-18.83,10.56-4.9,8.06-9.47,24.93-6.42,34.62h0ZM126.12,147.21c-3.05,16-5.23,33.75-3.81,50.51,1.09,12.41,3.81,22.75,6.42,32.77,2.94,11.65,8.49,21.56,12.41,31.68,3.7,3.05,5.88,7.62,7.51,12.85-1.52.33-3.48-.44-5.66,0-3.27.65-10.78,5.12-12.85,7.51-3.81,4.57-.54,7.84.76,13.17,4.79,4.57,10.78,8.82,18.51,10.56,2.29.54,5.44-.33,7.19,1.85-.11,6.97-3.37,14.15-1.85,20.36,11.43,6.31,10.02-6.75,11.65-18.07.65-4.9,2.18-7.73,0-10.89-2.94-2.83-6.42,0-10.56.33-8.16.87-17.96-4.57-16.22-12.41,2.5-1.09,5.12-1.85,7.51-3.05,3.81,1.96,6.97,2.07,10.56,3.81,4.46,2.18,6.86,7.73,13.93,7.19.98-1.09,2.29-1.74,3.05-3.05.22-5.55-2.72-6.64-3.37-12.08-.87-6.64,0-18.83,5.99-18.07,1.85.22,4.03,3.81,4.46,5.23,2.61,7.4.54,18.4,1.09,25.58,2.61.65,4.9,2.83,8.27,1.52,3.59-5.44,5.01-15.68,11.65-19.16,7.62-4.03,13.5,1.96,10.12,10.89-2.4,2.18-4.57,3.48-7.95,5.66-1.42.98-7.4,3.48-7.19,6.75.22,3.16,4.68,4.46,7.95,4.14,3.48-.44,6.31-4.14,9.8-3.81,4.14.44,6.97,4.03,7.51,7.51,1.63,10.78-14.04,12.41-22.64,9.8-2.29-.65-3.92-3.05-5.66-3.37-2.94-.54-7.08,1.2-7.51,3.05-.33,1.2.98,3.92,1.09,5.66.76,6.31-4.25,24.39.33,27.54,2.29,1.63,5.88.54,8.27-1.09,2.18-7.95.11-17.09,3.37-24.49,8.6.11,20.58,1.31,27.11-3.37,9.91,4.46,20.25,4.9,32.44,4.14,1.96-.11,4.35-1.2,6.42-.76,2.4.54,3.48,3.48,5.99,4.57,8.71,3.7,16.77-1.09,24.06-3.37,1.2,5.44.98,13.83,1.09,19.16,1.42,2.5,5.12,2.72,9.04,2.61,3.92-7.73.54-18.94,1.09-28.63.11-2.5.98-5.23.33-6.42-.98-2.07-3.92-2.72-7.19-1.85-3.92.98-5.99,5.12-10.12,7.51-4.57,2.61-10.56,5.33-13.93,1.85-3.7-7.73,6.53-13.06,11.65-14.26,6.42-1.52,19.81,3.27,18.83-5.23-.54-4.79-6.42-3.37-11.32-5.23-3.7-1.42-7.84-5.12-7.19-10.12.98-6.75,9.14-4.35,13.17-1.85,3.92,2.5,5.44,5.55,7.95,9.47,4.9,2.29,10.67,2.4,10.12-3.37-.22-2.61-3.7-4.57-4.57-8.27-1.74-7.4.33-13.06,4.14-17.75,6.64,2.83,8.27,10.67,7.51,18.83-.33,4.35-3.37,8.71-.33,12.08,1.85.44,5.44,1.52,7.95.33,1.2-.54,2.07-2.61,3.37-3.37,4.9-3.16,20.25-5.66,25.26-1.52,1.31,2.72.87,5.55,0,8.71-4.9,4.03-11.65,8.6-19.6,6.75-2.4-.54-4.14-2.5-6.42-2.61-2.83-.22-6.97,1.42-7.51,3.81-.44,1.96.98,4.9,1.09,6.42.76,7.08-1.63,15.46-.33,22.64,2.4,1.85,6.64,1.74,9.04,0,2.07-5.99.33-15.35,1.85-21.12,13.39.76,33.2-4.68,33.86-18.83.33-6.42-4.14-11.43-7.95-14.26,1.74-3.27,4.25-5.77,7.19-7.95,1.2-3.27,4.25-5.55,6.42-8.71,4.9-7.08,7.19-13.72,11.32-21.88,1.74-3.37,3.05-6.42,4.14-10.12,3.16-11.54,7.51-21.34,8.71-33.86.65-7.29-.65-15.79.33-22.97.22-1.52,1.2-3.05,1.09-4.57-.33-7.51-9.91-6.64-13.17-2.29.87,4.68.76,8.27.33,12.85-.54,5.66.54,11.32,0,16.55-.98,9.8-4.14,20.03-7.19,28.63-7.19,20.36-16.77,37.34-30.16,50.08-4.57,4.03-10.67,3.05-17.31,5.66-2.72-7.62-1.2-16.55-6.42-21.88-5.77-5.88-17.96-9.25-24.06-1.85-2.5,4.68-3.05,11.32-4.9,16.55-4.79-1.74-9.58-3.27-15.46-3.05-1.52,1.31-4.03,1.85-5.66,3.37-1.52,1.42-5.44,7.4-5.66,9.04-.54,5.33,4.68,9.58,6.42,14.26-4.35,2.29-8.82,4.46-13.17,6.75-2.07,1.96-2.5,5.44-5.66,7.19-6.97,3.92-26.13,2.72-30.92-1.09.33-11.1-6.75-14.91-12.41-19.92,6.21-8.82,1.31-22.43-8.27-24.82-7.51-1.85-15.13,1.42-20.68,3.81-1.09-9.58-8.93-17.53-18.83-16.55-8.38.87-11,6.97-13.17,14.37-4.79-3.05-8.06-8.82-10.89-14.37-5.88-11.1-10.23-23.08-13.17-37.34-2.4-11.43-3.05-22.64-3.37-33.53-.33-11.76,3.16-23.41,2.29-35.05-2.07-1.74-6.21-2.29-8.71-.33h0ZM249.24,204.91c-4.25.33-7.08,3.59-11.32,4.14-6.21,4.46-12.19,12.08-10.56,21.45,1.2,7.29,8.49,11.1,15.02,13.61,1.2.22,1.52-.54,2.29-.76,6.64,2.72,13.83-1.74,18.51-4.57,8.16-6.97,8.93-26.35-.76-32.01-4.68-1.2-8.82-2.18-13.17-1.85h0Z"/>
  <path class="cls-3" d="M217.24,120.1c5.99-.11,11.21.11,16.22,2.61,4.03,2.07,7.19,4.9,9.04,9.47,6.64,15.79-2.5,31.03-12.85,39.19-6.64,5.23-16.11,8.82-25.58,3.81-2.29-1.2-3.05-3.37-5.66-4.9-3.27-5.77-4.9-11.87-4.57-18.51.44-6.97,4.46-15.79,7.95-20.68,3.37-4.9,13.5-5.66,15.46-11h0Z"/>
  <path class="cls-3" d="M279.73,134.04c6.42-4.46,9.14-9.47,18.83-10.56,2.29-.22,5.01-.22,7.19.33,21.99,5.77,19.27,40.61,4.14,53.13-11.98,9.91-31.79,7.08-36.58-8.27-2.94-9.58,1.63-26.45,6.42-34.62h0Z"/>
  <path class="cls-3" d="M135.48,147.21c.98,11.54-2.61,23.3-2.29,35.05.33,10.89.98,22.1,3.37,33.53,2.94,14.15,7.29,26.13,13.17,37.34,2.94,5.44,6.1,11.32,10.89,14.26,2.18-7.29,4.79-13.5,13.17-14.26,9.91-.98,17.75,7.08,18.83,16.55,5.66-2.29,13.17-5.66,20.68-3.81,9.69,2.4,14.48,16.11,8.27,24.82,5.66,5.12,12.74,8.82,12.41,19.92,4.68,3.92,23.95,5.01,30.92,1.09,3.16-1.74,3.59-5.23,5.66-7.19,4.35-2.29,8.82-4.57,13.17-6.75-1.74-4.79-6.97-8.93-6.42-14.26.11-1.63,4.14-7.62,5.66-9.04,1.63-1.63,4.14-2.07,5.66-3.37,5.88-.22,10.67,1.31,15.46,3.05,1.85-5.33,2.4-11.87,4.9-16.55,6.21-7.29,18.29-4.03,24.06,1.85,5.23,5.33,3.7,14.15,6.42,21.88,6.64-2.61,12.74-1.63,17.31-5.66,13.39-12.74,22.97-29.83,30.16-50.08,3.05-8.6,6.1-18.72,7.19-28.63.54-5.23-.54-10.89,0-16.55.44-4.57.54-8.16-.33-12.85,3.27-4.35,12.85-5.33,13.17,2.29.11,1.42-.87,2.94-1.09,4.57-1.09,7.19.33,15.68-.33,22.97-1.2,12.52-5.44,22.32-8.71,33.86-1.09,3.81-2.4,6.75-4.14,10.12-4.14,8.16-6.42,14.7-11.32,21.88-2.18,3.16-5.23,5.33-6.42,8.71-2.83,2.18-5.44,4.68-7.19,7.95,3.81,2.83,8.27,7.84,7.95,14.26-.76,14.15-20.47,19.6-33.86,18.83-1.52,5.77.22,15.02-1.85,21.12-2.4,1.74-6.64,1.85-9.04,0-1.2-7.19,1.09-15.57.33-22.64-.11-1.52-1.63-4.46-1.09-6.42.54-2.4,4.68-3.92,7.51-3.81,2.29.11,4.03,2.07,6.42,2.61,7.95,1.74,14.7-2.72,19.6-6.75.87-3.16,1.31-5.88,0-8.71-5.01-4.14-20.36-1.63-25.26,1.52-1.31.87-2.18,2.83-3.37,3.37-2.5,1.09-6.1.11-7.95-.33-2.94-3.27,0-7.73.33-12.08.65-8.16-.98-16-7.51-18.83-3.81,4.68-5.88,10.23-4.14,17.75.87,3.7,4.35,5.77,4.57,8.27.44,5.77-5.33,5.66-10.12,3.37-2.4-3.81-3.92-6.97-7.95-9.47-4.03-2.5-12.19-4.9-13.17,1.85-.65,5.01,3.48,8.71,7.19,10.12,4.9,1.96,10.78.44,11.32,5.23.98,8.6-12.41,3.7-18.83,5.23-5.12,1.2-15.35,6.64-11.65,14.37,3.37,3.48,9.36.65,13.93-1.85,4.25-2.4,6.21-6.53,10.12-7.51,3.27-.87,6.21-.11,7.19,1.85.54,1.2-.22,3.81-.33,6.42-.65,9.69,2.83,20.9-1.09,28.63-3.92,0-7.62-.11-9.04-2.61-.22-5.33.11-13.72-1.09-19.16-7.4,2.29-15.35,7.08-24.06,3.37-2.5-1.09-3.59-4.03-5.99-4.57-2.07-.44-4.46.65-6.42.76-12.08.76-22.43.33-32.44-4.14-6.53,4.68-18.51,3.48-27.11,3.37-3.27,7.4-1.2,16.55-3.37,24.49-2.4,1.74-5.99,2.72-8.27,1.09-4.68-3.16.33-21.23-.33-27.54-.22-1.74-1.42-4.46-1.09-5.66.54-1.85,4.57-3.48,7.51-3.05,1.74.33,3.37,2.72,5.66,3.37,8.6,2.61,24.17.98,22.64-9.8-.54-3.48-3.37-7.08-7.51-7.51-3.48-.33-6.31,3.37-9.8,3.81-3.27.33-7.62-.98-7.95-4.14-.33-3.27,5.66-5.88,7.19-6.75,3.37-2.18,5.55-3.48,7.95-5.66,3.27-8.93-2.5-14.91-10.12-10.89-6.75,3.48-8.16,13.83-11.65,19.16-3.37,1.31-5.66-.87-8.27-1.52-.54-7.19,1.42-18.29-1.09-25.58-.54-1.52-2.72-5.01-4.46-5.23-6.1-.65-6.97,11.43-5.99,18.07.76,5.33,3.7,6.53,3.37,12.08-.76,1.31-2.07,1.96-3.05,3.05-7.08.54-9.47-5.01-13.93-7.19-3.59-1.74-6.75-1.74-10.56-3.81-2.4,1.09-5.12,1.96-7.51,3.05-1.74,7.84,8.06,13.28,16.22,12.41,4.14-.44,7.51-3.27,10.56-.33,2.18,3.16.65,5.99,0,10.89-1.63,11.32-.22,24.39-11.65,18.07-1.52-6.21,1.74-13.39,1.85-20.36-1.74-2.29-4.9-1.31-7.19-1.85-7.73-1.74-13.61-5.99-18.51-10.56-1.31-5.33-4.57-8.71-.76-13.17,1.96-2.4,9.58-6.86,12.85-7.51,2.18-.44,4.14.33,5.66,0-1.63-5.12-3.81-9.8-7.51-12.85-3.92-10.02-9.47-20.03-12.41-31.68-2.5-10.02-5.33-20.36-6.42-32.77-1.42-16.66.76-34.51,3.81-50.51,1.85-1.74,5.99-1.2,8.71.22h0Z"/>
  <path class="cls-3" d="M262.42,206.76c9.69,5.66,8.93,25.04.76,32.01-4.57,2.83-11.87,7.29-18.51,4.57-.76.22-1.09.98-2.29.76-6.64-2.4-13.83-6.31-15.02-13.61-1.63-9.36,4.25-16.98,10.56-21.45,4.14-.54,7.08-3.92,11.32-4.14,4.35-.33,8.49.65,13.17,1.85h0ZM257.52,217.65c-2.4-5.01-6.86-2.4-12.85-1.85-1.74,1.31-3.05,3.05-4.9,4.14-4.35,9.04,1.31,17.96,12.41,14.7,4.46-2.83,8.27-10.78,5.33-16.98h0Z"/>
  <path class="cls-4" d="M252.29,234.63c-11.21,3.27-16.87-5.66-12.41-14.7,1.85-1.09,3.16-2.83,4.9-4.14,5.88-.54,10.34-3.16,12.85,1.85,2.83,6.21-.98,14.15-5.33,16.98h0Z"/>
  <path class="cls-5" d="M282.67,58.38l.65-.11.33-.87c1.2-3.27,2.4-6.64,2.61-11l.11-1.42-1.42.11c-12.52,1.31-22.86,1.85-32.44,1.85-6.1,0-11.98-.22-17.42-.76l-.87-.11-.54,1.52c-1.2,3.16-2.72,7.19-2.5,10.78v.98l.98.11c7.29,1.2,14.7,1.85,21.99,1.85,9.36,0,18.72-.98,28.52-2.94h0Z"/>
</svg>