<?xml version="1.0" encoding="UTF-8"?>
<svg id="Layer_1" data-name="Layer 1" xmlns="http://www.w3.org/2000/svg" viewBox="0 0 512 512">
  <defs>
    <style>
      .cls-1 {
        fill: #e4cf2c;
      }

      .cls-2 {
        fill: #171717;
      }

      .cls-3 {
        fill: #d73235;
      }
    </style>
  </defs>
  <g id="_6jCwFC" data-name="6jCwFC">
    <g>
      <path class="cls-2" d="M114.85,288.26c-5.91-9.44-10.44-19.51-12.94-30.36-.76-3.31-1.69-4.27-5.17-4.22-5.82.08-11.1-2.04-15.18-6.48-1.16-1.26-2.07-2.6-4.21-2.4-9.84.95-16.85-4.2-23.74-11.96-1.12,8.54-.96,16.23-.69,23.91.28,8.14-3.06,10.6-10.1,6.99-11.7-5.99-22.48-13.28-31.1-23.4-5.28-6.21-4.8-8.13,2.64-10.85,5.23-1.91,10.34-4.03,15.33-8.3-6.74.1-11.7,3.01-16.8,5.16-4.42,1.86-6.78.91-6.84-3.87-.07-5.63-2.52-11.83,3.43-16.51-2.99-2.56-10.03.7-9.45-6.34.34-4.12.47-8.61,3.96-11.54,1.79-1.5,1.17-2.19.56-4-1.61-4.77,5.08-15.17,10.1-16.08.98-.18,2.17.85,3.21,1.3.15-5.28,7.95-12.2,13.46-12.12,3.3.05,2.44,2.33,2.77,4.07,1.87,10,5.56,19.23,11.99,28.69,2.04-7.91.96-14.98,1.68-21.87,1.06-10.11,4.18-11.51,13.51-6.88,10.32,5.12,17.88,13.79,27.15,20.25,4.96,3.46,4.04,7.94-1.91,10.73-4.19,1.96-8.94,2.68-13.27,4.4-2.43.96-5.28,2.49-5.08,5.66.21,3.24,2.77,4.09,5.81,4.23,1.64.08,3.91.58,4.73,1.73,4.78,6.65,11.3,2.63,17.04,3.07,2.98.23,2.51-2.57,2.73-4.21,10.66-77.36,77.49-120.1,138.62-126.57,13.71-1.45,27.24-3.95,41.14-3.08,12.23.77,23.94,3.23,34.81,8.87,13.1,6.8,25.9,14.2,39.08,20.85,34.18,17.23,51.2,46.27,57.47,82.75,1.42,8.24,1.97,16.63,3.18,24.91.33,2.27.94,6.8,2.18,6.33,4.77-1.78,8.99,3.87,13.17.66,3.6-2.76,7.19-4.71,11.75-5.64,4.51-.92,5.24-4.11,1.72-7.49-3.4-3.26-8.07-3.41-12.27-4.69-3.89-1.19-8.12-2.73-8.85-6.92-.72-4.12,3.43-5.98,6.39-8.18,7.89-5.84,14.74-13.01,23.63-17.57,9.5-4.87,12.98-3.03,13.59,7.63.38,6.57-.29,13.23,1.43,20.9,6.79-8.82,10.46-17.97,11.87-27.78.75-5.23,2.96-6.14,6.49-3.66,3.6,2.52,10.66,1.56,9.94,8.93,5.29.57,8.75,3.74,11.25,8.12,1.76,3.08,4.88,6.03,1.54,9.93-1.29,1.51-.05,1.93,1,2.57.61.37,1.13.97,1.53,1.57,5.54,8.39,2.9,14.51-7.2,16.24,6.73,5.52,3.94,12.72,3.26,19.31-.36,3.46-3.3,2.44-5.83,1.57-5.48-1.89-10.45-5.64-17.46-4.97,5.66,3.93,11.17,6.6,17.07,8.46,5.3,1.67,5.92,4.54,2.49,8.72-9.24,11.28-20.9,19.42-33.89,25.67-5.44,2.61-9.32-.18-8.83-6.11.66-8.13.42-16.21-.46-25.21-7.07,7.64-14.64,13.03-25.2,11.99-1.15-.11-2.54,2.02-3.78,3.16-4.21,3.84-9.52,6.5-14.79,5.3-5.71-1.3-6.67.91-8.11,5.38-16.48,51.44-50.86,83.59-103.8,95.38-3.66.82-5.85,1.98-5.52,6.13.13,1.67-.55,3.39-.73,5.11-1.64,15.86-.01,18.17,15.29,21,13.01,2.4,25.46,5.95,35.05,15.85,6.44,6.65,5.6,13.51-2.63,17.86-4.75,2.51-9.93,4.53-15.49,4.35-21.43-.68-42.74-2.48-63.47-8.38-2.11-.6-3.68-.44-5.58.18-3.72,1.21-7.51,2.18-11.28,3.25-6.04-6.75,2.79-6.67,4.19-6.72,7.45-.31,7.8-4.63,7.8-10.38,0-4.66-1.71-9.82,2.81-15.98,0,4.2,0,6.37,0,8.54,0,2.45-.15,4.92.05,7.36.5,6.06,4.97,9.43,10.63,8.18,4.25.59,8.51,1.17,12.76,1.76,14.18,3.45,28.59,4.73,43.15,4.27,2.98-.09,5.76-1.21,8.34-2.75,4.63-2.77,5.86-5.63.87-9.48-4.96-3.82-10.36-6.6-16.29-8.47-8.04-2.53-16.36-3.61-24.69-4.42-7.13-.69-10.76-3.87-10.31-11.39.38-6.39.18-12.81.36-19.22.27-9.25,2.18-11.54,11.3-13.37,58.29-11.74,93.75-53.48,103.84-111.95.86-4.96-.49-6.95-5.46-8.17-65.24-15.94-111.3-54.53-137.18-116.79-1.4-3.36-1.78-7.2-4.47-9.98-4.58.94-6.2,5.11-7.31,8.47-2.68,8.18-9.05,13.95-12.8,21.36-.97,1.91-3.36,3.85-5.31,2.09-1.89-1.71.86-3.19,1.78-4.77,5.17-8.84,10.39-17.66,15.1-26.75.88-1.7,4.76-5.15-.62-6.9-1.87-1.1.24-6.19-4.46-4.46-2.72-1.66-4-5.1-7.36-5.97-4.73-2.66-8.17,1.14-12.1,2.44-2.3.75-5.01,3.63-5.96-1.36,1.26-1.77,1.03-2.48-1.28-1.86-37.72,10.08-67.98,30.55-88.96,63.94-2.31,3.97-5.04,7.77-6.83,11.96-2.53,5.95-6.81,11.39-6.18,18.41.2,2.07-2.48,3.83-.78,6.05,2.48.14,1.87-3.9,4.64-3.48.14,3.25-4.14,5.58-1.3,8.98.23.94.72,1.55,1.81,1.36-1.3,3.44-2.76,6.87-.7,10.53.75.16,1.5.32,2.25.48-.81,1.02-3.26,1.43-2.12,3.12,1.53,2.28,4.04,2.26,6.47,1.08.02.66.04,1.33.06,1.99-2.66,1.6-2.85,2.43.62,1.79,1.59-.3,3.66-1.99,4.48.18.81,2.14-1.43,3.54-3.23,4.25-6.4,2.51-13.12,3.82-19.89,4.98-3.6.62-5.71.3-5.7-4,0-3.71-2.8-7.45-5.64-6.13-7.66,3.57-13.84,2.39-19.84-2.85l-.06-.04c-.51-3.32-3.04-3.58-5.53-3.34-5.98.57-7.58-2.37-7.48-7.86.07-3.84.96-7.14,2.98-10.27.64-.73,1.17-1.6,1.93-2.18,9.81-7.54,9.84-7.6.29-16.65-1.41-1.33-3.01-2.47-4.56-3.64-3.39-2.57-5.03-2.04-5.18,2.55-.18,5.3,1.06,10.7-.89,15.9q-2.75,5.62-10.53,7.5c-1.52.37-2.5,1.42-3.09,2.85-3.87,11.66-.33,18.97,9.88,20.41,2.4.36,2.65-3.56,6.02-2.61.15,7.12.58,14.14,8.06,18.63,3.66,2.2,7,2.19,10.45,1.65,3.86-.6,2.09-4.31,2.57-6.73.23-1.19.21-2.51,2.16-2.22.22.61.62,1.27.68,1.96,1.26,13.98,6.99,17.66,19.59,12.52,3.06-1.25,4.26.23,4.1,2.99-.61,10.56,4.47,19.4,8.9,28.28,2.35,4.71,2.9,8.62-.23,12.86ZM17.04,186.03c3.81,2.36,7.62,4.72,13.13,8.14-2.45-5.41-5.1-8.05-7.89-10.58-1.68-2.01-3.33-4.05-5.04-6.03-1.32-1.53-2.77-3.15-4.39-.39-1.06,1.81-4.07,3.57-.7,5.9,1.56,1.08,3.25,1.98,4.89,2.96ZM489.65,199.19c3.09-1.79,6.18-3.59,9.28-5.35,3.6-2.05,1.82-4.19.24-6.47-2.17-3.13-3.62-.87-5,.66-2.25,2.5-4.33,5.15-6.48,7.73-2.28,2.37-4.56,4.73-7.27,7.54,4.32.35,6.58-2.32,9.23-4.11ZM26.47,200.4c-4.33-3.97-10.13-4.48-15.28-6.53-2.41-.96-3.61-.41-4.29,2.09-.65,2.37-.12,3.81,2.42,4.27,3.61.65,7.22,1.33,10.83,1.99,3.75,1.4,7.55,2.25,12.02,1.76-1.51-2.84-3.33-3.68-5.69-3.58ZM338.03,202.14c9.61,6.63,19.37,12.98,30.8,16.12,6.73.16,12.79,2.32,18.52,5.81,3.05,1.85,5.82,5.21,10.14,3.05.41-.46.82-.92,1.23-1.38,2.29-1.52.63-3.28-.27-4.18-2.57-2.57-.49-4.24.72-6.17-.06-.95-.11-1.9-.17-2.85.11-4.01.23-8.02.34-12.03,3.04-1.73,1.43-4.52,1.11-6.6-5.43-34.3-20.44-62.36-52.27-79.29-16.68-8.87-32.7-19.05-50.59-25.5-3.44-1.73-7.19-2.17-10.94-2.54-.55-.05-2.2-.59-1.46,1.13.23.54,1.12.8,1.71,1.2,2.31,4.76,9.61,3.67,11.49,10.54-4.5-3.04-8.68-4.62-13.09-5.55-1.36-1.43-3.09-3.27-4.83-1.35-3.63,4,3.46,5.7,2.54,9.42-3.18.64-4-2.35-5.86-3.58-1.61-1.06-2.08-.1-2.48,1.18-4.78,2.89,2.01,6.38-.6,9.52-3.04-1.4-2.68-4.78-4.18-6.98-.69-1.02.91-4.57-2.67-3.11-2.77-1.5-2.03.59-1.93,1.92.68,8.74,3.79,16.68,8.07,24.22,12.94,32.91,34.98,58.17,64.69,76.99ZM468.71,249.26c.98,3.79-2.57,10.55,1.43,12.21,4.53,1.88,9.11-3.56,13.02-6.74,9.78-7.95,9.66-8.27-1.65-13.84q-12.84-6.32-12.8,8.37ZM43.01,238.93c-1.37-3.96,2.87-9.09-.39-11.79-3.7-3.07-7.54,1.77-11.13,3.31-12.7,5.45-12.79,6.54-1.99,14.88,3.62,2.8,7.97,7.69,11.91,5.89,3.85-1.75.56-8.01,1.61-12.29ZM454.96,193.34c0-2.45.03-4.9-.01-7.35-.04-1.97.11-4.4-1.66-5.38-1.94-1.08-3.66.91-5.11,2.07-2.48,1.98-4.77,4.21-7.02,6.45q-6.72,6.71,1.56,11.35,12.34,6.9,12.23-7.14ZM442.97,224.94c-6.81.11-10.61,4.22-9.91,9.21.58,4.11-1.6,11.35,5.5,12.33,5.06.69,12.39-7.66,12.24-12.88-.15-5.41-2.44-9-7.84-8.65ZM470.66,218.2c-.03-3.49.26-7.64-4.34-8.11-4.65-.47-9.31.4-12.61,4.55-3.42,4.3.07,6.59,2.44,9.34.78.9,1.22,2.14,1.67,3.27,2.35,5.94,5.84,4.15,9.01,1.06,2.74-2.66,3.82-6.26,3.83-10.12ZM426.03,243.22c.05-2.74-.32-5.4-1.53-7.89-1.34-2.76-3.1-5.46-6.53-4.86-3.35.59-4.5,3.3-4.45,6.66.05,3.68-.32,7.37-.28,11.05.03,2.37-2.82,5.65,1.24,6.92,3.27,1.02,6.28-.56,8.6-3.03,2.32-2.47,3.04-5.54,2.95-8.85ZM480.03,212.91c.15.65.3,1.3.45,1.94,7.44-1.51,14.9-2.99,22.33-4.56,2.43-.52,2.91-2.06,2.14-4.4-.81-2.43-2.1-2.88-4.4-2.03-7.04,2.58-14.52,4.12-20.51,9.05ZM472.6,203.17c7.1-7.16,11.22-16.07,14.62-25.38.68-1.85-.73-2.65-2.21-3.08-1.58-.46-2.3.73-2.52,1.89-1.73,9.42-6.76,17.52-9.89,26.57ZM39.18,192.75c-3.33-8.82-8-16.85-9.87-26.01-.27-1.32-1.04-2.29-2.51-2.01-1.75.33-2.53,1.6-1.93,3.25,3.32,9.12,7.25,17.91,14.32,24.77ZM33.73,212.36c-7.9-3.08-14.06-1.86-19.97-.32-2.17.57-2.25,3.69-1.61,5.83.79,2.65,2.67,1.12,4.15.61,5.2-1.8,10.38-3.64,17.43-6.12ZM479.42,223.09c7.21,2.39,13.43,4.45,19.86,6.58.29-8.71-9.62-11.97-19.86-6.58Z"/>
      <path class="cls-2" d="M42.68,200.52c.59-1.43,1.57-2.48,3.09-2.85q7.78-1.89,10.53-7.5c.33,6.51,4.8,4.37,8.41,4.02-2.02,3.13-2.91,6.43-2.98,10.27-.1,5.49,1.49,8.43,7.48,7.86,2.5-.24,5.02.03,5.53,3.34-3.98-.51-8.17-2.49-11.46,1.7-3.59,4.85-3.09,9.27,1.37,13.28,1.86,3.14,4.71,4.89,8.15,5.83,1.8.49,3.54.71,3.94-1.75,1.08-6.51,4.92-13.32-1.95-19.02,6,5.24,12.18,6.42,19.84,2.85,2.84-1.32,5.64,2.41,5.64,6.13,0,4.3,2.1,4.61,5.7,4,6.77-1.16,13.49-2.47,19.89-4.98,1.8-.71,4.04-2.11,3.23-4.25-.82-2.17-2.88-.47-4.48-.18-3.48.65-3.28-.19-.62-1.79,31.23-11.52,60.58-25.88,82.33-52.4,11.2-13.66,23.92-26.14,31.8-42.29,3.45-4.74,6.42-9.69,7.34-15.61,1.09-.68,1.31-1.75,1.33-2.92,5.38,1.75,1.5,5.2.62,6.9-4.71,9.08-9.94,17.9-15.1,26.75-.92,1.58-3.68,3.07-1.78,4.77,1.95,1.76,4.34-.18,5.31-2.09,3.76-7.41,10.12-13.17,12.8-21.36,1.1-3.36,2.73-7.52,7.31-8.47-10.53,24.37-27.63,44.09-45.25,63.38-8.12,8.88-16.22,17.82-26.81,24.11-22.74,13.5-46.4,24.91-71.89,32.16-4.54,1.29-5.75,3.02-5.01,7.63,7.58,47.16,29.77,84.31,72.74,107.51,15.28,8.25,31.73,12.88,48.61,16.31,3.86,3.52,10.37-.79,13.59,4.61l-.02-.18c-.59,8.44.84,16.7,2.26,24.95.09,6.2.64,11.73-8.47,13.02-13.39,1.9-26.34,6.14-38.41,12.56-2.62,1.39-5.78,2.68-5.16,6.32.56,3.31,3.97,2.45,6.15,2.78,19.43,2.91,38.18-1.2,56.88-5.77,3.46-.85,2.9-2.81,2.62-5.49-1.5-14.44-2.41-28.93-2-43.47.09-2.98-.75-6.95,4.38-6.8,4.68.14,4.46,3.42,4.48,6.8.07,11.29-.95,22.62,1.2,33.84-.14,6.63-.88,13.57,7.9,15.72-5.65,1.25-10.13-2.12-10.63-8.18-.2-2.44-.04-4.91-.05-7.36,0-2.17,0-4.34,0-8.54-4.52,6.17-2.81,11.33-2.81,15.98,0,5.76-.35,10.08-7.8,10.38-1.39.06-10.23-.02-4.19,6.72-4.03,2.02-8.4,1.6-12.69,1.76-2.55-2.56-5.54-3.4-9.21-3.3-9.77.25-19.55.08-29.33.08-2.91,0-5.78.45-6.94-3.56-1.09-3.78.32-6.26,3.17-8.07,3.47-2.2,7.08-4.26,10.83-5.91,3.14-1.38,4.12-3.16,2.67-6.25l-.05.02c4.29,3.36,8.45,3.48,13.56,1.05,4.55-2.16,9.82-3.16,14.88-3.8,6.25-.8,8.02-4.04,6.74-9.64-.98-4.29-2.6-8.43-2.53-12.95.06-3.68.78-7.78-.56-10.95-1.75-4.16-6.68-1.15-9.99-2.39-2.07-.77-4.32-1.19-6.26-2.2-5.76-3.01-11.47-3.65-17.33-.4-4.91.01-9.1-2.07-13.17-4.51-3.1-6.01-9.32-8.12-14.42-11.68-13.69-9.57-30.9-14.68-38.84-31.58-1.94-4.12-6.77-5.69-11.61-5.56-1.49-1.54-3.32-2.87-3.38-5.32,1.23-4.03.85-8.12-.55-11.9-1.46-3.94-3.88-5.15-6.42-.54-1.12-1.05-2.03-2.22-1.98-3.87,3.13-4.24,2.58-8.15.23-12.86-4.43-8.88-9.51-17.71-8.9-28.28.16-2.77-1.05-4.24-4.1-2.99-12.6,5.13-18.33,1.45-19.59-12.52-.06-.69-.46-1.34-.68-1.96-1.95-.29-1.92,1.03-2.16,2.22-.48,2.42,1.3,6.13-2.57,6.73-3.45.53-6.8.55-10.45-1.65-7.47-4.49-7.91-11.51-8.06-18.63-3.37-.94-3.62,2.98-6.02,2.61,1.06-2.97,1.97-5.97,4.1-8.48,4.12-4.89,3.33-8.17-2.51-10.87-3.68-1.7-7.54-1.82-11.46-1.07ZM98.62,235.14h-.19c0-2.94.01-5.88,0-8.82-.02-3.1-1.62-5.22-4.5-5.98-2.87-.76-4.66,1.39-5.82,3.49-2.86,5.19-3.65,10.67-.7,16.15,2.07,3.84,5.58,6.05,9.73,4.92,4.35-1.18.89-5,1.46-7.56.16-.7.02-1.47.02-2.2Z"/>
      <path class="cls-2" d="M205.24,363.23c5.86-3.25,11.57-2.61,17.33.4,1.94,1.01,4.18,1.43,6.26,2.2,3.31,1.23,8.24-1.78,9.99,2.39,1.33,3.17.61,7.27.56,10.95-.07,4.52,1.56,8.66,2.53,12.95,1.27,5.6-.49,8.84-6.74,9.64-5.06.65-10.32,1.65-14.88,3.8-5.11,2.42-9.27,2.31-13.56-1.05,7.58-3.62,15.86-4.98,23.87-7.12,3.48-.93,4.67-2.28,4.6-6-.33-17.85-.24-17.87-16.85-23.48-4.4-1.48-8.74-3.12-13.11-4.68Z"/>
      <path class="cls-2" d="M206.78,404.5c1.45,3.09.47,4.87-2.67,6.25-3.75,1.65-7.36,3.71-10.83,5.91-2.85,1.81-4.26,4.29-3.17,8.07,1.16,4.01,4.02,3.56,6.94,3.56,9.78,0,19.56.16,29.33-.08,3.67-.09,6.66.75,9.21,3.3-13.66,4.06-27.56,3.87-41.47,1.98-5.8-.79-10.16-4.36-11.19-10.21-1.04-5.85,2.77-9.62,7.65-12.15,5.19-2.69,10.25-5.78,16.2-6.63Z"/>
      <path class="cls-2" d="M127.19,309.89c4.84-.13,9.67,1.44,11.61,5.56,7.95,16.9,25.15,22.02,38.84,31.58,5.1,3.56,11.32,5.67,14.42,11.68-26.97-9.17-49.84-23.79-64.88-48.83Z"/>
      <path class="cls-2" d="M116.83,292.13c2.54-4.61,4.95-3.4,6.42.54,1.4,3.78,1.78,7.87.55,11.9-3.22-3.64-5.26-7.95-6.97-12.44Z"/>
      <path class="cls-1" d="M265.85,405.02c-2.14-11.22-1.12-22.55-1.2-33.84-.02-3.38.19-6.66-4.48-6.8-5.13-.15-4.3,3.82-4.38,6.8-.42,14.53.49,29.02,2,43.47.28,2.68.84,4.64-2.62,5.49-18.7,4.57-37.45,8.68-56.88,5.77-2.18-.33-5.59.53-6.15-2.78-.62-3.64,2.54-4.92,5.16-6.32,12.08-6.41,25.02-10.66,38.41-12.56,9.12-1.29,8.56-6.82,8.47-13.02,2.23-8.59.21-16.79-2.26-24.95,0,0,.02.18.02.18.38-3.64-1.82-4.68-4.87-4.72-2.91-.04-5.81.07-8.72.11-16.88-3.42-33.33-8.05-48.61-16.31-42.96-23.2-65.16-60.35-72.74-107.51-.74-4.62.48-6.34,5.01-7.63,25.49-7.25,49.15-18.66,71.89-32.16,10.59-6.28,18.69-15.22,26.81-24.11,17.62-19.29,34.72-39.01,45.25-63.38,2.68,2.79,3.06,6.63,4.46,9.99,25.88,62.26,71.94,100.84,137.18,116.79,4.97,1.22,6.32,3.21,5.46,8.17-10.08,58.46-45.54,100.2-103.84,111.95-9.12,1.84-11.03,4.12-11.3,13.37-.18,6.4.02,12.83-.36,19.22-.45,7.52,3.19,10.7,10.31,11.39,8.33.81,16.65,1.89,24.69,4.42,5.93,1.87,11.33,4.65,16.29,8.47,4.99,3.85,3.76,6.72-.87,9.48-2.58,1.54-5.36,2.66-8.34,2.75-14.56.46-28.97-.81-43.15-4.27.54-.34,1.08-.67,1.62-1.01-.36-.2-.7-.49-1.09-.58q-18.24-4.25-20.66-20.74c-.18,1.62-.36,3.25-.54,4.87ZM265.05,221.03c7.06,4.01,12.77,2.21,15.62-5.29,2.42-6.36,2.48-12.94.13-19.36-3.55-9.69-8.9-11.09-17.16-4.67-7.56,8.17-6.87,22.7,1.4,29.32ZM311.77,342.39c6-6.97-2.11-9.98-4.49-14.13-3.2-5.59-7.67-4.81-9.93,1.42-2.01,5.52-5.96,8.23-11.14,9.71-2.32.66-5,1.57-6.63-1.2-1.67-2.83-1.32-5.64.89-8.17,2.18-2.49,5.22-3.63,8.05-5.1,1.94-1.01,3.28-2.4,2.28-4.7-1.01-2.33-3.06-2.09-5.05-1.56-2.12.56-4.19,1.43-6.35,1.75-2.37.36-5.46,1-6.33-2.05-.84-2.94,1.19-5.25,3.82-6.42,4.4-1.96,9.01-2.41,13.66-.73,2.35.85,5.15,2.08,6.32-1.05,1.37-3.68-2.06-4.26-4.5-5.33-2.24-.98-4.65-1.84-6.52-3.33-2.49-2-4.89-4.46-2.5-8.15,2.25-3.47,5.08-5.36,9.31-3.39,3.85,1.8,7.15,4.08,9.34,7.98,4.82,8.56,5.84,8.44,11.48-.04,1.47-2.22,3.36-4.24,5.36-6.02,1.98-1.76,4.5-2.13,6.83-.57,2.23,1.48,1.9,3.74,1.4,6-1.26,5.71-5.38,8.42-10.4,10.47-6.21,2.54-6.38,4.18-1.04,8.27,3.72,2.85,7.65,5.31,8.27,10.69.29,2.5,2.5,3.8,4.97,3.13,2.7-.74,2.83-3.04,2.29-5.42-.66-2.93-1.7-5.78-3.84-7.85-2.99-2.87-2.5-4.54.59-7.26,8.5-7.49,9.11-13.1,2.95-21.93-1.16-1.66-1.61-2.85-.36-4.52,3.98-5.3,4.67-11.79,6.37-17.91.27.77,1.34,1.9,1.32,1.69-.44-5.73,2.7-11.85-1.65-17.17-4.66-2.9-7.73-2.33-7.04,3.88.91,8.16-2.26,15.45-4.28,22.97-2.32,8.62-11.34,10.23-17.29,14.9-2.52,1.98-5.57-3.54-8.65-5.29-9.52-5.4-19.23-3.38-23.76,4.75-3.02,5.41,3.74,11.7.96,13.84-4.21,3.24-9.18,5.26-11.19,10.7-.59,1.58-.69,3.35-1.01,5.03-1.76,5.04-5.95,5.56-10.46,5.91-9.03.69-17.93-1.03-26.9-1.28-10.19-1.15-3.98-12.93-10.62-16.5-.67-.36-.73-2.22-.71-3.38,0-.59.86-1.13,1.23-1.75,4.98-8.25,1.46-15.45-8.12-15.72-5.08-.14-7.87-.47-7.82-6.98.06-8.16-6.08-11.59-13.87-8.99-4.07,1.36-7.07,4.39-10.77,7.11-5.47-9.13-8.14-19.07-10.41-29.15-.76-3.38-.95-7.54-6.02-6.32-5.17,1.25-2.99,5.41-2.51,8.54,1.08,7.06,4.98,13.4,5.43,20.64.91,4.78.45,8.66-5.62,9.3-.65.07-1.18,1.33-1.77,2.03-7.94,7.14-8.2,13.63-.85,19.53,3.9,3.13,10.4,3.32,12.63,6.75,2.37,3.65-3.34,8.36-3.78,13.21-.18,1.94.05,3.46,1.81,4.29,1.66.78,3.87.81,4.48-1.04,2.37-7.26,8.2-13.64,5.91-22.14,1-1.24,2.01-2.49,3.01-3.73,2.19-1.86,1.73-4.36,1.7-6.8-.06-5.74,2.16-10.55,6.41-14.32,1.39-1.23,3.17-2.74,5.25-1.7,1.88.94,1.28,3.01,1.3,4.66.04,5.05-.96,9.77-4.68,13.54-1.82,1.85-3.45,3.78-.94,6.26,2.74,2.71,4.36.04,6.11-1.43,3.22-2.71,6.53-5.23,10.71-6.26,2.61-.64,5.68-1.79,6.86,1.8,1.1,3.36-1.85,4.69-4.19,5.99-1.06.59-2.32.79-3.47,1.22-3.22,1.21-8.84.67-8.2,5.37.65,4.82,5.67,1.5,8.71,2.06,4.31.79,8.5,2.24,8.77,7.3.27,5.04-3.96,6.22-7.93,7.07-3.68.79-6.78-.25-9.18-3.24-1.34-1.67-3.08-2.56-5.18-1.68-2.37.98-2.07,3.18-1.72,5.07.66,3.53.5,6.77-1.7,9.81-1.4,1.94-.87,3.76,1.13,5,1.8,1.12,3.25.05,4.66-1,1.94-1.44,1.95-3.87,3.03-5.76,6.37-1.84,13.47-3.68,19.32-1.31,15.39,6.25,30.89,7.09,46.91,4.4,3.84-.65,6.51.11,7.78,4.43.9,3.08,2.81,5.85,6.8,5.65,8.62,2.05,15.85-1.23,22.72-5.91,2.55-.11,4.63.87,6.81,2.18,1.57.95,4.02,2.54,5.46-.64ZM240.95,262.62c11.97-.13,21.03-8.54,20.81-19.32-.21-9.97-7.52-16.78-17.78-16.54-10.76.25-19.48,8.78-19.5,19.07-.02,10.03,6.72,16.9,16.47,16.79ZM233.67,206.22c0-.98.05-1.96,0-2.94-.52-8.69-4.58-15.11-9.72-15.38-6.74-.35-10.7,4.6-11.87,14.88-.14,1.21-.17,2.44-.15,3.67.18,9.23,5.18,17.18,10.7,17.09,6.63-.11,11-6.95,11.05-17.31ZM283.19,238.75c-.55-1.21-1.4-2.39-3.01-2.38-2.18.02-2.81,1.6-2.53,3.41.24,1.6,1.43,2.47,3.09,2.13,1.52-.31,2.49-1.26,2.45-3.17ZM290.2,252.07c-.05-1.67-.94-2.67-2.62-2.95-1.6-.27-3.12.1-3.54,1.77-.55,2.2,1.15,3.09,2.89,3.42,1.61.31,2.83-.47,3.26-2.25ZM303.03,256.58c.19-1.82-.92-2.79-2.41-3.03-1.81-.29-3.4.32-3.48,2.55-.06,1.63.89,2.94,2.34,3.23,1.94.39,3.03-.98,3.54-2.75ZM289.85,264.01c.07-1.8-.92-2.83-2.51-3.11-1.6-.28-3.12.39-3.39,2.05-.34,2.02,1.1,3.22,2.93,3.54,1.73.3,2.65-.86,2.98-2.47ZM303.59,240.18c-1.25.42-2.62.97-2.2,2.91.36,1.64,1.66,2.47,3.18,2.57,1.65.11,2.87-.84,2.81-2.58-.07-2.16-1.68-2.74-3.79-2.89ZM194.13,253.73c-1.49.18-2.41,1.03-2.31,2.33.14,1.81,1.22,3.21,3.14,3.28,1.59.05,2.8-.98,2.59-2.67-.25-1.88-1.73-2.71-3.42-2.94ZM295.44,234.45c-1.54-.1-2.59.62-2.78,1.9-.25,1.67.92,2.81,2.41,3.14,1.6.36,2.97-.42,3-2.21.03-1.66-1.16-2.54-2.63-2.83ZM279.65,256.44c-.35-1.22-1.35-2.17-2.9-2.28-1.58-.12-2.98.57-2.99,2.34-.01,1.63,1.19,2.66,2.73,2.87,1.75.24,2.52-1.03,3.16-2.94ZM186.99,249.39c1.25-.49,2.13-1.33,1.76-2.75-.42-1.63-1.68-2.42-3.3-2.21-1.25.17-2.45.79-1.75,2.43.6,1.4,1.63,2.42,3.29,2.53ZM194.28,238.51c1.65.31,2.22-.76,2.27-2.04.06-1.65-.93-2.73-2.56-2.92-1.36-.16-2.49.65-2.48,1.98,0,1.62,1.38,2.41,2.78,2.98ZM210.64,254.83c-.05-1.74-1.26-2.35-2.76-2.55-1.32-.17-2.49.22-2.59,1.72-.12,1.72,1.05,2.55,2.63,2.74,1.38.17,2.21-.63,2.73-1.91ZM205.33,245.27c-.37-1.74-1.61-2.4-3.17-2.18-1.28.18-2.16,1.21-1.97,2.52.16,1.19.89,2.26,2.34,2.26,1.7,0,2.56-.99,2.8-2.6Z"/>
      <path class="cls-1" d="M398.73,225.73c-.41.46-.82.92-1.23,1.38-15.17-7.64-28.96-17.45-42.85-27.13-29.6-20.63-51.22-48.28-69.53-78.86.3-2.91-1.74-5.01-2.57-7.53-.83-2.53-4.23-4.55-1.72-7.82,5.18,4.76,10.47,9.41,15.53,14.29,12.88,12.42,24.99,25.63,39.36,36.47,5.66,4.27,10.36,9.69,14.69,15.35,7.2,12.23,18.09,20.94,28.66,29.95,7.47,7.2,13.11,15.92,19.65,23.88Z"/>
      <path class="cls-1" d="M297.58,89.11c17.9,6.46,33.91,16.63,50.59,25.5,31.83,16.93,46.84,44.99,52.27,79.29.33,2.08,1.94,4.88-1.11,6.6-3.23-10.48-9.22-19.46-15.62-28.15-23.72-32.17-52.42-58.98-86.65-79.76-.35-1.24-1.11-2.54.52-3.48Z"/>
      <path class="cls-1" d="M238.13,122.8c-7.88,16.15-20.6,28.63-31.8,42.29-21.75,26.51-51.1,40.88-82.33,52.4-.02-.66-.04-1.33-.05-1.99,12.42-6.16,22.81-15.07,33.3-23.94,23.05-19.5,43.87-41.32,65.53-62.27,7.37-1.31,9.54-9.42,16.07-12.28-.25,2.06-.49,3.93-.72,5.8Z"/>
      <path d="M398.73,225.73c-6.55-7.96-12.18-16.68-19.65-23.88-8.54-10.96-18.6-20.45-28.65-29.95-4.33-5.66-9.02-11.08-14.69-15.35-14.37-10.84-26.48-24.06-39.36-36.47-5.06-4.88-10.35-9.54-15.53-14.29-1.06-2.93-2.99-5-5.98-6.01l-.2-.2c.4-1.28.87-2.24,2.48-1.18,1.87,1.23,2.68,4.22,5.86,3.58.93-3.72-6.17-5.42-2.54-9.42,1.74-1.92,3.47-.08,4.83,1.35-.58.05-1.16.11-1.74.16-.96.21-2.87-.05-1.36,1.76,1.8,2.14,3.92,4.02,5.9,6.01,4.95,5.11,9.65,10.49,14.88,15.3,28.21,25.99,56.63,51.75,82.09,80.54,4.71,5.91,9.41,11.82,14.12,17.72-1.21,1.92-3.28,3.59-.72,6.16.9.9,2.57,2.66.27,4.18Z"/>
      <path d="M222.78,129.28c-21.66,20.95-42.48,42.76-65.53,62.27-10.49,8.88-20.88,17.79-33.3,23.94-2.43,1.18-4.94,1.21-6.47-1.07-1.14-1.69,1.32-2.11,2.12-3.12,3.07-2.09,6.15-4.18,9.22-6.27,3.01-1.97,6.23-3.69,9.01-5.94,23.54-19.01,46.24-38.94,66.05-61.94,4.12-4.02,8.24-8.05,12.36-12.07,1.36-1.26,2.72-2.53,4.08-3.79,6.8-6.26,14.89-11.29,19.16-19.98.95-.49,1.91-.99,2.86-1.48,4.7-1.73,2.59,3.36,4.46,4.46-.03,1.16-.24,2.24-1.33,2.92-8.22,6.69-15.33,14.52-22.69,22.09Z"/>
      <path d="M285.12,121.13c18.31,30.58,39.93,58.23,69.53,78.86,13.88,9.68,27.68,19.48,42.85,27.13-4.32,2.16-7.09-1.19-10.14-3.05-5.73-3.49-11.79-5.65-18.52-5.81-10.02-7.19-20.04-14.38-30.07-21.57-4.7-4.32-9.54-8.5-14.09-12.98-18.69-18.41-33.41-39.91-47.61-61.79-3.37-7.6-8.75-14.34-9.87-22.91,3.58-1.47,1.98,2.09,2.67,3.11,1.5,2.2,1.14,5.58,4.18,6.98,2.61-3.14-4.18-6.64.6-9.52l.2.2c1.43,8.08,5.76,14.76,10.27,21.36Z"/>
      <path d="M283.55,94.05c.58-.05,1.16-.11,1.74-.16,4.41.93,8.59,2.51,13.09,5.55-1.88-6.87-9.19-5.79-11.49-10.54,3.39,1.23,6.79,2.46,10.18,3.7,34.22,20.79,62.92,47.59,86.65,79.76,6.4,8.69,12.39,17.67,15.62,28.15-.11,4.01-.22,8.03-.34,12.04-4.08-5.83-5.33-13.16-9.89-18.74-1.53-2.78-2.93-5.65-4.61-8.33-15.06-23.96-34.82-43.68-56.47-61.57-10.94-9.04-21.79-18.32-34.84-24.4-3.21-1.82-6.43-3.64-9.65-5.46Z"/>
      <path d="M242.35,99.81c-.95.49-1.91.99-2.86,1.48-11.01,3.65-18.29,12.56-27.17,19.22-4.32,3.2-8.73,6.29-12.96,9.62-27.04,21.29-51.9,44.84-74.02,71.24-2.66,3.15-5.32,6.3-7.98,9.44-2.05-3.66-.59-7.09.7-10.53,4.74-7.59,11.76-13.27,17.06-20.39,11.14-10.71,21.92-21.82,33.49-32.04,15.44-13.63,31.5-26.58,47.29-39.82,3.53-2.62,7.06-5.24,10.6-7.85,2.99-1.78,6.68-2.6,8.37-6.15l.13-.18c3.36.87,4.64,4.31,7.36,5.97Z"/>
      <path d="M116.25,198.91c-2.83-3.4,1.44-5.73,1.3-8.98-2.76-.42-2.16,3.62-4.64,3.48-1.71-2.22.98-3.98.78-6.05,4.19-6.45,8.39-12.91,12.58-19.36,1.4-1.71,2.8-3.42,4.2-5.13,23.77-29.07,53.68-50.34,86.46-67.96.95,5,3.66,2.12,5.96,1.36,3.93-1.29,7.37-5.1,12.1-2.44,0,0-.13.18-.13.18-3.33.41-6.13,2.1-8.95,3.73-6.18,2.04-11.62,5.41-16.79,9.28-6.48,3.92-13.14,7.57-19.39,11.82-24.69,16.77-47.1,35.94-63,61.7-4.77,5.39-7.36,12.02-10.46,18.36Z"/>
      <path class="cls-1" d="M216.93,94.91c-32.78,17.62-62.69,38.88-86.46,67.96-1.4,1.71-2.8,3.42-4.2,5.13-1.46-.06-4.59,2.07-2.77-2.22,1.22-2.87,3.55-5.35,3.19-8.79,20.97-33.39,51.23-53.85,88.96-63.94,2.3-.62,2.54.09,1.28,1.86Z"/>
      <path class="cls-1" d="M277.07,121.92c14.21,21.88,28.92,43.38,47.61,61.79,4.55,4.48,9.38,8.66,14.09,12.98-1.22,1.69,5.02,4.38-.74,5.46-29.71-18.82-51.75-44.08-64.69-76.99-.1-2.63.45-4.5,3.73-3.23Z"/>
      <path class="cls-3" d="M468.71,249.26q-.04-14.69,12.8-8.38c11.31,5.57,11.43,5.88,1.65,13.84-3.92,3.19-8.49,8.62-13.02,6.74-4-1.66-.45-8.42-1.43-12.21Z"/>
      <path class="cls-3" d="M43.01,238.93c-1.05,4.28,2.24,10.54-1.61,12.29-3.94,1.79-8.29-3.1-11.91-5.89-10.8-8.34-10.7-9.43,1.99-14.88,3.59-1.54,7.44-6.38,11.13-3.31,3.26,2.7-.98,7.83.39,11.79Z"/>
      <path class="cls-3" d="M454.96,193.34q.11,14.04-12.23,7.14-8.26-4.62-1.56-11.35c2.25-2.24,4.54-4.48,7.02-6.45,1.45-1.15,3.16-3.14,5.11-2.07,1.77.98,1.62,3.42,1.66,5.38.04,2.45.01,4.9.01,7.35Z"/>
      <path class="cls-3" d="M64.72,194.19c-3.61.35-8.08,2.49-8.41-4.02,1.95-5.2.72-10.6.89-15.9.15-4.59,1.79-5.12,5.18-2.55,1.55,1.17,3.15,2.31,4.56,3.64,9.55,9.05,9.52,9.12-.29,16.65-.75.58-1.29,1.45-1.93,2.18Z"/>
      <path class="cls-1" d="M442.97,224.94c5.4-.34,7.68,3.25,7.84,8.65.15,5.22-7.18,13.58-12.24,12.88-7.1-.97-4.92-8.22-5.5-12.33-.7-4.98,3.1-9.1,9.91-9.21Z"/>
      <path class="cls-3" d="M470.65,218.2c0,3.86-1.09,7.46-3.82,10.12-3.17,3.09-6.65,4.88-9.01-1.06-.45-1.14-.89-2.37-1.67-3.27-2.37-2.75-5.86-5.04-2.44-9.34,3.3-4.15,7.96-5.02,12.61-4.55,4.59.47,4.31,4.62,4.34,8.11Z"/>
      <path class="cls-3" d="M42.68,200.52c3.92-.76,7.79-.63,11.46,1.07,5.84,2.7,6.64,5.98,2.51,10.87-2.12,2.51-3.04,5.51-4.1,8.48-10.21-1.45-13.75-8.76-9.88-20.41Z"/>
      <path class="cls-1" d="M426.03,243.22c.1,3.31-.63,6.39-2.95,8.85-2.32,2.47-5.33,4.05-8.6,3.03-4.07-1.27-1.21-4.54-1.24-6.92-.05-3.68.33-7.37.28-11.05-.05-3.36,1.09-6.08,4.45-6.66,3.43-.6,5.19,2.1,6.53,4.86,1.21,2.49,1.58,5.15,1.53,7.89Z"/>
      <path class="cls-1" d="M480.03,212.91c5.99-4.92,13.48-6.47,20.51-9.05,2.3-.85,3.6-.4,4.4,2.03.77,2.34.29,3.88-2.14,4.4-7.43,1.58-14.88,3.05-22.33,4.56-.15-.65-.3-1.29-.45-1.94Z"/>
      <path class="cls-1" d="M472.6,203.17c3.13-9.06,8.16-17.15,9.89-26.57.21-1.16.94-2.35,2.52-1.89,1.49.43,2.89,1.23,2.21,3.08-3.4,9.31-7.52,18.23-14.62,25.38Z"/>
      <path class="cls-1" d="M338.03,202.14c5.76-1.07-.49-3.77.74-5.46,10.02,7.19,20.04,14.38,30.07,21.57-11.44-3.13-21.19-9.48-30.8-16.12Z"/>
      <path class="cls-1" d="M20.14,202.23c-3.61-.67-7.22-1.34-10.83-1.99-2.54-.46-3.06-1.9-2.42-4.27.68-2.5,1.88-3.05,4.29-2.09,5.15,2.06,10.95,2.56,15.28,6.53-1.66,2.18-4.21,1.26-6.33,1.82Z"/>
      <path class="cls-1" d="M39.18,192.75c-7.07-6.87-11-15.65-14.32-24.77-.6-1.65.18-2.92,1.93-3.25,1.47-.28,2.25.69,2.51,2.01,1.87,9.16,6.55,17.19,9.87,26.01Z"/>
      <path class="cls-1" d="M33.73,212.36c-7.05,2.48-12.23,4.32-17.43,6.12-1.48.51-3.35,2.04-4.15-.61-.64-2.14-.56-5.26,1.61-5.83,5.91-1.55,12.07-2.76,19.97.32Z"/>
      <path class="cls-1" d="M479.42,223.09c10.24-5.4,20.15-2.14,19.86,6.58-6.42-2.13-12.65-4.19-19.86-6.58Z"/>
      <path class="cls-1" d="M126.69,156.98c.36,3.44-1.97,5.92-3.19,8.79-1.83,4.29,1.3,2.17,2.77,2.22-4.19,6.45-8.38,12.91-12.58,19.36-.63-7.03,3.64-12.47,6.18-18.41,1.79-4.19,4.52-7.99,6.83-11.96Z"/>
      <path class="cls-1" d="M277.07,121.92c-3.28-1.27-3.83.61-3.73,3.23-4.28-7.54-7.39-15.48-8.07-24.22-.1-1.33-.84-3.43,1.93-1.92,1.11,8.57,6.49,15.31,9.87,22.91Z"/>
      <path class="cls-1" d="M487.69,195.76c2.15-2.59,4.24-5.23,6.48-7.73,1.38-1.54,2.82-3.79,5-.66,1.59,2.28,3.36,4.42-.24,6.47-3.1,1.77-6.19,3.57-9.28,5.35-1.31-.77-1.69-2.06-1.96-3.43Z"/>
      <path class="cls-1" d="M116.25,198.91c3.1-6.34,5.69-12.98,10.46-18.36-.21,1.86-.42,3.71-.66,5.87,3.82-1.49,5.06-5.96,9.06-6.53-5.29,7.13-12.32,12.8-17.06,20.39-1.09.19-1.57-.42-1.81-1.36Z"/>
      <path class="cls-1" d="M17.04,186.03c-1.63-.98-3.33-1.88-4.89-2.96-3.38-2.33-.36-4.09.7-5.9,1.62-2.76,3.08-1.14,4.39.39,1.71,1.99,3.36,4.02,5.04,6.03-.28,3.97-3.38,1.88-5.24,2.44Z"/>
      <path class="cls-1" d="M265.85,405.02c.18-1.62.36-3.24.54-4.86q2.42,16.5,20.66,20.74c.39.09.73.38,1.09.58-.54.34-1.08.67-1.62,1.01-4.25-.59-8.51-1.17-12.76-1.76-8.78-2.15-8.04-9.08-7.9-15.72Z"/>
      <path class="cls-1" d="M389.11,193.8c4.56,5.58,5.81,12.91,9.89,18.74.06.95.11,1.9.17,2.85-4.71-5.91-9.41-11.82-14.12-17.72,1.49.6,2.98,1.2,4.74,1.91-.25-2.09-.46-3.93-.68-5.77Z"/>
      <path class="cls-1" d="M17.04,186.03c1.86-.56,4.96,1.52,5.24-2.44,2.79,2.53,5.44,5.17,7.89,10.58-5.51-3.41-9.32-5.78-13.13-8.14Z"/>
      <path class="cls-1" d="M297.07,92.59c-3.39-1.23-6.79-2.46-10.18-3.7-.59-.39-1.48-.65-1.71-1.2-.73-1.72.91-1.18,1.46-1.13,3.75.36,7.5.81,10.94,2.54-1.63.95-.87,2.24-.52,3.48Z"/>
      <path class="cls-1" d="M117.35,210.81c2.66-3.15,5.32-6.3,7.98-9.44.07,2.26,1.29,3.42,3.49,3.65-3.07,2.09-6.15,4.18-9.22,6.27-.75-.16-1.5-.32-2.25-.48Z"/>
      <path class="cls-1" d="M487.69,195.76c.27,1.36.65,2.66,1.96,3.43-2.65,1.79-4.92,4.46-9.23,4.11,2.71-2.81,4.99-5.17,7.27-7.54Z"/>
      <path class="cls-1" d="M20.14,202.23c2.12-.57,4.67.35,6.33-1.82,2.36-.09,4.18.74,5.69,3.58-4.47.49-8.27-.35-12.02-1.76Z"/>
      <path class="cls-1" d="M98.62,235.14c0,.73.13,1.5-.02,2.2-.57,2.55,2.89,6.37-1.46,7.56-4.15,1.13-7.66-1.08-9.73-4.92-2.96-5.48-2.16-10.95.7-16.15,1.16-2.1,2.95-4.25,5.82-3.49,2.87.76,4.48,2.88,4.5,5.98.01,2.94,0,5.88,0,8.82.06,0,.13,0,.19,0Z"/>
      <path class="cls-1" d="M74.8,215.7c6.87,5.7,3.03,12.51,1.95,19.02-.41,2.46-2.14,2.24-3.94,1.75-3.44-.94-6.29-2.69-8.15-5.83-.92-4.38-1.72-8.77-1.37-13.28,3.28-4.18,7.48-2.21,11.46-1.7,0,0,.06.04.06.04Z"/>
      <path class="cls-1" d="M222.78,129.28c7.36-7.57,14.47-15.4,22.69-22.09-.92,5.92-3.89,10.88-7.34,15.61.23-1.87.46-3.74.72-5.8-6.54,2.86-8.7,10.97-16.07,12.28Z"/>
      <path class="cls-1" d="M241.92,366.28c2.47,8.16,4.49,16.36,2.26,24.95-1.42-8.26-2.85-16.51-2.26-24.95Z"/>
      <path class="cls-1" d="M63.29,217.36c-.35,4.51.45,8.9,1.37,13.28-4.46-4.01-4.96-8.44-1.37-13.28Z"/>
      <path class="cls-1" d="M228.35,361.86c2.91-.04,5.82-.15,8.72-.11,3.05.04,5.25,1.08,4.87,4.72-3.22-5.4-9.74-1.09-13.59-4.61Z"/>
      <path class="cls-2" d="M336.83,265c-1.69,6.12-2.38,12.61-6.37,17.91-1.25,1.67-.8,2.85.36,4.52,6.16,8.83,5.56,14.44-2.95,21.93-3.09,2.72-3.58,4.38-.59,7.26,2.15,2.07,3.18,4.92,3.84,7.85.54,2.38.4,4.68-2.29,5.42-2.47.68-4.69-.62-4.97-3.13-.61-5.38-4.55-7.85-8.27-10.69-5.34-4.09-5.17-5.73,1.04-8.27,5.02-2.05,9.14-4.76,10.4-10.47.5-2.26.83-4.52-1.4-6-2.33-1.55-4.85-1.19-6.83.57-2,1.78-3.88,3.8-5.36,6.02-5.63,8.48-6.66,8.6-11.48.04-2.2-3.9-5.49-6.19-9.34-7.98-4.23-1.97-7.06-.09-9.31,3.39-2.39,3.69,0,6.15,2.5,8.15,1.87,1.5,4.28,2.35,6.52,3.33,2.44,1.07,5.87,1.65,4.5,5.33-1.17,3.13-3.97,1.9-6.32,1.05-4.65-1.67-9.25-1.23-13.66.73-2.64,1.18-4.67,3.49-3.82,6.42.87,3.05,3.96,2.41,6.33,2.05,2.15-.32,4.22-1.19,6.35-1.75,1.99-.53,4.04-.77,5.05,1.56,1,2.3-.34,3.69-2.28,4.7-2.83,1.47-5.86,2.61-8.05,5.1-2.21,2.52-2.56,5.34-.89,8.17,1.63,2.77,4.32,1.86,6.63,1.2,5.18-1.48,9.13-4.19,11.14-9.71,2.27-6.23,6.74-7.01,9.93-1.42,2.37,4.14,10.49,7.16,4.49,14.13-2.23-.13-4.53-.33-5.89-2.34-2.76-4.09-4.57-1.92-6.39.8-6.87,4.68-14.1,7.96-22.72,5.91-3.03-2.6-6.01-5.43-6.2-9.63-.19-4.45-2.41-3.62-5.35-2.99-16.73,3.58-32.89,2.53-49.18-3.67-5.94-2.26-14.13-2.58-20.09,3.13-1.08,1.88-1.09,4.32-3.03,5.76-1.41,1.05-2.86,2.11-4.66,1-2.01-1.24-2.54-3.07-1.13-5,2.2-3.04,2.36-6.28,1.7-9.81-.35-1.89-.64-4.09,1.72-5.07,2.1-.87,3.84.01,5.18,1.68,2.4,2.99,5.5,4.03,9.18,3.24,3.97-.85,8.2-2.03,7.93-7.07-.27-5.05-4.46-6.51-8.77-7.3-3.04-.55-8.06,2.77-8.71-2.06-.64-4.7,4.99-4.16,8.2-5.37,1.15-.43,2.41-.63,3.47-1.22,2.35-1.3,5.3-2.64,4.19-5.99-1.18-3.59-4.24-2.45-6.86-1.8-4.18,1.03-7.49,3.55-10.71,6.26-1.74,1.47-3.37,4.14-6.11,1.43-2.51-2.48-.87-4.41.94-6.26,3.71-3.77,4.72-8.49,4.68-13.54-.01-1.65.58-3.72-1.3-4.66-2.08-1.04-3.86.47-5.25,1.7-4.24,3.77-6.47,8.58-6.41,14.32.03,2.44.49,4.94-1.7,6.8-4.51.1-6.07-3.48-7.98-6.52-2.03-3.22-4.13-6.21-8.63-4.99-2.19.59-4.33,1.67-4.43,4.21-.17,4.17,2.19,6.73,6.06,7.97l-.08-.04c3.14,4.43,7.95,2.34,12.04,3.09,2.29,8.5-3.54,14.88-5.91,22.14-.61,1.85-2.82,1.82-4.48,1.04-1.77-.83-1.99-2.35-1.81-4.29.44-4.85,6.15-9.56,3.78-13.21-2.23-3.43-8.73-3.62-12.63-6.75-7.35-5.89-7.1-12.39.84-19.52,3.85-.83,7.7-1.67,12.14-2.63-1.77-3.25-3.26-5.98-4.75-8.71-.45-7.24-4.35-13.58-5.43-20.64-.48-3.13-2.66-7.3,2.51-8.54,5.07-1.22,5.25,2.94,6.02,6.32,2.27,10.08,4.94,20.02,10.41,29.15,3.7-2.72,6.71-5.75,10.77-7.11,7.79-2.6,13.94.83,13.87,8.99-.05,6.52,2.74,6.84,7.82,6.98,9.58.27,13.11,7.46,8.12,15.72-.37.62-1.23,1.16-1.23,1.75-.01,1.16.04,3.02.71,3.38,6.64,3.57.43,15.36,10.62,16.5,13.05,5.83,26.24,3.58,39.93.88-.97-2.07-1.77-3.78-2.57-5.5.32-1.68.43-3.44,1.01-5.03,2.01-5.44,6.97-7.46,11.19-10.7,2.78-2.14-3.98-8.43-.96-13.84,4.53-8.12,14.24-10.14,23.76-4.75,3.08,1.74,6.13,7.26,8.65,5.29,5.95-4.67,14.97-6.28,17.29-14.9,2.02-7.52,5.19-14.81,4.28-22.97-.69-6.21,2.38-6.78,7.04-3.88.11,5.16.22,10.32.33,15.48Z"/>
      <path d="M240.95,262.62c-9.75.11-16.49-6.76-16.47-16.79.02-10.29,8.74-18.82,19.5-19.07,10.26-.24,17.57,6.57,17.78,16.54.22,10.78-8.84,19.19-20.81,19.32ZM253.07,242.95c-.12-4.2-1.22-9.17-8.08-9.57-6.6-.38-12.73,4.77-12.78,10.4-.06,7.2,3.34,11.34,9.4,11.46,7.65.15,11.46-3.49,11.46-12.29Z"/>
      <path class="cls-2" d="M263.65,191.71c8.26-6.42,13.6-5.03,17.16,4.67,2.35,6.42,2.29,13-.13,19.36-2.86,7.5-8.57,9.3-15.62,5.29-5.89-9.51-5.75-19.32-1.4-29.32Z"/>
      <path class="cls-2" d="M233.67,206.22c-.05,10.37-4.42,17.2-11.05,17.31-5.52.09-10.51-7.86-10.7-17.09-.02-1.22.01-2.45.15-3.67,1.16-10.28,5.13-15.23,11.87-14.88,5.14.27,9.21,6.69,9.72,15.38.06.98,0,1.96,0,2.94Z"/>
      <path class="cls-1" d="M195.97,333.59c5.96-5.71,14.15-5.39,20.09-3.13,16.29,6.2,32.45,7.25,49.18,3.67,2.93-.63,5.15-1.46,5.35,2.99.18,4.2,3.17,7.03,6.2,9.63-3.99.21-5.9-2.57-6.8-5.65-1.26-4.32-3.94-5.08-7.78-4.43-16.02,2.69-31.52,1.85-46.91-4.4-5.86-2.38-12.95-.53-19.32,1.31Z"/>
      <path class="cls-1" d="M163.55,301.32c-3.88-1.25-6.23-3.8-6.06-7.97.1-2.54,2.24-3.62,4.43-4.21,4.5-1.21,6.6,1.77,8.63,4.99,1.91,3.03,3.47,6.62,7.98,6.52-1.01,1.24-2.01,2.49-3.02,3.73-4.08-.75-8.9,1.34-12.04-3.09,1.43.28,2.85.55,4.27.85,1.46.31,3.17.8,4.16-.45,1.19-1.5-.42-2.67-1.27-3.76-2.4-3.09-4.11-9.08-9.05-6.19-5.87,3.43,2.1,6.12,1.96,9.59Z"/>
      <path class="cls-1" d="M264.25,320.3c.8,1.72,1.61,3.44,2.57,5.5-13.68,2.7-26.87,4.96-39.93-.88,8.97.25,17.86,1.98,26.9,1.28,4.5-.35,8.7-.87,10.46-5.91Z"/>
      <path class="cls-1" d="M263.65,191.71c-4.34,10-4.49,19.81,1.4,29.32-8.27-6.62-8.96-21.15-1.4-29.32Z"/>
      <path class="cls-1" d="M162.69,272.44c1.49,2.73,2.98,5.46,4.75,8.71-4.44.96-8.29,1.79-12.14,2.63.59-.71,1.12-1.96,1.77-2.03,6.07-.65,6.53-4.53,5.62-9.31Z"/>
      <path d="M283.19,238.75c.04,1.91-.93,2.86-2.45,3.17-1.66.34-2.85-.53-3.09-2.13-.28-1.82.35-3.4,2.53-3.41,1.61-.01,2.46,1.17,3.01,2.38Z"/>
      <path d="M290.2,252.07c-.43,1.77-1.65,2.55-3.26,2.25-1.75-.33-3.45-1.22-2.89-3.42.42-1.67,1.94-2.04,3.54-1.77,1.68.28,2.56,1.28,2.62,2.95Z"/>
      <path d="M303.03,256.58c-.52,1.77-1.6,3.13-3.54,2.75-1.45-.29-2.4-1.6-2.34-3.23.08-2.23,1.67-2.84,3.48-2.55,1.49.24,2.6,1.21,2.41,3.03Z"/>
      <path d="M289.85,264.01c-.32,1.61-1.25,2.77-2.97,2.47-1.83-.31-3.27-1.51-2.93-3.54.28-1.65,1.79-2.33,3.39-2.05,1.59.28,2.58,1.31,2.51,3.11Z"/>
      <path d="M303.59,240.18c2.11.15,3.72.74,3.79,2.89.06,1.75-1.17,2.7-2.81,2.58-1.52-.1-2.82-.93-3.18-2.57-.42-1.93.95-2.49,2.2-2.91Z"/>
      <path d="M194.13,253.73c1.69.22,3.18,1.05,3.42,2.94.22,1.69-1,2.72-2.59,2.67-1.92-.06-3.01-1.47-3.14-3.28-.1-1.3.82-2.15,2.31-2.33Z"/>
      <path class="cls-1" d="M336.83,265c-.11-5.16-.22-10.32-.33-15.48,4.35,5.32,1.21,11.44,1.65,17.17.02.21-1.05-.92-1.32-1.69Z"/>
      <path class="cls-1" d="M299.5,340.85c1.82-2.73,3.62-4.89,6.39-.8,1.36,2.01,3.66,2.21,5.89,2.34-1.44,3.18-3.89,1.59-5.46.64-2.18-1.32-4.27-2.29-6.81-2.18Z"/>
      <path d="M295.44,234.45c1.46.3,2.66,1.17,2.63,2.83-.03,1.8-1.4,2.57-3,2.21-1.49-.33-2.65-1.47-2.41-3.14.19-1.29,1.24-2,2.78-1.9Z"/>
      <path d="M279.65,256.44c-.63,1.9-1.41,3.18-3.16,2.94-1.55-.21-2.75-1.25-2.73-2.87.01-1.78,1.41-2.46,2.99-2.34,1.55.12,2.56,1.06,2.9,2.28Z"/>
      <path d="M186.99,249.39c-1.66-.11-2.69-1.12-3.29-2.53-.7-1.63.5-2.26,1.75-2.43,1.62-.22,2.88.58,3.3,2.21.37,1.42-.51,2.25-1.76,2.75Z"/>
      <path d="M194.27,238.51c-1.39-.57-2.76-1.37-2.77-2.98,0-1.33,1.12-2.14,2.48-1.98,1.64.19,2.63,1.27,2.56,2.92-.05,1.27-.62,2.35-2.28,2.04Z"/>
      <path d="M210.64,254.83c-.51,1.28-1.34,2.08-2.73,1.91-1.58-.19-2.74-1.01-2.63-2.74.1-1.5,1.27-1.9,2.59-1.72,1.5.2,2.71.8,2.76,2.55Z"/>
      <path d="M205.33,245.27c-.23,1.61-1.1,2.6-2.8,2.6-1.45,0-2.17-1.07-2.34-2.26-.18-1.31.7-2.34,1.97-2.52,1.56-.22,2.79.44,3.17,2.18Z"/>
      <path class="cls-1" d="M350.42,171.9c10.05,9.5,20.12,19,28.65,29.95-10.57-9.01-21.45-17.72-28.65-29.95Z"/>
      <path class="cls-1" d="M285.12,121.13c-4.51-6.6-8.84-13.28-10.27-21.36,2.99,1.01,4.92,3.08,5.98,6.01-2.51,3.27.89,5.29,1.72,7.82.82,2.52,2.87,4.62,2.57,7.53Z"/>
      <path class="cls-1" d="M389.11,193.8c.22,1.84.43,3.68.68,5.77-1.76-.71-3.24-1.31-4.74-1.91-25.46-28.79-53.88-54.56-82.09-80.55-5.22-4.81-9.93-10.19-14.88-15.3,1.01-2.3,3.21-1.96,5.11-2.31,13.04,6.08,23.9,15.36,34.84,24.4,21.65,17.89,41.41,37.61,56.47,61.57,1.69,2.68,3.08,5.55,4.61,8.33Z"/>
      <path class="cls-1" d="M293.19,99.5c-1.89.35-4.09.02-5.11,2.31-1.98-1.99-4.1-3.87-5.9-6.01-1.51-1.81.39-1.55,1.36-1.76,3.22,1.82,6.43,3.64,9.65,5.46Z"/>
      <path class="cls-1" d="M128.82,205.01c-2.19-.23-3.42-1.39-3.49-3.65,22.13-26.4,46.99-49.95,74.02-71.24,4.22-3.33,8.63-6.42,12.96-9.62,5.25-.12,7.84-5.63,13.29-7.09-1.59,3.46-4.99,4.6-5.28,7.85-1.36,1.26-2.72,2.53-4.08,3.79-6.22,1.87-10.14,6.11-12.36,12.07-19.81,23-42.51,42.93-66.05,61.94-2.79,2.25-6,3.97-9.01,5.94Z"/>
      <path class="cls-1" d="M220.32,121.27c.29-3.25,3.69-4.39,5.28-7.85-5.45,1.46-8.04,6.96-13.29,7.09,8.88-6.66,16.16-15.57,27.17-19.22-4.27,8.69-12.36,13.72-19.16,19.98Z"/>
      <path class="cls-1" d="M203.88,137.13c2.22-5.97,6.14-10.2,12.36-12.07-4.12,4.02-8.24,8.05-12.36,12.07Z"/>
      <path class="cls-1" d="M135.11,179.88c-4.01.58-5.24,5.04-9.06,6.53.24-2.16.45-4.01.66-5.87,15.91-25.77,38.31-44.93,63-61.71,6.26-4.25,12.92-7.9,19.39-11.82,2.14,1.15,5.06-2.98,6.79,1-15.79,13.24-31.84,26.18-47.29,39.82-11.57,10.22-22.36,21.33-33.49,32.04Z"/>
      <path class="cls-1" d="M215.89,108.03c-1.72-3.98-4.64.15-6.79-1,5.17-3.87,10.61-7.24,16.79-9.28.2.81.39,1.62.59,2.43-3.53,2.62-7.06,5.23-10.6,7.85Z"/>
      <path class="cls-1" d="M226.49,100.17c-.2-.81-.39-1.62-.59-2.43,2.83-1.63,5.62-3.32,8.95-3.73-1.69,3.55-5.38,4.37-8.37,6.15Z"/>
      <path class="cls-1" d="M253.07,242.95c0,8.81-3.8,12.44-11.46,12.29-6.06-.12-9.45-4.26-9.4-11.46.04-5.62,6.18-10.78,12.78-10.4,6.87.4,7.96,5.37,8.08,9.57Z"/>
      <path class="cls-1" d="M163.55,301.32c.14-3.47-7.83-6.16-1.96-9.59,4.94-2.89,6.66,3.11,9.05,6.19.85,1.09,2.46,2.26,1.27,3.76-.99,1.25-2.7.76-4.16.45-1.42-.3-2.84-.57-4.27-.85,0,0,.07.03.07.03Z"/>
    </g>
  </g>
</svg>