<?xml version="1.0" encoding="UTF-8"?>
<svg id="Layer_1" data-name="Layer 1" xmlns="http://www.w3.org/2000/svg" viewBox="0 0 512 512">
  <defs>
    <style>
      .cls-1 {
        fill: #1c1c1c;
      }

      .cls-2 {
        fill: #0e8d37;
      }

      .cls-3 {
        fill: #269ed9;
      }

      .cls-4 {
        fill: #263585;
      }
    </style>
  </defs>
  <g id="vMjdTm">
    <g>
      <path class="cls-1" d="M316.05,63.35c13.4,2.25,25.71,1.4,38,.88,7.81-.33,15.6-.65,23.39.42,6.45.88,8.28,2.77,8.5,9.37.04,1.21.08,2.45-.11,3.64-8.65,53.83-8.78,108.16-9.33,162.45-.58,57.47,1.67,114.9,2.4,172.35.1,7.5-2.4,10.06-9.82,9.67-26.54-1.39-53.07-1.83-79.62-.12-4.35.28-5.72,1.39-4.92,5.89,1.41,7.93,5.49,14.51,9.6,21.11,4.21,6.76,8.96,13.19,12.57,20.32,7.5,14.81,3.95,25.71-11.04,32.88-15.59,7.45-32.02,10.94-49.35,9.45-3.85-.33-7.6-1.44-10.82-3.43-14.24-8.79-29.89-13.4-46.21-16.28-12.74-2.25-20.26-10.36-22.92-22.57-2.7-12.42,2.75-22.09,12.63-29.22,10.68-7.71,22.75-10.71,35.9-9.05,1.55.2,3.11.33,4.66.45.32.02.65-.15.98-.24-1.34-5.76-4.22-8.2-10.77-9.27-6.42-1.05-12.82-.09-19.22.19-16.48.72-32.97.76-49.46.6-4.22-.04-5.57-1.64-6.29-5.42-3.22-16.93-3.56-34.12-5.07-51.21-4.62-52.31-4.06-104.75-2.88-157.11.9-39.88.63-79.84,3.93-119.66.46-5.52,1.52-11,1.96-16.52.24-2.95,2.09-3.16,4.19-3.43,11.78-1.54,23.56-.8,35.34-.12,7.45.43,14.87.86,22.33-.25,3.9-.58,3.51-1.78,1.3-3.99-.74-.73-1.55-1.45-2.08-2.32-1.96-3.21-.3-6.3,3.47-6.45,4.73-.19,8.65,2.2,12.7,4.15,8.41,4.05,9.06,3.61,9.41-5.75.44-11.87-2.08-23.47-2.92-35.21-1.1-15.47-3.48-12.82,10.92-14.3,15.52-1.59,31.15-2.1,46.73-3.02,5.53-.33,10.77-2.53,16.43-2.18,5.87.36,7.87,1.95,7.56,7.79-.79,14.9-1.69,29.79-2.84,44.67-.38,4.88,1.1,5.81,5.34,3.9,4.25-1.92,8.59-3.67,12.9-5.46,2.83-1.17,5.8-1.52,8.59-.21,2.32,1.09,4.75,2.44,4.54,5.67-.2,3.01-2.06,4.64-4.8,5.42-1.48.42-2.98.78-5.82,1.53Z"/>
      <path class="cls-3" d="M299.12,312.58c-15.08-9.07-30.74-12.63-47.46-11.52-22.28,1.48-41.39,10.52-58.45,24.47-13.05,10.67-22.25,24.16-28.89,39.51-1.32,3.06-2.09,6.27-1.58,9.63.69,4.53,3.45,5.78,7.32,3.45,5.24-3.14,8.48-8.15,9.83-13.65,5.52-22.42,22.07-34.14,41.24-43.13,15.4-7.22,31.5-11.65,48.89-8.67,10.95,1.88,20.7,8.55,25.81,18.57-3.72,0-7.27-.2-10.8.04-10.52.7-18.74,9.73-18.9,20.57-.15,9.9,6.61,17.21,17.49,18.11,4.63.39,3.03,3.35,3.07,5.55.21,10.91,7.87,18.77,18.21,18.51,4.02-.1,7.54-1.46,10.14-4.5,1.74-2.03,2.64-1.71,4.4.08,7.26,7.41,14.88,9.03,23.56,5.36,8.16-3.45,12.88-11.06,12.96-20.72.01-1.67-1.03-4.25.5-4.84,2.73-1.06,5.39-2.48,8.18-3.19,1.97-.49,1.28,1.96,1.47,3.13,1.73,10.34.56,20.79,1.01,31.18.38,8.69.23,8.86-8.87,8.78-19.26-.18-38.53-.56-57.79-.86-9.22-.14-18.34.94-27.47,2-4.38.51-5.4,2.55-4.61,6.63,2.8,14.54,9.54,27.42,16.75,40.08,2.83,4.97,6.16,9.66,8.43,14.95,3.64,8.49,1.83,14.12-6,18.99-19.4,12.08-50.96,10.33-68.87-3.87-1.75-1.39-3.3-3.07-4.81-4.73-4.66-5.13-5.67-11.14-3.11-17.41,2.53-6.22,8.21-8.07,14.34-8.62,11.52-1.03,22.81,1.25,34.16,2.61,2.48.3,5.62,1.73,7.3-.72,1.9-2.78.09-5.74-1.78-8.09-5.99-7.52-7.79-16.44-9.02-25.62-.37-2.73-.99-5.47-1.89-8.07-2.17-6.24-5.28-7.82-11.78-7.59-30.54,1.11-61.09,1.6-91.65,1.44-3.24-.02-3.75-1.81-3.95-4.2-1.41-16.23-3.07-32.45-4.12-48.7-2.38-36.74-3.08-73.54-2.91-110.34.17-37.66,1.29-75.32,2.95-112.95.76-17.33,2.03-34.63,2.79-51.96.17-3.83,1.97-4.07,4.91-3.98,28.47.88,56.95.59,85.39-.44,41.47-1.5,82.94-2.45,124.43-1.49,12.96.3,10.77-.93,9.82,11.56-1.45,19.2-3.29,38.37-4.42,57.58-2.7,46.12-3.06,92.29-2.03,138.47.32,14.39,1.24,28.77,1.79,43.16.21,5.52-.5,5.9-5.52,3.72-1.74-.76-3.61-2.09-5.31-1.94-6.41.56-5.26-2.72-4.07-6.72,1.03-3.46,1.7-7.09,2.02-10.69.34-3.79-1.21-7.24-5.21-7.86-3.9-.61-5.4,2.14-6.26,5.91-1.69,7.41-4.39,14.58-5.33,22.18-.17,1.37-.4,2.77-.29,4.14.23,2.92.18,6.36,3.06,7.87,3.02,1.59,6.16.17,8.74-1.77,3.07-2.32,6.33-4.32,9.93-1.84,3.4,2.33,3.36,6.26,2.93,9.96-1,8.73-4.02,10.68-12.45,7.98-2.39-.77-4.78-1.62-6.84.3-2.06,1.91-.03,3.88.47,5.74,1.33,4.86,2.85,9.69,2.08,14.82-.72,4.78-4.66,9.07-8.05,8.93-4.24-.18-7.19-3.98-7.46-9.68-.16-3.29-.11-6.6-.4-9.88-.28-3.17-1.47-5.65-5.29-5.88-3.61-.21-6.06,1.19-7.25,4.59-.63,1.79-1.06,3.66-1.59,5.49-.44,1.49-.79,3.02-1.38,4.46-1.92,4.66-6.61,7.96-9.81,7-2.36-.7-3.48-7.13-1.82-11.48,1.51-3.95,4.42-7,6.96-10.29,1.12-1.46,4.03-2.6,2.24-5.06-1.58-2.18-4.13-3.33-6.9-2.62-2.16.55-4.22,1.55-6.27,2.48-2.05.94-3.95,2.23-6.03,3.06-5.09,2.03-9.33.76-11.08-3.12-2.78-6.16-1.47-11.26,4.07-13.63,6.38-2.73,12.74-2.75,18.77,1.45,2.3,1.6,4.65,4.37,7.88,2.41,2.95-1.79,2.43-5.12,2.54-8.03.16-4.35-.47-8.64-1.13-12.94-1.13-7.3,0-14.51,1.04-21.73.54-3.78-.28-6.99-4.87-7.7-4.77-.74-6.69,2.2-7.43,6.11-.53,2.86-.43,5.84-.66,9.68Z"/>
      <path class="cls-2" d="M230.79,47.96c-.63-8.62-1.28-17.24-1.86-25.86-.21-3.16.16-5.96,4.3-6.3,15.5-1.27,30.95-3.28,46.55-3.26,3.31,0,4.57.12,4.26,4.4-.91,12.78-.94,25.63-1.26,38.45-.19,7.41-.34,7.48-7.58,8.3-7.88.89-15.61,3-23.6,3.14-4.94.77-9.87.71-14.81.03-2-.71-5,1.39-5.98-2.14.71-5.58.75-11.17-.01-16.75Z"/>
      <path class="cls-3" d="M215.76,444.38c-4.07,2.66-8.14,4.28-11.19,7.45-7.64,7.94-9.93,17.18-7.08,27.79.33,1.21,1.83,2.68.25,3.73-1.12.74-2.64.03-3.97-.44-9.29-3.28-13.71-12.38-10.76-22.26,3.93-13.15,18.69-20.76,32.75-16.26Z"/>
      <path class="cls-3" d="M243.54,444.37c-4.94,1.36-6.82-.9-7.63-4.92-.89-4.38-2-8.72-3.05-13.07-.48-2-.04-3.56,2.22-3.7,2.38-.15,6.03-1.85,6.72,1.42,1.33,6.29,4.24,11.99,5.74,18.14,1.37,5.6-3.4.83-4.01,2.13Z"/>
      <path class="cls-2" d="M230.79,47.96c1.58,5.58,1.55,11.17.01,16.75,0-5.58,0-11.17-.01-16.75Z"/>
      <path class="cls-2" d="M236.78,66.86c4.94,0,9.88-.02,14.81-.03-4.93,1.62-9.87,1.6-14.81.03Z"/>
      <path class="cls-1" d="M309.13,207.48c.38,11.54-1.7,22.24-6.28,32.3-11.53,25.33-36.82,36.21-64.17,27.64-42.68-13.37-54.97-59.35-31.46-94.31,10.15-15.09,23.71-25.66,42.31-28.46,23.68-3.56,43.47,7.42,52.93,29.37,4.66,10.82,7.12,22.06,6.68,33.45Z"/>
      <path class="cls-1" d="M281.26,130.37c-10.63-.15-17.5-13.49-12.11-23.65,1.9-3.59,4.69-6.43,8.27-8.37,10.21-5.51,18.58-1.33,20.43,10.13,1.8,11.13-6.46,22.02-16.59,21.88Z"/>
      <path class="cls-1" d="M242.43,113.54c.24,3.07-1.12,7.71-3.64,11.93-4.49,7.51-13.31,8.3-19.24,1.89-6.31-6.81-6.45-20.23-.27-26.77,3.66-3.87,11.06-5.61,15.83-3.37,6.05,2.85,7.12,8.41,7.32,16.31Z"/>
      <path class="cls-4" d="M256.82,155.23c10.92.75,21.87,1.71,29.7,10.79,5.22,6.06,7.41,13.64,8.67,21.31,2.83,17.26.06,33.89-5.91,50.25-6.25,17.15-20.71,24.62-39.01,22.22-13.76-1.8-25.82-6.85-34.44-17.86-7.67-9.8-9.65-21.44-8.47-33.75,1.13-11.83,4.95-22.69,12.09-32.05,9.32-12.23,20.59-21.61,37.38-20.9Z"/>
    </g>
  </g>
</svg>