<?xml version="1.0" encoding="UTF-8"?>
<svg id="Layer_1" data-name="Layer 1" xmlns="http://www.w3.org/2000/svg" viewBox="0 0 512 512">
  <defs>
    <style>
      .cls-1 {
        fill: #1a7e4e;
      }

      .cls-2 {
        fill: #c13a44;
      }

      .cls-3 {
        fill: #171717;
      }

      .cls-4 {
        fill: #885c4a;
      }

      .cls-5 {
        fill: #2c99c1;
      }

      .cls-6 {
        fill: #fff;
      }

      .cls-7 {
        fill: #f9cd00;
      }
    </style>
  </defs>
  <g id="PpN63b">
    <g>
      <path class="cls-3" d="M392.35,348.5s-.02.01-.03.03h0s-.04.07-.08.1v.02h.02s.05-.08.07-.11c.01-.02.02-.03.03-.04h-.01ZM392.36,348.49h0s0,0,0,0h0ZM392.35,348.5s-.02.01-.03.03h0s-.04.07-.08.1v.02h.02s.05-.08.07-.11c.01-.02.02-.03.03-.04h-.01ZM392.35,348.5s-.02.01-.03.03h0s-.04.07-.08.1v.02h.02s.05-.08.07-.11c.01-.02.02-.03.03-.04h-.01ZM500.44,230.59c-2.24-5.11-6.39-6.09-11.41-6.03-10.28.14-20.58.27-30.86-.1-7.82-.28-15.75-.89-22.71-7.37,8.87-6.95,18.67-10.91,27.95-15.77,3.06-1.6,7.99-1.42,8.37-5.94.45-5.23-4.44-6.85-7.95-9.17-7.42-4.89-16.15-7.82-21.9-15.19-1.99-2.55-4.39-6.08-7.92-5.04-4.37,1.29-3.21,6.03-3.55,9.46-1.02,10.26.18,20.91-5.93,31.45-4.48-11.45-8.35-21.94-12.66-32.26-15.24-36.55-35.27-70.21-66.35-95.3-12.17-9.82-17.64-19.32-19.27-35.12-3.79-36.72-41.26-55.93-66.64-36.52-12.95,9.9-25.02,14.71-40.95,12.98-4.52-.49-8.43.18-12.54-2.92-15.99-12.06-31.77-8.83-41.21,8.74-2.8,5.21-6.24,6.77-11.56,7.39-16.81,1.97-33.41,5.17-49.69,9.91-34.37,9.99-59.85,30.43-74.64,63.48-11.04,24.68-8.62,47.06,11.01,66.66,6.19,6.17,13.5,10.69,21.15,14.69,17.79,9.29,37.1,13.07,58.46,14.76-13,13.96-23.66,27.78-30.49,44.11-1.25,2.99-2.99,4.61-6.01,2.85-3.84-2.25-.79-4.63.51-6.53,4.07-5.9,6.04-12.5,7.04-19.46.93-6.59-1.42-12.25-7.18-15.17-5.98-3.03-13.5-2.44-17.4,2.66-5.99,7.84-9.12,3.65-13.58-.84-7.37-7.42-15.81-13.35-26.6-14.29-11.99-1.04-17.85,7.31-13.95,18.72,3.58,10.47,12.74,16.41,19.22,24.54-16.24,11.55-18.69,15.43-13.02,28.28,3.02,6.87,9.93,12.1,5.56,20.84-.18.38,1.21,1.41,1.67,2.25,9.66,17.41,9.87,15.93,29.7,14.55,4.06-3.13,8.11-6.26,12.16-9.39,8.58-2.04,11.62-.36,10.54,7.46-1.19,8.62,1.07,16.32,3.49,24.2,26.95,61.96,77.76,91.3,142.19,102.52-5.18,2.24-10.53,1.44-13.73,3.68-6.02,4.23,2.05,6.78,3.5,11.68-13.84-1.61-25.29,3.6-36.49,9.18-8.54,4.26-18.2,8.35-17.44,20.41.55,8.77,9.47,15.28,22.7,17.63,1.31.23,2.65.49,3.96.43,3.69-.16,5.99,1.41,7.95,4.65,5.93,9.8,15.68,13.02,26.31,13.43,12.57.49,25.14.48,37.51-3,10.18-2.86,20.52-5.44,30.95-7.02,12.31-1.86,15.3-4.27,11.06-15.79-6.24-16.99-3.48-34.09-3.18-51.22.11-6.25,2.34-10.06,9.56-11.5,28.69-5.71,54.54-18.85,74.11-39.93,35.51-38.25,55.35-83.74,52.97-137.22-.09-1.92-1.81-4.42,1.17-6.03,5.7,5.69,9.34,12.48,10.95,19.93,2.15,9.98,3.43,20.18,4.62,30.33.51,4.43,1.94,8.02,6.26,9.08,5,1.23,5.68-3.39,7.1-6.58,2.02-4.56,4.5-8.8,8.1-12.3,6.93-13.9,15.85-26.48,25.67-38.43,2.86-3.49,5.48-6.64,3.34-11.5ZM438.09,194.98c.49-4.43-1.09-10.85,2.89-12.57.5-.22,1.02-.31,1.54-.31.13,0,.26.01.39.02.5.04,1.01.16,1.52.35.18.07.37.14.55.22.25.11.51.23.76.36.17.1.35.2.53.3.16.08.31.18.46.27.11.07.22.14.33.21,1.89,1.21,3.8,2.79,5.63,3.88.11.06.21.12.32.18.15.09.3.18.45.27.96.58,1.75,1.14,2.34,1.7.09.09.18.17.26.26.39.41.68.81.85,1.21.04.07.06.13.08.2.16.44.18.89.05,1.33-.02.09-.06.18-.09.27,0,.01-.02.02-.02.04-.04.08-.08.16-.13.24,0,.01-.01.02-.03.04-.04.08-.1.17-.16.25-.22.29-.51.58-.87.86-.21.16-.44.33-.7.49-.52.33-1.13.65-1.85.97-.18.07-.37.15-.56.23-.57.23-1.13.47-1.69.71-3.44,1.44-6.95,2.99-11.08,4.78-.59.26-1.19.52-1.81.78,0-3.66-.18-5.63.04-7.54ZM34.67,270.48c-.35-.08-.69-.17-1.03-.27,0,0,0,0,0,0-.21-.06-.42-.13-.62-.2-.61-.22-1.19-.49-1.72-.8-.43-.26-.83-.55-1.2-.87-.3-.25-.58-.54-.83-.86-.1-.12-.2-.25-.3-.38-.03-.05-.06-.1-.09-.15-.1-.14-.19-.28-.27-.43-.06-.1-.12-.2-.17-.31-.06-.11-.12-.22-.17-.34-.08-.15-.14-.3-.2-.47-.03-.05-.04-.09-.06-.14-.03-.09-.07-.18-.09-.27-.02-.03-.03-.07-.03-.11-.06-.16-.11-.32-.15-.49-.06-.22-.11-.45-.16-.69-.13-.66-.21-1.37-.24-2.14,0-.19,0-.39,0-.57,0-.28,0-.55.03-.81.01-.27.04-.52.07-.77,0-.04,0-.07,0-.1.03-.19.05-.38.09-.56,0-.09.02-.17.04-.24.05-.21.1-.42.15-.62.02-.12.05-.23.09-.33.01-.05.02-.09.04-.14.04-.13.09-.26.13-.39.11-.3.23-.58.37-.85l.18-.36c.08-.15.16-.29.26-.43.07-.13.15-.25.24-.37.16-.24.34-.47.53-.69.09-.11.19-.21.29-.32.06-.07.13-.14.2-.21.18-.18.37-.35.56-.51.09-.09.18-.16.27-.23.15-.12.3-.24.45-.34.26-.18.52-.35.79-.51.17-.11.35-.21.53-.3.18-.1.37-.2.56-.29.13-.07.27-.13.4-.19.25-.11.51-.22.77-.32.41-.16.82-.31,1.25-.45.02,0,.04,0,.06-.02.31-.1.62-.19.93-.27.32-.09.65-.17.98-.25.44-.11.89-.2,1.35-.29.45-.1.91-.18,1.38-.25.23-.05.47-.08.71-.12.04.03.09.05.13.08.23.13.47.25.72.34.29.12.6.23.92.32.16.05.32.09.48.13.3.07.6.14.92.2.03,0,.06,0,.08,0,.51.08,1.03.15,1.56.22,1.06.13,2.15.23,3.21.39.27.04.53.09.79.14.24.04.47.09.7.15.2.04.39.09.58.15.07.02.13.04.2.06.26.08.52.17.76.27.12.04.23.09.34.14.12.05.24.11.35.17.23.12.45.25.66.39.21.13.41.28.61.45.09.08.19.17.28.26.1.09.19.18.28.28.06.06.11.12.16.18.04.05.08.1.12.15.22.27.42.57.6.89.04.07.07.13.11.2.22.42.4.87.56,1.38.03.1.06.2.09.31.05.16.09.32.13.49.03.15.06.31.09.46.07.34.12.69.16,1.06.02.18.03.37.03.56s-.01.37-.03.55c-.03.27-.08.54-.15.82-.03.13-.07.25-.11.38-.05.18-.11.36-.2.55-.03.1-.07.19-.12.29-.12.27-.26.55-.43.83-.07.13-.15.26-.23.38-.08.13-.16.25-.25.37-.11.16-.22.31-.34.46-.14.18-.28.36-.44.53-.09.11-.19.22-.29.33-.14.16-.3.33-.47.49-.15.16-.31.31-.48.47-.17.15-.34.3-.51.45-.35.29-.71.58-1.09.86-.76.55-1.57,1.07-2.43,1.53-.42.23-.86.45-1.3.65-1.11.5-2.27.91-3.44,1.21-.29.07-.58.13-.87.19s-.59.11-.88.15c-.29.04-.58.08-.87.1-.29.03-.58.04-.87.05-1.55.04-3.09,0-4.54-.18-.28-.03-.55-.07-.83-.12-.14-.03-.27-.05-.4-.07-.14-.02-.28-.05-.41-.08ZM62.35,281.88c-.02.07-.03.14-.05.2-.09.39-.19.78-.29,1.16-.08.32-.17.64-.27.95-.1.35-.22.7-.34,1.03-.15.45-.31.89-.49,1.31-.25.61-.52,1.2-.81,1.75-.08.16-.17.33-.26.49-.15.28-.31.55-.47.81-.18.31-.37.6-.57.88-.12.18-.25.36-.38.54-.13.18-.27.36-.41.54-.25.32-.52.64-.79.93-.13.14-.25.28-.38.4-.19.21-.4.41-.61.6-.14.14-.27.26-.41.37-.15.14-.31.28-.47.4-.15.13-.31.26-.48.38-.35.28-.72.54-1.1.78-.32.21-.65.41-.99.61,0,0-.02.01-.02.01-.34.19-.69.37-1.04.55-.43.21-.86.4-1.31.59-.45.19-.9.36-1.37.51-.47.16-.95.31-1.44.44-1.64.45-3.1.5-4.4.22-.27-.06-.53-.13-.78-.21-.25-.09-.49-.18-.73-.29-.01,0-.01-.01-.01-.01-.18-.08-.35-.17-.52-.26-.17-.1-.34-.2-.5-.3-.22-.15-.42-.3-.63-.46-.11-.08-.21-.17-.31-.26-.19-.17-.38-.36-.57-.54-.27-.29-.54-.6-.78-.93-.25-.32-.48-.67-.7-1.03-.22-.36-.42-.74-.61-1.12-.11-.23-.22-.46-.32-.69-.07-.17-.14-.34-.21-.51-.03-.07-.06-.14-.08-.21-.19-.48-.35-.97-.5-1.47-.09-.3-.16-.58-.22-.87-.07-.28-.12-.56-.16-.83-.04-.21-.06-.42-.08-.62-.09-.82-.06-1.58.07-2.28,0-.07.02-.14.04-.2.03-.16.07-.32.12-.48.06-.2.12-.4.21-.6.08-.2.17-.38.27-.57.2-.36.44-.7.73-1.02.15-.16.3-.31.46-.46.32-.3.68-.57,1.09-.81.2-.13.41-.24.63-.35.44-.21.92-.41,1.44-.57.26-.09.53-.16.81-.23.22-.06.44-.11.67-.15.13-.03.26-.06.39-.08.24-.05.49-.08.74-.12,1.01-.14,2.03-.33,3.04-.55.44-.1.88-.2,1.31-.32,1.45-.37,2.87-.83,4.26-1.37.92-.36,1.82-.76,2.7-1.18,7.09-3.45,7.74.74,8.13,4.25-.08.43-.16.84-.25,1.25ZM83.77,266.8c-1.72,4.58-2.26,9.6-3.51,14.38-.14.52-.26,1.08-.45,1.62-.02.07-.04.14-.07.2-.05.15-.11.29-.17.42-.18.38-.4.72-.69.98-.08.08-.16.14-.25.2-.08.05-.16.1-.24.14-.05.03-.1.05-.16.07-.11.05-.23.09-.35.11-.1.03-.21.05-.32.06-.27.03-.56.02-.89-.02-2.2-.28-3.26-1.66-3.7-3.91-1.71-8.61-8.29-15.13-7.54-25.4.04-.5.04-.99.01-1.45,0-.12-.01-.23-.03-.34h0c-.02-.22-.04-.43-.08-.63-.03-.2-.07-.41-.13-.61-.02-.11-.05-.22-.08-.33-.03-.12-.07-.24-.11-.36-.03-.1-.06-.2-.1-.3-.21-.58-.48-1.13-.81-1.64-.07-.12-.15-.24-.23-.36-.05-.08-.1-.15-.16-.22-.09-.12-.18-.23-.27-.35-.11-.14-.23-.28-.35-.42-.24-.28-.5-.55-.78-.81-.17-.17-.35-.33-.54-.49-.13-.12-.26-.23-.4-.33-.29-.23-.58-.45-.89-.67-.3-.22-.61-.42-.93-.63-.33-.21-.65-.41-.99-.61-.29-.17-.59-.34-.89-.5-.04-.03-.08-.05-.13-.07-.35-.19-.7-.38-1.06-.56-2.1-1.08-4.31-2.07-6.34-3.14-.3-.16-.59-.31-.87-.47-.57-.32-1.13-.64-1.65-.98-.12-.08-.25-.15-.38-.22-.33-.19-.67-.36-1.02-.52-.32-.14-.65-.28-.99-.42-.21-.09-.42-.17-.63-.26-.2-.08-.4-.16-.6-.25-.42-.18-.84-.37-1.24-.6-.11-.06-.22-.12-.33-.19-.11-.06-.22-.13-.32-.2-.05-.03-.1-.06-.14-.1-.19-.13-.37-.27-.55-.42-.14-.12-.27-.24-.4-.38-.26-.27-.5-.57-.72-.91-3.54-2.61-7.28-5.02-9.24-9.21-1.83-1.89-3.67-3.78-5.48-5.69-3.01-3.18-6.65-6.8-3.95-11.21.15-.24.3-.46.46-.67.11-.15.22-.29.34-.42.09-.1.18-.2.27-.29.09-.1.19-.19.29-.28.2-.18.41-.35.62-.5.11-.08.21-.14.32-.21.48-.29.97-.5,1.49-.65.13-.05.27-.08.4-.1.18-.04.38-.07.57-.1.19-.02.39-.04.58-.05.09-.01.17-.01.25-.01.08-.01.16-.01.25-.01.23,0,.47.02.71.03.02,0,.05,0,.08.01.24.02.48.05.72.09.16.02.31.05.47.08.52.09,1.04.22,1.56.37.21.06.41.13.62.2.88.29,1.74.64,2.56,1,10.71,4.75,19.27,11.76,20.91,24.32.43,3.26,1.95,5.51,4.16,7.58.47.04.91.04,1.31,0,.12-.01.24-.02.36-.04.12-.01.23-.02.34-.05.21-.04.41-.09.6-.15.17-.05.32-.11.48-.18.14-.06.28-.13.41-.21.06-.04.12-.07.17-.11.13-.07.24-.15.35-.25.07-.04.13-.1.19-.16.1-.07.18-.16.27-.25.06-.06.12-.13.18-.2.06-.07.12-.13.17-.21.15-.19.29-.39.41-.61.04-.09.1-.17.14-.26.12-.22.23-.46.32-.7.08-.18.16-.38.22-.58.21-.61.37-1.26.51-1.95.57-2.9.97-5.96,2.24-8.58,2.09-4.34,5.68-8.53,10.7-6.69.14.05.27.1.39.16.13.05.25.11.36.18.1.05.19.1.27.16.12.07.23.14.33.21.1.08.2.16.29.25.09.07.17.15.23.23.12.12.22.25.31.39.05.07.1.14.14.22.1.17.19.35.25.53.07.18.12.37.17.56.03.11.05.23.06.34.12.77.06,1.61-.08,2.46-.03.19-.07.39-.11.6-.04.21-.09.41-.14.61-.03.14-.06.27-.1.41-.1.41-.21.81-.32,1.21-.18.66-.36,1.3-.5,1.9-1.25,5.51-3.71,10.54-8.02,14.45-2.44,2.92-3.05,5.19-2.48,6.94.04.14.09.27.15.39.17.38.39.74.67,1.06.09.11.19.22.29.32.14.14.29.27.44.4.39.33.84.62,1.32.88.39.21.81.4,1.25.58.11.05.22.09.33.13.45.17.92.32,1.41.46.49.14.99.26,1.5.37,7.8,1.64,9.42,5.26,6.73,12.39ZM194.72,480.06c-.1.53-.25,1.02-.44,1.48-.09.21-.19.42-.31.61,0,.03-.03.06-.05.09-.09.15-.19.29-.3.43-.05.07-.1.14-.15.2-.12.15-.25.31-.39.44-.14.14-.29.28-.45.4-.05.05-.11.1-.16.13-.14.11-.28.21-.44.31,0,0,0,0-.02,0-.22.14-.45.26-.69.38-.25.12-.52.23-.79.33-.24.09-.5.17-.76.24-.22.05-.44.11-.68.15-.12.03-.25.05-.38.07-.02.01-.05.01-.08.01-.19.04-.38.07-.57.08-.72.1-1.5.14-2.33.13-8.95-.07-15.26-4.56-14.98-10.76.03-.7.3-1.5.77-2.34.04-.07.08-.13.11-.2.14-.24.3-.49.47-.74.06-.09.13-.19.2-.28.14-.2.29-.4.45-.6.12-.15.24-.3.37-.45.2-.24.41-.48.63-.72,1.1-1.2,2.42-2.39,3.84-3.46.22-.17.43-.33.65-.48.14-.11.29-.21.44-.31.29-.21.59-.41.89-.6.45-.29.9-.57,1.35-.82.56-.32,1.13-.62,1.68-.87.27-.13.54-.25.81-.36.53-.22,1.06-.41,1.56-.55.51-.14,1-.24,1.45-.29.08,0,.16-.02.24-.02.25-.02.5-.02.73-.01,4.78.3,7.37,5.31,7.34,14.73.09.68.14,1.31.14,1.91s-.05,1.19-.15,1.73ZM411.99,226.94c.38.55.76,1.09,1.14,1.63-4.6,6.01-9.15,12.06-13.84,18-1.51,1.92-3.12,3.41-5.42.37-4.55-6.03-2.66-13.16,4.24-15.32,4.66-1.46,9.26-3.11,13.88-4.68ZM328.03,83c0-.18.03-.35.05-.52.05-.43.14-.84.27-1.22.05-.14.1-.29.17-.43.05-.11.1-.21.16-.31.1-.17.21-.34.35-.5.03-.04.07-.09.12-.14.13-.15.28-.29.45-.42.19-.15.41-.28.65-.39.12-.07.25-.12.38-.17.2-.08.4-.13.6-.16.2-.03.41-.05.62-.05.13,0,.26.01.39.03.02,0,.05,0,.07.01.04,0,.09.01.13.02.1.01.2.03.3.05.02,0,.05.01.07.02.05.01.09.02.14.03.1.03.19.06.29.1.07.02.15.05.22.08.15.06.3.13.45.2.17.08.35.18.52.28.17.1.34.2.5.32.13.08.26.17.39.27.09.05.16.11.24.18.12.09.25.19.38.29.33.27.65.55.97.85.97.88,1.89,1.83,2.74,2.62,27.17,25.18,47.87,54.84,61.34,89.4,4.09,10.48,7.71,21.13,10.56,28.98,1.15,8.22-1.43,8.07-5.48,7.01-1.96-.51-3.89-1.08-5.79-1.69l-1.02-.33s-.06-.02-.09-.03c-.95-.32-1.91-.64-2.85-1-.04-.01-.07-.02-.11-.04-.42-.15-.83-.31-1.25-.47-.48-.18-.97-.37-1.46-.56-.41-.17-.82-.33-1.23-.51-.36-.14-.71-.3-1.06-.45-.97-.41-1.93-.84-2.88-1.29-.57-.27-1.13-.54-1.69-.82l-1.14-.57c-1.02-.52-2.02-1.05-3-1.61-.26-.14-.51-.28-.76-.43-.28-.16-.56-.32-.83-.48l-1.29-.78c-.14-.08-.27-.16-.41-.25-.47-.29-.93-.59-1.39-.89-.42-.28-.85-.54-1.26-.83-.24-.16-.48-.32-.72-.49-.34-.23-.68-.47-1.02-.72-.49-.35-.98-.7-1.46-1.06-.83-.62-1.65-1.25-2.46-1.91-.34-.27-.67-.54-1-.82-.29-.24-.58-.49-.87-.74s-.57-.5-.86-.75c-.14-.12-.28-.24-.41-.37-.28-.25-.56-.5-.84-.76-.29-.27-.59-.54-.88-.83-.21-.2-.41-.39-.61-.58-.95-.92-1.88-1.86-2.78-2.84-.44-.48-.89-.97-1.32-1.46-.04-.04-.08-.09-.12-.13-.33-.36-.64-.74-.95-1.11-.17-.19-.33-.38-.49-.58-.33-.38-.65-.78-.96-1.18-.11-.13-.22-.27-.33-.41-.34-.42-.66-.84-.98-1.26-1.77-2.34-3.44-4.81-5-7.41-15.01-25.07-22.44-52.91-24.11-82.15-.1-1.76-.5-3.94-.36-5.84ZM320.22,120.66c-.77.72-3.95.42-4.44-.38-3.23-5.21,1.98-8.68,3.2-13.15,1.71,4.64,6.03,9.06,1.24,13.53ZM230.44,28.17c2.62.46,4.9,2.5,3.88,5.69-.06.19-.13.38-.2.55-.07.18-.14.35-.23.51-.16.33-.34.62-.55.88-.1.13-.21.25-.32.36-.04.04-.08.07-.11.11-.08.07-.16.14-.24.2-.08.06-.17.12-.26.17-.06.05-.12.08-.18.1-.09.06-.18.11-.28.14-.06.03-.12.05-.18.07-.07.02-.13.04-.2.06-.1.04-.2.06-.31.07-.08.02-.16.04-.24.04h-.03c-.1.01-.2.02-.31.02-.35.01-.72-.03-1.11-.12-.11-.02-.21-.05-.32-.08-.21-.06-.44-.13-.66-.22-.12-.04-.23-.09-.35-.14-1.02-.44-2.04-.86-3.08-1.27-3.12-1.25-6.37-2.43-9.96-3.83,5.06-5.02,10.28-4.18,15.24-3.31ZM176.55,28.82c.03-.68.14-1.32.34-1.92.05-.15.1-.29.16-.44.04-.12.09-.23.15-.35.05-.12.1-.24.17-.36.09-.18.19-.36.3-.53.22-.36.48-.7.75-1.02.11-.13.23-.26.35-.37.23-.24.49-.48.76-.7.27-.23.55-.44.84-.63.25-.17.51-.33.78-.49.2-.12.42-.23.63-.33.49-.26,1.02-.48,1.55-.67.18-.07.36-.13.54-.19.18-.06.36-.12.55-.17.11-.04.23-.07.35-.1.18-.05.36-.1.55-.14.07-.02.15-.04.23-.05.19-.05.39-.09.58-.12.19-.04.38-.07.58-.1.39-.07.78-.12,1.18-.15.72-.07,1.46-.1,2.19-.08.29.01.59.02.89.04.29.02.59.05.89.09.15.01.3.03.45.06.3.04.6.09.9.15.3.06.6.13.89.21.29.07.58.15.86.25.21.07.42.14.62.22.21.08.41.16.61.25.27.12.52.24.77.38.24.14.48.28.71.43.14.09.27.19.4.29.13.1.25.2.37.31.1.08.19.17.28.25.09.09.17.18.25.27.09.11.19.21.27.32.09.11.18.23.25.35.09.13.17.27.25.41.04.07.07.13.1.19.03.08.07.16.11.24.06.18.12.35.18.54.04.11.07.23.09.35.01.02.01.05.01.07.02.07.03.15.04.23.02.11.03.23.04.36.02.27.02.55,0,.84-.04.54-.11,1.03-.22,1.47-.05.21-.1.41-.17.59-.12.35-.26.65-.42.92-.04.07-.08.14-.13.2-.11.16-.22.31-.35.44-.06.07-.13.14-.2.2-.11.11-.24.21-.36.3-.07.05-.14.1-.21.14-.14.09-.28.17-.43.24h0c-.11.05-.23.1-.35.14-.11.05-.23.09-.35.12-.16.04-.33.09-.5.12-.78.16-1.63.2-2.51.2-1,0-2.04-.05-3.04-.03-.24,0-.49.02-.73.03-.24.02-.47.04-.71.07h-.05c-.63.08-1.23.22-1.77.47-.13-.06-.26-.12-.39-.16-2.16-.83-5.16-.24-7.46-.33-.22-.01-.43-.03-.63-.05-.09-.01-.18-.02-.26-.04-.06-.01-.12-.02-.19-.03-.21-.04-.41-.09-.6-.15-.13-.05-.27-.11-.39-.17-.1-.05-.2-.11-.3-.18-.06-.04-.13-.09-.19-.14s-.12-.11-.18-.17c-.08-.09-.15-.19-.22-.29-.06-.09-.12-.2-.16-.31-.08-.16-.14-.34-.18-.54-.03-.1-.05-.2-.06-.31-.04-.28-.06-.59-.04-.94ZM211.05,436.62c7.24-1.47,13.45-2.69,12.52,8.25-5.1-1.08-10.15-1.75-12.52-8.25ZM197.97,457.22c7.38-2.43,13.25-5.83,15.89,4.02,1.35,5.04,2.44,9.43-4.15,10.2-11.67,1.35-4.49-11.23-11.74-14.22ZM226.6,494.01c-.02.2-.03.4-.04.61-.03.42-.04.84-.05,1.27-.01.2-.01.4-.02.6-.03,1.04-.07,2.06-.22,2.97-.03.18-.07.35-.11.52-.04.18-.08.35-.14.51-.05.16-.11.31-.17.45-.05.12-.1.23-.16.34-.05.1-.12.21-.19.31-.04.07-.09.13-.14.19-.09.12-.19.24-.32.35-.07.07-.15.14-.24.2-.02.02-.03.03-.05.04-.07.05-.15.1-.23.15-.19.11-.39.21-.62.28-.78.26-1.79.32-3.12.12-.22-.03-.44-.07-.67-.09-1.14-.16-2.33-.28-3.51-.42-.4-.05-.8-.1-1.19-.15-.66-.08-1.31-.18-1.95-.3-.34-.06-.67-.12-1-.19-.06-.01-.11-.02-.17-.04-.19-.05-.39-.09-.59-.14-.66-.16-1.3-.35-1.92-.59-.34-.13-.68-.26-1-.42-.29-.13-.58-.28-.86-.44-.35-.2-.69-.42-1.02-.66-.18-.12-.35-.26-.52-.41-.37-.3-.71-.64-1.04-1.02-.1-.11-.2-.24-.29-.36-.86-1.09-1.54-2.44-1.98-4.15-.05-.18-.09-.36-.13-.55-.04-.18-.08-.37-.12-.57-.05-.28-.06-.58-.04-.9,0,0,0-.01,0-.03.03-.44.14-.92.33-1.42.09-.24.19-.49.3-.74.06-.13.12-.26.19-.39.13-.26.28-.53.43-.8.08-.13.17-.27.25-.4.13-.21.27-.43.44-.66.13-.19.27-.39.42-.58.1-.14.21-.28.32-.41.12-.16.25-.32.39-.48.26-.32.54-.64.84-.96.14-.15.29-.31.45-.47.65-.69,1.36-1.36,2.11-2,.21-.19.42-.36.64-.54.29-.23.58-.46.88-.68.37-.28.75-.55,1.13-.8.45-.31.91-.6,1.36-.86,1.55-.9,3.1-1.55,4.51-1.8.07-.02.15-.04.23-.04.05-.02.08-.02.11-.02.13-.03.26-.04.39-.05.64-.06,1.25-.03,1.8.11,8.41,2.08,4.36,10.83,6.36,15.9-.02.2-.04.4-.06.61ZM218.51,464.28c-1.78-2.47-3.47-7.5-2.24-9.12,2.49-3.26,7.3-.55,11.1-1.58,7.21,0,14.48.49,21.62-.2,3.68-.35,6.74-1.07,7.18,3.46.6,6.18-4.44,3.18-6.87,3.38-6.6.56-13.06,1.43-19.44,3.3-3.69,1.08-7.73,5.79-11.35.76ZM235.14,479.71c-.13-.03-.26-.07-.37-.12-.08-.03-.16-.07-.23-.12-.05-.02-.11-.05-.16-.09-.08-.05-.16-.11-.23-.17-.09-.07-.17-.15-.25-.24-.04-.05-.08-.09-.11-.13-.1-.12-.19-.26-.27-.4-.04-.07-.07-.13-.11-.2-.1-.19-.18-.4-.24-.62-.04-.12-.07-.25-.1-.37-.04-.14-.07-.28-.09-.42-.03-.17-.06-.34-.08-.5-.03-.23-.05-.47-.07-.69-.02-.2-.03-.39-.03-.58,0-.16.01-.31.02-.46h0c.02-.15.04-.29.06-.42s.05-.26.08-.38c.02-.06.04-.12.06-.18.06-.19.14-.36.23-.52.05-.09.1-.18.16-.26.08-.11.16-.22.25-.31.07-.08.15-.16.23-.23.18-.17.37-.31.58-.43.11-.07.23-.13.35-.2.37-.18.76-.32,1.17-.45.16-.05.32-.09.48-.13.49-.14.99-.25,1.48-.36.14-.03.28-.06.42-.1.41-.1.81-.21,1.17-.35.51-.19,1.02-.28,1.52-.28.15,0,.3.01.45.03.16.02.31.05.46.08.1.02.2.05.29.08.1.04.19.07.28.11.19.08.36.17.52.27.08.06.16.11.24.17.03.01.05.03.07.05.02.01.05.03.07.06.1.08.19.17.27.27.08.08.15.17.21.27.09.12.16.24.22.37.06.12.11.24.15.37.03.08.06.17.08.27.03.12.05.25.06.39.03.17.04.35.03.53-.05,1.09-.39,1.9-.92,2.53-.2.24-.42.45-.66.65-.16.12-.33.24-.5.36-.18.11-.36.22-.55.33-.21.11-.43.22-.66.33-.23.11-.46.21-.69.31-.24.11-.49.21-.73.32-.6.25-1.18.51-1.72.83,0,.01-.02.02-.03.02-.14.09-.28.17-.41.27-.06.04-.12.09-.18.13-.14.1-.28.21-.41.33-.58.1-1.08.12-1.51.05-.12-.01-.24-.04-.35-.07ZM277.95,494.1c-10.39,2.07-20.8,4.16-31.08,6.72-7.66,1.91-12.6,1.34-10.53-8.31-1.6-5.39-.02-9.16,5.23-11.24,1.78-.71,3.48-2.56,5.4-1.02,2.05,1.66.48,3.6-.25,5.38-1.25,3.08-1.32,5.89,2.2,7.55,2.96,1.4,5.28.08,6.76-2.37,1.81-3.02,2.75-6.6-1.08-8.62-7.77-4.11-2.59-5.85,1.08-8.42,8.27-5.81,18.01-2.36,26.93-4.36,4.94-1.11,3.73,5.35,4.66,8.35,4.93,15.97,4.35,13.6-9.32,16.34ZM266.82,456.63c-1.27-5.46-.25-9.04,4.81-11.76.47,2.08.51,3.88.1,5.49-.03.15-.07.29-.12.43-.06.2-.12.4-.21.59-.17.46-.39.91-.66,1.34-.09.16-.2.32-.31.47-.37.53-.8,1.05-1.31,1.55-.33.32-.68.64-1.06.96-.39.31-.8.62-1.24.93ZM421.35,266.3c-.04.69-.08,1.38-.13,2.06-.06.98-.13,1.96-.22,2.93-.03.41-.07.81-.11,1.22-.03.4-.07.81-.12,1.21-.05.53-.1,1.07-.17,1.6-.1.91-.21,1.82-.33,2.73-.05.45-.11.9-.18,1.35,0,.02,0,.05-.01.08-.05.37-.1.73-.16,1.1,0,.05-.01.11-.03.16-.08.58-.17,1.17-.27,1.75-.24,1.55-.51,3.09-.81,4.62-.06.31-.12.62-.18.93-.13.68-.27,1.36-.42,2.03-.07.32-.14.63-.21.95-.1.5-.21.98-.33,1.47-.16.69-.32,1.38-.49,2.07-.21.86-.42,1.71-.65,2.56-.19.73-.38,1.46-.59,2.18-.23.83-.47,1.67-.72,2.5-.29.98-.59,1.95-.91,2.92-.09.3-.19.59-.29.89-.6,1.86-1.24,3.71-1.93,5.54-.24.67-.5,1.34-.75,2.01-.38.96-.76,1.92-1.15,2.87-.18.45-.37.89-.55,1.33-.45,1.07-.91,2.14-1.4,3.21-.23.53-.47,1.05-.71,1.57-.31.7-.64,1.4-.98,2.09-.17.37-.35.73-.53,1.09-.03.09-.07.18-.12.26-.28.58-.56,1.16-.86,1.73-.45.92-.92,1.82-1.4,2.72-.48.91-.96,1.81-1.46,2.71-1,1.8-2.03,3.59-3.09,5.37-1.04,1.75-2.13,3.49-3.26,5.22-.56.87-1.13,1.73-1.71,2.59-.57.85-1.15,1.7-1.73,2.54h0v.02h-.01s0,.01,0,.01h0c-.15.36-.31.71-.47,1.05-.29.67-.61,1.33-.95,1.98-.12.24-.24.47-.36.7-.07.14-.14.28-.22.42-.18.36-.37.71-.57,1.06-.2.36-.41.73-.62,1.09-.11.2-.23.4-.35.6-.32.55-.65,1.09-.99,1.62-.34.54-.69,1.08-1.05,1.61-.28.42-.56.84-.86,1.25-.27.39-.54.77-.82,1.14-.39.54-.79,1.06-1.19,1.58-.26.34-.53.68-.8,1.02-1.11,1.39-2.27,2.74-3.47,4.05-.36.4-.74.8-1.11,1.2-1.39,1.47-2.83,2.9-4.32,4.3v.02h-.02c-1.67,1.7-3.35,3.4-5.03,5.09h0s0,.01-.02.02c-.32.38-.65.76-.99,1.13-.67.75-1.37,1.49-2.09,2.2-.22.22-.44.43-.66.64-.29.28-.58.56-.88.83-2.36,2.18-4.88,4.15-7.54,5.96-.24.17-.48.33-.72.49-.81.54-1.63,1.06-2.46,1.57-.3.19-.6.37-.9.55-.86.52-1.73,1.02-2.61,1.51h0s0,.01,0,.01c-2.54,1.87-5.16,3.58-7.84,5.18-.48.29-.95.57-1.44.85-1.13.66-2.27,1.3-3.42,1.92-.02.01-.03.02-.05.02-1.17.63-2.35,1.25-3.53,1.84-1.19.6-2.38,1.18-3.58,1.75-1.13.53-2.26,1.05-3.4,1.57-1.14.51-2.28,1.01-3.43,1.51-1.15.49-2.3.98-3.45,1.46-.62.26-1.25.51-1.87.74-.94.35-1.89.66-2.83.93-.31.09-.61.18-.92.25-.87.23-1.73.43-2.59.59-.34.07-.68.13-1.02.18-.4.07-.8.13-1.2.18-.34.04-.67.08-1.01.11-.18.02-.36.04-.54.05-.4.04-.81.07-1.21.09-1.04.06-2.09.07-3.13.03-.13,0-.27-.01-.4-.02-.17,0-.33,0-.5-.03-.33-.01-.67-.04-1-.07-.52-.04-1.04-.1-1.57-.17-.52-.06-1.04-.14-1.57-.24-.46-.08-.92-.17-1.38-.27-.38-.08-.76-.17-1.14-.27-.36-.09-.73-.19-1.1-.29-.37-.1-.74-.21-1.1-.32-.53-.16-1.05-.34-1.58-.53-5.07,5.18-6.73,11.32-6.28,18.55.38,6.21-.27,12.5-.61,18.75-.78,14.19-.82,14.19-16.25,14.19,2.3-7.39,14.3-15.48-.72-21.75-5.29,2.88-7-.43-7.52-4.72-.59-4.82-.61-9.72-.87-14.59-6.55-3.73-9.87-2.15-9.34,5.7.15,2.29.29,4.58.62,6.85.24,1.71.37,3.24.37,4.6,0,.69-.04,1.34-.1,1.93-.03.3-.07.58-.12.86h0c-.05.28-.1.55-.17.8-.06.26-.14.5-.22.73s-.17.46-.27.67c-.21.42-.44.8-.7,1.13-.13.17-.28.33-.43.47-.3.29-.64.53-1.01.75-.15.08-.3.17-.47.22-.01.02-.02.02-.04.02-.08.04-.16.07-.25.1-.02.01-.05.02-.08.03-.29.11-.59.19-.92.25-.17.03-.35.06-.54.08-.46.06-.96.08-1.49.07h-.07c-.26,0-.52-.03-.79-.05-.29-.03-.58-.06-.89-.1-.25-.03-.5-.07-.75-.12-.34-.06-.7-.13-1.06-.22-.72-.16-1.48-.37-2.28-.61-.8-.24-1.64-.53-2.52-.85-1.36-1.3-2.71-2.59-4.07-3.89h-.01c-.38-2.9.32-5.49,2.14-7.77-.09-.94-.17-1.87-.25-2.82h0c-.28-.23-.54-.46-.79-.7-.32-.31-.61-.64-.88-.98-.06-.08-.12-.16-.18-.23-.35-.46-.67-.94-.98-1.44-.13-.22-.27-.44-.4-.67,0-.01,0-.01,0-.01-.25-.45-.5-.91-.75-1.37-.45-.86-.89-1.73-1.38-2.56-.16-.28-.33-.55-.5-.82-.51-.82-1.09-1.6-1.78-2.28-.12-.13-.25-.25-.38-.36-.13-.12-.26-.23-.4-.34-.54-.44-1.15-.83-1.84-1.15-14.98.56-29.61-.96-43.45-7.26-33.33-12.27-60.63-31.52-79.26-62.95-14.98-25.27-15.03-50.8-7.37-77.65,7.28-25.51,19.18-47.96,41.64-63.52,5.12-3.55,3.81-7.8,1.1-12.12-20.63.52-41.05-.59-60.67-7.89-1.24-.46-2.48-.91-3.71-1.4-41.46-16.46-51.09-47.29-26.43-84.54,2.75-5.08,5.75-9.99,10.11-13.91,13.11-18.21,32.65-26.46,52.9-32.81,27.91-8.75,56.61-12.91,86.02-11.36,5.55.29,11.16-.84,16.75-1.16,10.55-.6,15.73,6.07,12.21,15.76-.29.8-.57,1.59-.84,2.39-.2.6-.4,1.2-.59,1.8-.2.6-.39,1.21-.57,1.81-.38,1.21-.73,2.42-1.06,3.63-1.43,5.18-2.57,10.43-3.5,15.74-.12.66-.23,1.32-.34,1.99-.22,1.33-.43,2.66-.63,3.99,1.74,15.63,2.67,31.26-.13,46.88-.94,5.35,2.03,10.06,2.52,15.18.24.47.48.94.73,1.4.23.44.46.88.71,1.31.29.54.59,1.08.9,1.62.18.31.35.63.54.93,1.79,3.05,3.76,5.97,5.92,8.74.37.48.75.96,1.14,1.43.37.46.75.91,1.13,1.36.06.06.12.13.17.19.36.41.73.83,1.1,1.23.82.91,1.67,1.8,2.55,2.67.87.86,1.78,1.71,2.71,2.54,2.65.82,5.31,1.63,7.96,2.45,4.3.08,6.48-1.06,2.84-5.21-1.43-1.64-3.15-3.02-4.74-4.52-9.82-7.78-16.54-17.4-18.03-30.16-.71-3.63-1.28-7.26-1.69-10.89-.09-.8-.17-1.6-.24-2.4-.02-.19-.04-.38-.05-.56-.36-4.03-.51-8.05-.45-12.07,0-.4,0-.8.02-1.2.02-.69.04-1.38.08-2.08.04-.85.09-1.7.14-2.54.02-.3.05-.61.07-.92.06-.78.13-1.56.21-2.34.07-.76.16-1.52.25-2.28,0-.06.02-.13.02-.2.12-.98.26-1.96.41-2.94.15-.99.32-1.97.5-2.96.08-.49.17-.98.28-1.47.1-.5.2-.99.3-1.48.1-.5.21-.99.32-1.48.78-5.3,1.79-10.53,3.07-15.63.22-.85.44-1.7.66-2.54.45-1.68.94-3.35,1.46-5.01.52-1.65,1.07-3.29,1.65-4.91.59-1.61,1.2-3.21,1.86-4.79,6.21-15,15.65-28.12,29.77-37.76,22.06-15.07,44.04-7.49,53.09,25.03,3.28,11.78,2.17,23.83-.46,35.46-4.29,18.94-8.86,37.89-17.77,55.4-.08.54-.17,1.07-.27,1.6-.03.13-.05.25-.08.37-.1.5-.2.99-.32,1.47-.06.27-.13.54-.21.8-.05.24-.12.48-.19.71-.08.28-.17.56-.26.83,0,.05-.03.09-.05.14-.05.14-.1.29-.15.43-.07.21-.14.42-.23.62-.09.24-.19.48-.29.71-.03.09-.07.18-.12.27-.1.23-.2.46-.31.68-.3.64-.64,1.26-1.02,1.85-.21.33-.43.65-.66.97,0,.01-.01.02-.02.03-.17.23-.35.46-.53.68-.16.19-.32.38-.49.57-.16.2-.34.38-.53.57-.29.29-.59.58-.9.86-.17.15-.34.29-.51.43-.32.26-.66.51-1,.75-.18.12-.37.25-.55.37-.37.24-.76.48-1.17.69h0c-.07.31-.14.61-.22.9-.03.15-.08.3-.12.45,0,0,0,.03-.01.04-.07.27-.14.52-.24.78-.02.07-.04.13-.06.19-.12.35-.25.69-.4,1.02,0,.01,0,.02-.01.03-.13.29-.25.57-.39.84-.05.09-.09.18-.15.27-.14.29-.3.56-.47.83-.19.31-.39.6-.6.89,0,.01-.01.01-.01.02-.41.57-.87,1.1-1.37,1.59-.55.54-1.13,1.04-1.77,1.48-.24.18-.49.35-.75.5-.28.18-.56.35-.86.5-.04.03-.09.05-.13.07-.31.17-.64.33-.97.47-.34.16-.7.31-1.06.44-.36.15-.74.28-1.12.39-.38.13-.77.24-1.17.34-.46.19-.89.42-1.3.68-.41.26-.8.56-1.18.87-.19.15-.38.31-.57.47-.65.57-1.28,1.17-1.93,1.74-.09.08-.19.16-.28.24-.19.16-.38.31-.57.46-.29.23-.59.44-.9.63-.21.13-.42.25-.64.36-.11.06-.22.11-.33.16-.34.16-.69.28-1.06.38-.36.09-.75.16-1.16.2h0s-.01.02-.02.02c-4.61,3.23-9.23,6.46-13.85,9.69,20.02.19,32.7-12.14,44.15-26.25,3.03-3.74,5.25-8.2,7.51-12.51.67-1.29,1.3-2.63,2.01-3.87.28-.49.58-.96.9-1.41.16-.23.33-.44.5-.65.06-.08.12-.16.19-.23.15-.17.31-.34.47-.5.18-.18.37-.35.57-.51.22-.17.44-.33.68-.47.15-.1.31-.19.48-.27.07-.04.14-.07.21-.1.12-.06.24-.11.36-.15.1-.04.2-.07.3-.1.32-.11.65-.19,1.01-.23.11-.02.22-.04.33-.05s.22-.02.33-.03c.6-.04,1.25,0,1.96.1.19.03.38.06.57.1.38.06.76.12,1.13.18.38.06.75.12,1.12.19.37.07.73.14,1.1.22.36.07.72.16,1.07.25.18.04.36.08.53.14.3.08.61.17.9.28.27.09.54.18.8.29.35.14.69.29,1.02.46.24.12.49.25.72.39.15.08.3.17.45.28.39.25.76.53,1.12.85.1.08.2.17.3.27.77.72,1.46,1.6,2.06,2.69.08.15.17.31.24.47.11.2.21.42.3.64.1.21.19.42.27.65.08.2.16.42.23.64.09.25.17.51.25.78,1.44,4.93,3.13,9.74,5.08,14.43.16.4.33.79.5,1.18.14.33.28.67.43,1,.46,1.07.94,2.14,1.44,3.2.31.66.62,1.32.95,1.98.34.71.7,1.43,1.06,2.13.25.49.5.97.75,1.45,1.21,2.32,2.5,4.59,3.86,6.83.3.5.61,1,.92,1.5.31.49.62.99.94,1.48.95,1.49,1.94,2.96,2.96,4.4.59.85,1.2,1.68,1.81,2.51.44.6.88,1.19,1.34,1.78.02.04.05.07.09.11.25.34.51.68.78,1.02.55.7,1.11,1.4,1.67,2.09.59.72,1.2,1.44,1.81,2.15.04.06.09.11.14.17h.01c.85.7,1.64,1.45,2.4,2.24.25.26.5.53.76.8,1.25,1.35,2.44,2.75,3.68,4.09.44.47.88.93,1.34,1.37.23.22.45.44.69.65.04.04.07.07.1.09.24.23.5.45.75.66.27.22.54.44.82.65.16.12.32.25.49.37.56.39,1.14.76,1.75,1.1h.01c.38.14.75.29,1.12.44.37.16.74.32,1.11.48,1.11.48,2.19,1.02,3.26,1.59.35.18.7.38,1.06.58.48.26.96.53,1.43.81.58.33,1.15.67,1.73,1.02.22.13.43.26.65.39.26.16.52.32.79.49,1.76,1.08,3.53,2.19,5.35,3.27.79.47,1.58.93,2.38,1.38.22.13.46.26.69.39.46.25.93.51,1.4.75.19.11.38.21.57.3.21.11.43.22.65.33.07.04.14.07.21.1.48.24.97.47,1.46.7.57.27,1.15.52,1.74.75.43.18.86.35,1.29.52.36.14.72.27,1.1.4.27.1.54.19.81.28.85.28,1.73.54,2.64.77.33.09.67.17,1.01.24.22.06.44.11.66.15.74.17,1.5.31,2.27.42.16.03.33.06.49.08.42.06.84.11,1.26.16-7.64,5.35-13.09,7.16-18.98,7.08-8.79-.12-9.15,3.75-5.94,10.52.2.42.39.83.58,1.25.17.35.32.7.48,1.05.18.4.35.79.52,1.18.25.57.49,1.14.73,1.71.4.97.78,1.94,1.15,2.92.15.39.29.78.43,1.17,1.02,2.82,1.9,5.68,2.6,8.6.12.51.24,1.01.34,1.52.04.15.08.3.1.46.09.39.17.78.23,1.17.08.35.15.71.2,1.07.05.21.08.42.11.64.11.63.21,1.26.29,1.9.05.35.09.7.14,1.06.05.35.09.71.12,1.06.04.4.08.8.11,1.2.04.4.07.8.09,1.2,0,.01.01.01.01.01,0,0,0,0,0,0,.14.16.27.32.41.47.14.16.28.31.43.46.14.15.28.29.42.43.13.14.27.27.41.39.14.13.27.25.41.36.14.11.27.22.4.32.14.11.27.21.4.29.27.19.53.35.79.49.49.27.96.46,1.42.58.09.02.18.04.27.06.09.02.18.04.27.05.09.02.18.03.27.03.3.02.6.02.9-.02,0,0,0,.01,0,0,.16-.02.32-.05.48-.09.08,0,.16-.04.23-.07.1-.02.21-.06.31-.1.19-.07.37-.15.55-.25.15-.08.3-.17.45-.26.01,0,.02-.01.04-.03.08-.06.17-.11.25-.17,1.03-.74,1.99-1.88,2.9-3.36.12-.18.23-.37.34-.56.22-.38.44-.78.65-1.2h0s.02-.04.03-.06c0,0-.11.07-.15.11-.01,0-.03,0-.04.02,3.93-9.96,11.76-16.86,19.13-24.5,1.1,9.7,1.4,19.18.9,28.44ZM485.76,239.94c-8.82,13.08-17.8,26.05-27.59,40.34-2.44-19.22-9.26-35.03-21.38-51.1.68.18,1.37.35,2.04.52.41.1.82.19,1.23.28.04.01.07.02.11.03.57.13,1.13.25,1.69.36.59.13,1.17.24,1.75.35.36.07.71.13,1.07.19.65.12,1.3.23,1.94.33.56.09,1.12.17,1.68.24.43.07.85.12,1.27.17.5.07,1,.13,1.51.19.77.08,1.54.16,2.3.24.74.07,1.47.13,2.2.19.8.06,1.59.11,2.37.16,1.13.07,2.27.12,3.39.17.56.02,1.12.04,1.68.06.56.02,1.12.03,1.68.04.75.02,1.49.03,2.23.04,3.21.04,6.39.03,9.57.03,1.69,0,3.39.01,5.08.02,5.79.06,7.48,2.25,4.18,7.15ZM392.32,348.53h0s-.04.07-.08.1v.02h.02s.05-.08.07-.11c.01-.02.02-.03.03-.04h-.01s-.02.01-.03.03ZM392.35,348.5s-.02.01-.03.03h0s-.04.07-.08.1v.02h.02s.05-.08.07-.11c.01-.02.02-.03.03-.04h-.01ZM392.35,348.5s-.02.01-.03.03h0s-.04.07-.08.1v.02h.02s.05-.08.07-.11c.01-.02.02-.03.03-.04h-.01ZM392.38,348.47h0s0,0,0,0Z"/>
      <path class="cls-6" d="M277.95,494.1c-10.39,2.07-20.8,4.16-31.08,6.72-7.66,1.91-12.6,1.34-10.53-8.31-1.6-5.39-.02-9.16,5.23-11.24,1.78-.71,3.48-2.56,5.4-1.02,2.05,1.66.48,3.6-.25,5.38-1.25,3.08-1.32,5.89,2.2,7.55,2.96,1.4,5.28.08,6.76-2.37,1.81-3.02,2.75-6.6-1.08-8.62-7.77-4.11-2.59-5.85,1.08-8.42,8.27-5.81,18.01-2.36,26.93-4.36,4.94-1.11,3.73,5.35,4.66,8.35,4.93,15.97,4.35,13.6-9.32,16.34Z"/>
      <path class="cls-6" d="M249.3,460.22c-6.6.56-13.06,1.43-19.44,3.3-3.69,1.08-7.73,5.79-11.35.76-1.78-2.47-3.47-7.5-2.24-9.12,2.49-3.26,7.3-.55,11.1-1.58,7.21,0,14.48.49,21.62-.2,3.68-.35,6.74-1.07,7.18,3.46.6,6.18-4.44,3.18-6.87,3.38Z"/>
      <path class="cls-6" d="M209.71,471.44c-11.67,1.35-4.49-11.23-11.74-14.22,7.38-2.43,13.25-5.83,15.89,4.02,1.35,5.04,2.44,9.43-4.15,10.2Z"/>
      <path class="cls-7" d="M268.61,439.96c-5.29,2.89-7-.42-7.52-4.71-.59-4.83-.61-9.73-.87-14.59-.88-4.24-3.87-4.97-7.44-4.17-3.56.8-4.24,3.67-4.24,6.82,0,4.58.03,9.17-.04,13.75-.03,1.99-.27,4.17-2.87,4.31-2.63.14-2.8-2.22-3.42-4.02.41-4.55,1.91-9.57-4.8-11.01-5.82-1.33-5.45-11-13.17-9.78,0,0,.29,0,.29,0-14.4-3.46-28.98-5.86-43.72-7.24-33.33-12.27-60.63-31.52-79.26-62.94-14.98-25.27-15.04-50.8-7.37-77.65,7.28-25.51,19.18-47.96,41.64-63.52,5.11-3.54,3.8-7.8,1.1-12.12.13-.3.36-.61.36-.91,0-.26-.22-.74-.38-.76-8.48-.81-16.94-2.06-25.44-2.26-19.29-.44-37.38-5.36-53.25-16-18.57-12.45-28.49-28.61-19.99-52.35,2.57-7.19,9.14-13,7.88-21.55,2.76-5.08,5.76-9.99,10.11-13.91,1.71-.93,3.77-1.5,5.06-2.84,13.77-14.33,31.42-22.02,49.77-27.72,33.54-10.41,68.21-12.07,103.07-11.3,8.01.18,10.39,4.62,7.61,11.02-2.43,5.59-3.01,11.48-4.8,17.13-6.48,20.52-8.32,41.55-3.81,62.64,1.06,4.95-.8,11.85,5.84,14.89,4.49,8.84,10.15,16.8,17.6,23.43,6.67,8.06,15.09,9.36,24.88,7.12,22.21-5.07,35.68-20.21,46.14-39.04,1.83-3.3,2.45-7.9,7.95-7.5,5.77.43,8.79,3.97,10.7,8.91,1.43,3.7,2.62,7.51,4.29,11.1,6.2,13.29,10.42,27.99,24.7,35.7,4.53,3.72,7.48,9.12,12.79,12.01,6.5,9.48,18.27,11.74,27.5,19.23-5.02,1.02-8.85,2.1-12.75,2.52-5.67.61-8.29,4.39-6.41,8.83,4.6,10.83,5.77,22.89,12.1,33.04,0,0-.17-.27-.17-.27-.25,5.51,3.23,6.66,7.67,6.32,5.25-.4,6.33-3.82,5.55-8.35,0,0-.19.13-.19.13,5.7-2.59,7.54-8.82,11.91-12.7,1.58-1.41,1.98-4.84,4.94-3.67,2.7,1.07,1.6,4.06,1.61,6.21.13,25.09-5.97,48.76-16.02,71.63-3.68,8.37-10.4,15.32-11.53,24.85,0,0,.15-.21.15-.21-7.87,6.91-14.24,14.93-18.19,24.72-1.68,1.7-3.35,3.39-5.03,5.09-8.18,2.58-14.94,6.97-18.89,14.9-9.29,6.79-19.59,11.7-30.14,16.11-9.08,3.79-18.31,4.27-27.66.94-5.73-.16-7.01,3.98-8.28,8.34-3.13,10.72-1.12,21.69-1.84,32.53-.16,2.39.92,6.44-2.94,6.05-4.62-.47-1.24-4.07-1.09-6.17.71-9.68-1.79-12.64-9.71-11.02ZM280.5,238.61c4.73-.66,4.78-4.57,5.91-8.02,3.71-11.31-1.3-22.77.93-34.24.81-4.17-3.21-7.54-8.62-7.45-5.13.09-8.31,1.7-8.27,7.37.05,8.28.78,16.65-.14,24.83-2.06,18.21-13.09,31.42-26.61,42.47-3.17,2.59-9.37,4.7-9.43-4.62-.05-7.64-5.24-13.32-10.73-18.34-11.06-10.11-28.08-5.31-30.45,9.4-1.16,7.2-3.82,7.37-9.58,6.81-8.45-.83-17.09-.8-18.54,10.85-2.95,13.17-4.9,13.98-16.66,7.24-11.39-6.53-14.97-17-15.02-29.3-.02-5.31.82-12.18-7.16-11.01-6.72.99-3.2,7.44-3.05,11.4.87,23.35,13.37,37.68,36.35,43.88-3.87,5.2-8.38,8.8-10.46,14.09-2.58,6.56-5.1,13.42-.2,19.74,5.3,6.83,12.82,5.89,20.06,3.84,5.05-1.43,9.92-3.48,14.88-5.26,7.58,3.79,6.46,10.97,7.22,17.64.42,3.71-3.12,9.24,3.79,10.79,3,1.78,5.73,5.56,9.65,2.89,3.81-2.6,1.7-6.43,1.1-10-2.02-12.06-6.71-23.62-6.79-36.04-3.21-7.75-8.36-6.2-13.37-2.39-6.12,4.66-12.44,8.78-19.92,10.81-1.92.52-4.17.83-5.54-.97-1.37-1.81-.22-3.73.6-5.58,4.01-9.04,15.85-14.61,27.79-12.01,5.44,1.19,8.68-.34,10.03-5.03,1.45-5.03-1.64-8.14-6.3-9.6-3.15-.99-6.48-1.47-9.55-2.63-2.65-1.01-6.3-2.03-4.88-6.09,1.18-3.38,4.46-3.64,7.55-3.37,6.16.55,9.87,4.99,13.83,8.98,3.09,3.11,6.47,6.97,11.02,3.7,4.71-3.38,3.33-8.13.37-12.28-3.27-4.59-4.83-9.65-2.95-14.98,1.04-2.96,3.22-6.49,7.02-5.79,3.14.58,4.39,3.8,4.3,7.06-.16,5.61.81,11.28-.85,16.81-1.36,4.54,1.19,7.65,4.11,10.41,3.5,3.31,6.82.95,9.93-.9,2.79-1.65,6.68-5.29,8.52-2.06,2.22,3.9-2.42,6.75-5.81,8.84-1.12.69-2.36,1.23-3.62,1.63q-16.31,5.23-11.51,21.67c.55,1.89.91,3.85,1.23,5.79,1.03,6.29,4.53,11.39,10.95,10.25,7.52-1.33,5.37-8.2,3.94-13.03-2-6.78-.46-10.3,6.52-12.67,10.95-3.72,15.92-12.5,16.2-23.72.12-4.64,1.88-7.88,4.54-11.54,5.7-7.82,14.72-13.75,15.16-24.8,1.98-1.31,1.99-3.51,2.51-5.49Z"/>
      <path class="cls-4" d="M411.54,202.42c1.15,8.22-1.42,8.07-5.48,7.01-22.81-5.98-41.53-18.36-53.56-38.44-15.01-25.06-22.44-52.91-24.11-82.14-.2-3.46-1.55-8.54,2.23-9.94,3.18-1.18,6.42,2.72,9.03,5.13,27.16,25.18,47.86,54.84,61.34,89.4,4.09,10.48,7.71,21.14,10.55,28.98Z"/>
      <path class="cls-2" d="M316.31,41.73c-9.05-32.52-31.03-40.1-53.09-25.03-14.12,9.64-23.56,22.76-29.77,37.76-.65,1.58-1.27,3.18-1.86,4.79-.58,1.62-1.13,3.26-1.65,4.91-.52,1.66-1,3.33-1.46,5.01-.22.84-.44,1.69-.66,2.54-1.27,5.1-2.28,10.33-3.06,15.63-.06,15.94-.12,31.87-.18,47.81,1.49,12.76,8.21,22.38,18.03,30.16,7.72,3.22,15.63,4.19,23.79,1.93,0,0,0-.01.02-.01.41-.04.8-.11,1.16-.21.37-.1.72-.22,1.06-.38.11-.05.22-.1.33-.16.22-.11.43-.23.64-.36.31-.19.61-.4.9-.63.19-.15.38-.3.57-.46.09-.08.19-.16.28-.24.65-.57,1.28-1.17,1.93-1.74.19-.16.38-.32.57-.47.38-.32.77-.61,1.18-.87.41-.26.84-.49,1.3-.68,3.95-4.02,7.9-8.02,11.85-12.04,2.47-5.97,5.8-11.42,9.89-16.4,8.91-17.51,13.48-36.46,17.77-55.4,2.63-11.63,3.74-23.68.46-35.46ZM307.9,73.69c-2.48,25.95-11.28,49.63-27.4,70.33-12.66,16.25-27.69,17.69-40.29,3.94-5.48-5.97-5.9-13.88-7.24-21.28-.87-4.85-.59-9.91-.83-15.1.79-16.09,3.09-31.98,7.67-47.42,1.53-5.14,3.31-10.24,5.37-15.28,1.11-2.71,2.36-5.33,3.76-7.85.57-1.01,1.16-2,1.77-2.98.61-.97,1.25-1.93,1.92-2.87,1.01-1.41,2.07-2.78,3.19-4.11.75-.88,1.53-1.75,2.34-2.59.41-.43.82-.84,1.24-1.26.42-.42.84-.82,1.27-1.22,8.65-8.01,18.14-10.4,26.42-7.62.55.19,1.09.39,1.63.62s1.07.49,1.59.76c.27.14.53.28.79.43.52.3,1.03.62,1.53.96.25.17.5.35.75.53.5.36.99.75,1.47,1.16.48.41.95.84,1.41,1.29.34.34.68.69,1.02,1.05.33.36.67.74,1,1.14.74.88,1.45,1.83,2.13,2.84,1.12,1.66,2.15,3.49,3.08,5.48.49,1.05.94,2.11,1.34,3.17.41,1.06.78,2.12,1.11,3.19,3.32,10.65,3.01,21.69,1.96,32.69ZM288.23,148.95s-.03.03-.04.04c0,.01-.01.02-.01.03l.05-.07Z"/>
      <path class="cls-4" d="M458.16,280.28c-2.43-19.22-9.26-35.03-21.38-51.1,16.06,4.25,30.45,3.49,44.79,3.62,5.8.05,7.49,2.25,4.19,7.14-8.82,13.08-17.81,26.06-27.6,40.34Z"/>
      <path class="cls-7" d="M218.95,149.17c-6.64-3.04-4.78-9.95-5.84-14.89-4.51-21.09-2.67-42.12,3.81-62.64,1.79-5.66,2.37-11.54,4.8-17.13,2.78-6.41.4-10.85-7.61-11.02-34.87-.76-69.54.89-103.07,11.3-18.35,5.7-36,13.38-49.77,27.72-1.28,1.33-3.35,1.91-5.06,2.84,13.11-18.21,32.65-26.46,52.9-32.81,27.91-8.75,56.62-12.91,86.02-11.36,5.55.29,11.16-.84,16.74-1.16,10.55-.6,15.74,6.07,12.22,15.76-3.69,10.17-5.95,20.68-7.54,31.35-3.35,15.62-3.08,31.24-.12,46.88-.94,5.36,2.03,10.06,2.52,15.18Z"/>
      <path class="cls-7" d="M355.22,188.89c-14.28-7.71-18.5-22.41-24.7-35.7-1.67-3.59-2.86-7.4-4.29-11.1-1.91-4.95-4.93-8.49-10.7-8.91-5.5-.4-6.12,4.2-7.95,7.5-10.47,18.84-23.94,33.97-46.14,39.04-9.8,2.24-18.21.94-24.88-7.12,2.65.81,5.31,1.63,7.96,2.44,2.35,2.05,5.11,2.35,8.04,1.89,20.02.19,32.7-12.13,44.15-26.25,3.04-3.74,5.26-8.21,7.51-12.52,2.29-4.37,4.06-9.43,10.3-8.46,6.11.95,11.84,1.73,14.18,9.76,5.32,18.22,14.06,34.89,26.53,49.42Z"/>
      <path class="cls-7" d="M31.06,225.7c-1.83-1.9-3.67-3.78-5.48-5.69-3.01-3.18-6.65-6.8-3.95-11.21,3-4.9,8.37-3.36,12.56-1.5,10.71,4.75,19.27,11.75,20.91,24.32.43,3.26,1.95,5.5,4.16,7.57,1.39,11.4,7.67,5.71,12.9,3.69-5.84,6.99-1.17,10.26,4.88,11.53,7.79,1.64,9.41,5.26,6.73,12.39-1.72,4.58-2.26,9.6-3.51,14.38-.47,1.78-.83,4.14-3.59,3.78-2.19-.28-3.26-1.66-3.7-3.91-1.7-8.61-8.29-15.13-7.53-25.4.7-9.56-10.89-11.81-17.81-16.27-2.36-1.52-5.59-1.77-7.33-4.48,12.04,2.35,14,1.13,10.71-7.64-3.51-9.36-10.48-15.74-20.45-18.15-2.11-.51-4.86-.94-6.26,1.42-1.46,2.46.5,4.25,1.99,6.02,2.25,2.69,5.67,4.79,4.77,9.14ZM77.04,279.14c1.41-7.39,9.1-14.89-.61-21.74-3.9-2.75-6.88-3.3-7.34,3.49-.52,7.7,5.56,11.95,7.94,18.25Z"/>
      <path class="cls-1" d="M226.65,493.4c-.55,4.6,1,10.56-5.88,9.52-7.12-1.07-16.09-.51-17.96-10.51-.95-5.08,11.34-16.44,17.49-14.92,8.41,2.08,4.36,10.83,6.35,15.9Z"/>
      <path class="cls-7" d="M46.1,99.24c1.26,8.55-5.3,14.36-7.88,21.55-8.5,23.74,1.42,39.9,19.99,52.35,15.87,10.64,33.96,15.56,53.25,16,8.49.19,16.96,1.45,25.44,2.26.16.02.39.5.38.76,0,.31-.23.61-.36.91-20.63.52-41.05-.59-60.67-7.89-1.24-.46-2.49-.91-3.72-1.4-41.46-16.47-51.09-47.29-26.43-84.54Z"/>
      <path class="cls-1" d="M194.73,476.42c.89,6.31-2.43,9.18-9,9.13-8.95-.06-15.26-4.55-14.98-10.76.21-4.71,11.29-13.43,16.64-13.1,4.78.3,7.37,5.32,7.34,14.73Z"/>
      <path class="cls-7" d="M31.06,225.7c.9-4.34-2.52-6.45-4.77-9.14-1.48-1.77-3.45-3.56-1.99-6.02,1.41-2.37,4.16-1.93,6.26-1.42,9.97,2.41,16.94,8.79,20.45,18.15,3.29,8.77,1.32,9.98-10.71,7.64-3.54-2.61-7.27-5.02-9.24-9.21Z"/>
      <path class="cls-7" d="M62.6,280.63c-1.86,10.1-7.19,15.33-15,17.49-6.37,1.76-10.06-2.66-11.65-8.08-1.69-5.79.81-9.34,7.21-10.24,3.86-.54,7.8-1.71,11.3-3.42,7.1-3.45,7.74.74,8.14,4.25Z"/>
      <path class="cls-7" d="M392.23,348.67c1.13-9.53,7.85-16.48,11.53-24.85,10.05-22.87,16.15-46.54,16.02-71.63-.01-2.15,1.08-5.14-1.61-6.21-2.96-1.17-3.36,2.26-4.94,3.67-4.36,3.88-6.2,10.11-11.91,12.7,3.93-9.95,11.76-16.86,19.12-24.5,4.64,40.69-4.91,77.5-28.21,110.81Z"/>
      <path class="cls-7" d="M72.16,242.88c-5.23,2.02-11.51,7.7-12.9-3.69,4.27.34,5.71-2.29,6.42-5.91.57-2.9.98-5.97,2.24-8.58,2.09-4.34,5.68-8.53,10.71-6.69,4.74,1.74,2.35,6.83,1.54,10.42-1.24,5.51-3.7,10.55-8.02,14.46Z"/>
      <path class="cls-7" d="M268.61,439.96c7.92-1.62,10.42,1.34,9.71,11.02-.15,2.1-3.54,5.7,1.09,6.17,3.86.39,2.78-3.66,2.94-6.05.72-10.83-1.28-21.81,1.84-32.53,1.27-4.36,2.56-8.5,8.28-8.34-5.08,5.17-6.73,11.32-6.28,18.54.38,6.22-.27,12.51-.61,18.76q-.78,14.19-16.25,14.18c2.31-7.39,14.3-15.47-.72-21.75Z"/>
      <path class="cls-7" d="M388.46,264.53c-6.34-10.15-7.51-22.21-12.1-33.04-1.89-4.45.73-8.22,6.41-8.83,3.9-.42,7.73-1.5,12.75-2.52-9.23-7.49-20.99-9.75-27.5-19.23,12.13,4.56,21.11,15.01,37.14,16.79-7.65,5.36-13.09,7.16-18.99,7.08-8.79-.12-9.15,3.75-5.94,10.52,4.38,9.24,7.57,18.91,8.23,29.24Z"/>
      <path class="cls-5" d="M438.05,202.52c0-3.66-.18-5.62.04-7.54.5-4.43-1.09-10.85,2.89-12.56,3.69-1.59,8.08,3.24,12.03,5.48,5.26,2.99,5.85,5.8-.38,8.36-4.5,1.85-8.94,3.83-14.58,6.26Z"/>
      <path class="cls-5" d="M413.13,228.57c-4.6,6.01-9.16,12.06-13.84,18-1.52,1.92-3.12,3.41-5.42.37-4.55-6.02-2.66-13.16,4.24-15.32,4.66-1.46,9.25-3.11,13.88-4.67.38.54.76,1.08,1.14,1.63Z"/>
      <path class="cls-2" d="M187.8,32.64c-4-1.97-11.5,1.94-11.25-3.82.25-5.87,7.06-9.05,13.53-8.91,4.82.1,10.58,2.19,10.23,7.1-.57,7.85-8.26,3.71-12.51,5.63Z"/>
      <path class="cls-7" d="M41.03,249.47c4.93,2.89,14.45-.9,15.59,9.26.61,5.48-8.15,12.01-15.77,12.2-6.71.17-13.24-1.03-13.52-9.37-.28-8.31,5.93-10.94,13.7-12.1ZM53.33,260.47c-1.3-6.32-5.99-7.32-10.59-7.64-5-.35-10.61-.31-11.24,6.62-.5,5.56,2.73,8.86,8.24,9.04,6.17.21,10.16-3.62,13.59-8.02Z"/>
      <path class="cls-7" d="M242.2,437.35c.62,1.79.79,4.16,3.42,4.02,2.61-.14,2.84-2.31,2.87-4.31.07-4.58.03-9.17.04-13.75,0-3.16.69-6.03,4.24-6.82,3.57-.8,6.56-.07,7.44,4.17-6.55-3.73-9.87-2.15-9.34,5.69.15,2.29.3,4.59.62,6.86,1.72,12.14-2.52,15.24-14.8,10.76,1.83-2.2,3.67-4.41,5.5-6.61Z"/>
      <path class="cls-2" d="M215.2,31.48c5.06-5.02,10.28-4.17,15.23-3.31,2.62.46,4.9,2.5,3.88,5.69-.9,2.83-2.89,4.1-6.08,2.72-4.06-1.76-8.24-3.25-13.03-5.11Z"/>
      <path d="M216.43,133.99c-2.96-15.63-3.22-31.26.12-46.88,1.74,15.63,2.67,31.26-.12,46.88Z"/>
      <path d="M252.55,176.93c-2.94.46-5.69.16-8.04-1.89,4.29.08,6.48-1.06,2.84-5.21-1.43-1.64-3.16-3.02-4.75-4.52,7.73,3.22,15.64,4.19,23.81,1.91-4.62,3.23-9.25,6.47-13.87,9.7Z"/>
      <path class="cls-7" d="M180.8,409.31c14.74,1.39,29.32,3.78,43.72,7.24-15.07.6-29.8-.9-43.72-7.24Z"/>
      <path d="M224.75,87.34c-.06,15.94-.12,31.87-.18,47.81-3.13-15.95-3.45-31.89.18-47.81Z"/>
      <path class="cls-2" d="M318.97,107.13c1.71,4.65,6.03,9.06,1.25,13.54-.77.72-3.95.42-4.44-.38-3.23-5.21,1.98-8.68,3.2-13.15Z"/>
      <path class="cls-3" d="M242.2,437.35c-1.83,2.2-3.67,4.41-5.5,6.61-1.36-1.3-2.72-2.6-4.08-3.9,4.87-.1,6.11-3.67,5.92-7.34-.14-2.61-2.42-.62-3.77-.42-.08-.94-.17-1.88-.25-2.82.96-1.04,1.93-2.09,2.89-3.13,6.71,1.44,5.21,6.46,4.8,11.01Z"/>
      <path class="cls-6" d="M236.99,479.73c-3.52.63-4-2.11-4.17-4.1-.4-4.68,3.99-4.34,6.71-5.35,2.42-.9,5.04.46,4.92,3.04-.2,4.37-5.07,4.22-7.46,6.41Z"/>
      <path class="cls-7" d="M374.19,373.18c3.96-9.79,10.32-17.81,18.19-24.72-4.2,9.61-10.61,17.6-18.19,24.72Z"/>
      <path class="cls-7" d="M350.27,393.18c3.96-7.93,10.71-12.32,18.89-14.9-5.3,6.23-11.79,10.95-18.89,14.9Z"/>
      <path class="cls-7" d="M401.51,262.23c.78,4.53-.3,7.95-5.55,8.35-4.44.34-7.92-.81-7.67-6.32,5.54,6.69,9.76,4.79,13.22-2.03Z"/>
      <path d="M288.18,149.02c2.47-5.97,5.79-11.44,9.9-16.43-1.04,6.84-3.38,12.89-9.9,16.43Z"/>
      <path class="cls-7" d="M237.4,426.35c-.96,1.04-1.93,2.09-2.89,3.13-4.45-3.49-4.7-10.32-10.28-12.91,7.72-1.21,7.35,8.45,13.17,9.79Z"/>
      <path class="cls-7" d="M271.63,444.87c1.16,5.19-.29,8.6-4.81,11.76-1.28-5.46-.25-9.05,4.81-11.76Z"/>
      <path d="M276.34,161.03c3.96-4.03,7.93-8.05,11.89-12.08-1.36,6.59-5.51,10.43-11.89,12.08Z"/>
      <path class="cls-7" d="M234.76,432.3c1.35-.2,3.63-2.19,3.77.42.2,3.67-1.04,7.25-5.92,7.34-.38-2.89.32-5.48,2.14-7.77Z"/>
      <path d="M183.69,322.29c-4.95,1.77-9.83,3.83-14.88,5.26-7.23,2.05-14.76,2.99-20.06-3.84-4.9-6.32-2.38-13.18.2-19.74,2.08-5.28,6.6-8.88,10.46-14.09-22.97-6.2-35.48-20.53-36.35-43.88-.15-3.96-3.67-10.41,3.05-11.4,7.98-1.17,7.14,5.7,7.16,11.01.05,12.3,3.63,22.76,15.02,29.3,11.76,6.75,13.71,5.94,16.66-7.24,5.48-8.34,13.04-10.62,22.41-7.76,3.58,1.09,6.65,2.52,7.34-3.77,1.25-11.41,8.38-18.6,16.84-18.55,7.75.05,18.02,11.07,19.09,20.32.43,3.75-1.56,9.02,3.09,10.62,5.16,1.77,10.06-.26,14.4-4.21,19.36-17.64,29.84-38.64,25.72-65.4-.61-3.98-1.17-7.68,4.4-7.63,4.45.03,6.26,2.59,6.13,7.13-.39,13.49,1.81,27.21-3.9,40.18-.52,1.98-.53,4.18-2.5,5.49-6.01,7.89-11.84,15.93-18.12,23.6-3.43,4.2-6.04,7.98-5.46,14.04.74,7.68-1.88,15.06-9.83,17.8-10.63,3.67-16.24,8.94-11.3,20.82,1.04,2.5,1.46,6.61-2.66,7.23-3.16.47-5.76-1.95-6.18-5.27-.88-6.98-5.23-13.51-5.11-20.02.18-9.77,11.58-4.35,16.26-9.01.22-.22.59-.29.88-.46,5.17-3.05,10.45-7.83,7.39-13.34-3.07-5.51-8.75-.49-13.03,1.42-2.58,1.15-4.7,4.06-7.92,1.32-2.98-2.54-3.25-5.63-1.89-9,2.49-6.17,1.72-12.37.22-18.55-.96-3.98-2.4-8.26-7.48-7.73-4.9.51-8.69,3.35-9.58,8.68-.83,5.02-.22,9.84,2.23,14.46,1.84,3.48,7.38,7.56,2.2,10.98-4.72,3.12-6.7-3.44-9.58-6.13-3.95-3.69-8.15-7.07-13.67-7.59-5.42-.51-10.24,1.58-11.81,7.06-1.73,6.06,3.94,6.63,7.67,8.29,1.8.8,3.77,1.25,5.66,1.84,3.94,1.24,10.09,1.26,8.97,7.01-1.31,6.68-6.8,2.83-10.62,2.06-10.29-2.06-24.88,6.23-27.93,16.14-.88,2.85-1.83,6.22.08,8.64,2.13,2.69,5.55,1.44,8.37.57,7.35-2.28,14.5-5.47,19.98-10.75,4.7-4.52,8.41-4.27,12.9-.64.08,12.42,4.77,23.98,6.79,36.04.6,3.56,2.71,7.4-1.1,10-3.92,2.67-6.65-1.11-9.65-2.89-.41-8.83-1.42-17.55-3.74-26.13-1.35-5.01-3.42-6.02-7.27-2.29Z"/>
      <path class="cls-7" d="M198.67,307.57c-4.5-3.62-8.2-3.88-12.9.64-5.48,5.27-12.63,8.46-19.98,10.75-2.82.88-6.24,2.12-8.37-.57-1.91-2.41-.96-5.79-.08-8.64,3.04-9.91,17.63-18.2,27.93-16.14,3.82.77,9.31,4.62,10.62-2.06,1.12-5.75-5.03-5.77-8.97-7.01-1.9-.6-3.86-1.04-5.66-1.84-3.74-1.66-9.41-2.23-7.67-8.29,1.57-5.48,6.39-7.56,11.81-7.06,5.52.52,9.72,3.9,13.67,7.59,2.88,2.68,4.86,9.24,9.58,6.13,5.18-3.42-.35-7.5-2.2-10.98-2.45-4.62-3.07-9.44-2.23-14.46.88-5.32,4.68-8.17,9.58-8.68,5.08-.53,6.51,3.75,7.48,7.73,1.5,6.18,2.27,12.38-.22,18.55-1.36,3.37-1.09,6.46,1.89,9,3.22,2.74,5.34-.16,7.92-1.32,4.28-1.92,9.96-6.93,13.03-1.42,3.07,5.51-2.22,10.28-7.39,13.34-.29.17-.65.24-.88.46-4.68,4.67-16.07-.75-16.26,9.01-.12,6.51,4.23,13.04,5.11,20.02.42,3.32,3.02,5.74,6.18,5.27,4.11-.62,3.7-4.73,2.66-7.23-4.95-11.88.67-17.16,11.3-20.82,7.95-2.74,10.56-10.13,9.83-17.8-.58-6.06,2.02-9.84,5.46-14.04,6.28-7.67,12.1-15.71,18.12-23.6-.44,11.06-9.47,16.98-15.16,24.8-2.67,3.66-4.43,6.9-4.54,11.54-.28,11.22-5.25,20-16.2,23.72-6.99,2.37-8.53,5.88-6.52,12.67,1.43,4.83,3.58,11.7-3.94,13.03-6.41,1.13-9.91-3.96-10.95-10.25-.32-1.95-.68-3.9-1.23-5.79q-4.79-16.46,11.51-21.67c1.25-.4,2.5-.94,3.62-1.63,3.39-2.09,8.03-4.94,5.81-8.84-1.84-3.24-5.73.41-8.52,2.06-3.11,1.84-6.43,4.2-9.93.9-2.92-2.76-5.47-5.87-4.11-10.41,1.66-5.53.69-11.2.85-16.81.1-3.26-1.16-6.48-4.3-7.06-3.8-.7-5.98,2.83-7.02,5.79-1.88,5.34-.32,10.4,2.95,14.98,2.96,4.15,4.34,8.9-.37,12.28-4.55,3.26-7.93-.59-11.02-3.7-3.96-3.99-7.67-8.43-13.83-8.98-3.09-.28-6.38-.01-7.55,3.37-1.41,4.06,2.23,5.08,4.88,6.09,3.07,1.17,6.4,1.64,9.55,2.63,4.66,1.46,7.75,4.57,6.3,9.6-1.35,4.69-4.59,6.22-10.03,5.03-11.95-2.61-23.78,2.97-27.79,12.01-.82,1.85-1.97,3.77-.6,5.58,1.36,1.8,3.62,1.49,5.54.97,7.48-2.03,13.8-6.15,19.92-10.81,5-3.81,10.16-5.37,13.36,2.39Z"/>
      <path class="cls-7" d="M280.5,238.61c5.71-12.97,3.51-26.69,3.9-40.18.13-4.55-1.68-7.1-6.13-7.13-5.58-.04-5.02,3.65-4.4,7.63,4.12,26.76-6.36,47.76-25.72,65.4-4.34,3.95-9.24,5.99-14.4,4.21-4.65-1.6-2.66-6.87-3.09-10.62-1.07-9.25-11.33-20.28-19.09-20.32-8.47-.05-15.59,7.14-16.84,18.55-.69,6.29-3.77,4.86-7.34,3.77-9.38-2.87-16.93-.59-22.41,7.76,1.45-11.66,10.09-11.68,18.54-10.85,5.76.56,8.42.4,9.58-6.81,2.37-14.72,19.38-19.52,30.45-9.4,5.49,5.02,10.69,10.7,10.73,18.34.06,9.32,6.26,7.2,9.43,4.62,13.52-11.05,24.55-24.26,26.61-42.47.92-8.18.19-16.55.14-24.83-.04-5.67,3.14-7.28,8.27-7.37,5.41-.09,9.43,3.28,8.62,7.45-2.23,11.46,2.79,22.93-.93,34.24-1.13,3.45-1.18,7.36-5.91,8.02Z"/>
      <path class="cls-7" d="M183.69,322.29c3.84-3.73,5.92-2.72,7.27,2.29,2.32,8.58,3.33,17.3,3.74,26.13-6.91-1.54-3.37-7.07-3.79-10.79-.76-6.67.36-13.85-7.22-17.64Z"/>
      <path class="cls-3" d="M305.94,41c-.34-1.07-.71-2.13-1.11-3.19-.41-1.06-.86-2.12-1.35-3.17-.93-2-1.96-3.82-3.07-5.48-.68-1.01-1.39-1.96-2.13-2.84-.33-.39-.66-.77-1-1.14-.34-.36-.68-.71-1.02-1.05-.46-.45-.93-.88-1.41-1.29-.48-.41-.97-.8-1.47-1.16-.25-.18-.5-.36-.75-.53-.5-.34-1.01-.66-1.53-.96-.26-.15-.52-.29-.79-.43-.52-.27-1.05-.53-1.59-.76s-1.08-.43-1.63-.62c-8.28-2.78-17.77-.39-26.42,7.62-.43.4-.85.8-1.27,1.22-.42.42-.83.83-1.24,1.26-.81.84-1.59,1.71-2.34,2.59-1.13,1.33-2.19,2.7-3.19,4.11-.67.94-1.31,1.9-1.92,2.87-.61.98-1.2,1.97-1.77,2.98-1.41,2.52-2.66,5.14-3.77,7.85-2.06,5.04-3.84,10.14-5.36,15.28-4.58,15.44-6.88,31.33-7.67,47.42.24,5.19-.04,10.25.83,15.1,1.34,7.4,1.76,15.31,7.24,21.28,12.6,13.75,27.63,12.31,40.29-3.94,16.12-20.7,24.92-44.38,27.4-70.33,1.05-11,1.36-22.04-1.96-32.69ZM290.98,104.46c-4.82,13.81-11.49,26.89-21.05,38.07-7.45,8.71-21.85,6.25-24.51-4.8-7.36-30.62-1.45-59.96,10.95-88.63,3.46,9.12,4.42,19.52,16.7,20.91,13.33,1.52,17.8-8.98,24.23-19.23,3.46,19.7-.47,36.89-6.32,53.68Z"/>
      <path class="cls-6" d="M290.98,104.46c-4.82,13.81-11.49,26.89-21.05,38.07-7.45,8.71-21.85,6.25-24.51-4.8-7.36-30.62-1.45-59.96,10.95-88.63,3.46,9.12,4.42,19.52,16.7,20.91,13.33,1.52,17.8-8.98,24.23-19.23,3.46,19.7-.47,36.89-6.32,53.68Z"/>
      <path class="cls-7" d="M77.04,279.14c-2.38-6.3-8.46-10.55-7.94-18.25.46-6.79,3.44-6.24,7.34-3.49,9.71,6.85,2.02,14.35.61,21.74Z"/>
      <path class="cls-7" d="M53.33,260.47c-3.42,4.4-7.41,8.22-13.59,8.02-5.51-.18-8.74-3.48-8.24-9.04.62-6.93,6.24-6.96,11.24-6.62,4.6.32,9.29,1.33,10.59,7.64Z"/>
    </g>
  </g>
</svg>