<?xml version="1.0" encoding="UTF-8"?>
<svg id="Layer_1" data-name="Layer 1" xmlns="http://www.w3.org/2000/svg" viewBox="0 0 512 512">
  <defs>
    <style>
      .cls-1 {
        fill: #9172b0;
      }

      .cls-2 {
        fill: #1c1c1c;
      }

      .cls-3 {
        fill: #121212;
      }
    </style>
  </defs>
  <g id="tCgEFo">
    <g>
      <path class="cls-2" d="M44.4,230.25c-6.18,7.87-7.79,18.07-13.88,27.03-2.49-5.68-1.93-10.46.04-15.29,2.62-6.4,7.13-11.58,11-17.18,2.31-3.34,4.92-6.59,5.59-11.4-4.98,2.42-7.74,6.41-10.96,9.87-3.28,3.51-6.42,7.2-12.65,8.09,4.37-14.43,18.31-18.81,27.06-28.53-11.8,1.59-21.07,11.47-34.98,9.08,11.59-8.44,24.33-10.81,36.08-15.77-3.46-1.94-5.9-2.15-10.88-1.27-4.41.78-8.76,2.15-13.32,1.54-1.23-.17-2.93-.25-3.06-1.84-.1-1.26,1.39-1.75,2.41-2.22,7.87-3.65,16.16-4.21,24.34-1.85,4.03,1.16,4.75-.02,5.97-3.45,10.05-28.36,24.39-54.23,45.3-76.16,26.63-27.91,59.44-44.86,96.42-54.4,15.65-4.04,31.54-6.8,47.66-7.96,4.13-.3,3.53-1.84,1.75-4.11-3.09-3.92-6.3-7.74-9.43-11.63-2.38-2.95-4.75-5.92-5.45-10.7,10.96,2.98,14.14,12.81,20.37,20.98-.13-6.3-1.08-11.52-.09-16.73.51-2.66,1.23-5.16,2.8-7.37.69-.97,1.64-2.05,2.82-1.74,1.2.31,1.33,1.77,1.43,2.91.44,5.2-.89,10.26-1.36,15.39-.29,3.21-.31,6.32,1.03,9.28.73,1.61,2.06,2.82,3.82,2.84,1.63.02,1.94-1.8,2.33-2.92,2.17-6.27,4.19-12.6,6.19-18.93,1.41-4.46,3.09-8.78,6.13-12.41.6-.72,1.02-1.97,2.23-1.64,1.59.44.95,1.92.97,2.95.11,4.45-1.63,8.43-3.28,12.44-2.75,6.69-6.1,13.21-5.86,21.62,3.53-4.17,4.95-8.58,6.8-12.73,1.96-4.41,3.78-8.87,7.01-12.57,2.4-2.75,5.25-4.34,9.7-3.95-4.8,9.85-12.3,17.54-15.26,27.73,2.67,1,3.9-1.2,5.3-2.65,5.01-5.18,8.39-11.57,12.61-17.34,4.38-6,9.25-11.38,18.21-11.78-4.33,6.19-9.47,10.89-13.96,16.13-4.53,5.3-8.95,10.68-10.64,18.6,13.32-8.63,23.74-21.84,42.02-20.85-2.24,3.83-5.07,5.53-8,6.93-3.89,1.85-7.93,3.39-11.92,5.04-3.26,1.35-6.29,3.07-8.7,5.68-3.5,3.79-3.15,4.99,1.8,6.19,30.4,7.37,58.63,19.42,83.18,39.16,32.71,26.3,51.57,61.09,61.58,101.24.6,2.42,1.15,4.85,1.7,7.28q1.78,7.88,9.39,4.57c5.65-2.45,11.35-4.79,17.49-5.63,5.28-.73,10.43-.55,15.11,3.97-11.59,3.12-23.67,1.85-34.74,8.69,10.41,2.62,21.71-2.27,30.38,7.71-12.36,1.29-24.01-5.89-35.66,1.48,10.66,2.89,22.13,2.37,28.32,14.73-6.05-1.06-10.03-3.8-14.36-5.59-3.55-1.47-7.08-3.02-11.05-2.3-.9.16-2.13.64-2.46,1.32-.5,1.04.72,1.8,1.51,2.28,3.41,2.07,6.86,4.06,10.35,5.99,2.93,1.62,5.79,3.33,7.72,6.16.72,1.06,2.06,2.29,1.29,3.55-.9,1.48-2.72.75-4.11.55-2.78-.4-4.65-2.44-6.68-4.12-10.27-8.58-10.16-8.57-13.25,3.93-7.87,31.85-19.25,62.19-38.84,88.94-25.13,34.31-59.1,54.86-100.18,64.23-3.73.85-5.41,2.06-4.92,6.08.52,4.27-1.3,9.32,1.11,12.74,2.7,3.83,7.82.78,11.86,1.22,21.48,2.39,41.25,9.11,57.81,23.33,14.78,12.69,12.74,25.73-4.92,33.99-10.89,5.09-22.62,6.73-34.43,7.37-23.9,1.29-47.56-.56-70.79-6.64-2.92-.76-5.28-.4-7.97.92-23.95,11.73-48.77,20.38-75.91,19.98-8.38-.12-16.58-1.49-24.17-5.26-13.04-6.48-16.71-20.06-8.85-32.34,5.78-9.03,14.74-13.67,24.29-17.44,12.28-4.85,25.16-7.37,38.14-9.4,3.19-.5,4.64-1.13,3.43-4.93-1.65-5.2-2.81-10.61-3.59-16.02-.56-3.86-2.52-4.94-6.02-5.49-21.72-3.41-42.93-8.83-63.37-17.02-32.75-13.13-60.62-32.45-79.41-63.14-12.11-19.78-18.39-41.48-21.01-64.38-1.31-11.45-1.3-22.93-1.51-34.61Z"/>
      <path class="cls-1" d="M250,72.76c-2.52,11.98-7.42,23.32-9.57,35.39-.69,3.86-2.02,7.67-1.42,12.17,4.47-2.97,5.74-7.45,6.85-11.83,3.17-12.5,5.86-25.12,9.99-37.36.31-.92.77-1.78,1.17-2.67,2.18-.7,2.62-.5,2.25,1.52-.61,3.35-1.43,6.67-2.14,10-.47,2.23-.57,4.52-1.18,6.71-1.22,8.37-2.45,16.73-3.65,25.1-.24,1.64-.4,3.31-.46,4.96-.03.91-.41,2.12.9,2.52,1.08.32,1.92-.37,2.66-1.03,2.64-2.38,2.71-5.56,2.63-8.76-.41-16.03,3.52-31.23,8.76-46.18.33-.94.74-1.85,1.18-2.75.13-.26.46-.43,1.05-.94,3.19,7.39,1.47,14.67.34,21.87-1.55,9.85-3.39,19.65-2.58,29.7.13,1.56-.3,3.81,1.95,3.87,1.88.05,2.63-2.04,2.88-3.6.36-2.28.28-4.64.19-6.97-.53-14.58,2.45-28.71,5.46-42.84.13-.59.63-1.1,1.19-2.04,1.72,4.1,2.47,8.01,2.2,11.98-.66,9.77-1.53,19.53-2.43,29.29-.64,6.87-.09,13.5,3.23,19.82,4.22-19.69.13-40.18,5.72-60.69,5.27,6.51,6.46,13.51,7.53,20.48,1.89,12.29,1.63,24.84,4.5,37.74,4.2-2.82,4.9-6.79,4.39-10.83-1.1-8.72-2.45-17.43-4.11-26.06-.44-2.3-.45-4.59-.86-6.86.71-.56,1.42-.62,2.13,0,10.49,19.43,21.13,38.76,34.33,56.57,27.6,37.27,61.77,66.42,104.56,84.9,3.7,1.6,4.51,3.61,4.03,7.16-5.5,40.67-17.33,78.83-43.85,111.19-18.45,22.51-41.64,38.54-68.27,49.84-10.11,4.29-20.43,8.05-31.16,10.41-4.54,1-5.91,3.26-5.56,7.63.58,7.28,1.62,14.51,1.28,21.88-.17,3.7-1.76,5.22-5.03,6.19-5.8,1.74-11.69,2.39-17.71,2.42-2.63.01-3.88-1.03-4.51-3.54-1.56-6.19-1.05-12.57-1.86-18.83-.34-2.67-.76-5.29-1.74-7.74-.9-2.25-1.93-5.13-5.04-4.61-3.17.53-6.19,1.26-6.89,5.78-1.22,7.84.84,15.21,2.1,22.69.63,3.76-.2,5.62-3.89,6.49-3.87.92-7.66,2.18-11.51,3.22-3.01.81-4.94-.09-6.09-3.27-2.57-7.08-3.29-14.54-5.02-21.79-.23-.97-.51-1.93-.68-2.91-1.12-6.64-4.45-9.97-11.71-10.88-21.99-2.74-43.35-8.34-63.98-16.51-30.22-11.97-56.42-29.25-74.23-57.28-12.42-19.55-18.13-41.18-19.41-64.17-1.05-18.95,1.41-37.46,6.05-55.79.86-3.4,2.76-4.34,5.69-5.15,27.79-7.7,54.83-17.4,80.3-31.06,37.56-20.16,68.84-47.09,90.14-84.61,2.3-4.05,4.5-8.15,6.75-12.22.45-.72,1.15-1.49,1.9-.87.99.82.57,2.06.23,3.16Z"/>
      <path class="cls-1" d="M148.82,144.26c-22.88,13.96-47.01,25.25-73.24,34.51,1.7-6.64,5.43-10.72,9.55-14.48,9.55-8.7,21.27-14.22,31.83-21.45,36.67-25.09,74.17-48.89,112.25-71.8,1.93-1.16,3.92-2.22,6.17-2.9-22.61,29.95-50.42,53.99-82.36,73.39-1.44.84-3.12,1.33-4.2,2.73Z"/>
      <path class="cls-1" d="M304.93,64.4c5.7,5.25,11.56,10.3,16.88,15.98,17.2,18.36,32.38,38.39,48.11,57.95,17.07,21.22,35.8,40.67,57.67,57.04,4.76,3.57,9.19,7.65,12.38,12.83.16,1.1-.22,1.68-1.42,1.46-21.97-8.88-41.67-21.52-59.6-36.84-33.99-29.04-57.35-65.7-75.05-106.3-.13-.29-.08-.66-.12-.99-.31-1.08.16-1.36,1.15-1.12Z"/>
      <path class="cls-3" d="M301.83,451.38c-.49,2.65.97,4.22,2.83,5.88,6.44,5.75,20.53,7.04,25.98-4.16,1.76-3.62,4.68-6.95,7.77-9.6,7.78-6.66,15.62-4.74,24.07,2.3,4.39,3.66,7.51,8.82,11.46,13.05,1.9,2.04,1.06,3.15-.58,4.35-5.73,4.19-12.59,5.75-19.21,7.54-2.66.72-5.51,1.74-8.44,1.63-2.29.67-4.58.72-6.86-.03-2.03.33-4.06.67-6.09,1-5.3.76-10.6.76-15.9,0-2.36-.33-4.73-.67-7.09-1-2.61.77-5.22.72-7.84.03-1.08-.33-2.17-.65-3.25-.98-1.92.64-3.84.68-5.76-.02-5.56-.07-10.72-2.33-16.15-2.96-2.99-.35-4.95-1.47-6-4.23-.6-6.95-.84-13.89.12-20.83,1.04-.04,2.08-.07,3.13-.11,2.88-.64,5.77-.65,8.65,0,5.12-1.29,10.4-1.87,15.41-3.71,1.46-.54,3.47-.68,3.74,1.87-.81,3.31-.84,6.63.02,9.94Z"/>
      <path class="cls-1" d="M312.5,64.88c3-2.68,4.94-.25,6.95,1.32,23.08,18.11,44.51,38.03,64.68,59.29,16.25,17.13,32.2,34.54,48.14,51.96,5.5,6.01,8.73,13.17,9.36,22.19-7.76-4.23-14.13-9.2-20.35-14.35-21.52-17.82-39.32-39.13-56.71-60.82-14.56-18.16-29.24-36.23-45.49-52.94-2.16-2.22-5.08-3.72-6.58-6.65Z"/>
      <path class="cls-1" d="M235.78,80.26c-8.83,17.97-21.4,33.11-35.76,46.8-32.96,31.41-72.71,50.28-116.09,62.35-3.99,1.11-8.02,2.08-12.05,3.05-.87.21-1.95,1.12-2.66-.08-.52-.9-.1-1.91.4-2.83,2.36-4.36,6.2-6.75,10.73-8.37,32.12-11.47,61.99-27.39,90.27-46.3,23.46-15.69,45.01-33.64,62.99-55.6.3-.37.78-.6,1.18-.89,1.68-.1,1.84.62,1.01,1.87Z"/>
      <path class="cls-3" d="M256.86,468.3c-4.29,4.48-10.18,5.86-15.7,7.81-8.4,2.95-16.96,5.46-25.39,8.32-3.6,1.22-7.57,0-10.99,1.95-1.94.7-3.87.69-5.81,0-3.73,1.26-7.45,1.29-11.17,0-1.62.69-3.23.69-4.85,0-5.93-1.19-11.26-3.8-16.55-6.67-4.39-2.38-3.64-5.31-1.64-8.6,5.63-9.27,15.16-12.91,24.46-16.9,1.99-.85,2.74.76,3.67,1.74,4.46,4.68,8.7,9.57,13.25,14.17,8.19,8.28,23.28,5.3,27.75-5.43,1.14-2.74,1.97-5.6,2.94-8.41-.82-1.53-.41-3.19-.42-4.79-.05-6.04-.02-6.04,6.28-5.2,2.1-.66,4.2-1.31,6.3-1.97,2.29-.64,4.58-.72,6.87.04,1.16,2.23-.34,4.84,1.02,7.04.77,5.64.76,11.28,0,16.92Z"/>
      <path class="cls-1" d="M235.99,61.57c-50.56,31.95-101.98,62.56-151.1,98.72.59-5.43,3.03-8.71,5.63-11.81,5.18-6.18,11.71-10.78,18.25-15.39,25.01-17.61,49.87-35.45,75.04-52.83,15.35-10.6,32.17-17.94,50.98-19.95,1.04-.2,1.38.28,1.21,1.25Z"/>
      <path class="cls-1" d="M431.74,169.45c-15.34-15.21-29.62-31.43-44.55-47.03-17.59-18.38-35.44-36.49-56.64-51.17,4.13-1,4.45-1.04,9.28,1.36,5.35,2.66,10.4,5.91,16.11,7.85.74.25,1.48.81,1.98,1.42,14.67,17.6,33.25,31.07,49.52,46.98,9.76,9.55,18.68,19.85,24.38,32.51.87,2.4,1.84,4.76,3.1,6.99l-.02-.03c.27.62.58,1.32-.06,1.81-1.25.97-2.1-.27-3.1-.69Z"/>
      <path class="cls-1" d="M182.8,75.35c-17.41,12.4-34.83,24.79-52.23,37.21-5.53,3.95-10.99,7.99-16.48,11.98-1.62.72-2.93,1.85-4.08,3.17-.78.56-1.56,1.12-2.34,1.68-1.27.78-2.01.65-1.84-1.06.43-.62.85-1.23,1.28-1.85,1.09-.92,2.26-1.77,2.69-3.23,11.13-14.49,25.4-25.28,40.87-34.64,9.54-5.77,19.6-10.47,30.11-14.21,1.03-.44,2.07-.91,2.02.95Z"/>
      <path class="cls-1" d="M201.79,450.76c6.02-3.41,11.59-5.17,17.68-5.01,3.33.09,4.94,1.41,4.55,5.25-.42,4.1-1.05,7.87-4.28,10.72-2.83,2.5-5.27,2.81-7.65-.82-2.52-3.86-5.07-7.81-10.3-10.14Z"/>
      <path class="cls-1" d="M312.87,446.48c.18-6.62,6.33-12.35,12.52-11.75,1.48.14,2.89.57,1.75,2.44-2.69,4.4-5.42,8.81-9.79,11.82-1.05.72-2.23,1.85-3.61,1.03-1.38-.81-.69-2.4-.87-3.55Z"/>
      <path class="cls-1" d="M399.72,115.52c-8.61-7.38-17.23-14.76-25.84-22.14-.27-.93-.02-1.37,1.02-1.07,9.61,6.24,18.3,13.55,25.75,22.29.17.79.02,1.26-.93.92Z"/>
      <path class="cls-1" d="M255.95,86.7c-.54-5.3,1.4-10.21,2.36-15.28.2-1.04,2.33-3.42-1.3-2.96-.03-2.19,1.44-3.86,2.01-5.84,2.45.84,1.05,2.59.96,4.03-.7,6.81-1.86,13.53-4.03,20.04Z"/>
      <path class="cls-2" d="M270.89,443.37c-.04,6.95-.08,13.89-.12,20.83-1.99-7.24-.59-14.6-.73-21.9,0-.19.55-.6.67-.55.83.41.18,1.06.18,1.61Z"/>
      <path class="cls-1" d="M250,72.76c-.44-1.01.67-3.47-2.13-2.29.44-2.57,1.87-4.71,3.03-6.96,1.01-.23,1.46.1,1.19,1.17-.39,2.77-.75,5.56-2.09,8.08Z"/>
      <path class="cls-2" d="M256.86,468.3c0-5.64,0-11.28,0-16.92,1.65,5.64,1.54,11.28,0,16.92Z"/>
      <path class="cls-2" d="M242.67,446.27c-4.68-.63-6.71,1.23-5.85,6.04.23,1.28,0,2.64-.01,3.96-1.93-2.89-1.46-6.33-.64-9.08,1-3.37,4.08-2.05,6.5-.92Z"/>
      <path class="cls-3" d="M316.87,473.36c5.3,0,10.6,0,15.9,0-5.3,1.61-10.6,1.61-15.9,0Z"/>
      <path class="cls-1" d="M235.78,80.26c0-.81-.26-1.47-1.01-1.87,1.07-2.09,2.45-3.92,4.68-5.19-.75,2.58-1.41,5.19-3.68,7.06Z"/>
      <path class="cls-1" d="M431.74,169.45c1.08-.3,2.89,1.48,3.15-1.12,1.3,1.55,2.22,3.21,1.6,5.48-2.09-1.04-3.49-2.63-4.75-4.37Z"/>
      <path class="cls-1" d="M399.72,115.52c.31-.31.62-.61.93-.92,2.37.92,3.65,2.84,4.67,5.07-2.14-1.05-4.36-1.93-5.6-4.15Z"/>
      <path class="cls-1" d="M300.77,74.48c-.71,0-1.42,0-2.13,0-1.39-1.54-.58-3.33-1.03-6.05,2.06,2.32,3.11,3.91,3.16,6.04Z"/>
      <path class="cls-1" d="M105.83,128.33c.38.76,1.04,1.04,1.84,1.06-1,1.72-2.7,2.5-4.59,3.79.32-2.36,1.27-3.76,2.75-4.86Z"/>
      <path class="cls-3" d="M301.83,451.38c-1.59-3.31-1.57-6.63-.02-9.94,0,3.31.01,6.63.02,9.94Z"/>
      <path class="cls-1" d="M434.91,168.36c-2.07-1.87-3.12-4.19-3.1-6.99,1.67,2.05,2.8,4.34,3.1,6.99Z"/>
      <path class="cls-1" d="M374.9,92.31c-.34.36-.68.71-1.02,1.07-1.45-1.06-2.91-2.12-4.93-3.59,3.01-.31,4.34,1.44,5.95,2.52Z"/>
      <path class="cls-2" d="M282.66,443.27c-2.88,0-5.77,0-8.65,0,2.89-1.49,5.77-1.44,8.65,0Z"/>
      <path class="cls-1" d="M182.8,75.35c-.67-.32-1.34-.63-2.02-.95,1.57-1.13,3.3-1.75,5.64-1.79-.82,1.79-2.22,2.27-3.63,2.74Z"/>
      <path class="cls-1" d="M259.99,66.65c-.39-1.33.38-2.93-.96-4.04.2-.9.31-1.86,1.73-2.41.18,2.31.59,4.44-.77,6.44Z"/>
      <path class="cls-2" d="M301.94,472.39c2.61-.01,5.23-.02,7.84-.03-2.61,1.59-5.22,1.55-7.84.03Z"/>
      <path class="cls-2" d="M255.84,444.34c-2.29-.01-4.58-.03-6.87-.04,2.3-1.51,4.59-1.52,6.87.04Z"/>
      <path class="cls-1" d="M304.93,64.4c-.38.37-.77.75-1.15,1.12-1.09-.98-1.43-2.22-1.61-3.71,1.99.13,2.14,1.58,2.76,2.58Z"/>
      <path class="cls-2" d="M338.86,472.36c2.29,0,4.57.02,6.86.02-2.29,1.53-4.58,1.55-6.86-.02Z"/>
      <path class="cls-1" d="M252.09,64.67c-.4-.39-.79-.78-1.19-1.17.03-1.3.4-2.43,1.59-3.28.67,1.62.67,3.08-.4,4.44Z"/>
      <path class="cls-1" d="M148.82,144.26c.56-2.21,2.29-2.6,4.2-2.73-1.04,1.47-2.49,2.3-4.2,2.73Z"/>
      <path class="cls-1" d="M110.01,127.71c.64-1.99,1.86-3.22,4.08-3.17-1.05,1.46-2.35,2.59-4.08,3.17Z"/>
      <path class="cls-2" d="M292.93,471.39c1.92,0,3.84.02,5.76.02-1.93,1.46-3.85,1.49-5.76-.02Z"/>
      <path class="cls-2" d="M198.97,486.38c1.94,0,3.88,0,5.81,0-1.94,1.52-3.87,1.49-5.81,0Z"/>
      <path class="cls-1" d="M438.55,209.65c.47-.49.95-.97,1.42-1.46.84.64,2.38,1.3,1.37,2.44-.71.8-1.97-.24-2.79-.98Z"/>
      <path class="cls-1" d="M109.8,123.25c.13,1.93-.8,2.98-2.69,3.23.51-1.4,1.5-2.4,2.69-3.23Z"/>
      <path class="cls-2" d="M182.95,486.37c1.62,0,3.23,0,4.85,0-1.62,1.39-3.23,1.48-4.85,0Z"/>
      <path class="cls-1" d="M235.99,61.57c-.4-.42-.8-.84-1.21-1.25.87-.8,1.94-1.42,2.62-.07.44.88-.64,1.18-1.41,1.33Z"/>
      <path class="cls-2" d="M191.39,289.73c.04.17.03.44.12.48,15.26,6.74,25.04,19.97,36.73,30.94,8.3,7.78,17.62,13.38,29.36,14.58,5.17.53,9.92-.2,14.67-1.72,3.03-.97,6.01-1.8,9.25-1.69,3.59.13,4.8,1.27,3.15,4.92-2.77,6.12-7.8,9.19-13.95,10.04-15.85,2.2-30.45-1.67-43.27-11.1-3.2-2.35-5.03-2.34-8.12-.54-11.09,6.47-22.54,12.2-35.39,14.33-7.77,1.29-15.26.52-22.12-3.73-1.23-.76-2.98-1.4-2.82-3.14.17-1.77,1.72-2.69,3.23-3.52,3.28-1.8,6.87-1.55,10.28-1.16,13.54,1.52,24.64-3.96,35.12-11.58,2.55-1.85,3.41-3.3,1.25-6.37-3.56-5.05-7.08-10.03-11.69-14.22-2.78-2.53-5.27-3.18-8.89-1.33-7.82,4-15.63,8.17-24.37,10-3.96.83-7.91,1.12-11.78-.31-2.6-.96-4.45-2.73-5.67-5.31-1.36-2.87-.52-3.74,2.52-4.02,7.47-.68,14.6-3.05,21.81-4.98,3.22-.86,4.41-2.69,3.76-5.82-1.11-5.38-.59-9.49,5.75-11.61,4.6-1.54,7.51-5.94,10.9-9.36,6.28-6.33,12.95-11.33,22.69-10.33,4.75.48,8.52-2.67,11.94-5.54,4.88-4.09,10.08-5.04,16.26-3.67,8.78,1.95,17.57-.21,26.31-1.1,4.58-.47,9.02-.15,13.38.76,8.07,1.69,13.75,8.28,14.8,17.45.95,8.29-1.54,15.51-8.68,20.5-1.77,1.24-3.86,1.97-6.09,1.94-4.67-.06-3.99,2.17-2.11,4.88,2.44,3.51,6.3,4.69,10.04,6.07,3.57,1.32,7.36,2.24,10.32,4.84,3.58,3.13,3.45,4.74-.52,7.23-4.81,3.01-9.94,2.76-14.84.65-9.57-4.12-16.35-11.3-20.86-20.59-1.19-2.45-2.02-3.68-5.07-2.35-5.43,2.38-10.84.1-16.09-1.18-4.36-1.07-8.26-.65-11.91,1.76-5.63,3.72-11.14,3.34-16.92.23-5.65-3.04-10.98-7.15-17.96-6.63-1.59.12-3.39-.38-4.55,1.29Z"/>
      <path class="cls-2" d="M255.98,222.57c-4.78.23-9.17-.33-13.39-2.15-6.62-2.85-10.89-7.65-11.7-14.89-.86-7.69,1.73-14.32,8.32-18.54,9.31-5.96,19.52-8.32,30.44-5.22,8.45,2.4,13.9,7.81,14.75,16.81.75,7.99-2.73,14.23-9.33,18.58-5.82,3.84-12.28,5.8-19.09,5.41Z"/>
      <path class="cls-2" d="M267.61,229.27c12.06.42,23.9,1.65,34.11,9.05,4.68,3.4,8.44,7.5,9.74,13.38.48,2.17.92,4.71-.89,6.11-2.06,1.59-4.74,1.02-7.09-.11-2-.97-3.65-2.41-4.7-4.34-5.37-9.97-14.77-12.46-24.86-12.77-19.22-.59-37.82,1.8-53.96,13.71-3.43,2.53-7.38,3.74-11.76,3.17-3.2-.42-3.99-1.73-2.19-4.61,4.34-6.93,10.86-11.13,18.02-14.47,13.79-6.43,28.49-8.63,43.57-9.11Z"/>
      <path class="cls-2" d="M279.04,144.8c4.47-3.17,9.72-3.48,14.71-4.22,7.53-1.11,15.21-1.2,22.5-3.75.92-.32,2.01-.75,2.5.58.36.98.17,2.02-.5,2.83-1.26,1.55-3.23,1.99-4.93,2.05-4.68.16-4.38,1.92-2.83,5.55,3.89,9.07.61,22.21-6.71,28.91-6.27,5.74-15.65,6.61-22.02,2.04-6.04-4.33-8.37-13.79-5.1-21.62,1.01-2.41,2.44-4.7,3.97-6.84,2.54-3.54,2.64-3.47-1.59-5.54Z"/>
      <path class="cls-2" d="M222.51,146.08c-1.65-1.93-3.81-1.94-5.56-2.82-1.49-.75-2.52-1.92-1.94-3.58.74-2.09,2.32-.49,3.35-.28,8.11,1.66,16.05,4.13,24.31,5.05,2.17.24,2.81,1.7,2.98,3.39,1,10.22-1,19.57-8.55,27.04-5.39,5.33-13.23,6.39-19.75,2.66-5.14-2.94-4.36-8.26-4.11-12.89.41-7.37,3.81-13.6,9.27-18.57Z"/>
      <path class="cls-1" d="M243.28,265.41c7.82.05,12.44,4.64,12.72,11.96.19,4.98-2.95,5.7-6.55,6.04-3.22.3-7.13,1.74-7.18-4.1-.02-2.61-1.49-4.99-2.85-7.3-.96-1.62-3.14-3.26-2.09-5.19,1.17-2.16,3.85-1.31,5.94-1.41Z"/>
      <path class="cls-1" d="M282.07,274.21c-.14,6.2-2.96,8.88-9.37,9.24-2.24.13-2.65-.88-3.11-2.77-1.19-4.88-.06-10.35-3.97-14.61-1.41-1.54.6-2.2,1.79-2.58,7.07-2.28,14.83,3.41,14.66,10.72Z"/>
      <path class="cls-1" d="M221.01,285.4c-.17,0-.33.01-.5,0-4.53-.11-12.49-4.82-11.74-7.56,1.22-4.42,6.14-2.85,9.46-3.88,1.21-.38,2.66-.45,3.9-.18,3.11.69,7.08.71,7.31,5.14.2,3.78-3.64,6.48-8.44,6.47Z"/>
      <path class="cls-1" d="M253.92,211.3c-.58-.13-1.86-.43-3.16-.69-2.71-.55-6.02-.67-6.87-3.8-.95-3.48.07-6.81,2.68-9.61,5.5-5.92,15.97-7.35,22.9-3.14,2.06,1.25,2.57,2.64,1.96,4.95-1.92,7.32-8.61,12.32-17.51,12.3Z"/>
    </g>
  </g>
</svg>