<?xml version="1.0" encoding="UTF-8"?>
<svg id="Layer_1" data-name="Layer 1" xmlns="http://www.w3.org/2000/svg" viewBox="0 0 512 512">
  <defs>
    <style>
      .cls-1 {
        fill: #face04;
      }

      .cls-2 {
        fill: #1c1c1c;
      }

      .cls-3 {
        fill: #b18219;
      }

      .cls-4 {
        fill: #e8530e;
      }
    </style>
  </defs>
  <g id="FfGhmH">
    <g>
      <path class="cls-2" d="M413.71,283.9c10.72-6.99,13.52-17.57,12.77-29.46-.84-13.41-9.26-23.71-20.8-25.13-3.52-.43-4.33-1.72-4.91-4.89-4.05-22.01-11.4-42.84-23.03-62.07-5.21-8.62-11.51-16.33-19.22-23.49,6.37-1.81,12.23-1.15,18.02-1.41,5.97-.27,12.02-.08,17.73-2.23,4.62-1.74,5.04-4.67,1.25-7.86-3.16-2.66-6.97-2.49-10.74-2.29-8.03.42-15.83,2.78-23.95,2.62-3.01-.05-4.08-.89-4.06-4.11.22-36.64.49-73.29,3.56-109.83.82-9.81-2.89-13.97-12.83-13.72-12.33.3-24.65.82-36.97.97-34.24.4-68.5-.01-102.72,1.83-3.28.17-4.75.96-5.16,4.48-1.67,14.64-3,29.3-3.11,44.03-.18,25.69-.22,51.38-.11,77.07.01,3.29-1.01,4.72-4.15,4.7-3.76-.03-7.53-.1-11.28-.22-8.72-.27-17.38-1.88-26.14-1.14-1.4.11-3.43-.04-3.88,1.63-.36,1.42.49,2.95,1.56,4.18,2.84,3.23,6.68,3.98,10.64,4.27,5.69.4,11.38.66,18.42,1.05-1.92,1.15-2.6,1.57-3.29,1.97-22.25,13.04-38.35,31.67-49.53,54.7-4.27,8.8-4.11,8.85-13.57,8.28-2.05-.13-4.12-.15-6.16.04-8.35.79-16.25,2.7-21.9,9.61-1.59,1.96-3.44,4.08-2.45,6.92,1.88,5.36,3.84,10.72,11.05,12.83-6.44,4.16-10.33,9.2-12.36,15.61-3.09,9.79.99,15.18,11.18,14.23,3.8-.36,5.2-.16,5.73,4.33,1.5,12.79,4.83,15.85,18.48,18.76,2.09.44,1.72,1.76,1.94,2.98,1.11,5.87,1.88,11.82,3.33,17.61,7.81,31.14,27.69,52.73,54.66,68.66,1.49.87,3.6,1.19,4.13,3.28-2.95,1.93-8.01.17-8.96,4.75-.7,3.31-2.36,3.12-4.72,2.76-6.98-1.08-14.02-1.01-21.01-.47-10.95.84-21.86,2.35-31.27,8.64-2.68,1.79-4.8,2.27-7.89,1.22-6.6-2.25-9.43-1.01-11.28,5.46-1.86,6.47-5.15,11.85-9.85,16.5-4.39,4.34-4.46,9.34-2.3,14.67,1.77,4.36,4.68,7.97,8.13,11.07,13.23,11.86,28.57,19.28,46.33,20.98,4.72.45,4.69,1.76,2.53,5.19-4.07,6.47-3.17,9.88,3.53,13.73,2.2,1.26,4.6,2.27,7.03,3.03,14.87,4.68,30.18,5.66,45.65,5.18,1.61-.05,2.91-.31,3.98-1.75,4.7-6.34,9.22-12.76,11.39-20.49,1.81-6.4,1.73-12.54-2.92-17.87-.99-1.13-1.39-2.17-1.09-3.68,3.6-17.99,8.52-35.5,17.05-51.88,1.73-3.32,3.29-3.58,6.64-2.46,17.61,5.87,35.34,10.91,54.19,5.7,2.77-.77,5.83-.7,8.01,1.98,1.33,1.62,1.78,2.63-.87,3.55-5.95,2.06-5.9,2.2-2.09,7.15-1.3,1.33-3.05,1.25-4.68,1.58-7.57,1.52-14.9,3.77-21.73,7.41-16.24,8.69-22.52,21.08-19.88,39.34.47,3.31.1,5.98-2.96,8.03-1.8,1.19-2.52,3.03-1.51,5.39,2.94,6.9,5.57,13.94,8.62,20.79,3.09,6.93,8.12,12.42,15.89,13.11,10.32.93,20.76,1.56,30.95-2.01,12.07-4.25,21.73-11.93,30.77-20.76,2.62,6.1,6.45,8.43,10.88,6.63,16.35-6.67,29.21-17.54,38.75-32.35.76-1.18,2.09-2.36.77-4.12-4.33-5.77-5.28-12.88-7.65-19.43-1.74-4.81-4.1-9.06-9.2-11.03-6.33-2.44-10.05-7.41-12.96-13.21-2.85-5.67-4.42-11.82-6.53-17.76-.97-2.73-3.29-6.14-2.42-8.08,1.12-2.5,5.46-1.99,8.3-3.13,1.75-.7,3.56-1.23,5.29-1.93,37.08-14.83,66.29-51.53,55.68-96.75-.34-1.47-.2-2.51,1.25-3.44ZM182.53,392.36c-.56-1.48-1.11-2.96-1.77-4.71,5.13-.45,3.88,2.07,1.77,4.71Z"/>
      <path d="M389.54,423.08c0,.17,0,.34,0,.51-.08,2.19.17,5.31-2.07,5.73-2.98.56-3.23-2.8-3.96-4.97-.38-1.12-.63-2.32-.75-3.5-.5-4.83-2.61-8.02-7.9-8.39-1.54-.11-3.47-.61-3.16-2.56.27-1.72,2.2-1.8,3.73-1.85,6.28-.24,14.16,8.16,14.12,15.02Z"/>
      <path class="cls-3" d="M227.35,143.8c-3.96,3.22-7.15,6.08-10.61,8.57-16.89,12.15-13.56,34.61,2.83,45.16,15.22,9.79,32.23,11.87,49.73,10.7,14.28-.96,27.98-4.4,40.35-12.07,15.06-9.34,21.99-25.9,16.72-40.24-1.56-4.25-4.51-7.63-7.01-11.28-1.63-2.37-2.03-3.78,1.8-3.99,3.72-.2,7.4-1.16,11.1-1.78,7.94-1.33,14.73.42,20.5,6.51,14.26,15.07,24.53,32.22,29.7,52.48,2.29,8.98,3.47,18.08,4.91,27.16.97,6.09,3.98,10.03,10.07,11.45.66.16,1.29.46,1.96.62,5.12,1.18,10.87,1.43,13.39,7.16,3.24,7.36,4.69,14.96,1.7,22.88-1.08,2.87-3.07,4.91-5.4,6.68-1.84,1.39-4.08,1.92-6.33,1.6-3.56-.51-1.82-3.51-2.12-5.38-1.06-6.48-2.04-7.52-6.99-6.9-3.07.38-4.39,1.69-4.27,4.99.11,3.04-.38,6.15-1,9.15-.56,2.7-1.81,5.15-4.44,6.62-1.29.72-2.69,1.09-3.9.41-1.16-.65-1-2.15-.75-3.29.5-2.33,1.1-4.64,1.84-6.91,1.06-3.26,2.24-6.61,1.9-9.99-.27-2.6-.28-6.42-4.54-6.11-3.71.27-7.01,1.07-6.49,6.38.82,8.36-2.54,15.26-8.43,21.15-3.15,3.15-5.31,2.14-7.36-.98-2.14-3.28-1.76-6.87-.99-10.41,1.02-4.69,2.74-9.17,4.76-13.52,1.62-3.47.19-4.87-3.18-4.86-2.03,0-4.07.31-6.09.64-2.52.41-5,1.16-7.53,1.44-3.32.36-7.52.26-8.44-3.13-1.05-3.89,2.68-6.33,5.93-7.95,5.4-2.7,11.33-2.63,17.11-2.22,5.11.36,5.97-1.64,4.67-5.96-1.03-3.42-1.65-6.98-2.8-10.35-1.13-3.31-3.24-6.09-6.36-7.79-2.1-1.15-4.72-2.31-6.73-.45-1.74,1.61-.06,3.82.59,5.62.86,2.41,1.95,4.75,3.13,7.02,1.72,3.31,1.5,5-2.89,4.64-6.22-.51-11.84,1.3-16.64,5.36-3.86,3.26-6.42,7.3-5.59,12.49.89,5.58,5.13,8.31,10.12,9.76,3.08.9,7.17.29,9.19,2.13,1.23,1.12-.92,5.61-1,8.59-.18,7.25,2.15,13.56,8.45,17.68,6.15,4.02,12.39,2.96,18.37-.64,1.37-.83,2.54-1.47,4.24-.85,7.63,2.74,14.05-.08,20.02-4.61,5.01-3.79,6.83-3.3,8.33,3.09,3.89,16.61,2.13,32.6-6.25,47.6-11.09,19.85-29.24,31.15-49.23,40.08-4.52,2.02-9.18,3.76-13.9,5.24-2.77.87-3.52,2.09-2.61,4.8,1.08,3.23,1.84,6.56,2.82,9.83,2,6.65,1.46,7.93-4.92,11.12-5.27,2.64-5.64,2.48-6.66-2.85-1.3-6.75-2.66-7.54-8.88-4.48-2.67,1.31-3.97,1.26-5.46-1.71-3.7-7.36-6.15-8.06-14.18-6.73-19.98,3.31-39.58,2.17-58.06-6.86-4.42-2.16-7.41-1.18-10.48,1.76-3.7,3.54-5.55,8.21-7.23,12.86-1.09,3.04-2.69,4.38-6.01,4.15-4.25-.29-8.49-.34-12.68-2.12.27-2.63,2.61-2.99,4.19-3.95,2.51-1.53,4.76-3.53,3.99-6.5-.83-3.26-4.09-3.15-6.86-3.06-5.87.19-5.92.15-3.24-5.41,2.87-5.96,2.81-5.85-3.21-9.13-26.96-14.67-48.03-34.57-56.38-65.23-7.09-26.02-4.25-51.47,5.81-76.22,9.67-23.79,25.66-43.05,43.99-60.61,1.38-1.32,4.82-2.36,3.06-4.91-1.52-2.2-4.48-1.73-7.11-.76-7.86,2.9-13.38,8.86-18.87,14.66-24.46,25.85-36.94,57-40.23,92.15-.2,2.17.61,5.68-2.15,6.12-2.91.46-5.32-2.01-6.8-4.66-1.32-2.36-1.3-4.9-.47-7.46,1.76-5.44,4.21-10.52,8.34-14.54,2.78-2.71,1.5-3.92-1.28-5.02-2.49-.99-4.76-.24-6.82,1.03-1.88,1.16-3.53,2.68-5.3,4.03-2.72,2.08-5.37,4.35-8.75,5.23-1.59.42-3.71,1-4.85-.44-1.04-1.32.4-2.93,1.02-4.26,4.13-8.82,11.58-12.75,20.86-13.41,3.24-.23,5.31-1.02,5.4-4.47.09-3.69-2.86-3.75-5.37-4.07-3.39-.42-6.81-.58-10.19-.98-3.78-.44-8.09-.94-8.81-5.46-.68-4.28,2.74-6.73,6.2-8.51,7.55-3.89,13.81-2.88,20.15,3.13,4.55,4.31,8.16,3.26,10.01-2.59,5.21-16.44,14.63-30.45,25.89-43.24,10.5-11.93,22.61-21.88,37.24-28.47,4.22-1.9,8.25-3.3,13.23-2.35,4.75.91,9.8.2,15.53.2Z"/>
      <path class="cls-4" d="M242.22,133.63c-8.9,0-17.81-.17-26.7.08-3.79.1-4.77-1.08-4.96-4.88-1.53-30.29-.25-60.56.36-90.83.15-7.52.65-15.04.74-22.56.03-2.97.75-4.17,4.03-4.16,43.31.09,86.61.06,129.92-.05,3.28,0,4.16,1.1,3.86,4.15-3.29,33.92-2.88,67.99-4.21,102-.45,11.54-.51,11.24-12.34,12.09-30.2,2.17-60.41,4.12-90.7,4.18Z"/>
      <path class="cls-3" d="M317.59,164.27c.09,9.91-4.43,17.31-12.41,22.82-9.94,6.86-21.21,10.16-32.97,11.8-14.38,2.01-28.61,1.73-42.1-4.72-3.28-1.57-6.14-3.65-8.65-6.31-7.17-7.58-8.1-17.25-1.19-24.95,12.6-14.06,28.25-21.55,47.62-20.33,7.84.49,15.74.27,23.6.24,3.98-.02,7.81.65,11.59,1.79,9.89,2.97,14.57,9.31,14.51,19.66Z"/>
      <path class="cls-1" d="M201.74,412.36c-5.05,3.6-9.21,6.5-13.3,9.5-7.63,5.59-14.41,12.08-20.21,19.57-1.27,1.65-2.28,3.66-4.86,1.92-1.88-1.27-3.53-2.36-2.68-5.28,2.79-9.56,4.06-19.38,4.22-29.35.02-1.43-.47-3.33,1.7-3.75,1.8-.34,3.86-1.11,5.34.52,1.3,1.42.79,3.23.03,4.81-.59,1.23-1.43,2.34-2.03,3.56-.99,2.03-1.01,4.03.89,5.57,1.92,1.55,4.23,1.51,6.33.66,2.43-.98,1.49-3.14,1.06-4.9-.52-2.15-1.37-4.23-1.85-6.39-.96-4.39.5-5.81,4.91-4.58,2.11.59,4.12,1.65,6.06,2.71,4.26,2.34,8.3,5.15,14.38,5.43Z"/>
      <path class="cls-1" d="M255.78,475.73c15.12,2.25,29.5,2.19,43.8-1.57,22.78-5.98,41.36-18.34,56.34-36.34.83-1,1.37-2.93,2.94-1.93,1.29.83.02,2.38-.51,3.37-2.53,4.69-5.65,8.99-9.49,12.69-21.66,20.88-47.71,31.29-77.65,31.98-8.03.18-12.09-2.23-15.42-8.2Z"/>
      <path class="cls-1" d="M261.14,491.2c20.41.43,40.05-1.01,59.05-9.98-.29,3.7-2.22,6.06-4.32,7.98-11.71,10.69-25.36,15.79-41.29,13.25-6.55-1.05-10.72-4.73-13.44-11.25Z"/>
      <path class="cls-1" d="M203.88,475.57c-1.49,6.31-4.9,9.47-12.06,10.22-12.14,1.27-23.62-2.28-35.08-5.62-2.41-.7-1.69-2.26-.94-3.55,1.8-3.08,3.85-6.02,5.71-9.07.93-1.52,2.02-.8,3.09-.41,12.68,4.64,25.62,8.09,39.28,8.43Z"/>
      <path class="cls-1" d="M313.77,435.3c.14-2.34-1.12-3.54-3.18-4.04-1.65-.4-3.37-.57-4.99-1.07-1.44-.44-3.06-.93-3.34-2.78-.33-2.22,1.63-2.38,2.94-2.87,4.63-1.71,9.13-3.77,14.11-4.5,2.67-.39,2.98.49,2.29,2.7-3.31,10.47-3.59,21.21-2.28,31.97.62,5.13-3.72,3.95-5.89,5.37-2.26,1.48-3.57-.09-4.57-2.3-3.75-8.3-8.37-16.05-14.83-22.6-.89-.9-3.3-1.98-1.28-3.54,1.64-1.27,3.5-3.56,6.26-1.37,2.68,2.13,3.75,5.22,5.43,7.98,1.08,1.78,1.67,4.56,4.71,3.66,3.2-.95,4.4-3.51,4.62-6.62Z"/>
      <path class="cls-1" d="M341.57,484.26c-.2-.04-.73-.02-1.08-.26-2.67-1.78-2.97-10.63-.4-12.62,8.36-6.46,16.9-12.72,22.86-21.71.53-.8.98-1.87,2.34-1.41,1.53.51,5.72,9.37,4.98,10.81-6.01,11.73-15.35,19.78-27.44,24.78-.31.13-.65.21-1.26.4Z"/>
      <path class="cls-1" d="M142.76,457.66c-14.57-1.17-27.83-5.53-38.52-15.79-5.43-5.21-6.61-10.78-4.13-16.17,1.53-3.31,2.78-4.23,5.29-.55,6.29,9.22,13.81,17.35,22.89,23.95,4.55,3.31,9.66,5.63,14.46,8.56Z"/>
      <path class="cls-1" d="M111.32,413.61c23.52,33.92,57.59,47.05,97.07,49.94-7.32,2.99-14.69,2.95-21.94.98-20.54-5.57-40-13.79-57.8-25.52-9.06-5.97-15.55-14.16-17.33-25.41Z"/>
      <path class="cls-1" d="M280.65,461.38c-6.35,2.07-9.35-.28-8.75-7.16.51-5.84,3.93-10.02,8.36-13.58,1.9-1.53,3.06-.58,4.35.68,6.04,5.86,9.94,13,12.41,20.96.47,1.53.67,2.88-1.6,3.47-8.5,2.21-17.08,3.78-25.86,2.48-3.47-.51-6.95-1.75-8.41-5.87,3.79-1.55,6.61-1.38,9.6,1.8,3.37,3.59,8.2,3.09,12.53-.32,4.76-3.75,7.37-10.24,5.33-13.88-2.01-3.57-5.57-3.81-9.02-3.12-4.1.82-6.04,4.17-6.12,7.88-.07,3.42,2.38,5.51,6.07,5.56,1.14-.39,1.34.13,1.09,1.1Z"/>
      <path class="cls-1" d="M209.15,420.9c-1.03,3.87-.08,8.25-5.64,5.83-.54-.24-1.52-.17-1.96.18-6.28,4.93-13.61,8.57-18.53,15.2-1.57,2.12-.86,3.79.4,5.56,1.22,1.72,2.91,2.22,4.92,1.85,1.62-.3,2.12-1.56,2.45-2.93.26-1.09-.02-2.12-.98-2.69-1.5-.88-2.25.63-3.43,1.45-.6-2.77.92-4.06,3-4.61,2.47-.65,2.65,1.69,3.17,3.13,1.08,2.94,4.34,6.43,2.36,8.76-1.69,2-5.65-.63-8.56-1.36-11.94-2.99-11.94-3.04-3.53-12.5,7.04-7.92,15.51-13.76,26.33-17.86Z"/>
      <path class="cls-1" d="M142.63,408.79c3.93-2.23,8.21-3.71,11.03-1.91,2.2,1.4-.44,5.64-.78,8.62-.61,5.24-1.94,10.4-2.62,15.64-.39,3.01-1.09,4.04-4.05,2.25-3.76-2.27-7.62-4.39-11.75-7.92,8.03.4,15.25-.18,16.55-9.21.76-5.24-3.72-6.64-8.39-7.47Z"/>
      <path class="cls-1" d="M262.02,456.77c4.16-4.53,7.03-8.77,4.44-14.99-1.32-3.17,5.26-9.39,8.75-8.79,1.6.28,2.8,1.22,3.35,2.82.52,1.53-.68,2.16-1.62,2.82-5.61,4.01-8.46,9.69-9.61,16.27-.64,3.65-2.35,3.61-5.3,1.87Z"/>
      <path class="cls-1" d="M331.11,434.71c-1.71,1.74-.95,3.43.19,5.04,1.14,1.62,2.77,1.68,4.57,1.34,2.09-.4,3.21-1.82,4.11-3.51.34-.63.21-1.31-.49-1.75-2.1-1.32-3.29.6-5.7,1.97,1.64-2.89,1.81-5.71,5.54-4.64,4.73,1.35,5.31,3.07,1.97,6.63-3.38,3.6-7.02,6.89-12,9.46-.41-5.58-.83-10.69.59-15.79.69.15,1.09.57,1.23,1.25Z"/>
      <path class="cls-1" d="M132.68,423.66c-4.76-4.14-7.11-8.75-9.26-13.61-1.44-3.25.73-3.63,2.73-4.66,2.93-1.52,3.35.87,3.69,2.48,1.07,4.94,1.82,9.94,2.84,15.79Z"/>
      <path class="cls-1" d="M287.88,436.69c8.2,6.87,14.68,14.88,16.16,25.94-5.78-8.37-9.14-18.27-16.16-25.94Z"/>
      <path class="cls-1" d="M331.11,434.71c-.41-.42-.82-.84-1.23-1.25.38-6.98,2.46-13.35,7.07-18.69.75-.87,1.63-3.24,3.4-1.29,1.25,1.38,1.48,2.86-.83,4-4.02,1.99-4.52,6.13-5.27,9.95-.52,2.69-1.05,5.3-3.14,7.29Z"/>
      <path class="cls-1" d="M159.22,407.3c3.14,10.31-2.11,19.77-3.64,29.61-2.12-10.21,3.65-19.62,3.64-29.61Z"/>
      <path class="cls-1" d="M198.52,433.67c-.05,3.22-.58,6.44,3.88,7.69,2.25.63,1.2,3.29,1.02,4.99-.22,2.13-.98,4.2-2.06,6.28-2.85-6.12-7.37-11.87-2.9-19.02l.06.06Z"/>
      <path class="cls-1" d="M137.92,410.49c-1.14,3.87-.29,6.48,2.22,8.24,1.49,1.04,3.44.88,4.47-.85,1.1-1.85.25-2.83-1.88-2.78-.59.01-1.62.05-1.33-.92.21-.7.91-1.52,1.58-1.75,2.24-.79,4.78,1.74,4.17,4.19-.69,2.76-2.68,4.41-5.44,4.58-2.18.14-5.09,1.13-6.02-2.1-.79-2.74-2.49-5.85,2.24-8.61Z"/>
      <path class="cls-1" d="M326.7,424.2c-1.48,8.84-2.32,17.73-2.27,26.69-3.14-9.18-1.49-18.01,2.27-26.69Z"/>
      <path class="cls-3" d="M199.91,392.54c1.45.11,3.38.27,2.96,1.5-1.02,2.93-3.68,4.26-6.71,4.59-1.13.12-2.92.12-2.55-1.52.75-3.3,3.64-4.09,6.3-4.57Z"/>
      <path class="cls-1" d="M142.99,403.62c.98-3.99,8.24-6.99,10.7-4.71,1.53,1.42,0,2.43-1.33,2.76-2.93.73-5.92,1.25-9.38,1.95Z"/>
      <path class="cls-1" d="M342.41,428.72c.71-.43,1.43-.83,2.12-1.29,1.04-.68,1.63-3.22,3.39-1.04,1.26,1.56,2.43,3.57,1.23,5.5-1.03,1.67-2.69.48-4.02-.12-.91-.41-1.76-.94-2.64-1.41-.76-.52-.75-1.07-.07-1.65Z"/>
      <path class="cls-1" d="M138.03,400.98c-2.04,2.31-.91,6.09-4.48,6.64-1.25.19-1.92-1.39-1.74-2.65.42-2.95,2.04-4.55,6.22-3.99Z"/>
      <path class="cls-1" d="M198.46,433.62c.64-2.95,3.11-3.35,5.43-3.62,1.02-.12,1.69,1.1,1.73,2.18.08,2.38-.55,4.35-3.31,4.92-1.51-1.78,2.84-3.18.35-4.7-1.51-.92-2.7.96-4.14,1.27,0,0-.06-.06-.06-.06Z"/>
      <path class="cls-1" d="M174.55,440.76c3.52-4.56,7.18-9.08,13.17-13.09-5.03,5-9.1,9.04-13.17,13.09Z"/>
      <path class="cls-3" d="M317.74,407.07c-.07,1.81-.32,3.62-2.47,3.84-1.65.17-1.68-1.35-1.68-2.52,0-1.73.2-3.7,2.14-4.08,1.83-.35,1.85,1.46,2.01,2.76Z"/>
      <path class="cls-1" d="M168.68,401.06c-1.56-.36-3.18.45-3.74-1.38-.13-.41-.02-1.1.26-1.4,1.28-1.36,2.34-.23,3.53.34.81.39,2.07,2.71,2.64-.37.13-.7,1.16-.22,1.5.43.38.73.05,1.44-.62,1.64-1.26.39-2.59.55-3.57.74Z"/>
      <path class="cls-1" d="M285.08,431.87c-.15,1.42-.96,2.01-2.08,1.67-1.41-.43-2.92-1.2-3.01-2.85-.06-1.11,1.18-1.66,2.2-1.57,1.65.16,2.73,1.12,2.88,2.75Z"/>
      <path class="cls-1" d="M282.85,454.08c-2.94-3.65-3.36.83-5.29,2,.44-2.92.93-5.2,3.6-6.11,1.62-.55,2.64.14,2.83,1.89.11.99.96,2.36-1.14,2.21Z"/>
      <path class="cls-1" d="M342.41,428.72c.02.55.05,1.1.07,1.65-5.54-3.02-5.88-4.53-1.51-9.06.22,2.74-2.78,6.02,1.44,7.42Z"/>
      <path class="cls-1" d="M282.85,454.08c1-.42.88-1.41,1.14-2.21,1.88,4.22.43,7.28-3.34,9.52-.36-.37-.72-.73-1.08-1.1,2.53-1.31,3.7-3.34,3.29-6.2Z"/>
      <path class="cls-1" d="M292.65,427c-.5,1.62-1.81,1.92-3.22,1.8-.9-.08-2.43.12-2.28-1.27.18-1.65,1.98-1.62,3.21-1.91,1.01-.23,2.06.03,2.29,1.38Z"/>
      <path class="cls-1" d="M262.67,444.08c1.64,3.53.26,5.19-1.23,7.18-2.3-2.72.15-4.3,1.23-7.18Z"/>
      <path class="cls-1" d="M210.22,415.39c-1.96,2.39-5.02,2.26-7.61,3.31,1.9-2.47,4.66-3.03,7.61-3.31Z"/>
      <path class="cls-2" d="M261.86,273.44c-22.65-.88-41.69-9.26-56-27.32-5.64-7.13-8.58-15.43-10.29-24.27-.75-3.87,1.19-4.69,4.26-3.82,4.66,1.32,6.66,5.24,7.79,9.45,3.36,12.57,11.85,21.07,22.37,27.59,29.93,18.54,60.7,10.11,77.56-20.95,3.26-6.01,6.22-12.17,8.36-18.68,1.04-3.16,3.11-4.26,6.31-3.59,3.44.72,3.07,3.35,2.58,5.64-5.17,24.2-17.6,42.75-41.33,52.22-6.86,2.74-14.09,4.05-21.61,3.75Z"/>
    </g>
  </g>
</svg>