<?xml version="1.0" encoding="UTF-8"?>
<svg id="Layer_1" data-name="Layer 1" xmlns="http://www.w3.org/2000/svg" viewBox="0 0 512 512">
  <defs>
    <style>
      .cls-1 {
        fill: #da2f4b;
      }

      .cls-2 {
        fill: #dfdfde;
      }

      .cls-3 {
        fill: #f5d9e4;
      }

      .cls-4 {
        fill: #171717;
      }

      .cls-5 {
        fill: #141414;
      }

      .cls-6 {
        fill: #eea3c4;
      }

      .cls-7 {
        fill: #fefefe;
      }

      .cls-8 {
        fill: #e9e669;
      }
    </style>
  </defs>
  <g id="_9rUPWp" data-name="9rUPWp">
    <g>
      <path class="cls-4" d="M496.09,237.44c-5.13-2.01-7.19-3.55-5.64-9.73,1.81-7.24.46-15.52-7.03-18.85-8.42-3.76-8.65-9.79-8.06-16.97,1.5-18.43.76-36.72-4.66-54.5-11.59-37.96-32.52-67.47-73.19-78.16-41.29-10.86-81.99-9.95-121.29,8.17-7.66,3.54-13.1,4.2-19.38-2.77-7.13-7.92-16.82-12.75-27.08-15.72-23.97-6.94-48.27-8.3-72.32-1.02-41.44,12.55-69.57,40.12-86.87,79.3-1.47,3.35-2.49,7.04-6.97,7.21-12.1.47-20.49,5.72-22.84,18.52-11.52-8.47-18.76-8.73-26.88-1.55-9.46,8.36-10.95,17.36-3.74,28.7,2.43,3.82-.4,3.97-1.99,5.38-8.71,7.68-11.25,20.4-3.6,28.04,5.32,5.31,6.89,9.7,6.77,16.97-.07,4.76-.89,7.5-4.08,10.4-2.8,2.54-4.1,5.99-3.81,9.77.72,9.51,7.13,14.69,14.87,18.52,7.77,3.85,15.84,5.44,23.81.53,1.58-.98,4.75-2.4,2.73-4.99-1.83-2.34-3.18.72-4.67,1.57-10.26,5.88-29.32-1.84-32.48-13.17-1.42-5.07.79-8.94,4.74-11.44,4.22-2.67,4.28,2.75,6.43,4.2,2.51,1.68,4.48,4.37,7.15,5.59,5.11,2.31,9.94,1.34,13.04-3.75,2.94-4.82,1.34-9.16-2.47-12.71-4.07-3.77-9.05-3.45-14.17-2.88-2.26.25-4.78,3.44-6.7.61-1.98-2.92-1.24-6.53.46-9.55,2.93-5.25,9.26-4.37,13.78-6.86,1.33-.73,1.74,4.57,2.62,7.08,3.51,10.09,12.92,16.61,23.58,13.64,7.67-2.14,7.96,1.49,9.11,6.52,7.8,34.16,22.19,65.07,45.93,91.19,20.69,22.74,46.05,38.09,75.37,47.1,2.29.7,6.53-.13,5.72,4.13-1.2,6.27-13.48,10.31-18.36,6.36-9.54-7.73-19.46-14.88-31.49-18.22-12.77-3.55-23.68,0-29.62,9.21-5.02,7.78-3.32,17.92,5.54,28.11,17.64,20.31,39.95,33.32,65.72,40.43,9.11,2.51,16.46-1.74,19.94-10.56,4.87-12.33,12.16-23.05,21.82-32.07,13.33-12.45,13.42-12.37,24.87,1.34.25.31.15.91.26,1.69-12.47,4.64-24.93,9.49-34.78,18.94-7.46,7.16-12.36,15.71-8.33,26.1,3.92,10.11,13.42,11.59,22.93,11.67,26.04.21,49.57-8.35,71.89-20.97,16.1-9.1,17.08-15.83,4.11-29.49-5.56-5.85-10.97-11.71-15.02-18.81-2.27-3.97-2.9-5.95,2.57-7.27,14.61-3.54,28.54-9.13,42.02-15.74,7.65-3.75,15.47,4.4,22.98-.65.45.97,1.02,1.89,1.32,2.91,1.84,6.15,5.68,10.4,12.19,10.95,6.76.58,11.88-3.05,14.97-8.74,2.14-3.93,3.74-5.28,8.7-4.03,8.79,2.2,18.52-5.66,19.95-14.67.93-5.89-4.93-9.96-4.86-14.28.06-4.56,5.84-10.11,2.5-14.57-6.22-8.31-.76-12.31,4.02-17.47,4.9-5.29,9.61-10.81,13.81-16.67,2.76-3.84,4.1-4.24,7.81-.72,13.64,12.93,29.87,8.03,35.08-10.09.74-2.6-.23-6.66,4.48-6.74.01-.08.03-.15.06-.22.02-.07.05-.14.08-.21.07-.13.16-.27.27-.41.33-.43.79-.86,1.15-1.3.21-.27.4-.53.5-.8.08-.21.11-.43.06-.64,0-.07-.03-.14-.06-.21-.06-.14-.14-.29-.26-.43-.04-.04-.08-.08-.12-.12-.04-.05-.08-.09-.13-.13-.08-.08-.17-.15-.28-.23-.07-.04-.13-.09-.2-.14-.27-.19-.61-.37-1.01-.56-.07-.03-.12-.06-.15-.09-.04-.03-.06-.05-.07-.08-.02-.02-.03-.04-.01-.05,0-.06.05-.12.16-.18.06-.04.15-.07.24-.11.33-.13.81-.26,1.22-.41.12-.04.23-.09.32-.13.1-.05.18-.09.25-.14-10.41-4.15-10.37-4.13-6.38-14.85.76-2.06.98-4.32,1.47-6.47.87-3.8-.74-9.11,5.06-10.11,6.46-1.11,12.82-.78,17.84,4.39,3.9,4.01,4.77,8.76,2.82,13.85-2.66,6.96-7.98,11.09-15.03,13.12t-.02.01c.21.01.41.03.6.05.19.03.37.06.54.11.21.06.41.12.6.21.19.08.37.17.54.27.09.05.18.11.26.17.09.05.17.11.25.19.13.1.26.21.38.33.25.24.47.5.68.79.12.17.24.34.35.52.06.1.12.2.18.3.41.71.76,1.49,1.14,2.24h0c11.39-3.01,18.7-10.94,19.35-20.98.62-9.61-4.7-17.63-15.86-22.02ZM26.33,235.49c5.74.25,9.59,2.3,10,7.48.25,3.29-2.35,5.87-5.81,5.55-5.76-.54-9.91-4.9-11.12-9.61-.8-3.14,4.9-2.43,6.93-3.42ZM446.62,103.77c19.46,26.76,22.03,57.31,20.15,88.92-.46,7.64-.78,15.06-10.3,18.52-11.59-53.46-27.76-104.74-66.86-148.03,24.71,8.03,42.98,21.3,57.01,40.59ZM435,244.54c-5.99.62-11.41-4.19-11.62-10.33-.22-6.34,6.05-13.08,13.03-13.98,6-.79,13.18,4.17,14.53,10.03.06.27.14.54.17.81.42,3.64-10.68,12.91-16.11,13.47ZM386.96,71.95c.02-.71.4-1.42.95-3.24,32.27,43.99,50.95,92.44,60.32,146.11-7.24-3.97-13.68-4.45-19.69-.76-4.34,2.68-6.03-.44-8.18-2.76-15.46-16.67-23.04-37.1-27.35-58.9-5.25-26.55-6.59-53.44-6.05-80.45ZM378.01,72.78c.88-1.55,1.78-3.1,2.7-4.65-.38,28.62-1.75,55.29,3.29,81.74,4.84,25.36,14.65,48.26,32.23,67.44,2.62,2.86,3.34,5,1.27,8.6-2.81,4.88-2.17,10.14.19,15.21.75,1.6,3.09,3.13,1.15,5.1-.31.32-.62.55-.92.7-.05.03-.1.05-.15.07-.1.04-.2.08-.3.11-.08.02-.16.04-.23.05-.04.01-.08.02-.12.02s-.08,0-.12,0c-.07,0-.15,0-.22,0-.07,0-.14,0-.21-.01-.09-.01-.18-.03-.26-.04-.09-.02-.17-.05-.26-.07,0,0-.02,0-.02,0-.1-.03-.19-.07-.29-.1-.09-.04-.18-.09-.28-.13-.1-.05-.2-.11-.3-.17-.06-.03-.12-.07-.18-.11-.12-.07-.23-.15-.34-.23-.57-.39-1.11-.84-1.63-1.2-26.92-18.37-45.78-42.5-53.33-74.74-.13-.56-.26-1.12-.38-1.68-.24-1.12-.47-2.23-.68-3.34-.11-.55-.21-1.1-.31-1.66-.19-1.1-.37-2.21-.53-3.31-.15-1.02-.28-2.05-.4-3.08-.05-.41-.1-.82-.14-1.23-.05-.44-.09-.88-.13-1.31-.07-.7-.13-1.41-.18-2.11-.02-.15-.03-.3-.04-.45-.05-.75-.09-1.51-.13-2.26-.05-.87-.08-1.74-.11-2.6-.08-2.61-.06-5.21.05-7.8,0-.36.03-.73.05-1.09,0-.38.03-.75.06-1.13.02-.31.04-.61.06-.91.03-.53.07-1.07.12-1.6.03-.36.06-.72.1-1.08.11-1.23.24-2.47.4-3.7.04-.34.08-.67.13-1,.17-1.35.38-2.7.61-4.05.08-.45.15-.9.24-1.35,0-.06.01-.11.03-.16.11-.6.22-1.2.34-1.8.12-.63.25-1.26.38-1.88.34-1.6.72-3.19,1.12-4.78.25-.99.51-1.97.79-2.95.12-.47.26-.93.39-1.4.15-.53.31-1.06.48-1.59.3-.99.61-1.97.93-2.96.14-.42.28-.84.42-1.26.38-1.16.79-2.31,1.21-3.46.22-.59.44-1.17.66-1.76.22-.59.45-1.18.68-1.76.6-1.54,1.23-3.08,1.89-4.62.22-.53.45-1.05.68-1.58.72-1.64,1.47-3.28,2.25-4.92,1.48-3.11,3.05-6.21,4.72-9.31.83-1.55,1.69-3.1,2.57-4.65ZM346.75,117.96c-1.43,2.98-5.08,5.02-7.95,7.16-45.34,33.64-96.7,51.2-152.49,56.8-23.29,2.34-46.58,1.85-69.87-.1-6.63-.56-12.12-2-15.85-8.54-.1-.17-.2-.35-.31-.51-.1-.17-.21-.33-.32-.49-.17-.25-.35-.49-.53-.73-.15-.2-.31-.4-.48-.59-.17-.21-.35-.41-.54-.6-.16-.17-.33-.34-.5-.5-.19-.19-.39-.37-.59-.54-.13-.12-.27-.23-.41-.34-.18-.15-.36-.29-.55-.43-.11-.08-.21-.16-.32-.24-.2-.14-.4-.28-.61-.42-.4-.27-.82-.53-1.26-.78-.31-.18-.62-.35-.94-.52-.31-.17-.63-.33-.95-.49-.03-.02-.06-.04-.09-.05-.58-.28-1.17-.55-1.77-.82-.11-.05-.21-.09-.32-.14-.54-.24-1.09-.47-1.65-.7-.66-.29-1.33-.56-2.01-.85-.43-.18-.86-.37-1.3-.56-.03-.01-.06-.02-.1-.04-.4-.18-.8-.36-1.2-.54-.28-.13-.57-.26-.85-.4-.46-.22-.91-.45-1.37-.69-.27-.14-.54-.28-.81-.44-.27-.15-.53-.3-.8-.46,110.8,9.69,208.17-20.97,292.07-94-9,17.1-17.1,34.36-25.33,51.55ZM80.59,129.17c-1.14-.49-1.67-1.06-1.01-2.46.31-.66.63-1.32.96-1.98.2-.42.41-.84.63-1.26.36-.72.73-1.45,1.11-2.17.28-.54.57-1.08.87-1.62.29-.55.59-1.1.9-1.64.19-.36.39-.72.6-1.08.2-.35.4-.71.61-1.06.07-.13.14-.26.22-.38.31-.54.63-1.08.95-1.61.44-.74.89-1.48,1.35-2.21.39-.63.79-1.25,1.19-1.87.4-.63.81-1.24,1.22-1.86.14-.2.28-.41.42-.62.6-.9,1.22-1.8,1.85-2.68.37-.53.75-1.06,1.14-1.59.4-.56.81-1.11,1.23-1.65,3.18-4.25,6.6-8.31,10.26-12.15.62-.66,1.25-1.31,1.89-1.95.51-.52,1.02-1.03,1.54-1.54,1.04-1.02,2.1-2.02,3.17-3,.88-.81,1.77-1.6,2.67-2.37.37-.32.74-.64,1.11-.95.74-.63,1.49-1.25,2.25-1.86.76-.62,1.53-1.23,2.31-1.82.57-.45,1.16-.89,1.74-1.31.36-.28.73-.54,1.1-.8.34-.26.69-.51,1.04-.75.76-.54,1.52-1.07,2.29-1.58.76-.52,1.54-1.03,2.32-1.53,1.26-.82,2.53-1.6,3.81-2.35.6-.36,1.21-.71,1.82-1.05.37-.22.75-.43,1.13-.63,1.04-.59,2.1-1.15,3.16-1.69.65-.34,1.3-.67,1.96-.98.16-.08.33-.16.49-.24.34-.17.7-.34,1.05-.5,1.32-.63,2.66-1.23,4.02-1.8.45-.19.91-.38,1.37-.57,0,0,0-.01,0-.01.27-.11.55-.23.82-.33.79-.32,1.58-.63,2.37-.92,1.38-.53,2.78-1.02,4.2-1.48.37-.13.74-.25,1.11-.36.6-.2,1.21-.39,1.82-.57.58-.18,1.16-.35,1.75-.51,1.09-.32,2.18-.61,3.29-.88.38-.1.77-.2,1.16-.29.38-.09.77-.18,1.15-.27.54-.13,1.09-.25,1.64-.36.99-.22,1.98-.42,2.98-.6.43-.08.85-.16,1.28-.23.26-.05.54-.1.81-.14.29-.05.57-.1.86-.14l.36-.06c.54-.08,1.08-.17,1.63-.24,1-.15,2-.27,3.01-.38.15-.02.29-.04.45-.05.94-.11,1.89-.21,2.84-.28.4-.04.81-.07,1.22-.1.38-.04.77-.06,1.16-.08.44-.03.88-.06,1.32-.08.05-.01.1-.01.15-.01.5-.04,1.01-.06,1.53-.07.68-.04,1.38-.06,2.07-.07h.02c.9-.02,1.8-.03,2.7-.03,1.34,0,2.7.02,4.06.07.52,0,1.06.03,1.59.06.03,0,.06,0,.1,0,.55.02,1.1.05,1.65.09,1.59.09,3.19.21,4.81.38.68.06,1.37.14,2.06.22.73.08,1.46.17,2.2.27.86.11,1.73.23,2.6.37.15.02.31.04.47.07.82.13,1.64.26,2.47.41.46.08.92.16,1.38.25,1.17.21,2.35.45,3.54.7,1.23.26,2.47.54,3.71.84.92.22,1.84.45,2.76.69,9.51,2.48,18.09,7.03,25.65,13.41,1.4,1.17,2.41,2.25,1.47,4.14h-33.92c10.88,3.72,22.3-.67,33.06,3.53h0c.22.05.44.09.66.14.24.05.49.1.72.16.2.04.4.08.59.13.46.11.88.23,1.25.37.1.04.2.08.29.12.31.13.57.29.74.49.1.11.17.23.2.36.02.07.03.13.03.21,0,.25-.12.54-.36.88-.08.12-.18.23-.29.36-.23.25-.53.52-.89.82-.19.15-.39.3-.61.46-.22.16-.46.33-.72.51-.31.21-.63.42-.96.64-.32.21-.64.43-.96.66-.14.1-.29.21-.43.32-.43.33-.84.68-1.2,1.09-.14.14-.27.29-.39.45-.02.02-.03.03-.04.05-.13.17-.25.35-.37.54-.1.17-.2.34-.27.52-.03.06-.06.13-.09.19-.08.19-.15.38-.21.58.05.11.1.23.16.33.04.1.09.19.14.28.09.16.18.31.28.45.03.04.06.08.09.12.1.14.2.26.31.38.05.07.11.13.17.18.1.11.21.21.32.3.23.19.47.35.72.5.27.15.55.27.84.37.56.19,1.17.31,1.8.37.24.02.49.04.73.05.38.01.78.02,1.17.01,31.6-24.26,67.53-30.79,106.64-27.23-.9,4.07-3.42,5.03-5.25,6.56-56.21,47.43-122.07,72.28-194.09,82.38-22.76,3.19-45.61,7.35-68.66,3.07-4.13-.77-10.23,1.34-12.27-5.12.04-1.52.07-3.05.1-4.57-7.78-5.15,1.79-7.56,1.81-11.47-.61-1.61-1.21-3.22-1.82-4.82ZM24.72,155.15c6.61-1.85,11.08,1.97,14.85,6.81.33.43.62.93.8,1.45,1.29,3.6-.71,5.87-3.39,7.64-5.39,3.56-8.73,11.85-17.51,7.78-4.24-1.96-6.04-5.47-6.26-10.46.78-6.67,4.77-11.33,11.51-13.22ZM16.43,212.5c-5.88-.1-8.64-4.46-8.97-10.69-.37-6.91,7.91-14.34,15.63-14.4,2.49-.02,11.13,10.07,11.03,12.89-.15,4.6-10.17,11.98-17.69,12.2ZM47.66,173.99c7.41,0,13.07,4.8,13.08,11.07,0,6.84-6.22,11.97-14.34,11.82-6.78-.12-10.87-4.67-10.78-11.98.08-6.46,4.99-10.91,12.04-10.91ZM63.11,214.77c-.11,10.18-5.11,16.26-12.85,15.89-7.68-.38-12.97-8.35-13.02-19.29-.03-6.38,2.31-9.57,9.21-7.61,4.62,2.08,9.47-4.48,13.95,0,2.93,2.93,2.76,7.14,2.71,11.01ZM58.94,169.57c-5.44-.61-11.43-1.91-10.22-9.21-.04-10.25,5.36-18.1,12.11-17.63,5.59.38,9.21,3.4,9.31,9.51.14,7.82-5.98,17.92-11.2,17.33ZM67.37,191.58c.83-2.88,1.22-5.96,1.28-8.96.18-9.75,3.15-12.57,12.9-11.84,9.1.69,15.31,7.86,13.93,16.07-1.59,9.42-9.69,16.11-19.39,16.01-8.85-.09-11.05-3.08-8.72-11.28ZM143.12,401.9c.06-1.51.79-3.25,3.21-3.42,2.89,2.73,6.81,5.08,8.51,8.52,1.17,2.37-3.04,2.55-4.87,2.46-4.51-.21-7.03-2.96-6.85-7.56ZM138.47,381.67c3.52.28,4.88,2.42,3.17,6.02-.76,1.48,2.44,4.93-1.66,4.96-3.49.02-5.6-2.45-5.67-5.94-.06-2.62.86-5.31,4.16-5.04ZM184.96,442.93c-.65-.18-1.3-.35-1.94-.54-.66-.18-1.31-.38-1.97-.58-.74-.22-1.46-.44-2.18-.68-.35-.11-.7-.22-1.05-.34-1.07-.34-2.14-.71-3.19-1.1-.63-.22-1.25-.45-1.87-.68-.42-.16-.83-.32-1.24-.47-2.77-1.08-5.48-2.25-8.14-3.51-.61-.28-1.21-.58-1.81-.88-1.28-.63-2.55-1.29-3.8-1.98-.33-.18-.67-.36-1-.55-.08-.03-.15-.07-.22-.12-.46-.25-.92-.51-1.37-.77-.67-.38-1.33-.77-1.98-1.17-.87-.51-1.73-1.04-2.57-1.59-.68-.43-1.35-.87-2.01-1.31-.3-.2-.6-.4-.9-.61-1.2-.81-2.39-1.65-3.55-2.52-.37-.26-.74-.54-1.1-.82-.17-.12-.34-.25-.5-.38-.46-.35-.92-.71-1.38-1.07-1.28-1.01-2.54-2.04-3.78-3.11-1.14-.97-2.26-1.98-3.37-3.01-.55-.52-1.1-1.04-1.65-1.57-.55-.52-1.09-1.06-1.63-1.6-2.15-2.16-4.24-4.41-6.27-6.77-.29-.34-.57-.68-.84-1.02-.28-.34-.55-.69-.81-1.04-.33-.45-.65-.9-.95-1.36-.16-.25-.32-.49-.47-.74-.13-.22-.26-.44-.38-.66-.2-.34-.38-.69-.55-1.04-.1-.19-.19-.38-.27-.57-.09-.19-.17-.38-.25-.58-.09-.19-.16-.39-.23-.58-.07-.19-.14-.39-.21-.59-.06-.2-.12-.4-.18-.6-.02-.03-.02-.06-.03-.09-.04-.15-.09-.29-.12-.44-.08-.33-.16-.67-.22-1.01-.05-.28-.1-.56-.13-.84-.19-1.52-.16-3.12.17-4.79.12-.59.27-1.15.47-1.67.09-.26.19-.52.31-.76.1-.21.2-.42.32-.62.24-.45.52-.87.84-1.26.19-.24.39-.47.6-.69.33-.34.69-.65,1.07-.93.1-.07.21-.15.31-.22.05-.04.1-.07.16-.1.12-.08.24-.15.36-.23.31-.18.63-.35.97-.49.2-.09.41-.18.62-.25.18-.07.37-.13.55-.18.4-.12.81-.22,1.23-.28.07-.02.14-.03.21-.03.23-.04.46-.07.69-.09.34-.03.64-.04.91-.02.07,0,.14,0,.2.01h.09c.06.01.11.01.17.02.05.01.11.01.16.03.06.01.12.03.18.04.11.02.21.05.31.09.06.02.11.05.16.07.1.04.19.1.27.16.07.05.13.11.19.17.08.09.15.18.21.28.12.2.19.43.23.67.02.13.03.26.03.39.02.54-.07,1.14-.16,1.74-.04.28-.08.55-.11.82-.02.16-.03.32-.04.47-.01.12-.01.23-.01.33,0,.12.01.25.02.36s.02.22.05.32c0,.02,0,.04.01.05.02.11.05.21.09.3h0c.04.11.09.2.15.29.07.1.14.21.21.31.02,0,.03.03.03.04.22.32.44.65.64.99.28.46.55.93.81,1.4,1.04,1.9,1.93,3.92,2.8,5.94,1.3,3.02,2.54,6.03,4.13,8.61l.36.57c.29.44.58.87.9,1.27.1.14.2.27.31.4.19.25.4.49.61.73.19.2.38.4.58.59.31.32.64.61.98.89,6.07,4.96,13.09,8.7,18.16,15.22,1.34,1.72,3.64,2.59,6.09,2.47.3-.02.6-.04.9-.09.3-.05.61-.11.91-.18.31-.07.61-.16.91-.27.09-.03.18-.07.27-.1.06-.02.12-.04.18-.06.61-.25,1.22-.49,1.83-.67.19-.05.38-.1.57-.14s.38-.07.56-.1c.06,0,.11-.02.16-.02.06-.01.12-.01.17-.01.22-.02.44-.02.65,0,.1.01.2.02.3.03.04,0,.08.01.12.02.07.01.13.02.2.04,0-.01,0,0,0,0,.1.02.19.04.29.08.27.09.54.21.8.36.26.16.52.35.78.59.13.12.25.25.38.39,1.36-.09,2.56-.48,3.28-1.75,5.03-5.5,9.52.1,13.76,1.34.23.07.41.14.54.23.07.04.13.08.17.13.05.04.08.08.1.13.03.03.04.07.04.1.04.13,0,.28-.09.43-.02.05-.06.11-.11.17-.16.2-.39.41-.65.64-.09.07-.18.14-.27.22-.37.29-.78.6-1.13.91-.08.07-.15.14-.22.21-.07.06-.14.13-.2.2-.07.07-.13.13-.17.2-.05.06-.09.12-.12.18h-.01c1.16.6,2.32,1.19,3.47,1.78.62,9.46-2.51,12.71-10.87,10.47ZM160.3,410.41c5.23,3.48,9.69,6.46,14.84,9.89-5.08,2.86-9.42,2.9-13.51.31-3.98-2.52-2.25-6.03-1.33-10.2ZM225.67,434.77c4.68-1.47,4.81,4.68,10.74,4.38-5.88,3.86-8.77,2.5-11.37-.25-1.49-1.58-.71-3.71.63-4.13ZM301.88,427.82c5.9,4.93,6.48,6.65,2.25,9.24-12.01,7.34-24.12,14.61-38.33,17.07-1.25.48-2.5.94-3.75,1.38-1.25.43-2.5.84-3.76,1.23-.63.2-1.26.38-1.89.56-2.52.72-5.06,1.33-7.6,1.82-.64.12-1.28.24-1.92.34-.64.11-1.27.2-1.9.29h-.02c-.48.07-.96.14-1.45.19-.27.04-.54.07-.81.09-.62.07-1.25.13-1.88.18-1.12.1-2.24.16-3.37.19-.16,0-.34.01-.51.01-1.65.04-3.3.03-4.96-.06-.53-.02-1.06-.05-1.59-.1-.67-.05-1.34-.11-2-.18-.5-.05-1.01-.11-1.51-.18-1.51-.19-3.03-.45-4.55-.76-4.13-.84-6.99-3.31-6.84-7.98.15-4.68.06-9.62,6.53-10.36,4.02,4.65,11.01,1.13,15.14,5.48,1.98,1.78,3.02,4.87,6.46,4.6,5.57.66,9.7-2.89,14.33-4.96,2.06,1.12,4.12,2.23,6.17,3.35h0c2.15-.72,4.31-1.44,6.46-2.16-2.15-.94-4.31-1.88-6.47-2.82-.41-.09-.85-.17-1.28-.26-.22-.05-.44-.1-.65-.15-.02,0-.04-.01-.05-.01-.18-.05-.36-.1-.53-.16-.19-.06-.37-.13-.55-.21-.12-.05-.23-.11-.34-.17-.09-.05-.17-.1-.25-.16-.07-.05-.14-.1-.2-.16-.07-.06-.14-.13-.21-.2-.03-.03-.06-.06-.07-.09-.05-.05-.09-.1-.13-.16-.06-.08-.11-.17-.15-.26-.04-.07-.06-.13-.08-.2-.03-.07-.05-.14-.07-.21-.01-.01-.01-.02-.01-.02-.02-.06-.04-.12-.04-.19-.02-.09-.04-.18-.04-.27,0-.01,0-.02,0-.03,0-.13-.02-.27,0-.41.02-.49.18-.83.45-1.05.06-.04.11-.08.16-.11.05-.03.1-.06.15-.08.02-.02.04-.03.06-.03.06-.02.11-.04.17-.06.14-.05.28-.08.43-.11.08-.02.16-.03.24-.04.08-.01.16-.02.23-.03.19-.02.38-.03.57-.05.22-.01.44-.03.66-.05.16-.01.32-.03.47-.06.15-.02.29-.05.43-.09,3.64-1.07,7.3-2.03,10.95-3.07,2.32-.66,2.85.61,2.82,2.53.59.64,1.18,1.28,1.77,1.92h0c1.49-1.12,2.59-2.68,5.02-2.04,9.39,2.47,15.6-.89,17.84-10.72ZM241.04,443.84c.08-2.73,1.46-2.91,2.99-2.73.25.02.5.06.75.1.13.02.26.04.39.06.67.09,1.32.15,1.86,0,.24-.07.45-.18.63-.35,2.47.79,6.14-1.77,6.26,2.12.12,3.97-3.67,4-6.71,4.23-2.86.2-6.28.04-6.17-3.43ZM283.18,433.26c4.92-3.23,8.85-5.8,14.44-9.47-1.65,9.98-5.75,12.34-14.44,9.47ZM429.11,290.6c-3.55,5.37-7.65,10.27-11.98,14.95-1.08,1.17-2.18,2.33-3.29,3.47-2.22,2.3-4.48,4.55-6.75,6.8-1.13,1.14-2.26,2.26-3.39,3.39-.36.36-.73.65-1.12.88-.77.47-1.58.72-2.43.83-.21.03-.42.05-.64.06-3.05.18-6.41-1.07-9.34.31-.6.28-1.14.49-1.62.64-.17.05-.33.1-.49.13-.41.09-.77.14-1.1.14-.12,0-.23-.01-.34-.02-.11,0-.22-.03-.32-.05-.1-.02-.19-.05-.28-.08-.05,0-.1-.03-.14-.05-.08-.03-.16-.06-.23-.1-.11-.06-.21-.13-.31-.2-.1-.07-.18-.15-.27-.24-.07-.06-.13-.13-.19-.2-.06-.08-.12-.15-.17-.23-.21-.32-.39-.68-.54-1.08-.08-.19-.15-.4-.21-.61-.09-.32-.18-.64-.27-.97-.15-.6-.3-1.21-.47-1.78-.02-.06-.04-.13-.06-.19-.18-.57-.39-1.1-.68-1.54-.08-.12-.16-.23-.25-.34-.05-.07-.11-.14-.18-.2h0c-.24-.23-.45-.5-.64-.79-.19-.29-.36-.59-.54-.9-.17-.3-.34-.62-.52-.91-.18-.3-.38-.58-.61-.84-2.42-2.7-4.38-7.8-9.04-4.19-.17.13-.33.26-.47.4-.15.13-.28.26-.4.39-.12.13-.22.26-.32.39-.15.19-.27.39-.36.58-.06.12-.11.24-.15.36-.05.13-.09.26-.11.39-.02.08-.03.16-.04.24-.02.1-.02.21-.02.32v.12c0,.06.01.13.02.2,0,.02,0,.05.01.08,0,.07.02.13.04.2-.01.02,0,.04,0,.06.01.06.02.13.04.19.35,1.29,1.43,2.53,2.43,3.74.21.25.41.49.6.73.19.24.37.48.53.72,2.72,3.97,4.31,8.31,4.94,13.1.03.19.05.38.08.56.02.18.05.35.08.52.04.23.07.46.12.67.04.21.08.42.12.62.16.75.34,1.39.56,1.93.07.18.14.35.22.51.04.08.08.16.13.24.04.08.08.15.13.22.05.08.1.16.16.23.05.07.11.14.18.21.09.12.21.23.33.32.05.05.11.09.18.13.05.04.1.07.15.09.05.02.1.05.16.07.15.07.32.12.49.15.05.01.09.02.15.02.1.01.2.02.3.02.12,0,.25-.01.38-.03.02,0,.04,0,.07-.01.05,0,.09-.01.13-.02.05,0,.09-.01.14-.03.14-.03.28-.06.42-.1.14-.04.29-.09.45-.15.07-.03.15-.06.23-.09.08-.03.17-.07.25-.11.16-.07.33-.15.5-.24.56-.27,1.18-.63,1.85-1.06.27-.17.55-.36.84-.55,2.83-1.91,5.75-3.6,9.12-3.71.4-.01.8-.01,1.19.01.18.01.36.02.53.04.2.02.39.04.59.07.12.01.24.03.36.05.09.02.18.03.26.05.41.07.8.17,1.18.29.16.05.32.1.48.16.16.06.32.12.47.18.35.14.7.31,1.03.51.11.05.22.12.32.19.15.08.3.18.44.28.2.14.39.28.58.44.19.15.37.31.55.48.36.34.69.72.99,1.12.15.2.3.42.44.64.12.18.24.37.35.57.15.27.29.55.42.84.5,1.11.66,2.1.56,2.99-.01.15-.04.29-.07.43-.06.3-.15.59-.27.87-.04.09-.08.19-.12.28-.04.09-.09.19-.14.28-.15.29-.33.56-.54.83-.14.18-.29.36-.45.54-.12.14-.24.27-.37.4-.8.83-1.76,1.59-2.7,2.34s-1.76,1.42-2.46,2.03c-.36.3-.68.59-.98.87-.15.14-.29.28-.42.41-.09.09-.19.18-.27.27-.35.35-.63.68-.85.99-.07.09-.13.18-.19.27-.26.38-.41.73-.47,1.07-.02.11-.03.21-.03.31s.01.19.03.29c.01.09.04.19.08.28.05.13.12.27.22.4.04.07.09.14.15.2.05.07.12.13.18.2.18.18.4.35.65.53.37.26.83.52,1.37.8.36.18.75.37,1.19.56.22.09.44.19.68.29.47.2.98.41,1.52.62.28.11.56.22.85.33.34.13.66.26.96.41.13.06.25.12.38.18.17.09.33.18.49.28.14.08.27.16.4.24.22.14.43.29.63.46.14.11.28.23.41.35.09.08.18.17.26.26.09.09.17.17.24.27.07.08.13.15.18.23.08.1.15.19.21.3.06.1.12.19.17.29.07.13.14.26.2.4.06.13.11.27.16.41.07.2.13.41.17.63.02.08.04.17.05.25.03.15.05.31.06.46.06.64.02,1.35-.13,2.11-.05.27-.12.54-.19.79-.06.25-.14.5-.23.73-.08.24-.18.46-.28.68-.07.15-.14.28-.22.42-.06.12-.13.23-.2.34-.05.1-.12.2-.19.29-.06.09-.12.18-.19.27-.23.31-.49.6-.78.87-.05.04-.1.09-.15.13-.07.07-.13.13-.2.17-.1.09-.21.17-.32.25-.12.08-.24.17-.36.24-.12.07-.24.15-.37.21-.11.07-.23.13-.35.18-.29.14-.59.26-.91.36-.15.05-.31.1-.48.14-.12.04-.24.07-.36.09-.12.02-.25.05-.37.07-.35.07-.71.11-1.08.14-.28.02-.56.03-.85.03-.13,0-.26-.01-.39-.01-3.73-.1-6.88-1.94-9.74-4.26-1.23-.99-2.28-2.85-4.2-1.9-.35.17-.64.38-.88.62-.23.23-.41.48-.56.76h0c-.07.14-.12.28-.18.43-.04.15-.08.3-.11.45-.03.16-.05.31-.07.47-.07.79.05,1.62.21,2.38.28,1.31.32,2.51.17,3.63-.05.41-.14.82-.25,1.21-.06.2-.13.4-.19.59-.2.56-.46,1.11-.78,1.63-.11.18-.22.35-.33.52-.23.34-.48.67-.76.99-.27.32-.56.63-.87.94-.08.08-.16.16-.24.23-.2.19-.4.38-.61.56-.11.09-.22.19-.33.28-.11.09-.22.18-.33.27-1.98,1.57-4.1,3.18-6.78,1.88-2.53-1.23-3.17-3.64-3.32-6.28-.04-.73-.04-1.44,0-2.15,0-.08.01-.15.02-.23,0-.07.01-.13.01-.19.02-.3.06-.58.1-.87.05-.38.11-.75.18-1.12.04-.23.08-.46.13-.69.09-.4.18-.8.28-1.19.2-.8.43-1.58.66-2.37.06-.2.12-.39.18-.59.12-.39.24-.79.37-1.18.11-.36.2-.71.26-1.06.07-.35.1-.69.1-1.03,0-.28-.03-.55-.07-.81-.03-.17-.07-.34-.13-.51-.05-.17-.12-.33-.2-.49-.07-.16-.17-.32-.27-.47-.1-.15-.22-.29-.35-.43-.17-.18-.35-.34-.56-.5-.11-.08-.22-.16-.33-.23-.12-.08-.24-.15-.37-.22-2.45-1.33-4.32-.17-5.71,1.77-.53.74-1.09,1.46-1.67,2.14-.58.69-1.19,1.35-1.83,1.98-1.27,1.26-2.65,2.4-4.14,3.46-3.92,2.77-7.36,1.81-10.47-1.21-3.39-3.3-2.98-7.08-.41-10.55,2.54-3.43,6.13-5.73,10.23-6.83.28-.07.54-.15.8-.24.51-.17.98-.35,1.41-.56.22-.1.43-.21.62-.33.2-.11.38-.23.56-.35.18-.12.34-.24.5-.37.16-.13.31-.27.45-.41.23-.23.45-.48.62-.74.05-.06.1-.13.14-.2.03-.03.04-.05.06-.08.07-.1.13-.21.19-.32.02-.03.04-.06.05-.1.08-.14.14-.28.2-.42.07-.15.12-.31.18-.46.02-.06.04-.11.05-.17.1-.32.17-.66.22-1.01.02-.1.03-.2.03-.31.01-.13.02-.25.03-.38.03-.39.03-.79,0-1.2,0-.16-.02-.32-.04-.48-.02-.26-.06-.52-.11-.79-.04-.22-.08-.45-.13-.68-.04-.21-.09-.41-.14-.62-.05-.21-.11-.42-.17-.64-1.76-6.18-4.57-11.91-7.83-17.42-.08-.13-.16-.27-.25-.4-.11-.18-.23-.36-.36-.53-.07-.1-.14-.19-.21-.28-.29-.38-.61-.72-.95-1-.08-.07-.16-.14-.25-.2-.12-.09-.23-.17-.36-.23-.09-.06-.18-.11-.27-.15-.1-.05-.2-.09-.31-.13-.02-.02-.04-.02-.07-.03-.11-.04-.22-.07-.34-.1-.04-.01-.07-.02-.1-.02-.78-.15-1.65-.02-2.64.53-.33.18-.62.37-.87.57-.17.14-.33.28-.47.42-.17.16-.31.33-.43.49-.06.09-.11.17-.17.26-.05.08-.1.17-.15.26-.06.12-.11.24-.16.36,0,.02,0,.03,0,.04-.04.11-.07.22-.1.33-.01.05-.02.09-.03.13-.02.11-.04.22-.06.33-.13,1.21.3,2.55,1.13,3.93.43.71.8,1.45,1.18,2.2.11.23.23.46.35.7.16.32.32.65.5.97.1.18.21.36.31.54.11.19.21.37.31.55.1.18.21.36.31.54.21.36.41.72.59,1.07.2.36.38.71.55,1.05.17.34.34.68.47,1.02l.21.51c.14.33.25.66.35.98s.18.65.24.97c.04.16.06.32.08.47.1.65.1,1.29,0,1.92-.05.32-.14.64-.26.95-.12.31-.27.62-.46.93-.08.13-.16.26-.26.39-.1.15-.22.29-.35.44-.05.06-.1.11-.15.17-.16.19-.35.38-.56.56-.13.12-.27.24-.42.36-.14.11-.28.22-.43.33-.51.38-1.09.75-1.76,1.11-.16.09-.32.18-.49.26-.43.23-.89.44-1.39.66-1.12.49-2.16,1.07-3.11,1.74-.23.16-.46.33-.68.5-.25.18-.48.38-.71.58-.23.2-.45.4-.66.61-.15.13-.29.28-.42.42-.14.14-.27.28-.4.43-.07.07-.14.15-.19.23-.14.16-.27.32-.39.48-.19.23-.36.46-.53.7-.05.06-.1.13-.14.2-.18.25-.34.52-.5.79-.13.21-.25.43-.37.66-.26.47-.49.97-.69,1.47-.1.25-.2.51-.29.77-.12.35-.23.71-.33,1.07-.05.15-.09.31-.12.47-.04.13-.07.27-.1.41-.03.11-.06.23-.07.36-.07.33-.12.66-.17,1-.06.38-.1.77-.12,1.16-.02.19-.03.39-.04.59-.01.16-.02.31-.01.47,0,.15-.02.31,0,.47,0,.28,0,.57.02.85v.04c.02.32.04.63.07.95.02.26.05.52.09.78.03.25.07.5.11.75.02.15.05.31.08.46.02.14.05.28.07.41.02.15.03.29.05.43.02.13.03.27.04.4.01.1.02.19.02.28.01.11.01.21.01.31,0,.15-.01.29-.02.43-.01.14-.03.27-.05.4-.02.12-.05.24-.08.36-.03.12-.07.25-.12.36-.04.11-.09.22-.15.32-.06.11-.13.21-.2.31-.14.19-.3.38-.5.55-.15.15-.33.28-.52.4-.39.25-.85.49-1.4.71-16.35,6.62-31.97,15.39-50.34,15.79-6.17.14-3.97,4.81-2.75,7.84,3.15,7.81,8.39,14.4,13.88,20.64.31.35.59.69.85,1.01.17.22.33.43.47.63.07.1.14.2.2.3.08.1.14.2.19.29.24.38.42.74.56,1.09.07.18.13.35.16.51.03.08.05.16.05.24.05.26.06.52.02.77,0,.08-.02.17-.03.25-.07.32-.21.64-.42.95,0,.02-.02.04-.04.06-.42.62-1.12,1.22-2.1,1.84-.16.1-.32.2-.49.3-.34.2-.72.41-1.12.62-10.67,5.56-21.55,10.18-33.48,12.12-5.25.86-10.5,1.17-15.78.61-3.33-.36-7.75-.95-8.28-4.24-.54-3.3,4.14-3.87,6.73-5.04,2.77-1.26,5.59-2.43,8.44-3.52,1.42-.55,2.85-1.08,4.29-1.6s2.88-1.02,4.32-1.51c9.89-3.37,10.16-4.61,2.86-12.52-1.11-1.19-2.23-2.39-3.33-3.59-1.14-1.23-2.27-2.47-3.38-3.73-.4-.45-.79-.9-1.18-1.36-.42-.49-.84-.99-1.26-1.49-.31-.37-.62-.75-.92-1.13-.3-.37-.6-.74-.88-1.11-.29-.37-.58-.75-.86-1.13-.29-.38-.57-.76-.84-1.14-.28-.38-.55-.77-.82-1.16-.52-.76-1.03-1.38-1.56-1.88-.1-.1-.2-.19-.3-.28,0,0,0-.01,0-.01-.14-.12-.28-.23-.43-.34s-.29-.21-.44-.29c-.08-.05-.16-.09-.25-.14-.2-.11-.4-.2-.61-.27-.08-.03-.16-.06-.25-.08-.11-.03-.23-.06-.35-.08-.11-.02-.22-.04-.34-.05-.14-.02-.29-.03-.44-.03-.16,0-.31.01-.47.03-.04,0-.07.01-.11.01-.31.04-.62.11-.93.21-.09.02-.18.05-.27.09-.13.04-.25.09-.38.14-.62.26-1.26.61-1.93,1.04-.15.1-.31.2-.46.31-.71.48-1.41.97-2.11,1.45-1.4.98-2.8,1.97-4.17,2.97-2.64,1.94-5.21,3.94-7.68,6.06-.23.2-.47.4-.71.61-.83.71-1.64,1.44-2.44,2.19-.47.43-.93.87-1.38,1.31-.19.18-.38.37-.56.56-.28.27-.55.54-.82.82-.55.55-1.09,1.11-1.6,1.67-.24.26-.49.53-.73.8-.09.09-.17.17-.24.26-.41.46-.81.92-1.2,1.39-.17.18-.32.36-.46.54-.4.48-.79.97-1.18,1.46-.25.31-.49.64-.74.96-.41.54-.81,1.08-1.2,1.63-.49.7-.98,1.42-1.45,2.14-.23.36-.46.73-.69,1.1-.07.11-.14.23-.22.34-.02.03-.04.05-.06.08-.07.12-.15.23-.23.34-.14.21-.29.4-.44.59-.14.18-.28.35-.42.51-.09.11-.19.21-.29.31-.31.32-.62.6-.95.83-.14.11-.28.21-.43.3-.27.17-.55.31-.84.43-.11.06-.21.1-.32.13h0c-.16.06-.32.11-.48.15-.17.05-.34.09-.52.12-.2.03-.4.06-.61.08-.09,0-.19.02-.28.02-.19.01-.39.02-.59.02-1.05,0-2.23-.16-3.56-.44-17.5-3.65-31.72-12.96-44.59-24.71-2.91-2.65-6.62-5.44-4.46-10.93,10.28,4.24,18.96,10.63,26.8,18.01,1.21,1.14,2.32,1.96,3.38,2.47.05.02.1.04.15.07.16.07.31.14.46.19.13.05.25.09.37.13.16.05.32.09.47.12.2.05.4.08.6.1.08.01.16.02.24.02.32.02.63.01.94-.04.06,0,.12-.01.18-.03.2-.03.39-.07.58-.13.19-.05.38-.12.58-.2.11-.04.22-.09.33-.15.11-.05.23-.11.34-.17.18-.09.36-.2.54-.32.16-.1.33-.21.49-.33.11-.08.23-.17.34-.26.11-.09.23-.18.35-.28.35-.29.71-.62,1.08-.99.13-.12.26-.26.4-.4.17-.18.34-.35.51-.53.32-.35.66-.69,1.01-1.03.17-.18.35-.35.52-.52,1.21-1.21,2.43-2.39,3.67-3.55.5-.47,1-.94,1.5-1.41,1.81-1.69,3.63-3.36,5.42-5.07.7-.66,1.41-1.34,2.1-2.02s1.38-1.36,2.06-2.06c5.05-5.17,3.69-9.61-3.43-11.17-.96-.21-1.92-.43-2.88-.66-.95-.23-1.9-.46-2.84-.7-.86-.22-1.71-.45-2.56-.68-1.14-.31-2.28-.64-3.41-.98-.28-.09-.56-.17-.84-.25-1.6-.48-3.18-.99-4.74-1.52-.74-.25-1.47-.5-2.19-.76-1.26-.44-2.52-.9-3.76-1.39-.51-.19-1.02-.39-1.52-.59-1.03-.4-2.05-.82-3.07-1.25-.79-.33-1.57-.67-2.35-1.02-.32-.13-.63-.28-.95-.42-.32-.15-.64-.29-.96-.44-.88-.39-1.75-.81-2.62-1.23-.9-.43-1.79-.87-2.68-1.32-.88-.45-1.76-.9-2.64-1.37-.73-.39-1.45-.78-2.17-1.18-.02-.01-.05-.02-.08-.04-.81-.45-1.61-.91-2.41-1.37-.75-.43-1.49-.87-2.23-1.31-1.04-.63-2.08-1.26-3.1-1.92-.41-.25-.82-.51-1.22-.78-.47-.3-.93-.61-1.39-.91-.89-.58-1.75-1.18-2.62-1.78-2.04-1.42-4.04-2.88-6-4.4-.47-.35-.93-.71-1.39-1.08-.58-.46-1.16-.92-1.74-1.39-.57-.45-1.13-.91-1.68-1.38-.55-.46-1.11-.93-1.66-1.4-1.1-.94-2.18-1.89-3.26-2.87-.56-.5-1.11-1.01-1.66-1.52-.28-.25-.55-.51-.82-.77-.51-.48-1.02-.97-1.52-1.45-.66-.64-1.31-1.28-1.96-1.93-.59-.59-1.17-1.18-1.76-1.78-.58-.6-1.16-1.21-1.73-1.81-.5-.53-1-1.07-1.5-1.61-.5-.54-1-1.09-1.49-1.64-.5-.55-.99-1.1-1.47-1.65-.48-.56-.97-1.12-1.45-1.68-1.44-1.68-2.86-3.4-4.25-5.16-.47-.58-.93-1.17-1.39-1.76-1.57-2.03-3.11-4.09-4.63-6.2-.01-.01,0-.01,0-.01-.5-.7-1-1.41-1.5-2.12-.49-.71-.99-1.43-1.48-2.15-.2-.29-.4-.58-.59-.87-.77-1.16-1.55-2.33-2.31-3.51-.86-1.34-1.71-2.69-2.54-4.05-.41-.68-.82-1.36-1.22-2.05-.4-.68-.8-1.37-1.19-2.06-.24-.41-.47-.83-.7-1.24-.45-.8-.9-1.61-1.33-2.43-.24-.42-.45-.84-.67-1.26-.4-.76-.8-1.53-1.19-2.3-.76-1.5-1.49-3-2.2-4.52-.71-1.52-1.39-3.04-2.06-4.58-.87-2.01-1.7-4.04-2.49-6.09-.13-.35-.27-.7-.4-1.05-.37-.97-.73-1.95-1.08-2.93-.24-.68-.48-1.35-.71-2.03-.3-.87-.6-1.74-.88-2.62-.12-.34-.23-.68-.33-1.02-.27-.83-.53-1.67-.78-2.51-.07-.22-.13-.44-.2-.67-.21-.68-.4-1.35-.59-2.03-.26-.9-.51-1.81-.75-2.72-.25-.92-.49-1.85-.72-2.78s-.45-1.86-.67-2.8c-.21-.88-.41-1.76-.6-2.65-.19-.88-.38-1.77-.55-2.66-.26-1.29-.51-2.59-.74-3.9-.16-.88-.31-1.77-.45-2.66-.22-1.34-.43-2.69-.61-4.04-.1-.69-.19-1.38-.28-2.08-.04-.24-.07-.47-.09-.71-.06-.52-.13-1.04-.19-1.57-.06-.52-.12-1.05-.18-1.57-1.09-10.14,1.07-13.43,10.77-16.15,8.99-2.53,15.72-8.14,20.86-15.68,2.83-4.15,6.06-5.29,11.19-4.79,70.88,6.92,138.37-3.93,201.09-39.13,1.24-.7,2.48-1.4,3.71-2.12,1.15-.67,2.29-1.34,3.42-2.03,2.52-1.52,5.01-3.09,7.47-4.7,1.19-.77,2.37-1.56,3.55-2.36,1.18-.79,2.35-1.6,3.51-2.42,2.33-1.63,4.63-3.31,6.91-5.02,1.26-.95,2.42-2.69,4.26-1.78,1.94.96.96,2.97.86,4.46-.21,3.3-.31,6.54-.31,9.74,0,.83,0,1.65.02,2.47.01.69.03,1.37.05,2.05.03.96.07,1.92.12,2.86.02.37.04.74.06,1.1.02.37.04.73.07,1.09.05.73.1,1.45.16,2.17.08.96.17,1.91.28,2.86.16,1.58.36,3.15.58,4.71.17,1.25.37,2.49.58,3.72.21,1.23.44,2.45.69,3.66.22,1.09.46,2.17.71,3.24.13.57.26,1.13.41,1.69.19.76.38,1.5.58,2.25.31,1.18.65,2.36,1,3.52.17.58.36,1.16.54,1.74.37,1.16.75,2.31,1.16,3.45.2.57.41,1.14.62,1.7.18.51.38,1.01.57,1.51.24.63.49,1.25.74,1.86.46,1.12.93,2.23,1.42,3.33.3.69.62,1.38.94,2.06.32.68.64,1.36.97,2.03s.67,1.35,1.02,2.02c.34.67.69,1.33,1.05,1.99.36.66.73,1.32,1.1,1.98.37.66.75,1.31,1.13,1.96.19.33.39.66.59.98.19.33.39.65.59.97.4.64.8,1.28,1.21,1.92,1.33,2.07,2.73,4.11,4.2,6.11.25.34.5.68.75,1.01.37.5.75,1,1.13,1.49.28.37.57.74.86,1.1.96,1.21,1.94,2.41,2.94,3.6.64.75,1.29,1.5,1.95,2.24.53.6,1.07,1.2,1.61,1.79.91,1,1.84,1.98,2.8,2.96.44.46.89.91,1.34,1.36.31.31.62.62.94.93.4.39.79.78,1.2,1.17.67.65,1.35,1.29,2.04,1.93.65.6,1.3,1.19,1.97,1.78.53.48,1.06.95,1.59,1.41.43.38.87.76,1.31,1.13.7.6,1.41,1.19,2.13,1.78.66.55,1.33,1.09,2.01,1.63,1.04.84,2.11,1.67,3.19,2.49,1.09.83,1.84,1.6,2.31,2.39.09.15.17.3.24.45.07.14.13.28.18.42.12.34.2.69.23,1.05.02.17.03.35.03.54,0,.15-.01.31-.02.46v.06c-.01.16-.03.34-.06.52-.05.31-.12.64-.2.98-.07.29-.15.6-.25.91-.05.16-.1.32-.15.49-4.82,15.02,5.91,28.84,21.57,28.25,1.81-.06,4.05-1.47,5.38.62,1.48,2.31-.38,4.25-1.57,6.03ZM423.26,275.99c-6.18.11-10.27-4.12-10.15-10.49.12-6.97,7.16-13.07,15.39-13.35,3.9-.13,11.82,9.18,11.56,13.58-.25,4.13-10.09,10.14-16.8,10.26ZM455.12,298.85c-6.99.74-12.08-4.04-13.53-12.76-.27-1.64-.31-3.3-.38-4.09.15-10.39,1.86-11.87,10.89-10.36,1.09.18,2.25.4,3.3.21,6.37-1.19,11.61-1.17,11.73,7.63.14,10.16-4.85,18.61-12.01,19.37ZM468.23,254.25c-.03.31-.06.61-.11.91-.04.3-.09.59-.16.88,0,.02,0,.04,0,.06-.04.19-.08.37-.14.55,0,.02,0,.03-.01.05-.04.15-.09.3-.14.45-.04.15-.09.31-.15.46-.07.2-.15.4-.24.6-.04.1-.09.2-.13.3-.07.15-.15.3-.23.45-.06.12-.12.23-.18.34-.11.18-.22.35-.33.52-.1.14-.19.27-.29.4,0,.02-.02.04-.05.06h-.01c-.07.12-.15.22-.24.32-.14.17-.28.34-.44.49-.17.19-.37.37-.57.55-.4.35-.84.66-1.3.94-.24.14-.48.27-.73.39s-.5.24-.77.33c-.26.11-.53.21-.81.28-.28.09-.57.17-.87.23-.83.17-1.66.35-2.49.49-.28.06-.56.1-.84.14-1.46.23-2.91.35-4.29.25-.28-.02-.55-.05-.82-.09-.13-.02-.24-.04-.37-.06-.3-.05-.6-.12-.89-.2-.1-.03-.2-.06-.3-.09-.33-.1-.66-.23-.98-.38-.13-.06-.26-.12-.38-.19-.05-.02-.11-.05-.16-.09-.13-.07-.26-.14-.38-.22-.24-.15-.48-.32-.71-.5-.13-.1-.25-.21-.38-.32-.16-.14-.32-.29-.47-.45-.28-.28-.54-.59-.79-.93,0-.01,0-.02-.02-.03-.04-.05-.08-.11-.12-.17-.14-.19-.28-.39-.4-.6-.06-.1-.12-.19-.17-.29-.25-.41-.48-.85-.69-1.33-1.71-5.95-2.51-11.62,4.47-14.98,10.49-3.57,19.87,1.54,19.09,10.48ZM469.99,239.17c-4.71-.49-10.19-1.6-10.36-8.36-.14-9.07,6.12-18.05,12.98-17.88,5.64.14,9.55,3.08,9.65,9.23.11,7.18-7.03,17.54-12.27,17.01Z"/>
      <path class="cls-7" d="M482.26,222.16c.11,7.18-7.03,17.54-12.27,17.01-4.71-.49-10.19-1.6-10.36-8.36-.14-9.07,6.12-18.05,12.98-17.88,5.64.14,9.55,3.08,9.65,9.23Z"/>
      <path class="cls-7" d="M435,244.54c-5.99.62-11.41-4.19-11.62-10.33-.22-6.34,6.05-13.08,13.03-13.98,6-.79,13.18,4.17,14.53,10.03.06.27.14.54.17.81.42,3.64-10.68,12.91-16.11,13.47Z"/>
      <path class="cls-7" d="M440.06,265.73c-.25,4.13-10.09,10.14-16.8,10.26-6.18.11-10.27-4.12-10.15-10.49.12-6.97,7.16-13.07,15.39-13.35,3.9-.13,11.82,9.18,11.56,13.58Z"/>
      <path class="cls-7" d="M467.13,279.48c.14,10.16-4.85,18.61-12.01,19.37-6.99.74-12.08-4.04-13.53-12.76-.27-1.64-.31-3.3-.38-4.09.15-10.39,1.86-11.87,10.89-10.36,1.09.18,2.25.4,3.3.21,6.37-1.19,11.61-1.17,11.73,7.63Z"/>
      <path class="cls-7" d="M297.62,423.79c-1.65,9.98-5.75,12.34-14.44,9.47,4.92-3.23,8.85-5.8,14.44-9.47Z"/>
      <path class="cls-7" d="M175.14,420.3c-5.08,2.86-9.42,2.9-13.51.31-3.98-2.52-2.25-6.03-1.33-10.2,5.23,3.48,9.69,6.46,14.84,9.89Z"/>
      <path class="cls-7" d="M149.97,409.46c-4.51-.21-7.03-2.96-6.85-7.56.06-1.51.79-3.25,3.21-3.42,2.89,2.73,6.81,5.08,8.51,8.52,1.17,2.37-3.04,2.55-4.87,2.46Z"/>
      <path class="cls-7" d="M34.12,200.3c-.15,4.6-10.17,11.98-17.69,12.2-5.88-.1-8.64-4.46-8.97-10.69-.37-6.91,7.91-14.34,15.63-14.4,2.49-.02,11.13,10.07,11.03,12.89Z"/>
      <path class="cls-7" d="M36.98,171.05c-5.39,3.56-8.73,11.85-17.51,7.78-4.24-1.96-6.04-5.47-6.26-10.46.78-6.67,4.77-11.33,11.51-13.22,6.61-1.85,11.08,1.97,14.85,6.81.33.43.62.93.8,1.45,1.29,3.6-.71,5.87-3.39,7.64Z"/>
      <path class="cls-7" d="M70.14,152.24c.14,7.82-5.98,17.92-11.2,17.33-5.44-.61-11.43-1.91-10.22-9.21-.04-10.25,5.36-18.1,12.11-17.63,5.59.38,9.21,3.4,9.31,9.51Z"/>
      <path class="cls-7" d="M95.48,186.85c-1.59,9.42-9.69,16.11-19.39,16.01-8.85-.09-11.05-3.08-8.72-11.28.83-2.88,1.22-5.96,1.28-8.96.18-9.75,3.15-12.57,12.9-11.84,9.1.69,15.31,7.86,13.93,16.07Z"/>
      <path class="cls-7" d="M63.11,214.77c-.11,10.18-5.11,16.26-12.85,15.89-7.68-.38-12.97-8.35-13.02-19.29-.03-6.38,2.31-9.57,9.21-7.61,4.62,2.08,9.47-4.48,13.95,0,2.93,2.93,2.76,7.14,2.71,11.01Z"/>
      <path class="cls-5" d="M509.26,310.72c-.39-2.11-1.07-5.03-2.59-5.93-8.83-5.26-16.3-11.56-18.19-22.37.27-.13,2.2-1.05,4.12-1.98-.38-.75-.73-1.53-1.14-2.24-.06-.1-.12-.2-.18-.3-.11-.18-.23-.35-.35-.52-.21-.29-.43-.55-.68-.79-.12-.12-.25-.23-.38-.33-.08-.08-.16-.14-.25-.19-.08-.06-.17-.12-.26-.17-.17-.1-.35-.19-.54-.27-.19-.09-.39-.15-.6-.21-.17-.05-.35-.08-.54-.11-.19-.03-.38-.05-.58-.06h-.02c-1.92.02-3.83.04-5.75.06,0,0-.01,0-.01.01-.07.05-.15.09-.25.14-.09.04-.2.09-.32.13-.41.15-.89.28-1.22.41-.1.04-.18.07-.24.11-.11.06-.16.12-.16.18,0,.02,0,.04.01.05,0,.03.03.05.07.08.03.03.09.06.15.09.4.19.74.37,1.01.56.07.04.14.09.2.14.11.07.2.15.28.23.05.03.09.07.13.13.05.03.08.07.12.12.12.14.21.28.26.43.04.07.06.14.06.21.05.21.03.43-.06.64-.1.27-.28.54-.5.8-.36.44-.82.87-1.15,1.3-.1.13-.19.27-.27.41-.03.07-.06.14-.08.21-.03.07-.05.14-.06.22,1.97,1.48,4.13,2.77,5.88,4.47,2.47,2.4,4.31,5.63,3.47,8.94-.77,3.07-4.27,1.44-6.52,1.89-3.89.76-7.57,1.89-10.57,4.55-4.09,3.65-5.7,8.22-4.05,13.52,1.27,4.07,4.35,6.4,8.58,6.86,5.33.59,9.09-1.99,11.58-6.49,1.2-2.17,2.02-4.56,3.07-6.82,1.08-2.33,0-6.41,3.5-6.67,3.64-.28,6.97,1.83,9.25,4.87,1.91,2.54,2.48,5.52,2.11,8.7-1.65,14.02-15.75,25.19-29.84,23.58-1.34-.16-2.85-.94-3.4.98-.51,1.78,1.01,2.48,2.26,2.86,1.84.56,3.78,1.02,5.68,1.08,14.97.45,31.63-18.8,28.96-33.51ZM477.82,318.23c-4.03-.03-6.85-2.06-7.02-6.47-.2-5.46,6.27-10.6,13.52-10.86,2.04-.23,3.71-.47,3.67,2.67-.07,5.84-5.76,14.68-10.17,14.66Z"/>
      <path class="cls-7" d="M502.13,262.13c-2.66,6.96-7.98,11.09-15.03,13.12h-.02c-1.92.02-3.83.04-5.75.06,0,0-.01,0-.01.01-10.41-4.15-10.37-4.13-6.38-14.85.76-2.06.98-4.32,1.47-6.47.87-3.8-.74-9.11,5.06-10.11,6.46-1.11,12.82-.78,17.84,4.39,3.9,4.01,4.77,8.76,2.82,13.85Z"/>
      <path class="cls-3" d="M148.09,385.75c10.28,4.24,18.96,10.63,26.8,18.01,4.49,4.23,7.66,4.14,11.81-.2,5.37-5.62,11.37-10.63,16.8-16.19,5.05-5.17,3.69-9.61-3.43-11.17-44.89-9.85-78.05-36.18-102.48-74.01-14.79-22.9-23.45-48.34-26.38-75.58-1.09-10.14,1.07-13.42,10.77-16.15,8.99-2.53,15.72-8.14,20.86-15.68,2.83-4.15,6.06-5.29,11.19-4.79,70.88,6.92,138.37-3.93,201.09-39.13,9.94-5.58,19.46-11.8,28.56-18.65,1.26-.95,2.42-2.7,4.26-1.78,1.94.96.96,2.97.86,4.46-2.98,47.11,15.43,84.26,52.61,112.53,3.37,2.56,3.5,4.57,2.31,8.27-4.82,15.02,5.91,28.84,21.57,28.25,1.82-.07,4.05-1.47,5.38.61,1.48,2.31-.38,4.25-1.57,6.04-7.11,10.73-16.37,19.58-25.42,28.6-3.84,3.83-9.16.02-13.52,2.09-7.61,3.6-5.55-4.49-8.13-6.97-.97-.94-1.4-2.41-2.32-3.44-2.41-2.71-4.38-7.81-9.04-4.19-4.31,3.34-.1,6.31,1.81,9.1,2.72,3.98,4.31,8.31,4.94,13.1.96,7.26,2.84,8.16,8.8,4.13,2.83-1.91,5.74-3.61,9.11-3.72,4.47-.15,8.29,1.73,10.18,5.92,1.91,4.23-1.2,6.65-4.1,8.96-7.79,6.21-7.75,7.26,1.25,10.72,3.76,1.44,5.56,3.74,4.83,7.53-.86,4.47-4.09,6.52-8.46,6.4-3.73-.1-6.88-1.94-9.74-4.26-1.23-1-2.29-2.85-4.2-1.91-2.11,1.04-1.99,3.27-1.59,5.12,1.01,4.74-1.05,8.07-4.52,10.85-1.98,1.58-4.1,3.18-6.78,1.88-2.53-1.23-3.17-3.64-3.32-6.28-.21-3.7.86-7.12,1.94-10.58.72-2.29.47-4.46-1.92-5.75-2.46-1.33-4.33-.17-5.72,1.77-2.13,2.97-4.65,5.47-7.64,7.58-3.92,2.77-7.36,1.81-10.47-1.21-3.4-3.3-2.98-7.08-.41-10.55,2.54-3.43,6.13-5.73,10.23-6.83,6.06-1.62,7-5.63,5.51-10.87-1.76-6.17-4.57-11.9-7.83-17.42-1.38-2.33-3.3-4.1-6.11-2.54-3.06,1.69-3.01,4.31-1.32,7.12.86,1.42,1.5,2.98,2.33,4.41,3.57,6.13,6.06,11.12-3.43,15.24-7.55,3.28-11.29,10.69-9.68,19.4.57,3.09-.02,4.53-2.85,5.68-16.35,6.62-31.97,15.39-50.34,15.79-6.17.13-3.97,4.81-2.75,7.84,3.15,7.81,8.39,14.4,13.88,20.64,3.72,4.23,3.47,6.16-1.7,8.86-10.67,5.56-21.55,10.18-33.48,12.13-5.24.86-10.5,1.17-15.78.6-3.33-.36-7.75-.94-8.28-4.24-.54-3.3,4.14-3.87,6.73-5.04,5.55-2.51,11.28-4.67,17.05-6.63,9.89-3.37,10.17-4.61,2.86-12.51-4.71-5.09-9.57-10.16-13.47-15.84-3.07-4.48-5.88-4.11-9.53-1.62-11.31,7.71-22.05,16.11-29.36,27.93-2.69,4.34-5.44,4.81-10.24,3.81-17.51-3.65-31.72-12.96-44.6-24.71-2.9-2.65-6.61-5.44-4.46-10.93ZM171.08,260.24c-.14-4.84.74-9.42,2.25-13.86,1.2-3.53,2.84-7.4-2.03-8.97-5.67-1.83-5.1,3.72-6.2,6.59-3.63,9.51-2.93,19.41-1.24,29.62-4.17-1.89-7.56-3.76-11.18-4.97-5.23-1.75-9.89-.26-13.62,3.77-3.92,4.24-4.73,9.98-1.26,13.76,8.46,9.21,9.92,17.36-.04,26.25-1.7,1.52-1.24,4.3,1.06,5.76,2.44,1.55,4.22.22,5.54-1.84,3.3-5.18,7.07-9.95,11.46-14.25,3.3-3.23,2.06-5.81-1.15-8.19-3.81-2.83-7.31-5.97-9.59-10.25-1.1-2.06-1.91-4.15.08-6.09,1.72-1.68,3.72-2.19,6.11-1.25,3.96,1.56,7.16,4.16,10.24,7,1.74,1.61,3.16,4.52,6.13,3.23,2.58-1.12,1.03-3.97,1.64-5.96,1.66-5.43,2.76-13.91,9.3-12.69,7.76,1.45,3.1,8.92,1.99,13.91-.5,2.24-1.45,4.29.78,6.01,1.91,1.47,3.76.4,5.43-.51,1.93-1.06,3.76-2.34,5.54-3.64,4.23-3.08,8.47-3.61,11.39,1.28,2.83,4.74.77,8.53-3.96,10.88-1.73.86-3.74,1.19-5.38,2.16-2.85,1.68-8.67,1.08-7.72,5.72.73,3.56,5.68,1.87,8.81,1.91,3.86.05,6.37,1.83,7.46,5.4,1.2,3.95-1.36,6.28-4.21,8.17-5.82,3.86-11.13,1.26-16.37-1.59-2.8-1.52-5.4-4.34-8.88-1.05-5.52,5.22-9.81,11.29-12.95,18.18-1.04,2.3-.84,4.5,1.62,5.65,2.47,1.16,4.17-.13,5.4-2.37,1.47-2.67,3.09-5.26,4.65-7.88,2.63-4.42,5.16-6.96,11.02-3.48,6.55,3.88,13.93,3.72,20.36-1.24,2.41-1.86,4.27-1.39,6.77-.23,14.25,6.67,29.46,7.58,44.84,6.79,41.51-2.11,69.22-25.52,77.32-65.1.85-4.17,2.27-9.25-3.46-10.15-5.33-.84-4.15,4.8-4.8,7.87-7.5,35.08-27.61,53.65-62.81,58.05-10.01,1.25-20.01,1.56-29.86-.37-9.46-1.86-21.33-1.02-21.78-15.7-.02-.74-.61-1.6-1.18-2.16-1.96-1.94-1.82-3.45.13-5.51,5.02-5.31,5.24-11.5,1.89-17.68-3.44-6.35-9.02-8.71-16.15-7.36-1.68.32-3.13,1.61-4.13-1.67-3.81-12.34-7-14.17-19.26-11.96ZM199.36,217.16c.2,1.34.38,3.28.79,5.16,1.24,5.69,1.98,12.06,9.45,12.91,7.43.84,11.97-3.67,14.82-9.85,3.96-8.56,5.16-17.5,2.31-26.7-1.2-3.9-3.21-7.16-7.65-7.86-4.66-.74-8.89.1-11.88,4.15-4.74,6.41-7.26,13.63-7.84,22.18ZM286.56,212.97c-.15-4.46-.81-8.82-2.64-12.93-3.73-8.35-14.33-9.82-19.27-2.23-6.54,10.04-8.34,21.09-3.64,32.48,4.04,9.8,13.52,10.84,20.08,2.38,4.48-5.78,5.01-12.74,5.47-19.69Z"/>
      <path class="cls-6" d="M254.13,90.37c31.6-24.25,67.53-30.79,106.64-27.23-.89,4.07-3.42,5.02-5.25,6.56-56.22,47.42-122.07,72.28-194.09,82.38-22.76,3.19-45.61,7.35-68.66,3.07-4.13-.77-10.24,1.34-12.27-5.12,14.06-3.23,28.21-6.15,42.17-9.74,40.62-10.46,80.82-22.14,117.63-43.06,4.47-2.54,8.48-6.05,13.82-6.86Z"/>
      <path class="cls-6" d="M372.08,66.41c-9,17.1-17.09,34.36-25.33,51.55-1.43,2.98-5.07,5.02-7.95,7.16-45.34,33.64-96.7,51.2-152.49,56.8-23.29,2.34-46.57,1.85-69.87-.1-6.63-.55-12.12-1.99-15.85-8.54-4.25-7.46-13.12-8.39-20.58-12.87,110.79,9.69,208.16-20.97,292.06-94Z"/>
      <path class="cls-6" d="M250.7,76.98c3.38.74,7.26,1.18,1.61,5.01-1.9,1.29-4.17,2.51-4.92,5.04-23.99,15.94-50.69,25.84-77.77,34.9-29.17,9.76-59.2,16.28-89.04,23.53-7.77-5.14,1.79-7.55,1.81-11.47,20.88-22.25,46.96-35.81,75.4-45.68,30.2-10.49,61.37-12.21,92.9-11.33Z"/>
      <path class="cls-6" d="M387.91,68.72c32.26,43.98,50.95,92.43,60.31,146.11-7.23-3.97-13.68-4.45-19.68-.76-4.34,2.67-6.03-.44-8.18-2.76-15.46-16.67-23.05-37.1-27.36-58.9-5.25-26.55-6.59-53.44-6.04-80.45.01-.71.4-1.41.95-3.23Z"/>
      <path class="cls-6" d="M380.71,68.13c-.38,28.62-1.75,55.29,3.29,81.74,4.83,25.36,14.65,48.26,32.22,67.44,2.62,2.86,3.34,5,1.27,8.6-2.81,4.88-2.17,10.14.19,15.21.75,1.6,3.09,3.13,1.15,5.09-2.21,2.24-4.15.04-5.83-1.11-26.92-18.38-45.78-42.51-53.33-74.74-8.57-36.6,1.49-69.42,21.03-102.24Z"/>
      <path class="cls-6" d="M80.59,129.17c-1.14-.48-1.67-1.06-1.01-2.45,24.24-51.18,77.34-88.44,144.86-70.82,9.5,2.48,18.09,7.03,25.65,13.41,1.4,1.18,2.4,2.25,1.47,4.14-16.25-2.87-32.52-1.58-48.72.21-44.7,4.94-84.93,20.07-117.52,52.33-1.33,1.31-3.14,2.14-4.73,3.19Z"/>
      <path class="cls-6" d="M456.47,211.21c-11.59-53.46-27.76-104.74-66.86-148.02,24.71,8.03,42.98,21.3,57.01,40.59,19.47,26.76,22.03,57.31,20.15,88.92-.46,7.64-.77,15.06-10.3,18.52Z"/>
      <path class="cls-1" d="M195.83,432.47c.62,9.45-2.51,12.71-10.88,10.46-23.95-6.43-44.25-18.86-60.47-37.72-3.91-4.55-6.68-9.68-5.46-15.96.9-4.67,4.41-7.42,8.71-7.8,5.52-.48,1.71,4.58,3.11,6.59,4.86,6.98,6.44,16.91,12.35,21.73,6.08,4.96,13.09,8.7,18.16,15.22,1.92,2.46,5.77,3.17,9.26,1.76,2.36-.95,4.73-1.77,6.82.58,7.05,8.96,9.68,9.69,18.39,5.13Z"/>
      <path d="M80.6,145.46c29.84-7.24,59.87-13.77,89.04-23.53,27.08-9.06,53.78-18.96,77.77-34.9,1.3,3.02,3.91,3.4,6.73,3.34-5.34.81-9.35,4.32-13.82,6.86-36.81,20.92-77.01,32.6-117.63,43.06-13.97,3.6-28.11,6.51-42.17,9.74.03-1.52.06-3.05.09-4.57Z"/>
      <path d="M80.59,129.17c1.59-1.05,3.4-1.87,4.73-3.19,32.59-32.25,72.83-47.39,117.52-52.33,16.2-1.79,32.47-3.08,48.72-.21-11.3,0-22.61,0-33.92,0,10.88,3.72,22.31-.66,33.07,3.53-31.53-.88-62.7.84-92.9,11.32-28.44,9.87-54.52,23.44-75.4,45.68-.61-1.61-1.21-3.21-1.82-4.82Z"/>
      <path class="cls-1" d="M265.8,454.14c-14.06,5.43-28.46,8.08-43.47,5-4.13-.85-6.99-3.31-6.84-7.98.15-4.68.06-9.62,6.53-10.36,2.76,8.13,10.05,3.77,15.14,5.48,1.98,1.78,3.02,4.86,6.46,4.6,6.26,2.62,11.04,1,14.33-4.96,2.06,1.12,4.12,2.23,6.17,3.35.56,1.62,1.12,3.25,1.68,4.87Z"/>
      <path class="cls-8" d="M47.66,174c7.41,0,13.07,4.8,13.07,11.07,0,6.84-6.22,11.97-14.33,11.82-6.78-.12-10.87-4.68-10.78-11.99.08-6.46,4.99-10.9,12.04-10.9Z"/>
      <path class="cls-8" d="M449.13,243.77c10.5-3.57,19.88,1.54,19.1,10.48-.43,4.94-3.17,8.54-7.91,9.55-5.95,1.28-12.31,2.38-15.65-5.05,1.49-4.99,2.98-9.99,4.47-14.98Z"/>
      <path class="cls-1" d="M265.8,454.14c-.56-1.62-1.12-3.25-1.68-4.87,2.16-.72,4.31-1.44,6.47-2.16,4.21-.37,6.57-3.11,8.43-6.51,1.49-1.12,2.58-2.69,5.02-2.05,9.38,2.47,15.6-.89,17.83-10.72,5.91,4.93,6.48,6.66,2.25,9.24-12,7.34-24.12,14.61-38.33,17.07Z"/>
      <path class="cls-2" d="M264.12,444.29c-2.06-.45-4.75-.64-4.67-3.33.06-1.97,2.58-1.33,4.03-1.76,3.64-1.07,7.3-2.03,10.94-3.07,2.32-.66,2.85.61,2.82,2.53-3.6,3.69-7.35,7.01-13.13,5.62Z"/>
      <path class="cls-2" d="M247.66,440.92c2.47.8,6.14-1.77,6.26,2.13.12,3.96-3.66,4-6.7,4.22-2.87.21-6.28.05-6.18-3.42.15-5.11,4.86-1.28,6.62-2.93Z"/>
      <path class="cls-2" d="M180.72,425.59c5.03-5.5,9.52.1,13.76,1.34,2.57.75-1.34,2.4-2.13,3.75-5.01.89-8.96-.66-11.63-5.1Z"/>
      <path class="cls-2" d="M141.64,387.69c-.76,1.48,2.45,4.93-1.65,4.96-3.49.02-5.6-2.44-5.68-5.94-.06-2.62.86-5.31,4.16-5.04,3.52.29,4.88,2.42,3.17,6.02Z"/>
      <path d="M180.72,425.59c2.68,4.44,6.62,5.99,11.63,5.1,1.16.59,2.32,1.19,3.48,1.78-8.71,4.57-11.33,3.83-18.39-5.12,1.36-.09,2.56-.48,3.28-1.75Z"/>
      <path class="cls-2" d="M236.41,439.16c-5.88,3.85-8.77,2.5-11.38-.26-1.49-1.57-.71-3.7.64-4.13,4.68-1.47,4.81,4.68,10.74,4.38Z"/>
      <path d="M264.12,444.29c5.77,1.39,9.53-1.93,13.13-5.62.59.64,1.18,1.28,1.77,1.92-1.86,3.4-4.23,6.15-8.43,6.51-2.16-.94-4.31-1.87-6.47-2.81Z"/>
      <path class="cls-8" d="M449.13,243.77c-1.49,4.99-2.98,9.99-4.47,14.98-1.71-5.95-2.51-11.62,4.47-14.98Z"/>
      <path d="M237.16,446.27c-5.09-1.71-12.38,2.65-15.14-5.48,4.02,4.66,11.01,1.13,15.14,5.48Z"/>
      <path d="M257.95,445.92c-3.29,5.95-8.08,7.58-14.33,4.96,5.57.66,9.7-2.89,14.33-4.96Z"/>
      <path class="cls-4" d="M171.08,260.24c12.26-2.21,15.45-.38,19.26,11.96,1.01,3.27,2.46,1.98,4.13,1.67,7.13-1.35,12.7,1.01,16.15,7.36,3.35,6.18,3.13,12.36-1.89,17.68-1.95,2.06-2.09,3.57-.13,5.51.57.56,1.16,1.42,1.18,2.16.44,14.68,12.32,13.84,21.78,15.7,9.86,1.94,19.85,1.63,29.86.37,35.2-4.41,55.3-22.97,62.81-58.05.66-3.08-.53-8.71,4.8-7.87,5.73.9,4.31,5.98,3.46,10.15-8.1,39.58-35.81,62.99-77.32,65.1-15.38.78-30.59-.13-44.84-6.79-2.5-1.17-4.36-1.63-6.77.23-6.43,4.96-13.81,5.12-20.36,1.24-5.87-3.47-8.39-.94-11.02,3.48-1.56,2.62-3.18,5.21-4.65,7.88-1.23,2.24-2.93,3.53-5.4,2.37-2.47-1.15-2.67-3.35-1.62-5.65,3.13-6.9,7.43-12.96,12.95-18.18,3.48-3.3,6.08-.47,8.88,1.05,5.24,2.85,10.55,5.45,16.37,1.59,2.84-1.88,5.41-4.22,4.21-8.17-1.09-3.57-3.6-5.35-7.46-5.4-3.14-.04-8.08,1.65-8.81-1.91-.96-4.64,4.86-4.04,7.72-5.72,1.65-.97,3.65-1.3,5.38-2.16,4.73-2.34,6.79-6.14,3.96-10.88-2.92-4.89-7.16-4.36-11.39-1.28-1.79,1.3-3.61,2.58-5.54,3.64-1.67.91-3.52,1.99-5.43.51-2.23-1.72-1.28-3.77-.78-6.01,1.11-4.99,5.77-12.46-1.99-13.91-6.54-1.22-7.63,7.27-9.3,12.69-.61,1.98.94,4.84-1.64,5.96-2.97,1.29-4.39-1.62-6.13-3.23-3.08-2.85-6.28-5.44-10.24-7-2.38-.94-4.39-.43-6.11,1.25-1.99,1.94-1.17,4.03-.08,6.09,2.28,4.28,5.79,7.42,9.59,10.25,3.21,2.39,4.45,4.96,1.15,8.19-4.39,4.29-8.16,9.07-11.46,14.25-1.31,2.06-3.09,3.39-5.54,1.84-2.31-1.46-2.76-4.25-1.06-5.76,9.96-8.89,8.5-17.04.04-26.25-3.47-3.78-2.65-9.52,1.26-13.76,3.72-4.03,8.39-5.52,13.62-3.77,3.61,1.21,7,3.09,11.18,4.97-1.68-10.21-2.39-20.11,1.24-29.62,1.1-2.87.53-8.42,6.2-6.59,4.87,1.57,3.23,5.44,2.03,8.97-1.51,4.44-2.4,9.02-2.25,13.86Z"/>
      <path class="cls-4" d="M199.36,217.16c.58-8.54,3.1-15.77,7.84-22.18,3-4.05,7.22-4.89,11.88-4.15,4.45.7,6.45,3.96,7.65,7.86,2.84,9.2,1.64,18.14-2.31,26.7-2.86,6.18-7.39,10.69-14.82,9.85-7.47-.85-8.21-7.22-9.45-12.91-.41-1.89-.59-3.82-.79-5.16Z"/>
      <path class="cls-4" d="M286.56,212.97c-.47,6.94-.99,13.9-5.47,19.68-6.56,8.46-16.04,7.42-20.08-2.38-4.7-11.39-2.9-22.43,3.64-32.48,4.94-7.59,15.54-6.12,19.27,2.23,1.83,4.11,2.49,8.47,2.65,12.94Z"/>
    </g>
  </g>
</svg>