<?xml version="1.0" encoding="UTF-8"?>
<svg id="Layer_1" data-name="Layer 1" xmlns="http://www.w3.org/2000/svg" viewBox="0 0 512 512">
  <defs>
    <style>
      .cls-1 {
        fill: #fff;
      }

      .cls-1, .cls-2, .cls-3, .cls-4, .cls-5, .cls-6, .cls-7 {
        fill-rule: evenodd;
      }

      .cls-2 {
        fill: #212121;
      }

      .cls-3 {
        fill: #ce0e2d;
      }

      .cls-4 {
        fill: #00a0df;
      }

      .cls-5 {
        fill: #4a3c41;
      }

      .cls-6 {
        fill: #d15e14;
      }

      .cls-7 {
        fill: #007934;
      }
    </style>
  </defs>
  <g>
    <path class="cls-6" d="M300.28,60.11c5.11-8.04,15.75-13.36,26.83-16.3,14.01-3.8,34,.76,27.92,19.01-1.96,5.98-7.39,9.13-9.99,14.99.98,2.28,1.74,3.59,3.91,3.69,3.8.22,4.02-2.93,6.3-4.24,2.39-1.3,7.17-2.93,11.3-3.91,8.47-2.06,20.42-1.52,25.53,3.15,1.74,1.63,4.67,5.98,3.15,11.08-.87,3.04-5,6.63-8.47,8.91-3.37,2.28-7.6,4.78-11.08,6.08-2.61.98-6.63.98-6.63,3.91,0,2.28,1.74,1.96,2.93,3.48,9.23.43,18.47,2.82,23.68,7.93,3.15,3.04,6.95,8.58,5.76,14.99-1.41,7.6-9.23,11.95-16.08,14.23-4.67,1.63-14.77.54-13.69,6.63.54,3.04,6.74,4.13,9.99,6.84,5,4.13,8.58,11.19,5,19.01-1.63,3.59-5.11,8.04-7.93,9.78-6.3,3.91-17.71,3.15-24.01.22-2.17-.33-4.13-6.19-6.84-7.17-2.39-.76-4.67.11-5,1.85-.43,1.85,1.2,3.04,2.06,5,4.67,10.54,2.93,26.29-12.93,23.25-7.93-1.52-16.84-11.62-19.23-17.93-.87-2.17-.87-5-1.63-7.17-1.3-1.96-4.67-1.74-6.63-.76-1.3,2.39-1.3,5.21-2.39,7.6-.87,1.85-2.61,3.8-3.91,5.76-1.52,2.28-3.04,4.89-5.54,6.08-2.72,1.3-7.28,1.74-10.54,1.85-5.98.11-17.27-2.72-20.86-6.08-3.26-3.15-6.3-9.56-6.08-14.99.11-2.17,1.52-3.91.76-6.08s-3.26-3.04-5.76-2.06c-3.8,1.41-4.35,9.99-7.93,10.54-3.8,4.02-7.39,8.04-12.6,9.02-10.97,1.85-17.27-5.21-19.55-13.15-.87-3.15-1.74-7.71-1.63-10.32.22-2.28,2.61-4.56,2.06-7.17-.33-1.41-2.39-2.82-4.78-2.61-3.69.33-4.67,4.67-7.39,7.93-2.39,2.82-9.78,7.5-15.54,9.78-1.96.76-4.13.87-6.84,1.09-3.04.22-5.43.76-7.6,0-2.5-.87-3.04-2.17-6.63-2.61-3.69-3.59-4.67-9.67-4.24-14.23.65-5.76,5.76-15.75,10.76-19.23,2.06-1.41,6.41-3.59,7.93-3.91,2.06-.43,4.67.54,5.32-1.63.54-1.63-.65-2.5-1.09-3.69-7.06-.87-17.38.98-24.77-1.3-4.35-1.41-9.45-4.67-7.93-11.08.65-2.5,4.24-7.5,6.08-9.45,3.69-4.02,10.97-7.6,16.3-8.69,5.21-1.09,10.97-.11,15.86,1.3,2.28.65,6.63,2.93,7.17-.76.43-3.59-4.35-3.8-6.3-4.78-3.26-1.52-7.5-4.35-9.45-6.08-3.37-2.82-6.74-7.93-5.76-15.32,1.41-10.76,12.6-18.36,25.1-17.16,4.89.54,10.54,3.48,14.01,6.3,2.39,1.96,5.76,7.39,8.69,2.61,0-2.39-1.74-4.35-2.39-6.84-1.2-5.11-.65-12.71,1.3-16.84,1.52-3.15,6.63-8.8,10.76-9.23,6.19-.65,14.99,3.26,18.47,7.6,2.72,3.48,4.02,8.26,4.24,13.47,1.41,1.09,4.35,1.85,6.3.76.98-3.48,1.3-9.02,1.3-13.15,3.26-8.69,8.91-13.36,18.14-13.69,8.91-.33,12.82,7.28,13.47,15.54.43,5.11-.76,10.21,1.09,12.38,3.04,3.04,9.56,1.09,8.15-4.02Z"/>
    <path class="cls-4" d="M248.89,194.38c3.91,5,6.52,11.3,12.38,14.23,11.84,4.89,29.22,7.82,39.76.22,2.72-2.82,4.35-6.74,7.39-9.23,3.91,4.89,7.71,9.89,12.38,14.01,6.3,3.91,15.86,6.63,24.01,3.15,7.71-3.26,11.84-11.19,9.99-21.08,10.43,4.02,26.94,2.72,32.92-4.45,8.15,7.71,12.28,18.69,16.62,29.77,3.15,7.93,5,17.27,6.63,27.16.54,3.26,1.52,6.84,1.3,9.78-.11,1.52-1.09,3.15-.76,4.78.43,2.28,3.48,4.45,6.08,4.45,2.39,0,4.56-1.96,6.63-2.06,7.5-.65,11.95,5.76,15.86,9.99,3.37,3.8,5.43,5,6.3,9.78,1.74,1.2,3.37,2.61,5.54,2.39,2.93-.33,3.04-3.91,5-6.08,2.28-2.5,8.58-8.04,10.76-8.69,3.48-.98,5.32,1.3,8.47,2.61,1.41,3.04,3.91,4.89,3.91,9.23,0,2.5-1.41,10.32-4.45,11.08-2.93.65-6.84-2.93-9.99-2.61-3.15.22-4.24,4.24-1.63,5.76,5.21.65,9.89,1.96,12.6,5,2.17,3.69,2.06,9.67,0,13.15-1.2,2.06-3.91,5.32-5.54,5-1.63-.33-2.28-4.13-3.48-5.76-.76-1.09-5.32-6.95-7.39-7.17s-4.67,1.74-4.45,4.24c.11,2.06,2.72,2.17,3.91,3.48,2.93,3.04,5.54,12.28,3.69,18.47-.87,2.93-3.04,7.82-5.32,8.15-1.96.33-4.02-1.41-4.78-2.06-3.59-3.26-6.95-12.38-6.63-19.55.22-3.69,2.82-9.23-.54-11.08-1.52-.87-3.59-.54-5,.22-1.63.98-2.17,3.8-2.93,5.32-2.28,4.35-4.78,7.17-8.69,9.23-1.3-.87-1.41-3.04-1.3-4.45.22-5.32,4.24-13.47,8.15-15.32,2.17-.98,4.45-.22,6.63-1.3,2.82-2.82-1.41-7.71-3.69-9.45-1.41-1.09-4.13-2.28-6.63-3.69-3.91-2.28-6.74-4.02-11.62-5.54s-8.69-1.41-10.32,3.15c-.43,1.41-.11,2.61-.22,4.24-1.3,9.78-6.74,18.25-11.62,26.07-5,8.04-11.19,14.67-16.84,20.86-12.82,13.91-26.73,24.01-43.24,31.94-3.26.76-5.65,2.5-9.78,2.39-3.69,1.09-3.59,6.08-1.09,8.47,5.65,5.65,11.41,11.08,17.16,16.62-2.06,6.19-6.41,10.32-11.84,13.15-6.41-2.82-10.86-9.02-16.08-13.69-1.74-1.52-3.8-2.82-5.32-4.45-1.3-1.52-2.5-3.69-4.24-5.54-.76-.76-1.63-1.63-2.39-2.61-1.41-1.74-3.04-3.8-6.08-3.69-1.52,0-2.72,1.3-4.24,1.85-4.13,1.52-10.43,1.85-14.99,1.85-22.49.22-51.39-3.8-68.55-11.62-2.06-.98-4.35-1.63-5.76-2.61-3.04-2.06-4.45-6.52-9.99-5.54-2.17,5.65-4.24,9.99-7.93,14.45-5.21,6.3-12.82,11.95-20.32,15.86-2.72-9.23-.33-23.47,1.63-31.94,3.48-1.85,7.39-5.54,10.32-9.45,1.85-2.5,3.15-4.24.54-6.84-1.41-1.41-3.37-2.17-5-3.48-7.82-5.76-14.01-12.93-19.55-21.62-4.13-6.52-7.28-13.15-10.32-21.4-3.26-9.23-5.87-19.88-5.76-31.4,0-5.54,3.59-11.73-4.24-12.17-3.59-11.62-8.15-22.27-11.3-34.22,3.91,2.5,9.02,5.43,12.6,9.02,1.2,1.2,1.85,2.93,3.15,3.69,2.61,1.41,6.41,1.09,7.17-1.85.33-1.3-.33-2.82-.22-4.45.22-3.69,1.63-7.93,3.15-11.84,4.13-10.54,8.8-22.27,14.99-29.55,16.3,3.26,27.81-3.91,36.94-10.32.22,0,.22.11.22.22.22,0,.22.22.54.22.87,15.32,13.15,26.62,29.55,24.77,7.6-.98,11.84-6.08,17.17-9.56ZM262.15,263.37c-5.65,2.93-12.82,9.99-13.47,18.47-.43,6.3,1.52,12.82,6.08,16.3,3.37,2.61,10.43,5.11,16.84,4.45,5.54-.54,12.82-4.35,16.08-8.69,1.09-1.41,2.82-4.45,3.69-6.84.54-1.41,1.41-3.8,1.63-5,1.63-11.95-6.19-22.27-16.62-21.84-5.54.22-10.97,1.41-14.23,3.15ZM315.6,300.85c-2.28.33-3.04,2.28-5,3.48-.98.65-2.39.76-2.93,1.3-.98.98-.87,2.61-1.63,3.91-1.52,2.82-5.21,6.08-7.93,8.15-6.63,5-13.58,8.47-25.31,7.6-13.25-.98-22.27-7.06-29.77-14.45-4.13-4.13-9.78-10.32-11.62-15.86-1.09-3.26-.11-9.56-2.06-11.84-1.2-1.41-4.35-2.28-6.3-1.09-1.96,10.54-.98,20.97.22,31.4,1.52,12.6,2.39,24.01,7.39,32.7,3.48,6.19,8.47,10.21,13.47,14.45,8.47,3.59,18.69,8.47,29.55,4.45,11.3-4.13,17.93-15.64,24.01-25.1,3.04-4.78,6.63-10.21,9.45-14.77,1.09-1.63,1.85-3.37,2.93-5,3.37-5.54,9.23-9.56,10.54-15.86-1.41-2.28-2.28-3.8-5-3.48Z"/>
    <path class="cls-1" d="M122.87,245.44c-2.06-.87-3.48-2.5-5.76-3.15,1.52-7.28-1.41-13.15-7.93-14.01,6.3-7.28,1.09-19.99-8.15-20.53-2.28-5.11-3.91-10.86-5.32-16.84,1.74-1.09,4.35-1.41,6.3-2.39.22,0,.22.11.22.22,7.17,18.69,14.45,37.26,20.64,56.71Z"/>
    <path class="cls-4" d="M120.26,214.16c-.54-3.59-4.67-7.28-4.78-11.62-.11-2.82,1.96-7.06,4.24-9.02.98-.87,4.13-2.72,5.76-2.39,1.74.43,3.15,4.02,3.15,6.3.33,7.17-4.24,13.91-8.37,16.73Z"/>
    <path class="cls-4" d="M102.34,228.6c-3.37-.33-6.3,3.37-8.69,3.48-2.39.11-7.28-4.24-7.93-6.3-.33-1.09-.43-3.69,0-5.32.98-3.69,8.37-6.84,14.01-6.84,4.35,0,5.87,4.78,4.78,9.02-.65,2.06-2.82,3.15-2.17,5.98Z"/>
    <path class="cls-2" d="M61.27,216.22c-2.5,9.23.11,17.93,3.91,24.77-.98.54-1.52,0-2.61,0-3.8-5.76-8.15-18.47-2.61-25.1.65-.11.65.43,1.3.33Z"/>
    <path class="cls-2" d="M49.87,218.83c-2.82,6.52,0,15.32,2.06,19.77-.11,1.2-1.52-.22-2.61.22-2.72-5.11-5.76-15.86-.76-20.53.65,0,.87.43,1.3.54Z"/>
    <path class="cls-4" d="M108.96,233.6c2.39,2.61.65,6.08-.54,8.69-4.89,1.3-7.06,5.32-9.99,8.47-10.86-4.24.76-18.47,10.54-17.16Z"/>
    <path class="cls-4" d="M109.51,248.38c6.3-1.09,11.19,1.3,9.99,7.39-.43,2.17-5.21,7.28-7.93,8.15-5.11,1.63-9.89-.98-8.47-6.63.87-3.26,4.35-6.84,6.41-8.91Z"/>
    <path class="cls-2" d="M511.47,267.93h-2.39c.87-7.93-3.15-13.15-6.63-17.71,0-.43.33-.54.22-1.09h.54c5,2.28,10.54,11.84,8.26,18.79Z"/>
    <path class="cls-2" d="M498,274.99c3.04-7.17-1.63-16.73-5.54-19.99-.22-.76.54-.54.54-1.09,4.56.65,8.58,9.78,9.02,15.32.11,3.04-.65,6.95-4.02,5.76Z"/>
    <path class="cls-1" d="M126.56,257.07c1.09,1.85,2.72,4.56,2.39,6.84-.43,2.61-3.59,5.11-5.54,6.08-.22-2.17-2.06-3.59-1.85-5.32.43-2.61,5.32-3.91,5-7.6Z"/>
    <path class="cls-2" d="M276.38,260.22c10.43-.43,18.25,9.89,16.62,21.84-.11,1.2-1.09,3.59-1.63,5-.87,2.39-2.61,5.43-3.69,6.84-3.26,4.35-10.54,8.15-16.08,8.69-6.41.65-13.47-1.85-16.84-4.45-4.56-3.48-6.52-9.99-6.08-16.3.65-8.47,7.82-15.54,13.47-18.47,3.26-1.74,8.69-2.93,14.23-3.15ZM258.89,276.08c-3.15,4.24-3.69,13.8.54,16.84,1.63,1.2,5.21,2.72,7.17,2.93,10.97.76,18.69-8.04,18.69-18.69,0-7.17-5.87-13.91-12.17-9.02-6.52,2.28-11.3,4.02-14.23,7.93Z"/>
    <path class="cls-3" d="M273.12,268.15c6.19-5,12.17,1.85,12.17,9.02,0,10.65-7.71,19.55-18.69,18.69-1.96-.11-5.43-1.63-7.17-2.93-4.13-3.04-3.69-12.6-.54-16.84,2.93-3.91,7.71-5.65,14.23-7.93Z"/>
    <path class="cls-1" d="M132.1,272.39c-.11,2.5.65,5.32.22,7.17-1.52-.76-2.61-1.96-3.48-3.48.87-1.63,1.41-3.26,3.26-3.69Z"/>
    <path class="cls-2" d="M320.59,304.54c-1.3,6.3-7.17,10.21-10.54,15.86-1.09,1.74-1.85,3.37-2.93,5-2.82,4.56-6.41,9.99-9.45,14.77-6.08,9.45-12.71,20.97-24.01,25.1-10.86,4.02-20.97-.98-29.55-4.45-5-4.35-9.89-8.37-13.47-14.45-5-8.69-5.87-20.1-7.39-32.7-1.3-10.43-2.17-20.86-.22-31.4,1.96-1.3,5.11-.33,6.3,1.09,2.06,2.28.98,8.69,2.06,11.84,1.85,5.43,7.5,11.73,11.62,15.86,7.5,7.5,16.51,13.58,29.77,14.45,11.73.87,18.69-2.61,25.31-7.6,2.72-2.06,6.41-5.32,7.93-8.15.76-1.41.65-2.93,1.63-3.91.54-.54,1.96-.76,2.93-1.3,1.96-1.2,2.72-3.15,5-3.48,2.72-.54,3.59.98,5,3.48Z"/>
    <path class="cls-1" d="M160.13,367.77c.87,5.43-1.85,11.08-1.09,18.14-2.61.33-4.78.98-7.6,1.09,0-6.63.76-10.97,1.85-16.3,2.17-.98,4.67-1.85,6.84-2.93Z"/>
    <path class="cls-7" d="M146.12,371.79c-.33,5-.98,11.84-2.06,16.84-4.78-.54-13.47.22-16.3-3.69.33-4.78-.33-7.93.76-12.17,5.76-.76,11.62-1.63,17.6-.98Z"/>
    <path class="cls-1" d="M159.05,392.54c.54,3.91,1.2,7.6,3.15,9.99,1.3.22,2.82.98,3.91.54,5.98,3.48,11.73,8.58,16.62,13.69,3.91,4.24,8.26,8.8,9.23,14.99-13.04,1.2-25.86-5.21-32.7-14.01-.54-.76-.98-1.96-1.63-2.93-.65-.98-1.74-1.63-2.06-2.39-.54-.98-.33-2.39-.76-3.91-.54-1.85-1.96-3.37-2.06-4.78-.22-2.06,1.63-5.76,1.09-8.47,1.74-.65,3.04-2.17,5.21-2.72ZM163.5,411.34c-1.41-3.26-6.74-2.39-5.76,1.3.43,1.96,4.13,2.61,5.76.76v-2.06ZM166.65,421c4.13.43,3.37-5.11.22-5-3.91.22-3.26,4.78-.22,5ZM177.52,424.48c.11-1.85-2.61-3.15-4.45-2.39-5.65,2.28,4.24,7.6,4.45,2.39Z"/>
    <path class="cls-2" d="M421.63,419.16c-.76-.11-1.41-.54-2.06-.76-.33-5.54-1.41-10.76-3.91-14.01-.65-.87-2.28-1.2-1.85-2.61.76-2.17,4.13.76,5,2.06,2.17,3.37,4.56,11.84,2.82,15.32Z"/>
    <path class="cls-7" d="M192.29,437.95c.33,9.89-3.37,15.75-12.6,16.08-13.58.43-23.47-5.98-30.85-12.93-3.04-2.82-6.19-6.3-7.6-9.02-2.82-5.11-4.67-15.1-3.91-20.53.33-2.61,1.74-4.89,2.61-7.39,1.3,0,3.59-2.82,4.78-2.39,1.96.76,3.69,9.99,4.78,12.17,1.41,2.93,4.13,6.63,6.63,9.23,3.91,4.24,9.89,9.23,16.3,11.3,2.39.76,5.21,1.09,7.93,1.85,3.8,1.09,7.39,2.06,11.95,1.63Z"/>
    <path class="cls-2" d="M410.55,422.63c-.98.11-1.74,0-2.39-.22,2.61-7.39-2.17-13.69-5-17.16-.11-.54.76-1.41,1.09-.76,5.32,2.39,9.13,10.86,6.3,18.14Z"/>
    <path class="cls-1" d="M361.01,410.47c-1.96,4.56-4.45,8.69-7.39,12.38-1.52,1.96-3.8,3.69-5.76,5.32,1.52-4.78-6.52-6.41-6.84-2.06-.11,2.39,1.96,3.91,5.54,3.48-11.19,10.86-31.18,18.47-51.39,13.47,5.76-7.71,14.99-13.69,24.23-19.01,2.93-1.63,6.74-3.91,9.78-4.45,1.3-.22,2.72.22,3.91,0,3.15-.65,7.28-4.02,9.78-6.08,3.69-3.04,6.3-5.76,8.69-8.69,3.8,1.09,6.08,3.91,9.45,5.65ZM333.3,431.11c.76.76.98,1.96,1.63,2.93,1.52.54,2.82,0,4.45,0,3.91-4.78-5-10.21-6.08-2.93ZM325.92,433.71c-1.96,5.87,7.5,5.76,6.84,1.09-.22-1.85-3.48-3.04-5.32-2.39-.76.33-1.41.76-1.52,1.3Z"/>
    <path class="cls-2" d="M163.5,413.4c-1.63,1.74-5.32,1.2-5.76-.76-.87-3.69,4.35-4.56,5.76-1.3v2.06Z"/>
    <path class="cls-7" d="M378.93,419.7c-1.85,4.45-5.32,7.71-7.93,11.62-2.5,3.91-5.54,7.39-9.02,10.54-4.78-.98-5.65-5.76-8.91-8.15,5.11-5.98,10.32-11.84,14.23-19.01,4.24,1.3,7.06,3.91,11.62,5Z"/>
    <path class="cls-2" d="M166.98,416.01c3.04-.11,3.8,5.43-.22,5-3.15-.22-3.8-4.78.22-5Z"/>
    <path class="cls-2" d="M172.95,422.09c1.85-.76,4.56.43,4.45,2.39-.11,5.21-9.99-.11-4.45-2.39Z"/>
    <path class="cls-2" d="M339.39,433.93c-1.63,0-3.04.54-4.45,0-.54-.98-.87-2.06-1.63-2.93,1.09-7.17,9.99-1.74,6.08,2.93Z"/>
    <path class="cls-2" d="M327.44,432.41c1.85-.65,5,.54,5.32,2.39.54,4.67-8.8,4.78-6.84-1.09.11-.54.76-.98,1.52-1.3Z"/>
    <path class="cls-7" d="M291.04,447.19c10.1,3.15,25.42,3.8,35.31,1.09,7.06-3.04,14.45-5.76,20.53-9.78.22,0,.22.11.22.22-6.19,17.16-19.88,35.52-42.7,35.85-1.96,0-4.67.11-6.63-.22-4.02-.65-9.56-3.8-11.08-7.39-2.61-6.63.98-16.73,4.35-19.77Z"/>
    <path class="cls-2" d="M298.76,50.98c2.5-.54,4.35-2.5,6.63-3.91,5.76-3.59,14.45-7.5,22.38-9.02,13.91-2.5,27.92.98,33.79,9.99,3.48,6.41,1.85,15.54-1.63,21.08,2.28.11,5.87-.65,7.93-1.63,12.82-1.85,27.59.87,32.92,9.45,1.41,2.28,2.5,5.43,2.39,8.47-.54,11.73-12.38,14.23-19.77,19.77,2.82,2.06,6.52,2.06,9.78,3.48,6.95,2.93,14.67,10.97,16.08,19.55,1.09,6.41-2.17,11.52-5,16.08-5.76,4.35-12.49,7.71-19.99,10.32,3.59,5.11,11.84,9.56,12.17,17.93.11,4.24-2.06,8.37-3.69,11.84,2.82,5.11,6.84,9.13,9.99,14.01,3.59,8.15,8.04,16.08,11.3,25.1,3.26,9.02,3.91,19.34,6.3,29.77-.54,1.3,0,3.15.54,4.24,6.74,2.28,12.82,3.15,17.71,6.84,4.78,3.59,7.28,9.23,12.17,12.6,5.87-3.04,9.67-11.52,18.47-10.54,5.87.65,10.65,4.02,14.45,7.93,5.76,6.08,4.24,19.88-1.09,25.53,7.17,10.43.98,26.62-10.76,28.25-.33,11.62-6.52,25.75-19.55,19.77-6.84-3.15-10.86-11.84-12.6-20.32-2.72.54-5.21,3.69-9.02,3.91-6.95.43-10.43-5.11-9.45-13.15.87-7.82,6.52-16.95,12.6-18.69-3.04-3.59-7.82-6.19-14.01-6.84-1.85,3.37-2.5,7.82-3.48,12.17-3.37,6.19-6.3,12.38-9.99,18.14-4.45,6.95-10.43,13.04-15.86,19.23-5.21,5.98-11.73,11.73-18.14,16.84-10.43,8.37-22.6,15.86-36.39,21.4,2.72,5.76,7.82,9.23,12.6,14.01,5.87,5.65,12.06,9.89,19.55,14.77,3.15,2.06,8.58,5.11,11.84,5.32,3.26.22,10.1-2.17,9.99,3.15,0,1.63-3.26,5.11-4.78,7.17-1.96,2.72-3.59,4.78-5,6.84-1.85,2.61-3.26,5.11-4.78,7.17-1.74,2.39-4.67,3.91-6.08,6.3-1.41,2.5-.87,6.84-4.45,7.17-5,.43-6.41-6.95-10.76-7.6-1.52,2.06-2.72,4.45-3.91,6.63-6.3,10.76-14.01,20.97-27.16,25.53-5,1.74-10.32,3.91-16.3,3.91-14.88,0-29.55-6.08-28.25-22.92.98-12.06,9.23-18.47,16.3-25.31,4.89-4.67,10.43-8.26,16.62-12.17,4.02-2.5,8.69-4.13,12.6-6.63-5.21-6.41-11.52-10.97-17.71-17.38-1.74-1.85-4.02-5.43-5.76-5.76-1.96-.43-5.21.76-7.6,1.09-11.41,1.41-24.01.65-36.39-.76-21.4-2.5-39.98-6.3-55.41-14.99-4.02,4.56-7.28,9.56-11.62,13.69-4.35,4.13-9.67,7.06-14.23,11.08,3.59,4.45,9.34,8.04,14.01,12.93,4.35,4.67,9.23,9.89,10.54,16.3,1.85,8.91-1.3,19.88-5.54,25.53-8.15,6.08-22.6,5-32.37,2.06-13.69-4.02-23.14-15.43-29.55-26.07-1.74-7.82-5.43-21.73-1.09-28.46,2.93-4.45,9.56-3.91,12.6-8.47-5.11-.22-12.38-.76-17.71-2.39-3.69-1.2-9.89-2.93-6.3-8.15-.33-2.72.22-7.28,0-11.08-.33-4.89.22-6.19,5.54-6.3,3.26,1.3,8.15.11,12.6-.22,5.54-.43,9.99.22,14.77-1.63,1.52-.54,3.37-2.06,5.54-2.93,3.04-1.2,6.08-1.96,8.15-3.48,1.85-1.3,5.87-4.78,5.54-7.17-.22-1.85-5.43-4.56-6.84-5.76-13.58-12.06-24.34-30.64-30.09-50.08-1.96,1.09-2.28,3.48-3.15,5-2.93,5.11-7.5,9.67-11.84,13.69-2.93,2.72-5.65,5.76-8.69,8.47-8.47,7.5-17.93,16.08-19.55,30.53-.87,7.6,2.06,15.1,4.45,19.77,4.35,8.26,12.6,12.17,18.47,19.77,2.06,2.72,4.02,7.17,3.91,10.54-.22,4.78-3.69,9.45-6.84,12.38-4.24,3.91-11.84,7.71-16.84,12.17-1.63,1.41-4.24,3.26-4.45,5-.54,3.26,2.06,5.11,1.85,7.6-.43,4.67-7.93,8.04-11.84,9.23-4.35,1.3-11.62,1.2-16.3.54-5.21-.65-9.45-4.02-13.69-4.45-4.13-.43-7.28,1.52-9.45,3.15-.54,6.08,5.32,7.71,3.69,13.15-6.08,1.96-12.82,5-19.77,6.63-1.2.33-2.72.65-3.91.76-4.67.65-9.23-1.3-13.69-.54-2.72.43-4.24,3.91-7.39,3.48.87-3.04,3.04-4.67,5.54-6.08,5.43.11,10.1,1.2,14.77.54,7.93-1.2,14.99-4.89,22.16-6.63.11-5-5.65-6.63-4.24-12.17.54-2.28,6.19-5,9.99-5,5.98,0,10.21,5.11,17.93,5.32,2.61,0,5.21-.11,7.93-.22,2.93-.11,7.28-1.2,9.99-2.61,1.41-.76,4.78-2.61,5.32-5,.54-3.04-2.06-4.67-1.85-7.39,0-.87,1.3-3.15,2.06-4.24,5.11-6.63,16.51-10.32,22.38-17.16,2.06-2.39,4.67-6.95,3.48-12.17-1.63-6.95-9.89-12.17-15.32-17.93-7.06-7.5-13.69-20.32-9.99-34.22,1.2-4.67,3.48-9.89,6.08-13.69,4.67-7.06,12.38-12.06,18.47-17.93,3.04-2.93,5.87-6.41,8.69-9.45,4.56-4.89,10.86-11.08,8.47-21.08-.54-2.5-1.96-3.91-4.45-6.3-2.72,1.2-5.65,1.96-7.6,0-1.85-1.74-2.93-7.71-4.78-9.78-10.21,1.63-21.18-1.3-19.01-12.93-8.47-2.17-11.73-12.38-6.08-20.32-1.3-1.85-3.69-1.85-5.54-2.93-2.28-1.3-5.21-5-5.76-7.39-2.5-10.21,5.65-15.64,14.23-17.16-.98-6.52-3.15-11.84-5.32-17.16-10.76-.98-22.71-6.08-25.53-14.23-.54-1.63-.87-3.8-1.3-5.54-4.24-15.32,3.91-25.1,14.45-30.85,1.09-.65,2.17-.76,3.15-1.3,2.61-1.41,2.72-2.61,6.84-2.61,3.91,0,8.15.33,11.84.76,7.6.87,15.64,4.56,19.77,8.69,5.11,5.11,7.71,14.12,6.08,21.4-1.74,7.6-8.04,12.49-12.93,17.71.11,2.28.54,4.45,1.3,6.08,2.17-.65,2.28-2.06,3.91-3.15,5.11-3.37,12.49-4.35,16.84,0,5.98,5.87,3.91,18.03-.22,24.55-1.2,1.85-3.69,3.15-3.69,4.78,0,1.85,3.48,4.02,5,5,2.39,1.63,4.35,3.26,6.08,3.91,4.56-15.21,10.76-28.79,18.47-40.85-2.93-3.59-5.65-7.28-6.3-12.6-1.63-13.25,6.63-22.81,12.6-29.01-6.74-1.09-15.86-2.82-19.99-8.15-1.96-2.5-3.59-6.63-2.61-10.54.76-3.48,3.8-7.39,6.3-10.76,2.39-3.15,6.08-6.08,9.45-7.6,5.11-2.39,10.1-4.02,17.16-4.24-.33-2.17-2.82-3.04-4.24-4.78-3.15-3.8-5.54-9.02-4.78-16.62.54-5.65,3.59-9.78,6.84-13.47,4.35-4.89,14.67-9.89,25.53-7.6,4.45.98,8.37,4.02,12.6,5.32-1.3-13.8,4.24-24.34,13.69-29.01,13.15-1.74,21.95,4.78,29.22,10.54,3.26-9.56,12.82-15.64,24.23-16.08,12.28-.98,20.21,8.04,21.4,19.88ZM292.67,64.13c-1.85-2.17-.65-7.28-1.09-12.38-.65-8.26-4.56-15.86-13.47-15.54-9.34.33-14.88,5.11-18.14,13.69,0,4.13-.33,9.78-1.3,13.15-1.96.98-4.89.33-6.3-.76-.22-5.11-1.52-9.99-4.24-13.47-3.48-4.35-12.28-8.26-18.47-7.6-4.13.43-9.34,6.08-10.76,9.23-2.06,4.13-2.5,11.84-1.3,16.84.54,2.5,2.39,4.45,2.39,6.84-2.93,4.78-6.3-.65-8.69-2.61-3.37-2.82-9.13-5.87-14.01-6.3-12.49-1.3-23.68,6.41-25.1,17.16-.98,7.39,2.39,12.49,5.76,15.32,2.06,1.74,6.3,4.45,9.45,6.08,1.96.98,6.84,1.2,6.3,4.78-.54,3.8-4.78,1.41-7.17.76-4.78-1.41-10.54-2.39-15.86-1.3-5.43,1.09-12.6,4.78-16.3,8.69-1.85,1.96-5.43,6.95-6.08,9.45-1.52,6.41,3.59,9.67,7.93,11.08,7.39,2.39,17.71.43,24.77,1.3.43,1.2,1.52,2.06,1.09,3.69-.65,2.06-3.15,1.09-5.32,1.63-1.41.33-5.87,2.5-7.93,3.91-5.11,3.48-10.21,13.47-10.76,19.23-.54,4.56.54,10.65,4.24,14.23,3.59.43,4.02,1.85,6.63,2.61,2.28.76,4.56.22,7.6,0,2.72-.22,4.89-.33,6.84-1.09,5.76-2.17,13.15-6.95,15.54-9.78,2.72-3.26,3.69-7.6,7.39-7.93,2.39-.22,4.45,1.2,4.78,2.61.54,2.61-1.96,4.89-2.06,7.17-.22,2.61.65,7.06,1.63,10.32,2.28,7.93,8.58,14.99,19.55,13.15,5.32-.87,8.91-5,12.6-9.02,3.59-.54,4.13-9.13,7.93-10.54,2.5-.98,5.11-.11,5.76,2.06.76,2.17-.65,3.91-.76,6.08-.22,5.54,2.82,11.95,6.08,14.99,3.48,3.26,14.88,6.19,20.86,6.08,3.26-.11,7.82-.54,10.54-1.85,2.5-1.2,4.02-3.69,5.54-6.08,1.41-2.06,3.15-3.91,3.91-5.76,1.09-2.39,1.09-5.21,2.39-7.6,1.96-.98,5.32-1.09,6.63.76.76,2.17.76,4.89,1.63,7.17,2.39,6.3,11.3,16.4,19.23,17.93,15.86,3.04,17.49-12.71,12.93-23.25-.87-1.96-2.5-3.15-2.06-5,.33-1.74,2.61-2.61,5-1.85,2.72.87,4.67,6.74,6.84,7.17,6.19,2.93,17.71,3.59,24.01-.22,2.82-1.74,6.19-6.19,7.93-9.78,3.59-7.82,0-14.77-5-19.01-3.26-2.72-9.45-3.8-9.99-6.84-1.09-5.98,9.02-5,13.69-6.63,6.84-2.28,14.67-6.63,16.08-14.23,1.2-6.41-2.61-11.95-5.76-14.99-5.21-5.11-14.45-7.5-23.68-7.93-1.2-1.41-2.93-1.2-2.93-3.48,0-3.04,4.02-2.93,6.63-3.91,3.48-1.3,7.71-3.8,11.08-6.08,3.37-2.28,7.5-5.87,8.47-8.91,1.52-5.11-1.41-9.45-3.15-11.08-5.11-4.67-17.06-5.21-25.53-3.15-4.13.98-9.02,2.61-11.3,3.91-2.28,1.3-2.5,4.35-6.3,4.24-2.17-.11-3.04-1.41-3.91-3.69,2.61-5.87,8.04-9.02,9.99-14.99,6.08-18.14-13.91-22.71-27.92-19.01-11.19,3.04-21.73,8.26-26.83,16.3.87,5.11-5.65,7.06-8.15,4.02ZM232.05,203.84c-16.4,1.85-28.68-9.45-29.55-24.77-.22,0-.33-.22-.54-.22,0-.11,0-.33-.22-.22-9.13,6.41-20.64,13.58-36.94,10.32-6.19,7.28-10.97,19.01-14.99,29.55-1.52,3.91-2.93,8.15-3.15,11.84-.11,1.63.54,3.15.22,4.45-.65,2.93-4.56,3.26-7.17,1.85-1.3-.76-1.96-2.5-3.15-3.69-3.69-3.48-8.8-6.41-12.6-9.02,3.15,12.06,7.71,22.71,11.3,34.22,7.82.43,4.24,6.52,4.24,12.17,0,11.41,2.5,22.16,5.76,31.4,2.93,8.26,6.19,14.77,10.32,21.4,5.43,8.69,11.62,15.86,19.55,21.62,1.63,1.2,3.59,2.06,5,3.48,2.61,2.61,1.3,4.35-.54,6.84-2.93,3.91-6.84,7.6-10.32,9.45-1.96,8.37-4.24,22.71-1.63,31.94,7.5-3.91,15.1-9.56,20.32-15.86,3.69-4.56,5.76-8.8,7.93-14.45,5.65-.98,6.95,3.48,9.99,5.54,1.41.98,3.8,1.74,5.76,2.61,17.16,7.71,45.95,11.84,68.55,11.62,4.67,0,10.97-.33,14.99-1.85,1.52-.54,2.61-1.85,4.24-1.85,3.04-.11,4.67,1.96,6.08,3.69.76.98,1.63,1.85,2.39,2.61,1.74,1.85,2.82,4.02,4.24,5.54,1.52,1.63,3.59,2.93,5.32,4.45,5.21,4.67,9.67,10.97,16.08,13.69,5.43-2.93,9.78-6.95,11.84-13.15-5.76-5.54-11.52-10.97-17.16-16.62-2.5-2.39-2.72-7.28,1.09-8.47,4.13.11,6.52-1.52,9.78-2.39,16.51-7.93,30.42-18.03,43.24-31.94,5.65-6.19,11.95-12.82,16.84-20.86,4.89-7.82,10.32-16.4,11.62-26.07.22-1.52-.22-2.82.22-4.24,1.52-4.56,5.43-4.78,10.32-3.15,4.78,1.52,7.6,3.26,11.62,5.54,2.5,1.41,5.21,2.61,6.63,3.69,2.28,1.74,6.52,6.63,3.69,9.45-2.06,1.09-4.45.33-6.63,1.3-4.02,1.85-7.93,9.89-8.15,15.32-.11,1.41.11,3.59,1.3,4.45,3.91-2.06,6.41-4.89,8.69-9.23.76-1.41,1.3-4.35,2.93-5.32,1.41-.87,3.48-1.2,5-.22,3.37,1.85.76,7.39.54,11.08-.43,7.17,2.93,16.19,6.63,19.55.76.65,2.82,2.5,4.78,2.06,2.28-.43,4.45-5.21,5.32-8.15,1.85-6.19-.76-15.43-3.69-18.47-1.3-1.3-3.8-1.3-3.91-3.48-.22-2.5,2.39-4.35,4.45-4.24,2.06.22,6.63,6.08,7.39,7.17,1.2,1.74,1.74,5.43,3.48,5.76,1.63.33,4.35-2.93,5.54-5,2.06-3.59,2.17-9.45,0-13.15-2.82-3.04-7.5-4.35-12.6-5-2.72-1.63-1.63-5.54,1.63-5.76,3.15-.22,7.06,3.37,9.99,2.61,3.04-.76,4.45-8.58,4.45-11.08,0-4.35-2.5-6.19-3.91-9.23-3.15-1.3-5-3.59-8.47-2.61-2.17.65-8.47,6.19-10.76,8.69-1.96,2.17-2.06,5.76-5,6.08-2.17.22-3.8-1.2-5.54-2.39-.87-4.78-2.93-5.98-6.3-9.78-3.8-4.24-8.26-10.65-15.86-9.99-1.96.22-4.24,2.17-6.63,2.06-2.61-.11-5.65-2.17-6.08-4.45-.22-1.52.76-3.15.76-4.78.11-2.93-.76-6.52-1.3-9.78-1.52-9.89-3.48-19.23-6.63-27.16-4.35-11.08-8.47-22.05-16.62-29.77-5.98,7.17-22.49,8.47-32.92,4.45,1.74,9.89-2.28,17.82-9.99,21.08-8.15,3.48-17.6.76-24.01-3.15-4.67-4.13-8.47-9.13-12.38-14.01-3.04,2.5-4.67,6.41-7.39,9.23-10.54,7.5-28.03,4.56-39.76-.22-5.98-2.93-8.47-9.23-12.38-14.23-5.65,3.59-9.89,8.69-17.16,9.56ZM102.34,188.84c0-.11,0-.33-.22-.22-1.96.87-4.56,1.3-6.3,2.39,1.41,5.98,3.04,11.73,5.32,16.84,9.23.54,14.45,13.25,8.15,20.53,6.52.87,9.45,6.63,7.93,14.01,2.28.65,3.69,2.28,5.76,3.15-6.3-19.55-13.58-38.13-20.64-56.71ZM128.74,197.53c-.11-2.28-1.52-5.98-3.15-6.3-1.63-.33-4.78,1.52-5.76,2.39-2.28,1.85-4.24,6.19-4.24,9.02.11,4.35,4.24,8.04,4.78,11.62,4.02-2.93,8.58-9.67,8.37-16.73ZM104.51,222.52c1.2-4.13-.43-8.91-4.78-9.02-5.65,0-12.93,3.15-14.01,6.84-.43,1.63-.33,4.13,0,5.32.65,2.06,5.54,6.41,7.93,6.3,2.39-.11,5.32-3.69,8.69-3.48-.65-2.72,1.52-3.8,2.17-5.98ZM98.43,250.77c2.93-3.15,5.11-7.17,9.99-8.47,1.2-2.61,2.93-6.08.54-8.69-9.78-1.3-21.4,12.93-10.54,17.16ZM103.1,257.29c-1.52,5.65,3.26,8.26,8.47,6.63,2.72-.87,7.5-5.98,7.93-8.15,1.2-6.08-3.8-8.47-9.99-7.39-2.06,2.06-5.54,5.65-6.41,8.91ZM121.57,264.67c-.22,1.74,1.63,3.04,1.85,5.32,1.96-.98,5.11-3.48,5.54-6.08.33-2.28-1.3-5-2.39-6.84.33,3.69-4.56,5-5,7.6ZM128.95,276.08c.87,1.52,1.96,2.61,3.48,3.48.33-1.85-.43-4.67-.22-7.17-1.96.43-2.5,2.06-3.26,3.69ZM153.18,370.7c-1.09,5.43-1.85,9.67-1.85,16.3,2.82-.11,5.11-.76,7.6-1.09-.87-7.06,1.85-12.71,1.09-18.14-2.06,1.09-4.56,1.96-6.84,2.93ZM128.41,372.77c-1.09,4.24-.54,7.28-.76,12.17,2.93,3.91,11.62,3.15,16.3,3.69,1.2-5,1.74-11.95,2.06-16.84-5.87-.65-11.73.22-17.6.98ZM153.72,395.47c.54,2.72-1.3,6.41-1.09,8.47.11,1.41,1.52,2.82,2.06,4.78.43,1.52.33,2.93.76,3.91.43.76,1.41,1.41,2.06,2.39.65.87.98,2.17,1.63,2.93,6.84,8.8,19.66,15.1,32.7,14.01-.87-6.3-5.32-10.86-9.23-14.99-4.89-5.11-10.65-10.32-16.62-13.69-1.2.43-2.61-.33-3.91-.54-1.96-2.39-2.61-6.19-3.15-9.99-2.06.33-3.37,1.85-5.21,2.72ZM180.12,436.32c-2.61-.76-5.54-1.09-7.93-1.85-6.41-2.06-12.38-7.06-16.3-11.3-2.39-2.61-5.21-6.3-6.63-9.23-.98-2.06-2.72-11.3-4.78-12.17-1.09-.43-3.48,2.28-4.78,2.39-.98,2.39-2.28,4.78-2.61,7.39-.65,5.43,1.09,15.43,3.91,20.53,1.52,2.61,4.67,6.19,7.6,9.02,7.39,6.84,17.27,13.36,30.85,12.93,9.23-.33,13.04-6.19,12.6-16.08-4.35.43-7.93-.54-11.95-1.63ZM351.45,404.71c-2.39,2.93-5,5.65-8.69,8.69-2.5,2.06-6.63,5.43-9.78,6.08-1.3.22-2.61-.22-3.91,0-3.04.54-6.84,2.82-9.78,4.45-9.34,5.32-18.47,11.3-24.23,19.01,20.21,5.11,40.2-2.61,51.39-13.47-3.59.43-5.65-1.09-5.54-3.48.33-4.35,8.37-2.72,6.84,2.06,1.96-1.63,4.24-3.26,5.76-5.32,2.93-3.69,5.43-7.82,7.39-12.38-3.26-1.63-5.54-4.45-9.45-5.65ZM367.31,414.7c-3.91,7.17-9.13,13.04-14.23,19.01,3.37,2.39,4.24,7.17,8.91,8.15,3.37-3.15,6.41-6.63,9.02-10.54,2.5-3.91,6.08-7.17,7.93-11.62-4.56-1.09-7.39-3.69-11.62-5ZM286.92,466.96c1.52,3.59,7.06,6.74,11.08,7.39,1.85.33,4.67.33,6.63.22,22.81-.33,36.5-18.69,42.7-35.85,0-.11,0-.33-.22-.22-6.19,3.91-13.47,6.74-20.53,9.78-9.89,2.72-25.31,2.17-35.31-1.09-3.59,3.04-7.17,13.15-4.35,19.77Z"/>
    <g>
      <path class="cls-5" d="M76.48,146.58l2.39,2.82,3.8-5.21c.11-.11-3.69-.65-6.19,2.39Z"/>
      <path class="cls-5" d="M81.15,151.47s2.17-2.82,3.69-4.67c1.52-1.85,3.15-3.91,3.15-3.91l3.26,3.69-5.43,9.23-4.67-4.35Z"/>
      <path class="cls-5" d="M79.74,154.73l4.02,4.02s-4.02,9.02-4.45,8.91c-.33-.11-5.21-3.59-5.21-3.59l5.65-9.34Z"/>
      <path class="cls-5" d="M74.31,148.65c.33-.22,3.15,3.48,3.15,3.48l-5.98,9.99-4.56-2.72c-.11,0,.98-7.39,7.39-10.76Z"/>
      <path class="cls-5" d="M66.05,162.34c.11-.33,3.69,2.72,3.69,2.72l-2.39,5.98s-2.17-5.87-1.3-8.69Z"/>
      <path class="cls-5" d="M72.46,167.01l5.21,3.59-4.56,10.21s-4.02-2.93-4.56-6.3l3.91-7.5Z"/>
      <path class="cls-5" d="M75.94,182.11l4.13-9.34,5.98,3.69-3.8,8.04c0-.11-5.21-.76-6.3-2.39Z"/>
      <path class="cls-5" d="M85.28,184.71l3.91-6.41,5.11,4.24-.98,1.63c.11,0-5.11,1.63-8.04.54Z"/>
      <path class="cls-5" d="M98.43,181.24l.76.76s4.02.22,7.6-4.78c0,0-1.74.11-3.04-.65s-2.06-1.41-2.06-1.41l-3.26,6.08Z"/>
      <path class="cls-5" d="M104.08,172l3.8-5.87,4.02,5.21-3.69,4.56s-.54-1.2-2.06-1.74c-1.52-.65-2.06-2.17-2.06-2.17Z"/>
      <path class="cls-5" d="M109.62,163.2l2.93,4.24s1.09,1.96,1.3-.33c.22-2.28,1.96-5.32-.11-10.21,0,0,.33-1.41-1.3,1.2-1.63,2.61-2.82,5.11-2.82,5.11Z"/>
      <path class="cls-5" d="M81.59,169.51l4.24-7.93s.43-1.09,1.96-.22c1.52.76,4.02,3.04,4.02,3.04,0,0,.54.43-.11,1.85-.65,1.41-3.48,6.63-3.48,6.63,0,0,.33,1.2-1.2.43-1.41-.65-5.43-3.8-5.43-3.8Z"/>
      <path class="cls-5" d="M88.11,157.56l5.21-7.39s.65-1.09,1.52.22c.76,1.3,3.15,4.56,3.15,4.56l-3.91,7.39c-.11,0-6.41-3.48-5.98-4.78Z"/>
      <path class="cls-5" d="M90.6,175.15l3.91-7.6s.11-.54,1.41.43c1.3,1.09,4.13,5.21,4.13,5.21l-3.69,5.32s-.33,1.3-2.06,0c-1.74-1.3-3.91-2.39-3.69-3.37Z"/>
      <path class="cls-5" d="M96.8,164.4l4.24,4.89s.65,1.09,1.52-.43c.76-1.52,2.72-4.67,2.72-4.67,0,0,.43-.65-.98-2.28s-3.8-4.45-3.8-4.45c0,0-4.02,4.67-3.8,6.52.22,1.85.11.43.11.43Z"/>
      <path class="cls-5" d="M97.56,143.32s6.3,1.3,7.06,2.17c.76.98.65-.11-.65,1.63-1.41,1.74-3.26,4.13-3.26,4.13,0,0-.65.65-1.52-.22-.76-.98-3.37-3.59-3.37-3.59,0,0-.65-.87,1.74-4.13Z"/>
      <path class="cls-5" d="M102.45,153.64l4.78-5.98s2.06.33,2.72,1.52c.65,1.2,1.3,1.96,1.52,2.5.22.54,1.52,1.41.54,2.17-.98.76-1.96,2.82-2.17,3.26s-2.06,3.26-2.06,3.26c0,0-.22.54-2.17-1.52-2.06-2.17-3.91-3.26-3.15-5.21Z"/>
    </g>
  </g>
  <path class="cls-2" d="M251.72,218.5c4.24-.33,9.34,3.15,10.97,6.19,3.91,7.28.87,18.58-5.32,23.14-7.93,5.76-18.58,1.74-19.66-7.93-.87-7.82,3.69-16.08,8.69-19.66,1.3-.98,3.26-1.63,5.32-1.74Z"/>
  <path class="cls-2" d="M310.27,227.41c5.76-.65,11.84,4.24,13.04,8.37,1.2,4.02.87,10.1-.54,13.8-1.74,4.56-5.76,8.8-9.13,10.43-1.63.87-3.8,1.2-6.08.98-1.41-.11-4.35-.76-6.08-2.5-7.5-7.6-2.28-30.2,8.37-31.07.11,0,.22.11.43,0Z"/>
</svg>