<?xml version="1.0" encoding="UTF-8"?>
<svg id="Layer_1" data-name="Layer 1" xmlns="http://www.w3.org/2000/svg" viewBox="0 0 512 512">
  <defs>
    <style>
      .cls-1 {
        fill: #fefefd;
      }

      .cls-2 {
        fill: #029253;
      }

      .cls-3 {
        fill: #fffefe;
      }

      .cls-4 {
        fill: #a694c6;
      }

      .cls-5 {
        fill: #fefefe;
      }
    </style>
  </defs>
  <g id="u1xgI6">
    <g>
      <path d="M412.1,188.58c-2.14-9.22-4.66-18.32-8.62-26.83-9.57-20.5-20.88-39.84-39.68-53.58-.92-.67-2.26-1.31-1.77-2.8.42-1.27,1.74-1.64,2.9-1.78,2.21-.27,4.59.15,6.64-.51,15.53-5,30.68-10.9,44.12-20.4,3.16-2.23,4.74-4.64,2.07-8.88-3.19-5.08-8-9.57-7.42-16.54.16-1.86-1.85-3.23-3.62-4.03-4.07-1.84-6.86.85-9.68,3.02-11.2,8.64-23.41,15.55-36.23,21.44-1.18.54-2.28,1.61-3.75.83-.65-1.52.35-2.28,1.28-3.02,9.67-7.76,17.87-16.22,22.41-28.5,5.37-14.55-1.17-32.89-15.63-38.45-5.53-2.13-11.32-3.14-17.19-2.34-14.43,1.96-27.43,6.96-38.07,17.53-4.2,4.18-7.24,9.48-12.57,13.49-1.61-5.34-3-10.06-4.48-14.76-2.76-8.77-8.25-15.71-16.41-19.47-8.28-3.81-17.34-3.82-26.22-1.15-22.57,6.83-33.47,29.62-25.6,53.29,2.45,7.35,6.19,13.8,13.36,19.45-2.48-.13-3.51-.03-4.45-.28-18.29-4.77-31.76-15.34-39.12-33-1.26-3.02-3.82-3.78-6.26-4.81-1.53-.66-3.31.11-3.94,1.64-3.33,8.18-10.56,11.83-17.79,15.34-3.86,1.88-3.61,4.59-1.65,7.05,7.74,9.62,16.96,17.43,28.64,22.02,6.12,2.39,12.18,4.95,18.68,7.61-.98.79-1.43,1.35-2.01,1.59-9.05,3.69-17.81,8.01-26.41,12.63-40.63,21.86-69.48,53.57-83.12,98.33-8.18,26.84-9.79,54.01-7.11,81.83,2.8,28.96,13.09,54.76,31.33,76.99,22.1,26.93,50.11,46.14,82.75,58.49q11.74,4.44,7.81,16.16-2.43,7.26-8.44,2.49c-10.07-7.99-21.19-12.11-34.03-8.28-5.07,1.51-8.6,5.16-8.9,10.76-.57,10.59,2.85,20,10.2,27.56,14.95,15.36,32.62,25.29,54.52,27.05,10.14.83,11.79.26,12.62-10.04,1.1-13.57,4.16-26.7,8.34-39.6,1.64-5.06,3.06-5.43,7.37-2.43,4.37,3.05,8.47,6.48,13.05,9.16,3.78,2.21,3.68,3.34.33,6.02-9.88,7.89-17.44,17.51-20.23,30.18-.9,4.06-1.16,8.18,1.59,11.85,9.17,12.27,29.61,14.51,42.16,5.84,13.71-9.47,22.99-22.46,31.91-35.91,4.35-6.55,7.91-13.65,10.28-21.17,2.06-6.51.57-8.22-6.54-9.07-10.22-1.22-19.52-5.09-28.28-10.33-.97-.58-2.34-1.01-2.16-2.55.17-1.33,1.38-1.36,2.35-1.59,13.46-3.17,24.78-10.77,36.35-17.76,24.16-14.62,39.88-36.78,53.12-60.87,7.33-13.34,12.68-27.52,17.2-42.19,6.43-20.83,10.26-41.96,11.54-63.53,1.08-18.12-3.46-35.66-7.53-53.21ZM344.72,43.01c-4.47,7.1-11.89,9.39-18.46,13.39.33-7.79,9.7-14.62,18.46-13.39ZM264.07,38.21c-1.1,4.99-1.28,10.45-1.42,15.9-.02.88.05,1.84-.84,2.23-.88.39-1.58-.23-2.17-.89-4.95-5.58-8.27-11.67-5.9-19.47.89-2.92,1.54-6.61,5.71-5.73,3.72.77,4.71,4.04,4.62,7.96Z"/>
      <path d="M366.72,445.12c.69,5.75-3.31,9.94-4.81,14.91-.5,1.64-2.82,2.4-4.42,1.59-2.06-1.04-.44-2.64.2-3.88,1.95-3.8,3.59-7.68,4.02-11.99.58-5.82-.75-10.79-5.89-14.28-1.12-.76-3.4-1.5-1.96-3.33,1.12-1.42,2.84-.1,4.12.64,6.29,3.66,7.74,9.9,8.74,16.33Z"/>
      <path class="cls-4" d="M408.91,243.51c.47,11.19-3.73,26.35-6.65,41.65-2.61,13.68-6.8,26.95-12.43,39.68-14.4,32.53-32.86,61.91-65.11,79.84-9.48,5.27-18.63,11.51-30.27,11.91-3.32.12-6.78,2.14-10.34,2.79-1.7.31-3.33.94-3.6,3.1-.27,2.11.73,3.45,2.18,4.89,10.51,10.5,23.52,16.38,37.53,20.28,3.35.93,3.8,2.62,2.56,5.19-9.01,18.57-19.86,35.68-38.1,46.74-6.43,3.9-15.09,3.96-19.46.38-4.37-3.57-4.18-8.18-2.59-12.65,4.21-11.87,12.62-20.24,23.47-26.2,2.52-1.38,5.29-2.58,5.48-5.55.23-3.48-2.9-4.81-5.61-5.87-13.95-5.42-25.74-14.19-36.93-23.85-2.3-1.99-4.63-3.43-7.31-1.45-2.51,1.85-1.33,4.32-.07,6.46,1.28,2.19.72,4.23-.05,6.42-5.07,14.42-9.49,29.01-10.66,44.37-.3,3.95-2.93,4.22-5.89,3.77-12.62-1.89-24.16-6.5-34.18-14.44-4.81-3.82-9.87-7.52-13.2-12.88-1.17-1.88-2.55-3.85-2.99-5.95-1.98-9.51-.85-16.43,11.84-14.13,10.3,1.87,18.96,6.78,24.81,15.81,1.4,2.16,3.34,2.89,5.7,2.54,1.86-.27,3.29-1.49,3.44-3.37.78-10.23,5.66-19.36,7.66-29.27,1.19-5.93.55-7.89-5.41-9.34-20.19-4.92-38.38-14.47-55.01-26.26-31.28-22.17-54.52-50.76-61.85-89.54-5.41-28.65-5.35-57.51,2.37-85.84,7.13-26.17,19.04-49.9,38.42-69.43,12.71-12.81,27.88-22.18,43.28-31.17,24.2-14.12,50.83-20.38,78.41-22.94,18.11-1.68,35.4,3.4,52.71,7.71,15.95,3.97,29.91,11.92,42.06,22.69,17.52,15.52,28.65,35.28,35.28,57.52,5.99,20.12,10.2,40.62,10.49,66.38Z"/>
      <path class="cls-2" d="M371.72,33.06c-.86-10.07-5.07-17.98-18.2-17.21-7.6.36-15.03,1.65-21.84,5.19-21.84,11.36-32.66,30.18-36.88,53.81-1.03,5.75.91,7.38,5.77,7.8,6.09.55,11.91,3.82,18.16,2.36,17.25-4.05,31.79-12.79,43.11-26.46,6.04-7.29,10.79-15.03,9.89-25.51ZM344.72,43.01c-4.47,7.1-11.89,9.39-18.46,13.39.33-7.79,9.7-14.62,18.46-13.39Z"/>
      <path class="cls-2" d="M285.65,49.53c.16-15-.72-21-3.92-28.28-2.22-5.04-5.54-9.35-11-10.62-12.18-2.85-28.03,2.18-34.83,14.2-6.25,11.04-4.49,22.51.04,33.69,1.53,3.79,3.62,7.46,7.37,9.66,4.56,2.68,9.06,5.54,13.84,7.79,6.68,3.14,13.66,5.45,21.27,4.78,2.21-.2,4.15-.4,4.28-3.25.46-9.91,4.42-19.46,2.94-27.97ZM264.07,38.21c-1.1,4.99-1.28,10.45-1.42,15.9-.02.88.05,1.84-.84,2.23-.88.39-1.58-.23-2.17-.89-4.95-5.58-8.27-11.67-5.9-19.47.89-2.92,1.54-6.61,5.71-5.73,3.72.77,4.71,4.04,4.62,7.96Z"/>
      <path class="cls-2" d="M347.92,97.29c-.95-.04-2.66-.19-2.92-1.69-.3-1.75,1.6-2,2.83-2.35,17.81-5.08,33.26-14.91,48.91-24.33,2.36-1.42,4.81-3.18,6.29.37,1.26,3.01,6.25,6.38.21,9.74-13.93,7.75-28.11,14.73-44.34,16.23-3.54.33-7.03,1.28-10.98,2.03Z"/>
      <path class="cls-2" d="M236.67,84.54c-1.84,1.71-3.55,1.58-5.18.97-12.91-4.85-26.71-7.12-39.03-13.83-4.71-2.56-9.14-5.27-12.96-8.98-.61-.59-1.67-1.3-1.63-1.89.37-4.9,5.53-5.38,8.09-8.34,1.51-1.74,3.41-.56,4.63,1.27,6.09,9.19,14.62,15.63,23.8,21.46,5.91,3.75,12.67,5.04,19,7.57,1.1.44,2.3.6,3.28,1.78Z"/>
      <path d="M255.73,225.63c31.61-.46,59.46-10.79,83.23-31.83,3.34-2.96,6.73-5.87,10.17-8.71,2.51-2.07,3.16-3.7-.66-4.87-.8-.25-1.6-.68-2.26-1.2-1.11-.86-2.19-1.97-1.46-3.48.64-1.34,2.12-.98,3.23-.75,5.15,1.07,9.72,3.38,13.67,6.84,2.45,2.15,5.05,4.16,6.85,6.95.74,1.14.75,2.38-.24,3.3-1.04.96-1.8-.08-2.62-.67-5.71-4.12-5.58-4-10.19,1.85-9,11.42-16.11,23.9-21.55,37.36-.51,1.26-1.64,2.88-.31,3.72,1.58,1,2.15-1.05,2.96-2.04,6.67-8.22,19.38-10.71,27.89-5.44,9.82,6.08,10.91,17.25,2.4,25.14-2.78,2.58-6,4.59-9.36,6.31-2.57,1.32-2.69,2.85-.73,4.75,1.61,1.57,3.14,3.19,3.93,5.35.49,1.33.83,2.81-.52,3.76-1.33.94-3.05,1.21-4.18-.24-3.66-4.68-8.69-7.77-13.08-11.59-2.63-2.28-2.06-4.11,1.11-5.24,1.94-.69,3.94-1.2,5.86-1.94,3.71-1.45,7.15-3.32,9.9-6.32,3.98-4.33,4.9-9.91,2.06-13-3.11-3.38-10.51-3.27-14.63.37-3.61,3.19-6.84,6.76-9.4,10.88-3.13,5.03-5.63,5.11-9.07.33-5.18-7.2-11.37-8.99-19.34-5.29-2.88,1.34-6.41,2.62-6.16,6.7.25,3.93,2.73,6.77,6.25,8.17,2.82,1.12,5.97,1.43,8.99,2.06,2.64.55,5.39,1.26,4.99,4.68-.43,3.75-3.44,3.06-6.01,2.81-6.06-.59-12.02-.41-17.67,2.21-2.39,1.11-4.52,2.47-5.63,5.01-2.17,4.97.27,8.63,5.69,8.54,3.59-.06,6.59-1.76,9.55-3.49,1.48-.87,2.82-1.96,4.29-2.85,2.72-1.64,5.13-.76,6.76,1.54,1.84,2.61.21,4.53-2.07,5.9-5.58,3.37-11.25,6.61-16.78,10.07-2.34,1.46-4.28,3.37-4.61,6.47-.8,7.58,4.6,11.97,12.13,9.53,5.71-1.85,10.17-5.55,14.02-10.12,5.32-6.32,7.66-6.05,12.67.32,2.48,3.16,5.35,6.47,10.07,6.21,1.78-.1,3.12.23,3.56,2.07.66,2.78.59,5.43-1.63,7.67-1.61,1.63-3.38,1.74-5.1.51-3.34-2.39-6.71-4.78-9.77-7.5-2.8-2.48-4.89-2.05-7.55.27-4.02,3.51-8.51,6.52-13.65,8.1-3.3,1.02-3.33,3.69-3.9,6.05-2.44,10.08-5.74,19.91-11.79,28.34-10.25,14.28-25,21.09-42.07,23.11-22.7,2.68-43.11-2.14-59.21-19.51-9.24-9.97-13.96-21.89-14.24-35.51-.14-6.7-.12-13.41-.24-20.11-.04-2.01.45-4.64-1.72-5.52-2.06-.83-3.03,1.74-4.34,2.94-1.78,1.62-3.38,3.42-5.08,5.13-2.38,2.39-5.11,2.29-7.38.23-2.38-2.16-.85-4.42.86-6.27,2.22-2.4,4.59-4.65,6.8-7.05,1.96-2.14,4.25-4.12,4.86-7.14.49-2.41,1.43-4.3,4.2-4.37,2.81-.07,4.9,1.03,6.08,3.8,1.59,3.74,4.25,6.62,7.83,8.58,4.69,2.56,9.62,2.17,12.87-1.15,3.58-3.66,3.44-8.01,1.87-12.48-.75-2.12-2.45-3.28-4.5-3.91-.97-.3-2.05-.24-3.03-.53-2.9-.85-7.11-1.23-6.45-5.21.69-4.15,4.99-3.07,7.75-2.48,4.53.96,8.48-.01,12.43-1.91,1.76-.85,3.44-1.78,3.38-4.06-.06-2.43-2.14-2.91-3.84-3.6-5.28-2.15-10.7-2.38-16.15-.74-1.73.52-3.34.83-4.95-.14-1.33-.8-2.77-1.66-2.9-3.36-.14-1.87,1.47-2.58,2.84-3.25,2.49-1.22,5.14-1.72,7.9-2.11,5.92-.84,10.66-3.81,13.43-9.24,1.63-3.2.84-5.63-3.1-6.46-7.83-1.67-14.23.91-19.45,6.63-1.95,2.14-3.39,4.74-5.08,7.11-1.49,2.1-3.37,2.96-5.74,1.46-2.17-1.38-3.71-3.02-2.38-5.93,1.93-4.24,3.18-8.72,3.83-13.32.58-4.11-.22-8.13-3.79-10.53-3.26-2.18-9.55-.11-12.55,3.47-5.59,6.65-4.64,17.84,2.07,24.42,3.83,3.75,3.63,4.94-1.46,6.9-5.51,2.11-10.62,4.92-15.08,8.76-2.64,2.28-4.84,2.26-7.08-.28-2.6-2.95.12-4.31,1.94-5.66,2.75-2.05,5.54-4.15,8.59-5.65,3.48-1.7,4.49-3.33,2.38-7.07-3.19-5.65-4.5-11.82-2.81-18.38,2.5-9.7,10.71-15.67,20.65-14.85,9.24.76,9.28.76,8.11-8.22-.99-7.66-2.13-15.3-3.13-22.96-.44-3.41-1.92-4.04-4.71-2.12-3.12,2.13-6.27,4.21-9.43,6.29-.84.55-1.8,1.31-2.72.26-1.02-1.17-.44-2.25.53-3.13,8.92-8.14,18.56-14.8,31.28-14.93,1.44-.01,3.65-.5,3.91,1.46.34,2.5-2.12,1.45-3.39,1.84-.98.3-2.02.39-3.03.61-7.37,1.64-7.27,1.61-4.67,8.65.94,2.55,1.64,5.29,1.83,7.99,1.08,15.7,9.04,27,22.19,34.94,13.8,8.33,28.95,11.4,44.95,11.02Z"/>
      <path d="M262.33,155.87c9.93,1.7,20.22,2.92,25.79,13.13,3.51,6.42,2.48,12.17-2.44,17.47-10.22,11.01-26.42,13.81-38.98,6.79-7.5-4.19-11.27-10.57-10.38-19.1.87-8.31,5.63-13.74,13.77-16.11,3.97-1.16,7.95-2.15,12.24-2.18Z"/>
      <path d="M318.94,137.05c-.24,5.46-5.46,11.81-12.89,16.37-4.81,2.95-10.99-.65-11.79-6.71-.79-6.02-.03-11.99,3.04-17.4,2.05-3.61,5.18-5.81,9.34-6.52,8.18-1.4,12.34,2.09,12.3,14.26Z"/>
      <path d="M238.41,129.99c.38-5.22,2.31-10.7,7.51-14.63,4.05-3.06,8.45-4.13,12.86-1.24,4.42,2.89,4.42,7.61,3.17,12-1.73,6.06-6.09,10.44-11.58,13.05-6.48,3.08-12.22-1.14-11.95-9.18Z"/>
      <path d="M353.92,43.04c-.01-4.77-2.9-8.7-7.58-9.44-3.68-.59-7.45-.72-11.16.6-12.43,4.41-18.17,14.41-21.76,26.07-1.14,3.72-4.21,8.31-.6,11.44,3.75,3.24,7.12-1.15,10.41-2.98,7.91-4.43,15.89-8.75,23.68-13.39,4.51-2.68,7.26-6.72,7-12.29ZM326.27,56.4c.33-7.79,9.7-14.62,18.46-13.39-4.47,7.1-11.89,9.39-18.46,13.39Z"/>
      <path d="M272.41,63.46c-1.43-6.29.09-12.56-.1-18.84,0-2.74.2-5.5-.04-8.22-.37-4.1-.97-8.16-4.59-10.99-4-3.13-11.41-3.6-15.99-.87-5.72,3.42-8.49,10.31-6.9,17.35,2.59,11.49,9.89,19.65,18.92,26.57,2.11,1.62,4.15,1.01,6.26.08,2.32-1.01,2.93-2.96,2.45-5.09ZM264.07,38.21c-1.1,4.99-1.28,10.45-1.42,15.9-.02.88.05,1.84-.84,2.23-.88.39-1.58-.23-2.17-.89-4.95-5.58-8.27-11.67-5.9-19.47.89-2.92,1.54-6.61,5.71-5.73,3.72.77,4.71,4.04,4.62,7.96Z"/>
      <path class="cls-5" d="M243.1,366.28c-3.03.28-4.93-.68-3.93-4.68,4.84-19.43,7.6-39.33,13.39-58.54.61-2.04.94-4.04,3.66-4.18,5.53-.29,10.77-1.97,15.97-3.67,2.62-.86,3.45-.23,3.07,2.52-2.8,20-5.52,40.01-8.32,60.01-.35,2.46-1.31,4.36-4.23,5.11-6.33,1.64-12.68,2.94-19.61,3.44Z"/>
      <path class="cls-5" d="M282.76,235.52c-1.5,17.1-3.83,34.1-6.28,51.09-.32,2.2-.86,4.03-3.04,4.95-4.91,2.09-9.96,3.68-15.26,4.37-2.62.34-3.8-.59-3.18-3.53,3.98-18.91,7.93-37.83,11.73-56.78.69-3.42,2.35-4.6,5.69-4.24,1.48.16,3.08-.12,4.55-.5,6.39-1.66,6.38-1.71,5.79,4.63Z"/>
      <path class="cls-1" d="M220.53,358.58c2.54-11.7,4.79-23.46,7.71-35.06,1.76-6.97,3.65-13.89,4.79-20.99.24-1.5.08-3.82,1.85-3.8,4.54.05,9.14.44,13.59,1.31,1.78.35.91,2.56.57,4.06-3.42,15.35-6.81,30.71-10.19,46.08-.88,4-1.68,8.02-2.54,12.02-.18.82-.2,2.02-.73,2.37-4.35,2.82-8.13-.57-12.15-1.33-2.45-.47-3.39-2.15-2.9-4.65Z"/>
      <path class="cls-1" d="M257.79,232.17c.47.03,1.85.19,3.22.16,2.49-.06,3.41.96,2.89,3.46-4.02,19.13-8.04,38.25-11.93,57.4-.53,2.6-1.79,3.25-4.18,3.39-11.18.65-12.26-.28-10.43-10.88,2.56-14.82,5.68-29.53,9.53-44.08.13-.5.38-.96.49-1.46,1.73-7.9,1.77-7.94,10.42-7.99Z"/>
      <path class="cls-3" d="M270.24,354.27c.58-13.5,4.82-26.48,5.61-39.95.32-5.47,1.05-10.92,1.6-16.38.43-4.3,5.55-8.96,9.75-9,1.92-.02,1.81,1.03,1.49,2.34-1.68,7.05-1.62,13.69,2.71,20.14,1.27,1.89.24,5.33.24,8.06-.04,14.85-1.98,28.87-16.54,37.26-1.28.74-2.38,2.14-4.11,1.71-.98-.24-.95-.37-.76-4.18Z"/>
      <path class="cls-3" d="M214.31,306.64c.81-2.98,1.1-6.01,1.41-9.08.48-4.79,2.41-5.76,6.75-4.12,9.63,3.64,9.37,3.59,7.15,13.97-2.67,12.51-7.05,24.63-8.21,37.52-.37,4.16-2.38,8.17-3.56,12.26-.68,2.38-1.94,2.57-3.73,1.18-3.11-2.41-6.2-4.84-9.29-7.28-1.23-.97-1.23-2.13-.97-3.65.88-5.07,1.92-10.08,3.65-14.93,5.28-3.43,7.1-8.52,6.12-14.42-.66-3.97,2.28-7.56.68-11.46Z"/>
      <path class="cls-3" d="M236.56,230.22c1.16.28,2.31.6,3.47.82,4.35.82,5.94,2.29,4.62,7.55-4.03,16.07-7.03,32.4-10.67,48.58-.58,2.58.45,7.33-5.25,5.88-7.51-1.9-9.79-4.12-8.52-9.22,3.25-13.08,6.56-26.15,9.98-39.18.91-3.49,2.02-6.91,1.87-10.55-.13-3.24,1.42-4.36,4.5-3.88Z"/>
      <path class="cls-3" d="M191.89,330.53c1.16-4.21,2.34-8.48,3.51-12.76,1.53-5.6,3.28-11.15,3.77-16.98.19-2.25,1.11-3.8,3.49-4.47,2.12-.6,4.11-1.64,6.2-2.38,1.56-.56,2.98-2.82,4.41-1.9,1.84,1.19.41,3.55.01,5.18-3.56,14.57-7.16,29.14-11.12,43.61-1.3,4.75-2.62,4.8-5.9,1.16-2.89-3.21-3.41-7.34-4.37-11.46Z"/>
      <path class="cls-3" d="M279.6,284.48c1.9-14.72,3.76-29.13,5.63-43.54.09-.68.26-1.34.34-2.02,1.29-11.35,1.5-11.44,12.92-13.32,2.83-.47,2.92.8,2.64,2.74-.52,3.6-1.49,7.01-4.03,9.8-3.97,4.36-4.86,9.15-1.78,13.94,2.74,4.25,1.43,6.29-2.55,8.39-8.37,4.4-10.97,13.46-6.38,21.6.76,1.35,1.35,2.39-.15,3.48-1.65,1.21-3.38,2.74-5.48,2.23-1.57-.38-1.06-2.28-1.15-3.29Z"/>
      <path class="cls-3" d="M322.8,223.18c-.27,6.93-.27,6.86-7.38,7.1-2.36.08-4.71.6-7.06.94-1.77.25-4,1.36-4.62-1.37-.54-2.39-.87-5.37,1.67-6.74,4.47-2.41,9.23-4.28,13.88-6.36,2.38-1.06,3.57-.31,3.52,2.33-.03,1.36,0,2.73,0,4.09Z"/>
      <path class="cls-3" d="M230.04,232.06c-1.29,4.96-2.68,9.9-3.83,14.89-.61,2.65-1.78,3.11-3.88,1.55-1.37-1.02-2.66-2.18-4.07-3.14-1.55-1.05-1.59-2.01-.15-3.17,3.58-2.89,4.94-6.96,5.35-11.28.25-2.63,1.46-3.17,3.66-2.86,2.31.33,3.31,1.61,2.92,4Z"/>
      <path class="cls-3" d="M190.56,321.33c-1.28-3.15-1.92-5.27-1.61-7.4.75-5.26-.31-10.49,0-15.73.12-1.98.81-3.41,3.13-2.83,1.99.5,5.44.25,4.79,3.24-1.58,7.3-2.68,14.82-6.3,22.72Z"/>
      <path class="cls-3" d="M214.31,306.64c1.14.51,2.58,1.44,2.06,2.54-2.9,6.11.33,13.05-2.87,19.17-1.4,2.69-2.64,4.69-5.98,4.18,1.43-6.64,2.82-13.28,4.3-19.9.47-2.12.6-4.43,2.49-5.98Z"/>
      <path class="cls-3" d="M325.54,217.69c0-3.09.36-5.84,4.3-6.19,2.18-.2,1.6,1.33,1.41,2.31-.56,3.02-1.34,6.31-4.66,7.13-1.45.36-1.1-2-1.06-3.25Z"/>
      <path class="cls-3" d="M294.5,327.6c-1.83-4.17-.79-7.65.04-11.13.23-.97.43-2.27,1.73-2.16,1.54.14,1.67,1.55,1.58,2.75-.26,3.54-.6,7.09-3.35,10.53Z"/>
      <path class="cls-3" d="M192.88,214.83c.33-1.21-.69-3.59,1.54-2.93,2.51.74,5.33,2.59,5.6,5.24.23,2.21-2.88,1.98-4.55,2.07-3.32.18-2.18-2.68-2.59-4.38Z"/>
      <path class="cls-3" d="M215.62,270.01c-.84-3.69,1.9-3.54,3.58-4.27,1.35-.58,2.56,0,2.37,1.56-.34,2.68-.81,6.16-3.4,6.86-1.99.54-1.97-2.91-2.56-4.15Z"/>
      <path class="cls-4" d="M261.23,187.48c-2.38-.25-4.82-.24-7.12-.81-4.56-1.12-7.49-3.85-7.92-8.85-.46-5.31,1.91-9.15,6.52-11.1,7.38-3.12,14.95-3.31,22.37.33,5.45,2.68,6.85,7.86,3.25,12.73-4.24,5.75-10.18,7.77-17.11,7.7Z"/>
    </g>
  </g>
</svg>