<?xml version="1.0" encoding="UTF-8"?>
<svg id="Layer_1" data-name="Layer 1" xmlns="http://www.w3.org/2000/svg" viewBox="0 0 512 512">
  <defs>
    <style>
      .cls-1 {
        fill: #f3cc02;
      }

      .cls-2 {
        fill: #1c1c1c;
      }

      .cls-3 {
        fill: #e54e00;
      }

      .cls-4 {
        fill: #bb9100;
      }

      .cls-5 {
        fill: #fff;
      }

      .cls-6 {
        fill: #cc101f;
      }

      .cls-7 {
        fill: #b0b0ae;
      }

      .cls-8 {
        fill: #1f1f1f;
      }
    </style>
  </defs>
  <g id="OvgDcT">
    <g>
      <path class="cls-2" d="M39.97,271.35c-4.02-3.69-8.88-7.21-6.17-12.9,3.74-7.83,11.9-4.96,18.36-6.01-.88-10.67,1.81-15.71,8.76-16.58,8.54-1.07,15.65,4.57,16.83,14.24.48,3.96,1.98,5.05,5.51,5.02,4.43-.03,2.74-3.49,2.97-5.48.62-5.46.61-10.98,1.17-16.45.29-2.83.25-4.19-3.34-3.57-6.07,1.05-11.55-.46-14.85-6.12-3.53-6.06-1.93-11.93,1.62-17.45,1.11-1.73,2.28-3.46,3.67-4.97,2.03-2.21,2.21-3.75-.09-6.24-5.69-6.18-5.5-11.03-.07-17.49,2.23-2.65,4.8-4.92,7.81-6.65,3.58-2.06,6.96-2.94,5.22-9.29-1.58-5.8,4.93-9.13,9.53-12.12,2.83-1.84,5.56-2.78,4.14-7.66-1.46-5.01,2.8-8.34,6.75-10.9,2.29-1.48,4.75-2.85,7.31-3.76,4.96-1.76,9.33-2.65,11.42-9.35,2-6.43,9.75-5.42,15.71-5.36,2.08.02,3.94,1.19,4.63-2.7,2.14-11.99,11.71-17.68,24.09-14.23,4.37,1.22,6.1.49,8.4-3.29,8.17-13.41,19.39-14.52,30.33-3.33,1.45,1.48,2.03,2.53,4.19.64,11.09-9.68,17.21-8.77,27.63,4.03,3.4-2.44,6.67-5.18,10.3-7.3,9.14-5.34,16.7-3.2,21.72,6.07,1.01,1.86,1.28,2.54,3.82,1.82,11.79-3.35,17.54-.99,23,9.53,1.41,2.71,2.98,2.2,4.94,2.01,5.88-.57,11.38.54,16.52,3.5,2.48,1.42,5.54,3.5,5.28,5.91-.91,8.45,5.28,7.57,10.19,8.9,9.76,2.65,14.15,9.28,12.01,18.91-.68,3.06.24,3.58,2.54,4.07,4.03.86,8.02,1.88,11.62,4.01,6.2,3.65,7.89,7.95,4.92,14.31-1.14,2.45-1.4,3.56.9,5.53,7.38,6.33,8.44,13.66,3.01,21.77-2.2,3.28-3.25,5.2-.45,9.1,4.73,6.59.92,15.08-7,16.01-3.85.45-3.78,2.29-3.84,4.82-.11,4.99-1.95,8.96-6.75,10.97-2,.84-2.73,1.77-2.38,4.1,1.12,7.69,2.47,15.42.93,23.22-.64,3.23,1.41,3.6,3.55,3.15,2.41-.51,6.41,2.44,6.9-2.73.22-2.27.05-4.58.19-6.87.55-8.75,4.23-12.41,12.82-12.81,7.37-.34,10.79,2.84,11.99,11.69.26,1.91.46,2.52,2.58,2.83,12.48,1.83,16.11,10.3,8.94,20.68-1.17,1.7-2.46,2.44-.58,4.95,7.49,10.01,3.56,19.42-9.29,20.28-7.1.48-11.82.58-14.8,8.51-2.12,5.64-11.69,7.88-16.14,5.89-5.4-2.43-7.12-7.79-5.13-16.01.43-1.76.86-3.53,1.3-5.36-6.58-2.17-11.01-1.1-14.59,5.59-10.89,20.39-27.48,35.27-48.03,45.44-6.6,3.27-6.23,6.45-2.78,11.3,1.19,1.68,2.46,3.32,3.52,5.08,1.53,2.53,2.82,2.87,5.25.66,4.39-3.99,9.11-7.64,13.85-11.22,2.54-1.92,5.3-3.62,8.16-5.01,6.01-2.93,12.44-3.29,17.33,1.49,5.04,4.94,3.3,11.79.13,16.63-11.66,17.87-27.96,29.98-48.61,35.86-5.57,1.59-8.44-1.82-9.2-6.58-1.82-11.45-8.82-19.9-15.56-28.58-1.34-1.73-2.62-2.97-5.15-2.24-33.63,9.79-65.58.56-97.52-8.67-.66-.19-1.27-.5-1.92-.74q-18.17-6.58-28.69,9.4c-5.25,7.97-10.47,15.97-15.88,23.83-3.22,4.69-7.93,4.83-12.05,1.94-15.48-10.87-27.17-25.1-35.11-42.25-2.29-4.95-2.93-10.54,2.13-14.44,4.98-3.84,10.92-3.82,16.21-.92,7.83,4.29,15.32,9.26,21.31,16.02,2.11,2.38,3.06,2.24,5.05-.25,7.92-9.88,7.95-9.73,0-19.23-6.87-8.22-14.63-15.68-19.58-25.51-2.83-5.61-5.27-11.17-6.06-17.34-.48-3.76-2.07-5.25-5.88-4.4-5.1,1.13-1.47,3.59-.84,5.43,2.57,7.55-4.1,19.08-12.67,21.7-8.69,2.66-14.07-1.35-17.63-13.35-6.28,1.88-13.24,5.18-17.67-2.63-5.12-9.03,2.5-14.25,7.28-20.55ZM88.14,219.85c2.56-.14,3.69-4.51,6.13-3.01,2.47,1.52.75,4.96,1.08,7.53.23,1.77-.46,4.1.45,5.25,2.65,3.36.12,5.05-1.59,7.14.04,6.82-2.16,13.55-.29,20.48.97,3.58-1.34,5.01-4.84,4.39-4.55-.81-8.87-.8-13.5.59-3.95,1.19-6.72-.9-5.25-5.8,1.16-3.85,1.29-7.65-.84-11.27-1.75-2.96-4.39-4.23-7.56-2.94-3.23,1.31-3.87,4.26-3.33,7.48.49,2.96,2.76,4.64,4.75,6.53,1.23,1.16,2.28,2.52.95,4.14-1.2,1.46-2.98,1.44-4.36.43-2.73-1.99-5.74-3.09-8.99-2.64-3.87.53-10.53-1.99-10.25,4.43.27,6.24,6.15,3.16,9.94,2.86,2.68-.22,6.14-1.19,6.88,2.44.67,3.29-2.68,3.66-5.06,4.33-6.65,1.88-10.96,6.35-13.66,12.48-.84,1.91-1.2,4.11.66,5.74,1.65,1.44,3.43.58,5.16-.1,3.51-1.38,6.42-3.37,8.33-6.79,1.02-1.83,2.58-3.41,5.05-2.3,2.82,1.27,2.54,3.59,1.53,5.82-1.49,3.29-1.48,6.74-1.08,10.13.61,5.18,4.55,6.83,8.93,3.99,7.55-4.91,8.41-12.67,2.05-19.21-2.68-2.75-2.73-4.94,1.39-5.69,6.06-1.11,12.19-1.91,18.3-2.7,3.26-.43,5.38.72,5.15,4.5-.47,7.84,2.25,14.92,5.82,21.61,6.45,12.06,15.63,21.98,25.7,31.06,3.88,3.5,5.18,6.18.79,10.64-4.93,5-9.72,10.39-12.16,17.29-.56,1.58-1.58,2.94-3.43,2.88-1.96-.06-3.73-1.1-4.3-2.93-3.55-11.45-12.85-16.61-22.75-21.17-2.45-1.13-4.94-3.17-7.55-.7-2.67,2.53-2.8,5.96-1.26,8.93,7,13.54,15.55,25.88,28.02,35.09,3.99,2.94,7.24,2.38,9.59-1.92,6.4-11.7,14.67-22.06,22.68-32.63,5.69-7.51,5.58-7.53,14.17-2.96,2.01,1.07,4.18,1.86,6.33,2.66,15.89,5.97,32.06,10.75,49.01,12.75,15.26,1.8,30.98,5.2,45.48-.84,11.38-4.74,17.06-2.24,22.55,7.89,4.42,8.16,11.56,14.86,13.45,24.43.75,3.78,3.05,3.48,5.63,2.51,15.88-5.96,28.75-15.91,38.54-29.72,2.08-2.93,4.67-7.2,1.98-10.05-2.99-3.16-7.24-.56-10.63,1.41-7.75,4.5-14.61,10.03-20.53,16.84-2.16,2.48-5.68,7.99-8.95,2.17-4.58-8.17-9.52-16.05-14.76-23.78-1.68-2.48-1.01-4.65,1.73-5.41,11.31-3.13,20.53-9.7,29.38-17.04,12.41-10.3,23.98-21.13,27.6-37.85.6-2.79,2.76-3.46,5.34-2.81,5.81,1.48,11.72,1.96,17.7,1.97,4.77,0,6.43,2.15,3.95,6.5-1.85,3.24-3.28,6.6-3.43,10.32-.17,4.16,1.27,6.15,5.77,3.9,5.38-2.7,6.93-6.99,5.72-12.55-.42-1.93-2.07-3.95.38-5.5,2.21-1.4,3.9.27,5.51,1.49,4.83,3.66,10,4.49,15.39,1.6,2.47-1.32,4.57-3.35,3.81-6.61-.67-2.86-3.04-3.94-5.64-4.25-2.95-.35-5.96-.14-8.9-.54-2.56-.35-4.22-2.31-4.09-4.77.13-2.66,2.62-1.8,4.32-1.93,4.6-.35,9.21-.79,12.57-4.5,2.21-2.44,2.79-5.65,1.27-8.31-1.47-2.56-4.17-.49-6.24-.05-3.15.67-6.14,1.87-8.56,4.14-2.11,1.99-4.35,3.91-6.96.94-2.41-2.74.03-4.61,1.65-6.43,3.58-4.03,6.86-8.12,5.42-14.07-.65-2-1.7-2.75-4.07-2.42-7.68,1.08-9.79,3.98-9.47,15.61.15,5.34-.26,8.76-7.04,7.26-2.78-.61-5.91-.06-8.82.36-5.64.81-7.67-1.05-5.34-6.06,2.99-6.44,3.11-13.56,1.3-19.39-2.05-6.61-3.03-11.32,3.14-15.53,2.91-4.17,4.8-8.41,1.11-13.17-1.69-2.18-5.88-4.42-3.51-7.06,2.84-3.16,5.46,1.31,8.13,2.58.2.1.38.26.57.38,2.73,1.75,5.9,2.62,8.07-.08,2.14-2.65,1.73-6.08-.46-8.9-2.21-2.86-5.28-4.14-8.81-4.82-3.15-.61-8.39-.53-7.29-5.06.95-3.92,5.39-1.18,8.34-.8.45.06.88.25,1.31.42,5.02,1.89,7.87-.49,9.55-4.95,3.29-8.72-1.53-14.43-11.01-12.7-3.37.62-6.29.78-7.03-3-.71-3.67,2.85-3.36,5.09-4.06,1.3-.4,2.73-.54,3.92-1.15,2.34-1.21,4.09-3.14,4.22-5.86.14-2.92-2.54-3.61-4.52-4.5-5.12-2.3-10.56-3.32-16.07-2.1-2.97.66-6,2.3-7.68-1.47-1.58-3.57,1.13-5.32,3.79-6.99,3.37-2.12,5.48-5.18,4.17-9.26-1.34-4.19-4.79-5.79-9.05-6.04-6.07-.35-11.11,2.19-15.93,5.43-1.9,1.28-3.98,3.11-5.98.59-2.04-2.56-.41-4.66,1.62-6.47,1.71-1.53,3.49-3,5-4.71,4.83-5.49,3.22-10.43-3.89-11.98-6.78-1.49-12.6.59-17.84,4.92-2.12,1.75-4.62,2.44-6.74.07-1.69-1.9-.82-3.73.79-5.42,2.57-2.7,5.33-5.53,2.23-9.5-3.24-4.16-7.55-3.85-11.86-2.22-4.22,1.6-7.27,4.58-9.33,8.68-.92,1.84-2.39,3.72-4.88,2.47-2.41-1.22-2.86-3.43-2-5.88.38-1.07.93-2.09,1.44-3.11,1.72-3.42,3.09-7.16.02-10.21-3.23-3.22-7.44-2.05-10.92-.28-5.61,2.87-10.1,7.09-12.58,13.11-.68,1.66-1.12,3.84-3.5,3.57-2.48-.28-3.15-2.5-3.47-4.53-.32-2.02-.2-4.11-.32-6.17-.28-4.63-3.29-6.85-7.34-7.95-3.71-1.01-6.83,0-8.92,3.36-1.33,2.13-2.48,4.37-3.73,6.56-1.02,1.79.02,5.18-3.41,5.09-3.54-.1-3.42-3.44-3.82-5.66-1.16-6.42-4.44-10.5-11.13-11.07-5.45-.46-11.35,4.55-14.25,10.2-1.61,3.14,3.06,8.24-2.55,9.29-3.84.72-5.56-4.21-8.97-5.65-5.73-2.43-10.81-1.69-15.11,2.55-3.9,3.84-4.46,8.36-1.07,12.99.93,1.28,2.36,2.46.72,4.13-1.48,1.49-3.07.8-4.31-.24-4.31-3.62-9.4-3.03-14.42-2.91-2.45.06-4.61.8-5.71,3.11-1.32,2.79.83,4.11,2.64,5.56,1.23.99,2.82,2.06,1.85,3.93-.93,1.78-2.78,1.69-4.2.85-7.69-4.53-13.56.58-19.67,3.77-2.35,1.23-4.83,3.19-4.72,6.3.14,3.71,3.69,2.61,5.81,3.47,1.45.58,3.52.57,3.45,2.67-.08,2.61-2.37,2.62-4.11,2.36-6.46-.94-10.81,2.96-15.31,6.46-1.74,1.36-4.18,2.74-3.39,5.43.76,2.61,3.43,1.54,5.33,1.9,2.34.44,5.87-.13,5.78,3.27-.08,2.7-3.28,2.69-5.53,2.9-8.01.74-13.99,5.19-19.5,10.52-2.92,2.83-4.11,6.32-2.11,9.96,2,3.63,5.1,1.42,7.92.82,2.6-.55,6.18-1.58,7.16,1.79.88,3.01-2.52,3.76-4.83,4.7-7.77,3.2-14.36,12.91-14.01,20.29.15,3.1,1.39,5.2,4.2,6.47,2.75,1.24,4.85.3,6.7-1.8.9-1.01,1.92-1.93,2.88-2.89Z"/>
      <path class="cls-2" d="M470.52,103.03c14.83-.07,25.95,9.48,25.54,21.9-.03.91-.01,1.86-.24,2.73-1.21,4.76-2.89,10.21-7.7,11.38-4.43,1.09-9.09-1.64-12.22-5.63-.42-.54-.93-1.02-1.32-1.58-1.58-2.26-3.3-1.76-5.3-.51-2.68,1.68-1.34,3.2-.21,5.05,10.14,16.54,10.02,38.15-4.92,50.79-1.77,1.5-2.42,3.12-1.62,5.42.44,1.27.37,2.71.51,4.08.5,4.91,2.47,10.46-4.15,12.9-6.88,2.54-10.2-1.97-12.68-7.26-1.34-2.87-3.11-3.23-6.01-2.67-12.32,2.41-23.77-.47-34.02-7.26-4.13-2.74-7.24-2.83-11.12-.33-1.7,1.09-3.72,1.83-5.69,2.33-5.19,1.32-9.11-2.35-8.16-7.6.24-1.3.8-2.67,1.58-3.74,5.17-7.02,6.13-14.2,4.03-22.98-3.13-13.1,5.95-28.8,18.77-36,1.77-.99,4.95-.76,4.74-4.03-.14-2.24.49-4.99-1.44-6.49-1.8-1.41-3.75.66-5.64,1.1-.44.1-.82.44-1.25.55-3.47.83-6.76,5.4-10.48,1.22-3.31-3.72-2.22-8.21-.56-12.36,3.67-9.13,10.69-14.17,20.28-15.3,7.95-.93,14.22,2.53,18.82,8.95,4.07,5.68,3.11,8.24-3.53,9.97-2.21.58-4.37,1.41-6.61,1.82-2.44.45-3.84,1.24-2.73,4.03.79,2,.69,4.93,4.26,3.5.21-.08.47-.18.67-.13,14.52,4.13,15.02-9.89,20.96-16.59,2.01-2.26,2.78-5.39,6.54-4.15,2.65.88,4.35,3.04,3.62,5.84-.92,3.56-3.77,5.12-7.32,4.29-5.6-1.31-5.67,3.02-6.94,6.28-1.6,4.12.59,6.04,4.16,6.9,5.66,1.36,10.59,4.3,15.5,7.16,2.66,1.55,4.49.83,5.89-1.15,1.97-2.79-1.27-3.31-2.54-4.39-3.22-2.75-9.68-3.31-7.89-9.48,1.85-6.38,7.81-7.78,13.67-8.57.9-.12,1.83-.02,2.75-.02ZM465.57,145.51s.06.03.06.03c-6.85-22.49-43.69-29.18-60.9-11.06l.06-.02c-2.91.84-4.83,2.64-5.49,5.67-3.21,4.28-5.29,8.92-5.43,14.44-.47,18.62,9.63,32.53,27.58,37.71,17.76,5.13,39.3-5.41,44.11-21.57,4.14-8.39,4.35-16.79.01-25.19ZM462.17,113.37c6.69,5.11,13.74,8.7,18.62,14.97.97,1.25,1.5,3.93,3.88,2.87,1.92-.86,2.78-2.9,3.06-5.08.7-5.43-.71-10.19-5.29-13.3-6.7-4.56-13.37-4.33-20.27.55ZM414.5,94c-6.82.03-15.2,6.56-16.83,13.13-.32,1.3-1.11,2.71.14,3.84,1.25,1.13,2.58.17,3.82-.27,6.02-2.15,11.65-5.32,18-6.62,1.86-.38,4.62-.4,4.73-3.03.09-2.12-1.87-3.59-3.47-4.88-1.84-1.48-4.06-2.05-6.4-2.16ZM387.79,188.02c3.98-1.33,6.97-1.73,7.48-4.83.2-1.24-1.47-3.77-2.67-3.3-2.85,1.12-2.99,4.41-4.81,8.13ZM455.94,203.31c.42-3.82.79-6.45-1.23-8.55-.27-.28-2.53.53-2.77,1.22-1.09,3.08.87,4.9,4.01,7.33Z"/>
      <path d="M20.85,246.25c-5.63,6.88-5.61,15.28-6.13,24.45-5.15-7.84-1.78-20.37,6.13-24.45Z"/>
      <path d="M91.74,400.12c7.59,4.14,15.33,5.71,24.87,1.63-5.78,7.7-18.33,6.31-24.87-1.63Z"/>
      <path d="M1.96,267.2c-3.79-6.47-2.02-13.16,4.72-18.91-2.05,6.17-4.59,12.22-4.72,18.91Z"/>
      <path d="M93.23,414.49c6.59,2.32,13.2,2.38,19.94.45-5.04,5.86-14.01,5.54-19.94-.45Z"/>
      <path d="M419.37,261.44c5.76,3.65,8.08,11.38,5.51,16.98-.42.91-.56,2.46-2.16,1.94-1.37-.44-1.41-1.78-.97-2.83,2.45-5.84.53-10.95-2.39-16.1Z"/>
      <path d="M371.78,106.61c-3.58-6.57-1.86-15.23,2.38-17.8.84-.51,1.56-.91,2.38-.09.88.87.36,1.51-.28,2.26-3.43,4.02-4.51,8.86-4.48,15.63Z"/>
      <path d="M386.18,90.64c-3.62,5.56-4.8,11.12-7.02,17.54-2.43-8.03.09-14.22,7.02-17.54Z"/>
      <path d="M280.3,410.44c5.09,4.7,10.24,4.41,15.43.49.93-.7,1.62-1.82,2.72-.6,1.04,1.15-.01,2.06-.73,2.89-4.52,5.2-14.12,3.93-17.42-2.78Z"/>
      <path d="M276.56,426.45c5.75.83,11.03,3.04,16.26.23.81-.44,1.81-.26,2.1.88.28,1.08-.51,1.57-1.29,2.07-3.96,2.54-12.93,1.11-17.06-3.18Z"/>
      <path d="M434.16,260.54c5.78,5.59,4.07,11.95,2.34,18.32-2.65-5.88,1.07-12.55-2.34-18.32Z"/>
      <path d="M496.28,147.21c5.05-2.82,5.17-6.99,5.11-11.61,3.94,2.65,3.04,5.97,2.09,8.81-.83,2.48-3.09,3.63-7.2,2.8Z"/>
      <path d="M470.92,220.16c4.66-3.19,4.23-7.28,2.05-12.84,4.64,2.46,4.83,5.35,4.22,8.34-.6,2.9-1.8,5.51-6.26,4.49Z"/>
      <path d="M482.38,209.64c3.48,3.65,2.77,7.03,2.12,10.21-.4,1.96-1.98,4.54-4,3.53-2.9-1.45.81-2.56,1-3.95.4-2.85.53-5.74.87-9.79Z"/>
      <path d="M509.94,140.45c3.32,4.75,2.53,10.91-1.68,12.4-.73.26-1.77.04-2.51-.3-.46-.21-.32-.77.15-1.49,3.33-5.11,3.26-5.16,4.04-10.61Z"/>
      <path class="cls-4" d="M381.39,247.76c1.44,5.94-1.84,10.04-5.42,14.07-1.62,1.82-4.06,3.69-1.65,6.43,2.61,2.97,4.85,1.05,6.96-.94,2.42-2.27,5.41-3.47,8.56-4.14,2.07-.44,4.77-2.51,6.24.05,1.53,2.66.94,5.88-1.27,8.31-3.35,3.71-7.97,4.15-12.57,4.5-1.71.13-4.19-.73-4.32,1.93-.12,2.46,1.53,4.42,4.09,4.77,2.94.4,5.95.19,8.9.54,2.59.31,4.97,1.39,5.64,4.25.76,3.27-1.35,5.29-3.81,6.61-5.4,2.89-10.56,2.07-15.39-1.6-1.6-1.22-3.3-2.89-5.51-1.49-2.46,1.55-.8,3.57-.38,5.5,1.21,5.55-.34,9.85-5.72,12.55-4.5,2.25-5.94.26-5.77-3.9.15-3.72,1.58-7.08,3.43-10.32,2.48-4.35.82-6.49-3.95-6.5-5.98,0-11.89-.48-17.7-1.97-2.58-.66-4.73.02-5.34,2.81-3.62,16.72-15.18,27.55-27.6,37.85-8.85,7.34-18.08,13.91-29.38,17.04-2.74.76-3.41,2.93-1.73,5.41,5.24,7.73,10.17,15.61,14.76,23.78,3.27,5.82,6.79.31,8.95-2.17,5.93-6.81,12.78-12.34,20.53-16.84,3.39-1.97,7.64-4.57,10.63-1.41,2.69,2.85.1,7.12-1.98,10.05-9.79,13.81-22.66,23.76-38.54,29.72-2.58.97-4.88,1.26-5.63-2.51-1.9-9.56-9.03-16.26-13.45-24.43-5.48-10.13-11.17-12.63-22.55-7.89-14.5,6.04-30.22,2.64-45.48.84-16.95-2-33.12-6.79-49.01-12.75-2.14-.8-4.32-1.59-6.33-2.66-8.59-4.58-8.48-4.55-14.17,2.96-8.01,10.57-16.29,20.94-22.68,32.63-2.35,4.3-5.6,4.86-9.59,1.92-12.47-9.2-21.03-21.55-28.02-35.09-1.54-2.97-1.41-6.4,1.26-8.93,2.61-2.47,5.1-.42,7.55.7,9.91,4.56,19.21,9.72,22.75,21.17.57,1.83,2.35,2.87,4.3,2.93,1.85.06,2.87-1.3,3.43-2.88,2.44-6.9,7.23-12.29,12.16-17.29,4.39-4.45,3.09-7.14-.79-10.64-10.08-9.08-19.26-19-25.7-31.06-3.58-6.69-6.3-13.77-5.82-21.61.23-3.79-1.88-4.93-5.15-4.5-6.12.8-12.24,1.59-18.3,2.7-4.12.75-4.07,2.94-1.39,5.69,6.36,6.54,5.5,14.3-2.05,19.21-4.38,2.84-8.32,1.19-8.93-3.99-.4-3.39-.41-6.84,1.08-10.13,1.01-2.23,1.29-4.54-1.53-5.82-2.47-1.12-4.03.47-5.05,2.3-1.91,3.42-4.82,5.41-8.33,6.79-1.73.68-3.52,1.54-5.16.1-1.86-1.63-1.5-3.83-.66-5.74,2.7-6.14,7.02-10.61,13.66-12.48,2.38-.67,5.73-1.04,5.06-4.33-.74-3.62-4.2-2.65-6.88-2.44-3.79.31-9.67,3.39-9.94-2.86-.28-6.42,6.38-3.9,10.25-4.43,3.26-.45,6.27.65,8.99,2.64,1.38,1.01,3.16,1.02,4.36-.43,1.33-1.63.28-2.98-.95-4.14-1.99-1.88-4.26-3.57-4.75-6.53-.54-3.22.1-6.17,3.33-7.48,3.17-1.29,5.82-.02,7.56,2.94,2.13,3.62,1.99,7.42.84,11.27-1.47,4.9,1.29,6.99,5.25,5.8,4.63-1.4,8.95-1.4,13.5-.59,3.49.62,5.8-.82,4.84-4.39-1.87-6.93.33-13.66.29-20.48,10.32,3.72,14.85,2.47,22.02-6.32,1.22-1.49,2.35-2.36,4.36-2.76,13.11-2.63,18.19-8.43,18.79-21.98.17-3.78,1.21-5.58,4.83-6.95,7.6-2.87,11.9-8.65,11.25-16.96-.29-3.66,1-4.85,4.13-5.39,9.83-1.71,17.41-6.78,22.29-15.53,1.36-2.43,2.85-3.04,5.55-2.38,7.99,1.93,15.48.12,22.36-4.05,2.57-1.56,4.44-2.25,7.31-.32,6.51,4.37,13.63,6.51,21.42,3.37,1.65-.66,3.17-.95,4.11.92,4.83,9.57,13.35,10.01,22.41,9.16,2.3-.22,4.28-.57,5.3,2.64,2.4,7.55,8.44,10.6,15.83,10.88,3.63.13,5.15,1.22,5.97,4.85,1.39,6.15,5,10.98,11.53,12.32,4.52.92,4.84,3.02,4.26,7.15-1.53,10.96,4.21,17.77,15.37,19.08,1.83.22,3.59.05,4.6,2.17,2.26,4.79,6.57,7.02,11.42,7.92,3.78.7,5.41,2.8,6.24,6.23,1.64,6.8,2.01,13.46-.36,20.26-2.83,8.13-.39,10.82,7.82,9.12,4.14-.86,8.17-.67,12.16.79,4.1,1.5,5.61-.17,5.02-4.26-.36-2.48-.96-4.96-1.01-7.45-.2-9.72,2.61-12.3,12.21-11.49ZM200.1,283.2c-8.68.05-17.96,9.16-17.86,17.54.1,8.15,7.27,14.52,16.09,14.28,9.93-.26,19.82-9.39,19.77-18.25-.04-8.23-7.21-13.64-18-13.57ZM210.76,264.21c12.9.05,24.93-10.82,24.91-22.51-.02-10.68-10.04-18.5-23.77-18.56-10.36-.04-19.94,10.36-20.18,21.91-.22,10.48,8.37,19.11,19.04,19.16ZM244.18,211.82c7.86-.14,14.04-6.74,13.84-14.78-.13-5.5-4.61-10.04-9.97-10.11-6.38-.09-13.33,7.68-13.37,14.94-.04,6.13,3.71,10.05,9.5,9.95ZM194.48,206.16c7.49-.17,14.08-7.32,13.83-14.98-.18-5.69-4.47-9.91-10.07-9.91-6.59,0-13.44,7.68-13.29,14.92.13,6.51,3.57,10.11,9.53,9.97ZM185.93,232.23c-.32-1.77-1.5-3.09-3.42-3.36-1.8-.25-3.05.85-3.12,2.68-.08,2.13,1.45,3.33,3.28,3.62,1.76.28,2.84-.95,3.26-2.94ZM173.68,243.42c1.7-.12,2.85-.98,2.9-2.88.06-2-.61-3.67-2.87-3.74-1.76-.05-2.96,1.13-3.14,2.88-.22,2.1.9,3.36,3.11,3.74ZM271.45,242.89c1.76-.3,2.97-1.27,2.78-3.17-.21-2.03-1.42-3.34-3.6-3.32-1.89.02-3.14,1.07-2.87,2.96.27,1.94,1.63,3.17,3.7,3.53ZM278.89,243.78c-1.54-.03-2.91.58-2.99,2.15-.12,2.47,1.59,3.73,3.84,3.97,1.59.17,2.56-.96,2.65-2.5.13-2.35-1.78-2.92-3.5-3.62ZM180.07,244.9c-1.63.29-2.41,1.27-2.34,2.83.1,2.14,1.42,3.38,3.41,3.54,1.64.13,2.41-1.12,2.28-2.67-.18-2.03-1.41-3.23-3.34-3.7ZM258.68,248.93c-1.93.27-2.74,1.43-2.56,3.23.17,1.76,1.29,2.87,2.99,3.03,1.94.18,2.83-1.13,2.84-2.87.01-2.11-1.28-3.16-3.27-3.38ZM169.6,251.59c-1.12.25-2.44.84-2.5,2.38-.09,2.23,1.52,3.08,3.48,3.22,1.47.11,2.84-.46,2.78-2.12-.07-2.03-1.46-3.13-3.76-3.48ZM256.4,241.97c1.39-.31,2.67-1.16,2.55-3.12-.11-1.9-1.42-2.9-3.2-2.94-1.62-.04-2.45,1.08-2.43,2.66.02,1.77.7,3.11,3.08,3.4ZM158.42,246.28c.14,1.83,1.08,3.13,2.82,3.32,1.82.19,3.1-.85,2.96-2.8-.13-1.79-1.36-2.9-3.13-2.95-1.51-.04-2.48.88-2.65,2.44ZM248.2,254.4c-.05-1.76-.83-2.98-2.72-3.05-1.84-.06-2.92.95-2.93,2.81,0,1.81,1.04,2.89,2.82,3.08,2.01.22,2.71-1.04,2.83-2.84ZM162.69,227.96c-.76.38-2.53.23-2.18,2.25.29,1.72,1.59,2.83,3.25,3.08,1.53.23,2.73-.64,2.59-2.31-.15-1.79-1.4-2.76-3.66-3.01ZM251.2,261.29c-1.65,0-2.61.93-2.74,2.37-.19,2.14,1.23,3.24,3.13,3.64,1.4.29,2.03-.7,2.08-1.92.07-1.86-.35-3.54-2.47-4.09ZM272.85,257.07c-.33-1.72-1.41-2.75-3.2-2.85-2.13-.11-2.78,1.23-2.51,3.05.28,1.87,1.64,2.64,3.41,2.54,1.59-.09,2.4-1.05,2.3-2.75Z"/>
      <path class="cls-3" d="M88.14,219.85c-.97.96-1.99,1.88-2.89,2.9-1.85,2.1-3.95,3.03-6.7,1.8-2.81-1.26-4.05-3.37-4.2-6.47-.36-7.37,6.24-17.09,14.01-20.29,2.3-.95,5.7-1.7,4.83-4.7-.98-3.36-4.56-2.34-7.16-1.79-2.82.6-5.92,2.81-7.92-.82-2-3.64-.82-7.13,2.11-9.96,5.51-5.33,11.49-9.78,19.5-10.52,2.24-.21,5.45-.2,5.53-2.9.09-3.39-3.44-2.83-5.78-3.27-1.9-.36-4.57.72-5.33-1.9-.79-2.69,1.65-4.07,3.39-5.43,4.5-3.5,8.85-7.4,15.31-6.46,1.74.25,4.03.25,4.11-2.36.07-2.09-2-2.09-3.45-2.67-2.12-.85-5.67.25-5.81-3.47-.11-3.11,2.36-5.07,4.72-6.3,6.11-3.19,11.98-8.29,19.67-3.77,1.42.84,3.28.93,4.2-.85.97-1.87-.62-2.95-1.85-3.93-1.81-1.45-3.96-2.78-2.64-5.56,1.1-2.31,3.26-3.05,5.71-3.11,5.03-.12,10.11-.7,14.42,2.91,1.24,1.04,2.84,1.73,4.31.24,1.64-1.66.21-2.85-.72-4.13-3.39-4.63-2.82-9.15,1.07-12.99,4.3-4.24,9.38-4.98,15.11-2.55,3.41,1.45,5.13,6.37,8.97,5.65,5.61-1.05.94-6.15,2.55-9.29,2.89-5.65,8.79-10.66,14.25-10.2,6.69.57,9.96,4.66,11.13,11.07.4,2.22.28,5.56,3.82,5.66,3.44.09,2.39-3.3,3.41-5.09,1.24-2.19,2.4-4.43,3.73-6.56,2.09-3.36,5.21-4.37,8.92-3.36,4.04,1.1,7.06,3.32,7.34,7.95.12,2.06,0,4.14.32,6.17.33,2.04,1,4.25,3.47,4.53,2.38.27,2.82-1.91,3.5-3.57,2.48-6.02,6.97-10.24,12.58-13.11,3.48-1.78,7.69-2.94,10.92.28,3.06,3.06,1.7,6.79-.02,10.21-.52,1.02-1.06,2.04-1.44,3.11-.86,2.45-.42,4.67,2,5.88,2.49,1.26,3.96-.63,4.88-2.47,2.06-4.1,5.11-7.08,9.33-8.68,4.31-1.63,8.62-1.93,11.86,2.22,3.1,3.98.34,6.81-2.23,9.5-1.61,1.69-2.48,3.52-.79,5.42,2.12,2.38,4.62,1.68,6.74-.07,5.24-4.33,11.06-6.4,17.84-4.92,7.11,1.56,8.72,6.49,3.89,11.98-1.51,1.71-3.29,3.18-5,4.71-2.03,1.82-3.66,3.91-1.62,6.47,2.01,2.51,4.08.68,5.98-.59,4.82-3.23,9.86-5.78,15.93-5.43,4.26.24,7.71,1.85,9.05,6.04,1.3,4.08-.8,7.14-4.17,9.26-2.66,1.67-5.37,3.42-3.79,6.99,1.68,3.78,4.71,2.13,7.68,1.47,5.52-1.22,10.96-.2,16.07,2.1,1.98.89,4.67,1.58,4.52,4.5-.13,2.72-1.88,4.65-4.22,5.86-1.19.61-2.62.75-3.92,1.15-2.25.7-5.81.39-5.09,4.06.74,3.78,3.66,3.62,7.03,3,9.47-1.73,14.29,3.98,11.01,12.7-1.68,4.46-4.53,6.85-9.55,4.95-.43-.16-.86-.36-1.31-.42-2.94-.39-7.38-3.12-8.34.8-1.1,4.53,4.14,4.45,7.29,5.06,3.53.68,6.6,1.96,8.81,4.82,2.19,2.82,2.6,6.25.46,8.9-2.17,2.7-5.35,1.83-8.07.08-.19-.12-.37-.29-.57-.38-2.68-1.27-5.3-5.74-8.13-2.58-2.37,2.64,1.82,4.88,3.51,7.06,3.69,4.75,1.8,8.99-1.11,13.17-1.05.46-2.07,1-3.15,1.36-4.68,1.56-9.28,1.28-12.77-2.34-3.71-3.84.29-6.66,2.19-9.51,1.83-2.75,1.07-4.73-1.28-6.45-3.14-2.31-3.97.5-4.93,2.45-2.4,4.91-6.6,6.98-11.31,4.99-4.99-2.11-6.26-7.02-4.99-12.22.76-3.12,2.09-6.05,4.31-8.51,1.94-2.15,5.09-4.38,2.52-7.56-2.89-3.57-5.52-.63-8.23,1.12-3.56,2.3-7.6,4.06-11.34.54-3.81-3.58-5.41-7.93-2.54-12.98,1.33-2.35,3.64-4.89.76-7.32-3.04-2.57-5.18-.26-7.49,1.99-4.16,4.03-9.08,3.13-13.23.2-4.04-2.86-4.86-6.98-1.87-11.44,1.56-2.32,3.24-4.99-.01-7.16-3.29-2.19-4.65.54-6.46,2.78-3.68,4.55-13.17,6.17-18.42,3.57-4.75-2.35-5.26-6.48-4.86-11.08.22-2.59.2-5.08-2.99-6.12-3.66-1.19-3.32,1.78-4.23,3.72-1.63,3.49-4.94,4.77-8.42,5.1-7.25.68-13.05-1.68-16.3-8.73-.99-2.14-2.37-4.06-5.08-3.98-3.27.1-3.14,2.92-3.53,5.03-.62,3.33-2.6,5.04-5.64,6.22-9.49,3.67-11.58,3.26-19.06-4.44-1.62-1.67-3.39-3.53-5.91-2.27-2.81,1.4-.71,3.56-.36,5.4,1.39,7.27-1.79,12.82-10.75,18.03-5.45,3.17-11.06,6.42-16.27-.65-1.28-1.74-3.28-2.93-5.29-1.05-1.7,1.6-.6,3.24.48,4.86,1.39,2.08,3,4.21,3.64,6.56,1.57,5.8-.21,10.71-4.75,14.8-4.31,3.89-6.7,1.23-9.44-2.03-1.27-1.51-3.5-1.38-5.09-.27-2.12,1.48-.77,3.14.18,4.74,5.69,9.61,4.69,17.27-3.21,25.12-.58.4-1.16.8-1.74,1.21h.02c-1.43-.42-2.86-.83-4.29-1.24h.02c.2-1.59.35-3.16-1.24-4.23-5.76-3.38-6.52-.09-6.76,4.75-.39,7.66-5,13.63-9.54,12.94-4.32-.66-6.47-6.28-5.48-13.87.33-2.5,2.83-5.81-.76-7.3-4.14-1.72-5.07,2.72-6.96,5.02-.55.67-.74,1.64-1.1,2.47Z"/>
      <path d="M88.14,219.85c.36-.83.55-1.81,1.1-2.48,1.89-2.3,2.83-6.73,6.96-5.02,3.59,1.49,1.09,4.8.76,7.3-1,7.59,1.16,13.21,5.48,13.87,4.54.69,9.15-5.27,9.54-12.94.25-4.84,1-8.13,6.76-4.75-.15,1.58-.29,3.15,1.24,4.24,0,0-.02,0-.02,0,.69,2.99,2.13,3.39,4.29,1.23h-.02c.58-.39,1.16-.79,1.74-1.19,7.91-7.85,8.9-15.51,3.21-25.12-.95-1.6-2.3-3.27-.18-4.74,1.59-1.11,3.82-1.24,5.09.27,2.73,3.26,5.12,5.92,9.44,2.03,4.53-4.09,6.32-8.99,4.75-14.8-.63-2.35-2.25-4.47-3.64-6.56-1.08-1.63-2.19-3.27-.48-4.86,2.01-1.88,4.01-.7,5.29,1.05,5.21,7.07,10.81,3.83,16.27.65,8.97-5.22,12.14-10.76,10.75-18.03-.35-1.83-2.45-3.99.36-5.4,2.53-1.26,4.29.59,5.91,2.27,7.47,7.7,9.57,8.12,19.06,4.44,3.05-1.18,5.03-2.89,5.64-6.22.39-2.11.25-4.93,3.53-5.03,2.7-.08,4.09,1.84,5.08,3.98,3.24,7.05,9.05,9.41,16.3,8.73,3.48-.33,6.79-1.62,8.42-5.1.91-1.94.57-4.91,4.23-3.72,3.18,1.04,3.21,3.52,2.99,6.12-.4,4.6.11,8.73,4.86,11.08,5.25,2.6,14.73.98,18.42-3.57,1.81-2.24,3.17-4.97,6.46-2.78,3.25,2.16,1.57,4.84.01,7.16-2.99,4.46-2.18,8.59,1.87,11.44,4.14,2.93,9.07,3.83,13.23-.2,2.32-2.25,4.45-4.55,7.49-1.99,2.88,2.43.57,4.97-.76,7.32-2.87,5.05-1.26,9.4,2.54,12.98,3.74,3.52,7.78,1.75,11.34-.54,2.72-1.75,5.35-4.7,8.23-1.12,2.57,3.18-.58,5.41-2.52,7.56-2.22,2.46-3.55,5.38-4.31,8.51-1.27,5.2,0,10.11,4.99,12.22,4.71,1.99,8.9-.07,11.31-4.99.95-1.95,1.79-4.76,4.93-2.45,2.35,1.73,3.11,3.71,1.28,6.45-1.9,2.85-5.9,5.66-2.19,9.51,3.49,3.62,8.09,3.9,12.77,2.34,1.08-.36,2.1-.9,3.15-1.36-6.17,4.21-5.19,8.91-3.14,15.53,1.81,5.83,1.69,12.95-1.3,19.39-2.33,5.02-.3,6.88,5.34,6.06,2.91-.42,6.04-.97,8.82-.36,6.78,1.5,7.19-1.92,7.04-7.26-.32-11.63,1.8-14.53,9.47-15.61,2.37-.33,3.42.42,4.07,2.42-9.6-.81-12.41,1.77-12.21,11.49.05,2.49.66,4.97,1.01,7.45.59,4.09-.92,5.76-5.02,4.26-3.99-1.46-8.02-1.65-12.16-.79-8.22,1.7-10.65-.99-7.82-9.12,2.37-6.8,2-13.46.36-20.26-.83-3.43-2.46-5.53-6.24-6.23-4.85-.9-9.15-3.13-11.42-7.92-1-2.12-2.77-1.95-4.6-2.17-11.16-1.31-16.89-8.12-15.37-19.08.58-4.13.26-6.22-4.26-7.15-6.53-1.34-10.14-6.16-11.53-12.32-.82-3.64-2.34-4.72-5.97-4.85-7.39-.27-13.44-3.33-15.83-10.88-1.02-3.21-3-2.86-5.3-2.64-9.07.85-17.59.4-22.41-9.16-.94-1.87-2.46-1.59-4.11-.92-7.79,3.14-14.91,1-21.42-3.37-2.87-1.93-4.74-1.23-7.31.32-6.88,4.17-14.37,5.99-22.36,4.05-2.7-.65-4.19-.05-5.55,2.38-4.89,8.75-12.46,13.82-22.29,15.53-3.12.54-4.41,1.73-4.13,5.39.65,8.32-3.65,14.09-11.25,16.96-3.62,1.37-4.66,3.17-4.83,6.95-.61,13.54-5.69,19.34-18.79,21.98-2.02.41-3.15,1.27-4.36,2.76-7.18,8.79-11.71,10.03-22.02,6.32,1.71-2.09,4.25-3.78,1.6-7.14-.91-1.15-.22-3.48-.45-5.25-.33-2.57,1.39-6.01-1.08-7.53-2.43-1.5-3.57,2.87-6.12,3.01Z"/>
      <path class="cls-6" d="M465.56,170.7c-4.8,16.16-26.34,26.7-44.11,21.57-17.95-5.18-28.05-19.09-27.58-37.71.14-5.51,2.22-10.15,5.43-14.44,2.45-1.29,4.41-3.04,5.49-5.67,0,0-.06.02-.06.03,1.65.23,2.81.95,2.88,2.8l-.08.1c-.42.44-.84.88-1.27,1.32l-.07.07c-.4.5-.81,1.01-1.21,1.51l.07-.05c-2.68.91-3.05,3.04-2.89,5.45-.91,3.76-2.35,7.48-2.64,11.29-1.05,13.83,12.66,28.97,26.6,30.08,12.05.96,22.76-1.36,30.81-11.21,4.67-2.97,5.15-7.79,5.58-12.63-.11-.35-.08-.69.08-1.03,2.24-3.65,2.15-7.32.1-11.01-.13-.41-.16-.84-.09-1.26.87-1.55-1.86-5.62,3.04-4.37l-.06-.03c1.58,8.4,1.35,16.79-.01,25.19Z"/>
      <path class="cls-6" d="M407.61,137.28c-.07-1.85-1.23-2.57-2.88-2.8,17.21-18.12,54.05-11.44,60.9,11.06-4.9-1.25-2.17,2.81-3.04,4.36-6.36-19.04-38.76-31.71-54.98-12.62Z"/>
      <path class="cls-7" d="M462.17,113.37c6.9-4.88,13.58-5.1,20.27-.55,4.58,3.11,5.99,7.87,5.29,13.3-.28,2.18-1.14,4.22-3.06,5.08-2.37,1.07-2.91-1.62-3.88-2.87-4.88-6.27-11.93-9.86-18.62-14.97Z"/>
      <path class="cls-7" d="M414.51,94c2.34.12,4.56.68,6.39,2.16,1.6,1.29,3.56,2.76,3.47,4.88-.12,2.63-2.87,2.65-4.73,3.03-6.35,1.31-11.98,4.48-18,6.62-1.24.44-2.57,1.4-3.82.27-1.26-1.13-.47-2.53-.14-3.84,1.63-6.57,10-13.1,16.83-13.14Z"/>
      <path class="cls-6" d="M465.56,170.7c1.36-8.39,1.59-16.79.01-25.19,4.33,8.4,4.13,16.79-.01,25.19Z"/>
      <path class="cls-7" d="M387.79,188.02c1.82-3.72,1.96-7.01,4.81-8.13,1.19-.47,2.87,2.06,2.67,3.3-.51,3.1-3.5,3.5-7.48,4.83Z"/>
      <path class="cls-7" d="M455.94,203.31c-3.13-2.43-5.1-4.25-4.01-7.33.24-.69,2.51-1.49,2.77-1.22,2.02,2.1,1.65,4.73,1.23,8.55Z"/>
      <path class="cls-6" d="M404.79,134.46c-1.07,2.62-3.04,4.38-5.49,5.67.66-3.02,2.58-4.83,5.49-5.67Z"/>
      <path class="cls-2" d="M200.1,283.2c10.79-.06,17.96,5.34,18,13.57.05,8.86-9.84,17.99-19.77,18.25-8.82.23-15.99-6.14-16.09-14.28-.1-8.38,9.17-17.49,17.86-17.55Z"/>
      <path d="M210.76,264.21c-10.67-.04-19.26-8.68-19.04-19.16.24-11.55,9.82-21.95,20.18-21.91,13.74.05,23.75,7.87,23.77,18.56.02,11.69-12.01,22.57-24.91,22.51ZM216.08,230.36c-11.79-.22-16.14,4.8-17.34,14.98-.87,7.37,4.51,12.14,12.41,12.26,8.09.13,17.48-8.86,17.29-16.55-.17-6.79-4.66-10.69-12.35-10.7Z"/>
      <path class="cls-2" d="M244.18,211.82c-5.79.1-9.53-3.82-9.5-9.95.04-7.26,7-15.02,13.37-14.94,5.36.07,9.83,4.61,9.97,10.11.19,8.05-5.99,14.65-13.84,14.78Z"/>
      <path class="cls-2" d="M194.48,206.16c-5.96.14-9.4-3.46-9.53-9.97-.14-7.23,6.71-14.93,13.29-14.92,5.6,0,9.88,4.23,10.07,9.91.25,7.66-6.35,14.81-13.83,14.98Z"/>
      <path d="M185.93,232.23c-.42,1.99-1.5,3.23-3.26,2.94-1.83-.29-3.36-1.49-3.28-3.62.07-1.83,1.32-2.93,3.12-2.68,1.92.27,3.1,1.59,3.42,3.36Z"/>
      <path d="M173.68,243.42c-2.21-.38-3.33-1.64-3.11-3.74.19-1.76,1.38-2.94,3.14-2.88,2.26.07,2.93,1.74,2.87,3.74-.06,1.91-1.2,2.76-2.91,2.88Z"/>
      <path d="M271.45,242.89c-2.06-.36-3.43-1.59-3.7-3.53-.26-1.89.98-2.94,2.87-2.96,2.18-.02,3.4,1.29,3.6,3.32.19,1.9-1.02,2.86-2.78,3.17Z"/>
      <path d="M278.9,243.78c1.7.69,3.62,1.26,3.49,3.62-.08,1.54-1.05,2.67-2.65,2.5-2.25-.24-3.96-1.5-3.84-3.97.08-1.57,1.45-2.18,3-2.15Z"/>
      <path d="M180.07,244.9c1.93.47,3.17,1.67,3.34,3.7.14,1.54-.64,2.8-2.28,2.67-1.99-.16-3.31-1.4-3.41-3.54-.07-1.56.72-2.54,2.34-2.83Z"/>
      <path d="M258.68,248.93c1.99.22,3.28,1.27,3.27,3.38,0,1.75-.9,3.06-2.84,2.87-1.71-.16-2.82-1.26-2.99-3.03-.17-1.8.63-2.96,2.56-3.23Z"/>
      <path d="M169.6,251.59c2.3.35,3.69,1.44,3.76,3.48.06,1.66-1.31,2.22-2.78,2.12-1.97-.14-3.57-.99-3.48-3.22.06-1.54,1.37-2.12,2.5-2.38Z"/>
      <path d="M256.4,241.97c-2.37-.29-3.06-1.63-3.08-3.4-.02-1.58.81-2.7,2.43-2.66,1.78.04,3.08,1.05,3.2,2.94.12,1.96-1.16,2.8-2.55,3.12Z"/>
      <path d="M158.42,246.28c.17-1.56,1.14-2.48,2.65-2.43,1.77.05,3,1.16,3.13,2.95.14,1.95-1.14,2.99-2.96,2.8-1.74-.18-2.68-1.49-2.82-3.32Z"/>
      <path d="M248.2,254.4c-.12,1.8-.83,3.06-2.83,2.84-1.77-.19-2.82-1.27-2.82-3.08,0-1.86,1.09-2.87,2.93-2.81,1.89.07,2.67,1.29,2.72,3.05Z"/>
      <path d="M162.69,227.96c2.26.26,3.5,1.23,3.66,3.01.14,1.67-1.06,2.54-2.59,2.31-1.66-.25-2.96-1.36-3.25-3.08-.35-2.02,1.42-1.87,2.18-2.25Z"/>
      <path d="M251.2,261.29c2.12.55,2.54,2.23,2.47,4.09-.04,1.22-.68,2.21-2.08,1.92-1.9-.4-3.32-1.5-3.13-3.64.13-1.44,1.09-2.37,2.74-2.37Z"/>
      <path d="M272.85,257.07c.1,1.7-.71,2.66-2.3,2.75-1.77.1-3.13-.68-3.41-2.54-.27-1.82.39-3.17,2.51-3.05,1.79.1,2.87,1.12,3.2,2.85Z"/>
      <path class="cls-3" d="M124.25,221.29c-2.17,2.16-3.6,1.76-4.29-1.23,1.43.41,2.86.82,4.29,1.23Z"/>
      <path class="cls-3" d="M119.98,220.06c-1.53-1.08-1.39-2.66-1.24-4.24,1.59,1.07,1.44,2.64,1.24,4.24Z"/>
      <path class="cls-3" d="M125.97,220.09c-.58.4-1.16.8-1.74,1.21.58-.4,1.16-.8,1.74-1.21Z"/>
      <path class="cls-2" d="M462.68,151.17c-.13-.41-.16-.83-.09-1.26-6.36-19.04-38.75-31.71-54.98-12.62l-.08.1c-.42.44-.85.88-1.27,1.32l-.06.07c-.41.5-.81,1-1.22,1.51l.07-.05c-.24,2.2-1.38,3.92-2.89,5.45-.92,3.76-2.36,7.48-2.65,11.28-1.05,13.83,12.67,28.97,26.6,30.08,12.06.96,22.77-1.36,30.81-11.21,1.87-4.21,3.73-8.42,5.59-12.63-.11-.35-.08-.69.08-1.02.03-3.67.06-7.34.09-11.02ZM455.85,159.8c-2.06,13.48-10.61,21.3-24.01,21.95-12.3.6-23.65-7.26-26.61-18.44-3.38-12.73,6.67-27.16,19.74-28.59,4.95-.53,9.87-2.05,14.63.7h-.08c14.19,5.27,18.3,11.41,16.33,24.38Z"/>
      <path class="cls-5" d="M455.85,159.8c-2.06,13.48-10.61,21.3-24.01,21.95-12.3.6-23.65-7.26-26.61-18.44-3.38-12.73,6.67-27.16,19.74-28.59,4.95-.53,9.87-2.05,14.63.7h-.08c14.19,5.27,18.3,11.41,16.33,24.38Z"/>
      <path class="cls-6" d="M456.92,175.84c1.86-4.21,3.72-8.42,5.58-12.63-.43,4.84-.91,9.66-5.58,12.63Z"/>
      <path class="cls-6" d="M462.59,162.18c.03-3.67.06-7.34.1-11.01,2.06,3.69,2.15,7.36-.1,11.01Z"/>
      <path class="cls-6" d="M405.05,140.24c-.24,2.2-1.38,3.92-2.89,5.45-.16-2.41.22-4.54,2.89-5.45Z"/>
      <path class="cls-6" d="M406.19,138.77c-.4.5-.81,1.01-1.21,1.51.4-.5.81-1.01,1.21-1.51Z"/>
      <path class="cls-6" d="M407.53,137.38c-.42.44-.84.88-1.27,1.32.42-.44.84-.88,1.27-1.32Z"/>
      <path class="cls-1" d="M216.08,230.36c7.69,0,12.19,3.91,12.35,10.7.19,7.69-9.2,16.68-17.29,16.55-7.89-.12-13.27-4.89-12.41-12.26,1.2-10.18,5.55-15.2,17.34-14.98Z"/>
      <path class="cls-8" d="M439.52,135.43c3.64,2.52,4.09,6.1,3.83,9.94-3.16.81-2.24-2.21-3.31-3.24-5.59,6.32-3.82,13.79-4.29,20.71-.06.85-.35,7.31,4.49,2.58,1.05-1.03,2.13.41,1.97,1.63-.21,1.55-.82,3.06-1.35,4.56-.54,1.53.45,4.77-1.99,4.19-2.9-.69-5.4-3.08-8.02-4.82-.08-.05.38-1.19.78-1.67,2.65-3.17,2.75-5.5-.51-7.75-5.31-3.65-6.04-6.6.56-9.34,2.37-.98,2.09-3.42,2.59-5.28,2.1-7.8,2.02-7.82,5.32-11.52-.02,0-.1,0-.1,0ZM429.75,157.36c.15,1.14,1.11,1.64,1.93,1.5,1.03-.18,2.28-.64,2.08-2.19-.14-1.15-1.1-1.53-1.97-1.48-1.19.07-2.18.67-2.05,2.16Z"/>
      <path class="cls-7" d="M429.75,157.36c-.14-1.5.85-2.09,2.04-2.17.88-.05,1.83.33,1.97,1.48.19,1.55-1.05,2.01-2.08,2.19-.82.14-1.78-.36-1.92-1.5Z"/>
    </g>
  </g>
</svg>