<?xml version="1.0" encoding="UTF-8"?>
<svg id="Layer_1" data-name="Layer 1" xmlns="http://www.w3.org/2000/svg" viewBox="0 0 512 512">
  <defs>
    <style>
      .cls-1, .cls-2 {
        fill-rule: evenodd;
      }

      .cls-2 {
        fill: #d50057;
      }
    </style>
  </defs>
  <path class="cls-1" d="M361.62,38.36c-.99.96-2.75.56-3.9,0-.92-6.72-3.1-11.34-7.17-14.99-1.7-1.52-4.92-1.95-5.2-4.88,1.6-1.28,4.73-.02,6.52,1.3,4.9,3.62,9.89,12.24,9.76,18.57Z"/>
  <path class="cls-1" d="M323.51,85.9c8.01-.11,16.14-2.5,22.47.98,3.17,1.74,7.43,7.66,8.14,12.37.76,5.08-1.25,11.19-2.94,14.65-2.61,5.4-9.17,9.14-9.77,14.65-.33,3.09,1.82,6.92,3.26,7.82,3.86,2.41,7.98.02,12.38,1.3,4.51,1.31,11.13,6.74,12.05,12.05.73,4.14-.46,9.48-1.62,13.03-1.71,5.17-7.19,9.93-3.91,14.98,5.43.88,9.14-3.18,12.71-5.54,3.75-2.48,7.58-4.84,11.07-7.49.78-3.23,5.03-5.55,5.21-9.77.24-5.56-6.11-11.27-8.79-14.99-4.42-6.1-10.01-16.96-2.94-24.75,3.71-4.07,13.36-6.59,20.19-2.6,1.74,2.71,3.25,5.65,4.24,9.12,5.29-2.43,3.46-8.39,5.21-14.01,3.45-11.01,25.81-12.83,29.31-.98,2.09,7.1-3.68,13.52-4.24,20.85,4.38,2.15,7.7-1.87,10.42-4.24,4.92-4.26,14.64-8.68,22.15-2.6,6.13,4.96,5.28,18.55-.98,22.79-6.08,4.13-18.09.5-19.87,9.44,5.05.57,9.74,1.39,13.35,3.9,3.11,2.16,6.65,6.44,7.17,10.42.68,5.27-2.38,15.81-5.86,18.89-4.18,3.71-16.73,5.93-21.83,4.24-3.01-1.01-5.24-4.01-8.79-4.88-4.46,1.64-6.31,3.1-7.16,6.19-.91,3.25.54,6.63-.98,9.77-1.92,3.97-9.64,7.31-15.96,7.16-3.12-.07-5.92-1.41-9.12-.98-2.96.4-6.27,1.83-8.14,3.26-2.03,1.54-5.61,5.58-4.56,9.77.79,3.17,7.43,2.81,11.07,3.58,10.62,2.25,19,8.96,17.27,22.15-.85,6.46-5.02,13.41-2.94,19.54,1.16,3.39,5.43,4.35,9.77,5.54,3.85,1.05,7.91,2.59,10.42,4.56,10.07,7.89,9.04,25.44,4.24,37.46-1.79,1.9-4.15,3.23-5.86,5.21-8.05,3.33-17.05,6.46-24.43,10.42-4.49,2.4-10.04,6.89-12.05,11.4-2.97,6.66-1,13.43-4.56,18.89-3.69,5.68-13.46,10.16-21.81,12.05-5.3,1.2-12.55.1-17.26-2.28-2.05-1.04-4.38-4.12-6.84-4.24-4.4-.2-10.85,5.96-14.01,9.12-4.25,4.24-8.15,7.54-13.35,9.44-6.17.2-9.56-2.37-14.65-3.26-2.69-1.85-5.35-5.06-8.79-4.56-4.86.71-4.22,10.43-7.82,13.35-6.46,5.25-14.65-2.98-17.59,3.58-.41,3.16,1.5,6.4,1.63,11.07.17,6.06-2.81,14.45,1.3,16.93,5.32,3.22,15.68-3.73,21.17-4.88,6.39-1.35,14.59-1.6,19.87-1.62,2.86-.01,6.67.67,9.77,1.62,7.88,2.45,12.96,5.47,13.68,14.65.92,11.68-5.96,24.93-11.4,29.96-3.38,3.14-8.35,4.26-11.72,8.14-5.08,2.21-10.5,2.92-17.26,4.56-1.55.37-3.01,1.27-4.56,1.62-1.42.33-3.21-.12-4.56.32-2.79.92-4.58,5.09-7.17,7.49-4.56,4.24-11.66,7.83-18.57,9.77-4.81,1.35-10.13,1.39-15.63,1.63-9.94.44-21.16-.69-29.64-4.24-7.99-3.34-12.41-8.51-20.85-10.1-4.25-3.11-8.73-6.28-10.42-11.73-1.76-5.67.42-11.24.66-16.29.2-4.4-.66-8.09.32-12.05,1.33-5.42,4.04-10.67,6.19-15.31,2.29-4.94,5.45-9.62,6.52-14.65,1.44-6.85,1.71-16.12-4.88-20.85-15,2.85-17.15,17.96-28.99,22.47-7.63,2.9-19.41,3.28-25.73-2.28-8.13-7.15-2.44-18.31-3.26-28.01-.52-6.21-4.56-8.64-12.05-7.49-9.26,1.43-15.72,11.23-24.75,15.63-8.98,4.38-19.94,7.71-32.57,4.56-12.25-3.05-23.54-14.18-23.13-29.96.22-8.15,6.18-19.21,10.75-24.1,4.14-4.42,9.37-6.14,14.65-10.42,3.25-2.62,11.24-11.37,11.72-16.93.37-4.3-1.53-9-4.24-10.42-3.57-1.87-9.85-1.12-14.33-1.63-7.59-.85-12.14-3.12-16.61-7.49-1.13-3.36-2.79-4.29-3.26-7.16-.93-5.69.9-10.97,1.96-13.68.95-2.45,2.96-6.31,5.21-9.77,2.44-3.74,4.82-7.7,8.79-10.1,8.6-5.17,23.8-6.8,31.6-14.33,5.21-5.04,8.49-11.29,1.62-16.29-6.09-2.6-13.1-4.27-17.27-8.79-1.3-4.01-3.34-5.38-3.26-10.1.12-6.48,4.49-15.76,8.47-19.21,6.35-5.52,16.76-7.51,23.77-11.73,4.54-2.73,11.79-8.59,9.45-17.26-1.89-6.98-14.62-11.79-16.61-20.19-1.94-8.15,1.34-18.31,5.86-23.45,3.43-3.9,9.71-8.68,13.68-9.77,7.22-1.99,14.73-.4,20.51-2.6,3.56-1.36,8.2-4.08,9.12-8.47.69-3.3-.7-6.29-.98-9.12-1.08-10.97,4.64-17.64,10.75-22.15,4.81-3.55,11.31-6.4,18.89-5.86,7.51.53,14.78,4.54,23.13,4.24,2.47-.09,5.57-.63,7.49-2.28,4.66-4,1.99-13.66,4.88-20.51,1.41-3.32,5.65-8.41,9.44-9.77,6.57-2.35,15.86-1.01,19.55,1.62,6.72,4.82,4.62,16.55,14.65,15.96,3.9-.23,7.57-3.84,10.74-5.21,9.05-3.89,20.5-5.17,30.62-1.3,2.92,1.11,5.84,2.9,8.79,4.24,6.98,3.15,10.38,5.98,16.93,10.1,5.88,3.68,10.46,7.17,10.74,15.63.23,7.1-6.08,12.95-3.92,20.58ZM386.38,124.01c-.71,5.33,3.26,9.79,6.52,14.33,2.97,4.13,7.04,8.73,8.14,13.03,2.24,8.69-3.9,12.49-7.16,18.57-5.89,2.98-13.07,9.45-20.19,13.03-6.74,3.38-16.04,2.53-19.55-3.9-5.11-9.4,8.14-17.52,6.19-28.33-.67-3.67-4.07-4.95-7.17-6.84-11.58.34-19.21-2.88-20.51-11.73-1.13-7.7,3.38-11.88,6.19-15.63,2.72-3.63,7.44-10.03,6.52-16.61-.44-3.05-3.27-6.98-5.54-7.82-4.58-1.7-10.43,2.07-14.99,1.96-4.87-.14-10.91-3.99-11.72-8.79-1.61-9.52,9.27-17.21,3.91-26.05-.94-1.53-4.19-3.15-6.84-4.88-5.09-3.33-9.1-6.47-14.65-8.79-3.08-1.29-5.58-2.94-7.82-3.9-7.84-3.41-15.05-.68-21.17,1.63-3.64,1.36-6.88,3.4-10.1,4.56-9.5,3.42-18.3-1.26-22.15-6.84-1.94-2.81-2.15-7.3-4.88-9.12-5.71-3.8-13.45.86-15.31,5.21-1.89,4.42-1.05,10.23-1.96,14.33-1.58,7.17-5.7,11.55-13.03,12.7-8.58,1.34-19.07-4.41-28.66-4.24-4.97.09-6.83,1.62-10.1,3.58-4.25,2.55-8.89,5.27-10.42,10.1-1.87,5.88,1.83,14.53,0,20.19-2.13,6.59-10.72,11.06-17.91,12.37-5.85,1.06-12.11.04-17.59,2.28-9.17,3.75-15.8,14.32-12.7,25.73,3.74,7.33,11.4,9.59,14.65,15.96,8.37,16.37-8.74,25.96-19.54,30.61-4.51,1.94-9.74,3.98-13.03,6.19-5.88,3.96-10.63,17.79-4.24,23.45,3.08,2.73,7.77,2.47,12.05,4.56.79.39,2.22,1.58,3.26,2.28,6.66,4.45,8.17,13.87,2.6,20.19-1.75,1.98-3.61,4.52-5.21,5.86-8.16,6.88-22.27,8.34-30.94,13.35-3.27,1.89-5.91,5.58-8.14,9.12-3.97,6.28-7.24,13.49-4.88,21.49,3.41,3.03,5.92,6.32,11.4,7.16,6.79,1.05,15.37-.59,20.19,2.94,3.4,2.5,6.93,10.53,5.86,16.93-.82,4.91-7.3,12.49-10.1,15.31-4.71,4.75-10.11,7.08-14.65,11.07-5.71,5.02-10.61,12.45-11.72,22.15-1.29,11.22,5.63,18.93,12.71,22.79,7.31,3.99,16.81,3.12,23.77.66,10.71-3.8,15.05-11.62,24.43-15.96,10.89-5.05,27.19-4.83,30.61,6.84,2.2,7.47-2.75,16.53-.65,23.13,1.99,6.27,9.95,8.38,16.29,5.86,8.07-3.21,12.09-12.35,18.89-17.91,5.96-4.87,14.01-8.27,21.83-4.24,7.82,4.05,8.83,18.73,6.84,28.66-.59,2.97-2.56,5.37-3.91,8.14-3.26,6.72-7.91,15.17-8.79,22.79-.8,6.96.34,13.87-.98,21.83,1.56,2.76,4.09,6.92,7.16,8.14,4.14,1.63,8.59,2.95,12.71,5.54,3.87,2.45,7.64,5.29,12.05,6.52,8.16,2.27,22.02,2.7,31.27.98,3.33-.61,9.46-3.86,12.38-5.54,3.82-2.2,11.41-10.2,11.4-15.31-.02-8.66-7.56-14.89-13.68-18.23-12.48-3.06-30.4,3.99-40.06-1.96-4.81-2.96-3.27-13.33-1.96-18.23,1.32-4.94,4.88-9.22,5.86-13.35,1.1-4.64-.87-8.46,0-12.7,1.23-1.16,3.08-1.71,5.2-1.96,3.78,3.41,5.34,10.51,3.91,16.61-1.63,7-10.47,15.87-6.84,25.41,14.44,2.54,29.06-2.57,41.04,2.6,3.01,1.3,6.05,3.74,8.14,5.86,4.17,4.24,5.88,9.86,8.47,16.29,9.59.44,17.28-2.44,22.79-6.52,2.07-1.53,4.55-2.92,5.86-4.24,3.89-3.88,9.51-16.6,8.47-24.75-.59-4.65-4.06-6.67-8.14-7.82-6.91-1.95-18.52-.67-24.43.32-4.53.76-9.44,4.23-14.33,5.21-6.28,1.27-11.3.23-16.61-1.62-.23-1.57-2.41-3.17-2.92-5.54-1.02-4.66,1.29-11,.65-17.59-.41-4.18-2.55-8.79-1.96-12.05,1.39-7.65,11.29-9.09,19.54-8.14,2.85-2.35,3.63-6.79,5.21-10.42,6.36-5.84,21.04-3.03,25.41,2.6,8.09,3.35,12.33-3.27,16.93-7.49,4.5-4.13,10.32-8.7,17.26-9.12,8.79-.54,11.41,6.44,18.57,7.16,3.23.32,12.46-3.05,15.31-4.88,1.51-.97,4.29-3.38,5.54-5.54,2.55-4.41,1.46-11.94,3.9-17.59,4.95-11.4,19.03-15.24,29.63-20.51,3.84-1.92,8.22-3.41,11.07-5.86,7.32-6.3,5.45-26.52-1.96-31.91-3.15-2.3-8.02-2.35-12.04-3.58-1.85-.57-5.91-2.84-6.84-3.91-6.39-7.29.2-20.67.66-28.33.35-6.12-2.26-9.55-5.86-11.73-7.69-4.62-21.77-.39-22.79-11.07-1.01-10.54,9.25-18.25,17.26-19.55,7.69-1.25,16.16,2.39,20.85-2.6,1.61-4.78.03-6.41.98-10.1.9-3.53,5.68-8.38,10.1-9.12,3.6-.6,6.73.49,9.77,1.63,2.64.99,6.04,3.01,8.14,3.26,2.82.33,7.66-1.02,9.77-2.28,3.37-2.01,6.78-9.09,5.54-15.31-.65-3.27-3.57-5.16-6.52-6.84-6.6.35-12.18.25-14-4.24-2.2-5.39,3.03-11.59,6.52-13.68,4.43-2.65,10.8-1.39,14.65-3.26,4.6-2.23,6.1-10.39,1.96-14.01-11,2.08-15.09,14.82-29.63,9.44-1.87-2.57-4.58-3.28-5.21-6.52-1.54-7.93,8.64-15.66,2.94-22.15-3.93-.31-8.47,1.06-10.1,4.56-1.17,2.52-.28,5.99-1.3,9.12-.57,1.72-2.4,4.39-3.58,6.19-1.56,2.38-2.62,4.88-4.56,5.54-3.46,1.17-8.34-1.41-10.75-3.91-2.65-2.76-2.62-6.95-4.56-9.77-4.67.54-7.64,2.46-8.18,6.49Z"/>
  <path class="cls-1" d="M348.59,47.8c-4.24,1.57-3.02-2.95-3.26-5.21-.19-1.72-1-4.8-1.63-6.19-2.43-5.34-7.41-7.07-12.71-9.44-.09-.53.31-.56.32-.98,11.28-1.23,19.49,9.55,17.28,21.83Z"/>
  <path class="cls-1" d="M140.8,27.93c-5.63,4.42-12.11,6.98-17.26,12.7-1.76,1.96-3.61,5.19-5.2,8.14-.73,1.35-3.03,8.67-4.88,8.47-4.95-.54,3.24-12.81,3.58-13.35,4.04-6.38,12.56-15.33,21.17-17.26,1.13-.26,1.88-.08,2.59,1.3Z"/>
  <path class="cls-2" d="M394.51,117.49c1.94,2.81,1.9,7.01,4.56,9.77,2.41,2.51,7.29,5.08,10.75,3.91,1.94-.66,3-3.15,4.56-5.54,1.18-1.8,3.02-4.46,3.58-6.19,1.02-3.12.14-6.6,1.3-9.12,1.61-3.5,6.16-4.87,10.1-4.56,5.71,6.48-4.48,14.22-2.94,22.15.62,3.24,3.34,3.93,5.21,6.52,14.54,5.37,18.63-7.37,29.63-9.44,4.14,3.62,2.65,11.77-1.96,14.01-3.85,1.86-10.22.6-14.65,3.26-3.49,2.09-8.7,8.28-6.52,13.68,1.82,4.49,7.4,4.59,14,4.24,2.94,1.68,5.87,3.58,6.52,6.84,1.23,6.22-2.16,13.3-5.54,15.31-2.11,1.26-6.95,2.61-9.77,2.28-2.11-.25-5.5-2.27-8.14-3.26-3.04-1.13-6.17-2.24-9.77-1.63-4.41.74-9.2,5.6-10.1,9.12-.95,3.68.63,5.32-.98,10.1-4.68,5-13.15,1.36-20.85,2.6-8.01,1.29-18.27,8.99-17.26,19.55,1.02,10.69,15.1,6.45,22.79,11.07,3.61,2.16,6.22,5.61,5.86,11.73-.45,7.66-7.04,21.04-.66,28.33.94,1.06,4.99,3.34,6.84,3.91,4.02,1.23,8.9,1.28,12.04,3.58,7.41,5.39,9.27,25.62,1.96,31.91-2.85,2.45-7.23,3.95-11.07,5.86-10.61,5.29-24.69,9.12-29.63,20.51-2.46,5.65-1.35,13.17-3.9,17.59-1.25,2.15-4.03,4.57-5.54,5.54-2.85,1.83-12.08,5.2-15.31,4.88-7.16-.72-9.76-7.7-18.57-7.16-6.93.43-12.76,4.99-17.26,9.12-4.6,4.23-8.85,10.83-16.93,7.49-4.36-5.63-19.05-8.44-25.41-2.6-1.58,3.63-2.35,8.07-5.21,10.42-8.24-.94-18.14.49-19.54,8.14-.59,3.26,1.55,7.87,1.96,12.05.63,6.59-1.68,12.93-.65,17.59.52,2.36,2.7,3.97,2.92,5.54,5.31,1.86,10.34,2.89,16.61,1.62,4.88-.99,9.8-4.45,14.33-5.21,5.91-.99,17.52-2.27,24.43-.32,4.08,1.14,7.55,3.16,8.14,7.82,1.04,8.15-4.57,20.88-8.47,24.75-1.32,1.31-3.8,2.71-5.86,4.24-5.52,4.08-13.22,6.95-22.79,6.52-2.59-6.42-4.29-12.05-8.47-16.29-2.09-2.12-5.14-4.56-8.14-5.86-11.98-5.17-26.59-.06-41.04-2.6-3.63-9.53,5.2-18.39,6.84-25.41,1.43-6.1-.14-13.2-3.91-16.61-2.13.25-3.98.8-5.2,1.96-.87,4.24,1.1,8.06,0,12.7-.98,4.13-4.55,8.41-5.86,13.35-1.31,4.91-2.85,15.28,1.96,18.23,9.66,5.93,27.57-1.11,40.06,1.96,6.12,3.35,13.67,9.59,13.68,18.23.01,5.11-7.58,13.11-11.4,15.31-2.91,1.68-9.04,4.92-12.37,5.54-9.24,1.72-23.11,1.29-31.27-.98-4.41-1.23-8.18-4.07-12.05-6.52-4.11-2.59-8.57-3.9-12.71-5.54-3.07-1.22-5.6-5.38-7.16-8.14,1.31-7.94.17-14.86.98-21.83.88-7.63,5.54-16.07,8.79-22.79,1.34-2.77,3.32-5.17,3.91-8.14,1.99-9.92.98-24.61-6.84-28.66-7.82-4.05-15.86-.65-21.83,4.24-6.8,5.56-10.82,14.71-18.89,17.91-6.33,2.52-14.3.41-16.29-5.86-2.09-6.6,2.84-15.64.65-23.13-3.42-11.67-19.73-11.89-30.61-6.84-9.38,4.35-13.72,12.16-24.43,15.96-6.96,2.48-16.47,3.34-23.77-.66-7.08-3.86-13.99-11.57-12.71-22.79,1.11-9.69,6.01-17.13,11.72-22.15,4.56-4,9.94-6.33,14.65-11.07,2.8-2.81,9.27-10.4,10.1-15.31,1.07-6.4-2.46-14.45-5.86-16.93-4.83-3.53-13.41-1.88-20.19-2.94-5.47-.84-7.98-4.14-11.4-7.16-2.36-8,.93-15.23,4.88-21.49,2.24-3.54,4.87-7.22,8.14-9.12,8.67-5.02,22.78-6.47,30.94-13.35,1.59-1.34,3.47-3.88,5.21-5.86,5.57-6.32,4.06-15.74-2.6-20.19-1.04-.7-2.47-1.89-3.26-2.28-4.28-2.09-8.97-1.83-12.05-4.56-6.39-5.66-1.64-19.49,4.24-23.45,3.29-2.21,8.52-4.25,13.03-6.19,10.79-4.65,27.9-14.25,19.54-30.61-3.26-6.37-10.91-8.64-14.65-15.96-3.1-11.41,3.53-21.98,12.7-25.73,5.47-2.24,11.74-1.22,17.59-2.28,7.19-1.31,15.78-5.79,17.91-12.37,1.83-5.66-1.87-14.31,0-20.19,1.54-4.83,6.17-7.55,10.42-10.1,3.27-1.96,5.12-3.49,10.1-3.58,9.6-.18,20.09,5.57,28.66,4.24,7.33-1.14,11.45-5.54,13.03-12.7.91-4.1.06-9.91,1.96-14.33,1.86-4.34,9.59-9.01,15.31-5.21,2.74,1.82,2.95,6.31,4.88,9.12,3.85,5.58,12.65,10.26,22.15,6.84,3.22-1.16,6.46-3.2,10.1-4.56,6.13-2.3,13.33-5.05,21.17-1.63,2.24.98,4.74,2.62,7.82,3.9,5.56,2.32,9.56,5.46,14.65,8.79,2.64,1.73,5.91,3.35,6.84,4.88,5.36,8.84-5.53,16.54-3.91,26.05.82,4.81,6.85,8.66,11.72,8.79,4.56.12,10.41-3.64,14.99-1.96,2.27.83,5.1,4.77,5.54,7.82.93,6.58-3.8,12.98-6.52,16.61-2.81,3.76-7.33,7.93-6.19,15.63,1.3,8.85,8.93,12.06,20.51,11.73,3.1,1.88,6.5,3.16,7.17,6.84,1.95,10.81-11.29,18.94-6.19,28.33,3.5,6.43,12.8,7.3,19.55,3.9,7.12-3.57,14.3-10.04,20.19-13.03,3.26-6.08,9.4-9.88,7.16-18.57-1.1-4.3-5.17-8.9-8.14-13.03-3.26-4.54-7.22-9-6.52-14.33.58-4.02,3.55-5.93,8.18-6.49ZM160.67,190.13c2.95.21,6.61,8.99,7.17,11.73.34,1.7-.17,3.53,0,5.21.19,1.96.94,3.52.98,4.88.1,3.87-1.59,6.31-.98,9.45.91,4.63,5,4.6,9.44,6.52,1.61.69,14.47,9.86,14.33,2.94-.04-2.31-5.08-4.56-6.84-5.54-2.97-1.65-7.14-2.36-7.82-4.88-.8-3.01.92-6.06.66-9.12-1-11.44-4.07-23.59-13.35-27.03-7.15-2.64-12.08.55-15.31,3.91-3.23,3.37-3.14,9.24-1.3,14.65,1.68,4.91,6.85,7.43,4.88,12.7-2.15,5.79-8.62.2-12.05-.98-2.85-.98-6.35-1.48-8.79-1.3-3.87.27-9.84,5.33-10.74,8.47-3.8,13.02,15.64,12.7,20.85,18.23-4.69,5.39-15.11,4.56-21.17,9.12-2.97,2.24-6.28,6.52-6.52,10.42-.41,6.63,6.07,10.55,12.38,9.77,6.12-.77,10.32-8.16,17.26-5.54.62,9.74-7.68,12.59-11.4,19.21-2.31,4.12-5.11,10.58-4.24,17.59,1.54,12.3,19.5,13.61,28.66,7.82,11.72-7.41,12.9-21.99,11.4-35.5,2.16-3.87,5.55-5.54,9.77-3.9,2.47.95,4,4.7,6.19,6.19,2.82,1.92,8.07,2.1,8.47-1.96.26-2.64-4.52-7.16-7.82-9.44-7.44-5.15-20.33-1.73-23.77,3.9-2.88,4.7-.91,11.94-1.3,18.89-.45,7.97-3.42,13.22-8.47,16.29-5.13,3.12-13.96,3.32-14.33-4.24-.08-1.65.85-4.39,1.3-6.19,2.18-8.78,8.57-11.42,12.7-18.89,2.21-4.09,2.9-11.01,0-14.01-1.84-1.9-5.5-2.98-8.14-3.26-8.94-.95-13.55,5.04-19.21,5.21.23-10.6,15.79-9.35,23.45-14.33,2.26-1.48,6.04-4.81,5.21-8.47-1.07-4.76-12.34-5.32-14.33-8.79-2.35-.81-8.1-1.23-7.82-5.21.24-3.47,5.35-4.61,6.84-4.56,3.32.1,7.58,3.8,10.42,4.56,5.54,1.47,12.68-1.74,14.01-5.86,3.11-9.65-5.81-14.77-6.19-24.75,1.51-1.21,3.15-4.09,5.53-3.92ZM260,195.65c-1.76.29-4.63,1.84-5.86,2.6-3.24,2.02-6.37,6.61-8.14,9.77-8.79,15.65-10.2,46.53,3.9,59.93,1.83,1.74,4.7,3.36,6.84,4.88,2.82,2.02,7.58,5.01,11.4,5.54,6.72.94,13.31-1.88,16.93-4.88,2.4-1.99,6.81-9.01,7.82-11.73,3.58-9.64,6.53-21.78,5.86-33.54-.51-9.12-4.79-21.46-11.72-26.38-4.43-3.14-12.17-6.83-19.21-6.19-2.49.25-5.27-.41-7.82.01Z"/>
  <path class="cls-1" d="M143.74,39c-2.34,3.63-6.74,4.91-9.44,8.14-3.16,3.79-4.56,8.18-5.86,14.01-1.13-.26-1.25.49-2.28.32-2.35-10.4,7.69-19.78,14.33-23.77.69-.43,2.72-.05,3.25,1.3Z"/>
  <path class="cls-1" d="M288.81,97.68c4.34-.08,9.67,3.71,11.66,7.86,4.33,9.02,1.05,24.19-5.69,30.63-3.07,2.94-5.14,3.42-10.3,2.44-3.95-.75-6.55-1.26-8.94-3.8-2.1-2.23-4.65-7.08-5.15-10.3-.86-5.6,1.78-18.26,5.15-21.96.61-.68,4.62-3.47,5.42-3.8,2.23-.9,5.24-1.01,7.86-1.06Z"/>
  <path class="cls-1" d="M224.73,103.93c7.06-1.16,14.4,1.52,17.08,4.61,4.59,5.29,3.96,17.51,1.89,25.21-1.48,5.54-7.01,11.77-10.85,12.74-6.65,1.68-13.72-3.64-16.27-7.59-2.16-3.36-3.72-9.03-3.8-13.82-.18-10.3,3.84-19.83,11.94-21.15Z"/>
  <path class="cls-1" d="M494.18,160.16c6.06,6.65,4.64,22.31-2.94,26.05-.8-.5-1.94-.67-2.28-1.63,1.07-2.99,4.84-5.61,5.54-10.42.74-5.11-1.42-8.98-2.94-13.03-.09-.53.31-.56.33-.98.7-.73,1.1.28,2.28.01Z"/>
  <path class="cls-1" d="M511.44,165.7c.99,6.74,1.21,16.34-3.91,19.54-.69-.41-1.27-.91-1.96-1.3,2.92-4.5,2.36-13.34,2.94-19.21,1.62-.31,1.74.86,2.94.98Z"/>
  <path class="cls-1" d="M56.46,179.38c-.18,3.62-3.23,4.38-4.56,6.84-2.84,9.03-2.31,20.45-1.3,28.99-5.06-.02-5.09-11.52-4.56-18.57.26-3.46.76-7.74,1.63-10.1,1.1-3.04,5.63-8.19,8.78-7.16Z"/>
  <path class="cls-1" d="M155.13,194.03c.39,9.98,9.29,15.1,6.19,24.75-1.33,4.12-8.47,7.34-14.01,5.86-2.84-.76-7.1-4.45-10.42-4.56-1.49-.05-6.6,1.1-6.84,4.56-.28,3.99,5.46,4.4,7.82,5.21,1.99,3.48,13.25,4.04,14.33,8.79.83,3.65-2.95,6.99-5.21,8.47-7.66,4.99-23.22,3.74-23.45,14.33,5.67-.18,10.27-6.15,19.21-5.21,2.64.28,6.3,1.35,8.14,3.26,2.9,2.99,2.21,9.92,0,14.01-4.13,7.47-10.52,10.11-12.7,18.89-.45,1.8-1.38,4.53-1.3,6.19.37,7.56,9.19,7.36,14.33,4.24,5.04-3.07,8.01-8.32,8.47-16.29.4-6.95-1.58-14.19,1.3-18.89,3.45-5.63,16.33-9.05,23.77-3.9,3.3,2.28,8.08,6.8,7.82,9.44-.41,4.05-5.64,3.87-8.47,1.96-2.2-1.49-3.73-5.24-6.19-6.19-4.22-1.62-7.6.03-9.77,3.9,1.5,13.5.32,28.09-11.4,35.5-9.16,5.8-27.12,4.49-28.66-7.82-.87-7,1.92-13.47,4.24-17.59,3.72-6.62,12.02-9.47,11.4-19.21-6.94-2.62-11.14,4.77-17.26,5.54-6.31.79-12.78-3.14-12.37-9.77.24-3.91,3.54-8.19,6.52-10.42,6.06-4.56,16.48-3.73,21.17-9.12-5.2-5.54-24.65-5.21-20.85-18.23.92-3.13,6.88-8.2,10.74-8.47,2.45-.17,5.94.33,8.79,1.3,3.43,1.18,9.9,6.77,12.05.98,1.96-5.27-3.22-7.8-4.88-12.7-1.84-5.42-1.93-11.29,1.3-14.65,3.22-3.36,8.15-6.56,15.31-3.91,9.28,3.43,12.35,15.59,13.35,27.03.27,3.06-1.46,6.11-.66,9.12.68,2.53,4.85,3.23,7.82,4.88,1.76.98,6.8,3.23,6.84,5.54.14,6.92-12.73-2.25-14.33-2.94-4.44-1.92-8.53-1.88-9.44-6.52-.61-3.14,1.08-5.58.98-9.45-.04-1.37-.78-2.92-.98-4.88-.17-1.69.34-3.52,0-5.21-.55-2.74-4.22-11.52-7.17-11.73-2.36-.15-4.01,2.74-5.53,3.92Z"/>
  <path class="cls-1" d="M32.67,185.57c3.12,1.55-.24,4.31-.98,6.52-1.42,4.22-.53,8.74,0,13.03-8.31-1.36-3.69-17.53.98-19.55Z"/>
  <path class="cls-1" d="M267.83,195.65c7.05-.65,14.78,3.04,19.21,6.19,6.93,4.91,11.21,17.27,11.72,26.38.67,11.76-2.28,23.91-5.86,33.54-1.01,2.72-5.41,9.73-7.82,11.73-3.63,3.01-10.21,5.82-16.93,4.88-3.82-.53-8.58-3.52-11.4-5.54-2.14-1.53-5.02-3.15-6.84-4.88-14.11-13.39-12.7-44.28-3.9-59.93,1.77-3.16,4.9-7.75,8.14-9.77,1.23-.77,4.1-2.31,5.86-2.6,2.54-.43,5.32.23,7.82-.01Z"/>
  <path class="cls-1" d="M23.56,364.69c-1.75,8.36-.83,16.33,1.96,22.79,1.24,2.88,4.32,4.86,4.24,8.14-2.83.47-5.61-3.27-7.16-5.86-1.79-2.99-3.05-8.24-3.58-11.4-.94-5.56-.51-11.23,2.28-14.98,1.43-.24,1.32,1.05,2.27,1.3Z"/>
  <path class="cls-1" d="M415.36,367.29c.67,5.1-1.99,7.34-3.58,9.77-.83,1.27-1.24,2.96-1.96,3.91-1.35,1.8-4.19,2.9-6.19,4.56-1.8,1.49-3.67,4.86-6.18,2.94.77-5.09,6.46-6.07,9.12-9.44,2.65-3.37,4.38-7.68,6.18-12.38.59-.51,2.02.15,2.61.63Z"/>
  <path class="cls-1" d="M426.76,373.48c4.97-.91,1.93,5.38.98,8.14-1.68,4.88-4.43,12.26-9.77,9.77,4.18-4.71,7.08-10.73,8.79-17.91Z"/>
  <path class="cls-1" d="M4.02,380c-1.19,8.36,3.36,12.69,4.24,17.91-4.42.85-7.56-7.45-8.14-12.05-.3-2.32.04-4.67.32-6.84,1.37-1.34,2.71.02,3.58.98Z"/>
</svg>