<?xml version="1.0" encoding="UTF-8"?>
<svg id="Layer_1" data-name="Layer 1" xmlns="http://www.w3.org/2000/svg" viewBox="0 0 512 512">
  <defs>
    <style>
      .cls-1 {
        fill: #1c1c1c;
      }

      .cls-2 {
        fill: #269fda;
      }

      .cls-3 {
        fill: #cdd602;
      }

      .cls-4 {
        fill: #e1072e;
      }

      .cls-5 {
        fill: #fefefe;
      }

      .cls-6 {
        fill: #fccf03;
      }
    </style>
  </defs>
  <g id="cWi5uA">
    <g>
      <path d="M323.74,396.28c0,.84-.06,1.04,0,1.17,4.2,7.41,4.14,7.28,11.7,3.67,4.84-2.31,9.36-5.81,15.5-3.66,11.77,4.12,15.56,17.95,7.71,29.05-.88,1.25-1.94,2.38-3.41,4.16,6.92,3.64,13.52,7.36,20.34,10.64,9.4,4.53,9.87,8.55,1.69,15.29-10.08,8.3-20.84,15.76-30.19,24.97-2.96,2.91-6.04,1.25-8.26-1.61-2.18-2.79-2.84-6.28-3.66-9.6-.93-3.76-2.81-6.9-5.61-11.33-.89,16.01-8.74,28.56-12.66,42.37-.42,1.47-1.16,2.89-1.99,4.17-1.52,2.34-3.46,3.64-6.55,2.77-3.13-.88-4.88-2.71-4.62-5.9.42-5.05-.53-9.95-1.17-15.1-2.65.48-5.97,2.81-7.15-1.48-.86-3.13-.45-6.09,3.61-7.29,4.49-1.33,1.38-4.37,1.42-6.71-2.6.1-4.65,3.65-7.17.84-1.72-1.92-1.25-4.23.23-6.17.58-.76,1.56-1.39,2.48-1.68,1.37-.43,3.01-.63,2.22-2.54-.62-1.5-.22-4.2-3.29-3.64-2.15.4-3.8-.46-4.54-2.47-.73-1.96-.36-3.83,1.68-4.88,2.21-1.13.53-2.39.05-3.34-2.63-5.22-7.07-9.32-9.95-14.12-3.24-5.39-7.83-8.88-12.03-13.77-2.31,5.27-1.6,10.49-2.35,15.44-.46,3.07,2.31,1.76,3.7,1.89,10.46.98,17.19,7.13,16.73,16.04-.32,6.22-2.07,12.06-8.97,14.24-4.23,1.34-4.3,3.3-2.3,6.92,3.66,6.59,6.76,13.5,10.12,20.26,2.23,4.5,1.55,6.44-3.12,7.61-12.19,3.05-24.41,6.02-36.64,8.9-2.15.51-4.46.71-6.67.56-4.3-.3-6.82-1.95-6.48-7.18.51-7.84.13-15.73.13-24.59-4.09,2.94-7.76,5.15-10.92,7.94-6.9,6.08-14.77,10.72-22.34,15.83-2.27,1.53-4.64,2.31-7.31,1.74-3.65-.78-5.11-4.66-2.71-7.48,4.28-5.01,7.34-10.82,11.36-16.42-1.38-1.41-3.91-.76-4.63-2.73-.82-2.24-.02-4.03,1.58-5.58,1.72-1.66,3.32-.42,4.58.54,1.16.89,1.73,3.8,3.46.83,1.08-1.84,4.23-3.69.94-6.36-.77-.63-1.53-1.51-1.84-2.43-.99-3.01.06-6.15,3.29-5.09,7.07,2.33,6.48-3.09,8.54-7.1-2.92.26-6.11,3.04-7.19-1.42-.44-1.81.1-3.39,1.55-4.62,1.57-1.34,3.35-1.22,4.76-.04,2.15,1.79,2.77,1.13,3.69-1.23,3.4-8.68,6.01-17.57,8.24-26.61.64-2.61.11-3.16-2.44-3.38-8.03-.68-16.01-1.56-23.92-3.47-21.57-5.21-41.52-14.15-60.37-25.57-23.15-14.03-41.27-33.15-55.38-56.19-11.95-19.51-17.05-40.84-17.15-63.54,0-2.07.88-4.17-2.68-4.93-13.37-2.88-18.59-13.54-14.84-27.23.63-2.29.56-4.02-.61-6.22-5.07-9.5-4.6-18.93,1.59-27.8,1.34-1.92,1.57-3.52,1.14-5.7-1.79-8.98,3.96-18.72,12.88-21.53,4.66-1.46,10.58-1.01,13.98-3.81,3.52-2.89,5.06-8.42,7.97-12.51,8.75-12.28,19.9-21.88,32.91-29.31,3.07-1.75,2.98-2.95,1.44-5.74-9-16.32-6.88-32.6,7.34-43.52,9.71-7.46,21.41-11.42,34.32-9,10.09,1.9,19.41,4.93,24.5,14.9,1.49,2.92,3.06.94,4.65.39,1.93-.67,3.88-1.04,3.16-4.13-2.6-11.07-2.25-22.34-1.08-33.51,1.52-14.57,7.76-26.55,19.5-36.05,7.62-6.17,15.36-10.39,25.13-11.84,11.05-1.64,23.01,4.43,28.39,14.2,8.84,16.06,5.09,31.67-.2,47.46-.32.95-.66,1.9-1.31,3.75,5.18-1.98,9.72-3.67,14.22-5.46,21.15-8.41,42.76-10.3,64.91-4.68,15.34,3.89,26.66,13.1,34.87,26.45,11.46,18.65,16,39.08,15.68,60.73-.19,12.43-.46,24.88-1.17,37.29-.24,4.29,1.09,5.72,5.06,5.31,20.51-2.1,36.32,6.79,49.79,21.25,13.04,14,15.95,37.11,5.96,52.88-3.57,5.64-8.91,10.05-14.48,13.95-1.06.74-2.85.76-1.89,3.32,3.58,9.54,1.35,15.91-7.49,21.23-2.75,1.65-3.18,2.52-1.31,5.28,5.26,7.76,3.88,12.34-4.78,16.06-3.61,1.55-5.75,2.42-4.97,7.65,1.61,10.73-9.33,19.01-20.19,15.82-2.94-.87-4.89-.6-6.99,1.31-.88.8-2.04,1.97-2.99,1.9-6.59-.49-7.61,4.7-9.57,8.99-4.35,9.58-10.71,17.31-19.45,23.45-12.14,8.53-24.73,15.64-39.71,17.86Z"/>
      <path class="cls-3" d="M248.57,441.44c-3.92.23-6.79-.49-9.69-.75-4.11-.37-4.77-1.83-3.49-5.57,1.93-5.67,3.56-11.47,4.91-17.3,1.48-6.37-1.94-10.41-8.36-10.51-15.65-.24-30.49-4.09-45.21-9.28-21.58-7.61-41.16-18.75-58.19-33.7-15.19-13.34-28.39-28.77-36.83-47.55-5.68-12.65-8.81-26-9.87-39.83-.12-1.55-.05-3.13-.34-4.64-1.15-5.96-.87-10.4,5.31-14.62,11.42-7.8,12.91-20.28,5.3-31.99-1.04-1.6-.78-2.7-.15-4.24,2.02-4.87,3.18-9.9.99-15.02-.59-1.38-.22-1.98.63-3.07,7.65-9.8,7.79-17.14.37-27.1-1.43-1.92-1.22-3.25-.26-5.05,7.87-14.75,19.36-25.78,34.1-33.54,1.51-.79,2.91-1.81,4.33-2.76,1.42-.95,2.68-.98,4.28-.13,23.9,12.71,55.14-5.5,56.28-32.92.14-3.31,1.28-4.93,4.11-6.19,15.99-7.08,32.19-5.77,48.51-1.46,2.98.79,2.58,2.88,2.16,4.89-1.91,9.18-1.91,18.49-2.18,27.79-.45,15.97,5.27,30.36,11.26,44.66,11.83,28.25,30.16,51.72,53.35,71.5,3.23,2.75,5.35,4.2.65,8.05-4.15,3.4-6.41,8.7-3.68,14.43,1.04,2.18.18,3.33-1.17,4.89-6.71,7.75-6.08,14.05,2.19,19.84,2.32,1.62.98,2.58.31,4.06-3.73,8.29-2.7,12.91,4.35,18.93,1.25,1.07,1.35,2.12,1.38,3.56.24,12.43,11.36,21.01,23.59,18.17,1.55-.36,2.48-.12,3.68.89,6.81,5.75,14.49,5.93,22.27,2.62,2.78-1.18,4.47-1.21,5.91,1.47.08.15.24.26.32.4,1.19,2.16,5.21,1.74,5.09,4.55-.14,3.21-1.69,6.26-3.42,9.08-12.15,19.73-29.78,30.85-52.75,33.63-1.52.18-3.06.48-4.52.94-4.63,1.47-5.35,3.69-2.63,7.62,1.86,2.68,3.64,5.41,5.47,8.11,4.92,7.27,5.06,7.41-2,12.94-5.85,4.58-13.09,7.55-20.46,9.59-2.61.72-4.46-.27-6.39-2.16-6.98-6.81-13.36-14.25-21.04-20.34-2.63-2.08-5.37-1.29-7.74.1-2.3,1.35-.62,3.52-.41,5.48,1.06,9.85.26,19.7-2.19,29.22-1.14,4.44-5.91,1.96-8.12,2.3Z"/>
      <path class="cls-2" d="M260.89,88.85c5.05,7.04,9.48,13.75,14.86,19.75,10.36,11.56,22.71,20.48,35.88,28.5,14.42,8.79,30.12,14.42,46.03,19.64,7.6,2.49,15.63,2.54,23.45,3.72,3.38.51,4.77,1.35,4.66,5.01-.37,12.26-.96,24.49-2.26,36.69-.34,3.15-1.49,4.79-4.82,5.54-10.85,2.44-21.5,1.14-32.29-.48-17.3-2.61-33.12-9.35-48.72-16.68-9.72-4.57-17.75-11.15-25.13-19.34-15.97-17.76-17.69-38.24-14.95-60.29.88-7.1,1.18-14.28,3.3-22.05Z"/>
      <path class="cls-4" d="M319.13,61.9c9.5.33,18.82,1.81,28.05,4.12,14.89,3.72,22.47,15.17,29.11,27.5,9.05,16.82,9.89,35.27,10.24,53.79.06,2.97-1.29,3.25-3.83,3.1-19.81-1.18-37.98-7.75-55.77-16.06-19.32-9.03-34.91-22.66-48.8-38.4-3.6-4.08-5.99-9.24-8.82-13.97-1.4-2.35-.68-3.85,1.8-5.39,6.52-4.04,13.68-6.79,20.86-8.84,8.86-2.54,17.58-6.43,27.18-5.83Z"/>
      <path class="cls-5" d="M329.39,246.03c-19.77-14.47-36.43-31.84-50.08-54.24,8.36,5.61,16.09,9.42,24,12.86.24,1.67-.86,2.89-1.43,4.3-1.86,4.64-.65,8.86,3.03,10.65,4.27,2.07,9.84.6,12.29-3.25.99-1.56,1.16-3.63,2.98-4.66,12.9,2.88,25.6,6.66,38.92,7.46,9.03.54,17.91-.09,26.69-2.14,4.74-1.11,8.82-2.82,8.5-9.04-.13-2.49,1.41-5.06,1.31-7.56-.22-5.42,2.01-6.65,6.71-4.78.95,1.77-.31,3.3-.55,4.94-.47,3.28-.03,6.34,2.98,8.16,3.12,1.88,6.63,2.08,9.75.05,2.9-1.89,4.49-4.65,3.5-8.38-.37-1.4-1.46-2.86-.07-4.31,8.81,1.48,15.53,6.22,20.72,13.33-.75,1.76-2.63,2.12-3.96,3.16-4.39,3.42-5.12,7.37-2.13,11.65,2.63,3.76,7.75,4.49,11.92,1.76,1.57-1.02,2.44-2.96,4.46-3.37,5.36,8.97,3.59,24.89-3.82,34.24-1.56-.44-1.72-1.99-2.45-3.09-3.04-4.57-7.18-5.71-11.36-3.09-3.98,2.49-5.18,8.01-2.72,12.2.84,1.43,2.72,2.21,2.65,4.2-11.39,6.26-23.51,8.91-36.47,7.43-.54-.69-.9-1.47-.96-2.34-.33-4.54-2.88-7.35-7.16-8.24-4.18-.87-7.21,1.33-9.5,4.68-.58.85-1.04,1.78-1.95,2.34-9.75-3.17-19.36-6.67-28.02-12.3-1.52-.99-3.31-1.8-4.08-3.68.23-1.31,1.35-1.95,2.1-2.87,3.69-4.51,3.17-9.28-1.33-12.55-4.34-3.14-9.33-1.9-12.26,3.07-.69,1.17-.94,2.63-2.22,3.42Z"/>
      <path class="cls-6" d="M414.52,312.58c-1.38-.08-2.76-.23-4.13-.21-1.85.03-3.47.56-3.83,2.7-.29,1.73-.53,3.55,1.55,4.44,3,1.28,3.5,4.23,4.19,6.77,1.04,3.85-.66,6.97-4.41,8.24-3.75,1.26-5.57-1.61-6.24-4.54-1.09-4.74-4.41-4.06-7.65-3.75-3.93.37-3.09,3.44-3.15,5.92-.13,5.42-2.25,7.17-7.49,5.65-6.95-2.01-10.01-7.58-11.65-14.01-.66-2.6-1.45-4.41-4.36-4.94-4.58-.84-6.46.52-6.67,5.14-.06,1.38.02,2.79-.28,4.12-.67,2.94-2.88,4.16-5.67,4.45-2.93.3-5.07-1.01-6.14-3.72-1.04-2.61-1.13-5.42-.95-8.18.27-4.09-1.48-6.26-5.59-6.29-3.82-.02-5.59,1.77-5.3,5.81.2,2.8-.47,5.81-3.27,7.11-3.1,1.43-5.15-1.26-7.1-3.02-2.28-2.06-3.46-4.68-2.11-7.91,1.24-2.97,3.79-4.89,5.61-7.38,1.76-2.41,4.59-5.22,1.23-8.1-2.95-2.53-6.38-2.32-9.23.76-.23.25-.45.54-.74.72-1.48.9-2.34,4.13-4.23,2.64-1.87-1.48-.65-4.18.52-6.18,2.07-3.54,5.15-6.01,8.76-7.83,1.82-.92,3.23-2,2.74-4.33-.51-2.4-2.28-3.29-4.45-3.69-2.65-.5-5.1.58-7.65.93-1.81.25-3.83.87-5.09-1.3-1.29-2.22-.23-4.05,1.08-5.68,2.29-2.85,5.37-4.19,9.03-4.38,2.04-.1,4.47,0,4.56-2.96.07-2.64-1.68-4-4.07-4.65-.5-.14-1.03-.2-1.49-.43-1.56-.76-4.27.92-4.77-1.83-.56-3.09,1.51-5.06,3.69-6.93,2.1-1.81,3.71-.89,5.5.43,12.57,9.24,26.27,16.39,40.69,22.27,19.86,8.1,39.87,8.79,60.19,1.96,1.81-.61,3.9-2.33,5.48.29,1.47,2.43.57,4.67-1.1,6.64-2.79,3.3-6.52,5.04-10.59,6.12-2.64.71-5,1.67-5.22,4.87-.2,2.86,2.05,3.67,4.09,4.66,2.87,1.39,5.97,3.6,5.29,6.69-.7,3.16-4.53,3.11-7.53,3.07-.69,0-1.38,0-2.07,0,0-.04,0-.08,0-.13Z"/>
      <path class="cls-5" d="M208.44,72.06c-2.27-4.14-1.1-8.64-1.15-12.96-.07-6.68.65-13.31,2.9-19.68,1.38-.09,2.74.14,4.1.32,3.86.51,7.32-.1,9.16-4,1.74-3.69,1.86-7.3-1.4-10.4-.62-.59-1.17-1.26-1.19-2.19,4.22-5.18,9.48-8.98,15.59-11.61,17.26-7.44,25.3,3.8,26.91,16.38,1.65,12.83-1.97,24.56-6.99,35.99-2.08,4.73-3.96,9.5-5.48,14.41-2.02,6.53-2.1,6.68-8.29,5.02-5.38-1.44-10.9-1.63-16.39-2.07-1.85-13.08-4.35-14.38-17.76-9.21Z"/>
      <path class="cls-3" d="M181.55,99.23c-.31,15.91-7.75,25.25-23.18,29.12-11.33,2.84-20.11.03-24.71-7.9-6.79-11.69-5.61-22.12,2.12-31.43,7.6-9.17,25.66-12.43,35.56-8.16,7.02,3.02,10.83,8.12,10.22,18.37Z"/>
      <path class="cls-4" d="M313.44,481.34c-1.62-6.52-2.94-12.14-4.42-17.73-2.35-8.89-5.65-17.43-10.89-25.02-2.08-3.01-.96-3.49,1.73-4.44,8.97-3.15,17.82-6.66,25.18-12.89,4.82-4.08,8.05-10.02,14.43-12.27.16-.06.29-.21.45-.26,3.66-1.17,7.35-5.3,11.13-1.06,2.87,3.22,1.1,11.46-2.63,14.54-1.71,1.41-3.57,2.85-5.62,3.58-2.43.87-4.05,1.95-3.79,4.69.26,2.67,1.68,4.33,4.37,5.08,8.73,2.43,16.44,7.06,24.33,11.33,2.23,1.21,2.83,2.03.74,4.08-6.45,6.31-14.58,10.46-21.09,16.69-1.38,1.32-2.55.51-3.06-1.15-3.06-10-9.7-18.22-13.74-27.72-1.61-3.78-4.29-5.4-8.17-4.46-4.02.98-2.46,4.04-2.25,6.73,1.04,13.62-1.36,26.69-6.71,40.27Z"/>
      <path class="cls-4" d="M214.16,482.57c6.72-10.1,11.86-20.92,16.07-32.21.78-2.1,2.45-1.69,3.88-1.51,4.1.51,8.15,1.38,12.25,1.83,7.39.82,14.31-1.04,21.15-3.78,3.38-1.36,7.49-3.29,9.73,1.83,2.14,4.91-.12,10.23-5.04,12.29-2.22.93-4.55,1.6-6.82,2.39-3.55,1.23-4.13,3.45-1.9,6.31,5.59,7.15,8.07,15.93,12.53,23.66,1.13,1.97-.2,2.57-1.53,2.89-9.02,2.15-18.06,4.25-27.12,6.25-3.26.72-2.58-1.91-2.66-3.62-.41-8.99.48-17.93,1.02-26.88.18-2.98.84-6.11-3.17-7.82-4.08-1.75-6.65.05-9.05,2.72-5.58,6.19-12.32,10.96-19.32,15.67Z"/>
      <path class="cls-3" d="M62.28,243.57c-.03-6.07,7.6-15.48,13.45-16.61,4.24-.82,9.77,4.24,10.31,9.43.69,6.68-5.08,15.84-11.38,18.06-5.82,2.05-12.35-3.68-12.38-10.88Z"/>
      <path class="cls-3" d="M74.81,218.23c-3.6-.23-7.77.71-10.88,4.65-1.99,2.52-3.12,1.8-3.92-1.12-2.26-8.3,1.48-16.26,9.1-18.87,6.57-2.26,12.12.82,13.71,7.61,1.29,5.53-.73,7.79-8.01,7.74Z"/>
      <path class="cls-4" d="M417.92,196.08c2.96,8.1,1.01,13.79-5.33,15.28-4.15.97-7.91.12-10.6-3.37-3.18-4.13-2.16-8.3.33-12.36,5.26-1.86,10.43-.54,15.61.46Z"/>
      <path class="cls-4" d="M448.95,222.6c-2.37,4.93-6.35,7.1-11.67,6.22-4.34-.71-6.83-3.68-7.69-7.93-1.07-5.34,2.02-9.21,9.05-11.49,4.88,3.27,8.7,7.37,10.3,13.2Z"/>
      <path class="cls-4" d="M431.25,267.06c-5.28-3.85-6.92-9.3-4.24-14.13,2.38-4.28,7.9-6.1,12.47-4.14,3.54,1.52,4.9,4.57,5.65,8.05-3.32,5.17-7.69,8.93-13.87,10.22Z"/>
      <path class="cls-4" d="M329.39,246.03c.91-5.79,3.95-9.09,8.85-9.63,4.44-.49,8.69,2.35,10.24,6.83,1.69,4.89.18,8.18-5.37,11.72-5.17-2.06-10.25-4.24-13.71-8.92Z"/>
      <path class="cls-4" d="M320.19,211.68c-.66,4.31-2.41,7.83-6.73,9.57-4.42,1.78-9.57.61-12.17-2.82-3.15-4.14-2.5-8.54,2.03-13.8,5.58,2.45,11.59,3.89,16.87,7.04Z"/>
      <path class="cls-3" d="M85.64,196.51c-5.28-3.22-10.74-4.12-16.53-2.89-3.73.79-4.8-.39-3.21-3.99,2.84-6.45,13.03-10.84,19.26-8.14,2.17.94,2.7,3,2.86,5.09.26,3.33-.64,6.44-2.37,9.93Z"/>
      <path class="cls-4" d="M208.44,72.06c4.32-4.73,9.26-5.84,14.01-3.15,4.34,2.46,5.49,6.22,3.75,12.36-3.94-.46-7.87-1.29-11.8-1.28-5.91.02-7.12-2.93-5.97-7.93Z"/>
      <path class="cls-4" d="M220.87,23.16c5.27,2.74,6.87,7.89,4.09,13.22-2.89,5.54-8.44,6.69-14.77,3.05,1.24-6.94,5.28-12.05,10.68-16.26Z"/>
      <path class="cls-4" d="M375.21,270.93c2.16-6.4,6.25-9.45,11.45-8.56,5.76.98,8.55,5.15,8.13,12.12-6.88.74-13.46-.13-19.58-3.56Z"/>
      <path class="cls-1" d="M220.44,299.35c-.43-2.11,1.64-5.03-2.8-6.3-7.3-2.1-11.59-7.73-11.44-13.47.16-6.27,6.47-13.46,13.52-15.31,3.54-.93,7.09-1.09,10.72-.22,3.27.79,4.53-.61,3.46-3.9-.42-1.31-.79-2.63-1.13-3.96-.63-2.49-1.84-5.41,1.93-6.29,3.25-.76,6.75-.15,7.44,3.68,1.16,6.46,2.54,12.81,5.09,18.86.77,1.84-.2,3.35-1.55,3.89-2.71,1.09-5.24.48-7.55-1.64-5.29-4.85-10.91-5.49-16.96-2.13-3.25,1.8-5.33,4.7-4.84,8.36.64,4.76,5.31,5.57,10.11,1.63,2.24-1.84,4.26-3.25,7.31-2.95,1.9.18,3.34.72,4.2,2.45,1,2.01.34,3.67-1.13,5.14-2.3,2.29-4.71,4.35-5.84,7.7-1.57,4.69-.49,8.82,1.56,12.93,1.41,2.82,3.87,2.89,5.26.64,2.44-3.97,6.43-7.41,5.77-12.8-.38-3.12,1.07-4.3,4.07-4.53,3.17-.24,4.97.94,5.32,4.09.4,3.66-.2,7.19-1.43,10.66-1.3,3.68,1.55,8.84,5.91,10.46,4.08,1.52,6.2-1.55,7.63-4.37,2.91-5.75,3.19-11.92,1.15-18.08-.84-2.53-2.07-5.24,1.31-6.58,3.31-1.31,6.11-.08,7.83,3.12,1.43,2.66,1.7,5.59,1.56,8.54-.1,2.28,1.13,3.59,2.99,4.33,2.09.84,3.19-.79,4.17-2.19,2.75-3.93,3.95-8.47,4-13.14.06-5.89-2-7.99-8.02-9.32-7.71-1.7-8.8-3.18-6.14-10.65,2.7-7.58,4.82-15.06,2.95-23.19-.65-2.82,1.09-4.34,3.7-4.37,3.17-.04,6.32.29,6.79,4.58.8,7.31,0,14.46-2.23,21.42-1.01,3.17-1.11,4.95,2.91,6.16,7.93,2.38,10.19,6.35,10.12,16.32-.04,5.19-1.09,10.26-3.66,14.91-3.09,5.59-7.31,9.17-14.15,8.11-2.65-.41-4.02.16-5.28,3.04-4.63,10.65-19.13,13.27-27.85,5.14-2.65-2.47-4.76-3.31-8.59-2.33-10.76,2.75-18.17-4.94-18.18-18.44Z"/>
      <path class="cls-1" d="M183.66,205.55c-.31-4.13-.51-8.27-.95-12.38-.41-3.82,1.46-5.65,4.96-5.59,3.16.06,5.64.76,6.29,5.08,2.42,16.15-1.27,31.44-6,46.54-1.45,4.64-4.4,8.95-7.24,13.01-12.33,17.69-34.43,23.98-53.54,14.11-12.56-6.49-19.54-16.74-23.81-29.52-.67-2.01-1.34-4.39,1.88-4.68,2.52-.23,5.2-1.33,6.73,2.64,2.98,7.76,7.24,15.17,14.04,20.02,18.39,13.1,34.49,8.81,45.91-7.58,8.16-11.72,11.56-26.26,11.73-41.65Z"/>
      <path class="cls-1" d="M202.16,119.29c0-1.21-.12-2.43.02-3.62.27-2.24,1.24-4.03,3.81-4.06,2.5-.03,3.05,1.93,3.34,3.84.68,4.4,1.05,8.76,4.28,12.42,4.51,5.11,10.82,4.35,13.4-2.02.83-2.06,1.6-4.21,1.9-6.39.39-2.85,1.76-3.93,4.51-3.55,2.87.4,4.07,1.96,3.99,4.92-.26,9.62-7.55,18.04-15.75,18.01-10.42-.05-19.21-8.14-19.54-17.99-.02-.52,0-1.03,0-1.55.01,0,.03,0,.04,0Z"/>
      <path class="cls-4" d="M409.68,230.6c5.4-.1,9.98,4.29,10.01,9.62.03,5.15-4.17,9.48-9.39,9.67-5.56.21-9.96-3.85-10.14-9.33-.18-5.49,3.99-9.85,9.53-9.96Z"/>
      <path class="cls-4" d="M369.83,222.67c5.61-.12,9.9,3.96,9.98,9.5.08,5.47-4.21,9.91-9.64,9.97-5.14.06-9.51-4.17-9.7-9.37-.21-5.56,3.89-9.98,9.36-10.1Z"/>
      <path class="cls-4" d="M230.84,52.68c-.01-5.69,4.15-9.89,9.73-9.84,5.57.05,9.71,4.31,9.67,9.96-.04,5.68-4.17,9.81-9.79,9.79-5.66-.02-9.6-4.08-9.61-9.91Z"/>
      <path class="cls-4" d="M238.04,21.7c.12-5.52,4.52-9.65,10.09-9.46,5.23.18,9.35,4.47,9.35,9.75s-4.46,9.91-9.84,9.82c-5.37-.09-9.71-4.65-9.59-10.1Z"/>
    </g>
  </g>
</svg>