<?xml version="1.0" encoding="UTF-8"?>
<svg id="Layer_1" data-name="Layer 1" xmlns="http://www.w3.org/2000/svg" viewBox="0 0 512 512">
  <defs>
    <style>
      .cls-1 {
        fill: #1c1c1c;
      }

      .cls-2 {
        fill: #78549d;
      }

      .cls-3 {
        fill: #8acaba;
      }
    </style>
  </defs>
  <g id="bBQM6U">
    <g>
      <path class="cls-1" d="M236.46,62.88c-4.83-3.33-8.79-5.99-12.67-8.76-2.06-1.48-4.32-3.44-2.89-6.1,1.24-2.3,4.1-1.49,6.28-1.06,3.99.79,6.64,3.93,9.86,6.08,5.41,3.61,6.03,3.49,9.4-2,6.86-11.18,11.66-23.41,17.84-34.94,1.5-2.8,3.12-5.55,4.77-8.28,3.52-5.82,8.19-8.82,15.46-7.52,7.27,1.3,9.54,6.34,11.23,12.44.58,2.11-.53,5.61,1.92,6.08,2.24.43,4.05-2.49,5.71-4.28,5.33-5.8,11.04-10.48,19.74-9.25,6.44.91,9.88,4.02,10.84,10.39.65,4.3-.17,8.47-1.08,12.62-2.31,10.55-6.02,20.66-9.58,30.83-2.52,7.19-1.87,7.63,5.76,6.61,5.78-.78,11.5-2.23,17.39-1.95,2.43.12,5.57-.14,5.86,3.15.26,2.9-1.83,4.95-4.67,5.65-3.42.85-6.91,1.41-11.13,2.25,7.88,6.03,15.39,11.58,22.67,17.4,13.91,11.13,27.15,23.31,35.93,38.8,10.42,18.39,19.82,37.47,24.58,58.42,2.7,11.91,4.62,23.95,6.42,36,.57,3.78,2.86,4.86,5.77,5.95,4.92,1.84,10.19,2.87,13.98,7.14,7.49,8.44,8.49,20.61,1.83,31.51-1.92,3.14-1.64,4.22,1.7,5.64,6.47,2.75,10.36,7.93,11.61,14.83,1.44,8.01-1.9,13.77-10.06,17.14-2.71,1.12-4.09,2.57-4.99,5.4-3.49,10.92-14.51,15.63-25.1,11.04-4.51-1.95-9.51.72-9.62,5.55-.14,5.73-2.44,10.63-4.91,15.51-8.89,17.59-21.21,32.55-35.29,46.22-24.48,23.8-53.57,39.6-85.92,49.66-5.65,1.76-7.83,4.43-7.41,10.53.98,14.26-1.49,10.79,11.7,13.77,5,1.13,10.05,2.09,15.1,2.98,8.78,1.56,15.54,6.68,21.72,12.57,5.34,5.09,4.96,12.66.22,18.74-5.95,7.63-14.41,8.41-22.9,8.94-16.23,1.01-32.14-1.69-47.99-4.75-6.3-1.22-12.39-.62-18.81.03-17.62,1.78-34.41,8.5-52.33,8.11-7.88-.17-15.47-1.52-22.88-4.03-7.09-2.41-10.25-10.89-6.48-17.32,2.6-4.42,6.49-7.38,11.06-9.61,10.89-5.31,22.4-8.53,34.29-10.64,12.84-2.27,12.82-2.4,10.75-15.06-1.78-10.91-1.84-11.17-12.39-12.43-9.24-1.1-17.94-3.86-26.4-7.57-28.1-12.31-52.77-29.51-70.48-54.74-15.38-21.91-24.59-46.52-23.75-73.94.1-3.32-.52-5.12-3.92-6.14-5.46-1.64-9.27-5.17-9.89-11.2-.17-1.68-.87-2.41-2.4-2.99-9.64-3.63-12.35-10.04-8.47-19.9.77-1.95,1.56-3.51.19-5.85-5.03-8.6-3.57-14.61,4.89-20.14,3.22-2.11,6.9-3.55,10.48-5.04,2.43-1.01,3.39-1.94,2.79-5.02-3.63-18.97,1.79-29.34,20.3-35.67,8.66-2.96,14.04-7.56,17.19-15.88,3.94-10.41,9.98-19.83,14.75-29.85,7.71-16.19,20.09-28.55,32.37-40.99,6.43-6.51,12.67-13.15,20.4-18.47,17.27-11.89,36.18-19.74,56.09-25.62.81-.24,1.63-.46,3.57-1.02Z"/>
      <path class="cls-2" d="M244.04,459.67c0-6.74-.1-11.36.03-15.96.1-3.4-1.7-4.1-4.65-4.21-3.12-.12-3.79,1.22-3.94,4.05-.81,15.59.41,31.09,1.92,46.57.33,3.36-.61,5.08-3.69,5.72-13.25,2.76-26.45,5.73-39.87,7.68-8.95,1.3-17.55.92-26.01-2.3-5.46-2.08-6.27-5.74-1.86-9.75,2.77-2.52,6.35-3.76,9.69-5.38,10.09-4.9,20.75-7.64,31.77-9.52,4.24-.73,8.18-2.87,12.73-3.18,3.58-.24,3.38-3.77,2.62-6.29-2.59-8.66-4.59-17.31-4.29-26.48.12-3.9-3.65-4.57-6.86-5.32-6.36-1.49-12.91-1.13-19.34-2.63-23.23-5.42-42.39-18.25-60.59-32.7-22.33-17.73-35.5-41.41-42.31-68.73-2.3-9.22-3.62-18.7-1.85-28.3.3-1.65.5-3,2.16-3.9,6.11-3.31,10.53-8.33,13.74-14.38,1.15-2.16,2.1-2.68,4.48-1.57,12.08,5.62,27.67-3.4,32.67-11.08,5.05-7.76,2.79-16.21-6.06-21.6-6.69-4.07-13.95-6.78-22.02-5.9-2.55.28-3.03-1.41-3.46-3.09-1.47-5.68,1.71-10.39,7.68-11.54,1.56-.3,3.11-.74,4.69-.89,2.02-.19,3.38-.88,3.47-3.15.09-2.4-1.41-3.6-3.37-4.19-10.09-3.05-20.6,4.43-21.14,14.98-.28,5.51-.63,11.02,3.62,15.49,2.26,2.38,4.25,3.17,7.24.7,5.33-4.4,19.71-.61,22.4,5.74,1.61,3.82,1.57,7.5-1.67,10.75-3.33,3.34-7.15,5.99-11.65,7.07-4.49,1.08-9.06,1.42-12.15-3.64-1.47-2.41-3.38-5.34-7.18-4.17-3.37,1.04-3.35,3.91-3.91,6.8-1.5,7.76-4.86,14.42-12.82,17.53-2.83,1.1-5.97,2.2-8.5-.1-2.61-2.37-2.58-5.87-1.53-8.95,2-5.85,5.41-10.71,11.24-13.49,1.52-.72,3.68-1.17,3.09-3.59-.56-2.32-2.57-2.64-4.59-2.7-7.71-.23-11.26,5.71-15.45,10.59-1.56,1.81-1.76,6.09-5.21,4.31-2.85-1.47-2.87-4.95-1.48-8.05,2.55-5.67,6.97-9.07,12.66-11.3,2.39-.94,6.67-1.64,5.28-5.27-1.39-3.64-5.25-3.49-8.69-2.01-1.78.77-3.57,1.53-5.36,2.28-1.58.66-3.54,2.17-4.84.78-1.55-1.67.17-3.76,1.2-5.18,3.65-5.05,9.44-6.67,15-8.25,6.47-1.84,8.03-4.23,5.35-10.52-6.17-14.52-.1-22.12,10.79-27.68,4.49-2.29,9.17-3.88,14.04-4.4,3.85-.41,6.07-2.29,6.8-5.58,3.63-16.48,12.69-30.52,20.24-45.19,5.95-11.55,15.22-20.79,23.91-30.35,21.82-23.99,48.57-39.84,80.11-46.97,9.03-2.04,18.55-2.96,28.11.13,8.37,2.7,17.43,2.63,26.2,3.05,10.75.52,21.42,1.96,31.58,4.93,9.49,2.77,17.05,9.84,24.97,15.8,24.67,18.57,42.37,42.2,53.45,71.1,7.71,20.1,11.23,40.97,13.65,62.14.63,5.55,4.03,9.49,9.65,10.06,2.5.26,4.84.98,7.12,1.94,10.92,4.62,13.76,17.23,5.86,26.15-1.87,2.12-4,4.01-5.32,6.58-2,3.86-.03,7.52,4.32,7.87,1.58.13,3.2-.11,4.78.05,6.74.67,11.11,8.02,8.48,14.16-1.54,3.6-4.41,3.88-6.66.25-2.75-4.44-5.8-8.05-11.5-8.07-1.34,0-3.23-1.86-3.82.9-.41,1.91.38,3.3,2.12,4.41,6.84,4.39,8.63,12.19,4.79,19.61-2.08,4.01-5.3,5.8-9.59,4.77-3.88-.94-6.09-3.1-6.05-7.88.03-3.89-.49-8.12-2.44-11.8-1.12-2.1-2.59-4.19-5.34-3.35-2.59.79-1.67,3.31-1.46,5.05.51,4.37,1.53,8.62.02,13.06-.69,2.04-1.31,4.19-2.65,5.71-2.46,2.79-5.39,5.56-9.58,4.19-3.95-1.29-4.83-4.79-4.92-8.55-.12-5.07,1.07-9.77,3.62-14.17,1.31-2.26,3.2-4.83.4-7.11-2.51-2.04-5.54-2.26-8.42-.4-3.9,2.52-7.79,4.77-12.79,4.22-2.87-.32-5.36-1.16-6.67-3.64-1.41-2.68-.85-5.58.91-8.02,2.38-3.31,5.47-5.53,9.78-5.49,6.25.06,12.84-1.43,17.77,4.28.81.94,2.04,1.12,3.42.62,8.08-2.93,15.52-16.71,13.3-24.79-1.57-5.7-6.04-9.43-11.78-9.86-2.63-.2-4.68.65-5.1,3.43-.46,3.04,1.39,3.85,4.16,4.05,4.1.28,5.5,3.55,3.99,8.6-2.32,7.76-6.8,10.04-14.51,7.37-8.87-3.07-21.94-.56-26.88,5.08-4.06,4.64-5.52,9.82-3.28,15.69,2.53,6.61,8.21,8.87,14.55,9.97,3.1.54,7.42-1.42,9.1.9,1.43,1.98.04,6-.08,9.11-.36,9.65,1.35,12.47,10.69,15.67,3.53,1.21,4.06,2.7,2.83,5.98-6.23,16.73-16.55,30.72-28.52,43.7-23.2,25.16-51.92,41.76-83.44,54-4.25,1.65-8.77,2.61-13.44,2.65-4.26.03-6.16,1.6-5.53,6.63.95,7.51,1.84,15.12,1.24,22.76-.38,4.93,1.75,6.86,6.87,6.88,12.96.06,25.76,1.3,36.89,9.05,3.74,2.6,8.54,4.72,7.17,10.5-1.44,6.08-6.67,8.54-11.99,8.91-20.07,1.41-39.82-.94-59.16-6.51-1.82-.52-2.85-1.64-3.06-3.79-1.04-10.72-2.82-21.38-2.08-30.08Z"/>
      <path class="cls-3" d="M297.78,66.94c-13.55-.64-27.03-1.74-40.11-5.81-3.25-1.01-4.33-1.89-2.68-5.33,7.07-14.74,14.65-29.21,22.87-43.34,1.18-2.02,2.54-4.07,5.27-3.69,2.75.38,2.53,3.16,3.24,4.99,1.07,2.76,1.47,5.78,2.48,8.57,1.26,3.47,2.53,7.22,7.05,7.67,4.64.47,8.33-1.64,10.88-5.27,2.71-3.86,6.56-6.35,10.06-9.24,1.56-1.29,3.91-2.38,5.95-1.2,2.26,1.31,2.15,3.96,1.92,6.21-.67,6.67-2.32,13.15-4.51,19.48-2.24,6.47-4.96,12.79-6.91,19.35-1.67,5.63-5,8.06-10.72,7.63-1.58-.12-3.18-.02-4.77-.02Z"/>
      <path class="cls-1" d="M311.06,132.1c1.51,1.24,2.24,2.02,3.13,2.53,11.7,6.7,13,17.47,10.55,29.02-2.3,10.87-8.69,19.38-18.62,24.6-13.75,7.22-29.78-2.84-30.31-18.39-.47-13.54,3.24-25.09,13.85-34.01.78-.65,2.28-1.08,1.46-2.89-1.69-3.74-1.28-4.5,3-4.01,14.78,1.7,28.13-3.12,41.4-8.54.49-.2.93-.54,1.44-.69,1.62-.46,3.77-1.61,4.57.52.61,1.64-1.45,2.51-2.91,3.2-7.7,3.63-15.83,5.92-24.15,7.61-.83.17-1.62.49-3.41,1.05Z"/>
      <path class="cls-1" d="M240,120.81c-5.6-2.97-10.85-4.19-15.19-7.23-1.37-.96-3.9-1.86-2.67-3.83,1.24-2,2.78.38,3.92,1.07,7.86,4.78,16.61,6.72,25.5,8.25.87.15,1.88.02,2.59.43,1.23.69,3.64.84,2.92,2.91-.57,1.66-2.37.77-3.74.46-.99-.23-2.06-.15-3.2-.22.19.57.2,1.07.41,1.17,16.5,8.16,16.39,25.68,8.3,39.68-7.05,12.2-19.37,17.55-30.57,14.75-8.98-2.25-11.49-9.31-12.63-16.56-1.96-12.41,1-23.86,10.06-33.23,3.69-3.81,8.61-5.36,14.29-7.65Z"/>
      <path class="cls-1" d="M248.87,267.1c10.81,1.56,21.57,2.11,30.98,8.42,8.67,5.83,9.21,18.82.67,24.74-3.93,2.73-12.49,1.19-16.52-3.22-2.14-2.34-4.32-4.82-5.68-7.63-3.62-7.48-10.92-10.07-17.64-12.12-5.58-1.71-11.67,1.63-17.27,3.72-6.49,2.43-12.51,5.71-17.38,10.84-1.56,1.64-3.08,4.74-5.89,1.75-2.41-2.57-3.1-5.51-.28-8.46,3.98-4.15,8.77-7.18,13.86-9.63,11.13-5.37,23.23-6.87,35.14-8.41Z"/>
    </g>
  </g>
</svg>