<?xml version="1.0" encoding="UTF-8"?>
<svg id="Layer_1" data-name="Layer 1" xmlns="http://www.w3.org/2000/svg" viewBox="0 0 512 512">
  <defs>
    <style>
      .cls-1 {
        fill: #ffe750;
      }

      .cls-2 {
        fill: #ec1c24;
      }

      .cls-3 {
        fill: #9d7eb8;
      }
    </style>
  </defs>
  <path d="M511.65,222.89c-1.81-6.92-9.37-11.93-15.87-13.42-8.31-2.13-15.02,1.6-21.83,4.26,1.49-6.6.96-15.66-2.77-20.98-4.79-3.94-11.61-6.5-17.47-4.47-8.09,2.66-12.35,15.76-13.95,23.11-1.49,6.71-2.13,6.39-3.62-.43-1.06-5.01-2.66-9.69-4.26-14.48-3.51-11.29-8.31-22.9-13.95-33.76.96.11,1.92.32,2.98.32,6.71,0,13.42-2.56,16.83-4.05,9.16-4.05,16.72-11.29,21.94-20.98,2.88-5.32,4.9-10.65,5.96-15.97l.11-.32c.21-1.49-.43-3.09-1.81-3.94-1.38-.85-3.09-.75-4.26.21-6.82,5.11-15.02,7.77-24.49,7.77h0c-15.76,0-29.5-7.24-30.03-7.45l19.6-4.26c1.38-.32,2.45-1.38,2.88-2.77.43-1.38,0-2.88-1.06-3.83l-28.43-26.52c-1.06-.96-2.56-1.28-3.83-.85-1.38.53-2.34,1.7-2.56,3.09l-3.3,23c-1.38-1.7-2.66-3.3-3.94-4.69-2.24-2.56-4.69-5.11-7.24-7.67-2.98-2.88-6.07-5.64-9.27-8.2-3.62-2.88-7.45-5.64-11.29-7.99-4.26-2.66-8.63-5.01-13.31-7.03-5.01-2.24-10.12-3.94-15.34-5.32-5.64-1.49-11.5-2.45-17.25-2.98-2.66-.21-5.32-.32-7.99-.32-3.73,0-7.45.21-11.29.64-5.22.53-26.62,5.43-35.25,7.99l-.32.11h-.11c-7.14-3.62-28.97-12.35-34.4-13.74-6.28-1.7-12.67-2.77-18.96-3.3-2.56-.21-5.11-.32-7.77-.32-3.3,0-6.6.21-9.8.53-5.32.53-10.65,1.49-15.97,2.88-4.79,1.28-9.58,2.88-14.27,4.9-4.15,1.7-8.31,3.83-12.35,6.18-3.51,2.02-7.03,4.26-10.44,6.6-2.98,2.13-5.75,4.26-8.31,6.39-1.49,1.17-2.98,2.56-4.58,4.05l.32-23.22c0-1.38-.75-2.77-2.02-3.41s-2.77-.64-3.94.21l-31.95,21.83c-1.17.85-1.81,2.13-1.6,3.62.11,1.38,1.06,2.66,2.45,3.19l18.74,7.35c-.43.11-10.01,3.41-21.83,3.41h0c-13.42,0-24.18-4.05-31.95-12.14-1.06-1.17-2.77-1.28-4.26-.64s-2.34,2.24-2.34,3.83c.21,5.32,1.38,10.86,3.41,16.61,3.73,10.33,10.12,18.74,18.42,24.17,3.94,2.56,11.82,6.92,19.6,6.92.53,0,1.17,0,1.7-.11,3.62-.32,7.45-.75,11.08-2.02,5.96-2.02,11.93-6.82,16.4-12.89v4.47c-11.18,11.82-26.62,31.42-35.25,49.2-3.41,7.03-5.86,14.59-7.88,22.15-1.81,6.71-1.6,14.06-3.73,20.66-.85,2.45-5.96,5.32-8.73,4.69-2.56-.64-3.51-5.01-4.58-7.14-1.38-2.88-2.77-5.96-5.22-8.2-2.98-2.88-7.88-3.62-11.82-2.45-3.94,1.17-6.18,4.37-7.24,8.09-.53,1.92-.85,3.73-.96,5.75,0,.75-.64,6.39-.11,6.6-3.94-2.34-12.25-1.38-16.29-.11-5.32,1.7-9.8,7.67-7.88,13.31.75,2.02,1.7,4.37,3.09,6.07,1.06,1.38,2.98,2.34,3.83,3.94,1.7,2.98-4.26,5.22-5.86,7.67-2.45,3.62-3.09,8.31-2.24,12.57.96,4.47,3.94,8.63,8.2,10.33,2.34.85,4.79,1.6,7.03,2.34,2.13.75,2.56,1.38,2.45,3.83,0,7.14,2.88,15.12,9.05,18.96,5.64,3.41,15.23,3.51,21.51,0,3.62-2.24,5.86-6.5,7.24-10.44,1.06-3.09,2.24-6.39,2.24-9.69,0-3.09.21-6.18-.32-9.16-.43-1.81-1.38-3.62-1.06-5.54,2.77-.75,5.54-1.92,8.31-2.66,4.37-1.17,6.07,7.77,7.03,10.54,2.02,5.96,4.05,12.03,7.03,17.57,19.49,44.41,67.63,67.84,112.89,71.46,7.14.64,12.67.32,19.81,1.7,4.15,11.61,6.39,22.26,8.73,34.51-19.49,6.71-39.62,8.09-56.98,20.13-4.69,4.58-10.22,10.12-6.82,17.04,5.75,16.4,23.64,15.34,37.59,15.55,20.45-.96,40.68-4.79,59.85-6.71,30.03,7.14,65.6,15.44,96.81,5.22,6.39-4.9,10.54-13.53,8.73-21.83-11.82-22.47-38.13-28.75-62.19-30.46-4.58-.96-11.08.32-15.87-1.38l-.53-22.47.85-2.45c12.57-1.28,26.3-3.73,38.13-6.71,35.57-7.03,68.37-29.18,91.27-60.06,5.86-7.88,10.22-15.76,12.99-25.24,1.38-4.69,2.34-9.37,3.19-14.16.32-2.02.53-2.66,2.66-3.09,1.6-.32,3.19-.21,4.79-.21h.75c2.02-.21,5.01-1.17,7.03-.32,1.49.64.75,3.09.75,4.37-.32,11.61,4.05,26.62,16.51,30.25,6.5,1.7,13.84.85,19.38-2.24,11.4-8.41,12.89-21.83,9.58-34.51,3.73.64,7.67-.21,10.54-2.77,3.09-2.77,3.41-5.96,2.66-9.9-.21-1.28-.53-2.34-1.28-3.51-.75-1.17-3.3-2.66-1.06-3.62,1.17-.53,2.56-.75,3.73-1.17,2.56-.96,4.79-2.34,6.28-4.69,1.6-4.9,2.77-9.16,1.81-14.8ZM435.19,134.6c6.39,0,12.46-.96,18-3.09-.32.75-.75,1.49-1.17,2.24-4.37,7.99-10.54,13.95-17.89,17.15-2.77,1.28-8.2,3.3-13.21,3.3-1.17,0-2.13-.11-3.09-.32-2.88-.75-6.07-1.6-8.73-2.98-4.47-2.34-8.73-7.24-11.4-13.21-1.7-3.83-2.34-8.52-1.81-12.57.75.21,1.17.32,1.7.43.53.11,1.17.21,1.92.32.53.11,1.28.11,1.49.21,1.6.85,16.4,8.52,34.19,8.52ZM398.34,91.58l17.79,16.51-20.77,4.58,2.98-21.09ZM386.2,122.46l-2.98,20.98-17.36-16.08c4.58-.96,9.16-2.02,13.84-3.41l6.5-1.49ZM292.69,71.77c3.41-.32,6.92-.53,10.33-.53,2.45,0,4.9.11,7.24.32,5.32.43,10.54,1.28,15.66,2.66,4.79,1.28,9.48,2.88,13.95,4.9,4.15,1.81,8.2,3.94,12.14,6.39,3.51,2.24,7.03,4.69,10.44,7.35,2.88,2.34,5.75,4.9,8.52,7.56,2.34,2.34,4.69,4.69,6.71,7.14,1.7,1.92,3.3,3.94,4.79,5.86l.11.11c-15.12,5.11-29.61,7.67-43.03,7.67-45.58,0-68.69-28.86-77.1-42.71,8.52-2.24,25.03-6.18,30.25-6.71ZM124.11,92.96c1.7-1.6,3.62-3.41,5.64-5.11,2.45-2.02,5.01-4.05,7.77-5.96,3.09-2.24,6.39-4.26,9.69-6.18,3.73-2.13,7.56-4.05,11.4-5.64,4.26-1.81,8.63-3.3,13.1-4.47,4.79-1.28,9.69-2.13,14.48-2.66,2.98-.32,5.96-.43,8.95-.43,2.34,0,4.69.11,7.03.32,5.75.43,11.5,1.49,17.25,2.98,4.9,1.28,20.66,7.67,28.75,11.18-8.95,10.22-31.84,31.2-68.16,31.2-9.37,0-19.06-1.38-28.86-4.26l-3.73-1.06-23.96-9.37c.21-.11.43-.32.64-.53ZM119.1,101.37l19.81,7.67-20.02,13.53.21-21.19ZM105.26,114.69c-3.51,5.43-8.52,9.69-13.31,11.29-2.77.96-6.07,1.28-9.05,1.6h-.96c-3.94,0-9.37-2.02-14.8-5.54-6.71-4.37-11.93-11.18-14.91-19.7-.32-.85-.53-1.6-.85-2.45,7.88,4.37,17.15,6.6,27.69,6.6,13.63,0,24.28-3.73,24.81-3.94h.11c.11,0,2.24.11,2.66.11h.53c.53,0,1.81-.11,1.81-.11-.11,4.05-1.49,8.63-3.73,12.14ZM91.84,82.52l20.02-13.53-.32,21.19-19.7-7.67ZM501.54,229.28c-1.6,3.73-5.75,5.11-9.16,6.39-2.77,1.06-5.22,2.02-8.31,2.45-1.92.32-3.83.64-5.64,1.38-2.13.96-5.22,4.58-2.02,6.5,1.38.75,3.62.21,5.11,0,1.81-.21,3.83-.21,5.64,0,1.81.21,3.3.75,4.15,2.34,2.34,4.05-2.02,7.24-5.75,7.35-3.62.21-5.86-1.49-9.05-2.66-2.56-.96-6.82-.43-5.01,3.19.64,1.28,2.02,2.02,2.88,3.09,2.56,2.77,5.22,6.07,5.64,9.9.96,8.09-.85,14.48-5.96,20.66-4.79,3.3-10.22,3.94-15.34.85-3.3-4.15-5.01-9.37-5.32-14.59-.21-2.56-.21-5.54.64-7.99.75-2.45,1.28-4.69.75-7.35-.32-1.6-1.7-3.51-2.88-4.69-1.38-1.28-3.3-.96-5.11-.85-4.26.21-8.41.43-12.67.75-3.83.21-7.67.96-11.5,1.38-3.51.32-5.22,1.6-5.54,5.22-.32,3.3-.85,6.5-1.7,9.8-1.49,6.39-3.94,12.67-6.82,18.53-7.77,15.55-19.6,29.07-33.01,40.04-6.82,5.54-14.06,10.54-21.62,14.91-7.03,3.94-14.59,7.99-22.36,10.22-16.72,4.9-33.55,8.52-52.4,9.9-3.09-.85-5.43-.53-8.31,1.17.53,12.25-.85,25.24-.32,37.7,6.07,8.41,20.02,1.81,29.18,4.37,17.04,2.13,34.82,5.32,47.18,18.74,3.3,2.77,1.81,8.09,1.49,11.93-1.49,9.05-11.61,8.63-17.89,9.9-24.28.96-49.73-2.24-71.99-9.69l1.17-6.28c-2.24-23.11-3.94-43.24-3.09-66.56,1.49-.64.11-1.92.32-2.77-2.02-2.13-4.15-4.15-6.71-4.26-9.27,1.17-3.83,11.61-5.43,17.36l3.09,53.99c-.96,3.09.53,7.99-2.77,9.9-23.64,4.47-46.22,6.39-70.18,4.26-3.94-1.17-6.28-4.79-7.88-8.31.32-6.82,7.14-11.93,12.67-14.38,13.21-5.75,28.43-7.88,41.64-12.14,4.15,0,10.44,2.34,12.25-3.62-4.26-14.59-7.35-30.03-10.22-44.73l-3.62-3.62c-50.69,2.45-106.82-16.61-129.5-65.18-3.94-10.76-10.01-21.19-10.65-32.91-.21-3.19-4.47-4.69-7.03-4.69-2.98,0-5.75,1.17-8.63,2.02s-5.75,1.6-8.73,2.45c-2.13.64-4.47,1.6-6.28,3.09-1.38,1.17-1.28.64-1.06,2.34.21,1.28.85,2.56,1.17,3.73,1.06,4.58,1.49,11.08-.11,15.66-1.81,5.11-3.3,9.9-8.31,13.1-2.34,1.49-5.64.64-7.56-.85-6.28-4.9-5.43-14.06-3.19-20.87.96-3.09,2.88-5.96,3.62-9.05.53-2.13.21-4.47-1.38-5.96-6.28-6.07-10.86,8.84-14.38,11.5-4.05,3.19-9.9-.85-10.01-5.64-.11-5.01,3.73-8.41,7.14-11.29,2.66-2.24,5.96-3.83,9.16-5.22,3.3-1.38,14.7-5.43,9.27-10.33-6.6-6.07-14.48,6.6-20.77.53-3.51-1.92-1.81-6.82.85-8.73,2.45-1.81,6.18-1.38,8.95-.96,3.19.43,5.96,1.49,8.95,2.88,1.81.85,5.75,2.02,6.28-.85.64-3.19-3.51-6.18-4.37-8.95-.96-3.3-.53-7.88,1.7-10.54,3.94-4.69,7.56,1.92,9.27,5.11,1.6,3.09,2.56,6.07,3.41,9.37.64,2.34,1.38,4.69,3.41,5.75,2.34,1.28,4.79-.64,7.14-1.38,2.66-.85,4.9-1.7,7.24-2.98,4.37-2.45,7.56-3.62,9.16-8.63,1.92-6.07,1.49-12.67,2.98-18.85,1.7-7.35,3.51-14.7,7.03-21.41,12.99-24.81,28.33-42.81,44.73-56.34l18.42-12.35,1.06.32c10.65,3.09,21.09,4.58,31.2,4.58,39.72,0,65.28-23.64,74.34-33.76.11-.21.32-.32.43-.53.11.11.11.21.21.43,9.05,14.16,35.36,46.65,85.2,46.65,4.58,0,9.58-.32,14.8-.96.43,0,.75-.11,1.17-.21l27.05,25.13c.75.64,1.6,1.06,2.56,1.06.43,0,.85-.11,1.28-.21,1.38-.53,2.34-1.6,2.56-3.09l1.17-8.31c2.77,5.32,6.6,9.9,10.86,13.1,5.86,7.56,11.08,15.44,14.38,25.67,5.01,15.55,6.07,21.94,8.73,29.61,1.81,5.01,1.38,11.82,4.9,16.19,2.56,3.19,10.12,5.86,14.06,4.26,4.58-1.81,5.75-6.71,6.07-11.18.43-6.5,1.49-12.67,4.58-18.53,1.28-1.6,2.56-3.51,4.47-4.47.96-.53,3.09-1.6,4.15-1.49,5.11.32,2.34,11.08,1.92,13.53-.43,2.34-.64,4.58-1.28,6.92-.96,3.41-2.98,6.82-2.66,10.65.21,2.24,1.92,5.22,4.05,6.07,3.3,1.38,6.07-2.66,8.2-4.58,6.28-5.64,16.08-14.27,25.24-10.33,3.19,2.34,4.79,6.5,3.19,10.22Z"/>
  <path class="cls-3" d="M498.55,218.95c-9.16-3.94-18.96,4.69-25.24,10.33-2.13,1.92-4.9,5.96-8.2,4.58-2.13-.85-3.83-3.94-4.05-6.07-.32-3.73,1.7-7.14,2.66-10.65.64-2.24.85-4.58,1.28-6.92.43-2.45,3.19-13.31-1.92-13.53-1.06-.11-3.19.96-4.15,1.49-1.81.96-3.19,2.88-4.47,4.47-2.98,5.86-4.15,12.03-4.58,18.53-.32,4.47-1.49,9.37-6.07,11.18-3.83,1.49-11.5-1.06-14.06-4.26-3.51-4.37-3.19-11.18-4.9-16.19-2.66-7.56-3.83-14.06-8.73-29.61-3.3-10.33-8.41-18.1-14.38-25.67-4.26-3.09-8.09-7.67-10.86-13.1l-1.17,8.31c-.21,1.38-1.17,2.56-2.56,3.09-.43.11-.85.21-1.28.21-.96,0-1.92-.32-2.56-1.06l-27.05-25.13c-.43.11-.75.11-1.17.21-5.22.64-10.22.96-14.8.96-49.84,0-76.15-32.48-85.2-46.65-.11-.11-.11-.21-.21-.43-.11.21-.32.32-.43.53-9.16,10.12-34.61,33.76-74.34,33.76-10.12,0-20.66-1.49-31.2-4.58l-1.06-.32-18.42,12.35c-16.4,13.53-31.74,31.52-44.73,56.34-3.51,6.71-5.32,14.06-7.03,21.41-1.49,6.18-1.06,12.78-2.98,18.85-1.7,5.11-4.9,6.28-9.16,8.63-2.34,1.28-4.69,2.13-7.24,2.98-2.24.75-4.69,2.66-7.14,1.38-2.13-1.17-2.88-3.51-3.41-5.75-.85-3.3-1.81-6.39-3.41-9.37-1.7-3.19-5.32-9.69-9.27-5.11-2.24,2.66-2.66,7.35-1.7,10.54.85,2.77,5.01,5.75,4.37,8.95-.53,2.88-4.47,1.7-6.28.85-2.88-1.38-5.75-2.45-8.95-2.88-2.77-.43-6.5-.75-8.95.96-2.66,1.92-4.37,6.82-.85,8.73,6.28,6.07,14.06-6.6,20.77-.53,5.43,4.9-5.96,8.84-9.27,10.33-3.19,1.38-6.5,2.98-9.16,5.22-3.41,2.88-7.24,6.28-7.14,11.29.11,4.79,5.96,8.84,10.01,5.64,3.51-2.66,8.09-17.57,14.38-11.5,1.6,1.6,1.92,3.83,1.38,5.96-.75,3.09-2.66,5.96-3.62,9.05-2.13,6.82-3.09,15.97,3.19,20.87,2.02,1.49,5.32,2.34,7.56.85,5.01-3.19,6.39-7.88,8.31-13.1,1.6-4.47,1.17-10.97.11-15.66-.32-1.17-.96-2.45-1.17-3.73-.21-1.7-.32-1.28,1.06-2.34,1.81-1.49,4.05-2.45,6.28-3.09,2.88-.85,5.86-1.6,8.73-2.45,2.88-.85,5.54-2.13,8.63-2.02,2.56,0,6.82,1.6,7.03,4.69.64,11.71,6.71,22.15,10.65,32.91,22.79,48.56,78.91,67.63,129.39,64.75l3.62,3.62c2.77,14.7,5.96,30.25,10.22,44.73-1.81,5.96-8.09,3.62-12.25,3.62-13.21,4.26-28.43,6.39-41.64,12.14-5.64,2.45-12.35,7.56-12.67,14.38,1.6,3.51,3.94,7.14,7.88,8.31,23.96,2.13,46.54.21,70.18-4.26,3.3-1.92,1.81-6.82,2.77-9.9l-3.09-53.99c1.6-5.75-3.83-16.19,5.43-17.36,2.66.21,4.79,2.13,6.71,4.26-.21.85,1.17,2.13-.32,2.77-.85,23.32.75,43.45,3.09,66.56l-1.17,6.28c22.26,7.45,47.71,10.65,71.99,9.69,6.28-1.28,16.4-.85,17.89-9.9.32-3.83,1.81-9.05-1.49-11.93-12.35-13.42-30.25-16.51-47.18-18.74-9.27-2.45-23.11,4.05-29.18-4.37-.43-12.35.85-25.45.32-37.7,2.77-1.6,5.11-1.92,8.31-1.17,18.85-1.28,35.68-4.9,52.4-9.9,7.77-2.34,15.34-6.28,22.36-10.22,7.56-4.37,14.8-9.27,21.62-14.91,13.42-10.97,25.24-24.49,33.01-40.04,2.98-5.96,5.32-12.14,6.82-18.53.75-3.19,1.38-6.5,1.7-9.8.32-3.62,2.02-4.79,5.54-5.22,3.83-.43,7.67-1.06,11.5-1.38,4.26-.21,8.52-.53,12.67-.75,1.92-.11,3.83-.43,5.11.85,1.17,1.17,2.56,3.09,2.88,4.69.53,2.66.11,4.9-.75,7.35-.75,2.45-.75,5.54-.64,7.99.32,5.22,2.02,10.44,5.32,14.59,5.11,3.09,10.54,2.45,15.34-.85,5.11-6.07,6.92-12.57,5.96-20.66-.43-3.83-3.09-7.03-5.64-9.9-.96-1.06-2.24-1.81-2.88-3.09-1.92-3.62,2.34-4.15,5.01-3.19,3.19,1.06,5.43,2.77,9.05,2.66,3.73-.21,7.99-3.3,5.75-7.35-.96-1.6-2.34-2.13-4.15-2.34-1.81-.11-3.83-.11-5.64,0-1.49.21-3.73.75-5.11,0-3.3-1.92-.21-5.43,2.02-6.5,1.81-.85,3.73-1.06,5.64-1.38,2.98-.53,5.43-1.38,8.31-2.45,3.41-1.28,7.56-2.77,9.16-6.39,1.49-3.19-.11-7.35-3.09-9.8ZM254.78,147.49l.11-.53v-.85c.11-.21.32-1.06.32-1.06.53-2.24,1.17-4.05,2.13-5.43,2.56-5.22,6.18-8.84,10.76-10.97,1.06-.53,2.24-.96,3.51-1.28,10.76-2.88,21.83,2.34,22.26,2.56,1.38.64,2.02,2.34,1.38,3.73-.32.75-1.06,1.28-1.81,1.49-.64.21-1.38.11-1.92-.21-.11,0-9.8-4.58-18.42-2.24-.85.21-1.81.53-2.66.96-.21.11-.43.21-.64.43l-1.6.96,1.49.53c1.81.32,3.3.75,4.37,1.49,1.49.96,2.77,2.24,3.94,3.73,1.17,1.6,2.24,3.62,2.88,5.64.96,2.88,1.38,6.07,1.17,9.27-.11,2.77-.43,5.54-1.38,7.88-.32.64-.64,1.28-1.06,1.92-1.17,1.49-2.88,2.66-5.22,3.73-.64.21-1.17.43-1.81.64-2.45.64-4.79.64-7.03-.21-4.26-1.49-7.77-5.32-9.69-10.54-1.38-3.51-1.81-7.67-1.06-11.61ZM248.39,170.06c6.6,2.13,12.46,9.16,13.95,15.97,2.02,9.05-2.98,19.49-11.29,23.75-1.28.75-2.66,1.28-4.05,1.7-9.37,3.3-23.32,1.92-29.82-6.28-1.28-1.7-2.34-3.62-2.98-5.86-.85-3.09-.96-6.18-.11-9.37.75-2.56.75-5.11,2.02-7.56,1.49-3.09,3.83-5.86,6.6-7.99,2.98-2.24,6.82-2.98,10.33-4.05,5.43-1.38,10.01-2.13,15.34-.32ZM190.35,127.04c.43-.21,11.71-5.01,22.36-1.81,1.17.32,2.34.85,3.41,1.38,4.47,2.24,7.99,6.07,10.33,11.29.85,1.38,1.49,3.19,1.92,5.43,0,0,.21.85.32,1.06s0,.53,0,.85v.53c.53,3.94,0,8.09-1.49,11.71-2.13,5.11-5.75,8.84-10.12,10.12-2.24.75-4.58.64-7.03-.11-.64-.21-1.17-.43-1.81-.75-2.24-1.06-3.94-2.34-5.01-3.83-.43-.53-.75-1.28-1.06-1.92-.96-2.45-1.06-5.11-1.06-7.99,0-3.19.53-6.39,1.6-9.16.75-2.02,1.81-3.94,3.09-5.54,1.28-1.49,2.56-2.77,4.15-3.62,1.17-.64,2.56-1.06,4.47-1.38l1.49-.43-1.6-.96c-.21-.11-.43-.32-.64-.43-.85-.43-1.7-.75-2.56-1.06-8.52-2.66-18.32,1.49-18.42,1.6-.64.21-1.28.32-1.92.11-.75-.21-1.38-.85-1.7-1.6-.85-1.28-.11-2.98,1.28-3.51ZM197.91,200.42c2.98-3.94,8.63.75,7.56,4.69-.96,3.51-5.43,3.62-7.35,1.06-.75-.85-1.17-2.02-1.06-3.09,0-.85.32-1.92.85-2.66ZM195.78,184.33c-.11-.32-.11-.75-.11-1.06.21-2.77,3.62-2.56,5.54-1.6,2.45,1.17,3.51,4.69,1.38,6.18-.32.21-.75.43-1.17.53-1.17.32-2.45-.11-3.51-.96h0l-.11-.11-.11-.11c-.11-.11-.21-.11-.32-.21-.75-.75-1.38-1.7-1.6-2.66ZM194.5,216.92l-.43.43c-.64.53-1.38,1.06-2.24,1.28-.64.11-1.28.11-1.92-.11-.75-.32-1.38-.64-1.92-1.06-1.49-1.17-2.77-4.69-.75-6.07,1.81-1.28,5.54.85,6.71,2.24.75.85,1.17,2.13.53,3.3ZM187.9,194.13c2.98-.11,6.92,4.69,3.41,6.82-2.34,1.38-5.96.11-6.6-2.56-.11-.21-.11-.43-.11-.75,0-1.81,1.49-3.51,3.3-3.51ZM176.93,182.84c2.34-6.28,13.95,4.37,4.9,5.54-.85.11-1.81,0-2.56-.43-1.6-.75-2.98-3.51-2.34-5.11ZM171.61,204.57c1.81-2.02,5.32-1.28,6.82.53,1.81,2.34,0,4.37-2.02,5.43-1.92.32-4.37-.75-5.32-2.34-.53-1.06-.53-2.34.53-3.62ZM309.73,287.74c-15.34,18-36.85,27.37-63.9,27.9-.21,0-.32.11-.53.11h-1.92c-.21,0-.32-.11-.53-.11-27.05-.53-48.56-9.8-63.9-27.9-37.49-44.2-24.81-124.07-24.28-127.48.43-2.56,2.77-4.15,5.32-3.83,2.56.43,4.26,2.77,3.83,5.32-.11.75-12.46,79.13,22.26,120.02,13.74,16.19,33.33,24.49,58.25,24.71,24.92-.21,44.52-8.52,58.25-24.71,34.72-40.9,22.36-119.17,22.26-120.02-.43-2.56,1.28-4.9,3.83-5.32,2.56-.43,4.9,1.28,5.32,3.83.53,3.41,13.21,83.39-24.28,127.48Z"/>
  <path class="cls-2" d="M222.51,187.64c-.32,1.06-.43,2.45-.64,3.62-1.6,9.27,8.41,14.27,16.29,14.27,8.95-.11,15.97-8.52,15.87-17.04,0-3.51-2.24-7.88-5.32-9.69-3.94-2.34-9.8-4.26-14.38-2.34-2.34,1.06-4.47,2.66-6.28,4.47-1.06,1.06-2.02,2.24-2.98,3.3-.85.96-2.02,2.02-2.56,3.3v.11Z"/>
  <path d="M216.12,182.52c-1.17,2.45-1.28,4.9-2.02,7.56-.85,3.19-.85,6.18.11,9.37.64,2.24,1.6,4.15,2.98,5.86,6.6,8.2,20.45,9.48,29.82,6.28,1.38-.53,2.77-1.06,4.05-1.7,8.31-4.26,13.21-14.59,11.29-23.75-1.49-6.82-7.24-13.84-13.95-15.97-5.43-1.81-9.9-1.06-15.34.53-3.51,1.06-7.35,1.81-10.33,4.05-2.77,1.92-5.11,4.69-6.6,7.77ZM228.05,180.82c1.81-1.81,3.94-3.51,6.28-4.47,4.47-1.92,10.44,0,14.38,2.34,2.98,1.81,5.22,6.18,5.32,9.69.11,8.63-6.92,16.93-15.87,17.04-7.88.11-17.89-5.01-16.29-14.27.21-1.17.32-2.56.64-3.62q0-.11.11-.21c.43-1.28,1.7-2.34,2.56-3.3.85-.96,1.81-2.13,2.88-3.19Z"/>
  <path d="M179.27,187.96c.85.43,1.7.53,2.56.43,9.16-1.17-2.56-11.82-4.9-5.54-.64,1.6.75,4.37,2.34,5.11Z"/>
  <path d="M197.8,187.32c.11,0,.11.11.11.11h0c1.06.75,2.34,1.28,3.51.96.43-.11.85-.32,1.17-.53,2.13-1.49,1.06-5.01-1.38-6.18-1.81-.85-5.22-1.17-5.54,1.6,0,.32,0,.64.11,1.06.21.96.85,2.02,1.6,2.77.11,0,.21.11.43.21-.11,0,0,0,0,0Z"/>
  <path d="M184.71,198.29c.64,2.66,4.26,3.94,6.6,2.56,3.62-2.13-.32-6.92-3.41-6.82-1.81.11-3.3,1.7-3.3,3.51,0,.32,0,.53.11.75Z"/>
  <path d="M205.47,205.21c1.17-3.94-4.58-8.63-7.56-4.69-.53.75-.85,1.81-.96,2.77,0,1.06.43,2.13,1.06,3.09,2.02,2.34,6.5,2.34,7.45-1.17Z"/>
  <path d="M176.51,210.64c2.02-1.06,3.83-3.09,2.02-5.43-1.49-1.92-5.01-2.66-6.82-.53-1.06,1.28-1.06,2.56-.43,3.62.85,1.49,3.19,2.66,5.22,2.34Z"/>
  <path d="M187.26,211.28c-2.02,1.38-.75,5.01.75,6.07.53.43,1.28.85,1.92,1.06.64.32,1.28.32,1.92.11.85-.21,1.6-.64,2.24-1.28.21-.11.32-.32.43-.43.53-1.17.21-2.45-.64-3.41-1.06-1.38-4.9-3.41-6.6-2.13Z"/>
  <path class="cls-3" d="M286.52,203.18c0,1.06-.43,2.13-1.06,3.09-1.92,2.56-6.28,2.45-7.35-1.06-1.17-3.94,4.58-8.63,7.56-4.69.43.64.85,1.7.85,2.66Z"/>
  <path class="cls-3" d="M286.09,187.1c-.11.11-.21.11-.32.21l-.11.11c-.11,0-.11.11-.11.11h0c-1.06.75-2.34,1.28-3.51.96-.43-.11-.85-.32-1.17-.53-2.13-1.49-1.06-5.01,1.38-6.18,1.81-.85,5.22-1.17,5.54,1.6,0,.32,0,.64-.11,1.06-.21.85-.75,1.81-1.6,2.66Z"/>
  <path class="cls-3" d="M289.61,213.52c1.17-1.38,4.9-3.51,6.71-2.24,2.02,1.38.75,5.01-.75,6.07-.53.43-1.28.85-1.92,1.06-.64.32-1.28.32-1.92.11-.85-.21-1.6-.64-2.24-1.28-.21-.11-.32-.32-.43-.43-.64-1.06-.32-2.34.53-3.3Z"/>
  <path class="cls-3" d="M298.87,197.65c0,.21,0,.43-.11.75-.64,2.66-4.26,3.94-6.6,2.56-3.62-2.13.32-6.92,3.41-6.82,1.92,0,3.3,1.7,3.3,3.51Z"/>
  <path class="cls-3" d="M304.3,187.96c-.85.43-1.7.53-2.56.43-9.16-1.17,2.56-11.82,4.9-5.54.53,1.6-.85,4.37-2.34,5.11Z"/>
  <path class="cls-3" d="M312.4,208.19c-.96,1.6-3.3,2.66-5.32,2.34-2.02-1.06-3.83-3.09-2.02-5.43,1.49-1.92,5.01-2.66,6.82-.53,1.06,1.28,1.06,2.56.53,3.62Z"/>
  <path d="M304.3,187.96c-.85.43-1.7.53-2.56.43-9.16-1.17,2.56-11.82,4.9-5.54.53,1.6-.85,4.37-2.34,5.11Z"/>
  <path d="M285.77,187.32c-.11,0-.11.11-.11.11h0c-1.06.75-2.34,1.28-3.51.96-.43-.11-.85-.32-1.17-.53-2.13-1.49-1.06-5.01,1.38-6.18,1.81-.85,5.22-1.17,5.54,1.6,0,.32,0,.64-.11,1.06-.21.96-.85,2.02-1.6,2.77-.21,0-.32.11-.43.21h0Z"/>
  <path d="M298.76,198.29c-.64,2.66-4.26,3.94-6.6,2.56-3.62-2.13.32-6.92,3.41-6.82,1.81.11,3.3,1.7,3.3,3.51,0,.32,0,.53-.11.75Z"/>
  <path d="M278,205.21c-1.17-3.94,4.58-8.63,7.56-4.69.53.75.85,1.81.96,2.77,0,1.06-.43,2.13-1.06,3.09-2.02,2.34-6.39,2.34-7.45-1.17Z"/>
  <path d="M307.07,210.64c-2.02-1.06-3.83-3.09-2.02-5.43,1.49-1.92,5.01-2.66,6.82-.53,1.06,1.28,1.06,2.56.43,3.62-.85,1.49-3.3,2.66-5.22,2.34Z"/>
  <path d="M296.32,211.28c2.02,1.38.75,5.01-.75,6.07-.53.43-1.28.85-1.92,1.06-.64.32-1.28.32-1.92.11-.85-.21-1.6-.64-2.24-1.28-.21-.11-.32-.32-.43-.43-.53-1.17-.21-2.45.64-3.41,1.06-1.38,4.79-3.41,6.6-2.13Z"/>
  <path class="cls-2" d="M399.51,125.87c-.64-.11-1.38-.21-1.92-.32-.43-.11-.96-.21-1.7-.43-.53,4.05.11,8.73,1.81,12.57,2.56,5.96,6.92,10.86,11.4,13.21,2.66,1.38,5.96,2.24,8.73,2.98.85.21,1.92.32,3.09.32,5.01,0,10.44-2.13,13.21-3.3,7.35-3.3,13.53-9.16,17.89-17.15.43-.75.75-1.49,1.17-2.24-5.54,2.02-11.61,3.09-18,3.09-17.79,0-32.59-7.67-34.08-8.52-.32,0-.96-.11-1.6-.21Z"/>
  <path class="cls-1" d="M365.75,127.36l17.36,16.08,2.98-20.98-6.6,1.38c-4.58,1.49-9.16,2.66-13.74,3.51Z"/>
  <polygon class="cls-1" points="398.34 91.58 395.36 112.66 416.02 108.08 398.34 91.58"/>
  <path class="cls-2" d="M106.64,102.76c-.43,0-2.56-.11-2.66-.11h-.11c-.53.21-11.18,3.94-24.81,3.94-10.44,0-19.7-2.24-27.69-6.6.21.85.53,1.6.85,2.45,3.09,8.52,8.2,15.34,14.91,19.7,5.43,3.51,10.76,5.54,14.8,5.54h.96c3.09-.32,6.28-.64,9.05-1.6,4.79-1.6,9.8-5.86,13.31-11.29,2.34-3.51,3.73-8.09,3.73-12.14,0,0-1.28.11-1.81.11h-.53Z"/>
  <path class="cls-2" d="M151.05,104.04c9.8,2.77,19.49,4.26,28.86,4.26,36.21,0,59.11-20.87,68.16-31.2-7.99-3.51-23.75-9.9-28.75-11.18-5.75-1.49-11.61-2.56-17.25-2.98-2.34-.21-4.69-.32-7.03-.32-2.98,0-5.96.11-8.95.43-4.79.53-9.69,1.38-14.48,2.66-4.37,1.17-8.73,2.66-13.1,4.47-3.83,1.6-7.67,3.51-11.4,5.64-3.3,1.81-6.5,3.94-9.69,6.18-2.66,1.92-5.32,3.94-7.77,5.96-2.02,1.7-3.94,3.41-5.64,5.11-.21.21-.43.43-.64.64l23.96,9.37,3.73.96Z"/>
  <path class="cls-2" d="M339.55,121.18c13.42,0,27.9-2.56,43.03-7.67l-.11-.11c-1.49-2.02-3.09-3.94-4.79-5.86-2.02-2.34-4.37-4.79-6.71-7.14-2.77-2.66-5.64-5.22-8.52-7.56-3.41-2.66-6.92-5.11-10.44-7.35-3.94-2.45-8.09-4.69-12.14-6.39-4.47-2.02-9.16-3.62-13.95-4.9-5.11-1.38-10.44-2.24-15.66-2.66-2.34-.21-4.79-.32-7.24-.32-3.41,0-6.82.21-10.33.53-5.11.53-21.73,4.47-30.14,6.71,8.31,13.84,31.42,42.71,77,42.71Z"/>
  <polygon class="cls-1" points="119.1 101.37 118.78 122.67 138.91 109.15 119.1 101.37"/>
  <polygon class="cls-1" points="111.86 69 91.84 82.52 111.54 90.19 111.86 69"/>
  <path d="M328.69,156.54c-2.56.43-4.26,2.77-3.83,5.32.11.75,12.46,79.13-22.26,120.02-13.74,16.19-33.33,24.49-58.25,24.71-24.92-.21-44.52-8.52-58.25-24.71-34.72-40.9-22.36-119.17-22.26-120.02.43-2.56-1.28-4.9-3.83-5.32-2.56-.43-4.9,1.28-5.32,3.83-.53,3.41-13.21,83.28,24.28,127.48,15.34,18,36.85,27.37,63.9,27.9.21,0,.32.11.53.11h1.92c.21,0,.32-.11.53-.11,27.05-.53,48.56-9.8,63.9-27.9,37.49-44.2,24.81-124.07,24.28-127.48-.43-2.56-2.77-4.26-5.32-3.83Z"/>
  <path d="M265.54,169.74c2.13.75,4.58.85,7.03.21.64-.21,1.28-.43,1.81-.64,2.34-.96,4.05-2.24,5.22-3.73.43-.53.85-1.17,1.06-1.92.96-2.34,1.28-5.11,1.38-7.88.21-3.19-.21-6.39-1.17-9.27-.75-2.02-1.7-4.05-2.88-5.64-1.17-1.6-2.56-2.88-3.94-3.73-1.06-.75-2.56-1.17-4.37-1.49l-1.49-.53,1.6-.96c.21-.11.43-.32.64-.43.85-.43,1.7-.75,2.66-.96,8.63-2.34,18.32,2.13,18.42,2.24.64.32,1.28.32,1.92.21.75-.21,1.49-.75,1.81-1.49.64-1.38.11-3.09-1.38-3.73-.43-.21-11.5-5.43-22.26-2.56-1.17.32-2.34.75-3.51,1.28-4.58,2.13-8.2,5.75-10.76,10.97-.85,1.28-1.6,3.09-2.13,5.43,0,0-.32.85-.32,1.06-.11.21-.11.53,0,.85l-.11.53c-.64,3.94-.32,8.09,1.06,11.82,1.81,5.01,5.43,8.84,9.69,10.33Z"/>
  <path d="M190.67,132.26c.64.21,1.28.21,1.92-.11.11,0,9.9-4.15,18.42-1.6.85.32,1.7.64,2.56,1.06.21.11.43.32.64.43l1.6.96-1.49.43c-1.81.21-3.3.64-4.47,1.38-1.49.85-2.88,2.13-4.15,3.62-1.28,1.6-2.34,3.51-3.09,5.54-1.06,2.88-1.6,5.96-1.6,9.16.11,2.77.21,5.54,1.06,7.99.32.64.64,1.28,1.06,1.92,1.06,1.49,2.77,2.77,5.01,3.83.53.32,1.17.53,1.81.75,2.34.75,4.79.75,7.03.11,4.37-1.38,7.99-5.01,10.12-10.12,1.49-3.62,2.02-7.77,1.49-11.71v-1.38c0-.21-.32-1.06-.32-1.06-.43-2.24-1.06-4.15-1.92-5.43-2.34-5.22-5.86-9.05-10.33-11.29-1.06-.53-2.24-1.06-3.41-1.38-10.65-3.3-21.83,1.6-22.36,1.81-1.38.64-2.13,2.24-1.49,3.73.43.53,1.06,1.17,1.92,1.38Z"/>
</svg>