<?xml version="1.0" encoding="UTF-8"?>
<svg id="Layer_1" data-name="Layer 1" xmlns="http://www.w3.org/2000/svg" viewBox="0 0 512 512">
  <defs>
    <style>
      .cls-1 {
        fill: #212121;
      }

      .cls-1, .cls-2, .cls-3 {
        fill-rule: evenodd;
      }

      .cls-2 {
        fill: #ffcd00;
      }

      .cls-3 {
        fill: #00a7e1;
      }
    </style>
  </defs>
  <path class="cls-1" d="M363.22,66.71c4.1-.32,7.78-.32,10.93.32,7.67,1.47,13.56,8.73,14.51,17.14.95,8.73-2.1,17.56-5.89,23.65-6.1,5.99-16.08,13.25-27.65,9.25-1.58,6.52-3.36,17.98-4.42,25.55-1.47,10.09-3.05,20.71-3.36,30.7-.42,11.04-2.1,23.13-2.84,35.11,10.09,10.3,25.02,18.71,28.49,35.11,1.26,6.2-.32,12.51-2.52,17.98-1.89,4.63-3.99,9.46-6.73,12.93-.84,1.16-2.42,1.89-3.68,3.05-1.16,1.16-2,2.84-3.05,3.68-1.68,1.26-3.78,2.1-5.57,3.36-1.79,1.26-3.36,3.05-5.57,3.36-2.31,2.21-4.63,4.52-8.41,5.36-1.37,15.14-2.63,28.7-3.89,44.99-.84,11.56-2.31,23.55-2.84,34.9-.84,20.08-2,40.26-12.3,53.19-2.73,3.47-7.15,6.1-10.62,9.25-3.57,3.26-7.78,5.57-11.46,8.41-1.05.21-1.79.84-3.05.84.11,8.3-2.1,15.35-2,23.65,12.19.74,32.69,1.68,42.16,8.2,3.15,2.1,8.2,7.99,6.73,14.3-.53,2.31-4.52,4.52-6.41,6.2-2.52,2.21-4.84,3.68-6.94,5.57-14.51,7.36-31.54,3.89-48.88,1.68-5.57-.74-11.14-2.63-15.87-2.52-3.15.11-7.15,1.58-11.14,2.52-14.61,3.57-36.27,13.14-49.2,3.05-3.68-2.84-6.41-7.15-5.89-14.61,9.04-12.4,26.18-16.72,45.84-18.61.11-7.04-2.42-13.88-2.84-21.34-12.62-2.31-24.39-3.57-33.54-10.41-5.15-3.78-10.2-7.57-13.67-12.4-5.89-8.2-10.3-22.08-12.3-34.06-3.68-21.87-3.26-49.41-1.68-71.7,1.26-17.98,2.52-39.21,5.05-57.08.21-1.58,1.05-3.15,1.37-4.73.84-4.73.95-9.36,1.68-14.09.42-2.84,1.26-5.57,1.68-8.41,1.05-7.57,2.73-16.93,3.05-25.55-2.84-2.21-8.62-1.26-13.14-1.68-2.21,4.73-3.89,10.51-7.78,14.93-3.05,3.26-9.67,7.15-16.5,6.2-7.67-1.05-13.14-7.57-11.77-17.14-2-1.68-4.52-.84-6.41-2-3.78-2.31-4.94-10.51-3.89-16.29.84-4.94,5.68-7.46,7.25-9.88-4.63-3.89-9.04-7.99-12.3-13.25-1.47-6.2-2.42-13.56,1.16-18.29-2.73-4.73-5.05-13.35-3.36-20.29.84-3.36,4.42-5.05,5.57-7.57,6.52-2.73,13.46-10.72,20.92-9.88,3.89.53,13.67,5.05,17.03,8.41,1.79,1.79,3.57,4.63,5.26,7.04,2.73,3.78,4.21,6.83,5.26,11.56,14.3.11,15.77,20.08,9.78,30.38,2.1,2,6.31,1.16,8.62.32,3.57-19.66,6.73-43.1,9.25-62.97-3.68.95-7.15,1.79-10.62,1.37-5.05-.63-8.52-3.78-11.77-6.2-3.99-7.78-4.94-16.61-2-25.02,2.42-6.94,8.94-13.46,14.82-15.98,4.31-1.89,12.72-3.05,17.03,0,3.15-7.25,4.73-14.93,7.78-21.66,1.37-3.05,3.78-5.89,5.57-9.04.84-1.47,1.79-3.05,2.84-4.52,3.99-5.47,8.41-10.83,13.98-15.14,1.37-1.05,2.52-2.31,3.68-3.05,2.42-1.58,5.89-2.84,8.94-4.52,4.84-2.63,8.83-4.42,14.51-6.52,1.79-.63,3.99-1.58,5.57-2,6.73-1.68,14.09-.84,21.55-1.68,10.41-1.16,23.97,3.89,32.17,7.57,2.1.95,4.1,2.21,6.1,3.68,5.26,3.68,9.99,6.94,13.98,12.09,8.62,10.83,13.88,24.28,13.67,43.21h0ZM293.41,499.83c13.67,1.58,25.86-.53,33.54-7.04,1.89-1.68,5.57-4.1,5.57-6.52-.11-5.57-11.35-7.57-17.35-8.73-7.57-1.47-15.66-2.42-22.92-1.37-1.68.21-3.47,1.26-5.26.84-1.79-.42-4.31-3.47-4.42-5.57-.11-1.16.63-2.73.84-4.21.32-1.89,0-3.89.32-5.57.74-5.15,2.63-10.51,1.16-14.93-.84-2.31-3.89-3.99-1.68-7.36.95-1.47,3.26-1.58,5.89-1.16,9.57-4.52,16.93-10.2,22.92-17.77,1.58-1.89,2-3.78,3.05-6.2.53-1.26,1.58-2.1,2-3.05,3.05-8.2,4.31-18.92,5.05-29.23,2.1-31.12,4.42-62.55,7.57-92.51,3.36-31.96,5.36-63.81,7.57-93.67.53-6.62.95-13.98,1.37-21.13.53-9.36,2.1-18.61,3.36-27.86,1.16-9.15,2.31-18.4,3.89-27.54,1.58-9.25,3.78-18.19,5.05-27.23,1.37-9.25,3.78-18.4,4.21-27.54.42-9.25-2.42-17.35-5.26-26.39-6.94-13.98-20.5-23.55-37.11-27.86-5.05-1.26-11.25-2.1-17.03-2-10.83.21-18.19,2.42-25.97,5.36-8.62,3.26-14.72,6.31-20.71,11.56-6.31,5.47-11.25,11.46-15.66,18.61-.95,1.47-2.21,2.52-3.05,3.89-2.31,3.78-3.57,9.15-5.26,14.09-1.79,4.94-3.36,10.2-4.42,14.93-.53,2.1-.32,4.52-.84,6.73-.63,2.84-1.58,5.15-2,8.2-.32,2.94-.95,5.89-1.37,9.04-2.63,17.87-4.63,36.37-7.25,53.19-.74,4.52-1.89,9.46-2.52,14.09-.84,6.2-.74,12.51-3.05,17.98-4.52,3.05-12.4-1.05-17.87-1.37-2.31-.11-4.31,1.16-6.73,0-6.2-3.15,2.31-8.94,3.68-12.09,2.52-6.1,2.63-13.88-2.21-17.98-1.58,1.37-1.79,3.15-4.21,4.73-2.21,1.47-5.99,2.52-6.41,5.57-.21,1.79,1.26,3.78,1.37,5.57,1.05,12.62-12.4,15.03-18.71,6.52-2.94-5.89-5.05-17.35-12.62-17.45-7.25-.11-8.94,8.52-6.1,14.09,1.89,3.68,5.89,6.62,9.78,9.04,2.21,1.37,3.15,2.42,4.21,2.52.95.11,2.31-.21,3.05-.32,11.04-.95,15.77,5.36,17.35,14.93,1.68,1.26,2.94,1.37,4.73,2.52,1.37.84,2.31,2.84,4.21,3.36,4.84,1.47,13.14-.11,17.87.53,8.52,1.16,4.94,10.3,3.89,18.61-.32,2.42-1.05,4.84-1.37,7.36-.42,2.73.11,5.68-.32,8.2-.42,2.42-1.79,5.15-2.21,7.36-.63,3.47-1.16,7.04-1.68,10.41-.95,6.62-2,11.35-2.52,17.45-.63,8.73-1.58,16.08-2.21,24.7-.42,5.68-1.16,11.35-1.37,17.14-1.58,31.01-4.1,66.76,5.26,94.19,4.63,13.35,12.72,23.02,24.81,28.7,6.62,2.63,15.24,4.31,22.6,3.89,2.1,1.58,5.78,2,6.94,4.73s.21,6.1.53,9.88c.21,2.1.95,4.84,1.37,7.36.84,5.05,2.21,9.25,3.36,12.93-1.68,4.21-4.31,2.84-8.62,2.84-5.05,0-10.51,1.16-15.87,2.84-5.26,1.68-10.51,2.63-14.19,4.52-3.05,1.58-9.36,5.68-8.62,9.88.63,3.89,8.09,6.41,12.3,6.52,3.47,0,7.25-.95,10.93-2,10.72-2.94,22.39-5.47,32.38-8.41,0-8.2.42-16.4,0-25.34-.32-7.04-2.73-15.14-.84-23.02,2.31-1.05,5.47-.32,6.94,1.16,1.58,2.31.11,5.89,0,8.41-.11,4.21,1.37,9.15,1.68,14.3.53,8.73-.53,17.03.84,24.18,5.89,3.15,15.45,3.89,24.39,4.94h0ZM190.7,83.11c-3.57,6.31-4.84,18.29,1.16,23.65,1.26,1.16,3.99,2.63,6.1,2.52,3.36-.11,8.52-5.05,9.46-7.36,1.37-3.15,1.47-8.52,2-12.62.42-3.05,3.26-10.2,2.52-13.46-.63-3.05-4.42-3.57-7.57-3.05-5.57.84-11.14,5.78-13.67,10.3h0ZM376.67,74.91c-4.42-1.79-12.4-3.26-14.51,1.16-.63,1.37-.74,4.31-1.16,6.73-1.58,8.83-2.63,18.19-4.42,25.34,1.47,1.05,2.84,2.21,4.21,3.36,16.29-.21,26.28-23.23,15.87-36.58h0ZM169.15,142.72c-1.26-3.36-4.84-8.3-6.94-10.41-1.47-1.37-4.42-2.42-6.41-3.36-2.73-1.26-6.31-4.52-9.46-.84,11.25,5.78,21.03,13.04,22.92,28.07,3.78-3.68,1.58-9.04-.11-13.46h0ZM158.85,148.29c-1.79-4.1-6.73-9.88-10.3-11.77-5.26-2.84-13.14-3.36-16.72-.32-3.99,3.57-3.57,14.82-.32,18.29,1.58-.74,2.52-1.47,4.21-1.68,9.36-1.16,14.72,7.04,17.87,12.93,9.36.74,7.99-11.25,5.26-17.45h0ZM155.49,171.1c-.32,4.31,4.21,5.99,7.57,4.21.95-1.58,1.16-4.94,0-6.52-2.94.42-5.15,1.47-7.57,2.31h0ZM140.14,210.74c1.89.21,2.31.11,4.21,0,3.57-5.68,10.62-7.78,14.51-13.25-5.47-11.98-27.75,1.68-18.71,13.25h0ZM149.28,223.14c6.94,10.83,21.97-3.68,19.03-15.14-1.16-.84-2.84-2.63-4.21-2.21-8.09,2.52-14.93,6.41-14.82,17.35h0ZM338.93,282.12c3.26.21,6.31-2.63,9.25-4.73,2.63-2,5.99-4.52,7.78-7.04.63-.84.74-2.21,1.37-3.05.63-.95,1.68-1.37,2.21-2.21,2.73-4.42,5.36-11.04,5.57-16.29.42-7.57-3.47-11.77-6.73-16.29-3.78-5.26-8.83-10.41-13.67-14.09-.32,0-.42-.32-.84-.32-1.79,21.97-3.57,43.21-4.94,64.02h0Z"/>
  <path class="cls-3" d="M268.6,494.89c-1.37-7.15-.32-15.45-.84-24.18-.32-5.15-1.79-10.09-1.68-14.3.11-2.52,1.58-6.1,0-8.41-1.47-1.37-4.63-2.21-6.94-1.16-1.89,7.88.53,16.08.84,23.02.42,8.83,0,17.14,0,25.34-10.09,2.94-21.76,5.47-32.38,8.41-3.57,1.05-7.46,2-10.93,2-4.21,0-11.67-2.63-12.3-6.52-.74-4.21,5.57-8.3,8.62-9.88,3.68-1.89,9.04-2.84,14.19-4.52,5.47-1.68,10.83-2.84,15.87-2.84,4.31,0,6.94,1.37,8.62-2.84-1.16-3.68-2.52-7.88-3.36-12.93-.42-2.52-1.16-5.15-1.37-7.36-.42-3.78.63-7.15-.53-9.88-1.16-2.73-4.84-3.15-6.94-4.73-7.36.42-15.98-1.37-22.6-3.89-12.19-5.68-20.29-15.24-24.81-28.7-9.36-27.44-6.83-63.18-5.26-94.19.32-5.89.95-11.46,1.37-17.14.63-8.62,1.58-15.98,2.21-24.7.53-6.1,1.58-10.83,2.52-17.45.53-3.36,1.05-6.94,1.68-10.41.42-2.21,1.79-4.94,2.21-7.36.42-2.42-.11-5.36.32-8.2.32-2.52,1.05-4.84,1.37-7.36,1.05-8.2,4.63-17.35-3.89-18.61-4.73-.63-13.04.95-17.87-.53-1.89-.63-2.84-2.52-4.21-3.36-1.79-1.16-3.05-1.26-4.73-2.52-1.58-9.46-6.31-15.87-17.35-14.93-.74.11-2.21.42-3.05.32-1.05-.21-2-1.26-4.21-2.52-3.89-2.42-7.88-5.26-9.78-9.04-2.84-5.47-1.16-14.19,6.1-14.09,7.46.11,9.67,11.56,12.62,17.45,6.31,8.62,19.76,6.1,18.71-6.52-.11-1.89-1.68-3.78-1.37-5.57.42-3.05,4.31-4.21,6.41-5.57,2.31-1.58,2.63-3.47,4.21-4.73,4.84,4.1,4.73,11.98,2.21,17.98-1.26,3.15-9.88,8.94-3.68,12.09,2.42,1.16,4.42-.11,6.73,0,5.47.32,13.35,4.52,17.87,1.37,2.31-5.57,2.31-11.88,3.05-17.98.63-4.63,1.79-9.57,2.52-14.09,2.63-16.72,4.63-35.22,7.25-53.19.42-3.05,1.05-6.1,1.37-9.04.32-2.94,1.37-5.36,2-8.2.53-2.21.32-4.63.84-6.73,1.16-4.73,2.73-9.99,4.42-14.93,1.79-4.84,2.94-10.2,5.26-14.09.84-1.37,2.21-2.52,3.05-3.89,4.42-7.04,9.25-13.04,15.66-18.61,5.99-5.15,11.98-8.2,20.71-11.56,7.78-2.94,15.14-5.15,25.97-5.36,5.78-.11,11.98.63,17.03,2,16.61,4.31,30.17,13.77,37.11,27.86,2.84,9.04,5.78,17.14,5.26,26.39-.42,9.15-2.84,18.29-4.21,27.54-1.26,9.04-3.47,18.08-5.05,27.23-1.58,9.15-2.73,18.4-3.89,27.54-1.16,9.25-2.84,18.5-3.36,27.86-.42,7.15-.95,14.51-1.37,21.13-2.21,29.86-4.21,61.71-7.57,93.67-3.15,29.96-5.36,61.39-7.57,92.51-.74,10.41-2,21.13-5.05,29.23-.42,1.05-1.37,1.89-2,3.05-1.16,2.42-1.58,4.31-3.05,6.2-5.99,7.46-13.35,13.25-22.92,17.77-2.63-.42-4.84-.32-5.89,1.16-2.21,3.36.84,4.94,1.68,7.36,1.58,4.31-.42,9.67-1.16,14.93-.21,1.68,0,3.68-.32,5.57-.21,1.47-.95,3.05-.84,4.21.11,2.21,2.63,5.15,4.42,5.57,1.79.42,3.68-.63,5.26-.84,7.25-.95,15.35-.11,22.92,1.37,5.89,1.16,17.24,3.15,17.35,8.73,0,2.42-3.68,4.84-5.57,6.52-7.67,6.41-19.87,8.62-33.54,7.04-8.52-.63-18.08-1.37-24.39-4.94h0ZM301.3,61.04c-4.1-2.31-12.4-2.21-15.87-.53-2.94,1.37-7.25,7.57-8.09,10.41-2.21,7.46-.53,19.55,4.42,25.34,5.89,6.83,17.24,6.41,23.44-.32,4.94-5.78,6.52-16.93,3.68-25.34-3.05-3.05-4.1-7.57-7.57-9.57h0ZM244,102.35c11.04,1.68,16.61-7.57,17.35-17.14.42-5.99-3.26-14.4-5.89-17.14-.74-.74-4.31-3.26-5.89-3.89-4.31-1.68-7.67,1.16-11.46,2-9.67,7.78-7.46,34.06,5.89,36.16h0ZM264.92,107.92c-3.05-.11-12.62,1.58-14.51,2.52-1.58.74-2.63,2.73-4.21,4.21-1.47,1.47-3.36,2.63-4.52,3.89-2.31,2.73-4.63,7.99-5.05,10.72-1.47,10.41,4.73,19.66,10.3,22.5,10.51,5.47,24.28,2.42,30.7-4.21.42-.42.32-1.37.84-2,.42-.63,1.37-.63,1.68-1.16,7.88-10.93,8.83-28.91-6.1-35.43-3.15-.21-5.89-.95-9.15-1.05h0ZM312.76,166.48c-.95,11.25-3.26,23.13-8.62,33.22-2.84,5.26-7.15,9.67-11.14,14.09-4.1,4.42-8.83,9.46-13.98,11.25-6.1,2.1-13.88,3.05-20.39,2.52-13.46-1.16-24.28-14.19-27.33-25.55-.84-2.94-.42-5.36-3.05-6.73-2.52-.21-4.52.21-5.89,1.16,1.05,6.73,3.05,13.67,6.41,18.82,6.83,10.62,17.03,19.66,33.22,19.97,6.94.11,16.08-1.16,21.76-3.68,5.99-2.63,10.83-7.78,15.87-12.93,8.41-8.52,13.67-17.45,17.56-29.23,1.16-7.78,4.73-14.93,3.36-23.02-2-1.68-6.73-2.94-7.78.11h0Z"/>
  <path class="cls-1" d="M308.76,70.18c2.94,8.41,1.37,19.55-3.68,25.34-6.2,6.62-17.56,7.15-23.44.32-4.94-5.78-6.62-17.87-4.42-25.34.84-2.73,5.15-9.04,8.09-10.41,3.57-1.68,11.88-1.79,15.87.53,3.57,2,4.63,6.41,7.57,9.57h0Z"/>
  <path class="cls-1" d="M238.12,65.66c3.78-.84,7.15-3.68,11.46-2,1.58.63,5.15,3.15,5.89,3.89,2.63,2.73,6.31,11.25,5.89,17.14-.74,9.57-6.31,18.82-17.35,17.14-13.35-2-15.56-28.28-5.89-36.16h0Z"/>
  <path class="cls-3" d="M204.37,72.71c3.05-.53,6.94,0,7.57,3.05.74,3.36-2.1,10.41-2.52,13.46-.53,4.1-.63,9.46-2,12.62-.95,2.31-6.2,7.15-9.46,7.36-2.21.11-4.84-1.37-6.1-2.52-5.89-5.26-4.73-17.24-1.16-23.65,2.52-4.42,8.09-9.36,13.67-10.3h0Z"/>
  <path class="cls-3" d="M360.8,111.5c-1.37-1.16-2.73-2.31-4.21-3.36,1.89-7.15,2.94-16.4,4.42-25.34.42-2.42.42-5.36,1.16-6.73,2.1-4.42,10.09-2.84,14.51-1.16,10.41,13.35.42,36.37-15.87,36.58h0Z"/>
  <path class="cls-1" d="M274.17,108.66c15.03,6.52,13.98,24.49,6.1,35.43-.32.53-1.16.53-1.68,1.16-.53.63-.42,1.58-.84,2-6.41,6.62-20.18,9.67-30.7,4.21-5.57-2.84-11.88-12.09-10.3-22.5.42-2.73,2.73-7.99,5.05-10.72,1.16-1.37,3.05-2.52,4.52-3.89,1.58-1.58,2.63-3.47,4.21-4.21,2-.95,11.46-2.63,14.51-2.52,3.15,0,5.89.74,9.15,1.05h0ZM254.1,117.91c-2.94,1.47-5.89,4.42-6.94,6.2-4.73,7.57-1.58,17.03,4.52,20.82,5.57,3.47,13.88,2.31,18.19-.84,5.99-4.52,12.62-21.66,3.68-28.07-2.1-1.47-6.52-1.58-9.78-1.16-2.52.32-7.78,2.1-9.67,3.05h0Z"/>
  <path class="cls-2" d="M263.56,114.86c3.26-.53,7.67-.32,9.78,1.16,9.04,6.41,2.42,23.65-3.68,28.07-4.21,3.15-12.62,4.31-18.19.84-6.1-3.78-9.25-13.25-4.52-20.82,1.16-1.79,3.99-4.73,6.94-6.2,2.1-.95,7.36-2.73,9.67-3.05h0Z"/>
  <path class="cls-2" d="M169.15,156.18c-1.89-15.14-11.67-22.39-22.92-28.07,3.26-3.68,6.83-.42,9.46.84,2,.95,4.94,2,6.41,3.36,2.21,2.1,5.68,7.04,6.94,10.41,1.79,4.42,3.99,9.78.11,13.46h0Z"/>
  <path class="cls-2" d="M153.49,165.74c-3.15-5.89-8.52-14.09-17.87-12.93-1.68.21-2.63.95-4.21,1.68-3.26-3.47-3.68-14.72.32-18.29,3.68-3.05,11.46-2.52,16.72.32,3.57,1.89,8.52,7.67,10.3,11.77,2.84,6.2,4.21,18.19-5.26,17.45h0Z"/>
  <path class="cls-1" d="M320.54,165.74c1.47,8.09-2.21,15.24-3.36,23.02-3.99,11.88-9.25,20.71-17.56,29.23-5.05,5.15-9.99,10.3-15.87,12.93-5.68,2.52-14.82,3.78-21.76,3.68-16.19-.32-26.39-9.36-33.22-19.97-3.36-5.15-5.36-12.09-6.41-18.82,1.37-.95,3.36-1.26,5.89-1.16,2.73,1.37,2.31,3.78,3.05,6.73,3.05,11.35,13.88,24.49,27.33,25.55,6.52.53,14.3-.42,20.39-2.52,5.15-1.79,9.88-6.83,13.98-11.25,4.1-4.31,8.41-8.83,11.14-14.09,5.36-9.99,7.67-21.97,8.62-33.22,1.05-2.84,5.78-1.58,7.78-.11h0Z"/>
  <path class="cls-3" d="M158.85,197.49c-3.89,5.36-10.93,7.57-14.51,13.25-1.89.11-2.31.21-4.21,0-9.04-11.56,13.25-25.23,18.71-13.25h0Z"/>
  <path class="cls-3" d="M164.11,205.69c1.37-.32,3.05,1.47,4.21,2.21,2.94,11.56-12.09,26.07-19.03,15.14-.11-10.83,6.73-14.72,14.82-17.35h0Z"/>
  <path class="cls-3" d="M343.98,218.52c.42-.11.53.32.84.32,4.84,3.68,9.88,8.83,13.67,14.09,3.26,4.52,7.04,8.83,6.73,16.29-.21,5.26-2.94,11.88-5.57,16.29-.53.95-1.58,1.37-2.21,2.21-.63.84-.74,2.21-1.37,3.05-1.89,2.52-5.15,5.05-7.78,7.04-2.94,2.21-5.99,5.05-9.25,4.73,1.26-20.71,3.05-42.05,4.94-64.02h0Z"/>
</svg>