<?xml version="1.0" encoding="UTF-8"?>
<svg id="Layer_1" data-name="Layer 1" xmlns="http://www.w3.org/2000/svg" viewBox="0 0 512 512">
  <defs>
    <style>
      .cls-1 {
        fill: #212121;
      }

      .cls-1, .cls-2, .cls-3 {
        fill-rule: evenodd;
      }

      .cls-2 {
        fill: #ce0e2d;
      }

      .cls-3 {
        fill: #f5d93f;
      }
    </style>
  </defs>
  <path class="cls-1" d="M240.83,138.67c4.81,17.05-14.22,40.89-26.67,22.17-2.3-18.61,14.22-33.46,26.67-22.17Z"/>
  <path class="cls-1" d="M298.87,147.35c-.31,12.44-4.81,24.89-13.28,25.93-29.91,3.76-6.27-57.93,13.28-25.93Z"/>
  <path class="cls-1" d="M243.24,176.94c13.91-1.99,27.61,2.93,29.07,16,3.66,33.25-58.25,34.72-52.08,0,1.36-7.63,8.57-13.91,23.01-16ZM236.02,206.64c13.28,5.12,27.4-4.29,21.75-18.51-14.01-5.96-33.57,5.54-21.75,18.51Z"/>
  <path class="cls-1" d="M0,215.21v-12.34c5.12-4.71,4.39-15.27,13.28-16,.73,7.84-12.24,17.36-6.07,30.85-2.51,2.61-4.71-1.46-7.22-2.51Z"/>
  <path class="cls-3" d="M257.77,188.13c5.54,14.22-8.47,23.63-21.75,18.51-11.82-12.97,7.74-24.47,21.75-18.51Z"/>
  <path class="cls-1" d="M33.88,190.53c-4.6,8.89-11.29,15.69-10.88,29.59-10.35-8.05-1.46-29.38,10.88-29.59Z"/>
  <path class="cls-1" d="M502.26,197.96c9.73-.1,12.24,17.67,7.22,24.68-6.07-3.56-2.2-17.36-7.22-24.68Z"/>
  <path class="cls-1" d="M486.47,199.21c8.05,1.36,11.5,18.82,6.07,25.93-2.3-7.74-5.86-20.08-6.07-25.93Z"/>
  <path class="cls-1" d="M231.11,237.49c39.53-5.65,72.05,20.08,64.1,60.44-8.89,45.28-84.29,65.04-108.96,21.02-20.29-36.5,11.29-76.65,44.86-81.46Z"/>
  <path class="cls-1" d="M180.28,442.35c-.42,12.44-24.16,25.2-31.48,11.08,16.31,5.96,21.12-7.32,31.48-11.08Z"/>
  <path class="cls-1" d="M266.24,447.26h3.66c.84,11.08,16.94,6.59,20.6,14.85-9.41,1.15-25.31-1.25-24.26-14.85Z"/>
  <path class="cls-1" d="M179.13,459.6c-1.99,7.63-14.01,14.74-21.75,8.68,7.11-2.41,15.16-9.73,21.75-8.68Z"/>
  <path class="cls-1" d="M281.93,471.94c-3.87,10.56-22.69,2.3-24.16-4.91,7.53-2.51,12.65,7.42,24.16,4.91Z"/>
  <path class="cls-1" d="M213.01,35.03h6.07c11.19,11.19,18.3,26.67,26.67,40.68,19.66-14.12,39.53-28.03,60.55-40.68h7.22c9.52,12.65,5.12,34.61,4.81,54.27,11.08-1.99,23.84-7.84,36.29-11.08,12.55-3.35,27.5-9.73,37.54-1.25-5.65,17.67-23.63,29.28-26.67,45.7,16.21,1.25,33.46.84,48.42,1.25,14.43.31,28.34-2.09,36.29,6.17-16.42,25.2-45.8,37.23-62.95,61.7,3.97,5.44,6.38,12.34,6.07,22.17,5.44-1.05,9.93-3.03,16.94-2.51-10.88-36.08,41.2-37.65,33.88-7.42,13.7-3.03,30.74-.94,32.63,9.83,1.78,9.83-7.95,17.25-15.69,22.17,3.14,1.67,5.23,4.5,4.81,9.83-3.24,7.01-7.84,12.55-16.94,13.59,7.63,17.99-4.29,34.3-26.67,29.59-9.41-4.39-12.44-15.27-20.6-21.02-3.45,1.46-7.01,2.82-10.88,3.66,1.46,55.32-28.76,89.72-76.23,107.4-.31,7.01,5.23,6.9,2.41,13.59,12.86-8.68,66.51-16.1,66.61,6.17,0,9.83-19.97,25.93-35.14,34.51-15.27,8.68-40.99,15.69-55.63,13.59-29.49-4.29-10.67-36.29-23.01-60.44-23.84,4.6-61.49,6.38-83.55-1.25-8.78,6.59-8.26,19.56-12.13,29.59-1.57,4.08-13.18,25.72-18.2,27.19-16,4.6-42.56-18.09-54.48-28.34-9.41-8.16-25.1-24.37-21.75-37.02,5.23-19.76,44.76-5.54,59.29,2.51,1.15-5.33,4.18-8.89,6.07-13.59-23.22-16.1-39.74-45.59-43.61-78.95-.63-5.75,4.08-15.9-6.07-18.51-5.23,4.91-7.11,17.25-18.2,18.51-16.21,1.78-26.98-17.36-16.94-34.51-9.41-.31-15.27-16.21-6.07-21.02-26.46-10.25-6.69-41.31,18.2-25.93.73-26.46,28.55-22.48,33.88-6.17,2.41,7.22-2.41,16.1,3.66,21.02,7.32-4.5,5.23-18.61,9.73-25.93-8.26-7.11-14.64-15.9-23.01-23.42-7.95-7.22-20.5-11.61-24.16-23.42,18.51-4.08,44.76-5.75,60.55-8.68.21-15.27-5.86-42.77,0-59.29,20.81,3.45,35.45,13.18,54.48,18.51,8.47-20.81,17.57-41.2,25.52-62.74ZM312.25,104.16c-15.27-8.57.42-35.97-6.07-54.27-23.32,11.19-41.41,27.71-60.55,43.19-10.77-11.61-16.63-28.34-26.67-40.68-4.08,9.83-8.05,20.39-12.13,30.85-3.87,9.93-7.32,21.44-14.54,28.34-16.1-6.69-31.79-13.59-49.57-18.51-1.05,19.56,2.61,34.4,2.41,53.12-13.7,7.42-38.48,3.56-53.23,9.83,16.42,9.2,26.25,25.1,41.1,35.76-6.38,13.18-4.08,35.35-15.69,43.19-7.95-5.44-18.72-8.05-24.16-16,3.56-7.95,3.56-23.84-3.66-23.42-6.8.42-4.18,16.52-1.25,23.42-2.82.42-2.3,4.29-6.07,3.66-7.42-4.29-18.51-15.48-29.07-8.68-.42,14.43,22.06,5.54,26.67,14.85-.1,10.14-15.79,4.5-18.2,12.34,6.07,8.47,21.75-7.32,24.16,4.91-6.27,5.44-27.5,20.29-10.88,29.59,10.88-3.76,5.12-20.6,14.54-23.42,7.32-2.2,16.94,8.68,24.16,12.34-2.61,42.56,17.57,78.85,44.76,98.72-4.08,11.08-7.32,23.01-15.69,29.59-14.33-6.07-30.12-16.84-49.57-13.59,9.52,27.29,34.4,39.01,59.29,50.61,8.16-18.4,12.55-40.68,25.41-54.27,25.31,2.2,52.7,5.65,76.23,2.51,10.14-1.36,18.2-6.38,25.41,0,5.65,15.79,10.35,35.76,8.47,55.53,37.54,3.24,67.66-11.61,81.04-37.02-22.69-4.81-40.89,5.12-56.89,11.08-9.31-5.33-7.32-22.17-12.13-32.1,28.65-10.25,48.63-26.04,62.95-48.1,2.41-3.76,2.3-7.32,3.66-9.83-.52,1.15,3.14-.42,3.66-1.25,7.63-12.97,7.95-30.64,6.07-49.36,10.14-5.33,20.6-10.25,35.14-11.08,5.75,9.73,5.86,25.31,23.01,23.42,10.88-11.29-2.82-20.18-6.07-30.85,5.75-6.69,20.39,8.68,24.16-6.17-8.26-1.36-17.88-1.57-18.2-11.08,10.14-4.91,26.98-2.93,29.07-16-13.49-6.38-23.95,3.03-31.48,9.83-4.39-.42-5.54-4.18-7.22-7.42,4.08-6.59,6.48-14.74,7.22-24.68-15.9-2.82-7.01,19.87-9.73,27.19-11.61,2.09-24.05,3.45-35.14,6.17-8.68-9.2-6.38-29.7-14.54-39.53,19.03-17.57,38.9-34.4,58.04-51.87-22.17-4.5-80.31,6.07-82.3-11.08-.94-8.57,25.52-32.52,23.01-38.27-19.03,6.59-40.99,10.56-58.98,18.51Z"/>
  <path class="cls-2" d="M371.55,85.65c2.51,5.65-23.95,29.7-23.01,38.27,1.99,17.15,60.13,6.59,82.3,11.08-19.24,17.46-39.01,34.2-58.04,51.87,8.16,9.73,5.75,30.33,14.54,39.53,11.08-2.72,23.42-4.08,35.14-6.17,2.72-7.32-6.17-30.01,9.73-27.19-.73,9.93-3.24,18.09-7.22,24.68,1.67,3.14,2.82,7.01,7.22,7.42,7.53-6.9,17.99-16.31,31.48-9.83-2.09,13.07-18.93,11.08-29.07,16,.31,9.62,9.83,9.73,18.2,11.08-3.76,14.85-18.4-.52-24.16,6.17,3.24,10.77,16.94,19.56,6.07,30.85-17.15,1.88-17.15-13.7-23.01-23.42-14.54.84-24.99,5.75-35.14,11.08,1.88,18.72,1.57,36.39-6.07,49.36-.42.84-4.18,2.41-3.66,1.25-1.25,2.61-1.15,6.07-3.66,9.83-14.22,22.17-34.2,37.86-62.95,48.1,4.81,9.93,2.82,26.77,12.13,32.1,16-5.96,34.2-15.9,56.89-11.08-13.49,25.41-43.61,40.26-81.04,37.02,1.88-19.76-2.82-39.74-8.47-55.53-7.22-6.38-15.27-1.36-25.41,0-23.53,3.14-50.93-.21-76.23-2.51-12.86,13.59-17.25,35.87-25.41,54.27-24.89-11.61-49.78-23.32-59.29-50.61,19.45-3.24,35.24,7.53,49.57,13.59,8.37-6.69,11.61-18.61,15.69-29.59-27.19-19.97-47.37-56.26-44.76-98.72-7.22-3.66-16.94-14.54-24.16-12.34-9.41,2.82-3.66,19.66-14.54,23.42-16.63-9.31,4.6-24.16,10.88-29.59-2.41-12.24-18.2,3.56-24.16-4.91,2.41-7.84,18.09-2.2,18.2-12.34-4.6-9.31-27.08-.42-26.67-14.85,10.46-6.9,21.65,4.39,29.07,8.68,3.76.63,3.24-3.35,6.07-3.66-3.03-7.01-5.54-23.11,1.25-23.42,7.22-.42,7.11,15.48,3.66,23.42,5.54,7.95,16.21,10.67,24.16,16,11.61-7.84,9.31-30.01,15.69-43.19-14.95-10.67-24.78-26.56-41.1-35.76,14.85-6.27,39.53-2.51,53.23-9.83.21-18.72-3.45-33.46-2.41-53.12,17.78,4.91,33.57,11.92,49.57,18.51,7.11-7.01,10.67-18.51,14.54-28.34,4.08-10.46,8.05-21.02,12.13-30.85,10.04,12.44,15.79,29.07,26.67,40.68,19.14-15.48,37.12-32.1,60.55-43.19,6.48,18.3-9.2,45.7,6.07,54.27,17.67-7.95,39.63-11.92,58.98-18.51ZM214.17,160.94c12.34,18.61,31.48-5.23,26.67-22.17-12.44-11.4-28.97,3.45-26.67,22.17ZM285.59,173.28c8.57-1.05,13.07-13.39,13.28-25.93-19.56-32-43.19,29.7-13.28,25.93ZM220.23,193.04c-6.17,34.72,55.63,33.25,52.08,0-1.46-13.07-15.16-17.99-29.07-16-14.43,1.99-21.65,8.26-23.01,16ZM186.35,318.95c24.68,44.03,100.08,24.26,108.96-21.02,7.95-40.37-24.68-66.09-64.1-60.44-33.67,4.81-65.25,44.97-44.86,81.46Z"/>
</svg>