<?xml version="1.0" encoding="UTF-8"?>
<svg id="Layer_1" data-name="Layer 1" xmlns="http://www.w3.org/2000/svg" viewBox="0 0 512 512">
  <defs>
    <style>
      .cls-1 {
        fill: #1c1c1c;
      }

      .cls-2 {
        fill: #f5c0d6;
      }

      .cls-3 {
        fill: #fed200;
      }

      .cls-4 {
        fill: #0b92c9;
      }

      .cls-5 {
        fill: #d7005b;
      }

      .cls-6 {
        fill: #dd2975;
      }

      .cls-7 {
        fill: #7d83bd;
      }
    </style>
  </defs>
  <g id="t8Dvuf">
    <g>
      <path class="cls-1" d="M498.05,303.81c7.96-3.54,11.92-12.04,9.81-20.15-1.55-5.95-8.52-10.02-16.99-9.83-1.83.04-3.68.26-5.49.56-3.68.62-7.35,1.35-11.13,2.05.53-4.02,1.81-7.35,1.7-10.95-.18-5.85-4.01-10.51-9.66-11.54-7.28-1.33-14.49,1.94-18.52,8.47-3.36,5.42-4.58,11.47-5.03,17.73-.41,5.76-5.36,3.29-8.17,4.08-3.06.86-1.98-2.33-1.88-3.79.49-6.87,1.03-13.74,1.88-20.57,1.63-13.25.75-26.54.91-39.8.03-3.02.44-4.15,3.99-3.24,5.25,1.34,10.68.98,15.91-.73,10.73-3.52,19.2-13.53,18.82-24.79-.31-9.19-6.67-15.22-14.89-19.12-4.26-2.03-8.5-4.07-13.29-4.3-1.77-.09-2.63-1.11-3.71-2.17-4.07-4.01-8.21-7.95-12.35-11.88-16.55-15.75-35.66-27.25-57.48-34.02-7.87-2.44-15.99-4.06-23.98-6.05.36-1.65,1.63-1.53,2.47-1.85,17.43-6.65,34.8-8.52,52.02.78,1.48.8,2.99,2.13,4.98.38,1.8-1.58,2.04-3.17,1.53-5.34-1.49-6.4-1.93-12.92-2.14-19.49-.17-5.41-2.88-7.85-8.2-8.2-10.97-.71-21.84.11-32.53,2.61-8.01,1.87-15.94,4.09-24.4,6.29,3.3-5.34,6.34-10.17,8.07-15.65,2.05-6.5,3.88-13.52.79-19.69-5.79-11.53-18.07-18.81-31.89-15.27-14.81,3.81-23.91,14.17-30.78,27.05-2.3,4.3-4.59,8.61-7.46,14-1.29-6.42-2.65-11.38-4.92-16.03-4.66-9.54-11.26-17.15-21.67-20.55-9.4-3.06-18.09-2.03-26.82,3.39-9.12,5.67-15.03,16.51-13.48,27.51,1.32,9.45,6.5,17.08,11.7,25.49-18.71-6.25-37.15-6.14-55.77-3.36-3.8.57-5.65,1.97-5.68,6-.06,7.38-.03,14.81-2.94,21.82-.73,1.76.23,3.01,1.51,3.86,2.96,1.97,5.67,2.59,9.17.21,14.59-9.96,31.11-13.04,49.17-13.08-1.82,2.06-3.74,2.2-5.38,2.68-31.59,9.15-59.41,24.62-81.99,48.84-1.93,2.08-3.89,1.94-6.3,1.78-16.3-1.04-30.01,12.81-27.82,28.34,1.47,10.46,9.12,15.5,18.12,18.94,2.23.85,4.06,1.16,3.96,4.47-.76,24.03-1.27,48.06-1.84,72.09-.04,1.74.07,3.27-2.42,3.51-2.66.25-2.82-1.2-3.24-3.22-3.22-15.38-11.37-21.12-26.37-18.75-.11-.3-.33-.62-.3-.91,3.06-30.17,1.11-60.44,1.71-90.66.05-2.39,1.12-2.55,2.87-3.08,7.32-2.2,13.18-12.7,11.17-19.96-.39-1.4-.95-2.34.68-3.33,5.37-3.24,9.28-8.27,14.08-12.07,11.91-9.4,20.21-21.25,27.06-34.52,13.09-25.36,11.78-50.78.53-76.15-4.38-9.88-11.96-16.82-21.46-22.39-7.08-4.14-14.54-5.75-22.15-7.53-13.97-3.26-28.2-4.42-41.61,1.2C30.05,16.69,9.31,37.72,5.74,72.33c-1,9.68-3.33,19.35-1.47,29.06,3.49,18.24,13.92,31.92,29.04,42.28,5.73,3.92,12.09,6.48,18.57,8.82,3.65,1.32,6.06,2.5,2.84,7.15-2.5,3.59-2.99,8.31.19,12.25,2.6,3.22,9.45,5.04,12.91,2.77,3.8-2.5,6.48-2.28,9.34,1.02.74.85,1.86,1.55,2.95,1.87,3.33.97,3.51,3.25,3.31,6.2-1.69,24.83-1.28,49.72-2.21,74.56-.35,9.33.43,18.83-2.78,27.92-.5,1.42-.25,3.02.39,4.44,1.43,3.23,1.02,5.42-3.02,5.86-.98.11-1.92.59-2.85.97-12.55,5.14-14.32,14.64-4.23,23.6,1.67,1.49.81,2.07-.09,3.12-5.03,5.86-5.27,7.9-1.53,14.64.69,1.23,1.14,1.71-.28,3.1-7.44,7.31-4.81,18.19,5.03,21.57,2.05.7,4.17,1.32,6.31,1.67,2.22.36,2.58,1.43,2.27,3.46-1.26,8.17-1.25,8.27,6.28,12.04,3.27,1.64,4.29,4.1,3.67,7.42-.69,3.68-2.58,6.42-6.21,7.94-2.74,1.13-5.27,2.92-4.55,6.38.71,3.42,1.96,6.73,3.04,10.07.45,1.38,1.7,1.58,2.9,1.43,3.84-.45,4.75-2.77,3.45-6.06-2.08-5.28-1.19-8.92,3.79-12.65,8.51-6.38,7.35-14.46-2.08-19.88-1.89-1.09-4.2-1.89-3.27-4.78.8-2.46.37-5.11,4.18-6.42,11.67-4.02,18.58-12.22,19.14-25.02.05-1.21-.51-2.57,1.49-3.16,4.6-1.35,7.58.37,8.42,5.04.64,3.63,1.76,7.2,2.11,10.85,1.66,17.07,2.86,34.17,1.24,51.32-.48,5.16,3.39,11.83,7.04,11.95,9.24.31,18.49.48,27.72.91,25.54,1.18,51.1.47,76.65.82,4,.06,5.19,1.35,5.42,5.05.38,6.2,1.26,12.37,1.81,18.56,1.13,12.74,1.05,12.14-11.99,13.28-22.27,1.93-44.43,4.42-62.43,20.26-6.76,5.96-8.56,14.1-2.64,20.85,5.3,6.03,11.59,10.75,19.55,12.71,30.25,7.46,59.93,5.5,88.89-5.91,5.09-2,10-2.72,15.22-1.74,20.09,3.77,40.35,4.22,60.73,3.88,17.74-.31,33.54-6.1,48.03-15.74,8.9-5.92,11.49-17.1.53-23.82-12.72-7.79-26.6-13.45-41.22-16.95-11-2.62-22.25-3.31-33.46-3.97-4.6-.27-6.71-1.51-6.05-6.51.53-3.97.82-8.15.17-12.05-.74-4.45.8-5.59,4.83-5.71,33.75-1.04,67.49-2.2,101.24-3.25,3.38-.1,6.75-.27,9.98-1.15,2.99-.81,4.62-2.4,3.98-6.26-4.16-24.69-6.4-49.61-8.49-74.54-.33-3.91.83-5.61,4.64-5.73,1.34-.05,2.68-.23,4-.46,4.52-.76,6.85.35,7.34,5.67,1.27,13.54,11.22,22.27,25.74,19.98,12.35-1.94,16.67-7.37,14.4-19.63-.51-2.76-.01-3.64,2.6-4.67,11.69-4.59,13.81-10.02,8.71-21.51-.78-1.74-1.37-2.6,1.08-3.69ZM239.14,68c1.25-2.18,3.56-2.2,5.82-2.11,1.46.06,2.38.47,3.08,1.97,2.81,6.05,5.32,12.17,6.52,19.98-5.39-5.06-10.77-8.29-14.58-13.27-1.53-2-2.15-4.31-.84-6.57ZM309.05,84.94c2.26-7.84,5.51-14.92,12.57-19.29,1.06-.65,2.27-2.57,3.84-.99,1.31,1.31,1.06,2.93.29,4.64-1.45,3.16-3.8,5.46-6.46,7.55-3.42,2.69-6.82,5.39-10.24,8.09Z"/>
      <path class="cls-5" d="M166.81,407.03c-8.74-.12-17.47-.23-26.21-.36-3.94-.06-5.66-1.46-5.67-6.03-.01-14.94-.65-29.88-1.08-44.82-.23-7.69-3.72-14.87-3.19-22.82.2-3.12-3.06-5.78-6.97-5.8-5.88-.03-11.78-.17-17.65.1-3.24.15-4.68-1.07-5.87-4.02-1.5-3.73-3.59-6.97-.87-11.16,1.14-1.76.13-4.06-1.29-6.04-2.91-4.06-5.49-8.36-8.12-12.61-1.15-1.86-2.15-3.97-1.86-6.15.48-3.55,2.41-6.37,5.95-7.42,3.66-1.08,5.57,1.47,7.07,4.26,2.01,3.73,3.86,7.87,3.19,11.95-.93,5.67,2.58,6.54,6.26,6.8,5.66.4,11-2.8,16.82-2.05.49.06,1.36-.95,1.66-1.63.46-1.04.83-2.25.8-3.37-.67-26.22,1.89-52.41.77-78.62-.08-1.99.37-2.63,1.92-3.29,8.34-3.56,14.39-9.1,15.99-18.52.41-2.41,2-2.04,3.78-1.39,9.93,3.61,20.05,6.47,30.61,7.55,19.93,2.03,39.45.32,57-9.88,10.65-6.19,18.69-15.79,24.89-26.54,4.38-7.6,8.32-15.48,10.71-25.21,4.39,7.68,7.34,14.82,12.56,20.2,23.49,24.18,50.25,42.27,85.32,44.24,8.37.47,16.68,1.26,25.11-.04,6.06-.93,10.94-4,16.12-6.69,2.4-1.25,4.72-2.43,5.25,1.83.1.78.56,1.65,1.12,2.23,5.87,6.16,5.57,13.76,5.51,21.51-.16,21.33-1,42.59-3.93,63.74-.7,5.06,3.02,8.04,8.28,6.42,6.08-1.87,12.2-3.62,18.54-4.12,2.93-.23,3.62-1.39,3.44-4.11-.39-6.05-.31-12.07,2.12-17.83.88-2.09,2.05-3.9,3.96-5.03,1.54-.91,3.19-1.91,5.2-1.07,2.34.97,1.67,3.04,1.78,4.77.49,7.58-1.35,14.27-7.29,19.51-1.19,1.06-3.75,2.16-2.06,4.38,1.59,2.1,4.13,3.29,6.71,2.02,2.37-1.17,4.42-2.97,6.59-4.54,7.68-5.56,16.33-6.57,25.42-5.42.76.1,1.67.53,2.15,1.11,3.06,3.66.31,13.99-4.14,15.71-3.88,1.49-7.87,1.47-11.9.68-4.1-.8-8.03-.58-11.48,2.12-.97.76-2.8,1-2.25,2.84.47,1.55,1.62,2.62,3.32,2.65,3.53.07,7.06.11,10.59,0,3.37-.1,5.78,1.05,7.28,4.23,1.66,3.52,1.51,6.9-.57,10.03-1.77,2.67-7.01,2.7-10.46.17-2.57-1.89-5.33-2.98-8.43-2.05-1.91.57-3.95,1.65-4.27,3.86-.35,2.38,1.94,3.2,3.55,3.59,6.97,1.7,8.66,7.17,8.28,14.2-.19,3.41-1.99,5.04-5.4,5.32-8.08.65-13.07-2.53-15.57-10.39-1.21-3.82-2.18-7.73-3.05-11.64-.45-2.02-1.28-3.65-3.38-3.82-9.27-.73-18.45-.52-27.05,3.68-2.68,1.31-3.46,3-2.91,6.42,1.45,8.91,2.44,17.95,2.76,26.97.49,13.79,2.97,27.3,4.88,40.88.61,4.31.55,6.79-5.05,6.79-8.7,0-17.4,1.23-26.11,1.41-23.33.49-46.61,2.51-69.97,2.34-4.69-.03-9.38.58-14.06.95-3.39.26-5.06,1.65-4.34,5.5,1.59,8.49.87,17.09.59,25.64-.23,6.95,2.15,10.01,8.92,10.17,4.88.12,10.73,4.3,12.58,8.6.78,1.82-.62,1.95-1.35,2.65-4.7,4.45-9.43,8.87-14.11,13.34-.89.85-1.65,1.55-3.04,1.29-7.24-1.34-14.5-2.53-21.72-3.95-3.33-.65-5.17-2.15-5.56-6.32-.98-10.48-3.04-20.86-4.46-31.31-.98-7.21.19-14.41.71-21.6.22-3.08-.97-5.13-3.79-6.39-4.08-1.82-5.62-.71-6.03,3.8-1.62,17.73.33,35.13,4.22,52.42.69,3.07.45,6.34.71,9.52.17,2.08-1.06,2.91-2.71,3.68-7.64,3.6-15.71,5.9-23.96,7.35-5.67,1-7.05-4.75-10.13-7.74-2.55-2.48.56-3.79,1.34-5.49.9-1.96,2.52-3.61,3.31-5.61,1.25-3.15,3.28-4.73,6.65-5.09,3.63-.39,4.82-2.93,4.12-6.16-2.79-12.81-2.52-25.99-4.81-38.86-1.23-6.92-4.01-9.24-11.36-8.3-10.06,1.28-20.13.62-30.2.65-10.05-.9-20.12-.12-30.17-.41-3.51-.11-7.04.44-10.53-.38Z"/>
      <path class="cls-2" d="M86.65,8.43c8.07.34,18.72,1.24,28.56,6.16,14.29,7.15,23.72,17.51,26.35,34.23,2.81,17.89,3.77,35.37-3.61,52.25-7.66,17.54-19.94,31.65-34.57,43.8-4.75,3.94-9.55,7.69-15.63,9.54-1.84.56-5.05,1.31-4.13,3.94.79,2.29,3.89,3.84,6.31,3.23,5.32-1.35,3.83,1.81,3.05,4.2-.88,2.7-2.09,5.47-5.33,6.13-3.54.72-4.57-2.22-5.78-4.52-1.65-3.12-4.56-3.22-7.36-3.16-1.95.04-3.87,1.09-5.84,1.3-1.75.18-3.61,2.74-5.22.37-1.2-1.76,1.82-6.53,4.31-6.98,2.15-.39,4.33-.2,6.48.41,1.73.49,3.99,1.32,4.8-1.04.93-2.69-1.2-4.01-3.38-4.64-7.23-2.06-14.37-4.37-21.35-7.17-19.03-7.61-32.75-20.11-38.66-40.44-3.03-10.41-1.12-20.65-.42-30.96.28-4.16,1.17-8.28,1.93-12.39,3.85-20.93,17.83-34.44,34.59-45.26,11.5-7.42,20.37-9.03,34.91-9Z"/>
      <path class="cls-3" d="M310.86,116.3c10.4-1.05,20.63,2.97,31.22,4.36,13.87,1.82,27.33,5.56,39.98,11.13,19.18,8.45,36.33,20.21,50.27,36.2.97,1.12,1.71,2.07.24,3.35-10.57,9.26-20.31,19.6-34.41,23.91-7.61,2.32-15.29,2.06-22.96,1.62-35.52-2.05-61.84-20.84-83.87-46.94-6.03-7.14-9.32-15.84-10.93-25.09-.56-3.24-.59-5.56,3.94-6.06,8.66-.96,17.22-2.79,26.52-2.48Z"/>
      <path class="cls-3" d="M247.68,119.45c6.2-.31,12.16.33,18.05,1.9,2.57.69,3.53,1.76,2.9,4.61-3.5,16.01-8.61,31.01-19.09,44.3-10.78,13.66-24.04,21.54-41.04,23.58-18.57,2.23-36.3-1.32-53.8-7.41-7.35-2.56-8.48-9.89-13.05-14.52-1.27-1.29,1.15-2.44,2.06-3.44,17.08-18.63,38.25-30.75,61.86-39.13,8.84-3.14,17.44-6.98,26.7-8.8,5.11-1.01,10.3-1.41,15.4-1.1Z"/>
      <path class="cls-7" d="M272.09,90.36c.1-11.07-1.01-20.85-6.42-29.24-9.69-15.06-23.19-16.69-36.23-4.59-7,6.49-7.6,17.62-2.23,27.51,8.3,15.27,21.46,23.95,38.11,27.91,2.83.68,4.09-.21,4.54-2.88,1.13-6.6,2.5-13.17,2.23-18.71ZM239.98,74.57c-1.53-2-2.15-4.31-.84-6.57,1.25-2.18,3.56-2.2,5.82-2.11,1.46.06,2.38.47,3.08,1.97,2.81,6.05,5.32,12.17,6.52,19.98-5.39-5.06-10.77-8.29-14.58-13.27Z"/>
      <path class="cls-4" d="M219.12,502.99c-11.42-.14-22.79-.71-33.79-4.21-4.57-1.45-8.51-3.77-11.51-7.64-2.36-3.04-2.33-5.78.48-8.43,1.09-1.04,2.13-2.16,3.34-3.04,2.7-1.97,5.26-4.6,8.31-5.52,4.07-1.23,4.87,3.68,7.28,5.64,10.07,8.19,21.89,11.54,34.38,12.62,15.01,1.29,29.77-.44,44.1-5.4,1.24-.43,3.13-2.71,4.23-.29,1,2.2-.71,3.56-2.79,4.52-17.14,7.93-35.05,12.31-54.03,11.75Z"/>
      <path class="cls-7" d="M325,46.18c-8.33,1.82-15.37,5.94-20.51,12.75-3.83,5.08-7.39,10.41-10.62,15.89-6.05,10.28-8.17,21.9-10.66,33.35-.29,1.32-.32,3.17,1.75,2.61,3.44-.94,7.07.13,10.42-1.38,9.34-4.22,18.53-8.72,26.88-14.73,11.71-8.44,19.39-19.33,20.49-32.32.23-10.4-9.17-18.03-17.75-16.17ZM325.75,69.3c-1.45,3.16-3.8,5.46-6.46,7.55-3.42,2.69-6.82,5.39-10.24,8.09,2.26-7.84,5.51-14.92,12.57-19.29,1.06-.65,2.27-2.57,3.84-.99,1.31,1.31,1.06,2.93.29,4.64Z"/>
      <path class="cls-4" d="M340.07,494.96c-17.15.59-34.12-1.01-50.96-4.18-5.65-1.06-2.44-5.34-2.69-8.01-.33-3.58,2.6-1.42,3.93-1.17,13.51,2.47,27.02,4.92,40.82,4.87,16.98-.05,33.01-3.25,46.44-14.61,1.14-.96,2.86-1.9,3.13-3.11,1.04-4.68,3.26-4.39,6.64-2.34,3.09,1.87,8.03,2.59,8.19,6.52.17,4.36-4.05,7.14-7.6,9.36-13.7,8.57-28.83,12.32-44.88,12.68-1.01.02-2.01,0-3.02,0Z"/>
      <path class="cls-3" d="M464.67,190.19c-.07,10.26-10.17,19.83-20.93,19.81-8.68-.02-15.82-6.81-15.59-15.02.25-8.9,10.09-20.12,16.54-19.7,10.37.68,20.44,6.06,19.97,14.91Z"/>
      <path class="cls-3" d="M139.17,189.59c-.19,9.06-4.12,15.25-11.29,17.77-8.59,3.02-17.83-2.64-19.01-11.65-1.69-12.88,11.7-23.86,23.88-19.59,4.49,1.57,6.58,5.96,6.43,13.47Z"/>
      <path class="cls-7" d="M326.66,109.66c7.32-6.89,15.09-11.22,23.5-14.5,13.75-5.38,28.09-7.26,42.79-7.3,3.89-.01,4.87,1.68,5.17,4.98.85,9.26.94,9.1-8.08,7.19-18.67-3.96-36.16.55-53.16,7.91-2.92,1.26-5.61,3.09-10.22,1.72Z"/>
      <path class="cls-7" d="M223.56,105.89c-10.36,1.76-20.78,1.75-30.9,4.32-5.52,1.4-10.98,2.89-16.17,5.24-2.06.93-3.25.75-3.06-1.77.24-3.17.55-6.33,1-9.48.14-.99.95-1.68,2.08-1.92,16.05-3.36,31.78-2.71,47.05,3.61Z"/>
      <path class="cls-5" d="M83.51,357.63c-6.21-.07-10.03-2.81-10.73-7.43-.59-3.88,1.48-6.84,5.38-6.7,7.24.25,13.51-1.61,18.66-6.85,2.04-2.07,2.4-.06,2.91,1.33,2.82,7.6-5.16,18.65-14.12,19.55-.83.08-1.67.08-2.1.1Z"/>
      <path class="cls-5" d="M209.29,465.48c2.98,0,12.04,6.38,12.88,8.37.41.98-.03,1.54-.52,2.22-3.13,4.34-8.12,5.91-13.18,4.03-4.27-1.58-8.15-3.77-11.32-7.15-1.88-2-1.99-3.39.9-4.23,3.99-1.17,7.99-2.31,11.24-3.25Z"/>
      <path class="cls-5" d="M364.39,457.59c.7.06,1.39.03,2.02.2,2.19.61,5.23.25,6.04,2.81.74,2.33-1.94,3.61-3.24,5.25-1.91,2.4-4.53,3.96-7.13,5.47-7.77,4.52-10.51,3.44-13.87-5.06-.81-2.04-.33-3.16,1.45-4.06,4.66-2.35,9.48-4.17,14.72-4.61Z"/>
      <path class="cls-4" d="M358.47,455.65c-13.69,5.73-25.45,11.76-35.28,20.96-1.56,1.46-3.81,1.92-4.99.58-1.58-1.8,1.01-2.64,2-3.77,6.16-7.05,13.73-12.01,22.35-15.61,4.72-1.97,9.32-3.44,15.92-2.16Z"/>
      <path class="cls-5" d="M80.83,315.97c-5.89-.09-8.63-2.09-8.43-5.71.21-3.81,5.03-7.41,9.98-7.44,2.63-.02,6.7,4.71,6.21,7.78-.74,4.66-4.57,5.12-7.75,5.38Z"/>
      <path class="cls-5" d="M80.92,335.56c-2.32-.49-5.64-.14-5.7-3.94-.05-3.57,1.47-6.47,5.32-7.38,1.78-.42,3.63-.56,5.44-.88,1.63-.29,3.27-.95,4.45.99,1.04,1.72,1.25,3.45.39,5.25-1.93,4.07-5.29,5.85-9.89,5.95Z"/>
      <path class="cls-4" d="M215.68,464.93c3.32-1,5.66-1.19,8.1.68,6.31,4.85,10.85,11.34,16.24,17.04.57.6,1.21,1.46.4,2.16-1.15.99-2.25.11-3.1-.63-3.89-3.42-7.7-6.94-11.57-10.39-3.11-2.78-6.26-5.51-10.08-8.86Z"/>
      <path class="cls-5" d="M331.43,478.45c-1.57-.37-3.61.77-4.2-.91-.54-1.54,1.33-2.48,2.46-3.37,1.43-1.13,3.1-1.96,4.52-3.1,1.81-1.46,2.86-1.35,4.2.8,3.05,4.92,2.99,5.28-2.73,6.03-1.48.19-2.96.39-4.25.55Z"/>
      <path class="cls-4" d="M347.2,476.65c-3.48,0-8.49-6.44-7.19-8.63,1.19-1.98,3.29-3.91,5.57-1.22,1.48,1.75,2.37,4.01,3.5,6.06,1.69,3.06.15,3.87-1.89,3.79Z"/>
      <path class="cls-4" d="M234.99,472.48c-1.14-.41-2.03-1.17-2.23-2.4-.37-2.21,4.19-7.72,6.48-8.09,1.21-.19,1.91-.04,1.97,1.36.06,1.55-4.46,8.81-5.71,9.07-.16.03-.32.04-.51.07Z"/>
      <path class="cls-4" d="M328.96,451.42c3.43.6,6.38,1.92,7.29,5.42.38,1.46-1.44,2.13-2.75,2.23-1.74.13-7.42-5.12-7.22-6.52.27-1.87,1.81-.87,2.68-1.13Z"/>
      <path class="cls-6" d="M166.81,407.03c12.48-.02,24.96-.05,37.44-.07,1.16,0,2.35-.12,3.26.85-12.47.02-24.94.05-37.41.05-1.15,0-2.35.1-3.28-.83Z"/>
      <path class="cls-4" d="M217.46,482.47c1.69-2.7,4.23-3.38,6.37-4.59.94-.53,2.02-.52,2.64.51.64,1.06.03,1.97-.82,2.58-2.31,1.66-4.66,3.27-8.19,1.5Z"/>
      <path class="cls-5" d="M229.71,462.39c1.05.49,3.19-.97,3.14,1.12-.04,1.7-1.2,3.91-3.36,3.63-1.67-.21-4.07-1.41-3.95-3.26.14-2.23,2.67-1.1,4.17-1.49Z"/>
      <path class="cls-5" d="M344.09,453.78c-2.03,1.37-3.88,3.41-6.2,1.19-.42-.4-.89-1.52-.75-1.64,2.39-2.08,4.56,1.19,6.95.45Z"/>
      <path class="cls-5" d="M233.31,484.67c-1.01.05-1.86.26-2.64.1-1.37-.29-3.07.51-4.05-1.05-.14-.23.18-.95.49-1.23,1.47-1.34,3.05-1.04,4.58-.09.67.42,1.55.69,1.62,2.26Z"/>
      <path class="cls-1" d="M264.25,332.48c-12.97-1-25.42-2.95-35.77-11.01-13.08-10.18-18.05-24.41-18.94-40.45-.15-2.75.46-4.43,3.78-4.42,3.18.02,5.57.79,5.24,4.35-.67,7.21,2.05,13.4,4.91,19.72,6.52,14.41,18.33,22.07,33.29,23.33,39.2,3.29,66.05-20.32,78.72-52.37,2.03-5.12,3.91-10.4,4.94-15.79.96-4.98,4.18-4.91,7.39-4.09,3.83.99,2.26,4.64,1.67,6.78-3.06,11.17-6.88,22.17-13.3,31.89-17.08,25.87-40.91,40.39-71.94,42.06Z"/>
      <path class="cls-1" d="M293.28,226.88c-.35-5.96.65-11.18,2.86-16.14,2.99-6.69,8.94-9.79,15.89-8.42,6.56,1.29,10.61,6.76,11.65,13.59,1.44,9.53-1.36,17.46-7.51,24.39-3.95,4.45-8.65,6.25-14.84,4.16-6.14-2.07-7.15-6.92-8-12.08-.32-1.95-.05-4.01-.05-5.51Z"/>
      <path class="cls-1" d="M267.05,218.42c-.11,6.93-2.38,13.11-6.49,18.67-2.94,3.97-6.85,6.25-11.72,5.21-5.02-1.07-8.91-4.25-10.04-9.44-1.93-8.88-.27-17.36,4.57-25.03,2.38-3.77,9.6-5.71,14.08-4.35,6.09,1.86,9.01,5.46,9.59,11.91.09,1,.01,2.02.01,3.03Z"/>
      <path class="cls-1" d="M295.41,255.05c.07,9.61-8.94,19-18.52,19.79-5.29.43-10.19.39-14.62-3.14-8.77-6.99-8.93-12.46-3.1-22.56,6.89-11.94,23.78-11.05,30.79-5.39,4.02,3.25,5.41,6.16,5.45,11.3Z"/>
      <path class="cls-1" d="M264.25,95.21c-.56-10.5-4.1-20.15-9.8-29.06-1.35-2.11-3.28-3.81-5.47-5.13-5.41-3.29-15.16-1.96-18.61,2.53-2.19,2.84-.54,10.5,3.31,14.85,1.55,1.75,3.18,3.49,5.01,4.95,5.69,4.53,10.47,9.89,14.88,15.64,2.05,2.66,4.22,5.78,8.16,4.37,3.98-1.42,1.47-5.31,2.52-8.15ZM239.98,74.57c-1.53-2-2.15-4.31-.84-6.57,1.25-2.18,3.56-2.2,5.82-2.11,1.46.06,2.38.47,3.08,1.97,2.81,6.05,5.32,12.17,6.52,19.98-5.39-5.06-10.77-8.29-14.58-13.27Z"/>
      <path class="cls-1" d="M329.91,58.98c-6.03-3.32-11.62-3.03-17.09,2.09-10.97,10.26-15.05,24.11-19.11,37.88-.21,2.23.46,3.64,2.34,4.75,2.37,1.39,4.32.37,5.99-.97,6.76-5.41,13.66-10.7,20-16.58,4.14-3.84,8.63-7.49,11.65-12.43,3.65-5.96,2.22-11.44-3.78-14.74ZM325.75,69.3c-1.45,3.16-3.8,5.46-6.46,7.55-3.42,2.69-6.82,5.39-10.24,8.09,2.26-7.84,5.51-14.92,12.57-19.29,1.06-.65,2.27-2.57,3.84-.99,1.31,1.31,1.06,2.93.29,4.64Z"/>
      <path class="cls-3" d="M271.72,268.65c-2.69-.26-6.14-.86-7.95-4.09-1.78-3.18-1-6.44.89-9.49,4.35-7.03,11.56-10.01,18.37-7.71,2.56.86,3.91,2.42,4.16,5.03.71,7.28-7.38,16.2-15.47,16.27Z"/>
    </g>
  </g>
</svg>