<?xml version="1.0" encoding="UTF-8"?>
<svg id="Layer_1" data-name="Layer 1" xmlns="http://www.w3.org/2000/svg" viewBox="0 0 512 512">
  <defs>
    <style>
      .cls-1 {
        fill: #df6d97;
      }

      .cls-2 {
        fill: #e7db60;
      }

      .cls-3 {
        fill: #a0c3cd;
      }

      .cls-4 {
        fill: #171717;
      }

      .cls-5 {
        fill: #9cc7d4;
      }

      .cls-6 {
        fill: #e2e5b4;
      }

      .cls-7 {
        fill: #f3e16e;
      }

      .cls-8 {
        fill: #141414;
      }

      .cls-9 {
        fill: #f5df3d;
      }

      .cls-10 {
        fill: #efabc9;
      }

      .cls-11 {
        fill: #fff;
      }

      .cls-12 {
        fill: #f0f0c6;
      }

      .cls-13 {
        fill: #efeeaf;
      }

      .cls-14 {
        fill: #efd20b;
      }

      .cls-15 {
        fill: #eedb4e;
      }

      .cls-16 {
        fill: #ddcc4e;
      }

      .cls-17 {
        fill: #f6eec1;
      }

      .cls-18 {
        fill: #f1e28f;
      }

      .cls-19 {
        fill: #9bcdda;
      }

      .cls-20 {
        fill: #ebe9d2;
      }

      .cls-21 {
        fill: #a3c9d6;
      }

      .cls-22 {
        fill: #ead23b;
      }

      .cls-23 {
        fill: #573041;
      }
    </style>
  </defs>
  <g id="_92anqQ" data-name="92anqQ">
    <g>
      <path class="cls-8" d="M426.77,249.35c2.83,7.24,2.39,14.87,2.71,22.42.17,3.88-.77,8.36,3.38,10.72,4.56,2.59,8.98.75,13.06-1.69,3.45-2.07,6.08-4.99,8.25-8.4,3.11-4.87,5.99-3.47,7.59.98,8.52,23.8-5.44,55.92-29.66,59.49-17.31,2.55-19.63,13.65-25.49,24.58-2.4,4.47-.95,6.21,2.88,8.24,3.07,1.63,5.25,2.45,7.21-1.29.9-1.72,2.22-3.32,3.65-4.65,5.98-5.6,13.32-8.77,20.73-4.73,8.07,4.4,9.28,13.2,6.22,20.91-2.04,5.12-.81,6.26,2.96,8.79,6.16,4.14,9.29,10.44,7.87,17.98-1.32,7.03-6.83,9.35-13.26,9.5-5.55.13-2.99,3.81-3.01,6.25-.1,12.86-4.96,16.7-17.37,13.39-2.73-.73-5.04-2.95-7.96.19-5.97,6.4-13.12,9.21-21.17,3.89-8.33-5.51-8.2-14.17-5.89-22.27,1.67-5.86.27-8.17-4.92-10.37-3.88-1.65-6.2-1.65-9.29,1.62-18.82,19.96-41.64,33.25-68.3,39.87-3.26.81-6.35,1.57-6.73,5.91-.42,4.87-.86,8.41,6.39,6.47,10.47-2.8,21.03-2.18,30.78,3.26,13.89,7.74,16.01,22.37,5.07,33.87-6.44,6.77-14.68,10.02-23.61,11.57-18.51,3.22-36.88,3.98-54.02-5.59-3.65-2.04-5.36.36-7.85,1.69-18.18,9.7-37.39,12.37-57.53,8.04-4.56-.98-8.79-2.83-12.5-5.72-10.21-7.96-10.59-19.52-.61-27.73,8.74-7.19,19.22-10.17,30.31-10.68,5.16-.24,5.45-1.49,4.47-6.46-1.89-9.57-6.57-13.65-16.37-15.64-24.27-4.93-46.49-15.07-64.7-32.34-5.93-5.63-10.51-1.27-15.16.66-5.97,2.46-.46,6.15.42,8.73,4.15,12.21,3.15,21.57-3.46,25.29-7.32,4.12-14.77,1.47-23.81-8.45-10.9,8.09-17.18,5.9-21.68-7.34-.88-2.6.47-6.77-5.22-6.36-5.66.41-10.25-2.5-11.93-8.42-1.71-6.03.38-11.14,4.77-15.21,2.63-2.44,5.77-4.32,9.13-6.78-2.41-2.89-5.6-5.69-7.47-9.2-3.39-6.34-2.87-13.02,1.88-18.49,4.98-5.74,11.27-4.25,17.29-1.53,4.97,2.25,9.43,5.75,11.23,10.72,3.08,8.49,8,9.26,15.84,5.02-10.81-15.08-19.39-31.29-23.77-49.36-.97-4.02-3.55-3.79-6.5-4.29-25.12-4.23-38.73-25.47-32.35-50.3.46-1.79,0-4.34,2.7-4.56,2.18-.18,3.7,1.5,4.61,3.25,2.43,4.69,2.82,12.01,11.02,9.4,8.42-2.68,13.89-8.85,15.98-17.32,2.19-8.91,1.87-18.36,5.52-27,.22,5.17,1.68,8.18,7.21,4.18.89.48,1.77.96,2.66,1.44,1.28,2.63,3.7,2.52,6.07,2.51-9.47,14.71-15.24,30-13.47,48.31,3.08,31.78,13.17,60.24,34.64,84.16,3.92,4.37.23,5.18-2.39,5.77-7.08,1.6-14.3,2.53-21.41,3.98-5.12,1.05-7.92-.63-9.62-5.7-1.69-5.02-4.69-9.54-9.07-12.75-2.93-2.14-6.48-4.47-9.79-1.1-3.35,3.43-3.6,7.7-.69,11.74,2.61,3.63,6.59,5.34,10.51,7.12,2.03.92,4.99,1.44,4.85,4.26-.14,2.89-2.54,4.38-5.23,5.27-4.02,1.33-8.6,1.57-11.51,5.23-2.55,3.21-7.27,6.92-2.96,10.85,3.9,3.56,7.83.13,10.67-3.52,2.52-3.23,3.86-7.78,9.02-8.4,2.18,5.63-1.81,9.54-3.52,13.98-1.92,5.02-3.62,10.05-.52,15.13,1.1,1.8,3.39,2.9,5.11,1.49,4.17-3.4,4.81-8.3,4.58-13.39-.14-3.02-.31-6.73,3.82-6.68,3.87.04,4.14,3.83,4.08,6.74-.12,5.88,1.42,11.1,5.11,15.64,2.72,3.34,5.94,5.26,10.35,2.98,4.16-2.15,3.96-5.83,3.02-9.44-1.42-5.47-4.16-10.37-7.34-15.05-1.1-1.62-4.44-4.02-1.08-5.56,8.37-3.84,16.99-7.3,25.78-10.02,5.71-1.77,6.76,5.22,10.54,7.5,4.22,2.53,7.84,6.04,11.91,8.85,16.03,11.05,33.84,17.63,52.96,20.96,7.35,1.28,12.42,4.32,13.31,13.18.88,8.78,3.76,17.37,5.92,26,1.22,4.88,2.6,10.56,9.5,7.86,5.35-2.09,14.11-1.94,10.49-12.48-1.69-4.9-2.13-10.38-2.29-15.62-.15-4.93-1.91-13.31,3.89-13.45,7.54-.19,5.02,8.23,5.33,13.5.06.99-.09,1.99,0,2.97,2,21.11,1.73,21.56,22.94,24.2,11.5,1.43,14.72-3.67,10.39-14.86-3.38-8.72-1.75-17.51.47-26.18.55-2.14,1.53-3.91,4.55-4.24,26.86-2.98,48.74-16.66,66.66-35.42,9.01-9.43,15.61-11.07,26.24-5.1,6.49,3.64,16.44,3.77,6.62,15.14-3.77,4.36-1.66,11.55,3.32,16.11,2.68,2.45,5.8,3.22,8.94.69,5.49-4.44,3.04-9.37.78-14.26-.28-.6-.46-1.24-.74-1.84-1.23-2.7-1.29-5.18,1.64-6.82,3.65-2.04,4.59,1.23,5.79,3.33,2.14,3.7,3.71,7.75,6.01,11.33,2.05,3.18,5.41,5.91,9.13,3.71,3.6-2.12,1.45-5.95.31-8.92-2.1-5.45-6.73-8.86-10.83-12.66-1.65-1.53-3.77-2.91-2.26-5.77,1.68-3.17,4.41-2.81,6.81-1.62,4.12,2.05,7.87,4.88,12.03,6.82,3.77,1.75,8.93,4.48,11.37-.56,2.27-4.69-2.32-8.02-6.29-9.62-5.89-2.38-12.14-3.86-18.33-5.75,2.21-5.86,7.44-6.95,11.59-9.42,4.12-2.46,4.97-5.88,2.79-10.1-2.43-4.67-6.07-5.71-10.75-3.53-2.8,1.3-5.37,3.36-6.19,6.14-3.2,10.89-9.49,9.03-16.8,4.67-3.96-2.36-8.12-4.41-12.17-6.63-2.35-1.29-3.82-3.36-1.76-5.57,12.97-13.86,15.95-32.03,21.44-49.1,5.7-17.73,8.14-35.34-3.05-52.11,2.18-.53,4.65-.16,6.37-2.09.77-.17,1.54-.35,2.31-.52,11.68,5.65,5.92-4.99,7.87-8.43ZM264.05,484.96c-1.78,6.19,1.26,8.92,5.52,10.63,19.16,7.66,38.55,8.24,57.97,1.12,5.42-1.99,9.41-6.09,12.37-11.01,5.45-9.07,1.44-18.73-8.7-21.84-3.83-1.18-5.77-.68-7.48,3.46-8.22,19.87-12.42,22.42-32.92,22.47-9.04.02-17.72-1.37-26.76-4.82ZM214.81,504.36c12.2-.1,22.86-1.91,32.93-6.44,3.61-1.62,7.17-3.53,8.69-7.58,1.02-2.71.38-5.4-2.87-3.79-8,3.97-17.51,3.08-25.02,8.18-1.73,1.18-3.78,2.71-5.27,1.26-5.5-5.33-13.71-6.19-18.93-12.02-1.79-2-2.62-6.9-7.34-4.23-4.71,2.67-9.05,5.83-9.65,11.69-.41,4.08,2.31,6.61,5.7,8.46,7.19,3.93,14.96,4.83,21.76,4.47ZM452.82,287.59c-7.01,2.71-13.85,6.65-21.67,2.61-3.49-1.81-3.68,1.19-4.17,3.37-2.01,8.99-3.71,18.06-6.03,26.97-1.65,6.35.86,6.39,5.92,5.31,17.51-3.74,28.54-19.65,25.94-38.27ZM64.48,291.84c-7.89-.54-8.79.43-6.39,7.8,2.83,8.66,8.18,15.04,17.36,17.4,6.76,1.74,11.04.98,8.77-7.92-1.12-4.4-1.07-9.18-1.01-13.78.08-6.55-1.28-9.58-8.1-4.99-3.09,2.08-6.99,1.61-10.63,1.49ZM307.95,465.41c-.94-.43-1.89-.86-2.83-1.29-6.42,4.98-6.23,11.7-5.64,18.52,1.15.32,2.3.64,3.44.97,1.68-6.07,3.35-12.13,5.03-18.2ZM215.99,470.88c2.23,5.46,4.32,10.72,6.55,15.93.49,1.14,1.51,2.33,2.98,1.49.72-.41,1.33-1.4,1.55-2.24,1.43-5.45-4.59-13.9-11.09-15.18ZM310.95,477.36c4.62-4.98,7.36-7.99,5.83-13.25-4.31,2.88-5.32,6.62-5.83,13.25ZM209.3,475.73c-.56,3.55,1.54,5,4.08,6.17.06.03.36-.47.65-.87-.44-2.37-1.11-4.63-4.74-5.3Z"/>
      <path class="cls-8" d="M146.38,192.01c-2.17,1.02-4.74,2.5-2.29,4.92,3.12,3.07,7.39,2.34,11.06.8,2.53-1.06,2.75-4.65,1.54-5.94-3.12-3.33-6.94-2.15-10.35.28l.47.34-.43-.39ZM244.08,142.01c2.03-2.09,4.09-4.48,3.43-7.42-.42-1.86-2.58-.94-4.01-.26-13.12-.96-26.41-.36-39.15-4.69-1.69-.57-3.96-.25-5.72.36-25.31,8.77-47.98,21.74-65.91,42.08-2.06,1.45-4.56,2.57-4.4,5.93,4.77.91,9.74,3.38,13.84,3.41,8.85.07,18.06,5.77,26.75-.52,2.67-.71,5.34-1.42,8-2.13,6.54-.04,12.9-1.22,19.18-2.93,20.23-5.27,37.71-14.45,47.98-33.84ZM378.97,169.74c-10.11-13.81-23.76-23.17-38.69-30.95-2.42-2.4-5.35-3.7-8.73-4.02-5.72-2.43-11.3-5.31-17.19-7.18-6.48-2.06-13.4-5.79-20.05-2.95-11.01,4.69-22.38,7.25-34.31,8.22,6.15,18.8,26.24,33.75,50.58,38.16,11.82,4.58,24.66,4.22,36.74,7.54,8.75,3.98,17.31,3.83,25.67-1.11h11.21c-1.29-3.56-2.9-5.88-5.22-7.69ZM259.92,10.12c-.06-4.29-2.76-4.37-5.44-3.93-4.26.7-7.22,3.11-7.47,7.63-.18,3.23,1.87,4.66,5.03,4.23,4.84-.66,7.47-3.47,7.87-7.93ZM331.28,185.72c.71,4.76,4.15,7.2,7.71,9.3,2.86,1.69,6.39,2.95,8.32-1.04,1.67-3.46-1.22-5.48-3.91-6.6-3.74-1.56-7.59-3.58-12.12-1.66ZM208.15,35.01c.03-2.61-.3-5.32-3.27-5.11-4.7.32-7.78,3.11-8.28,8.02-.26,2.58.77,4.65,3.78,4.35,4.42-.45,6.95-3.12,7.77-7.25ZM137.96,188.89c.1-2.78-2.48-2.54-4.54-2.59-3.91-.1-8.55-.34-9.16,4.75-.4,3.36,3.22,4.58,6.16,4.94,4.63.56,5.82-3.17,7.54-7.09ZM386.83,188.56c-1.1-3.5-4.13-3.79-7.05-3.67-2.71.11-6.58-.62-6.49,3.78.06,3.22,1.82,5.7,5.78,4.76,3.06-.72,6.75-.51,7.76-4.87ZM181.67,187.66c-6.53.78-12.04.59-15.8,5.58-.97,1.29-.34,2.72,1.08,2.91,6.18.82,11.55-.29,14.72-8.49ZM397.82,189.13c4.23-.51,6.96-2.44,7.33-6.66.26-2.99-1.66-3.95-4.3-3.75-3.22.25-7.2.33-7.57,4.3-.23,2.42.98,5.8,4.54,6.11ZM115.05,182.8c-1.77.54-4.67.94-5.25,3.96-.54,2.82,1.94,3.87,4.09,4.55,4.5,1.43,3.14-2.97,4.25-4.72,1.37-2.15.34-3.66-3.09-3.79ZM365.55,191.09c-1.27-3.08-4.01-2.69-6.51-2.71-3.01-.03-4,1.97-3.48,4.44.63,2.99,3.25,2.55,5.43,2.22,2.26-.34,4.32-1.14,4.57-3.95ZM426.77,249.35c-1.94-16.37-9.35-30.79-16.3-45.35-2.15-4.52-3.62-7.74.01-13.15,7.14-10.65.75-20.6-12.14-19.91-4.21.22-6.57-.91-9.1-4.05-22.27-27.62-51.37-43.87-85.85-51.02-2.23-.46-5.48-.26-6.49-1.65-6.78-9.39-16.06-17.92-10.42-31.77,2.71-6.66,3.65-14.02,5.53-21.03,1.36-5.09,3.57-8.37,10.09-8.47,7.48-.11,12.88-4.71,11.22-12.94-1.68-8.33-8.67-11.67-16.37-11.55-8.03.12-12.08,5.63-10.84,13.36.71,4.38-.13,6.76-3.66,8.88-6.6,3.95-13.31,6.84-19.64-.01-6.62-7.15-7.22-23.79-1.47-29.68,5.2-5.32,7.17-11.37,2.03-17.53-4.11-4.92-14.06-4.47-18.96.37-5.84,5.78-5.66,12.3.49,17.13,4.15,3.25,3.8,6.27,2.86,10.18-1.33,5.47-3.05,10.82-6.05,15.62-6.77,10.88-18.38,12.19-27.58,3.31-2.87-2.77-4.35-4.9-1.4-9.06,3.93-5.53,3.49-11.72-2.89-15.33-6.87-3.89-13.1-1.02-17.31,4.81-4.34,6.02-3.23,12.06,3.25,16.09,2.67,1.66,4.71,3.28,5.74,6.3,3.98,11.57,8.23,23.2,8.45,35.49.1,6.26,6.06,15.93-6.66,17.72-10.18,1.44-5.4,13.99-12.97,17.31-.61.27-1.21.55-1.82.79-24.95,9.87-46.67,24.51-65.07,44.05-3.36,3.57-6.67,6.31-12.11,7.39-7.13,1.41-10.25,7.88-7.87,14.61,1.74,4.89.09,8.04-1.68,11.88-1.79,3.86-3.13,7.91-4.67,11.88,4.11,9.48,3.18,12.17-4.13,11.92.75,3.37,1.91,6.71,2.1,10.12.21,4.04-1.75,6.05-5.98,3.89.23,5.12,1.7,8.07,7.2,4.09,1.5-4.84,2.99-9.68,4.49-14.52-.16-.5-.04-.92.34-1.27.51-1.59,1.02-3.18,1.54-4.76,1.64-4.54,3.11-9.14,4.97-13.59,4.95-11.84,7.79-12.71,19.38-6.3,2.05.53,4.1,1.05,6.15,1.57-1.31,1.31-2.62,2.61-3.93,3.91-7.79,8.43-15.59,16.86-23.38,25.28-2.3,3.71-4.6,7.42-6.91,11.13,1.29,2.62,3.7,2.51,6.07,2.5,9.99-12.27,21.14-23.41,32.39-34.53,8.15-8.06,18.18-8.76,27.76-8.92,15.26-.25,19.8-1.89,25.18-16.13,1.04-2.75,2.53-3.35,4.89-3.83,25.17-5.15,44.82-18.34,58.75-41.63,15.02,23.46,36.9,34.8,62.71,39.44,3.76.68,4.43,3.06,5.69,5.79,6.37,13.84,11.39,15.49,27.06,14.29,9.57-.73,19.16-.43,26.77,9.6,11.36,14.95,22.75,29.8,32.54,45.83.51.83,1.02,1.65,1.51,2.48,2.17-.51,4.61-.17,6.31-2.07-8.9-20.85-24.81-36.88-38.14-54.57.78-.78,1.13-1.41,1.64-1.6,15.79-5.89,15.66-5.81,23.37,9.15,7.59,14.72,13.44,29.95,15.44,46.49,11.68,5.66,5.92-4.99,7.87-8.43ZM291.78,40.53c.39-4.98,4.15-6.33,8.39-6.3,4.18.03,6.63,2.34,7.09,6.77-.91,4.37-3.88,6.53-8.27,6.64-4.71.12-7.6-2.18-7.21-7.11ZM211.29,57.34c5.23,2.81,8.32,4.47,11.41,6.13,1.15.19,2.3.38,3.45.57,1.82.02,3.62.05,5.45.07h.01c.85-.1,1.7-.2,2.55-.3,2.57-1.46,5.13-2.93,7.7-4.39,3-3.75,5.99-7.49,9.11-11.39,3.65,3.91,7.27,7.8,10.89,11.69.92.51,1.85,1.02,2.77,1.53h.01c.5-.27.88-.15,1.13.37h15.49c.74,3.75-.62,6.75-1.71,9.8-1.35,9.96-2.69,19.93-4.04,29.89-.12,1.33-.24,2.65-.37,3.98.12.64,0,1.04-.34,1.23-.1.05-.21.09-.35.11-.18.02-.39.02-.63-.02-2.55,1.31-5.06,2.78-8.11,2.4-8.35,3-16.92,3.32-25.63,2.11h-.01c-1.36-.07-2.72-.15-4.09-.23-3.5.46-6.66-.59-9.71-2.16-11.13-2.13-5.4-10.75-6.46-16.76h0c-2.32-11.03-2.67-22.44-8.52-34.63ZM288.94,115.16c-1.83,5.34-5.93,7.53-11.3,7.81l-.71.4-.8-.16c-2.55,1.81-5.43,1.86-8.37,1.6-15.06,2.93-30.13,2.9-45.23.32-5.3.64-10.44-.36-15.36-2.11-3.22-1.15-7.91-2.6-6.21-7.03,1.47-3.84,7.58-5.71,9.97-3.92,6.53,4.9,14.33,3.89,21.19,6.55,11.01.08,22.01.15,33.02.23,6.02-3.24,14.91-.88,18.25-9.48.56-1.44,2.26-.95,3.38-.18.2.14.39.28.57.42.18.15.34.3.49.46,1.33,1.35,1.8,3.07,1.11,5.09ZM410.29,260.39s0-.01-.01-.01c-.02,0-.04.01-.06.01h.07ZM92.93,225.94h.06s-.01-.05-.02-.07l-.04.07ZM89.08,239.94s.02.01.03.01c-.01-.03-.01-.06-.01-.09l-.02.08Z"/>
      <path class="cls-11" d="M265.71,109.01c-8.35,3-16.92,3.32-25.63,2.11,1.22-1.53,3.51-3.05,3.49-4.56-.24-15.72,2.67-31.58-1.71-47.14,3-3.75,5.99-7.49,9.11-11.39,3.65,3.91,7.27,7.8,10.89,11.69.92.51,1.85,1.02,2.77,1.53h.01c.5-.27.88-.15,1.13.37-3.67,2.86-5.04,6.47-6.41,11.13-2.37,8.05,2.2,15.53-.05,23.07-1.96,6.57.95,10.4,6.4,13.19Z"/>
      <path class="cls-8" d="M92.97,225.87c.74,3.39,1.93,6.77,2.11,10.19.22,4.05-1.76,6.06-6,3.88,0-5.05,1.56-9.67,3.89-14.07Z"/>
      <path class="cls-8" d="M97.12,214.02c4.11,9.51,3.17,12.18-4.19,11.92.32-4.35,1.76-8.31,4.19-11.92Z"/>
      <path class="cls-10" d="M105.03,247.99c9.99-12.28,21.14-23.41,32.39-34.54,8.14-8.06,18.18-8.76,27.76-8.91,15.26-.25,19.79-1.9,25.18-16.13,1.04-2.76,2.53-3.35,4.89-3.83,25.17-5.15,44.82-18.34,58.75-41.63,15.02,23.46,36.9,34.8,62.71,39.44,3.76.68,4.43,3.06,5.68,5.79,6.38,13.84,11.39,15.49,27.06,14.29,9.57-.73,19.15-.43,26.77,9.6,11.36,14.96,22.75,29.8,32.54,45.84.51.83,1.01,1.66,1.52,2.49h-.07c11.19,16.77,8.75,34.38,3.05,52.11-5.49,17.07-8.47,35.24-21.44,49.1-2.07,2.21-.6,4.28,1.76,5.57,4.05,2.22,8.21,4.26,12.17,6.63,7.31,4.36,13.59,6.22,16.8-4.67.82-2.78,3.38-4.84,6.19-6.14,4.68-2.18,8.32-1.14,10.75,3.53,2.19,4.22,1.34,7.64-2.79,10.1-4.15,2.47-9.38,3.57-11.59,9.42,6.19,1.89,12.44,3.37,18.33,5.75,3.97,1.6,8.56,4.94,6.29,9.62-2.44,5.04-7.6,2.31-11.37.56-4.17-1.94-7.91-4.77-12.03-6.82-2.4-1.19-5.13-1.56-6.81,1.62-1.51,2.86.61,4.24,2.26,5.77,4.11,3.81,8.73,7.21,10.83,12.66,1.14,2.97,3.29,6.8-.31,8.92-3.72,2.2-7.09-.52-9.13-3.71-2.3-3.58-3.87-7.63-6.01-11.33-1.21-2.09-2.14-5.37-5.79-3.33-2.93,1.64-2.86,4.11-1.64,6.82.27.6.46,1.24.74,1.84,2.26,4.9,4.71,9.83-.78,14.26-3.14,2.54-6.26,1.77-8.94-.69-4.98-4.56-7.09-11.75-3.32-16.11,9.82-11.36-.13-11.49-6.62-15.14-10.63-5.97-17.23-4.34-26.24,5.1-17.92,18.76-39.81,32.44-66.66,35.42-3.02.33-4,2.1-4.55,4.24-2.22,8.67-3.85,17.46-.47,26.18,4.34,11.19,1.11,16.29-10.39,14.86-21.21-2.64-20.94-3.09-22.94-24.2-.09-.98.06-1.98,0-2.97-.31-5.27,2.21-13.69-5.33-13.5-5.8.14-4.04,8.52-3.89,13.45.16,5.24.61,10.72,2.29,15.62,3.62,10.54-5.14,10.39-10.49,12.48-6.9,2.7-8.28-2.98-9.5-7.86-2.16-8.63-5.04-17.22-5.92-26-.89-8.85-5.96-11.9-13.31-13.18-19.12-3.33-36.93-9.91-52.96-20.96-4.07-2.81-7.69-6.31-11.91-8.85-3.78-2.27-4.83-9.26-10.54-7.5-8.79,2.72-17.41,6.18-25.78,10.02-3.35,1.54-.02,3.94,1.08,5.56,3.17,4.68,5.92,9.58,7.34,15.05.94,3.61,1.14,7.29-3.02,9.44-4.41,2.27-7.64.36-10.35-2.98-3.69-4.54-5.23-9.77-5.11-15.64.06-2.91-.21-6.7-4.08-6.74-4.12-.05-3.95,3.66-3.82,6.68.23,5.09-.4,9.99-4.58,13.39-1.73,1.41-4.02.31-5.11-1.49-3.1-5.08-1.4-10.12.52-15.13,1.7-4.44,5.69-8.35,3.52-13.98-5.16.62-6.5,5.17-9.02,8.4-2.84,3.65-6.77,7.07-10.67,3.52-4.31-3.93.41-7.64,2.96-10.85,2.91-3.66,7.49-3.91,11.51-5.23,2.69-.89,5.09-2.38,5.23-5.27.14-2.82-2.82-3.34-4.85-4.26-3.92-1.78-7.9-3.49-10.51-7.12-2.91-4.05-2.66-8.32.69-11.74,3.3-3.37,6.86-1.05,9.79,1.1,4.38,3.21,7.38,7.73,9.07,12.75,1.7,5.07,4.5,6.75,9.62,5.7,7.11-1.45,14.34-2.39,21.41-3.98,2.61-.59,6.31-1.4,2.39-5.77-21.48-23.93-31.57-52.38-34.64-84.16-1.78-18.31,3.99-33.6,13.46-48.31ZM252.75,351c31.23-.03,58.08-19.66,65.65-48.55,2.72-10.37,4.97-18.98,17.16-20.46.61-.07,1.24-.51,1.74-.92,2.5-2.05,6.82-4.25,5.34-7.44-2.06-4.44-5.68-.28-8.29.72-7.83,2.99-15.43,6.99-22.13-2.15-1.36-1.86-3.34-5.09-6.29-2.54-2.47,2.15-1.08,5.18.79,7.06,6.9,6.93,5.55,14.81,3.36,23.04-8.08,30.38-36.65,46.23-70.01,38.54-29.53-6.8-41.92-28.5-48.06-55.64-1.16-5.11-2.54-9.63,4.54-11.54,1.95-.53,4.12-2.68,2.99-5.46-1.17-2.9-3.96-2.56-5.91-1.49-6.65,3.65-12.05.33-17.64-2.56-2.27-1.17-5.26-3.43-7.01-.61-1.51,2.43,1.01,5.49,3.21,6.53,7.96,3.77,8.91,11.06,10.79,18.37,2.96,11.52,7.03,22.69,13.6,32.78,13.65,20.97,32.97,31.7,56.17,32.31ZM252.48,226.17c-12.77-.2-20.84,7.14-21.17,19.26-.28,10.33,6.47,17.46,16.86,17.82,13.6.47,23.52-8.68,23.66-21.82.11-10.7-5.39-15.04-19.34-15.26ZM219.85,206.85c-.38,9.97,3.99,16.44,11.32,16.76,6.88.3,12.55-6.18,12.88-14.7.36-9.45-4.58-16.72-11.41-16.77-7.28-.04-12.45,5.9-12.79,14.71ZM290.22,205.79c-.2-9.42-5.64-16.44-12.41-16.04-7.19.43-12.08,6.74-11.96,15.44.13,9.68,5.1,16,12.46,15.83,7.29-.16,12.1-6.32,11.91-15.23ZM222.19,259.58c2.13-.53,3.82-1.62,3.36-3.96-.38-1.96-1.79-3.62-3.98-3.62-2.33,0-3.46,1.63-3.17,3.87.28,2.1,1.59,3.45,3.79,3.71ZM214.09,252.17c-.43-2.05-1.86-3.29-3.91-3.42-1.78-.12-3.08,1.13-3.08,2.87,0,2.29,1.78,3.38,3.81,3.47,1.66.07,2.93-.94,3.18-2.92ZM307.31,251.37c-.9-1.12-1.97-2.91-4.32-2.44-1.84.37-2.79,1.76-2.17,3.67.57,1.74,2.08,2.76,3.78,2.64,1.68-.12,3.09-1.12,2.7-3.88ZM316.02,234.85c-1.8.56-2.6,1.81-2.39,3.59.2,1.77,1.43,3.1,3.02,3.17,1.64.07,2.98-1.18,2.9-3.05-.1-2.15-1.42-3.37-3.53-3.71ZM202.78,238.3c-2.46-.2-3.56,1.21-3.42,2.87.13,1.57,1.38,2.94,3.3,3.03,1.71.08,3.5-.15,3.56-2.27.07-2.36-1.84-3.16-3.44-3.63ZM296.94,240.77c-1.1-.76-2.25-2.08-3.64-2.41-1.95-.47-3.07,1.25-2.86,2.88.2,1.54,1.44,2.89,3.35,2.94,1.98.05,2.79-1.19,3.15-3.4ZM194.6,245.82c-.32-2-1.84-2.71-3.5-2.6-1.81.11-3.21,1.38-2.56,3.28.34.98,1.83,2.07,2.89,2.17,1.66.16,3.16-.72,3.17-2.85ZM307.39,239.02c-.17-2.04-1.39-3.15-3.11-3.21-1.21-.04-2.56.56-2.61,2.26-.06,1.85.81,3.28,2.55,3.59,1.91.35,2.83-1.06,3.17-2.65ZM319.66,251.24c.1-2.17-1.07-3.24-2.75-3.47-1.62-.22-3.27.27-3.26,2.37,0,1.8,1.28,2.89,2.88,3.34,2.03.58,2.79-.8,3.13-2.25ZM292.76,254.7c.43-1.86-.65-2.87-2.23-3.5-1.37-.55-2.54-.03-3.07,1.24-.65,1.56-.54,3.24,1.31,3.88,1.57.55,3.06.06,3.99-1.63ZM222.09,239.62c-.22-1.47-1.52-2.66-3.59-2.9-1.45-.17-2.43.71-2.5,2.16-.12,2.31,1.37,3.45,3.44,3.57,1.21.07,2.51-.45,2.65-2.84Z"/>
      <path class="cls-19" d="M264.05,484.96c9.04,3.46,17.72,4.85,26.76,4.83,20.5-.05,24.7-2.6,32.92-22.47,1.71-4.14,3.65-4.64,7.48-3.46,10.14,3.12,14.15,12.78,8.7,21.84-2.96,4.91-6.95,9.02-12.37,11.01-19.42,7.11-38.81,6.54-57.97-1.12-4.26-1.7-7.3-4.44-5.52-10.63Z"/>
      <path class="cls-19" d="M214.81,504.36c-6.81.36-14.57-.54-21.76-4.47-3.4-1.86-6.12-4.38-5.7-8.46.6-5.86,4.94-9.02,9.65-11.69,4.72-2.67,5.55,2.23,7.34,4.23,5.22,5.83,13.43,6.69,18.93,12.02,1.49,1.44,3.53-.08,5.27-1.26,7.51-5.1,17.02-4.2,25.02-8.18,3.26-1.62,3.89,1.08,2.87,3.79-1.52,4.05-5.09,5.96-8.69,7.58-10.07,4.54-20.73,6.34-32.93,6.44Z"/>
      <path class="cls-14" d="M452.82,287.59c2.6,18.62-8.43,34.53-25.94,38.27-5.06,1.08-7.57,1.03-5.92-5.31,2.32-8.91,4.02-17.98,6.03-26.97.49-2.18.67-5.18,4.17-3.37,7.81,4.04,14.65.1,21.67-2.61Z"/>
      <path class="cls-14" d="M416.59,258.31c-8.91-20.85-24.81-36.88-38.14-54.56.78-.78,1.12-1.41,1.64-1.61,15.79-5.88,15.66-5.81,23.37,9.16,7.59,14.72,13.44,29.95,15.44,46.49-.77.17-1.54.35-2.3.52Z"/>
      <path class="cls-14" d="M64.48,291.84c3.64.12,7.54.59,10.63-1.49,6.82-4.59,8.18-1.57,8.1,4.99-.06,4.6-.11,9.38,1.01,13.78,2.27,8.9-2.02,9.66-8.77,7.92-9.17-2.37-14.53-8.74-17.36-17.4-2.4-7.37-1.5-8.34,6.39-7.8Z"/>
      <path class="cls-19" d="M307.95,465.41c-1.68,6.07-3.35,12.13-5.03,18.2-1.15-.32-2.29-.64-3.44-.97-.59-6.83-.78-13.54,5.64-18.52.94.43,1.89.86,2.83,1.29Z"/>
      <path class="cls-19" d="M215.99,470.88c6.5,1.28,12.52,9.73,11.09,15.18-.22.84-.83,1.84-1.55,2.24-1.48.83-2.49-.35-2.98-1.49-2.23-5.21-4.33-10.47-6.55-15.93Z"/>
      <path class="cls-16" d="M96.31,244.04c1.5-4.84,2.99-9.69,4.49-14.53.53,2.83.1,6.67,5.08,4.85-2.3,3.71-4.6,7.41-6.91,11.12-.89-.48-1.77-.96-2.66-1.44Z"/>
      <path class="cls-10" d="M310.95,477.36c.5-6.63,1.51-10.37,5.83-13.25,1.54,5.26-1.21,8.27-5.83,13.25Z"/>
      <path class="cls-10" d="M209.3,475.73c3.63.66,4.3,2.92,4.74,5.3-.3.4-.6.9-.65.87-2.54-1.17-4.64-2.62-4.08-6.17Z"/>
      <path class="cls-14" d="M340.28,138.79c14.93,7.78,28.58,17.15,38.69,30.96.76,4.71-4.87,4.44-5.98,7.69-8.36,4.94-16.93,5.09-25.67,1.11.98-2.67-1.64-2.78-2.72-2.95-11.3-1.79-22.34-5.68-34.03-4.59-24.34-4.41-44.43-19.35-50.58-38.16,11.93-.97,23.3-3.53,34.31-8.22,6.65-2.83,13.57.89,20.05,2.95,5.9,1.87,11.48,4.75,17.19,7.18,1.25,4.94,5.22,3.99,8.73,4.02Z"/>
      <path class="cls-14" d="M132.71,172.09c17.94-20.34,40.6-33.31,65.91-42.08,1.76-.61,4.03-.93,5.72-.36,12.74,4.33,26.03,3.73,39.15,4.69-4.41.39-8.81.79-13.71,1.23,4.5,3.89,12.93-2.94,14.29,6.45-10.28,19.39-27.75,28.57-47.98,33.84-6.91-2.41-13.21-.79-19.18,2.93-2.67.71-5.34,1.42-8,2.13-7.09-.12-14.27.37-21.25-.56-5.73-.76-12.45-1.07-14.94-8.27Z"/>
      <path class="cls-14" d="M105.87,234.36c-4.97,1.82-4.54-2.02-5.08-4.85-.15-.49-.04-.92.34-1.27,1.81-1.17,2.03-2.85,1.54-4.76,1.65-4.53,3.12-9.14,4.98-13.59,4.94-11.84,7.78-12.71,19.38-6.29.74,1.82,1.48,3.65,2.22,5.47-7.79,8.43-15.59,16.86-23.38,25.29Z"/>
      <path class="cls-13" d="M279.54,71.42c-1.34,9.96-2.69,19.92-4.03,29.88-8.31,5.24-10.26,4.41-11.51-5.26-.93-7.18,2.89-13.95,1.91-21.24-.52-3.89-.29-7.89,4.96-9.16,5.19-1.25,6.59,2.65,8.68,5.78Z"/>
      <path class="cls-15" d="M226.14,64.04c1.82.03,3.64.05,5.46.08-1.15,1.14-2.31,2.27-3.47,3.41-.02,10.45,0,20.89-.07,31.34-.02,2.37-.62,5.16-3.3,5.19-3.38.05-2.45-3.21-2.54-5.27-.17-3.71-.05-7.42-.05-11.14-.51-.07-1.01-.14-1.52-.21-.28,1.51-.56,3.02-.84,4.53-2.32-11.02-2.67-22.44-8.53-34.63,5.23,2.81,8.32,4.47,11.41,6.13-.29.48-.58.97-.88,1.45,1.68.88,3.09.41,4.32-.89Z"/>
      <path class="cls-17" d="M243.57,106.56c.02,1.51-2.27,3.03-3.49,4.56h-.01c-1.36-.07-2.72-.15-4.09-.23-.87-1.84-.32-3.71-.33-5.61-.06-13.83,2.41-27.78-1.49-41.47,2.57-1.46,5.13-2.93,7.7-4.39,4.38,15.56,1.47,31.42,1.71,47.14Z"/>
      <path class="cls-12" d="M279.55,71.42c-2.09-3.12-3.5-7.02-8.68-5.77-5.25,1.26-5.48,5.26-4.96,9.15.98,7.29-2.83,14.07-1.91,21.24,1.25,9.67,3.2,10.5,11.51,5.27-.12,1.33-.24,2.65-.37,3.98-.67.21-1.11.65-1.32,1.32-2.55,1.31-5.06,2.78-8.11,2.4-5.45-2.79-8.36-6.62-6.4-13.19,2.25-7.54-2.32-15.02.05-23.07,1.37-4.66,2.74-8.27,6.41-11.13h15.49c.74,3.75-.62,6.75-1.71,9.8Z"/>
      <path class="cls-20" d="M267.76,124.81c-15.06,2.93-30.13,2.9-45.24.32,3.2-2.17,6.4-4.34,9.6-6.51,11.01.08,22.01.15,33.02.23,4.4.66,8.89,1.06,12.5,4.12l-.71.4-.8-.16c-2.92-.18-5.96-.96-8.37,1.6Z"/>
      <path class="cls-2" d="M232.12,118.63c-3.2,2.17-6.4,4.34-9.6,6.51-5.3.63-10.44-.36-15.36-2.11-3.22-1.15-7.91-2.6-6.21-7.03,1.47-3.85,7.58-5.71,9.97-3.92,6.53,4.9,14.33,3.89,21.19,6.55Z"/>
      <path class="cls-7" d="M219.81,91.97c.28-1.51.56-3.02.84-4.53.51.07,1.01.14,1.52.21,0,3.71-.12,7.43.05,11.14.09,2.06-.84,5.32,2.54,5.27,2.68-.04,3.28-2.83,3.3-5.19.07-10.45.05-20.89.07-31.34,4.72,4.62,5.97,34.9,1.52,39.28-.89.88-2.25,1.29-3.39,1.92-11.13-2.13-5.4-10.76-6.46-16.77Z"/>
      <path class="cls-18" d="M226.27,108.73c1.14-.63,2.5-1.04,3.39-1.92,4.44-4.39,3.2-34.66-1.52-39.28,1.16-1.14,2.32-2.27,3.47-3.41.85-.1,1.7-.2,2.55-.3,3.9,13.69,1.43,27.64,1.49,41.47,0,1.9-.54,3.77.33,5.61-3.5.47-6.66-.59-9.71-2.16Z"/>
      <path class="cls-5" d="M307.26,41c-.91,4.37-3.87,6.53-8.27,6.64-4.71.12-7.6-2.18-7.21-7.11.39-4.98,4.15-6.33,8.39-6.3,4.18.03,6.63,2.34,7.09,6.77Z"/>
      <path class="cls-6" d="M277.64,122.97c-3.61-3.06-8.1-3.46-12.5-4.12,6.02-3.24,14.91-.88,18.25-9.48.56-1.44,2.26-.95,3.38-.17,2.11,1.45,3.02,3.49,2.17,5.97-1.83,5.33-5.93,7.52-11.3,7.8Z"/>
      <path class="cls-21" d="M259.92,10.12c-.4,4.47-3.04,7.28-7.87,7.93-3.16.43-5.21-1-5.03-4.23.25-4.52,3.21-6.93,7.47-7.63,2.68-.44,5.37-.36,5.44,3.93Z"/>
      <path class="cls-14" d="M331.28,185.72c4.53-1.92,8.38.1,12.12,1.66,2.69,1.12,5.58,3.15,3.91,6.6-1.93,3.99-5.46,2.72-8.32,1.04-3.56-2.1-7-4.54-7.71-9.3Z"/>
      <path class="cls-3" d="M208.15,35.01c-.82,4.14-3.36,6.81-7.77,7.25-3.01.31-4.04-1.77-3.78-4.35.5-4.91,3.58-7.7,8.28-8.02,2.97-.21,3.3,2.5,3.27,5.11Z"/>
      <path class="cls-16" d="M132.71,172.09c2.49,7.2,9.21,7.51,14.94,8.27,6.99.92,14.16.43,21.25.56-8.69,6.29-17.89.59-26.75.52-4.1-.03-9.08-2.5-13.84-3.41-.16-3.36,2.34-4.48,4.4-5.93Z"/>
      <path class="cls-16" d="M137.96,188.89c-1.72,3.92-2.91,7.66-7.54,7.09-2.93-.36-6.56-1.57-6.16-4.94.61-5.09,5.25-4.85,9.16-4.75,2.05.05,4.63-.18,4.54,2.59Z"/>
      <path class="cls-16" d="M386.83,188.56c-1.01,4.37-4.7,4.15-7.76,4.88-3.96.93-5.72-1.54-5.78-4.76-.09-4.4,3.78-3.68,6.49-3.78,2.92-.12,5.95.17,7.05,3.67Z"/>
      <path class="cls-16" d="M181.67,187.66c-3.17,8.2-8.54,9.32-14.72,8.49-1.42-.19-2.05-1.62-1.08-2.91,3.76-5,9.26-4.81,15.8-5.58Z"/>
      <path class="cls-16" d="M310.57,171.01c11.69-1.09,22.72,2.8,34.03,4.59,1.07.17,3.69.28,2.72,2.95-12.08-3.33-24.92-2.96-36.74-7.54Z"/>
      <path class="cls-16" d="M397.82,189.13c-3.56-.32-4.77-3.69-4.54-6.11.38-3.97,4.35-4.05,7.57-4.3,2.64-.2,4.57.76,4.3,3.75-.37,4.22-3.11,6.15-7.33,6.66ZM400.79,186.13c.04-.09.75-1.22,1.06-2.45.39-1.54-.55-2.7-2.02-2.23-1.01.32-1.97,1.58-2.43,2.65-.45,1.04.49,1.71,3.38,2.04Z"/>
      <path class="cls-16" d="M115.05,182.8c3.43.13,4.46,1.64,3.09,3.79-1.11,1.75.25,6.15-4.25,4.72-2.15-.68-4.63-1.73-4.09-4.55.58-3.02,3.48-3.41,5.25-3.96Z"/>
      <path class="cls-16" d="M365.55,191.09c-.25,2.82-2.31,3.62-4.57,3.95-2.18.33-4.8.76-5.43-2.22-.52-2.47.47-4.48,3.48-4.44,2.5.03,5.24-.37,6.51,2.71Z"/>
      <path class="cls-16" d="M146.34,192.07c3.41-2.43,7.22-3.61,10.35-.28,1.21,1.29.99,4.88-1.54,5.94-3.67,1.53-7.94,2.26-11.06-.8-2.45-2.41.12-3.9,2.29-4.91,1.24,5.43,3.92,4.73,8.16,2.61-3.07-2.95-5.86-1.79-8.21-2.56Z"/>
      <path class="cls-9" d="M244.08,142.01c-1.36-9.39-9.79-2.56-14.29-6.45,4.9-.44,9.31-.83,13.71-1.23,1.43-.68,3.59-1.61,4.01.26.66,2.94-1.4,5.33-3.43,7.42Z"/>
      <path class="cls-16" d="M176.91,178.79c5.97-3.73,12.27-5.34,19.18-2.93-6.28,1.72-12.65,2.9-19.18,2.93Z"/>
      <path class="cls-16" d="M372.99,177.43c1.12-3.25,6.74-2.98,5.98-7.69,2.32,1.81,3.94,4.13,5.22,7.69h-11.2Z"/>
      <path class="cls-22" d="M340.28,138.79c-3.51-.03-7.48.93-8.73-4.02,3.38.31,6.31,1.62,8.73,4.02Z"/>
      <path class="cls-16" d="M129.25,209.08c-.74-1.82-1.48-3.65-2.22-5.47,2.05.52,4.1,1.05,6.14,1.57-1.31,1.3-2.62,2.6-3.93,3.9Z"/>
      <path class="cls-6" d="M267.76,124.81c2.4-2.56,5.44-1.78,8.36-1.6-2.54,1.81-5.43,1.86-8.36,1.6Z"/>
      <path class="cls-18" d="M226.14,64.04c-1.24,1.29-2.64,1.76-4.32.89.29-.49.58-.97.88-1.45,1.15.19,2.3.38,3.45.57Z"/>
      <path class="cls-16" d="M102.67,223.49c.49,1.91.27,3.59-1.54,4.76.51-1.59,1.03-3.17,1.54-4.76Z"/>
      <path class="cls-8" d="M410.29,260.39c-.51-.83-1.01-1.66-1.52-2.49.51.83,1.01,1.66,1.52,2.49Z"/>
      <path class="cls-13" d="M273.81,106.61c.21-.67.66-1.11,1.33-1.32.2,1.08-.29,1.48-1.33,1.32Z"/>
      <path class="cls-4" d="M252.75,351c-23.2-.6-42.52-11.33-56.17-32.31-6.57-10.09-10.64-21.27-13.6-32.78-1.88-7.31-2.83-14.61-10.79-18.37-2.2-1.04-4.72-4.1-3.21-6.53,1.76-2.82,4.74-.57,7.01.61,5.59,2.89,10.99,6.21,17.64,2.56,1.94-1.07,4.73-1.4,5.91,1.49,1.13,2.78-1.04,4.93-2.99,5.46-7.08,1.92-5.7,6.43-4.54,11.54,6.14,27.13,18.53,48.84,48.06,55.64,33.37,7.68,61.93-8.16,70.01-38.54,2.19-8.23,3.54-16.11-3.36-23.04-1.87-1.88-3.26-4.91-.79-7.06,2.94-2.55,4.92.68,6.29,2.54,6.7,9.14,14.3,5.14,22.13,2.15,2.6-1,6.23-5.16,8.29-.72,1.48,3.19-2.84,5.38-5.34,7.44-.5.41-1.13.85-1.74.92-12.19,1.48-14.44,10.09-17.16,20.46-7.57,28.89-34.41,48.53-65.65,48.55Z"/>
      <path class="cls-4" d="M252.48,226.17c13.96.22,19.45,4.55,19.34,15.26-.14,13.14-10.06,22.3-23.66,21.82-10.39-.36-17.13-7.49-16.86-17.82.33-12.12,8.4-19.46,21.17-19.26ZM239.81,246.82c.42,4.88,2.73,8.84,9.01,8.75,6.99-.09,14.95-8.12,14.99-14.77.04-6.5-4.1-7.43-9.27-7.26-9.04.31-14.88,5.22-14.73,13.27Z"/>
      <path class="cls-4" d="M219.85,206.85c.34-8.8,5.51-14.75,12.79-14.71,6.82.04,11.77,7.31,11.41,16.77-.33,8.52-6,15-12.88,14.7-7.33-.32-11.7-6.79-11.32-16.76Z"/>
      <path class="cls-4" d="M290.22,205.79c.19,8.91-4.63,15.07-11.91,15.23-7.36.16-12.32-6.15-12.46-15.83-.12-8.7,4.77-15.01,11.96-15.44,6.77-.41,12.21,6.62,12.41,16.04Z"/>
      <path d="M222.19,259.58c-2.19-.26-3.51-1.61-3.79-3.71-.3-2.24.84-3.87,3.17-3.87,2.18,0,3.59,1.66,3.98,3.62.46,2.34-1.23,3.43-3.36,3.96Z"/>
      <path class="cls-23" d="M214.09,252.17c-.25,1.97-1.52,2.99-3.18,2.92-2.03-.09-3.8-1.18-3.81-3.47,0-1.74,1.3-2.99,3.08-2.87,2.05.14,3.48,1.38,3.91,3.42Z"/>
      <path class="cls-23" d="M307.31,251.37c.39,2.75-1.03,3.76-2.7,3.88-1.7.12-3.22-.9-3.78-2.64-.62-1.91.32-3.3,2.17-3.67,2.35-.48,3.42,1.32,4.32,2.44Z"/>
      <path d="M316.02,234.85c2.11.34,3.43,1.56,3.53,3.71.09,1.87-1.26,3.13-2.9,3.05-1.59-.07-2.82-1.41-3.02-3.17-.2-1.78.6-3.03,2.4-3.59Z"/>
      <path d="M202.78,238.3c1.6.47,3.51,1.27,3.44,3.63-.06,2.13-1.85,2.35-3.56,2.27-1.93-.09-3.18-1.46-3.3-3.03-.13-1.66.96-3.07,3.42-2.87Z"/>
      <path class="cls-23" d="M296.94,240.77c-.37,2.21-1.17,3.45-3.15,3.4-1.91-.05-3.15-1.4-3.35-2.94-.21-1.63.91-3.35,2.86-2.88,1.39.33,2.54,1.65,3.64,2.41Z"/>
      <path d="M194.6,245.82c0,2.12-1.5,3.01-3.17,2.85-1.06-.1-2.55-1.19-2.89-2.17-.65-1.9.75-3.17,2.56-3.28,1.66-.1,3.18.61,3.5,2.61Z"/>
      <path d="M307.39,239.02c-.33,1.59-1.26,3-3.17,2.65-1.74-.32-2.61-1.74-2.55-3.59.05-1.7,1.41-2.3,2.61-2.26,1.72.06,2.94,1.16,3.11,3.21Z"/>
      <path d="M319.66,251.24c-.34,1.44-1.1,2.82-3.13,2.24-1.6-.45-2.87-1.55-2.88-3.34,0-2.1,1.64-2.58,3.26-2.37,1.68.22,2.85,1.3,2.75,3.47Z"/>
      <path class="cls-23" d="M292.76,254.7c-.92,1.69-2.41,2.18-3.99,1.63-1.85-.65-1.96-2.32-1.31-3.88.53-1.27,1.7-1.79,3.07-1.24,1.57.63,2.65,1.64,2.23,3.5Z"/>
      <path d="M222.09,239.62c-.14,2.39-1.44,2.91-2.65,2.84-2.07-.12-3.55-1.26-3.44-3.57.07-1.45,1.05-2.33,2.5-2.16,2.07.24,3.37,1.43,3.59,2.9Z"/>
      <path class="cls-14" d="M400.79,186.13c-2.9-.33-3.84-.99-3.38-2.04.46-1.07,1.42-2.33,2.43-2.65,1.47-.46,2.4.69,2.02,2.23-.31,1.23-1.02,2.37-1.06,2.45Z"/>
      <path class="cls-14" d="M146.34,192.07c2.35.77,5.13-.39,8.21,2.56-4.24,2.12-6.93,2.82-8.16-2.61,0,0,.43.39.43.39l-.47-.34Z"/>
      <path class="cls-1" d="M239.81,246.82c-.15-8.05,5.68-12.96,14.73-13.27,5.18-.18,9.31.76,9.27,7.26-.04,6.64-8,14.67-14.99,14.77-6.28.08-8.6-3.87-9.01-8.75Z"/>
    </g>
  </g>
</svg>