<?xml version="1.0" encoding="UTF-8"?>
<svg id="Layer_1" data-name="Layer 1" xmlns="http://www.w3.org/2000/svg" viewBox="0 0 512 512">
  <defs>
    <style>
      .cls-1 {
        fill: #050505;
      }

      .cls-2 {
        fill: #030303;
      }

      .cls-3 {
        fill: #a17300;
      }

      .cls-4 {
        fill: #008f3d;
      }

      .cls-5 {
        fill: #de8120;
      }
    </style>
  </defs>
  <g id="XUpUIV">
    <g>
      <path class="cls-2" d="M160.76,351.36c-5.74,8.83-9.77,15.14-13.91,21.38-10.25,15.47-27.7,17.05-40.16,3.22-9.81-10.88-20.72-19.93-34.35-25.66-11.25-4.73-19.33-13.51-26.11-23.21-8.01-11.45-2.21-26.06,11.24-30.32,16.55-5.25,30.9,1.79,44.41,9.25,7.5,4.14,10.86,2.57,14.74-3.45,3.51-5.44,7.2-10.78,10.95-16.06,4.56-6.44,9.65-12.06,18.7-11.05,1.09.12,2.61-.13,3.33-.83,12.3-11.86,27.3-21.8,28.88-41.26.28-3.41-.88-4.06-3.71-4.12-5.89-.12-11.79-.62-17.67-.53-15.22.22-29.89-2.53-44.21-7.55-23.8-8.34-35.54-25.97-32.53-51.12,4.71-39.3,24.2-68.22,61.41-83.96,31.25-13.22,64.19-19.17,97.7-22.67,3.52-.37,7.04-.7,10.56-1.11.84-.1,1.65-.45,3.68-1.02-12.15-11.95-15.72-27.04-18.06-42.53-.65-4.28-2.1-5.66-6.31-4.17-3.6,1.28-7.35,2.11-11.04,3.12-4.06,1.12-7.2.06-8.14-4.29-.93-4.28,2.77-4.63,5.49-5.3C232.85,3.92,250.26.68,267.99.16c21.85-.63,43.62.34,64.74,6.85,2.24.69,4.56,1.4,6.52,2.62,2.57,1.6,4.74,3.72,2.95,7.28-1.74,3.47-4.46,3.15-7.51,2.14q-18.7-6.22-19.66,13.44c-.22,4.76-.7,9.53-2.64,13.81-1.89,4.17-4.7,7.92-7.73,12.87,15.21.49,29.6,1.24,43.38,5.26,44.85,13.08,77.27,41.66,92.72,85.11,21.88,61.54,31.09,125.8,28.09,191.23-2.16,47.16-35.21,82.18-81.82,89.37-2.61.4-5.18,1.14-7.73,1.83-19.46,5.29-19.32,5.29-18.32,25.49.22,4.42,1.32,6.05,6.02,6.24,8.84.35,17.53,2.14,25.94,5.07,4.76,1.66,9.23,3.85,13.11,7.14,6.03,5.11,9.97,11.36,7.45,19.38-2.32,7.4-8.39,11-15.91,12.2-16.12,2.57-32.65,4.38-48.34.12-17.97-4.88-35.04.08-52.45,1.18-10.54.66-20.91,3.55-31.6,3.2-4.74-.16-9.41-.52-13.81-2.5-11.62-5.23-13.09-17.66-2.83-25.29,10.88-8.09,23.51-12.32,36.6-14.62,6.41-1.13,7.36-3.7,6.38-9.23-.76-4.33-1.5-8.97-.72-13.19,1.77-9.69-3.44-11.49-11.25-11.78-16.52-.62-32.77-3.16-49.04-6.28-41.72-8.01-68.85-29.16-69.8-77.71ZM353.29,472.01c-.11-.56-.45-.84-1.01-.84-.43-13.28-1.28-26.56-1.07-39.82.07-4.27,4.07-7.02,8.95-6.56,4.41.41,8.77.61,13.07-.74,17.54-3.54,35.65-5.51,49.85-18.2,6.71-4.35,12.67-9.45,16.55-16.61,3.54-3.96,6.49-8.27,8.11-13.39,4.72-6.57,7.24-14.11,8.87-21.87,5.7-27.2,3.67-54.39-.62-81.54.39-2.12.12-4.11-1.13-5.91.13-5.8-.89-11.45-2.23-17.06.29-2.19.03-4.26-1.28-6.12-1.54-28.23-8.17-55.48-16.25-82.42-3.95-13.17-9.84-25.45-18.97-35.95l.03.19c-3.39-6.22-7.3-12.04-12.73-16.71-4.19-5.34-9.18-9.77-15.02-13.24-8.41-7.74-18.33-12.84-29.02-16.58-3.72-1.55-7.11-3.58-11.14-4.72-29.72-8.41-59.82-3.58-89.79-3.07-1.38.02-2.75.84-4.12,1.29-25.59.73-50.66,4.95-75.28,11.74-17.18,4.74-34.53,9.29-49.24,20.17-25.58,16.42-37.7,40.74-39.59,70.21-1.43,22.31,6.47,32.45,27.5,39.17,20.83,6.66,42.21,7.53,63.79,6.2,8.13-.5,11.29,3.25,8.95,11.24-1.98,6.77-3.96,13.53-5.95,20.3-.86,3.97-1.73,7.95-2.6,11.92-.19.61-.37,1.22-.56,1.83-1.34,4.64-3.11,9.19-2.96,14.14-.19.58-.38,1.17-.57,1.75-1.82,4.56-2.89,9.28-3.04,14.2-.18.57-.37,1.14-.55,1.7-.72,3.72-1.71,7.4-2.11,11.15-2.42,22.7-4.29,45.39,2.73,67.71,4.04,20.21,17.39,31.9,35.81,38.73,25.62,9.5,52.33,12.91,79.45,13.01,7.58.03,10.82,2.96,11.45,9.95-1.8,9.61-2.01,19.28.61,28.71,2.05,7.4.23,10.87-7.85,11.29-13.82.71-26.14,6.2-37.72,13.4-2.45,1.52-5.11,3.65-4.38,7.04.82,3.78,4.19,4.63,7.52,4.86,18.86,1.3,37.32-1.68,55.72-5.27,5.41.38,6.44-2.84,5.97-7.28.53-4.36.81-8.7-.73-12.94.42-.5.36-.95-.17-1.36-.11-5.57-.75-11.19-.2-16.7.88-8.71-2.95-17.33-.22-26,6.54-.94,9.27,1.96,8.98,8.46-.67,15.36.65,30.64,1.9,45.93.44,5.39,2.13,8.61,7.9,9.77,16.31,3.29,32.74,4.45,49.25,2.9,5.3-.5,11.46-.64,14.58-6.62,1.24-9.69-4.44-16.23-16.5-19.38-10.87-2.83-21.91-2.23-32.94-2.1ZM143.5,358.92c2.95-3.18-1.75-3.24-2.08-5.08,3.88.18,6.35-1.57,8.51-4.87,6.21-9.5,10.86-18.85,11.83-30.99.89-11.12-1.75-17.79-10.84-22.84-9.17-9.63-11.01-9.43-17.22,1.85-4.83,5.93-9.49,11.92-13.42,18.56-4.82,8.15-7.3,8.22-14.3,2.09-7.51-6.58-16.08-10.77-26.19-11.38-1.39-.64-2.79-1.28-4.18-1.92-1.76-.08-3.52-.22-5.29-.22-7.17.02-13.66,1.73-16.63,9.06-2.96,7.33,1.46,12.28,6.44,16.79,1.09.98,2.27,1.86,3.41,2.79,1.37,1.66,2.5,1.53,3.37-.46.03-.54.18-1.04.46-1.5,1.07-.02,2.14-.04,3.21-.06-.12.6-.25,1.2-.37,1.8-.42.65-.84,1.29-1.26,1.94-.01.58-.14,1.13-.39,1.65-.19.17-.57.47-.55.5.23.36.53.68.81,1.01,12.3,7.94,26.89,12.23,37.18,23.37,1.31,1.23,2.61,2.46,3.92,3.7,12.85,15.7,21.87,14.93,31.84-2.71.58-1.02,1.16-2.04,1.74-3.06ZM297.27,49.81c8.52-9.96,9.11-21.9,8.46-34.12-.19-3.53-2.16-5.08-5.7-5.32-15.9-1.07-31.79-.65-47.68.26-5.15.3-7.19,2.81-6.68,7.99,1.21,12.21,4.15,23.71,12.39,33.27,12.66,13.8,28.65,12.95,39.21-2.08ZM164.64,293.27c1.28-6.07,2.39-11.17,3.42-16.28.27-1.35.31-2.75.5-4.5-15.54,10.81-15.99,12.94-3.91,20.78Z"/>
      <path class="cls-5" d="M423.07,405.83c-14.2,12.69-32.31,14.67-49.85,18.2-3.52-2.32-7.47-1.18-11.2-1.2-10.53-.06-13.5,3.03-13.54,13.69-.04,9.14.02,18.28,0,27.42,0,3.28-.19,6.59,3.26,8.54,5.96,3.75,12.51,1.28,18.75,1.61,19.14,1,28.55,6.44,32.25,19.39-3.12,5.98-9.29,6.12-14.58,6.62-16.51,1.55-32.94.4-49.25-2.9-5.77-1.17-7.46-4.38-7.9-9.77-1.25-15.29-2.57-30.58-1.9-45.93.28-6.51-2.44-9.41-8.98-8.46-1.95-.87-2.97.51-3.02,1.88-.73,18.53-.61,37.01,4.34,55.11.47,4.44-.56,7.66-5.97,7.28-17.11-1.7-33.67,5.04-50.78,3.35-3.29-.33-8.09,1.5-9.02-3.09-.77-3.8,3.3-5.65,6.38-7.39,11.13-6.3,23.02-10.04,35.82-10.75,5.88-.33,9.75-4.13,7.73-9.16-4.33-10.82-1.85-22.12-4.04-32.98-.62-7-3.87-9.92-11.45-9.95-27.12-.1-53.83-3.51-79.45-13.01-18.42-6.83-31.77-18.52-35.81-38.73,1.32-8.55-1.34-16.84-1.6-25.28-.78-25.51,1.69-50.59,7.97-75.45,1.9-7.53,7.09-15.17,3.3-23.69,1.98-6.77,3.96-13.53,5.95-20.3,2.34-7.99-.82-11.74-8.95-11.24-21.58,1.33-42.96.46-63.79-6.2-21.04-6.73-28.94-16.86-27.5-39.17,1.89-29.48,14.02-53.79,39.59-70.22,1.7-.38,3.54-.45,5.08-1.17,44.27-20.9,91.3-28.35,139.78-28.89,2.81-.03,5.96,1,8.26-1.72,14.49-2.12,29.04-.33,43.42.6,11.08.72,22.65,2.27,32.79,8.15,2.91,1.23,5.8,2.54,8.74,3.69,7.21,2.8,12.59,9.17,20.54,10.52,5.83,3.47,10.83,7.9,15.02,13.24,2.04,7.25,6.2,12.88,12.73,16.71,0,0-.03-.19-.03-.19-.52,1.91.47,3.34,1.34,4.91,5.37,9.65,11.17,18.92,14.41,29.8,8.3,27.8,15.01,55.84,17.6,84.78.1,1.13.68,1.41,1.43.54.34-.39.3-1.11.44-1.67,1.31,1.85,1.57,3.93,1.28,6.11-3.51,6.61,0,12.81,1.14,19.15.36-.7.73-1.39,1.09-2.09,1.26,1.8,1.52,3.8,1.13,5.92-2.25,4.52-.96,9.12-.57,13.78,1.66,19.67,1.7,39.35.03,59.05-.9,10.65-6.45,20.06-7.71,30.58-1.62,5.12-4.57,9.43-8.11,13.39-6.99,4.07-12.56,9.55-16.55,16.61ZM322.03,374.66c.61,2.69,2.54,3.7,5.06,3.96,11.54,5.52,32.84,2.48,40.34-5.75,7.73-4.13,15.26-8.68,23.59-11.59,10.63-.89,21.26-1.71,31.87-2.73,1.89-.18,2.87-1.89,3.29-3.74,12.09-14.71,13.62-31.35,9.1-49.15-3.98-15.67-7.84-31.38-11.79-47.06-.57-2.25-.47-5.27-2.7-6.31-6.95-3.22-6.86-9.61-7.82-15.65-.78-4.88-1.01-11.77-7.39-11.12-7.89.8-1.41,7.61-2.78,11.45-2.14,2.88-1,6.2-1.18,9.33-.15,2.43-.43,4.73-2.78,6.01-7.13,3.88-15.03,4.27-22.85,4.39-4.97.08-1.66-6.23-5.05-7.68-.34-.15-.96.37-1.45.58-3.13-5.69-2.26-12.43-4.78-18.26-2.34-5.42-5.22-9.49-11.05-3.23-3.46,4.26-.13,8.58.76,12.32,1.77,7.45,3.99,13.83-5.11,18.21-2.74,1.32-4.29,4.87-.55,7.74,5.93,11.38,7.6,23.92,10,36.28,1.11,5.72-.22,9.68-6.19,11.63-9,2.94-16.89,8.03-24.72,13.22-9.78,2.8-13.49,10.75-16.42,19.36l.11-.18c-6.31,5.88-5.44,11.73.09,17.55l-.02-.21c.85,6.2,4.57,9.59,10.56,10.74,0,0-.14-.11-.14-.11ZM223.18,277.23l-.14-.05c7.94,10.74,34,15.38,45.71,5,4.72-3.47,9.81-6.56,14.1-10.49,14.97-13.72,21.29-31.4,22.3-51.25.18-3.61-1.2-6.47-5.58-6.22-3.55.2-5.61,2.18-5.17,5.73,1.18,9.48-2.12,18.2-5.27,26.6-5.38,14.37-14.74,25.77-30.65,29.04-16.23,3.34-29.39-2.83-39.74-15.36-1.58-1.91-3.01-3.79-5.73-3.25-3.54.69-4.72,3.15-4.33,6.54.7,8.94,7.84,11.07,14.5,13.72ZM254.62,133.49c-.14,12.31,7.52,18.79,16.65,14.09,8.1-4.17,14.38-15.83,13.82-24.99-.4-6.47-4.3-10.18-9.58-12.56-5.45-2.46-9.51.43-13.09,4.42-4.89,5.44-8.03,11.53-7.79,19.04Z"/>
      <path class="cls-4" d="M106.01,361c-10.29-11.14-24.88-15.43-37.18-23.37-.02-.52-.11-1.02-.27-1.51.24-.52.37-1.08.39-1.65.42-.65.84-1.29,1.26-1.94.12-.6.25-1.2.37-1.8,4.83-7.49,7.89-15.65,9.21-24.47,10.11.61,18.68,4.79,26.19,11.38,7,6.14,9.48,6.06,14.3-2.09,3.93-6.64,8.6-12.63,13.43-18.56,5.22-5.43,11.1-4.76,17.21-1.85,9.09,5.05,11.73,11.72,10.84,22.84-.97,12.15-5.61,21.49-11.83,30.99-2.16,3.3-4.64,5.06-8.51,4.87-12.52-1.16-23.53,5.15-35.41,7.16Z"/>
      <path class="cls-3" d="M297.27,49.81c-10.56,15.04-26.56,15.88-39.21,2.08-1.33-9.66-8.67-17.16-9.02-27.43-.34-10.05.38-12.02,10.97-12.31,10.61-.29,21.24-.15,31.86-.04,9.74.09,12.61,4.15,11.63,14.01-.82,8.31-4.31,15.76-6.23,23.69Z"/>
      <path class="cls-4" d="M67.37,330.78c-.28.46-.43.96-.46,1.5-1.12.15-2.25.31-3.37.46-1.14-.93-2.32-1.8-3.41-2.79-4.98-4.51-9.41-9.46-6.44-16.79,2.97-7.33,9.46-9.03,16.63-9.06,1.76,0,3.52.14,5.29.22.57,9.85-4.67,17.89-8.24,26.46Z"/>
      <path class="cls-4" d="M143.5,358.92c-.58,1.02-1.16,2.04-1.73,3.07-9.97,17.64-18.99,18.41-31.84,2.71,10.77-4.35,21.34-9.95,33.58-5.77Z"/>
      <path class="cls-5" d="M282.91,72.26c-2.3,2.72-5.44,1.69-8.26,1.72-48.48.54-95.51,7.99-139.78,28.89-1.53.72-3.38.79-5.08,1.17,14.71-10.87,32.06-15.42,49.24-20.16,24.62-6.79,49.69-11.01,75.28-11.74,9.53.04,19.06.08,28.6.13Z"/>
      <path class="cls-5" d="M301.54,437.28c2.19,10.86-.29,22.15,4.04,32.98,2.01,5.03-1.85,8.83-7.73,9.16-12.8.72-24.69,4.45-35.82,10.75-3.07,1.74-7.15,3.59-6.38,7.39.93,4.59,5.73,2.77,9.02,3.09,17.11,1.69,33.66-5.05,50.78-3.35-18.4,3.59-36.86,6.57-55.72,5.27-3.33-.23-6.71-1.08-7.52-4.86-.73-3.39,1.93-5.51,4.38-7.04,11.58-7.2,23.9-12.69,37.72-13.4,8.09-.41,9.9-3.89,7.85-11.29-2.62-9.43-2.41-19.1-.61-28.71Z"/>
      <path class="cls-5" d="M184.5,251.17c3.79,8.52-1.4,16.15-3.3,23.69-6.28,24.86-8.74,49.94-7.97,75.45.26,8.45,2.92,16.74,1.6,25.28-7.03-22.32-5.15-45.01-2.73-67.71.4-3.75,1.39-7.44,2.11-11.15.18-.57.37-1.14.56-1.71.15-4.92,1.22-9.64,3.04-14.2.19-.58.38-1.17.58-1.75-.14-4.95,1.63-9.5,2.96-14.14.19-.61.37-1.22.56-1.84.86-3.97,1.73-7.95,2.6-11.92Z"/>
      <path class="cls-5" d="M451.34,243.34c-.13.57-.1,1.28-.44,1.67-.75.86-1.33.58-1.43-.54-2.59-28.94-9.29-56.99-17.6-84.78-3.25-10.88-9.04-20.15-14.41-29.8-.87-1.57-1.86-3-1.34-4.91,9.14,10.49,15.03,22.77,18.98,35.94,8.07,26.93,14.7,54.18,16.25,82.42Z"/>
      <path class="cls-3" d="M297.27,49.81c1.92-7.93,5.41-15.38,6.23-23.69.97-9.86-1.89-13.92-11.63-14.01-10.62-.1-21.25-.25-31.86.04-10.59.29-11.31,2.26-10.97,12.31.35,10.27,7.69,17.77,9.02,27.43-8.24-9.56-11.17-21.06-12.39-33.27-.52-5.19,1.53-7.7,6.68-7.99,15.89-.91,31.77-1.33,47.68-.26,3.54.24,5.52,1.79,5.7,5.32.65,12.23.06,24.16-8.46,34.12Z"/>
      <path class="cls-5" d="M447.73,375.84c1.25-10.52,6.8-19.93,7.71-30.58,1.67-19.69,1.64-39.37-.03-59.05-.39-4.66-1.69-9.27.57-13.78,4.29,27.15,6.32,54.34.62,81.54-1.63,7.77-4.14,15.3-8.87,21.87Z"/>
      <path class="cls-5" d="M282.91,72.26c-9.53-.04-19.06-.08-28.59-.13,1.37-.45,2.74-1.26,4.12-1.29,29.97-.51,60.07-5.34,89.79,3.07,4.03,1.14,7.42,3.18,11.14,4.72-.09.79-.18,1.58-.26,2.37-10.13-5.87-21.71-7.43-32.79-8.15-14.38-.93-28.93-2.73-43.42-.6Z"/>
      <path class="cls-5" d="M351.72,472.48c-3.44-1.95-3.26-5.25-3.25-8.54.02-9.14-.04-18.28,0-27.42.05-10.67,3.01-13.76,13.54-13.69,3.74.02,7.68-1.12,11.2,1.2-4.29,1.35-8.66,1.15-13.06.74-4.87-.45-8.88,2.29-8.95,6.56-.22,13.27.63,26.55,1.06,39.82,0,0-.06.78-.06.78l-.49.53Z"/>
      <path class="cls-5" d="M321.42,490.03c-4.94-18.09-5.07-36.57-4.34-55.11.05-1.37,1.08-2.76,3.02-1.88-2.74,8.67,1.1,17.28.22,26-.55,5.5.09,11.13.2,16.69-.16.48-.1.93.17,1.36,1.53,4.24,1.25,8.58.73,12.94Z"/>
      <path class="cls-5" d="M164.64,293.27c-12.07-7.84-11.62-9.97,3.91-20.78-.19,1.75-.22,3.15-.5,4.5-1.03,5.11-2.14,10.21-3.42,16.28Z"/>
      <path class="cls-5" d="M402.72,493.49c-3.7-12.95-13.11-18.39-32.25-19.39-6.24-.33-12.79,2.13-18.75-1.61,0,0,.49-.53.48-.53,0,0,.53.11.53.11l.54-.05c11.03-.13,22.07-.73,32.93,2.1,12.06,3.14,17.74,9.69,16.5,19.38Z"/>
      <path d="M143.5,358.92c-12.24-4.18-22.8,1.42-33.58,5.77-1.3-1.23-2.61-2.46-3.91-3.69,11.88-2.01,22.89-8.32,35.42-7.16.33,1.84,5.03,1.9,2.08,5.08Z"/>
      <path d="M67.37,330.78c3.56-8.57,8.81-16.61,8.23-26.46,1.39.64,2.79,1.28,4.18,1.93-1.32,8.81-4.38,16.97-9.21,24.47-1.07.02-2.14.04-3.21.06Z"/>
      <path class="cls-5" d="M359.11,81.01c.09-.79.18-1.58.26-2.37,10.7,3.74,20.61,8.84,29.02,16.58-7.95-1.34-13.33-7.72-20.54-10.52-2.95-1.15-5.83-2.46-8.74-3.69Z"/>
      <path class="cls-4" d="M150.92,295.13c-6.12-2.9-11.99-3.58-17.21,1.85,6.2-11.28,8.04-11.48,17.21-1.85Z"/>
      <path class="cls-5" d="M423.07,405.83c3.99-7.06,9.56-12.54,16.55-16.61-3.88,7.16-9.84,12.26-16.55,16.61Z"/>
      <path class="cls-5" d="M454.84,266.51c-.36.7-.73,1.39-1.09,2.09-1.13-6.34-4.64-12.54-1.14-19.15,1.33,5.61,2.36,11.26,2.23,17.06Z"/>
      <path class="cls-5" d="M416.15,125.16c-6.53-3.83-10.69-9.46-12.73-16.71,5.43,4.67,9.34,10.49,12.73,16.71Z"/>
      <path d="M63.54,332.74c1.12-.15,2.25-.31,3.37-.46-.87,1.99-2,2.12-3.37.46Z"/>
      <path class="cls-5" d="M174.76,295.02c-.19.57-.37,1.14-.56,1.71.19-.57.37-1.14.56-1.71Z"/>
      <path class="cls-5" d="M178.38,279.07c-.19.58-.39,1.17-.58,1.75.19-.58.38-1.17.58-1.75Z"/>
      <path d="M70.2,332.52c-.42.65-.84,1.29-1.26,1.94.42-.65.84-1.29,1.26-1.94Z"/>
      <path d="M68.56,336.12c.16.49.25,1,.27,1.51-.28-.33-.58-.65-.81-1.01-.02-.03.35-.33.55-.5Z"/>
      <path class="cls-5" d="M181.9,263.09c-.19.61-.37,1.23-.56,1.84.19-.61.37-1.23.56-1.84Z"/>
      <path class="cls-5" d="M353.29,472.01l-.54.05s-.54-.11-.53-.11c0,0,.06-.79.06-.79.57,0,.9.29,1.02.85Z"/>
      <path class="cls-5" d="M320.69,477.09c-.28-.43-.33-.88-.17-1.36.54.41.59.86.17,1.36Z"/>
      <path class="cls-1" d="M353.66,228.11c5.82-6.27,8.71-2.19,11.05,3.23,2.52,5.83,1.65,12.58,4.78,18.26q2.49,11.86,14.07,9.54c2.58-.52,5.12-1.25,7.67-1.88.63-.24,1.25-.47,1.88-.71,12.7-3.14,13.04-3.83,9.69-19.58,1.38-3.83-5.11-10.64,2.78-11.45,6.38-.65,6.6,6.23,7.39,11.12.97,6.05.88,12.43,7.82,15.65,2.23,1.03,2.14,4.05,2.7,6.31,3.95,15.68,7.81,31.39,11.79,47.06,4.52,17.8,2.99,34.44-9.1,49.15-4.76,1.88-9.73,2.33-14.77,2.11-7.19-.31-14.13.41-20.4,4.36-8.33,2.9-15.86,7.46-23.59,11.59-12.4,2.64-24.14,9.86-37.56,5.37-2.61-1.19-5.23-2.39-7.84-3.58,0,0,.15.11.15.11-3.52-3.58-7.04-7.16-10.56-10.74,0,0,.02.21.02.21-1.37-5.84-2.22-11.69-.09-17.55,0,0-.11.18-.11.18,5.47-6.45,10.95-12.91,16.42-19.36,7.82-5.19,15.72-10.28,24.72-13.22,5.96-1.95,7.3-5.91,6.19-11.63-2.4-12.36-4.07-24.9-10-36.27.49-2.87.44-6.5,3.52-7.59,8.51-3,7.87-8.75,5.63-15.53-1.65-4.98-2.85-10.11-4.24-15.17ZM353.82,360.78c-.08,1.39.16,2.65,1.42,3.5,3.81,3.87,7.35.52,10.29-1.01,13.24-6.91,26.41-13.82,41.26-16.71,1.17.03,2.34.06,3.51.09,6.47,3.36,9.86-.79,12.59-5.52,5.41-9.39,5.45-19.52,3.44-29.83-.68-1.33-1.36-2.66-2.04-3.99,1.18-4.19-.01-8.08-1.22-12.09-2.62-8.74-5.66-17.46-7.04-26.42-1.09-7.11-4.04-8.32-10.03-6.46-12.72,3.97-25.67,6.61-39.07,6.05-5.78-.24-6.29,2.05-4.8,6.96,2.47,8.16,4.49,16.46,6.42,24.77,3.33,14.37,2.27,15.92-11.51,21.9-6.83,2.96-14.75,4.52-18.6,12.15-2.01.19-4.24-.44-5.78,1.54-2.12,2.43-4.39,4.74-6.32,7.31-4.46,5.93-9.32,11.95-3.54,19.69,5.14,6.89,17.22,10.35,24.6,7.41,2.73-1.09,4.58-2.54,4.5-5.69.64-1.22,1.28-2.45,1.92-3.67h0Z"/>
      <path class="cls-1" d="M208.68,263.51c-.39-3.4.8-5.85,4.33-6.54,2.72-.53,4.15,1.34,5.73,3.25,10.35,12.54,23.52,18.7,39.74,15.36,15.91-3.28,25.26-14.67,30.65-29.04,3.15-8.4,6.45-17.13,5.27-26.6-.44-3.55,1.62-5.53,5.17-5.73,4.38-.25,5.76,2.61,5.58,6.22-1.01,19.85-7.34,37.53-22.3,51.25-4.3,3.94-9.38,7.02-14.1,10.5-15.99,5.24-31.23,3.59-45.71-5.01,0,0,.14.05.14.05-4.83-4.57-9.66-9.15-14.5-13.72Z"/>
      <path class="cls-2" d="M254.64,133.49c-.25-7.51,2.89-13.6,7.78-19.04,3.58-3.99,7.65-6.87,13.09-4.42,5.28,2.38,9.18,6.09,9.58,12.56.56,9.15-5.72,20.82-13.82,24.99-9.13,4.7-16.79-1.78-16.64-14.09Z"/>
      <path class="cls-5" d="M391.22,257.26c-2.56.63-5.09,1.36-7.67,1.88q-11.58,2.34-14.07-9.54c.49-.21,1.12-.73,1.45-.58,3.39,1.46.08,7.76,5.05,7.68,7.81-.12,15.71-.51,22.85-4.39,2.35-1.28,2.64-3.57,2.78-6.01.19-3.13-.95-6.45,1.18-9.33,3.35,15.75,3.01,16.43-9.7,19.58-.63.23-1.25.47-1.88.7Z"/>
      <path class="cls-5" d="M223.04,277.18c14.48,8.6,29.71,10.24,45.71,5.01-11.71,10.38-37.77,5.73-45.71-5.01Z"/>
      <path class="cls-5" d="M353.66,228.11c1.4,5.06,2.6,10.19,4.24,15.16,2.24,6.77,2.88,12.52-5.63,15.53-3.07,1.08-3.03,4.72-3.52,7.59-3.74-2.87-2.19-6.43.55-7.74,9.1-4.38,6.88-10.76,5.11-18.21-.89-3.74-4.22-8.06-.76-12.32Z"/>
      <path class="cls-5" d="M329.87,378.24c13.42,4.5,25.16-2.73,37.56-5.37-7.5,8.23-28.8,11.27-40.34,5.75.93-.13,1.85-.25,2.78-.38Z"/>
      <path class="cls-5" d="M391.02,361.29c6.27-3.95,13.21-4.67,20.4-4.36,5.04.22,10.01-.23,14.77-2.11-.42,1.85-1.4,3.56-3.29,3.74-10.62,1.02-21.25,1.84-31.87,2.73Z"/>
      <path class="cls-5" d="M327.85,327.51c-5.47,6.45-10.95,12.91-16.42,19.36,2.92-8.62,6.63-16.56,16.42-19.36Z"/>
      <path class="cls-5" d="M208.68,263.51c4.83,4.57,9.66,9.15,14.5,13.72-6.65-2.65-13.8-4.78-14.5-13.72Z"/>
      <path class="cls-5" d="M311.55,346.69c-2.13,5.86-1.28,11.71.09,17.55-5.53-5.82-6.4-11.67-.09-17.55Z"/>
      <path class="cls-5" d="M311.62,364.03c3.52,3.58,7.04,7.16,10.56,10.74-5.99-1.15-9.7-4.54-10.56-10.74Z"/>
      <path class="cls-5" d="M329.87,378.24c-.93.13-1.85.25-2.78.38-2.52-.26-4.45-1.27-5.06-3.96,2.61,1.19,5.23,2.39,7.84,3.58Z"/>
      <path class="cls-4" d="M338.45,334.19c3.84-7.64,11.76-9.19,18.59-12.15,13.79-5.97,14.84-7.53,11.51-21.9-1.93-8.31-3.94-16.62-6.42-24.77-1.49-4.9-.99-7.2,4.8-6.96,13.39.56,26.35-2.09,39.07-6.05,5.99-1.87,8.94-.65,10.03,6.46,1.37,8.96,4.42,17.68,7.04,26.42,1.2,4.02,2.4,7.9,1.22,12.09-11.18,10.7-17.69,23.47-17.49,39.24-14.84,2.89-28.02,9.8-41.26,16.71-2.94,1.53-6.49,4.88-10.29,1.01.21-1.45-.19-2.64-1.42-3.5,0,0,0,0,0,0-1.95-10.7-8.59-18.69-15.37-26.59Z"/>
      <path class="cls-4" d="M351.91,364.44c.08,3.15-1.77,4.6-4.5,5.69-7.38,2.94-19.46-.52-24.6-7.41-5.78-7.74-.92-13.76,3.54-19.69,1.93-2.57,4.2-4.88,6.32-7.31,4.15-.3,6.15,2.44,8.02,5.51,4.5,7.37,8.34,15.05,11.22,23.2Z"/>
      <path d="M406.79,346.56c-.19-15.77,6.31-28.54,17.49-39.24.68,1.33,1.36,2.66,2.04,3.99-3.07,1.39-4.84,3.91-5.99,6.96-3.42,3.33-5.23,7.52-6.51,12.01-3.45,4.97-3.3,10.72-3.53,16.38-1.17-.03-2.34-.06-3.5-.09Z"/>
      <path class="cls-4" d="M410.3,346.65c.22-5.67.08-11.41,3.53-16.38.11,3.23.47,6.45-.83,9.58-.69,1.65-1.11,3.54,1.06,4.49,1.91.83,3.32-.42,4.66-1.62,4.64-4.13,8.06-18.54,5.51-23.99-.84-1.81-2.57-.46-3.9-.47,1.15-3.05,2.92-5.56,5.99-6.96,2.01,10.31,1.97,20.44-3.44,29.83-2.72,4.73-6.12,8.88-12.58,5.52Z"/>
      <path d="M351.91,364.44c-2.88-8.15-6.72-15.83-11.22-23.2-1.88-3.07-3.88-5.82-8.02-5.51,1.53-1.99,3.77-1.36,5.78-1.55,6.79,7.9,13.42,15.89,15.38,26.59-.64,1.22-1.28,2.45-1.92,3.67Z"/>
      <path d="M353.82,360.78c1.23.86,1.64,2.05,1.42,3.5-1.27-.84-1.51-2.11-1.42-3.5Z"/>
      <path class="cls-5" d="M391.22,257.26c.63-.24,1.25-.47,1.88-.71-.63.24-1.25.47-1.88.71Z"/>
      <path class="cls-4" d="M420.33,318.26c1.33.01,3.06-1.33,3.9.47,2.55,5.45-.87,19.86-5.51,23.99-1.35,1.2-2.75,2.45-4.66,1.62-2.18-.94-1.75-2.84-1.06-4.49,1.3-3.13.94-6.35.83-9.58,1.27-4.49,3.08-8.69,6.5-12.01Z"/>
    </g>
  </g>
</svg>