<?xml version="1.0" encoding="UTF-8"?>
<svg id="Layer_1" data-name="Layer 1" xmlns="http://www.w3.org/2000/svg" viewBox="0 0 512 512">
  <defs>
    <style>
      .cls-1 {
        fill: #050505;
      }

      .cls-2 {
        fill: #fdcd01;
      }

      .cls-3 {
        fill: #030303;
      }

      .cls-4 {
        fill: #97c8e9;
      }

      .cls-5 {
        fill: #fff;
      }

      .cls-6 {
        fill: #0192c9;
      }
    </style>
  </defs>
  <g id="PU15k3">
    <g>
      <path class="cls-3" d="M186.01,499.99c-8.24-1.89-16.51-3.62-23.99-7.89-1.43-.82-3.08-3.23-4.98-.51-1.74,2.5-.81,4.62,1.35,6.16,3.55,2.52,7.34,4.71,11.66,5.66,17.02,3.74,34.25,2.72,51.42,1.83,11.87-.61,23.16-4.09,34.09-8.75,2.47-1.05,4.85-2.02,5.45-4.87.22-1.04-.15-2.35-.68-3.31-.16-.29-1.85-.01-2.66.38-10.66,5.26-22.29,7.62-33.49,11.28-6.02,1.08-12.14.63-18.18,1.09-6.76.52-13.27-2.07-20-1.08ZM298.92,490.35c5.35,2.07,10.95.7,16.41,1.26,3.98.41,4.93-1.33,4.11-4.8,1.68-11.71,5.59-22.55,12.51-32.24.87-1.22,2.92-2.72.37-4.4-3.94-2.61-13.65-2.05-17.38,1.33-8.18,7.42-12.19,17.3-15.63,27.46-1.26,3.75-2.19,7.53-.39,11.4ZM417.67,319.81c20.42-6.56,35.51-24.17,36.56-41.92.76-12.8-11.37-39.64-20.09-43.71.85,29.59-5.99,57.57-16.47,85.63ZM205.98,495.12c0,.06,0,.13.01.19,3.75-.24,7.5-.4,11.24-.74,3.95-.36,5.03-2.49,4.44-6.42-1.62-10.76-5.96-20.32-11.89-29.29-1.38-2.09-3.42-3.84-5.77-3.68-6.06.41-12.09,1.36-18.12,2.17-4.48.6-4.84,2.7-2.31,6.15,5.12,6.96,8.23,14.92,9.21,23.38.93,8.01,1.42,8.27,10.21,8.23.99,0,1.98,0,2.97,0ZM57.9,273.1c-.14,17.41,11.43,32.14,26.62,36.21.93.25,1.75,1.01,2.72.2,1.39-1.16.05-2.24-.31-3.13-2.75-6.74-5.11-13.6-7.09-20.61-3.74-13.21-5.05-26.73-5.43-40.39-.03-1.26.65-3-1.26-3.48-.46-.12-1.34.65-1.73,1.22-6.79,9.77-13.74,19.49-13.51,29.98ZM327.07,490.9c9.33-.84,17.92-3.37,25.52-8.77,4.83-3.43,7.63-8.07,7.4-14.06-.25-6.58-6.04-12.17-15.24-14.46-5.47-1.36-6.49,4.09-8.89,7.01-3.26,3.96-5.39,8.66-7.13,13.52-1.95,5.45-3.39,10.89-1.66,16.77ZM186.01,487.52c0-6.8-1.64-12.66-4.87-18.24-5.21-8.98-8.47-9.48-16.34-2.54-8.46,7.46-6.83,18.48,3.48,22.64,3.45,1.39,7.09,2.44,10.73,3.16,4.4.87,8.75,1.03,7-5.02ZM363.84,482.55c-30.99,21.64-62.66,18.16-95.05,5.3-2.38,5.31.04,7.91,5.34,9.55,20.17,6.26,40.66,7.01,61.28,3.32,9.72-1.74,19.18-4.7,26.31-12.32,1.93-2.06,3.9-4.01,2.12-5.85ZM461.36,276.57c-.75-14.38-6.98-27.08-15.27-38.58-7.25-10.05-13.15-20.26-10.86-33.31.13-.75-.07-1.58-.16-2.36-3.28-29.25-13.36-56.26-27.02-82.08-2.3-4.34-2.9-8.21-.59-12.85,5.64-11.38,6.43-23.7,4.98-36-1.37-11.56-6.56-21.39-16.15-28.62-11.61-8.75-24.94-11.45-39.06-11.6-4.72-.05-9.09-.03-13.52-3.02C306.36,2.87,265.81-6.17,221.31,4.25c-22.56,5.27-43.93,13.65-65.23,22.49-14.18,5.88-28.85,9.77-44.43,6.34-1.87-.41-4.12-1.97-5.27.19-1.12,2.11.65,4.02,2.31,5.57,5.81,5.4,11.36,11.14,18.02,15.5,2.72,1.77,2.61,3.11.87,5.43-6.56,8.72-10.16,18.75-11.64,29.41-.94,6.83-1.15,13.45-5.03,19.77-17.94,29.21-30.91,60.54-34.61,94.79-1.88,17.38-5.67,32.89-17.66,46.37-6.61,7.44-8.71,17.58-7.89,27.81,1.31,16.32,10.76,27.08,24.99,33.31,10.39,4.55,19.99,9.08,24,20.69.49,1.43,1.77,2.62,2.81,3.81,18.15,21.03,39.2,38.71,62.53,53.67,15.56,9.98,33.37,15.03,50.22,22.17,2.95,1.25,4.61,2.81,5.51,6.07,2.33,8.35,3.95,16.85,5.97,25.25,1.36,5.68-.63,5.94-5.02,5.59-3.75-.29-7.55-.06-11.32-.06-13.69,0-27.34.45-40.12,6.17-8.63,3.87-16.23,9.34-17.28,19.4-.61,5.72.22,11.4-2.64,16.91-1.41,2.72.5,5.72,2.58,8.06,4.62,5.16,10.42,8.45,16.97,10.37,8.46,2.47,17.2,2.56,25.93,2.61,19.21.09,38.64.9,56.62-7.3,8.39-3.83,15.92-6.35,24.17-.35,1.49,1.07,3.76,1.1,5.69,1.52,15.04,3.23,30.26,4.15,45.49,2.29,12.54-1.54,24.94-3.97,35.59-11.64,8.13-5.86,9.82-12.28,4.95-20.92-1.09-1.94-2.06-3.93-2.05-6.09.04-8.42-4.82-13.49-11.56-17.28-14.25-8.02-29.65-11.69-45.93-12.04-12.51-.26-12.51-.31-12.37-12.46.02-1.58.16-3.17.08-4.75-.19-4.25,2.12-5.79,6.02-6.39,31.29-4.84,57.78-19.05,80.63-40.76,11.92-11.33,18.69-25.93,26.83-39.68,2.13-3.59,4.58-6.22,8.57-7.66,7.1-2.57,13.77-6.07,19.77-10.67,13.56-10.41,23.94-22.94,22.98-41.19ZM119.67,42.68c4.13-3.51,8.71-1.6,12.74-2.24.8-.13,1.6-.27,2.4-.42.16-.03.32-.06.48-.09.64-.12,1.28-.25,1.91-.39l.57-.12c.77-.17,1.54-.35,2.3-.54.53-.13,1.06-.26,1.59-.41.51-.13,1.03-.27,1.54-.41,2.08-.58,4.13-1.21,6.17-1.9.45-.15.9-.3,1.35-.46,7.06-2.45,13.93-5.45,20.78-8.5,22.81-10.16,46.51-16.79,71.32-20,38.25-4.96,71.64,6.65,102.25,28.59,2.16,1.55,4.16,1.59,6.87,1.64,12.35.22,24.84.08,36.25,6.49,10.54,5.92,15.29,15.51,16.8,26.55,1.42,10.33,1.17,20.87-2.81,30.96-1.63,4.15-2.78,4.01-5.18.6-8.23-11.71-17.28-22.75-28.15-32.14-2.13-1.84-2.22-2.94-.19-5.1.45-.48,1.04-.95,1.66-1.43.31-.24.64-.48.96-.73,1.04-.79,2.07-1.61,2.65-2.53.05-.07.09-.14.13-.21.07-.12.13-.25.18-.38.03-.07.05-.13.07-.19l.03-.09c.02-.08.04-.15.05-.23.07-.33.07-.66-.01-1.01-.06-.28-.17-.57-.33-.86-.16-.3-.38-.6-.66-.92-.59-.67-1.22-.94-1.87-.94-.14,0-.28.01-.43.04-.12.02-.23.04-.35.08-.09.02-.17.05-.26.09-.09.03-.18.06-.27.11-.11.04-.22.1-.32.16-.48.25-.97.59-1.45.97-.15.11-.3.24-.45.36-.22.18-.43.36-.65.55-.97.84-1.92,1.7-2.81,2.24-14.71,8.88-31.03,12.2-47.73,14.16-5.13.6-10.31,1.54-15.59.89-.42-.05-.84-.11-1.26-.18-.41-.08-.83-.16-1.25-.25s-.85-.2-1.27-.32c-.84-.24-1.69-.53-2.54-.88h-.01c.08-.11.16-.21.25-.3.25-.3.52-.57.79-.83.17-.17.36-.34.56-.51.57-.48,1.18-.9,1.8-1.3.2-.13.4-.26.6-.38.71-.43,1.43-.83,2.14-1.24.34-.2.68-.4,1.01-.6.17-.1.34-.21.5-.32.15-.09.29-.19.44-.29.11-.08.21-.16.32-.23.18-.14.37-.28.55-.43.18-.15.36-.31.54-.47.46-.43.97-.86,1.4-1.32.18-.19.35-.4.5-.61.21-.31.37-.64.44-.99v-.02c.1-.54-.01-1.12-.45-1.78-.05-.08-.1-.15-.16-.23-1.75-2.3-3.48-.51-5.09.54-9.63,6.27-19.41,12.16-31.18,13.46-14.07,3.31-28.13,3.63-42.19-.1-.6.03-1.2.04-1.79.02-.17,0-.34-.02-.5-.03l-.6-.06h-.02c-.19-.03-.38-.06-.57-.09-.39-.06-.78-.14-1.17-.26-.15-.04-.29-.08-.44-.14-.58-.19-1.15-.45-1.73-.78-.14-.08-.29-.16-.43-.26-.29-.18-.58-.39-.87-.61,4.92-2.22,9.65-4.4,14.39-6.49.58-.27,1.16-.52,1.74-.78.21-.09.41-.18.6-.28.15-.07.29-.15.43-.23.41-.25.78-.52,1.09-.83.82-.8,1.17-1.82.63-3.13-.07-.16-.14-.3-.21-.43h0c-.08-.14-.16-.26-.24-.37-.08-.11-.17-.2-.27-.29-.55-.53-1.24-.67-1.97-.59-.09,0-.19.02-.28.03-.25.04-.5.1-.75.18-.23.07-.46.16-.69.25-.23.1-.46.2-.68.31-26.62,13.1-53.27,9.15-79.88.08-12.02-4.09-23.2-9.84-33.77-17.88ZM267.28,119.6c-.84-.18-1.66-.38-2.36-.39-3.93-.07-8.27,1.78-11.83-1.39-.32-.28-.23-1.15-.14-1.71,1.63-10.3-1.64-19.53-6.39-28.34-.98-1.82-1.3-2.98-.64-3.6.04-.04.08-.07.13-.11.14-.1.32-.18.53-.24.07-.03.14-.05.22-.06.07-.02.15-.04.23-.05.47-.08,1.07-.1,1.8-.07,11.35.43,22.3-1.67,33.28-4.47,6.34-1.61,12.79,1.22,19.33,2.43-14.67,8.27-23.69,20.2-28.38,35.71-.08.26-.16.49-.26.7-.39.87-.92,1.39-1.53,1.67-.15.07-.31.13-.47.17-.51.13-1.07.14-1.63.09-.62-.06-1.26-.2-1.89-.34ZM222.54,155.18c-9.15,5.98-19.22,9.05-30.12,9.47-24.24.12-43.9-17.14-46.69-40.97-2.48-21.31,12.87-43,35.32-47.47,10.14-2.02,21.04-3.48,31.36,1.35,4.46,2.09,9.35,3.11,14.25,3.84,7.4,1.11,12.45,5.01,15.7,11.97,9.63,20.67.96,48.21-19.82,61.81ZM289.17,100.29c5.6-6.79,12.56-11.72,20.62-15.68,5.75-2.83,10.68-6.75,14.17-5.41,12.88,2.09,22.62,1.02,31.77,5.66,14.12,7.15,20.35,19.62,21.91,33.92,2.87,26.22-15.52,57.72-51.68,58.88-19.11.62-34.96-7.34-43.17-25.05-8.4-18.14-6.83-36.31,6.38-52.32ZM377.86,98.57c-.54-.98-1.12-1.94-1.74-2.87-.4-.6-.82-1.2-1.26-1.79-.27-.36-.54-.72-.82-1.08-.45-.58-.91-1.15-1.39-1.71-1.05-1.22-2.16-2.39-3.35-3.5-.33-.32-.67-.63-1.02-.94-.43-.38-.87-.76-1.32-1.13-.9-.75-1.83-1.46-2.79-2.15-.96-.68-1.97-1.34-3.01-1.98-.52-.32-1.04-.63-1.57-.93-.54-.31-1.08-.6-1.63-.89s-1.11-.58-1.68-.86c-.57-.27-1.14-.54-1.73-.81-.58-.26-1.18-.52-1.78-.77-.6-.26-1.21-.5-1.82-.74-.18-.07-.35-.15-.53-.24-.03-.01-.06-.03-.09-.05-.06-.03-.12-.07-.19-.11-.05-.02-.09-.05-.14-.08-.15-.09-.3-.19-.47-.3-.34-.21-.73-.46-1.22-.75q9.42-5.04,16.93,1.68c14.33,12.81,25.71,27.94,35.16,44.62,2.11,3.72,1.59,5.43-2.87,5.3-1.98-.06-3.96-.06-5.94-.22-4.24-.34-6.61-1.8-7.23-6.9-.09-.76-.19-1.51-.31-2.25l-.18-1.11c-.05-.29-.1-.59-.16-.88l-.03-.18c-.14-.71-.28-1.42-.45-2.12-.06-.33-.14-.65-.22-.97-.14-.58-.28-1.15-.44-1.72-.01-.03-.02-.07-.03-.11-.16-.57-.33-1.14-.5-1.7-.36-1.16-.75-2.29-1.18-3.39-.2-.52-.41-1.04-.63-1.55-.02-.06-.05-.12-.07-.17-.22-.51-.44-1.01-.68-1.51-.24-.53-.5-1.05-.76-1.56-.28-.53-.56-1.06-.86-1.58ZM124.18,84.73c.01-.35.04-.7.08-1.04.03-.31.07-.62.12-.93.01-.07.02-.15.03-.22.04-.28.09-.57.15-.85.06-.32.14-.65.22-.97h0c.07-.29.15-.58.23-.86.09-.31.18-.61.28-.9.03-.11.07-.23.11-.34.08-.23.16-.46.25-.68.35-.94.75-1.84,1.18-2.72.12-.25.24-.5.37-.74.14-.28.29-.56.43-.84.29-.55.59-1.1.9-1.63.15-.27.3-.54.45-.8.14-.25.29-.5.43-.74.42-.72.8-1.4,1.16-2.04.24-.43.47-.83.69-1.22.22-.39.43-.76.63-1.11.2-.36.39-.69.58-1.01.09-.16.18-.31.27-.46.18-.3.35-.59.51-.85.49-.8.93-1.46,1.35-1.98.13-.17.27-.33.41-.47.27-.28.53-.51.8-.69.07-.05.13-.09.2-.12.06-.04.13-.07.2-.1.07-.03.13-.06.21-.09.08-.03.17-.05.26-.07,2.12-.49,4.95,1.79,12.27,5.15.32.14.53.56,1.05,1.14-8.57,7.17-17.19,14.27-25.47,23.25-.26-1.41-.38-2.74-.38-4.02,0-.35.01-.7.03-1.05ZM155.36,70.75c5.26-3.5,10.45-.61,15.58,1.53-1.23,2.27-3.37,3.09-5.21,4.06-.71.37-1.4.75-2.07,1.15-.46.27-.92.54-1.37.82-.14.09-.29.18-.43.28-.51.32-1,.65-1.49.98-.08.05-.15.11-.23.16-.45.31-.88.63-1.31.95-.18.13-.34.26-.51.39-.5.38-.99.77-1.46,1.17-.41.34-.82.69-1.21,1.06-.14.11-.27.23-.4.35-.42.39-.83.78-1.23,1.18-.47.46-.93.94-1.38,1.43-.35.38-.69.77-1.02,1.17-.17.19-.33.38-.49.58-.73.88-1.42,1.79-2.07,2.73-.3.43-.6.87-.88,1.31-.25.4-.5.79-.73,1.19-.16.25-.31.51-.45.77-.86,1.51-1.64,3.07-2.33,4.7-.15.35-.29.7-.43,1.06-.31.78-.61,1.58-.88,2.39-.12.34-.23.68-.33,1.02-.05.14-.09.28-.13.41-.11.33-.2.66-.29.99-.01.03-.02.06-.03.08-.24.83-.46,1.67-.66,2.53-.2.86-.44,1.62-.73,2.26-.12.29-.26.54-.41.78-.05.07-.09.14-.14.21-.44.64-.97,1.12-1.65,1.43-.12.06-.24.12-.37.16-.02.01-.04.02-.06.03-.14.05-.29.09-.45.13-.34.08-.71.14-1.11.16-.17,0-.35.02-.54.02-.41,0-.85-.03-1.33-.08-5.44-.64-10.96-.63-17.17-.93,9.54-16.91,21.89-30.26,37.4-40.61ZM428.13,224.38v.02c-.05,2.42-.16,4.87-.31,7.32h0c-.08,1.24-.18,2.47-.28,3.71-.9,10.59-2.18,21.02-3.95,31.31-.29,1.72-.6,3.43-.93,5.15-.2,1.06-.41,2.13-.62,3.19-.21,1.06-.43,2.12-.66,3.19-.22,1.06-.45,2.12-.69,3.18-.73,3.31-1.53,6.6-2.38,9.88-.24.93-.49,1.85-.74,2.77-.28,1.05-.57,2.1-.87,3.15-.36,1.25-.72,2.51-1.1,3.76-.37,1.25-.76,2.5-1.15,3.75-.33,1.04-.67,2.08-1.01,3.12-.34,1.04-.69,2.08-1.05,3.12-.35,1.03-.71,2.07-1.08,3.1-.37,1.03-.75,2.07-1.13,3.1-.26.7-.52,1.4-.79,2.09s-.54,1.38-.81,2.07c-.14.36-.29.73-.44,1.09-.24.61-.49,1.22-.75,1.83-.31.76-.64,1.52-.97,2.27-.33.77-.66,1.54-1.01,2.3-.27.61-.54,1.21-.82,1.8-1.1,2.38-2.25,4.72-3.44,7-.45.88-.91,1.74-1.38,2.6-.21.39-.42.78-.63,1.16-.47.86-.95,1.7-1.44,2.54-.58,1-1.16,1.98-1.75,2.95-.04.08-.09.16-.15.24-.58.96-1.17,1.91-1.78,2.85-1.27,1.97-2.57,3.9-3.9,5.78-1.73,2.43-3.52,4.79-5.38,7.07-.32.39-.64.79-.97,1.18-.51.63-1.04,1.25-1.58,1.87-.86,1-1.74,1.99-2.63,2.96-1.34,1.46-2.7,2.88-4.09,4.27-2.65,2.64-5.4,5.16-8.27,7.57t-.01,0c-2.29,1.93-4.64,3.76-7.07,5.52t0,0c-.91.66-1.82,1.31-2.75,1.95-.93.63-1.87,1.26-2.82,1.88,0,0,0,.01-.01,0-1.26.82-2.54,1.61-3.83,2.4-.75.45-1.5.89-2.26,1.32-.56.33-1.13.65-1.7.96-.67.38-1.34.74-2.02,1.1-1.35.72-2.72,1.42-4.1,2.1h0c-1.38.68-2.78,1.34-4.2,1.98-1.43.65-2.87,1.27-4.33,1.86-1.45.6-2.92,1.18-4.41,1.74-.75.28-1.5.55-2.25.82-.55.2-1.11.4-1.67.59-.68.24-1.37.47-2.06.69-.13.05-.25.09-.38.13-.93.3-1.86.6-2.8.88-.81.25-1.64.5-2.46.73-.75.22-1.51.44-2.27.64-.8.22-1.6.44-2.41.64-1.83.48-3.68.92-5.56,1.33-.5.13-1.01.24-1.52.34-.93.21-1.87.4-2.82.59-.96.2-1.92.49-2.9.59q-8.82.95-8.82,9.6c0,4.93-.04,9.85-.01,14.77,0,1.24.02,2.47.03,3.7.01.7.04,1.34.09,1.93,0,.04,0,.08,0,.12.03.31.06.61.1.89.15,1.13.42,2.03.84,2.73.41.72.97,1.23,1.72,1.59.07.03.15.07.24.1.19.08.39.15.61.2.15.05.3.08.46.11.23.05.46.08.71.11.22.03.44.04.68.06.79.04,1.68.02,2.69-.05.5-.04,1.04-.1,1.59-.18.43-.05.87-.12,1.31-.19,1.18-.17,2.36-.32,3.39-.26.04,0,.08.01.11.01.47.03.9.11,1.29.25.12.04.23.09.33.14.07.04.14.08.2.12.02.01.04.02.06.04.07.04.14.09.2.15.09.06.17.13.24.22.03.03.05.06.08.09.05.04.09.1.11.15.03.03.05.07.07.1.13.21.23.42.3.63.07.22.09.44.09.65,0,.12-.01.24-.03.37,0,.03,0,.05-.01.06-.02.11-.05.22-.08.34-.04.16-.1.31-.17.45-.04.1-.1.21-.15.31-.71,1.34-2.14,2.68-3.19,4.01-.14.17-.26.34-.38.51-.12.17-.24.34-.34.51-.7,1.18-1.38,2.37-2.04,3.57-.65,1.19-1.28,2.4-1.87,3.62-.3.6-.59,1.22-.87,1.83-.28.61-.55,1.23-.82,1.85-.53,1.24-1.03,2.49-1.49,3.75-1.16,3.15-2.09,6.39-2.75,9.71-.12.65-.24,1.31-.36,1.97v.06c-.23,1.33-.4,2.69-.53,4.05-.04.45-.11.85-.2,1.19-.03.11-.07.21-.1.31-.11.31-.24.56-.4.76,0,0,0,.01-.01.02-.05.06-.1.11-.15.16-.09.09-.19.16-.29.23-.01,0-.02.02-.03.02-.08.04-.16.09-.25.12-.02.01-.04.02-.06.02-.08.03-.17.05-.26.07-.03,0-.06.02-.09,0-.11.02-.23.03-.35.03-.24,0-.5-.03-.78-.09-.28-.06-.57-.15-.88-.25-5.58-1.96-11.2-3.87-16.59-6.27-3.73-1.67-6.07-4.95-7.37-8.91-.77-2.33-1.47-4.67-2.1-7.01-.19-.69-.37-1.39-.55-2.08-.35-1.37-.68-2.73-.97-4.1-.11-.47-.21-.94-.3-1.41-.1-.46-.19-.92-.27-1.38-.25-1.23-.46-2.46-.65-3.69-.21-1.33-.39-2.67-.55-4.01-.17-1.45-.31-2.91-.41-4.37-.21-2.7-.29-5.42-.23-8.15,0-.45.01-.9.03-1.35.02-.6.05-1.2.08-1.8.05-1.04.12-2.08.22-3.12h0c.09-1.06.2-2.11.34-3.16.06-.53.13-1.05.21-1.58.08-.55.15-1.1.21-1.65s.12-1.1.16-1.66c.09-1.11.15-2.22.19-3.34.02-.44.03-.89.04-1.34.02-.89.03-1.78.04-2.67.01-1.28-.43-2.32-1.17-3.06-.09-.09-.19-.18-.29-.26-.4-.33-.87-.57-1.39-.73-.11-.04-.22-.07-.34-.09-.09-.02-.18-.04-.27-.05-.09-.02-.17-.03-.26-.04-.12-.02-.25-.03-.38-.03h-.15c-.15,0-.3.01-.43.03-.12.01-.23.03-.33.06-.04,0-.08,0-.11.02-.11.04-.21.08-.3.12h-.01c-.21.09-.39.22-.54.37-.08.08-.15.16-.22.24-.07.09-.13.18-.18.27-.06.1-.11.2-.16.3-.37.83-.45,1.9-.56,2.87-.36,3.34-.68,6.68-.92,10.01-.04.58-.08,1.16-.12,1.73-.08,1.15-.14,2.3-.19,3.46-.03.57-.05,1.15-.07,1.72-.01.06-.01.13-.01.2-.03.72-.05,1.44-.06,2.16-.02.89-.03,1.77-.03,2.66,0,1.05.01,2.1.04,3.16.01.75.04,1.5.08,2.25,0,.08,0,.16.01.25.02.62.06,1.24.1,1.87.02.34.04.69.07,1.03.06.77.12,1.54.19,2.31.07.72.15,1.43.24,2.15.08.71.18,1.43.28,2.14.1.72.21,1.43.33,2.14.24,1.43.52,2.86.85,4.28.14.66.3,1.32.46,1.98.02.09.04.18.07.26.16.66.34,1.32.53,1.98.2.71.41,1.41.63,2.12.65,2.11,1.42,4.21,2.29,6.3.09.21.17.41.25.61.31.81.52,1.58.65,2.3.04.18.06.36.08.53.03.18.04.35.05.52.01.17.02.33.02.49,0,.18,0,.36-.02.53-.01.12-.02.24-.03.35-.02.15-.04.29-.07.42-.02.11-.04.22-.07.32-.05.22-.12.43-.19.63-.06.16-.12.32-.2.48,0,.01-.01.02-.02.03-.06.16-.15.32-.25.48-.08.16-.19.32-.3.48-.22.31-.48.61-.76.9-.67.7-1.51,1.33-2.53,1.9l-.36.21c-.21.11-.43.23-.65.33-.18.09-.36.18-.55.26-.41.19-.83.38-1.25.57-1.26.56-2.53,1.08-3.8,1.57-.64.25-1.27.49-1.91.72-.64.24-1.28.47-1.92.7h0c-3.85,1.35-7.75,2.55-11.66,3.77-.18.06-.38.12-.57.19-.3.09-.61.18-.91.24-.15.04-.3.06-.44.08-.15.02-.29.03-.43.03-.06,0-.11,0-.17,0-.05,0-.1,0-.15-.01-.12-.01-.25-.04-.36-.09-.09-.02-.17-.06-.24-.11-.03-.01-.05-.03-.08-.04-.06-.05-.13-.1-.18-.15-.08-.08-.16-.16-.22-.26-.05-.08-.1-.16-.14-.25-.07-.15-.13-.33-.18-.52-.05-.16-.08-.34-.1-.53-.04-.39-.09-.77-.14-1.16-.14-1.06-.32-2.11-.52-3.15-.09-.47-.19-.94-.29-1.41-.08-.38-.17-.75-.26-1.13-.18-.74-.37-1.48-.57-2.21-.1-.37-.21-.74-.32-1.1-.11-.37-.22-.73-.34-1.1-.17-.55-.36-1.1-.55-1.65-.12-.35-.25-.7-.38-1.04-.74-2.03-1.59-4.03-2.53-6-.31-.64-.63-1.28-.95-1.92-.3-.59-.61-1.18-.93-1.77-.24-.45-.49-.89-.74-1.33s-.5-.89-.76-1.33c-.34-.58-.69-1.17-1.05-1.75-.41-.68-.84-1.36-1.28-2.04-.35-.54-.71-1.09-1.07-1.63-.54-.81-1.1-1.63-1.67-2.44,6.47-.32,12.13-.81,17.78-.79.4,0,.76-.01,1.09-.05.24-.02.46-.05.66-.09.32-.06.61-.14.85-.25.17-.08.31-.16.44-.25.08-.05.15-.11.22-.18.77-.73.82-1.97.41-3.85-.51-2.29-1.06-4.58-1.63-6.86-.16-.65-.32-1.3-.49-1.95-.78-2.99-1.59-5.97-2.39-8.95-1.18-4.39-2.35-8.77-3.38-13.19-.16-.68-.31-1.37-.46-2.05-.18-.78-.34-1.57-.5-2.35-.37-1.78-.71-3.57-1.01-5.37-.42-2.52-2.71-3.03-4.78-3.86-3.22-1.29-6.45-2.54-9.68-3.78-1.61-.61-3.23-1.23-4.85-1.84-2.05-.78-4.1-1.56-6.14-2.35-.86-.33-1.72-.66-2.58-1-.8-.31-1.6-.62-2.39-.93-4.36-1.72-8.69-3.51-12.97-5.43-.84-.38-1.68-.77-2.52-1.16-.85-.4-1.7-.81-2.54-1.23-.84-.42-1.67-.86-2.49-1.3-2.74-1.48-5.39-3.08-7.97-4.78-.52-.33-1.03-.68-1.54-1.03-2.56-1.72-5.05-3.54-7.5-5.41-.48-.35-.95-.72-1.43-1.09-.51-.39-1.01-.79-1.51-1.18-1.94-1.53-3.85-3.08-5.76-4.65-5.73-4.7-11.37-9.53-17.24-14.07-4.86-3.76-9.3-7.76-13.35-11.98-1.35-1.4-2.66-2.83-3.93-4.29-.63-.73-1.25-1.47-1.87-2.21-1.84-2.22-3.59-4.49-5.24-6.81-2.21-3.1-4.27-6.29-6.18-9.57-.46-.79-.91-1.58-1.35-2.38-1.85-3.35-3.56-6.78-5.14-10.3-.78-1.74-1.53-3.51-2.24-5.29-.36-.89-.7-1.78-1.04-2.68-.35-.9-.68-1.81-1-2.72-.33-.91-.65-1.82-.95-2.74-.29-.84-.57-1.69-.83-2.54-.06-.17-.12-.34-.17-.51-.27-.83-.52-1.67-.77-2.52-.29-.94-.56-1.88-.82-2.83-.27-.94-.53-1.89-.78-2.85-.5-1.91-.98-3.84-1.43-5.78-.7-3.04-1.32-6.09-1.84-9.16-.11-.6-.21-1.2-.29-1.8-.3-1.86-.55-3.72-.76-5.59-.07-.54-.13-1.08-.17-1.63-.22-2.01-.37-4.04-.46-6.07-.03-.45-.05-.91-.06-1.37-.07-1.64-.09-3.28-.08-4.93,0-.3.02-.61.03-.91.09-1.74.35-3.56-.17-5.19-.07-.22-.16-.43-.26-.64-.21-.42-.48-.83-.83-1.21-.13-.15-.27-.29-.43-.42-.01-.01-.01-.02-.02-.02-.15-.13-.31-.26-.49-.39-.06-.04-.12-.12-.17-.21-.03-.04-.05-.09-.07-.14-.09-.18-.15-.39-.18-.58-.03-.15-.04-.29-.01-.37,0-.04.02-.07.04-.09h.01c.13-.12.26-.25.38-.38.13-.13.24-.25.36-.38s.24-.26.34-.4c.11-.13.21-.26.31-.39.15-.19.28-.38.41-.57.14-.21.28-.43.4-.65.34-.58.61-1.17.83-1.77.17-.46.31-.91.43-1.38.15-.62.27-1.24.34-1.87.03-.2.05-.41.07-.62.04-.38.06-.76.08-1.13.01-.2.02-.4.02-.59.07-2.81-.24-5.67-.12-8.37.02-.43.05-.86.1-1.28.23-2.12.48-4.22.77-6.32.28-2.1.59-4.19.93-6.27.33-2.08.7-4.15,1.09-6.21.39-2.06.8-4.12,1.25-6.16.21-1.02.44-2.04.68-3.06.23-1.02.47-2.04.72-3.05.23-1,.48-1.99.73-2.98.01-.03.02-.06.03-.09.77-3.02,1.6-6.02,2.49-9,.61-2.07,1.25-4.14,1.92-6.19.29-.91.59-1.82.9-2.73.29-.89.6-1.77.91-2.66.72-2.07,1.47-4.12,2.23-6.16.37-.98.74-1.95,1.12-2.92.75-1.94,1.53-3.87,2.34-5.8.4-.97.81-1.93,1.22-2.89,1.65-3.84,3.39-7.65,5.22-11.44,1.82-3.78,3.73-7.54,5.73-11.28.08-.15.17-.3.26-.45.08-.14.17-.28.26-.41.08-.13.17-.26.26-.38.09-.12.18-.24.28-.35l.21-.24c.06-.07.13-.14.2-.2.08-.08.16-.15.24-.22.25-.21.51-.39.79-.55.09-.05.18-.1.28-.14.35-.16.73-.29,1.13-.37.07-.02.13-.03.2-.04.21-.04.43-.06.67-.08.22-.02.44-.03.67-.03h.03c.18,0,.36,0,.55.01.38.02.77.04,1.15.05,2.48.08,4.96.05,7.45,0,1.5-.02,3.01-.05,4.51-.05.81,0,1.55,0,2.21.01.32,0,.63.01.91.02.21,0,.42.01.61.02.17.01.33.02.48.03.16,0,.31.02.45.04.14.01.28.03.41.05.08.01.16.02.24.04.68.11,1.22.28,1.65.57.15.09.3.2.43.34.09.1.18.2.27.31.24.31.43.7.6,1.17.43,1.2.68,2.97,1.04,5.55.09.61.18,1.21.29,1.81.03.2.06.39.1.58.11.63.24,1.25.38,1.86.14.63.29,1.26.45,1.89.08.3.16.6.24.9.12.44.25.88.38,1.31.18.61.38,1.21.59,1.81.04.12.08.24.13.36.17.51.36,1.02.56,1.52.06.18.13.35.2.52.19.47.38.93.58,1.39.06.14.12.28.18.42.26.57.52,1.13.79,1.68.27.57.56,1.14.86,1.7.27.5.55,1,.83,1.48.66,1.15,1.36,2.26,2.11,3.34.17.26.35.52.53.77,1.17,1.63,2.42,3.17,3.76,4.63.2.23.41.45.62.67,1.11,1.18,2.28,2.3,3.5,3.36.28.24.56.48.85.72,1.25,1.04,2.54,2.01,3.89,2.92.32.22.65.44.99.65,1.03.67,2.09,1.3,3.18,1.89.58.31,1.17.61,1.76.9,1.12.56,2.27,1.07,3.45,1.54.26.11.53.21.79.31.34.13.68.26,1.03.39,3.07,1.09,6.29,1.9,9.62,2.4.35.06.71.11,1.07.15.68.1,1.37.17,2.06.23.3.04.59.06.89.08.32.03.64.05.97.06.87.05,1.75.08,2.64.09.82.01,1.64,0,2.45-.02.41,0,.82-.01,1.23-.03.47-.01.93-.03,1.39-.06.28,0,.55-.02.82-.04.63-.03,1.26-.08,1.88-.14.15,0,.3-.01.45-.03.64-.05,1.29-.12,1.92-.2.71-.07,1.41-.16,2.1-.26.39-.05.77-.11,1.15-.17.51-.08,1.01-.16,1.51-.26.62-.11,1.23-.23,1.83-.35.04-.01.07-.02.1-.02.33-.07.65-.15.97-.22.52-.11,1.02-.23,1.52-.37.6-.14,1.19-.3,1.78-.48.15-.03.31-.08.46-.13.56-.16,1.12-.33,1.67-.52.12-.03.23-.06.34-.11.61-.2,1.21-.41,1.81-.63t.02-.01c.59-.22,1.17-.44,1.75-.69.16-.05.31-.12.47-.19.45-.18.89-.38,1.33-.59.64-.27,1.27-.57,1.89-.89.29-.14.57-.28.85-.43.29-.15.57-.3.85-.46.26-.13.51-.27.76-.42.62-.35,1.23-.71,1.83-1.09.47-.29.92-.58,1.38-.89.56-.37,1.1-.75,1.64-1.15.34-.24.67-.49.99-.74.1-.07.2-.14.29-.23.32-.24.63-.48.94-.73.86-.7,1.7-1.43,2.52-2.2.21-.18.42-.38.62-.57.26-.25.52-.5.78-.77.17-.15.33-.32.5-.5.2-.2.4-.41.59-.62.17-.16.33-.33.47-.5.27-.28.53-.57.79-.87.31-.34.61-.69.9-1.04.22-.25.43-.51.64-.77.19-.22.36-.43.53-.65.19-.25.39-.5.58-.75.32-.4.62-.8.91-1.21.25-.36.51-.72.76-1.08.5-.72.99-1.45,1.47-2.21.08-.1.14-.19.18-.29.24-.38.48-.77.72-1.16.26-.42.51-.85.75-1.28.24-.42.48-.85.71-1.28.03-.02.04-.04.04-.06.23-.43.46-.87.69-1.31.25-.45.48-.91.7-1.38.23-.46.45-.93.67-1.4.23-.47.44-.95.66-1.43.36-.8.75-1.55,1.17-2.25.2-.35.41-.68.64-1h0c.22-.33.45-.64.69-.94.23-.29.47-.57.72-.84t.01,0c.25-.27.51-.53.77-.78.18-.18.38-.35.58-.51.14-.13.29-.24.44-.36.17-.14.35-.27.53-.39.14-.1.28-.19.42-.28.08-.06.17-.11.26-.16.14-.09.28-.17.42-.25.19-.11.38-.21.57-.3.14-.07.28-.14.42-.2.25-.12.51-.22.77-.32.31-.12.62-.22.93-.31.04-.02.08-.03.13-.04.27-.08.55-.15.82-.21.09-.02.19-.04.29-.06.3-.06.6-.11.9-.15.35-.05.71-.09,1.07-.11h.02c.36-.03.73-.04,1.11-.04,2.1,0,4.36.38,6.74,1.13.13.04.25.08.37.13.11.04.21.08.3.12,1.32.57,1.87,1.38,2.1,2.32.02.09.04.18.06.27.02.11.04.22.05.34.03.22.04.46.05.69.02.55,0,1.13,0,1.71.56,28,17.55,44.36,38.7,49.91,28.36,7.45,57.59-4.11,69.03-34.1.25-.65.5-1.29.75-1.93s.5-1.28.74-1.92c1.79-4.78,2.98-7.83,4.47-9.67.29-.37.6-.69.93-.97.07-.06.14-.11.21-.17.24-.19.5-.36.77-.51.08-.04.16-.09.24-.12.36-.18.76-.32,1.19-.43.14-.04.27-.07.42-.1.1-.02.2-.04.31-.06.24-.03.5-.06.76-.09.14-.01.28-.02.43-.03.42-.02.87-.03,1.35-.02.66.01,1.39.05,2.19.12.32.03.65.06.99.09.47.05.97.1,1.49.17.27.03.54.06.83.1.38.04.77.09,1.17.14.32.04.64.09.98.13.07.01.15.02.22.03.24.03.49.07.72.12.06.01.13.02.2.04.17.03.34.07.5.12.29.06.57.14.85.25.08.03.15.05.22.08.81.28,1.55.65,2.23,1.11.15.1.29.2.43.31.14.1.28.21.42.33.32.26.63.54.92.86.12.13.25.26.37.4.11.14.23.28.34.42.12.14.23.29.33.44.26.35.49.72.71,1.1.11.18.21.37.31.57.14.26.28.53.4.81,2.24,4.96,4.32,9.93,6.22,14.94.63,1.67,1.25,3.34,1.84,5.02.74,2.09,1.44,4.19,2.12,6.3.21.66.42,1.33.62,2,1.74,5.61,3.23,11.26,4.45,16.98.17.81.34,1.61.5,2.42.31,1.51.59,3.03.85,4.55.17.92.32,1.83.46,2.75.12.7.22,1.39.32,2.09.16,1.07.31,2.13.45,3.21.08.62.15,1.23.22,1.85.24,1.97.44,3.95.6,5.94.04.45.08.9.11,1.36.32,4.29.49,8.61.49,12.98,0,1.2-.01,2.41-.04,3.62Z"/>
      <path class="cls-5" d="M242.36,93.37c-3.25-6.96-8.3-10.86-15.7-11.97-4.9-.73-9.79-1.75-14.25-3.84-10.32-4.83-21.22-3.37-31.36-1.35-22.45,4.47-37.8,26.16-35.32,47.47,2.79,23.83,22.45,41.09,46.69,40.97,10.9-.42,20.97-3.49,30.12-9.47,20.78-13.6,29.45-41.14,19.82-61.81ZM214.6,120.32c-.54,6.8-4.99,11.06-11.02,10.56-4.68-.39-8.33-4.97-8.03-10.09.35-6.18,5.05-10.79,10.67-10.46,5.63.33,8.85,4.17,8.38,9.99Z"/>
      <path class="cls-5" d="M377.64,118.78c-1.56-14.3-7.79-26.77-21.91-33.92-9.15-4.64-18.89-3.57-31.77-5.66-3.49-1.34-8.42,2.58-14.17,5.41-8.06,3.96-15.02,8.89-20.62,15.68-13.21,16.01-14.78,34.18-6.38,52.32,8.21,17.71,24.06,25.67,43.17,25.05,36.16-1.16,54.55-32.66,51.68-58.88ZM317.22,141.02c-5.37.02-8.34-4.01-8.38-11.39-.03-6.1,4.04-10.89,9.33-10.95,5.8-.07,8.58,3.49,8.57,10.99,0,6.3-4.23,11.32-9.52,11.35Z"/>
      <path class="cls-4" d="M213.55,455.46c6.47-.32,12.12-.81,17.77-.79,3.66.01,4.42-1.31,3.68-4.66-3-13.64-7.57-26.91-9.87-40.72-.42-2.52-2.71-3.03-4.78-3.87-13.7-5.5-27.71-10.24-41.13-16.48-18.26-8.5-32.34-22.64-47.98-34.74-25.91-20.06-39.9-46.9-47.09-78-2.32-10.02-3.75-20.2-3.66-30.55.03-3.04,1.07-6.46-2.17-8.78-.32-.23-.56-1.23-.39-1.39,5.97-5.62,3.25-13.28,3.96-19.78,3.66-33.87,14.31-65.33,30.28-95.21,1.43-2.67,3.1-3.59,6.02-3.44,4.36.22,8.74.01,13.11,0q8.16-.01,9.3,8.14c3.61,25.74,24.36,44.13,50.27,44.33,26.71.21,46.42-10.9,57.55-35.88,3.84-8.63,11.22-11.27,20.41-8.38,3.32,1.05,2.9,3.27,2.94,5.58.56,28,17.55,44.36,38.7,49.92,28.36,7.44,57.59-4.12,69.03-34.11.49-1.28,1.01-2.56,1.49-3.84,4.84-12.9,5.29-13.18,18.94-11.39,4.33.57,7.22,3.11,8.96,6.96,13.96,30.86,21.55,62.48,18.62,97.07-2.39,28.23-7.55,55.34-17.36,81.77-19.04,51.23-54.8,82.97-108.71,93.68-.97.19-1.93.49-2.9.59q-8.82.95-8.82,9.59c0,6.16-.06,12.32.03,18.48.09,6.63,1.75,8.23,8.14,7.79,3.14-.22,7.54-1.66,8.99.63,1.64,2.6-2.42,5.26-3.96,7.84-5.65,9.44-9.7,19.41-10.73,30.41-.28,3.01-1.7,3.36-3.86,2.6-5.58-1.96-11.2-3.87-16.59-6.27-3.73-1.67-6.07-4.95-7.37-8.91-5.05-15.38-7.5-31.01-5.15-47.2.51-3.51.61-7.1.63-10.66.02-2.55-1.74-4.17-4.1-4.26-2.66-.1-2.78,2.29-2.99,4.28-2.06,19.03-2.83,37.96,4.78,56.16,2.37,5.68.69,9.18-4.95,11.77-6.66,3.07-13.61,5.16-20.55,7.33-1.64.51-3.84,1.38-4.17-1.44-1.46-12.45-6.75-23.32-14.35-34.16ZM255.36,269.66c-26.01-.04-45.54-13.53-52.61-36.35q-3.16-10.21,6.6-14.91c.71-.34,1.44-.67,2.11-1.09,1.48-.94,3.84-1.95,2.96-3.86-1.29-2.77-3.54-.58-4.95.24-8.88,5.19-17.4,3.99-25.82-1.02-1.36-.81-2.72-1.65-4.15-2.33-1.36-.64-2.84-.63-3.7.78-1.16,1.89.78,2.41,1.78,3,3.23,1.91,6.57,3.66,9.9,5.4,3.72,1.95,6.18,4.72,6.88,9.05,1.99,12.33,7.61,22.86,16.98,31.05,26.24,22.92,65.94,21.56,91.48-2.26,9.83-9.17,13.78-21.06,17.95-32.95,1.86-5.3,4.27-6.2,9.57-5.25,6.52,1.16,13.44,1.83,19.64-2.03,1.5-.93,3.69-2.06,2.71-3.98-.84-1.65-2.76-.32-4.2.3-2.9,1.23-5.78,2.37-9.05,2.57-9.99.61-17.59-3.48-23.67-11.16-1.14-1.45-2.4-4.72-4.49-3.23-2.3,1.64.41,4.08,1.51,5.55,3.2,4.29,3.53,8.49,1.28,13.23-.92,1.93-1.21,4.16-1.9,6.21-8.97,26.9-30.32,43.07-56.8,43.03ZM279.46,185.3c-.13-15.08-7.42-23.1-20.94-23.03-14.52.07-27.4,10.8-27.21,22.68.22,14.03,10.03,23.31,24.51,23.19,14.96-.12,23.75-8.62,23.63-22.83Z"/>
      <path class="cls-6" d="M227.65,75.34c-2.77.14-5.44-.13-8.12-2.21,5.52-2.49,10.8-4.93,16.13-7.26,2.04-.9,3.65-2.28,2.75-4.48-.98-2.4-3.22-1.82-5.09-.9-26.62,13.1-53.27,9.15-79.88.08-12.02-4.09-23.2-9.85-33.77-17.89,4.14-3.51,8.72-1.6,12.74-2.24,13.82-2.2,26.49-7.62,39.09-13.24,22.8-10.16,46.51-16.79,71.31-20,38.25-4.96,71.65,6.66,102.25,28.59,2.16,1.55,4.16,1.59,6.87,1.64,12.35.22,24.84.08,36.25,6.49,10.53,5.92,15.29,15.51,16.8,26.55,1.42,10.34,1.16,20.87-2.81,30.96-1.63,4.15-2.78,4.01-5.18.6-8.23-11.71-17.28-22.75-28.16-32.14-2.13-1.84-2.22-2.94-.19-5.1,2.3-2.46,8.17-4.68,4.73-8.58-2.64-3-6.06,1.97-8.86,3.66-14.71,8.88-31.03,12.2-47.73,14.16-7.16.84-14.42,2.32-21.92-.73,2.6-3.3,6.68-4.3,9.5-6.91,1.45-1.34,3.41-2.73,1.73-4.94-1.75-2.31-3.48-.51-5.09.54-9.62,6.27-19.41,12.15-31.18,13.46-14.07,1.02-28.13,1.69-42.19-.1Z"/>
      <path class="cls-4" d="M417.67,319.81c10.49-28.06,17.32-56.04,16.48-85.63,8.71,4.07,20.84,30.91,20.09,43.71-1.05,17.75-16.14,35.36-36.56,41.92Z"/>
      <path class="cls-4" d="M301.44,81.6c-14.67,8.26-23.69,20.2-28.37,35.71-1.35,4.47-5.49,1.95-8.14,1.9-3.93-.07-8.28,1.77-11.84-1.39-.31-.28-.22-1.15-.13-1.71,1.63-10.3-1.64-19.53-6.4-28.35-1.67-3.09-1.42-4.27,2.28-4.13,11.35.43,22.3-1.67,33.28-4.46,6.34-1.61,12.79,1.21,19.32,2.43Z"/>
      <path class="cls-6" d="M205.98,495.12c-.99,0-1.98,0-2.97,0-8.79.04-9.29-.22-10.21-8.23-.98-8.46-4.09-16.42-9.21-23.38-2.53-3.45-2.17-5.55,2.31-6.15,6.03-.81,12.06-1.76,18.12-2.17,2.35-.16,4.39,1.59,5.77,3.68,5.93,8.96,10.26,18.53,11.89,29.29.59,3.93-.49,6.06-4.44,6.42-3.74.34-7.5.5-11.24.74,0-.06,0-.13-.01-.19Z"/>
      <path class="cls-4" d="M57.9,273.1c-.24-10.49,6.72-20.21,13.51-29.98.39-.57,1.28-1.33,1.73-1.22,1.91.48,1.23,2.22,1.26,3.48.38,13.66,1.68,27.18,5.43,40.39,1.98,7,4.35,13.86,7.09,20.61.36.89,1.7,1.97.31,3.13-.97.81-1.79.05-2.72-.2-15.19-4.07-26.76-18.8-26.62-36.21Z"/>
      <path class="cls-6" d="M298.92,490.35c-1.8-3.87-.87-7.65.39-11.4,3.43-10.16,7.45-20.04,15.63-27.46,3.73-3.38,13.44-3.94,17.38-1.33,2.55,1.69.51,3.18-.37,4.4-6.92,9.7-10.83,20.53-12.51,32.24-1.13,2.51-2.77,3.74-5.83,3.54-4.88-.31-9.8-.03-14.7,0Z"/>
      <path class="cls-4" d="M327.07,490.9c-1.73-5.87-.3-11.32,1.66-16.77,1.74-4.86,3.87-9.57,7.13-13.52,2.4-2.91,3.42-8.37,8.89-7.01,9.19,2.29,14.99,7.88,15.24,14.46.23,5.99-2.57,10.63-7.4,14.06-7.6,5.4-16.18,7.94-25.52,8.77Z"/>
      <path class="cls-4" d="M117.96,111.36c9.55-16.9,21.9-30.26,37.41-40.61,5.25-3.51,10.44-.62,15.58,1.53-1.23,2.27-3.37,3.09-5.21,4.06-12.67,6.66-20.58,16.99-23.81,30.85-.91,3.9-2.55,5.59-6.79,5.1-5.45-.63-10.97-.62-17.18-.93Z"/>
      <path class="cls-4" d="M186.01,487.52c1.75,6.06-2.6,5.89-7,5.03-3.65-.72-7.29-1.77-10.73-3.16-10.31-4.16-11.94-15.18-3.48-22.64,7.87-6.94,11.13-6.44,16.34,2.54,3.23,5.58,4.87,11.44,4.87,18.24Z"/>
      <path class="cls-6" d="M224.2,499.98c11.2-3.65,22.83-6.01,33.49-11.28.8-.4,2.5-.67,2.66-.38.52.96.9,2.27.68,3.31-.6,2.85-2.99,3.81-5.45,4.87-10.93,4.66-22.22,8.13-34.09,8.75-17.17.88-34.4,1.91-51.42-1.83-4.32-.95-8.1-3.14-11.66-5.66-2.16-1.54-3.09-3.65-1.35-6.16,1.9-2.73,3.55-.31,4.98.51,7.47,4.27,15.75,6,23.99,7.89,2.3,2.02,5.43,1.59,7.89,1.66,10.11.29,20.42,2.74,30.29-1.66Z"/>
      <path class="cls-4" d="M348.31,74.89q9.42-5.04,16.93,1.68c14.34,12.82,25.71,27.94,35.16,44.62,2.11,3.72,1.59,5.42-2.87,5.3-1.98-.06-3.97-.06-5.94-.22-4.24-.34-6.61-1.8-7.23-6.9-2.53-20.82-13.61-35.37-33.42-42.94-.71-.27-1.34-.77-2.63-1.54Z"/>
      <path class="cls-6" d="M363.84,482.55c1.78,1.84-.19,3.79-2.12,5.85-7.13,7.62-16.59,10.58-26.31,12.32-20.62,3.69-41.11,2.94-61.28-3.32-5.29-1.64-7.71-4.25-5.34-9.55,32.4,12.86,64.06,16.34,95.05-5.3Z"/>
      <path class="cls-6" d="M150,66.55c-8.57,7.17-17.19,14.27-25.47,23.25-1.43-7.72,1.46-13.39,4.45-18.59,8.56-14.89,5.5-12.43,19.96-5.81.32.15.53.56,1.05,1.15Z"/>
      <path class="cls-6" d="M227.65,75.34c14.06,1.79,28.12,1.13,42.19.1-14.07,3.31-28.13,3.63-42.19-.1Z"/>
      <path class="cls-6" d="M224.2,499.98c-9.86,4.4-20.18,1.95-30.29,1.66-2.46-.07-5.6.37-7.89-1.66,6.73-.99,13.24,1.61,20,1.08,6.04-.47,12.16-.01,18.18-1.09Z"/>
      <path class="cls-6" d="M298.92,490.35c4.9-.03,9.82-.31,14.69,0,3.06.19,4.69-1.03,5.83-3.54.81,3.47-.13,5.2-4.11,4.8-5.45-.55-11.06.81-16.41-1.26Z"/>
      <path class="cls-3" d="M255.36,269.66c26.48.04,47.83-16.13,56.8-43.03.69-2.06.98-4.28,1.9-6.21,2.25-4.74,1.92-8.95-1.28-13.23-1.1-1.47-3.81-3.91-1.51-5.55,2.09-1.49,3.34,1.79,4.49,3.23,6.08,7.68,13.67,11.77,23.67,11.16,3.27-.2,6.15-1.35,9.05-2.57,1.45-.61,3.36-1.95,4.2-.3.98,1.92-1.21,3.05-2.71,3.98-6.19,3.86-13.12,3.19-19.64,2.03-5.3-.94-7.71-.04-9.57,5.25-4.17,11.89-8.12,23.78-17.95,32.95-25.54,23.83-65.24,25.18-91.48,2.26-9.37-8.19-14.99-18.72-16.98-31.05-.7-4.33-3.16-7.1-6.88-9.05-3.33-1.75-6.66-3.49-9.9-5.4-1-.59-2.94-1.11-1.78-3,.87-1.41,2.34-1.42,3.7-.78,1.43.67,2.79,1.51,4.15,2.33,8.42,5.01,16.94,6.2,25.82,1.02,1.41-.82,3.66-3.01,4.95-.24.88,1.91-1.48,2.92-2.96,3.86-.66.42-1.39.75-2.11,1.09q-9.76,4.7-6.6,14.91c7.08,22.81,26.6,36.31,52.61,36.35Z"/>
      <path class="cls-3" d="M279.46,185.3c.12,14.22-8.68,22.72-23.63,22.83-14.49.11-24.29-9.16-24.51-23.19-.19-11.87,12.69-22.61,27.21-22.68,13.52-.06,20.81,7.95,20.94,23.03ZM238.49,186.78c0,9.15,6.6,16.06,15.33,16.08,10.56.02,18.59-7.9,18.46-18.22-.13-10.6-4.74-16.65-12.75-16.74-11.16-.12-21.05,8.75-21.05,18.88Z"/>
      <path d="M326.74,129.67c0,6.3-4.23,11.32-9.52,11.35-5.37.02-8.34-4.01-8.38-11.39-.03-6.1,4.04-10.89,9.33-10.95,5.8-.07,8.58,3.49,8.57,10.99Z"/>
      <path class="cls-1" d="M214.6,120.32c-.54,6.8-4.99,11.06-11.02,10.56-4.68-.39-8.33-4.97-8.03-10.09.35-6.18,5.05-10.79,10.67-10.46,5.63.33,8.85,4.17,8.38,9.99Z"/>
      <path class="cls-2" d="M238.49,186.78c0-10.13,9.88-19,21.05-18.88,8.01.09,12.61,6.14,12.75,16.74.13,10.32-7.9,18.24-18.46,18.22-8.74-.02-15.33-6.93-15.33-16.08Z"/>
    </g>
  </g>
</svg>