<?xml version="1.0" encoding="UTF-8"?>
<svg id="Layer_1" data-name="Layer 1" xmlns="http://www.w3.org/2000/svg" viewBox="0 0 512 512">
  <defs>
    <style>
      .cls-1 {
        fill: #e2052e;
      }

      .cls-2 {
        fill: #1c1c1c;
      }

      .cls-3 {
        fill: #2f54a3;
      }

      .cls-4 {
        fill: #212121;
      }

      .cls-5 {
        fill: #fff;
      }

      .cls-6 {
        fill: #1f1f1f;
      }
    </style>
  </defs>
  <g id="reG2WQ">
    <g>
      <path class="cls-2" d="M291.57,308.3c17.71,27.89,31.99,56.34,51.98,81.67,12.89-14.07,27.34-25.77,42.51-36.61,6.59-4.71,13.39-9.01,21.58-10.54,2.85-.53,5.59-.4,8.35.31,7.44,1.93,9.02,4.48,7.46,11.92-2.38,11.38-6.99,21.79-14.53,30.62-14.19,16.61-29.63,31.99-46.64,45.75-7.95,6.43-17.36,9.82-26.93,12.82-4.33,1.36-7.44-1.12-10.3-3.81-5.31-5-9.01-11.22-12.71-17.39-21.61-36.05-45.11-70.85-69.49-105.07-2.31-3.24-4.28-3.16-8.05-2.92-13.84.88-19.4,9.05-24,21.08-9.75,25.54-21.78,50.18-31.88,75.62-4.81,12.12-7.19,24.91-11.02,37.29-.57,1.84-1.16,3.69-1.93,5.44-4.25,9.7-10.7,12.65-20.82,9.55-6.28-1.92-11.88-5.27-17.23-8.92-14.96-10.23-30.67-19.16-46.76-27.46-8.83-4.56-16.93-10.07-22.5-18.6-5.29-8.11-5.24-14.79-.11-21.97,2.81-3.94,6.36-5.73,11.28-5.16,13.64,1.59,25.89,7.44,38.41,12.4,9.48,3.76,18.63,8.24,27.3,13.64,2.07,1.29,3.28,1.92,4.54-1.12,12.49-30.11,25.13-60.17,37.99-90.86-6.4-.35-12.06,1.16-17.69,2.53-16.36,3.98-32.4,9.19-48.94,12.45-6.09,1.2-12.2,1.45-18.36.6-3.06-.42-3.88-1.35-2.04-4.32,5.93-9.61,13.05-18.32,20.11-27.07,7.51-9.31,14.89-18.7,20.2-29.52.29-.59.49-1.21.93-2.32-11.87-.64-23.07,1.59-34.34,2.55-11.57.99-23.13,2.23-34.64-.52-2.88-.69-5.78-1.37-8.34-3.66,18.86-17.93,42.97-27.72,64.68-42.41-10.72-2.86-20.84-3.35-30.99-3.55-12.48-.25-24.98-.18-37.25-3.05-4.25-1-10.53-1.71-11.27-5.24-.68-3.23,5.49-5.51,8.93-7.81,14.3-9.54,30.53-14.83,46.43-20.82,5.57-2.1,11.06-4.5,16.75-6.2,4.95-1.48,3.9-3.26,1.17-6.04-5.45-5.55-11.55-10.28-17.8-14.86-10.49-7.68-21.41-14.82-30.27-24.52-3.22-3.52-5.74-7.53-8.49-11.39-3.04-4.26-1.14-5.43,2.82-6.47,13.34-3.52,27.01-4.51,40.67-5.58,10.86-.85,21.74-1.5,32.52-3.48.37-2.65-1.45-4.34-2.55-6.23-5.64-9.72-12.28-18.84-17.4-28.88-2.64-5.18-4.65-10.58-6.17-16.18-.86-3.17-.21-4.55,3.6-4.62,14.05-.25,27.58,2.7,41.07,6.03,11.23,2.77,22.4,5.8,33.72,8.28,4.52.99,6.4-.52,8-4.17,4.98-11.41,10.01-22.81,15.14-34.15,2.31-5.11,4.62-10.26,8.2-14.67,5.1-6.28,8.74-6.29,14.04,0,1.47,1.74,2.88,3.57,4.04,5.53,7.87,13.3,16.11,26.4,22.84,40.32,1.75,3.63,3,3.51,6.04,1.74,18.51-10.77,36.74-22.08,56.57-30.39,5.32-2.23,10.94-3.78,16.22-6.1,3.31-1.45,4.04.24,4.58,2.69,1.52,6.88.48,13.64-1.13,20.35-1.11,4.6-2.22,9.2-3.47,13.76-.87,3.15-.23,4.01,3.21,3.26,18.34-4,36.73-7.8,55.11-11.64,4.33-.9,8.72-.87,13.13-.77,4.22.1,5.43,1.37,3.84,5.69-4.45,12.11-10.75,23.22-17.29,34.25-3.04,5.13-5.69,10.52-8.95,15.51-2.47,3.78-.98,4.81,2.59,5.74,21.42,5.56,43.04,10.1,65.01,12.93,6.64.85,12.97,2.8,18.92,6.07,3.38,1.86,3.42,3.74,1.41,6.58-2.42,3.41-5.68,5.69-9.28,7.6-26.08,13.91-49.95,31.38-75.14,46.72-.45.27-.84.63-1.46,1.1,11.56,7.14,24.03,11.44,36.2,16.41,7.63,3.11,15.39,5.99,22.52,10.16,2.62,1.53,6.29,2.71,5.98,6.59-.29,3.66-3.79,4.88-6.56,6.22-8.73,4.25-18.16,6.4-27.53,8.69-16.86,4.14-33.52,9.08-50.65,12.09-.28.05-.5.43-1.22,1.1,10.59,9.09,21.01,18.19,31.59,27.1,8.2,6.9,16.4,13.83,25.25,19.93,1.15.8,2.3,1.65,3.29,2.64,1.83,1.85,4.3,3.66,3.38,6.66-.84,2.73-3.66,3.01-6.07,3.4-14.65,2.42-29.43,2.5-44.21,2.15-19.36-.45-38.53-3.35-57.82-4.8-9.47-.71-18.96-1.07-29.93-1.67Z"/>
      <path class="cls-4" d="M28.63,231.66c-5.65-3.1-10.43-14.39-8.35-21.2,1.34-4.37,1.82-10.29,9.42-11.13-7.91,10.88-1.89,21.55-1.07,32.33Z"/>
      <path d="M316.4,459.91c11.37,1.94,22.27,1.59,33.27,2.75-7.8,7.43-25.2,6.19-33.27-2.75Z"/>
      <path d="M360.4,25.16c-.76-2.36-.1-4.47.75-6.64,2.17-5.55,1.24-8.17-3.83-11.45-2.05-1.33-4.31-2.43-6.1-4.04-1.14-1.02-1.89-3.07,1.03-3.03,6.2.08,9.88,4.05,12.63,8.94,2.53,4.51,3.34,9.27-.13,13.78-1.04,1.34-2.31,2.68-4.35,2.45Z"/>
      <path d="M162.88,487.49c-3.82-.48-7.83-.33-10.76-3.42-1.11-1.17-2.14-2.83-1-4.18,1.17-1.37,2.59-.01,3.57.9,4.58,4.23,9.54,3.55,14.62,1.22,2.22-1.02,4.29-2.42,6.55-3.32,1.57-.63,3.75-1.19,4.69.72.85,1.75-1.1,2.74-2.29,3.63-4.55,3.41-9.97,3.97-15.38,4.44Z"/>
      <path d="M96.88,36.17c-8.28,6.25-15.91,12.59-13.35,24.33-4.6-2.05-5.94-6.35-4.09-12.14,2.61-8.16,10.17-13.77,17.44-12.19Z"/>
      <path class="cls-4" d="M444.77,324.12c4.22-8.7,14.93-15.01,7-27.09,5.97,1.89,8.11,5.26,7.83,10.39-.42,7.75-6.62,15-14.83,16.7Z"/>
      <path d="M483.65,126.29c6.83,1.29,9.45,5.77,8.31,13.41-1.18,7.88-4.89,11.69-11.37,11.18,3.28-3.54,5.46-7.41,6.1-12.02.62-4.47-.58-8.53-3.04-12.57Z"/>
      <path d="M179.57,505.14c-5.52,7.84-21.22,9.32-27.33,2.56,9.43.87,17.83-2.18,27.33-2.56Z"/>
      <path d="M326.72,485.69c4.43,0,8.26-.03,12.1.01,1.4.02,3.01.21,3.21,1.92.17,1.47-1.32,1.86-2.43,2.33-4.75,2.01-10.1.46-12.88-4.26Z"/>
      <path class="cls-3" d="M73.38,262.76c13.54-9.61,26.73-16.61,39.37-24.49,7.59-4.73,15.15-9.49,22.14-15.14,2.36-1.91,1.9-2.91.04-4.36-3.44-2.68-7.61-3.86-11.71-4.27-12.55-1.24-25.11-2.49-37.77-2.32-9.04.12-18.02-.84-28.45-2.52,7.12-4.46,13.55-7.05,19.86-9.78,16.26-7.04,32.97-12.9,49.68-18.74,5.17-1.81,5.6-2.86,2.61-7.45-4.34-6.65-11.34-10.42-17.29-15.26-12.11-9.83-25.59-17.97-36.36-29.45-2.48-2.64-7.01-5.6-5.91-8.57.98-2.66,6.34-.7,9.74-1.14,11.95-1.54,23.88-3.26,35.85-4.65,8.82-1.02,17.64-3.1,26.61-.77,1.98.51,4.37.72,5.85-1.29,1.56-2.12.03-4.09-.97-5.82-5.68-9.7-13.37-18.06-18.76-27.95-3.02-5.54-5.83-11.2-8.71-16.83-.54-1.05-1.46-2.22-.31-3.34.89-.87,1.97-.04,2.98.06,23.75,2.42,46.8,8.03,69.49,15.22,2.8.89,4.3.42,5.86-2.23,7.57-12.92,13.1-26.78,19.21-40.38,1.44-3.2,2.99-6.35,4.43-9.55,1.13-2.5,2.35-3.16,4.55-.86,4.05,4.22,7.33,8.93,10.17,14.02,6.15,11.01,10.65,22.9,18.37,33.09,2.68,3.54,4.35,3.71,7.94,1.39,20.81-13.45,42.28-25.74,65.28-35.13,1.24-.51,2.61-1.92,3.84-.91,1.17.96.34,2.55.01,3.94-2.41,10.21-4.53,20.49-7.15,30.64-.8,3.1.25,3.91,2.74,4.96,4.49,1.89,8.74.77,12.78-.81,17.91-7.03,37.02-8.79,55.54-13.1,4.1-.95,3.02.79,2.27,3.1-4.29,13.18-12.37,24.39-18.92,36.39-1.6,2.93-3.27,5.82-4.8,8.78-3.38,6.51-3.34,6.51,3.48,9.89,6.55,3.24,13.7,4.46,20.78,5.18,14.33,1.46,28.12,5.48,42.21,8,5.33.96,10.68,1.8,16.01,2.71,1.12.19,2.82-.44,3.04,1.22.16,1.25-1.18,2.02-2.16,2.78-7.8,6.02-16.16,11.19-24.51,16.37-18.63,11.57-37.95,22.08-55.32,35.62-1.36,1.06-2.63,2.24-4.16,3.54,19.19,15.36,43.15,19.75,64.95,30.74-12.13,5.93-24.17,9.01-36.18,12.02-16.46,4.12-33.12,7.39-49.33,12.56-3.91,1.25-3.64,2.07-1.38,4.65,6.56,7.49,15.09,12.54,22.69,18.73,11.43,9.3,23.14,18.26,33.97,28.27,1.49,1.38,3.35,2.63,3.63,5.31-11.38,2.66-22.87,3.08-34.38,2.09-11.84-1.02-23.63-2.59-35.44-3.83-13.39-1.41-26.78-2.91-40.19-3.99-6.78-.55-13.67-1.02-20.33,1.37-2.14.76-3.29,1.13-1.69,3.85,13.41,22.87,25.19,46.69,40.23,68.61,2.79,4.07,6.07,7.7,9.34,11.38,4.43,4.98,8.74,9.99,10.55,16.77,1.09,4.09,5.23,4.8,8.18,1.47,2.66-3,4.37-6.83,7.03-9.82,15.28-17.14,33.17-30.8,54.38-39.86,1.29-.55,3.04-2.13,4.31-.58,1.02,1.24-.23,2.99-.71,4.4-6.07,17.98-17.45,32.42-31.22,44.97-12.82,11.68-25.61,23.51-41.83,30.68-3.41,1.51-5.43,1.43-7.75-1.8-16.48-22.98-32.4-46.32-47.86-70-11.52-17.65-23.33-35.11-34.83-52.77-2.47-3.8-4.98-4.67-9.39-3.32-8.67,2.67-17.53,4.74-26.38,6.77-2.19.5-3.32,1.43-4.08,3.38-13.99,35.76-31.72,69.97-44.05,106.41-3.36,9.94-5.27,20.34-9.45,30.03-2.63,6.1-2.83,6.04-8.71,2.78-23.17-12.88-46.73-25.09-68.97-39.57-6.48-4.22-12.91-8.75-12.55-18.03.15-3.86,1.47-4.63,5.25-4.05,24.63,3.81,46.33,14.62,67.03,27.77,3.16,2.01,4.85,2.13,7.08-1.1,2.42-3.52,4.49-7.23,5.94-11.13,12.1-32.38,26.1-63.96,40.15-95.51,1.96-4.41.52-5.26-3.45-6.08-7.69-1.6-14.95.25-22.23,2.04-17.8,4.37-35.31,9.96-53.44,12.99-1.25.21-2.8,1.74-3.67-.17-.83-1.84.59-3.36,1.68-4.7,4.87-5.99,10.01-11.77,14.67-17.92,7.65-10.09,14.38-20.78,20.12-32.1,1.87-3.68.88-5.31-2.81-6.5-7.21-2.31-14.3-.69-21.32.52-15.08,2.6-30.22,2.78-47,2.46Z"/>
      <path class="cls-2" d="M247.55,227.03c9.09.01,17.63,1.92,25.58,6.62,15.8,9.36,14.82,30.57,5.87,40.99-9.85,11.48-22.92,16.8-37.63,19-6.56.98-12.81.65-19.22-.88-17.43-4.17-22.81-20.02-17.8-34.96,5.2-15.52,27-30.76,43.2-30.78Z"/>
      <path class="cls-2" d="M236.98,152.99c20.94.13,37.97,1.73,54.62,6.37,4.42,1.23,8.69,2.92,12.29,5.82,9.31,7.48,10.2,23.38,2.18,33.1-8.53,10.34-20.25,15.1-32.62,17.88-23.25,5.23-46.63,5.38-69.55-1.98-10.85-3.48-20.11-9.19-23.6-21.27-1.56-5.39-.22-10.39.8-15.52,2.74-13.8,12.41-19.06,25.17-21.11,11.43-1.83,22.8-3.75,30.71-3.28Z"/>
      <path class="cls-2" d="M253.34,121.65c-.69-6.3,1.27-12.25,4.69-17.7,5.78-9.21,19.8-13.91,30.17-10.42,8.36,2.82,12.26,9.49,13.41,17.37,1.52,10.39.04,20.49-5.74,29.79-5.8,9.34-14.68,10.23-23.99,9.07-7.89-.98-13.14-6.23-16.24-13.46-1.95-4.57-2.74-9.4-2.32-14.65Z"/>
      <path class="cls-2" d="M226.28,149.06c-10.5.21-17.76-5.69-20.09-17-1.95-9.46-1.11-18.77,3.38-27.51,5.15-10.04,14.67-14.55,26.39-12.65,8.36,1.35,14.22,8.34,15.18,19.61.99,11.61-2.33,22.24-10.11,31.07-4.97,5.65-7.2,6.32-14.75,6.47Z"/>
      <path class="cls-1" d="M238.16,211.22c-11.28.15-22.45-.62-33.15-4.48-4.96-1.79-9.74-4.11-13.05-8.49-8.51-11.26-2.45-28.72,11.16-32.35,10.55-2.81,21.31-4.06,32.18-4.25,15.95-.27,31.93-.55,47.63,3.11,2.21.51,4.36,1.29,6.54,1.95,13.6,4.09,13.89,11.41,9,24.36-3.03,8.03-10.39,12.06-18.29,14.71-13.65,4.58-27.82,5.17-42.02,5.44Z"/>
      <path class="cls-5" d="M265.44,117.16c-.08-7.43,3.01-12.5,8.91-14.96,6.21-2.59,11.5-.53,14.21,5.56,2.63,5.9,3.56,12.08,3.02,18.5-.78,9.3-6.12,14.83-14.05,14.53-8.32-.31-14.6-7.09-14.77-16.3,3.08,1,4.61,3.62,6.61,5.59,1.19,1.17,2.11,2.37,3.91.93,3.88-3.08,6.64-6.93,7.1-11.88.47-5.08-3.44-7.78-8.08-5.79-2.22.96-4.26,2.36-6.86,3.83Z"/>
      <path class="cls-5" d="M239.61,117.69c.48,6.01-.57,11.44-3.37,16.46-2.11,3.8-5.46,6.11-9.8,5.99-4.34-.12-7.54-2.56-9.29-6.62-4.08-9.42-3.07-18.42,2.62-26.83,3.45-5.09,8.66-6.08,14.42-5.34,2.02.26,2.96,1.33,3.59,3.23,1.44,4.37,2.35,8.77,1.84,13.11Z"/>
      <path class="cls-6" d="M231.77,128.81c-4.96.05-8.91-3.06-8.9-6.34.02-5.53,2.48-9.44,6.02-9.55,4.19-.13,9.85,5.48,9.74,9.99-.12,4.93-4.06,5.32-6.85,5.89Z"/>
    </g>
  </g>
</svg>