<?xml version="1.0" encoding="UTF-8"?>
<svg id="Layer_1" data-name="Layer 1" xmlns="http://www.w3.org/2000/svg" viewBox="0 0 512 512">
  <defs>
    <style>
      .cls-1 {
        fill: #1c1c1c;
      }

      .cls-2 {
        fill: #cc115e;
      }

      .cls-3 {
        fill: #fdfdfc;
      }

      .cls-4 {
        fill: #b39328;
      }

      .cls-5 {
        fill: #108e3d;
      }

      .cls-6 {
        fill: #fccf1b;
      }
    </style>
  </defs>
  <g id="nF70PR">
    <g>
      <path class="cls-1" d="M290.93,482.75c-.92,4.27-.37,7.57.32,10.86.56,2.68.77,5.41.28,8.07-.47,2.54-1.74,4.12-4.95,3.51-5.97-1.13-12.03-1.77-18.04-2.73-3.36-.54-6.34-.2-9.69,1.02-11.41,4.17-23.5,4.5-35.47,4.83-5.18.14-6.58-2.25-5.79-7.16.05-.33.1-.67.12-1.01.2-3.51,1.24-8.32-1.08-10.03-1.94-1.43-4.67,3.27-7.27,4.89-10.75,6.72-22.58,10.51-35.03,12.49-8.6,1.37-17.26,1.65-25.62-1.03-15.34-4.91-18.08-12.38-12.14-26.61,2.66-6.37,7.28-11.58,12.6-16.11,14.51-12.35,31.23-19.95,49.94-23.1,4.29-.72,4.94-2.58,4.16-6.39-1.57-7.61-2.88-15.29-2.82-23.1.02-2.6-1.49-2.93-3.43-3.4-6.31-1.53-12.77-.5-19.17-1.53-16.55-2.65-32.92-6.23-48.74-11.47-9.15-3.03-18.42-6.11-27.12-10.81-19.55-10.56-31.64-26.73-39.03-47.22-9.18-25.48-8.48-51.44-4.39-77.6,1.62-10.35,4.32-20.45,8.36-30.16.57-1.38,1.43-3.05-.99-3.34-2.03-.24-4.84-2.29-5.73,1.55-1.16,4.94-2.59,9.79-4.82,14.36-7.24,14.88-21.07,19.09-35.5,11.07-3.25-1.81-5.22-4.11-5.75-7.73-.24-1.67-.58-3.32-.76-4.99-.51-4.6,2.31-9.73.74-13.39-1.42-3.32-7.53-3.4-10.97-6.17-4.04-3.27-3.43-7.47-2.35-11.56,1.81-6.89,7.22-10.95,12.83-14.42,3.82-2.37,3.29-3.82.04-5.85-4.08-2.54-6.47-6.01-5.2-11.02,1.25-4.92,4.8-7.61,9.51-8.86,4.33-1.15,8.85-1.31,13.07-.1,3.4.97,4.04-.21,4.35-3.02.73-6.61,3.55-11.61,9.87-14.79,7.03-3.54,13.54-2.61,18.37,3.77,4.22,5.59,5.9,12.04,6.1,18.97.04,1.45-.92,3.67,1.91,3.82,2.37.13,2.52-1.75,3.03-3.35,4.81-15.13,9.69-30.23,18.88-43.45.29-.42.51-.9.87-1.25,3.56-3.39,3.09-5.05-1.61-7.42-16.67-8.41-18.87-30.33-4.79-42.81,8.84-7.83,19-11.15,30.67-9.37,3.81.58,5.96-.93,7.8-4.07,6.02-10.24,14.39-18.53,23.03-26.47,14.04-12.9,30.79-21.12,48.64-27.32,25.82-8.97,52.4-9.58,79.19-6.76,26.63,2.81,50.98,12.76,74.03,25.76,12.83,7.23,24.03,16.88,33.89,27.95,2.25,2.53,4.83,4.77,6.93,7.41,2.25,2.82,4.53,3.43,8.21,2.71,12.7-2.5,24.05-.29,33.08,10.17,11.46,13.27,7.46,32.99-8.51,40.54-6.75,3.18-13.95,3.75-21.55,3.89,1.19,3.76,4.63,5.36,6.84,7.88,11.58,13.25,19.25,28.46,23.74,45.34.82,3.07,1.7,4.59,5.36,3.57,3.3-.92,5.9-1.24,4.53-5.86-1.51-5.09-1.14-10.4.22-15.56,2.44-9.24,10.16-14.23,20.07-13.02,9.76,1.19,17.34,8.99,17.44,17.95.01,1.02.12,2.05-.05,3.04-.62,3.5.66,3.75,3.86,3.1,6.94-1.39,13.62-1.23,18.61,5.25,3.44,4.46,4.24,9.01,1.47,13.9-1.75,3.08-5.14,6.02-5.17,9.05-.04,3.31,5.05,3.99,7.59,6.27,7.03,6.33,4.65,19.9-4.52,24.55-3.8,1.93-7.87,3.2-12.16,3.12-2.4-.04-2.73.75-2.54,2.93.33,3.69.02,7.36-.6,11.08-1.43,8.57-7.38,13.38-13.93,17.63-4.25,2.76-9.8,1.73-14.03-2.02-6.44-5.71-8.46-13.21-8.37-21.48.02-1.52.55-3.09.28-4.54-.34-1.81,1.8-5.29-1.85-5.06-2.84.18-6.74.35-6.34,5.67,1.26,16.96.59,33.94-4.36,50.28-6.23,20.56-15.23,39.95-29,56.67-17.45,21.19-37.51,39.21-63.29,49.95-9.87,4.11-20.04,7.08-30.6,8.56-2.77.39-3.77,1.2-3.72,3.99.14,7.61.12,15.23.01,22.84-.03,2.03.68,2.58,2.6,2.67,15.75.74,30.3,6.46,45,11.33,8.66,2.87,16.45,7.3,21.8,15.51,7.49,11.5,3.38,29.18-9.27,35.17-13.2,6.25-27.11,7.19-41.57,4.79-14.46-2.4-28.26-6.15-40.53-15.24Z"/>
      <path class="cls-2" d="M253.02,32.27c2.23,5.85,4.06,10.68,5.91,15.5,6.57,17.15,19.31,28.65,34.69,37.67,22.2,13.03,45.79,21.25,71.9,20.79,2.03-.04,4-.21,6.01-.68,5.26-1.22,8.53,1.12,9.04,6.67.35,3.85,2.14,6.37,5.12,8.69,21.03,16.36,34.15,37.47,38.02,64.04,1.09,7.52,6.31,10,12.54,6.13,4.36-2.71,9.32-2.59,14.24-2.56,6.84.04,7.7-1.24,5.71-7.82-1.92-6.38-2.79-12.79-1.12-19.44,1.31-5.2,5.1-6.09,9.54-6.49,4.78-.43,5.57,2.95,6.22,6.34,1.12,5.89-.74,11.35-2.98,16.65-1.06,2.5-1.32,4.55.2,7.06,3.1,5.12,6.12,5.65,9.58.77,3.68-5.2,8.45-7.35,14.69-7.3,3.58.03,4,1.71,3.25,4.47-1.9,7-7.7,9.81-13.5,12.74-2.08,1.05-6.42.28-5.48,4.23.88,3.73,3.63,6.3,8.16,6.12,3.86-.16,7.74-.25,11.55.96,4.95,1.58,6.07,4.01,3.77,8.82-2.6,5.44-8.01,7.62-15.11,6.12-3.12-.66-6.24-1.37-9.4-1.87-2.29-.37-4.43.02-5.56,2.46-1.2,2.59.99,3.66,2.38,4.96,6.84,6.42,6.92,18.34.05,24.65-1.47,1.35-3.07,3.14-5.28,2.27-2.08-.82-2.43-2.97-2.79-5.06-1.37-8.06-1.1-16.16-1-24.27.05-4.88-3.03-7.77-7.73-6.68-7.05,1.64-13.99,3.73-20.94,5.76-3.28.96-4.25,2.54-2.89,6.38,2.32,6.54,2.44,13.6,1.88,20.51-3.2,39.71-18.68,73.65-46.67,102.27-18.47,18.88-40.39,30.72-65.72,36.88-4.73,1.15-9.63,1.62-14.37,2.75-3.7.88-5.64,3.24-5.25,7.42.88,9.48-1.31,18.9-.8,28.37.14,2.68-1.16,3.81-3.43,4.8-10.76,4.67-21.38,4.89-32.35.41-8.21-3.35-7.94-3.03-9.11-11.62-.79-5.82-.22-11.43.34-17.13.35-3.58-.61-6.14-4.68-6.15-3.78,0-6.47,1.3-6.72,5.77-.48,8.6-1.45,17.19-.24,25.81.17,1.2-.09,2.28-.76,3.37-4.02,6.56-14.95,10.38-22.44,8.03-3.99-1.25-6.19-3.58-6.93-7.71-1.61-8.97-3.3-17.9-3.06-27.08.16-6.25-3.89-10.31-10.29-10.22-30.18.42-58.8-6.79-86.62-17.72-21.78-8.55-34.2-25.51-41.26-47.08-11.61-35.48-7.42-70.14,5.41-104.34,1.56-4.15-.98-9.95-5.28-11.05-4.73-1.21-9.47-2.51-14.28-3.33-6.22-1.05-9.73,1.92-9.93,8.21-.21,7.05-1.42,13.77-5.46,19.72-3.11,4.59-8.15,6.83-12.53,5.62-6.57-1.82-8.7-6.94-6.3-15.56,1.27-4.58,2.87-8.94,7.36-11.64,2.14-1.29,3.79-3.35,5.77-4.93,1.72-1.37,2.1-2.98,1.3-4.93-.89-2.16-2.72-2.16-4.68-2.05-3.21.18-5.73,1.92-8.28,3.55-3.01,1.92-6.05,3.69-9.59,4.4-1.94.39-3.94.11-5.12-1.39-1.09-1.39-.36-3.17.39-4.75,4.08-8.61,11.51-11.88,20.38-12.76,1.84-.18,3.72.03,5.58.04,2.45.02,3.81-1.08,3.76-3.67-.05-2.43-1.09-3.79-3.67-3.82-5.97-.07-11.07-2.7-16.06-5.61-1.9-1.11-3.19-2.57-2.46-4.96.69-2.25,2.58-2.35,4.49-2.44,6.79-.33,13.68-1.11,18.48,5.43,1.82,2.48,4.04,1.22,5.83.09,2.38-1.51,1.83-3.81.61-5.8-1.78-2.91-3.45-5.76-3.2-9.4.13-1.93.54-3.74,1.54-5.28,1.32-2.03,3.34-3.84,5.69-3.85,2.55,0,3.13,2.8,3.82,4.76,1.81,5.11,3.17,10.29,1.39,15.78-1.71,5.26,2.12,9.44,7.8,8.24,3.04-.64,6.06-1.11,9.04-.7,5.79.79,8.18-2.17,9.57-7.21,2.15-7.78,4.55-15.5,7-23.19,3.55-11.16,10.72-20.22,17.42-29.54.82-1.14,1.9-1.85,3.36-2.03,9.23-1.19,15.15-7.62,21.37-13.57.36-.35.94-.78.93-1.16-.15-6.8,4.47-6.25,8.84-5.57,25.72,3.98,46.65-7.28,66.84-20.88,5.19-3.5,9.96-7.54,14.71-11.63,10.6-9.13,17.2-21.18,24.45-32.77.98-1.56,1.89-3.16,3.4-5.71Z"/>
      <path class="cls-4" d="M360.68,96.01c-30.68-1.5-58.32-10.79-80.26-33.18-11.78-12.03-17.37-27.16-18.79-43.81-.47-5.46.64-6.54,6.15-6.2,17.55,1.08,33.93,6.79,50.32,12.65,25.98,9.28,47.51,24.63,65.12,45.77,2.32,2.78,2.17,4.33-.4,6.55-3.95,3.41-6.65,7.77-7.13,13.03-.35,3.92-2.42,5.18-5.88,5.19-3.04.01-6.09,0-9.13,0Z"/>
      <path class="cls-4" d="M243.63,12.86c.68,0,1.37.09,2.03-.01,4.84-.75,4.52,1.58,2.95,4.79-5.96,12.17-12.39,24.11-20.79,34.77-14.5,18.4-33.05,31.27-55.25,38.81-9.74,3.31-19.69,4.46-29.93,2.79-2.8-.46-4.31-1.34-4.15-4.44.2-4.04-.93-7.97-3.76-10.72-2.7-2.62-1.74-4.36-.12-6.84,21.53-33.05,52.19-51.56,90.93-57.2,6-.87,12.05-1.46,18.08-2.18,0,.08.02.16.03.24Z"/>
      <path class="cls-5" d="M295.59,473.17c5.28-.85,10.58-1.59,15.84-2.58,13.03-2.44,22.56-10.26,30.21-20.53,2.16-2.9,3.88-3.61,7.46-2.74,8.31,2.03,15.37,5.75,21.12,12.13,9.2,10.21,3.25,24.72-8.09,26.96-24.06,4.76-45.94-.08-66.53-13.25Z"/>
      <path class="cls-4" d="M407.99,114.26c-18.15-.13-26.88-13.26-19.52-26.93,3.65-6.78,16.67-12.01,24.18-9.69,2.26.7,4.62,1.19,6.73,2.18,4.92,2.31,10.01,4.64,10.55,11.13.6,7.34-1.22,13.8-7.34,18.43-4.77,3.61-10.36,4.74-14.6,4.89Z"/>
      <path class="cls-5" d="M209.46,480.84c-9.31,8.83-19.54,12.77-30.2,15.22-8.28,1.91-16.8,3.61-25.46,1.31-8.05-2.14-10.53-7.25-7.06-14.88,3.14-6.9,9.01-11.23,14.65-15.8,1.49-1.21,2.4-.21,3.48.66,12.6,10.14,27.04,14.54,44.59,13.49Z"/>
      <path class="cls-4" d="M89.52,101.3c.17-14.57,14.49-26.3,28.66-23.48,6.23,1.24,9.78,7.05,9.48,13.47-.48,10.24-4.87,17.56-14.02,22.14-7.6,3.81-15.94,2.44-21.73-3.71-2.19-2.32-2.45-3.23-2.38-8.43Z"/>
      <path class="cls-3" d="M240.14,449.56c-5.32,12.28-15.34,17.6-26.65,20.76-12.55,3.5-24.99,4.46-36.04-4.77-6.18-5.16-6.19-5.75,1.03-8.91,10.61-4.64,21.95-6.61,33.19-8.9.8-.16,1.8-.26,2.48.08,8.17,4.11,16.7,3.23,26,1.74Z"/>
      <path class="cls-3" d="M294.1,464.96c-12.58.74-20.76-5.66-26.58-16.05-1.54-2.74-1.09-4.2,2.31-3.66,11.83,1.85,22.79-1.36,34.22-4.02,8.24-1.92,17.91-1.26,26.73,1.35,3.12.92,1.18,2.55.41,3.71-6.21,9.46-14.54,15.86-26.02,17.45-3.67.51-7.38.82-11.07,1.23Z"/>
      <path class="cls-5" d="M247.36,458.85c4.27,10.45,6.09,20.95,9.54,30.95.69,2.01.15,3.61-1.95,4.55-7.47,3.38-15.41,3.01-23.31,2.95-1.21,0-1.71-.83-1.86-1.96-.31-2.33-.78-4.65-.96-6.99-.64-8.04-.98-15.51,8.84-19.38,3.77-1.49,6.22-6.34,9.7-10.12Z"/>
      <path class="cls-5" d="M259.56,456.62c4.99,6.08,10.92,10.35,17.68,13.6,1.29.62,1.85,1.37,1.61,3.15-.64,4.65-.65,9.33.39,14.02.4,1.82,1.59,4.83-1.32,5.65-2.71.76-5.71.6-7.43-2.61-3.59-6.71-6.04-13.85-7.96-21.17-1.1-4.18-1.99-8.42-2.98-12.63Z"/>
      <path class="cls-1" d="M239.37,287.15c-32.1-.47-57.92-9.76-79.7-29.27-11.52-10.32-16.98-24.12-20.32-38.84-1.04-4.59-1.16-9.42-2.52-13.89-1.6-5.24,1.7-5.88,5.13-6.36,3.54-.5,6.56.35,6.5,4.89-.17,12.51,4.37,23.79,9.77,34.64,7.09,14.25,20.14,21.97,33.9,28.39,11.82,5.51,24.21,8.47,37.45,9.46,23.06,1.73,44.98-1.8,66.22-10.4,17.29-7,30.04-19.46,41.42-33.93,10.88-13.83,15.78-30.1,20.08-46.49,1.7-6.45,2.16-13.59,2.35-20.49.08-2.8.25-5.2,3.93-5.03,3.49.16,7.05.32,7.31,5.06.14,2.53.31,5.11-.03,7.61-2.67,19.77-7.29,38.99-18.22,56-17.24,26.85-41.06,44.8-72.36,52.32-5.72,1.38-11.37,3.26-17.17,4.07-8.84,1.23-17.79,1.73-23.75,2.27Z"/>
      <path class="cls-1" d="M251.62,148.92c13.6-.48,23.7,5.66,29.97,17.82,3.53,6.85,1.48,22.18-4.43,28.95-12.89,14.78-28.69,17.47-46.12,12.88-11.8-3.11-19.12-15.14-17.41-28.37,2.61-20.22,19.86-32.17,37.99-31.29Z"/>
      <path class="cls-1" d="M261.17,124.28c-.89-10.39,3.82-18.66,10.78-24.38,4.52-3.72,12.1-4.28,18.4-1.79,6.6,2.6,9.83,8.26,10.42,15.01.94,10.81-1.55,20.75-9.27,28.9-5.15,5.43-11.36,6.67-18.48,4.89-6.61-1.66-9.67-6.13-10.81-12.5-.63-3.49-1.37-6.94-1.03-10.12Z"/>
      <path class="cls-1" d="M240.97,108.1c-.13,10.3-2.3,17.34-6.24,23.77-6.35,10.36-18.52,11.12-27.92,5.47-3.96-2.38-3.56-6.69-3.82-10.45-.7-10.39,1.65-19.77,9.95-26.89,6.37-5.46,13.87-5.28,21.04-3.05,6.32,1.97,7.08,7.96,6.99,11.14Z"/>
      <path d="M191.89,463.12c-.34,2.49-1.24,4.55-3.95,4.56-1.89,0-3-1.29-2.96-3.36.05-2.62,1.36-4.22,3.91-4.39,2.13-.14,2.81,1.46,2.99,3.2Z"/>
      <path d="M201.2,460.74c2.7.03,3.38,1.44,3.2,3.36-.21,2.24-1.24,3.85-3.81,3.81-2.21-.03-2.94-1.45-2.83-3.35.13-2.37,1.54-3.61,3.44-3.83Z"/>
      <path d="M215.88,465.9c-2.75.26-3.54-1.2-3.64-2.98-.13-2.25,1.41-3.23,3.44-3.5,1.99-.27,3.31.65,3.4,2.66.11,2.46-1.61,3.41-3.2,3.82Z"/>
      <path d="M309.41,459.06c-2.17-.05-3.56-.95-3.49-3.33.08-2.63,1.12-4.7,3.92-5.04,2.28-.28,3.34,1.22,3.4,3.41.08,2.68-.87,4.61-3.83,4.96Z"/>
      <path d="M281.79,459.15c-2.07-.15-3.58-.89-3.43-3.31.18-2.87,2.39-3.42,4.59-3.59,2.09-.16,3.72.85,3.46,3.18-.29,2.55-2.23,3.51-4.61,3.71Z"/>
      <path d="M295.55,453.76c1.99.48,2.97,1.93,3.01,3.62.05,2.35-1.8,3.03-3.79,2.92-1.9-.11-2.45-1.59-2.25-3.2.22-1.77,1.18-3.06,3.03-3.34Z"/>
      <path class="cls-6" d="M224.53,184.59c1.39-17.24,11.41-30.55,31.97-27.48,9.94,1.48,17.58,12.8,15.65,22.88-3.99,20.86-24.58,25.09-40.24,18.43-5.7-2.43-7.77-7.68-7.38-13.82Z"/>
    </g>
  </g>
</svg>