<?xml version="1.0" encoding="UTF-8"?>
<svg id="Layer_1" data-name="Layer 1" xmlns="http://www.w3.org/2000/svg" viewBox="0 0 512 512">
  <defs>
    <style>
      .cls-1 {
        fill: #1c1c1c;
      }

      .cls-2 {
        fill: #171717;
      }

      .cls-3 {
        fill: #f4ce2d;
      }

      .cls-4 {
        fill: #080808;
      }

      .cls-5 {
        fill: #e0438c;
      }

      .cls-6 {
        fill: #0594d3;
      }
    </style>
  </defs>
  <g id="cq6xw9">
    <g>
      <path class="cls-1" d="M35.26,98.43c3.22-14.06,12.23-24.88,20.31-36.22,1.46-2.04,3.2-3.95,4.28-6.18,1.23-2.53,1.7-5.7,5.65-4.2,3.16,1.21,4.24,3.29,4.31,7.05.16,9.13,5.23,16.26,11.46,22.48,1.87,1.87,4.05,3.71,7.38,2.13,3.07-1.45,3.67-3.79,3.91-6.73.32-3.89.97-7.76,1.36-11.64,1.38-13.79,1.38-13.69,15.41-16.33,7.68-1.44,15.62-.91,23.15-3.42,2.3-.77,4.54-.07,6.02,1.85,1.89,2.45.72,4.67-.92,6.8-3.65,4.74-7.6,9.32-9.87,16.88,15.21-8.64,29.72-15.55,45.16-19.94,48.47-13.79,95.89-12.35,141.63,10.76,17.31,8.75,29.01,23.13,39.84,40.11,1.85-7.26.93-13.33.1-19.42-.79-5.74.63-8.54,7.34-6.39,9.81,3.15,19.83,5.66,29.79,8.33,6.13,1.65,7.45,4.98,4.39,10.54-4.27,7.77-8.28,15.68-12.86,24.39,6.23,1.44,11.48.13,16.04-1.64,12.9-5.01,26.41-9.42,34.5-22.09,1.41-2.21,2.83-4.15,6.03-2.72,3.17,1.42,3.53,3.55,3.05,6.78-1.34,9.07-2.17,18.22-3.36,27.32-3.85,29.46-30.24,45.1-57.87,33.74-7.99-3.29-8.93-.55-8.32,6.22.4,4.44.32,8.93.69,13.38.38,4.59,1.78,8.61-6.04,8.46-5.11-.1-.6,5.85-2.2,8.65-3.28,11.56-1.24,23.3-1.12,34.97.49-.07.97-.14,1.46-.21,2.75,4.75,8.2,3.37,12.2,5.32,2.58,1.26,5.96,1.21,7.6,3.99,4.72,8.02,12.92,11.29,20.34,15.85,4.03,2.48,5.8,1.35,8.03-1.68,3.12-4.24,4.97-9.97,9.82-12.22,5.48-2.55,9.46,3.37,14.55,4.58,23.31,5.54,45.55,14.48,68.02,22.65,5.17,1.88,6.98,8.66,4.16,15.63-1.95,4.81-4.06,9.56-6.09,14.34-2.15,2.72-3.66,5.76-4.59,9.1-7.78,12.42-16.3,24.41-22.23,37.91-1.79,1.49-2.53,3.5-2.86,5.72-1.45,2.7-2.89,5.39-4.33,8.08-16.53,29.16-35.86,56.38-57.31,82.1-7.13,8.55-13.53,7.93-19.65-1.69-17.66-27.75-35.33-55.5-53.12-83.18-2.49-3.87-4.19-6.98.25-10.78,4.94-4.23,4.97-7.01-.43-12.91-7.8-8.52-10.22-4.83-16.3,1.26-13.01,13.04-27.77,24.12-46.26,30.7,13.81,16.09,26.67,31.41,46.66,38.21,4.62,1.57,5.4,4.31,1.84,8.01-9.11,9.46-17.37,19.57-24.16,30.86-2.93,4.87-7.16,4.51-10.03-1.02-2.7-5.19-5.72-9.99-10.43-14.35-5.56,14.32-13.53,26.1-25.23,35.16-5.01,3.88-10.76,5.85-16.97,6.06-15.21.53-23.68-12.15-17.3-25.99,7-15.17,16.58-28.49,30.25-38.36,4.17-3.01,3.11-3.84.44-7.73-11.09-16.16-25.91-18.23-44.47-18.13-34.37.2-67.69-6.72-95.69-29.2-3.71-2.97-7.31-3.15-11.35-.03-15.89,12.28-31.73,24.61-45.68,39.14-3.09,3.22-6.22,6.43-7.57,10.89-.68,2.24-1.84,4.18-4.54,4.17-2.67,0-4.92-.9-5.87-3.73-2.88-8.55-7.22-16.29-12.89-23.29-2.8-3.46-1.77-6.04,1.6-8.32,4.3-2.91,8.53-5.92,13.44-9.34-8.96-6.22-18.13-10.95-25.82-17.74-9.2-8.13-15.45-17.43-13.65-30.62,1.31-9.62,7.04-16.59,15.13-19.49,8.82-3.16,18.28-.88,25.65,5.98,8.68,8.09,15.37,17.83,20.62,28.29,4.75,9.47,8.96,1.69,13.12.33,6.08-1.99,2.27-5.1.43-8.06-18.63-29.95-29.6-61.73-22.98-97.63.47-2.54,1.31-4.67-2.45-5.76-4.19-1.21-4.76,1.33-5.46,4.08-1.55,6.07-4.31,11.47-8.76,15.91-5.08,5.07-11.06,8.24-18.08,4.94-7.17-3.37-8.62-10.32-7.05-17.19,1.32-5.77,1.01-8.97-5.39-10.76-3.78-1.05-5.07-4.92-4.26-8.98.84-4.21,2.83-7.82,5.7-11,3.37-3.72,10.04-5.49,2.98-13.12-4.79-5.18,4.91-15.21,13.49-13.16,6.27,1.5,9.81,1.61,11.95-5.56,1.72-5.76,6.94-8.02,12.83-6.63,5.99,1.42,9.17,5.5,9.56,11.87.35,5.64-.48,11.1-1.54,16.58.15,2.98,2.52,3.42,4.53,3.19,2.6-.29,1.84-2.8,2.03-4.56,4.71-9.65,7.24-20.34,14.1-28.97,2.38-2.99.53-4.42-2.44-5.19-2.16-.56-4.32-1.16-6.4-1.95-7.84-2.98-8.35-4.98-3.37-11.49,1.82-2.38,3.22-5.07,5.5-8.73-17.87-.88-35.65-1.75-34.45-26.11ZM112.15,338.53c3.35,4.2,7.13,7.9,11.87,10.53,7.92,4.02,14.83,10.05,23.79,12.02,24.67,9.27,50.25,12,76.41,10.77,4.63-.22,9.01-3.57,13.84-1.05,6.22,6.67,12.27,13.51,18.7,19.96,8.18,8.2,14.99,7.14,21.2-2.89,2.32-3.75,2.8-7.11-1.84-9.49-2.17-4.77-6.66-7.59-9.7-11.63-.38-4.09,3.2-4.57,5.6-6.14,5.06-.79,10.31-1.1,14.03-5.39.99-.94,1.81-2.27,2.99-2.75,14.62-6.03,25.82-16.14,34.93-28.82,6.51-4.77,6.86-8.83-1.35-11.95-.75-.28-1.42-.75-2.13-1.13-6.28-5.26-6.19-12.03-4.44-19.13,1.24-5.01,4.98-8.65,7.41-13.01.19-1.41-1.31-3.54,1.54-3.82,2.36-.24,4.45.64,6.01,2.32,1.22,1.31-.07,2.44-.76,3.63-1.37,2.36-5.87,3.18-3.69,7.32-1.12,3.4-2.83,6.69-2.43,10.4.25,2.4.05,5.68,3.06,6.08,2.91.39,2.28-3.11,3.37-4.8,3.4-5.27,4.31-13.16,13.16-12.84.49.47.98.94,1.48,1.41,1.58,4.48.42,9.66,3.48,13.77,3.01,3.32,5.79,6.7,10.96,3.02,5.03-3.59,2.33-6.9.22-10.41-.78-3.12-7.01-5.07-3.17-8.81,3.46-3.36,6.35.99,9.16,2.99.89.64,1.91,1.09,2.88,1.63,11.22.06,14.94-3.15,12.34-10.66-1.95-5.54-7.29-4.92-11.51-6.25-2.36-.74-5.6-.85-5.21-4.12.39-3.25,3.65-2.81,6.05-2.78,3.75.05,7.2-.44,9.66-3.67,4.53-3.67,5.2-8.31,3.07-13.42-2.24-5.39-6.45-8.22-12.3-8.36-7.66-.19-14.9.8-19.93,7.6-5.13,6.93-10.17,14.47-18.7,3.55.5-3.18,3.43-3.57,5.59-4.84.65.45,1.74,1.4,1.88,1.28,9.45-8.36,22.98-14.06,19.26-30.87-1.07-4.83-.36-10.03-.87-15.02-1.93-18.81-2-18.77-20.08-23.61-4.23-1.13-9.17-1.74-8.83-8.02,5.03-4.57,9.01-9.98,12.6-15.71,1.51-2.17,3.87-3.96,3.23-7.49-3.68.2-7.25.38-10.83.57-19.7-2.67-39.19-5.97-55.5-18.69-10.63-7.57-19.17-17.07-26.05-28.12-2.03-3.88-4.06-7.76-6.08-11.64-1.33-5.82-2.65-11.63-4.1-17.96-3.61,2.56-6.23,5.59-8.12,9.29-19.72,17.71-41.05,32.76-66.85,40.43-5.06-.48-9.82.98-14.61,2.25-13.25.7-26.04-1.49-38.15-6.81-3.41-1.5-4.6-.96-6.36,2.12-5.24,9.13-11.34,17.8-12.84,28.61-.46,3.34-1.88,7.53-5.51,6.65-5.36-1.29-7.12,1.92-8.89,5.11-4.31,7.78-8.26,15.75-10.43,24.46-2.8,11.24-2.8,11.18-13.12,6.85-2.29-.96-4.77-1.55-7.22-2.01-3.02-.57-5.37-1.58-5.26-5.2,3.47-5.29,4.72-11.13,4.05-17.35-.25-2.36-.22-5.55-3.55-5.54-2.72.01-4.56,2.48-4.79,4.98-.45,4.92-.26,9.89-.33,14.85-4.82,2.64-6.46-.2-8.83-4.04-2.41-3.9-7.06-5.35-11.81-3.88-2.01.62-3.31,2.63-2.56,4.67,1.6,4.35,5.68,4.85,9.61,5.31,1.66.19,3.37.11,4.99.46,3.2.69,3.97,2.69,2.64,5.6-7.8,1.77-16.74.53-22.2,8.44-2.52,2.77-4.15,6.36-2.12,9.44,1.61,2.43,4.85,1.13,7.11-.71,1.57-1.27,3.14-2.55,4.71-3.82,3.8-.21,7.42-6.91,10.82-1.98,3.47,5.03-3.32,6.71-5.9,9.16-5.78,5.49-9.59,11.35-8.23,19.64.37,2.24.82,4.5,3.1,5.54,2.69,1.22,4.93-.18,6.7-2,5.65-5.82,8.83-12.68,8.34-20.98-.39-6.64,3.48-7.65,8.51-5.7,3.86,1.5,7.36,3.92,11.8,3.1,2.24.36,4.56.51,6.35,2.19-1.88,8.68-3.41,17.41-3.92,26.3-1.36,23.58,5.4,44.92,17.61,64.8,3.09,6.19,6.08,12.48,10.61,17.77,4.2,4.91,2.73,7.55-2.75,9.72-5.67,2.24-11.13,5.01-15.67,9.23,3.36,4.89,11.27,13.63,12.92,14,5.84,1.32,6.38-6.5,11.38-6.71.21,0,.4-.36.6-.56,5.61-3.5,10.36-9.16,18.15-7.08l-.23-.12ZM364.01,378.03c.2,6.61,4.81,10.94,8.21,15.89,5.55,12.14,14.48,22.11,21.46,33.35,10.09,16.26,13.44,16.02,23.64-.93.14-.23.16-.53.24-.79,1.12-1.23,2.24-2.46,3.36-3.69,1.88-2.76,3.53-5.72,5.69-8.24,3.12-3.66,3.07-6.81-.59-9.91.58-.6,1.17-1.2,1.75-1.8,2.09.18,3.93,4.02,5.78,1.62,4.71-6.1,11.71-11.12,11.01-20.21.71-.61,1.43-1.21,2.14-1.82,6.59-2.46,7.84-9.01,10.85-14.21.91-2.05,3.82-2.74,3.74-5.47,2.77-6.18,5.54-12.36,8.31-18.54,1.06-1.28,2.12-2.55,3.17-3.83,3.15-7.05,9.66-12.49,10.07-20.86.14-.94.29-1.88.43-2.82,7.6-2.85,10.06-8.82,9.95-16.35,3.08-1.97,7.67-2.7,6.62-8.06-.02-4.88,5.43-11.23-.79-14.37-15.53-7.82-31.74-14.22-49.37-15.82-2.62-2.01-3.74.64-5.36,1.72-4.45-2.84-8.91-5.69-13.36-8.53-2.46-1.57-5.03-3.04-7.22.23-2.59,3.87-6.8,6.66-7.75,11.62-.71.62-1.42,1.24-2.13,1.86-5.37,4.73-10.54,9.61-13.17,16.52-.53,1.3-1.07,2.59-1.6,3.89-12.85,6.97-14.24,13.03-4.93,21.36-.57.53-1.14,1.06-1.72,1.58q-10.36-6.4-17.39,3.63c-.95,1.36-1.58,2.93-2.36,4.4-1.21,1.09-2.43,2.18-3.64,3.27-3.21,6.21-10.05,9.94-11.73,17.19-.68.63-1.35,1.26-2.03,1.88-10.05,8-10.3,11.07-1.67,20.21,2.43,2.57,4.85,5.15,7.28,7.73-2.88,4.24,1.86,5.61,3.12,8.28ZM363.84,152.39c-3.28-4.46,2.16-5,3.35-7.45,2.36-1.84,5.29-2.77,7.15-5.44,4.77-6.82,2.07-15.06-5.98-16.61-6.61-1.27-11.74,1.71-15.7,6.99-3.74,4.98-2.1,9.27,1.48,13.39,1.25,2.61,3.14,4.85-.9,7.33-3.52,2.17-5.95,5.8-5.74,10.44q-7.88,11.97,6.73,15.56c1.89.46,3.85.66,5.7,1.24,4.51,1.42,5.4-.95,5.18-4.68-.43-6.92-.84-13.85-1.26-20.77ZM24.91,297.99c-12.77-.27-20.37,14.68-13.79,27.15,7.34,13.9,20.64,20.6,33.53,27.83,2.55,1.43,6.5,1.57,6.8,5.36.32,4.09-3.5,5.3-6.22,7.06-12.96,8.38-12.82,8.25-4.82,21.17,2.4,3.88,3.93,3.56,6.81.72,7.55-7.41,14.83-15.26,23.2-21.64,6.37-4.85,5.7-8.14.74-12.95-4.76-4.61-11.23-8.85-13.27-14.56-4.72-13.23-12.71-23.93-21.45-34.36-2.95-3.52-6.61-6.01-11.54-5.76ZM239.73,462.18c5.66.01,10.1-2.82,14.22-6.27,10.23-8.54,15.39-20.31,20.25-32.24,1.45-3.55,1.96-7.97,6.99-8.3,4.44-.29,4.84,3.87,6.58,6.55q8.81,13.63,18.95,1.26c2.48-3.02,4.96-6.03,7.52-8.98,2.09-2.4,2.29-4.18-1.05-5.67-8.27-3.67-15.21-9.33-21.87-15.28-2.93-2.62-4.77-2.58-7.62.09-6.53,6.12-14.24,10.56-21.85,15.28-14.61,9.07-24.75,22.47-31.22,38.28-3.63,8.89.67,15.24,9.1,15.25ZM362.52,99.52c0,2.23.04,4.46,0,6.68-.09,4.24-1.76,8.6,5,10.23,5.91,1.42,8.18-1.31,10.36-5.55,2.16-4.21,4.02-8.63,6.65-12.54,4.12-6.13,2.51-8.76-4.33-10.93-17.16-5.42-17.07-5.71-17.67,12.1ZM124.94,55.25c-6.9-.88-12.72,1.18-18.63,2.43-2.04.43-3.69,1.34-3.89,3.68-.43,4.98-.89,9.97-1.21,14.96-.27,4.13,3.3,4.58,5.91,5.94,2.27,1.19,3.78.15,4.83-1.72,4.56-8.16,9.54-16.11,13-25.3ZM97.97,119.21c-.1-2.95-2.23-2.14-3.68-2.39-9.4-1.61-12.06,6.57-16.47,11.76-8.37,9.87-7.76,10.96,4.89,14.01,3.35.81,5.51.58,6.06-3.18.84-5.7,4.46-10.14,6.74-15.18.8-1.77,1.71-3.49,2.46-5.02ZM85.69,99.77c-.15,7.25,2.37,9.94,7.41,10.12,6.63.25,13.7-6.82,13.91-14.03.14-4.82-1.54-7.92-7.24-7.64-7.28.36-14.03,6.68-14.08,11.54ZM351.76,315.28c4,8.03,6.96,9.45,10.92,4.77,6.25-7.38,12.07-15.12,18.08-22.7-3.35.99-8.8-1.6-9.42,2.62-1.72,11.87-10.23,13.86-19.59,15.31ZM337.85,303.55c-1.2,4.93-.86,9.58.51,14.2,1.78,6.02,4.22,11.56,10.42,14.41,1.59.73,3.19,1.32,4.53-.28.79-.94.8-2.25-.24-2.96-8.06-5.46-11.41-13.22-11.61-22.72-.02-1.06-.99-2.61-3.61-2.66ZM382.67,269.85c3.03,3.4,5.34,6.01,7.65,8.61,1.18,1.33,2.05,3.71,4.32,1.18,1.62-1.8,2.55-3.65.55-5.73-3.06-3.17-6.98-3.99-12.52-4.07ZM404.53,268.32c-2.34-4.84-5.52-7.21-9.54-8.66-1.45-.52-2.86-.37-3.61,1.05-.78,1.48-.14,2.9,1.39,3.3,3.69.96,6.22,4.75,11.77,4.31Z"/>
      <path d="M91.31,374.55c3.54,8.39-1.13,19.06-11.25,25.31,4.72-8.01,10.14-15.73,11.25-25.31Z"/>
      <path d="M100.55,382.35c2.04,9.06-2.75,15.23-8.83,20.87,1.48-7.54,7.14-13.42,8.83-20.87Z"/>
      <path class="cls-2" d="M342.72,400.51c6.56,3.71,7.32,11.23,1.77,20.44-.61-7.56,2.62-14.45-1.77-20.44Z"/>
      <path class="cls-4" d="M365.95,232.15c-.49.07-.97.14-1.46.21-.12-11.67-2.16-23.4,1.12-34.97,2.56,11.56.6,23.17.34,34.76Z"/>
      <path class="cls-3" d="M332.21,252.2c8.53,10.93,13.57,3.39,18.7-3.55,5.03-6.8,12.27-7.79,19.93-7.6,5.85.14,10.06,2.97,12.3,8.36,2.12,5.11,1.46,9.75-3.08,13.42-3.83.52-7.65,1.21-11.5,1.52-3.05.25-5.57.9-6.05,4.41-.46,3.38,1.57,5.25,4.39,6.25,4.68,1.67,9.44,3.1,14.17,4.63,2.59,7.5-1.13,10.72-12.34,10.66-1.73-5.55-5.54-7.89-11.26-7.39-2.41.21-4.79,1.03-4.75,3.62.08,4.41,3.2,6.69,7.14,7.96,2.11,3.51,4.81,6.82-.22,10.41-5.16,3.68-7.95.31-10.95-3.02-.71-4.7,3.14-10.56-3.48-13.77-.49-.47-.98-.94-1.48-1.41-2.86-3.89-5.34-1.77-8.19.22-1.93,1.34-1.97,7.06-5.3,4.03-3.16-2.87,1.87-4.74,3.4-6.95,1.08-1.55,2.82-2.66,3.88-4.22,2.23-3.26,1.48-5.65-2.53-6.67l.15.22c-.26-1.53-1.34-2.62-2.67-2.76-8.99-.89-17.44-4.05-26.17-6.01-2.17-.49-5.16-.92-5.89,2.66-1.19,4.82,1.25,6.51,5.65,7.27,5.85,1.01,11.61,2.58,17.41,3.91-2.43,4.36-6.17,7.99-7.41,13.01-1.76,7.11-1.85,13.87,4.44,19.14,1.86,4.17,7.5,7.34,3.48,13.07-9.11,12.68-20.32,22.79-34.93,28.82-1.17.49-2,1.81-2.99,2.75-4.98,1.01-10.31,1.09-14.03,5.39-2.4,1.56-5.98,2.04-5.6,6.14-.32,6.85,5.18,8.83,9.7,11.63,4.64,2.39,4.16,5.74,1.84,9.49-6.21,10.03-13.01,11.09-21.2,2.89-6.44-6.45-12.48-13.29-18.7-19.96-.94-4.14-3.68-4.82-6.9-2.98-4.41,2.51-9.09,2.18-13.82,2.25-21.28.31-42.06-2.82-62.39-9.06-2.47-.76-4.77-1.63-7.14.07-8.96-1.97-15.86-8-23.79-12.02-2.58-5.07-5.71-9.5-11.87-10.53,0,0,.23.12.22.12-7.93-3.98-12.92-2.03-18.14,7.08-.2.19-.39.55-.6.56-5.01.21-5.54,8.03-11.38,6.71-1.64-.37-9.56-9.11-12.92-14,4.54-4.22,10-6.99,15.67-9.23,5.48-2.17,6.95-4.82,2.75-9.72-4.52-5.29-7.51-11.58-10.61-17.77-.57-2.12-.79-4.41-1.75-6.33-12.66-25.47-17.48-51.91-10.22-79.92.49-1.89.84-3.94-1.71-4.85-1.79-1.69-4.11-1.83-6.35-2.19-.2-1.9-1.35-2.58-3.11-3.29-7.2-2.94-15.48-2.11-21.89-8.59-3.98-4.03-8.73-.67-10.14,5.12-1.57,1.27-3.14,2.55-4.71,3.82-7.85.63-3.14-5.93-4.99-8.73,5.46-7.91,14.41-6.66,22.21-8.44,3.21-1.12,3.19-5.14,5.96-6.65,1.11-.54,2.21-1.08,3.32-1.61l-.02-.02c.44,1.08.88,2.16,1.32,3.24-.11,3.62,2.23,4.63,5.26,5.2,2.45.46,4.93,1.06,7.22,2.01,10.32,4.33,10.32,4.39,13.12-6.85,2.17-8.71,6.13-16.69,10.43-24.46,1.77-3.19,3.53-6.4,8.89-5.11,3.64.87,5.05-3.32,5.51-6.65,1.49-10.81,7.6-19.48,12.84-28.61,1.77-3.08,2.96-3.61,6.36-2.12,12.11,5.32,24.91,7.5,38.15,6.81,5.27,1.85,10.05.48,14.61-2.25,25.79-7.68,47.12-22.72,66.84-40.43,2.89.47,3.74-4.1,7.19-2.93-.2,4.35.5,8.37,3.59,11.6,1.37,4.62,1.94,9.75,7.53,11.64,6.88,11.04,15.42,20.55,26.05,28.11.65,3.01,3.13,4.24,5.4,5.85,13.01,9.22,27.66,12.87,43.36,13.16,2.75,2.89,6.33,1.6,9.47,1.5,4.27-.13,4.59,1.75,3.61,4.99-4.68,4.62-9.83,8.91-11.33,15.82-.34,6.28,4.6,6.89,8.83,8.02,18.07,4.85,18.14,4.8,20.08,23.61.51,4.99-.2,10.19.87,15.02,3.73,16.8-9.81,22.5-19.26,30.87-.14.12-1.23-.83-1.88-1.28-.77-.76-1.53-1.52-2.3-2.28-5.1-8.22-9.07-9.59-16.8-5.78-.93,1.51-.91,2.7.23,4.37,3.26,4.81,8.58,6.12,13.28,8.52ZM171.62,137.16c-5.94,5.48-7.5,14.01-3.55,19.43,2.74,4.57,3.8,10.97,11.16,10.58,7.34-.38,13.27-3.15,16.38-10.32,3.74-1.33,4.45-4.94,5.33-7.98,2.23-7.7-3.02-17.9-9.89-20.02-8.92-2.75-16.91.74-19.55,8.52l.11-.22ZM114.28,268.7c1.4,5.2,3.23,9.94,9.97,9.6,11.92,8.04,24.89,13.81,38.66,17.8-.57.42-1.14.83-1.71,1.25.15.17.27.46.45.5,11.71,2.39,23.55,2.55,35.34,1.17,6.14-.72,10.11-3.31,12.65-6.22,7.63-3.71,14.24-9.41,22.62-11.69,10.08-4.21,18.54-10.19,22.67-20.87,5.72-5.44,9.09-12.38,11.92-19.53,2.87-7.25,1.72-8.47-6.52-8.1-4.9,3.47-5.64,8.95-6.83,14.2-28.33,41.5-76.41,58-120.96,26.94-4.61-7.56-11.09-13.42-17.51-19.34-.33-.85-.66-1.69-.98-2.54.3-2.56-.38-4.91-1.21-7.32-4.15-12.09-4.75-24.39-1.76-36.84,1.03-4.28,3.5-8.22,3-12.86.07-2.56,2.21-5.73-1.68-7.19-3.98-1.5-5.5,1.61-6.83,4.36-1.69,3.48-3.07,7.11-4.58,10.68-2.76-1.6-2.69,1.26-2.94,2.28-3.41,13.64-2.97,27.21,1.18,40.64,1.15,3.72,1.5,3.99,5.02,7.02,3.35,5.36,6.7,10.71,10.05,16.07ZM225.37,163.76c-.08,9.21,4.51,15.49,11.42,15.65,9.26.21,19.81-11.83,19.67-22.45-.11-8.46-5.84-14.21-14.27-14.33-9.73-.13-16.71,8.63-16.82,21.13Z"/>
      <path class="cls-5" d="M24.9,298c4.93-.26,8.59,2.23,11.54,5.75,8.74,10.44,16.73,21.13,21.45,34.36,2.04,5.72,8.52,9.96,13.27,14.56,4.96,4.81,5.63,8.09-.74,12.95-8.37,6.38-15.65,14.23-23.2,21.64-2.89,2.83-4.41,3.16-6.81-.72-8-12.91-8.14-12.79,4.82-21.17,2.72-1.76,6.54-2.96,6.22-7.06-.3-3.8-4.25-3.93-6.8-5.36-12.89-7.22-26.19-13.93-33.53-27.83-6.58-12.46,1.02-27.41,13.78-27.14Z"/>
      <path class="cls-5" d="M239.73,462.18c-8.42-.02-12.73-6.37-9.1-15.25,6.47-15.81,16.61-29.21,31.22-38.28,7.61-4.72,15.32-9.16,21.85-15.28,2.85-2.67,4.69-2.71,7.62-.09,6.66,5.95,13.6,11.62,21.87,15.28,3.35,1.48,3.14,3.27,1.05,5.67-2.56,2.95-5.04,5.96-7.52,8.98q-10.13,12.35-18.95-1.26c-1.73-2.68-2.13-6.84-6.58-6.55-5.03.32-5.54,4.74-6.99,8.3-4.86,11.93-10.01,23.69-20.25,32.24-4.12,3.44-8.56,6.28-14.22,6.27Z"/>
      <path class="cls-5" d="M357.3,339.92c1.68-7.25,8.52-10.98,11.73-17.19,7,1.87,11.7,7.21,16.96,11.56,19.63,16.21,39.05,32.67,58.55,49.03.71,9.09-6.3,14.11-11.01,20.21-1.85,2.39-3.69-1.45-5.78-1.62-23.49-20.66-46.97-41.32-70.46-61.98Z"/>
      <path class="cls-6" d="M482.83,318.6c-.41,8.38-6.92,13.81-10.07,20.86-1.29-.42-2.81-.54-3.84-1.31-17.42-12.98-34.86-25.95-52.1-39.16-5.71-4.38-11.78-8.46-16.15-14.4,2.63-6.91,7.8-11.8,13.18-16.52,23,16.84,45.99,33.69,68.99,50.53Z"/>
      <path class="cls-5" d="M469.59,343.29c-2.77,6.18-5.54,12.36-8.31,18.54-4.08,2.66-5.98-1.04-8.37-2.97-19.87-16-38.17-33.88-58.76-49.01-9.32-8.34-7.92-14.39,4.93-21.36,2.28,2.02,4.47,4.15,6.86,6.03,21.01,16.53,43.23,31.49,63.66,48.77Z"/>
      <path class="cls-6" d="M426.01,403.7c3.65,3.1,3.71,6.25.59,9.91-2.16,2.53-3.81,5.48-5.68,8.24-5.13-1.1-8.73-4.71-12.35-8.01-15.99-14.6-31.8-29.38-47.68-44.1-2.43-2.58-4.84-5.16-7.28-7.73-8.64-9.14-8.39-12.2,1.67-20.21,23.58,20.63,47.16,41.27,70.74,61.9Z"/>
      <path class="cls-6" d="M372.68,319.46c.78-1.47,1.41-3.04,2.36-4.4q7.01-10.05,17.39-3.63c21.7,18.62,43.41,37.24,65.11,55.87-3.01,5.2-4.25,11.75-10.85,14.21-24.67-20.68-49.34-41.36-74.01-62.04Z"/>
      <path class="cls-5" d="M493.21,299.42c.11,7.54-2.36,13.51-9.95,16.36-22.04-17.04-44.06-34.12-67.28-49.56.95-4.96,5.16-7.76,7.75-11.62,2.19-3.26,4.75-1.8,7.22-.23,4.45,2.85,8.91,5.69,13.36,8.53,16.07,12.48,31.74,25.51,48.9,36.53Z"/>
      <path class="cls-5" d="M417.56,425.54c-.08.27-.1.56-.24.79-10.2,16.95-13.55,17.18-23.64.93-6.97-11.24-15.91-21.2-21.46-33.35-.98-10.71,4.79.21,6.45-2.01,12.96,11.21,25.92,22.42,38.88,33.64Z"/>
      <path class="cls-6" d="M449.67,261.17c17.63,1.6,33.84,8,49.37,15.82,6.22,3.13.77,9.49.79,14.37-2.48,5.38-5.71,5.73-10.31,2.11-8.53-6.7-17.66-12.69-25.91-19.71-4.74-4.04-10.91-6.64-13.94-12.58Z"/>
      <path class="cls-6" d="M362.52,99.52c.61-17.81.52-17.52,17.67-12.1,6.85,2.16,8.45,4.8,4.33,10.93-2.62,3.9-4.48,8.33-6.65,12.54-2.18,4.24-4.45,6.97-10.36,5.55-6.76-1.63-5.09-5.99-5-10.23.05-2.23,0-4.45,0-6.68Z"/>
      <path class="cls-3" d="M21.97,202.22c1.41-5.79,6.16-9.15,10.14-5.12,6.41,6.48,14.69,5.65,21.89,8.59,1.75.71,2.9,1.4,3.11,3.29-4.43.82-7.93-1.6-11.8-3.1-5.03-1.95-8.9-.94-8.51,5.7.48,8.31-2.7,15.16-8.34,20.98-1.77,1.82-4,3.22-6.7,2-2.28-1.03-2.73-3.29-3.1-5.54-1.36-8.29,2.45-14.14,8.23-19.64,2.58-2.45,9.37-4.13,5.9-9.16-3.4-4.93-7.02,1.77-10.82,1.98Z"/>
      <path class="cls-6" d="M354.14,143.27c-3.57-4.12-5.21-8.41-1.48-13.39,3.96-5.28,9.09-8.26,15.7-6.99,8.06,1.55,10.75,9.79,5.98,16.61-1.87,2.67-4.79,3.6-7.15,5.44-4.52.75-8.89.4-13.05-1.67Z"/>
      <path class="cls-6" d="M363.84,152.39c.42,6.92.84,13.85,1.26,20.77.23,3.73-.67,6.1-5.18,4.68-1.85-.58-3.81-.77-5.7-1.24q-14.61-3.58-6.73-15.56c4.07-5.49,7.96-11.31,16.34-8.66Z"/>
      <path class="cls-6" d="M124.94,55.25c-3.46,9.19-8.44,17.14-13,25.3-1.04,1.87-2.56,2.9-4.83,1.72-2.61-1.36-6.19-1.81-5.91-5.94.33-4.99.78-9.97,1.21-14.96.2-2.35,1.85-3.25,3.89-3.68,5.92-1.25,11.74-3.31,18.63-2.43Z"/>
      <path class="cls-6" d="M97.97,119.21c-.75,1.53-1.66,3.25-2.46,5.02-2.28,5.04-5.9,9.48-6.74,15.18-.55,3.76-2.71,3.98-6.06,3.18-12.65-3.04-13.26-4.14-4.89-14.01,4.4-5.19,7.07-13.37,16.47-11.76,1.45.25,3.58-.57,3.68,2.39Z"/>
      <path class="cls-6" d="M85.69,99.77c.05-4.86,6.8-11.18,14.08-11.54,5.7-.29,7.38,2.82,7.24,7.64-.22,7.2-7.28,14.27-13.91,14.03-5.04-.19-7.56-2.87-7.41-10.12Z"/>
      <path d="M372.68,319.46c24.67,20.68,49.34,41.36,74.01,62.05-.71.6-1.43,1.21-2.14,1.82-19.5-16.37-38.92-32.83-58.55-49.03-5.26-4.34-9.96-9.69-16.96-11.56,1.22-1.09,2.43-2.18,3.65-3.27Z"/>
      <path d="M426.01,403.7c-23.58-20.63-47.16-41.27-70.74-61.9.68-.63,1.35-1.25,2.03-1.88,23.49,20.66,46.97,41.32,70.46,61.98-.58.6-1.17,1.2-1.75,1.8Z"/>
      <path d="M469.59,343.29c-20.44-17.28-42.65-32.24-63.66-48.77-2.39-1.88-4.58-4.01-6.86-6.03.53-1.3,1.07-2.59,1.6-3.89,4.37,5.93,10.44,10.02,16.15,14.4,17.24,13.21,34.68,26.17,52.1,39.16,1.03.77,2.55.89,3.84,1.31-1.06,1.28-2.12,2.55-3.18,3.83Z"/>
      <path d="M457.54,367.3c-21.7-18.62-43.41-37.24-65.11-55.87.57-.53,1.14-1.06,1.71-1.58,20.59,15.14,38.89,33.01,58.76,49.01,2.4,1.93,4.3,5.63,8.37,2.97.08,2.73-2.83,3.42-3.74,5.47Z"/>
      <path d="M415.98,266.21c23.22,15.44,45.24,32.52,67.28,49.56-.14.94-.29,1.88-.43,2.82-23-16.84-45.99-33.69-68.99-50.53.71-.62,1.42-1.24,2.13-1.86Z"/>
      <path d="M417.56,425.54c-12.96-11.21-25.92-22.43-38.88-33.64-4.04-5.52-8.52-10.58-14.67-13.87-1.26-2.68-6.01-4.04-3.12-8.29,15.88,14.72,31.69,29.5,47.68,44.1,3.62,3.3,7.22,6.91,12.35,8.01-1.12,1.23-2.24,2.46-3.36,3.69Z"/>
      <path d="M449.67,261.17c3.04,5.95,9.2,8.55,13.94,12.58,8.25,7.03,17.37,13.01,25.91,19.71,4.6,3.62,7.83,3.27,10.31-2.11,1.05,5.36-3.54,6.09-6.62,8.07-17.17-11.02-32.83-24.05-48.9-36.53,1.62-1.09,2.74-3.74,5.36-1.72Z"/>
      <path d="M323.46,278.44c-5.8-1.33-11.56-2.9-17.41-3.91-4.41-.76-6.84-2.45-5.65-7.27,12.01-.43,22.8,6.1,34.73,6.1,0,0-.15-.22-.14-.22,1.37,3.02,1.29,5.51-1.68,7.82-2.52,1.96-4.52,4.59-6.74,6.93-2.17-4.14,2.32-4.96,3.69-7.32.69-1.19,1.98-2.32.76-3.63-1.56-1.68-3.65-2.56-6.01-2.32-2.85.29-1.34,2.42-1.53,3.83Z"/>
      <path class="cls-3" d="M63.47,211.17c2.56.91,2.2,2.97,1.71,4.85-7.26,28.01-2.45,54.45,10.22,79.92.96,1.92,1.18,4.21,1.75,6.33-12.2-19.88-18.97-41.22-17.6-64.8.51-8.9,2.05-17.62,3.92-26.3Z"/>
      <path class="cls-3" d="M147.81,361.08c2.37-1.7,4.67-.83,7.14-.07,20.32,6.24,41.1,9.37,62.39,9.06,4.73-.07,9.41.26,13.82-2.25,3.23-1.84,5.96-1.16,6.9,2.98-4.82-2.52-9.21.83-13.84,1.05-26.16,1.23-51.74-1.5-76.41-10.77Z"/>
      <path class="cls-3" d="M326.56,287.89c2.23-2.33,4.23-4.96,6.74-6.93,2.97-2.31,3.05-4.8,1.68-7.82,4.01,1.02,4.76,3.4,2.53,6.67-1.07,1.56-2.8,2.66-3.88,4.22-1.54,2.2-6.56,4.07-3.4,6.95,3.33,3.04,3.38-2.68,5.3-4.03,2.85-1.99,5.33-4.11,8.19-.22-8.86-.31-9.77,7.57-13.17,12.84-1.09,1.69-.46,5.19-3.37,4.8-3-.4-2.8-3.68-3.06-6.08-.39-3.72,1.32-7.01,2.43-10.4Z"/>
      <path class="cls-6" d="M337.85,303.55c2.62.05,3.59,1.6,3.61,2.66.2,9.5,3.55,17.26,11.61,22.72,1.04.7,1.02,2.02.24,2.96-1.34,1.6-2.94,1.01-4.53.28-6.2-2.84-8.63-8.39-10.42-14.41-1.37-4.62-1.71-9.27-.51-14.2Z"/>
      <path class="cls-3" d="M40.44,182.22c-2.77,1.51-2.75,5.53-5.96,6.65,1.33-2.91.55-4.92-2.64-5.6-1.62-.35-3.33-.26-4.99-.46-3.93-.46-8.01-.96-9.61-5.31-.75-2.04.55-4.05,2.56-4.67,4.75-1.47,9.41-.02,11.81,3.88,2.37,3.84,4,6.68,8.83,4.04,0,.49,0,.97,0,1.46Z"/>
      <path d="M335.49,245.08c.77.76,1.54,1.52,2.3,2.28-2.15,1.28-5.08,1.66-5.59,4.84-4.7-2.4-10.02-3.72-13.29-8.52-1.14-1.67-1.15-2.86-.23-4.37,6.76-1.46,11.64,2.57,16.8,5.78Z"/>
      <path class="cls-3" d="M327.4,148.81c-15.7-.29-30.35-3.94-43.36-13.16-2.27-1.61-4.74-2.84-5.4-5.85,16.32,12.72,35.8,16.02,55.51,18.69-2.25.11-4.5.22-6.75.32Z"/>
      <path class="cls-3" d="M40.44,182.22c0-.49,0-.97,0-1.45.07-4.95-.12-9.93.33-14.85.23-2.49,2.07-4.97,4.79-4.98,3.33-.02,3.29,3.18,3.55,5.54.66,6.22-.59,12.06-4.05,17.35-.44-1.08-.88-2.16-1.31-3.24,3.44-4.89,4.45-10.04,1.45-17.93-2.31,7.33-1.16,12.72-1.43,17.95-1.11.54-2.21,1.07-3.32,1.61Z"/>
      <path d="M363.84,152.39c-8.38-2.65-12.27,3.17-16.34,8.66-.21-4.65,2.23-8.27,5.74-10.44,4.03-2.49,2.14-4.72.9-7.33,4.16,2.07,8.53,2.42,13.05,1.67-1.19,2.45-6.64,2.98-3.35,7.45Z"/>
      <path class="cls-3" d="M381.07,279.66c-4.73-1.53-9.49-2.97-14.17-4.63-2.81-1-4.85-2.88-4.39-6.25.48-3.51,2.99-4.17,6.05-4.41,3.85-.31,7.67-1,11.5-1.52-2.46,3.23-5.91,3.72-9.66,3.67-2.4-.03-5.67-.47-6.05,2.78-.39,3.27,2.85,3.38,5.21,4.12,4.22,1.33,9.56.71,11.51,6.25Z"/>
      <path class="cls-5" d="M364.01,378.03c6.15,3.3,10.63,8.35,14.67,13.87-1.67,2.23-7.44-8.7-6.45,2.01-3.41-4.95-8.01-9.28-8.21-15.89Z"/>
      <path class="cls-6" d="M404.53,268.32c-5.55.45-8.07-3.35-11.77-4.31-1.52-.39-2.17-1.82-1.39-3.3.75-1.42,2.16-1.58,3.61-1.05,4.02,1.44,7.2,3.82,9.54,8.66Z"/>
      <path class="cls-3" d="M245.07,90.04c-3.09-3.23-3.79-7.25-3.59-11.6-3.45-1.17-4.3,3.41-7.19,2.93,1.9-3.71,4.52-6.73,8.12-9.29,1.44,6.33,2.77,12.15,4.1,17.96-.48,0-.96,0-1.45,0Z"/>
      <path class="cls-3" d="M359.86,294.51c-3.93-1.27-7.06-3.55-7.14-7.96-.05-2.59,2.34-3.41,4.75-3.62,5.72-.5,9.53,1.84,11.26,7.39-.96-.54-1.99-.99-2.88-1.63-2.81-2-5.7-6.34-9.16-2.99-3.84,3.73,2.39,5.69,3.17,8.81Z"/>
      <path class="cls-3" d="M329.15,171.11c1.5-6.91,6.65-11.19,11.33-15.82.42.02.85.06,1.27.1-3.58,5.73-7.57,11.14-12.6,15.71Z"/>
      <path class="cls-3" d="M341.75,155.4c-.42-.05-.84-.08-1.27-.1.98-3.24.66-5.12-3.61-4.99-3.14.1-6.72,1.39-9.47-1.5,2.25-.11,4.5-.21,6.75-.32,3.57-.19,7.15-.38,10.82-.58.65,3.53-1.71,5.32-3.23,7.49Z"/>
      <path class="cls-3" d="M94.23,345.73c5.23-9.11,10.21-11.06,18.14-7.08-7.78-2.08-12.54,3.58-18.14,7.08Z"/>
      <path class="cls-3" d="M323.97,323.65c4.02-5.73-1.62-8.9-3.48-13.07.71.38,1.39.84,2.13,1.13,8.21,3.12,7.86,7.18,1.35,11.95Z"/>
      <path class="cls-3" d="M112.15,338.53c6.15,1.03,9.29,5.47,11.87,10.53-4.74-2.63-8.52-6.34-11.87-10.53Z"/>
      <path class="cls-3" d="M12.28,197.31c1.85,2.8-2.86,9.36,4.99,8.73-2.26,1.84-5.5,3.15-7.11.71-2.04-3.08-.4-6.67,2.12-9.44Z"/>
      <path class="cls-3" d="M276.13,378.38c-4.52-2.8-10.03-4.78-9.7-11.63,3.04,4.04,7.54,6.86,9.7,11.63Z"/>
      <path class="cls-3" d="M345.2,288.13c6.62,3.21,2.77,9.06,3.48,13.77-3.06-4.11-1.9-9.28-3.48-13.77Z"/>
      <path class="cls-3" d="M272.02,360.61c3.72-4.3,9.05-4.38,14.03-5.39-3.72,4.29-8.97,4.59-14.03,5.39Z"/>
      <path class="cls-3" d="M167.45,121.8c-4.56,2.73-9.34,4.1-14.61,2.25,4.79-1.27,9.55-2.73,14.61-2.25Z"/>
      <path class="cls-3" d="M245.07,90.04c.48,0,.96,0,1.45,0,2.03,3.88,4.06,7.76,6.08,11.64-5.59-1.89-6.16-7.02-7.53-11.64Z"/>
      <path d="M114.03,251.87c.33.85.66,1.69.99,2.54,4.11,8.01,9.62,14.75,17.51,19.34,44.55,31.06,92.63,14.56,120.96-26.95,4.44-3.69,4.74-9.38,6.83-14.2,8.24-.37,9.39.85,6.52,8.1-2.83,7.15-6.2,14.09-11.92,19.53-7.56,6.96-15.11,13.91-22.67,20.86-8.37,2.28-14.98,7.98-22.62,11.69-15.23,6.01-30.93,5.4-46.73,3.32-13.78-4-26.75-9.77-38.67-17.81-3.32-3.2-6.65-6.4-9.97-9.6-3.35-5.36-6.7-10.71-10.05-16.07-6.21-16.31-7.83-32.92-3.25-49.93,1.51-3.57,2.89-7.2,4.58-10.68,1.33-2.75,2.85-5.86,6.83-4.36,3.89,1.46,1.75,4.63,1.68,7.19-9.93,19-9.79,38.01-.02,57.02Z"/>
      <path class="cls-1" d="M195.61,156.86c-3.11,7.16-9.04,9.93-16.38,10.32-7.36.38-8.42-6.01-11.16-10.58-.4-6.77,1.06-13.19,3.55-19.43,0,0-.11.22-.11.22,7.3-7.28,14.79-9.04,21.12-4.97,6.48,4.16,7.92,11.68,4.09,21.34-.4,1.02-.74,2.07-1.11,3.11Z"/>
      <path d="M225.37,163.76c.11-12.49,7.09-21.26,16.82-21.13,8.43.12,14.15,5.87,14.27,14.33.14,10.62-10.41,22.67-19.67,22.45-6.91-.16-11.5-6.45-11.42-15.65Z"/>
      <path class="cls-3" d="M100.97,202.7c-4.58,17.01-2.95,33.62,3.25,49.93-3.52-3.02-3.87-3.29-5.02-7.02-4.15-13.43-4.59-27-1.18-40.64.25-1.02.18-3.88,2.94-2.28Z"/>
      <path class="cls-3" d="M114.03,251.87c-9.77-19.01-9.9-38.01.03-57.02.51,4.64-1.97,8.58-3,12.86-2.98,12.45-2.39,24.74,1.76,36.84.83,2.4,1.5,4.76,1.21,7.32Z"/>
      <path class="cls-3" d="M195.61,156.86c.37-1.04.71-2.09,1.11-3.11,3.83-9.66,2.39-17.18-4.09-21.34-6.34-4.07-13.83-2.31-21.12,4.97,2.64-7.79,10.63-11.27,19.55-8.52,6.86,2.12,12.12,12.32,9.89,20.02-.88,3.04-1.6,6.65-5.33,7.98Z"/>
      <path class="cls-3" d="M162.91,296.11c15.8,2.09,31.5,2.7,46.73-3.32-2.54,2.91-6.51,5.5-12.65,6.22-11.79,1.38-23.63,1.22-35.34-1.17-.18-.04-.3-.32-.45-.5.57-.42,1.14-.83,1.71-1.25Z"/>
      <path class="cls-3" d="M335.13,273.36c-11.94,0-22.72-6.53-34.73-6.1.73-3.58,3.72-3.15,5.89-2.66,8.73,1.96,17.18,5.11,26.17,6.01,1.34.13,2.41,1.22,2.67,2.76Z"/>
      <path class="cls-3" d="M232.26,281.1c7.55-6.95,15.11-13.91,22.67-20.86-4.13,10.68-12.59,16.65-22.67,20.86Z"/>
      <path class="cls-3" d="M132.53,273.75c-7.89-4.59-13.4-11.33-17.51-19.34,6.42,5.92,12.9,11.78,17.51,19.34Z"/>
      <path class="cls-3" d="M171.62,137.16c-2.48,6.24-3.95,12.67-3.55,19.43-3.95-5.42-2.4-13.96,3.55-19.43Z"/>
      <path class="cls-3" d="M335.49,245.08c-5.16-3.21-10.03-7.23-16.8-5.78,7.72-3.81,11.7-2.45,16.8,5.78Z"/>
      <path class="cls-3" d="M114.28,268.7c3.32,3.2,6.65,6.4,9.97,9.6-6.74.35-8.57-4.4-9.97-9.6Z"/>
      <path class="cls-3" d="M260.32,232.6c-2.09,4.82-2.39,10.51-6.83,14.2,1.19-5.25,1.93-10.73,6.83-14.2Z"/>
      <path class="cls-3" d="M43.77,180.61c.27-5.23-.88-10.62,1.43-17.95,3,7.9,1.99,13.05-1.45,17.93,0,0,.02.02.02.02Z"/>
    </g>
  </g>
</svg>