<?xml version="1.0" encoding="UTF-8"?>
<svg id="Layer_1" data-name="Layer 1" xmlns="http://www.w3.org/2000/svg" viewBox="0 0 512 512">
  <defs>
    <style>
      .cls-1 {
        fill: #0c4a94;
      }

      .cls-2 {
        fill: #1c1c1c;
      }

      .cls-3 {
        fill: #dc0814;
      }
    </style>
  </defs>
  <g id="lji7Bw">
    <g>
      <path class="cls-2" d="M246.41,40.41c-3.04-3.81-7.39-4.4-10.07-7.29-1.56-1.68-4.27-3.61-2.74-5.93,1.76-2.67,4.92-1.66,7.35-.25,2.2,1.27,4.2,2.89,6.23,4.44,2.71,2.06,4.65,2.23,6.11-1.53,1.59-4.11,3.52-8.12,5.6-12.01,7.72-14.52,29.05-21.92,44.24-15.51,7.42,3.13,10.59,9.2,11.63,16.71.63,4.58.67,9.21-.01,13.77-.5,3.39,1.03,3.83,3.69,3.19,2.67-.65,5.03-2.02,7.37-3.42,2.04-1.22,4.07-2.52,6.23-3.47,2.4-1.06,4.44,0,5.69,2.07,1.43,2.38.34,4.34-1.87,5.52-2.99,1.6-6.11,2.95-9.16,4.45-1.02.51-2.64.73-2.6,2.09.04,1.78,1.89,1.58,3.09,1.93,28.69,8.52,54.36,22.58,76.1,43.15,37.33,35.32,60.63,77.85,67.32,129.5,7.1,54.81-4.26,105.51-30.85,153.22-10.42,18.7-24.26,35.21-42.95,45.67-16.95,9.5-35.15,17.11-54.03,22.48-14.27,4.06-14.2,3.95-13.22,18.41.61,9.01.82,18.03,2.12,26.99.73,5.06-1,9.05-5.54,12.19-12.44,8.62-26.85,11.19-41.18,14.04-7.06,1.4-14.21,1.74-21.32.07-5.6-1.32-10.3-3.8-11.45-10.1-.37-2.05-1.75-2.13-3.28-2.48-3.64-.82-7.29-1.68-10.87-2.72-4.86-1.41-8.24-4.68-10.53-9.08-3.13-6.02-1.59-11.01,3.81-15.13,7.97-6.08,17.12-8.86,26.76-10.56,2.01-.35,4.08-.53,6.01-1.14,2.13-.67,5.94.72,5.82-3.06-.13-3.78-.81-7.7-5.8-8.92-17.5-4.28-34.87-9.03-52-14.66-32.77-10.76-61.34-27.69-82.31-55.82-19-25.49-30.19-54.14-35.05-85.48-3.46-22.33-4.88-44.69-2.65-67.23.27-2.69-7.76-10.23-10.33-9.79-2.03.34-2.52,2.23-3.12,3.72-1.92,4.77-4.16,9.33-7.48,13.29-3.66,4.37-8.16,6.6-13.96,5.3-5.98-1.33-7.07-6.14-7.96-11.16-.82-4.65-.07-9.19.92-13.66.43-1.94.06-2.46-1.75-3.3-10.98-5.08-12.1-14.11-2.91-22.25.76-.68,1.5-1.44,2.37-1.94,3.16-1.81,3.4-3.63.63-6.2-3.55-3.3-3.82-7.42-1.93-11.71,1.89-4.29,5.65-5.17,9.77-4.87,3.55.26,7.17.58,10.59,1.5,3.52.94,4.67.04,5.38-3.54,2.34-11.9,10.79-15.64,20.6-9.72,4.62,2.79,5.56,7.08,5.79,11.75.23,4.66-.94,9.16-2.92,13.34-1.44,3.04-1.43,4.78,2.14,6.25,4.11,1.69,4.1-1.42,4.92-3.54,6.98-17.9,13.98-35.77,24.21-52.17,25.42-40.8,61.26-67.83,107.29-81.49,3.86-1.14,7.66-2.46,12.07-3.88Z"/>
      <path class="cls-1" d="M279.97,465.71c.15-.31.45-.64.41-.92-1.06-7.96-3.34-15.68-6.2-23.09-1.24-3.21-5.94-1.7-8.93-2.15-16.51-2.48-32.26-7.59-47.98-12.85-16.11-5.39-32.16-10.96-46.12-21.04-30.99-22.39-51.86-51.95-61.94-88.85-5.14-18.8-8.54-37.95-8.37-57.57-.71-8.21-.73-16.42.01-24.62.54-24.16,8.24-46.56,16.63-68.85,12.01-31.87,31.08-58.87,56.53-81.2,9.52-8.36,20.56-14.89,32.09-20.57,9.94-4.9,20.43-8.08,30.68-12.03,13.59-5.24,27.2-6.28,41.23-2.5,8.15.7,16.3.85,24.44-.1,5.17-2.37,10.17.53,14.68,1.64,25.7,6.36,49.36,16.79,70.42,33.73,22.19,17.85,39.25,39.54,52.72,64.03,10.89,19.8,18.38,41.15,20.81,63.94.77,7.23,2.37,14.37,2.13,21.7.61,7.56.72,15.12-.07,22.68-2.26,30.09-8.1,59.32-20.04,87.23-7.7,18-17.59,34.59-31.02,48.79-9.12,9.64-19.67,17.48-32.06,23.02-10.53,4.71-20.8,10.05-31.86,13.38-6.92,2.08-13.72,4.77-21.21,4.83-5.64.04-7.55,2.45-7.16,8.17.87,13.02,1.91,26.04,3.02,39.04.45,5.26-1.56,9.82-6.59,12.15-13.83,6.38-28.43,9.93-43.62,10.98-1.86.13-3.68-.17-5.54-.66-6.22-1.65-7.97-5.09-3.65-10.07,8.39-9.68,19.14-15.56,32.25-15.93,6.76-.19,7.76-.55,6.72-7.19-1.31-8.35-3.36-16.58-5.3-24.82-.81-3.43-3.83-3.05-6.26-2.46-2.71.65-1.45,2.88-1.2,4.64.92,6.53,3.51,12.71,3.82,19.4.1,2.25-.4,2.96-2.47,3.42-12.1,2.68-23.13,7.49-32.7,15.68-6,5.14-14.38,4.86-19.66.28-3.74-3.24-3.92-6.48-.24-9.84,7.65-6.98,17.33-8.8,27.08-10.39,4.78-1.25,9.77.67,14.52-1.02Z"/>
      <path class="cls-1" d="M56.9,221.43c-.09-9.03,3.06-16.19,11.65-20.29,2.64-1.26,4.91-3.34,3.08-6.42-2.01-3.4-4.82-2.11-7.4-.22-3.28,2.41-6.54,4.86-9.97,7.05-1.66,1.07-3.73,2.23-5.65.51-1.81-1.62-1.94-3.58-1.16-6.02,2.24-6.94,11.55-12.76,18.92-11.34,2.55.49,5.32,1.83,5.85-2.2.51-3.85-2.81-3.71-5.15-4.08-3.15-.5-6.43.37-9.54-1.06-2.62-1.2-4.91-2.53-4.59-5.89.35-3.71,2.78-5.18,6.19-5.41,6.33-.42,11.14,2.22,14.64,7.42,1.17,1.74,2.22,3.5,4.87,2.1,2.38-1.25,1.39-2.94,1.17-4.8-.59-5.05-1.32-10.17,1.55-14.9,1-1.65,2-3.22,4.26-3.1,2.2.11,3.24,1.67,4.09,3.38,2.81,5.7,1.73,11.2-1.14,16.49-4.52,8.35-4.59,9.04,3.99,13.66,5.16,2.79,7.29,5.83,4.79,11.63-1.32,3.06-1.78,6.53-2.39,9.85-.76,4.11-2.77,4.5-6.01,2.48-2.45-1.52-4.96-2.95-7.51-4.29-5.93-3.12-9.1-1.37-9.12,5.16-.02,6.94-3.33,12.31-7.73,17.2-1.32,1.47-2.75,3.36-5.15,2.3-2.15-.94-2.57-2.98-2.55-5.14.01-1.36,0-2.73,0-4.09Z"/>
      <path class="cls-3" d="M286.4,42.07c-7.53.27-14.92-.59-22.11-2.86-1.92-.61-3.85-.96-2.94-4.09,3.59-12.47,9.89-22.31,23.29-25.94,4.39-1.19,8.84-1.02,13.17-.49,5.73.71,6.83,5.72,7.46,10.25.53,3.83.48,7.87-.06,11.71-1.38,9.97-2.55,10.87-12.69,11.41-2.04.11-4.09.02-6.13.02Z"/>
      <path class="cls-1" d="M302.45,49.37c-8.14,1.82-16.29,1.6-24.44.1,8.15-.03,16.29-.06,24.44-.1Z"/>
      <path class="cls-1" d="M100.86,234.62c0,8.21,0,16.41-.01,24.62-1.6-8.21-1.6-16.41.01-24.62Z"/>
      <path class="cls-1" d="M463.14,257.09c.02-7.56.05-15.12.07-22.68,1.56,7.56,1.61,15.12-.07,22.68Z"/>
      <path class="cls-1" d="M279.97,465.71c-4.69,2.42-9.68.63-14.52,1.02,4.71-2.1,9.71-.21,14.52-1.02Z"/>
      <path class="cls-2" d="M368.27,148.93c.23,6.81.23,6.86,7.03,6.8,4.84-.04,10.46-.46,12.57,4.63,2.29,5.53-.23,11.05-3.84,15.64-4.11,5.23-10.1,7.45-16.27,8.91-3.88.92-4.69,2.66-3.21,6.09,1.26,2.91,3.35,6.89-.63,8.27-3.86,1.34-5.54-2.56-6.62-6.09-.88-2.9-2.28-5.67-3.65-8.39-1.62-3.22-2.02-5.55,2.74-5.7,2.37-.07,4.72-.61,7.09-.72,7.7-.35,12.18-5.3,16.02-11.12.99-1.51,1.04-3.33.12-4.87-1.18-1.99-2.94-.85-4.57-.57-3.76.65-7.31,1.6-9.99,4.59-2.03,2.27-4.47,2.49-6.82.67-2.53-1.97-2.1-4.59-.58-6.87,3.38-5.06,3.95-10.4,2.1-16.06-1.29-3.95-4.4-4.81-7.87-2.37-6.17,4.33-6.11,10.54-5.24,17,.16,1.17.73,2.32.74,3.48.02,2.25,1,5.24-2.47,5.77-2.89.44-4.93-1.14-5.54-4.08-1.24-5.99-4.59-10.05-10.38-12.22-5.04-1.89-10.13.4-11.83,5.54-1.36,4.13,1.2,7.32,6.8,8.77,2.71.7,5.88.49,7.71,3.3.97,1.5,1.52,3.01.49,4.76-1.12,1.9-2.77,1.74-4.45,1.2-1.77-.57-3.46-1.41-5.22-1.99-6.55-2.15-16.98,4.77-17.04,11.2-.04,4.22,1.72,6.34,6.16,6.08,4.88-.28,8.56-3.03,12.33-5.63,1.81-1.25,3.38-2.87,5.24-4.01,1.69-1.04,3.61-.95,5.27.33,1.48,1.14,2.02,2.63,1.6,4.52-1.55,6.91-1.3,13.83.02,20.74.19,1,.28,2.04.22,3.05-.14,2.21.87,5.51-2.81,5.35-2.99-.13-6.25-1.08-6.36-5.22-.1-3.75,0-7.51-.24-11.25-.3-4.76-1.5-5.56-5.65-3.34-7.32,3.92-13.94,3.51-20.17-2.16-5.78-5.27-5.59-13.48.52-18.56.52-.44.96-1.06,1.56-1.31,7.07-3.01,9.22-7.47,6.19-15.1-2.15-5.41,5.9-13.31,12.76-13.38,1.49-.02,3.21.09,4.44.8,7.46,4.33,12.21,2.59,16.68-5.04,3.92-6.69,9.43-7.67,15.7-5.38,6.43,2.35,9.1,6.33,9.35,13.97Z"/>
      <path class="cls-2" d="M217.49,149.19c-.36-8.91,2.39-16.67,8.67-23.1,6.23-6.39,14.02-8.01,22.03-5.39,8.35,2.73,12.02,10.07,12.17,18.37.19,10.95-3.76,20.6-12.07,28.09-6.17,5.56-13.31,6.83-20.73,3.22-6.68-3.25-9.02-9.67-10.03-16.6-.22-1.5-.03-3.06-.03-4.59Z"/>
      <path class="cls-2" d="M163.25,142.06c-.47-9.39,2.28-16.45,6.27-23.08,3.13-5.2,14.19-9.25,19.85-7.52,8.94,2.74,12.91,7.78,12.92,16.52.02,12.1-4.22,22.16-14.24,29.39-12.85,9.27-23.41-.52-24.79-12.18-.18-1.51-.02-3.06-.02-3.14Z"/>
      <path class="cls-2" d="M185.85,277.69c-6.84,0-12.08-4.95-12.28-11.61-.22-7.36,6.89-14.05,15.04-14.14,6.44-.08,11.53,4.91,11.35,11.12-.21,7.42-7.16,14.63-14.11,14.64Z"/>
    </g>
  </g>
</svg>