<?xml version="1.0" encoding="UTF-8"?>
<svg id="Layer_1" data-name="Layer 1" xmlns="http://www.w3.org/2000/svg" viewBox="0 0 512 512">
  <defs>
    <style>
      .cls-1 {
        fill: #1c1c1c;
      }

      .cls-2 {
        fill: #171717;
      }

      .cls-3 {
        fill: #3d4590;
      }

      .cls-4 {
        fill: #141414;
      }

      .cls-5 {
        fill: #fff;
      }

      .cls-6 {
        fill: #fae900;
      }

      .cls-7 {
        fill: #1a1a1a;
      }

      .cls-8 {
        fill: #d83134;
      }
    </style>
  </defs>
  <g id="QohosP">
    <g>
      <path class="cls-4" d="M375.37,301.65c-.21.04-.42.09-.62.15-.21.06-.4.13-.59.21-.18.07-.36.16-.54.26-.17.1-.33.2-.49.32-.07.04-.13.09-.19.15-.06.04-.11.09-.16.13-.45.42-.83.94-1.12,1.59-.06.14-.12.28-.18.43-.06.17-.12.35-.17.54-.03.1-.06.21-.09.33-.04.17-.08.35-.11.53,0,.09-.03.19-.05.29-.02.1-.03.2-.04.3-.02.15-.04.3-.05.46-.06.63-.08,1.33-.06,2.1.21,8.22-1.51,17.14-3.41,24.4-.22.85-.45,1.76-.69,2.7-.23.94-.48,1.9-.76,2.89-.23.83-.47,1.67-.74,2.51-.08.25-.16.5-.25.75-.14.42-.29.84-.44,1.26-.14.38-.28.76-.44,1.14-.18.44-.36.88-.56,1.31-.1.22-.2.43-.3.64-.22.46-.45.92-.69,1.36-.26.48-.53.95-.83,1.41-.26.42-.53.83-.83,1.22-.16.23-.33.45-.5.67-.52.67-1.08,1.3-1.7,1.9-.09.09-.19.19-.29.28-.4.38-.82.75-1.26,1.08-.15.13-.3.25-.46.35-.23.17-.46.34-.7.49h0c-2.81,3.73-5.61,7.44-8.41,11.15-7.75,14.84-20.94,22.53-36.17,27.53-.33,1.08-.67,2.16-1,3.23.17.42.36.83.56,1.22.19.37.39.73.6,1.08.2.34.41.67.64.99.16.24.32.46.49.69.08.12.17.24.26.35.18.23.36.45.54.67.07.08.14.16.21.25.13.14.25.28.37.42.12.14.25.28.38.42.28.31.58.62.88.92.57.57,1.16,1.12,1.75,1.67.48.44.96.87,1.45,1.3.72.64,1.45,1.29,2.17,1.94.3.27.6.54.89.82.44.41.88.83,1.3,1.26.19.19.38.38.57.58.22.24.45.49.67.74.62.7,1.13,1.36,1.51,1.98.11.18.21.35.29.52.05.09.09.17.12.26.05.09.08.17.11.25.08.22.14.43.18.63,0,.07.03.13.03.2.02.12.03.23.03.35v.11c0,.08,0,.15-.03.23-.03.26-.11.51-.25.76-.04.08-.09.16-.15.24-.4.58-1.11,1.12-2.18,1.6-.42.2-.89.38-1.42.55-.6.2-1.21.4-1.81.61-.6.21-1.2.43-1.79.66-.74.28-1.49.57-2.23.87-.74.29-1.47.59-2.21.9-.51.21-1.03.42-1.55.64-1.54.64-3.09,1.29-4.64,1.91h0c-.89.08-1.77.15-2.65.23-9.04,3.37-3.97-4.27-5.36-6.87-.56.02-1.12-.02-1.67-.13-7.86-.58-9.9-7.43-13.55-12.56-1.06-1.02-2.1-2.03-3.15-3.05-28.83,9.81-57.71,10.23-86.65.47-11.11-3.09-21.82-7.62-30.06-15.52-8.49-8.15-16.38-6.64-25.11-1.89-3.13,1.71-6.11,3.7-9.17,5.57-.29.26-.58.52-.86.76-.56.5-1.1.96-1.61,1.39-.26.22-.52.43-.76.63-.49.4-.97.77-1.42,1.11-.46.34-.89.64-1.31.92-1.68,1.1-3.08,1.67-4.3,1.67-.13,0-.26-.01-.39-.02-.37-.04-.73-.13-1.07-.29-.1-.04-.2-.09-.29-.15-.18-.09-.35-.2-.52-.34-.1-.07-.2-.16-.3-.25-.13-.11-.26-.23-.39-.38-.09-.1-.18-.2-.27-.31-.27-.32-.53-.68-.79-1.09-.17-.28-.34-.57-.51-.89-.2-.37-.4-.77-.6-1.2-.1-.22-.2-.45-.3-.68-.09-.21-.19-.43-.28-.66-.14-.33-.27-.68-.41-1.05-.21-.56-.43-1.16-.65-1.79-.64-1.83-1.3-3.95-2.01-6.38-.26-.49-.49-.96-.69-1.43-.22-.52-.41-1.02-.55-1.51-.05-.16-.09-.31-.13-.46-.04-.15-.07-.3-.1-.45-.02-.15-.05-.29-.07-.44-.03-.16-.05-.32-.06-.47-.03-.38-.03-.75,0-1.11.02-.18.04-.35.07-.52.04-.18.08-.35.12-.51.05-.16.1-.32.16-.47.07-.19.16-.38.26-.56.08-.14.16-.28.25-.41.1-.15.21-.3.33-.45.05-.06.1-.12.16-.19.03-.05.08-.1.13-.14.03-.04.06-.07.09-.1.23-.24.47-.45.74-.66.13-.11.27-.21.42-.31.14-.1.28-.19.43-.28.15-.1.31-.19.48-.28.16-.09.33-.18.51-.27.35-.18.73-.35,1.14-.51,4.11-1.63,5.64-6.12,8.85-8.81-1.81.26-3.66.96-5.39-.29-1.42,1.81-2.68,3.78-4.31,5.38-1.15,1.13-2.73,3.3-4.42,1.62-.52-.52-.56-1.04-.36-1.56.07-.19.16-.37.28-.55.05-.08.11-.17.17-.25.5-.74,1.18-1.49,1.29-2.29-3.44-1.49-3.02-4.86-3.69-7.65-3.7-15.48-7.37-30.95-14.22-45.45-4.03-8.52-9.04-16.28-16.93-21.78-10.37-7.23-16.72-5.74-22.42,5.41-5,9.79-6.44,20.55-8.18,31.21-.02,5.44-.03,10.88-.05,16.32.48,11.65,1.75,23.17,5.75,34.23,4.97,12.59,8.76,25.65,15.01,37.73,10.88,21.05,18.87,22.83,36.39,7.23,11.99-10.68,24.29-20.79,38.35-28.67,7.17-4.02,13.62-6.93,20.47,1.12,2.97,3.5,7.86,5.56,12.16,7.7,31.51,15.64,64.39,19.44,98.6,10.91,6.86-1.71,14.39,3.1,12.53,8.78-1.8,5.51,1.22,7.69,4.51,11.08-10.91,5.88-21.52,11.55-32.09,17.31-11.7,6.39-23.3,13.05-31.72,23.68-6.12,7.72-14.83,16.76-10.85,26.25,4.36,10.39,17.22,11.66,27.76,11.26,52.63-1.98,89.47-29.93,117.27-72.46,4.82-7.37,3.42-11.24-4.51-15.04-11.36-5.46-22.9-11.04-31.14-21.28-3.07-3.81-3.74-5.97,1.9-8.4,19.04-8.19,31.23-23.11,39.12-41.91,5.78-13.77,8.69-28.25,10.39-42.98.41-3.56,1.25-6.37,4.41-8.2-1.92-.23-3.62-.3-5.04-.02ZM108.87,408.78c-6.02,4.56-12.28,8.83-18.03,13.71-4.23,3.58-6.75,3.1-10.1-1.26-11.71-15.25-17.65-32.85-21.79-51.27-.93-4.12-1.4-8.4-2.86-12.32-2.69-7.25-.99-12.1,6.52-14.57-.14-.21-.3-.38-.47-.53-.07-.07-.14-.14-.22-.19-.17-.13-.34-.24-.52-.32-.09-.05-.18-.09-.27-.12-.09-.04-.19-.07-.29-.1-.38-.11-.79-.17-1.21-.2-.1,0-.2-.02-.31-.02-.11,0-.21,0-.32,0-.54-.01-1.08,0-1.62-.02-.1,0-.21-.01-.31-.01-.11-.01-.21-.02-.32-.03-.22-.02-.44-.04-.64-.09-.09-.02-.18-.04-.27-.06-.1-.03-.2-.05-.29-.09-.09-.03-.18-.07-.28-.11-.18-.08-.36-.18-.53-.3-.17-.11-.33-.25-.48-.41-.16-.16-.3-.35-.43-.56-.06-.1-.12-.21-.18-.33h0c-.09-11.5,1.68-22.72,5.41-33.57,1.55-4.52,3.22-9.93,8.54-10.7.62-.09,1.21-.1,1.77-.06.2.02.39.04.58.07.1.01.2.03.29.05s.19.04.28.06c.18.05.36.1.54.16.36.11.7.25,1.04.42.33.17.65.35.96.56.15.1.31.21.46.33.13.09.25.19.37.3.58.48,1.11,1.03,1.6,1.62.18.22.36.45.53.67.34.46.66.94.96,1.42.15.24.3.48.44.73.07.12.14.25.21.37.14.25.27.49.4.74.12.25.25.5.37.74.09.17.17.35.27.52.22.42.47.85.74,1.27.68,1.08,1.46,2.14,2.25,3.19.24.32.49.64.73.97.24.32.48.64.73.97.37.49.72.98,1.06,1.47.23.33.45.67.66,1,.1.17.21.34.31.51.2.34.39.68.57,1.03.23.43.43.88.61,1.33.1.23.18.45.26.68s.15.46.22.69c.06.24.12.48.17.73.05.26.1.52.14.79.03.27.06.53.08.81v.05c.02.34.02.68,0,1.02,0,.18,0,.35-.03.53-.01.13-.02.26-.04.39-.04.29-.09.59-.15.9-.03.15-.07.29-.1.44-.17.7-.42,1.43-.74,2.19.03.09.06.18.08.27.02.09.03.17.03.26.03.33-.02.66-.1,1-.08.31-.18.63-.29.94-.03.1-.07.21-.1.31-.08.28-.16.56-.2.83-.03.22-.04.44-.02.65.02.16.06.32.12.48.06.16.15.31.26.47.06.07.13.15.2.23.14.14.32.29.53.44h0c6.6,1.41,7.41,2.72,5.64,9.01,6.71,3.96,7.99,8.11,5.28,17.92-5.87-3.41-7.33-9.38-9.52-14.87-4.73,1.5-3.22-3.94-5.61-5.04-.58.65-1.16,1.31-1.74,1.97,2.5,4.88,3.59,8.99-4.21,9.47-2.02.12-4.06,1.57-3.95,4.09.06,1.55,1.22,2.62,2.88,2.99,1.76.38,3.85,1.15,4.99-.56,1.54-2.34,1.93-7.12,5.17-6.03,3.75,1.27,3.32,6.59,4.86,10.07.38.85-.42,2.22-.68,3.35l.43.53c2.63-1.46,4.98-3.35,7.25.94,6.7,12.68,7.63,27.34,14.12,40.08,1.11,2.18-1.34,3-2.69,4.02ZM276.89,447.69c3.89-2.52,7.68-6.27,14.02-1.31-4.52,2.38-8.13,4.35-11.8,6.2-1.85.93-3.63.36-4.66-1.28-1.64-2.63,1.22-2.82,2.44-3.61ZM260.84,457.13c.32-4.31,5.19-5.83,8.77-6.18,2.76-.27,4.71,3.15,6.52,5.67-2.32,2.82-4.79,5.83-8.39,6.17-3.55.33-7.15-2.44-6.9-5.66ZM284.33,494.83c-1.47,6.73-10.87,6.16-16.87,8.48-.8.31-1.61.6-2.42.87-.81.28-1.62.53-2.42.76-.35.1-.7.2-1.04.29-.17.05-.34.09-.52.14-.17.05-.34.09-.51.13-.5.13-1,.25-1.5.36-.4.09-.79.17-1.18.25-.24.05-.48.1-.72.14-.34.07-.68.13-1.02.18-.51.09-1.02.17-1.51.24-.36.05-.72.09-1.07.13-.3.04-.6.07-.89.09-.4.05-.8.08-1.18.1-.26.02-.52.03-.78.04-1.04.05-2.02.05-2.93,0-10.61-.11-20.78,1.27-24.4-6.95-.63-1.43-.82-2.85-.69-4.26,0-.14.02-.27.04-.4.07-.56.2-1.12.37-1.67.04-.16.09-.31.15-.47.1-.31.21-.62.35-.92.07-.17.15-.35.23-.53.4-.88.89-1.75,1.44-2.61.21-.34.44-.68.68-1.02.12-.18.24-.35.36-.52.24-.33.48-.66.74-1,.38-.51.77-1,1.16-1.5.25-.33.51-.65.78-.98.39-.49.79-.98,1.18-1.46,0-.02.03-.04.04-.06.19-.23.38-.47.56-.7.43-.54.84-1.07,1.23-1.59,13.06-17.56,24.59-18.56,41.01-3.93.32.28.64.57.97.86.33.29.66.58.99.87.31.27.61.53.92.81.36.32.72.65,1.08.97.17.16.33.31.5.46.44.42.87.83,1.3,1.26.2.2.41.41.61.62.03.03.05.05.07.08.22.23.44.46.65.69.22.24.44.49.64.73.19.22.37.45.55.67.08.1.16.2.23.3.16.21.31.42.47.63.14.21.29.43.43.64.16.25.32.5.47.76.46.78.84,1.59,1.11,2.42.05.13.1.27.14.41.06.19.11.38.15.58.09.34.16.7.2,1.06.02.13.03.26.04.4.11,1.01.05,2.06-.19,3.15ZM348.55,426.59c5.51,2.81,7.16,5.62,3.7,11.74-12.93,22.92-31.92,38.92-55.29,50.2-1.42.68-4.09,3.83-4.82-.03-1.41-7.53-8.03-10.09-12.46-14.78-2.26-2.4-7.5-3.85-5.62-7.96,1.6-3.52,4.87-7.04,9.97-6.3.61-.6,1.21-1.21,1.81-1.81-2.54-8.62,5.18-6.58,8.97-8.63.03-.75.06-1.49.1-2.23,7.86-16.38,38.64-27.86,53.64-20.2Z"/>
      <path class="cls-5" d="M276.13,456.62c-2.32,2.82-4.79,5.83-8.39,6.17-3.55.33-7.15-2.44-6.9-5.66.32-4.31,5.19-5.83,8.77-6.18,2.76-.27,4.71,3.15,6.52,5.67Z"/>
      <path class="cls-5" d="M352.25,438.33c-12.93,22.92-31.92,38.92-55.29,50.2-1.42.68-4.09,3.83-4.82-.03-1.41-7.53-8.03-10.09-12.46-14.78-2.26-2.4-7.5-3.85-5.62-7.96,1.6-3.52,4.87-7.04,9.97-6.3.73,1.29,1.62,2.52,2.14,3.89,1.03,2.73,2.11,5.23,5.71,3.36,2.15-1.12,4.72-2.68,4.46-5.14-.42-4.03-3.98-2.11-6.36-2.47-1.42-.22-2.76-.95-4.14-1.45-2.54-8.62,5.18-6.58,8.97-8.63,2.19,1.98,4.27,4.09,6.6,5.89,2.24,1.74,4.46,1.16,6.37-.81,1.29-1.33,2.42-2.8,1.55-4.73-1.31-2.91-3.35-2.45-5.88-1.42-2.9,1.19-5.86.46-8.54-1.16,7.86-16.38,38.64-27.86,53.64-20.2,5.51,2.81,7.16,5.62,3.7,11.74Z"/>
      <path class="cls-5" d="M92.29,339.85c-2.17-.03-3.42,1.22-4.24,3.05-4.73,1.5-3.22-3.94-5.61-5.04-1.19-3.88,2.26-5,4.2-7.02h0c6.6,1.41,7.41,2.72,5.64,9.01Z"/>
      <path class="cls-5" d="M108.87,408.78c-6.02,4.56-12.28,8.83-18.03,13.71-4.23,3.58-6.75,3.1-10.1-1.26-11.71-15.25-17.65-32.85-21.79-51.27-.93-4.12-1.4-8.4-2.86-12.32-2.69-7.25-.99-12.1,6.52-14.57,5.98-1.38,10.91-8.61,18.09-3.24,2.5,4.88,3.59,8.99-4.21,9.47-2.02.12-4.06,1.57-3.95,4.09.06,1.55,1.22,2.62,2.88,2.99,1.76.38,3.85,1.15,4.99-.56,1.54-2.34,1.93-7.12,5.17-6.03,3.75,1.27,3.32,6.59,4.86,10.07.38.85-.42,2.22-.68,3.35-2.77-.31-3.95,3.58-7.2,2.52-2.84-.91-3.53,1.23-3.76,3.56-.22,2.34.45,4.27,2.81,4.96,2.24.65,4.28-.2,5.3-2.29,1.29-2.64,2.2-5.47,3.28-8.22,2.63-1.46,4.98-3.35,7.25.94,6.7,12.68,7.63,27.34,14.12,40.08,1.11,2.18-1.34,3-2.69,4.02Z"/>
      <path class="cls-4" d="M366.85,71.01c-8.33-2.17-11-4.6-8.35-13.02,1.13-3.57,1.69-8.63-3.49-11.02-5.26-2.42-10-1.36-14.32,2.2-3.38,2.8-5.66,6.36-6.14,10.74-.4,3.61-1.68,4.66-5.26,3.35-7.8-2.86-13.32.63-17.89,6.77-2.71,3.65-5.54,7.36-11.71,8.47,8.23-21.21,17.1-40.64,27.1-59.53,3.36-6.36,2.27-8.52-5.21-9.71-25.36-4.06-51.26-3.16-76.41-8.84-6.61-1.49-8.86.98-8.6,8.22.79,21.43.88,42.89.77,64.33-.11,21.8-1.98,43.45-9.2,64.25-1.31,3.78-1.4,9.32-6.6,9.78-4.97.44-7.8-3.88-10.5-7.59-3.04-4.17-5.34-9.32-12.89-9.8,1.9,7.12,6.07,11.77,10.07,16.47,2.77,3.25,4.84,6.38.72,10.04,4.06.83,7.62-.57,11.31-2.12,5.16-2.16,10.71-1.83,15.97-.44,19,5.01,38.33,2.19,57.51,2.66.99.02,2.02-1.1,3.02-1.69-3.85-2.76-.69-3.63,1.32-4.67,6.12-3.18,13.1-4.81,18.08-10.03,1.68-1.76,4.03-3.98,2.66-6.21-1.77-2.88-5.06-1.45-7.32-.14-4.67,2.72-8.94,6.14-13.66,8.78-2.51,1.4-6.38,2.81-6.9-2.09-1.87-17.6-1.51-35.1,6.08-51.51,3.05-6.61,9.23-5.8,14.95-3.72,5.7,2.08,5.52,5.81,3.2,10.81-2.16,4.65-1.19,9.46,2.33,13.5,6.16,7.06,18.01,8.61,26.52,3.21,2.46-1.56,3.88-3.38,7.71-1.7,11.87,5.21,19.99,1.61,24.7-9.83,5.23-12.72,1.44-27.05-9.57-29.92ZM276.61,149.55c-7.83,2.47-15.71,4.01-23.37,3.53-2.37,0-4.18-.04-5.98,0-5.23.12-10.88-.38-14.65-3.57-5.23-4.42,1.22-8.96,1.83-13.56.92-6.82,2.96-13.48,3.98-20.3.03-.18.06-.36.09-.53.03-.17.06-.34.1-.5.03-.15.07-.29.1-.43.08-.31.17-.59.27-.84.06-.15.13-.29.2-.43.14-.28.29-.51.47-.71.08-.09.16-.18.25-.25.04-.03.08-.06.12-.09.04-.04.08-.07.12-.09.16-.11.33-.19.52-.25.06-.03.13-.05.2-.06.06-.02.1-.03.16-.04.04,0,.08-.01.12-.01.07-.01.14-.02.2-.02.81-.06,1.8.16,3.03.63,2.03.77,4.07,1.45,6.13,2.03,1.03.29,2.06.56,3.1.81,1.04.24,2.08.46,3.12.66,5.81,1.09,11.74,1.44,17.75,1,.88-.06,1.65-.05,2.33.05.4.06.77.14,1.1.26.13.04.25.09.37.15.12.05.23.11.33.17.11.06.21.12.31.19.1.06.19.13.28.21.1.08.19.16.27.26.02.02.04.04.06.07.03.03.06.06.08.09.2.23.37.49.5.78.07.12.12.24.17.38.05.14.1.28.14.42.02.06.03.13.05.2.02.04.03.08.03.13.04.15.07.3.09.46.03.1.04.2.05.31.02.12.03.24.04.37.02.14.03.28.03.43.03.42.03.87,0,1.35-.24,6.31-.28,12.62,1.15,18.86.98,4.33-1.08,6.56-5.25,7.88ZM284.41,100.33c-1.33,8.19-4.82,9.97-18.36,9.09,1.38-2.95,2.28-5.96,5.26-7.66,1.47-3.48,4.96-4.58,7.67-6.63,1.65-1.25,3.06-3.15,5.29-1.58,2.95,2.07,1.89,4.48.14,6.78ZM294.75,71.01c-.47,1.19-.95,2.38-1.43,3.56-.47,1.19-.95,2.37-1.44,3.55-1.46,3.54-4.24,4.67-7.26,6.1-10.15,4.8-19.08,10.89-24.28,21.51-3.08,6.3-7.47.32-11.25.35-.3-.03-.6-.06-.89-.09-.2-.02-.39-.05-.58-.07-.67-.09-1.31-.2-1.88-.38-.17-.05-.33-.11-.48-.17-.2-.08-.39-.17-.57-.27-.04-.03-.1-.06-.14-.09-.08-.05-.15-.1-.22-.15-.12-.09-.23-.18-.34-.28-.1-.1-.19-.2-.28-.31-.1-.13-.19-.26-.27-.41-.08-.14-.15-.3-.21-.46-.04-.08-.07-.17-.09-.26-.07-.22-.12-.47-.16-.73-.02-.09-.03-.19-.04-.29-.03-.34-.03-.71,0-1.11.02-.19.04-.39.06-.59.17-1.42.33-2.84.47-4.26h0c.15-1.43.28-2.85.39-4.27h0c.12-1.43.22-2.85.31-4.26,0-.07,0-.14,0-.21.08-1.37.16-2.73.23-4.09.06-1.19.11-2.38.15-3.57.04-.95.07-1.89.09-2.84.1-3.56.14-7.13.14-10.69,0-2.04-.01-4.08-.04-6.12-.02-1.79-.05-3.57-.08-5.36-.02-1.24-.05-2.47-.08-3.71-.07-3.1-.15-6.2-.23-9.3-.1-3.57-.19-7.14-.27-10.71-.03-1.09-.05-2.19-.07-3.28-.03-1.61-.06-3.23-.08-4.84-.03-1.88-.04-3.77-.05-5.65-.03-11.21-.11-11.21,11.55-8.21,13.7,1.58,27.4,3.15,41.1,4.73.68.05,1.35.1,2.02.15,1.35.1,2.7.21,4.05.31,1.01.08,2.02.16,3.03.23,1.02.08,2.03.15,3.04.21,1.35.08,2.7.14,4.05.18.23.01.45.02.66.04.42.03.81.09,1.16.16.18.03.34.07.5.11.19.05.36.11.52.17.12.04.23.08.33.13.11.05.21.1.31.16.09.04.18.09.26.15.15.09.28.19.4.3.02,0,.03.03.04.04.17.15.3.3.41.47.06.08.11.17.15.25.03.07.07.14.1.21.01.02.02.04.02.06.04.1.08.2.1.31.02.03.02.06.02.08.04.13.06.27.07.4.04.31.03.63-.03.96,0,.1-.02.19-.04.28-.05.29-.13.6-.24.91-.1.31-.23.63-.39.96h0c-.15.33-.32.67-.52,1.01-.64,1.11-1.27,2.23-1.89,3.36-.31.56-.61,1.12-.91,1.69-.6,1.13-1.19,2.26-1.77,3.4-.29.57-.58,1.14-.86,1.72-.57,1.14-1.12,2.29-1.67,3.45-.55,1.15-1.09,2.31-1.62,3.47-.52,1.17-1.04,2.33-1.56,3.5-.51,1.17-1.02,2.34-1.52,3.52-1,2.35-1.98,4.71-2.94,7.08-2.4,5.91-4.71,11.87-7.07,17.8ZM340.71,63.52c.29-6.15,1.08-12.69,8.57-14.05,5.63-1.02,3.33,4.24,4.2,6.76-.23,6.6-1.46,12.67-9.06,13.73-4.83.67-3.83-3.76-3.71-6.44ZM316.1,76.71c.27-6.17,4.09-9.6,9.96-10.79,4.13.34,8.14,2.56,7.32,6.25-1.14,5.08-2.74,11.73-9,12.81-4.91.84-8.51-2.87-8.28-8.27ZM330.78,109.84c-4.96-.56-9.82-1.83-9.22-8.91.36-4.28,1.01-9.64,6.7-8.43,5.48,1.17,14.12.18,14.89,7.79.64,6.4-5.41,9.35-12.37,9.55ZM340.05,90.84c-3.8.18-7.36-1.72-6.82-6.39.04-.39.1-.77.17-1.14.05-.31.11-.62.18-.91.03-.12.05-.24.08-.35.08-.31.16-.6.25-.89.21-.68.47-1.33.78-1.94.3-.61.65-1.18,1.04-1.71.18-.24.36-.47.57-.69.15-.17.3-.33.46-.49.15-.14.29-.28.45-.41.69-.61,1.48-1.13,2.36-1.54.19-.09.39-.18.6-.27.89-.36,1.87-.62,2.94-.79.09-.02.19-.03.28-.04.19-.03.38-.05.58-.07,4.62-.48,6.41,2.26,6.7,6.87-.83,5.91-3.89,10.44-10.62,10.76ZM366.95,105.17c-4.27,3.61-9.59,5.13-13.93.96-4.2-4.03-7.21-9.18-1.18-14.72,2.77-2.54,3.74-6.08,3.81-9.87.04-2.61-.77-5.83,2.7-6.91,3.37-1.05,6.62-.17,9.27,2.21,4.11,3.69,5.49,8.51,5.36,14.34.57,5.43-1.65,10.3-6.03,13.99Z"/>
      <path class="cls-5" d="M330.78,109.84c-4.96-.56-9.82-1.83-9.22-8.91.36-4.28,1.01-9.64,6.7-8.43,5.48,1.17,14.12.18,14.89,7.79.64,6.4-5.41,9.35-12.37,9.55Z"/>
      <path class="cls-5" d="M366.95,105.17c-4.27,3.61-9.59,5.13-13.93.96-4.2-4.03-7.21-9.18-1.18-14.72,2.77-2.54,3.74-6.08,3.81-9.87.04-2.61-.77-5.83,2.7-6.91,3.37-1.05,6.62-.17,9.27,2.21,4.11,3.69,5.49,8.51,5.36,14.34.57,5.43-1.65,10.3-6.03,13.99Z"/>
      <path class="cls-5" d="M353.48,56.23c-.23,6.6-1.46,12.67-9.06,13.73-4.83.67-3.83-3.76-3.71-6.44.29-6.15,1.08-12.69,8.57-14.05,5.63-1.02,3.33,4.24,4.2,6.76Z"/>
      <path class="cls-5" d="M333.38,72.17c-1.14,5.08-2.74,11.73-9,12.81-4.91.84-8.51-2.87-8.28-8.27.27-6.17,4.09-9.6,9.96-10.79,4.13.34,8.14,2.56,7.32,6.25Z"/>
      <path d="M208.94,156.12c4.06.83,7.61-.57,11.31-2.12,5.16-2.17,10.71-1.83,15.97-.45,19,5.01,38.33,2.19,57.51,2.66.99.02,2.01-1.1,3.02-1.68,10.88,4.35,21.76,8.69,32.64,13.04.06,2.3,1.25,4.06,3,5.32,11.37,8.18,21.03,18.07,28.03,30.16,4.36,7.53,9.47,15.52,10.56,23.8,1.43,10.84,2.88,21.96,2.11,33.14-.4,5.76,2.63,7.09,7.24,3.17,1.64-1.16,3.28-2.32,4.92-3.48,3.2,1.3,6.8,4.06,7.92-2.18,5.79-1.83,12.16-6.95,15.88,2.83.14,6.2.52,12.4.35,18.59-.19,6.6-1.04,13.12-8.79,15.59-7.6-1.66-11.82,5.98-18.55,6.72-.55.15-1.11.29-1.66.44-5.84-.69-9.69.05-9.5,7.77.21,8.23-1.51,17.14-3.41,24.4-1.79,6.83-3.65,16.84-11.45,21.96,4.04-9.05,5.95-18.73,8.17-28.31,2.29-5.95,3.23-12.27,3.12-18.5-.12-6.34,2.74-8.97,8.32-10.72,7.4-2.33,14.96-4.51,21.32-9.32,1.26-.02,2.23-.47,2.67-1.74,3.67-8.01,4.94-17.27.32-23.99-2.65-3.86-10.07,2.04-15.23,3.8-13.28,4.53-16.07,2.54-14.76-11.79,1.12-12.21-.68-23.89-4.95-35.29-1.19-4.56-2.96-8.86-5.66-12.74-6.08-12.45-14.87-22.54-26.36-30.28-9.33-7.57-20.22-11.82-31.64-15.04-15.78-4.45-31.82-1.93-47.76-2.03-3.44-1.88-7.21-1.72-10.94-1.81-10.44-2.93-20.72-3.15-30.7,1.81-17.94,5.52-31.27,17.17-42.35,31.82-9.59,9.46-15.58,21.39-22.49,32.69-3.55,5.81-7.67,10.53-15.34,5.99l.24.1c-11.64-11.93-13.1-11.75-20.72,2.48-.14.26-.32.51-.46.77-8.42,15.78-7.91,16.96,9.68,22.59,5.42,2.61,7.33,6.83,5.79,12.63-.11,1.12-.23,2.23-.34,3.35-2.46.78-2.8,3-3.16,5.02-4.13,23.15-3.14,45.94,4.98,68.2.76,5.78,3.41,10.8,6.32,15.72-.3,1.1-.61,2.21-.91,3.31-3.79,3.69-10.83,3.19-12.45,9.67-1.99.02-4.08-.36-5.58,1.49-1.62.97-4.09,1.61-1.73,4.21,2.36,1.06,4.73,2.12,7.09,3.18-2.92.17-5.85.33-8.77.5-2.7-5.1-2.38-9.1,3.7-11.53,4.11-1.64,5.63-6.13,8.84-8.81,1.34-2.7.63-5.22-.53-7.79-12.76-28.36-14.63-57.42-5.34-87.11.9-2.86,1.63-5.01-1.47-6.95-3.1-1.95-5.68-2.91-8.8.22-5.59,5.61-14.61,8.97-19.69,4.81-7.32-5.98-12.65-3.58-19.77-2.12-6.72,1.37-13.16-1.35-17.14-7.71-4.17-6.66.85-11.25,4.25-16.43-8.57-1.28-17.07-2.51-18.06-13.18-.75-8.03,5.15-13.26,18.05-16.71-8.75-12.34-5.43-19.59,9.87-21.53,7.36-.93,14.44-.05,21.43,3.78,1.17-7.57,4.77-13.21,11.46-16.57,10.67-5.37,19.46-.71,20.81,11.14.37,3.24-.44,6.9,4.06,7.93,10.23,2.33,10.2,10.16,10.39,18.36.08,3.38-3.25,8.82,2.02,10.03,4.56,1.04,6.99-3.94,9.11-7.59,10.05-17.37,21.5-33.61,37.63-45.97,7.94-6.08,16.39-11.34,26.32-13.68ZM80.4,233.36c-2.12,2.73-5.14,4.03-8.16,5.45-3.25,1.54-6.58,3.08-9.46,5.19-3.73,2.73-5.59,7.22-3.7,11.2,2.15,4.53,7.32,3.49,11.37,2.65,4.77-.98,7.2-5.12,9.88-8.79,2.68-3.66,4.72-8.21,10.77-8.85-.67,5.65-1.35,10.67-1.82,15.7-.25,2.61.78,4.91,3.41,5.69,1.27.38,3.44.25,4.15-.57,1.5-1.72,2.5-3.83.66-6.38-1.08-1.5-2.25-3.26-.94-5.75,5.45-10.36,8.03-22.12,15.26-31.64,3.19-2.31,6.32-4.71,10.13-.91,1.16,1.16,3.03,1.43,3.83-.18,2.51-5.02,1.86-10.03-1.71-14.23-3.69-4.34-6.76-1.68-9.47,1.59-3.85,2.56-5.36,7.03-8.38,10.27-1.4,1.5-2.81,3.53-5.2,1.99-2.31-1.5-1.07-3.68-.55-5.64,1.39-5.25,5.79-8.08,9.32-11.61,4.48-5.82,4.55-11.66.07-17.52-5.34-4.96-8.55-1.74-11.13,3.05-1.78,3.3-1.47,7.02-1.36,10.61.2,6.14-2.09,7.27-7.53,4.63-7.32-3.55-15.01-6.42-23.34-5.66-2.85.26-7.25-.88-7.82,3.99-.47,4.03,1.56,7.15,5.17,8.65,4.13,1.72,8.59,2.62,12.75,4.28,2.06.82,6.24,1.5,2.25,5.24-7.25.13-14.5.08-21.74.43-7.2.35-15.53,7.32-13.49,11.72,2.85,6.12,8.74,6.73,15.36,5.63,7.01-1.17,14.25-3.36,21.41-.25ZM404.94,286.81c3.28-9.26,3.52-18.53-1.65-27.47,2.35,9.04.75,18.22,1.65,27.47Z"/>
      <path class="cls-4" d="M393.18,257.5c-1.12,6.24-4.72,3.48-7.92,2.18,2.56-14.17,3.96-15.82,18.68-18.29,3.84-.65,2.99-3.06,3.52-5.11,1.56-5.94,3.9-11.47,8.32-15.85,5.39-5.35,11.61-7.1,19.06-4.5,6.97,2.43,5.51,8.53,6.47,13.59.27,1.39.04,2.88.04,4.43,16.74-3.92,27.39-1.3,31.62,7.82,4.49,9.68-3.52,13.08-9.42,17.35,13.82,14.3,12.48,20.14-5.85,24.94,4.06,7.36,4.46,14.27-3.08,19.75-10.64,4.18-20.98,5.39-30.11-3.42-1.42-1.37-2.45-2.61-4.35-.71-6.6,6.58-14.42,4.6-22.03,2.8-5.34-1.26-10.66-1.57-16.07-1.25,6.73-.74,10.95-8.38,18.55-6.72-.86,3.61.96,5,4.26,5.14,4.26.18,8-1.31,9.79-5.14,2.02-4.31,3.08-9.06,4.73-13.55.79-2.14,1.34-5.21,4.6-4.43,3.47.83,3.09,3.66,2.69,6.56-1.74,12.36,3.88,18.86,15.8,18.54,5.31-.14,9.64-2.04,10.85-7.57,1.21-5.53-3.47-6.98-7.25-8.72-1.9-.87-3.94-1.41-5.92-2.1-2.83-3.42-2.21-5.39,2.4-5.33,4.48.06,8.96.43,13.44.54,4.82.12,10.06-1.04,10.22-6.37.15-5.25-5.09-6.72-9.79-7.14-6.51-.58-13.21.63-19.52-1.98.19-.45.15-.89-.13-1.3,3.1-3.32,7.43-3.7,11.46-4.63,4.66-1.08,9.46-1.55,13.71-4.01,4-2.32,6.5-5.94,5.63-10.37-.84-4.31-5.32-4.21-8.8-4.58-6.55-.7-12.2,1.88-17.88,4.87-3.5,1.84-6.27,8.08-10.29,5.21-4.83-3.46,2.49-7.6,1.73-11.89,3.71-14.19,2.46-16.22-8.65-14.01-8.97,7.27-10.68,15.77-5.79,27.62,1.32,3.19,4.1,7.6.54,9.83-4.35,2.72-4.38-3.97-7.24-5.32-.69-4.72-3.26-8.22-8.13-7.37-5.4.94-10.24,3.6-9.89,10.51Z"/>
      <path class="cls-4" d="M380.34,263.15c-4.61,3.92-7.64,2.58-7.24-3.17.77-11.17-.67-22.3-2.11-33.14-1.09-8.27-6.21-16.27-10.56-23.8-7-12.09-16.66-21.98-28.03-30.16-1.76-1.26-2.94-3.02-3-5.32,32.01,16.1,46.54,43.19,49.18,77.89.45,5.9-1.37,12.06,1.76,17.7Z"/>
      <path class="cls-5" d="M118.94,362.91c-1.42,1.81-2.68,3.79-4.31,5.39-1.15,1.13-2.74,3.31-4.43,1.62-1.54-1.54,1.16-2.98,1.38-4.66,2.33-1.16,2.48-9.14,7.35-2.35Z"/>
      <path class="cls-6" d="M399.64,287.21c-.44,1.27-1.42,1.72-2.67,1.74-29.2,3.63-34.54,9.91-32.75,38.54-2.23,9.58-4.13,19.25-8.17,28.31-2.8,3.72-5.61,7.43-8.41,11.15-6.94,5.98-14.06,11.78-20.77,18.02-4.56,4.24-12.14,3.35-15.4,9.52-.33,1.08-.67,2.15-1.01,3.22-.55-.23-1.08-.51-1.65-.64-.2-.05-.72.33-.7.44,1.78,8.77,11.02,11.97,14.9,19.61-5.42,2.53-11.4,8.89-12.68-3.35-.06-.58-1.94-.96-2.97-1.43-4.71-1.15-6.12,2.93-8.56,5.39-6.65-.97-7.58-9.3-13.85-10.76-1.05-1.02-2.1-2.03-3.15-3.04-2.7-4.37-6.13-.82-8.6-.17-17.36,4.57-34.64,5.7-52.62,3.68-8.46-.95-16.57-5.79-25.44-3.04-11.1-3.09-21.82-7.62-30.06-15.53-8.49-8.15-16.38-6.64-25.11-1.88-3.14,1.71-6.12,3.7-9.17,5.57-1.18.13-2.45.02-3.52.44-2.99,1.16-5.85,5.47-8.86,0-2.75-5.03-.11-7,4.37-8.36,2.35-.71,5.26-2.96,4.62-4.9-2.3-6.96,3.36-10.37,5.77-15.2.3-1.1.61-2.21.91-3.31,1.07-6.97-2.56-12.34-6.03-17.77-4.15-23.62-5.56-47.32-2.11-71.16.11-1.12.23-2.23.34-3.35,5.41-6.12,4.07-10.34-3.59-12.79-2.92-2.72-6.54-4.12-10.23-5.31-2.56-.82-4.86-2.36-4-5.01,2.29-7.09,4.81-14.64,10.23-19.59,4.25-3.89,7.28,3.62,11.52,4.32.57.09,1.18-.05,1.77-.09,0,0-.24-.1-.24-.09,3.04,6.29,7.46,4.97,11.84,1.89,4.31-3.04,6.77-7.65,9.01-12.27,4.81-9.95,13.53-17.54,16.99-28.3,11.08-14.65,24.41-26.3,42.34-31.82,7.8,1.44,15.23-2.48,23-1.57,4.92,3.85,11.46-.02,16.47,3.44,19.42.84,39.08-1.61,58.04,5.24,8.25,2.98,15.32,8.17,23.47,11.19,8.81,9.68,17.62,19.36,26.43,29.04,2.7,3.89,4.47,8.18,5.66,12.75-1.93,2.8-1.5,5.88-.31,8.61,3.11,7.14,2.93,14.59,2.81,22.09-.07,4.2-.3,8.43.08,12.6.78,8.36,5.14,10.97,12.98,8.14,4.5-1.63,9.06-3.12,13.47-4.95,4.48-1.86,5.54-.13,6.26,4.19.95,5.68-3.06,10.98-.67,16.58ZM298.7,200.06c5.54-11.8,5.03-15.19-3.01-19.97-4.84-2.18-9.68-3.31-14.48.1-8.3,4.12-7.41,12.34-7.51,19.3-.06,4.37,2.54,9.38,8.83,9.29,0,0-.26-.12-.26-.12,9.2,4.24,13.72,1.88,16.43-8.6ZM281.85,223.68l.14.2c-1.62-8.48-8.98-12.03-15.4-12.41-9.33-.56-20.38-4.77-27.87,5.57-5.61,4.24-10.05,9.38-12.36,16.15-.23-.2-.42-.47-.69-.58-.24-.1-.79-.06-.8,0-1.29,6.35-1.74,12.45,5.13,16.22l-.06-.27c1.39,8.05,8.39,10.15,14.4,11.38,10.45,2.14,21.78,5.84,30.56-4.65,2.09-1.52,4.18-3.04,6.28-4.56,9.2-5.45,9.54-19.38.66-27.03ZM243.65,176.86c.5-5.91-4.09-6.91-8.09-7.56-3.63-.59-8.13-1.35-9.38,4.18-1.27,2.2-2.54,4.4-3.81,6.61-6.86,4.35-.4,10.23-1.55,15.43-1.13,5.09,3.04,7.85,8.4,8.12,5.78.29,11.38-.84,13.91-6.22,3.1-6.59,5.62-13.8.37-20.82l.17.27ZM313.14,321.52c5.11-6.61,3.21-14.35,3.51-21.73,4.57-16.28,3.1-33.43,7.09-49.81.39-1.58-.5-3.52-.96-5.25-1.28-4.9-3.69-10.14-9.06-9.7-5.87.48-7.78,6.25-7.81,11.62-.04,6.31-2.08,11.74-5.45,16.86-14.36,32.39-65.28,44.2-88.96,13.75-9.02-11.59-17.83-23.01-12.7-39.09,3.27-4.5,2.41-8.58-1.93-11.53-4.67-3.17-6.88,1.47-9.57,3.88-2.73,2.44-4.43,5.57-4.95,9.26-.72.54-1.68.92-2.12,1.64-17.82,29.09-26.59,60.41-23.06,94.68.21,2.01-.42,5.46,3.64,5.11,5.51,16.96,16,30.03,30.94,39.63,7.72,8.63,18.08,10.62,28.88,11.51,7.79,2.89,15.59,2.89,23.41.11,10.84.57,20.37-3.05,29.16-9.07,24.76-13.23,36.55-34.83,39.93-61.86Z"/>
      <path class="cls-8" d="M247.76,507.03c-10.6-.12-20.78,1.27-24.39-6.95-3.07-6.99,4.22-13.78,8.61-19.69,13.06-17.57,24.59-18.56,41.01-3.93,5.66,5.04,13,10.69,11.33,18.37-1.47,6.73-10.87,6.17-16.87,8.48-7.06,2.72-14.52,4.02-19.69,3.73Z"/>
      <path class="cls-8" d="M53.64,339.56c-.09-11.49,1.68-22.71,5.41-33.57,1.55-4.52,3.22-9.93,8.55-10.69,5.43-.78,8.71,3.94,10.8,8.18,3.36,6.82,11.79,11.97,7.73,21.48-9.8,7.15-19.36,14.84-32.49,14.61Z"/>
      <path class="cls-6" d="M195.17,404.39c8.86-2.75,16.98,2.09,25.44,3.04,17.98,2.02,35.26.89,52.62-3.68,2.47-.65,5.9-4.2,8.6.17-28.83,9.81-57.71,10.23-86.65.47Z"/>
      <path class="cls-6" d="M133.22,364.5c-2.42,4.84-8.07,8.24-5.77,15.2.64,1.94-2.27,4.19-4.62,4.9-4.47,1.36-7.12,3.33-4.37,8.36,3,5.48,5.87,1.16,8.86,0,1.07-.41,2.34-.31,3.52-.44-11.4,10.24-13.7,9.15-19.05-9,2.92-.17,5.85-.33,8.77-.5,3-.4,5.17-2.2,5.33-5.04.18-3.09-2.89-3.21-5.12-3.83,1.62-6.48,8.67-5.98,12.45-9.67Z"/>
      <path class="cls-6" d="M307.37,412.33c1.03.47,2.91.86,2.97,1.43,1.28,12.24,7.26,5.88,12.68,3.35-3.88-7.64-13.13-10.83-14.9-19.61-.02-.1.5-.48.7-.44.57.13,1.1.41,1.65.64,2.79,6.71,9.2,10.18,13.74,15.32,3.08,3.49,3.51,5.96-1.76,7.68-4.84,1.57-9.49,3.71-14.23,5.59-2.02-4.55-.28-9.33-.83-13.97Z"/>
      <path d="M82.44,337.86c-.58.65-1.16,1.31-1.74,1.97-7.18-5.37-12.11,1.86-18.09,3.24-.14-.21-.3-.38-.47-.53-.07-.07-.14-.14-.22-.19-.17-.13-.34-.24-.52-.32-.09-.05-.18-.09-.27-.12-.09-.04-.19-.07-.29-.1-.38-.12-.79-.18-1.21-.2-.1,0-.2-.02-.31-.02-.11,0-.21,0-.32,0-.54-.01-1.08,0-1.62-.02-.1,0-.21-.01-.31-.01-.11-.01-.21-.02-.32-.03-.22-.02-.44-.04-.64-.09-.09-.02-.18-.04-.27-.06-.1-.03-.2-.05-.29-.09-.09-.03-.18-.07-.28-.11-.18-.08-.36-.18-.53-.3-.17-.11-.33-.25-.48-.41-.16-.16-.3-.35-.43-.56-.07-.1-.13-.21-.19-.33h0c13.12.23,22.68-7.46,32.48-14.61.03.09.06.18.08.27.02.09.03.17.03.26.03.33-.02.66-.1,1-.08.31-.18.63-.29.94-.03.1-.07.21-.1.31-.08.28-.16.56-.2.83-.03.22-.04.44-.02.65.02.16.06.32.12.48.06.16.15.31.26.47.06.07.13.15.2.23.14.14.32.29.53.44-1.94,2.02-5.39,3.14-4.2,7.02Z"/>
      <path class="cls-5" d="M97.57,357.77c-5.87-3.41-7.33-9.38-9.52-14.87.82-1.83,2.07-3.08,4.24-3.05,6.71,3.96,7.99,8.11,5.28,17.92Z"/>
      <path class="cls-6" d="M311.47,394.48c3.26-6.17,10.83-5.28,15.4-9.52,6.71-6.23,13.83-12.03,20.77-18.02-7.74,14.84-20.93,22.53-36.17,27.53Z"/>
      <path d="M307.78,454.1c-1.91,1.97-4.13,2.55-6.37.81-2.33-1.8-4.41-3.91-6.6-5.89.03-.75.06-1.49.1-2.23,2.68,1.62,5.64,2.35,8.54,1.16,2.53-1.03,4.57-1.49,5.88,1.42.87,1.93-.26,3.4-1.55,4.73Z"/>
      <path class="cls-5" d="M290.91,446.38c-4.52,2.38-8.13,4.35-11.8,6.2-1.85.93-3.63.36-4.66-1.28-1.64-2.63,1.22-2.82,2.44-3.61,3.89-2.52,7.68-6.27,14.02-1.31Z"/>
      <path d="M291.88,466.71c-3.6,1.87-4.68-.63-5.71-3.36-.52-1.37-1.41-2.6-2.14-3.89.61-.6,1.21-1.21,1.81-1.81,1.38.5,2.72,1.23,4.14,1.45,2.38.36,5.94-1.56,6.36,2.47.26,2.46-2.31,4.02-4.46,5.14Z"/>
      <path class="cls-6" d="M305.54,426.53c-9.04,3.36-3.97-4.27-5.36-6.87,2.12-.92,1.81-5.15,4.62-4.34,2.79.8,1.4,3.96,1.49,6.08.07,1.7-.48,3.42-.75,5.14Z"/>
      <path d="M305.54,426.53c.27-1.71.83-3.44.75-5.13-.09-2.12,1.29-5.28-1.49-6.08-2.81-.8-2.5,3.42-4.62,4.34-.56.02-1.12-.02-1.67-.13.1-.6.2-1.2.3-1.81,2.43-2.46,3.84-6.55,8.56-5.39,3.43,4.34,1.27,10.97.83,13.97-.89.08-1.77.15-2.66.23Z"/>
      <path class="cls-6" d="M298.82,417.72c-.1.6-.2,1.2-.3,1.81-7.85-.59-9.9-7.43-13.55-12.56,6.27,1.46,7.2,9.78,13.85,10.76Z"/>
      <path class="cls-6" d="M296.54,13.78c5.39.38,10.78.91,16.18,1.08,5.68.18,6.01,3.36,3.83,7.15-10.28,17.81-16.91,37.2-24.68,56.1-1.45,3.54-4.24,4.67-7.26,6.1-10.15,4.8-19.08,10.89-24.28,21.51-3.08,6.3-7.47.32-11.25.35-5.51-6.24-2.56-13.69-2.96-20.66,2.67-16.8,2.69-33.6-.05-50.39-.06-6.53-.02-13.06-.21-19.59-.12-3.97,1.07-6.38,5.53-5.87,4.59,3.74,10.32,1.72,15.41,2.57,9.73,1.62,19.63,5.02,29.72,1.66Z"/>
      <path class="cls-3" d="M253.24,153.07c-2.37,0-4.18-.03-5.98,0-5.23.12-10.87-.38-14.64-3.57-5.23-4.42,1.21-8.96,1.83-13.57.91-6.82,2.96-13.48,3.97-20.29.62-4.17,2.16-5.08,5.95-3.63,9.69,3.69,19.76,5.26,30.1,4.5,4.8-.35,6.41,1.69,6.24,6.29-.24,6.3-.28,12.62,1.14,18.86.98,4.32-1.08,6.56-5.25,7.88-7.82,2.47-15.71,4.01-23.37,3.53Z"/>
      <path class="cls-6" d="M350.67,80.08c-.83,5.92-3.89,10.44-10.61,10.76-3.8.18-7.37-1.72-6.83-6.38.72-6.23,4.05-10.56,10.74-11.25,4.62-.47,6.42,2.27,6.7,6.87Z"/>
      <path class="cls-6" d="M251.41,9.56c-4.46-.5-5.65,1.9-5.53,5.87.19,6.53.15,13.06.21,19.59.02,16.8.03,33.59.05,50.39.39,6.97-2.55,14.42,2.96,20.66-3.47-.34-6.7-.68-6.1-5.66,3.36-27.68.99-55.44.9-83.16-.04-11.21-.12-11.21,11.55-8.2-1.34.17-2.69.34-4.03.51Z"/>
      <path class="cls-6" d="M271.31,101.76c1.47-3.48,4.96-4.58,7.67-6.63,1.65-1.25,3.06-3.15,5.29-1.58,2.95,2.07,1.89,4.48.14,6.79-1.69.51-1.7,2.39-2.65,3.36-4.16,4.27-8.85,3.32-10.46-1.94Z"/>
      <path class="cls-6" d="M251.41,9.56c1.34-.17,2.69-.34,4.03-.51,13.7,1.58,27.4,3.15,41.1,4.73-10.09,3.36-20-.04-29.72-1.66-5.09-.85-10.82,1.17-15.41-2.56Z"/>
      <path class="cls-6" d="M271.31,101.76c1.61,5.26,6.3,6.21,10.46,1.94.95-.98.96-2.85,2.65-3.36-1.33,8.19-4.83,9.96-18.36,9.09,1.38-2.95,2.28-5.96,5.26-7.66Z"/>
      <path class="cls-6" d="M78.85,215.83c3.99-3.74-.19-4.42-2.25-5.24-4.16-1.66-8.62-2.56-12.75-4.28-3.61-1.5-5.64-4.63-5.17-8.65.57-4.87,4.97-3.73,7.82-3.99,8.32-.76,16.02,2.11,23.34,5.66,5.44,2.64,7.74,1.52,7.53-4.63-.12-3.58-.42-7.31,1.36-10.61,2.58-4.8,5.79-8.01,11.13-3.05-.02,5.84-.05,11.68-.07,17.51-3.52,3.54-7.92,6.37-9.32,11.61-.52,1.96-1.76,4.14.55,5.64,2.39,1.54,3.8-.49,5.2-1.99,3.02-3.24,4.53-7.71,8.39-10.27.89-.06,1.81,0,2.65-.2,5.55-1.39,6.75,2.09,7.07,6.37.43,5.8-3.75,2.83-6.05,2.91-3.34.11-5.84.95-6.46,4.64-7.23,9.52-9.81,21.28-15.26,31.64-1.31,2.5-.15,4.25.94,5.75,1.84,2.56.84,4.66-.66,6.38-.71.82-2.89.95-4.15.57-2.63-.79-3.66-3.08-3.41-5.69.48-5.04,1.16-10.06,1.82-15.7-6.05.64-8.09,5.19-10.77,8.85-2.68,3.66-5.11,7.81-9.88,8.79-4.05.83-9.21,1.88-11.37-2.65-1.89-3.98-.04-8.47,3.7-11.2,2.88-2.11,6.21-3.66,9.46-5.19,3.02-1.42,6.04-2.73,8.16-5.45-2.54-7.17-8.45-4.53-12.87-3.65-4.8.96-9.49,1.01-14.26,1.07-2.77.04-5.71-.19-6.46-3.53-.81-3.62,1.8-5.55,4.56-6.86,4.41-2.1,9.18-2.19,14.01-2.42,4.5-.22,9.6,2.25,13.47-2.15Z"/>
      <path class="cls-6" d="M440.15,283.23c1.98.69,4.03,1.22,5.92,2.1,3.78,1.74,8.46,3.19,7.25,8.72-1.21,5.53-5.54,7.43-10.85,7.57-11.92.32-17.55-6.18-15.8-18.54.41-2.9.78-5.73-2.69-6.56-3.25-.78-3.81,2.29-4.6,4.43-1.66,4.49-2.72,9.24-4.73,13.55-1.79,3.84-5.53,5.33-9.79,5.14-3.31-.14-5.13-1.53-4.26-5.14,7.75-2.47,8.6-8.99,8.79-15.59.18-6.19-.21-12.39-.35-18.59.31-2.14-.14-4.55,2.15-5.98,2.86,1.35,2.89,8.04,7.24,5.32,3.56-2.22.77-6.63-.54-9.83-4.89-11.85-3.19-20.35,5.79-27.62.08.62.17,1.24.25,1.86-6.02,7.43-7.48,15.46-3.67,24.46,1.89,4.46,4.13,11.63-.5,13.14-9.08,2.96-6.35,9.15-6.96,14.89-.7,6.62-1.63,13.23-6.28,18.83,3.53.86,5.06-.55,5.84-2.65,1.57-4.24,2.74-8.62,4.39-12.83,1.42-3.6,3.89-6.4,8.24-5.42,4.21.95,4.24,4.54,4.19,7.96-.03,2.42-.19,4.83-.13,7.25.17,6.45,4.95,7.72,9.91,8.27,4.21.47,9.56.94,10.84-4.06,1.48-5.79-5.18-5.35-8.15-7.77-.46-.38-1.05-.6-1.57-.9.02-.68.04-1.36.06-2.04Z"/>
      <path class="cls-6" d="M399.64,287.21c-2.39-5.6,1.62-10.9.67-16.59-.72-4.32-1.78-6.05-6.26-4.19-4.41,1.84-8.97,3.33-13.47,4.95-7.84,2.83-12.2.22-12.98-8.14-.39-4.17-.15-8.4-.08-12.6.12-7.5.3-14.95-2.81-22.09-1.19-2.73-1.61-5.81.31-8.61,4.28,11.39,6.07,23.08,4.95,35.29-1.31,14.33,1.48,16.32,14.76,11.79,5.17-1.76,12.59-7.66,15.23-3.8,4.62,6.72,3.35,15.99-.32,24Z"/>
      <path class="cls-6" d="M125.99,272.27c-3.45,23.84-2.04,47.54,2.11,71.16-.1.68-.19,1.37-.29,2.06-8.12-22.26-9.11-45.05-4.98-68.2.36-2.01.7-4.24,3.16-5.02Z"/>
      <path class="cls-6" d="M332.93,178.16c-8.15-3.03-15.22-8.21-23.47-11.19-18.96-6.85-38.62-4.4-58.04-5.24.72-.63,1.45-1.25,2.18-1.88,15.94.1,31.98-2.42,47.76,2.03,11.42,3.22,22.31,7.46,31.64,15.04-.02.41-.05.83-.06,1.24Z"/>
      <path class="cls-6" d="M78.85,215.83c-3.87,4.4-8.97,1.93-13.47,2.15-4.83.24-9.61.32-14.01,2.42-2.75,1.31-5.37,3.24-4.56,6.86.75,3.34,3.69,3.56,6.46,3.53,4.77-.06,9.46-.11,14.26-1.07,4.42-.88,10.33-3.52,12.87,3.65-7.16-3.12-14.41-.93-21.41.24-6.62,1.11-12.51.49-15.36-5.63-2.05-4.4,6.29-11.37,13.49-11.72,7.24-.35,14.49-.3,21.74-.43Z"/>
      <path class="cls-6" d="M132.03,230.45c-.59.04-1.2.18-1.77.09-4.25-.7-7.27-8.21-11.52-4.32-5.42,4.95-7.93,12.5-10.23,19.59-.86,2.65,1.45,4.18,4,5.01,3.69,1.19,7.31,2.59,10.23,5.31-.74.05-1.47.11-2.2.16-17.6-5.63-18.1-6.81-9.68-22.59.14-.26.32-.51.46-.77,7.62-14.23,9.08-14.4,20.72-2.48Z"/>
      <path class="cls-6" d="M169.62,191.68c-3.46,10.75-12.18,18.35-16.99,28.3-2.24,4.63-4.7,9.23-9.01,12.27-4.38,3.08-8.8,4.4-11.84-1.89,7.66,4.54,11.79-.19,15.34-5.99,6.91-11.3,12.9-23.24,22.49-32.69Z"/>
      <path class="cls-6" d="M364.22,327.49c-1.79-28.63,3.55-34.91,32.75-38.54-6.36,4.81-13.92,7-21.32,9.32-5.58,1.75-8.44,4.38-8.32,10.72.12,6.23-.82,12.54-3.12,18.5Z"/>
      <path class="cls-6" d="M411.21,254.35c-2.3,1.42-1.84,3.84-2.15,5.98-3.72-9.79-10.09-4.66-15.88-2.83-.35-6.92,4.5-9.58,9.9-10.52,4.87-.85,7.45,2.65,8.13,7.37Z"/>
      <path class="cls-6" d="M332.93,178.16c.02-.41.04-.83.06-1.24,11.49,7.74,20.28,17.83,26.36,30.28-8.81-9.68-17.62-19.36-26.43-29.04Z"/>
      <path class="cls-4" d="M404.94,286.81c-.9-9.25.7-18.43-1.65-27.47,5.17,8.94,4.93,18.21,1.65,27.47Z"/>
      <path class="cls-6" d="M111.83,217.28c.62-3.69,3.12-4.53,6.46-4.64,2.31-.08,6.48,2.89,6.05-2.91-.32-4.28-1.51-7.77-7.07-6.37-.85.21-1.77.14-2.65.2,2.7-3.27,5.78-5.93,9.47-1.59,3.57,4.2,4.22,9.2,1.71,14.23-.8,1.61-2.67,1.34-3.83.18-3.81-3.8-6.94-1.4-10.13.91Z"/>
      <path class="cls-6" d="M234.96,158.29c-7.76-.9-15.2,3.01-23,1.57,9.98-4.96,20.26-4.75,30.7-1.81-2.57.08-5.14.16-7.7.24Z"/>
      <path d="M120.77,374.18c2.23.62,5.3.74,5.12,3.83-.16,2.85-2.33,4.64-5.33,5.04-2.37-1.06-4.73-2.12-7.09-3.18,2.9-.21,6.09.92,8.99-1.39-1.98-3.49-4.93-2.29-7.27-2.82,1.5-1.84,3.59-1.47,5.58-1.49Z"/>
      <path class="cls-6" d="M127.81,345.48c.1-.69.19-1.37.29-2.06,3.47,5.43,7.1,10.81,6.03,17.77-2.9-4.92-5.55-9.94-6.32-15.72Z"/>
      <path class="cls-6" d="M109.8,198.56c.02-5.84.05-11.67.07-17.51,4.48,5.85,4.41,11.69-.07,17.51Z"/>
      <path class="cls-6" d="M120.53,256.29c.73-.05,1.47-.11,2.2-.16,7.66,2.45,9,6.67,3.59,12.79,1.54-5.8-.37-10.02-5.79-12.63Z"/>
      <path class="cls-6" d="M115.19,375.66c2.33.53,5.28-.67,7.27,2.82-2.9,2.31-6.09,1.18-8.99,1.39-2.36-2.61.1-3.24,1.73-4.21Z"/>
      <path class="cls-6" d="M234.96,158.29c2.57-.08,5.14-.16,7.7-.24,3.73.08,7.5-.07,10.94,1.81-.73.63-1.45,1.25-2.18,1.88-5-3.47-11.54.4-16.47-3.45Z"/>
      <path class="cls-6" d="M440.09,285.27c.53.29,1.11.52,1.57.9,2.98,2.42,9.64,1.98,8.15,7.77-1.28,5.01-6.63,4.54-10.84,4.06-4.96-.56-9.74-1.83-9.91-8.27-.06-2.41.1-4.83.13-7.25.05-3.42.02-7.01-4.19-7.96-4.36-.98-6.83,1.81-8.24,5.42-1.65,4.2-2.82,8.59-4.39,12.83-.78,2.1-2.31,3.52-5.84,2.65,4.65-5.6,5.58-12.21,6.28-18.83.61-5.74-2.12-11.93,6.96-14.89,4.63-1.51,2.39-8.68.5-13.14-3.81-9-2.35-17.03,3.67-24.46,10.29-2.03,6.32,5.67,6.98,10.21-.99,2.14-2.21,4.22-2.91,6.45-1,3.17-3.84,6.47.48,9.57,4.37,3.14,6.93.39,9.97-2.29,5.37-4.72,11.69-7.19,18.99-6.5,2.59.24,6.15-.46,6.72,2.9.54,3.2-1.87,5.76-4.93,6.71-4.53,1.39-9.26,2.15-13.83,3.42-3.85,1.07-8.78,1.07-8.63,7.1.27.41.31.84.12,1.3,1.24,5.59,5.82,3.99,9.43,4.3,4.43.39,9.01-.79,13.25,1.39,1.61.83,3.36,1.66,3.05,3.86-.26,1.83-2.14,1.77-3.41,2.42-4.76,2.47-9.37-.02-14.04-.38-3.79-.29-7.66.62-9.37,4.04-1.76,3.53,1.86,5.04,4.27,6.67Z"/>
      <path class="cls-6" d="M436.78,261.66c-.14-6.02,4.79-6.03,8.63-7.1,4.57-1.28,9.3-2.03,13.83-3.42,3.07-.94,5.47-3.51,4.93-6.71-.57-3.36-4.13-2.66-6.72-2.9-7.31-.69-13.62,1.78-18.99,6.5-3.04,2.68-5.6,5.43-9.97,2.29-4.32-3.11-1.48-6.4-.48-9.57.7-2.23,1.92-4.31,2.91-6.45.48.65.95,1.29,1.43,1.94.75,4.3-6.56,8.44-1.73,11.89,4.01,2.87,6.79-3.37,10.29-5.21,5.68-2.98,11.33-5.56,17.88-4.87,3.48.37,7.96.27,8.8,4.58.86,4.44-1.63,8.05-5.63,10.37-4.25,2.46-9.05,2.94-13.71,4.01-4.03.93-8.37,1.31-11.46,4.63Z"/>
      <path class="cls-6" d="M440.09,285.27c-2.41-1.64-6.03-3.14-4.28-6.67,1.7-3.42,5.57-4.33,9.37-4.04,4.68.36,9.28,2.85,14.04.38,1.26-.65,3.15-.59,3.41-2.42.31-2.2-1.43-3.03-3.05-3.86-4.24-2.18-8.83-1-13.25-1.39-3.61-.32-8.2,1.29-9.43-4.3,6.31,2.61,13.01,1.39,19.52,1.98,4.71.42,9.95,1.89,9.79,7.14-.15,5.33-5.4,6.49-10.22,6.37-4.48-.11-8.96-.49-13.44-.54-4.61-.06-5.24,1.91-2.4,5.33-.02.68-.04,1.36-.06,2.04Z"/>
      <path class="cls-6" d="M432.35,236.24c-.48-.65-.95-1.29-1.43-1.94-.65-4.55,3.31-12.25-6.98-10.22-.08-.62-.16-1.24-.25-1.86,11.11-2.21,12.37-.18,8.65,14.01Z"/>
      <path class="cls-2" d="M191.75,380.84c-14.94-9.59-25.43-22.67-30.94-39.63-2.13-13.18-2.65-26.31-.78-39.64,3.05-21.68,12.78-40.7,22.38-59.85,2.43-3.3,4.62-6.82,7.33-9.86,4.06-4.55,7.44-4.7,8.78,2.25-5.32,8.78-5.14,18.06-.75,26.77,10.08,19.98,24.06,36.29,48.34,36.8,24.6.52,44.22-9.74,56.05-32.39,5.79-6.55,5.26-15.12,7.33-22.86.64-2.39,1.71-5.07,4.33-5.19,2.51-.11,3.93,2.34,5.03,4.57,2.71,5.48,1.61,11.12.93,16.81-1.65,13.71-3.09,27.45-4.62,41.18-.77,5.93-1.53,11.86-2.3,17.79-.63,2.3-1.36,4.58-1.89,6.91-5.35,23.87-16.2,44.09-37.84,57.17-27.27,13.31-54.4,12.7-81.4-.83Z"/>
      <path d="M281.19,250.71c-2.09,1.52-4.18,3.04-6.28,4.56-16.24,6.13-31.53,5.93-44.96-6.73,0,0,.06.27.06.27-2.14-5-4.19-10.01-3.65-15.64,2.31-6.77,6.75-11.9,12.36-16.15,15.88-6.88,30.56-6.25,43.27,6.85,0,0-.14-.2-.14-.2,4.33,9.12,6.1,18.18-.66,27.03ZM257.33,253.87c11.81-.22,19.66-6.91,19.56-16.66-.11-10.42-10.01-19.1-21.34-18.7-11.84.41-20.71,8.32-20.64,18.4.06,10.18,9.34,17.2,22.42,16.96Z"/>
      <path class="cls-7" d="M222.37,180.09c1.27-2.2,2.54-4.4,3.81-6.61,6.91-4.51,12.47-2.01,17.47,3.38,0,0-.17-.27-.16-.27,1,6.31.72,12.52-2.19,18.32-2.5,4.98-6.53,7.9-12.31,6.71-5.73-1.18-7.19-5.72-7.2-10.85,0-3.56.37-7.12.58-10.69Z"/>
      <path class="cls-1" d="M281.21,180.19c4.8-3.41,9.64-2.28,14.49-.1,4.78,6.29,3.04,13.1,1.58,19.89-2.99,6.37-7.78,9.63-15.01,8.68,0,0,.26.12.26.12-7.89-7.81-8.21-14.71-1.33-28.59Z"/>
      <path class="cls-6" d="M302.17,265.28c-11.83,22.65-31.45,32.91-56.05,32.39-24.28-.51-38.26-16.82-48.34-36.8-4.4-8.71-4.57-17.99.75-26.77.09,1.36.19,2.71.28,4.07-5.14,16.08,3.68,27.5,12.7,39.09,23.68,30.45,74.6,18.64,88.96-13.75.57.59,1.14,1.18,1.71,1.77Z"/>
      <path class="cls-6" d="M302.17,265.28c-.57-.59-1.14-1.18-1.71-1.77,3.37-5.12,5.41-10.55,5.45-16.86.03-5.37,1.94-11.14,7.81-11.62,5.36-.44,7.78,4.8,9.06,9.7.45,1.73,1.34,3.67.96,5.25-3.98,16.38-2.51,33.53-7.09,49.81-.49,0-.98,0-1.48,0,1.53-13.73,2.97-27.47,4.62-41.18.68-5.69,1.78-11.33-.93-16.81-1.1-2.22-2.51-4.68-5.03-4.57-2.62.12-3.69,2.8-4.33,5.19-2.08,7.74-1.54,16.32-7.33,22.87Z"/>
      <path class="cls-6" d="M182.41,241.72c-9.6,19.15-19.33,38.17-22.38,59.85-1.88,13.34-1.36,26.47.78,39.64-4.05.35-3.43-3.1-3.64-5.11-3.52-34.27,5.24-65.59,23.06-94.68.44-.71,1.4-1.1,2.12-1.63.02.64.04,1.29.06,1.93Z"/>
      <path class="cls-6" d="M191.75,380.84c27,13.53,54.13,14.14,81.4.83,0,.57.02,1.15.05,1.72-8.79,6.03-18.32,9.65-29.16,9.07-7.8-.04-15.61-.07-23.41-.11-10.8-.88-21.16-2.88-28.88-11.51Z"/>
      <path class="cls-6" d="M273.2,383.38c-.03-.57-.05-1.14-.05-1.72,21.64-13.09,32.49-33.3,37.84-57.17.52-2.33,1.25-4.61,1.89-6.91.09,1.31.18,2.63.26,3.94-3.39,27.03-15.18,48.63-39.94,61.86Z"/>
      <path class="cls-6" d="M222.37,180.09c-.2,3.56-.58,7.12-.58,10.69,0,5.12,1.47,9.67,7.2,10.85,5.78,1.19,9.81-1.73,12.31-6.71,2.91-5.79,3.19-12,2.19-18.32,5.26,7.01,2.73,14.23-.37,20.81-2.53,5.38-8.13,6.51-13.91,6.22-5.36-.26-9.53-3.02-8.4-8.12,1.15-5.2-5.31-11.07,1.55-15.43Z"/>
      <path class="cls-6" d="M229.95,248.55c13.43,12.66,28.72,12.86,44.96,6.73-8.78,10.49-20.11,6.8-30.56,4.65-6.02-1.23-13.01-3.33-14.4-11.38Z"/>
      <path class="cls-6" d="M281.99,223.88c-12.71-13.1-27.4-13.73-43.27-6.85,7.49-10.33,18.54-6.12,27.87-5.56,6.43.38,13.78,3.94,15.4,12.41Z"/>
      <path class="cls-6" d="M281.21,180.19c-6.88,13.88-6.56,20.78,1.32,28.59-6.29.09-8.89-4.92-8.83-9.29.1-6.96-.79-15.18,7.51-19.3Z"/>
      <path class="cls-6" d="M182.41,241.72c-.02-.64-.04-1.29-.06-1.93.51-3.69,2.22-6.82,4.95-9.26,2.7-2.41,4.9-7.05,9.57-3.88,4.34,2.95,5.2,7.03,1.93,11.53-.09-1.36-.19-2.71-.28-4.07-1.34-6.95-4.71-6.8-8.78-2.25-2.72,3.04-4.91,6.56-7.34,9.86Z"/>
      <path class="cls-6" d="M281.19,250.71c6.77-8.85,4.99-17.91.66-27.03,8.87,7.65,8.53,21.58-.66,27.03Z"/>
      <path class="cls-6" d="M297.27,199.98c1.45-6.79,3.2-13.6-1.58-19.89,8.04,4.78,8.55,8.17,3.01,19.97-.47-.05-.95-.07-1.42-.08Z"/>
      <path class="cls-6" d="M313.14,321.52c-.09-1.31-.18-2.63-.26-3.94.77-5.93,1.53-11.86,2.3-17.79.49,0,.99,0,1.48,0-.31,7.38,1.6,15.13-3.51,21.73Z"/>
      <path class="cls-6" d="M297.27,199.98c.48,0,.95.04,1.43.08-2.71,10.48-7.23,12.85-16.43,8.6,7.22.95,12.01-2.32,15-8.68Z"/>
      <path class="cls-6" d="M243.65,176.86c-5-5.39-10.56-7.88-17.47-3.38,1.25-5.53,5.75-4.77,9.38-4.18,4,.65,8.59,1.65,8.09,7.56Z"/>
      <path class="cls-6" d="M220.63,392.34c7.8.04,15.61.07,23.41.11-7.82,2.78-15.62,2.78-23.41-.11Z"/>
      <path class="cls-6" d="M226.35,233.18c-.55,5.62,1.51,10.64,3.65,15.64-6.87-3.77-6.42-9.87-5.13-16.22.01-.06.56-.1.8,0,.26.11.46.38.68.58Z"/>
      <path d="M90.19,363.74c-1.08,2.75-1.99,5.58-3.28,8.22-1.02,2.09-3.06,2.94-5.3,2.29-2.36-.69-3.03-2.62-2.81-4.96.23-2.33.92-4.47,3.76-3.56,3.25,1.06,4.43-2.83,7.2-2.52l.43.53Z"/>
      <path class="cls-6" d="M246.14,85.42c-.02-16.8-.03-33.6-.05-50.39,2.74,16.8,2.72,33.59.05,50.39Z"/>
      <path class="cls-8" d="M257.33,253.87c-13.08.24-22.36-6.78-22.42-16.96-.06-10.09,8.8-17.99,20.64-18.4,11.33-.39,21.22,8.28,21.34,18.7.11,9.75-7.75,16.44-19.56,16.66Z"/>
    </g>
  </g>
</svg>