<?xml version="1.0" encoding="UTF-8"?>
<svg id="Layer_1" data-name="Layer 1" xmlns="http://www.w3.org/2000/svg" viewBox="0 0 512 512">
  <defs>
    <style>
      .cls-1 {
        fill: #fad105;
      }

      .cls-2 {
        fill: #1c1c1c;
      }

      .cls-3 {
        fill: #fcd103;
      }

      .cls-4 {
        fill: #fed200;
      }

      .cls-5 {
        fill: #fdd201;
      }

      .cls-6 {
        fill: #025fab;
      }

      .cls-7 {
        fill: #b26404;
      }

      .cls-8 {
        fill: #b26403;
      }

      .cls-9 {
        fill: #fad104;
      }

      .cls-10 {
        fill: #fefefe;
      }

      .cls-11 {
        fill: #db042b;
      }

      .cls-12 {
        fill: #f9d104;
      }
    </style>
  </defs>
  <g id="ydWVhu">
    <g>
      <path class="cls-2" d="M423.65,445.47c-2.61-13.04-7.58-25.16-15.71-35.82-5.05-6.63-10.53-12.38-20.16-10.11-1.96.46-4.12.08-6.2.05-7.56-.11-13.91,2.41-18.97,8.24-3.44,3.97-6.9,8-11.28,11.03-8.3,5.77-16.96,3.99-22.15-4.66-1.54-2.57-2.65-5.39-3.98-8.08-1.14-2.29-.93-3.83,1.46-5.54,7.1-5.09,13.03-11.4,17.54-18.93,14.67-24.49,15.24-50.55,8.33-77.36-2.49-9.66-6.66-18.74-10.67-27.83-1.24-2.82-.92-4.82,1.36-6.26,2.37-1.49,2.37,1.57,3.32,2.49,4.43,4.26,9.59,6.53,15.68,6.69,9.14.24,13.52-3.6,14.55-12.66.14-1.22-.45-2.63,1.25-3.36,5.57-2.39,5.9-7.3,5.73-12.35-.08-2.49.2-4.52,2.11-6.61,4.67-5.13,4.97-10.45,1.63-16.6-5.66-10.44-19.77-15.95-31.14-12.14-2.02.68-3.67,1.97-5.93-.38-6.58-6.87-14.43-12.07-23.4-15.31-3.1-1.12-2.69-2.75-1.96-5.11,1.94-6.27,4.01-12.53,5.52-18.91,6-25.3,10.12-50.64-.63-75.83-.33-.79-1.02-2.16.15-2.41,5.04-1.1,3.38-5.3,3.66-8.2.69-7.13.2-14.29-.86-21.4-6.62-44.53-42.15-63.5-76.17-61.5-23.19,1.37-41.51,12.25-55.76,30.16-2.59,3.26-3.78,2.8-6.18.25-5.55-5.88-11.18-11.72-17.05-17.29-8.77-8.33-18.01-16.12-30.21-18.94-18.86-4.35-32.91,9.79-28.73,28.58,2.26,10.18,7.5,18.19,15.77,24.54,12.6,9.67,26.32,17.2,41.7,22.4-11.72,17.9-20.1,36.95-27.81,56.32-1.25,3.14-2.39,3.23-5.05,1.26-4.37-3.25-9.56-4.13-14.99-3.71-14.28,1.13-25.11,14.21-21.58,26.63,3.12,10.97,12.13,14.58,22.23,16.28,2.33.39,4.41-.18,2.95,3.69-5.15,13.67-6.47,28.16-8.12,42.53-1.21,10.48-2.54,11.35-11.71,5.88-1.44-.86-2.79-1.91-4.09-2.99-1.93-1.61-2.87-2.69.03-4.97,6.88-5.41,8.26-13.11,4.8-21.91-3.24-8.24-10.09-12.99-18.16-12.6-8.06.39-13.55,4.99-16,14.2-.78,2.93-1.79,3.79-4.81,3.93-6.56.3-14.62,1.76-15.88,8.36-1.58,8.25-5.23,15.73-6.57,23.9-.21,1.26-.24,2.8.3,3.89,1.45,2.93.23,4.71-1.74,6.88-4.24,4.68-4.41,9.71-.25,14.18,7.01,7.53,16.02,10.09,26.11,9.31,8.64-.67,13.49-5.6,15.01-14.3,9.13,7.14,19.35,10.39,29.6,13.53,2.54.77,4.08,1.53,4.52,4.67,4.19,30.21,14.76,58.12,30.88,83.96,2.72,4.34,5.55,8.61,8.67,13.44-19.61,1.42-32.51,14.24-47.25,24.78-.36-4.57-.54-8.13-.95-11.68-.42-3.54-1.27-6.99-2.54-10.36-4.85-12.87-13.58-18.19-27.15-16.46-1.81.23-3.55.65-5.43-.5-4.96-3.04-9.76-1.69-14.27,1.23-7.61,4.92-11.22,12.55-13.29,20.91-4.87,19.63-3.71,39.18,1.85,58.5,3.43,11.92,9.19,22.65,17.96,31.51,7.25,7.3,17.16,9.16,22.94,2,4.18-5.18,10.16-8.55,13.34-14.45.09-.17.18-.33.27-.5,15.38-28.21,38.02-48.01,68.04-59.69,7.45-2.9,13.78-3.92,19.88,2.09.51.5,1.29.75,1.95,1.11,25.97,14.34,53.72,19.98,83.2,16.71,4.61-.51,6.53.03,6.9,5.37.71,10.23,5.02,19.28,12.29,26.57,14.08,14.09,30.98,17.68,49.84,12.25,4.21-1.21,5.32-.56,5.44,3.86.33,11.7,5.02,22.16,9.51,32.77,4.07,9.65,21.53,19.9,31.97,15.49,1.42-.59,2.8-.3,4.33.28,11.4,4.33,20.54-.63,22.18-12.77,2.35-17.46,1.48-34.95-1.97-52.22ZM323.51,233.19c2.68,2.05,5.09,2.59,4.94,5.35-.02.46-1.3,1.37-1.57,1.23-2.23-1.15-2.28-3.42-3.37-6.58Z"/>
      <path d="M430.8,430.78c3.91-3.65,7.07-6.82,8.8-11.09,3.06-7.54-.41-13.12-8.43-13.6-1.57-.09-4.07.61-4.16-1.63-.12-2.97,2.73-1.83,4.3-1.89,7.95-.28,14.01,5,14.59,12.49.61,7.84-5.64,14.73-15.1,15.72Z"/>
      <path d="M142.76,457.08c-1.38,8.31-4.43,15.18-10.84,20.17-1.63,1.27-3.51,2.15-5.66,2.21-1.72.05-3.9.18-4.47-1.54-.67-2.04,1.85-1.89,2.99-2.53,4.8-2.7,9.32-5.75,11.87-10.79,2.04-4.02,3.17-8.17-1.79-11.28-1-.63-2.58-1.62-1.53-3.07,1.07-1.48,2.77-.98,3.99.02,2.39,1.96,5.42,3.54,5.45,6.81Z"/>
      <path d="M95.99,277.19c.91,2.82.93,5.25-.25,7.71-3.02,6.34-8.71,7.94-14.94,7.92-6.23-.02-11.91-1.72-14.97-7.95-.64-1.31-1.73-3.09-.23-4.06,1.4-.9,2.72.62,3.71,1.76,8.2,9.45,16.76,8.7,23.43-2.03.75-1.21,1.32-2.61,3.24-3.35Z"/>
      <path d="M406.08,248.95c2.35-4.43,4.29-7.6,5.77-10.97,2.88-6.58,1.26-10.24-5.36-13.16-1.25-.55-3.44-1-2.33-2.94,1.22-2.15,3.65-1.65,5.57-.96,7.54,2.69,10.31,15.77,4.71,22.05-2.01,2.25-4.47,3.96-8.36,5.98Z"/>
      <path d="M145.52,477.7c2.28-2.15,3.91-3.63,5.47-5.16,5.11-5.01,5.56-8.04,2.24-14.38-.57-1.08-1.94-2.29-.62-3.45,1.08-.95,2.51-.14,3.66.41.65.31,1.2.9,1.69,1.46,2.91,3.29,2.76,10.28-.49,15.94-2.39,4.17-5.57,7.02-11.97,5.19Z"/>
      <path d="M458.15,419.18c.81-2.64,2.67-4.85,2.51-7.75-.2-3.64-.78-6.72-5.37-7.04-2.12-.15-4.81-1.17-4.19-3.49.71-2.64,3.75-2.01,5.84-1.4,6.53,1.91,10.69,12.93,6.71,17.6-1.31,1.54-2.95,2.9-5.5,2.08Z"/>
      <path class="cls-4" d="M375.32,256.59c-4.58-4.18-8.2-8.38-13.25-10.63-1.42-.63-3.34-2.42-4.81.19-1.27,2.25.36,3.58,1.74,4.76,2,1.7,4.4,2.95,6.28,4.75,4.05,3.86,4.63,13.52,1.14,15.8-5.19,3.39-13.19.58-15.55-5.4-1.62-4.12-.69-8.6-1.94-12.76-.32-1.07-.29-2.26-.71-3.28-.49-1.19-1.15-2.34-2.81-2.36-1.64-.02-2.44.95-2.85,2.24-1.07,3.39-1.99,6.83-3,10.24-1.85,6.23-7.05,10.19-12.21,9.59-3.48-.4-4.94-1.88-4.32-5.54,1.44-8.62,5.32-15.84,12.88-20.23,5.03-2.92,3.87-5.65,1-8.71-8.76-9.36-19.26-13.44-32.03-9.84-10.44,2.95-19.7,8.21-28.32,14.67-1.19.89-2.35,1.98-3.11,3.23-.91,1.49-1,3.27.29,4.71,1.39,1.56,2.83.49,4.04-.27,1.75-1.09,3.37-2.39,5.02-3.63,8.37-6.32,17.65-10.6,27.9-12.9,3.11-.7,4.51.12,5.21,3.15.89,3.83,1.78,7.7,4.06,11.03.99,1.44.64,2.8-.1,4.23-1.03,2-2.03,4.03-2.89,6.11-5.25,12.77-1.04,19.99,12.61,21.37,1.9.19,3.09.66,3.96,2.39,12.42,24.76,19.65,50.46,12.79,78.24-4.08,16.51-14.01,29.42-27.77,39.2-3.29,2.33-3.97,4.35-2.37,7.76,1.75,3.73,3.03,7.7,4.98,11.32,5.94,11.06,16.03,15.28,27.79,11.24,5.17-1.78,9.14-1.81,11.95,3.38,2.96,5.47,1.65,12.73-2.51,16.2-18.25,15.18-43.11,5.17-52.75-9.63-5.12-7.87-8.34-16.43-8.8-25.79-.23-4.65-2.47-6.32-6.56-6.52-1.87-.09-3.82-.21-5.63.17-26.01,5.54-50.26-.08-73.64-11.41-6.94-3.37-13.61-7.2-20.03-11.48-2.22-1.48-4.33-3.33-6.09.64-.36.81-1.76,1.34-2.78,1.65-20.36,6.22-37.44,18.01-53.79,31.17-2.01,1.62-3.58,6.35-7.63,2.76-3.51-3.12-4.95-9.92-2.9-13.45.56-.96,1.3-1.86,2.12-2.63,13.16-12.31,27.21-23.13,45.21-27.51,3.72-.9,6.92-.97,9.62,2.36,1.01,1.25,2.61,2.14,4.1,2.88,1.83.91,3.67.63,5.16-.92,1.83-1.9-.2-3.08-.98-4.35-.98-1.58-2.1-3.22-3.53-4.37-15.52-12.5-23.28-30.13-31.34-47.49-10.4-22.41-15.73-46.07-16.33-70.79-.05-2.26-.67-4.48,3.38-3.25,29.18,8.83,52.71-.67,71.81-23.08,9.74-11.43,15.71-25.07,20.93-39.03.2-.53.51-1.05.55-1.59.23-3,2.29-7.05-1.99-8.24-4.55-1.26-4.61,3.33-5.52,6.15-8.26,25.61-21.58,47.3-47.3,58.58-11.91,5.22-24.43,5.42-36.72.27-3.85-1.61-5.48-4.01-5.42-8.6.22-18.5,2.39-36.68,7.08-54.58,1.51-5.75,4.02-10.87,8.03-15.27,3.84-4.21,5.89-9.09,5.45-14.91-.1-1.29-.12-2.73.35-3.9,10.1-25.28,19.73-50.81,36.42-72.77,3.4-4.48,7.5-8.43,11.13-12.73,2.03-2.41,3.41-2.22,5.87-.18,19.64,16.32,40.64,30.42,65.37,37.95,15.39,4.68,31.13,7.26,47.24,5.55,3.87-.41,4.38,1.54,5.17,4.12,7.01,23.02,6.47,45.83-1.5,68.57-2.23,6.35-3.64,12.99-5.34,19.53-.7,2.71-1.64,4.24-5.02,4.73-14.81,2.12-27.33,9.99-40.15,16.99-1.13.62-3.22,1.1-2.45,3.09.65,1.68,2.21,2.37,4.13,2.34,4.81-.07,8.52-2.78,12.25-5.22,7.15-4.66,14.75-7.87,23.15-9.73,15.67-3.47,27.6,2.04,37.12,14.16,3.15,4.01,5.66,7.03,11.27,2.35,4.81-4.01,17.63-1.23,22.08,3.49,1.77,1.88,2.61,4.11,2.67,6.64.14,5.37-1.06,6.15-5.75,3.65-4.3-2.29-8.49-5-13.62-4.65-1.29.09-3.33-.26-3.74,1.73-.43,2.07,1.14,3.03,2.73,3.75,1.19.54,2.45.93,3.7,1.31,9.8,2.92,11.59,5.77,10.12,17.23Z"/>
      <path class="cls-6" d="M307.78,95.27c-18.61-.21-33.49-5.18-48.2-10.99-20.29-8-37.08-21.12-52.86-35.75-1.77-1.64-2.92-2.86-1.07-5.57,19.98-29.29,62.73-38.47,92.5-19.32,14.53,9.34,22.2,23.55,25.63,40.16,1.56,7.54,2.08,15.23,2.15,22.93.04,3.84-1.51,6.18-5.63,6.96-5.01.94-9.96,1.89-12.53,1.58Z"/>
      <path class="cls-11" d="M406.32,478.96c.39,4.57-.27,9.05-1.26,13.44-2.54,11.24-11.68,14.95-21.32,8.82-9.05-5.76-12.63-15.06-15.68-24.57-3.48-10.84-3.58-21.55.87-32.41,3.37-8.21.86-15.47-6.24-20.87-2.31-1.75-2.63-2.68-.36-4.5,4.22-3.37,7.14-8.3,12.31-10.55,4.02-1.75,7.84-2.57,10.7,2.17,12.71,21.09,20.11,43.79,20.98,68.47Z"/>
      <path class="cls-11" d="M109.18,389.3c-.22,4.68-.72,9.39-.89,14.01-.26,7.22,2.54,14.2,7.46,19.45,2.38,2.54,2.06,3.73.66,5.91-4.56,7.12-9.01,14.32-13.69,21.35-3.34,5.03-5.74,5.24-9.63.48-9.92-12.13-16.48-25.86-19.18-41.41-2.39-13.78-1.16-27,6.13-39.12,2.86-4.76,6.25-9.79,12.97-9.39,7.35.44,10.91,5.88,14,11.55,2.93,5.38,2.01,11.36,2.15,17.15Z"/>
      <path class="cls-10" d="M140.06,8.09c8.51-.12,15.58,3.64,22.14,8.51,10.04,7.47,17.86,17.22,26.58,26.06q8.39,8.5.02,17.18c-1.18,1.22-2.81,2.24-3.44,3.7-2.92,6.76-7.59,5.24-12.74,3.24-13.75-5.33-26.84-11.74-37.35-22.41-5.79-5.87-10.29-12.45-10.34-21.16-.06-10.25,4.8-15.11,15.13-15.11Z"/>
      <path class="cls-8" d="M77.03,359.22c-5.7,8.69-9.48,17.84-11,28.09-2.51,16.82,1.29,32.4,8.17,47.51,3.85,8.46,8.97,16.11,15.89,22.37,2.2,1.99,2.87,3.9,1.36,6.36-1.51,2.46-3.9,2.91-6.42,1.93-4.85-1.89-8.72-5.12-11.76-9.32-9.77-13.52-13.88-29.02-14.87-45.32-.63-10.46-.92-21.04,2.11-31.34,2.66-9.05,6.91-16.79,16.52-20.27Z"/>
      <path class="cls-5" d="M99.27,223.71c6.73,5.82,13.24,11.21,22.2,11.92,2.28.18,2.26,2.05,2.25,3.83-.02,5.45-.14,10.9.09,16.34.14,3.25-1.18,3.91-3.99,3.24-9.45-2.24-18.08-6.12-25.36-12.67-3.84-3.45-2.89-7.59-.62-11.23,2.17-3.49,4.38-6.89,5.43-11.43Z"/>
      <path class="cls-5" d="M129.52,166.46c-8.08-.05-15.76-7.14-15.8-14.59-.04-7.69,8.36-14.82,17.53-14.87,7.68-.04,12.93,5.43,12.76,13.3-.2,9.27-6.42,16.21-14.49,16.16Z"/>
      <path class="cls-7" d="M407.68,504.82c10.85-19.23,6.6-38.67,1.63-57.98-3.13-12.17-8.16-23.69-14.06-34.81-.91-1.72-1.64-3.54-1.98-5.6,6.73,3.85,11.23,9.57,14.74,16.18,9.91,18.69,11.54,38.92,11.01,59.55-.15,6-.37,11.93-2.25,17.76-1.45,4.48-3.52,6.97-9.08,4.9Z"/>
      <path class="cls-3" d="M107.04,202.69c.4,5.69-3.79,8.59-8,11.53-1.77,1.23-2.72.13-3.75-1.03-2.12-2.38-4-5.05-6.42-7.06-3.74-3.09-3.96-6.5-1.9-10.43,2.15-4.11,5.71-5.85,10.21-5.47,6.14.52,9.92,5.27,9.87,12.47Z"/>
      <path class="cls-1" d="M67.02,225.26c9.51,0,16.32,4.78,17.72,11.48.49,2.36.38,4.81-1.21,6.28-1.35,1.25-3.47.07-5.2-.68-5.13-2.24-10.17-4.73-16.12-3.87-2.65.38-3.8-1.88-3.69-3.96.16-3.03.2-6.56,3.55-8.14,1.8-.85,3.98-.91,4.95-1.11Z"/>
      <path class="cls-9" d="M72.73,260.25c-6.09-.26-10.63-1.17-14.8-3.45-2-1.09-3.98-2.61-3.78-5.13.21-2.56,1.84-4.26,4.39-5.27,5.55-2.2,17.61-.05,21.74,4.08,2.83,2.84,2.34,6.59-1.26,8.29-2.38,1.12-4.97,1.64-6.29,1.48Z"/>
      <path class="cls-12" d="M74.35,207.81c9.02.03,17.2,7.75,16.58,15.58-.11,1.37-.27,2.84-1.37,3.54-1.49.95-2.24-.8-3.18-1.51-5.21-3.99-11.21-5.79-17.61-6.57-2.07-.25-4.64.46-4.93-3.08-.23-2.79.63-4.58,3.01-6.01,2.36-1.42,4.88-1.79,7.51-1.95Z"/>
      <path class="cls-2" d="M171.08,126.43c.46-8.29,2.57-16.2,8.05-22.81,2.55-3.08,5.71-5.78,10.21-4.22,4.62,1.61,6.83,5.35,6.88,10,.1,10.41-4.71,18.71-12.04,25.69-2.82,2.69-6.06,2.31-9.43.76-4.3-1.98-3.19-5.88-3.67-9.42Z"/>
    </g>
  </g>
</svg>