<?xml version="1.0" encoding="UTF-8"?>
<svg id="Layer_1" data-name="Layer 1" xmlns="http://www.w3.org/2000/svg" viewBox="0 0 512 512">
  <defs>
    <style>
      .cls-1 {
        fill: #155e93;
      }

      .cls-2 {
        fill: #171717;
      }

      .cls-3 {
        fill: #f1b4c2;
      }

      .cls-4 {
        fill: #a36c3a;
      }

      .cls-5 {
        fill: #1a1a1a;
      }
    </style>
  </defs>
  <g id="UWBahF">
    <g>
      <path class="cls-2" d="M149.06,51.72c6.91.39,12.99-1.71,19.11-3.52,15.87-4.71,18.23-10.17,10.94-25.09-3.84-7.87-9.54-11.29-18.55-8.84-11.19,3.04-19.61,14.98-20.26,28.47-.34,7.06,1.43,10.71,8.75,8.99ZM215.67,443.29c2.38-5.51,5.02-10.68,6.8-16.13.96-2.93,5.43-7.18.66-9.15-3.56-1.47-5.85,3.29-7.19,6.81-.22.57-.41,1.15-.64,1.72-4.45,10.91-5.84,11.37-15.43,3.91-6.47-5.03-13.23-8.68-21.77-7.9-6.86.62-11.16,5.6-10.2,12.24.52,3.6,1.5,5.97,5.8,3,8.01-5.56,16.7-4.57,25.51-2.13,5.88,1.63,10.95,4.93,16.47,7.64ZM500.21,496.64c-3.48-4.63-6.32-9.84-10.26-14.03-27.06-28.78-54-57.71-84.43-83.04-4.86-4.05-5.54-7.19-3.45-12.98,18.13-50.13,40.05-98.55,65.52-145.33,4.13-7.57,1.95-10.06-5.34-11.39-7.58-1.38-15.38-.41-22.84-1.57-10.05-1.57-14.36,3.2-17.41,11.51-4.99,13.62-10.38,27.1-15.61,40.63,3.78-59.21-5.4-114.9-42.38-163.03-37.55-48.87-89.37-71.27-149.13-76.8-.44-2.69.91-3.61,1.89-4.74,1.8-2.07,4.17-4.1,1.53-7.06-1.98-2.22-4.62-3.19-7.47-2.25-2.28.76-4.72,1.73-6.46,3.31-5.54,5.01-8.33,4.15-9.98-3.3-1.54-7-5.62-12.84-10.92-17.72-13.6-12.57-30.41-11.69-42.77,2.27-6.73,7.61-9.66,16.89-11.36,26.66q-2.63,15.14-17.74,15.72c-1.22.05-2.56-.16-3.64.26-4.35,1.74-6.54,4.85-1.57,7.72,7.53,4.35,3.76,6.62-.69,9.86-18.39,13.41-35.12,28.65-49.47,46.35C21.3,160.76,3.66,209.28,12.1,265.17c6.39,42.3,35.01,69.67,76.82,74.16,25.77,2.77,48.72-6.39,70.57-19,2.7-1.55,4.96-4.53,9.22-3.72-4.49,29.76,2.43,56.14,22.8,78.41,3.91,4.27,8.63,7.77,12.82,11.79,2.15,2.06,5.52,4.47,3.96,7.56-1.63,3.23-5.8,3.31-9.12,2.51-5.04-1.21-9.88-3.26-14.91-4.52-14.06-3.53-31.7,6.74-28.57,18.43,3.45,12.88,4.87,28.45,14.07,37.92,16.14,16.61,36.41,28.76,56.32,40.73,8.78,5.27,16.51,2.14,21.57-6.88,3.95-7.03,5.44-14.88,7.08-22.67,2.08-9.86,3.33-19.95,7.79-29.17,1.61-3.34,3.22-6.2,7.99-6.09,18.36.39,36.74.44,55.11.47,5.52,0,6.69,1.67,4.54,7.05-6.02,15.08-13.75,29.33-20.4,44.09-1.26,2.8-4.68,5.49-1.98,9.12,2.75,3.7,6.87,3.81,10.86,3.23,5.79-.85,11.41-1.37,17.28,0,16.69,3.88,21.44,1.3,28-14.84,1.96-4.8,3.43-9.81,4.92-14.78,3.17-10.54,6.2-21.12,9.29-31.68,1.36-4.63,3.58-5.72,7.88-2.65,6.25,4.47,12.38,9.08,17.43,14.86,11.87,13.6,23.64,27.3,35.16,41.21,6.16,7.43,12.29,12.59,23.2,9.51,6.26-1.77,13.38-.51,20.12-.57,5.24-.05,10.44-.42,15.17-2.95,4.24-2.26,6.82-5.14,3.12-10.05ZM252.76,441.36c-1.37,4.05-2.68,8.12-3.97,12.2-1.28,4.09-2.52,8.18-3.75,12.28-1.22,4.1-2.43,8.21-3.63,12.32-1.2,4.11-2.4,8.22-3.6,12.33-.17.58-.34,1.11-.52,1.61-.18.51-.37.97-.56,1.39-2.08,4.56-5.1,4.88-11.13,1.59-15.67-8.55-31.2-17.1-42.97-30.86-4.02-4.7-10.19-10.18-4.82-16.74,5.21-6.35,13.06-5.83,20.33-2.72,6.6,2.82,11.47,8.1,16.94,12.48,3.54,2.84,6.22,4.46,8.28,2.57.31-.28.6-.64.88-1.08.18-.3.36-.63.54-1.01.11-.23.22-.48.32-.75.08-.2.16-.41.23-.62.22-.65.44-1.39.65-2.22.97-3.88,2.02-7.76,3.21-11.59.36-1.15.72-2.3,1.1-3.44s.78-2.28,1.18-3.41c2.18-6.04,4.78-11.93,8.02-17.51,2.84-4.88.59-6.12-3.28-7.79-12.42-5.4-23.97-12.21-33.77-21.73-2.92-2.84-5.53-5.84-7.85-9.01-.52-.7-1.02-1.41-1.51-2.13-.49-.72-.96-1.44-1.42-2.18-2.54-4.03-4.66-8.31-6.42-12.8-.64-1.64-1.24-3.3-1.78-4.99-.55-1.69-1.05-3.41-1.51-5.16-.22-.85-.39-1.6-.5-2.27-.03-.17-.05-.33-.08-.49-.05-.31-.07-.6-.09-.87-.06-1.12.13-1.9.6-2.43.06-.07.13-.13.2-.19.14-.11.29-.21.47-.29.08-.04.17-.08.27-.11.2-.07.41-.12.65-.16,1.09-.18,2.61-.07,4.63.24,25.98,3.93,53.05-9.23,66.35-31.83,4.4-7.48,7.33-15.44,5.69-25.29-9.08,3.09-12.13,9.98-15.09,16.79-.27.63-.54,1.26-.82,1.89-.28.62-.56,1.24-.85,1.86-1.93,4.1-4.42,7.81-7.37,11.08-.42.46-.85.92-1.29,1.37-11.64,11.91-29.36,17.35-45.77,13.07-.74-.19-1.42-.4-2.06-.63-.63-.22-1.21-.47-1.74-.75-.54-.28-1.02-.58-1.45-.9-.23-.16-.43-.34-.62-.52-.39-.36-.73-.75-1.03-1.18-.29-.42-.54-.88-.75-1.38-.65-1.59-.87-3.58-.71-6.12.16-2.61.46-5.18.87-7.69.25-1.52.54-3.01.87-4.49.24-1.06.49-2.11.77-3.16.28-1.04.57-2.08.88-3.11.63-2.07,1.32-4.11,2.08-6.12.13-.39.28-.77.43-1.15.26-.67.52-1.33.8-1.99.05-.16.12-.32.19-.48.25-.62.51-1.23.78-1.84.29-.7.59-1.39.91-2.07.41-.92.83-1.83,1.27-2.74.43-.92.88-1.82,1.33-2.73.45-.9.91-1.8,1.38-2.7.46-.9.94-1.8,1.42-2.7.48-.89.97-1.79,1.46-2.68,6.36-11.52,12.94-22.95,15.11-36.21.06-.34.14-.7.24-1.07.14-.55.31-1.12.44-1.69.07-.28.12-.56.16-.84.02-.14.04-.28.05-.41.02-.32.02-.63-.02-.92h0c-.05-.35-.15-.67-.32-.97-.08-.15-.19-.29-.31-.43-.16-.19-.36-.36-.59-.51-2.54-1.67-5.42.29-7.61,1.77-5.39,3.64-7.28,9.57-9.42,15.35-7.52,20.37-18.38,38.75-34.28,53.66-22.78,21.36-50.07,27.63-80.04,20.94-26.09-5.82-41.66-23.85-49.05-48.57-12.65-42.31-6.9-83.27,13.59-121.75,14.95-28.06,35.99-51.65,60.53-71.98,15.42-12.78,32.35-21.96,52.95-22.73,5.82-.22,11.88-.73,16.95-3.58,19.54-10.99,40.14-9.17,60.86-5.61,89.13,15.32,154,89.58,157.4,179.97,1.71,45.4-5.44,89.05-26.02,129.97-5.39,10.73-12.53,20.21-20.95,28.85-13.27,13.6-28.18,21.01-48.15,19.7-27.26-1.78-36.08,5.03-44.79,30.79ZM352.29,404.87c-1.07,6.72-5.8,6.44-11.74,5.74,2.48-4.17,6.21-5.89,9.53-8.04,1.54-1.8,3.07-3.61,5.07-5.95,1.34,4.19-.95,6.15-2.86,8.25ZM305.18,434.25v.03c-8.22,0-16.45.22-24.66-.12-.69-.03-1.55.12-2.44.27-.2.04-.41.08-.61.1-.22.04-.44.07-.66.1-.58.07-1.14.1-1.64.04-.26-.02-.51-.07-.73-.16-.07,0-.14-.04-.2-.08,0,0-.01-.01-.02-.01-.09-.05-.18-.09-.25-.15-.38-.26-.67-.67-.8-1.29-.02-.09-.04-.18-.05-.28-.02-.08-.03-.17-.03-.25,0-.12-.02-.25-.02-.38,0-.57.07-1.16.21-1.75.02-.09.04-.16.07-.25.06-.24.14-.47.23-.71.07-.21.16-.43.25-.64,0-.02.02-.04.03-.06.1-.22.21-.44.32-.65,0,0,0-.02.02-.03.12-.22.25-.44.39-.66.09-.14.19-.28.29-.41.21-.3.44-.59.69-.86.08-.1.17-.2.27-.29.09-.1.18-.19.28-.28.19-.19.39-.36.59-.51.1-.08.2-.15.31-.23.21-.15.43-.29.64-.41,1.08-.6,2.26-.9,3.47-.73,1.77.25,3.54.44,5.3.58,1.17.09,2.35.16,3.52.22h0c2.31.1,4.62.13,6.93.1.55,0,1.11-.02,1.66-.03,1.08-.02,2.16-.06,3.23-.11,1.12-.05,2.24-.11,3.35-.18.73-.04,1.45-.09,2.17-.15.39-.02.78-.05,1.17-.08,1.76-.13,3.52-.29,5.27-.45,5.29-.49,10.57-1.07,15.85-1.51,1.76-.15,3.52-.28,5.28-.4.44-.03.88-.06,1.32-.08.44-.03.88-.05,1.32-.07.49-.03,1.02-.06,1.55-.06.19,0,.38,0,.57.02.12,0,.25.01.37.02.23.02.45.05.67.08.11,0,.22.04.32.07.1.02.2.05.3.08.14.03.27.08.39.14.24.11.46.24.65.4.03.02.04.03.05.04.07.06.11.11.16.17.15.17.28.37.36.6.03.08.06.16.08.24.14.52.13,1.2-.09,2.05-.27,1.07-.54,2.18-.91,3.24-.1.31-.21.61-.33.91-.06.15-.12.29-.19.44-.16.36-.33.71-.54,1.04-.06.11-.12.21-.19.31-.12.19-.24.37-.38.54-.13.17-.27.33-.43.49-.15.16-.31.31-.48.46-.16.14-.32.27-.5.39-.2.14-.41.27-.63.38-.2.1-.41.2-.63.28-.2.08-.41.15-.62.21-.26.08-.55.14-.84.19-.33.06-.67.1-1.03.11-.18.01-.37.01-.56.01-.07,0-.14,0-.21,0-.99-.02-1.98-.03-2.97-.04-8.75-.1-17.51,0-26.27,0ZM364.95,452.99c-4.13,11.51-9.09,22.75-12.69,34.41-2.74,8.86-7.3,12.97-15.11,10.63-15.3-.3-15.36-.33-9.72-12.89,7.02-15.61,14.15-31.18,21.25-46.75,1.58-3.48,3.2-6.4,6.59-1.2.93,1.42,2.9,3.11,4.36,3.08,12.96-.3,7.32,7.15,5.32,12.72ZM358.98,433.23c.4-2.87,2.26-4.91,5.29-5.17,1.16-.1,2.41.71,3.34,1.01-.57,3.86-2.43,5.65-5.15,6.5-1.95.6-3.82.17-3.48-2.34ZM376.93,418.7c-1.51,3.25-2.33,7.35-7.57,5.28-4.08-1.62-8.33-.56-13.86-.45,3.07-6.08,5.63-11.17,8.27-16.43,3.18,2.05,5.95,4.52,9.18,5.7,3.2,1.16,5.96,1.63,3.98,5.9ZM373.38,407.29c-1.55,0-2.86-1.09-2.38-2.92.65-2.5,2.93-2.59,4.95-2.76,1.47-.13,2.97.07,3.08,2.09-1.12,2.41-3.18,3.56-5.65,3.59ZM372.84,394.37c-4.45.22-1.67-4.21-.79-6.3,13-31,26.2-61.92,39.23-92.91,6.74-16.06,13.45-32.14,19.74-48.38,2.06-5.32,4.63-8.49,10.37-7.29,6.09-.49,10.2-.2,6.76,7.73-21.05,48.48-44.67,95.87-61.35,146.21-2.67,8.06-9.31.72-13.96.94ZM471.42,497.37c-.91.08-1.81.15-2.7.23-1.77.15-3.51.29-5.23.42-.86.08-1.72.14-2.58.2-.2.02-.41.02-.62.03-.21,0-.43,0-.64,0-.33,0-.66,0-.98-.03-.26-.02-.52-.04-.78-.07-.16-.02-.31-.03-.46-.07-.59-.08-1.17-.2-1.73-.36-.18-.05-.36-.1-.53-.15-.13-.04-.26-.09-.39-.14-.18-.06-.35-.13-.51-.2-.09-.02-.17-.06-.25-.1-.18-.07-.35-.15-.52-.24-.2-.1-.4-.2-.6-.31-.04,0-.08-.04-.12-.07-.17-.09-.35-.2-.52-.3-.41-.26-.8-.54-1.18-.85-.25-.2-.49-.41-.72-.63-.32-.3-.63-.62-.92-.96-.16-.18-.32-.37-.46-.56-.09-.11-.18-.23-.27-.35-.16-.22-.32-.44-.47-.68-12.33-18.99-30.03-32.96-45.38-49.12-2.74-2.88-5.65-5.6-8.43-8.45-8.41-8.59-8.78-13.84-2.18-23.78.15-.22.3-.43.44-.62.13-.16.25-.31.38-.45.08-.1.17-.2.26-.28l.14-.14c.27-.26.53-.45.78-.59.08-.05.15-.08.23-.12.15-.07.29-.12.43-.15.08-.02.15-.03.22-.04.22-.04.45-.04.66,0,.11.02.23.04.34.08.33.09.65.26.96.48.21.14.41.3.61.47.5.43.97.93,1.42,1.4.15.15.31.31.46.46.2.18.4.35.59.49,19.56,14.39,36.72,31.39,52.83,49.45,9.91,11.11,19.46,22.54,30.24,35.08-4.31.36-8.17.7-11.82,1.01Z"/>
      <path class="cls-3" d="M148.83,146.69c5.3-.22,11.77-1.86,17.61-5.53,9.44-5.93,13.59-16.17,11.04-26.06-1.22-4.74-4.97-6.66-8.71-6.63-4.11.03-1.66,4.32-2.28,6.66-1.01,3.82-1.2,7.95-2.71,11.54-5.92,14.12-19.76,15.76-28.98,3.65-.56-.73-1.04-1.52-1.66-2.19-1.91-2.05-4.29-4.5-7-3.25-3.55,1.65-1.95,5.4-1.33,8.15,1.91,8.52,10.83,13.8,24.02,13.66ZM392.67,232.05c-3.4-90.39-68.27-164.65-157.4-179.97-20.72-3.56-41.32-5.38-60.86,5.61-5.07,2.85-11.13,3.36-16.95,3.58-20.6.77-37.53,9.95-52.95,22.73-24.54,20.33-45.58,43.92-60.53,71.98-20.49,38.48-26.24,79.44-13.59,121.75,7.39,24.72,22.96,42.75,49.05,48.57,29.97,6.69,57.26.42,80.04-20.94,15.9-14.91,26.76-33.29,34.28-53.66,2.14-5.78,4.03-11.71,9.42-15.35,2.19-1.48,5.07-3.44,7.61-1.77.23.15.43.32.59.51.12.14.23.28.31.43.17.3.28.62.32.96h0c.04.3.04.61.02.93,0,.13-.03.27-.05.41-.04.28-.09.56-.16.84-.13.57-.3,1.14-.44,1.69-.1.37-.18.73-.24,1.07-2.17,13.26-8.75,24.69-15.11,36.21-.49.89-.98,1.79-1.46,2.68-.48.9-.96,1.8-1.42,2.7-.47.9-.93,1.8-1.38,2.7-.45.91-.9,1.81-1.33,2.73-.44.91-.86,1.82-1.27,2.74-.32.68-.62,1.37-.91,2.07-.27.61-.53,1.22-.78,1.84-.07.16-.14.32-.19.48-.28.66-.54,1.32-.8,1.99-.15.38-.3.76-.43,1.15-.76,2.01-1.45,4.05-2.08,6.12-.31,1.03-.6,2.07-.88,3.11-.28,1.05-.53,2.1-.77,3.16-.33,1.48-.62,2.97-.87,4.49-.41,2.51-.71,5.08-.87,7.69-.16,2.54.06,4.53.71,6.12.21.5.46.96.75,1.38.3.43.64.82,1.03,1.18.19.18.4.35.62.52.43.32.91.62,1.45.9.53.27,1.11.52,1.74.75.64.23,1.32.44,2.06.63,16.41,4.28,34.13-1.16,45.77-13.07.44-.45.87-.91,1.29-1.37,2.95-3.27,5.46-6.98,7.38-11.08.29-.62.57-1.24.84-1.86.28-.63.55-1.26.82-1.89,2.96-6.81,6.01-13.7,15.09-16.79,1.64,9.85-1.29,17.81-5.69,25.29-13.3,22.6-40.37,35.76-66.35,31.83-2.02-.31-3.54-.42-4.63-.24-.24.04-.45.09-.65.16-.1.03-.19.07-.27.11-.18.08-.33.18-.47.29-.07.06-.14.12-.2.19-.47.53-.66,1.31-.6,2.43.02.27.05.56.09.87.03.16.05.32.08.49.12.67.29,1.42.51,2.27.46,1.75.96,3.47,1.5,5.16.55,1.69,1.14,3.35,1.78,4.99,1.76,4.49,3.88,8.77,6.42,12.8.46.74.93,1.46,1.42,2.18.49.72.99,1.43,1.51,2.13,2.32,3.17,4.93,6.17,7.85,9.01,9.8,9.52,21.35,16.33,33.77,21.73,3.87,1.67,6.12,2.91,3.28,7.79-3.24,5.58-5.84,11.47-8.02,17.51-.4,1.13-.8,2.27-1.18,3.41s-.74,2.29-1.1,3.44c-1.18,3.83-2.22,7.71-3.2,11.59-.21.83-.43,1.57-.66,2.22-.07.21-.15.42-.23.62-.1.27-.21.52-.32.75-.17.38-.35.71-.54,1.01-.28.44-.57.8-.88,1.08-2.06,1.89-4.74.27-8.28-2.57-5.47-4.38-10.34-9.66-16.94-12.48-7.27-3.11-15.12-3.63-20.33,2.72-5.37,6.56.8,12.04,4.82,16.74,11.77,13.76,27.3,22.31,42.97,30.86,6.03,3.29,9.05,2.97,11.13-1.59.2-.42.38-.88.56-1.39.19-.5.36-1.03.53-1.61,1.2-4.11,2.4-8.22,3.59-12.33,1.2-4.11,2.41-8.22,3.63-12.32,1.22-4.1,2.47-8.19,3.75-12.28,1.29-4.08,2.6-8.15,3.97-12.2,8.71-25.76,17.53-32.57,44.79-30.79,19.97,1.31,34.88-6.1,48.15-19.7,8.42-8.64,15.56-18.12,20.95-28.85,20.58-40.92,27.73-84.57,26.02-129.97ZM369.74,339.57c-.06.45-.13.9-.21,1.34-.04.22-.09.44-.13.66-.05.22-.1.43-.15.65-.1.43-.21.85-.33,1.27,0,0,0,.02,0,.02-.08.28-.17.55-.26.82-.06.2-.13.39-.21.58-.07.19-.15.38-.22.57-.24.61-.52,1.21-.82,1.79-.1.19-.2.37-.3.56-.42.76-.9,1.49-1.43,2.19-.1.12-.19.25-.29.38-.09.12-.19.25-.3.37-.23.28-.47.56-.72.83,0,0,0,0,0,0-.19.21-.39.42-.6.62-.15.16-.31.31-.47.45-.15.15-.31.3-.48.43-.23.21-.47.41-.72.61-.24.2-.49.4-.75.59-.46.34-.93.67-1.43.99-1.14.74-2.39,1.42-3.75,2.03-.2.09-.41.19-.62.28-.2.09-.42.18-.63.27-2.55,1.06-3.59,2.11-4.46,4.79-3.99,12.25-16.87,16.79-28.09,10-2.87-1.74-4.7-3.44-8.83-1.91-.37.14-.74.27-1.1.39-.11.04-.23.07-.34.11-.3.1-.59.19-.88.27-.14.05-.29.09-.43.12-.33.11-.65.19-.97.27-.78.19-1.55.35-2.28.47-.34.06-.68.1-1.01.14-.8.09-1.56.13-2.29.13-.22,0-.44-.01-.65-.02-.12-.01-.24-.01-.35-.03-.12,0-.23,0-.35-.03-.23-.02-.45-.04-.67-.08-.21-.03-.42-.06-.62-.11-1.17-.22-2.22-.61-3.17-1.15-.32-.19-.64-.4-.94-.62-.15-.11-.3-.23-.44-.35-.15-.12-.29-.25-.42-.38-.14-.12-.27-.26-.4-.4-.13-.14-.26-.28-.38-.43s-.24-.3-.35-.46c-.23-.32-.45-.65-.65-1-.4-.7-.74-1.47-1.02-2.31-.07-.21-.13-.43-.2-.65-.25-.88-.44-1.82-.56-2.83-.17-1.34-.23-2.79-.17-4.36.02-.75.07-1.53.15-2.34.04-.4.09-.81.14-1.23.15-1.21.23-2.25.2-3.16,0-.13-.01-.26-.02-.39,0-.23-.04-.46-.08-.67-.02-.1-.03-.2-.05-.29,0-.09-.03-.19-.06-.28-.05-.19-.11-.38-.17-.56-.07-.2-.15-.39-.24-.57-.08-.15-.16-.3-.26-.45-.19-.31-.43-.61-.71-.89-.07-.08-.15-.15-.23-.23-.1-.1-.2-.19-.3-.27-.15-.13-.3-.24-.46-.36-.34-.25-.72-.5-1.14-.74-.18-.11-.36-.21-.56-.31-.22-.12-.44-.23-.68-.35-.23-.11-.45-.22-.66-.34-.04-.02-.08-.04-.12-.07-.15-.08-.29-.16-.43-.24-.26-.14-.51-.3-.76-.46s-.49-.32-.72-.49c-.03-.02-.07-.05-.1-.07-.23-.17-.46-.35-.67-.53-.83-.69-1.55-1.44-2.13-2.24-.14-.17-.27-.35-.38-.53,0-.01-.02-.01-.02-.02-.14-.2-.26-.41-.38-.62-.01,0-.01,0-.01,0-.14-.24-.26-.48-.38-.73-.09-.19-.18-.38-.25-.58-.06-.13-.11-.26-.16-.4-.15-.4-.28-.81-.37-1.23-.03-.11-.06-.22-.08-.34-.03-.11-.05-.23-.06-.34-.04-.2-.07-.4-.09-.6-.11-.83-.13-1.68-.06-2.56.03-.35.07-.7.13-1.06h0c.05-.36.12-.72.21-1.08.05-.18.09-.37.14-.56.19-.72.44-1.46.76-2.2.01,0,0-.01,0-.01.3-.74.67-1.49,1.1-2.24.1-.19.21-.38.32-.57.28-.46.57-.92.88-1.36.31-.44.62-.88.95-1.3.33-.42.66-.83,1.02-1.22h0c.35-.41.72-.79,1.1-1.16.75-.74,1.55-1.44,2.4-2.09s1.75-1.25,2.7-1.8c1.07-.63,2.3-1.64,3.57-2.9.27-.27.55-.55.82-.84.23-.24.46-.49.69-.74.33-.36.65-.74.98-1.12.27-.33.55-.66.82-1,.36-.45.72-.91,1.08-1.38.35-.47.7-.95,1.04-1.43.17-.24.34-.48.5-.72.33-.49.65-.97.96-1.46.31-.49.6-.97.88-1.46.25-.42.48-.84.7-1.25.16-.3.31-.59.45-.88.23-.46.45-.91.64-1.36.12-.27.23-.55.33-.81.1-.27.19-.53.28-.78.17-.51.3-1,.39-1.45.68-3.48,2.62-4.35,5.79-4.38.46,0,.88.02,1.26.07.18.02.36.04.52.08.35.07.67.16.95.28.13.06.25.11.36.18.25.14.48.3.67.49.85.8,1.22,2.04,1.17,3.8-.09,3.97-.02,7.94-.02,11.92h.31c0,1.01-.05,2.01-.02,3.01,0,.22.02.44.03.66.16,1.97.23,3.82.08,5.41-.02.15-.04.31-.05.45,0,.04,0,.07,0,.11,0,.09-.02.18-.04.26,0,.02,0,.05-.02.07-.02.12-.04.24-.06.35-.02.15-.05.3-.09.45s-.08.29-.12.43c-.03.1-.06.21-.09.31-.01.02-.02.04-.02.05-.04.11-.08.22-.13.32,0,.02,0,.03-.02.05-.15.34-.32.66-.53.95-.04.08-.1.15-.17.23-.02.05-.06.09-.12.14-.05.08-.13.15-.2.22-.08.09-.16.16-.25.22-.11.08-.22.16-.34.24t-.02.02s-.08.05-.12.07c-.01.02-.03.02-.04.02-.06.03-.13.07-.19.1-.2.09-.4.18-.62.25-.22.06-.45.12-.7.16-.16.03-.33.05-.51.06-.42.04-.88.03-1.37-.02-.15,0-.3-.03-.45-.05-.36-.04-.74-.12-1.15-.21-.14-.03-.29-.07-.45-.11-.19-.05-.39-.1-.59-.16-.71-.2-1.47-.46-2.3-.79-2.98-1.17-6.74-.45-9.75,1.4-.39.24-.78.49-1.15.76-.38.26-.74.54-1.1.83-.35.29-.69.59-1.01.9-.47.47-.91.97-1.28,1.48-.1.13-.18.26-.27.39-.11.17-.21.34-.31.52-.05.09-.09.18-.14.27-.15.29-.27.58-.37.89-.03.08-.06.16-.08.25-.1.33-.17.67-.21,1.01-.01.04-.01.08-.01.11-.06.58-.03,1.17.1,1.78.08.42.22.85.4,1.28.84,1.99,1.94,2.75,3.15,2.85.1.02.21.02.31.02,2.12,0,4.56-1.8,6.66-2.52.5-.17.99-.38,1.47-.61.24-.11.48-.23.72-.35,1.19-.61,2.35-1.3,3.58-1.81,2.71-1.1,5.71-1.32,7.55,1.18.3.4.48.78.58,1.13.03.1.05.21.06.31.05.37.01.7-.1,1.02-.04.11-.09.23-.14.34-.06.11-.12.21-.18.32-.09.14-.19.28-.3.41-.15.18-.31.36-.48.53-.17.17-.35.33-.53.5-.18.16-.36.33-.53.49-.17.16-.34.31-.5.48-.05.04-.09.09-.12.13-.12.12-.22.24-.32.36-.64.82-1.3,1.62-1.94,2.44-.39.48-.78.97-1.15,1.46-.13.16-.25.33-.38.49-.25.33-.49.66-.73.99-.21.29-.41.58-.61.87-.49.72-.96,1.45-1.38,2.19-.13.24-.26.48-.38.71-.16.3-.31.59-.45.9-.09.19-.18.38-.26.58-.12.27-.23.53-.33.8-.11.28-.21.57-.3.86-.09.28-.17.58-.25.87s-.15.59-.21.9c-.06.28-.11.56-.15.85-.04.28-.07.56-.1.85-.03.26-.05.53-.06.8,0,.44,0,.88,0,1.34t0,0c0,.22.02.45.04.68.02.24.03.5.03.76h0s0,.02,0,.03t0,.02s0,.05,0,.07c0,.1,0,.21,0,.31,0,.19,0,.39,0,.59.01.2.01.4.02.59.04.51.11,1,.29,1.44.05.14.11.27.19.4.11.2.26.38.44.55.04.04.08.08.13.11.07.07.15.13.23.18.09.06.19.11.29.16.05.03.1.05.15.07.12.06.26.11.41.16.39.12.77.18,1.13.17.11,0,.21-.01.31-.02.1,0,.2-.01.29-.04.04,0,.08-.01.12-.02l.24-.06c.07-.02.14-.04.21-.07.07-.02.14-.05.2-.08.77-.3,1.46-.85,2.1-1.44.33-.32.65-.64.95-.95.85-.85,1.54-1.78,2.12-2.76.29-.49.55-1,.79-1.51.24-.51.45-1.04.65-1.57.4-1.07.72-2.17,1.01-3.28.15-.55.28-1.11.42-1.67.13-.56.26-1.12.4-1.67.08-.32.16-.65.24-.97.06-.22.11-.44.16-.65.05-.21.11-.43.17-.64.26-.95.56-1.86.98-2.63.09-.17.19-.34.3-.49h0c.11-.17.22-.31.34-.45,0,0,0,0,.02-.02.07-.09.14-.17.22-.24.07-.07.14-.13.21-.19.08-.07.15-.13.23-.18.23-.18.48-.32.76-.43.08-.04.17-.07.25-.1.31-.1.65-.16,1.01-.19.13,0,.27-.02.41-.02.6,0,1.27.1,2.04.3,5.02,1.34,3.18,5.81,3.14,9.2-.03,2.42-.67,4.83-.9,7.26-.06.61-.07,1.21-.03,1.78,0,.11,0,.21.02.31.04.5.12.99.24,1.45.03.16.07.32.12.47.13.46.31.9.52,1.31.06.12.13.24.2.35.05.09.1.17.16.25.15.24.32.46.51.67.08.1.17.2.27.29.08.09.16.16.24.22.08.07.17.15.25.21.08.08.17.14.26.2.08.06.18.12.27.18.25.16.51.29.78.4.11.05.23.1.36.15,0,0,.03,0,.04,0,.11.04.23.08.35.1.25.08.52.14.8.18.07.02.14.03.21.03.2.03.41.05.63.06.42.02.83,0,1.21-.03.08,0,.17-.02.25-.03.16-.02.32-.04.48-.08.17-.03.34-.07.5-.12.08-.02.17-.05.25-.08.15-.05.3-.11.44-.17.44-.19.84-.42,1.21-.7.17-.14.34-.29.5-.45.17-.16.33-.33.48-.52.14-.18.27-.37.4-.56.12-.2.24-.4.34-.61,0,0,0,0,0-.01.16-.32.3-.64.42-.99.1-.29.19-.58.27-.89.07-.31.13-.62.18-.94,0,0,0-.02,0-.03.12-.81.16-1.66.13-2.52,0-.19,0-.39-.02-.59,0-.14-.01-.28-.03-.42-.03-.46-.07-.92-.11-1.39-.05-.46-.1-.92-.16-1.39-.06-.42-.11-.84-.17-1.27-.25-1.68-.55-3.36-.82-5.05-.09-.56-.18-1.12-.26-1.68-.41-2.79-1.03-6.1,2.05-7.28.59-.23,1.17-.33,1.73-.33.16,0,.32,0,.48.03.17.01.34.04.51.08.15.03.29.07.44.11.15.05.31.1.46.16.15.06.31.13.46.2.15.07.3.15.44.23.16.09.33.19.49.29.04.03.08.05.12.08.17.11.34.23.51.36.68.49,1.34,1.07,1.99,1.66.12.1.24.21.36.32h0c.72.67.97,1.9,1.28,3.01.04.15.08.3.13.44.05.14.1.28.15.4.05.14.11.27.17.4.06.12.13.23.2.34.08.1.16.2.24.29.04.04.09.09.14.13.4.33.96.47,1.77.3h.01c.23-.05.49-.13.77-.24.97-.37,1.83-.87,2.57-1.47.09-.07.18-.15.27-.24.09-.08.17-.16.26-.24.18-.17.35-.34.49-.51.31-.35.59-.73.84-1.13.25-.4.47-.82.66-1.26.15-.33.27-.67.37-1.02.06-.17.11-.35.15-.53.05-.18.09-.36.12-.54.05-.25.09-.49.12-.74.03-.22.05-.43.07-.65v-.03c.02-.29.03-.58.03-.87v-.3c-.18-7.93-4.25-14.19-10.31-18.6-.52-.38-.99-.76-1.39-1.13-.14-.13-.27-.25-.39-.38s-.24-.25-.34-.37c-.1-.11-.19-.21-.28-.32-.1-.13-.2-.26-.29-.39-.1-.14-.19-.27-.27-.41-.45-.75-.71-1.51-.81-2.32-.02-.09-.02-.18-.03-.28-.02-.17-.03-.35-.03-.52,0-.19,0-.39.02-.59.02-.34.06-.69.12-1.05.04-.18.07-.36.11-.55.08-.38.17-.76.29-1.17.11-.4.24-.81.38-1.24.21-.64.42-1.27.65-1.9.25-.75.51-1.5.78-2.25.15-.42.3-.85.44-1.27.26-.72.51-1.44.76-2.16.22-.64.44-1.27.66-1.9.11-.31.21-.63.32-.95.11-.31.22-.63.32-.95.95-2.86,1.82-5.73,2.49-8.64.15-.64.29-1.29.42-1.94.06-.32.12-.65.18-.97.06-.33.11-.66.16-.98.08-.49.15-.97.21-1.46.19-1.44.31-2.9.35-4.37,0-.18.01-.36.01-.55.05-2.61-.17-5.27-.72-7.98-.02-.12-.05-.25-.06-.36-.03-.22-.06-.43-.07-.63-.03-.44,0-.82.09-1.14.02-.13.06-.24.11-.35.04-.11.09-.21.16-.3.06-.09.12-.18.19-.26.14-.16.31-.29.5-.39.06-.04.13-.08.2-.1.04-.02.09-.04.13-.06.12-.05.24-.09.37-.13.15-.05.31-.08.48-.11.11-.02.22-.04.34-.05.11-.02.22-.03.34-.04.18,0,.37-.03.56-.03.16,0,.32,0,.48,0,.16,0,.32,0,.48,0,3.67-.01,5.34,2.42,6.64,5.37,1.67,3.79,1.35,7.8,1.28,11.76-.02.91-.07,1.81-.17,2.7-.01.19-.04.39-.06.58-.04.36-.09.73-.15,1.09-.07.48-.15.96-.24,1.43-.26,1.36-.57,2.7-.92,4.04-.07.26-.14.53-.22.79-.06.26-.14.53-.22.8-.15.53-.31,1.06-.47,1.59-.31,1.05-.64,2.11-.97,3.16-.5,1.57-.98,3.14-1.41,4.71-.28,1.05-.55,2.1-.79,3.16-.13.52-.23,1.05-.33,1.58-.09.49-.13.97-.13,1.44,0,.19,0,.38.03.57.01.13.02.27.04.4,0,.11.02.22.04.33.03.18.06.35.1.52.03.13.06.26.1.38.03.12.06.23.1.34.05.17.11.33.17.49.05.11.09.23.14.35,1.15,2.77,3.51,5.31,5.64,8.09.29.38.57.76.85,1.15.17.23.33.46.49.7.34.5.66,1,.95,1.52.11.2.23.41.34.62.28.52.52,1.04.73,1.59.11.27.2.54.29.81.06.18.12.37.17.55.05.19.1.37.14.56.05.19.09.38.12.57.02.1.04.2.05.3.02.09.03.19.04.29.46,3.42.57,6.58.29,9.49-.03.36-.07.71-.12,1.05Z"/>
      <path class="cls-4" d="M483.24,496.35c-8.61.73-15.46,1.37-22.33,1.86-5.32.38-9.85-1.67-12.68-6.03-12.33-18.99-30.03-32.95-45.38-49.11-2.74-2.88-5.65-5.61-8.43-8.45-8.41-8.6-8.78-13.84-2.17-23.78,3.5-5.26,5.85-.53,7.92.99,19.56,14.38,36.72,31.39,52.83,49.45,9.91,11.11,19.45,22.54,30.24,35.07Z"/>
      <path class="cls-4" d="M441.39,239.49c6.08-.5,10.2-.2,6.75,7.73-21.05,48.48-44.67,95.87-61.35,146.21-2.67,8.06-9.3.72-13.95.95-4.45.22-1.67-4.21-.79-6.3,13-31,26.2-61.92,39.23-92.91,6.75-16.06,13.45-32.14,19.74-48.38,2.06-5.32,4.63-8.49,10.38-7.29Z"/>
      <path class="cls-4" d="M337.15,498.02c-15.3-.29-15.37-.32-9.72-12.88,7.02-15.61,14.14-31.18,21.24-46.75,1.59-3.48,3.21-6.4,6.59-1.2.92,1.42,2.9,3.11,4.36,3.08,12.96-.3,7.32,7.15,5.32,12.73-4.13,11.51-9.09,22.74-12.69,34.41-2.74,8.86-7.3,12.97-15.11,10.62Z"/>
      <path class="cls-1" d="M149.06,51.72c-7.32,1.72-9.09-1.93-8.75-8.98.65-13.49,9.07-25.43,20.26-28.47,9-2.45,14.71.97,18.55,8.84,7.29,14.93,4.93,20.38-10.94,25.09-6.12,1.82-12.2,3.91-19.11,3.52Z"/>
      <path class="cls-4" d="M305.18,434.28c-8.22,0-16.46.21-24.67-.12-2.58-.11-7.41,2.26-7.44-2.09-.03-4.09,3.9-9.05,8.05-8.47,19.01,2.66,37.61-1.2,56.39-2.16,2.7-.14,6.42-.3,5.37,3.86-1.06,4.2-2.18,9.1-8.46,9-9.74-.16-19.49-.04-29.24-.04,0,.01,0,.02,0,.03Z"/>
      <path class="cls-3" d="M215.67,443.29c-5.53-2.7-10.59-6.01-16.47-7.64-8.82-2.44-17.5-3.43-25.51,2.13-4.29,2.98-5.28.6-5.8-3-.95-6.64,3.35-11.62,10.2-12.24,8.54-.78,15.3,2.87,21.77,7.9,9.59,7.46,10.98,7,15.43-3.91.23-.57.43-1.15.64-1.72,1.34-3.53,3.63-8.28,7.19-6.81,4.77,1.97.29,6.22-.66,9.15-1.78,5.45-4.42,10.61-6.8,16.13Z"/>
      <path class="cls-4" d="M355.5,423.53c3.06-6.09,5.62-11.17,8.27-16.43,3.18,2.04,5.95,4.51,9.18,5.69,3.19,1.16,5.96,1.63,3.97,5.9-1.5,3.25-2.33,7.35-7.57,5.28-4.08-1.61-8.32-.56-13.85-.44Z"/>
      <path class="cls-2" d="M317.43,308.17c0,1.22-.09,2.45.01,3.67.64,7.88-.18,13.73-10.7,9.59-2.98-1.17-6.74-.45-9.75,1.4-3.88,2.39-7.32,6.01-5.43,10.47,2.36,5.58,6.7,1.53,10.12.36,2-.68,3.8-1.97,5.77-2.77,2.71-1.1,5.71-1.32,7.55,1.18,2.07,2.82-1.22,4.31-2.56,6.02-4.37,5.55-9.27,10.79-8.63,18.59.16,1.98-.47,4.61,2.19,5.44,2.37.74,4.09-1.02,5.55-2.51,3.39-3.42,4.3-8.02,5.39-12.46.98-3.99,1.73-8.4,7.33-6.9,5.02,1.34,3.18,5.8,3.14,9.2-.03,2.42-.67,4.83-.9,7.26-.43,4.65,1.71,8.4,6.2,8.62,5.19.25,7.25-3.99,7.08-8.73-.14-3.95-.99-7.87-1.57-11.8-.41-2.78-1.03-6.1,2.05-7.28,3.06-1.17,5.62,1.01,7.99,3.2,1.78,1.64.65,6.68,4.86,5.07,3.97-1.51,6.05-5.2,5.95-9.53-.18-7.93-4.25-14.2-10.31-18.6-4.44-3.23-4.44-6.08-2.9-10.72,4.09-12.4,9.79-24.6,7.03-38.28-.77-3.8,1.65-3.96,4.3-3.96,3.67,0,5.34,2.41,6.64,5.37,1.67,3.79,1.35,7.8,1.28,11.76-.16,9.01-4.38,17.16-5.95,25.64-1.44,7.81,9.21,12.63,10.4,21.57,1.87,14.01-2.09,23.67-14.67,28.85-2.56,1.05-3.59,2.11-4.47,4.79-3.99,12.25-16.87,16.79-28.09,10-2.87-1.74-4.69-3.44-8.83-1.91-14.66,5.42-22.35-.94-20.35-16.87.63-5.04.02-7.19-4.77-9.52-8.39-4.09-10-12.01-5.16-20.12,2.23-3.74,5.25-6.72,9.04-8.93,4.92-2.87,13.01-13.78,14.14-19.59.68-3.48,2.62-4.35,5.79-4.37,3.49-.03,5.01,1.43,4.93,4.9-.1,3.97-.02,7.95-.02,11.92.1,0,.21,0,.31,0Z"/>
      <path class="cls-5" d="M148.83,146.69c-13.19.14-22.11-5.14-24.01-13.66-.61-2.74-2.21-6.5,1.33-8.15,2.71-1.26,5.09,1.2,7,3.25.62.67,1.11,1.46,1.66,2.19,9.22,12.11,23.05,10.47,28.98-3.65,1.51-3.59,1.7-7.72,2.71-11.54.62-2.34-1.84-6.63,2.28-6.66,3.74-.03,7.49,1.88,8.71,6.63,2.55,9.88-1.6,20.12-11.04,26.06-5.84,3.67-12.31,5.3-17.61,5.53Z"/>
    </g>
  </g>
</svg>