<?xml version="1.0" encoding="UTF-8"?>
<svg id="Layer_1" data-name="Layer 1" xmlns="http://www.w3.org/2000/svg" viewBox="0 0 512 512">
  <defs>
    <style>
      .cls-1 {
        fill: #fff;
      }

      .cls-1, .cls-2, .cls-3, .cls-4, .cls-5 {
        fill-rule: evenodd;
      }

      .cls-2 {
        fill: #212121;
      }

      .cls-3 {
        fill: #ffcd00;
      }

      .cls-4 {
        fill: #009845;
      }

      .cls-5 {
        fill: #ff4713;
      }
    </style>
  </defs>
  <path class="cls-2" d="M359.59,71.25c-.78.67-1.23,1.68-2.79,1.56-3.69-7.6-7.6-14.86-15.53-18.1,0-2.12,2.35-2.23,4.36-1.56,6.15,2.23,12.29,11.84,13.97,18.1h0Z"/>
  <path class="cls-2" d="M347.74,80.97c-.67.22-1.12.78-2.23.67-3.35-8.16-7.71-15.42-17.77-16.87,2.12-3.91,8.49-1.12,11.84,1.56,3.69,2.79,7.93,9.16,8.16,14.64h0Z"/>
  <path class="cls-4" d="M175.24,329.13c-.12-.1-.25-.2-.37-.31-1.86-1.6-3.53-4.41-4.8-6.71.17.12.33.24.49.37.15.12.29.24.42.37,1.96,1.78,3.08,4.3,4.83,6.24.13.14.26.28.39.41.15.14.3.29.46.43-.48-.17-.95-.44-1.42-.8ZM173.87,319.87c.89-.78,1.67-1.9,3.46-1.9,1.23,3.47,2.46,6.71,3.69,10.06-3.58-1.56-5.14-5.03-7.15-8.16ZM181.02,301.55c-4.36,7.48-14.08,14.75-22.46,15.31-15.09.89-26.15-16.21-23.02-30.84.22-.9.22-2.35.67-3.47.56-1.45,2.35-2.79,3.46-4.69,1.12-2.13,1.35-4.14,2.46-5.59,4.25-5.81,10.95-10.06,18.66-10.61,2.13-.12,6.71-.34,9.06.33,14.52,3.8,19.55,25.25,11.17,39.56ZM194.09,310.26c3.36.34,8.83,2.13,12.74,1.9-3.46,2.57-9.94.11-12.74-1.9ZM428.7,359.88c-4.03-1.57-9.51-4.03-15.89-6.6-3.69-1.56-13.76-4.02-15.55-7.15-2.24-3.8,2.23-5.36,4.02-7.48,5.49-6.37,7.39-17.1,9.4-26.49,3.02-14.52,1.79-30.39-.89-41.79-1.23-5.36-2.69-11.84-5.26-15.87-1.01-1.56-2.35-2.01-2.46-3.68-.23-4.25,5.37-5.37,8.39-7.49,2.8-2.01,5.82-5.59,9.4-9.05,2.12-2.01,8.61-7.04,8.72-9.61.23-2.57-2.46-5.81-3.69-8.38-1.56-3.24-3.02-5.81-4.36-8.16-.14.11-.28.21-.42.33-3.85,3.02-8.66,7.62-12.34,11.18-1.34,1.34-2.68,3.35-4.03,4.36-.78.67-1.79.67-2.46,1.23-1.34,1.11-1.9,3.01-3.13,4.02-1.53,1.32-4.93,2.66-7.21,2.36h0c-.21-.03-.42-.07-.61-.13-3.92-1.11-5.26-7.37-6.83-9.6-2.35-3.25-6.71-6.15-10.29-9.61-3.47-3.25-6.83-6.93-10.3-9.95-14.65-13.19-30.43-23.02-46.77-33.97-8.39-5.7-17-11.17-25.28-15.31-2.8-1.34-8.28-2.34-9.07-5.25-.44-1.79,1.35-6.7,2.8-8.38.78-.89,2.13-1.01,3.13-1.9,3.7-3.58,4.26-12.18,9.63-13.41.23-.05.45-.07.68-.07,2.88,0,5.63,3.75,7.71,5.1,3.05,1.85,5.36,2.74,8.49,3.93.08.03.16.06.24.09,5.25-2.23,10.07-3.8,11.86-8.16,3.01-7.3-3.29-17.71-11.25-17.5-.31,0-.63.03-.95.07-1.16.12-4.32,1.38-7.29,1.93-.04,0-.08.02-.12.03-3.05.56-5.85.35-6.02-2.63-.33-4.91,11.19-5.81,15-7.15,5.37-1.9,7.61-5.81,11.19-8.72,3.91-5.02-.23-11.17-4.7-11.84-.62-.09-1.25-.13-1.87-.11-8.44.16-16.68,9.44-19.39,14.75-1.3.17-2.46.18-3.47.04-.08,0-.16-.01-.24-.03-2.25-.37-3.74-1.57-4.35-3.7,2.02-3.91,5.37-12.4,2.91-19.22-.67-1.43-2.33-3.2-3.91-3.03-.27.02-.53.1-.79.24-5.71,3.35-10.52,14.08-8.73,23.35.34,1.57,1.35,2.68,1.23,4.36-.18,3.22-2.02,4.25-4.14,4.17-1.84-.05-3.9-.95-5.25-1.94-2.35-5.02-7.05-10.95-12.2-13.07-1.2-.51-2.33-.71-3.36-.67-4.01.16-6.52,4.08-5.37,9.05,1.46,6.59,13.43,8.72,19.02,11.85,2.13,4.24-1.34,5.92-3.13,9.05-.89,1.67-1.79,3.68-2.8,5.58-1.12,2.13-2.35,4.14-3.13,5.59-1.01,2.01-1.45,4.47-2.46,5.25-1.1.83-2.33,1.14-3.62,1.09-4.05-.13-8.7-3.75-11.93-5.11-3.92-1.56-7.61-2.68-10.97-4.02-2.91-1.23-5.82-3.13-9.4-4.36-5.82-2.01-11.86-3.91-17.45-5.59-3.25-1-9.29-3.68-12.54-3.46h-.03c-2.11.13-4.45,1.9-6.79,2.46-5.6,1.45-12.2-.56-16.56.67-6.14,1.75-11.17,5.11-17.39,5.21-.31.01-.61.01-.93,0-.63-.02-1.27-.08-1.93-.18-5.53-.82-10.77-2.8-16.01-2.99-.51-.02-1.02-.03-1.53,0-.72.03-1.44.09-2.16.2-2.12.34-4.02,1.68-5.93,2.46-1.67.78-4.01,1.12-5.24,3.12,0,0,0,.01,0,.01.05-.01.09-.01.14-.01h.06c.07,0,.13,0,.19,0h.07c4.33,0,7.29,4.39,11.73,4.71.04,0,.07,0,.11,0,.11.01.23.01.34.01,3.13.04,6.54-1.7,9.85-1.92,2.81-.1,5.81.47,8.73.63.22.02.44.03.66.04.37.02.74.03,1.12.04,1,.02,2.01,0,3.02-.02,1.51-.04,3.03-.11,4.52-.14.92-.03,1.84-.04,2.74-.02.45.01.9.02,1.34.04.54.02,1.07.05,1.59.1,11.3,1.01,21.37,6.82,30.54,8.72-1.53,1.28-3.4,1.52-5.39,1.27-.18-.02-.36-.04-.54-.08,0,.01-.02.01-.03,0-2.36-.39-4.86-1.39-7.13-2.08-4.36-1.35-9.4-3.02-13.98-4.03-4.81-1.11-9.92-.61-15.27-.59-.6,0-1.21-.01-1.82-.02h-.06c-.51-.01-1.03-.03-1.54-.06-1.62-.08-3.4-.35-5.18-.54-.09,0-.19-.02-.28-.03-3.05-.31-6.08-.35-8.3,1.24,2.76,1.23,6.27,2.78,10.12,3.77.42.11.83.21,1.26.3.29.07.58.13.87.18.36.07.73.13,1.09.19.73.11,1.47.2,2.21.26.37.03.74.05,1.1.07.63.03,1.25.03,1.84,0,.39,0,.76-.04,1.14-.06.32-.03.64-.06.96-.09,1.89-.2,3.57-.57,5.17-.94.27-.06.53-.12.8-.18.35-.08.7-.15,1.04-.22.09-.02.18-.04.26-.05.27-.06.53-.11.8-.15.64-.11,1.29-.2,1.94-.25.09-.02.19-.02.28-.03-1.34,3.46-7.39,3.91-10.3,4.35-.86.11-1.69.18-2.5.21h-.02c-10.81.33-18.58-6.35-28.85-6.68-.32-.01-.64-.02-.96-.02-.22,0-.44,0-.67,0-.84.03-1.7.1-2.58.23-2.01.33-4.58.67-5.93,2.23,3.14,1.9,5.04,2.91,7.84,4.69,3.91,2.46,6.04,6.71,9.62,8.72,2.24,1.23,6.15,2.68,9.4,4.02,5.44,2.22,11.2,5.72,17.81,5.94.16.01.32.01.49.01,1.25,0,2.53-.1,3.85-.36.88,0,1.55-1.24,2.23-1.39h0c.19-.04.37,0,.56.16.07,2.01-1.53,3-3.55,3.5-.13.03-.27.06-.4.09-.16.04-.32.07-.48.1-1.11.19-2.28.27-3.35.32-.22,0-.44,0-.65,0-.28,0-.55,0-.83,0-7.46-.23-12.58-3.87-17.6-5.57.03.04.06.08.1.12,3.27,4.14,9.14,5.04,14.9,7.36,6.04,2.46,10.74,4.92,17.12,5.93-.81.75-1.71,1.17-2.67,1.37-.11.03-.22.05-.34.07-3,.45-6.49-1.13-9.19-2.11-11.64-4.25-24.39-8.05-30.54-17.1-1.02-.17-2-.28-2.94-.34-.32-.02-.63-.04-.94-.05-.8-.03-1.58-.03-2.35.01-3.26.16-6.31.84-9.66,1.61.22,3.13,2.57,4.02,3.69,6.26,12.81,4,22.61,11.1,35.73,14.91.06.02.13.04.19.06,1.09-.87-1.68-2.07-.09-2.75.03,0,.06-.03.09-.04,2.46.44,3.13,2.68,4.02,4.69,4.48,1.45,9.96,5.03,15.89,6.26.99.21,1.95.39,2.88.59.31.06.62.12.92.19.3.06.6.13.89.2.2.04.39.09.57.14.28.07.55.14.82.22,2.54.72,4.53,1.72,5.45,3.68-.24.04-.47.07-.71.08-2.06.04-3.91-1.37-6.12-1.97-2.68-.79-5.26-.79-8.17-1.57-4.14-1-10.96-5.7-14.99-5.59h-.03c-1.44.02-3.22,1.34-5,1.57-2.24.33-4.14-.67-5.93.67,3.8,2.04,6.37,5.41,12.1,5.62.27,0,.56,0,.85,0,.09,0,.18-.01.27-.01s.18,0,.27,0,.18-.01.27-.01c-.62,2.03-2.22,2.59-4.08,2.46h-.04c-.48-.03-.98-.11-1.48-.23-5.7-1.34-12.64-6.26-16.89-9.61-1.68-1.23-3.47-2.9-5.26-3.69-3.98-1.81-11.97-3.32-18.09-2.67-.19.02-.38.03-.56.06-3.43.44-6.2,1.61-7.2,3.84,11.64,1.68,20.7,5.81,28.76,11.85,2.35,1.78,5.59,4.13,8.05,6.25,1.91,1.68,6.83,4.81,4.03,7.83-.05-.04-.09-.08-.14-.11-9.22-7.41-17.6-15.59-29.84-19.96-.4-.14-.8-.27-1.2-.41-.42-.14-.84-.27-1.26-.4-.44-.13-.88-.26-1.33-.38,0,0,0,.01-.02,0-.98-.27-1.99-.52-3.03-.73-.52-.11-1.05-.21-1.58-.31-.12-.02-.23-.04-.34-.05-.54-.1-1.09-.18-1.65-.26-.58-.09-1.17-.16-1.77-.23-.3-.03-.6-.06-.91-.09-.3-.04-.6-.07-.9-.09t-.01.02c-2.57,2.78-5.04,5.69-7.82,8.36,2.57,5.92,7.49,9.83,11.86,13.74,3.35,3.02,7.38,4.47,9.96,7.82-.59.68-1.29.94-2.04.94h-.04c-1.93-.04-4.14-1.87-5.42-2.84-6.83-4.91-13.65-11.17-17.79-17.76-.05.02-.09.03-.14.04-2.04.7-4.44,1.07-6.98,1.2-1.75.1-3.57.09-5.39-.01-4.2-.22-8.36-.86-11.55-1.57,0,0,.01.02.01.03,1.13,4.55,5.37,4.11,9.39,5.22,2.69.79,6.38,2.8,8.17,4.36,2.24,1.9,4.7,4.47,7.16,6.82,6.6,6.37,8.84,13.74,12.2,22.46.56,1.56,2.57,3.35,1.23,5.25-.22.03-.42.05-.6.05-2.22-.05-2.35-2.73-2.87-4.07-4.03-9.72-7.95-16.76-15-23.36-2.68-2.45-5.25-5.81-8.16-7.48-4.03-2.46-10.19-1.9-13.09-4.7-5.49-5.36-7.84-13.63-13.43-19.33-.67-1.11,0-3.57-1.9-3.46-.56,6.37,1.9,10.73,2.79,16.87,6.49,11.96,22.72,14.3,27.42,28.05,9.84,4.8,15.1,13.52,20.58,22.46,1.91,3.02,4.93,5.25,5.93,8.72-.43.15-.86.21-1.27.2-2.09-.04-3.96-1.79-4.99-3-1.79-2.12-3.13-5.25-4.7-7.82-3.36-5.7-7.39-11.29-13.09-14.08,0,.03,0,.06,0,.09,1.02,9.91,4.71,18.37,10.28,24.83,1.68,1.9,4.59,2.68,4.7,5.59-.11.02-.22.03-.33.03-.06,0-.12,0-.17,0-.09.01-.17.02-.26.01-2.73,0-5.2-2.09-6.74-3.52-7.38-7.15-10.07-20-13.09-31.51-5.81-3.91-12.98-6.59-21.81-7.49h0c1.46,6.37,8.39,9.84,14.32,12.74,1.34,1.57,3.35,2.91,5.03,5.03,3.25,4.25,8.06,11.85,9.62,16.87,1.8,5.81,1.12,13.97-3.69,14.98,0-.02.02-.03.03-.05,1.66-2.33,2.32-4.45,1.87-8.33-.78-6.82-7.6-17.66-10.96-22.13-2.35-3.13-6.94-5.14-10.29-7.15-3.7-2.12-6.16-4.92-9.07-6.82v.07c-.44,7.02,1.58,14.81,5.26,19.27,2.02,2.45,4.7,3.35,7.16,5.25,1.23.89,2.35,3.01,3.47,4.02,1.79,1.79,4.36,4.69,5.26,6.82,2.91,6.7,2.68,14.41,1.9,20.89-.22,2.4.84,6.6-2.54,6.6h-.13s-.09-.01-.13-.01c3.14-19.77-3.46-34.08-16.89-39.89,0,.02,0,.04.02.06,1.56,5.78,2.89,10.58,2.78,16.48-.12,1.57-.68,3.35-.34,5.03.45,2.12,3.36,4.47,4.7,6.59,1.45,2.46,2.8,5.48,3.47,8.16.89,3.69,2.35,10.5-1.57,11.84v-.05c-.68-8.8-2.25-16.72-7.83-20.51-.01.02-.02.05-.03.07-1.68,4.21-4.46,7.33-6.57,11.11,2.91,5.58,7.61,11.73,6.26,19.66,17.68,26.04,41.74,45.93,65.8,65.71,1,1.12,1.11,3.02,1.56,4.69-2.57,2.91-4.7,5.37-7.16,8.16-2.35,2.68-4.7,4.24-5.26,7.82-1.8,1.37-4.1,2.75-6.42,2.33-.03,0-.05,0-.08-.01-.11-.02-.22-.05-.32-.08-1.91-.45-2.58-3.24-4.03-4.7-2.34-2.24-8.91-5.42-14.07-5.55-.33,0-.67,0-.99.01-.65.04-1.26.13-1.84.29-1.34,2.68-.89,5.59-.89,9.39,1.04,1.48,2.46,2.71,4.13,3.68.24.14.49.27.75.4.29.15.59.29.89.42.34.15.69.29,1.04.43.79.3,1.6.56,2.44.77.68.17,1.38.32,2.09.44.8.14,1.6.24,2.42.32.54.06,1.09.09,1.64.1.27.02.55.03.82.03,3.04,3.14,2.2,5.03-.12,6.22-.13.06-.27.13-.41.2-.15.07-.31.14-.46.2-.14.06-.28.11-.43.16-2.17.75-5.04,1.14-7.39,1.43-.18.02-.35.04-.53.06-.03,0-.06,0-.09,0-.3.03-.59.07-.86.1-5.93,5.59-12.76,10.17-14.32,20,1.29.28,2.47.44,3.56.51.62.04,1.21.04,1.78.01.27-.02.54-.04.8-.06,3.9-.38,6.45-2.24,8.85-4.48,4.11-3.99,6.35-9.98,11.76-11.82.03-.01.07-.02.1-.03,1.68.68,4.03,1.57,3.47,5.03-.22,1.46-2.8,4.36-4.36,7.49-1.12,2.57-2.8,5.48-3.7,8.16-3.13,9.98-.06,20.6,9.45,21.09.38.03.76.03,1.16.01.69-.02,1.41-.09,2.15-.21,3.91-4.47,4.03-14.41,2.24-21.79-.34-1.34-1.23-2.34-1.23-3.68,0-2.64,1.97-5.8,5.16-5.8.07,0,.14,0,.22,0,.39.01.79.08,1.22.2,4.25,4.47,7.49,14.3,13.98,17.43,1.4.68,2.67,1,3.8,1.03h.06c4.83.07,7.12-5.2,5.77-10.97-1.46-6.15-7.72-13.41-12.54-15.31-.87-.37-1.66-.49-2.4-.49h-.09c-1.75.03-3.29.73-5.09.7h-.07c-.45-.02-.92-.08-1.41-.21-2.46-4.14.34-6.71,2.46-9.95,2.69-4.13,5.26-7.49,7.5-11.17,2.13-3.58,2.57-8.16,6.6-8.72.4-.06.76-.09,1.09-.1,3.93-.08,4.52,3.3,6.07,5.35,1.57,2.13,4.37,4.14,6.83,6.26,8.72,7.49,17.45,14.42,27.41,20.23,1.57.89,3.02,2.12,4.7,3.12,3.36,2.13,7.27,3.25,10.63,5.03,3.36,1.79,6.49,4.03,10.29,5.59,10.97,4.36,24.17,7.6,36.48,9.61,6.21,1.03,13.77,1.83,21.34,1.92,1.3.02,2.6,0,3.89-.02h.39c23.16-.56,43.08-7.38,61.43-17.77,13.32-4.58,22.27-13.52,32.78-20.89,7.5-7.49,16.34-15.65,21.82-24.92,1.12-1.79,1.46-4.25,2.8-5.59,1.31-1.33,2.6-1.97,3.86-2.12h.05c4.53-.52,8.63,5.19,11.42,7.37,7.82,6.27,15,11.46,23.34,16.32.12.07.25.15.38.22,4.92-4.58,7.5-12.51,6.27-21.45Z"/>
  <path class="cls-1" d="M152.64,82.53c-2.24,2.24-6.48,2.46-10.28,3.13v-.11c3.75-.66,7.92-.88,10.18-3.04.04,0,.07.01.1.02Z"/>
  <path class="cls-4" d="M179.79,105.22c-4.13,4.36-10.06,4.36-17.43,5.92-4.58.89-9.61,2.79-14.64,1.9-3.02-.56-6.15-2.68-9.61-3.69-7.49-2.23-15.31-2.68-24.36-.67.34-1.79,3.24-2.79,4.69-1.56,14.53-8.94,44.03-6.93,61.35-1.9h0Z"/>
  <path class="cls-4" d="M189.74,108.35c-2.46.89-7.15,2.01-9.95.67,1.56-3.24,7.71-3.58,9.95-.67h0Z"/>
  <path class="cls-4" d="M90.29,108.68c-.45.78-1.34,1.12-2.46,1.23,0-1.23,1.34-1.12,2.46-1.23h0Z"/>
  <path class="cls-4" d="M133.98,111.81c-6.03,1.12-10.73,3.58-15.31,6.26-.78.56-.78,1.68-1.23,2.46-8.49,2.57-17.66,6.03-28.05,5.59,2.57-4.36,7.15-6.59,11.84-8.72.56,1.9-2.01,3.13-1.56,5.92,4.02-.78,3.69-5.7,6.82-8.72,3.35-3.13,11.96-4.92,18.66-5.03,3.13,0,6.93.45,8.83,2.23h0Z"/>
  <path class="cls-4" d="M104.37,112.15c-7.37,5.03-16.09,8.72-21.23,15.87-1.9.34-3.46.89-5.03,1.56,2.68-3.69,6.93-7.04,11.17-9.95,4.25-2.91,9.05-5.48,14.08-7.49h1.01Z"/>
  <path class="cls-4" d="M124.59,124.88c-4.58,1.45-13.19,5.25-17.77,1.56,5.25-1.45,12.63-5.48,17.77-1.56h0Z"/>
  <path class="cls-4" d="M92.86,128.91c-2.57,2.23-5.59,4.02-9.05,5.25-.56-3.8,4.58-6.26,9.05-5.25h0Z"/>
  <path class="cls-4" d="M102.8,129.58c-3.13,2.23-7.04,3.58-11.51,4.36,2.91-2.12,6.48-6.26,11.51-4.36h0Z"/>
  <path class="cls-4" d="M127.72,142.99c-5.14.78-10.5,1.34-15.31,2.46-2.23-2.23-5.25-3.8-8.38-5.25-3.13-1.45-6.7-2.23-9.39-4.36,4.8-.89,8.27-4.69,13.07-4.69,3.46,0,8.27,2.57,11.51,4.36,3.69,2.01,6.93,4.8,8.49,7.49h0Z"/>
  <path class="cls-4" d="M80.68,131.37c-.45,4.02-7.15,3.24-9.39,4.36,1.01-3.46,6.03-3.02,9.39-4.36h0Z"/>
  <path class="cls-4" d="M76.32,139.52c-3.58,4.25-8.16,7.6-13.41,10.28-.67-1.68.22-4.36.67-5.92,3.91-1.68,6.26-4.92,10.95-5.92v1.23c.22.34,1.01.34,1.79.34h0Z"/>
  <path class="cls-4" d="M107.72,146.34c-2.68.56-6.82,4.92-9.95,5.59-2.12.45-5.48-.22-8.16,0-4.25.34-7.93,2.68-10.62,2.46-3.58-.22-6.26-4.58-10.28-3.69,1.34-3.02,4.47-4.58,6.82-6.59,2.46-2.01,5.03-4.02,7.82-5.59.11-.34.67-.22.67-.67,10.39.45,17.43,4.13,23.69,8.49h0Z"/>
  <path class="cls-4" d="M112.41,152.26c-2.91,0-5.25-.56-8.16-.67,2.01-2.46,7.82-4.25,8.16.67h0Z"/>
  <path class="cls-4" d="M59.11,150.7c-.22.67-.67,1.23-1.56,1.23.11-.78.56-1.23,1.56-1.23h0Z"/>
  <path class="cls-4" d="M74.75,156.06c-.56,1.56-2.79,1.56-3.13,3.46-6.37.89-13.07-.11-17.43-2.23-.67-1.45,2.01-2.01,3.46-2.46,1.23-.22.78,1.23,1.56,1.56,1.9-.22,2.01-2.12,3.46-2.79,4.47-.45,9.61-.11,12.07,2.46h0Z"/>
  <path class="cls-4" d="M123.03,164.11c-9.95-1.45-18.55.56-22.46,6.26-3.8-.22-6.93.34-9.95.89-1.79-3.91-3.58-7.6-5.59-11.17,4.36.22,10.06-4.8,13.97-5.59,3.58-.78,13.19-.45,16.2,1.23,1.79,1.01,2.91,3.91,4.69,5.59,1.12,1.01,2.79,1.01,3.13,2.79h0Z"/>
  <path class="cls-4" d="M91.85,154.5c-1.79,1.9-7.82,4.02-10.28,2.23,2.23-2.01,6.03-2.35,10.28-2.23h0Z"/>
  <path class="cls-4" d="M123.92,158.85c6.59,2.79,13.97,6.48,20.56,9.61,2.12,1.01,4.92,1.12,6.59,3.13-4.36.45-6.48-1.01-9.95-2.46-2.35-1.01-5.03-1.45-6.59-2.23-1.12-.56-2.01-2.12-3.46-3.13-2.68-1.9-6.37-2.12-7.15-4.92h0Z"/>
  <path class="cls-4" d="M85.93,171.59c-11.84,2.68-20.34-3.02-25.59-9.05,1.68-.78,3.02,0,4.69,0,4.69,0,11.29-2.35,14.64-1.56,4.02,1.01,4.58,6.82,6.26,10.62h0Z"/>
  <path class="cls-4" d="M53.19,161.98c8.49,6.82,17.21,15.76,33.97,12.52.89,2.23,1.9,4.36,2.46,6.82-6.37,1.34-14.97,1.79-20.9-.34-7.71-2.79-11.84-12.52-15.53-19h0Z"/>
  <path class="cls-4" d="M97.77,173.49c-.78,2.35-2.46,3.8-4.36,5.03-1.45-.56-1.56-2.57-1.9-4.36,1.34-.89,4.47-1.34,6.26-.67h0Z"/>
  <path class="cls-4" d="M43.24,175.95c3.35,3.13.78,11.51,2.79,17.1-4.02-4.02-7.71-11.4-2.79-17.1h0Z"/>
  <path class="cls-4" d="M51.4,187.46h.89c5.25,8.05,16.2,10.39,21.23,18.66-6.15-2.35-13.07-3.8-20.23-5.03-1.01-1.68-2.01-5.7-.34-7.49-1.68-1.34-2.23-3.35-1.56-6.15h0Z"/>
  <path class="cls-5" d="M441.49,230.48c1.68-1.68,2.46-4.13,4.69-4.69,9.05-2.01,10.62,15.64,21.23,9.95,1.45,2.12,2.79,5.14,3.13,9.05.22,2.68-.56,8.38,2.79,7.49,1.9-.56,1.23-2.35.89-5.25-.56-5.48-1.56-13.19-5.92-14.08-1.56-.34-3.13,1.12-5.03.89-6.37-.56-7.37-13.86-18.66-10.62-2.01.56-1.68,1.68-4.69,2.46-3.91-8.83-8.49-16.87-12.74-25.25,4.02-3.46,7.82-9.95,12.18-12.74,1.79-1.12,7.93,5.03,9.61,6.82,4.92,5.14,9.39,8.83,13.41,14.97,7.6,11.51,16.87,24.92,18.66,42.13.89,8.94-2.23,17.99-12.52,15.53-4.02-1.01-9.39-6.7-12.18-9.61-6.03-6.7-10.28-17.99-14.86-27.04h0Z"/>
  <path class="cls-4" d="M38.21,188.8c4.13,2.12,2.12,11.17,1.56,15.87-5.59-2.35-3.8-11.17-1.56-15.87h0Z"/>
  <path class="cls-4" d="M44.47,198.75c1.12,0,1.23,1.12,1.9,1.56-1.23,5.03-1.12,11.51-.89,16.54-3.35-4.47-2.35-12.18-1.01-18.1h0Z"/>
  <path class="cls-2" d="M155.43,239.87c-10.39,12.96-27.49,10.17-35.2-2.46-5.14-8.38-5.7-22.24,2.23-28.72,4.69-3.91,14.75-6.82,21.79-2.23,4.47,2.91,11.17,12.18,12.74,18.66,1.34,5.59.22,10.28-1.56,14.75h0Z"/>
  <path class="cls-4" d="M34.19,205.56c5.7.89,6.26,10.84,5.59,19.33-.45,4.8-3.13,9.39-5.03,10.62-.11-9.72-1.45-21.57-.56-29.95h0Z"/>
  <path class="cls-4" d="M45.14,218.08h.89c1.79,11.62,10.17,18.33,8.72,32.07-3.8-3.02-7.49-9.83-9.61-16.2-1.79-5.36-2.23-10.84,0-15.87h0Z"/>
  <path class="cls-4" d="M40.78,233.05c3.24,9.16,7.82,17.1,13.74,23.69-.78,4.36-2.12,8.27-4.69,10.95-7.93-5.92-18.1-22.8-9.39-34.64h.34Z"/>
  <path class="cls-2" d="M91.52,253.28c13.74-.89,19.89,12.18,22.8,24.02,2.12,8.6-1.9,13.86-8.72,16.2-8.6,2.91-16.54-1.9-21.23-7.49-3.13-3.8-7.04-10.28-7.15-15.31,0-1.34.78-2.46.89-3.69.22-1.45-.22-2.91,0-4.02,1.23-5.59,6.93-9.27,13.41-9.72h0Z"/>
  <path class="cls-3" d="M181.02,301.55c-4.36,7.48-14.08,14.75-22.46,15.31-15.09.89-26.15-16.21-23.02-30.84.22-.9.22-2.35.67-3.47.56-1.45,2.35-2.79,3.46-4.69,1.12-2.13,1.35-4.14,2.46-5.59,4.25-5.81,10.95-10.06,18.66-10.61,2.13-.12,6.71-.34,9.06.33,14.52,3.8,19.55,25.25,11.17,39.56Z"/>
  <path class="cls-2" d="M504.85,270.15c-1.56,6.82-5.81,12.96-10.28,17.43-2.35,2.35-6.26,5.36-10.28,4.36-.22-2.23,3.02-2.35,4.36-3.13,6.37-3.58,10.28-10.84,12.74-18.44,1.34-.34,2.01-1.34,3.46-.22h0Z"/>
  <path class="cls-4" d="M47.27,274.51c2.46,2.46,4.47,5.25,5.25,9.39-2.57-2.35-3.69-6.03-5.25-9.39h0Z"/>
  <path class="cls-2" d="M512,281.32c-1.9,5.03-5.48,10.17-9.05,14.08-2.68,2.91-6.48,6.03-10.95,6.26.45-2.91,3.69-3.46,5.59-5.03,4.8-3.8,8.16-9.27,11.17-14.97,1.45-.56,1.79-1.12,3.24-.34h0Z"/>
  <path class="cls-4" d="M206.83,312.16c-3.46,2.57-9.94.11-12.74-1.9,3.36.34,8.83,2.13,12.74,1.9Z"/>
  <path class="cls-2" d="M247.95,312.16c0-.22.11-.34.34-.34,16.43-.67,25.48,9.95,24.36,25.59-.89,12.52-9.05,24.92-22.12,24.92-4.02,0-9.61-2.23-13.07-4.69-7.37-5.14-12.4-16.54-11.17-25.59.67-5.7,5.36-13.86,11.17-16.87,3.24-1.56,6.7-1.45,10.5-3.02h0Z"/>
  <path class="cls-4" d="M181.02,328.03c-3.58-1.56-5.14-5.03-7.15-8.16.89-.78,1.67-1.9,3.46-1.9,1.23,3.47,2.46,6.71,3.69,10.06Z"/>
  <path class="cls-2" d="M49.5,357.09c.67,2.57-2.01,3.91-2.79,6.59-1.56,5.25.22,11.51.34,16.54-4.25.78-4.47-7.15-4.36-10.28.22-5.36,2.01-10.73,5.03-13.07.45.11,1.79-.45,1.79.22h0Z"/>
  <path class="cls-2" d="M64.14,360.77c-.56,1.56-2.01,2.12-2.79,3.69-2.46,4.8-1.45,11.51-1.56,16.54-5.25-2.01-3.8-13.97-.89-18.44.89-1.34,3.46-3.46,5.25-1.79h0Z"/>
  <path class="cls-5" d="M438.48,365.13c7.6,3.69,15.42,7.04,20.23,13.41-.22,1.68-.45,3.24-1.23,4.36-5.48-3.02-14.75-5.81-15.87,1.9-.34,2.46.45,6.37,0,9.61-.45,3.24-2.46,6.59-4.69,6.59-2.35,0-3.35-4.02-5.03-5.25-2.79-2.23-5.25-1.68-9.95-1.9,1.34-2.68,5.36-2.68,6.82-5.25.34-1.34.11-1.68,0-3.13,4.47-5.59,8.38-11.62,9.72-20.34h0Z"/>
  <path class="cls-5" d="M456.47,386.92c-2.46,12.29-7.82,24.14-14.3,34.64-4.69,7.49-9.61,14.19-16.54,20-4.02,3.35-8.72,9.95-16.54,9.39-3.02-.22-4.25-2.23-6.59-3.69-3.69-13.63,2.01-24.36,7.15-34.3,2.79-5.48,5.03-11.4,8.72-14.97,3.02-.78,5.14-1.68,7.82-1.23,4.69.78,5.36,6.7,9.05,7.15,2.91.45,6.15-1.9,7.15-3.13,3.35-4.02,2.57-10.84,2.79-16.87,0-.56.22-.78.67-.89,5.36-.56,8.16,1.56,10.62,3.91h0Z"/>
  <path class="cls-2" d="M179.79,109.02c2.79,1.34,7.49.22,9.95-.67-2.23-2.91-8.38-2.57-9.95.67h0ZM69.39,124.55c3.69-.78,5.25-4.36,7.82-6.59,2.23-1.9,6.59-3.13,6.59-7.15-6.93,2.57-12.63,6.26-14.41,13.74h0ZM103.36,112.15c-4.92,2.01-9.72,4.47-14.08,7.49-4.25,2.91-8.49,6.26-11.17,9.95,1.45-.67,3.13-1.23,5.03-1.56,5.14-7.26,13.86-10.95,21.23-15.87h-1.01ZM106.82,126.45c4.58,3.69,13.19-.11,17.77-1.56-5.14-3.91-12.52.11-17.77,1.56h0ZM62.91,125.78c-2.79,4.02-6.26,7.49-7.15,13.41,5.14-2.23,6.82-7.93,8.72-13.41h-1.56ZM83.81,134.27c3.46-1.23,6.48-3.13,9.05-5.25-4.47-1.12-9.61,1.34-9.05,5.25h0ZM91.29,133.94c4.47-.78,8.38-2.12,11.51-4.36-5.03-1.79-8.6,2.23-11.51,4.36h0ZM119.34,135.5c-3.24-1.79-8.05-4.36-11.51-4.36-4.92,0-8.27,3.69-13.07,4.69,2.57,2.12,6.26,2.91,9.39,4.36,3.13,1.45,6.15,3.02,8.38,5.25,4.8-1.12,10.17-1.68,15.31-2.46-1.68-2.68-4.92-5.48-8.49-7.49h0ZM71.29,135.72c2.23-1.12,8.94-.34,9.39-4.36-3.35,1.34-8.38.89-9.39,4.36h0ZM74.42,139.19v-1.23c-4.58,1.01-6.93,4.25-10.95,5.92-.45,1.56-1.23,4.25-.67,5.92,5.25-2.68,9.83-6.03,13.41-10.28-.67,0-1.45,0-1.79-.34h0ZM84.03,137.96c0,.45-.56.34-.67.67-2.79,1.56-5.36,3.69-7.82,5.59-2.46,1.9-5.59,3.46-6.82,6.59,4.02-.78,6.7,3.46,10.28,3.69,2.68.22,6.37-2.23,10.62-2.46,2.57-.22,6.03.45,8.16,0,3.13-.78,7.26-5.03,9.95-5.59-6.26-4.47-13.3-8.16-23.69-8.49h0ZM104.37,151.7c2.79.11,5.14.67,8.16.67-.45-5.03-6.26-3.24-8.16-.67h0ZM57.55,152.04c.89,0,1.34-.56,1.56-1.23-1.01-.11-1.45.34-1.56,1.23h0ZM62.57,153.49c-1.45.67-1.56,2.57-3.46,2.79-.78-.22-.34-1.79-1.56-1.56-1.34.45-4.13,1.01-3.46,2.46,4.36,2.12,11.06,3.02,17.43,2.23.22-1.9,2.46-1.9,3.13-3.46-2.35-2.46-7.49-2.79-12.07-2.46h0ZM119.9,161.31c-1.79-1.68-2.91-4.58-4.69-5.59-3.02-1.68-12.63-2.01-16.2-1.23-3.91.89-9.61,5.81-13.97,5.59,2.01,3.69,3.91,7.37,5.59,11.17,3.02-.56,6.15-1.12,9.95-.89,3.91-5.59,12.4-7.71,22.46-6.26-.34-1.79-2.01-1.79-3.13-2.79h0ZM81.57,156.62c2.46,1.9,8.49-.22,10.28-2.23-4.25,0-8.05.34-10.28,2.23h0ZM131.18,163.88c1.45,1.01,2.35,2.57,3.46,3.13,1.56.78,4.25,1.12,6.59,2.23,3.46,1.56,5.7,2.91,9.95,2.46-1.68-1.9-4.36-2.01-6.59-3.13-6.59-3.24-13.97-6.82-20.56-9.61.67,2.68,4.36,2.91,7.15,4.92h0ZM79.67,160.98c-3.35-.78-9.95,1.56-14.64,1.56-1.68,0-2.91-.78-4.69,0,5.14,6.03,13.74,11.73,25.59,9.05-1.68-3.8-2.23-9.61-6.26-10.62h0ZM68.83,180.98c5.81,2.01,14.53,1.68,20.9.34-.67-2.46-1.56-4.58-2.46-6.82-16.76,3.24-25.48-5.59-33.97-12.52,3.58,6.48,7.71,16.2,15.53,19h0ZM91.52,174.16c.34,1.79.34,3.8,1.9,4.36,1.9-1.23,3.58-2.68,4.36-5.03-1.79-.67-4.92-.22-6.26.67h0ZM46.04,193.16c-2.01-5.59.56-13.97-2.79-17.1-4.92,5.59-1.23,12.96,2.79,17.1h0ZM52.96,193.72c-1.68,1.68-.78,5.81.34,7.49,7.15,1.23,14.19,2.68,20.23,5.03-4.92-8.38-15.98-10.62-21.23-18.66h-.89c-.67,2.68-.11,4.69,1.56,6.15h0ZM456.47,257.63c2.68,3.02,8.16,8.72,12.18,9.61,10.17,2.46,13.41-6.59,12.52-15.53-1.79-17.21-11.17-30.51-18.66-42.13-4.02-6.15-8.49-9.83-13.41-14.97-1.68-1.79-7.93-8.05-9.61-6.82-4.25,2.79-8.05,9.27-12.18,12.74,4.36,8.38,8.94,16.43,12.74,25.25,3.02-.78,2.68-1.9,4.69-2.46,11.29-3.24,12.4,9.95,18.66,10.62,1.9.22,3.35-1.23,5.03-.89,4.36.89,5.36,8.49,5.92,14.08.34,2.91.89,4.8-.89,5.25-3.35.89-2.57-4.8-2.79-7.49-.34-3.91-1.68-6.93-3.13-9.05-10.62,5.7-12.18-11.96-21.23-9.95-2.23.45-2.91,3.02-4.69,4.69,4.47,8.94,8.72,20.23,14.86,27.04h0ZM39.78,204.67c.56-4.69,2.57-13.74-1.56-15.87-2.23,4.69-4.02,13.52,1.56,15.87h0ZM45.48,216.85c-.22-4.92-.22-11.4.89-16.54-.67-.45-.78-1.56-1.9-1.56-1.34,5.92-2.35,13.63,1.01,18.1h0ZM34.86,235.51c1.9-1.23,4.58-5.81,5.03-10.62.67-8.49,0-18.44-5.59-19.33-1.01,8.38.34,20.23.56,29.95h0ZM45.14,233.95c2.12,6.37,5.81,13.19,9.61,16.2,1.45-13.74-6.93-20.45-8.72-32.07h-.89c-2.23,5.03-1.79,10.5,0,15.87h0ZM40.45,233.05c-8.72,11.73,1.34,28.72,9.39,34.64,2.57-2.68,3.91-6.48,4.69-10.95-5.92-6.59-10.39-14.53-13.74-23.69h-.34ZM52.63,283.78c-.78-4.13-2.79-6.93-5.25-9.39,1.45,3.46,2.57,7.15,5.25,9.39h0ZM428.75,385.47c.11,1.45.34,1.79,0,3.13-1.45,2.57-5.48,2.57-6.82,5.25,4.69.22,7.15-.34,9.95,1.9,1.68,1.34,2.57,5.25,5.03,5.25,2.23,0,4.25-3.35,4.69-6.59.45-3.35-.34-7.15,0-9.61,1.12-7.71,10.39-4.92,15.87-1.9.78-1.12,1.12-2.68,1.23-4.36-4.92-6.37-12.63-9.72-20.23-13.41-1.34,8.72-5.25,14.75-9.72,20.34h0ZM445.96,382.9c-.34.11-.67.45-.67.89-.22,5.92.56,12.85-2.79,16.87-1.01,1.23-4.36,3.46-7.15,3.13-3.69-.56-4.36-6.37-9.05-7.15-2.57-.45-4.69.45-7.82,1.23-3.69,3.58-5.92,9.5-8.72,14.97-5.14,9.95-10.84,20.67-7.15,34.3,2.23,1.56,3.58,3.46,6.59,3.69,7.82.67,12.52-6.03,16.54-9.39,6.93-5.7,11.84-12.4,16.54-20,6.59-10.39,11.84-22.24,14.3-34.64-2.57-2.23-5.36-4.36-10.62-3.91h0ZM142.38,84.98c.34-4.69,6.38-3.42,10.26-2.56-.03.03-.06.06-.1.09-2.26,2.16-6.43,2.38-10.18,3.04,0-.2,0-.39.02-.57ZM139.56,81.42c1.01,2.34-1.45,5.14-3.13,6.25-4.02,2.69-10.95,3.47-13.4,7.49-6.82,1.45-13.3,5.03-19,6.59,8.16-10.39,17.65-19.55,35.53-20.33ZM118.78,118.07c-.67.45-.78,1.67-1.23,2.46-7.51,2.28-15.56,5.25-24.52,5.58-1.16.05-2.34.05-3.53,0,2.55-4.32,7.09-6.56,11.75-8.66.03-.02.07-.03.1-.05.56,1.89-1.99,3.12-1.57,5.89v.03c4.03-.78,3.58-5.7,6.82-8.72.61-.58,1.38-1.12,2.28-1.61.15-.08.31-.17.48-.24,4.05-2.04,10.35-3.14,15.68-3.17h.22c1.51,0,3.22.11,4.79.44,1.58.34,3.03.9,4.04,1.79-6.04,1.23-10.73,3.69-15.31,6.26ZM161.54,111.3c-4.39,1.04-9.16,2.7-13.93,1.74-2.91-.56-6.15-2.68-9.61-3.69-3.7-1.1-7.52-1.77-11.51-1.92-.95-.04-1.92-.04-2.9,0-3.15.07-6.41.48-9.83,1.24-.04,0-.08.01-.12.02.22-1.2,1.6-2.04,2.92-2.09.07-.01.14-.01.2-.01.05,0,.11,0,.17.01.52.03,1.01.2,1.4.53.02,0,.04-.02.06-.04,4.56-2.76,10.55-4.47,17.15-5.36,8.64-1.18,18.34-.95,27.28.14,6.19.77,12.01,1.95,16.86,3.36-4.14,4.36-10.06,4.36-17.43,5.92-.2.04-.4.09-.6.14-.04.01-.07.01-.11.02ZM481.94,224.11c-4.36-9.27-10.5-16.87-15.31-24.58-6.48-5.81-13.85-13.75-21.23-18.66-3.91-2.68-7.04-3.36-10.61-.67-3.02,4.8-7.04,8.04-11.18,12.18-7.26,7.15-14.86,14.52-22.79,21.45-4.03,3.47-6.04,4.81-10.28,1.9-27.38-29.61-61.8-52.07-97.89-72.97,1.45-1.67,4.25-8.94,6.59-9.38,2.35-.45,5.37,2.9,8.16,4.02,2.35,1.01,4.58,1.12,7.49.67,6.25-1.01,15.64-5.92,18.1-10.28,5.14-9.05,1-21.12-7.49-26.82,4.14-5.36,12.74-8.6,11.85-17.77-.67-6.7-8.61-11.84-15.31-12.18-6.59-.33-11.51,3.02-16.87,4.03-.9-8.27-5.59-15.87-13.75-14.98-5.92.56-11.17,6.04-14.3,11.18-2.24,3.69-2.24,8.04-4.7,10.95-5.36-2.57-9.49-6.37-18.1-5.59-5.25,3.13-9.38,6.48-10.28,12.74-1.23,8.83,5.37,13.3,10.28,16.2,2.24,1.34,6.71,2.57,7.15,4.03.67,2.34-4.58,10.28-5.92,10.61-3.24,1.01-7.15-1.67-9.61-2.79-2.9-1.23-6.14-3.02-8.38-4.03-10.73-4.8-23.69-6.81-33.07-11.17,1.67-3.35,5.81-4.13,6.59-8.38-4.14.78-6.48,7.26-10.28,7.82-1.79.34-6.04-1.56-9.05-2.46-6.26-1.9-10.84-2.79-16.21-4.35,3.92-6.49,10.51-10.84,20.01-11.51,5.92-.34,12.51,1,15.3-2.46-14.52-2.01-27.04,1.56-34.64,8.38-1.67,1.56-3.35,4.8-5.25,5.25s-5.7-.67-7.82-.89c-8.6-.79-17.1-.23-26.15-.9,2.13-4.8,7.94-4.58,13.97-6.25,3.8-1.12,7.93-3.02,11.51-3.47,3.69-.56,7.6,1.01,11.17,0,1.46-.45,2.8-1.68,4.03-2.23,5.47-2.35,11.62-3.8,13.07-9.95-3.24,1.68-5.7,5.59-10.28,6.82-.78.22-1.9-.23-2.79,0-.78.11-1.12.78-1.9.89-2.35.45-5.14.34-7.82.67-2.46.34-5.03,1.45-7.16,1.57-4.91.11-10.16-1.57-14.63-2.24,4.13-7.04,7.37-22.01-3.13-24.36,1.56,3.35,4.13,6.04,3.46,10.39-.11,5.37-2.79,10.84-5.03,14.31-12.51,1-21.79,3.13-29.27,9.94-2.46,2.24-5.48,5.48-8.38,8.38-2.24,2.24-5.81,7.71-8.38,8.38-2.13.45-4.81-.44-6.6-.67,2.35-5.25,7.15-8.6,11.18-12.18,7.71-6.81,16.09-13.41,19.33-24.02-1.12-1.57,1.34-3.8-.34-4.7-3.91,5.14-5.03,11.18-8.71,15.87-7.71,9.84-20.56,14.98-25.82,27.16-3.79.89-6.25,4.69-9.94,4.69,2.12-4.47.45-9.39.67-14.08.34-8.83,4.25-14.97,8.38-20.9,2.01-1,3.13-2.9,5.59-4.02,2.46-1,5.92-.33,7.82-2.46-15.64-1.23-25.48,14.75-25.59,28.72-.11,6.03,1.34,13.07-2.23,16.54-4.14,4.02-8.27,7.6-11.51,12.18-2.13,3.01-4.7,6.7-5.59,10.61-.56,2.13.11,4.03-.67,6.26-1.01,2.68-5.36,6.15-6.59,8.38-1.9-6.14.22-12.51-.34-18.66-.33-3.35-1.56-6.37-1.9-9.39-.78-6.92,1.45-13.96,2.79-19.33,2.13-2.68,3.13-5.7,5.26-8.38,2.79-3.57,6.92-4.69,10.61-7.48-2.34-.12-5.03.33-7.15,1.56-8.94,5.25-15.53,17.99-15.53,30.51.11,4.58,1.9,8.93,2.23,13.74.56,8.16-.22,16.2.34,24.02-4.69,5.59-9.95,9.84-14.3,15.54-4.81,6.25-5.93,13.07-9.06,20.89-4.69,11.85-14.3,21.12-17.09,35.2-.23,1.57-1.57,4.47.33,5.92,3.02-.78,2.8-5.81,3.47-8.71,2.57-10.28,8.27-17.43,12.74-25.59,3.12-5.7,5.14-11.73,7.48-18.1,2.24-5.93,5.92-11.85,10.62-14.31-8.83,17.66-14.42,43.47-9.39,68.84-4.92,5.92-12.51,12.51-12.74,23.35,0,3.13.56,9.83,4.36,9.39.67-2.57-1-4.47-1.23-7.15-.89-9.39,4.36-18.67,10.62-21.46,2.34,12.52,6.14,23.58,10.95,33.64-7.04,3.79-13.52,12.29-11.51,23.35.56,2.9,2.23,6.15,3.46,8.72,1.23,2.57,2.68,6.36,5.92,5.92-.22-2.24-2.34-3.91-3.46-6.26-5.03-10.62-4.36-26.37,6.59-28.94,3.58,4.8,6.6,11.51,9.95,16.54,1.23,1.78,3.13,2.46,3.46,4.35,1.23,6.04-4.36,13.08-.89,19.67,3.8-2.01.45-12.29,3.69-15.87,16.42,22.13,38.1,39.11,58.88,56.99-1.78,3.13-3.91,6.04-6.81,8.16-6.48-5.36-23.8-11.62-30.84-2.46-3.47,4.47-3.47,14.86.67,19,1.9,1.79,4.47,2.01,5.92,4.02-4.69,5.14-12.63,11.73-15.53,19.33-.9,2.24-2.01,5.48-1.57,7.82,1.46,6.93,16.32,3.8,21.79,2.8-4.47,14.41,5.03,28.27,19,27.15,8.72-.67,13.18-8.72,14.3-17.43,6.48,6.82,20.45,4.69,25.26-1.57,8.15-10.72-1.9-28.04-11.51-33.29-1.79-.9-3.8-.56-4.7-2.46,1.68-3.13,3.24-6.6,5.93-8.72,6.7,3.46,11.06,9.83,16.87,14.3,2.57,2.02,5.7,3.69,8.38,5.59,8.6,6.04,17.54,11.06,26.82,16.2,9.16,3.02,18.21,7.83,27.71,10.28,25.37,6.49,57.88,8.72,82.02,1.23,3.02-.89,5.81-2.57,8.71-3.68,12.97-5.03,24.92-9.5,35.87-15.31,6.04-5.37,13.97-10.28,20.01-15.87,3.91-3.58,7.48-6.15,10.95-9.95,2.01-2.12,4.47-3.91,5.92-5.58,1.45-1.68,2.46-4.03,4.69-6.6,1.57-1.78,3.69-5.58,5.59-5.58.78,0,6.7,4.02,7.15,4.36,3.69,2.57,7.26,6.59,11.51,9.38,3.02,1.9,6.26,2.8,8.16,5.59-3.13,2.23-5.59,4.25-9.61,4.69-2.35.34-5.37-.67-8.38,0-2.8.56-6.48,3.47-8.16,5.25-2.68,2.91-3.8,5.93-4.02,9.61-.23,3.36,1.23,7.27,0,11.18-.67,2.01-3.13,4.58-5.03,5.92-1.34,1.01-3.24,1.34-4.69,2.24-4.36,2.68-11.4,16.31-2.24,17.76,0-1.9-1.79-4.58-1.23-7.82,1.57-9.16,13.75-9.72,16.2-17.77,1.34-4.35-.89-10.39.67-15.53,1.12-3.69,5.93-7.6,8.72-8.16,4.47-1,8.38.45,11.84-.33-3.79,5.81-6.81,12.74-10.28,19.67-3.46,7.04-6.92,14.19-7.15,22.79-.22,9.05,2.13,17.1,8.72,20.23,8.71,4.13,18.44-2.24,24.02-6.6,7.71-6.03,14.53-13.96,20.01-21.79,5.14-7.37,10.05-16.42,13.74-24.58.22-2.23.89-3.91,2.23-5.03,2.02,4.25,8.94,2.68,12.52,5.25,2.12,1.57,1.68,5.93,5.59,5.03,1.11-4.13-1.34-6.59-5.03-8.38-2.35-1.12-6.48-.67-8.16-1.9-1.56-1.23-3.24-6.14-3.13-8.16.11-1.22,1.23-2.79,1.57-4.02.78-2.9,2.23-7.15,2.79-9.94.22-1.12.45-2.46.34-3.13-.45-2.57-6.71-7.6-9.61-9.39-4.7-2.9-8.5-4.91-12.18-7.15-12.97-7.82-24.7-11.17-37.1-17.43.89-4.02,3.13-6.59,5.03-9.61,1.78-7.71,4.47-15.31,6.25-23.69,4.03-19.33-1.67-42.24-6.59-56.99,2.35-3.46,5.81-5.81,8.72-8.72,2.9-2.9,5.58-6.36,9.38-8.15.45,1.23,3.35,3.24,2.8,5.92-.23,1.34-2.69,2.12-3.69,3.46-1.12,1.46-2.46,4.25-2.24,6.6.45,4.69,8.16,9.27,8.16,14.64.11,3.35-3.35,6.92-3.69,10.95-.22,2.57,0,6.03.9,8.15.89,2.24,6.03,7.38,8.38,2.46-.34-.78-2.8-.33-3.69-.89-2.46-1.79-2.46-6.37-2.23-9.39.33-4.47,3.8-7.04,3.68-11.17-.11-8.05-15.42-15.87-4.02-21.46,6.48,10.95,13.41,23.92,24.03,30.51,1.34.89,3.46,1.9,5.02,2.23,14.75,3.36,25.03-8.94,25.26-20.22.33-12.63-4.47-22.13-8.72-31.18ZM421.82,381.33c-8.49-4.92-15.75-10.28-23.69-16.54-2.67-2.09-6.53-7.37-10.84-7.37h-.05c-1.42,0-2.91.62-4.41,2.12-1.34,1.34-1.68,3.8-2.8,5.59-5.47,9.27-14.3,17.43-21.79,24.92-10.5,7.37-19.44,16.31-32.74,20.89-18.29,10.37-38.14,17.18-61.21,17.77h-.13c-1.29.03-2.59.04-3.89.02-7.7-.07-15.4-.87-21.7-1.92-12.29-2.01-25.48-5.14-36.43-9.61-3.8-1.56-6.93-3.8-10.28-5.59-3.47-1.9-7.26-2.9-10.62-5.03-1.67-1-3.13-2.23-4.69-3.12-9.95-5.81-18.66-12.63-27.38-20.23-2.34-2.12-5.25-4.13-6.81-6.26-1.52-2.01-2.12-5.3-5.84-5.35-.39,0-.83.02-1.31.1-4.03.56-4.47,5.14-6.6,8.72-2.23,3.68-4.8,7.04-7.48,11.17-2.13,3.24-4.92,5.81-2.46,9.95.56.15,1.09.21,1.61.21h.07c1.78-.02,3.32-.73,5.09-.7h.09c.68.02,1.41.16,2.19.49,4.8,2.01,11.06,9.27,12.51,15.31,1.34,5.7-.81,10.91-5.53,10.97h-.06c-1.18,0-2.52-.31-4.02-1.03-6.37-3.02-9.72-12.85-13.96-17.43-.35-.1-.7-.17-1.02-.2-.08,0-.15,0-.22,0-3.39-.24-5.36,3.1-5.36,5.8,0,1.34.9,2.23,1.23,3.68,1.68,7.27,1.68,17.21-2.23,21.79-.68.11-1.33.18-1.96.21-.4.02-.78.02-1.16-.01-9.56-.37-12.77-11.05-9.62-21.09.78-2.8,2.46-5.59,3.69-8.16,1.56-3.13,4.13-6.03,4.35-7.49.55-3.41-1.71-4.32-3.38-5-.03-.01-.05-.02-.08-.03-5.47,1.79-7.71,7.83-11.84,11.85-2.37,2.21-4.88,4.05-8.69,4.48-.26.02-.53.04-.8.06-.57.03-1.16.03-1.78-.01-1.13-.05-2.36-.22-3.71-.51,1.57-9.94,8.38-14.52,14.31-20,.32-.03.66-.07,1.02-.1.03,0,.06,0,.09,0,.18-.02.35-.04.53-.06,2.38-.25,5.23-.64,7.39-1.43.15-.05.29-.1.43-.16.15-.06.31-.13.46-.2.14-.07.28-.14.41-.2,2.19-1.21,2.91-3.11-.05-6.22-.22,0-.44-.01-.65-.03-.55,0-1.1-.04-1.64-.1-.82-.07-1.63-.17-2.42-.32-.71-.11-1.41-.26-2.09-.44-.84-.21-1.65-.47-2.44-.77-.35-.13-.7-.27-1.04-.43-.3-.13-.6-.27-.89-.42-.26-.13-.51-.26-.75-.4-1.73-.98-3.19-2.2-4.29-3.68-.11-3.8-.56-6.71.9-9.39.62-.17,1.29-.27,1.99-.29.32-.02.66-.02.99-.01,5.14.19,11.58,3.33,13.89,5.55,1.45,1.46,2.12,4.25,4.02,4.7.17.04.34.07.51.08.03.01.05.01.08.01,2.26.23,4.48-1.1,6.23-2.33.56-3.58,2.9-5.25,5.25-7.82,2.46-2.79,4.58-5.36,7.15-8.16-.44-1.67-.67-3.57-1.56-4.69-24.03-19.78-47.94-39.67-65.71-65.71,1.34-7.93-3.35-14.08-6.25-19.66,2.12-3.8,5.02-6.82,6.59-11.18.03.02.06.04.09.07,5.63,3.82,7.06,11.72,7.73,20.49.04-.02.09-.03.13-.05,3.75-1.45,2.32-8.14,1.44-11.79-.68-2.79-2.02-5.81-3.47-8.16-1.34-2.23-4.25-4.47-4.69-6.59-.34-1.79.33-3.46.33-5.03.11-5.92-1.23-10.84-2.79-16.54.05.02.09.04.14.06,13.32,5.85,19.85,20.13,16.73,39.83.09.01.18.01.27.01h.13c3.2-.12,2.07-4.34,2.4-6.6.78-6.48,1-14.19-1.9-20.89-.9-2.02-3.47-5.03-5.26-6.82-1.11-1.01-2.34-3.13-3.46-4.02-2.46-1.9-5.14-2.8-7.15-5.25-3.58-4.47-5.59-12.41-5.25-19.34.04.02.07.05.11.07,2.96,1.9,5.3,4.55,8.94,6.75,3.35,2.01,7.93,4.02,10.28,7.15,3.35,4.47,10.17,15.31,10.95,22.13.45,3.91-.22,6.03-1.9,8.38.06-.01.12-.03.18-.05,4.64-1.17,5.28-9.19,3.51-14.93-1.46-5.02-6.37-12.73-9.61-16.87-1.68-2.12-3.8-3.46-5.03-5.03-5.92-2.9-12.85-6.37-14.3-12.74.04,0,.08,0,.12,0,8.77.91,15.89,3.59,21.67,7.48,3.01,11.51,5.69,24.36,13.07,31.51,1.57,1.57,4.11,3.72,6.9,3.52.09,0,.17,0,.26-.01.05,0,.11,0,.17,0,.05-.01.1-.02.16-.03-.12-2.91-3.02-3.69-4.7-5.59-5.58-6.48-9.27-14.97-10.28-24.92.06.03.12.06.17.09,5.61,2.93,9.58,8.35,12.91,13.99,1.56,2.68,3.01,5.7,4.69,7.82,1.05,1.24,3.01,3.07,5.17,3,.36,0,.72-.07,1.09-.2-1.01-3.47-4.03-5.7-5.92-8.72-5.48-8.94-10.73-17.66-20.57-22.46-4.69-13.75-20.78-16.09-27.37-28.05-.9-6.14-3.35-10.5-2.8-16.87h.12c1.75,0,1.12,2.37,1.78,3.46,5.59,5.7,7.94,13.97,13.41,19.33,2.91,2.91,9.05,2.35,13.08,4.7,2.9,1.67,5.47,5.03,8.15,7.48,7.04,6.6,10.95,13.64,14.98,23.36.64,1.37.67,4.16,3.05,4.07.13-.01.27-.03.41-.05,1.34-1.79-.56-3.69-1.23-5.25-3.35-8.72-5.58-16.09-12.18-22.46-2.46-2.35-4.91-4.81-7.15-6.82-1.79-1.56-5.47-3.57-8.16-4.36-4.13-1.11-8.27-.55-9.38-5.25.05,0,.09.02.14.03,3.19.7,7.35,1.34,11.54,1.54,1.82.1,3.64.11,5.39.01,2.55-.15,4.95-.53,6.95-1.24.01.01.02.03.03.04,4.14,6.58,10.93,12.82,17.74,17.72,1.41,1,3.67,2.91,5.61,2.84h.04c.67-.04,1.3-.31,1.84-.94-2.57-3.35-6.6-4.8-9.95-7.82-4.36-3.91-9.27-7.82-11.84-13.74,2.79-2.68,5.25-5.48,7.82-8.38.06,0,.11,0,.17.02.31.02.61.04.91.07.31.03.61.06.91.09.6.07,1.19.14,1.77.23.56.08,1.11.16,1.65.26.11,0,.22.03.34.05.53.1,1.06.2,1.58.31,1.03.22,2.05.46,3.03.73.01.01.02,0,.02,0,.45.12.89.25,1.33.38.42.13.84.26,1.26.4.4.14.8.27,1.2.41,12.16,4.42,20.52,12.68,29.74,20.07.04-.04.07-.07.1-.11,2.69-2.99-2.13-6.06-4.12-7.72-2.46-2.12-5.59-4.47-8.05-6.25-8.04-6.04-17.09-10.17-28.71-11.85.98-2.29,3.83-3.44,7.38-3.84.18-.03.37-.04.56-.06,6.08-.56,13.95.95,17.87,2.67,1.68.67,3.57,2.35,5.25,3.69,4.36,3.35,11.18,8.27,16.87,9.61.59.14,1.17.21,1.73.23h.04c1.75.04,3.23-.61,3.81-2.45h0c-.1,0-.19,0-.28,0-.09,0-.18.01-.27.01-.29,0-.58,0-.85,0-5.91-.11-8.5-3.55-12.34-5.62,1.78-1.34,3.68-.45,5.92-.67,1.9-.23,3.57-1.57,5.03-1.57h.25c4.05.08,10.68,4.49,14.72,5.59,3.02.78,5.59.78,8.16,1.57,2.2.73,4.22,2.26,6.4,1.97.14-.02.27-.05.41-.08-.88-1.95-2.75-2.97-5.15-3.68-.27-.08-.54-.15-.82-.22-.18-.05-.37-.1-.57-.14-.29-.07-.59-.14-.89-.2-.3-.07-.61-.13-.92-.19-1.01-.2-2.07-.38-3.15-.59-5.93-1.23-11.4-4.81-15.87-6.26-.76-1.96-1.53-4.15-3.86-4.65-.06-.02-.11-.03-.17-.04-1.74.65.99,1.84.07,2.73-.02.02-.04.04-.07.06-13.18-3.8-23.01-10.95-35.86-14.97-1.12-2.24-3.47-3.13-3.69-6.26,3.42-.79,6.52-1.48,9.86-1.61.77-.04,1.55-.04,2.35-.01.31.01.62.03.94.05.87.07,1.78.18,2.72.34,6.14,9.05,18.88,12.85,30.5,17.1,2.77,1.01,6.43,2.71,9.45,2.11.12-.02.23-.04.34-.07.87-.23,1.68-.66,2.39-1.37-6.37-1.01-11.06-3.47-17.1-5.93-5.92-2.34-11.73-3.24-14.97-7.48.11.04.22.08.33.12,4.96,1.76,9.98,5.32,17.5,5.45.28,0,.55,0,.83,0,.21,0,.43,0,.65,0,1.08-.02,2.26-.11,3.35-.32.16-.03.32-.06.48-.1.13-.03.27-.06.4-.09,1.93-.54,3.4-1.56,3.28-3.5-.1-.08-.19-.14-.29-.16h0c-.77-.22-1.5,1.29-2.49,1.39-1.23.24-2.42.35-3.59.36-.17,0-.33,0-.49-.01-6.73-.13-12.55-3.69-18.05-5.94-3.35-1.34-7.15-2.79-9.39-4.02-3.57-2.01-5.69-6.15-9.61-8.72-2.79-1.78-4.69-2.9-7.82-4.69,1.34-1.67,3.91-1.9,5.92-2.23.95-.14,1.88-.21,2.79-.23.23,0,.45,0,.67,0,.32,0,.64,0,.96.02,10.23.45,18.01,7.19,28.85,6.68h.02c.73-.03,1.48-.1,2.25-.21,2.89-.44,8.91-.78,10.27-4.32,0,0,0-.02,0-.03-.65.06-1.3.16-1.95.28-.27.04-.53.09-.8.15-.08.01-.17.03-.26.05-.34.07-.69.14-1.04.22-.27.06-.53.12-.8.18-1.62.35-3.31.72-5.17.94-.32.03-.64.06-.96.09-.38.02-.75.05-1.14.06-.59.03-1.21.03-1.84,0-.44,0-.89-.03-1.35-.07-.66-.06-1.31-.15-1.96-.26-.37-.05-.73-.11-1.09-.19-.29-.05-.58-.11-.87-.18-.43-.09-.84-.19-1.26-.3-3.9-.99-7.46-2.52-10.35-3.77,2.27-1.7,5.4-1.6,8.53-1.24.09,0,.19.02.28.03,1.7.2,3.39.46,4.93.54.6.03,1.2.05,1.79.06h.06c.61,0,1.22.02,1.82.02,5.26,0,10.27-.41,14.99.59,4.59,1.01,9.5,2.68,13.97,4.03,2.36.66,4.97,1.71,7.42,2.08,0,.01.02.01.03,0,.18.04.36.06.54.08,1.88.2,3.64-.06,5.09-1.27-9.06-1.9-19.11-7.71-30.51-8.72-.43-.04-.87-.07-1.32-.1-.44-.02-.89-.03-1.34-.04-.9-.02-1.82-.01-2.74.02-1.49.03-3.01.1-4.52.14-1.01.02-2.02.04-3.02.02-.46,0-.91-.02-1.36-.04-.14-.01-.28-.02-.42-.04-3.09-.24-6.08-.84-8.97-.63-3.22.22-6.55,1.88-9.61,1.92-.11,0-.23,0-.34-.01-.11.01-.22,0-.33,0-4.35-.32-7.39-4.56-11.51-4.71h-.07c-.06,0-.12,0-.19,0h-.19c-.07,0-.14.01-.22.01,1.12-2.01,3.46-2.35,5.25-3.13,1.9-.78,3.8-2.12,5.92-2.46.79-.12,1.59-.19,2.38-.2.51-.02,1.02-.01,1.53,0,5.16.24,10.31,2.18,15.76,2.99.74.11,1.47.17,2.18.18.32.01.62.01.93,0,6.03-.2,11.08-3.49,17.12-5.21,4.35-1.23,10.95.67,16.53-.67,2.35-.56,4.7-2.35,6.82-2.46h.3c3.3.05,9.18,2.6,12.22,3.46,5.58,1.68,11.62,3.58,17.43,5.59,3.57,1.23,6.48,3.13,9.38,4.36,3.36,1.34,7.16,2.34,10.95,4.02,3.33,1.4,8.17,5.2,12.31,5.11,1.15-.02,2.24-.34,3.23-1.09,1-.67,1.34-3.13,2.45-5.25.79-1.45,2.02-3.46,3.13-5.59.9-1.9,1.79-3.91,2.8-5.58,1.79-3.13,5.25-4.81,3.13-9.05-5.59-3.13-17.55-5.26-19-11.85-1.19-5.04,1.53-9.1,5.75-9.05.92,0,1.92.22,2.97.67,5.14,2.12,9.94,8.05,12.18,13.07,1.45,1.07,3.72,2.02,5.66,1.94,1.94-.07,3.56-1.16,3.72-4.17.11-1.68-.89-2.68-1.23-4.36-1.79-9.27,3.02-20,8.72-23.35.4-.22.81-.29,1.22-.24,1.45.15,2.86,1.73,3.47,3.03,2.57,5.7-.78,14.19-2.9,19.22.57,2.2,2.2,3.39,4.78,3.7.08.02.16.03.24.03.9.09,1.91.07,3.02-.04,2.76-5.41,11.34-14.93,19.84-14.75.46,0,.93.04,1.39.11,4.47.67,8.61,6.82,4.7,11.84-3.47,2.91-5.81,6.82-11.18,8.72-3.8,1.34-15.31,2.24-14.97,7.15.17,3.19,3.25,3.29,6.46,2.63.04-.01.08-.02.12-.03,2.83-.6,5.74-1.77,6.83-1.93.48-.06.95-.09,1.41-.07,7.73.19,13.72,10.34,10.77,17.5-1.76,4.4-6.46,5.99-11.62,8.07-.08.03-.15.06-.23.09-3.24-1.23-5.58-2.12-8.71-4.02-1.97-1.27-4.54-4.81-7.26-5.1-.37-.04-.75-.02-1.12.07-5.37,1.23-5.93,9.83-9.61,13.41-1.01,1.01-2.35,1.01-3.13,1.9-1.46,1.68-3.24,6.59-2.8,8.38.79,2.79,6.26,3.8,9.06,5.25,8.26,4.25,16.87,9.72,25.25,15.31,16.2,10.95,31.96,20.78,46.71,33.97,3.46,3.02,6.81,6.7,10.28,9.95,3.57,3.35,7.93,6.25,10.28,9.61,1.45,2.12,2.9,8.49,6.81,9.6.36.09.76.13,1.18.13h0c2.25,0,5.23-1.14,6.64-2.36,1.23-1.01,1.78-2.91,3.12-4.02.68-.56,1.68-.56,2.46-1.23,1.34-1.01,2.68-3.02,4.03-4.36,3.68-3.69,8.71-8.49,12.73-11.51.06.11.12.22.19.33,1.29,2.27,2.68,4.84,4.17,7.83,1.23,2.57,3.8,5.81,3.69,8.38-.11,2.57-6.59,7.6-8.72,9.61-3.57,3.46-6.59,7.04-9.38,9.05-3.02,2.12-8.61,3.24-8.38,7.49,0,1.67,1.34,2.01,2.46,3.68,2.57,4.03,3.91,10.51,5.25,15.87,2.68,11.51,3.91,27.38.89,41.79-2.01,9.39-4.02,20.12-9.39,26.49-1.67,2.12-6.25,3.68-4.02,7.48,1.68,3.02,11.85,5.59,15.53,7.15,6.37,2.69,11.85,5.14,15.87,6.6,1.21,8.8-1.26,16.62-6.03,21.23-.07.07-.15.15-.23.22Z"/>
  <path class="cls-4" d="M86.75,383.45c-1.73-.98-3.19-2.2-4.29-3.68-.11-3.8-.56-6.71.9-9.39.62-.17,1.29-.27,1.99-.29-.65.04-1.26.13-1.84.29-1.34,2.68-.89,5.59-.89,9.39,1.04,1.48,2.46,2.71,4.13,3.68Z"/>
  <path class="cls-4" d="M134.64,427.84c-1.18,0-2.52-.31-4.02-1.03-6.37-3.02-9.72-12.85-13.96-17.43-.35-.1-.7-.17-1.02-.2.39.01.79.08,1.22.2,4.25,4.47,7.49,14.3,13.98,17.43,1.4.68,2.67,1,3.8,1.03Z"/>
  <path class="cls-4" d="M105.94,440.64c-9.56-.37-12.77-11.05-9.62-21.09.78-2.8,2.46-5.59,3.69-8.16,1.56-3.13,4.13-6.03,4.35-7.49.55-3.41-1.71-4.32-3.38-5,.03-.01.07-.02.1-.03,1.68.68,4.03,1.57,3.47,5.03-.22,1.46-2.8,4.36-4.36,7.49-1.12,2.57-2.8,5.48-3.7,8.16-3.13,9.98-.06,20.6,9.45,21.09Z"/>
  <path class="cls-4" d="M89.41,394.64c-.3.03-.59.07-.86.1-5.93,5.59-12.76,10.17-14.32,20,1.29.28,2.47.44,3.56.51-1.13-.05-2.36-.22-3.71-.51,1.57-9.94,8.38-14.52,14.31-20,.32-.03.66-.07,1.02-.1Z"/>
  <path class="cls-4" d="M98.72,392.58c2.19-1.21,2.91-3.11-.05-6.22-.22,0-.44-.01-.65-.03.27.02.55.03.82.03,3.04,3.14,2.2,5.03-.12,6.22Z"/>
  <path class="cls-4" d="M123.68,362.11c-2.57,2.91-4.7,5.37-7.16,8.16-2.35,2.68-4.7,4.24-5.26,7.82-1.8,1.37-4.1,2.75-6.42,2.33,2.26.23,4.48-1.1,6.23-2.33.56-3.58,2.9-5.25,5.25-7.82,2.46-2.79,4.58-5.36,7.15-8.16-.44-1.67-.67-3.57-1.56-4.69-24.03-19.78-47.94-39.67-65.71-65.71,1.34-7.93-3.35-14.08-6.25-19.66,2.12-3.8,5.02-6.82,6.59-11.18.03.02.06.04.09.07-1.68,4.21-4.46,7.33-6.57,11.11,2.91,5.58,7.61,11.73,6.26,19.66,17.68,26.04,41.74,45.93,65.8,65.71,1,1.12,1.11,3.02,1.56,4.69Z"/>
  <path class="cls-4" d="M260.27,428.73c-7.7-.07-15.4-.87-21.7-1.92-12.29-2.01-25.48-5.14-36.43-9.61-3.8-1.56-6.93-3.8-10.28-5.59-3.47-1.9-7.26-2.9-10.62-5.03-1.67-1-3.13-2.23-4.69-3.12-9.95-5.81-18.66-12.63-27.38-20.23-2.34-2.12-5.25-4.13-6.81-6.26-1.52-2.01-2.12-5.3-5.84-5.35,3.93-.08,4.52,3.3,6.07,5.35,1.57,2.13,4.37,4.14,6.83,6.26,8.72,7.49,17.45,14.42,27.41,20.23,1.57.89,3.02,2.12,4.7,3.12,3.36,2.13,7.27,3.25,10.63,5.03,3.36,1.79,6.49,4.03,10.29,5.59,10.97,4.36,24.17,7.6,36.48,9.61,6.21,1.03,13.77,1.83,21.34,1.92Z"/>
  <path class="cls-4" d="M422.05,381.11c-.07.07-.15.15-.23.22-8.49-4.92-15.75-10.28-23.69-16.54-2.67-2.09-6.53-7.37-10.84-7.37,4.53-.52,8.63,5.19,11.42,7.37,7.82,6.27,15,11.46,23.34,16.32Z"/>
  <path class="cls-4" d="M314.22,133.06c-.08.03-.15.06-.23.09-3.24-1.23-5.58-2.12-8.71-4.02-1.97-1.27-4.54-4.81-7.26-5.1,2.88,0,5.63,3.75,7.71,5.1,3.05,1.85,5.36,2.74,8.49,3.93Z"/>
  <path class="cls-4" d="M320.31,79.07c-8.44.16-16.68,9.44-19.39,14.75-1.3.17-2.46.18-3.47.04.9.09,1.91.07,3.02-.04,2.76-5.41,11.34-14.93,19.84-14.75Z"/>
  <path class="cls-4" d="M291.86,67.88c-.27.02-.53.1-.79.24-5.71,3.35-10.52,14.08-8.73,23.35.34,1.57,1.35,2.68,1.23,4.36-.18,3.22-2.02,4.25-4.14,4.17,1.94-.07,3.56-1.16,3.72-4.17.11-1.68-.89-2.68-1.23-4.36-1.79-9.27,3.02-20,8.72-23.35.4-.22.81-.29,1.22-.24Z"/>
  <path class="cls-4" d="M269.14,114.27c-.89,1.67-1.79,3.68-2.8,5.58-1.12,2.13-2.35,4.14-3.13,5.59-1.01,2.01-1.45,4.47-2.46,5.25-1.1.83-2.33,1.14-3.62,1.09,1.15-.02,2.24-.34,3.23-1.09,1-.67,1.34-3.13,2.45-5.25.79-1.45,2.02-3.46,3.13-5.59.9-1.9,1.79-3.91,2.8-5.58,1.79-3.13,5.25-4.81,3.13-9.05-5.59-3.13-17.55-5.26-19-11.85-1.19-5.04,1.53-9.1,5.75-9.05-4.01.16-6.52,4.08-5.37,9.05,1.46,6.59,13.43,8.72,19.02,11.85,2.13,4.24-1.34,5.92-3.13,9.05Z"/>
  <path class="cls-1" d="M176.66,329.93c-.48-.17-.95-.44-1.42-.8-.12-.1-.25-.2-.37-.31-1.86-1.63-3.53-4.5-4.8-6.71.17.12.33.24.49.37.15.12.29.24.42.37,1.89,1.8,3.06,4.31,4.83,6.24.13.14.26.28.39.41.15.14.3.29.46.43Z"/>
  <path class="cls-2" d="M232.09,238.97h.67c1.56,0,2.01,1.79,2.23,2.46,1.45,6.59-3.8,12.96-6.59,16.2-6.26,2.57-9.83,7.82-15.31,11.17-5.7,7.93-15.53,11.73-19.33,21.45,3.58-.34,6.26-3.58,9.39-5.92,2.79-2.12,5.92-4.36,8.72-6.82,5.36-4.8,12.96-10.84,20.9-10.62,2.35.11,4.8.56,5.59,2.79-2.57,1.56-4.92-.89-8.72,0-9.27,2.01-17.88,11.29-23.69,16.54,1.9.56,3.13-.34,5.03-.67,6.26-.78,13.07,1.12,18.66,1.23,6.93.11,9.27-6.03,11.84-11.17,3.24.78.67,4.02,0,5.25-2.91,5.25-7.71,9.39-15.31,8.38-3.8-.56-7.71-1.68-11.51-1.56-9.95.34-17.66,3.8-22.8,9.61,3.02,1.34,6.82,2.46,10.28,3.13,11.51,2.01,18.1-8.49,29.28-8.72,4.69-.11,8.72,1.68,14.3,2.46-2.46,3.8-7.93,1.01-12.52.67-6.93-.56-12.4,2.12-15.87,5.25,3.8,0,6.7-1.68,10.62-2.46,3.24-.67,8.05-2.57,10.28.34-.67,1.23-1.79,1.9-3.13.89-2.91,1.23-7.26.78-9.61,2.46.56,1.56,3.69.67,5.03,1.56-1.68,5.25-7.15.22-10.62.89-1.9.34-3.24,3.69-5.03,5.03-2.12,1.68-4.02,1.68-5.92,3.13,1.79.67,3.24-.11,5.25.34,5.48,1.01,10.95,9.05,10.62,13.07-.11,1.45-.89,2.46-2.46,2.79-1.12-6.48-4.25-12.52-10.62-13.41-4.8-.67-9.5,1.79-14.3.67-5.36-1.23-7.6-4.25-11.84-6.59-.56.34-.56,1.12-1.23,1.23,6.82,6.59,10.84,15.98,19.33,20.9,5.14.45,11.73,1.45,15.53,4.36,2.46,1.9,7.71,7.37,2.79,10.28-1.12-5.59-6.82-9.83-12.18-11.17-2.23-.56-5.03,0-7.82-.89-1.45-.45-3.58-1.9-4.69-2.79-6.48-5.03-9.61-12.07-14.64-18.1-1.45.22-1.79,1.79-2.79,2.46,2.46,6.82,4.92,13.86,8.72,19.33,6.26,2.35,14.3,1.9,20.56,5.25,2.35,1.23,5.36,4.47,7.49,6.82,1.34,1.56,6.03,6.59,1.56,8.16-4.8-8.72-12.07-14.97-24.58-15.87,5.25,6.26,14.97,11.17,20,18.1,1.23,1.68,4.58,6.7,1.56,9.05-1.9-2.35-2.68-5.14-4.69-7.49-6.03-7.26-14.41-11.4-21.23-17.77-1.9-1.79-3.02-4.47-5.92-5.03,3.35,4.25,6.03,8.6,8.38,14.3,2.46,5.81,3.02,12.07,5.03,17.77.78,2.23,3.91,5.25.89,7.15-2.12.11-1.68-2.46-3.13-3.13-3.8-17.54-9.5-33.08-23.35-40.56,3.02,14.75,4.8,33.19,15.87,40.79-4.47,3.13-7.82-3.13-9.95-6.59-1.79-2.79-3.24-5.48-4.36-8.72-4.02-11.51-2.91-24.58-10.28-31.73-21.01,4.13-37.21-14.75-36.76-34.3.11-6.48,4.13-12.07,4.69-18.66,1.9-1.68,2.68-4.36,5.03-6.26.56-.45,1.56-.45,2.23-.89,1.56-1.34,2.23-3.91,4.02-5.25,6.82-5.36,19.89-8.27,29.61-6.82,12.85,1.9,18.44,12.07,22.46,23.69,2.12-4.02,2.79-9.16,5.03-14.08,1.9-4.36,4.47-8.72,7.15-11.84,2.35-2.68,7.37-8.27,12.52-6.26-.34,1.9-1.79,1.01-3.13,1.56-6.59,5.03-12.63,12.63-15.31,21.79-1.34,4.58-.89,9.61-4.36,13.07,7.82-4.69,14.75-14.19,22.8-19.89,6.59-4.69,15.42-9.27,13.74-21.23v-.56h-.11ZM142.02,272.27c-1.12,1.45-1.34,3.46-2.46,5.59-1.01,1.9-2.91,3.24-3.46,4.69-.34,1.12-.45,2.46-.67,3.46-3.13,14.75,7.93,31.73,23.02,30.84,8.38-.45,18.1-7.82,22.46-15.31,8.38-14.3,3.35-35.76-11.17-39.56-2.35-.56-6.93-.45-9.05-.34-7.6.56-14.3,4.8-18.66,10.62h0ZM190.97,301.21c-.89.78-2.23,2.68-1.9,3.69,7.6,2.01,22.68,9.16,26.15-1.56-9.16,1.12-17.21,0-24.25-2.12h0ZM206.83,312.16c-4.02.22-9.5-1.56-12.74-1.9,2.79,2.01,9.27,4.47,12.74,1.9h0ZM177.22,318.09c-1.79,0-2.46,1.01-3.46,1.9,2.01,3.13,3.58,6.59,7.15,8.16-1.12-3.46-2.35-6.7-3.69-10.06h0Z"/>
  <path class="cls-4" d="M176.66,329.93c-.48-.17-.95-.44-1.42-.8-.12-.1-.25-.2-.37-.31-1.86-1.6-3.53-4.41-4.8-6.71.17.12.33.24.49.37.15.12.29.24.42.37,1.96,1.78,3.08,4.3,4.83,6.24.13.14.26.28.39.41.15.14.3.29.46.43Z"/>
</svg>