<?xml version="1.0" encoding="UTF-8"?>
<svg id="Layer_1" data-name="Layer 1" xmlns="http://www.w3.org/2000/svg" viewBox="0 0 512 512">
  <defs>
    <style>
      .cls-1 {
        fill: #171717;
      }

      .cls-2 {
        fill: #f8d400;
      }
    </style>
  </defs>
  <g id="SKsEwn">
    <g>
      <path class="cls-1" d="M502.76,240.37c3.88,5.25,5.26,10.91,2.87,17.21-5.06,4.85-10.76,7.27-18.02,5.82-5.79-1.15-8.07,1.27-6.33,6.84,1.7,5.41,1.65,9.7-4.17,12.23-5.91,2.57-14.35.74-17.34-3.93-1.29-2.01-2.6-4.45-2.69-6.73-.34-9.05-5.68-10.19-13.1-9.44-3.76.38-5.6,1.62-6.56,5.4-11.68,46.26-41.04,78.38-81.84,100.97-14.15,7.83-28.81,14.93-44.97,17.72-6.89,1.19-6.47,5.9-6.89,10.92-.4,4.78.39,7.61,5.82,8.9,9.64,2.3,18.28,7.06,25.97,13.35,5.9,4.83,13.26,10.01,10.23,18.58-3.09,8.75-11.35,12.34-20.57,13-16.9,1.21-33.35-1.11-49.24-6.82-4.14-1.49-7.23-1.08-10.92.94-15.86,8.71-32.84,12.75-50.98,11.46-6.46-.46-12.61-1.73-17.59-6.41-6.5-6.13-6.89-12.35-1.25-19.36,8.89-11.04,21.31-15.35,34.5-17.92,4.48-.87,8.03-1.28,7.71-7.28-.46-8.55-3.37-14.44-8.74-15-10.27-1.07-20.45-2.61-30.54-4.74-24.27-5.13-46.91-14.57-67.61-27.97-20.99-13.59-36.17-32.79-47.72-54.87-4.28-11.73-9.43-23.22-10.06-35.97-.09-1.9-.18-4.73-2.86-3.77-2.62.94-6.87-2.33-7.89,2.53-1.16,5.54-4.55,10.07-6.43,15.25-1.85,1.52-3.71,3.04-5.56,4.55-7.06-.12-14.53,3.2-20.54-4.02-3.14-3.77-4.63-7.32-3.25-11.86,1.49-4.87,1.34-7.14-5.12-6.35-10.69,1.31-16.49-4.8-16.13-15.41.08-2.38.27-3.88,2.9-5.03,5.02-2.21,3.27-5.54-.1-7.46-5.74-3.28-8.82-8.05-7.48-14.25,1.35-6.21,6.66-9.25,12.64-10.7,10.28-2.5,10.29-2.46,9.06-12.55-1.01-8.27,2.74-14.91,9.6-16.96,8.13-2.44,18.14,1.14,21.7,8.18,2.09,4.14,3.65,8.56,5.19,12.95,1.56,4.43,4.03,7.1,9.16,6.69,4.9-.4,7.18-2.13,8.5-7.61,18.07-75.41,66.08-120.67,140.61-139.61,38.63-9.82,76.84-9.23,114.67,2.51,47.48,14.73,76.94,48.83,96.43,92.85,5.97,13.49,10.62,27.6,11.95,42.32.83,9.22,6.65,7.93,12.59,8.88,6.88,1.1,6.42-4.02,7.24-7.61,1.83-8.02,5.9-13.9,13.76-16.85,8.73-3.27,14.07.05,14.47,9.2.13,2.91-.19,5.89-.67,8.78-1.46,8.78-1.53,8.73,7.71,8.92,7.1.14,13.88,1.02,17.09,8.78-.25,3.01.15,6.15-1.89,8.77-.5.42-1,.83-1.5,1.25-1.84.62-3.71,1.16-5.5,1.9-1.97.82-4.55,1.34-4.86,3.85-.37,3.02,2.47,3.78,4.5,4.99ZM86.93,195.64c-2.19,4.74-2.79,9.86-3.36,14.95-.6,5.36-3.42,7.8-8.74,7.75-5.64-.06-11.3-.27-16.92.14-5.75.42-7.67-2.12-8.33-7.53-.9-7.32-2.94-14.51-8.73-19.7-4.95-4.45-9.79-2.64-11.27,3.91-.76,3.38.4,6.33,2.2,9.03,2.03,3.06,4.36,5.92,6.41,8.97,1.26,1.86,2.21,3.89.39,6.05-1.66,1.97-3.82,2.26-6.01,1.48-2.53-.9-4.89-2.26-7.37-3.3-5.24-2.18-10.05-1.64-14.24,2.45-4.4,4.3-3.67,7.93,2.29,9.54,3.75,1.02,7.73,1.32,11.62,1.72,3.77.39,8.26.68,8.33,5.31.06,4.11-4.13,4.87-7.69,5.23-.97.1-1.98.12-2.91.39-5.26,1.54-7.05,5.87-4.71,10.95,2.83,6.17,7.31,5.47,12.25,3.11,3.78-1.8,7.92-2.71,10.88.64,2.73,3.1-.94,5.73-2.24,8.44-1.71,3.57-3.8,7.16.42,10.5,7.61,3.57,10.5,1.6,12.7-8.63.31-.66.85-1.3.89-1.98q.74-12.29,13.52-12.67c1.23-.04,2.45-.15,3.67-.25,10.11-.79,10.17-.75,11.34,9.28,5.33,45.96,30.14,78.35,70.45,99.22,25.07,12.98,52.11,20.01,80.27,22.41,4.45.38,8.16,1.51,10,6.07,3.44,8.52,4.14,17.63,5.85,26.52.5,2.62-1.42,3.98-3.12,5.4-4.88-.08-9.77-.27-14.54,1.08-9.63,1.86-18.22,5.86-25.05,12.96-2.79,2.9-6.03,6.45-.49,10.06,19.41,7.89,36.99,1.99,54.15-7.16,6.56-3.07,3.1-8.08,2.44-12.55,0-8.02,0-16.05,0-24.07.42-3.39.84-6.78,1.26-10.17.47-3.77.81-7.72,6.18-7.16,4.62.48,6.05,3.47,5.82,7.76-.46,8.81-.58,17.65-1.27,26.44-1.1,13.95.76,16.95,14.14,20.86,3.06.89,6.13,1.89,9.26,2.38,10.9,1.72,21.89,4,32.66-.42,8.84-3.62,9.93-8.81,2.2-14.37-9.01-6.48-17.94-13.6-30.44-12.89-7.42.42-9.32-3.19-7.63-10.66.53-2.33-.02-4.88.32-7.28,2-14.07-2.46-15.14,15.29-17.19,2.88-.33,5.76-1.18,8.52-2.12,19.94-6.76,38.21-16.72,54.82-29.58,29.3-22.67,50.21-50.85,56.6-88.26.37-2.15,1.82-3.39,3.18-4.78,9.37.1,18.68-3.06,28.09-.52,2.57,3.33,2.69,7.28,2.75,11.21.06,3.76.42,7.36,3.35,10.17,2.28,2.19,4.91,3.59,7.96,2.07,3.14-1.56,3.51-4.65,2.71-7.65-.62-2.33-1.91-4.49-2.92-6.71-1.02-2.24-2.44-4.64-.58-6.87,1.87-2.25,4.58-1.16,6.9-.63,2.86.65,5.6,1.92,8.48,2.43,5.18.91,9.44-.15,10.16-6.43.67-5.9-1.28-9.54-7.97-9.4-2.14.04-4.42-.43-6.4-1.24-2.01-.82-4.05-2.28-3.88-4.84.19-2.8,2.78-3.27,4.85-3.68,4.08-.82,8.28-1.04,12.32-1.97,4.27-.99,7.17-3.66,6.19-8.45-1.01-4.93-4.62-6.59-9.38-6.16-3.9.35-6.65,2.89-9.67,4.97-2.51,1.73-5.27,3.07-8.06.63-2.81-2.45-2.83-5.45-1.28-8.69,1.9-3.97,3.98-7.9,5.39-12.05,1.43-4.23,2.35-8.98-3.43-10.91-5.7-1.9-8.45,1.68-10.51,6.37-2.17,4.94-1.71,10.1-1.65,15.23.07,5.48-2.03,8.23-7.93,7.67-4.87-.46-9.81-.57-14.7-.44-6.69.18-9.67-2.84-10.35-9.5-1.51-14.95-5.05-29.55-10.62-43.47-21.23-53.08-56.58-90.02-115.39-99.73-6.52-1.5-13.11-2.44-19.82-2.33-2.4-.37-4.79-.99-7.2-1.08-47.12-1.82-90.37,10.77-128.76,37.69-26.14,18.33-45.2,43.14-56.46,73.43-3.72,7.12-6.12,14.67-7.43,22.58Z"/>
      <path class="cls-2" d="M39.19,275.67c-4.22-3.34-2.12-6.93-.42-10.5,1.29-2.71,4.97-5.34,2.24-8.44-2.95-3.36-7.1-2.45-10.88-.64-4.93,2.36-9.42,3.05-12.25-3.11-2.33-5.08-.55-9.4,4.71-10.95.93-.27,1.93-.29,2.91-.39,3.56-.35,7.75-1.12,7.69-5.23-.07-4.63-4.56-4.91-8.33-5.31-3.9-.41-7.87-.71-11.62-1.72-5.95-1.62-6.68-5.25-2.29-9.54,4.19-4.09,9-4.63,14.24-2.45,2.49,1.03,4.85,2.39,7.37,3.3,2.19.78,4.35.49,6.01-1.48,1.82-2.16.87-4.19-.39-6.05-2.06-3.04-4.38-5.91-6.41-8.97-1.8-2.7-2.96-5.65-2.2-9.03,1.48-6.55,6.32-8.36,11.27-3.91,5.78,5.2,7.83,12.39,8.73,19.7.67,5.41,2.58,7.95,8.33,7.53,5.61-.41,11.28-.2,16.92-.14,5.32.06,8.14-2.39,8.74-7.75.57-5.09,1.16-10.21,3.36-14.95.17.17.32.41.53.49.19.07.64.01.66-.07,1.92-7.71,5.64-14.94,6.25-23,11.25-30.29,30.32-55.1,56.46-73.43,38.4-26.92,81.64-39.51,128.76-37.69,2.41.09,4.8.71,7.2,1.08-.18.16-.41.3-.51.5-.09.18-.03.43-.03.65,6.81.07,13.41,3.54,20.36,1.18,58.8,9.71,94.15,46.66,115.39,99.73,5.57,13.92,9.11,28.52,10.62,43.47.67,6.66,3.66,9.68,10.35,9.5,4.9-.13,9.83-.03,14.7.44,5.9.56,8-2.19,7.93-7.67-.06-5.12-.53-10.28,1.65-15.23,2.06-4.69,4.82-8.27,10.51-6.37,5.78,1.93,4.86,6.68,3.43,10.91-1.4,4.15-3.49,8.08-5.39,12.05-1.55,3.24-1.52,6.24,1.28,8.69,2.79,2.43,5.55,1.1,8.06-.63,3.02-2.08,5.77-4.62,9.67-4.97,4.76-.42,8.37,1.23,9.38,6.16.98,4.79-1.92,7.46-6.19,8.45-4.04.93-8.25,1.16-12.32,1.97-2.07.42-4.66.88-4.85,3.68-.17,2.56,1.87,4.03,3.88,4.84,1.99.8,4.27,1.28,6.4,1.24,6.68-.14,8.64,3.5,7.97,9.4-.72,6.28-4.98,7.34-10.16,6.43-2.88-.51-5.61-1.78-8.48-2.43-2.32-.52-5.03-1.62-6.9.63-1.86,2.23-.43,4.63.58,6.87,1.01,2.22,2.3,4.38,2.92,6.71.79,2.99.42,6.08-2.71,7.65-3.05,1.52-5.68.12-7.96-2.07-2.93-2.8-3.29-6.41-3.35-10.17-.06-3.93-.18-7.88-2.75-11.21.72-1.11.1-2.12-.8-2.25-9.31-1.32-18.49-1.01-27.29,2.77-1.37,1.38-2.82,2.63-3.18,4.78-6.39,37.41-27.29,65.59-56.6,88.26-16.61,12.86-34.88,22.82-54.82,29.58-2.77.94-5.63,1.78-8.52,2.12-17.75,2.05-13.3,3.12-15.29,17.19-.34,2.39.2,4.95-.32,7.28-1.68,7.46.22,11.08,7.63,10.66,12.5-.71,21.42,6.41,30.44,12.89,7.73,5.56,6.63,10.74-2.2,14.37-10.77,4.42-21.76,2.14-32.66.42-3.13-.49-6.2-1.49-9.26-2.38-13.38-3.91-15.24-6.91-14.14-20.86.69-8.79.81-17.63,1.27-26.44.22-4.29-1.2-7.27-5.82-7.76-5.37-.56-5.72,3.39-6.18,7.16-.42,3.39-.84,6.78-1.26,10.17-.54-1.51.51-3.42-1.66-5.14,0,10.11-.01,19.74.04,29.37,0,.53-.63,2.32,1.18,1.2.31-.19.31-.89.45-1.35.65,4.47,4.12,9.48-2.44,12.55-17.54,6.25-35.19,11.64-54.15,7.16-5.54-3.62-2.3-7.16.49-10.06,6.83-7.1,15.42-11.11,25.05-12.96,4.95.95,9.93,2.47,14.54-1.08,1.7-1.43,3.62-2.78,3.12-5.4-1.71-8.89-2.41-18-5.85-26.52-1.84-4.56-5.55-5.69-10-6.07-28.17-2.4-55.21-9.43-80.27-22.41-40.31-20.87-65.12-53.26-70.45-99.22-1.16-10.04-1.23-10.08-11.34-9.28-1.22.1-2.45.21-3.67.25q-12.79.39-13.52,12.67c-.04.68-.58,1.32-.89,1.98-.17-.17-.31-.41-.51-.5-.19-.08-.63-.05-.65.02-1.74,5.71-4.5,10.1-11.54,9.1ZM317.19,166.55c2.23,3.06,3.15,6.04,1.55,9.98-.87,2.15-2.8,4.83-.78,7.55-11.36,27.18-32.95,42.21-58.06,39.89-10.92-1.01-20.05-6.05-29.15-12.47-14.18-10-23.12-23.58-31.3-38.11-.99-1.75-1.83-3.78,1.47-4.26,1.45-.21,3.19-.5,2.96-2.44-.19-1.55-1.63-2.69-3.08-2.78-7.03-.43-13.87.12-20.93,6.51,14.44-4.17,11.3,6.53,13.34,12.65.61,1.82.55,3.86.79,5.8-2.53,7.25,1.05,14.25,1.09,21.4,0,.6.94-.79,1.24-1.45,4.48,20.07,6.11,40.56,8.62,60.91,1.94,15.66,8.57,27.83,22.38,35.8,2.95,1.7,5.9,3.4,8.85,5.1,13.29,9.86,27.97,5.56,42.37,4.19-.27-.29-.52-.63-.83-.87-.17-.13-.47-.1-.71-.14.92-.32,1.81-.74,2.75-.94,22.81-4.97,36.53-19.8,39.12-42.78,3.35-29.74,6.41-59.52,9.73-89.27.78-6.96.22-15.41,13.65-12.73-7.92-6.43-14.9-6.56-21.96-5.85-2.03.21-3.32,1.96-3.1,4.31ZM252.13,101.28c-.12-5.03-1.33-8.82-5.92-10.64-4.56-1.81-8.68-1.21-12.14,2.36-5.76,5.93-8.73,13.03-7.93,21.33.4,4.14,1.24,8.37,6.23,9.85,5.08,1.51,9.26-.1,12.59-3.83,4.96-5.55,6.57-12.44,7.17-19.08ZM278.36,117.66c.1,1.27.11,2.75.33,4.2,1.36,8.85,8.08,12.12,15.22,7.22,8.11-5.56,9.99-14.04,10.26-23.16.13-4.35-1.46-7.62-5.7-9.28-4.24-1.65-8.2-1.35-11.57,1.93-5.31,5.16-8.34,11.4-8.55,19.09Z"/>
      <path class="cls-2" d="M204.67,445.15c18.96,4.48,36.61-.91,54.15-7.16-17.15,9.15-34.74,15.05-54.15,7.16Z"/>
      <path class="cls-2" d="M432.17,253.95c8.81-3.78,17.98-4.08,27.29-2.77.9.13,1.52,1.14.8,2.25-9.41-2.54-18.72.61-28.09.52Z"/>
      <path class="cls-2" d="M261.26,425.45c-.14.46-.14,1.16-.45,1.35-1.81,1.12-1.18-.66-1.18-1.2-.05-9.63-.04-19.26-.04-29.37,2.17,1.72,1.12,3.63,1.66,5.14,0,8.03,0,16.05,0,24.08Z"/>
      <path class="cls-2" d="M94.36,173.06c-.61,8.07-4.33,15.29-6.25,23-.02.08-.46.14-.66.07-.21-.08-.36-.32-.53-.49,1.31-7.91,3.71-15.46,7.43-22.58Z"/>
      <path class="cls-2" d="M306.6,65.36c-6.95,2.37-13.56-1.11-20.36-1.18,0-.22-.06-.47.03-.65.1-.2.34-.34.51-.5,6.71-.11,13.3.83,19.82,2.33Z"/>
      <path class="cls-2" d="M39.19,275.67c7.04,1,9.8-3.39,11.54-9.11.02-.08.46-.1.65-.02.2.09.34.33.51.5-2.2,10.24-5.08,12.2-12.7,8.63Z"/>
      <path class="cls-2" d="M244.76,421.05c-4.61,3.54-9.6,2.02-14.54,1.08,4.78-1.34,9.66-1.16,14.54-1.08Z"/>
      <path class="cls-1" d="M194,188.87c-.25-1.94-.18-3.98-.79-5.8-2.04-6.12,1.1-16.82-13.34-12.65,7.06-6.39,13.9-6.94,20.93-6.51,1.45.09,2.89,1.23,3.08,2.78.23,1.94-1.51,2.23-2.96,2.44-3.3.48-2.46,2.51-1.47,4.26,8.18,14.53,17.12,28.11,31.3,38.11,9.11,6.42,18.23,11.46,29.15,12.47,25.1,2.32,46.69-12.71,58.06-39.89,1.11-3.45,1.77-7.14,3.44-10.29,2.73-5.16.54-6.78-4.21-7.24-.22-2.34,1.07-4.1,3.1-4.31,7.06-.71,14.04-.58,21.96,5.85-13.43-2.68-12.87,5.77-13.65,12.73-3.32,29.75-6.38,59.52-9.73,89.27-2.59,22.99-16.31,37.81-39.12,42.78-.94.21-1.84.62-2.75.94-13.7.16-27.59,2.73-40.82-3.18-2.95-1.7-5.9-3.4-8.85-5.1-13.81-7.97-20.44-20.14-22.38-35.8-2.52-20.34-4.15-40.84-8.62-60.91.08-6.75-1.18-13.35-2.34-19.96Z"/>
      <path class="cls-1" d="M252.13,101.28c-.6,6.64-2.21,13.52-7.17,19.07-3.33,3.73-7.51,5.34-12.59,3.83-4.99-1.49-5.83-5.71-6.23-9.85-.8-8.3,2.17-15.4,7.93-21.33,3.47-3.57,7.59-4.17,12.14-2.36,4.59,1.82,5.8,5.61,5.92,10.64Z"/>
      <path class="cls-1" d="M278.36,117.66c.21-7.69,3.24-13.93,8.55-19.09,3.37-3.27,7.33-3.58,11.57-1.93,4.24,1.65,5.83,4.93,5.7,9.28-.27,9.12-2.16,17.61-10.26,23.16-7.15,4.9-13.86,1.63-15.22-7.22-.22-1.45-.24-2.92-.33-4.2Z"/>
      <path class="cls-2" d="M236.18,310.64c13.23,5.91,27.12,3.34,40.82,3.18.24.04.54.01.71.14.32.24.56.57.83.87-14.4,1.37-29.08,5.67-42.37-4.19Z"/>
      <path class="cls-2" d="M317.19,166.55c4.76.46,6.94,2.08,4.21,7.24-1.67,3.15-2.33,6.84-3.44,10.29-2.02-2.71-.09-5.4.78-7.55,1.6-3.94.67-6.92-1.55-9.98Z"/>
      <path class="cls-2" d="M194,188.87c1.16,6.61,2.41,13.2,2.34,19.95-.31.66-1.24,2.05-1.24,1.45-.04-7.16-3.62-14.15-1.09-21.4Z"/>
    </g>
  </g>
</svg>