<?xml version="1.0" encoding="UTF-8"?>
<svg id="Layer_1" data-name="Layer 1" xmlns="http://www.w3.org/2000/svg" viewBox="0 0 512 512">
  <defs>
    <style>
      .cls-1 {
        fill: #f3e722;
      }

      .cls-2 {
        fill: #1c1c1c;
      }

      .cls-3 {
        fill: #212121;
      }

      .cls-4 {
        fill: #e52a38;
      }

      .cls-5 {
        fill: #fefefe;
      }

      .cls-6 {
        fill: #1f1f1f;
      }

      .cls-7 {
        fill: #0d8f42;
      }

      .cls-8 {
        fill: #fdfdfd;
      }
    </style>
  </defs>
  <g id="F8SO2j">
    <g>
      <path class="cls-2" d="M460.48,192.29c-.61-8.34-8.63-10.09-14.95-13.27,1.45-2.24,2.94-4.33,4.22-6.55,5.57-9.57,2.16-18.16-8.48-21.05-3.19-.86-6.48-1.11-9.86-.71-5.48.63-10.18,3.3-15.34,5.55-.13-1.35-.2-2.35-.31-3.34-.78-7.02-6.45-14.16-12.3-15.47-6.37-1.44-12.71,1.82-16.85,8.89-3.41,5.8-5.23,12.17-5.68,18.87-.18,2.8-.78,3.87-4.04,3.52-12.69-1.4-19.6,6.24-17.11,18.63.36,1.78.25,2.85-1.41,3.91-1.93,1.23-3.17.64-4.51-.81-3.35-3.6-5.99-7.71-8.74-11.76-11.44-16.91-21.87-34.52-34.44-50.66-3.05-3.92-5.66-7.38-1.24-12.02.97-1,.98-2.92,1.4-4.43,1.36-4.95,1.2-10.07,1.14-15.11-.04-4.78,2.14-6.88,6.23-8.9,16.06-7.87,30.84-.23,46.8,2.46-1.5,1.83-2.4,2.87-3.24,3.97-9.29,12.19-4.04,27.85,10.39,30.62,10.8,2.08,19.68-1.7,26.4-10.16,5.15-6.49,7.84-14.13,4.1-21.98-3.67-7.73-11.59-8.5-19.05-8.08-3.73.2-4.79-1.21-5.73-4.13-2.38-7.41-5.86-14.13-12.06-19.22-20.64-16.98-41.08-34.21-61.87-51.01-14.68-11.88-35.58-13.46-51-3.46-23.18,15.04-37.9,36.7-45.91,62.89-1.24,4.06-2.59,6.3-6.87,6.85-2.6.34-5.92.64-5.87,4.59.18,13.1-1.42,26.21.04,39.3.24,2.11.58,4.24,2.38,5.6,3.31,2.49,2.58,5.21.86,8.22-4.06,7.13-8,14.31-12.03,21.46-8.48,15.05-17,30.07-25.44,45.13-1.89,3.36-4.26,4.81-8.16,3.36-3.88-1.45-1.61-3.96-1.18-6,2.17-10.49-4.85-19.03-15.62-18.26-3.16.22-4.18-.81-5.23-3.39-2.09-5.17-4.41-10.27-8.47-14.3-7.37-7.33-18.89-7.42-23.78-.29-3.55,5.15-3.88,10.62-2.25,16.49.76,2.73,1.19,4.94-3.52,3.77-7.52-1.89-15.14-1.15-22.73,1.03-7.94,2.29-13.5,15.04-5.9,21.44,1.15.98,1.91,2.42,2.9,3.72-.85.56-1.39,1.04-2.01,1.3-8.37,3.44-13.56,11.85-12.55,20.69.48,4.24,2.15,8.52,6.63,9.04,7.18.81,7.31,4.62,5.73,9.95-.15.49-.17,1.03-.21,1.55-.99,12.94,10.17,20.87,22.16,15.75,3.58-1.52,6.62-3.89,9.63-6.27,3.31-2.61,6.65-3.81,11.08-2.89,6.18,1.29,12.49-.28,16.04-5.36,3.46-4.96,6.63-3.85,10.75-2.21,3.9,1.55,5.36,3.34,2.85,7.68-15.71,27.17-31.1,54.54-46.8,81.72-4.26,7.39-9.14,14.44-13.98,21.47-1.33,1.93-4.24,3.18-2.78,6.04,1.33,2.64,3.81,3.66,6.92,3.75,34.95,1.01,69.9-.57,104.85.35,14.4.37,15.88.82,18.5,14.68.13.67.27,1.32.57,2.76-1.26-.54-1.88-.82-2.52-1.06-3.66-1.36-7.38-1.88-10.01,1.65-2.49,3.33-.55,6.23,1.74,8.88,2.11,2.41,1.58,3.51-1.58,4.59-5.46,1.88-11.6,1.18-16.62,4.25-10.44,6.4-20.37,13.32-26.72,24.38-3.17,5.5-5.27,11.37-7.62,17.16-1.33,3.25-3.15,5.13-6.56,6.44-17.86,6.89-21.84,18.73-15.02,34.24,1.69,3.85,2.89,7.94,2.78,12.17-.09,4.33,2.09,6.43,5.94,7.29,8.19,1.83,16.39,3.47,24.8,3.79,15.14.55,28.74-4.8,41.99-11.29,3.67-1.79,5.46-2.04,5.44,3.11-.02,6.32,2.82,8.32,9.05,7.6,2.95-.34,5.91-.62,8.88-.7,13.55-.38,26.76-2.05,38.87-8.85,4.46-2.5,9.18-1.66,13.63.4,10.38,4.8,21.65,5.18,32.69,6.44,6.55.75,7.12-.19,7.85-6.67.09-.86.07-1.74.15-2.61.65-7.41,1.05-7.79,7.57-4.23,28.02,15.33,56.9,15.25,86.54,5.51,4.27-1.4,5.14-3.88,4.27-7.46-2.47-10.12-2.92-20.33-1.86-30.63.54-5.22-1.78-8.9-6.29-11-3.94-1.84-8.07-3.32-12.24-4.5-4.12-1.18-6.85-3.35-8.78-7.3-3.59-7.4-7.83-14.71-14.03-20.08-14.08-12.14-29.24-22.69-48.07-26.37-1.7-.34-3.3-1.18-4.98-1.56-2.66-.6-2.48-1.66-.96-3.47,2.54-3.06,5.61-5.84,6.33-10.05.39-2.34.31-4.67-1.84-6.15-2.31-1.59-4.59-.83-6.83.51-2.16,1.29-3.85,5.16-6.13,3.84-2.33-1.34-.54-5.12-.72-7.82-.04-.52.08-1.06,0-1.57-.51-2.87.71-3.74,3.56-4.28,14.09-2.71,28.34-3.89,42.62-5.04,21.82-1.75,43.67-.23,65.49-.94,9.9-.33,19.71-2.99,29.72-.94,1.78.37,4.05.4,4.85-1.99.77-2.32-1.05-3.48-2.5-4.72-3.87-3.31-7.4-6.91-10.52-10.95-21.48-27.89-38.79-58.38-55.44-89.29-2.13-3.95-.21-5.88,2.36-7.79,2.25-1.67,4.23-3.58,7.59-.67,8.62,7.45,19.55,6.83,27.61-1.15,2.17-2.15,4.05-2.82,6.88-1.3,3.19,1.71,6.8,1.55,10.28,1.2,14.69-1.52,21.03-13.58,13.87-26.44-1.06-1.92-2.7-3.52-4.41-5.68,7.12-3.17,16.56-4.48,15.82-14.76ZM205.65,398.46c-.86,1.87-3.07.98-4.53,1.37-3.82-.05-7.98-4.47-7.43-7.96.48-3.04,2.71-3.42,5.1-2.47,2.31.91,3.85,2.9,5.22,4.92.84,1.26,2.36,2.59,1.65,4.12ZM314.77,374.79c-1.46,7.69-5.39,12.48-11.79,15.86-.85-7.78,2.74-12.61,11.79-15.86Z"/>
      <path class="cls-7" d="M251.79,134.39c12.2-1.77,24.4-3.54,36.59-5.33.85-.12,1.76-.27,2.49-.68,8.48-4.75,8.39-2.96,14.78,3.81,4.17,4.42,7.35,9.68,10.69,14.79,9.26,14.14,18.64,28.21,28.09,42.23,1.59,2.36,2.67,4.85,3.6,7.48,2.21,6.3,7.23,7.68,11.94,3.2,2.96-2.81,6.47-4.68,9.95-6.69,3.17-1.83,5.35-.98,6.82,2.07,4.25,8.83,10.94,16.12,15.45,24.82,1.71,3.28,1.02,4.79-1.59,6.31-5.12,2.98-10.31,5.87-15.45,8.82-6.73,3.86-6.74,5.41-2.88,12.2,6.7,11.81,13.11,23.79,19.88,35.57,12.09,21.03,25.33,41.26,40.17,60.45.7.9,2.21,1.62,1.57,3-.63,1.37-2.19.79-3.32.76-15.02-.48-30.02.44-45,1.21-18.6.96-37.15,2.81-55.74,3.84-9.74.54-19.44,1.33-29.15,2.26-4.89.47-7.24,2.14-6.91,7.43.39,6.27.14,12.57.13,18.86,0,2.01-.24,3.78-2.92,1.89-1.63-1.15-3.61-1.29-5.51-1.14-1.76.13-3.79.63-4.42,2.35-.81,2.22,1.64,2.56,2.85,3.62,2.02,1.76,5.82,2.46,5.45,5.72-.37,3.31-4.04,4.01-6.66,5.23-4.52,2.1-9.37,2.71-14.3,2.16-5.51-.61-8.01-3.42-8.09-8.94-.08-5.59-.09-11.18,0-16.77.05-2.97-1.2-5.08-3.76-6.34-1.43-.71-3.15-.8-4.51.19-1.31.96-.89,2.36-.66,3.81,1.12,7.11.22,14.29.47,21.44.09,2.54-1.66,3.65-3.5,4.74-8.35,4.95-17.26,6.01-26.69,4.07-3.55-.73-1.96-2.71-1.06-4.19,1.71-2.81,4.09-5.15,5.28-8.34,1.1-2.96,1.12-5.61-1.61-7.45-2.51-1.69-5.22-1.5-7.82.27-5.25,3.59-5.42,3.58-6.61-2.85-1.28-6.88-5.42-12.28-8.84-18.07-.72-1.21-1.98-1.4-3.23-1.26-19.5,2.26-39.07.41-58.6,1-2.27.07-4.54.05-6.81.07-10.9.98-21.83.15-32.74.46-2.05.06-4.17-.48-6.15.47h-8.97c1.64-5.72,5.64-9.71,8.31-14.39,12.24-21.47,24.26-43.06,37.04-64.21,6.04-9.99,10.32-20.96,17.35-30.38,2.16-2.89-.7-7.83-5-8.36-5.83-.72-10.94-3.31-16.34-5.21-2.79-.98-3.01-1.95-1.56-4.5,4.64-8.17,9.19-16.41,13.31-24.86,1.6-3.27,3.7-3.81,6.65-3.18,3.26.69,6.27,1.83,8.82,4.23,5.42,5.1,8.64,4.31,11.84-2.38,11.6-24.2,25.5-47.14,38.56-70.54,2.79-5,6.04-7.3,11.69-4.96.91.38,2.07.14,3.12.18,11.16.76,22.32.76,33.48,0Z"/>
      <path class="cls-4" d="M367.5,83.4c-6.48-1.36-12.99-2.55-19.42-4.1-10.74-2.6-21.41-2.77-31.97.66-2.94.96-4.41.95-5.88-2.49-3.31-7.74-8.62-12.19-18.18-11.72-24.17,1.19-48.44.78-72.3,5.64-5.36,1.09-4.91-.8-3.63-4.66,4.91-14.72,13.81-26.85,23.8-38.43,5.92-6.87,13.05-12.17,20.66-16.72,14.89-8.91,28.57-3.42,41.66,4.73,8.65,5.39,15.07,13.44,22.81,19.95,9.75,8.2,19.71,16.12,29.78,23.92,6.86,5.31,12.45,11.66,15.05,20.21.73,2.39.73,3.88-2.39,3.02Z"/>
      <path class="cls-5" d="M272.23,72.49c6.93.22,14.05-.99,21.22-.28,6.66.66,8.56,2.21,9.88,8.62,2.12,10.28,1.11,20.45-.9,30.63-.65,3.31-3.21,3.99-5.45,4.95-10.96,4.69-22.56,7.25-34.26,8.97-18.21,2.68-36.47,3.09-54.68-.57-4.47-.9-6.66-2.51-6.98-7.62-.6-9.61-.46-19.18-.36-28.78.04-3.79,1.88-5.43,5.23-6.65,15.28-5.57,31.27-6.83,47.25-8.2,6.26-.53,12.55-.72,19.05-1.07Z"/>
      <path class="cls-4" d="M408.07,155.13c.13,5.52-.69,9.85-2.57,13.79-1.88,3.92-.82,6.62,2.8,8.05,3.89,1.53,4.43-1.64,5.33-4.45,3.32-10.42,16.88-17.81,27.47-15.17,2.77.69,3.97,2.2,3.91,5.21-.16,7.13-7.19,15.69-14.82,17.73-2.36.63-6.06.43-4.97,4.32.94,3.37,4.19,4.23,7.32,3.14,5.21-1.82,10.39-3.03,15.81-1.24,5.66,1.86,6.79,6.72,2.26,10.64-5.52,4.78-12.04,6.89-19.39,6.05-1.39-.16-2.79-.6-4.14-.46-1.99.2-4.71.15-4.7,2.98,0,2.52,2.19,3.33,4.49,3.38,1.75.04,3.5-.07,5.24,0,6.46.26,11.24,4.26,12.6,10.5,1.21,5.51-1.72,10.49-7.8,13.27-6.49,2.97-12.01.11-13.04-7-.61-4.19-2.35-7.64-5.39-10.47-1.98-1.85-4.66-2.74-6.54-.69-1.76,1.92.24,3.64,1.86,5.16,3.95,3.73,2.74,11.85-2.33,16.72-4.73,4.55-11.3,4.59-15.45.23-1.64-1.72-1.58-3.05.46-4.13,1.53-.82,3.18-1.42,4.8-2.06,3.18-1.25,3.99-3.36,1.95-6.12-8.72-11.82-15.81-24.68-23.68-37.05-2.31-3.64-5.33-5.62-9.6-2.64-.85.59-1.87,1.23-2.85.37-.89-.79-.61-1.93-.41-2.96.95-4.79,4.32-6.79,8.73-6.54,6.03.35,11.17,2.53,13.75,8.73.94,2.27,1.42,5.34,4.81,5.47,1.58.06,2.5-1.18,3.01-2.54,1.15-3.09-.57-5.38-2.37-7.55-7.62-9.21-8.34-18.83-1.88-28.99,2.52-3.96,6.31-8.03,10.91-6.51,4.86,1.6,4.05,7.46,4.42,10.84Z"/>
      <path class="cls-4" d="M81.2,204.71c-1.22,0-2.45.02-3.67,0-4.17-.09-8.26-.41-9.25-5.65-.82-4.33,1.96-9.24,6.61-10.68,9.83-3.05,19.29-1.89,28.12,3.54,1.31.81,2.26,2.22,3.98,2.36,1.21.1,2.56.36,3.27-.92.53-.96.3-2.1-.39-2.96-1.31-1.62-2.77-3.13-4.09-4.75-5.16-6.28-5-15.89.13-21.05,2.02-2.03,4-2.23,6.62-1.45,8.97,2.66,15.8,19.49,8.54,27.46-1.69,1.86-3.57,3.88-3.54,6.81.03,2.6,1.14,4.39,3.63,5.07,2.51.69,3.88-.74,4.79-2.92,1.2-2.89,1.96-6,3.97-8.51,2.02-2.53,4.49-4.24,7.77-4.92,4.34-.9,6.3.86,6.39,5.08.03,1.57-.18,3.14-.15,4.71.06,3.2-1.13,5.1-4.63,4.44-4.26-.81-5.9,1.4-7.64,5.04-5.25,10.99-10.43,22.07-17.53,32.05-1.43,2-1.73,3.59-.03,5.54,1.13,1.3,3.5,2.47,1.58,4.75-2.13,2.52-4.91,3.82-8.25,3.94-2.47.09-3.37-1.72-4.04-3.48-1.49-3.94-.94-7.92.44-11.78.82-2.29,1.88-4.5,2.89-6.72.72-1.57,1.9-3.12-.27-4.49-1.9-1.2-3.66-.85-5.26.57-2.58,2.29-3.94,5.31-4.68,8.58-1.2,5.26-1.98,10.62-3.38,15.82-1.77,6.57-8.2,11.14-14.7,11.32-3.16.08-4.75-1.29-5.84-4.07-3.04-7.75,2.25-20.33,10.39-24.6,1.95-1.02,5.7-1.22,4.28-4.57-1.55-3.67-5.02-3.09-8.14-1.73-4.31,1.87-7.62,5.53-12.38,6.67-5.61,1.35-6.96.41-6.93-5.36.04-7.07,4.9-12.72,11.84-13.72,6.01-.86,11.84-2.97,18.06-2.52,1.54.11,3.42-.3,3.65-2.24.23-1.92-1.01-3.13-2.84-3.88-3.04-1.25-6.19-.81-9.32-.79Z"/>
      <path class="cls-4" d="M160.15,482.75c-9.82.14-19.55-.36-29.06-3.14-6.57-1.92-7.97-6.25-3.62-11.59.55-.67,1.17-1.31,1.87-1.81,1.91-1.39,3.78-4.4,6.04-3.14,1.87,1.04-.43,3.67-.82,5.6-.92,4.56.53,6.4,5.35,6.75,3.9.28,7.63-.62,11.39-1.42,19.3-4.1,38.83-6.39,58.45-8.4,14.63-1.5,29.32-.83,43.89-2.65,1.36-.17,2.89-.43,3.84.97,1.08,1.6.13,3.09-.62,4.4-1.94,3.43-5.31,4.9-8.83,6.12-7.98,2.76-16.3,3.82-24.61,4.77-21.01,2.4-42.16,2.71-63.26,3.55Z"/>
      <path class="cls-4" d="M284.17,407.29c2.66-1.11,4.65-1.52,6.1-2.63,7.72-5.88,15.29-5.95,22.84.18,1.5,1.22,4.94.82,4.44,3.49-.49,2.6-2.21,5.08-4.48,6.84-.38.3-.99.29-1.48.46-3.71,1.31-6.24,3.49-4.83,7.81,1.1,3.37,6.72,5.62,10.23,4.39,2.99-1.05,4.07-5.33,2.36-9.54-.63-1.54-2.24-2.99-.67-4.74,1.35-1.49,1.55-5.1,4.71-3.6,3.31,1.57,8.05,2.89,7.69,7.45-1.13,14.06-2.92,28.07-4.37,42.11-.24,2.34-1.11,3.56-3.57,3.24-.17-.02-.35,0-.52,0-12.08.61-12.42.68-14.91-10.93-3.63-16.91-10.27-32.12-23.52-44.55Z"/>
      <path class="cls-4" d="M315.85,483.66c13.26,0,26.52.18,39.77-.05,13.83-.24,27.54-1.45,39.98-8.38,2.51-1.4,2.98-.19,3.15,2,.29,3.64.23,7.41,1.19,10.88,1.16,4.2-.94,5.56-4.13,6.93-4.36,1.87-8.88,3.32-13.55,3.65-17.41,1.23-34.85,2.61-51.54-4.63-5.59-2.42-10.31-6.08-15.45-9.13.19-.42.38-.85.57-1.27Z"/>
      <path class="cls-4" d="M235.17,411.31c-3.24,4.11-6,7.64-8.79,11.15-7.75,9.72-13.16,20.58-15.29,32.86-.88,5.09-4.69,3.61-7.62,4.08-2.81.45-4.58-.1-5.46-3.7-2.6-10.65-5.65-21.21-9.01-31.65-1.51-4.72,1.39-5.65,4.4-7.01,3.81-1.72,3.84,1.98,4.94,3.7,1.92,2.99,1.14,6.46.79,9.73-.46,4.24,1.69,6.39,5.5,6.66,3.7.26,5.72-2.16,6.38-5.64,1.1-5.81-.84-8.72-6.81-9.59-3.24-.47-2.75-3.14-3.66-5-.9-1.84-.45-3.28,1.34-4.42,5.29-3.39,10.65-5.7,17.22-3.6,4.91,1.57,10.02,2.56,16.05,2.44Z"/>
      <path class="cls-4" d="M270.73,463.78c11.65,3.81,22.77,3.41,33.34,6.1,4.51,1.15,8.58-.11,12.84-.05,14.28.21,28.72,1.55,42.73-1.94,7.65-1.91,15.11-3.62,23.04-3.19,3.66.2,5.22-2.03,4.87-5.77-.15-1.55-.84-4.05,1.66-4.25,2.76-.22,5.62.65,7.83,2.38,1.66,1.3.8,3.24-.08,4.78-4.5,7.83-12.04,11.04-20.33,12.2-27.94,3.92-55.95,4.11-83.9.07-5.47-.79-10.77-2.77-16.12-4.33-2.23-.65-3.96-2.09-5.88-5.99Z"/>
      <path class="cls-4" d="M223.29,503.77c-14.32-.27-14.04-.34-16.57-10.06-1.17-4.47-.86-6.04,4.27-6.3,12.52-.63,25.02-1.8,37.32-4.45,2.4-.52,4.86-.89,6.95-2.15,3.83-2.3,4.02.07,3.97,2.88-.11,5.42-2.67,9.45-7.49,11.67-10.52,4.85-21.43,8.31-28.45,8.4Z"/>
      <path class="cls-4" d="M194.38,489.46c-9.92,7.73-19.89,11.5-30.48,13.99-9.21,2.17-18.4.9-27.57-.01-5.13-.51-10.01-9.73-8.39-14.98.44-1.42,1.29-1.31,2.39-1.12,19.91,3.39,39.94,2.91,59.99,1.77.8-.05,1.62.13,4.06.36Z"/>
      <path class="cls-4" d="M294.1,500.63c-9.18-.1-16.98-3.08-24.71-6.3-1.78-.74-2.85-1.7-2.63-3.89.43-4.15.64-8.33.93-12.49.19-2.69,1.2-3.69,4.03-2.54,8.44,3.43,17.38,4.89,26.35,6.12,1.99.27,3.2.8,3.64,2.9.31,1.51,1.14,2.92,1.53,4.42,2.07,7.88-1.51,12.16-9.14,11.79Z"/>
      <path class="cls-4" d="M263.71,429.77c-1.47-5.69-2.06-11.01-2.36-16.42-.23-4.16,1.41-3.72,4.21-2.42,17.41,8.04,27.7,21.81,32.33,40.1,2.73,10.78,2.65,10.69-8.31,9.65-5.77-.55-11.35-1.6-16.74-3.8-3.19-1.3-3.37-2.71-1.3-5.37,2.46-3.15,4.39-6.71,6.71-9.99,1.07-1.51,2.43-3.64,4.58-2.52,3.41,1.77,4.5,5.24,4.56,8.85.04,2.2-1.11,4.01-3.47,4.68-.71.2-1.48.25-1.84-.46-.57-1.1.26-1.96.71-2.88.64-1.29,2.71-2.78.95-3.98-2.07-1.42-3.45.78-4.54,2.29-1.56,2.17-1.76,4.71-.22,6.83,1.49,2.05,3.76,2.11,6.17,1.25,3.59-1.29,6.06-3.44,6.43-7.41.41-4.28-2.96-10.3-7.46-11.6-3.36-.97-3.94-2.66-3.86-5.56.04-1.54-.29-3.12-.69-4.62-1.61-5.89-6.63-7.37-11.02-3.13-1.71,1.66-2.9,3.86-4.83,6.52Z"/>
      <path class="cls-8" d="M387.67,90.69c6.5.09,8.67,2.29,8.75,8.53.14,10.79-12.2,20.77-22.98,18.72-5.25-1-7.09-4.59-7.44-9.29-.36-4.86.87-9.42,5.95-10.98,3.71-1.14,7.12-1.94,9.71-5.24,1.36-1.73,4.12-1.58,6.02-1.74Z"/>
      <path class="cls-4" d="M357.09,452.68c5-6.16,4.52-11.18-1.12-13.57-5.01-2.13-8.79.5-8.56,5.94.28,6.52,3.81,10.42,12.07,12.99-5.47,3.18-11.27,3.67-17,4.24-1.85.18-2.28-1.35-2.19-2.87.68-10.97,1.36-21.94,2.13-32.91.17-2.47,1.44-2.29,3.13-1.07,7.12,5.14,13.3,11.31,19.21,17.75,1.9,2.07,2.38,4.81.61,7.25-2.05,2.81-4.85,3.59-8.28,2.26Z"/>
      <path class="cls-4" d="M183.56,450.09c.68,3.4,2.72,7.32,1.68,10.05-1.21,3.18-5.89,1.1-9,1.75-8.52,1.77-17.11,3.26-25.68,4.81-3.68.66-6.15.41-4.93-4.7.93-3.92,1.83-7.81,3.54-11.43.89-1.88.86-5.93,3.14-5.14,3.19,1.11,7.53,1.06,9.06,5.8,3.19,9.92,8.75,10.97,16.17,3.45,1.1-1.11,2.03-2.38,3.03-3.58.79-.94,1.45-2.25,2.99-1.02Z"/>
      <path class="cls-4" d="M252.63,413.18c.21,1.81.49,3.65.61,5.51.06.96.27,2.08-1.35,2.24-7.71.75-10.36,6.18-11.3,12.81-.33,2.33-.65,3.46-3.37,4.06-4.27.95-7.03,6.9-5.7,10.93,1.27,3.84,4.22,4.9,7.87,4.38,3.32-.47,3.97-2.8,2.67-5.36-.72-1.41-2.64-2.82-3.79-.02-.36.86.21,2.34-1.41,2.11-1.49-.21-1.74-1.51-1.69-2.82.1-2.54.64-5.06,3.13-6.16,2.51-1.11,3.79,1.08,4.98,2.76,2.51,3.55,6.47,7.62,4.97,11.48-1.19,3.05-6.88,1.29-10.53,2.02-2.19.44-4.52.22-6.79.23-10.77.08-9.14.38-5.92-8.3,5-13.5,13.36-24.81,24.31-34.17.86-.73,1.56-1.95,3.32-1.71Z"/>
      <path class="cls-4" d="M250.29,407.84c-7.12,8.67-15.1,15.01-20.49,23.61-5.32,8.49-9.11,17.75-13.33,27.78-2.05-2.76-1.35-4.68-.95-6.34,3.98-16.45,13.12-29.82,25.03-41.5,2.4-2.35,5.63-2.32,9.74-3.55Z"/>
      <path class="cls-4" d="M183.56,450.09c-1,.34-1.99.68-2.99,1.02.58-3.27,1-6.51-.58-9.68-1.87-3.78-4.85-4.95-8.67-3.56-3.16,1.15-5.39,6.3-4.2,9.25.79,1.97,2.39,2.9,4.51,3.01,1.51.08,2.9-.2,3.41-1.79.67-2.1-.35-3.16-2.39-3.8-2.45-.77-.85-2.3-.14-3.19,1.08-1.35,2.6-1.15,3.55.18,2.06,2.88,1.68,6,.18,8.93-1.68,3.29-4.47,5.41-8.17,5.8-1.76.19-1.87-1.76-2.34-3.02-2.87-7.69,2.25-20.9,9.43-24.82,2.57-1.4,2.91.19,3.53,1.94,2.27,6.41,4.07,12.93,4.86,19.71Z"/>
      <path class="cls-4" d="M251.69,434.19c-1.6-1.59,1.95-3.8-.9-4.55-1.62-.43-2.93.94-3.6,2.48-.83,1.93-.03,3.41,1.64,4.42.72.44,1.71.98,2.42.81,5.65-1.36,5.64,2.53,5.84,6.18.18,3.31.26,6.63.32,9.94.03,1.28-.25,2.47-1.85,2.67-1.2.15-2.25-.39-2.49-1.45-1.53-6.68-7.71-11.1-8.4-18.36-.33-3.42-.1-6.18,1.91-8.68,1.23-1.53,2.52-3.84,4.91-3.2,1.91.5,2.86,2.51,3.32,4.43.61,2.54-.21,4.43-3.11,5.32Z"/>
      <path class="cls-4" d="M330.56,458.05c1.47-12.07,2.9-23.97,4.4-35.85.16-1.23.15-3.15,2.01-2.87,1.41.21,2.1,1.68,1.98,3.27-.93,11.95-1.8,23.91-2.82,35.86-.15,1.8.41,4.49-3.07,4.22-3.73-.29-1.54-3.17-2.49-4.62Z"/>
      <path class="cls-4" d="M301.34,448.96c-1.59-3.86-3.3-7.68-4.76-11.59-4.11-10.96-11.79-18.72-21.66-24.58-1.62-.96-3.44-1.75-4.57-4.09,4.71-.78,9.3-2.14,12.94,2.03,9.38,10.75,16.95,22.48,19.15,36.96.47,1.15-.05,1.44-1.1,1.26Z"/>
      <path class="cls-4" d="M369.32,437.29c-.27.44-.53,1.1-.99,1.55-.76.74-1.59.47-2.3-.19-1.65-1.54-3.29-3.11-4.94-4.66-4.67-4.43-8.97-9.27-14.41-12.84-1.7-1.12-2.79-2.68-2.43-4.84.29-1.74.96-3.19,3.1-1.89,8.95,5.43,16.15,12.6,21.42,21.68.17.3.29.63.54,1.18Z"/>
      <path class="cls-4" d="M194.14,456.93c.16,1.93.16,3.13-1.47,3.46-2.47.5-2.99-1.39-3.39-3.02-1.92-7.9-3.72-15.84-5.57-23.76-.63-2.7-1.37-5.37-1.96-8.08-.25-1.14.31-2.11,1.46-2.41,1.06-.28,1.51.55,1.79,1.43,3.45,10.9,7.05,21.77,9.14,32.38Z"/>
      <path class="cls-4" d="M276.26,431.49c-.54,6.3-2.91,11.63-6.75,16.34-.75.91-1.56,2.36-2.84,2-1.79-.5-.92-2.35-1.14-3.63-.15-.85-.01-1.76-.16-2.61-.57-3.3-.98-6.19,4.1-4.22,1.61.63,3.77.17,4.38-1.83.6-1.97.74-4.18-.54-6.06-.31-.46-1.22-.88-1.74-.77-1.52.33-1.77,1.42-1.26,2.82.39,1.09.27,2.31-1.06,2.4-1.3.1-1.46-1.21-1.57-2.25-.05-.52-.06-1.05,0-1.57.34-3.85,2.16-7.5,6.04-7.3,3.53.18,1.89,4.4,2.55,6.67Z"/>
      <path class="cls-4" d="M362.63,458.47c5.11-4.39,7.63-8.65,6.31-14.38-.13-.56.69-1.64,1.34-2.01.9-.52,1.57.32,2.07,1.06,1.86,2.76,3.37,5.71,4.18,8.94.75,2.96-1.02,4.56-3.53,5.53-2.98,1.16-6.03.64-10.37.86Z"/>
      <path class="cls-4" d="M166.63,431.51c-2.95-6.68.12-12.78,6.42-14.18,1.37-.31,1.87.37,2.31,1.39.75,1.76,1.83,3.64-.45,5.02-3.13,1.9-5.48,4.65-8.27,7.78Z"/>
      <path class="cls-7" d="M222.57,387.18c-.15,3.25-1.68,5.93-3.76,8.32-.98,1.12-2.12,2.81-3.85,1.72-1.3-.82-2-2.55-1.69-4.14.7-3.54,2.42-6.38,5.9-8.02,2.46-1.15,3.61-.81,3.39,2.12Z"/>
      <path class="cls-4" d="M163.98,435.44c-.96,2.79-1.64,4.73-2.28,6.69-.52,1.6-1.25,2.94-3.26,2.64-1.88-.28-3.26-1.4-3.85-3.13-.56-1.64-.65-3.43.29-5.05.43-.74,1.19-.83,1.74-.27,2.44,2.46,4.45.41,7.36-.88Z"/>
      <path class="cls-7" d="M93.49,362.95c1.44-1.44,3.28-.93,4.96-.94,11.31-.04,22.62,0,33.94,0-2.54,1.74-5.41.87-8.11.9-10.26.12-20.52.04-30.78.03Z"/>
      <path class="cls-4" d="M194.25,411.44c-1.16,2.75-3.97,3.28-6.58,3.85-1.67.36-2.01-1.27-1.79-2.41.73-3.75,4.33-2.57,6.66-3.52,1.11-.45,1.86.53,1.72,2.08Z"/>
      <path class="cls-4" d="M331.07,410.03c-1.71-1.39-4.83-1.43-5.34-4.16-.33-1.77,1.56-2.23,2.93-1.81,1.99.62,4.75.66,4.78,3.73.01,1.21-.58,2.38-2.36,2.24Z"/>
      <path class="cls-4" d="M352.91,450.08c-2.23-2.07-3.25-4.41-1.8-6.69,1.06-1.67,3.18-.81,4.74.04.9.49,1.83,1.17,1.75,2.39-.09,1.24-1.19,1.2-1.98,1.12-2.19-.23-1.47,2.36-2.71,3.15Z"/>
      <path class="cls-7" d="M251.79,134.39c-7.34,2.02-14.83.73-22.25.88-3.72.07-7.64,1.15-11.24-.88,11.16,0,22.32,0,33.48,0Z"/>
      <path class="cls-7" d="M288.06,384.01c2.33.68,4.11,2.14,4.64,4.72.19.92-.65,1.81-1.58,1.43-2.41-.97-4.47-2.58-5.21-5.14-.28-.98,1.18-.85,2.15-1.01Z"/>
      <path class="cls-4" d="M301.34,448.96c.37-.42.73-.84,1.1-1.26,1.92,4.27,3.13,8.65,1.48,13.48-.86-4.07-1.72-8.15-2.58-12.22Z"/>
      <path class="cls-4" d="M339.47,415.45c-1.63-.2-2.57-1.15-2.58-2.69,0-1.42-.51-3.36,1.78-3.58,1.65-.16,2.65.92,2.57,2.49-.07,1.41.21,3.2-1.76,3.79Z"/>
      <path class="cls-4" d="M182.65,416.38c.17,1.83-.16,3.13-1.64,3.13-2.38,0-2.36-2.02-2.52-3.69-.13-1.35.38-2.52,1.91-2.37,1.97.19,2.11,1.9,2.25,2.93Z"/>
      <path class="cls-4" d="M312.57,400.15c3.7-.97,5.8.73,8.15,1.06.88.12,1.67.89,1.19,1.87-.43.88-1.45.88-2.29.49-2.02-.93-4.01-1.94-7.05-3.42Z"/>
      <path class="cls-4" d="M161.31,428.67c.75,2.06.2,3.38-1.28,4.26-.65.39-1.39.13-1.47-.74-.16-1.8.83-2.84,2.75-3.51Z"/>
      <path class="cls-2" d="M314.92,236.16c.45-2.53-1.76-6.26,3.46-6.52,3.75-.18,4.33,2.24,4.81,4.84,2.3,12.38.36,24.41-4.63,35.68-5.07,11.43-10.79,22.59-19.71,31.8-18.4,19-40.51,23.49-65.53,17.6-12.59-2.96-24.06-8.58-31.6-18.97-10.55-14.54-16.69-31.26-18.91-49.25-.21-1.67.35-2.72,2.19-2.77,2.17-.06,4.39-.05,4.95,2.68.7,3.4,1.07,6.88,1.85,10.26,2.87,12.53,7.63,24.46,15.07,34.82,5.6,7.8,13.85,13.16,23.22,16.08,4.29,1.34,8.68,2.66,13.3,2.45,4.63.68,9.25.71,13.87-.02,15.11-.17,26.33-7.94,35.82-18.72,11.47-13.04,19.43-27.87,21.89-45.31.68-4.89.77-9.78-.05-14.66Z"/>
      <path class="cls-2" d="M259.22,164.64c.2-6.91,2.47-13.81,7.62-19.69,5.36-6.12,13.71-6.01,18.98.34,8.41,10.13,4.44,27.46-7.53,32.87-9.8,4.43-19.11-1.78-19.07-13.52Z"/>
      <path class="cls-6" d="M224.52,209.48c.08-14.82,11.67-25.68,26.97-25.95,14.7-.26,26.24,12.13,25.97,24.3-.37,16.76-15.16,25.91-28.99,26.12-13.19.2-24.01-11.08-23.95-24.47Z"/>
      <path class="cls-2" d="M213.07,165.29c-.39-6.86,2.68-12.58,6.49-17.79,5.15-7.06,14.1-6.95,19.66-.18,8.82,10.74,3.22,28.63-9.94,31.37-9.17,1.91-17.04-3.25-16.21-13.4Z"/>
      <path class="cls-7" d="M314.92,236.16c1.54,4.88,1.65,9.77.05,14.66-.02-4.89-.03-9.77-.05-14.66Z"/>
      <path class="cls-7" d="M257.26,314.84c-4.62,1.6-9.25,1.55-13.87.02,4.62,0,9.25-.01,13.87-.02Z"/>
      <path d="M286.82,104.35c.26,1.84,3.51,1.91,2.05,4.26-2.74-2.48-4.8,6.36-7.71.46-.3-.61-.55-.69-1-.32-1.43,1.17-3.99,3.05-4.06.28-.05-1.99-4.77-6.35,1.66-7.32,2.64-.4.75-2.12.38-3.16-.88-2.5-2.96-4.73-1.72-7.76,2.83.32,3.16,2.52,4.01,4.39.44.96.48,2.77,2.12,2.46,1.31-.25,1.44-1.79,1.81-2.92.05-.16.03-.35.06-.52.28-1.99.22-4.22,2.14-5.42.63-.39,1.64.51,1.95,1.37.85,2.44,3.33,4.84.31,7.48-.35.31-.47.9-.71,1.38,1.47,1.98,6.03.09,5.48,3.24-.47,2.67-4.36.86-6.77,2.1Z"/>
      <path class="cls-3" d="M245.38,105.5c-1.44-.93-4.03.64-4.43-1.83-.29-1.79,1.8-1.8,2.97-2.33,2.03-.92,1.14-2,.41-3.24-.82-1.4-2.99-3.26-1.21-4.42,2.13-1.38,2.9,1.58,4.11,2.87.33.35.77.59,1.19.89,1.49-1.63,1-3.72,1.59-5.49.47-1.41.67-3.58,2.62-3.35,2.21.26,1.41,2.35,1.39,3.84,0,.51.09,1.01.17,1.79.91-.85,1.61-1.6,2.41-2.23,1.03-.8,2.28-1.19,3.28-.11,1.1,1.17.51,2.15-.69,2.96-3.23,2.2-.93,3.42,1.34,4.61-1.64,1.86-3.77,1.36-5.37,2.13-1.34.64-3.16,1.66-2.19,2.86,3.06,3.79-1.35,5.15-2.47,6.8-1.97,2.92-3.67-3.49-6.52-1.32-1.31-1.93,1.22-2.58,1.4-4.45Z"/>
      <path class="cls-6" d="M216.91,99.57c.12-.88.28-1.5.27-2.11-.03-2.03-2.2-4.41-.56-5.89,2.08-1.87,2.84,3.15,5.63,1.95,1.1-.47,1.93,1.25,1.42,2.1-2.33,3.9,1.36,4.09,3.52,5.28q-7.1,3.68-3.59,9.04c-3.4-.28-5.83,3.96-9.56.86-.42-.35-3.03-.54-2.72-.75,3.85-2.62-5.91-5.26.1-7.61,2.02-.79,1.01-2.26.33-3.37-.99-1.62-2.3-3.08-1.52-5.4,3.93-.09,3.52,4.76,6.69,5.9Z"/>
      <path class="cls-1" d="M231.04,212.52c0-13.02,12.69-24.57,24.39-23.44,8.9.86,16.39,12.25,14.32,21.9-2.01,9.37-8.86,13.92-17.29,16.32-6.5,1.85-12.44.31-17.02-5.08-2.68-3.16-4.3-6.73-4.41-9.69Z"/>
    </g>
  </g>
</svg>