<?xml version="1.0" encoding="UTF-8"?>
<svg id="Layer_1" data-name="Layer 1" xmlns="http://www.w3.org/2000/svg" viewBox="0 0 512 512">
  <defs>
    <style>
      .cls-1 {
        fill: #1c1c1c;
      }

      .cls-2 {
        fill: #f7ce10;
      }

      .cls-3 {
        fill: #212121;
      }

      .cls-4 {
        fill: #108d38;
      }

      .cls-5 {
        fill: #1f1f1f;
      }

      .cls-6 {
        fill: #ca163c;
      }

      .cls-7 {
        fill: #f8d11c;
      }

      .cls-8 {
        fill: #f8d017;
      }

      .cls-9 {
        fill: #f7cc06;
      }
    </style>
  </defs>
  <g id="IqfPMd">
    <g>
      <path class="cls-1" d="M250.5,442.95c-7.25,9.64-9.14,20.04-11.51,30.25-1.82,7.81-3.45,15.64-6.19,23.23-1.4,3.89-3.31,5.08-7.48,4.59-11.59-1.36-20.5-6.85-27.09-16.29-2.14-3.07-4.15-6.25-6.02-9.49-5.45-9.41-.63-18.75,10.26-20.03,6.49-.76,10.53.47,17.77,5.57,3.51-9.1,6.96-18.1,10.46-27.08.56-1.45.81-2.58-.56-3.8-7.88-7.02-10.12-16.7-11.42-26.43-3.51-26.2-2.03-52.42.74-78.58.63-5.89-1.23-10.59-4.91-14.71-7.13-7.96-8.87-16.85-5.23-26.81,1.82-4.99,5.37-8.88,9.02-12.52,7.44-7.41,10.27-16.17,10.13-26.63-.33-25.42,2.91-50.64,5.6-75.86,2.1-19.71,4.34-39.4,6.82-59.07,1.48-11.73,5.34-22.53,14.89-30.66-2.77-1.43-5.28-2.57-7.62-3.99-1.84-1.12-2.62-2.99-1.87-5.11.77-2.19,2.85-1.88,4.56-1.89,2.58-.02,4.75,1.4,7.04,2.39,5.37,2.31,5.63,2.12,5.75-3.59.35-16.46-.73-32.88-1.79-49.28-.98-15.22-1.11-15.21,13.77-16.75,10.78-1.11,11.6-.51,12.37,10.31.87,12.18-.85,24.27-1.33,36.41-.28,6.96-.21,13.93-.42,20.9-.11,3.52,1.76,4.04,4.39,2.92,2.45-1.04,4.65-2.66,7.06-3.8,1.92-.91,3.95-1.67,6.02-2.13,1.59-.36,3.35.19,4.39,1.44,1.21,1.47.16,3.1-.54,4.5-1.97,3.97-5.88,5.02-9.7,5.92-3.41.81-3.91,2.02-2.58,5.44,4.18,10.73,3.9,22.07,3.31,33.33-2.28,43.91-4.17,87.84-7.36,131.69-.8,10.92,1.8,19.23,7.79,27.71,11.84,16.74,10.16,31.72-5.79,44.66-6.05,4.91-7.57,10.43-8.23,17.28-1.82,18.86-1.71,37.85-4.12,56.66-1.59,12.45-3.92,24.68-10.96,35.42-1.12,1.72-1.02,3.23-.46,5.04,3.97,12.8,8.26,25.41,16.63,36.21,3.61,4.66,6.54,9.75,8,15.61,1.28,5.12.46,9.79-3.18,13.43-10.43,10.42-23.1,14.4-37.64,11.94-5.81-.98-9.75-4.41-10.79-10.42-1.08-6.25,1.09-11.13,6.47-14.69,3.93-2.59,8.33-4.01,12.63-5.69,1.67-.65,2.9-1.19,1.78-3.35-5.54-10.62-9.76-21.75-12.85-34.2Z"/>
      <path class="cls-3" d="M311.77,314.74c5.55-5.94,4.17-13.01,4.05-20.06,5.11,3.33,7.62,8.7,5.44,13.35-1.56,3.33-3.54,7.59-9.49,6.71Z"/>
      <path d="M299.55,493.45c2.54-6.47,1.73-11.63-1.83-16.32-.41-.54-1-1.15-.27-1.77.91-.77,1.96-.54,3.01-.18,3.96,1.38,5.12,4.72,5.43,8.34.35,4.08-.64,7.7-6.34,9.93Z"/>
      <path class="cls-7" d="M289.7,111.08c-1.36,15.23-3.06,32.27-4.34,49.34-1.07,14.24-1.81,28.51-2.44,42.77-1.61,36.57-3.07,73.14-5.12,109.7-1.71,30.48-5.99,60.71-7.98,91.15-.54,8.21-2.69,16.24-9.07,22.26-1.71,1.61-1.68,3.27-1.14,5.32,3.96,15.03,8.55,29.76,17.6,42.72,2.63,3.77,4.72,7.93,6.11,12.43,1.34,4.34.44,7.86-3.16,10.42-7.4,5.26-15.59,6.44-24.41,4.39-3.14-.73-3.51-2.47-2.89-5.09,1.46-6.19,6.3-8.19,11.69-9.53.86-.21,1.74-.39,2.62-.51,10.67-1.43,11.43-2.39,5.49-11.39-8.83-13.36-11.71-28.93-17.39-43.45-.88-2.26-.49-5.63-4.48-5.57-3.7.06-5.39,2.47-6.54,5.4-3.89,9.93-7.67,19.9-11.51,29.84-.54,1.39-2.14,9.64-4.21,9.07-2-.55,1.28-8.15,1.51-9.6,1.67-10.61,7.09-19.7,11.71-29.1,1.53-3.12,1.53-5.54-1.61-7.12-11.98-6.02-13.6-17.39-13.93-28.66-.88-30.55.78-61.01,5.05-91.31,4.41-31.27,7.47-62.65,8.99-94.22,1.37-28.5,3.3-57,6.34-85.39,1.13-10.61,3-21.18,8.05-30.81,4.12-7.88,9.81-13.51,19.54-13.33,6.77.13,10.46,2.57,13.11,8.9,2.64,6.3,2.17,12.94,2.41,21.36Z"/>
      <path class="cls-8" d="M205.46,462.41c2.22-.12,4.5,1.47,6.22,3.93,1.33,1.9,2.51,3.89,3.7,5.88,1.48,2.47,3.35,3.96,6.51,3.73,3.12-.23,3.79-2.71,5.06-4.72,1.04-1.65.87-5.57,2.54-4.89,3.07,1.25-.46,3.71-.64,5.74-.46,5.42-1.94,10.74-2.74,16.15-.29,1.99-.65,2.81-2.88,2.47-9.2-1.43-20.86-12.04-22.59-20.76-.94-4.7.53-7.55,4.83-7.53Z"/>
      <path class="cls-6" d="M273.88,71.6c-.55-4.32-1.52-8.63-1.57-12.96-.19-15.68-.78-31.35-1.87-46.99-.3-4.39,3.1-2.14,4.9-2.62,1.49-.39,3.66-1.44,3.24,1.85-2.05,16.32-.03,32.79-1.9,49.12-.44,3.87-.3,7.81-2.81,11.6Z"/>
      <path class="cls-2" d="M288.49,314.5c-2.63-13.05,2.11-25.22.71-37.87,9.94,7.13,9.68,28.52-.71,37.87Z"/>
      <path class="cls-9" d="M224.65,273.58c.68,5.73-.75,10.33-1.5,15.01-.74,4.66-1.26,9.36-1.88,14.08-8.15-3.63-4.53-18.05,3.38-29.09Z"/>
      <path class="cls-1" d="M266.74,170.91c8.36-.02,12.92,4.21,13,12.07.12,10.99-8.01,20.49-17.5,20.44-8.84-.04-15.59-7.12-15.49-16.26.11-9.62,8.23-16.23,19.98-16.25Z"/>
      <path class="cls-5" d="M268.65,152.92c.2-4.14.16-8.43,4.67-10.6,1.83-.88,3.98-1.06,5.52.54,3.42,3.53,2.95,7.81,1.78,12.05-.42,1.51-1.23,2.98-2.13,4.28-1.36,1.95-2.86,3.29-5.79,2.54-2.95-.76-3.45-2.71-3.77-5.06-.17-1.24-.19-2.49-.27-3.75Z"/>
      <path class="cls-5" d="M261.06,149.28c.13,5.76-4.83,12.32-9.17,11.81-4.32-.5-3.95-4.61-4.21-7.55-.55-6.08,3.51-10.94,8.5-10.89,4.88.05,3.99,4.12,4.88,6.63Z"/>
      <path class="cls-4" d="M271.1,186.45c.03,6.08-2.74,9.8-7.32,9.88-4.14.06-7.75-4.54-7.72-9.84.03-5.31,3.87-9.16,9.03-9.07,3.85.07,5.99,3.28,6.01,9.03Z"/>
    </g>
  </g>
</svg>