<?xml version="1.0" encoding="UTF-8"?>
<svg id="Layer_1" data-name="Layer 1" xmlns="http://www.w3.org/2000/svg" viewBox="0 0 512 512">
  <defs>
    <style>
      .cls-1 {
        fill: #030303;
      }

      .cls-2 {
        fill: #171717;
      }

      .cls-3 {
        fill: #0d0d0d;
      }

      .cls-4 {
        fill: #121212;
      }

      .cls-5 {
        fill: #cf2d37;
      }

      .cls-6 {
        fill: #0f0f0f;
      }
    </style>
  </defs>
  <g id="hPqjVV">
    <g>
      <path class="cls-1" d="M39.85,345.04c-6.43-7.49-10.89-15.91-12.32-25.79.06-4.81.13-9.62.19-14.42,5.49-2.74,9.37-7.46,13.85-11.42,5.14-4.54,10.75-8.15,17.46-9.74,2.79-.66,6.44-1.87,8.27.48,3.95,5.09,8.18,2.68,12.74,1.88,20.31-3.57,38.13,1.24,52.82,16.22,6.09,6.21,12.06,4.83,15.04-3.34.91-2.49-1.32-3.86-2.33-5.51-14.81-24.15-23.33-50.05-22.24-78.68.09-2.4.03-4.87.58-7.18,1-4.24-1.3-5.55-4.75-6.42-3.48-.88-4.9.29-6.02,3.76-3.61,11.2-11.76,17.46-23.32,18.59-12.44,1.21-19.07-7.09-17.19-21.6.58-4.48.35-6.86-4.69-7.49-8.37-1.05-13.03-6.77-14.45-14.4-1.56-8.35,3.08-14.19,10.2-18.18.41-.23.73-.61,1.09-.92-6.16-9.07-6.49-14.55-1.26-20.93,6.61-8.06,16.03-9.58,28.23-4.56,3.65-12.45,11.32-19.66,21.95-20.67,10.32-.97,17.59,5.45,18.17,15.87.36,6.35-1.27,12.42-2.13,18.61-.24,1.71-2.6,4.26,1.25,5.15,3.26.76,3.38-1.94,4.18-3.77,7.22-16.71,16.67-31.95,29.4-45.09,26.24-27.08,58.88-40.33,95.83-43.28,34.65-2.77,68.38,1.26,99.32,18.56,39.91,22.31,60.33,57.97,68.38,101.8.74,4.02,1.28,8.07,1.99,12.61,1.87-.19,3.85-.38,5.93-.59-1.85-14.85-.46-27.68,19.35-26.57,7.09.4,8.41,2.32,12.43,12.7,6.63-3.9,13.75-5.18,21.11-2.6,4.16,1.46,7.72,3.91,10.14,7.75,3.99,6.33,2.85,11.21-4.8,19.31,8.82,3.54,16.74,7.95,17.73,18.66-1.56,9.94-9.43,12.65-17.45,14.86-4.83,1.33-7.29,2.58-4.98,8.6,2.76,7.19-.02,13.74-6.07,18.58-10.67,8.53-30.92,7.81-41.05-1.35-4.47-4.05-5.96-7.43-7.37-17.04-3.13.81-3.47,3.42-4.22,5.83-9.19,29.53-26.37,53.18-51.98,70.67-1.48,1.01-5.19,1.1-3.39,4.48,1.34,2.53,3.04,3.67,6.7,2.76,17.73-4.42,35.62-5.75,53.48-.37,7.04,2.12,13.27,5.59,18.18,11.22.91,1.05,2.16,2.8,3.07,2.7,9.28-1.08,10.08,6.03,12.19,12.07,2.53,7.24,6.17,14.07,7.28,21.83.88,6.2-.3,11.64-5.03,15.76-19.9,17.35-40.13,34.17-68.68,34.07-3.44-.01-5.5.94-3.36,4.46,2.8,4.62-.26,6.69-3.34,8.63-13.46,8.47-28.42,9.76-43.79,8.76-2.4-.16-4.78-.57-7.16-.92-11.07-1.64-11.32-2.33-13.58-12.97-1.44-6.77-4.13-13.28-6.38-19.86-1.83-5.36-1.77-10.32,2.04-14.93,4.29-5.18,2.99-10.91.96-16.43-3.75-10.15-11.25-18.53-13.96-29.2-.62-2.44-2.45-1.68-4.08-1.48-38.92,4.82-75.56-4.02-111.05-19.03-5.4-2.28-8.94-1.82-13.37,1.92-16.32,13.82-29.41,30.42-42.14,47.38-1.18,1.57-2.14,3.09-1.82,5.25,1.25,8.42-3.07,14.22-9.17,19.16-4.3,3.48-8.89,6.65-12.25,11.15-1.13,1.52-2.31,2.31-4.26,1.57-18.13-6.92-35.81-14.57-46.83-31.85-2.31-3.61-3.9-7.7-5.63-11.65-1.75-4.01-2.87-8.01,4.77-9.33-11.05-7.72-20.36-15.19-28.43-24.06ZM136.39,361.29c2.97-.19,1.98,3.5,4.08,4.16,5.65-.1,8.4-2.48,6.61-8.41,1.71-1.86,4.72.72,6.23-1.82.66-2.5,3.75-3.61,3.82-6.55-2.58-1.21-5.73.24-8.04-1.84.02-1,.03-2.01.05-3.01,4.06-.2,8.11-.41,12.9-.65-2.47-3-5.06-1.85-7.14-2.52-2.68-3.22-8.71,1.69-10.27-4.23.93-1.32,3.28-.36,3.82-2.33-3.12-3.18-7.46-4.94-9.66-9.01-.37-2.75-2.36-4.5-4.08-6.36-1-1.09-2.15-3.24-3.88-1.91-1.73,1.33-.41,2.95.93,4.04,1.86,1.5,2.36,3.39,1.81,5.63-2.51,2.72-5.59,5.58-9.08,2.77-3.01-2.43-1.22-6.15.2-9.21.7-1.51,1.51-2.96,2.31-4.42,2.69-4.9.36-5.81-4.04-5.09-1.55-1.35-3.1-2.71-4.66-4.06-1.04.02-2.1-.01-2.63,1.16-.92-.95-1.83-1.91-2.75-2.86-.95,0-1.89.02-2.84.03-.99-.47-1.98-.95-2.98-1.42-5.78-3.29-11.56-.52-17.34-.02-.96-1.79-1.6-3.66-1.42-5.73-3.24-5.16-4.14,1.06-6.27,1.29-1.36-.41-2.73-.83-4.09-1.24-3.31.99-8.21,1.01-7.94,5.59.59,10.15,2.76,20,9.72,28.11,1.81,2.1,3.41,2.3,5.44.62,1.21.65,1.57,1.75,1.62,3.02-.84,1.37-1.68,2.74-2.51,4.11.76,2.08.61,4.57,2.7,6.04,2.89,2.34,5.79,4.69,8.68,7.03,1.04,1.18,2.07,2.36,3.11,3.55,1.06,1.28,2.56.9,3.93,1.03.99.51,1.98,1.01,2.97,1.52-2.29,1.6-.69,2.4.48,3.77,4.96,5.83,12.31,8.35,17.88,13.3,1.16.09,2.32.19,3.48.28.76,4.11,3.08,5.57,6.45,2.86,3.87-3.12,6.79-6.89,1.81-11.63.19-1.87.38-3.75.57-5.62ZM438.62,361.03c4-2.96,9.6-4.97,6.96-11.83-1.39-1.31-2.77-2.62-4.16-3.94-4.64-2.22-5.33,2.61-7.76,4.34-1.2,1.24-1.96,3.1-4.14,2.97-.91-.55-1.82-1.11-2.73-1.66,2.41-5.07,6.62-10.54-2.89-12.98-.65-.17-1.19-.75-1.78-1.14-2.65.04-5.3.15-7.95.1-3.85-.06-5.09,2.02-4.74,5.51-.98,2.4-1.95,4.8-2.93,7.2.82,3.73-2.46,4.17-4.5,5.61-1.4.07-2.8.14-4.2.2-.63-2.63-1.26-5.26-2.11-8.83-3.8,5.78.41,10.91-1.04,15.73-1.87,1.69-4.02,2.16-6.44,1.51-2.53-2.65-.94-5.22.14-7.81,1.01-2.43,2.09-4.9.39-7.41-.47-.69-1.35-1.43-2.42-.68-2.63,1.85-2.14,4.59-1.78,7.12.49,3.48.32,6.62-2.7,8.99-2.53.06-4.79-.47-6.12-2.92-3.32-6.12,4.86-7.95,5.24-13.4-6.01.29-10.46,2.93-14.59,6.23-4.87,3.89-9.66,7.87-14.48,11.81-2.6.9-1.7,3.88-3.24,5.41-3.07.02-6.15-.06-9.21.1-2.12.11-5.1-1.04-5.18,2.87,2.07,2.55.2,6.36,2.8,8.74,4.54.34,7.07-4.81,11.68-4.28l-.13-.06c1.23,2.94,4.86,4.59,4.56,8.36.21,4.19-3.89,4.09-5.97,5.99-.97,3.16-7.89,1.63-5.72,7.27,3.17,6.79,8.21,7.57,14.45,4.47l.03-.03c1.97-1.86,5.4-.48,7.01-3.14l.02.02c3.4.37,6.81,3.81,10.21,0,1.91-1.47,3.1-3.13,1.51-5.55.89-.97,1.78-1.93,2.67-2.9.88,1.6,2.28,1.84,3.91,1.48.2,1.24.17,3.43.64,3.54,1.61.38,1.61-1.77,2.68-2.5.56-.38,1.12-.76,1.68-1.13,5.56,3.59,15.56-.41,17.16-6.87.4-1.9-.14-4.38,2.9-4.63.57.91,1.14,1.83,1.7,2.74,1.01,1.37,2.21,4.51,2.82-.12.25-1.91-.17-3.94,2.85-2.69,4.65.84,7.37-2.32,10.17-5.09,2.67-2.63-1.7-1.76-1.7-3.12.59-5.69,7.13-1.25,8.77-5.14,1.1-1.81,2.19-3.63,3.29-5.44,1.32-1.2,2.16-3.12,4.38-3.03ZM406.5,403.11c8.34-2.6,14.75-8.02,20.78-14.03-7.15,4.78-15.23,7.83-22.43,12.43-21.85,9.1-44.67,12.96-68.29,12.67,25.02,6.96,48,1.2,69.93-11.08ZM63.76,349.84c-3.78-6.66-7.93-13.15-11.22-20.04-3.38-7.08-5.91-14.57-8.8-21.89-.4-1.02.06-2.67-1.55-2.83-1.69-.17-2.49,1.23-3.06,2.55-2.27,5.33-2.38,10.71-.19,16.1,4.83,11.91,13.06,21.14,22.93,29.08,1.94,2.24,4.14,4.02,8.18,5.39-2.39-3.78-3.64-6.59-6.29-8.37ZM124.54,388.64c-9.13-7.08-18.42-13.95-27.34-21.28-11.59-9.53-22.39-20.03-28.92-33.73-6.32-13.23-13.41-26.68-6.81-43.5-7.49,5.12-7.73,11.58-7.2,17.96.97,11.59,6.13,21.7,12.51,31.14,14.57,21.53,33.73,38.07,56.15,51,2.64,1.65,5.28,3.3,9.64,6.02-2.72-4.76-5.5-6.04-8.03-7.62ZM407.99,413.4c-4.29,1.12-8.58,2.24-14.34,3.75,8.53,2.06,15.3,1.74,21.95-.85,2.49.24,4.7-.74,6.97-1.56,14.38-5.2,25.62-14.86,36.63-25.05,4.44-4.1,6.44-8.08,4.27-13.81-.56-1.49.19-3.76-1.8-4.35-2.01-.6-2.81,1.53-3.75,2.74-13.31,17.31-29.65,30.73-49.93,39.13ZM456.81,191.28h.37c0-1.93.13-3.87-.03-5.78-.28-3.34,1.11-8.19-4.53-7.93-5.16.24-6.6,4.49-6.32,8.9.21,3.32.98,6.72,2.17,9.83,1.65,4.32.11,6.12-4,6.96-6.6,1.35-13.17,2.85-19.74,4.33-4.19.94-6.29-.35-6.4-4.98-.26-10.39-2.11-20.6-4.64-30.65-10.67-42.36-34.37-74.2-76.05-89.92-44.07-16.62-87.93-13.69-130.73,5.31-25.93,11.51-45.16,29.94-55.75,56.75-2.12,5.37-4.87,10.49-7.07,15.83-1.65,4-4.25,5.55-8.47,4.44-5.35-1.42-10.77-2.54-15.78-5.07-3.75-1.89-5.48-3.58-2.79-8.23,3.77-6.51,5.69-13.81,3.64-21.53-.91-3.41-2.87-5.6-6.65-5.3-3.73.3-6.58,2.04-7.02,6-.39,3.58-.11,7.22-.35,10.82-.27,3.94,1.92,9.25-2.01,11.38-3.09,1.68-6.09-2.92-9.24-4.5-3.01-1.51-5.94-3.21-9.02-4.54-1.73-.75-3.73-1.36-5.58-1.29-4.87.18-8.86,2.81-9.21,7.55-.36,4.76,4.11,5.89,8.15,6.26,2.64.24,5.31.14,7.94.43,4.09.45,9.72.86,9.61,5.59-.1,4.28-5.76,3.49-9.39,4.21-5.42,1.08-11.15.04-16.35,2.39-5.13,2.31-8.87,8.87-6.95,12.81,2.64,5.39,7.47,5.53,12.44,4.03,3.91-1.18,7.66-2.86,11.54-4.16,3.28-1.1,6.99-2.03,9.13,1.56,2.35,3.95-1.98,5.41-3.96,7.34-4.84,4.73-10.19,8.89-10.26,16.62-.06,6.68,2.33,8.81,8.76,7.11,3.53-.94,5.63-3.45,7.12-6.66,1.77-3.81,2.19-7.86,2.41-11.96.18-3.34,1.38-5.37,5.3-5.09,7.21.51,14.35,1.1,21.41,3,5.16,1.39,6.73,3.9,6.43,9.25-1.9,33.3,6.51,63.98,24.86,91.77,3.34,5.06,2.69,8.02-1.8,11.18-1.37.96-2.52,2.24-3.75,3.39-10.38,9.64-10.32,10.34,1.53,18.87,13.47,9.7,15.02,9.67,26.1-2.52,3.44-3.78,6.34-4.59,11.2-2.33,10.49,4.85,21.48,8.52,32.58,11.8,25.82,7.63,52.1,12.18,79.09,10.06,15.36-1.21,15.28-1.72,21.38,12.12,1,2.27,1.19,5.62,4.82,5.48,8.45-.32,16.43-2.39,21.92-9.26,4.16-5.2,1.54-11.48.65-17.1-.87-5.55-1.89-9.58,4.76-12.89,30.55-15.18,49.83-40.18,60.76-72.06,3.97-11.57,7.43-14.05,19.55-14.41,6.31-.19,9.08,1.54,8.33,8.82-1.42,13.76,9.45,21.84,22.92,18.02,6.44-1.83,9.62-6.15,10.09-12.52.45-6.09-3.5-9.02-8.56-11.07-4.07-1.65-10.77-2.98-9.24-7.98,1.8-5.87,7.85-2.11,11.93-.92,7.89,2.3,15.25,1.72,22.12-2.89,3.03-2.03,4.82-4.91,3.8-8.64-1.09-3.94-3.91-5.77-8.09-5.83-5.13-.07-10.07,1.02-14.96,2.23-3.34.83-6.65,1.01-10.03.89-1.85-.07-3.34-.9-4.08-2.52-.94-2.09.92-3.1,2.21-3.98,2.57-1.77,5.28-3.33,8-4.88,4.37-2.5,9.21-4.26,12.84-7.96,2.61-2.66,5.43-6.18,3.24-9.43-2.37-3.52-7.01-2.31-10.65-1-3.28,1.18-5.42,3.96-7.26,6.81-1.44,2.22-2.61,4.61-3.98,6.88-1.53,2.52-3.18,5.12-6.74,4.25-3.69-.9-3.64-3.99-3.64-6.95,0-2.17,0-4.33,0-6.5ZM123.45,403.11c.12-1.32-1.05-1.45-1.83-1.82-13.67-6.49-24.63-16.7-35.9-26.42-3.66-3.16-6.25-3.03-9.72-.06-3.78,3.24-1.72,5.88.24,8.71,8.93,12.88,21.42,21.2,35.42,27.54,2.74,1.24,11.89-5.08,11.78-7.94ZM355.8,440.64c9.64.26,19.05-1.09,28.34-3.78,4.89-1.41,4.49-4.74,3.09-7.78-1.25-2.71-.86-8.19-6.6-6.28-12.96,4.32-26.1,5.91-39.61,3.23-1.42-.28-2.65-.78-3.04,1.54-1.02,6.07,3.77,12.63,9.91,13.04,2.62.18,5.27.03,7.9.03ZM455.38,357.29c-3.17,4.88-6.35,9.76-9.53,14.64,5.12-3.71,10.55-7.17,9.53-14.64ZM106.02,297.34c-3.13-1.54-6.4-3.88-11.14,0h11.14Z"/>
      <path class="cls-3" d="M491.82,376.23c7.78,3.72,10.23,9.24,8.3,17.02-2.14,8.64-6.8,12.64-16.26,12.62,8.58-8.67,15.47-17.36,7.97-29.65Z"/>
      <path class="cls-6" d="M300.98,418.02c-8.5,14.92-7.74,20.05,3.71,21.61-2.86,2.96-5.46,4.92-9.32,2.49-4.3-2.7-6.74-11.61-4.78-17.76,1.6-5.02,4.87-7.52,10.39-6.35Z"/>
      <path class="cls-3" d="M485.86,279.99c12-.98,19.53-5.21,20.7-16.51.11-1.1.68-1.95,1.76-1.58,1.73.58,2.45,2.04,2.62,3.86.59,6.46-2.67,10.92-7.54,14.48-5.47,3.98-9.8,4.13-17.53-.25Z"/>
      <path class="cls-4" d="M157.65,399.24c6.31-.35,9.19,2.82,9.73,10.23.53,7.25-3.83,10.71-17.12,12.35,8.16-6.51,16.51-12.27,7.39-22.58Z"/>
      <path class="cls-2" d="M15.54,300.46c-10.45,3.1-10.39,10.45-9.93,18.11.1,1.58,1.68,4.06-1.05,4.74-3.18.8-3.27-2.48-3.75-4.15-1.99-6.94-.26-13.28,4.45-18.64,2.8-3.19,4.54-3.12,10.28-.06Z"/>
      <path class="cls-6" d="M459.96,138.52c6.38.84,12.22,2.65,14.76,9.52.48,1.31,1.22,2.96-.46,3.85-1.43.76-2.8-.2-3.81-1.24-.82-.85-1.48-1.89-2.06-2.93-3.35-5.99-7.87-6.34-13.29-2.91-1.93,1.23-4.61,4.05-6.15,1.61-1.85-2.94,1.59-4.99,3.98-6.43,2.07-1.25,4.46-1.84,7.02-1.47Z"/>
      <path class="cls-4" d="M47.23,143.87c-7.22-3.53-8.48-7.81-4.4-14.87,4.67-8.07,10.77-10.12,17.35-5.82-14.33,6.47-15.87,8.94-12.95,20.7Z"/>
      <path class="cls-5" d="M456.81,191.28c0,2.17,0,4.33,0,6.5,0,2.96-.05,6.05,3.64,6.95,3.56.87,5.21-1.73,6.74-4.25,1.37-2.26,2.54-4.66,3.98-6.88,1.85-2.85,3.98-5.63,7.26-6.81,3.64-1.31,8.28-2.52,10.65,1,2.19,3.25-.64,6.77-3.24,9.43-3.62,3.7-8.46,5.46-12.84,7.96-2.71,1.55-5.43,3.11-8,4.88-1.28.89-3.15,1.89-2.21,3.98.73,1.63,2.22,2.46,4.08,2.52,3.38.12,6.69-.07,10.03-.89,4.9-1.21,9.83-2.31,14.96-2.23,4.18.06,7,1.89,8.09,5.83,1.03,3.73-.77,6.61-3.8,8.64-6.87,4.6-14.23,5.18-22.12,2.89-4.08-1.19-10.13-4.95-11.93.92-1.53,5,5.17,6.33,9.24,7.98,5.06,2.05,9.01,4.98,8.56,11.07-.47,6.37-3.65,10.69-10.09,12.52-13.47,3.82-24.35-4.27-22.92-18.02.75-7.29-2.02-9.01-8.33-8.82-12.12.36-15.58,2.84-19.55,14.41-10.93,31.88-30.21,56.88-60.76,72.06-6.65,3.3-5.63,7.33-4.76,12.89.88,5.62,3.5,11.91-.65,17.1-5.49,6.87-13.47,8.93-21.92,9.26-3.63.14-3.82-3.21-4.82-5.48-6.1-13.84-6.02-13.33-21.38-12.12-26.99,2.12-53.27-2.43-79.09-10.06-11.1-3.28-22.09-6.96-32.58-11.8-4.87-2.25-7.77-1.45-11.2,2.33-11.08,12.19-12.63,12.22-26.1,2.52-11.85-8.54-11.91-9.23-1.53-18.87,1.24-1.15,2.39-2.43,3.75-3.39,4.49-3.15,5.14-6.12,1.8-11.18-18.35-27.79-26.77-58.47-24.86-91.77.31-5.36-1.27-7.86-6.43-9.25-7.06-1.9-14.2-2.49-21.41-3-3.93-.28-5.12,1.76-5.3,5.09-.22,4.11-.64,8.15-2.41,11.96-1.49,3.21-3.59,5.72-7.12,6.66-6.43,1.7-8.82-.43-8.76-7.11.07-7.74,5.43-11.89,10.26-16.62,1.98-1.93,6.31-3.39,3.96-7.34-2.14-3.59-5.85-2.66-9.13-1.56-3.88,1.3-7.63,2.98-11.54,4.16-4.98,1.5-9.81,1.37-12.44-4.03-1.93-3.94,1.82-10.5,6.95-12.81,5.2-2.35,10.93-1.31,16.35-2.39,3.63-.72,9.29.06,9.39-4.21.11-4.73-5.52-5.14-9.61-5.59-2.63-.29-5.3-.19-7.94-.43-4.04-.37-8.5-1.5-8.15-6.26.35-4.73,4.35-7.37,9.21-7.55,1.85-.07,3.84.54,5.58,1.29,3.08,1.34,6.01,3.04,9.02,4.54,3.16,1.58,6.15,6.18,9.24,4.5,3.93-2.13,1.74-7.43,2.01-11.38.25-3.6-.04-7.25.35-10.82.44-3.97,3.29-5.71,7.02-6,3.78-.3,5.75,1.89,6.65,5.3,2.05,7.72.13,15.02-3.64,21.53-2.69,4.65-.97,6.34,2.79,8.23,5.01,2.52,10.44,3.65,15.78,5.07,4.22,1.12,6.81-.44,8.47-4.44,2.21-5.34,4.96-10.46,7.07-15.83,10.58-26.81,29.81-45.24,55.75-56.75,42.8-19,86.66-21.93,130.73-5.31,41.68,15.72,65.37,47.56,76.05,89.92,2.53,10.05,4.38,20.26,4.64,30.65.11,4.62,2.21,5.92,6.4,4.98,6.57-1.48,13.14-2.98,19.74-4.33,4.11-.84,5.65-2.64,4-6.96-1.19-3.11-1.96-6.51-2.17-9.83-.28-4.41,1.17-8.65,6.32-8.9,5.64-.27,4.25,4.59,4.53,7.93.16,1.91.03,3.85.03,5.78-.12,0-.25,0-.37,0ZM199.31,217.32c-.42,15.85,1.22,31.95,10.73,46.34,24.25,36.67,85.33,51.01,124.1,1.94,23.64-29.92,32.5-66.19,40.67-102.5,1.02-4.55,2.14-10.1-2.88-12.22-5.54-2.34-7.65,3.64-10.18,7.12-5.22,7.18-9.13,15.34-16.21,21.11-19.24,15.69-41.5,18.3-64.88,14.18-28.55-5.03-58.75-26.81-55.27-60.64.23-2.2.15-4.47-2.55-5.3-2.58-.79-4.71-.02-6.47,1.99-1.95,2.24-3.02,4.88-3.7,7.74-1.88,7.96-3.73,15.92-5.71,23.85-4.56,18.27-8.18,36.66-7.66,56.38ZM315.44,125.24c0,15.12,11.21,21.71,24.29,14.08,8.65-5.05,13.18-13.19,14.88-22.74,1.59-8.94-1.82-15.26-8.62-17.71-7.59-2.74-21.97,1.21-25.3,7.16-3.33,5.94-5.23,12.34-5.25,19.21ZM305.07,101.41c.13-8.78-4.61-13.05-14.86-13.38-12.69-.41-22.74,10.27-22.92,24.38-.13,9.98,5.06,15.96,14.05,16.2,11.7.3,23.52-13.25,23.73-27.2Z"/>
      <path class="cls-5" d="M351.88,365.74c4.82-3.94,9.61-7.93,14.48-11.81,4.13-3.3,8.58-5.94,14.59-6.23-.38,5.45-8.56,7.28-5.24,13.4,1.33,2.45,3.59,2.98,6.12,2.92,2.12-.07,4.24-.13,6.37-.2,2.42.65,4.57.19,6.44-1.51,1.09.09,2.17.19,3.26.28.41,8.63,2.93,16.8,5.53,24.95-1.6,6.46-11.6,10.46-17.16,6.87-4.56-14.37-15.57-21.37-29.08-25.66-1.87-.59-5.3,1.01-5.31-3.01Z"/>
      <path class="cls-5" d="M95.71,352.22c-2.89-2.34-5.79-4.69-8.68-7.03-.04-2.91,1.48-5.11,3.68-6.61,8.04-5.47,13.68-13.1,19.31-20.77-.54,5.26,3.07,5.72,6.81,5.68,4.04-.05,5.15-2.53,4.64-6.2-.33-2.4.11-4.7,1.49-6.75,4.4-.72,6.72.19,4.04,5.09-.8,1.46-1.61,2.92-2.31,4.42-1.42,3.06-3.21,6.79-.2,9.21,3.49,2.81,6.56-.05,9.07-2.77,1.74-.47,3.47-.94,5.21-1.4,2.2,4.07,6.54,5.83,9.66,9.01-.53,1.97-2.89,1.01-3.82,2.33-6.71.27-13.07,2.43-19.61,3.61-10.68,1.94-19.57,8.03-29.3,12.17Z"/>
      <path class="cls-5" d="M123.45,403.11c.11,2.86-9.04,9.18-11.78,7.94-14-6.34-26.49-14.66-35.42-27.54-1.96-2.83-4.02-5.47-.24-8.71,3.47-2.97,6.05-3.1,9.72.06,11.27,9.72,22.23,19.93,35.9,26.42.78.37,1.95.5,1.82,1.83Z"/>
      <path class="cls-5" d="M355.8,440.64c-2.63,0-5.28.15-7.9-.03-6.14-.41-10.94-6.97-9.91-13.04.39-2.32,1.62-1.82,3.04-1.54,13.51,2.68,26.65,1.09,39.61-3.23,5.73-1.91,5.35,3.57,6.6,6.28,1.4,3.05,1.8,6.37-3.09,7.78-9.29,2.68-18.7,4.03-28.34,3.78Z"/>
      <path class="cls-5" d="M407.99,413.4c20.28-8.4,36.62-21.82,49.93-39.12.93-1.21,1.73-3.34,3.75-2.74,1.98.59,1.23,2.86,1.8,4.35,2.17,5.73.17,9.7-4.27,13.81-11.02,10.19-22.26,19.85-36.63,25.05-2.26.82-4.47,1.8-6.97,1.56-2.52-1-6.46,1.71-7.6-2.9Z"/>
      <path class="cls-5" d="M122.93,390.24c-22.42-12.92-41.58-29.47-56.15-51-6.39-9.44-11.54-19.55-12.51-31.14-.53-6.39-.29-12.85,7.2-17.96-6.59,16.82.5,30.26,6.81,43.5,6.54,13.69,17.33,24.2,28.92,33.73,8.92,7.33,18.21,14.2,27.34,21.28-.54.53-1.08,1.06-1.61,1.6Z"/>
      <path class="cls-5" d="M61.87,352.82c-9.87-7.94-18.1-17.17-22.93-29.08-2.19-5.39-2.07-10.78.19-16.1.56-1.33,1.37-2.72,3.06-2.55,1.61.16,1.14,1.81,1.55,2.83,2.89,7.32,5.42,14.8,8.8,21.89,3.29,6.9,7.44,13.38,11.22,20.04-.14,1.3-.63,2.38-1.89,2.98Z"/>
      <path class="cls-5" d="M149.09,346.84c2.31,2.08,5.46.63,8.04,1.84-.06,2.93-3.15,4.04-3.82,6.54-5.32-4.14-11.14-5.34-17.37-2.43-3.95,1.84-7.49,2.95-12.14,1.55-4.02-1.21-7.15,1.96-8.73,5.85-1.24,3.06-.54,5.82,2.46,7.36,3.77,1.93,5.61-1.04,7.53-3.51.76.02,1.52.03,2.27.04.28,4.16-1.82,7.64-3.26,11.3-5.57-4.95-12.92-7.47-17.88-13.3-1.17-1.38-2.78-2.17-.48-3.77,14.05-5.37,27.92-11.41,43.37-11.48Z"/>
      <path class="cls-5" d="M85.21,332.01c-2.03,1.68-3.63,1.48-5.44-.62-6.97-8.11-9.13-17.96-9.72-28.11-.27-4.58,4.63-4.6,7.94-5.59.05,4.04.54,8.13.04,12.1-.57,4.51-.82,8.66,3.7,11.17,4.94,2.75,9.6,1.78,13.8-1.84-.9,6.33-7.44,8.14-10.32,12.89Z"/>
      <path d="M125.06,364.05c-1.91,2.47-3.75,5.44-7.53,3.51-3-1.54-3.7-4.3-2.46-7.36,1.58-3.89,4.71-7.06,8.73-5.85,4.65,1.4,8.2.29,12.14-1.55,6.22-2.9,12.04-1.71,17.37,2.43-1.52,2.53-4.52-.04-6.23,1.82-8-2.92-9.65-2.24-13.79,5.73-1.91,4.3-3.82,8.61-5.73,12.91-1.16-.09-2.32-.19-3.48-.28,1.44-3.67,3.54-7.14,3.26-11.3,1.09-4.37-1.3-5.68-5.04-5.54-3.14.12-3.67,1.05-3.51,5.27q4.99-3.88,6.27.22Z"/>
      <path class="cls-5" d="M422.17,374.64c0,1.37,4.37.49,1.7,3.12-2.8,2.77-5.52,5.93-10.17,5.09-3.17-10.87-6.76-21.66-5.97-33.24,5-4.65,9.86-.82,14.76.25.43.96.86,1.92,1.29,2.88-5.35.39-9.43,2.5-10,8.38-.64,6.51,2.17,11.14,8.4,13.52Z"/>
      <path class="cls-5" d="M406.5,403.11c-21.94,12.28-44.91,18.03-69.93,11.08,23.62.29,46.44-3.57,68.29-12.67.55.53,1.1,1.07,1.64,1.6Z"/>
      <path d="M355.91,404.62c-6.24,3.09-11.27,2.31-14.45-4.47,3.84-.9,7.15-2.22,5.72-7.27,2.09-1.9,6.18-1.81,5.97-5.99.47.02.96.12,1.41.04,10.41-1.93,14.43,1.64,13.77,12.22-.29,4.63,3.03,1.96,4.84,2.32-3.4,3.82-6.81.38-10.21.01.59-1.63,3.12-2.4,1.98-5.16-1.97,1.22-5.54-.36-5.83,3.28-.18,2.17,2.17,1.97,3.83,1.85-1.61,2.66-5.04,1.28-7.01,3.14-2.3-4.89-1.84-9.45,1.88-13.75-6.69,2.24-8.72,7.96-11.57,13.33,3.51,1,6.58.71,9.65.44Z"/>
      <path d="M377.36,393.02c-.89.97-1.78,1.93-2.67,2.9-6.91-8.48-13.77-17.04-26.09-17.39,0,0,.13.06.13.06-8.92-3.63-11.69-2.61-11.68,4.28-2.6-2.38-.73-6.19-2.8-8.74,6.27-1.2,12.55-2.35,18.83-.07,10.05,3.82,18.9,9.17,24.28,18.97Z"/>
      <path d="M95.71,352.22c9.73-4.14,18.62-10.23,29.3-12.17,6.54-1.19,12.9-3.34,19.61-3.61,1.56,5.93,7.6,1.01,10.27,4.23-20.3-.93-38.77,4.93-56.07,15.1-1.04-1.18-2.07-2.37-3.11-3.55Z"/>
      <path d="M422.17,374.64c-6.22-2.38-9.03-7-8.4-13.52.57-5.88,4.66-7.98,10-8.38,1.62.96,3.76,1.55,4.75,2.95,2.44,3.43,2.18,7.2-.43,10.55-1.83,2.35-4.04,1.8-6.38.53-4.43-2.4.08-5.52-.12-8.51-3.26.95-4.92,2.28-4.48,5.27.46,3.2,2.39,5.21,5.34,6.07,2.78.81,5.67.6,8.49-.13-1.64,3.9-8.18-.55-8.77,5.15Z"/>
      <path d="M351.88,365.74c.02,4.02,3.44,2.42,5.31,3.01,13.5,4.29,24.51,11.29,29.08,25.66-.56.38-1.12.76-1.68,1.13-1.07.72-1.08,2.88-2.68,2.5-.47-.11-.44-2.3-.65-3.54-5.38-12.47-14.85-19.62-28.21-21.73-1.47-.54-2.94-1.09-4.42-1.63,1.54-1.53.65-4.51,3.24-5.41Z"/>
      <path d="M149.09,346.84c-15.45.07-29.32,6.11-43.37,11.48-.99-.51-1.98-1.01-2.97-1.52,14.46-7.91,29.1-15.17,46.39-12.97-.02,1-.03,2.01-.05,3.01Z"/>
      <path d="M95.53,319.12c-4.2,3.62-8.86,4.59-13.8,1.84-4.52-2.51-4.27-6.66-3.7-11.17.5-3.97.01-8.06-.04-12.1,1.36.41,2.73.83,4.09,1.24-.18,1.52-1.95,3.39-.3,4.47,2.11,1.38,3.16-.98,4.26-2.33.87-1.06,1.54-2.28,2.31-3.43-.18,2.07.47,3.94,1.42,5.73-.6,1-1.19,2-1.79,3.01-3.47,3.11-7.81,5.96-3.32,11.39,3.15,2.52,6.33,1.35,9.51.06.45.43.9.86,1.35,1.29Z"/>
      <path d="M110.01,317.81c-5.63,7.67-11.27,15.31-19.31,20.77-2.2,1.5-3.72,3.7-3.68,6.61-2.1-1.48-1.95-3.97-2.71-6.04,12.72-8.81,21.07-21.25,28.61-34.37.92.95,1.83,1.91,2.75,2.86-1.23,3.78-5.23,6.01-5.69,10.22l.02-.05Z"/>
      <path class="cls-5" d="M149.13,343.83c-17.29-2.2-31.93,5.06-46.39,12.97-1.37-.13-2.86.25-3.93-1.03,17.31-10.17,35.78-16.04,56.08-15.1,2.08.67,4.67-.48,7.14,2.52-4.78.24-8.84.44-12.9.65Z"/>
      <path d="M422.49,349.87c-4.9-1.07-9.76-4.91-14.76-.25-.41,0-.82,0-1.23-.01.98-2.4,1.95-4.8,2.93-7.2,13.43,4.53,13.5,4.49,12.68-5.62.59.39,1.13.98,1.78,1.14,9.51,2.44,5.31,7.91,2.89,12.98-1.44-.35-2.87-.7-4.3-1.05Z"/>
      <path class="cls-5" d="M348.6,378.53c12.33.35,19.18,8.92,26.09,17.39,1.59,2.42.4,4.08-1.51,5.55-1.82-.36-5.13,2.31-4.84-2.32.65-10.57-3.36-14.14-13.77-12.22-.45.08-.94-.02-1.41-.04.29-3.78-3.33-5.42-4.56-8.36Z"/>
      <path d="M406.49,349.6c.41,0,.82,0,1.23.01-.79,11.58,2.8,22.37,5.97,33.24-3.01-1.26-2.6.78-2.85,2.69-.61,4.63-1.81,1.49-2.82.12.65-10.53-2.33-20.36-5.75-30.11l-.29-.34c2.04-1.44,5.32-1.88,4.5-5.61Z"/>
      <path class="cls-5" d="M422.49,349.87c1.43.35,2.87.7,4.3,1.05.91.55,1.82,1.11,2.73,1.66,3.33,3.11,5.36,6.74,4.72,11.48-1.1,1.81-2.19,3.63-3.29,5.44-2.82.73-5.71.94-8.49.13-2.95-.86-4.87-2.87-5.34-6.07-.43-3,1.23-4.33,4.48-5.27.21,2.99-4.31,6.11.12,8.51,2.34,1.27,4.55,1.81,6.38-.53,2.61-3.35,2.87-7.12.43-10.55-1-1.4-3.13-1.99-4.75-2.95-.43-.96-.86-1.92-1.29-2.88Z"/>
      <path d="M95.53,319.12c-.45-.43-.9-.86-1.35-1.29.94-1,1.87-1.99,2.81-2.99,3.1,1.66,2.36-2.46,4.16-2.76,4.16-1.41,4.39-5.52,5.96-8.7.99.47,1.98.95,2.98,1.42-5.31,11.96-15.1,20.47-23.26,30.23-.06-1.27-.42-2.37-1.62-3.02,2.87-4.75,9.42-6.56,10.32-12.89Z"/>
      <path d="M403.43,387.55c-2.6-8.15-5.12-16.32-5.53-24.95-.03-2.39-.07-4.79-.1-7.18,1.4-.07,2.8-.14,4.19-.2,0,0,.29.34.29.34-.82,9.44.76,18.53,4.05,27.37-3.04.25-2.5,2.73-2.9,4.63Z"/>
      <path d="M122.96,310.54c-1.39,2.05-1.83,4.35-1.49,6.75.51,3.67-.6,6.15-4.64,6.2-3.75.05-7.35-.42-6.81-5.68l-.02.05c3.57-3.21,10.6-3.89,8.31-11.38,1.55,1.35,3.1,2.71,4.66,4.06Z"/>
      <path class="cls-5" d="M127.55,375.67c1.91-4.3,3.82-8.61,5.73-12.91.84,1.38,1.69,2.76,2.53,4.14,4.98,4.73,2.06,8.51-1.81,11.63-3.37,2.71-5.69,1.25-6.45-2.86Z"/>
      <path class="cls-5" d="M86.84,335.03c8.16-9.76,17.95-18.27,23.26-30.23.95,0,1.89-.02,2.84-.03-7.54,13.12-15.89,25.56-28.61,34.37.84-1.37,1.68-2.74,2.51-4.11Z"/>
      <path d="M434.24,364.05c.64-4.74-1.4-8.37-4.72-11.48,2.18.13,2.94-1.73,4.14-2.97,5.47,3.71,6.62-.31,7.76-4.34,1.39,1.31,2.77,2.62,4.16,3.94-2.05,4.1-9.11,5.26-6.96,11.83-2.22-.09-3.06,1.82-4.38,3.03Z"/>
      <path class="cls-5" d="M422.11,336.79c.82,10.11.74,10.14-12.68,5.62-.35-3.49.89-5.57,4.74-5.51,2.65.04,5.3-.06,7.95-.1Z"/>
      <path class="cls-5" d="M107.12,303.39c-1.58,3.18-1.8,7.29-5.96,8.7-1.76-7.98-8.13-5.31-13.17-5.71.6-1,1.19-2,1.79-3.01,5.78-.51,11.56-3.27,17.34.02Z"/>
      <path class="cls-5" d="M353.05,372.78c13.36,2.11,22.84,9.25,28.21,21.73-1.63.36-3.03.12-3.91-1.48-5.38-9.8-14.23-15.15-24.28-18.97-.04-.43-.05-.85-.02-1.28Z"/>
      <path class="cls-5" d="M406.33,382.92c-3.29-8.84-4.87-17.93-4.05-27.37,3.43,9.75,6.4,19.58,5.75,30.11-.57-.91-1.14-1.83-1.7-2.74Z"/>
      <path class="cls-5" d="M135.82,366.9c-.84-1.38-1.69-2.76-2.53-4.14,4.14-7.96,5.79-8.65,13.79-5.73,1.79,5.94-.96,8.32-6.61,8.42-1.26-2.52,4.61-3.17,1.72-5.79-2.25-2.04-4.34-.66-5.81,1.62-.19,1.87-.38,3.74-.57,5.61Z"/>
      <path class="cls-5" d="M406.5,403.11c-.55-.53-1.1-1.06-1.64-1.6,7.2-4.61,15.28-7.65,22.43-12.43-6.04,6.01-12.44,11.43-20.78,14.03Z"/>
      <path class="cls-5" d="M388.21,363.82c-2.12.07-4.24.13-6.37.2,3.01-2.36,3.19-5.5,2.7-8.99-.36-2.53-.85-5.27,1.78-7.12,1.07-.75,1.95-.01,2.42.68,1.7,2.51.62,4.99-.39,7.41-1.08,2.59-2.67,5.16-.14,7.81Z"/>
      <path class="cls-5" d="M407.99,413.4c1.14,4.61,5.08,1.89,7.6,2.9-6.65,2.6-13.41,2.92-21.94.85,5.77-1.51,10.05-2.63,14.34-3.75Z"/>
      <path class="cls-5" d="M455.38,357.29c1.03,7.47-4.41,10.93-9.53,14.64,3.18-4.88,6.35-9.76,9.53-14.64Z"/>
      <path class="cls-5" d="M397.8,355.41c.03,2.39.07,4.79.1,7.18-1.09-.09-2.17-.19-3.26-.28,1.46-4.82-2.75-9.96,1.05-15.73.85,3.58,1.48,6.21,2.11,8.83Z"/>
      <path class="cls-5" d="M438.62,361.03c-2.15-6.57,4.91-7.73,6.96-11.83,2.64,6.86-2.97,8.87-6.96,11.83Z"/>
      <path class="cls-5" d="M337.04,382.87c0-6.9,2.77-7.91,11.68-4.28-4.61-.52-7.14,4.62-11.68,4.28Z"/>
      <path class="cls-5" d="M138.77,325.1c-1.74.47-3.48.94-5.21,1.4.55-2.25.05-4.13-1.81-5.63-1.35-1.09-2.67-2.71-.93-4.04,1.72-1.32,2.87.83,3.88,1.91,1.71,1.86,3.71,3.61,4.08,6.36Z"/>
      <path class="cls-5" d="M118.3,306.48c2.29,7.49-4.74,8.17-8.31,11.38.46-4.21,4.46-6.44,5.69-10.22.53-1.17,1.59-1.14,2.63-1.16Z"/>
      <path class="cls-5" d="M353.05,372.78c-.03.43-.02.85.02,1.28-6.29-2.28-12.56-1.13-18.83.07.08-3.91,3.07-2.76,5.18-2.87,3.06-.16,6.14-.08,9.21-.1,1.47.54,2.94,1.09,4.42,1.63Z"/>
      <path class="cls-5" d="M441.42,345.26c-1.14,4.03-2.29,8.05-7.76,4.34,2.43-1.73,3.12-6.56,7.76-4.34Z"/>
      <path class="cls-5" d="M88.35,297.64c-.76,1.15-1.44,2.37-2.31,3.43-1.1,1.35-2.15,3.72-4.26,2.33-1.65-1.08.12-2.95.3-4.47,2.13-.23,3.02-6.46,6.27-1.29Z"/>
      <path class="cls-5" d="M347.19,392.88c1.43,5.05-1.88,6.37-5.72,7.27-2.17-5.63,4.75-4.11,5.72-7.27Z"/>
      <path d="M136.39,361.29c1.46-2.28,3.55-3.66,5.81-1.62,2.89,2.62-2.98,3.26-1.72,5.79-2.1-.66-1.11-4.35-4.08-4.16Z"/>
      <path class="cls-5" d="M61.87,352.82c1.25-.6,1.75-1.68,1.89-2.98,2.65,1.78,3.9,4.6,6.29,8.37-4.04-1.37-6.24-3.15-8.18-5.39Z"/>
      <path class="cls-5" d="M106.02,297.34h-11.14c4.74-3.88,8.01-1.54,11.14,0Z"/>
      <path class="cls-5" d="M122.93,390.24c.54-.53,1.08-1.07,1.61-1.6,2.53,1.58,5.31,2.86,8.03,7.62-4.37-2.73-7-4.37-9.64-6.02Z"/>
      <path d="M199.31,217.32c-.53-19.71,3.1-38.11,7.66-56.38,1.98-7.93,3.83-15.9,5.71-23.85.67-2.86,1.74-5.49,3.7-7.74,1.76-2.01,3.89-2.78,6.47-1.99,2.71.83,2.78,3.1,2.55,5.3-3.48,33.83,26.73,55.61,55.27,60.64,23.38,4.12,45.64,1.51,64.88-14.18,7.08-5.77,10.99-13.93,16.21-21.11,2.53-3.49,4.65-9.46,10.18-7.12,5.02,2.12,3.9,7.67,2.88,12.22-8.18,36.31-17.03,72.57-40.67,102.5-38.77,49.07-99.85,34.73-124.1-1.94-9.51-14.39-11.15-30.49-10.73-46.34Z"/>
      <path class="cls-1" d="M315.44,125.24c.02-6.87,1.92-13.27,5.25-19.21,3.34-5.95,17.71-9.91,25.3-7.16,6.79,2.46,10.21,8.77,8.62,17.71-1.7,9.54-6.23,17.69-14.88,22.74-13.07,7.63-24.29,1.04-24.28-14.08Z"/>
      <path class="cls-1" d="M305.07,101.41c-.21,13.95-12.04,27.5-23.73,27.2-8.98-.23-14.18-6.22-14.05-16.2.18-14.11,10.23-24.79,22.92-24.38,10.25.33,14.99,4.6,14.86,13.38Z"/>
      <path class="cls-5" d="M125.06,364.05q-1.28-4.11-6.27-.22c-.17-4.22.37-5.15,3.51-5.27,3.74-.14,6.13,1.17,5.04,5.54-.76-.01-1.52-.03-2.27-.04Z"/>
      <path class="cls-5" d="M355.91,404.62c-3.07.27-6.14.56-9.65-.44,2.85-5.37,4.87-11.09,11.57-13.33-3.73,4.29-4.18,8.86-1.88,13.75,0,0-.03.03-.03.03Z"/>
      <path class="cls-5" d="M362.95,401.45c-1.67.11-4.01.32-3.83-1.85.3-3.64,3.86-2.06,5.83-3.28,1.14,2.76-1.38,3.53-1.98,5.16,0,0-.02-.03-.02-.03Z"/>
      <path d="M87.99,306.38c5.04.4,11.41-2.27,13.17,5.71-1.8.3-1.07,4.42-4.17,2.76.07-2.49,1.21-5.73-3.12-5.58-2.56.09-5.81,2.3-4.92,4.02,3.47,6.78-2.2,3.7-4.28,4.47-4.49-5.43-.15-8.28,3.32-11.39Z"/>
      <path class="cls-5" d="M84.67,317.77c2.08-.77,7.74,2.3,4.28-4.47-.88-1.72,2.37-3.94,4.92-4.02,4.33-.15,3.19,3.08,3.12,5.58-.94,1-1.87,1.99-2.81,2.99-3.18,1.29-6.36,2.45-9.51-.06Z"/>
    </g>
  </g>
</svg>