<?xml version="1.0" encoding="UTF-8"?>
<svg id="Layer_1" data-name="Layer 1" xmlns="http://www.w3.org/2000/svg" viewBox="0 0 512 512">
  <defs>
    <style>
      .cls-1 {
        fill: #1c1c1c;
      }

      .cls-2 {
        fill: #028aca;
      }

      .cls-3 {
        fill: #f49500;
      }
    </style>
  </defs>
  <g id="_8TjN3j" data-name="8TjN3j">
    <g>
      <path class="cls-1" d="M429.03,103.97c-6.15-6.02-6.94-13.05-2.24-19.85,3.12-4.53,8.98-5.14,13.78-4.18,8.07,1.61,11.41,7.87,11.73,16.24,4.06-7.17,9.8-11.04,17.65-11.91,3.71-.41,7.28.08,10.61,1.3,8.7,3.19,9.23,12.83,1.4,19.64-2.55,2.22-7.66,3.49-7.37,6.34.32,3.13,5.44,1.44,8.35,2.56,5.37,2.07,8.57,6.12,9.03,11.14.56,6.1-2.38,11.6-7.51,15.31-7.75,5.6-15.76,5.17-24.62-.67-1.34,24.85-18.26,36.42-38.04,46.25,4.86,2.92,8.74,5.95,13.12,7.75,11.35,4.68,19.95,12.72,27.58,21.86,13.33,15.95,14.63,34.03,7.23,52.7-6.1,15.38-16.67,27.72-32,34.15-13.44,5.63-28.02,6.66-42.25,2.06-13.71-4.43-24.73-12.65-33.2-24.53-8.38-11.76-19.2-20.32-34.08-22.43-1.42-.2-2.85-.55-4.26-.49-4.53.22-7.1,1.33-7.18,7.24-.29,21.7-3.14,43.22-14.04,62.38-9.23,16.22-20.7,30.83-39.87,36.67-1.37.42-3.26.57-3.2,2.93.19,7.49-2.25,14.37-5.09,21.16-.91,2.17.25,2.99,2.4,3.72,8.88,3,15.5,8.12,18.34,17.82,4.08,13.94-2.29,23.29-16.86,23.32-12.79.03-24.43-3.88-34.88-11.18-1.89-1.32-3.19-2.34-5.69-.94-11.01,6.16-22.65.16-27.14-11.07-5.52-13.81-9.66-28.19-12.75-42.77-.85-4.02-2.78-6.05-6.08-7.35-27.87-11-42.15-32.74-48.47-60.9-2.05-9.15-2.21-18.43-2.2-27.82-20.2,2.9-32.15,15.89-42.11,31.74-6.34,10.09-14.78,18.35-25.85,23.01-15.17,6.39-29.56,3.51-41.89-6.8-11.77-9.85-12.96-23.09-9.98-37.46,4.32-20.81,16.74-36.24,31.97-49.88,6.14-5.5,12.46-10.81,19.45-15.31,6.03-3.88,6.21-9.92.46-14.62-2.41-1.97-5.15-3.54-8.27-4.76-14.37-5.61-19.53-14.73-15.35-31.23,3.62-14.28,12.35-24.87,23.53-33.76,3.23-2.57,4.19-4.1-.05-6.9-4.59-3.03-6.51-12.77-4.08-18.33,2.05-4.7,5.95-7.15,11.19-6.84,5.3.31,7.53,4.98,11.15,8.2,2.15-3.93,2.03-8.69,5.23-12.2,5.54-6.07,13.73-7.04,20.25-1.93,6.45,5.06,6.97,11.47,1.52,18.74-.62.82-1.2,1.67-1.93,2.68,15.48,1.05,20.64,4.51,20.3,13.29-.32,8.42-5.42,11.3-20.38,11.28,1.59,3.41,3.9,6.51,3.01,10.47-1.2,5.35-4.1,9.25-9.48,10.74-6.83,1.89-11.84.39-15.4-5.7-2.91-4.97-5-4.98-8.09-.6-.61.86-1.64,1.4-2.42,2.15-7.1,6.81-6.79,12.51,1.22,17.94,4.6,3.12,9.89,5.33,14.12,8.84,8.75,7.27,14.78,16,12.69,28.42-1.22,7.25-5.67,12.29-10.54,17.04-7.5,7.3-16.57,12.64-24.74,19.1-10.44,8.26-18.52,18.48-23.49,31.04-1.7,4.3-1.66,8.41-.49,12.64,1.42,5.19,4.93,6.52,9.3,3.33,4.68-3.42,8.35-7.95,11.82-12.51,8.54-11.23,17.41-22.1,29.28-30.03,10.55-7.05,21.58-12.94,34.64-13.67,4.25-.24,6.61-1.6,7.24-6.8,2.52-20.89,9.27-40.43,19.98-58.66,5.26-8.95,11.68-16.76,19.28-23.72,2.34-2.14,4.65-4.31,7.35-6.81-4.2-1.42-8.11-1.66-11.3-3.76-1.52-1.01-4.16-1.68-3.33-4.23.76-2.34,3.13-2.09,5.1-1.82,3.92.54,7.85,1.08,11.73,1.85,3.33.66,3.88-.27,3.25-3.57-4.27-22.4,6.9-35.61,26.6-41.49,18.78-5.61,36.33,7.14,38.64,27.01.12,1.03.16,2.06.26,3.47,4.34-1.5,7.2-4.51,10.4-7.02,1.56-1.22,3.06-2.54,4.74-3.57,2.18-1.33,4.18-.66,5.74,1.21,1.72,2.08.48,3.56-1.09,5.05-3.11,2.97-7.13,4.89-10.02,8.82,3.32.75,6.66,1.07,9.65,2.26,28.87,11.48,45.97,32.44,50.89,63.28,1.79,11.22,2.88,22.48,2.86,33.83,0,3.65,1.71,4.19,4.69,3.98,9.79-.69,19.34.39,28.87,2.97,10.74,2.91,19.04,9.04,25.95,17.44,7.08,8.6,13.93,17.06,24.21,22.65,13.95,7.58,34.7,1.48,42.03-12.71,3.05-5.9,1.26-11.95-.62-17.82-2.73-8.48-9.32-13.52-16.54-17.76-10.38-6.1-20.46-12.56-30.05-19.89-10.83-8.28-14.2-26.57,1.11-34.89,7.42-4.03,15.28-7.16,22.48-11.6,7.51-4.63,13.49-16.87,12.31-25.57-.37-2.71-2.21-2.52-3.96-2.38-4.44.36-8.49-.33-12.29-2.92-4.9-3.33-7.49-9.19-5.75-13.94,1.85-5.06,9.69-9.2,15.14-8.05,1.71.36,3.28,1.71,5.7.59Z"/>
      <path d="M499.62,113.54c8.59-.21,13.99,7.05,11.95,15.4-.77,3.16-2.22,6.07-4.43,8.52-.79.87-1.76,1.26-2.86.52-1.09-.74-.18-1.56-.04-2.35.03-.17.11-.34.18-.51q4.58-12.53-4.79-21.57Z"/>
      <path d="M396.78,125.9c-7.53-.43-11.92-8.68-8.99-15.65,1.2-2.86,3.14-5.18,5.79-6.9,1.01-.66,1.98-2.14,3.17-1.06,1.37,1.24-.25,2.36-1,3.1-3.12,3.1-4.75,6.59-4.33,11.12.35,3.78,3.11,6.21,5.37,9.39Z"/>
      <path d="M130.12,128.4c.03,7.02-3.46,12.62-8.21,13.84-.88.23-1.8.54-2.53-.22-.77-.8-.51-1.75.26-2.32,6.95-5.19,9.28-11.19,3.46-18.73-.6-.78-.09-1.51.56-1.69.57-.15,1.52.05,1.9.47,2.42,2.61,5.28,5.06,4.55,8.64Z"/>
      <path d="M42.48,94.39c-8.75,1.87-12.47,6.73-12.06,14.68.04.87.12,1.82-1.12,2.02-.82.13-1.28-.32-1.75-.92-2.13-2.73-.78-9.51,2.81-13.92,2.72-3.34,7.62-4.38,12.12-1.86Z"/>
      <path class="cls-3" d="M193.95,389.48c-3.61-8.87-6.23-17.8-7.88-26.98-.77-4.29-2.6-6.86-6.96-8.47-32.61-12.06-45.98-37.82-49.24-70.42-.54-5.35-.35-10.84.11-16.21.37-4.3-1.27-5.28-5.17-5.17-19.98.56-34.82,10.31-46.41,25.81-4.53,6.06-8.3,12.73-13.2,18.45-9.32,10.89-20.76,17.4-35.75,13.53-15.73-4.05-23.46-17.56-20.51-33.57,4.09-22.19,16.74-38.68,33.51-52.62,5.54-4.61,11.36-8.88,17.1-13.25,7.58-5.77,8.55-12.9,2.82-20.59-3.8-5.11-8.97-8.14-14.74-10.5-10.24-4.19-12.69-9.58-10.26-20.53,3.43-15.41,13.6-25.84,25.29-35.28,4.28-3.45,4.04-6.56-.39-9.88-.86-.65-1.72-1.34-2.67-1.84-3.48-1.86-4.27-5.19-4.56-8.64-.23-2.77,1.04-4.83,3.74-5.95,2.86-1.18,3.8,1.09,5.13,2.7.23.28.42.59.67.85,2.46,2.51,4.36,6.23,8.71,5.3,3.94-.84,4.67-4.5,6.02-7.66,1.19-2.76,1.18-6.02,3.68-8.28,3.08-2.79,6.93-3.6,9.84-1.21,3.06,2.51.86,5.99-1.12,8.6-1.06,1.39-2.68,2.36-4.03,3.54-3.44,2.99-4.31,6.68-2.2,10.66,2.04,3.85,5.6,3.21,9,2.23,2.78-.8,5.55-1.7,8.47-1.45,2.61.22,6.06-.03,5.83,3.92-.2,3.4-2.49,5.63-6.05,5.71-2.5.06-5.02-.57-7.53-.62-3.04-.06-6.35-.23-7.94,3.17-1.45,3.1.36,5.5,2.18,7.82,3.8,4.84,2.3,9.14-3.58,10.9-3.54,1.05-5.56-.17-6.53-3.56-.81-2.82-.71-5.7-.63-8.59.06-2.14-.75-3.94-2.87-4.75-2.28-.86-3.79.33-4.91,2.21-2.51,4.22-7.36,5.66-10.67,8.97-4.36,4.38-8.49,8.68-9.64,15.21-1.04,5.89,1.22,10.04,5.32,13.8,5.25,4.82,11.93,7.38,17.65,11.48,6.64,4.76,10.23,10.88,9.88,19.25-.16,3.97-1.45,7.24-3.84,10.4-6.46,8.52-15.31,14.14-23.78,20.26-13.84,10.01-25.27,21.98-31.03,38.5-1.64,4.7-1.88,9.56-1.14,14.42,1.77,11.5,13.18,16.62,22.9,10.14,6.21-4.14,10.98-9.89,15.48-15.76,9.15-11.95,18.95-23.16,32.25-30.76,8.92-5.1,18.4-8.19,28.71-8.45,7.11-.18,9.56-2.44,10.07-9.44,1.79-24.66,10.21-47.02,23.77-67.51,5.01-7.56,11.6-13.74,18.54-19.55,5.89-4.93,12.3-7.48,20.23-7.27,13.79.38,26.58-4.24,39.06-9.59,2.74-1.17,5.32-1.76,8.31-1.56,30.02,2.02,57.09,27.51,61.1,57.48,1.84,13.78,2.67,27.63,3.01,41.5.1,4.01,1.43,5.32,5.41,5.21,8.64-.25,17.27-.66,25.92.56,14.77,2.08,26.27,8.92,34.56,21.52,7.61,11.58,18.48,19.28,31.8,22.87,14.32,3.86,27.27.04,37.95-9.92,9.44-8.8,10.82-20.88,4.86-32.79-3.79-7.58-9.11-13.7-16.31-18.34-9.54-6.14-19.62-11.47-28.54-18.55-1.83-1.46-3.68-2.92-5.36-4.54-6.48-6.2-6.07-14.4.88-19.97,6.29-5.04,13.91-7.63,21.05-10.95,14.84-6.9,19.13-23.31,18.9-36.7-.06-3.43-1.9-5.36-5.22-5.79-3.39-.44-6.8-.69-10.2-1.06-4.19-.46-7.04-3.75-6.14-7.2,1.14-4.35,4.42-4.06,7.78-3.34.87.19,1.73.52,2.55.89,3.33,1.5,7.11,2.52,9.13-1.17,1.95-3.58,2.69-7.87-1.21-11.3-2.33-2.05-3.23-4.68-2.64-7.8.65-3.49,3.01-4.9,6.21-4.69,2.96.19,4.26,2.19,4.34,5.18.14,5.37,1.35,10.34,5.75,14.01,2.61,2.18,4.91,2.42,7.51-.26,2.05-2.11,3.72-4.35,4.9-7.02,2.59-5.9,7.42-7.98,13.55-7.8,1.88.06,3.58.21,4.38,2.35.79,2.08-.2,3.61-1.56,4.79-2.03,1.77-4.22,3.38-6.47,4.86-3.31,2.18-6.31,4.64-5.41,9.06.86,4.19,4.27,5.99,8.1,7.05.35.1.73.06,1.07.18,3.06,1.02,7.21.22,8.1,4.87.9,4.71-1.6,8.03-4.78,10.83-3.04,2.68-6.66,2.34-10.16.8-3-1.31-5.61-3.19-7.81-5.67-1.74-1.96-4.21-3.41-6.66-2.74-3.15.86-1.71,3.99-1.65,6.09.56,17.02-6.87,29.4-21.48,37.74-3.75,2.14-7.51,4.28-11.26,6.43-5.97,3.41-6.46,10.91-.7,14.79,4.02,2.7,8.38,4.94,12.73,7.09,7.17,3.55,13.47,8.23,19.55,13.4,18.58,15.8,18.5,40.81,8.14,58.01-7.54,12.51-17.23,23-32.16,26.31-22.02,4.89-40.59-1.56-55.22-18.75-4.67-5.49-8.91-11.34-14.33-16.17-11.24-10.03-24.52-14.12-39.37-13.12-8.35.56-9,1.6-9.25,9.8-.66,21.89-2.34,43.63-13.06,63.41-6.78,12.5-15.08,23.75-28.3,30.34-3.6,1.79-7.45,2.69-11.36,3.35-3.81.65-5.71,2.81-5.47,6.72.63,10.2-1.62,19.69-7.18,28.31-1.37,2.13-.43,3.4,1.31,4.39,2.07,1.18,4.4,1.47,6.75,1.77,10.09,1.27,17.28,10.35,16.42,20.51-.28,3.3-1.66,5.08-5.19,5.73-11.98,2.19-22.38-1.22-32.06-8.06-2.88-2.03-3.07-3.6-.84-6.42,8.61-10.89,13.28-23.44,14.17-37.24.65-10.11-4.29-17.97-13.71-21.7-6.64-2.63-12.67-.6-17.74,4.36-1.9,1.86-3.19,4.42-6.93,1.88-2.19-1.49-5.74.11-5.59,3.62.2,5.02,3.44,9.79,0,15.07-2.74,4.2-4.16,9.13-5.64,14.04Z"/>
      <path class="cls-2" d="M196.02,135.92c-10.04.14-10.71-.51-11.15-10.27-.91-20.01,16.17-34.27,34.2-28.66,8.11,2.52,11.57,8.9,13.39,16.25,2.95,11.91,2.28,12.8-9.23,16.98-5.24,1.9-10.55,3.59-16.05,4.55-3.9.68-7.8,1.42-11.16,1.16Z"/>
      <path class="cls-3" d="M201.09,400c.71-13.14,6.01-25.66,13.7-37.14,2.52-3.76,6.55-7.43,11.82-5.84,5.24,1.58,8.33,5.67,8.47,11.33.42,17.94-5.76,33.15-19.64,44.72-5.96,4.97-12.64,2.05-13.95-5.62-.36-2.11-.25-4.31-.41-7.44Z"/>
      <path class="cls-1" d="M222.54,258.16c21.84-.32,38.21-9.69,48.17-29.49,4.06-8.07,7.57-16.32,8.53-25.44.34-3.21-.14-5.03-3.92-3.3-2.47,1.14-4.95.88-5.64-2.03-.69-2.91,2.42-2.82,4.02-3.26,6.61-1.82,12.81-.3,18.59,3.12,1.02.6,2.32,1.39,1.92,2.93-.45,1.75-2.04,1.45-3.12,1.1-2.63-.85-3.05.43-3.25,2.61-.94,10.21-5.02,19.41-9.5,28.45-16.1,32.52-61.78,44.42-90.89,23.17-11.55-8.43-21.71-18.54-24.34-33.73-.56-3.24-2.2-1.87-3.8-.87-1.69,1.06-3.47,3.5-5.35.54-1.65-2.59.68-3.87,2.38-5.16,5.68-4.31,12.05-6.31,19.2-5.58,1.17.12,2.8-.25,3,1.51.19,1.62-1.14,2.2-2.45,2.25-6.14.28-5.51,3.81-4.36,8.17,4.62,17.52,24.51,33.54,43.78,34.96,2.33.17,4.68.02,7.02.02Z"/>
      <path class="cls-1" d="M233.76,178.54c-.24-6.86,1.88-11.53,7.41-14.08,4.98-2.3,9-.07,9.7,5.32.66,5.12-.08,9.92-3.37,14.22-2.27,2.98-4.68,4.85-8.61,3.59-3.87-1.24-5.15-4.11-5.13-7.86,0-.72,0-1.43,0-1.19Z"/>
      <path class="cls-1" d="M210.27,164.09c4.02.11,6.12,3.41,6.06,9.51-.07,6.25-4.9,12.28-9.76,12.17-5.1-.11-7.69-3.65-7.49-10.24.19-6.37,5.31-11.6,11.19-11.44Z"/>
    </g>
  </g>
</svg>