<?xml version="1.0" encoding="UTF-8"?>
<svg id="Layer_1" data-name="Layer 1" xmlns="http://www.w3.org/2000/svg" viewBox="0 0 512 512">
  <defs>
    <style>
      .cls-1 {
        fill: #1c1c1c;
      }

      .cls-2 {
        fill: #ee7b0c;
      }

      .cls-3 {
        fill: #fefefe;
      }

      .cls-4 {
        fill: #0d8f42;
      }
    </style>
  </defs>
  <g id="GRT1Kp">
    <g>
      <path class="cls-1" d="M69.63,359.39c-2.52.5-4.11,2.48-6.11,3.78-2.32,1.5-4.51,3.26-6.96,4.5-5.3,2.69-10.52,2.15-15-1.7-4.46-3.83-4.28-8.91-2.3-13.85,1.33-3.33,4.92-6.5,4.67-9.5-.24-2.79-5.66-2.75-8.23-5.01-4.73-4.18-3.5-13.07,2.62-18.28,2.82-2.4,6.2-3.76,9.69-4.83,6.1-1.87,6.25-1.91,2.8-7.57-3.71-6.1-2.93-11.9.75-17.54,3.83-5.88,9.84-7.79,16.28-5.03,7.08,3.03,12.19,8.3,16.22,14.82.96,1.55-.06,5.63,3.54,4.28,2.96-1.1,6.11-3.06,5.54-7.22-.61-4.45-1.36-8.89-2.11-13.32-3.54-20.92-1-41.44,4.53-61.65,1.03-3.76.13-4.74-3.13-5.65-8.81-2.46-13.5-8.55-14.78-17.48-1.89-13.2,1.31-25.14,9.26-35.69,8.13-10.78,25.05-13.34,36.33-5.58,1.79,1.23,2.69,1.08,3.74-.41,20.88-29.8,50.18-47.75,83.82-59.61.14-.05.21-.26.62-.8-6.18-2.2-12.24-4.31-18.27-6.5-3.31-1.2-6.55-2.66-7.26-6.63-.32-1.79-.98-3.89.86-5.32,1.84-1.44,3.78-.54,5.29.54,8.26,5.85,18.03,7.66,27.4,10.61,3.98,1.25,6.1.84,6.26-3.98.62-18.7,1.37-37.39,2.18-56.08.34-7.77.88-15.53.36-23.32-.19-2.89,1.23-4.57,4.16-4.86,1.88-.19,3.78-.53,5.66-.46,25.3.93,50.59.36,75.89.05,2.08-.02,4.17-.17,6.24-.02,6.75.5,7.6,2.39,6.52,8.96-1.23,7.48-1.51,15.13-2.02,22.72-1.14,16.77-2.7,33.53-3.05,50.32-.21,10.23-1.31,8.97,9.47,8.14,4.51-.34,8.7-2.22,12.8-4.09,4.23-1.94,7.31-.27,8.88,3.53,1.75,4.25-.98,6.32-4.79,7.49-3.25,1-6.84.83-10.46,3.05,10.99,5.19,21.31,10.56,31.11,16.91,18.2,11.8,34.14,26.05,47.22,43.37,2.19,2.9,3.55,2.99,6.46.93,12.56-8.94,23.72-9.49,35.09-1.53,7.23,5.06,11.77,12.34,13.02,21.07,1.71,12.03,1.24,23.64-9.65,32.05-4.53,3.49-9.5,5.7-15.22,5.87-2.42.07-3.1.88-2.34,3.14.33.97.36,2.04.59,3.05.77,3.37.8,7.21,2.55,9.96,2.08,3.26,5.98.04,9.04.68,2.03.42,4.16.37,6.15.89,9.72,2.5,16.86,9.74,17.59,17.66.83,9.03-5.72,19.24-15.8,23.5-3.72,1.57-5.5,3.31-6.39,7.47-2.53,11.82-8.56,15.82-20.7,14.49-2.76-.3-2.8,1.61-3.32,3.02-2.49,6.81-4.53,13.8-7.24,20.52-7.46,18.44-19.97,33.52-33.12,48.04-22.01,24.3-49.26,39.92-80.99,47.84-2.33.58-4.74,1-7.2.42-1.16-.27-2.75-.49-3.44.51-.91,1.33.34,2.63,1.13,3.68,1.56,2.06,3.08,4.25,5.03,5.9,6.96,5.9,13.02,13,21.66,16.72,2.5,1.08,2.33,3.12,1.95,5.25-.59,3.35-2.28,6.21-4.45,8.68-13.72,15.63-27.61,31.13-43.5,44.64-8.86,7.53-18.71,9.37-29.41,4-7.49-3.76-9.35-7.74-6.47-15.56,5.19-14.12,14.9-24.76,26.82-33.57q7.46-5.51.67-11.35c-4.59-3.97-9.24-7.95-12.84-12.85-2.56-3.49-3.87-2.48-5.85.4-11.11,16.12-21.47,32.69-30.55,50.04-.64,1.23-1.33,2.43-1.98,3.65-4.21,7.86-6.65,8.4-13.15,2.12-11.58-11.21-23.1-22.51-34.32-34.08-3.18-3.28-5.45-7.61-6.65-12.16-2.21-8.34.04-15.5,6.77-20.91,6.56-5.28,13.71-3.9,20.56-.71,7.18,3.35,12.77,8.93,18.1,14.61,2.56,2.73,3.85,2.27,5.55-.6,2.11-3.57,4.34-7.09,6.78-10.45,1.86-2.57,1.91-3.71-1.56-4.75-14.58-4.36-28.7-9.87-42.48-16.4-25.9-12.27-47.15-29.96-63.88-53.14-2.32-3.22-4.21-6.76-6.46-10.03-1.13-1.64-2.33-3.88-4.93-2.57-2.51,1.26-1,3.33-.55,5.02,2.27,8.42,1.44,16.5-2.9,24.06-3.62,6.31-9.07,10.14-16.55,9.72-7.53-.43-12.31-4.99-15.09-11.74-1.09-2.66-1.83-5.46-2.75-8.26Z"/>
      <path class="cls-2" d="M421.63,304.16c-3.38,15-10.62,27.6-19.07,39.77-16.63,23.92-36.91,43.69-63.59,55.96-11.86,5.46-23.96,10.71-37.47,11.29-4.06.17-8.03,1.94-12.08,2.77-3.09.63-2.31,2.57-1.54,4.27,1.88,4.12,4.31,7.93,7.54,11.13,6.52,6.46,13.06,12.95,20.66,18.15,3.4,2.33,3.76,4.77,1.47,7.75-3.06,3.98-6.18,7.93-9.57,11.62-9.51,10.34-19.48,20.23-29.96,29.59-3.52,3.14-7.28,5.93-12.03,6.84-3.45.66-6.55-.38-9.05-2.82-2.58-2.51-.26-4.89.67-7.04,6.66-15.46,18.16-26.28,33.14-33.5,5.19-2.5,5.87-5.03,1.29-8.63-5.3-4.17-10.82-8.06-15.78-12.66-4.85-4.5-9.3-9.29-12.7-15.02-2.32-3.92-5.49-4.47-9.06-1.76-1.95,1.48-3.4,3.43-4.67,5.52-10.5,17.29-23.09,33.29-31.77,51.68-1.97,4.17-3.7,3.82-6.68.92-8.8-8.6-17.86-16.93-26.75-25.44-4.18-4-6.58-8.91-6.45-14.8.15-6.94,6.5-11.64,12.9-8.97,9.49,3.95,17.35,10.15,21.26,20.05,1.26,3.2,3.38,5.05,6.29,5.42,2.89.37,3.67-2.63,4.75-4.76,4.15-8.2,8.87-16.05,14.44-23.39,1.67-2.2,5.31-4.3,3.63-7.34-2.09-3.77-5.64-6.66-10.49-6.64-4.4.02-8.64-.92-12.72-2.33-6.21-2.14-12.25-4.73-18.41-7.02-25.47-9.48-47.5-24.16-65.29-44.65-20.5-23.62-32.4-50.91-35.42-82.44-2.59-27.09,3.87-52.09,13.45-76.8,4.01-10.33,7.95-20.66,14.71-29.66,1.87-2.49,3.44-3.42,6.8-3.09,10.85,1.07,21.79.11,32.69,1.33,8.18.91,8.29.54,8.54,8.48.54,17.28,14.95,32.02,32.55,33.25,3.11.22,6.27.56,9.34.23,4.07-.44,4.24,1.06,3.27,4.4-1.99,6.83-2.86,13.85-2.54,21,.46,10.48,4.73,19.03,14.05,23.9,15.02,7.84,30.74,8.26,46.64,2.35,11.75-4.37,16.75-13.48,18.58-25.27,1.04-6.71.5-13.49,1.62-20.17.37-2.21.69-3.13,3.55-2.73,24.6,3.43,44.34-8.23,53.22-31.6,1.68-4.42,3.53-6.25,8.57-6.8,14.82-1.62,29.6-2.98,44.52-2.86,3.85.03,6.11,1.24,7.65,4.62,7.01,15.42,14.04,30.83,17.79,47.46.56,2.49.48,5.19.29,7.76-.32,4.3,1.51,7.84,3.83,11.04,2.4,3.3,5.21,4.48,9.15,1.22,8.08-6.68,20.38-3.1,22.65,6.26,1.64,6.78-6.28,18.53-13.13,19.51-2.25.32-3.52-1.09-4.8-2.51-3.21-3.57-7.63-4.62-12-5.63-1.85-.43-4.02-.34-4.54,2.18-.51,2.45,1.26,3.29,3.21,3.89,10.91,3.37,13.39,13.33,5.41,21.68-2.44,2.55-4.87,2.79-7.72.46-4.13-3.37-7.82-6.7-6.25-12.91.59-2.31-.35-4.76-.77-7.16-.77-4.39-3.7-4.5-6.97-4.06-4.04.54-1.69,3.36-1.62,5.24.23,5.88.79,11.78-1.13,17.51-.83,2.47-1.95,4.82-3.93,6.64-2.25,2.07-4.72,3.89-7.89,2.58-2.96-1.22-2.72-4.17-2.71-6.75.03-9.17-.27-18.41,5.83-26.28,1.41-1.83,2.32-4.13-.37-5.83-2.51-1.58-5.29-2.5-7.41.36-2.31,3.12-4.93,5.8-8.22,7.81-3.47,2.12-7.41,3.4-10.49.22-2.98-3.07-1.93-7.14.04-10.61,3.74-6.58,13.81-9.67,22.13-6.92,1.48.49,2.91,1.12,4.39,1.61,3.69,1.23,5.95-.66,5.06-3.96-2.37-8.82-3.29-18.01-6.64-26.58-.65-1.65-1.33-2.87-3.54-3.13-3.95-.46-5.72.87-4.74,4.79,1.04,4.18,2.46,8.27,3.64,12.42,1.72,6.07,1.09,7-5.15,6.73-6.83-.29-12.96,1.41-18.51,5.42-6.79,4.9-9.58,12.95-6.79,19.99,2.45,6.16,11.14,11.05,18.5,9.6,3.77-.74,4.2.46,3.96,3.49-.39,4.81-1.05,9.57-.16,14.47,1.86,10.18,10.63,14.64,19.71,9.74,1.46-.79,2.7-2.25,5.22-1.85Z"/>
      <path class="cls-2" d="M407.24,164.13c-16.19,1.36-31.04,3.47-46.08,3.38-2.03-.01-3.46-.05-3.86-2.83-1.18-8.19-5.73-14.39-12.69-18.68-12.36-7.63-25.36-11.68-39.9-6.62-8.9,3.1-14.67,9.68-19.28,17.34-2.71,4.5-5.11,7.06-11.22,5.84-5.99-1.19-12.41-.28-18.64-.17-1.64.03-2.88.22-3.54-1.88-4.52-14.38-16.61-18.4-29.49-21.07-18.29-3.79-32.65,2-42.56,18.08-.95,1.54-1.97,2.64-4.04,2.71-11.6.43-23.19.56-34.78-.18-1.35-.09-2.75-.27-3.94-1.38,1.47-4.19,4.56-7.25,7.62-10.26,19.91-19.57,42.56-34.69,69.6-42.69,3.98-1.18,8.34-1.32,12.01-2.87,11.04-4.65,21.75.73,32.62.24,11.24-.51,22.52-.12,33.79-.12,8.13,0,16.42-1.21,24.34.73,17.71,4.34,34.34,11.42,49.34,21.95,13.08,9.18,25.32,19.32,35.46,31.79,1.51,1.85,2.95,3.76,5.24,6.69Z"/>
      <path class="cls-4" d="M276.02,8.7c9.49,1,18.99.88,28.48.07,1.38-.12,2.75-.4,4.12-.41,6.38-.07,7.39.73,7.15,6.95-.97,24.66-1.75,49.34-5.18,73.83-.32,2.28-1.19,3.3-3.57,3.48-21.95,1.64-43.9,1.43-65.85-.12-1.88-.13-3.72-.75-5.58-1.14-.67-8.62-.79-17.24.04-25.85,2.29-10.47.17-21.2,1.92-31.76,1-5.99-.43-12.18-.08-18.35.27-4.92,1.49-6.92,6.38-6.15,10.71-1.03,21.45-.02,32.17-.54Z"/>
      <path class="cls-2" d="M256.58,258.22c-2.94-.16-5.91-.07-8.81-.5-19.18-2.9-22.06-17.3-19.89-30.9,1.05-6.61,3.2-13.05,4.84-19.57.65-2.6,2.8-3.97,4.74-5.31,7.54-5.21,11.65-12.47,13.78-21.22,2.3-9.49,3.14-10.03,12.73-10.92,1.03-.09,2.08-.09,3.12-.04,10.36.46,11.16,1.3,11.21,11.41.04,8.33,1.89,16.08,7.31,22.71,2.41,2.95,3.1,6.52,3.08,10.21-.03,6.92.09,13.81-.81,20.74-1.85,14.29-10.14,22.44-24.53,23.16-2.25.11-4.51.02-6.76.02,0,.07,0,.15,0,.22Z"/>
      <path class="cls-3" d="M310.97,207.5c-18.77,1.16-26.43-19-22.99-31.66.77-2.81,1.68-5.59,2.65-8.35,4.17-11.96,12.62-18.09,25.1-20.45,5.07-.96,9.41-.62,13.95.62,14.8,4.06,20.27,13.13,17.44,28.16-3.02,16-12.93,25.66-27.97,30.54-2.57.84-5.44.78-8.17,1.14Z"/>
      <path class="cls-3" d="M218.74,147.76c2.25,0,4.51-.13,6.75.02,11.15.75,17,7.25,17.53,18.43.96,20.17-10.74,32.72-26.26,36.62-19.32,4.86-37.17-14.32-31.54-33.46,4.07-13.84,12.91-20.86,27.29-21.6,2.07-.11,4.16-.01,6.23-.01Z"/>
      <path class="cls-2" d="M79.63,356.08c-.28-5.73,1.63-10.64,2.67-15.68.61-2.98.75-5.84-2.79-6.61-3.14-.68-6.09-.28-7.27,3.81-2.96,10.31-10.06,17.1-19.44,21.74-1.28.63-2.65,2.12-4.22.88-1.75-1.39-1.48-3.45-.92-5.29,1.13-3.72,3.31-6.81,6.19-9.42,4.12-3.73,8.57-7.01,13.43-9.69,2.21-1.22,3.65-2.84,2.8-5.41-.86-2.6-3.16-2.86-5.55-2.74-3.42.17-6.16,2.17-9.14,3.46-2.87,1.25-5.75,2.41-8.9,2.26-3.6-.17-5.03-1.71-3.1-5.38,3.01-5.72,12.46-9.18,19.58-6.87,1.8.58,3.48,1.55,5.28,2.13,2.68.87,4.94.16,5.86-2.64.84-2.58-.48-4.49-2.94-5.24-5.31-1.62-8.79-5.27-11.63-9.77-2.01-3.18-2.16-6.44-.73-9.87,2.04-4.89,6.61-6.19,10.27-2.38,5.25,5.48,10.49,11.09,9.05,19.86-.43,2.61,1.73,4.25,4.11,5.38,2.62,1.24,3.8-.26,5.02-2.11.57-.86,1.28-1.63,2.01-2.37,5.43-5.53,6.55-5.31,9.41,1.61,1.45,3.51,2.77,7.11,4.6,10.42,2.17,3.91.65,6.13-2.72,7.94-2.88,1.55-5.89,2.94-8.57,4.8-2.47,1.71-2.82,3.91.17,5.7,2.59,1.56,6.05,1.51,6.57,6.08.6,5.26.12,9.96-2.58,14.41-.8,1.32-1.84,2.53-2.94,3.61-4.02,3.93-7.53,3.54-10.66-1.22-2.35-3.58-3.33-7.56-2.95-11.4Z"/>
      <path class="cls-2" d="M461.49,188.16c-.69,7.49-2.07,14.56-8.6,19.64-6.04,4.71-13.99,3.42-16.16-4.72-2.27-8.5-6.75-16.19-10.42-24.15-1.73-3.75-1.08-6.58,1.38-9.44,7.98-9.29,22.81-8.08,29.06,2.39,2.98,4.99,4.2,10.51,4.74,16.28Z"/>
      <path class="cls-2" d="M111.7,161.08c1.79.24,5.26-.9,7.08,2.08,1.8,2.95-.23,5.69-1.8,8.14-6.22,9.65-10.47,20.22-14.53,30.88-1.27,3.32-3.19,5.24-6.91,4.81-3.85-.44-6.83-2.51-7.33-6.25-1.25-9.32-1.35-18.68,3.15-27.35,4.02-7.75,10.02-12.71,20.35-12.31Z"/>
      <path class="cls-4" d="M276.02,8.7c-10.7,1.36-21.44.34-32.16.54,4.26-1.96,8.76-.83,13.13-.92,6.34-.12,12.69.23,19.03.37Z"/>
      <path class="cls-4" d="M235.64,65.5c-.01,8.62-.03,17.24-.04,25.85-1.61-8.62-1.59-17.24.04-25.85Z"/>
      <path class="cls-1" d="M167.91,263.74c-.36-3.52.67-7.41,1.14-11.36.34-2.83,2.3-3.97,4.77-3.49,2.32.45,5.23,1.35,4.62,4.56-4.13,21.71,6.66,39.25,15.56,57.43,6.8,13.9,18.64,21.43,32.24,27.07,35.64,14.78,69.88.43,91.59-23.86,4.49-5.02,8.4-10.57,12.57-15.88,3.47-4.41,6.29-9.15,7.01-14.85.45-3.52,2.69-4.85,5.81-4.4,3.21.46,5.52,2.22,4.97,5.99-.2,1.35-.43,2.79-1.06,3.97-11.66,21.96-26.19,41.36-49.27,52.49-12.98,6.26-26.36,11.85-41.23,11.06-21.22-1.13-41.05-6.55-57.55-20.78-12.63-10.9-19.15-25.68-24.8-40.84-3.19-8.57-6.72-17.14-6.38-27.1Z"/>
      <path class="cls-1" d="M330.65,162.68c-.11,7.22-9.92,16.91-17.12,16.91-6.6,0-13.08-6.42-13.08-12.97,0-8.16,8.99-16.69,17.56-16.66,7.69.03,12.76,5.14,12.65,12.72Z"/>
      <path class="cls-1" d="M216.92,150.62c8.68.15,13.9,4.74,13.74,12.08-.19,8.67-7.39,16.59-14.88,16.36-7.27-.22-13.28-6.24-13.29-13.32-.02-8.5,6.44-15.26,14.44-15.12Z"/>
    </g>
  </g>
</svg>