<?xml version="1.0" encoding="UTF-8"?>
<svg id="Layer_1" data-name="Layer 1" xmlns="http://www.w3.org/2000/svg" viewBox="0 0 512 512">
  <defs>
    <style>
      .cls-1 {
        fill: #fff;
      }

      .cls-1, .cls-2, .cls-3, .cls-4, .cls-5 {
        fill-rule: evenodd;
      }

      .cls-3 {
        stroke: #804c3b;
        stroke-miterlimit: 10;
        stroke-width: 1.04px;
      }

      .cls-3, .cls-6 {
        fill: #804c3b;
      }

      .cls-4 {
        fill: #e31d93;
      }

      .cls-5 {
        fill: #00a7e1;
      }
    </style>
  </defs>
  <path class="cls-2" d="M242.6,75.1c1.73,1.19,3.36.43,5.96.98,3.47.76,7.26,3.69,9.54,3.58,2.06-.11,6.72-4.66,8.24-6.61,2.71-3.47,4.23-7.59,6.94-10.84,6.61-8.24,15.61-15.61,30.67-14.85,12.79.65,16.58,10.41,24.71,17.13,16.91.43,21.24-15.82,39.24-15.17,4.88.22,9.86,1.52,13.22,4.34,1.19.98,3.58,6.29,6.29,6.61,2.28.33,3.47-2.17,5.64-1.95,4.01.33,4.12,4.77,4.66,11.92.22,3.47,1.52,5.96,1.3,9.21-.22,3.47-4.44,8.02-6.94,8.24-4.77.33-8.78-.87-11.49-2.6-5.09-3.14-8.45-10.95-14.85-9.21-3.79.98-7.05,5.42-10.51,7.91-1.73,1.19-3.47,2.49-5.64,3.58-5.64,2.93-12.03,4.66-20.81,2.93-4.34-.87-5.64-1.95-8.56-4.01-1.19-.87-2.71-1.3-3.58-1.95-6.61-4.99-12.68-16.47-21.14-8.56-2.6,2.38-3.47,6.39-5.96,9.21,22.65-5.42,25.8,20.05,48.12,17.78,4.66-.43,6.61-3.47,10.84-4.34,3.9-.76,8.67.11,10.84,1.95,1.84,1.52,3.58,8.24,6.61,8.89,3.25.65,6.61-2.82,9.86-3.9,7.7-2.6,13.22.11,17.45,5.31,1.41.33,4.01-.33,3.25,1.3-1.52,3.79-4.55.43-5.64-.33-1.84-1.41-4.01-3.47-6.61-4.01-7.59-1.3-12.46,6.29-18.75,4.99-6.29-1.3-4.66-13.33-15.5-10.84-3.58.76-7.7,3.79-11.49,4.34-20.05,2.38-26.45-18.75-43.25-18.43-5.31.11-10.19,4.12-12.57,7.26,10.08,2.6,21.03,4.88,31,8.89,6.94,2.82,14.09,5.74,20.81,8.89,7.7,3.58,15.39,9.54,21.46,15.5,7.7,7.48,13.11,13.66,17.78,24.06,3.14,6.94,5.42,12.9,2.93,22.11-.43,1.73-2.06,4.99-3.25,6.94-3.58,5.74-10.41,12.46-17.13,16.47-6.07,3.69-13.87,4.01-23.41,4.99,2.06,7.59,6.83,14.42,9.54,22.44,5.09,15.17,5.85,32.41,6.94,50.4,4.77-1.08,9.75-2.06,13.22-4.66-1.95-6.29-9.32-13.44-8.56-22.76.33-4.34,3.25-9.97,6.29-12.57,2.93-2.49,8.45-4.77,12.57-1.95,3.25,2.28,5.2,7.7,7.59,10.84,5.31-3.03,10.08-7.8,17.78-6.94,11.38,1.3,10.84,16.37,6.61,25.36,6.18,3.25,11.49,8.45,9.54,15.5-1.84,6.83-9.97,10.08-15.17,13.87,2.38,5.74,5.09,12.25,2.28,18.1-1.73,3.79-11.16,8.78-15.82,9.54-10.3,1.84-13.55-8.78-15.5-17.78-8.56,2.17-18.86,5.85-25.36,9.86-2.93,1.73-3.25,2.38-4.34,6.29-1.08,4.44-2.17,8.45-2.6,13.87-2.6,4.55-4.77,9.54-5.31,16.15-5.53,6.94-7.8,15.93-12.57,23.41-4.66,7.48-9.65,14.31-15.5,20.49,8.45,5.2,17.78,6.61,28.07,9.21,3.69.87,7.59.43,11.49.98,1.3.22,2.82,1.08,4.34,1.3,9.21,1.41,21.03,1.08,30.02,0,6.94-.87,13.87-4.34,15.5,3.58.33,1.84-.22,3.9-.33,5.96-.54,11.38.11,22.33-1.3,33.93-.43,3.25-1.41,6.83-2.28,10.19-.98,3.79-1.08,7.7-1.95,10.51-.43,1.3-1.73,2.82-2.28,4.34-1.84,4.66-1.3,6.18-4.66,10.19-2.93,3.58-7.48,8.78-13.87,8.56-2.6-.11-4.66-1.84-7.26-4.01-8.24-14.63-4.55-35.88-4.34-54.74-2.06-2.6-5.85-2.28-8.89-2.6-15.72-2.06-34.03-4.99-49.42-7.91-6.39-1.19-12.25-3.69-17.78-4.99-4.44-.98-7.26.87-10.84,2.28-6.83,2.82-15.72,4.88-22.76,6.29-6.18,1.19-13.22,1.52-19.84,1.95-19.4,1.41-40.32,0-58.42-5.31-12.57-3.69-22.11-7.37-32.3-13.87-9.32-5.96-17.88-12.36-25.69-20.16-11.81,3.03-20.59,8.67-32.3,12.9-7.37,2.71-13.98,6.29-20.81,9.54-6.5,3.14-12.9,6.5-19.4,10.84-3.79,2.49-14.42,10.08-20.49,9.86-11.16-.33-13.44-18.64-15.17-29.7-.87-5.31-.87-11.16-.98-17.13-.22-16.69-2.82-36.74,5.31-48.45,3.9-1.41,5.2-6.39,9.21-6.94,8.56-1.08,11.6,9.1,13.55,15.82,3.69,12.57,4.66,29.7,5.64,40.86,19.62-4.66,38.37-13.01,57.99-18.75.11-3.47-.65-7.15-1.63-10.51-1.73-5.74-4.34-11.71-5.64-17.78-.54-2.71-.33-6.18-.65-9.54-1.73-15.07.43-37.29,4.99-54.41-2.38-2.17-4.44-4.55-8.56-4.99-1.84,1.73-1.63,5.09-2.28,7.26-2.17,6.72-8.78,16.69-14.2,20.16-3.9,2.38-11.16,1.73-14.52-1.63-4.34-4.34-4.12-12.46-2.28-19.51-10.84.33-19.29-9.43-14.2-20.49,2.82-6.07,10.73-9.32,16.47-11.16-2.17-4.77-7.37-7.26-7.59-13.22-.43-10.62,18.43-12.25,27.53-7.37,2.49-6.94,8.35-15.82,16.8-13.87,12.9,2.93,11.16,23.74,4.66,33.28,1.63,2.38,5.53,2.71,7.91,4.34,9.97-21.24,23.41-39.02,39.89-53.76-10.08-4.23-18.21-9.32-18.75-23.09-.98-22.54,18.43-37.18,32.62-47.47,10.08-7.37,24.71-13.87,35.98-18.75-3.47-1.95-7.48-1.41-10.84-2.6-7.91-2.71-14.42-6.83-20.49-11.49-5.64-6.29-11.92-14.74-8.89-26.66,4.23-2.38,9.75-4.77,13.22-8.24,1.73-1.73,2.71-4.55,5.96-4.34,4.77.43,3.79,5.85,4.66,10.51,1.08,6.61,5.53,15.72,10.19,20.16,4.55,4.23,8.02,4.99,14.52,7.26-.11-2.6-2.71-3.9-4.01-5.96-4.88-7.7-10.08-18.86-7.59-32.62,2.28-12.57,11.27-19.4,19.4-26.01,5.09-.22,8.67-3.25,13.22-3.25,4.01,0,12.79,3.03,15.17,5.31.65.65,1.52,2.49,2.6,4.01,4.34,5.74,8.45,13.44,8.56,23.74.11,6.72-1.3,13.98-1.95,21.03ZM232.95,77.48c4.12-17.13,6.18-42.38-9.54-48.12-4.12-.22-9,.54-12.25,1.95-11.71,5.42-22.22,23.41-15.17,40.21.22.54,1.19.87,1.63,1.63s.22,1.95.65,2.6c2.06,3.47,6.83,9.1,9.21,10.84,2.71,1.95,9,5.53,12.9,3.25-.22-5.64-5.42-8.24-8.89-11.49-7.15-6.72-10.95-17.67-5.64-29.7,3.36-2.49,6.83-5.09,13.55-4.34,3.58,2.38,6.83,4.55,8.56,8.24,3.79,7.91-1.08,18.53,0,28.07,2.17-.54,3.36-2.06,4.99-3.14ZM218.86,75.42c.76-6.61,4.66-17.88,0-22.76-12.14,1.3-7.05,21.35,0,22.76ZM380.03,64.58c-4.55-3.58-5.74-8.56-14.2-7.59-7.15.76-12.36,7.48-18.75,11.49-7.7,4.88-19.62,5.64-27.42-.98-4.99-4.23-6.72-11.06-13.22-12.57-10.95-2.49-19.18,4.23-24.06,9.86-2.93,3.36-4.55,8.24-7.91,12.25-4.01,4.66-12.9,8.78-9.21,14.52,3.9-.98,7.15-2.49,10.19-4.99,6.72-5.31,9.65-16.04,16.8-19.51,8.24-3.9,20.27-1.19,23.09,6.29,6.18,4.12,11.49,10.3,21.14,9.86,4.44-1.3,7.7-3.25,11.16-5.96,4.66-3.58,9.43-9.21,15.5-10.19,13.01-2.28,13.11,9.97,24.71,11.16,2.6-1.84.76-5.96.33-9.21-2.38-1.41-5.2-2.17-8.13-4.44ZM164.01,85.39c6.94,6.39,19.73,10.95,30.35,10.19-15.72-4.44-23.95-16.47-29.26-31.32-13.55,2.17-7.26,15.39-1.08,21.14ZM235.66,86.04c-3.79,3.69-7.8,9.65-4.99,14.52,2.28,3.69,8.56,5.53,13.55,4.66,5.53-.98,12.36-9,11.92-14.2-.22-1.95-2.49-5.31-4.99-6.29-3.9-1.52-7.26.98-12.25-.65-.22,0-.43,0-.33.33-.98.54-2.06.98-2.93,1.63ZM220.81,109.46c-26.88,11.71-53.54,28.94-72.51,48.45-5.64,5.74-10.84,13.66-13.22,21.79,12.14-.33,22.44-4.99,31.32-9.86,18.32-9.97,32.41-22.11,45.85-36.64,6.61-7.15,12.9-15.07,16.8-24.39-2.82-2.38-5.74-.43-8.24.65ZM357.6,185.98c1.63-2.82,5.85-4.66,5.96-8.24,0-1.95-3.14-6.18-4.99-8.89-10.19-15.07-21.89-24.6-36.64-33.93-9.43-5.96-17.23-11.81-27.75-16.8-9.86-4.66-22.98-9.1-35.98-7.59,18.86,39.45,50.08,66.55,99.39,75.44ZM249.86,112.06c2.17,2.38,1.41,4.88,1.63,7.91.33,3.9,1.95,6.39,2.93,9.54,2.28,6.83,3.58,11.16,6.61,17.13,1.73,3.36,3.9,6.83,5.96,9.86,4.01,6.07,8.67,13.33,13.87,17.45,1.84,1.52,4.88,2.71,7.26,4.34,9,5.96,21.35,13.44,33.6,15.82,12.9,2.49,24.82.98,31.65-5.31-48.45-11.06-80.32-38.59-99.61-78.8-1.73.33-2.82,1.19-3.9,2.06ZM232.95,111.73c-2.28,3.47-5.53,6.07-6.94,10.51-9.86,12.46-21.03,25.15-34.25,35.33-15.28,11.6-32.3,23.41-55.06,25.36,2.93,4.44,12.46,5.42,19.08,5.64,22.76.65,41.51-14.85,52.78-26.99,6.61-7.15,13.01-14.2,18.43-21.79,5.64-7.91,11.49-16.37,13.55-26.66-2.38-.54-5.42-.54-7.59-1.41ZM360.96,280.6c-3.9,1.19-9,2.06-11.92,4.01-1.41.98-2.06,2.93-3.25,3.58-4.44,2.6-9.65-.65-10.19-4.34-.76-4.55,3.14-7.7,3.58-11.92,1.08-10.19-.87-22.87-3.25-34.25-2.82-13.01-7.05-24.71-12.57-32.62-.87-1.3-1.52-2.71-2.6-3.58-19.18-4.44-35.33-14.42-49.42-25.04-11.38-12.68-20.16-28.07-26.34-45.85-1.52-.22-1.08.65-1.3.98-5.53,7.59-10.19,15.07-15.5,22.11-5.2,6.83-11.71,13.55-18.43,19.51-12.9,11.16-30.24,22.22-52.46,22.76-2.06,0-4.34-.87-6.61-.33-2.82.65-6.83,4.55-9.54,6.94-9.21,7.7-16.47,18.21-22.76,27.42-4.55,6.72-8.67,13.87-11.49,21.79-5.31,14.52-12.03,29.26-13.22,47.47-.54,7.91-1.84,15.93-1.3,23.74.76,11.92,3.69,23.74,7.26,33.6,1.3,3.69,3.14,7.48,3.25,10.51,0,.98-.65,4.77-.98,5.31-1.41,2.38-4.88,1.52-9.21,2.28-2.82.54-5.85,2.17-9.21,3.25-9.65,3.14-17.88,5.53-26.66,8.56-7.91,2.71-17.56,4.99-22.76,9.54.22,4.12,5.09,12.03,8.89,12.25,1.73.11,6.18-3.03,8.24-4.01,8.67-4.01,17.56-7.91,25.36-11.16,13.01-5.53,23.3-10.51,34.58-14.52,3.69,1.84,6.18,4.88,7.59,8.89,11.16,10.62,24.93,18.86,41.51,24.39,16.37,5.53,35.44,9.75,55.39,8.24,8.45-.65,17.23-1.63,25.69-2.93,8.89-1.41,16.8-4.12,23.09-6.29,1.84-.65,3.9-.87,5.64-1.63,1.63-.76,2.82-2.17,4.66-2.28,3.79-.33,7.05,2.93,10.19,4.01,13.87,4.55,35.33,7.05,53.76,9.86,10.19,1.52,25.15,5.64,21.79-7.91-9-.87-17.02-1.84-25.69-3.58-2.06-.43-3.9-1.52-5.96-1.95-4.34-1.08-9-1.19-13.22-2.28-4.66-1.19-9-3.47-13.22-4.34-2.38-.43-3.9.11-5.64-.65-1.95-.87-5.31-4.55-5.31-6.61.11-3.14,5.53-5.74,7.59-7.59,7.48-6.72,12.03-14.85,17.13-25.69,2.06-4.55,5.64-9.21,7.26-14.2.87-2.71,1.41-5.64,2.28-8.24.87-2.71,2.71-5.2,3.25-7.59,2.06-7.8,1.95-14.09,2.93-22.76,2.6-3.03,5.53-1.95,9.21-2.93,1.95-.54,4.23-1.84,6.61-2.6,2.28-.76,4.44-1.73,6.61-2.6,4.77-1.95,9.75-3.25,13.55-4.99,1.84-.76,3.25-2.17,4.99-2.28,11.92-.76,2.71,15.5,9.86,20.16,7.05-.33,14.09-6.61,10.51-14.2-1.84-4.01-8.78-3.58-7.91-8.89.54-3.03,4.34-3.36,7.26-2.93,5.74-3.25,14.85-5.96,12.9-14.85-5.74-5.42-12.25,6.94-18.43,4.34-2.06-.87-2.71-3.58-3.25-6.61,7.91-4.34,18.43-11.06,14.85-23.74-7.15,1.3-11.71,5.42-14.85,10.51-1.95,3.14-2.06,6.5-5.64,6.61-2.17,0-5.09-2.28-5.31-4.66-.11-1.84,1.84-3.36,1.95-5.64.22-4.99-2.82-8.45-4.66-11.49-10.73,3.36-7.48,15.93-2.93,23.74,2.49,4.34,6.94,7.8,5.96,12.9-3.14,1.63-7.7,1.84-12.14,3.25ZM80.66,244.29c-.11-2.71,2.49-4.23,3.9-6.94,2.28-4.12,3.79-9.86,3.58-15.17-.33-9.86-8.67-2.71-9.86,1.63-.98,3.36,1.08,7.7.33,10.51-1.19,4.55-9.1,1.63-9.54-4.01-3.69-4.88-18.43-4.23-19.08,1.63-.33,2.71,4.55,7.91,5.96,8.56,5.2,2.28,14.63-3.79,15.17,4.66-1.08,3.47-4.12,2.71-7.59,2.93-7.59.54-19.51,4.66-22.44,9.21-1.3,1.95-2.82,9.32,1.63,11.49,6.18.22,9.43-2.28,12.9-4.99,1.3-1.08,3.03-1.84,4.01-2.6,2.06-1.84,3.36-5.09,5.64-5.31,3.03-.22,4.99,2.49,5.64,5.96,7.37-3.47,14.2,2.82,22.44,2.28,1.19-3.69,2.93-6.72,3.58-10.84-2.38-4.77-16.04-2.28-16.26-9ZM54.87,279.95c-1.41,3.9-1.63,11.71,2.6,11.92,1.3,0,4.12-2.71,5.31-4.01,4.99-5.53,10.62-16.8,6.94-24.71-3.03,4.66-12.25,9.54-14.85,16.8ZM8.37,361.02c-.22,4.99-.54,10.41-.33,15.5.43,10.95.33,22,3.25,32.95,1.19,4.34,2.82,13.22,6.29,13.55,3.79.33,8.13-4.55,10.51-5.96,1.73-.98,3.9-1.73,4.66-3.25-1.84-6.29-9.75-12.25-8.24-21.79.33-1.95,1.63-3.47,1.63-5.64.22-5.74-1.52-11.92-1.95-17.78-.65-7.37-1.52-12.36-2.93-18.43-1.08-4.44-1.95-9.65-4.99-11.92-6.72,4.23-7.48,12.9-7.91,22.76ZM376.46,470.17c.65-1.73,1.95-3.25,2.6-4.99.76-1.84.54-4.23.98-6.61.54-3.36,2.28-6.61,2.93-10.19,2.28-12.46,1.63-23.85,1.63-36.64-4.66-.65-10.19.76-15.17.98,0,4.44-.11,9.1-1.95,13.22-.54,1.19-1.63,2.06-1.95,3.25-.54,1.63-.87,4.77-.98,6.94-.54,7.15-1.19,16.8-.98,23.74.22,7.59.76,15.5,3.58,21.79,6.5-.87,7.15-6.18,9.32-11.49Z"/>
  <path class="cls-5" d="M228.07,80.73c-1.08-9.43,3.79-20.16,0-28.07-1.73-3.69-4.99-5.85-8.56-8.24-6.72-.76-10.08,1.73-13.55,4.34-5.31,11.92-1.52,22.98,5.64,29.7,3.47,3.25,8.67,5.85,8.89,11.49-3.9,2.28-10.08-1.3-12.9-3.25-2.49-1.73-7.15-7.37-9.21-10.84-.43-.65-.22-1.84-.65-2.6-.43-.87-1.41-1.08-1.63-1.63-7.05-16.91,3.47-34.9,15.17-40.21,3.25-1.52,8.13-2.17,12.25-1.95,15.72,5.74,13.66,31,9.54,48.12-1.73.98-2.93,2.49-4.99,3.14Z"/>
  <path class="cls-5" d="M388.27,69.24c.43,3.25,2.28,7.37-.33,9.21-11.6-1.3-11.71-13.44-24.71-11.16-6.07,1.08-10.84,6.61-15.5,10.19-3.58,2.71-6.83,4.66-11.16,5.96-9.54.33-14.96-5.74-21.14-9.86-2.82-7.48-14.85-10.19-23.09-6.29-7.15,3.36-10.08,14.09-16.8,19.51-3.14,2.49-6.29,4.01-10.19,4.99-3.58-5.74,5.2-9.86,9.21-14.52,3.36-4.01,4.99-8.89,7.91-12.25,4.99-5.64,13.11-12.36,24.06-9.86,6.5,1.52,8.13,8.24,13.22,12.57,7.8,6.61,19.62,5.85,27.42.98,6.39-4.01,11.6-10.73,18.75-11.49,8.45-.98,9.65,4.01,14.2,7.59,2.82,2.06,5.64,2.82,8.13,4.44Z"/>
  <path class="cls-5" d="M165.1,64.26c5.42,14.85,13.66,26.88,29.37,31.32-10.62.65-23.41-3.9-30.35-10.19-6.29-5.74-12.57-18.97.98-21.14Z"/>
  <path class="cls-5" d="M238.59,84.42c-.11-.33.11-.33.33-.33,4.99,1.73,8.24-.87,12.25.65,2.49.98,4.77,4.34,4.99,6.29.43,5.2-6.29,13.11-11.92,14.2-4.99.87-11.27-.87-13.55-4.66-2.93-4.88,1.08-10.84,4.99-14.52.87-.65,1.95-1.08,2.93-1.63Z"/>
  <path class="cls-3" d="M259.4,105.77c1.95-2.93,6.07-2.28,9.54-2.6,2.38-.22,4.88-.98,7.26-.98,3.03,0,6.39.98,9.21,1.3,2.71.33,5.53.22,8.24.98,2.38.76,4.55,2.17,6.94,2.93,7.59,2.38,15.82,3.9,21.46,8.24,18.75,5.85,30.02,19.18,40.54,33.28,2.38,6.61,6.61,14.42,4.01,23.09-8.89-14.2-22-26.12-36.96-36.31-20.05-13.55-38.48-28.61-70.24-29.92Z"/>
  <path class="cls-3" d="M131.06,176.33c-3.47-12.9,3.69-22.54,9.21-30.02,4.88-6.5,10.19-11.06,17.13-15.82,8.13-5.53,17.45-10.95,27.42-15.17,4.99-2.06,10.3-4.55,15.5-5.96,3.47-.98,7.26-.87,10.84-1.95,2.28-.65,4.55-2.93,7.26-1.63-35.01,17.67-68.72,36.53-87.36,70.56Z"/>
  <path class="cls-3" d="M135.4,179.37c6.61-18.1,20.81-28.61,35.01-39.89,16.15-12.9,36.09-23.2,56.36-31.65.22.76.98.98,1.63,1.3.43.11.43.98,0,.98-14.85,25.58-36.2,44.76-62.32,59.4-8.89,4.88-18.97,9-30.67,9.86Z"/>
  <path class="cls-3" d="M363.23,177.74c-1.52,3.25-3.58,5.85-6.29,7.91-48.23-9.21-80.32-36.42-97.98-75.22,27.53.11,43.79,12.03,60.7,23.41,17.13,11.49,34.79,24.6,43.57,43.9Z"/>
  <path class="cls-3" d="M353.04,188.9c-17.99,12.25-43.03,2.71-57.99-5.96-2.17-1.19-4.23-3.36-6.61-4.99-6.18-4.01-11.27-7.48-15.82-13.55-3.03-4.01-6.18-9-8.56-13.87-2.71-5.31-5.96-10.3-7.59-14.85-.87-2.49-1.19-5.2-1.95-7.59-1.41-4.12-3.36-7.59-1.95-12.57-.43-1.52-2.17-1.84-1.95-4.01,3.25-3.14,5.31,2.28,6.94,5.64,3.79,7.48,8.13,14.96,12.57,20.81,9.1,11.92,21.35,23.74,35.01,31.97,13.77,8.67,29.7,15.61,47.91,18.97Z"/>
  <path class="cls-3" d="M239.89,113.36c-.33,7.48-4.34,11.92-7.91,17.45-11.6,17.99-24.82,34.9-42.92,46.82-14.09,9.32-35.23,14.85-52.13,5.96,23.09-2.93,40.97-14.2,56.36-26.66,12.36-10.08,25.9-22.76,35.01-37.61,1.73-2.82,3.47-4.77,4.34-7.26.33-.11.33.11.33.33,2.49.22,4.34,1.08,6.94.98Z"/>
  <path class="cls-4" d="M373.1,276.92c.98-5.09-3.47-8.56-5.96-12.9-4.55-7.8-7.8-20.38,2.93-23.74,1.73,3.03,4.88,6.61,4.66,11.49-.11,2.28-2.06,3.79-1.95,5.64.11,2.38,3.14,4.66,5.31,4.66,3.58-.11,3.69-3.47,5.64-6.61,3.14-5.2,7.7-9.32,14.85-10.51,3.69,12.68-6.94,19.4-14.85,23.74.54,3.03,1.3,5.74,3.25,6.61,6.18,2.71,12.79-9.75,18.43-4.34,1.95,8.89-7.15,11.6-12.9,14.85-2.93-.33-6.72-.11-7.26,2.93-.87,5.31,6.07,4.88,7.91,8.89,3.47,7.48-3.47,13.87-10.51,14.2-7.15-4.66,2.06-20.92-9.86-20.16-1.73.11-3.14,1.52-4.99,2.28-3.69,1.63-8.78,3.03-13.55,4.99-2.17.87-4.34,1.84-6.61,2.6-2.38.87-4.66,2.06-6.61,2.6-3.79,1.08-6.61-.11-9.21,2.93-.98,8.67-.87,14.96-2.93,22.76-.65,2.38-2.38,4.88-3.25,7.59-.87,2.6-1.41,5.53-2.28,8.24-1.63,4.99-5.2,9.65-7.26,14.2-5.09,10.95-9.65,19.08-17.13,25.69-2.06,1.84-7.48,4.44-7.59,7.59,0,2.06,3.25,5.74,5.31,6.61,1.73.76,3.25.22,5.64.65,4.12.87,8.45,3.03,13.22,4.34,4.23,1.08,8.78,1.3,13.22,2.28,2.06.54,3.9,1.52,5.96,1.95,8.67,1.73,16.69,2.82,25.69,3.58,3.36,13.55-11.6,9.43-21.79,7.91-18.43-2.82-39.89-5.31-53.76-9.86-3.14-1.08-6.5-4.34-10.19-4.01-1.73.11-2.93,1.52-4.66,2.28-1.63.76-3.79.98-5.64,1.63-6.29,2.17-14.2,4.88-23.09,6.29-8.45,1.3-17.23,2.28-25.69,2.93-20.05,1.52-39.02-2.71-55.39-8.24-16.58-5.53-30.46-13.77-41.51-24.39-1.41-4.01-3.9-7.05-7.59-8.89-11.38,4.01-21.68,9-34.58,14.52-7.8,3.36-16.69,7.15-25.36,11.16-2.06.98-6.5,4.01-8.24,4.01-3.79-.22-8.67-8.13-8.89-12.25,5.2-4.55,14.85-6.83,22.76-9.54,8.78-3.03,17.02-5.42,26.66-8.56,3.47-1.08,6.39-2.82,9.21-3.25,4.44-.87,7.8.11,9.21-2.28.33-.54.98-4.23.98-5.31-.11-3.14-2.06-6.94-3.25-10.51-3.58-9.97-6.5-21.68-7.26-33.6-.43-7.8.76-15.82,1.3-23.74,1.19-18.21,7.91-32.95,13.22-47.47,2.93-7.91,6.94-14.96,11.49-21.79,6.18-9.21,13.55-19.62,22.76-27.42,2.71-2.28,6.72-6.29,9.54-6.94,2.28-.54,4.55.43,6.61.33,22.11-.54,39.56-11.6,52.46-22.76,6.83-5.85,13.33-12.57,18.43-19.51,5.31-7.05,9.97-14.42,15.5-22.11.22-.33-.11-1.3,1.3-.98,6.29,17.78,15.07,33.17,26.34,45.85,14.09,10.62,30.24,20.59,49.42,25.04,1.08.98,1.73,2.28,2.6,3.58,5.53,7.91,9.75,19.62,12.57,32.62,2.49,11.49,4.44,24.06,3.25,34.25-.43,4.23-4.44,7.26-3.58,11.92.65,3.58,5.74,6.83,10.19,4.34,1.19-.65,1.84-2.71,3.25-3.58,2.93-1.95,8.02-2.82,11.92-4.01,4.44-.98,9-1.19,12.14-3.25ZM215.5,236.05c-2.17,2.6-5.85,2.71-8.89,3.9-2.71,1.08-5.64,3.47-7.91,5.64-4.77,4.44-10.73,10.51-8.89,20.81,2.38,13.44,21.46,18.1,33.93,12.9,10.3-4.34,17.34-9.43,18.1-22.44.43-7.26-4.01-15.5-9.54-17.78-1.52-.65-3.47-.43-5.64-.98-3.58-.98-7.7-3.36-10.51-2.28-.22,0-.65-.11-.65.22ZM278.8,303.04c-1.63,2.71-5.96,7.05-8.89,9.54-7.15,6.18-17.02,12.46-27.75,18.1-10.95,5.74-22.44,10.73-33.93,12.25-3.03.43-5.31.43-7.59.33-25.47-1.08-38.91-16.48-45.52-36.64-1.3-3.9-2.71-9.43-2.6-13.55,0-3.58,3.14-7.8,1.63-11.49-.87-2.17-4.55-3.36-7.91-2.6-7.7,17.34,2.82,37.94,10.51,50.83,7.91,9,16.91,15.28,29.37,18.75,12.79,3.58,26.66,2.6,40.21-1.95,11.38-3.9,21.89-9.1,32.3-15.82,4.66-3.03,10.08-5.96,14.52-9.54,4.44-3.58,9.65-7.59,12.57-11.49,1.63-2.17,2.28-4.99,3.58-7.26,1.41-2.38,4.01-4.66,2.93-8.24-1.3-2.28-3.79-3.14-6.94-3.58-4.44,2.28-4.12,8.24-6.5,12.36Z"/>
  <path class="cls-4" d="M96.81,253.5c-.65,4.12-2.49,7.15-3.58,10.84-8.24.43-15.07-5.74-22.44-2.28-.54-3.47-2.49-6.18-5.64-5.96-2.28.22-3.58,3.47-5.64,5.31-.98.87-2.6,1.63-4.01,2.6-3.36,2.6-6.72,5.09-12.9,4.99-4.44-2.28-2.93-9.54-1.63-11.49,2.93-4.55,14.85-8.67,22.44-9.21,3.47-.22,6.5.43,7.59-2.93-.54-8.35-9.97-2.38-15.17-4.66-1.41-.65-6.29-5.85-5.96-8.56.76-5.85,15.39-6.5,19.08-1.63.54,5.64,8.45,8.56,9.54,4.01.76-2.82-1.3-7.15-.33-10.51,1.3-4.34,9.54-11.49,9.86-1.63.22,5.31-1.41,11.06-3.58,15.17-1.52,2.71-4.01,4.23-3.9,6.94.33,6.5,13.98,4.01,16.26,9Z"/>
  <path class="cls-2" d="M216.15,235.73c2.82-1.08,6.94,1.3,10.51,2.28,2.17.54,4.12.33,5.64.98,5.53,2.28,9.97,10.51,9.54,17.78-.76,13.01-7.91,18.1-18.1,22.44-12.46,5.31-31.65.54-33.93-12.9-1.84-10.3,4.12-16.37,8.89-20.81,2.28-2.17,5.2-4.44,7.91-5.64,3.03-1.3,6.72-1.41,8.89-3.9,0-.22.43-.11.65-.22ZM230.02,264.78c2.38-3.69,3.47-10.84,1.3-14.85-2.17-4.01-9.65-5.42-16.47-4.34-7.59,1.3-17.02,10.41-16.15,20.49,3.58,12.68,26.23,6.72,31.32-1.3Z"/>
  <path class="cls-4" d="M198.7,266.08c-.87-10.08,8.56-19.18,16.15-20.49,6.83-1.19,14.31.33,16.47,4.34,2.17,4.01.98,11.16-1.3,14.85-5.09,8.02-27.75,13.98-31.32,1.3Z"/>
  <path class="cls-2" d="M437.8,282.88c-4.23-.11-.98-4.66-.65-7.26.33-2.49.11-5.64,0-8.24-.33-4.66-2.38-8.35-2.6-11.16.87.43,1.41-.98,1.63,0,5.2,4.34,6.5,20.81,1.63,26.66Z"/>
  <path class="cls-2" d="M450.59,280.6c-1.52.33-1.63-.76-2.6-.98,2.17-7.48.54-16.69-1.3-23.09.54,0,1.3-1.19,1.63-.33,4.34,4.44,5.96,17.88,2.28,24.39Z"/>
  <path class="cls-4" d="M69.72,263.15c3.69,7.91-1.84,19.18-6.94,24.71-1.08,1.19-4.01,4.01-5.31,4.01-4.34-.11-4.01-8.02-2.6-11.92,2.6-7.26,11.81-12.14,14.85-16.8Z"/>
  <path class="cls-2" d="M285.41,290.46c3.03.43,5.64,1.41,6.94,3.58,1.08,3.58-1.52,5.85-2.93,8.24-1.41,2.28-2.06,5.09-3.58,7.26-2.82,3.9-8.02,7.91-12.57,11.49-4.44,3.58-9.86,6.5-14.52,9.54-10.41,6.72-20.92,11.92-32.3,15.82-13.55,4.66-27.42,5.64-40.21,1.95-12.36-3.47-21.46-9.75-29.37-18.75-7.7-12.79-18.21-33.49-10.51-50.83,3.36-.76,7.05.43,7.91,2.6,1.52,3.69-1.63,7.91-1.63,11.49,0,4.12,1.41,9.65,2.6,13.55,6.61,20.05,20.05,35.55,45.52,36.64,2.28.11,4.55,0,7.59-.33,11.6-1.52,22.98-6.39,33.93-12.25,10.62-5.64,20.59-12.03,27.75-18.1,2.93-2.49,7.37-6.94,8.89-9.54,2.28-3.9,1.95-9.86,6.5-12.36Z"/>
  <path class="cls-2" d="M481.59,414.13c5.53-5.74,21.46-7.26,22.76,3.25.76,6.07-2.71,10.84-5.64,14.85,6.83,2.28,16.48,10.3,12.25,19.51-1.63,3.47-9,8.24-14.2,8.89-3.69.43-6.29-1.19-9.54-1.63-.65,4.66,1.95,8.89-.65,12.57-2.17,3.03-9.54,5.09-14.52,4.34-4.55-.76-8.13-4.12-9.21-8.24-3.69,1.3-5.2,4.23-8.89,4.99-12.57,2.49-16.48-15.61-10.19-25.36-6.61-.76-12.57.33-20.16,0-.87,3.79-.43,8.78-2.93,10.84-4.12-1.19,0-6.72-.98-10.84-2.93-1.52-9.86.87-10.84-2.6,1.19-2.71,7.26-1.95,10.51-1.63,1.63-.76.76-4.12.98-6.29-5.42-1.84-13.33,2.28-16.48-1.3,2.17-4.01,10.73-1.84,15.82-2.93,0-4.77-3.14-8.02-2.6-12.25,4.55.33,4.66,7.8,6.29,12.25,6.07.33,13.44,1.19,19.08,0-2.49-7.8-.65-20.49,8.56-18.1,1.73.43,2.06,2.28,3.9,3.25,3.36-3.58,3.14-9.54,8.24-12.57,4.77-2.82,15.82.33,17.45,4.01.87,1.73-.11,3.03.98,4.99ZM466.42,407.52c-6.61,1.41-7.26,12.03-8.89,18.43-4.55.11-3.25-7.37-7.26-8.24-7.05-1.52-5.42,9.32-4.34,14.85,3.03.33,11.6-2.17,10.51,1.95-.43,1.63-3.25,1.52-5.31,1.63-6.72.33-21.57-.43-27.42.33-.22,1.84-.65,4.12,0,6.29,5.53,1.41,13.55.33,20.16.65,1.63,0,13.98-4.01,13.22,1.3-1.84,1.73-6.39.87-9.21,1.63-1.73,4.34-5.85,13.66-2.6,19.51.54,1.08,2.49,2.93,3.9,3.25,8.67,1.95,11.27-7.37,16.15-10.84,3.69,3.47-.65,6.29,1.3,10.84,2.71,6.29,16.04,4.01,17.45-.98,2.06-7.26-3.79-10.51-2.6-15.5,4.23,1.19,8.13,4.77,13.87,4.34,4.77-.43,11.6-4.34,12.57-7.91,1.19-4.55-1.84-10.62-5.64-12.25-3.69-1.52-9.43,1.3-11.16-3.25,5.09-3.69,11.92-10.19,8.56-19.08-11.27-4.34-17.67,4.44-22.11,10.19-4.44-2.93,1.19-9-.33-15.17-3.58-.76-7.15-2.71-10.84-1.95Z"/>
  <path class="cls-2" d="M76.33,428.98c-2.06,4.23-6.07,8.45-9.86,12.57-3.58,3.79-7.8,8.24-12.25,9.86-1.63.65-5.2,1.41-6.61-.98.65-2.28,2.82-1.73,4.34-2.28,9.54-3.79,15.17-13.55,21.46-20.81,1.84-.33,2.28.76,2.93,1.63Z"/>
  <path class="cls-2" d="M81.31,444.48c.43,4.77-4.01,8.13-7.59,11.49-3.36,3.25-8.24,9.75-11.16,5.64.65-1.84,2.6-2.49,3.9-3.58,3.79-3.14,7.15-7.48,11.16-10.84-.22-1.63.54-2.28.98-3.25,1.3-.33,1.95.11,2.71.54Z"/>
  <path class="cls-1" d="M16.28,338.26c3.03,2.17,3.9,7.37,4.99,11.92,1.41,6.07,2.28,11.06,2.93,18.43.54,5.85,2.17,12.14,1.95,17.78-.11,2.06-1.3,3.69-1.63,5.64-1.52,9.43,6.39,15.5,8.24,21.79-.76,1.63-2.93,2.28-4.66,3.25-2.38,1.41-6.83,6.29-10.51,5.96-3.47-.33-5.09-9.1-6.29-13.55-2.93-10.95-2.82-22-3.25-32.95-.22-5.09.11-10.51.33-15.5.43-9.86,1.19-18.53,7.91-22.76ZM32.21,413.81c-2.28-6.29-7.59-10.73-8.24-18.1-.22-2.82,1.41-5.53,1.63-8.56.22-3.9-.54-8.89-.98-13.22-1.41-12.68-3.14-25.15-7.59-34.9-9.65,5.64-9,22.54-8.24,37.29.54,10.84.22,21.57,2.93,32.3,1.3,5.2,2.17,10.95,5.64,14.2,5.74-1.95,10.95-6.29,14.85-9Z"/>
  <path class="cls-1" d="M367.24,481.77c-2.82-6.29-3.47-14.2-3.58-21.79-.22-6.94.43-16.58.98-23.74.22-2.17.43-5.31.98-6.94.33-1.19,1.41-2.17,1.95-3.25,1.84-4.12,1.95-8.78,1.95-13.22,4.99-.22,10.51-1.63,15.17-.98,0,12.79.65,24.17-1.63,36.64-.65,3.58-2.38,6.94-2.93,10.19-.43,2.38-.22,4.77-.98,6.61-.65,1.73-1.95,3.25-2.6,4.99-2.28,5.2-2.93,10.51-9.32,11.49ZM377.43,467.25c1.95-3.9,1.95-8.02,3.25-13.22,3.36-12.79,4.23-29.48,3.58-41.84-4.34-.33-9.97.98-14.2.98.98,5.64-2.38,11.49-4.01,16.15-1.52,4.23-1.08,10.08-1.3,16.15-.43,11.38-2.71,26.99,3.25,35.98,5.96-2.06,6.83-8.89,9.43-14.2Z"/>
  <path class="cls-6" d="M367.78,482.64l.76-.22c4.77-1.63,6.39-6.18,8.13-10.51.54-1.41,1.08-2.82,1.73-4.12,1.19-2.6,1.73-5.2,2.28-8.02.33-1.73.65-3.47,1.08-5.31,3.58-13.66,4.23-30.67,3.69-42.16v-.87l-.87-.11c-2.49-.22-5.42.11-8.13.54-2.17.22-4.23.54-6.07.54h-1.19l.22,1.19c.65,4.12-1.08,8.45-2.6,12.36-.43,1.19-.98,2.28-1.3,3.36-1.19,3.36-1.19,7.7-1.3,12.14,0,1.41,0,2.82-.11,4.23-.11,1.95-.22,4.01-.33,6.07-.65,10.62-1.41,22.76,3.79,30.46l.22.43Z"/>
  <path class="cls-6" d="M29.4,406.33c-2.06-3.36-4.01-6.5-4.44-10.73-.11-1.3.33-2.82.76-4.23.43-1.3.76-2.71.87-4.12.22-3.36-.22-7.26-.76-11.16l-.22-2.28c-1.52-13.01-3.14-25.47-7.7-35.23l-.43-.98-.98.54c-10.3,6.07-9.43,23.85-8.78,38.15.11,2.38.22,4.77.22,7.05.22,8.35.54,17.02,2.71,25.47.22.87.43,1.84.65,2.71,1.08,4.44,2.17,9.1,5.2,11.92l.43.43.54-.22c4.88-1.52,9.32-4.77,12.79-7.37.87-.65,1.63-1.19,2.28-1.63l.65-.43-.22-.76c-.76-2.6-2.28-4.88-3.58-7.15Z"/>
  <path class="cls-2" d="M201.08,192.16c.43-.54,3.14-.87,4.23-.76,2.71.22,9.21,2.6,10.84,5.85.65,1.19,1.84,3.69,2.06,4.88.43,1.73-.43,3.79-.76,5.74-.33,2.17-.33,4.23-.76,5.74-1.95,6.5-11.92,14.74-20.05,11.81-2.93-.98-6.5-4.12-7.15-8.78-.43-2.82.33-10.51.98-12.79,1.52-4.99,6.29-8.56,10.62-11.71Z"/>
  <path class="cls-2" d="M251.48,198.55c.33-.65,2.93-1.52,4.01-1.73,2.71-.33,9.54.43,11.92,3.25.87,1.08,2.6,3.25,3.14,4.23.76,1.63.43,3.79.54,5.74.22,2.17.65,4.23.54,5.74-.43,6.72-8.24,17.02-16.8,16.15-3.03-.33-7.26-2.6-9-6.94-.98-2.71-2.06-10.3-1.95-12.68.33-5.2,4.12-9.75,7.59-13.77Z"/>
</svg>