<?xml version="1.0" encoding="UTF-8"?>
<svg id="Layer_1" data-name="Layer 1" xmlns="http://www.w3.org/2000/svg" viewBox="0 0 512 512">
  <defs>
    <style>
      .cls-1 {
        fill: #171717;
      }

      .cls-2 {
        fill: #f8eb00;
      }

      .cls-3 {
        fill: #2e9fcf;
      }

      .cls-4 {
        fill: #fff;
      }

      .cls-5 {
        fill: #e31085;
      }
    </style>
  </defs>
  <g id="lh03Zu">
    <g>
      <path class="cls-1" d="M29.24,321.82c-2.74,1.28-5.1-.67-7.29-2.03-10.37-6.42-13.93-15.88-10.68-28,2.26-8.44,7.36-15.27,12.49-22.08,1.1-1.46,2.44-2.85,4.36-2.33,2.63.71,2.18,3.18,2.22,5.14.08,5.28.03,10.57.03,15.85-.26.01-.52.02-.77.03.58,8.78,1.23,17.56,1.72,26.35.14,2.55.93,5.65-2.08,7.07ZM178.04,423.46c4.55-1.08,9.08-2.2,13.6-3.4,1.9-.49,3.5-.77,3.53,1.97-.27,2.75-14.93,11.07-17.3,9.64-2.01-1.21-3.95-3.02-3.81-5.51.11-1.95,2.26-2.29,3.98-2.7ZM157.59,433.35c.59-4.82,6.37-5.54,10.48-6.12,4.6-.65,4.73,4.19,6.66,7.42-3.29,3.03-6.11,8.09-10.5,7.79-3.55-.24-7.06-5.59-6.64-9.09ZM159.66,468.5c-1.46-.06-2.93-.01-4.4-.01-7.03-.19-14.09.22-19.77-5.37-5.88-5.78-6.39-11.25-1.19-17.78,12.71-15.97,19.56-15.08,27.39,3.56,1.47,3.51,3.06,6.98,4.32,10.57,3.2,9.1,2.91,9.43-6.35,9.03ZM204.07,465.04c-7.13,1.72-14.27,3.4-21.41,5.09-4.13.08-7.06-1.45-8.25-5.43-1.35-4.54-3.2-8.78-5.8-12.76-1.45-2.21-2.71-4.97.01-7.11,2.7-2.12,5.4-5.35,9.12-4.44,3.12.75,2.45,4,2.28,6.74-.27,4.17,2.72,5.85,6.22,5.71,4.6-.19,7.78-2.91,8.38-7.59.48-3.71-1.11-6.38-5.42-6.19-2.27.09-4.13-.43-4.82-2.8-.5-1.7.69-2.92,1.95-3.58,11.63-6.15,21.74-16.73,36.91-12.67,1.65.45,3.83-.13,4.65,1.77,1.03,2.39-1.02,3.95-2.51,5.11-10.65,8.28-16.32,19.08-16.79,32.54-.12,3.14-1.59,4.91-4.52,5.61ZM218.87,464.88c-3.42.2-3.5-1.27-3.1-3.45,2.43-12.98,7.08-24.93,16.51-34.57,1-1.02,2.13-2.17,3.81-1.37,1.7.82,1.28,2.49,1.31,3.87.07,3.83.02,7.67.02,11.5h.03c0,1.47-.04,2.95,0,4.42.43,13.33-4.97,18.78-18.59,19.6ZM285.47,402.9c-.37-2.67,2.53-2.52,4.5-2.77,3.7.68,6.91,2.05,7.24,6.28.25,3.19-1.89,5.21-4.88,4.58-4.03-.86-6.34-4.28-6.86-8.09ZM275.02,466.93c-7.15-1.72-14.36-3.23-21.5-4.97-3.06-.75-5.24-2.56-5.58-6.03-1.03-10.52-2.74-21.03.29-32.31,17.29,8.45,24.76,23.24,30.57,39.29,1.34,3.7.03,4.94-3.78,4.02ZM360.38,437.89c4.98,3.13,9.12,7.57,12.18,12.61,3.92,6.46.12,15.52-7.86,18.76-5.45,2.21-11.29,3.27-15.41,3.36-20.16-.67-21.55-2.99-12.88-18.95,2.11-3.88,4.51-7.6,6.83-11.36,5.38-8.7,8.65-9.75,17.14-4.42ZM333.47,426.67c3.3.82,7.23.35,8.39,4.68.32,1.22-9.53,13.87-10.14,13.41-3.89-2.98-10.69-5.76-10.26-9.73.47-4.38,6.54-7.48,12.01-8.36ZM309.81,408.61c2.57-5.74,6.07-10.88,12.05-13.49,2.74-1.2,5.9-1.58,6.07,1.42-.38,6.02-11.36,16.3-15.56,16.23-3.12-.05-3.51-2.05-2.56-4.16ZM313.47,422.05c1.86,2.89,8.31-1.68,8.35,4.33.02,2.31-3.28,5.61-6.26,4.67-3.17-1-6.63-3.55-7.19-7.08-.46-2.89,2.65-2.14,5.1-1.92ZM310.16,433.35c1.36,6.09-3.38,6.77-7.8,8.12-4.42,1.34-5.36,5.25-3.89,9.34,1.54,4.31,5.21,5.28,9.35,4.81,5.12-.57,5.01-3.76,4.01-7.72-.82-3.24-.86-6.81,2.63-8.57,3.85-1.94,5.97,1.44,8,3.78,2.43,2.8,7.05,5.78,5.09,9.52-3,5.73-2.92,12.92-7.8,17.49-2.59,2.42-6.22-.61-9.37-.3-16.59,1.62-27.09-4.36-30.07-21.95-1.14-6.78-7.01-11.35-12.2-15.82-2.58-2.22-6.1-3.64-7.55-8.54,11.94,1.61,22.95,2.77,33.89-1.43,5.09-1.95,14.26,4.81,15.71,11.27ZM500.7,119.65c-2.66-.26-4.25-1.8-4.46-4.41-.21-2.51,1.51-3.62,3.76-3.82,2.89-.26,4.38,1.45,4.48,4.1.08,2.34-1.55,3.6-3.78,4.13ZM348.01,215.17c-1.79-.06-3.65-1.08-3.55-3.21,0-.17.03-.34.05-.5.02-.16.05-.31.08-.45.01-.03.02-.07.03-.1.03-.12.07-.23.11-.34.05-.16.12-.32.2-.47.04-.09.09-.18.15-.26.04-.08.09-.16.15-.23.05-.08.11-.15.17-.22.16-.2.35-.38.55-.54.09-.08.2-.16.3-.22.02-.02.03-.03.05-.03.1-.08.22-.15.34-.2.12-.07.25-.13.39-.18.28-.11.58-.21.89-.27.11-.03.22-.05.34-.06.32-.05.64-.08.98-.08.14,0,.27,0,.4.01.4.03.78.1,1.13.21.48.15.91.38,1.28.67.09.07.18.15.26.23.3.3.55.64.74,1.04.05.1.1.2.14.31.01.02.01.04.02.06.04.11.07.22.1.33.03.08.05.15.06.23.03.13.06.27.08.42-.91,2.74-2.93,3.94-5.44,3.85ZM441.74,204.47c-1.71.22-3.06.13-3.7-1.28-.16-.36-.33-.71-.51-1.06-.21-.42-.43-.84-.67-1.25-.2-.35-.41-.7-.62-1.05-.24-.38-.49-.76-.74-1.13-.16-.25-.33-.49-.51-.73-.05-.08-.11-.16-.17-.24-.15-.22-.31-.43-.47-.64-2.67-3.59-5.83-6.82-8.43-10.45-.68-.96-1.33-1.95-1.93-2.98-.19-.34-.39-.69-.57-1.04.04-1.32-.41-2.12-1.08-2.69-.12-.1-.24-.19-.37-.28-.19-.12-.4-.24-.61-.35-.15-.07-.29-.14-.44-.21s-.3-.13-.45-.19c-.9-.38-1.82-.74-2.46-1.4h0c-.6-.15-1.2-.3-1.81-.45-2.93,4.39-4.11,12.04-12.31,6.58-4.79-3.96-9.49-2.37-13.6.84-.26.21-.51.42-.73.64-.34.32-.63.66-.88,1-.08.11-.16.23-.23.34-.11.18-.21.35-.3.53-.09.17-.17.35-.24.53-.1.24-.18.49-.24.73-.06.25-.11.5-.15.75-.11.76-.1,1.54,0,2.33,0,.13.03.25.05.38.03.17.05.35.09.53.28,1.52.79,3.1,1.31,4.67.09.28.19.57.28.86h-.01c-10.33.53-20.05,2.42-28.03,9.24-2.57,2.2-3.22-.16-4.68-1.45-6.27-5.54-15.86-2.79-17.91,5.3-1.62,6.39,2.87,8.11,7.92,9.04.31.05.62.07.95.07h.02c.8,0,1.66-.1,2.43,0,.25.02.49.07.71.16.08.03.15.06.22.09.07.02.13.06.19.1.45.26.83.68,1.1,1.37.03.07.06.15.08.23.04.12.08.24.11.37.82,3.22-1.24,4.58-3.5,6.26-.54.4-1.07.81-1.59,1.23-.38.3-.76.61-1.13.92-.44.37-.88.74-1.32,1.12-1.75,1.52-3.46,3.09-5.19,4.63-.43.39-.86.77-1.29,1.15.32,3.06-1.18,6.41,1.47,9.09q13.8,14.89,37.7,21.59c-10.21,5.9-27.74-2.24-43.22-20.07-4.79-6.18-9.89-12.22-10.05-20.65-.07-3.56.34-7.01,2.91-9.79,5.93-12.33,15.38-22,24.24-32.11,11.01-12.56,21.98-25.14,33.09-37.6.58-.64,1.16-1.3,1.75-1.94.3-.32.6-.64.91-.95.3-.31.62-.61.95-.91,1.3-1.18,2.74-2.19,4.45-2.84,21.96-9.34,40.72-2,54.37,21.28,3.3,4.82,6.93,9.45,9.83,14.5,5.06,8.8-4.61,25.95-14.97,27.28ZM511.89,113.22c-.66-7.4-5.87-8.9-11.82-9.03-6.72-.16-12.29,1.35-12.92,9.78-.63,8.37-7.22,11.66-14.04,16.4.05-5.66,2.73-9.38,1.62-13.52-3.33-3.81-5.67-2.07-6.83,1.64-1.66,5.29-3.72,10.41-4.13,16.18-.42,6.04-3.42,10.03-10.9,7.4-3.48-1.23-8.13.24-11.18-1.45-6.82-3.76-15-6.95-14.79-17.13.04-1.87-.03-4.59-3.09-4.33-2.33.21-2.1,2.39-2.37,4.11-.98,6.39-5.48,7.71-11.12,8.6-23.94,3.8-47.66-2.47-71.6-1.33-8.1.38-16.6-4.08-24.37-8.15-5.17-2.71-10.82-4.93-16.87-2.02.67.35,1.34.69,2.01,1.02,2.71,1.35,5.45,2.58,8.22,3.7,1.38.56,2.78,1.1,4.17,1.62,2.79,1.03,5.61,1.97,8.45,2.82.52.16,1.04.31,1.57.46.52.16,1.04.3,1.57.45.65.18,1.29.36,1.94.53.71.19,1.41.38,2.12.56,2.3.58,4.61,1.12,6.93,1.62.95.21,1.9.41,2.85.6.82.17,1.64.33,2.45.49,1.46.28,2.92.54,4.38.8.05.01.1.02.14.02,1.51.27,3.02.52,4.54.76.97.16,1.93.31,2.9.45.96.15,1.93.29,2.9.43.92.13,1.84.26,2.76.39.96.13,1.91.26,2.87.39,2,.27,4,.53,6.01.78.31.04.63.07.94.09.54.04,1.09.07,1.64.08.61.02,1.23.03,1.85.06.32.01.65.02.98.05.2.01.41.02.61.05.19.01.39.03.58.05.27.03.53.07.8.11.34.05.69.12,1.03.2.13.03.26.06.39.1.34.08.68.19,1.01.31.24.09.48.18.72.28.04.01.07.02.1.04.21.09.41.19.62.3.24.12.48.25.72.39.13.08.25.15.37.23.12.07.24.15.36.24-1.02.98-2.03,1.96-3.03,2.95-1.77,1.75-3.5,3.53-5.2,5.33-.41.43-.82.86-1.22,1.29-.62.66-1.23,1.32-1.84,1.99-1.06,1.15-2.1,2.3-3.13,3.46-.53.59-1.05,1.18-1.57,1.77-1.04,1.18-2.08,2.37-3.11,3.56-1.03,1.19-2.05,2.38-3.07,3.58-7.48,8.78-14.75,17.7-22.45,26.24-4.72,5.25-9.34,10.69-13.23,16.56-7.67,11.53-8.54,23.7-1.28,35.85.45.75.91,1.49,1.38,2.22.33.52.66,1.03,1.01,1.53,1.1,1.64,2.25,3.22,3.46,4.74.34.44.68.86,1.03,1.29.23.27.45.54.69.81.5.6,1.01,1.19,1.53,1.77.38.41.75.82,1.14,1.23.26.29.54.58.82.86.25.26.49.52.75.77,7.69,7.75,16.86,13.77,27.18,18.3.52.24,1.05.47,1.58.69.44.18.88.36,1.32.52,1.1.41,2.21.76,3.32,1.04.44.11.89.21,1.33.3.44.08.89.16,1.33.23.67.1,1.34.17,2,.2,1.84.11,3.67,0,5.47-.37.81-.17,1.62-.39,2.42-.66.54-.19,1.08-.4,1.61-.63.53-.23,1.06-.49,1.59-.79.27-.14.53-.29.79-.45.52-.31,1.04-.66,1.56-1.03.26-.19.51-.38.77-.58.48-.38.98-.75,1.48-1.04.19-.1.37-.2.56-.28.19-.08.38-.14.57-.2.13-.04.26-.06.39-.08.38-.05.77-.03,1.18.08.26.07.53.19.8.35.18.11.36.24.55.39,3.72,4.94,2.9,11.91,7,17.03,3.11-2.64,1.28-5.81,2.11-8.38-5.03-4.81-2.19-12.83-7.17-17.67-1.71-.65-3.44-1.24-5.19-1.79-.52-.17-1.05-.34-1.57-.49-1.06-.33-2.12-.64-3.18-.95-2.01-.59-4.03-1.15-6.04-1.74-.53-.15-1.07-.31-1.6-.47-.8-.24-1.61-.48-2.41-.73-1.33-.41-2.66-.84-3.97-1.31-2.64-.92-5.23-1.96-7.76-3.19-.23-.11-.46-.22-.68-.34-.44-.22-.87-.44-1.28-.67-.42-.23-.82-.45-1.2-.68-.39-.22-.76-.44-1.12-.67-1.2-.77-2.24-1.54-3.12-2.32-.15-.13-.29-.26-.43-.39-.72-.68-1.32-1.37-1.79-2.06-.09-.13-.17-.26-.25-.4-.38-.62-.66-1.24-.83-1.86-.05-.15-.09-.3-.12-.45-.02-.09-.04-.18-.05-.26-.03-.16-.05-.32-.07-.47-.02-.21-.03-.43-.03-.64,0-.16,0-.34.03-.5,0-.24.04-.48.09-.72.02-.11.04-.23.07-.35.03-.15.07-.3.12-.45.05-.17.1-.34.17-.51.03-.1.07-.2.12-.3.02-.05.04-.1.07-.16.06-.15.13-.3.21-.46.08-.16.16-.32.26-.48.06-.12.13-.24.21-.36.09-.16.19-.32.31-.49.06-.09.12-.17.18-.26.37-.53.8-1.08,1.3-1.63.17-.19.34-.37.52-.55.19-.2.38-.4.59-.59.51-.5,1.07-1,1.68-1.52.3-.26.62-.51.95-.77.65-.52,1.35-1.04,2.1-1.57h.01c.35-.31.73-.57,1.12-.84.26-.17.52-.35.77-.53.24-.16.47-.32.69-.5.14-.1.28-.21.41-.32.23-.19.44-.39.64-.6.1-.11.19-.23.28-.35.07-.09.13-.18.19-.28.08-.13.15-.27.22-.41.05-.12.1-.25.13-.38.01-.01.01-.03.02-.06.02-.09.05-.18.06-.27.01-.06.02-.12.03-.19.09-.85-.13-1.87-.84-3.17-.1-.17-.18-.36-.25-.54-.06-.14-.11-.29-.15-.44-.03-.14-.07-.28-.09-.43-.03-.15-.05-.3-.07-.45,0-.01,0-.03,0-.06-.03-.28-.03-.58,0-.88.02-.15.04-.31.07-.47.06-.31.15-.62.28-.92.15-.35.34-.68.58-1,.12-.16.25-.31.4-.46.06-.08.13-.15.22-.22.08-.07.17-.14.25-.21.09-.07.17-.13.26-.19,0-.01.01-.01.01-.01h0c.48-.65.98-1.27,1.49-1.86.25-.3.5-.59.76-.87.26-.28.52-.56.78-.83.21-.21.42-.42.63-.63s.42-.41.64-.61c.55-.51,1.11-.99,1.68-1.43.57-.45,1.15-.87,1.73-1.26.76-.52,1.54-.99,2.34-1.41.35-.19.71-.37,1.07-.54.48-.22.97-.43,1.46-.63.4-.16.8-.3,1.21-.44.2-.07.4-.14.61-.2.2-.06.4-.12.61-.18.83-.24,1.67-.43,2.52-.58.43-.08.85-.15,1.28-.2.35-.05.7-.09,1.05-.12.2-.02.4-.04.61-.05.32-.03.64-.05.96-.06.44-.02.88-.03,1.33-.03,3.35,0,6.86.52,10.52,1.5.32-.04.63-.06.92-.06.23,0,.45.01.66.04.21.02.41.05.6.1.03,0,.07,0,.11.02.15.03.3.08.45.13.05.01.11.03.16.05.15.05.29.11.44.18.14.06.28.13.42.21.2.11.4.23.59.37.15.1.3.21.44.32,1.46,1.16,2.61,2.81,3.96,4.11.08.08.15.15.23.22.16.15.32.29.47.41.04.03.08.07.12.1.11.09.21.17.32.25.13.11.26.21.39.29.02.02.03.03.05.04.11.07.21.14.3.19.12.07.22.13.32.18.11.05.2.09.29.12.28.1.5.12.69.07.06-.02.12-.04.17-.08.06-.03.11-.06.15-.11.04-.03.07-.07.1-.12.04-.05.07-.09.09-.15.12-.21.2-.49.25-.82.02-.14.04-.29.05-.44.02-.16.03-.32.04-.49v-.09c.02-.35.03-.71.04-1.08,0-.19,0-.38.02-.56-2.37-2.15-4.45-4.8-7.17-6.33-4.81-2.69-3.78-5.79-1.56-9.35,3.59-6.73,8.97-8.65,16.23-6.44,1.26.38,2.47.83,3.62,1.34.4.17.8.36,1.18.55.05.02.11.04.16.07.39.2.77.39,1.14.6.01,0,.01.01.01.01,2.12,1.18,4,2.57,5.58,4.14.8.79,1.52,1.62,2.15,2.49.23.32.46.65.67.98.22.34.42.68.62,1.02.33.6.63,1.22.88,1.85.09.22.18.45.26.68.08.21.15.43.23.64.01.03.02.06.02.08.07.22.13.44.19.66.13.47.23.94.32,1.42.04.24.08.48.11.72.03.24.06.49.08.73.02.25.04.49.05.74.23,5.42.04,10.86.04,16.77.29-.07.57-.15.83-.24,1.43-.47,2.37-1.12,3-1.85.17-.2.32-.41.45-.63.18-.29.31-.58.42-.89.05-.12.09-.24.12-.36.11-.34.18-.69.23-1.05.02-.15.04-.31.06-.46.02-.16.04-.32.05-.48.01-.15.03-.31.04-.47.6-8,5.07-9.97,12.13-8.05,3.18.87,6.48,2.4,7.53-2.64h0c.35-6.54,6.49-10.3,7.35-18.31.65,1.12,1.2,2.21,1.67,3.27.1.22.19.43.27.64.09.21.18.43.26.64.09.21.16.41.23.62.46,1.26.81,2.48,1.08,3.68.05.2.09.4.13.6.05.21.09.42.13.62.07.39.13.77.19,1.15.06.39.12.78.16,1.17.05.35.09.69.12,1.04,0,.04,0,.08,0,.12.04.45.08.9.11,1.34.1,1.46.15,2.89.2,4.32,1.67,49.35-1.18,98.44-8.44,147.29-.13.86-.25,1.7-.38,2.52-.06.41-.12.81-.2,1.2-.03.2-.07.39-.1.59-.29,1.55-.65,2.96-1.21,4.17-.06.15-.13.3-.21.44-.15.29-.31.57-.49.83-.08.13-.17.26-.27.38-.18.25-.39.49-.62.69-.11.12-.23.22-.35.31-.24.2-.5.38-.78.54-.28.17-.57.32-.89.44-.32.13-.66.24-1.03.32-.18.05-.37.09-.56.11-1.66.3-3.77.19-6.47-.39-.34-.07-.69-.14-1.03-.21-.35-.06-.69-.12-1.04-.18-.34-.05-.69-.1-1.04-.15-.34-.05-.69-.09-1.04-.13-1.17-.13-2.35-.22-3.54-.27-.59-.03-1.19-.05-1.78-.06-.59-.01-1.17-.02-1.76-.02-5.63,0-11.36.5-16.98.46-3.9,1.86-8.1,1.25-12.16,1.35-33.2.86-66.4,1.6-99.61,2.32-11.87.25-13.02,1.33-12.81,13.31.05,3.23.2,6.46.49,9.68.3,3.28-.22,5.38-4.25,4.06-7.6-2.48-9.22,2.18-9.68,8.17h0v.03c.37.98.73,1.96,1.1,2.94,4.05,2.85,4.62,6.54-.73,7.05-10.02.97-20.52,3.52-29.93-2.93-.58-.13-1.08-.32-1.48-.54-.14-.07-.26-.15-.38-.24-.12-.08-.23-.16-.33-.26-.1-.08-.2-.18-.29-.28-.07-.08-.15-.16-.2-.26-.15-.18-.26-.38-.36-.59-.03-.06-.06-.13-.08-.2,0,0,0-.01,0-.02-.04-.07-.07-.16-.09-.25-.04-.12-.08-.24-.11-.37-.04-.15-.07-.31-.09-.48-.03-.16-.05-.32-.06-.49,0-.12-.02-.23-.02-.35-.05-.88.01-1.81.03-2.71.08-3.11.22-6.22.34-9.33.12-3.05.24-6.09.27-9.14.01-.93.02-1.93-.05-2.89-.05-.6-.13-1.19-.28-1.74-.03-.1-.05-.19-.08-.28-.06-.17-.12-.35-.19-.52-.07-.16-.15-.32-.24-.48-.04-.08-.08-.16-.14-.23-.15-.22-.31-.42-.5-.61-.07-.07-.13-.13-.2-.18-.21-.17-.44-.32-.69-.45t0,0c-.18-.09-.37-.16-.57-.23-.13-.04-.26-.07-.4-.11-.13-.03-.26-.05-.4-.07-.01-.01-.03-.01-.05-.01-.15-.02-.3-.03-.45-.04-.17,0-.33-.01-.51-.01-.52,0-.98.07-1.38.18-.1.03-.2.06-.3.1-.18.07-.36.16-.52.25-.09.04-.17.09-.24.15-.15.11-.29.23-.42.35-.09.09-.18.18-.26.28-.07.08-.14.17-.2.26,0,.01-.02.02-.02.04-.07.1-.14.21-.2.32-.07.11-.12.22-.18.34-.3.66-.49,1.43-.62,2.23-.04.25-.07.5-.1.75-.03.25-.06.5-.08.76-.04.42-.07.85-.1,1.26-.39,5.27-.53,10.57-1.37,15.77-.13.81-.38,1.61-.74,2.37-.06.14-.12.27-.19.41-.1.19-.21.38-.32.57-.08.16-.18.31-.29.47-.24.36-.5.72-.78,1.07-.27.34-.56.66-.86.96-.3.32-.61.61-.94.9-.17.14-.35.28-.53.43-.34.28-.69.55-1.06.79-.18.14-.37.26-.57.37-.57.37-1.16.7-1.77,1.01-.81.41-1.66.76-2.51,1.04-.22.06-.43.13-.65.2-.43.13-.86.24-1.29.33,0,0,0-.01-.01,0-.39.08-.78.15-1.17.2-.08,0-.16.02-.24.03-.18.03-.35.05-.53.06-.18.02-.36.03-.53.04-.25.01-.5.02-.75.02s-.52-.01-.78-.03c-.03,0-.05,0-.07,0-.19,0-.37-.02-.56-.05-.2-.02-.4-.05-.6-.08-.29-.05-.58-.11-.86-.18-.26-.07-.53-.15-.78-.23-.37-.13-.72-.27-1.05-.44-.19-.08-.37-.18-.55-.29-3.53-2.2-1.12-4.44,1.38-7.23-.2.07-.4.13-.61.18-.43-2.93-1.58-1.36-2.59-.5,0,0-.01,0-.01.01-.03.03-.06.06-.09.08-.96.78-1.97,1.83-3.07,2.07,0,0,0-.01,0,0-.35.08-.72.08-1.09-.04-.34-.11-.69-.31-1.05-.63-1.1-.98-1.09-2.28-.82-3.6.06-.29.13-.59.2-.89.12-.44.24-.88.33-1.31h0c-.4-1.42-.8-2.84-1.19-4.25-.15-.55-.3-1.09-.45-1.64-.02-.44-.03-.87-.05-1.31,0-.45-.03-.89-.04-1.34-.03-.98-.06-1.91-.09-2.8,0-.18-.02-.36-.02-.53-.03-.91-.07-1.78-.12-2.59-.04-.72-.09-1.41-.14-2.06-.06-.81-.14-1.57-.23-2.28-.03-.28-.07-.54-.11-.8-.08-.57-.17-1.09-.28-1.59-.02-.12-.05-.25-.08-.36-.08-.39-.18-.76-.3-1.11-.06-.19-.12-.38-.18-.56-.28-.84-.64-1.56-1.08-2.17-.09-.14-.19-.28-.3-.41-.13-.15-.26-.3-.4-.44-.28-.28-.58-.52-.9-.75-.34-.24-.72-.45-1.14-.63-.1-.05-.22-.09-.33-.13-.06-.03-.13-.06-.2-.07-3.29-1.19-8.49-.92-16.82-.31-4.87.36-9.75.65-14.62.89-2.45.11-4.9.22-7.34.32-2.44.1-4.88.19-7.33.25-1.22.05-2.44.08-3.66.1-2.06.05-4.12.1-6.18.13-.38.01-.76.01-1.14.02-1.95.03-3.9.06-5.86.08-2.19.03-4.39.04-6.58.05-23.1.11-46.2-.47-69.3-.82-2.98-.04-5.95-.08-8.93-.12-.53,0-1.02-.04-1.48-.12-.15-.01-.3-.04-.44-.08-.29-.05-.56-.12-.82-.21-.25-.07-.49-.16-.71-.27-.04-.02-.08-.04-.11-.05-.17-.07-.33-.16-.48-.26-.15-.09-.29-.18-.43-.29-.14-.1-.28-.2-.41-.32-.03-.02-.05-.05-.08-.07-.13-.11-.25-.23-.36-.36-.13-.14-.26-.29-.38-.45-.13-.16-.24-.33-.35-.5-.26-.39-.47-.8-.66-1.23-.49-1.1-.84-2.32-1.19-3.58-3.88-13.98-5.58-28.33-6.84-42.72-1.27-14.5-1.76-28.9-1.34-43.16.02-.8.05-1.61.08-2.42.03-.83.06-1.65.1-2.48.03-.77.07-1.54.11-2.31,0-.12,0-.24.02-.36.04-.84.09-1.69.14-2.53.01-.09.01-.18.02-.28.17-2.74.38-5.48.62-8.22,0-.03,0-.06.01-.1.05-.75.12-1.5.2-2.24.1-1.03.2-2.05.31-3.07.08-.81.17-1.62.27-2.43.16-1.45.34-2.91.53-4.36.06-.52.13-1.04.2-1.55.31-2.32.65-4.64,1.02-6.95.4-2.5.84-4.99,1.3-7.48.47-2.48.97-4.96,1.5-7.44.27-1.24.55-2.47.83-3.71.58-2.47,1.18-4.93,1.82-7.39.6-2.3,1.24-4.6,1.9-6.89.31-1.07.63-2.14.96-3.21.3-.99.61-1.98.92-2.97.31-.99.63-1.97.96-2.96.1-.32.2-.64.32-.95.3-.9.61-1.8.92-2.7.37-1.06.74-2.12,1.12-3.18.77-2.12,1.56-4.24,2.39-6.35.95-2.41,1.93-4.8,2.95-7.2,1.02-2.4,2.09-4.79,3.19-7.17.34-.73.69-1.46,1.04-2.19.21-.45.43-.89.65-1.32.33-.68.67-1.36,1.02-2.03.29-.58.59-1.14.89-1.71.07-.14.15-.28.23-.42.15-.31.32-.62.49-.92.05-.1.11-.2.16-.3.38-.7.76-1.39,1.16-2.07.96-1.69,1.95-3.36,2.99-5,.02-.02.03-.05.04-.07.6-.95,1.21-1.88,1.83-2.81,0-.01,0-.02.02-.03.5-.76,1.01-1.51,1.54-2.25l.36-.51c.45-.64.89-1.26,1.36-1.88.55-.75,1.11-1.5,1.69-2.23.24-.31.47-.61.72-.92.36-.47.74-.95,1.14-1.41.38-.47.77-.93,1.15-1.39.78-.93,1.58-1.84,2.39-2.74.41-.48.84-.95,1.29-1.42.63-.69,1.29-1.38,1.95-2.05t.02-.02c.55-.56,1.11-1.12,1.68-1.65.08-.1.15-.17.23-.23.24-.23.47-.45.71-.68.25-.26.51-.5.76-.72.06-.06.12-.11.17-.15.23-.24.47-.45.71-.67.09-.08.17-.15.26-.23.19-.18.39-.34.58-.5.19-.16.37-.3.56-.44,0-.02.03-.03.04-.03.12-.09.23-.18.35-.25.25-.17.49-.32.74-.46,0-.01.01-.01.01-.01.38-.2.75-.38,1.12-.52.12-.06.25-.1.38-.14.19-.06.38-.11.57-.16.39-.09.78-.15,1.18-.18,1.21-.09,2.49.09,3.96.51,12.87,3.66,26.04,5.01,39.41,4.07.93-.06,1.87-.12,2.8-.2.79-.06,1.57-.13,2.35-.22.37-.04.75-.09,1.13-.15.38-.05.76-.11,1.14-.18.31-.05.61-.11.91-.18.26-.05.51-.11.76-.17.13-.03.26-.06.39-.1.46-.12.91-.25,1.37-.41.14-.04.28-.09.42-.15.27-.09.54-.2.81-.31.19-.08.37-.16.56-.25.32-.14.65-.3.97-.48.28-.15.56-.3.83-.47-10.34-3.57-21.05-2.12-31.54-1.78-11.76.37-22.27-1.91-32.11-8.5-1.69-1.14-7.77-7.87-7.87,2.03,3.75,3.73.2,5.72-2.09,7.58-8.87,7.21-14.93,16.59-20.65,26.25-15.87,26.81-24.32,56.07-28.11,86.76-.59,4.74-2.27,8.07-5.77,11.23-10.77,9.75-20.11,20.5-25.65,34.36-5.97,14.95.14,31.63,15.16,38.91,11.5,2.28,17.08,8.66,17.13,21,.03,8.12,2.33,16.35,4.52,24.29,1.52,5.51,4.05,10.68,11.66,10.7,46.32.13,92.63,2.21,138.95.07,1.77-.08,3.55-.01,5.31.12,2.67.18,4.72,1.62,4.82,4.27.19,5.02,1.32,10.16-.09,15.4-4.33-2-7.67-3.82-11.21-5.08-2.53-.91-5.31-.97-7.09,1.82-1.95,3.05.41,4.81,1.97,6.92,2,2.69,6.16,3.01,7.84,6.9-2.49.7-4.41,1.42-6.39,1.77-18.5,3.27-35.99,9.25-51.49,20.06-8.11,5.66-14.26,13.33-12.43,23.76,1.89,10.81,10.93,14.9,20.62,16.68,19.61,3.59,39.45,2.95,59.09.89,13.6-1.43,27.84-1.35,40.12-9.15,1.63-1.04,3.35-.88,5.03.03,14.14,7.64,29.87,8.85,45.31,10.63,23.46,2.69,47.04,4.3,70.67,2.31,10.62-.89,18.34-6.44,21.73-16.74,3.36-10.21-3.05-16.66-9.78-22.77-14.02-12.73-30.95-19.04-49.26-22.29-2.3-.41-5.42-.41-6.22-2.54-1-2.67,2.31-3.62,3.92-5.19,2.52-2.47,5.26-4.77,7.43-7.53,2.66-3.39,4.37-7.47,1-11.26-3.3-3.73-7.67-2.9-11.31-.58-4.31,2.75-8.17,6.18-13.3,10.16,0-5.26.38-9.35-.09-13.33-.76-6.42,1.22-8.46,8.09-8.53,34.23-.38,68.45-1.26,102.67-2.29,15.29-.46,30.65,1.18,45.9-1.86,5.28-1.06,7.72-3.59,8.27-8.62,1.21-11.13,2.61-22.25,3.67-33.4,2.41-25.52,4.67-51.05,6.98-76.57.02-10.22.04-20.44.05-30.66-1.82-6.65-1.42-13.47-1.51-20.25-3.31-17.53-8.42-34.34-18.66-49.29-3.15-4.61,1.95-5.69,4.27-7.84,1.22-1.06,2.44-2.13,3.66-3.19,9.68-8.5,18-18.23,33.62-16.57,7.4.78,9.66-7.86,9-15.32ZM197.22,411.57c-4.34-1.84-8.84-3.97-11.05-8.26-.97-1.88,2.04-2.58,3.63-2.3,4.91.87,8.59,3.52,10.47,7.98-.32,2.12-1.45,3.25-3.05,2.58ZM222.27,397.29c.24.39.49.82.75,1.28-.08-.98-.36-1.34-.75-1.28Z"/>
      <path class="cls-4" d="M425,177.35c-2.25.47-4.66.12-6.99.15h0c-.6-.15-1.2-.3-1.81-.45-1.2-.54-2.4-1.08-3.6-1.63-6.59-4.75-12.88-9.84-18.1-16.13,2.45-10.87,10.65-15.37,20.93-11.3,6.76,2.68,11.76,7.59,15.87,13.43,4.5,6.41,1.42,14.31-6.29,15.93Z"/>
      <path class="cls-4" d="M331.72,444.76c-3.89-2.98-10.69-5.76-10.26-9.73.47-4.38,6.54-7.48,12.01-8.36,3.3.82,7.23.35,8.39,4.68.32,1.22-9.53,13.87-10.14,13.41Z"/>
      <path class="cls-4" d="M321.82,426.38c.02,2.31-3.28,5.61-6.26,4.67-3.17-1-6.63-3.55-7.19-7.08-.46-2.89,2.65-2.14,5.1-1.92,1.86,2.89,8.31-1.68,8.35,4.33Z"/>
      <path class="cls-4" d="M327.55,452.63c-3,5.73-2.92,12.92-7.8,17.49-2.59,2.42-6.22-.61-9.37-.3-16.59,1.62-27.09-4.36-30.07-21.95-1.14-6.78-7.01-11.35-12.2-15.82-2.58-2.22-6.1-3.64-7.55-8.54,11.94,1.61,22.95,2.77,33.89-1.43,5.09-1.95,14.26,4.81,15.71,11.27,1.36,6.09-3.38,6.77-7.8,8.12-4.42,1.34-5.36,5.25-3.89,9.34,1.54,4.31,5.21,5.28,9.35,4.81,5.12-.57,5.01-3.76,4.01-7.72-.82-3.24-.86-6.81,2.63-8.57,3.85-1.94,5.97,1.44,8,3.78,2.43,2.8,7.05,5.78,5.09,9.52Z"/>
      <path class="cls-4" d="M174.73,434.65c-3.29,3.03-6.11,8.09-10.5,7.79-3.55-.24-7.06-5.59-6.64-9.09.59-4.82,6.37-5.54,10.48-6.12,4.6-.65,4.73,4.19,6.66,7.42Z"/>
      <path class="cls-4" d="M195.17,422.03c-.27,2.75-14.93,11.07-17.3,9.64-2.01-1.21-3.95-3.02-3.81-5.51.11-1.95,2.26-2.29,3.98-2.7,4.55-1.08,9.08-2.2,13.6-3.4,1.9-.49,3.5-.77,3.53,1.97Z"/>
      <path class="cls-4" d="M225.38,426.89c-10.65,8.28-16.32,19.08-16.79,32.54-.12,3.14-1.59,4.91-4.52,5.61-7.13,1.72-14.27,3.4-21.41,5.09-4.13.08-7.06-1.45-8.25-5.43-1.35-4.54-3.2-8.78-5.8-12.76-1.45-2.21-2.71-4.97.01-7.11,2.7-2.12,5.4-5.35,9.12-4.44,3.12.75,2.45,4,2.28,6.74-.27,4.17,2.72,5.85,6.22,5.71,4.6-.19,7.78-2.91,8.38-7.59.48-3.71-1.11-6.38-5.42-6.19-2.27.09-4.13-.43-4.82-2.8-.5-1.7.69-2.92,1.95-3.58,11.63-6.15,21.74-16.73,36.91-12.67,1.65.45,3.83-.13,4.65,1.77,1.03,2.39-1.02,3.95-2.51,5.11Z"/>
      <path class="cls-1" d="M156.06,129.44c-10.33-3.57-21.05-2.11-31.54-1.78-11.76.37-22.27-1.91-32.11-8.5-1.69-1.14-7.77-7.87-7.88,2.03-4.86-3.41-7.67-4.52-9.68,3.46-3.46,13.79-15.73,20.21-29.47,17.14-14.44-3.22-23.01-15.14-21.01-29.21,1.43-10.07,10.05-17.98,22.53-16.72,11.85,1.19,17.96-3.35,25.75-11.63,25.41-27.03,58.41-39.91,94.62-45.36,22.27-3.35,44.1-2.15,65.27,6.03,2.08.8,3.7,1.02,5.79-.1,14.03-7.52,29.37-10.8,44.96-12.08,35.53-2.9,70.67-1.87,104.19,12.72,17.66,7.68,31.83,18.96,40.5,36.4,2.25,4.52,4.58,6.78,10.14,4.98,12.99-4.21,24.06-.4,31.95,10.46,4,5.51,6.02,12.34,4.66,19.55-3.32-3.8-5.66-2.06-6.83,1.65-1.66,5.29-3.72,10.4-4.13,16.17-.43,6.05-3.42,10.03-10.9,7.4-3.48-1.23-8.13.24-11.19-1.44-6.81-3.76-15-6.95-14.79-17.14.04-1.87-.03-4.59-3.09-4.32-2.33.2-2.1,2.39-2.37,4.11-.98,6.39-5.48,7.7-11.13,8.6-23.94,3.79-47.65-2.47-71.59-1.33-8.1.38-16.61-4.08-24.38-8.15-5.17-2.71-10.84-4.93-16.89-2.02-24.31-9.08-41.91-25.55-53.84-48.44-4.44-8.52-5.01-8.48-10.75-.56-12.08,16.64-26.94,30.48-43.82,41.97-10.12,6.89-20.29,14.27-33,16.11ZM433.8,100.04c-8.33,9.4-5.2,18.86-.12,28.32,6.27,10.77,11.09,11.86,21.91,4.53,8.86-6,10.41-15.1,9.69-24.89-.49-6.67-3.42-11.88-10.19-13.93-8.27-2.5-15.63-1.14-21.3,5.96ZM143.33,53.1c-2.3,1.11-4.5,2.74-6.93,3.26-23.68,5.03-42.22,18.64-58.7,35.42-7.98,8.12-7.76,8.68,1.18,15.4,22.06,16.58,47.42,23.48,73.39,15.06,30.7-9.96,54.26-31.26,72.64-57.9,7.72-10.39,7.46-11.24-4.65-14.94-26.09-7.96-51.58-3.64-76.93,3.71ZM371.99,128.54c8.37.43,16.74.95,25.11,1.26,5.23.19,10.47.09,14.55-4.03,3.06-1.22,5.28-3.27,6.36-6.44,3.27-4.01,4.22-9,5.2-13.79,1.25-6.07,4.46-12.58-1.65-18.07-7.76-15.24-19.07-27.42-34.88-33.7-43.91-17.46-88.77-19.36-134.16-5.65-6.45,1.95-8.14,5.53-5.45,11.94,7.78,18.48,19.49,33.55,36.8,43.99,27.09,16.34,56.15,25.61,88.1,24.49ZM66.71,116.83c.21-9.06-5.55-14.15-16.16-14.31-9.47-.14-17.92,6.99-18.27,15.4-.33,8.1,7.6,16.15,16.26,16.51,9.53.4,17.94-7.76,18.17-17.61Z"/>
      <path class="cls-5" d="M332.74,175.69c-6.13-2.6-12.46-.67-18.65-.48-2.88.09-5.24,3-3.44,6.49,1.77,3.42,4.86,5.36,8.66,3.58,2.88-1.34,5.46-3.26,8.83-3.16,2.08.75,4.29,2.19,6.05-.36,1.67-2.43-.36-4.19-1.46-6.07ZM315.39,161.37c-2.79,1.08-5.44,1.66-8.5.31-2.94-1.3-5.02.86-6.58,3.14-1.25,1.83-.24,3.4,1.11,4.66,1.85,1.74,3.36,4.59,6.61,3.06,3.24-1.52,6.45-2.81,10.15-2.61,2.54.14,4.67-.85,5.44-3.55.6-2.12.44-4.3-1.41-5.65-2.32-1.7-4.83-2.32-6.84.66l.02-.03ZM157.19,220.09c3.49,11.53,5.68,23.16,6.14,35.34.59,15.84.64,31.88,5.98,47.2,5.34,15.33,16.69,22.76,32.08,25.38,17.36,2.96,30.56-1.78,38.7-18.56,6.44-13.27,8.56-27.48,11.17-41.65,3.54-19.16,7.29-38.26,16.59-55.67,1.81-3.38,3.15-7.77,9.02-6.56,4.42.92,4.52-2.19,3.71-5.61-1.91-8.06-12.4-14.07-23.22-12.83,1.42,2.66,8.06,4.22,2.99,8.07-13.83,10.52-25.77,23.41-40.87,32.34-10.96,6.48-21.88,5.83-32.91.48-3.17-1.54-6.21-3.35-9.31-5.03-3.21-3.05-6.71-5.66-10.98-7.06-1.13-1.14-2.25-2.28-3.38-3.43-.29-3.75-2.63-6.55-4.85-9.16-2.1-2.47-5.6-2.75-8.07-.95-2.76,2.01.27,4.09,1.18,5.98,1.9,3.96,4,7.82,6.01,11.72ZM237.15,141.48c-.06,10.78,2.24,14.89,8.52,16.21,6.89,1.45,14.77-2.72,17.8-9.93,2.27-5.42,3.41-11.19,3.44-17.13.03-5.83-2.04-10.36-7.74-12.53-5.56-2.11-10.46-.41-14.52,3.51-5.88,5.67-7.82,12.9-7.5,19.87ZM184.09,142.43c-.02,9.37,2.62,14.05,8.65,15.29,6.97,1.44,14.92-2.62,17.9-9.83,2.47-5.97,3.66-12.35,3.2-18.9-.36-5.07-2.45-8.99-7.49-10.86-4.84-1.79-9.28-.98-13.15,2.31-6.77,5.75-9.15,13.38-9.1,21.98ZM159.31,172.37c-2.43.32-3.54,2.01-3.47,4.23.09,2.74,1.88,4.27,4.59,4.23,2.43-.04,3.87-1.7,3.64-4-.26-2.56-2.08-4.05-4.75-4.45ZM148.42,184.26c-1.39.24-3.18.74-3.06,2.97.15,2.72,2.05,4.1,4.61,4.33,1.97.18,3.62-.9,3.54-2.91-.11-2.67-2.04-4-5.09-4.39ZM340.29,163.12c-1.92.38-3.31,1.57-3.07,3.58.3,2.51,1.72,4.61,4.57,4.3,1.99-.22,2.83-2.17,2.6-4-.27-2.18-1.52-3.8-4.1-3.87ZM127.61,175.06c0-2.3-.97-4.1-3.34-4.31-2.53-.22-3.69,1.65-3.6,3.88.1,2.27,1.64,3.78,3.93,3.88,2.18.1,2.88-1.53,3-3.45ZM147.53,168.05c-2.16-.03-3.6,1.12-3.8,2.91-.26,2.27,1.21,3.85,3.48,4.11,2.27.26,4.07-.85,4.14-3.25.06-2.4-1.91-3.27-3.82-3.77ZM161.7,158.51c-.51-2.16-1.92-3.58-4.14-3.68-2.04-.09-3.25,1.26-2.93,3.32.29,1.85,1.62,3.07,3.53,3.24,1.96.18,3.34-.64,3.54-2.88ZM138.91,155.07c-2.05.2-3.18,1.43-2.97,3.39.24,2.23,1.7,3.69,4.02,3.58,1.82-.08,3.52-1.05,3.12-3.17-.39-2.08-2.05-3.33-4.17-3.8ZM463.55,235.33c-4.7,7.53-11.66,12.41-19.68,15.58-7.47,2.95-9.2,7.49-5.74,14.47,1.95,3.95,3.82,7.94,5.68,11.93,1.04,2.21,1.85,4.52-.65,6.3-2.03,1.45-3.9.4-5.67-.78-4.73-3.14-12.26-22.59-10.88-28.08,1.04-4.2,4.52-6,7.87-7.81,5.44-2.94,10.93-5.73,15.34-10.25,4.6-4.71,6.75-10.29,6.55-16.75-.17-5.45-3.51-7.73-8.67-7.86-4.93-.13-6.9,2.46-6.7,7.14.03.88,0,1.79-.18,2.64-.73,3.2.04,8.02-5.43,7.06-4.19-.74-5.45-3.78-4.17-8.06.94-3.12.32-6.38-.3-9.61-3.78-19.64-12.76-24.4-30.6-16.08-2.22,3.56-3.25,6.66,1.56,9.35,2.72,1.53,4.8,4.18,7.17,6.33,2.33.41,3.25,2.38,4.28,4.1,1.14,1.9,1.38,4.06-.67,5.5-1.72,1.22-3.47.18-4.73-1.07-3.97-3.91-7.82-7.94-11.72-11.93-3.66-.98-7.17-1.5-10.52-1.5-.45,0-.89.01-1.33.03-.32.01-.64.03-.96.06-.21.01-.41.03-.61.05-.35.03-.7.07-1.05.12-.43.05-.85.12-1.28.2-.85.15-1.69.34-2.52.58-.21.06-.41.12-.61.18-.21.06-.41.13-.61.2-.41.14-.81.28-1.21.44-.49.2-.98.41-1.46.63-.36.17-.72.35-1.07.54-.8.42-1.58.89-2.34,1.41-.59.38-1.16.8-1.73,1.26-.57.44-1.13.92-1.68,1.43-.22.2-.43.4-.64.61s-.42.42-.63.63c-.26.27-.52.55-.78.83-.26.28-.51.57-.76.87-.51.59-1.01,1.21-1.49,1.85h0c-1.14,5.56,1.29,7.43,6.66,6.83,9.08-1,17.31,1.85,25.14,6.15,2.26,1.24,5.65,2.32,4.11,5.54-1.14,2.39-4.34,1.64-6.32.38-10.92-6.95-22.83-6.03-34.83-4.71-.75.53-1.45,1.05-2.1,1.57-.33.26-.65.51-.95.77-.61.51-1.17,1.02-1.68,1.52-.21.19-.4.39-.59.59-.18.18-.35.36-.52.55-.5.55-.93,1.1-1.3,1.63-.06.09-.12.17-.18.26-.12.17-.22.33-.31.49-.08.12-.15.24-.21.36-.1.16-.18.32-.26.48-.08.15-.15.31-.21.46-.03.06-.05.11-.07.16-.05.1-.09.2-.12.3-.07.17-.12.34-.17.51-.05.15-.09.3-.12.45-.03.12-.05.24-.07.35-.05.24-.08.48-.09.72-.02.17-.03.33-.03.5,0,.21,0,.43.03.64.02.15.04.31.07.47,0,.08.03.17.05.26.03.15.07.3.12.45.17.62.45,1.24.83,1.86.08.14.16.27.25.4.47.69,1.07,1.38,1.79,2.06.14.13.28.26.43.39.88.78,1.92,1.55,3.12,2.32.36.22.73.45,1.12.67.38.23.78.45,1.2.68.41.22.84.44,1.28.67.23.11.45.22.68.33,2.53,1.24,5.12,2.27,7.76,3.2,1.31.46,2.64.89,3.97,1.31.8.25,1.61.49,2.41.73.53.16,1.07.31,1.6.47,2.01.59,4.03,1.15,6.04,1.74,1.06.31,2.12.62,3.18.95.53.16,1.05.32,1.57.49,1.75.55,3.48,1.14,5.19,1.79,9.24,3.11,4.82,11.79,7.21,17.7l-.04-.03c2.34,2.63,1.59,6.15,2.57,9.18.63,1.94,2.41,4.91-.84,6.05-3.44,1.2-5.74-1.19-6.59-4.22-1.8-6.46-4.62-12.72-4.25-19.66h0c-.18-.16-.37-.29-.55-.39-.27-.16-.54-.28-.8-.35-.4-.12-.8-.14-1.18-.08-.13.02-.26.04-.39.08-.19.06-.38.12-.57.2-.19.08-.37.18-.56.28-.5.29-1,.66-1.48,1.04-.26.2-.51.39-.77.58-.52.37-1.04.71-1.56,1.03-.26.16-.52.31-.79.45-.52.29-1.05.55-1.59.79-.53.23-1.07.44-1.61.63-.8.27-1.61.49-2.42.66-1.8.37-3.63.48-5.47.37-.66-.04-1.33-.11-2-.2-.44-.07-.89-.15-1.33-.23-.44-.09-.89-.19-1.33-.3-1.11-.28-2.22-.63-3.32-1.04-.44-.17-.88-.34-1.32-.53-.53-.22-1.06-.45-1.58-.68-10.32-4.53-19.49-10.55-27.18-18.3-.25-.25-.51-.51-.75-.77-.28-.28-.56-.57-.82-.86-.39-.41-.76-.82-1.14-1.23-.52-.58-1.03-1.17-1.53-1.77-.24-.27-.46-.54-.69-.81-.35-.43-.69-.85-1.03-1.29-1.21-1.52-2.36-3.1-3.46-4.74-.34-.5-.68-1.01-1.01-1.53-.47-.73-.93-1.47-1.38-2.22-7.26-12.15-6.39-24.32,1.28-35.85,3.89-5.87,8.51-11.31,13.23-16.56,7.7-8.54,14.97-17.46,22.45-26.24,1.01-1.2,2.04-2.39,3.07-3.58,1.03-1.19,2.06-2.38,3.11-3.56.52-.59,1.04-1.18,1.57-1.77,1.03-1.16,2.07-2.31,3.13-3.46.61-.67,1.22-1.33,1.84-1.99.4-.43.81-.86,1.22-1.29,1.7-1.8,3.43-3.58,5.2-5.33.99-.99,2.01-1.98,3.03-2.95h.01c-.12-.09-.25-.17-.37-.24-.12-.08-.24-.15-.37-.23-.24-.14-.48-.27-.72-.39-.21-.11-.41-.21-.62-.3-.03-.02-.06-.03-.1-.04-.24-.1-.48-.19-.72-.28-.33-.12-.67-.23-1.01-.31-.13-.04-.26-.07-.39-.1-.34-.08-.69-.15-1.03-.2-.27-.04-.53-.08-.8-.11-.19-.02-.39-.04-.58-.05-.21-.03-.41-.04-.61-.05-.33-.03-.66-.04-.98-.05-.62-.03-1.24-.04-1.85-.06-.55-.01-1.1-.04-1.64-.08-.31-.02-.63-.05-.94-.09-2.01-.25-4.01-.51-6.01-.78-.96-.12-1.91-.25-2.87-.39-.92-.13-1.84-.26-2.76-.39-.97-.14-1.94-.28-2.9-.43-.97-.14-1.93-.29-2.9-.45-1.51-.24-3.03-.49-4.54-.76-.04,0-.09-.01-.14-.02-1.46-.26-2.92-.52-4.38-.8-.81-.16-1.63-.32-2.45-.49-.95-.19-1.9-.39-2.85-.6-2.32-.5-4.63-1.04-6.93-1.62-.71-.18-1.42-.37-2.12-.56-.65-.17-1.3-.34-1.94-.53-.53-.14-1.05-.29-1.57-.45-.53-.15-1.05-.3-1.57-.46-2.84-.86-5.66-1.79-8.45-2.82-1.39-.52-2.79-1.06-4.17-1.62-2.77-1.13-5.51-2.36-8.22-3.7-.67-.33-1.34-.67-2.01-1.02-.01,0-.01-.01-.02-.01-24.31-9.08-41.91-25.55-53.84-48.44-4.43-8.52-5-8.48-10.75-.56-12.08,16.64-26.94,30.48-43.82,41.97-10.12,6.89-20.29,14.26-32.99,16.11,0,0-.01,0-.01.01-.27.17-.55.32-.83.47-.32.18-.65.34-.97.48-.19.09-.37.17-.56.25-.27.11-.54.22-.81.31-.14.06-.28.11-.42.15-.46.16-.91.29-1.37.41-.13.04-.26.07-.39.1-.25.06-.5.12-.76.17-.3.07-.6.13-.91.18-.38.07-.76.13-1.14.18-.38.06-.75.11-1.13.15-.78.09-1.56.16-2.35.22-.93.07-1.87.13-2.8.19-13.37.94-26.54-.41-39.4-4.07-1.47-.42-2.77-.6-3.97-.5-.4.02-.79.08-1.18.18-.19.05-.38.1-.57.16-.13.04-.26.08-.38.14-.38.14-.75.31-1.12.52,0,0-.01,0-.01.01-.25.14-.49.29-.74.46-.12.08-.23.16-.35.25-.01,0-.03.01-.04.03-.19.14-.37.28-.56.44-.19.15-.39.31-.58.49-.09.08-.18.16-.26.24-.24.22-.48.43-.71.67-.06.03-.11.08-.17.15-.25.22-.51.46-.76.72-.24.23-.47.45-.71.68-.08.06-.15.13-.23.23-.57.53-1.13,1.09-1.68,1.65t-.02.02c-.66.68-1.31,1.36-1.95,2.05-.45.47-.88.94-1.29,1.42-.83.9-1.62,1.81-2.39,2.74-.38.46-.77.92-1.15,1.39-.4.46-.78.94-1.14,1.41-.25.31-.48.61-.72.92-.58.73-1.14,1.48-1.69,2.23-.46.62-.91,1.25-1.36,1.88l-.36.51c-.52.75-1.04,1.5-1.54,2.25-.01.01-.02.02-.02.03-.62.93-1.23,1.86-1.83,2.81-.01.02-.02.05-.04.07-1.03,1.64-2.03,3.31-2.99,5-.39.68-.78,1.37-1.16,2.07-.05.1-.11.2-.16.3-.17.3-.34.61-.49.92-.08.14-.16.28-.23.42-.3.57-.6,1.14-.89,1.71-.35.67-.69,1.35-1.02,2.03-.22.43-.44.87-.65,1.32-.35.73-.7,1.46-1.04,2.19-1.1,2.38-2.17,4.77-3.19,7.17-1.02,2.39-2.01,4.79-2.95,7.2-.83,2.11-1.62,4.23-2.39,6.35-.38,1.06-.75,2.12-1.12,3.18-.31.9-.62,1.8-.92,2.7-.12.31-.22.63-.32.95-.33.99-.65,1.97-.96,2.96-.31.99-.62,1.98-.92,2.97-.33,1.07-.65,2.14-.96,3.21-.66,2.29-1.3,4.59-1.9,6.89-.64,2.46-1.25,4.92-1.82,7.39-.28,1.24-.56,2.47-.83,3.71-.53,2.48-1.04,4.96-1.5,7.44-.47,2.49-.9,4.98-1.3,7.48-.37,2.31-.71,4.63-1.02,6.95-.07.51-.14,1.03-.2,1.55-.19,1.45-.37,2.91-.53,4.36-.1.81-.19,1.62-.27,2.43-.11,1.02-.21,2.04-.31,3.07-.08.74-.15,1.49-.2,2.24-.01.04-.01.07-.01.1-.25,2.73-.46,5.47-.62,8.22,0,.1,0,.19-.02.28-.05.84-.1,1.69-.14,2.53-.01.12-.01.24-.02.36-.04.77-.08,1.54-.11,2.31-.04.83-.07,1.65-.1,2.48-.03.81-.06,1.62-.08,2.42-.42,14.26.07,28.66,1.34,43.16,1.26,14.39,2.96,28.74,6.84,42.72.35,1.26.7,2.48,1.19,3.58.19.43.41.84.66,1.23.11.17.22.34.35.5.12.16.25.31.38.45.11.13.23.25.36.36.03.02.05.05.08.07.13.12.27.22.41.32.14.11.28.2.43.29.15.09.31.17.48.26.03.01.07.03.11.05.23.1.46.19.71.27.26.08.53.15.82.21.14.03.29.05.44.08.46.06.95.1,1.48.11,2.98.04,5.95.08,8.93.13,23.1.35,46.2.93,69.3.82,2.19,0,4.39-.02,6.58-.05,1.96-.02,3.91-.05,5.86-.08.38,0,.76,0,1.14-.02,2.06-.03,4.12-.08,6.18-.13,1.22-.03,2.44-.06,3.66-.1,2.44-.07,4.89-.15,7.33-.25,2.44-.1,4.89-.21,7.34-.32,4.87-.25,9.75-.54,14.62-.9,8.33-.61,13.54-.88,16.82.32.07.01.14.04.2.07.11.04.23.08.33.13.42.18.8.39,1.14.63.33.22.63.47.9.75.14.14.27.29.4.44.11.13.21.27.3.41.44.61.8,1.33,1.08,2.17.07.18.13.37.18.56.12.35.22.72.3,1.11.03.12.06.24.08.36.11.5.2,1.02.28,1.59.04.26.08.52.11.8.09.71.17,1.47.23,2.28.05.65.1,1.34.14,2.06.05.81.09,1.68.12,2.59.01.17.02.35.02.53.03.89.06,1.82.09,2.8.01.45.03.89.04,1.34.02.43.04.87.06,1.3h0c.4-.29.8-.59,1.19-.9.18-.14.36-.27.53-.4.63-.49,1.26-.97,1.89-1.44.4-.3.81-.6,1.22-.9.21-.15.43-.3.64-.45.22-.15.43-.3.65-.44,1.52-1.01,3.09-1.76,4.81-1.45.27.05.53.12.81.23h0c.27.1.55.23.83.4.28.16.57.36.86.59.19.15.36.29.51.44.08.06.15.14.22.22.08.07.15.15.21.22.26.3.46.6.61.9,1.15,2.2-.22,4.5-1.16,6.8.01.11.01.23.01.34h0c0,.64-.01,1.26-.07,1.85-.03.31-.08.61-.14.9,0,.04-.02.08-.03.12-.06.27-.14.54-.24.79,0,.04-.03.08-.05.12-.1.28-.24.54-.41.79-.17.26-.37.51-.61.73-.06.06-.13.12-.2.18-.11.09-.23.18-.35.25-.22.16-.47.3-.74.42-.18.08-.36.16-.55.22h-.01c-.2.07-.4.13-.61.18-1.06,2.27-5.18,4.46-.77,7.05.18.1.36.2.55.29.33.17.68.31,1.05.44.25.08.52.16.78.23.28.07.57.13.86.18.2.03.4.06.6.08.18.02.37.04.56.05.02,0,.04,0,.07,0,.26.02.52.03.78.03s.5-.01.75-.02c.17,0,.35-.02.53-.04.18-.01.35-.03.53-.06.08-.01.16-.02.24-.03.39-.05.78-.12,1.17-.2.01-.01.01,0,.01,0,.43-.1.86-.21,1.29-.33.22-.07.43-.14.65-.2.86-.29,1.7-.64,2.51-1.04.61-.31,1.2-.64,1.77-1.01.19-.12.38-.24.57-.37.36-.25.72-.52,1.06-.79.18-.15.36-.29.53-.43.33-.3.64-.6.94-.9.31-.31.59-.63.86-.96.28-.35.54-.71.78-1.07.1-.15.2-.31.29-.47.11-.19.22-.38.32-.57.07-.14.13-.27.19-.41.36-.76.61-1.56.74-2.37.84-5.2.98-10.5,1.37-15.77.03-.41.06-.84.1-1.26.02-.26.04-.51.08-.76.02-.25.06-.51.1-.75.13-.8.32-1.57.62-2.23.05-.12.11-.23.18-.34.06-.11.12-.22.2-.32,0-.02.01-.03.02-.04.06-.09.13-.18.2-.26.08-.1.16-.19.26-.28.13-.13.27-.25.42-.35.07-.06.15-.11.24-.15.16-.1.34-.18.52-.25.1-.04.2-.07.3-.1.4-.12.86-.19,1.38-.19.18,0,.35,0,.51.02.16,0,.31.02.45.04.02,0,.04,0,.05.01.14.01.27.04.4.07.14.03.27.06.4.11.2.06.39.13.57.23t0,0c.26.12.48.27.69.45.07.05.13.11.2.18.19.18.36.38.5.61.06.07.1.15.14.23.1.15.17.31.24.48.08.17.14.34.19.52.03.09.06.19.08.28.15.55.23,1.14.28,1.74.08.95.07,1.95.06,2.88-.03,3.05-.15,6.1-.28,9.15-.12,3.11-.26,6.22-.34,9.33-.02.9-.08,1.83-.03,2.71,0,.12.01.23.02.35.01.17.03.33.06.49.02.17.05.33.09.48.03.13.07.25.11.37.02.09.05.17.09.25,0,0,0,.02,0,.02.02.07.05.14.08.2.1.21.21.41.36.59.06.09.13.18.2.26.09.1.19.2.29.28.1.09.21.18.33.26s.25.16.38.24c.41.22.9.4,1.48.53,7.45,1.27,14.93,1.95,22.52,1.74,4.28-.11,7.53-.96,8.14-5.85-.37-.99-.73-1.97-1.09-2.95,0,0,0,0-.01,0h0c-3.45-5.54-1.42-9.85,4.33-10.5,6.8-.76,7.4-4.4,7.09-9.6-.14-2.35.06-4.72-.04-7.07-.29-7.03,2.98-10.26,10.07-10.18,29.12.36,58.17-2.97,87.32-1.85,2.76-2.53,6.17-1.56,9.32-1.58,16.83-.1,33.67-.17,50.5-.03,4.72.04,7.05-.68,7.97-6.45,4.84-30.52,7.84-61.15,8.78-92.04.24-7.89,1.69-15.77,1.52-23.74-.09-4.09-1.22-6.93-5.71-7.41Z"/>
      <path class="cls-3" d="M405.41,178.21c-.66-.38-1.31-.77-1.93-1.16-.39-.25-.77-.48-1.14-.72-.74-.48-1.46-.95-2.14-1.42-.52-.36-1.01-.71-1.49-1.06-.24-.17-.48-.34-.71-.52-.23-.17-.46-.35-.68-.52-.58-.45-1.14-.91-1.67-1.37-.27-.23-.53-.46-.78-.68-.5-.45-.97-.9-1.4-1.35-.33-.34-.63-.67-.93-1-.15-.17-.3-.34-.43-.51-.14-.17-.28-.33-.41-.5-.17-.22-.34-.45-.5-.67-.44-.61-.82-1.22-1.15-1.84-.08-.14-.15-.28-.21-.41-.24-.5-.45-.99-.62-1.48-.05-.14-.09-.27-.13-.4-.06-.19-.11-.38-.16-.56-.05-.19-.09-.39-.13-.59-.24-1.21-.27-2.43-.11-3.67.07-.52.18-1.03.32-1.56.07-.26.15-.53.23-.8.17-.53.38-1.07.62-1.61.12-.27.25-.54.39-.82.27-.56.58-1.11.92-1.68.34-.56.71-1.13,1.12-1.71.41-.58.85-1.17,1.32-1.76.47-.6.97-1.21,1.51-1.82.49-2.3.95-4.59-2.61-4.61-1.71.65-3.15,1.66-4.45,2.84-.32.3-.64.6-.95.91s-.61.63-.91.95c-.59.64-1.17,1.3-1.75,1.94-11.11,12.46-22.08,25.04-33.09,37.6-8.86,10.11-18.31,19.78-24.24,32.11,4.31-3.38,8.18-6.04,11.72,1.29,1.47,3.04,5.72,3.6,9.35,4.97-.66,1.55-1.72,2.77-2.91,3.89-1.2,1.12-2.53,2.12-3.7,3.19-1.81,1.68-3.26,3.59-3.28,6.49h.01s1.29-1.15,1.29-1.15c1.73-1.54,3.44-3.11,5.19-4.63.44-.38.88-.75,1.32-1.12.37-.31.75-.62,1.13-.92.52-.42,1.05-.83,1.59-1.23,2.26-1.68,4.32-3.04,3.5-6.26-.03-.13-.07-.25-.11-.37-.02-.08-.05-.16-.08-.23-.27-.69-.65-1.11-1.1-1.37-.06-.04-.12-.07-.19-.1-.07-.03-.14-.06-.22-.09-.22-.08-.46-.13-.71-.16-.77-.1-1.62,0-2.43,0h-.02c-.33,0-.65-.01-.95-.07-5.05-.93-9.54-2.65-7.92-9.04,2.05-8.09,11.64-10.84,17.91-5.3,1.46,1.29,2.11,3.65,4.68,1.45,7.98-6.82,17.7-8.71,28.03-9.24-.09-.29-.18-.57-.27-.86-.52-1.57-1.03-3.15-1.31-4.67-.03-.18-.06-.36-.09-.53-.02-.13-.03-.26-.05-.38-.09-.79-.1-1.57,0-2.33.04-.25.09-.5.15-.75.06-.24.14-.49.24-.73.07-.18.15-.35.24-.53.09-.18.19-.35.3-.53.07-.11.15-.23.23-.34.25-.35.54-.68.88-1,.22-.22.47-.43.73-.64,4.11-3.21,8.81-4.8,13.6-.84,2.62-.15,5.19-.47,7.47-2.09-2.14-1.14-4.12-2.25-5.94-3.33ZM372.29,197.71c-.21.14-.42.26-.65.37s-.46.22-.7.32c-.6.24-1.25.43-1.92.6-.27.07-.54.13-.81.18-.96.2-1.96.36-2.92.51-4.69-.63-9.65-1.2-10.87-7.01-.79-3.74,7.87-10.52,12.9-9.92,5.43.65,7.03,5.64,7.34,9.69,0,.11.02.22,0,.33.1,2.46-.87,3.96-2.38,4.93ZM380.73,182.33c-5.71.24-9.42-.76-9.08-6,.37-5.61,3.51-9.65,9.26-10.14,5.56-.47,8.08,4.1,8.26,8.46.24,6.02-4.91,7.2-8.44,7.68Z"/>
      <path class="cls-3" d="M349.29,472.62c-20.16-.67-21.54-2.99-12.88-18.95,2.11-3.88,4.51-7.6,6.83-11.36,5.38-8.71,8.65-9.76,17.14-4.43,4.99,3.13,9.12,7.57,12.18,12.61,3.92,6.46.13,15.52-7.86,18.76-5.45,2.21-11.29,3.28-15.41,3.36Z"/>
      <path d="M463.55,235.33c-4.7,7.54-11.66,12.41-19.67,15.58-7.47,2.95-9.2,7.49-5.75,14.47,1.95,3.95,3.82,7.94,5.69,11.93,1.03,2.21,1.85,4.52-.65,6.3-2.03,1.45-3.9.4-5.68-.78-4.73-3.14-12.25-22.59-10.88-28.08,1.05-4.2,4.53-6,7.88-7.81,5.44-2.94,10.92-5.73,15.34-10.25,4.6-4.71,6.75-10.29,6.54-16.75-.17-5.45-3.51-7.73-8.67-7.86-4.93-.13-6.9,2.46-6.7,7.14.04.88.01,1.79-.18,2.64-.72,3.2.05,8.03-5.43,7.06-4.19-.74-5.45-3.78-4.16-8.06.94-3.12.31-6.38-.31-9.61-3.78-19.64-12.76-24.4-30.6-16.09,3.59-6.73,8.97-8.65,16.23-6.44,10.06,3.07,16.91,10.17,17.27,18.73.23,5.42.04,10.86.04,16.76,4.68-1.18,5.01-3.91,5.2-6.42.6-8,5.07-9.97,12.13-8.05,3.18.86,6.48,2.4,7.53-2.65,8.13,8.3,7.56,18.08,4.82,28.23Z"/>
      <path class="cls-3" d="M155.27,468.49c-7.03-.19-14.1.21-19.78-5.37-5.88-5.78-6.39-11.25-1.19-17.78,12.72-15.97,19.56-15.08,27.39,3.56,1.47,3.51,3.06,6.99,4.32,10.58,3.2,9.09,2.91,9.43-6.35,9.03-1.46-.07-2.93,0-4.4,0Z"/>
      <path class="cls-3" d="M248.24,423.62c17.29,8.45,24.76,23.24,30.57,39.29,1.34,3.69.03,4.94-3.78,4.02-7.15-1.72-14.36-3.23-21.5-4.97-3.06-.75-5.23-2.56-5.57-6.02-1.03-10.52-2.74-21.03.29-32.31Z"/>
      <path class="cls-5" d="M29.6,288.4c.59,8.78,1.23,17.56,1.72,26.35.14,2.55.93,5.65-2.08,7.07-2.73,1.28-5.1-.67-7.29-2.03-10.36-6.42-13.93-15.88-10.68-28,2.26-8.43,7.36-15.26,12.49-22.07,1.1-1.46,2.44-2.85,4.36-2.33,2.63.71,2.18,3.18,2.21,5.14.09,5.28.03,10.57.03,15.85-.26.01-.51.02-.77.03Z"/>
      <path class="cls-3" d="M446.88,162.69c3.3,4.82,6.93,9.45,9.83,14.5,5.06,8.8-4.61,25.95-14.97,27.28-1.71.22-3.06.13-3.69-1.28-3.52-7.84-10.71-13.04-14.63-20.57,7.41.81,11.54-3.78,15.17-9.2,3.48-1.79,2.55-5.13,2.3-7.82-.65-6.93,2.94-4.17,6-2.91Z"/>
      <path class="cls-5" d="M463.55,235.33c2.73-10.15,3.3-19.94-4.82-28.24.35-6.53,6.49-10.29,7.35-18.31,4.15,7.14,4.36,13.25,4.56,19.21,1.67,49.35-1.18,98.44-8.45,147.29-1.2,8.07-1.73,14.69-13.56,12.14-9.02-1.94-18.78-.49-28.21-.55-9.76-.1-19.5-.2-29.25-.3,2.76-2.52,6.17-1.56,9.32-1.58,16.83-.1,33.67-.17,50.5-.02,4.73.04,7.05-.69,7.97-6.45,4.84-30.52,7.84-61.15,8.78-92.05.24-7.88,1.69-15.76,1.52-23.74-.09-4.09-1.22-6.93-5.71-7.41Z"/>
      <path d="M438.58,173.42c-.84,1.25-1.7,2.45-2.63,3.56-.23.27-.46.54-.7.81-2.95,3.24-6.56,5.41-11.83,4.83.04-1.32-.41-2.12-1.08-2.69-.12-.1-.24-.19-.37-.28-.19-.12-.4-.24-.61-.35-.15-.07-.29-.14-.44-.21s-.3-.13-.45-.19c-.9-.38-1.82-.74-2.46-1.4,2.33-.03,4.74.32,6.99-.15,7.71-1.62,10.79-9.52,6.29-15.93-4.11-5.84-9.11-10.75-15.87-13.43-10.28-4.07-18.48.43-20.93,11.3-.89-.59-1.78-1.18-2.66-1.77-.1,1.1-.7,2.53-.22,3.23,4.9,7.27,11.6,12.39,19.68,15.72.24.1.85-.68,1.3-1.05,1.2.55,2.4,1.09,3.6,1.63-2.93,4.39-4.11,12.04-12.31,6.58,2.62-.15,5.19-.47,7.47-2.09-3.4-1.81-6.39-3.54-9.01-5.21-.74-.48-1.46-.95-2.14-1.42-1.03-.71-1.99-1.41-2.88-2.1-.59-.46-1.14-.92-1.67-1.37-.27-.23-.53-.46-.78-.68-.5-.46-.96-.91-1.4-1.35-.65-.67-1.24-1.34-1.77-2.01-.17-.22-.34-.45-.5-.67-3.17-4.43-3.4-8.82-.95-13.74.27-.56.58-1.11.92-1.68.34-.56.72-1.13,1.12-1.71.41-.58.85-1.17,1.32-1.76.47-.6.97-1.21,1.51-1.82,9.68-6.73,19.68-7.83,28.98.04,2.86,2.42,5.93,4.8,8.56,7.43.21.2.41.41.6.61,4.68,4.89,7.75,10.71,5.32,19.32Z"/>
      <path class="cls-3" d="M237.45,440.86c0,1.47-.04,2.95,0,4.42.43,13.33-4.96,18.78-18.59,19.6-3.42.2-3.5-1.27-3.1-3.44,2.43-12.98,7.08-24.93,16.51-34.57,1-1.02,2.13-2.17,3.81-1.37,1.7.81,1.28,2.48,1.31,3.87.07,3.83.03,7.67.03,11.5,0,0,.02,0,.03,0Z"/>
      <path class="cls-3" d="M327.12,217.76c4.31-3.38,8.18-6.03,11.72,1.29,1.47,3.04,5.72,3.61,9.36,4.97-2.34,5.52-9.85,6.95-9.89,13.57.32,3.06-1.18,6.41,1.47,9.09-1.53,1.64-3.64,1.16-5.52,1.52-4.79-6.18-9.89-12.23-10.06-20.65-.07-3.56.34-7.01,2.91-9.79Z"/>
      <path class="cls-5" d="M391.17,366.58c9.75.1,19.5.2,29.25.3-3.89,1.85-8.1,1.25-12.15,1.35-33.2.85-66.41,1.6-99.61,2.31-11.88.25-13.02,1.33-12.82,13.31.06,3.23.21,6.47.5,9.68.3,3.28-.23,5.37-4.26,4.06-7.61-2.48-9.22,2.2-9.68,8.19-3.46-5.54-1.44-9.86,4.33-10.51,6.8-.76,7.4-4.4,7.09-9.61-.14-2.35.05-4.72-.04-7.07-.28-7.03,2.98-10.26,10.07-10.17,29.13.35,58.18-2.98,87.32-1.86Z"/>
      <path class="cls-3" d="M438.59,173.42c3.86-13.69-6.17-20.33-14.48-27.36-9.31-7.87-19.31-6.77-28.99-.04.49-2.3.96-4.59-2.6-4.6,21.96-9.35,40.71-2.01,54.36,21.28-3.06-1.26-6.65-4.03-5.99,2.9.25,2.69,1.18,6.03-2.3,7.82Z"/>
      <path d="M362.93,217.87c-1.14,5.56,1.29,7.42,6.66,6.83,9.09-1.01,17.31,1.85,25.14,6.15,2.26,1.24,5.65,2.32,4.11,5.54-1.14,2.39-4.35,1.64-6.32.38-10.92-6.95-22.83-6.03-34.83-4.72,2.46-2.03,6.31-3.15,3.73-7.9-1.02-1.87-.84-4.63,1.5-6.28Z"/>
      <path class="cls-3" d="M334.27,248.2c1.88-.37,3.99.11,5.52-1.52q13.8,14.89,37.7,21.59c-10.21,5.9-27.74-2.24-43.22-20.07Z"/>
      <path class="cls-1" d="M223.03,398.91h0c-.05,2.46-1.74,4.54-3.39,6.37h-.01c-.2.07-.4.13-.61.18-.43-2.93-1.58-1.36-2.59-.5.97-1.05,4.31-7.48,5.84-7.67.24.39.49.82.75,1.28,0,.12,0,.23.01.34Z"/>
      <path class="cls-5" d="M216.43,404.96s-.01,0-.01.01c-.03.02-.06.05-.09.07-.96.79-1.96,1.82-3.07,2.08,0,0,0-.01,0,0-.35.08-.71.08-1.09-.04-.34-.11-.69-.31-1.05-.63-1.1-.98-1.09-2.28-.82-3.6.06-.29.13-.59.2-.89.11-.45.23-.89.32-1.31h0c.31-.22.62-.49.91-.8,3.11-3.21,5.51-10.6,10.54-2.56-1.53.19-4.87,6.62-5.84,7.67Z"/>
      <path class="cls-5" d="M223.03,398.92c0,.63-.01,1.25-.07,1.84-.04.31-.08.61-.14.9,0,.04-.02.08-.03.12-.06.27-.14.54-.24.79,0,.04-.03.08-.05.12-.11.28-.25.54-.41.79-.17.26-.37.51-.61.73-.06.06-.13.12-.2.18-.11.09-.23.18-.35.25-.22.16-.47.3-.74.42-.18.08-.36.16-.55.22,1.65-1.83,3.34-3.91,3.39-6.36Z"/>
      <path d="M398.57,283.28c2.33,2.63,1.58,6.15,2.57,9.18.63,1.94,2.41,4.91-.84,6.05-3.44,1.2-5.74-1.19-6.58-4.22-1.8-6.46-4.63-12.73-4.25-19.66,3.72,4.94,2.9,11.91,7,17.04,3.12-2.65,1.28-5.81,2.12-8.38Z"/>
      <path class="cls-5" d="M289.97,400.13c3.7.68,6.91,2.05,7.24,6.28.25,3.2-1.9,5.22-4.89,4.58-4.03-.86-6.33-4.27-6.86-8.09-.37-2.66,2.54-2.52,4.5-2.77Z"/>
      <path class="cls-1" d="M223.02,398.57c-.26-.46-.51-.89-.75-1.28-5.03-8.04-7.43-.65-10.54,2.56-.3.3-.6.57-.91.79h0c-.39-1.41-.78-2.83-1.18-4.24-.15-.55-.3-1.09-.45-1.64h0c.4-.31.8-.61,1.19-.91.18-.14.36-.27.53-.4.63-.49,1.26-.97,1.89-1.44.4-.3.81-.6,1.22-.89.21-.15.43-.31.64-.46.22-.15.43-.29.65-.44,1.52-1.01,3.09-1.76,4.81-1.45.27.05.54.13.81.23h0c.27.11.55.24.83.4.28.16.57.36.86.59.19.15.36.29.51.44.08.07.15.15.22.22.07.08.14.15.21.22.25.3.45.6.61.9,1.15,2.2-.22,4.5-1.16,6.8Z"/>
      <path d="M409.06,210.85c2.33.42,3.25,2.39,4.27,4.1,1.14,1.9,1.38,4.07-.67,5.51-1.73,1.22-3.47.18-4.74-1.07-3.97-3.91-7.82-7.95-11.71-11.93,4.56-.6,6.35,3.29,8.98,5.68,4.12,3.75,3.74.42,3.87-2.29Z"/>
      <path class="cls-5" d="M252.84,412.85c7.45,1.27,14.93,1.95,22.52,1.75,4.27-.11,7.53-.96,8.13-5.86,4.06,2.85,4.63,6.53-.73,7.05-10.02.96-20.52,3.51-29.93-2.94Z"/>
      <path class="cls-4" d="M500.71,119.66c-2.66-.27-4.26-1.81-4.47-4.41-.2-2.51,1.52-3.62,3.77-3.82,2.89-.26,4.37,1.45,4.47,4.1.08,2.34-1.55,3.61-3.77,4.14Z"/>
      <path class="cls-4" d="M353.45,211.32c-.91,2.74-2.93,3.94-5.44,3.85-1.79-.06-3.65-1.08-3.55-3.21.14-2.79,2.23-4.13,4.77-4.14,2.19,0,3.9,1.19,4.22,3.51Z"/>
      <path d="M391.4,265.61c9.24,3.12,4.82,11.8,7.21,17.71-5.09-4.81-2.22-12.86-7.21-17.71Z"/>
      <path class="cls-2" d="M418.02,119.33c-1.08,3.18-3.31,5.22-6.36,6.44-7.16.88-14.27,1.94-21.56,1.82-6.01-.1-12.18-1.26-18.1.95-31.95,1.13-61.01-8.15-88.1-24.49-17.31-10.44-29.02-25.51-36.8-43.99-2.7-6.41-1-9.99,5.45-11.94,45.38-13.71,90.24-11.82,134.16,5.65,15.8,6.28,27.12,18.46,34.88,33.7,1.95,6.26.96,12.29-.82,18.45-1.26,4.35-3.17,8.67-2.73,13.4Z"/>
      <path class="cls-2" d="M224.91,64.33c-18.38,26.64-41.94,47.95-72.64,57.9-25.97,8.42-51.33,1.53-73.39-15.06-8.94-6.72-9.16-7.27-1.18-15.4,16.48-16.78,35.02-30.38,58.7-35.42,2.43-.52,4.62-2.15,6.92-3.26,4.32,1.73,8.37-.24,12.45-1.08,18.76-3.86,37.53-6.06,56.66-2.54,12.94,2.38,14.61,4.01,12.47,14.85Z"/>
      <path class="cls-2" d="M433.8,100.04c5.66-7.11,13.02-8.46,21.3-5.96,6.77,2.05,9.69,7.26,10.19,13.93.72,9.79-.83,18.89-9.69,24.89-10.83,7.33-15.65,6.24-21.92-4.54-1.28-9.45-2.96-18.89.12-28.32Z"/>
      <path class="cls-2" d="M66.71,116.83c-.22,9.85-8.64,18-18.17,17.61-8.66-.36-16.59-8.41-16.26-16.51.34-8.41,8.79-15.54,18.27-15.4,10.61.15,16.37,5.25,16.16,14.31Z"/>
      <path class="cls-2" d="M224.91,64.33c2.14-10.83.47-12.47-12.47-14.85-19.13-3.52-37.9-1.32-56.66,2.54-4.07.84-8.12,2.81-12.45,1.08,25.35-7.34,50.85-11.67,76.93-3.71,12.11,3.7,12.37,4.55,4.65,14.94Z"/>
      <path class="cls-2" d="M371.99,128.54c5.92-2.21,12.09-1.05,18.1-.95,7.29.13,14.4-.94,21.56-1.82-4.08,4.12-9.32,4.23-14.55,4.03-8.37-.31-16.74-.83-25.11-1.26Z"/>
      <path class="cls-2" d="M433.8,100.04c-3.08,9.42-1.4,18.87-.12,28.32-5.08-9.46-8.21-18.91.12-28.32Z"/>
      <path class="cls-2" d="M418.02,119.33c-.44-4.73,1.47-9.05,2.73-13.4,1.79-6.16,2.78-12.2.82-18.45,6.11,5.49,2.9,12,1.65,18.06-.98,4.79-1.93,9.78-5.2,13.79Z"/>
      <path class="cls-1" d="M162.92,212.5c1.13,1.14,2.25,2.28,3.38,3.43,2.5,4.16,5.29,7.86,10.98,7.06,3.1,1.68,6.14,3.49,9.31,5.03,11.03,5.36,21.95,6.01,32.91-.48,15.1-8.93,27.04-21.81,40.87-32.34,5.07-3.85-1.57-5.42-2.99-8.07,10.82-1.24,21.31,4.77,23.22,12.83.81,3.42.71,6.52-3.71,5.61-5.87-1.22-7.21,3.17-9.02,6.56-9.3,17.41-13.06,36.51-16.59,55.67-2.62,14.17-4.73,28.39-11.17,41.65-8.14,16.78-21.34,21.52-38.7,18.56-15.39-2.62-26.74-10.06-32.08-25.38-5.34-15.32-5.39-31.36-5.98-47.2-.46-12.18-2.65-23.81-6.13-35.34.26-2.63.59-5.24-.97-7.67-1.18-1.84-3.84-4.27-.91-5.86,2.79-1.51,3.29,2.39,4.81,3.91.81.8,1.86,1.37,2.8,2.04Z"/>
      <path class="cls-1" d="M237.15,141.48c-.31-6.97,1.62-14.21,7.5-19.87,4.07-3.92,8.96-5.62,14.52-3.51,5.69,2.16,7.77,6.7,7.74,12.53-.03,5.95-1.17,11.71-3.44,17.13-3.03,7.21-10.91,11.39-17.8,9.93-6.28-1.32-8.58-5.42-8.52-16.21Z"/>
      <path class="cls-1" d="M184.09,142.43c-.05-8.6,2.33-16.23,9.1-21.98,3.88-3.29,8.31-4.11,13.15-2.31,5.04,1.87,7.14,5.79,7.49,10.86.46,6.55-.73,12.93-3.2,18.9-2.98,7.21-10.93,11.26-17.9,9.83-6.02-1.24-8.66-5.92-8.64-15.29Z"/>
      <path class="cls-5" d="M315.37,161.4c2.01-2.98,4.52-2.36,6.84-.66,1.85,1.36,2.01,3.54,1.41,5.65-.77,2.71-2.9,3.69-5.44,3.55-3.7-.2-6.91,1.09-10.15,2.61-3.25,1.53-4.76-1.32-6.61-3.06-1.35-1.26-2.36-2.84-1.11-4.66,1.56-2.28,3.64-4.44,6.58-3.14,3.06,1.35,5.71.77,8.5-.32-.13,2.7-1.64,6.07,2.79,6.74,1.99.3,3.47-1.07,3.42-2.97-.11-4.22-3.28-3.93-6.23-3.74ZM305.83,169.88c1.92.04,3.13-.95,3.09-2.54-.05-1.92-1.44-3.27-3.37-3.5-1.7-.21-2.83.91-2.86,2.56-.03,2.06,1.43,3.06,3.14,3.48Z"/>
      <path class="cls-5" d="M328.15,182.11c-3.37-.1-5.95,1.82-8.83,3.16-3.8,1.77-6.89-.16-8.66-3.58-1.81-3.48.56-6.4,3.44-6.49,6.18-.19,12.52-2.12,18.65.48-4.47.04-5.9,2.26-4.59,6.43ZM320.02,179.69c-.96-1.4-2.11-3.11-4.57-2.6-1.64.34-2.48,1.57-2.1,3.22.52,2.26,1.97,3.62,4.4,3.04,1.52-.36,2.44-1.49,2.27-3.67Z"/>
      <path d="M162.92,212.5c-.94-.67-1.99-1.24-2.8-2.05-1.52-1.52-2.03-5.42-4.81-3.91-2.93,1.59-.27,4.03.91,5.86,1.56,2.44,1.23,5.04.97,7.67-2.02-3.9-4.11-7.76-6.02-11.72-.91-1.89-3.93-3.97-1.18-5.98,2.47-1.79,5.97-1.52,8.07.95,2.22,2.62,4.56,5.42,4.85,9.16Z"/>
      <path d="M159.31,172.37c2.67.41,4.5,1.9,4.75,4.45.23,2.3-1.21,3.96-3.64,4-2.7.04-4.5-1.49-4.59-4.23-.07-2.21,1.04-3.91,3.47-4.23Z"/>
      <path d="M148.42,184.26c3.05.4,4.98,1.72,5.09,4.39.08,2-1.57,3.09-3.54,2.91-2.55-.23-4.46-1.61-4.61-4.33-.12-2.24,1.67-2.73,3.06-2.97Z"/>
      <path d="M340.29,163.12c2.58.07,3.83,1.7,4.1,3.87.22,1.83-.61,3.78-2.6,4-2.85.31-4.27-1.78-4.57-4.3-.24-2,1.15-3.19,3.07-3.58Z"/>
      <path d="M127.62,175.06c-.12,1.92-.83,3.55-3.01,3.45-2.29-.1-3.84-1.61-3.93-3.88-.09-2.24,1.07-4.1,3.6-3.88,2.37.2,3.33,2.01,3.34,4.31Z"/>
      <path d="M147.53,168.05c1.91.5,3.88,1.36,3.82,3.77-.07,2.41-1.87,3.51-4.14,3.25-2.27-.26-3.74-1.84-3.48-4.11.21-1.8,1.65-2.94,3.8-2.91Z"/>
      <path d="M328.15,182.11c-1.31-4.17.12-6.39,4.59-6.43,1.1,1.88,3.13,3.65,1.46,6.07-1.76,2.55-3.98,1.11-6.05.36Z"/>
      <path d="M161.7,158.51c-.21,2.23-1.58,3.06-3.54,2.88-1.91-.18-3.25-1.39-3.53-3.24-.32-2.05.9-3.41,2.93-3.32,2.22.1,3.63,1.53,4.14,3.68Z"/>
      <path d="M138.92,155.06c2.11.49,3.77,1.73,4.16,3.81.4,2.11-1.3,3.09-3.12,3.17-2.32.1-3.78-1.35-4.02-3.58-.21-1.96.92-3.18,2.98-3.4Z"/>
      <path d="M177.27,222.99c-5.68.79-8.48-2.9-10.98-7.06,4.27,1.4,7.77,4.01,10.98,7.06Z"/>
      <path d="M374.66,192.45c-.31-4.05-1.91-9.04-7.34-9.69-5.03-.6-13.69,6.18-12.9,9.92,1.22,5.81,6.18,6.38,10.87,7.01.96-.15,1.96-.31,2.92-.51.27-.05.54-.11.81-.18.67-.17,1.32-.36,1.92-.6.24-.1.47-.21.7-.32s.44-.23.65-.37c1.51-.97,2.49-2.47,2.38-4.93.01-.11,0-.22,0-.33ZM365.42,195.32c-2.18,0-4.13-.91-4.35-3.39-.19-2.22,1.22-3.11,3.32-2.72,2.16.39,3.7,1.56,4.14,3.87-.17,1.95-1.76,2.24-3.11,2.24Z"/>
      <path class="cls-4" d="M368.53,193.08c-.17,1.95-1.76,2.24-3.11,2.24-2.18,0-4.13-.91-4.35-3.39-.19-2.22,1.22-3.11,3.32-2.72,2.16.39,3.7,1.56,4.14,3.87Z"/>
      <path d="M380.74,182.33c-5.71.23-9.43-.76-9.08-6.01.37-5.6,3.51-9.65,9.26-10.13,5.56-.47,8.08,4.09,8.26,8.46.24,6.02-4.91,7.2-8.43,7.68ZM383.65,174.68c-1.09-.68-2.38-1.72-3.85-2.36-1.69-.74-2.98.38-3.1,1.9-.19,2.36,1.09,3.85,3.68,3.52,1.42-.18,2.83-.57,3.28-3.06Z"/>
      <path class="cls-1" d="M412.59,175.42c-.45.37-1.06,1.15-1.3,1.05-8.08-3.33-14.78-8.45-19.68-15.72-.48-.7.12-2.13.22-3.23.88.59,1.77,1.18,2.66,1.77,5.22,6.29,11.51,11.38,18.1,16.13Z"/>
      <path d="M315.37,161.4c2.95-.18,6.12-.48,6.23,3.74.05,1.9-1.43,3.28-3.42,2.97-4.43-.67-2.93-4.04-2.79-6.74,0,0-.02.03-.02.03Z"/>
      <path d="M305.83,169.88c-1.71-.42-3.17-1.42-3.14-3.48.02-1.65,1.15-2.77,2.86-2.56,1.94.23,3.32,1.58,3.37,3.5.04,1.6-1.17,2.58-3.09,2.54Z"/>
      <path d="M320.02,179.69c.17,2.18-.76,3.31-2.27,3.67-2.43.57-3.88-.79-4.4-3.04-.38-1.65.46-2.88,2.1-3.22,2.46-.51,3.61,1.19,4.57,2.6Z"/>
      <path class="cls-4" d="M383.65,174.68c-.45,2.49-1.85,2.88-3.28,3.06-2.59.32-3.87-1.16-3.68-3.52.12-1.52,1.4-2.63,3.1-1.9,1.47.64,2.77,1.68,3.85,2.36Z"/>
    </g>
  </g>
</svg>