<?xml version="1.0" encoding="UTF-8"?>
<svg id="Layer_1" data-name="Layer 1" xmlns="http://www.w3.org/2000/svg" viewBox="0 0 512 512">
  <defs>
    <style>
      .cls-1 {
        fill: #e2052e;
      }

      .cls-2 {
        fill: #9f4c18;
      }

      .cls-3 {
        fill: #1c1c1c;
      }

      .cls-4 {
        fill: #269fda;
      }

      .cls-5 {
        fill: #f7f7f6;
      }

      .cls-6 {
        fill: #fccf03;
      }
    </style>
  </defs>
  <g id="ASr7by">
    <g>
      <path class="cls-3" d="M434.42,288.72c12.49,6.08,16.52,24.64,10.51,35.24-4.17,7.35-9.77,11.91-18.44,11.4-3.04-.18-4.27.88-5.34,3.49-1.7,4.16-4.47,7.72-8.91,9.09-2.89.89-3.71,2.79-4.26,5.25-4.16,18.82-14.35,33.77-29.04,46.01-14.84,12.36-32.09,19.54-50.5,24.41-1.69.45-3.36.98-5.03,1.49-.11.03-.18.22-.31.4.4,1.94,2.18,2.68,3.59,3.53,8.83,5.38,16.12,12.81,24.84,18.36,6.63,4.22,6.81,5.39,1.85,11.33-11.51,13.8-21.21,29.11-34.63,41.32-4.15,3.78-8.28,7.43-13.54,9.74-8.64,3.79-15.09,2.92-21.36-4.02-3.98-4.41-3.16-9.93-1.33-14.9,4.31-11.71,9.74-22.81,20.18-30.55,1.68-1.24,3.17-2.73,5.11-4.41-7.66-5.16-15.09-10.18-22.52-15.19-1.57-1.06-2.16,0-2.6,1.27-5.84,16.79-13.19,33.19-13.57,51.41-.18,8.52-1.08,9.31-9.64,7.72-18.82-3.51-36.39-9.91-51.33-22.32-6.1-5.07-11.54-10.76-13.88-18.59-2.13-7.14-.3-13.3,5.36-18.31,1.32-1.17,2.76-1.34,4.31-1.53,11.45-1.43,22.2,1.71,32.89,5.11,10.21,3.25,10.12,3.27,12.44-7.4.78-3.56,2.08-7.01,3.25-10.89-9.35-2.01-18.81-3.33-27.93-6.37-16.05-5.36-31-12.49-44.21-23.31-11.21-9.19-17.72-21.51-24.02-34.02-4.03-7.99-6.35-16.61-8.24-25.31-.59-2.72-1.21-4.12-4.24-2.57-1.19.61-2.87,1.22-4,.84-6.38-2.08-8.54,1.65-11.3,6.51-3.71,6.54-10.17,9.65-17.86,8.42-7.37-1.19-12.83-5.2-15.56-12.42-.66-1.75-.42-3.97-3.94-2.65-5.46,2.05-10.8.73-14.87-3.72-4.43-4.82-5.53-10.83-3.27-16.64,1.48-3.8.39-4.68-2.53-6.44-7.09-4.25-8.06-9.9-3.28-16.62,5.01-7.04,11.51-11.58,20.55-11.47.5-1.85-.9-2.99-1.43-4.4-2.99-7.93,2.33-15.5,10.84-15.4,6,.07,11.37,2.17,16.05,5.69,2.49,1.87,4.4,1.8,7.11.58,8.15-3.69,13.32-2.34,18.92,4.55.86,1.06,1.36,2.78,3.13,2.06,1.65-.67,1.07-2.42,1.12-3.72.67-17.24,3.74-34.08,9.31-50.37,9.16-26.75,26.89-46.93,48.88-64.14,15.96-12.49,34-19.47,53.36-23.94,5.45-1.26,10.82-2.93,16.31-3.88,2.84-.49,2.52-1.54,1.69-3.38-2.82-6.18-5.5-12.42-8.45-18.53-4.57-9.46-7.4-19.6-11.59-29.2-1.72-3.94.77-5.33,3.73-5.71,12.32-1.57,24.66-3.11,37.04-4.14,3.7-.31,5.53-1.23,5.55-4.96,0-.52.09-1.05.17-1.57.64-4.01,3.39-7.61,3.83-11.21.39-3.2-4.44-5.87-5.53-9.76-1.58-5.65,2.33-13.45,9.12-16.59,2.05-.95,2.32-1.12,1.12-3.11-5.97-9.89-1.15-18.92,10.61-20.07,4.27-.42,8.67-.48,11.47,3.42,2.42,3.38,4.39,2.38,7.27.65,7.21-4.32,14.69-5.84,22.96-2.24,12.95,5.64,13.41,18.29,2.32,25.99-2.86,1.98-4.03,2.9-2.63,6.94,1.83,5.3,1.22,11.7-3.48,15.55-5.89,4.82-13.08,5.43-20.31,2.6-1.45-.57-3.14-1.16-4.08-2.27-4.39-5.22-7.24-1.71-9.65,1.78-2.25,3.27-4.66,7.41-3.81,10.93.44,1.81,6.02.29,9.27.27,2.45-.02,4.9-.36,7.35-.37,5.29-.04,6.82,2.17,5.41,7.2-5.06,18.1-7.09,36.68-8.69,55.34-.32,3.75.88,5.62,4.6,6.56,15.63,3.91,29.86,11,42.55,20.76,8.17,6.29,14.8,14.29,20.1,23.27,14.36,24.34,22.69,50.48,23.29,78.85.06,2.75,1.13,3.34,3.34,4.14,5.76,2.1,11.66,4.36,14.16,10.72,2.62,6.64,1.17,11.01-5.75,18.44Z"/>
      <path class="cls-1" d="M370.75,288.75c-2.46,2.21-4.91,4.39-7.34,6.61-2.12,1.93-3.5,4.36-4.54,6.99-3.16,7.99-.68,13.98,7.58,16.34,4.21,1.2,4.75,3.02,4.34,6.93-.47,4.46,0,9.02,1.87,13.34,3.34,7.68,13.55,11.58,21.04,7.85,1.29-.64,2.4-2.79,4.02-1.33,1.52,1.38.27,3.23-.13,4.9-5.59,23.09-20.14,39.1-40.13,50.76-14.66,8.55-31.07,12.44-47.15,17.1-2.31.67-4.5.93-5.28,3.45-.92,2.95,1.55,3.92,3.35,5.22,5.95,4.28,11.88,8.59,17.87,12.8,2.2,1.54,2.95,2.88.24,4.63-1.61,1.05-3.18,2.2-4.6,3.49-2.76,2.51-5.02,2.18-8.35.31-6.1-3.42-11.92-7.22-17.79-10.99-3.88-2.5-7.55-5.05-9.8-9.2-1.07-1.97-2.78-3.22-4.85-3.78-2.57-.7-4.43-.05-4.67,3.11-.76,9.78-6.96,17.78-9,27.16-.45,2.1-2.17,2.67-4.08,1.52-2.47-1.49-6.61-1.37-5.85-6.05,1.14-7.06,2.23-14.02,5.95-20.44,4.53-7.84,3.29-10.13-5.8-10.84-11.57-.9-22.62-3.73-33.72-6.99-34.47-10.11-54.71-33.43-64.09-67.28-7.33-26.46-8.73-53.3-5.52-80.51,1.6-13.54,3.09-27.06,7.98-39.91,6.88-18.07,16.76-34.27,31.08-47.37,13.16-12.04,26.45-23.96,43.88-29.94,11.59-3.98,23.4-6.95,35.26-9.9,10.33-2.57,20.56-1.82,30.85-.16,8.94,1.44,18,1.95,26.89,3.87,34.25,7.39,57.14,27.64,69.61,60.32,7.81,20.46,12.55,41.35,12.35,63.35-.05,5.07-1.73,6.52-6.34,6.11-3.65-.33-7.33-.32-11-.54-2.9-.17-4.05-1.49-3.93-4.67.29-7.7-.15-15.42.2-23.12.21-4.64-2.54-6.01-6-6.21-3.82-.22-4.84,2.51-4.74,5.99.14,5.25-.12,10.52.11,15.76.14,3.23-.75,5.37-3.95,6.47-1.47.51-2.82,1.41-4.14,2.26-10.71,6.94-11.28,14.1-1.7,22.55Z"/>
      <path class="cls-2" d="M316.12,129.28c-9.7-1.71-19.42-3.9-29.46-3.09-1.83.15-2.93-1.37-3.47-2.78-5.11-13.17-11.97-25.59-16.62-38.97-1.43-4.11.54-5.07,3.72-5.44,17.96-2.12,35.93-4.16,53.88-6.28,3.09-.37,4.23.75,3.59,3.8-3.29,15.69-5.51,31.51-6.32,47.54-.15,2.95-.79,6.23-5.33,5.22Z"/>
      <path class="cls-6" d="M380.49,328.01c.24-7,1.76-12.45,5.32-17.26,1.48-2.01,3.32-4.84.73-6.38-2.57-1.53-6.35-2.61-8.81,1.19-.19.29-.25.69-.47.93-2.38,2.51-5.56,6.51-8.42,4.5-3.09-2.17-1.13-6.78.93-9.94,4.32-6.64,10.97-8.78,18.73-7.36,10.01,1.84,20.24,2.13,30.18-.2,5.05-1.18,8.9-.4,12.2,3.17,6.71,7.27,9.57,19.94,1.51,27.81-4.52,4.41-7.82,3.67-9.3-2.32-.82-3.3-2.3-6.27-4.23-8.94-2.16-2.99-5.39-4.21-8.65-2.13-3.28,2.09-.89,4.74.44,6.72,4.09,6.08,2.88,12.33.84,18.55-.75,2.27-2.28,5.05-5.18,3.98-2.46-.92-4.57-2.93-3.89-6.47.68-3.58,1.52-7.14,1.34-10.89-.18-3.85-2.32-4.53-5.54-4.53-3.47,0-4.63,1.48-4.3,4.86.48,4.84-1.2,9.31-3.23,13.58-.86,1.8-1.88,4.18-4.53,3.54-2.3-.56-4.04-2.23-4.44-4.69-.47-2.92-1.53-5.78-1.22-7.72Z"/>
      <path class="cls-4" d="M123.85,285.42c-.48,10.8,3.98,19.86,8.38,28.95,1.76,3.64,3.76,7.1,6.61,10.02.72.73,2.57,1.33,1.23,2.82-1.29,1.43-2.61.36-3.65-.56-2.11-1.86-3.98-3.91-4.94-6.67-.69-1.98-1.34-4.01-2.37-5.82-1.76-3.11-4.84-3.43-7.79-2.47-2.83.92-2.51,3.59-1.77,5.78,1.84,5.45,3.28,10.75,1.39,16.63-1.83,5.69-5.49,9.42-9.55,8.55-4.04-.87-7.33-7.47-6.01-12.58.51-1.99,1.7-3.81,2.67-5.66,1.37-2.65,2.54-5.62-.85-7.24-2.99-1.44-6.55-1.92-8.81,1.72-2.35,3.78-5.34,6.88-9.17,9.14-3.47,2.05-5.69.83-6.62-2.87-1.27-5.03.69-8.92,4.69-11.86,3.12-2.29,6.72-3.7,10.32-5.04,2.21-.83,4.48-1.77,4.23-4.59-.29-3.3-3.31-3.29-5.59-3.67-2.92-.49-5.37,1.18-7.82,2.53-2.77,1.53-5.58,3-8.91,2.58-4.53-.57-5.98-3.56-3.55-7.34,4.5-7.02,14.36-10.91,23.57-9.3.51.09,1.01.41,1.51.42,2.91.03,6.85,2.19,8.02-2.22,1.16-4.35-2.96-4.26-5.65-5.12-3.38-1.09-5.53-3.5-7.18-6.52-.75-1.37-.97-2.59.12-3.84,1.07-1.23,2.19-2.26,4.05-1.65,7.91,2.58,14.35,4.12,11.71,14.83-.79,3.2.07,5.78,3,7.68,1.76,1.15,3.41,1.65,5.39.88,2.27-.89,2.41-2.72,2.2-4.77-.09-.85-.18-1.75,1.12-2.72Z"/>
      <path class="cls-2" d="M292.22,496.49c-.17-1.62.29-3.09.94-4.55,5.52-12.24,12.35-23.92,23.94-30.92,6.05-3.65,11.85-7.74,18-11.23,3.54-2,5.49,1.08,7.74,2.62,1.9,1.31.86,3.16-.37,4.52-10.93,12.19-19.57,26.34-31.87,37.38-2.99,2.69-5.96,5.38-9.44,7.41-1.9,1.1-3.73,2.66-6.25,1.1-2.48-1.54-2.85-3.78-2.7-6.33Z"/>
      <path class="cls-6" d="M403.58,285.79c-9.08.19-17.42-.39-25.34-3.58-1.76-.71-3.74-1.59-3.83-3.86-.09-2.22,1.84-3.2,3.38-4.33.78-.58,1.57-.62,2.37.03,7.08,5.79,15.62,5.2,23.93,5.27,4.53.03,9.07-.43,13.59-.82,6.16-.52,7.1-1.68,6.59-7.79-.07-.83-.68-1.88.38-2.24.69-.23,1.71.1,2.43.48,2.54,1.35,3.69,3.66,3.84,6.43.16,3.05-1.77,4.81-4.26,6.02-7.5,3.64-15.25,6.07-23.09,4.39Z"/>
      <path class="cls-5" d="M349.79,24.31c-1.84-.94-4.28.61-5.09-1.22-1.42-3.23-3.45-5.93-5.62-8.61-.12-.14.39-.8.62-1.22,1.61-2.97,9.44-7.08,12.95-6.57,4,.59,8.13,1.31,9.13,6.24.74,3.66-2.86,8.86-7.16,10.38-1.61.57-3.37.71-4.83.99Z"/>
      <path class="cls-5" d="M343.7,47.34c-4.21.2-7.48-1.97-9.94-4.89-2.08-2.46-3.38-5.78,1.65-6.91,3.31-.75,5.05-4.41,8.36-4.7,5.37-.48,8.43,2.72,8.41,8.15-.02,5.32-3.07,8.32-8.48,8.35Z"/>
      <path class="cls-5" d="M314.04,44.63c-5.04-.03-8.21-2.63-8.25-6.74-.04-4.89,5.48-10.3,10.65-10.44,1.64-.04,7.1,6.64,7.09,8.68-.01,3.07-6.1,8.52-9.5,8.49Z"/>
      <path class="cls-4" d="M142.93,312.38c-4-8.29-8.1-15.85-8.19-24.69-.04-4.06,4.12-3.93,6.62-4.3,2.77-.41,1.48,2.53,1.5,3.92.14,8.05.07,16.1.07,25.07Z"/>
      <path class="cls-5" d="M320.23,6.39c4.57-.05,6.22,2.57,7.32,5.3,1.21,3-1.84,4.36-3.57,4.75-2.4.55-3.36,5.56-6.91,2.26-1.95-1.82-5.62-3.01-4.36-6.26,1.33-3.44,4.45-5.68,7.52-6.06Z"/>
      <path class="cls-5" d="M331.17,19.78c2.89-.1,4.95,1.34,4.88,4.16-.08,3.34-2.38,5.18-5.73,5.61-3.38.43-3.5-1.78-3.61-4.23-.14-3.24.74-5.48,4.46-5.53Z"/>
      <path class="cls-4" d="M125.92,279.78c-1.96.88-2.76.2-2.64-1.04.29-3.01,2.26-4.65,5.11-5.05,2.15-.3,4.48.99,4.14,2.91-.68,3.81-4.8,2.19-6.61,3.17Z"/>
      <path class="cls-5" d="M308.43,65.26c-1.71-.22-1.73-1.42-1.39-2.38,1.32-3.77,2.75-7.51,4.26-11.21.18-.44,1.1-.79,1.7-.82.87-.04,1.14.67.88,1.44-1.41,4.1-2.83,8.19-4.33,12.25-.13.36-.81.53-1.12.71Z"/>
      <path class="cls-3" d="M368.09,209.33c-.97,29.88-4.94,61.01-19.73,89.6-11.39,22.03-28.84,37.85-53.76,42.16-17.85,3.09-35.66.92-52.24-8.18-13.02-7.16-23.52-16.73-30.05-29.84-6.54-13.13-10.46-27.34-12.63-41.9-2.54-17.05-2.45-33.97,1.69-50.94,1.41-5.79,2.83-11.42,5-16.97,1.45-3.68,4.03-3.46,6.78-2.86,3.55.78,2.95,3.82,2.13,5.95-3.62,9.36-4.98,19.14-6.33,29-1.8,13.15-1.2,26.19,1.46,39.08,3.25,15.77,7.09,31.43,17.02,44.7,10.16,13.59,24.11,21.05,40.45,24.09,10.96,2.04,21.82,1.05,32.57-2.4,15.17-4.86,25.69-15.38,34.56-27.74,10.07-14.04,14.04-30.62,17.9-47.13,4.11-17.61,5.72-35.52,5.51-53.58-.04-3.66-.73-7.3-.99-10.96-.16-2.26-.48-4.77,2.79-5.27,3.11-.48,5.56.34,6.63,3.61,1.9,5.81.8,11.82,1.26,19.56Z"/>
      <path class="cls-3" d="M296.75,179.48c.28-3.15.33-7.2,1.78-11.02,3.26-8.59,11.15-12.99,19.07-10.68,6.5,1.9,11.27,11.85,9.18,19.68-1.58,5.94-4.47,11.38-7.54,16.65-2.79,4.8-13.9,5.01-17.56.62-3.89-4.67-5.1-8.19-4.93-15.26Z"/>
      <path class="cls-3" d="M262.3,193.45c-3.72.54-6.38-1.18-8.27-4.65-5.08-9.32-.15-23.72,6.19-28.58,4.94-3.78,10.09-4.34,15.68-2.11,5.27,2.1,5.2,7.11,5.49,11.45.35,5.23-.96,10.36-3.09,15.23-3.04,6.95-8.82,8.83-15.99,8.66Z"/>
    </g>
  </g>
</svg>