<?xml version="1.0" encoding="UTF-8"?>
<svg id="Layer_1" data-name="Layer 1" xmlns="http://www.w3.org/2000/svg" viewBox="0 0 512 512">
  <defs>
    <style>
      .cls-1 {
        fill: #1c1c1c;
      }

      .cls-2 {
        fill: #e0062d;
      }

      .cls-3 {
        fill: #fefefe;
      }

      .cls-4 {
        fill: #1f1f1f;
      }

      .cls-5 {
        fill: #f8f7f7;
      }
    </style>
  </defs>
  <g id="gVtUsW">
    <g>
      <path class="cls-1" d="M231.88,55.96c-2.62-1.13-5.07-2.21-7.54-3.23-1.95-.8-3.82-1.73-5.13-3.42-1.16-1.51-2.42-3.3-1.33-5.18,1.29-2.21,3.24-1.02,5.08-.46,6.3,1.91,12.64,3.65,18.95,5.54,2.3.69,3.27.14,3.9-2.36,1.3-5.2,3.25-10.23,4.64-15.4,5.47-20.34,33.01-38.58,61.07-28.66,18.44,6.52,27.08,19.31,27.62,40.11.18,6.95.04,13.91-.24,20.85-.12,2.98.37,4.33,3.8,4.38,6.42.1,12.82.9,19.24,1.14,2.96.11,5.01,1.32,6.33,3.77,1.99,3.68.3,6.52-3.91,6.36-3.28-.12-6.55-.69-9.83-1.06-3.09-.35-6.15-1.24-9.71-.42,1.33,4.02,4.6,6.72,6.6,10.18,7.05,12.14,6.67,24.76,3.7,37.76-1.41,6.16-4.4,11.65-7.13,17.24-.93,1.9-.93,3.16.68,4.94,8.19,9.01,11.19,19.68,9,31.65-.41,2.23-.1,3.59,1.13,5.57,13.4,21.55,25.45,43.76,30.22,69.05.68,3.59,2.97,4.33,5.26,5.58,13.91,7.58,18.28,15.95,15.65,31.42-1.19,6.98-3.22,13.75-6.4,20.23-3.24,6.6-7.66,11.63-14.64,13.86-3.26,1.04-2.14,3.16-1.98,4.95,1.25,13.98.29,27.87-3.33,41.35-4.1,15.25-13.3,27.5-25.02,37.89-15.34,13.6-34.3,18.25-53.79,21.32-3.41.54-4.68,1.66-5.34,4.87-2.69,13.02-2.68,12.74,9.49,17.45,13.23,5.11,23.85,13.89,32.15,25.32,5.06,6.97,2.43,18.4-4.88,23.08-6.23,3.99-13.26,5.18-20.41,5.23-18.17.14-35.19-5.06-51.68-12.14-2.47-1.06-4.21-1.18-6.71.13-11.91,6.24-23.31,13.66-36.93,16.08-10.85,1.93-21.32,1.49-31.46-3.32-7.34-3.48-9.66-12.08-4.7-18.61,5.91-7.8,13.89-13,22.41-17.47,4.6-2.42,9.21-4.85,13.92-7.03,2.38-1.1,3.43-2.3,2.9-5.1-1.24-6.47-2.26-12.99-3.15-19.51-.44-3.2-1.87-4.29-5.12-4.31-13.66-.11-27.05-2.55-39.65-7.65-33.62-13.6-63.04-46.55-57.96-89.66.61-5.19,1.11-10.38,2.92-15.28.89-2.41.19-2.94-1.95-3.47-15.37-3.8-20.23-12.67-15.63-27.83,3.07-10.12,9.27-18.07,16.71-25.23.6-.58,1.44-1.19,2.22-1.27,6.99-.68,7.78-5.62,8.61-11.27,3.58-24.29,14.29-45.01,32.1-61.99,4.88-4.66,9.07-10.1,14.87-13.71,1.91-1.19,1.76-2.63,1.68-4.4-.58-13.12,2.91-25.08,10.7-35.65,1.55-2.1,1.71-3.8.98-6.12-6.97-22.05-1.19-41.56,13.14-58.59,5.89-7,14.6-11.03,23.04-14.82,1.52-.68,3.4-.7,4.83-2.66Z"/>
      <path class="cls-3" d="M352.54,191.65c7.64,11.35,13.69,23.16,18.87,35.39,4.03,9.51,8.45,18.92,8.74,29.63.09,3.22,1.71,6.16,5.32,7.6,17.41,6.93,16.39,16.66,14.91,30.02-.82,7.37-3.72,14.41-9.15,19.97-5.77,5.9-12.99,7.11-18.73,3.16-6.19-4.26-9.03-14.13-5.97-20.77,1.02-2.21,2.45-4.65.18-6.67-2.44-2.17-4.93-.53-7.04.99-6.34,4.56-12.96,4.18-19.72,1.29-4.02-1.71-4.72-4.24-2.34-7.8,3.21-4.81,8.98-7.15,14.83-6.02,5.32,1.02,7.21-.81,6.05-6.13-1.35-6.23-2.98-12.41-4.29-18.65-.78-3.7-3.15-5.5-6.48-4.72-3.64.86-2.23,4.12-1.75,6.52.77,3.89,1.83,7.73,2.67,11.61.57,2.64.58,4.91-3.32,4.38-2.29-.31-4.4.62-6.44,1.64-7.41,3.72-12.16,10.15-11.15,15.99,1.3,7.43,7.74,9.1,13.62,11.1,2.11.72,4.53,1.59,6.59,1.21,6.36-1.19,8.03,1.73,9.22,7.49,1.88,9.11,7.86,15.36,17.12,17.55,2.52.6,2.99,1.85,3.21,3.78,4.45,38.77-12.09,76.04-52.69,87.97-8.73,2.57-17.2,6.06-26.8,4.67-3.8-.55-6.71,1.62-6.95,6.91-.29,6.49-2.5,12.85-3,19.43-.38,4.96,1.8,6.7,6.68,7.69,8.73,1.79,17.67,3.8,24.16,10.79,4.46,4.81,10.49,7.94,14.03,13.78,3.1,5.12.51,13.43-5.26,15.32-8.45,2.76-17.05,2.73-25.68,1.02-11.33-2.24-22.65-4.51-33.21-9.49-4.54-2.14-6.38-5.44-6.81-10.57-1.24-14.57-1.48-29.1-.2-43.66.23-2.62-.82-4.8-3.49-4.74-2.45.06-5.52-.18-5.81,4.08-1.12,16.68-1.36,33.31,1.08,49.9.3,2.03.58,3.94-1.75,5.45-14.17,9.16-29.06,16.02-46.47,15.26-2.97-.13-5.82-.79-8.54-1.95-6.07-2.6-7.2-6.65-3.12-11.84,2.37-3.01,5.21-5.67,8.58-7.5,9.37-5.08,17.69-12.23,28.59-14.33,2.43-.47,3.55-2.41,3.06-5.17-1.8-10.03-3.5-20.08-5.19-30.12-.75-4.49-2.67-6.02-7.77-5.65-34.97,2.51-77.08-15.61-91.47-57.12-3.34-9.63-3.78-19.66-2.31-29.78.94-6.46.39-13.1,3.29-19.32.79-1.7,1.25-2.92,3.05-3.48,2.9-.91,5.37-2.67,7.15-5.03,2.01-2.66,2.94-2.49,5.15.08,8.03,9.36,20.73,10.27,29.02,2.47,8.91-8.38,9.56-23.62,1.31-31.82-1.21-1.21-2.59-2.68-4.13-3.06-6.51-1.61-4.72-4.85-2.23-8.74,3.45-5.41,6.47-11.08,7.56-17.5.4-2.34,1.03-5.23-2.63-5.62-2.66-.29-5.06-.76-5.86,3.56-1.41,7.71-5.4,14.5-9.79,21-3.39,5.02-2.55,7.29,3.18,9.59,12.97,5.2,15.69,19.27,5.4,28.2-2.64,2.29-5.45,4.54-9.32,2.77-4.17-1.9-7.12-4.91-7.89-9.59-.22-1.35.09-2.77,0-4.15-.09-1.61.81-3.97-1.61-4.31-2.41-.34-5.24-1.25-7.07,1.63-1.77,2.77-3.44,5.63-5.45,8.21-3.27,4.2-7.21,7.43-12.88,7.92-9.12.79-15.53-6.25-13.29-15.05,2.3-9.05,6.85-16.95,13.19-23.83,2.43-2.64,5.39-4.47,8.91-4.97,3.72-.53,5.29-2.43,5.61-6.12,2.71-32.03,19.37-56.34,42.73-76.94,1.57-1.38,2.32-1.36,3.57.29,10.1,13.35,23.67,21.56,39.47,26.41,1.9.58,2.87,2.04,4.12,3.53,6.61,7.86,6.17,16,4.41,25.82-4.57,25.5-8.23,51.15-14.96,76.22-1.29,4.82-3,9.53-4.65,14.25-1.04,2.98-.46,5.48,2.64,6.13,3.12.65,6.77,1.03,7.32-3.92.27-2.4,1.04-4.73,1.33-7.13.44-3.58,2.43-4.38,5.71-3.94,3.65.49,2.7,2.81,2.39,5.03-.15,1.03-.17,2.08-.21,3.12-.08,2.21-.97,5.4,1.36,6.12,2.52.78,3.99-2.2,5.1-4.3.87-1.66,1.89-3.57,1.81-5.33-.2-4.45,2.13-4.06,5.27-3.67,3.05.38,3.84,1.76,3.06,4.44-1.19,4.08-.94,8.26-.84,12.42.06,2.21.94,3.66,3.43,3.59,2.3-.07,2.69-1.53,2.96-3.46.59-4.1,1.76-8.15,2.09-12.26.35-4.39,3.13-4.36,6.13-3.98,3.76.48,1.89,3.4,1.75,5.21-.29,3.79-1.15,7.53-1.58,11.31-.28,2.41-.28,4.84.51,7.22.79,2.38,2.63,3.49,4.76,3.05,2.3-.47,3.41-2.53,2.65-4.85-2.23-6.83,1.46-12.89,2.36-19.29.38-2.7,2.71-1.44,4.23-1.66,1.68-.24,3.03.04,3.13,2.34.09,2.06.94,4.1.92,6.14-.06,4.48,1.94,6.53,6.36,5.99,4.72-.58,4.9-4.17,3.96-7.44-2.27-7.92-3.16-16.09-2.83-24.12.56-13.81,1.83-27.7,2.12-41.41.25-11.79,4.24-23.05,3.05-34.77-.2-1.93,1.25-1.76,2.19-2.24,2.65-1.35,5.53-2.71,6.97-5.25,3.2-5.64,8.58-7.45,14.13-9.52,13.86-5.18,25.94-13.09,35.81-24.89Z"/>
      <path class="cls-3" d="M273.88,172.95c-17.64.29-33.93-4.23-49.08-13.22-25.61-15.19-33.53-42.66-19.55-69.03,9.57-18.05,26.58-24.87,45.23-28.76,2.22-.46,4.81.43,7.15.98,22.26,5.3,44.62,10.03,67.41,12.46,7.31.78,11.54,6.1,15.15,11.63,7.89,12.07,8.15,25.17,3.8,38.46-3.26,9.96-8.62,18.87-15.06,27.12-10.55,13.52-25.4,17.99-41.54,19.63-4.48.46-9.01.49-13.52.71Z"/>
      <path class="cls-2" d="M251.56,296.3c7.63.11,15.25.07,22.83,1.25,3.19.5,4.54,1.81,4.17,5.13-.5,4.47-1.13,8.94-.37,13.48.52,3.1-2.17,2.27-3.52,2.21-8.82-.37-17.64-.89-26.46-1.48-5.53-.37-11.04-.95-16.56-1.42-2.04-.17-3.46-.74-2.28-3.2.07-.15.08-.34.14-.5,2.12-5.04-.26-12.74,5.54-15.08,4.77-1.93,10.95-.39,16.5-.39Z"/>
      <path class="cls-5" d="M252.68,290.34c-4.86,0-9.73-.12-14.59.04-2.89.1-4.63.03-3.57-3.83,1.18-4.32,1.71-8.83,2.28-13.3.29-2.27,1.37-2.88,3.44-2.72,12.76.98,25.69.69,37.83,5.87,1.61.69,2.35,1.03,1.88,2.72-.05.16-.05.34-.06.52-.47,11.58-.46,11.48-12.11,10.8-5.02-.29-10.07-.05-15.11-.05,0-.02,0-.04,0-.05Z"/>
      <path class="cls-2" d="M280.68,262.68c.09,7.89.14,7.54-6.82,6.68-10.49-1.29-20.82-3.86-31.42-4.17-2.98-.09-3.55-1.36-3.2-3.84.25-1.72.62-3.45.62-5.17,0-2.9,1.27-3.68,4.12-3.79,9.9-.39,19.6-.17,29.44,2.03,5.98,1.33,8.62,3.04,7.25,8.25Z"/>
      <path class="cls-2" d="M253.72,214.5c-.57-10.56,2.11-20.59,5.02-30.58,1.65-5.66,6.02-2.81,9.08-2.67,3.42.16,1.69,3.27,1.24,4.9-3.64,13.35-4.57,26.94-3.77,40.67.13,2.31-.15,2.87-2.47,2.9-6.86.11-9.01-1.76-9.1-8.45-.03-2.26,0-4.51,0-6.76Z"/>
      <path class="cls-5" d="M246.71,178.52c6.13.12,6.7.91,5.11,6.8-3.13,11.6-4.9,23.38-4.66,35.44.02,1.1.73,2.63-.63,3.28-1.23.59-2.32-.54-3.17-1.26-1.57-1.34-3.16-2.77-4.31-4.45-6.54-9.5-5.71-27.48,1.65-36.28,1.51-1.81,2.95-4,6.02-3.52Z"/>
      <path class="cls-5" d="M271.77,229.14c-.45-13.06-1.43-26.2,2.81-38.87,1.11-3.31.24-9.15,6.15-8.39,5.18.67,2.88,5.72,3.4,8.81,1.7,10.03.67,19.96-1.56,29.86-1.36,6.05-4.28,9.42-10.8,8.59Z"/>
      <path class="cls-5" d="M282.91,240.78c0,1.03.03,1.55,0,2.07-.48,6.86-1.09,7.79-7.59,6.5-9.9-1.97-19.76-3.36-29.87-2.66-3.06.21-5.09-.68-3.66-4.43.61-1.6,1.01-3.31,1.25-5.01.39-2.76,1.6-3.44,4.21-2.33,10.09,4.3,20.54,4.38,31.07,2.12,3.83-.82,6.42-.8,4.58,3.75Z"/>
      <path class="cls-5" d="M322.66,194.22c0,9.75-.97,11.22-8.62,13.99-2.55.93-3.83,1.07-3.45-2.41.93-8.51-1.08-16.51-5.42-23.81-1.65-2.77-.9-3.54,1.77-4.52,9.76-3.6,11.28-1.38,14.73,8.04,1.03,2.82.98,5.77.99,8.72Z"/>
      <path class="cls-2" d="M205.05,194.05c-2.43.18-9.82-7.1-9.24-9.45,1.92-7.73,3.49-15.63,8.02-22.4,1.21-1.8,2.41-5,5.47-2.47,2.64,2.19,7.64,3.18,5.19,8.58-3.5,7.72-7.61,15.25-7.99,24.02-.04.9-.31,1.71-1.46,1.73Z"/>
      <path class="cls-5" d="M223.52,203.16c-11.93-3.05-12.19-3.6-9.71-15.01,1.22-5.64,3.24-10.92,5.86-16.03,1.29-2.52,2.57-3.04,5.11-1.45,2.45,1.53,5.26,2.47,8.13,3.76-6.67,8.54-9.5,17.96-9.38,28.73Z"/>
      <path class="cls-2" d="M288.84,223.59c1.67-8.02,2.93-15.46,2.67-23.08-.18-5.38-.25-10.75-1.22-16.06-.26-1.41-.22-2.92,1.48-3.45,1.81-.56,2.73.47,3.65,2.01,6.18,10.32,6.36,21.02,2.08,31.95-1.46,3.74-3.76,6.91-8.67,8.63Z"/>
      <path class="cls-2" d="M330.17,198.41c-.92-5,.17-9.56-1.3-13.87-1.18-3.45-1.96-7.03-4.86-9.6-2.51-2.22-1.33-3.71.96-5.23,8.2-5.47,8.78-5.23,11.62,4.31,1.84,6.2,1.27,12.4.17,18.53-.56,3.13-3.88,3.94-6.58,5.86Z"/>
      <path class="cls-5" d="M344.82,181.56c-.77-3.5-1.59-7-2.3-10.52-.7-3.45-1.78-6.76-4.55-9.05-1.75-1.45-1.08-2.39-.11-3.78,3.56-5.1,5.08-5.09,7.81.59,3.62,7.51,3.71,15.1-.85,22.75Z"/>
      <path class="cls-5" d="M196.33,147.03c2.67,1.55,3.64,3.89,5.24,5.66.86.95.67,1.65-.13,2.59-5.07,5.89-7.64,12.98-9.6,20.36-.16.59-.73,1.07-1.34,1.9-3.02-11.44,1.63-20.81,5.84-30.51Z"/>
      <path class="cls-1" d="M310.14,126.95c-2.25-2.06-7.57-.76-6.78-4.5.82-3.87,5.52-2.48,8.62-2.43,7.05.12,14.07,4.92,15.96,10.55.56,1.66,1.33,3.57-.46,4.73-1.51.99-3.32-.07-4.08-1.3-2.26-3.63-3.81-1.49-5.19.5-8.9,12.87-21.92,18.97-36.52,22.75-20.15,5.22-44.53-5.82-53.65-24.57-.53-1.08-1.26-2.26-1.25-3.38.05-4.61-1.11-7.19-6.42-5.03-1.47.6-3.21-.11-3.99-1.69-.79-1.62.65-2.55,1.59-3.49,2.79-2.78,6.21-4.42,10.07-5.05,7.28-1.19,8.54.2,8.44,7.41-.1,7.42,3.65,13.62,9.01,18.06,23.43,19.41,51.71,6.24,64.64-12.58Z"/>
      <path class="cls-4" d="M309.47,91.24c-.12,5.6-5.12,9.99-11.27,9.89-5.77-.09-9.81-4.21-9.77-9.94.03-5.69,4.2-9.59,10.12-9.47,6.29.12,11.04,4.26,10.92,9.53Z"/>
      <path class="cls-4" d="M253.46,76.64c7.8.21,12.1,3.43,11.77,8.81-.32,5.18-6.53,9.62-13.05,9.34-5.45-.23-8.95-3.38-8.93-8.03.02-5.61,4.73-10.27,10.21-10.13Z"/>
      <path class="cls-4" d="M284.71,110.32c-.11,5.23-5.61,11.07-10.14,10.78-4.7-.3-10.25-5.63-10.09-9.68.18-4.34,5.51-8.05,11.27-7.83,5.24.2,9.04,3.05,8.96,6.73Z"/>
    </g>
  </g>
</svg>