<?xml version="1.0" encoding="UTF-8"?>
<svg id="Layer_1" data-name="Layer 1" xmlns="http://www.w3.org/2000/svg" viewBox="0 0 512 512">
  <defs>
    <style>
      .cls-1 {
        fill: #e5007e;
      }
    </style>
  </defs>
  <g id="triNMl">
    <g>
      <path class="cls-1" d="M162.84,473.23c-6.01-1.19-14.17-10.62-14.44-16.87-.5-2.49.86-2.99,3.15-2.67,2.17.29,4.6,1.08,6.51.45,4.94-1.64,6.16.02,5.66,4.74-.41,3.87.7,7.67,1.92,11.31,1.06,3.17-.22,3.55-2.8,3.04ZM179.74,464.5c-2.28-.07-.97-2.64-1.38-4.09.52-1.37-.93-3.79,1.56-3.99,1.92-.16,3.77,1.56,3.6,3.39-.18,2.04-1.29,4.77-3.78,4.69ZM287.49,455.28c-.8.04-1.48-.18-1.52-1.1-.08-1.61,1.14-2.14,2.37-2.54,1.12-.36,1.88.31,1.83,1.32-.08,1.54-1.45,1.93-2.68,2.32ZM332.3,442.78c.94,1.14,1.53,2.03.22,3.25-1.33,1.22-2.61,1.82-4.4.76-5.12-3.07-10.89-4.06-17.52-4.8,6.63-5.65,17.03-4.88,21.7.79ZM360.28,29.5c.46-.52,1.64-.64,2.47-.57,3.91.34,6.98,4.48,7.08,9.97-3.94-1.7-5.82-5.09-8.79-7.13-.83-.57-1.43-1.51-.76-2.27ZM289.06,26.65c3.21-.48,6.28-2.09,10.65-1.43-3.5,2.79-6.66,4.19-10.07,5-1.28.31-2.66-.09-2.8-1.76-.11-1.46,1.14-1.65,2.22-1.81ZM207.01,455.26c-2.84,8.31-5.03,16.97-11.84,23.24-1.34,1.23-2.85,2.33-4.43,3.23-1.34.78-2.93,2-4.4.19-1.5-1.85.07-2.99,1.14-4.21,2.66-3.03,5.57-5.89,7.9-9.15,2.79-3.9,4.58-8.35,5.02-13.21.23-2.51,1.23-3.81,3.41-3.03,2.37.11,4,.59,3.2,2.94ZM307.23,466.19c-3.49,2.93-7.76,3.71-13.15,5.82,2.63-5.77,6.1-8.48,9.69-10.97,2.12-1.47,4.87-1.79,6.41.59,1.89,2.93-1.44,3.29-2.95,4.56ZM325.66,470.38c3.18-5.12,4.73-10.77,11.73-10.19-1.72,4.15-5.45,7.49-11.73,10.19ZM21.11,288.78c-5.92-6.49-8.65-9.16.96-14.53,3.83-2.15,7.61-4.41,11.49-6.47,1.19-.63,2.95-1.44,3.03,1.61-.63.96-1.5,2.12-2.18,3.39-2.68,4.99-5.41,9.97-7.92,15.05-1.48,3.01-3.21,3.32-5.38.95ZM36.92,325.53c-1.75,1.62-3.24.4-3.46-1.59-.51-4.66,1.29-9.02,2.19-13.5.07-.39.71-.89,1.15-.96,4.61-.81,9.24-1.55,14.58-2.42-2.75,8.44-8.87,13.28-14.46,18.47ZM42.2,289.57c1.47-3.73,4.2-6.46,7.87-10.35-.55,5.58-2.02,9.11-4.6,12.17-.75.89-1.77,2.21-3.15,1.22-1.02-.73-.49-2.08-.12-3.04ZM49.2,245.13c-11.73-1.79-23.4-5.6-30.7-17.41-2.09-3.37-2.58-6.85-.96-10.53,2.29-5.22,7.3-7.07,11.7-3.59,9.28,7.34,17.57,15.77,24.25,25.6,2.41,3.54.84,6.05-4.29,5.93ZM137.02,431.68c-3.96,4.36-5.55,2.79-7.95-.76-1.92-2.84-3.05-5.84-2.85-9.36.85-3.31.01-8.5,4.61-8.72,3.87-.18,6.74,3.77,7.43,7.66.64,3.61,2.42,7.17-1.24,11.18ZM172.32,430.61c-.15.3-1.07.51-1.42.34-2.5-1.25-1.37-3.25-.95-6.03,2.14,2.14,3.5,3.49,2.37,5.69ZM481.13,158.69c1.53-.9,3.68-2.01,3.5,1.38-.4,7.8-10.26,16.86-17.69,16.41-2.57-.17-1.93-1.78-1.06-2.98,4.2-5.82,8.99-11.11,15.25-14.81ZM475.95,220.47c5.99,8.83-.33,16.85-1.74,25.14-.59,3.52-4.11,1.01-5.3,1.76-9.59.18-17.67-3.7-26.34-4.28-2.93-.2-1.31-3.32-1.52-5.07-.56-4.58-.05-7.84,6.29-7.77,6.04.07,7.6-2.53,7.51-8.69-.03-1.37.18-2.58,1.32-3.45,4.29-3.26,8.95-5.96,14.2-7.19,4.41-1.02,6.87,1.84,6.01,6.38-.2,1.06-1.13,2.13-.43,3.17ZM443.18,258.59c-.13,1.1-1.02,1.55-1.93,1.58-1.19.04-1.46-.91-1.39-1.9.07-1.04.61-1.68,1.75-1.63.85.38,1.71.81,1.57,1.95ZM446.72,195.32c-.1.37-.82.56-2.04,1.32-.56-5.34-.77-9.99-2.97-14.47-1.59-3.25,1.49-5.58,4.27-7.03,1.17-.62,2.21.38,2.19,1.65-.05,6.21.3,12.46-1.45,18.53ZM437.13,134.28c6.36-7.82,12.44-15.94,22.92-18.9,4.12-1.16,6.15-.62,5.54,4.23-2.21,9.61-7.11,17.89-13.47,25.43-1.45,1.71-2.43.71-3.7-.04-3.17-1.87-6.27-3.89-9.61-5.38-2.91-1.3-3.6-2.98-1.68-5.34ZM436.07,152.09c2.53,1.65,7.65,3.42,4.4,7.04-5.32,5.91-9.48,14.69-19.82,12.73-1.5,0-2.79-.08-4.07,0-2.69.19-3.92-.65-2.65-3.46.23-.5.6-1,.64-1.51.55-7.09,3.27-10.68,11.13-7.97,2.87.99,5.74-.28,6.72-3.92.47-1.71,0-5.31,3.65-2.92ZM430.12,195.02c-1.02.48-1.74-.39-2.39-.93-2.82-2.34-5.55-4.76-9.19-5.89-.87-.27-1.86-1.45-2.03-2.36-.22-1.19,1.14-1.7,2.12-2.19,6.6-3.35,12.11.41,12.4,8.46-.14,1.03.39,2.31-.91,2.91ZM402.14,241.74c-2.85,1.74-5.62.15-8.15-1.65-3.12-2.21-2.81-5.51-.58-7.02,4.38-2.97,1.65-13.16,10.63-10.75,4.19,1.13,5.72,4.95,5.14,9.01.79,5.81-3.34,8.14-7.04,10.41ZM322.92,324.37c1.29,3.55.16,5.02-1.99,6.47-1.49-2.87.34-4.12,1.99-6.47ZM205.47,97.09c2.47.32,3.17,1.3,1.66,3.57-1.34,2.02-2.77,4.2-4.91,5.05-3.33,1.32-2.19-2.95-4-3.89-1.43-.75-2.53-2.26-4-2.79-5.02-1.82-4.06-3.94-.85-6.81,2.55-2.28,4.75-4.95,7.6-7.96.9,2.42.64,3.64.22,4.89-1.38,4.14-.85,7.3,4.28,7.94ZM238.81,129.51c6.63,4.15,13.69,4.7,21.08,2.5h.01q6.28,1.72,3.42,7.78c-.55,1.16-1.2,2.29-1.85,3.39-4.27,7.17-3.8,8.68,3.58,12,1.47.66,4.26.35,3.55,3.14-.64,2.49-1.91,4.85-4,6.5-1.03.81-1.51-.42-2.14-1-8.27-7.57-22.42-7.96-31.19-.77-2.64,2.16-5.09,4.58-8.86,8,2.16-7.57.18-13.61.3-19.74.06-2.68.35-5.96,2.54-7.01,6.62-3.19,8.79-10.12,13.56-14.79ZM271.77,107.26c2.14-.9,4.23-2.29,3.31,2.15-.94,4.53-2.67,8.74-4.07,13.09-1.03,3.22-3.06,3.81-5.96,2.74,2.62-5.85,4.99-11.79,6.72-17.98ZM238.57,214.16c3.72-3.86,8.77-6.01,12.37-10.05,1.72-1.94,2.86-.75,2.86,1.56,0,1.83,0,3.67,0,5.51-.35,8.47-1.92,16.78-3.27,25.12-.48,2.92-1.59,5.54-4.63,6.16-3.27.66-3.47-2.71-4.5-4.57-3.16-5.71-4.26-12.05-5.06-18.47-.29-2.3.75-3.73,2.23-5.26ZM225.53,77.63c-.89,2.11-.81,5.99-5.14,4.87-3.49-.9-7.04-1.63-11.39-2.62,4.15-3.99,7.78-7.07,13.09-6.02,1.81.35,4.61,1.02,3.44,3.77ZM190.69,130.43c-1.61,3.27-3.6,6.39-5.72,9.37-.88,1.23-2.6,1.55-3.98.44-8.26-6.62-17.58-5.38-26.97-3.73-.87.15-1.8.02-3.7.02,2.87-4.57,5.69-6.85,10.47-8.23,9.45-2.71,18.47-.84,27.68.23,1.27.15,3.18-.04,2.22,1.9ZM314.18,131.61c.6.57,1.2,1.14,1.8,1.72-2.04,5.33-3.47,10.82-4.46,16.43-.21,1.21.64,3.89-1.59,3.15-2.78-.92-6.72-.22-8.1-3.73-.95-2.42,9.39-16.69,12.35-17.57ZM322.66,224.11c1.79-.27,3.65-.06,5.49-.06,2.41.46,6.19-1.01,6.98,1.38,1.04,3.18-1.05,6.68-2.46,9.84-.62,1.38-1.76,1.02-2.79.53-3.72-1.79-6.76-4.42-9.07-7.81-1.5-2.2-.39-3.54,1.85-3.88ZM314.47,194.11c.07-2.21.35-4.35,1.02-6.49,3.66-11.64,9.84-10.21,18.6-5.23,2.15,1.22,1.26,2.81,0,4.05-4.19,4.12-8.27,8.38-13.43,11.35-5.16,2.97-6.15,2.37-6.19-3.68ZM325.9,212.37c-1.64-1.23-1.04-2.18.28-2.9,11.42-6.21,19.6-15.89,27.73-25.66.97-1.16,2.56-2.15,5.38-1.35-6.54,9.04-12.01,18.33-16.8,28.05-1.35,2.75-13.9,3.85-16.59,1.86ZM337.16,170.23c.16-2.1,2.13-3.87,4.17-3.58,2.11.3,2.73,2.95,3.04,4.72.44,2.44-1.89,1.36-3.2,1.62-1.47-.74-4.2-.21-4.01-2.76ZM351.51,116.79c-2.31,14.42-8.55,26.92-18.52,37.55-1.45,1.55-3.36,4.14-5.39,2.86-1.81-1.13-2.12-4.18-1.5-6.64,1.45-5.71,2.98-11.39,4.48-17.09,6.95-4.02,10.61-10.68,14.03-17.53.64-1.28,1.34-2.53,2.01-3.8,5.74-1.42,5.85-1.3,4.89,4.65ZM340.69,75.26c-1.33,2.34-3.53,1.44-5.43,1.05-.93-.18-2.55-.21-2.43-1.61.15-1.73,1.53-2.87,3.06-3.62,1.91-.95,3.73-2.23,6.08-2.09.89,2.43-.21,4.39-1.28,6.27ZM304.72,162.49c6.36,2.43,7.1,5.62,2.25,10.33-3.52,3.42-4.83,8.08-7.83,12.29-1.21-6.66-1.93-13.3-.41-19.93.73-3.2,3.03-3.83,5.99-2.69ZM309.21,234.52c3.49,3.3,7.24,6.21,11.28,8.82,2.06,1.33,6.38,2.21,4.73,5.35-1.64,3.14-4.8,6.08-8.9,6.18-3.63-1.4-7.48-1.32-9.87-4.93-1.5-2.26-4.19-3.3-7.04-3.91-6.45-1.37-6.66-2.01-3.75-8.09.16-.33.28-.68.45-1.01,4.33-8.43,6.33-8.83,13.1-2.41ZM401.06,161.37c1.03.49.91,1.33.62,2.28-.64,2.07-1.19,4.17-1.78,6.26-2.75-.55-5.51-1.1-8.27-1.65h0c.16-3.04,7.01-8.05,9.43-6.89ZM392.76,138.78c3.07-2.05,6.41-3.47,10.46-4.15.71-.03,1.9-.11,2.22,1.3.3,1.32-.62,2.09-1.66,2.48-3.24,1.19-6.52,2.29-9.79,3.37-.86.29-1.9.47-2.26-.68-.3-.95.2-1.77,1.03-2.32ZM403.72,199.62c-1.23-3.1.44-4.03,3.13-4.09,4.87-.12,8.24,2.44,11.16,6.04,2.22,2.73,3.81,5.69,4.99,9.02-5.8.52-17.39-6.18-19.28-10.97ZM416.74,127.47c.44-1.23,1.29-2.11,2.79-1.89.88.13,1.06.75.99,1.52-.39,1.45-1.41,1.94-2.8,1.83-.92-.07-1.22-.79-.98-1.46ZM404.19,83.48c1.18-3.06,1.91-6.33,2.5-9.56.52-2.82,2.28-3.38,4.39-2.56,10.8,4.2,18.71,11.75,22.32,22.65,2.01,6.05-1.86,11.74-4.78,17.03,1.68-15.26-8.13-21.29-20.27-21.73-4.56-.16-5.85-1.45-4.16-5.83ZM394.61,116.69c.9-8.83,6.41-12.84,13.72-15.79,3.89-1.57,5.19.11,5.2,3.59.02,3.75-.99,7.26-3.07,10.43-.82,1.22-2.03,2.37-2.33,3.71-1.01,4.62-3.23,6.84-7.58,4.98-7.21-.27-6.63-.21-5.94-6.92ZM381.19,68.44c.49-2.71,3.46-2.85,6.41-2.78,1.75.25,5.02-.5,5.51,2.27.63,3.55-.79,7.17-2.12,10.58-.06.15-.23.33-.37.36-1.33.34-2.13-.43-2.61-1.47-1.61-3.55-7.72-3.94-6.82-8.96ZM367.98,161.31c.99-2.78,2.34-5.39,4.26-7.66.91-1.08,1.78-2.76,3.43-2.29,1.89.54,1.19,2.54,1.14,3.82-.23,5.91.56,11.69,1.86,17.43.69,3.02-.28,4.49-3.6,4.26-4.62-.31-9.11.27-13.49,2.63,2.53-6.05,4.29-12.18,6.4-18.19ZM325.99,43.93c.36-4.09,10.12-9.02,15.55-8.08,9.34,1.6,16.17,6.49,20.21,17.83-17.32-9.11-27.57,3.59-40.85,10.58,3.27-7.42,4.51-13.76,5.09-20.33ZM297.61,71.55c2.49,1.43,6.38.91,7.4,4.63-1,2.53-2.9,3.75-5.22,3.3-2.71-.52-4.54-2.54-4.53-5.39,0-.93.17-3.79,2.35-2.54ZM308.08,99.24c-2.58,5.94-1.68,12.47-3.17,18.6-3.9,5.19-7.79,10.39-11.77,15.69-3.89-13.11,2.22-27,14.94-34.29ZM279.29,182.98c.55,7.83,2.39,15.2,7.84,21.35,2.41,2.73,4.31,5.95,6.26,9.06,1.34,2.12,1.12,4-1.19,5.66-6.01,4.36-9.15,10.91-12.47,17.26-.79,1.49-.44,3.86-3.32,3.23-2.58-.56-2.95-2.34-2.88-4.56.23-7.38-.19-14.73-.92-22.08-.48-4.99-1.35-9.83-3.51-14.4-2.78-5.89-2.96-11.59,1.18-17.08,2.61-3.47,4.55-7.47,8.96-11.08,0,5-.22,8.84.05,12.64ZM268.68,52.19c-.55-1.14-1.22-2.4.2-3.41,1.09-.78,2.4-1.09,3.67-.72,1.84.54.97,2.14.91,3.24-.33,5.77.24,11.38,2.86,16.6,1.11,2.2.82,4.11-.22,6.25-1.7,3.52-4.23,6.39-6.58,9.42-1.74-.16-3.58-.04-4.84-1.62,1.75-7.29,3.42-14.59,5.3-21.84.75-2.92-.1-5.4-1.3-7.92ZM206.62,30.04c8.43-5.33,17.75-6.87,27.48-6.65,2.06.05,4.05.96,5.44,2.39,1.48,1.53,3.68,3.27,3.16,5.52-.5,2.16-3.19,1.9-5.08,2.3-6.82,1.46-13.61,2.71-19.38,7.32-1.84,1.46-2.96,3.09-4.17,4.84-2.94,4.24-4.36,4.28-7.31.24-2.11-2.88-3.56-6-3.86-9.29.2-3.05,1.28-5.12,3.72-6.67ZM143.82,106.68c1.06-4.12,3.79-8.49,7.57-12.04,14.15-13.26,30.13-23.51,48.92-28.94,1.05-.3,2.46-1.92,3.29-.1.72,1.61-1.14,2-2.14,2.66-11.64,7.72-21.68,17.07-29.42,28.76-1.18,1.78-2.75,2.91-4.52,3.92-5.3,3.04-10.09,6.75-14.46,11.01-1.52,1.47-2.83,3.72-5.54,1.98-2.27-1.46-4.1-3.17-3.7-7.25ZM131.31,164.54c3.11-3.5,7.57-5.15,11.49-7.44,6.32-3.68,12.52-7.68,19.58-9.92,1.23-.39,2.43-.91,3.86-.06-1.45,4.72-4.84,7.9-9.12,9.62-7.97,3.19-14.56,8.39-21.41,13.29-1.66,1.19-3.55,3.73-5.62,1.42-2.07-2.3-.52-4.94,1.22-6.91ZM176.86,323.52c-4-6.3-2.53-12.07-2.93-17.56-.33-4.53,1.54-7.86,4.27-11.45,3.58-4.71,7.98-5.14,14.46-5.15-8.26,10.31-13.52,20.99-15.8,34.16ZM226.17,401.23c-1.78,5.4-3.56,10.81-5.33,16.22-.46,1.43-1.69,2.54-2.85,1.85-2.65-1.57-5.68-1.23-8.42-2.26-1.88-.71-2.91-1.76-2.19-3.69,2.35-6.21,4.87-12.37,10.13-16.83,1.48-1.26,3.13-3.07,5.27-1.21,1.73,1.52,4.06,2.87,3.39,5.92ZM226.84,312.27c-6.8,9.15-16.17,14.89-25.62,20.53-6.37,3.8-8.17,2.68-9.29-4.62-.17-1.08-.15-2.2-.14-2.14-.13-5.69,1.4-9.87,3.35-13.78,5.49-11.02,12.61-20.67,24.23-25.99,5.21-2.38,6.18-1.84,6.37,3.62.14,4.3,1.1,8.37,2.69,12.3,1.51,3.73.96,6.65-1.59,10.08ZM248.26,396.65c-1.58.28-4.18.22-4.07-3.04.18-5.42-3.14-7.56-8.05-7.38-5.54.2-7.01-2.78-6.79-7.6.23-4.85-.76-9.87,2.48-15.46,3.52,7.33,5.89,14.37,12.15,19.13,6.49,4.93,14.09,4.63,22.83,6.23-6.22,5.13-12.26,7.04-18.55,8.12ZM292.17,353.87c-7.21,9.31-15.6,17.22-26.55,21.98-8.02,3.48-12.51,1.81-16.59-6.14-3.44-6.72-4.52-13.96-4.39-21.43.17-7.61.49-15.15,6.75-20.83,1.53-1.38,2.73-3.13,5.12-2.53,2.21.55,1.64,2.64,2.04,4.11,2.83,10.29,8.81,17.58,19.21,21.01,4.26,1.4,8.42-.13,12.62.24,1.01.09,2.34-.52,2.95.72.59,1.22-.53,2.05-1.16,2.87ZM275.95,321.5c1.95-.35,3.84-1.03,6.95-1.9-1.73,3-2.88,5.28-4.33,7.37-.94,1.34-1.21,4.3-3.59,3.24-1.95-.88-2.54-3.41-2.69-5.66-.18-2.68,1.77-2.71,3.66-3.05ZM294.57,290.54c-.37,1.99-2.44,1.14-3.75,1.13-6.9-.05-13.37,1.87-20.21,4.7,0-4.96,3.88-7.43,5.05-11.1,5.97-1.74,12.07-1,18.14-1.07,3.04,1.74,1.16,4.27.77,6.34ZM303.16,327.11c-.66.54-1.37,1.22-2.39.72-.75-1.02-.4-2.07-.03-3.1.81-2.31.76-5.22,3.85-6.04.78-.21,1.36.39,1.46,1.2.35,2.92-.61,5.36-2.89,7.22ZM322.28,413.18c-2.63,1.61-4.87.69-6.98-1.16-6.47-5.69-7.53-13.56-8.82-21.13.34-1.61-.35-3.53,1.55-3.96,1.48-.34,2.23,1.14,2.69,2.31,2.34,5.86,7.18,9.18,12.42,11.91,2.59,1.34,4.17,2.96,4.06,5.88-.13,3.21-2.54,4.71-4.92,6.15ZM349.23,381.62c-.68,1.46-1.12,3.44-3.19,3.31-2.08-.14-2.34-2.03-2.66-3.69-1.86-9.64-5.15-18.79-9.96-27.35-2.03-3.6.21-6.06,2.02-8.45,2.24-2.97,5.12-5.47,9.17-5.38,1.95.05,2.5,2.01,2.99,3.59,2.41,7.78,3.88,15.72,3.85,23.9.1,4.82-.14,9.6-2.22,14.07ZM355.65,299.57c-1.17,3.81-2.4,7.45-3.39,11.17-1.03,3.89-1.93,7.83-2.67,11.78-.59,3.24-2.79,3.61-5.3,3.21-3.18-.5-2.8-2.55-2.01-4.94,1.44-4.36,2.6-8.78,2.62-13.44.02-5.08-1.68-9.26-6.72-10.83-4.78-1.49-5.41-4.06-3.6-8.19.73-1.66.97-3.54,1.66-5.23.61-1.49,1.74-2.02,2.83-.41,3.99,5.89,9.32,10.32,15.15,14.23.99.67,1.53,1.56,1.43,2.65ZM364.23,283.15c-1.96,3.57-3.84,3.79-6.71.85-4.47-4.59-7.77-9.78-9.6-15.92,9.64-4.91,16.02-13.77,24.47-20.11,1.45-1.09,3.01-2.02,4.52-3.02,5.24,6.68,5.28,12.8.23,18.93-4.94,5.99-9.18,12.48-12.91,19.27ZM375.22,344.71c-2.96,1.36-5.19.61-6.94-2.32-4.64-7.76-3.17-9.21,2.58-15.96,5.78-6.78,10.47-5.63,16.73-2.3,2.33,1.23,5.18,1.48,8.38,2.33-5.96,7.69-12.16,14.31-20.75,18.25ZM410.19,287.28c-.04.19-.02.44-.13.53-6.86,5.84-5.94,16.27-12.98,21.99-1.69,1.37-2.77,4.21-5.88,1.84-2.84-2.16-3.65-4.35-1.47-7.32,4.26-5.81,8.13-11.85,11.02-18.48,1.39-3.21,3.79-2.24,6.03-1.37,1.38.54,3.58.31,3.41,2.81ZM427.32,228.4c-.97,15.38-6.28,29.73-10.49,44.36-.74,2.56-2.43,2.79-4.2,1.96-2.59-1.22-6.72-1.36-5.96-5.83.85-5.06,2.57-9.98,1.41-15.26-.45-2.07,1.8-2.04,2.93-2.7,9.61-5.64,13.59-13.7,12.08-24.41-.21-1.48-2.44-3.81.83-4.37,2.79-.47,3.05,2.04,3.38,4.04.12.72.02,1.48.02,2.21ZM456.05,319.79c-1.93,1.5-3.66,2.08-6.07,1.29-7.91-2.6-14.67-6.85-19.88-13.4-3.53-4.45-3.31-8.56.8-12.71,2.39-2.41,4.72-4.59,3.82-8.54-.33-1.44,8.29-6.33,9.58-5.61,1.17.64.62,1.5.24,2.31-.78,1.67-1.83,3.26-2.31,5.01-1.91,6.95,4.07,12.88,12.06,12,4.02-.44,7.89-1.56,11.99-3.24-.19,9.66-2.99,17.26-10.23,22.89ZM467.62,275.12c-6.67-.29-13.1.74-20.08,3.5,1.08-4.25,4.46-7.04,3.64-11.16-.32-1.6,1.44-1.49,2.36-1.04,9.04,4.37,17.9,4.67,27.12-2.3-2.73,7.36-7.62,11.24-13.04,11ZM491.75,204.9c-1.46,1.18-2.8.64-4.07-.15-3.06-1.92-5.35-5.01-9.51-5.18-3.43-.14-6.83-.98-11.28-1.67,4.87-5.13,7.33-11.52,15.07-12.17,2.16-.19,4.09-2.95,6.16-4.48,3.84-2.85,6.44-1.46,8.29,2.46,2.13,4.49-.89,18.13-4.66,21.19ZM500.4,170.5c-2.89-1.41-3.13-2.51-2.43-5.32,2.2-8.87-3.26-15.82-12.51-16.5-5.89-.43-11.28,1.22-16.54,3.6-.79.02-1.41.78-2.27.5.44-.6.52-1.32.78-1.99,1.19-1.85,2.36-3.72,3.57-5.56,5.17-7.88,9.82-15.96,10.12-25.76.33-10.87-4.31-15.73-15.24-16.24-6.28-.29-12.28,1.13-18.87,2.86,3.2-12.91-1.02-22.99-9.77-31.49-7.07-6.85-15.18-12.13-24.4-15.65-1.5-.57-3.48-.49-4.1-2.39-2.86-8.73-10.19-10.29-17.7-9.94-5.54.25-6.32-1.9-6.64-6.5-.93-13.39-7.4-20.45-20.38-21.92-8.8-.99-17.6-.79-26.18,2.46-7.34,2.78-15.76,4.22-22.4.17-14.7-8.96-28.77-8.58-43.43-.81-5.55,2.95-10.9,6.18-15.92,9.97-1.42,1.07-3.4,3.17-4.61-.38-2.87-8.44-9.54-12.39-17.59-14.17-10.69-2.36-21.43-1.28-31.58,2.4-13.07,4.74-16.36,14.65-9.77,26.91,1.13,2.11,2.25,4.25,3.62,6.21,1.67,2.4.94,3.32-1.65,4.15-4.55,1.46-9.12,3-13.43,5.05-17.24,8.21-34,17.3-45.98,32.76-8.8,11.35-7.69,19.14,3.19,28.61,1.78,1.55,2.18,2.32.48,4.23-5.04,5.67-9.11,12.08-12.98,18.57-4.99,8.35-11.14,15.41-19.23,21.01-10.63,7.36-20.28,15.87-28.28,26.21-6.34,8.2-5.2,14.42,4.27,18.8,7.51,3.46,15.43,3.04,23.38,2.26,1.51-.15,3.82-1.71,4.38.32.64,2.36.25,5.15-.27,7.64-.48,2.34-2.74,1.36-4.22,1.24-12.01-.98-23.53,1.14-34.59,5.71-3.61,1.49-6.19.95-8.91-1.75-5.38-5.32-11-10.39-16.51-15.58-4.66-4.38-10.05-7.65-16.29-8.94-8.56-1.76-17.27-1.96-23.77,5.06-5.72,6.18-5.44,14.03-2.89,21.4,3.17,9.18,9.35,16.17,17.98,20.87,3.25,1.78,6.96,2.87,9.83,6.18-8.61,3.5-16.15,7.98-23.55,12.77-6.39,4.14-8.36,8.72-6.39,15.89,2.4,8.74,8.25,14.82,15.73,19.17,3.18,1.84,4.03,3.58,3.43,6.87-.77,4.17-1.51,8.38-1.74,12.59-.32,5.74-.54,11.99,5.34,15.24,6.61,3.65,14.13,4.4,20.68.36,16.54-10.18,26.53-25.18,27.58-44.67.34-6.37.83-10.4,7.15-12.67,1.88-.68,3.78-2.74,4.61-4.64,3.94-8.98,13.35-8.32,19.98-12.73.38.92.56,1.15.5,1.24-.78,1.42-1.6,2.83-2.41,4.23-9.16,15.86-12.34,32.66-7.5,50.54,2.19,8.08,6.86,14.74,15.35,16.69,10.17,2.33,20.11.62,29.37-4.53,7.22-4.01,13.39-9.49,20.02-14.92,1.17,4.06,1.98,7.44,3.13,10.71,4.21,11.96,11.32,20.6,25.1,21.47,1.22.08,2.38.91,3.57,1.38,8.32,3.32,16.67,4.59,25.15.46,1.38-.67,2.78-1.75,4.71-.76-2.54,7.37-5.26,14.75-5.26,22.51,0,6.03-.79,10.06-6.59,14.07-9.53,6.6-14.3,17.13-16.17,28.64-.62,3.78-2.45,7.36-5.57,8.26-3.18.92-4.05-3.46-5.49-5.76-7.22-11.59-17.52-16.56-30.98-14.46-3.44.54-6.47.03-9.71-.88-7.43-2.08-14.87-4.82-22.47-5.48-13.91-1.22-15.99,2.48-13.07,13.98,1.57,6.19,4.93,11.94,6.46,18.13,2.48,10,7.34,17.56,17.38,21.12,1.97.7,3.31,1.65,3.91,4.06,5.23,20.95,13.41,28.22,34.67,31.26,2.29.33,4.37.56,6.33,2.61,9.73,10.17,26.06,9.57,35.62-3.01,6.54-8.6,10.49-18.55,12.13-29.32.55-3.62,0-8.11,1.95-10.7,7.7-10.28,8.54-24.05,17.92-33.58,2.3-2.34,3.83-3.69,6.86-3.8,10.99-.43,20.81-4.03,29.8-10.45,4.29-3.06,7.68-7.43,13.07-9.47,1.09,6.03,1.71,11.91,4.03,17.37,2.41,5.67,5.71,10.75,9.91,15.23,2.07,2.2-.22,2.8-1.32,3.71-2.51,2.11-6.08,3.1-7.4,6.43-1.16,2.91-3.45,3.9-6.06,5.11-9.09,4.2-17.58,9.26-23.68,17.63-7.38,10.12-6.94,18.26,2.15,26.99,2.92,2.8,5.71,5.69,8.43,8.69,7.41,8.18,16.69,11.32,27.53,8.47,12.1-3.18,22.86-8.91,32.41-17.09,10.22-8.77,21.19-16.89,28.06-28.74,3.85-6.64,6.6-13.74,2.86-22-1.27-2.81.27-7.18,1.25-10.62.58-2.01,3.35-.72,5-1.37,3.05-1.2,4.86-3.24,4.55-6.74-.31-3.37-2.71-4.06-5.43-4.38-1.46-.17-2.98-.09-4.38-.47-1.63-.45-3.66-1.21-1.12-3.16,4.31-3.31,3.13-7.36-.03-9.72-4.72-3.53-4.27-7.4-3.51-12.25,1.13-7.14-.02-14.37-.21-21.56-.04-1.74-.7-3.71,2.67-3.01,15.19,3.12,25.59-5.12,35.24-15.16,5.78-6.01,10.23-13.04,15.13-19.71,1.89-2.58,3.03-2.21,5.17-.58,6.74,5.16,13.68,10.06,21.91,12.68,8.71,2.77,17.06,3.15,24.39-3.57,8.2-7.52,14.86-16.56,13.31-27.87-1.63-11.79,3.14-18.88,11-26.61,10.27-10.1,8.91-16.96-2.58-24.06-2.01-1.24-1.67-2.38-1.21-4.09,1.79-6.78,3.16-13.67,3.62-20.65.22-3.27,1.31-5.37,3.9-7.33,8.01-6.04,12.53-14.39,14.59-24.05,2.16-10.16-2.12-19.83-11.05-24.2ZM78.85,252.54c-2.47.66-2.74-1.82-3.62-3.3-.37-.63-.77-1.24-1.11-1.89-.67-1.29-3.69-1.11-2.41-3.52.78-1.46,2.28-2.6,3.98-2.6,2.13,0,3.84,1.29,4.91,3.07.53.87.47,2.1.6,2.75-.18,2.42.11,4.83-2.35,5.49ZM214.52,240.29h0c1.12-1.94,2.8-2.46,4.46-1.09,2.39,1.98,3.23,4.59,1.7,7.59-2.72-1.53-4.88-3.61-6.16-6.5ZM215.11,208.71c.08-.36.17-.73.35-1.04,7.28-13.24,14.76-26.35,27.2-35.6,2.2-1.64,4.59-4.66,7.73-2.8,2.89,1.71,3.19,5.19,3.4,8.38.22,4.1-4.64,10.73-9.05,11.08-10.29.83-15.67,7.28-19.25,15.86-1.52,3.65-4.14,5.28-7.6,6.5-2.8.98-3.35.15-2.78-2.38ZM212.25,224.04c2.54-.16,5.07-.54,7.58-.95,2.54-.42,3.87.64,4.13,3.09.31,2.87-1.61,2.73-3.55,2.54-1.27-.13-2.55-.21-4.11-.34-1.18,0-2.64.03-4.1,0-1.15-.03-2.84.64-2.66-1.54.13-1.58.81-2.68,2.71-2.8ZM192.86,173.65c.14-4.86,1.3-8.78,7.48-8.39,2.08.13,3.78-1.18,5.51-2.28,2.89-1.85,4.13-.61,3.82,2.48-1.25,12.25-3.47,24.31-7.71,35.92-.43,1.19-.72,2.74-2.29,2.69-1.65-.06-2.46-1.52-3.02-2.89-2.75-6.69-4.3-13.62-3.8-19.94,0-3.18-.06-5.39.01-7.59ZM171.15,204.19c.08,10.28-5.75,16.85-14.35,22.32,0-5.34-.4-10.41.1-15.39.54-5.32,6.18-10.52,11.46-11.3,3.93-.58,2.78,2.36,2.79,4.37ZM136.27,186.65c.7-.59,1.38-1.34,2.21-1.61,10.9-3.67,19.79-10.92,29.56-16.6,1.03,6.1,2.07,12.18,3.09,18.28,0,.01,0,.01,0,.02v.02c-6.59,1.32-12.9,3.19-19.13,6.02-4.5,2.04-10.12-.25-15.06-1.5-2.29-.58-2.91-2.73-.68-4.63ZM137.32,251.28c1.14-.88,2.76-1.44,4.03-.27,1.1,1.01.43,2.38.08,3.6-2.22,7.7-5.35,8.96-14.3,5.1,3.75-3.12,6.9-5.87,10.19-8.43ZM135.66,234.96c1.09-2.49,1.88-5.18,4.58-7.52,1,3.35.6,6.05.19,8.75-.34,2.2-1.94,2.44-3.74,2.12-2.45-.42-1.59-2.06-1.03-3.35ZM133.5,204.65c1.22-.14,2.74-.55,3.52.7.88,1.39-.41,2.64-1.24,3.29-3.48,2.69-4.6,7.49-9.23,9.93-.69-8.28,1.94-13.37,6.95-13.92ZM121.92,277.74c.47-2.09-.14-5.16,3.58-4.89,1.39.28,3.8.15,3.18,1.98-.85,2.51-2.91,4.77-5.66,5.45-1.34.32-1.3-1.61-1.1-2.54ZM96.73,201.59c-2.25-.07-4.32.04-5.17-1.35-.96-1.55.55-3.16,1.6-4.33,6.26-6.93,12.7-13.67,20.61-18.8,1.87-1.2,3.65-1.24,4.67.8,1.01,2.02,4.51,3.27,2.18,6.48-2.04,2.81-3.81,5.61-3.88,9.44-.05,2.51-2.63,4.02-4.98,4.6-5.15,1.27-10.38,2.2-15.03,3.16ZM91.18,234.2c4.73-.4,9.29-1.03,13.86-1.12,6.39-.13,9.99,3.3,10.54,9.51.48,5.5-1.98,7.37-7.08,5.4-.68-.26-1.42-.64-2.1-.59-9.02.58-12.91-5-15.22-13.2ZM158.9,295.87c-9.75,11.54-20.63,22.02-34.81,28.25-2.08.91-4.27,1.01-7.43,1.07-5.76.74-7.73-4.27-8.87-9.03-1.71-7.16-2.07-14.48.26-21.78,1.01-3.19,2.13-3.28,4.58-1.62,6.62,4.51,11.53,4.33,18.55-.52,6.16-4.26,10.41-10.28,14.74-16.2,3-4.1,4.11-4.19,6.41.18,1.16,2.18,2.64,3.97,4.46,5.53,5.4,4.65,6.7,8.69,2.11,14.12ZM168.41,271.86c-1.76,1.28-2.63.3-3.51-1.02-2-3-2.71-6.38-2.96-9.88-.38-4.2,2.89-5.61,5.65-7.35.34-.22,1.1-.14,1.45.1,3.71,2.62,3.2,15.37-.63,18.15ZM175.66,244.96c-.71.63-1.6.04-1.83-1.15-.57-2.96,7.5-18.32,10.5-19.85h0c2.92,2.9,4.01,6.73,5.37,10.42h0c-3.03,5.71-9.64,6.69-14.06,10.58ZM201.61,255.27c-.45-1.78-1.52-2.73-3.07-3.56-1.38-.74-3.94-.8-3.79-2.63.19-2.26,2.96-1.5,4.51-2.27,3.21,3.54,6.43,7.08,9.64,10.62-5.07,3.47-5.95,3.24-7.29-2.16ZM227.34,273.63c-1.83,1.61-4.4,2.32-5.83.55-1.81-2.26,1.58-2.97,2.5-4.47h0c1.55.82,3.54.91,4.45,2.76-.38.39-.73.8-1.13,1.16Z"/>
      <path class="cls-1" d="M468.92,152.28c-1.49,1.33-2.64,3.31-5.28,2.92.55-2.31,2.3-3.24,3.79-4.41-.26.67-.34,1.39-.78,1.99.86.28,1.48-.48,2.27-.5Z"/>
      <path d="M401.46,182.36c-3.7,21.69-13.34,40.97-23.62,60.03-.42.79-.62,1.7-.93,2.55-1.51,1-3.07,1.93-4.52,3.02-8.45,6.34-14.83,15.2-24.47,20.11-8.82,2.03-16.58,6.62-24.82,10.09-9.34,3.94-19.46,4.38-29.3,6.04-6.07.07-12.17-.67-18.14,1.07-16.82-.26-32.03-6.43-47.19-12.8-.91-1.85-2.9-1.94-4.45-2.75h0c-4.2-5.14-10.47-7.73-15.12-12.29-3.21-3.54-6.43-7.08-9.64-10.62-3.03-4.25-4.47-9.72-9.53-12.42h-.02c-1.36-3.7-2.45-7.53-5.37-10.42h0c-3.62-9.41-7.32-18.78-10.82-28.23-1.07-2.89-1.6-5.98-2.37-8.98,0,0-.01,0-.01-.02s0,0,0-.02c-1.02-6.1-2.06-12.18-3.09-18.28.11-3.12.45-6.26.27-9.37-.28-4.78.82-7.88,6.47-7.9,7.07-.02,10.05,1.91,10.43,7.68.23,3.67-.02,7.38.31,11.03,2.38,26.46,12.61,49.7,29,70.4h0c1.28,2.9,3.44,4.98,6.16,6.51,17.34,17.3,38.18,24.46,62.63,22.85,15.82-1.04,30.66-4.41,45.27-10.78,10-4.36,18.17-10.39,26.2-17.44,8.88-7.79,12.94-18.16,17.72-28.26,5.37-11.37,9.41-23.19,10.04-35.87.3-6.07,3.97-8.13,9.09-9.04h0c2.76.56,5.52,1.11,8.27,1.66,3.04,3.85,2.33,7.93,1.56,12.45Z"/>
      <path d="M346.62,112.15c-.67,1.27-1.37,2.52-2.01,3.8-3.42,6.85-7.08,13.51-14.03,17.53-4.88,1.8-9.74.53-14.6-.14-.6-.58-1.2-1.15-1.8-1.72-3.73-1.29-5.74-4.05-6.87-7.71-.63-2.08-1.59-4.05-2.4-6.06,1.49-6.13.59-12.66,3.17-18.6,2.71-3.9,4.32-8.44,7.65-12.02,6.94-7.46,14.02-6.89,22.28-4.13,6.97,2.33,8.47,9.15,8.77,15.82.2,4.4-.09,8.82-.16,13.23Z"/>
      <path d="M271.77,107.26c-1.73,6.19-4.1,12.13-6.72,17.98-1.72,2.26-3.44,4.52-5.16,6.77-7.39,2.2-14.45,1.65-21.08-2.5-7.37-10.61-6.52-32.39,2.18-41.37,3.66-3.78,8.45-6.36,14.35-5.79,3.07.29,6.22-.24,9.34-.4,1.26,1.58,3.1,1.46,4.84,1.62,3.77,7.61,1.97,15.75,2.25,23.69Z"/>
    </g>
  </g>
</svg>