<?xml version="1.0" encoding="UTF-8"?>
<svg id="Layer_1" data-name="Layer 1" xmlns="http://www.w3.org/2000/svg" viewBox="0 0 512 512">
  <defs>
    <style>
      .cls-1 {
        fill: #1164af;
      }

      .cls-2 {
        fill: #1c1c1c;
      }

      .cls-3 {
        fill: #019cde;
      }

      .cls-4 {
        fill: #fefefe;
      }
    </style>
  </defs>
  <g id="Ufx2bc">
    <g>
      <path class="cls-2" d="M371.17,276.36c-12.09,3.36-23.61,7.92-35.72,10.43-4.55.94-9.05,2.01-13.76,1.98-3.3-.02-5.74,1.21-7,4.82-10.54,30.33-22.87,60.02-32.08,90.82-.75,2.49-1.32,4.95-1.32,7.57-.05,23.27-.4,46.54-1.61,69.78-.2,3.92.96,5.71,4.73,7.04,16.03,5.66,31.97,11.57,47.85,17.63,8.21,3.13,11.25,9.38,8.86,16.59-1.77,5.36-5.94,7.12-10.94,8.04-13.45,2.48-26.41-.41-39.23-3.82-9.62-2.56-19.07-5.74-28.53-8.87-2.58-.85-4.92-.85-7.54-.43-18.65,3.05-36.72,8.84-55.44,11.48-6.87.97-13.75.93-20.57-.46-3.97-.81-7.21-3.07-8.43-6.82-1.28-3.95-.06-7.43,3.42-10.47,11.94-10.42,26.23-15.42,41.3-18.85,4.18-.95,8.25-2.39,12.45-3.19,5.08-.96,6.72-3.54,6.68-8.79-.14-18.94.28-37.89.49-56.84.06-5.23-1-10.08-3.34-14.91-16.17-33.45-28.84-68.34-41.49-103.21-1.39-3.83-2.78-4.58-6.86-3.77-14.88,2.95-29.46-.19-43.99-3.2-.5-.1-1-.19-1.82-.35-.12,7.74-1.36,15.1-6.13,21.42-2.64,3.5-5.73,6.53-9.84,8.1-13.2,5.06-24.11-2.84-23.57-17.08.11-2.88.21-4.5-3.52-4.96-5.32-.65-10.83-2.18-11.86-8.76-1.04-6.63,3.25-13.71,9.59-16.74,1.38-.66,2.7-1.47,4.85-2.65-2.02-1.71-3.9-2.99-5.39-4.62-5.01-5.44-3.15-12.76,3.83-15.16,5.89-2.03,11.89-1.44,17.87-.4,3.19.55,5.17.59,5.68-3.88.72-6.4,7.7-12.35,12.93-12.32,5.88.03,12.04,5.53,13.77,12.1,1.54,5.81.53,11.29-1.98,16.53-1.12,2.34-.54,3.24,1.77,3.97,8.55,2.7,17.32,2.8,26.1,2.14,3.86-.29,1.09-2.81.5-3.91-7.62-14.26-14.55-28.86-21.39-43.5-12.58-26.94-24.48-54.2-38.26-80.56-1.27-2.42-2.48-4.85-4.41-6.93-3.02-3.27-2.43-5.17,1.99-6.58,4.63-1.48,9.49-1.64,14.3-1.95,19.78-1.28,39.6-1.74,59.42-2.06.81-.01,1.63-.09,3.72-.2-5.94-3.58-9.95-7.67-13.63-12.1-1.23-1.48-2.8-3.05-1.2-4.96,1.34-1.6,3.29-1.39,5.26-.76,2.74.87,4.82,2.65,6.82,4.53,4.35,4.1,9.72,6.43,15,8.94,3.69,1.75,5.36,1.25,5.24-3.52-.46-17.92-.51-35.83.58-53.75.85-14.08,4.11-27.97,3.33-42.18-.17-3.11,1.56-4.49,4.75-4.77,28.91-2.55,57.81-2.91,86.7.28,6.71.74,8.26,3.05,6.74,9.55-5.8,24.86-7.92,50.29-11.4,75.5-.75,5.45-.93,10.98-1.39,16.47-.21,2.52.03,4.03,3.28,2.71,8.14-3.3,16.29-6.5,23.14-12.24,3.12-2.62,8.23-2.11,9.83,1.11,1.97,3.93-.76,5.88-3.8,7.68-5.37,3.18-10.63,6.55-16.81,10.38,8.76.45,16.57.91,24.37,1.25,11.71.52,23.42.93,35.13,1.44,3.55.16,7.05-.76,10.64-.11,4.13.75,5.99,2.42,4.95,7.04-5.04,22.4-13.35,43.64-22.86,64.42-9.65,21.08-19.7,41.97-29.53,62.97-1.02,2.17-1.76,4.47-2.72,6.95,7.96,2.31,15.49.69,22.94-1.48,6.62-1.93,12.74-5.15,19.17-7.54,3.85-1.44,4.23-3.57,2.77-6.66-1.77-3.74-1.87-7.66-1.61-11.63.49-7.56,4.23-12.04,11.15-13.53,7.25-1.56,15.15,1.13,17.74,7.16,2.19,5.09,4.55,6.39,10.14,5.2,9.45-2.01,13.18,1.9,14.27,7.68.82,4.38-.98,8.08-4.01,11.17-1.06,1.09-2.35,1.95-3.71,3.05,3.88,2.54,8.46,3.59,10.3,8.36,1.54,4.01,1.27,7.41-1.75,10.42-4.31,4.29-9.06,8.21-15.03,9.62-3.92.92-4.78,2.9-4.75,6.36.05,5.03-.28,9.97-4.42,13.77-5.34,4.9-11.94,6.19-18.3,4.3-7.31-2.18-10.93-8.64-12.41-15.93-.71-3.49-.66-7.14-1.01-11.37Z"/>
      <path class="cls-3" d="M129.84,255.54c11.06,7.09,23.35,8.76,36.12,7.95,4.3-.27,8.57-.7,12.89-.63,5.5.09,7.41-2.73,5.44-7.93-4.17-10.99-10.23-21.06-15.79-31.33-11.19-20.65-19.29-42.67-29.34-63.81-5.47-11.51-11.16-22.91-17.08-34.2-1.83-3.49-1.97-4.42,2.46-4.7,29.26-1.88,58.56-1.91,87.81-.82,11.98.44,23.9,3.04,35.99,2.85,6.02-.09,12.04-.58,18.07-.75,30.13-.85,60.19,1.13,90.26,2.53,3.96.18,7.92.29,11.88.4,3.59.09,4.66,1.35,3.55,5.16-7.09,24.34-16.31,47.81-26.94,70.84-8.65,18.76-18.04,37.16-26.32,56.09-2.36,5.39-.84,7.63,5.22,8.49,15.06,2.14,29.5.11,43.34-6.21,4.7-2.15,9.4-4.28,14.1-6.43,4.98-2.28,6.28-5,4.62-10.18-.68-2.12-1.79-4.09-2.63-6.16-.45-1.11-.88-2.27-1.08-3.44-.73-4.32,2.46-9.84,5.87-9.54,4.45.39,5.42,4.23,6.03,7.86.35,2.08-.45,4.07-1.28,5.99-.94,2.16-2.51,4.27.47,6.29,2.96,2.01,5.51,1.52,7.91-.75,2.37-2.25,4.59-4.68,7.56-6.18,2-1.01,4.54-2.42,6.15-.39,1.77,2.23.05,4.46-1.79,6.27-3.77,3.7-8.62,5.6-13.17,7.99-2.11,1.11-4.17,2.18-3.12,5.02.93,2.51,3.1,2.98,5.53,2.73,3.08-.31,6.16-.79,9.24-.83,2.91-.04,5.53,1.09,6.56,4.08,1.08,3.16-1.39,4.67-3.48,6.18-4.98,3.6-8.53,3.7-13.59.11-3.15-2.24-6.1-2.46-8.74.46-2.77,3.07-.37,5.24,1.59,7.52,3.12,3.63,3.7,12.71,1.21,16.66-1.94,3.07-6.13,3.16-8.65-.07-5.21-6.68-5.32-14.34-3.56-22.13.53-2.37,1.93-4.42-.74-6.42-2.44-1.83-4.8-1.66-7.21-.27-11.64,6.71-24.26,10.6-37.4,12.85-6.77,1.16-13.63,2.23-20.47,2.4-5.17.13-8.28,2.43-9.98,6.66-2.87,7.17-5.24,14.55-7.84,21.83-8.72,24.46-18.78,48.43-26.49,73.26-2.03,6.56-1.89,13.14-2.09,19.77-.63,21.18-.14,42.39-2.13,63.53-.71,7.53.98,9.64,8.14,12.25,15.99,5.82,32.05,11.47,48.08,17.19.49.17,1,.3,1.46.53,2.31,1.16,5.2,2.29,4.72,5.36-.6,3.75-4,3.09-6.69,3.02-16.38-.42-31.82-5.33-47.34-9.89-4.77-1.4-9.48-2.98-14.27-4.3-2.93-.81-2.12-3.37-2.33-5.08-1.45-12-1.41-24.05-.91-36.12.66-16,1.9-31.99.89-48.03-.21-3.4-1.49-5.18-5.07-4.84-3.27.31-6.07,1.38-5.34,5.31,1.96,10.53-.21,20.96-.61,31.4-.7,17.92-1.36,35.82.31,53.7.38,4.06-.44,5.53-4.95,5.95-12.55,1.17-24.3,6.2-36.63,8.59-8,1.55-16.03,2.26-24.06.2-1.12-.29-2.73-.61-3.12-1.4-.73-1.49.91-2.52,1.9-3.27,6.64-5.02,13.82-9.14,21.94-11.15,12-2.97,23.49-7.78,35.78-9.71,2.9-.46,3.96-2.58,3.66-5.34-1.84-16.84,1.26-33.72-.48-50.6-.59-5.74.54-11.67.9-17.5.28-4.6-.95-8.82-2.88-12.96-16.33-34.99-30.07-71.01-42.95-107.39-2.46-6.96-7.09-10.33-14.23-8.57-17.26,4.26-33.74,1.62-49.95-4.57-2.74-1.05-5.08-.43-7.32,1.06-2.44,1.63-1.32,3.78-.95,6.02,1.32,7.87.77,15.43-4.24,22.18-3.17,4.27-7.88,6.44-10.92,4.72-3.07-1.74-4.94-9.26-3.24-13.18,1.98-4.57,5.92-7.54,9.15-11.09,1.35-1.48,4.17-2.75,2.08-5.49-1.67-2.19-3.91-2.32-6.51-1.48-4.21,1.36-7.26,4.62-11.19,6.36-2.74,1.21-6.21,3.78-8.4.73-2.19-3.05-.07-6.54,2.48-9.21,3.52-3.68,8.22-3.97,12.81-4.59,2.04-.28,4.12-.3,6.13-.71,2.1-.43,4.22-1.31,3.73-4.02-.45-2.48-2.24-4.12-4.8-3.65-4.58.84-7.91-1.9-11.6-3.56-1.92-.86-3.63-2.42-2.94-4.87.67-2.38,3.02-2.04,4.79-2.09,6.62-.19,13.29-.35,16.9,6.95.94,1.91,2.8,2.41,4.81,2.4,2.38-1.12,3.69-.15,4.32,2.19Z"/>
      <path class="cls-1" d="M255.82,9.3c12.53-.22,23.83.42,35.1,2.03,3.12.44,3.74,1.64,3.24,4.33-3.66,19.76-5.8,39.73-7.99,59.69-.22,1.96-.31,3.8-2.85,4.18-20.99,3.08-41.92,5.19-62.86-.66-4.35-1.21-5.72-3.13-5.59-7.52.56-19.08,2.88-38.02,4.08-57.05.25-3.94,3.17-3.6,5.56-3.73,10.82-.59,21.62-1.86,31.32-1.27Z"/>
      <path class="cls-4" d="M215.7,88.29c21.48,5.24,43.52,4.8,65.59,1.16,2.08-.34,2.72,0,2.78,2.12.17,5.54-.88,10.96-1.48,16.42-.23,2.08-1.41,2.66-3.37,2.98-20.2,3.31-40.39,3.33-60.58-.05-1.55-.26-3.01-.19-2.97-2.51.11-6.67.04-13.34.04-20.12Z"/>
      <path class="cls-3" d="M129.84,255.54c-1.14-1.31-2.39-2.41-4.31-2.18,2.93-1.44,3.54-3.7,2.89-6.82-.91-4.43-.5-8.88,1.13-13.13.61-1.6,1.49-3.43,3.46-3.23,1.71.17,2.15,2.03,2.48,3.52,1.29,5.82.29,11.24-3.41,15.94-1.42,1.81-2.91,3.39-2.25,5.9Z"/>
      <path class="cls-2" d="M246.9,287.9c-14.66.41-26.2-6.3-36.05-16.27-12.42-12.57-18.08-28.1-18.86-45.6-.18-4.03.91-6.73,5.51-6.91,4.88-.19,5.67,2.88,5.65,6.72-.08,13.3,4.6,25,12.8,35.16,15.24,18.89,37.01,22.66,58.68,10.54,8.29-4.63,15.05-10.81,19.19-19.55.36-.77.82-1.54,1.39-2.15,2.46-2.59,5.27-4.13,8.63-1.71,3.23,2.32,1.96,5.5.41,7.83-4.1,6.14-8.52,12.09-14.37,16.79-12.57,10.09-27.07,14.59-42.98,15.15Z"/>
      <path class="cls-2" d="M257.93,162.34c-.22-2.95.33-6.49,1.41-9.96,3.11-9.94,10.25-14.81,20.13-13.7,6.7.75,11.82,7.29,12.75,16.62.77,7.68-.45,15.07-4.03,21.98-3.26,6.28-9.35,9.55-16.12,8.69-6.38-.81-11.32-5.48-13.01-12.2-.89-3.53-1.15-7.11-1.14-11.43Z"/>
      <path class="cls-2" d="M242.75,155.73c.3,9.59-3.76,17.75-8.9,25.38-3.15,4.68-13,4.42-16.41-.24-7.48-10.23-8.55-21.59-4.65-33.35,2.01-6.07,11.06-10.58,17.4-9.46,7.59,1.34,11.95,6.21,12.54,14.06.09,1.2.01,2.41.01,3.61Z"/>
    </g>
  </g>
</svg>