<?xml version="1.0" encoding="UTF-8"?>
<svg id="Layer_1" data-name="Layer 1" xmlns="http://www.w3.org/2000/svg" viewBox="0 0 512 512">
  <defs>
    <style>
      .cls-1 {
        fill: #1c1c1c;
      }

      .cls-2 {
        fill: #1aa4dc;
      }

      .cls-3 {
        fill: #facd01;
      }

      .cls-4 {
        fill: #212121;
      }

      .cls-5 {
        fill: #1a9f41;
      }

      .cls-6 {
        fill: #df0619;
      }

      .cls-7 {
        fill: #ea630f;
      }

      .cls-8 {
        fill: #8d63a6;
      }

      .cls-9 {
        fill: #1e4695;
      }

      .cls-10 {
        fill: #1f1f1f;
      }

      .cls-11 {
        fill: #fcfcfc;
      }

      .cls-12 {
        fill: #da0778;
      }

      .cls-13 {
        fill: #f1e6b6;
      }
    </style>
  </defs>
  <path d="M15.95,246.32c.45-1.45,1-2.9,1.45-4.35,1.45-4.69,4.02-8.49,8.26-11.17,2.01-1.23,4.13-1.79,6.48-1.34.56,0,1.23.33,1.56.67.33.45.45,1.34.22,1.79-.11.45-.89,1-1.34.89-2.46-.22-4.58.11-6.48,1.79-2.9,2.57-4.91,5.47-5.81,9.27-.33,1.67-.33,3.46-.33,5.14,0,1.56.56,3.01,1.56,4.24.33.33.67.78.67,1.23,0,.56-.22,1.34-.56,1.67-.33.33-1.34.33-1.67,0-.78-.56-1.45-1.34-1.9-2.23-.78-1.56-1.45-3.24-2.23-4.8v-3.24l.11.45Z"/>
  <path d="M232.24,0c.56.33,1.12.56,1.67.89,2.79,1.45,5.81,5.47,5.02,10.05-.22,1.34-.89,2.12-1.9,2.01-1.12-.11-1.67-1-1.45-2.46.33-2.34-.33-4.35-2.12-5.92-.67-.56-1.56-.89-2.46-1-.89,0-1.56-.22-1.79-1.23-.22-1,.22-1.67,1.23-1.9.22,0,.45-.22.78-.45h1.12-.11Z"/>
  <path class="cls-10" d="M206.11,30.04c1.67,1.45,3.46,2.79,5.14,4.35,1.34,1.34,2.12,3.01,2.34,5.02.33,3.68-2.01,6.59-5.69,7.15-1.67.22-3.35.45-4.69.56.22,3.01.45,5.92.67,8.93,0,.22.11.56.33.67,2.01,1.9,4.02,3.68,6.25,5.69,2.12-2.9,4.24-5.47,7.93-6.25,3.8-.78,6.59,1,9.27,3.24,3.35-3.72,6.55-5.81,9.6-6.25-.11-.89-.33-1.9-.45-2.79-1.12-5.92,2.57-11.84,8.26-12.84,1.9-.33,3.91.11,6.14.22.11-.56.33-1.45.56-2.34,1.34-5.92,5.58-8.82,11.72-8.93,2.01,0,3.46,1.12,4.8,2.57.33.33.56.78,1.23,1.45.22-1.23.45-2.01.56-2.79.89-7.26,4.8-12.28,11.61-14.74,3.8-1.45,6.36-.56,8.82,2.57,2.23,2.9,3.8,6.03,4.24,9.6,0,.33.11.56.22,1,1.23-.67,2.46-1.34,3.68-1.9,2.34-1.23,4.8-1.34,7.26-.45,1.9.56,3.24,1.79,3.91,3.68s1.45,3.68,2.12,5.58c1.9-.67,3.68-1.34,5.58-1.9,2.46-.67,4.69-.22,6.7,1.23,5.02,3.57,6.48,10.05,3.57,15.63-.78,1.56-1.67,3.13-2.46,4.47,1.9,2.12,4.02,3.91,5.58,6.14,1.67,2.46.89,5.36.22,8.15,2.46.45,4.69,1.23,5.92,3.91,4.58-3.91,9.16-5.25,14.07-.56,3.91-5.02,8.49-5.92,13.85-1.79,1.45-4.69,4.24-7.15,9.27-6.59-.89-3.91,0-7.15,2.57-10.05,2.57-2.9,6.03-3.24,9.71-3.24.11-1.67.22-3.24.45-4.69.45-2.68,1.67-5.02,3.24-7.26,3.8-5.14,9.49-4.35,13.18-2.01,2.79,1.9,4.91,4.35,5.92,7.7.11.45.33.78.33.89,2.12-.89,4.02-2.12,6.14-2.68,2.79-.89,4.91.22,6.7,2.57,2.46,3.35,3.01,7.15,2.46,11.17,0,.56-.11,1.12-.22,1.56v.33c4.35-.56,8.71-.45,11.28,3.8,2.79,4.47,1.45,8.6-1.67,12.51.89,1.12,1.67,2.23,2.57,3.13,3.13,3.35,3.13,6.81.67,10.94-2.34,3.8-6.03,6.14-10.38,7.15-1,.22-1.45.67-1.34,1.67v.67c0,3.13-.22,6.14-3.01,8.15.78,1,1.45,2.01,2.23,2.79.22.22.78.22,1.12.22,1.56-.45,3.13-1.12,4.69-1.56,5.58-1.34,9.94,1.23,11.61,6.7,1.56,4.91.22,8.93-3.13,12.51-1.79,1.9-3.68,3.57-5.69,5.47.89.89,1.9,1.9,2.9,2.68.33.22.89.33,1.34.22,2.12-.22,4.24-.56,6.36-.78.78,0,1.67-.22,2.34-.11,2.34.45,4.13-.56,6.03-1.79-.45-1-.67-2.01-1.12-3.01-1.12-2.57-.78-4.8,1.12-6.81,1.45-1.56,3.13-3.01,5.36-3.46,1.34-.22,2.79-.11,4.13.22,1.67.45,3.13,1.34,4.69,2.12.56-1.12,1.12-2.34,1.67-3.35,1.34-2.34,3.46-3.8,6.03-4.58,4.35-1.34,9.71,2.9,9.71,7.48v1.56c1.67.22,3.24.33,4.8.56,3.8.78,5.92,3.46,6.81,7.03.89,3.46-.33,6.36-2.9,8.82-.78.67-1.56,1.23-2.57,2.01.56.89,1.12,1.79,1.67,2.46,2.23,2.57,1.9,7.59-.11,9.83-2.57,2.9-5.69,4.69-9.71,2.68-.22.67-.33,1.34-.56,2.01-1,4.35-3.68,7.03-7.82,8.26-3.01.89-6.03-.78-7.7-4.24-.45-1-1-1.9-1.56-3.01-1.34.89-2.46,1.79-3.68,2.68-3.8,2.79-9.83.78-11.39-3.68-1.12-3.35-1-6.7,1-9.83-3.24-2.23-5.81-4.91-4.58-9.6-2.68.33-5.25.67-7.93,1.12.67,5.36-2.12,9.38-4.58,13.73,2.23,1.45,3.8,3.35,4.58,5.92s.22,4.91-1,7.37c.67.22,1.23.45,1.79.56,3.57,1.12,6.7,2.9,8.71,6.03,2.46,3.8,3.46,10.38-2.01,14.29-.22.11-.33.33-.45.45.78,1.45,1.56,2.79,2.12,4.13,1.79,4.69.56,9.6-3.13,12.95-2.01,1.79-4.35,2.46-7.03,2.46h-5.25c-.45,2.12-.89,4.24-1.34,6.48-.45,2.57-1.67,4.8-3.46,6.7-3.91,4.35-10.5,3.91-14.4-1-1-1.23-1.67-2.68-2.46-3.91-2.46-.33-4.8-.67-7.48-1.12-1.56,2.79-3.24,6.03-7.37,7.37,3.8,9.83,2.79,20.1,3.13,30.37,1.45-.67,2.79-1.23,4.13-1.79,7.03-2.68,14.18-5.36,21.22-8.04.11,0,.33,0,.56-.11,2.01-.67,1.79-.67,1.9-2.79.22-2.68.45-5.36,1.23-7.82,2.01-5.69,5.02-10.83,9.94-14.63,3.13-2.46,6.7-3.13,10.5-2.46,4.58.78,7.37,4.69,6.7,9.38-.45,2.9-1.45,5.58-2.9,8.15-.33.56-.67,1.12-1.12,1.9,2.34-.45,4.58-.89,6.7-1.45,5.02-1.23,9.83-1.23,14.63,1.23,3.35,1.67,5.36,4.02,6.14,7.37,1,3.91-1.67,9.16-5.47,11.17-1.67.78-3.35,1.45-5.14,2.23.67.56,1.23,1.12,1.79,1.56,2.12,1.67,3.68,3.8,4.91,6.14,1.45,2.79,1.34,5.58,0,8.26-1.67,3.13-3.68,6.36-7.7,6.7-1.67.11-3.57-.56-5.36-1-.67-.11-1.34-.45-2.23-.67.33,1.9.67,3.46.89,5.02.33,2.46.22,4.91-1.12,7.15-1.9,3.24-5.47,4.69-9.71,4.13-2.12-.33-4.13-1.12-5.81-2.57-1.67-1.34-3.13-2.9-4.8-4.24-3.46-3.01-5.02-7.26-6.92-11.17-1-1.9-1.67-4.02-2.57-6.14-1,.33-1.9.67-2.9,1-7.82,3.13-15.52,6.14-23.34,9.38-2.34,1-4.69,2.01-6.92,3.13-.56.33-1.23.89-1.34,1.45-2.12,8.15-6.03,15.63-9.83,23.11-4.35,8.71-9.71,16.86-15.41,24.68-4.58,6.25-9.6,12.06-15.41,17.08-4.91,4.35-9.83,8.49-15.07,12.39-6.36,4.8-13.29,8.71-20.55,12.28-3.24,1.56-6.48,3.13-9.83,4.8.89,2.68,1.67,5.36,2.57,8.04,3.24,9.16,6.36,18.31,9.71,27.47,1.12,3.01,2.57,5.81,3.91,8.82.45.89,1,1.34,2.01.78,2.12-1.12,4.24-2.23,6.25-3.46,7.15-4.58,14.07-9.38,20.77-14.63,3.01-2.34,5.25-5.25,7.48-8.15,3.35-4.35,6.59-8.71,11.05-11.95,4.47-3.24,9.27-6.03,14.85-6.03,4.02,0,7.37-2.23,11.28-2.57,2.23-.22,4.58-.78,6.7-.45,4.35.78,8.04,3.24,10.72,6.81,3.35,4.58,6.14,9.6,7.7,15.19.89,3.01,1,6.03.33,9.16-.89,4.13-1,8.26,0,12.39.33,1.23.67,2.68,1.56,3.57,3.68,3.8,5.58,8.49,6.7,13.62,2.57,12.28,2.57,24.45-.89,36.62-1,3.35-1.79,6.81-3.68,9.83-1.9,3.24-4.47,5.81-7.82,7.48-2.34,1.12-4.69,1.12-7.03-.33,0,0-.11,0-.22-.11-1.9-1.34-3.8-2.01-6.25-1.12-3.13,1.12-6.7.78-9.71-.22-2.68-.89-5.25-2.79-7.48-4.69-6.7-5.69-10.72-13.29-13.06-21.55-2.01-7.15-3.35-14.63-4.91-21.89-.45-2.12-.67-4.24-.89-6.59-1,.78-1.9,1.45-2.79,2.23-8.6,6.48-17.08,13.06-25.68,19.43-3.8,2.79-7.93,5.02-12.06,7.37-1.45.89-3.13,1.34-4.69,1.9-3.24,1.23-6.25.33-8.93-1.67-4.02-3.01-6.92-6.92-9.27-11.28-2.57-4.8-5.25-9.49-7.37-14.52-2.57-6.03-4.8-12.28-7.03-18.54-2.68-7.48-5.14-15.07-7.48-22.67-1.12-3.57-2.12-7.15-3.13-10.94-1.45.22-2.9.45-4.24.67-7.03,1.45-14.07,2.23-21.33,2.23-8.71,0-17.53-.11-26.24-.45-6.92-.22-13.62-1.9-20.43-3.24-5.02-1-10.05-2.12-15.07-2.9-2.68-.33-5.36,0-8.04.33-4.35.45-8.82.89-13.18,1.79-8.15,1.56-16.08,4.13-23.56,8.04-1.9,1-3.8,1.79-5.69,2.68-3.35,1.56-5.92,4.13-8.04,7.15-6.92,9.71-12.51,20.21-16.75,31.38-.89,2.34-1.9,4.58-2.9,6.92-1.79,3.68-2.57,7.59-3.01,11.61-.56,5.36-1.34,10.61-2.01,15.97-.22,1.67-.45,3.35-.56,5.02-.45,3.91-2.34,7.15-5.14,9.94-.22.22-.45.45-.67.45-2.57.56-3.46,2.79-4.69,4.58-2.68,4.02-5.92,7.26-10.94,7.93-3.35.45-6.7-.11-9.83-1.34-5.92-2.34-10.61-6.25-14.74-11.05-1.12-1.34-1.56-2.9-1.45-4.58,0-.78,0-1.67.11-2.46.89-4.58-1.56-7.48-5.02-9.6-5.92-3.57-9.94-8.71-13.51-14.29-5.36-8.26-8.37-17.42-10.38-27.02-1.34-6.59-1.79-13.18.11-19.76,1-3.57,2.9-6.59,5.36-9.27,1.45-1.56,3.46-2.57,5.69-2.79,1.56-.22,2.46-1,3.24-2.23,2.12-3.35,4.91-5.92,8.93-6.7,3.46-.67,6.48.89,9.38,2.46,4.35,2.34,7.82,5.69,10.72,9.71,3.68,5.02,7.26,10.16,10.72,15.41,2.12,3.24,3.68,6.7,5.47,10.05.22.33.45.78.67,1.23,1.79-3.01,3.35-5.92,5.14-8.82,2.46-4.13,4.91-8.15,7.37-12.17,4.8-7.93,9.6-15.97,14.4-23.9,2.01-3.35,4.91-5.58,8.37-7.15,7.7-3.57,15.74-5.81,24.01-7.82.33,0,.78-.22,1.23-.33-2.12-1.79-4.13-3.46-6.03-5.14-6.36-5.47-11.84-11.84-16.97-18.54-7.48-9.83-13.62-20.43-17.98-31.93-2.23-5.81-3.91-11.95-5.81-17.87-.56-1.79-1.12-3.01-3.24-3.57-5.92-1.56-11.72-3.46-17.53-5.14-.22,0-.45,0-.78-.11-.67,1.9-1.45,3.68-2.01,5.58-1.67,5.14-5.02,8.82-9.27,12.06-3.46,2.79-7.37,4.69-11.5,6.14-2.68.89-5.47,1.67-8.26.78-4.8-1.45-7.59-6.25-6.59-11.17.45-1.9,1.23-3.68,1.79-5.58,0-.22.22-.56.33-.89-2.68.78-5.25,1.34-7.7,2.23-2.9,1.12-5.02,0-6.92-2.01-4.02-4.35-4.58-8.49-1.67-13.62,1.79-3.24,4.02-6.03,7.03-8.49-1.34-.78-2.57-1.45-3.91-2.12-3.68-2.23-6.59-8.37-4.13-12.73,1.67-3.13,4.35-5.14,7.48-6.59,4.58-2.12,9.27-1.56,14.07-.33,1.45.33,2.9.89,4.35,1.23-.78-2.79-1.67-5.69-2.46-8.49-.67-2.46-.33-4.91.56-7.37.78-2.01,2.46-2.9,4.24-3.46,3.68-1.23,7.03-.22,9.83,2.34,5.69,5.14,9.38,11.5,11.28,18.87.45,2.01.33,4.13.67,6.25,0,.45.33,1.12.67,1.23,6.14,2.23,12.39,3.8,18.87,5.25v-4.58c-2.01,0-3.91.22-5.69,0-2.68-.45-4.69-2.12-6.25-4.47-2.46-3.8-3.35-7.82-2.34-12.28v-.56c-.22,0-.33-.22-.45-.11-4.58.67-7.48-1.79-9.71-5.25-1.56-2.23-1.23-4.8-.33-7.15.67-1.79,1.45-3.46,2.23-5.25-1-.33-1.9-.78-2.79-1-6.14-1.9-7.37-7.82-6.03-12.39,2.57-9.38,10.61-14.4,19.32-15.07.45,0,.89-.11,1.45-.22v-.45c.22-2.34-.45-3.91-3.13-4.47-2.12-.45-3.46-2.12-5.36-5.25-.33.11-.56.22-.89.45-4.8,3.13-9.49,1.67-13.51-1.34-.89-.67-1.67-1.34-2.46-2.12-1.9-1.9-2.12-4.24-1.45-6.7.67-2.23,1.45-4.47,2.23-6.81-1-.45-2.12-1-3.24-1.56-4.13-2.12-5.36-5.02-4.35-9.49,1-4.69,3.57-8.26,7.37-10.94,2.34-1.67,5.02-3.01,7.7-4.58-2.34-5.69.45-9.6,5.58-12.39-1.34-2.01-2.12-4.13-1.79-6.59.22-1.79.89-3.24,2.46-4.35,1.56-1.12,3.13-2.12,4.8-3.35-.22-.33-.56-.89-.89-1.34-2.34-3.57-2.01-7.03.89-10.05,4.02-4.13,8.82-5.14,14.29-3.91.22,0,.45.11.67.11h.45c0-4.8,1-9.04,5.47-11.84,4.35-2.68,8.6-2.46,12.73.56.56-.78,1.12-1.45,1.67-2.12,2.12-2.34,4.8-3.01,7.93-2.34,3.13.78,6.14,1.9,8.82,4.13.78-2.46,1.9-4.47,4.24-5.69,3.46-1.79,6.7-1.67,9.83.67,1.79,1.34,3.57,2.68,5.14,3.91,1.56-1.79,3.01-3.68,4.69-5.25,4.58-4.13,11.5-2.68,14.29,2.9.78,1.56,1.45,3.01,2.23,4.58,2.9-.89,5.81-1.45,8.37.78,2.23-3.57,4.47-6.92,9.49-6.25,1.67-5.14,4.13-9.27,10.27-9.83-1.34-2.9-3.35-4.91-5.92-6.25-.22-.11-.67.11-1,.22-1.45.56-2.9,1.23-4.47,1.56-2.23.45-4.35-.22-5.92-2.01-.56-.56-1.12-1.12-1.9-1.79-.67.78-1.23,1.56-1.79,2.34-1.9,2.68-4.58,4.02-7.48,5.14-.78.33-1.9.33-2.57,0-2.46-1.23-5.58-3.91-5.25-7.48.22-2.01.45-4.02.56-6.14-1.23.45-2.34,1-3.46,1.12-2.9.22-5.81.22-8.71,0-2.34-.11-3.8-2.12-3.91-4.47-.22-3.91,1.79-7.03,5.47-8.37,1.45-.56,3.01-1,4.69-1.56-1-1.12-1.9-2.12-2.68-3.13-3.35-4.35-1.9-11.39,3.13-13.73,1.45-.67,3.24-.56,4.91-.45,1.34,0,2.57.45,3.91.67.22-2.57.22-5.02.56-7.37.45-3.01,2.12-5.14,5.02-6.25,2.79-1,5.36-.11,7.59,1.67,1.34,1.12,2.34,2.46,2.79,4.24.11.56.45,1.12.67,1.9,1.12-1,2.12-1.9,3.13-2.79,2.9-2.46,6.25-3.01,9.83-1.9,4.8,1.56,7.48,8.26,5.02,12.73-1,1.9-2.46,3.57-3.57,5.36l.22-1.12ZM113.1,239.96c-1.23,1.79-2.34,3.35-3.35,4.91-.45.78-.78,1.79-.78,2.57,0,4.02.22,8.04.56,12.06.45,5.02.89,10.16,1.67,15.19,1.79,10.16,4.8,19.99,8.93,29.48,2.12,5.02,4.69,9.94,7.26,14.74,4.8,8.6,10.72,16.41,17.42,23.67,6.36,6.81,13.51,12.84,21.44,17.87,8.71,5.47,17.87,10.05,28.03,12.39,7.37,1.67,14.74,2.9,22.11,4.35,6.59,1.34,13.29,2.12,19.99,2.23,6.92.11,13.96,0,20.88,0,8.49,0,16.86-1.12,25.12-3.24,2.12-.56,3.46.45,3.8,2.57.45,2.12.78,4.24,1.45,6.25,2.57,7.93,5.36,15.86,7.82,23.78,3.46,10.94,7.48,21.66,12.62,31.93,2.57,5.02,5.36,9.83,9.49,13.73.89.89,2.12,1.67,3.24,1.9,4.24,1,7.48-1.23,10.61-3.57.33-.22.67-.89.78-1.34.67-2.79,1.23-5.47.67-8.37-.56-2.79-.89-5.81-1.9-8.49-.89-2.68-2.46-5.14-3.91-7.59-.22-.45-1.12-1-1.56-1-2.79.33-4.24-1.45-5.14-3.46-1.9-4.02-3.68-8.04-5.25-12.17-2.46-6.59-4.8-13.18-6.92-19.76-1.67-5.02-3.01-10.05-4.35-15.19-.78-2.79.33-4.35,3.01-5.36,1.79-.67,3.57-1.34,5.25-2.23,3.46-1.79,6.81-3.68,10.16-5.69,4.91-3.01,9.94-5.92,14.63-9.27,4.24-3.01,8.26-6.36,12.06-9.94,4.24-4.02,8.37-8.15,12.17-12.62,5.47-6.36,10.05-13.4,14.29-20.66,5.47-9.38,10.72-18.98,13.51-29.59.56-2.23,1.79-3.91,3.91-4.91,2.46-1.23,4.8-2.68,7.37-3.8,5.92-2.46,11.95-4.8,17.87-7.26,3.35-1.45,6.92-2.23,9.94-4.47,1.9-1.34,4.02-.67,5.25,1.45.56,1.12.89,2.34,1.23,3.46,2.34,7.59,5.58,14.63,12.73,18.98,1.79,1.12,3.57,1.23,5.47.78,1.12-.33,1.79-1,1.79-2.12s.22-2.34-.11-3.46c-1.56-5.36-4.13-10.16-8.6-13.73-.89-.67-1.79-1.45-2.46-2.23-1-1.12-.89-2.46,0-3.57.89-1.12,2.01-1.34,3.35-.56,1.23.78,2.46,1.67,3.57,2.57,4.13,3.35,8.04,7.15,13.51,8.37,2.23.45,3.01.45,4.47-1.34.56-.78,1.12-1.56,1.45-2.57.22-.67.33-1.67,0-2.34-.56-1.12-1.23-2.34-2.01-3.24-3.01-3.24-6.7-5.36-11.28-5.69-2.57-.22-5.25-.67-7.82-1.12-1.23-.22-2.23-.89-2.46-2.34-.22-1.9.89-3.24,2.79-3.24,2.68,0,5.25.22,7.93.45,4.8.45,9.38-.45,13.62-2.68,1.67-.89,2.57-2.57,2.57-4.58,0-1.79-1.23-2.79-2.68-3.57-3.24-1.67-6.59-2.23-10.27-1.45-5.14,1-10.38,2.01-14.85,4.91-.89.56-1.79,1.23-2.68,1.79-1.12.67-2.57.45-3.35-.33-1-1-1-2.12-.45-3.35.11-.33.33-.56.56-.89,2.01-2.68,4.13-5.36,6.14-8.15,1.67-2.34,3.24-4.8,3.57-7.82.33-2.57-.67-3.8-3.35-3.8s-5.14.89-6.92,3.01c-4.58,5.69-8.6,11.61-7.59,19.54.33,2.79-.33,3.46-3.01,4.35-3.91,1.34-7.93,2.79-11.84,4.24-6.92,2.57-13.85,5.14-20.77,7.7-1,.33-2.01.45-2.9-.45-.78-.89-.78-1.9-.33-3.01.45-1.12.78-2.34.78-3.46,0-3.91-.11-7.82-.33-11.84,0-2.34-.33-4.69-.45-6.92-2.12,3.01-4.35,5.69-8.04,6.36-3.68.67-6.7-1.12-9.83-3.01-.22.45-.45.67-.56,1-1.67,3.8-4.8,5.47-8.71,6.03-3.57.45-6.7-1.67-8.37-5.58-.89-2.23-1.79-4.47-2.68-6.7-.56.33-.89.67-1.23.89-4.8,3.24-11.05,3.46-14.63-2.9-1.79-3.13-2.23-6.48-1.34-9.94.33-1.12,0-1.67-1.23-1.67-.56,0-1.23,0-1.67-.22-7.59-2.79-10.16-9.6-6.14-16.41.78-1.34,1.79-2.46,2.79-3.91-5.92-3.46-6.7-8.6-4.69-14.74-4.02-.45-6.59-2.68-8.71-5.58-2.23-3.01-2.68-6.48-2.01-10.05h-.22c-.56.22-1.12.45-1.56.67-3.24,1.56-6.36,1.12-9.27-.78-3.8-2.34-6.25-5.69-7.26-10.05-.22-1-.56-1.34-1.56-1-3.57,1.12-6.36,0-8.6-2.9-.22-.22-.45-.45-.56-.56-1.67,2.01-3.13,4.13-4.91,5.92-2.57,2.57-5.69,4.58-9.38,4.91-7.26.56-10.38-3.57-12.39-9.94-.56-1.56-.33-3.35-.45-5.25-6.25,2.79-9.16-1.12-11.72-5.92-.45.33-.78.67-1.12.89-1.56,1-3.13,2.23-4.91,3.01-5.69,2.68-9.27,1.34-12.73-2.79-.45-.56-.78-1.12-1.23-1.79-1.34,1.12-2.68,2.12-3.91,3.13-3.57,3.01-8.49,2.9-11.84-.22-.89-.78-1.56-1.79-2.34-2.79-1.67,2.12-3.13,4.24-5.02,6.25-1.67,1.79-3.46,3.35-5.36,4.69-2.68,1.9-5.47,1.23-8.04-.45-.78-.56-1.23-.45-1.67.33-.56.78-1.12,1.56-1.67,2.46-1.79,2.57-4.24,4.24-7.48,4.8-1,.11-1.9.33-2.9.56v.89c.45,5.25-1,10.05-3.46,14.63-.67,1.23-1.56,2.57-2.68,3.24-2.68,1.79-5.36,3.35-8.82,3.01-.11,0-.33.11-.45.22.45,4.02,0,7.82-1.9,11.28-2.01,3.57-5.25,5.58-8.82,7.15.33,2.23.89,4.24,1,6.25,0,2.12,0,4.24-.33,6.36-.56,5.25-5.02,10.61-10.05,11.72-1.56.33-3.24.33-4.8.45-.11,1.56-.22,3.24-.45,4.8-1.12,6.36-4.02,11.61-9.16,15.52-2.12,1.67-4.47,2.01-6.92,1-2.79-1.12-5.69-2.34-7.59-5.14l.45.45ZM195.5,82.07c-1.67,1.23-2.79,2.79-2.9,4.8-.11,2.23-.22,4.47-.22,6.7,0,1.23-.56,1.9-1.56,2.34-1,.45-1.9.11-2.68-.56-1-.78-1.45-1.9-1.34-3.24,0-1.67-.33-3.13-1.45-4.35-1-1.23-2.01-1.45-3.13-.45-.89.67-1.79,1.56-2.23,2.57-.89,1.67-1.34,3.46-2.12,5.14-.67,1.67-1.9,2.23-3.24,1.79-1.45-.45-2.12-1.9-1.79-3.57.33-1.45.67-2.9,1.12-4.24,1.23-3.46.56-6.48-1.56-9.27-1.56-2.12-4.02-2.46-6.03-.78-2.34,2.01-3.57,4.58-3.68,7.59,0,.89,0,1.67-.22,2.57-.33,1.12-1.12,2.01-2.34,2.23-1.12.22-1.79-.56-2.34-1.45-.22-.45-.56-.78-.67-1.34-.89-4.24-4.24-6.36-7.59-8.37-1.12-.67-3.24-.33-4.24.56-1.12,1-.78,2.23-.45,3.35.45,1.12,1,2.23,1.34,3.35.33.78.56,1.67.67,2.57.11,1-.45,1.9-1.45,2.12-.78.22-1.79,0-2.46-.33-.56-.22-1-1-1.45-1.56-3.35-3.68-7.15-6.7-12.17-7.82-1.34-.33-2.57-.33-3.35.78-.89,1.23-.45,2.46.22,3.57.67,1.23,1.34,2.46,1.79,3.68.67,1.67,0,3.13-1.34,3.8-1.34.56-2.34,0-3.46-1.67-1.23-1.9-2.46-3.8-4.02-5.36-1.79-1.79-3.68-3.35-6.59-2.79-4.02.89-6.59,5.81-3.91,9.16,1.12,1.45,2.23,2.9,3.35,4.35.22.22.45.45.56.78.89,1.67.33,3.57-1.34,4.47-1.56,1-2.57.67-3.91-1.23-.22-.33-.45-.67-.78-.89-2.12-1.12-4.24-2.34-6.48-3.24-3.57-1.34-7.26-.22-9.71,2.68-.67.89-.89,1.79,0,2.57,1.12,1,2.34,2.12,3.68,2.79,1.67.78,3.57,1.23,5.25,1.9,1.12.33,1.9,1,2.12,2.23.33,2.01-1.45,3.46-3.57,3.01-3.46-.67-6.81-.78-10.16.67-1.34.56-2.9,1.34-2.79,3.01s1.79,2.57,3.35,2.9c1.45.33,3.01.33,4.47.45,1.79.11,2.79,1.12,2.9,2.68,0,1.67-.89,2.68-2.79,2.79h-3.24c-2.79.22-5.47.67-7.82,2.46-2.23,1.79-2.12,3.24.45,4.58.56.22,1.12.45,1.67.56.67.11,1.34,0,2.01.11,1.67.11,2.68,1,2.9,2.46.11,1.45-.78,2.68-2.46,3.01-1.45.22-2.79.45-4.24.45-4.02.11-7.59,1.34-10.83,3.8-2.68,2.12-4.8,4.58-5.47,8.15-.22,1.23,0,2.23,1.12,2.68,1.45.56,2.9,1.45,4.35,1.34,2.34-.22,4.58-1.12,6.81-1.67.67-.22,1.23-.56,1.9-.56,1.56-.22,2.57.45,3.01,1.9.45,1.23-.11,2.57-1.45,3.24-.89.45-1.9.89-2.9,1.45-2.79,1.56-5.25,3.46-6.59,6.59-1.56,3.57-1.23,4.58,2.01,6.81,2.23,1.45,4.35,1.67,6.7.33,2.9-1.56,5.58-3.35,7.93-5.69,1.79-1.79,4.24-1.23,4.8,1.12.33,1.23-.33,2.12-1.12,3.01-.89,1-1.67,2.01-2.34,3.13-.22.45-.22,1.23,0,1.56.78,1,1.9,1.67,3.24,1.45,2.23-.45,4.47-1,6.59-1.45,1-.22,2.01-.45,3.01-.56,1.45,0,2.46.78,2.68,2.12.33,1.45-.22,2.57-1.67,3.13-1.23.56-2.57.89-3.91,1.34-1,.33-1.9.78-2.01,2.01-.11,1.12.33,2.01,1.23,2.68,1.45,1.12,2.9,2.12,4.24,3.24,1.12.89,1.34,2.12.67,3.24-.67,1-1.9,1.56-3.01,1-3.46-1.79-7.03-1.67-10.72-1-4.8.89-8.82,3.01-11.61,7.15-1.23,1.79-1.9,3.8-1.79,6.03,0,1.34.56,2.46,1.9,2.9,1.67.45,3.35,1.12,5.02,1,2.57,0,5.25-.67,7.82-1.12,2.23-.45,4.13,1.23,3.46,3.35-.33.78-1.12,1.56-1.9,2.12-1.79,1.23-3.68,2.23-5.58,3.24-2.12,1.23-3.46,3.13-4.02,5.36-.78,2.79,1.79,5.47,4.58,4.91,1.9-.33,3.46-1.23,4.8-2.57.89-.78,1.79-1.56,2.79-2.23s1.9-.56,2.79.22,1.45,1.9.89,3.01c-.45.89-1.23,1.56-1.9,2.34-.56.67-1.34,1.12-1.67,1.9-1.34,2.9-2.23,5.81-1.56,9.04.45,2.23,1.45,4.24,3.46,5.47,1.23.67,2.57,1,3.57,0,2.79-2.57,5.36-5.36,6.7-9.04,1.45-3.8,2.34-7.7,2.68-11.84.11-1.23,1-2.23,2.23-2.34,1.23-.11,2.46.56,2.79,1.79.22.67.22,1.45.33,2.12v6.7c0,2.79,1.34,4.69,3.91,5.69.45.22.89.33,1.34.56,1.56.67,2.79.45,4.02-.78,6.59-6.81,7.7-15.19,4.24-23.67-.56-1.45-1.23-3.01-1.67-4.58-.45-1.56.33-2.79,1.79-3.24,1.23-.45,2.46.22,3.01,1.45.78,1.56,1.56,3.13,2.01,4.8.56,2.01,1.9,3.24,3.57,4.13.56.33,1.45.45,2.01.22,1.79-.56,3.24-1.56,4.24-3.24,2.68-4.47,2.57-9.16.89-13.85-.45-1.34-1.79-2.46-3.01-3.35-1.34-.89-1.9-2.01-2.12-3.35-.33-2.12,1.45-3.46,3.35-2.68.56.22,1.12.67,1.56,1,1.45,1,3.01,1.45,4.69.78,3.13-1.34,5.47-3.57,6.03-7.15.56-3.24.22-6.36-1-9.49-.67-1.56-1.56-3.13-2.23-4.69-.45-1.23,0-2.23,1.12-3.01,1.12-.78,2.12-.56,3.01.33.56.56.89,1.23,1.45,1.67,1.23,1.12,2.57,2.23,3.8,3.24.33.22.89.45,1.23.33,2.23-.45,4.24-1.34,5.47-3.57,2.12-3.91,2.9-8.15,2.57-12.51-.11-1.56-.33-3.01-1.9-4.02-1-.56-1-2.12-.33-3.13,1.34-2.12,4.13-2.23,5.81-.22.56.67,1.12,1.45,1.79,1.56,1.79.45,3.46,0,4.91-1.45,2.23-2.12,3.57-4.69,4.24-7.59.56-2.34,1.23-4.8,2.01-7.03.45-1.45,1.67-2.01,2.79-1.79,1.45.22,2.23,1.23,2.23,2.9,0,1.9-.22,3.8-.33,5.69,0,1.12.33,2.12,1.45,2.68,1,.45,1.9.11,2.68-.56,4.58-4.02,8.6-8.49,10.27-14.52.56-2.23,3.13-3.01,4.69-1.34.56.67.78,1.79,1,2.68.33,1.56.33,3.24.89,4.69,1.12,2.68,3.8,3.35,6.14,1.67,1.34-.89,2.57-2.12,3.68-3.35,2.01-2.01,3.01-4.58,4.13-7.15.78-1.79,1.79-2.34,3.13-2.01,1.23.33,2.12,1.56,1.9,3.24-.22,2.01-.45,4.13-.78,6.14-.33,2.57,2.57,5.36,4.91,4.47,2.12-.78,4.35-1.9,6.03-3.35,3.01-2.68,5.36-6.03,6.92-9.71.67-1.45,1.9-2.12,3.24-1.67,1.23.45,1.9,1.56,1.67,3.13-.11.89-.33,1.79-.56,2.57-.56,2.01-1.23,4.13-1.79,6.14-.45,1.67.45,2.9,1.56,4.02.89.89,1.9.45,2.9.11,3.24-1,5.58-3.13,6.81-6.25.67-1.67,2.34-2.34,3.68-1.67,1.34.56,1.79,2.01,1.12,3.68-.67,1.56-1.56,3.01-2.34,4.47-1.79,3.13-2.34,6.36-1.23,9.83,1.23,4.02,5.25,6.03,9.04,4.02,3.57-1.9,6.25-4.58,7.7-8.37.78-2.23,1.56-4.47,2.34-6.7.56-1.67,1.56-2.34,2.9-2.23s2.12,1.23,2.23,2.9c0,1.23.11,2.46.22,3.57.22,1.9,1,3.57,2.79,4.35,1.67.78,3.35-.11,4.69-1.23.45-.33.89-.78,1.23-1.23.78-1.12,1.45-2.23,2.12-3.46.45-.89.89-1.79,1.45-2.57.67-.78,1.56-1.23,2.57-.89,1.12.33,1.79,1.23,1.79,2.46,0,.89-.33,1.9-.67,2.79-.78,1.79-1.67,3.57-2.46,5.36-1.79,4.24.78,9.6,5.25,10.94,2.46.78,4.58-.33,6.36-1.67,1.79-1.34,3.35-3.13,5.02-4.69,1.45-1.34,3.35-1.12,4.35.45.67,1.12.22,2.12-.45,3.13-1.9,3.13-2.9,6.48-2.79,10.16,0,2.79,2.34,6.14,4.8,6.59,3.01.56,5.92.33,8.6-1.45.89-.67,1.9-1.23,2.9-1.67,1.79-.78,3.68.45,3.46,2.46-.11.89-.78,2.01-1.45,2.68-2.23,2.01-4.69,3.91-7.03,5.92-2.23,1.79-1.79,6.36.89,7.37,2.34.89,5.02,1,7.26-.67,1.67-1.23,3.46-.78,4.35,1,1,2.01,0,4.13-2.46,4.8-4.02,1.12-7.26,3.35-9.38,7.15-.89,1.67-1.56,3.46-.56,5.02,1.56,2.34,4.02,3.91,7.15,2.34,1.56-.78,3.01-1.79,4.47-2.79,1-.78,2.01-1.12,3.24-.33,1,.67,1.45,2.12,1,3.35-.33.67-.78,1.34-1.23,1.9-1.79,1.9-3.24,4.02-4.13,6.48-1,2.9-.45,5.58,1.79,7.7.78.78,1.67,1,2.79.89,2.79-.45,4.69-2.23,6.03-4.47.78-1.34,1.34-2.79,2.01-4.24.67-1.34,1.9-1.9,3.13-1.45,1.23.45,2.01,1.67,1.79,3.13-.11.78-.33,1.45-.56,2.23-.67,2.01-.78,3.91,0,5.92.78,1.79,1.45,3.68,2.23,5.47,1.23,3.01,3.24,3.8,5.92,1.9.89-.67,1.67-1.67,2.12-2.79,1.12-2.68,1.23-5.58,1-8.6v-1.67c.22-1.23,1.12-2.01,2.34-2.12,1.23-.11,2.12.56,2.46,1.67.22.67.33,1.45.56,2.23.67,1.9,1.12,3.91,2.01,5.69,1.34,2.79,5.69,3.46,7.7,1.34,3.24-3.46,3.91-8.04,1.79-12.28-.33-.78-.89-1.45-1.23-2.23-.45-1.12-.45-2.23.45-3.13.89-.89,2.01-1,3.13-.45.78.33,1.45.89,2.23,1.34.89.45,1.79.78,2.79,0,1.56-1.23,2.68-2.79,3.13-4.69.56-2.57-.45-4.8-1.12-7.15-.56-2.23-.11-3.68,1.45-4.35,1.45-.56,2.79.33,3.68,2.46.67,1.67,1.34,3.46,2.01,5.14.67,1.67,2.46,2.57,4.24,2.46,1.45-.11,2.12-.89,2.57-2.9.22-.78.33-1.56.56-2.34.45-1.45,1.67-2.34,2.9-2.12,1.45.22,2.46,1.34,2.23,3.01-.22,1.9-.56,3.68-1,5.47-.56,2.23,0,4.02,1.56,5.58,2.12,2.23,5.36,1.79,6.92-.89,2.68-4.91,3.24-9.83.33-14.85-.89-1.56-.56-3.24.67-4.02,1.23-.78,2.68-.45,3.8,1,.45.56.89,1.23,1.34,1.67,1,.78,1.9,1.56,3.01,2.01,2.79,1.23,6.25.45,7.93-1.45,1.56-1.79,2.12-3.8,1.23-5.92-.89-2.34-2.46-4.02-5.02-4.47-.78-.11-1.67-.22-2.57-.33-1.9-.22-3.24-1.79-2.9-3.46.22-1.79,1.79-2.57,3.8-2.34,1.56.22,3.24.22,4.8.22s3.35-1.56,3.57-2.79c.22-2.12,0-4.24-1.79-5.81-2.9-2.46-6.25-3.68-10.05-3.01-2.46.45-4.8,1.45-7.15,2.12-1.67.45-2.79,0-3.35-1.45-.56-1.56,0-3.01,1.45-3.68.78-.33,1.56-.67,2.34-.89,2.79-.78,5.14-2.23,6.92-4.58.78-1.12.89-2.34.22-3.57-.56-1.23-1.56-1.56-2.9-1.56-1.79,0-3.46.22-5.02,1.12-.89.56-1.9.89-2.9,1.23-1.56.56-2.79.11-3.46-1.12-.67-1.34-.45-2.68,1-3.57,1.34-.78,2.68-1.56,4.13-2.12,4.91-2.12,7.7-5.92,9.16-10.83.11-.45,0-.89,0-1.56-.56,0-1,.11-1.45.22-9.27,2.46-17.87,6.48-25.91,11.5-.78.56-1.45,1.34-2.23,1.9-.56.33-1.23.67-1.79.56-.56,0-1.12-.78-1.23-1.34-.33-1.34,0-2.46,1.23-3.24,8.37-6.25,17.75-10.5,27.8-13.4.56-.11,1.12-.45,1.79-.67-.56-.33-.89-.56-1.12-.78-2.34-1.34-4.8-1.9-7.48-1.67-1.34,0-2.34-.56-2.9-1.79-.56-1.12-.56-2.23.11-3.35.78-1.12,1.9-1.23,3.13-.89.33.11.78.22,1.23.22,2.12.33,4.35.45,6.14-1.12,2.23-2.12,4.47-4.24,6.59-6.48,1.67-1.67,1.56-4.35.22-6.7-1.12-1.79-2.57-2.34-5.14-1.79-1.12.22-2.23.78-3.13,1.34-2.34,1.56-4.58,3.24-6.92,4.8-1.67,1.12-3.01.89-4.02-.33-.89-1.23-.67-2.79.78-4.02.56-.45,1.12-.89,1.67-1.45.78-.67.67-1.34,0-2.12-1-1.34-2.79-1.56-4.47-.56-1.12.67-2.23.89-3.24,0-1.23-.89-1.56-2.23-1.34-3.57.11-1.34,1.23-1.9,2.46-2.12,2.23-.33,4.02-1.56,5.81-2.9,1.34-1,1.56-2.34,1.34-3.8-.22-1.34-1.34-1.67-2.57-2.01-1.79-.45-2.9-1.79-2.68-3.24.22-1.56,1.56-2.46,3.57-2.34h4.02c3.8-.45,7.37-1.45,9.83-4.69.89-1.12,1.67-2.34,1.12-3.8-1-2.68-3.13-3.8-5.92-3.13-1.56.45-3.01.89-4.58,1.45-1.67.45-3.24,0-3.68-1.45-.56-1.56.22-3.01,1.9-3.68.89-.33,1.79-.67,2.68-.89,3.13-.89,5.69-2.79,7.37-5.58,1.45-2.34.33-5.02-2.34-5.36-1.34-.22-2.9-.22-4.13.33-2.34,1.12-4.58,2.46-6.81,3.91-1.79,1.23-3.01.45-3.8-.45-1-1.12-.67-2.79.56-3.91.33-.22.56-.56.89-.78,3.35-3.13,4.24-7.15,3.46-11.5-.22-1.23-1.12-2.79-2.12-3.35-1.23-.67-2.57.45-3.68,1.34-2.34,2.01-3.57,4.58-4.24,7.37-.22,1-.45,2.12-.78,3.13-.45,1.23-1.34,1.79-2.68,1.67-1.23-.22-2.12-.89-2.12-2.12,0-.78.11-1.56.22-2.34.22-3.01.67-6.14.67-9.16,0-3.35-2.12-5.69-5.14-7.15-1.79-.89-3.46-.45-4.91.89-3.01,2.9-3.46,8.49-1.12,12.28.33.45.67,1,.78,1.56.45,1.45-.33,2.79-2.01,3.57-1.45.67-2.9.33-3.68-.89-1.79-2.68-5.25-3.13-7.7-.89-2.01,1.9-2.34,4.24-.67,6.81,1.34,2.01,2.79,3.8,4.13,5.81,1,1.56.67,3.13-.67,4.02-1.23.89-2.79.56-3.8-1-1.67-2.68-4.24-3.24-7.03-3.46-1.67-.11-2.34.33-2.68,2.01-.45,2.68-.89,5.47.78,8.04.78,1.23,0,3.13-1.34,3.91-1.34.78-2.68.45-3.57-1.12-.56-.89-.78-2.01-1.34-2.9-.67-1.34-1.23-2.9-2.23-3.91-3.13-2.9-5.58-2.9-7.59,1.12-1,2.01-1.67,4.13-2.46,6.14-.67,1.9-1.9,2.79-3.24,2.46-1.56-.33-2.34-1.9-1.9-3.91.11-.78.33-1.45.56-2.23.45-1.67-.33-2.79-1.56-3.68-1.12-.89-2.46-.89-3.68,0-1.23.78-2.46,1.79-3.24,3.01-1.23,1.9-2.01,3.91-3.13,5.92-.78,1.34-1.9,1.9-3.13,1.45-1.23-.45-1.9-1.56-1.79-3.13,0-.45.22-.89.33-1.45.22-1.67.45-3.46.45-5.14,0-.45-.67-1.23-1.23-1.34-2.12-.56-4.02-.33-5.81,1.12-1.23,1-2.46,1.9-3.8,2.79-1,.67-2.12.56-3.01-.33-1-.89-1.23-2.01-.56-3.13.45-.78,1-1.45,1.79-2.01,1.34-1,2.79-2.01,4.13-3.01,3.57-2.68,3.24-7.7-.45-9.71-1.9-1-3.68-.67-5.47.33-1.45.89-2.79,1.79-4.24,2.57-1.34.67-2.68.33-3.46-.78-.89-1.23-.78-3.01.56-4.13,1.45-1.12,3.01-2.01,4.47-2.79,3.8-2.12,6.7-5.02,8.15-9.27,1-3.01,0-6.03-2.57-7.59-.56-.33-1.34-.56-1.9-.33-1.56.56-3.24,1.12-4.58,2.01-2.12,1.56-4.13,3.46-6.03,5.25-.67.56-1.12,1.23-1.79,1.9-1.12,1.12-3.01,1-4.13,0-1-1-1-2.34,0-3.68.33-.45.78-.89,1.12-1.34,2.9-3.01,3.35-6.03,1.56-9.83-1-2.01-2.01-2.46-4.02-1.56-4.02,1.67-6.59,4.69-8.04,8.82-.33,1-.89,1.9-1.56,2.79-.67.89-1.67,1-2.68.67-1-.33-1.67-1-1.67-2.12,0-.89,0-1.9.45-2.68,1.12-2.23,1.79-4.69,1.79-7.15,0-4.02-.89-7.7-3.68-10.72-.67-.78-1.45-.89-2.34-.56-4.02,1.34-6.81,3.8-7.82,8.04-.22,1-.45,2.01-.67,3.01-.45,3.13-1.23,6.25-.67,9.38.22,1.23.33,2.34.22,3.57,0,1.23-.78,2.23-2.01,2.46-1.34.22-2.23-.45-2.79-1.56-.33-.67-.56-1.34-.67-2.01-.89-3.01-2.46-5.69-4.58-7.93-.56-.56-1.34-1-2.01-1.12-1.67-.33-4.47,1.34-5.14,3.01-.89,2.01-1.23,4.13-.45,6.36.78,2.01,1.45,4.13,2.12,6.25.56,1.67.11,2.9-1.12,3.57-1.23.67-2.46.33-3.46-1-.89-1.23-1.67-2.57-2.46-4.02-1-1.79-2.57-2.9-4.47-3.24-3.01-.56-5.69,2.01-5.36,5.47.33,3.91,1,7.82,4.02,10.83.89.89,1,2.01.33,3.13-.67,1.12-1.67,1.45-3.01,1.12-1.23-.33-2.12-1-2.68-2.12-.67-1.34-1.56-2.57-3.24-2.68-2.34-.11-4.91,2.01-4.8,4.47,0,1.9.56,3.68.78,5.58,0,.67.45,1.45.11,1.9-.45.78-1.12,1.67-1.9,2.01-1.34.45-2.46-.22-3.13-1.45-.89-1.56-1.56-3.24-2.34-4.8-.89-1.9-2.34-3.35-4.35-4.24-1.79-.78-3.91-.33-5.36,1.23-1.79,1.79-2.57,4.47-1.56,6.14,2.79,4.24,4.24,8.93,5.81,13.62,1,3.01,1.45,6.03,1.45,9.16,0,1.45-.67,2.34-1.79,2.46-1.12,0-2.01-.56-2.34-1.9-.22-1.34-.33-2.79-.56-4.24-.67-4.24-2.12-8.37-3.91-12.28-2.12.45-2.79.22-3.91-1.45-.33-.45-.67-.89-1-1.23-1.45-1.45-2.46-1.45-3.8,0-.45.56-.89,1.23-1.23,1.9-1.45,2.79-1.23,5.69-.67,8.6.33,1.79-.22,3.13-1.56,3.68-1.34.56-2.46,0-3.46-1.67-.78-1.34-1.45-2.57-2.23-4.02h.11ZM381.64,458.7c.22.89.33,1.67.67,2.46.89,2.01,1.79,4.02,2.79,5.92,2.12,3.91,4.58,7.7,8.26,10.5,2.23,1.67,4.35,3.35,7.37,3.35.67,0,1.34-.11,1.9,0,1.9.22,3.57,0,5.25-1.12,2.9-1.79,4.69-4.58,5.92-7.7,2.34-5.81,2.9-12.06,3.01-18.2,0-1.67-.11-3.35-.22-5.02-.22-2.9-.11-5.92-.67-8.82-1.23-6.25-2.68-12.51-4.13-18.65-1.79-7.26-4.13-14.29-7.59-20.88-1.79-3.35-3.8-6.59-5.69-9.83-.78-1.45-1.56-2.9-2.68-4.13-1.23-1.45-2.79-2.57-4.13-4.02-1-.89-2.12-1.45-3.35-1.23-5.69.89-10.72,3.24-14.96,7.15-2.57,2.34-4.69,5.25-6.92,7.93-.33.33-.45.78-.56,1.23.56.22,1,.67,1.56.67,2.12-.22,4.13-.56,6.14-.89,2.57-.45,5.14-.45,7.59.67,1.9.89,3.8,1.67,5.58,2.57,5.81,2.9,10.38,7.03,13.51,12.73,2.01,3.8,3.35,7.93,3.91,12.28.22,1.67.45,3.46.22,5.14-.56,4.58-1.79,8.82-3.91,12.95-1.67,3.35-3.8,6.59-6.59,9.16-3.24,3.13-7.26,5.02-12.06,5.92l-.22-.11ZM105.84,277.25c0-.45.11-.56,0-.67-.56-4.58-1.23-9.16-1.79-13.73,0-.78-.45-1.12-1.12-1.23-1.79-.33-3.46-.67-5.25-1.12-5.36-1.34-10.83-2.79-16.19-4.24-2.34-.67-3.01-2.01-2.9-4.47.11-1.56.11-3.13-.11-4.69-1.12-6.14-3.91-11.61-8.15-16.19-1.23-1.34-2.68-2.46-4.35-3.24-2.23-1-3.68.33-3.68,2.68,0,.45,0,.89.11,1.34.78,5.36,3.13,10.05,6.03,14.4.56.78,1.12,1.67,1.45,2.57.45,1.12.33,2.23-.56,3.13-1,.78-2.12.89-3.24.22-.33-.22-.78-.45-1.12-.78-5.36-4.58-11.61-6.25-18.54-6.03-3.13.11-5.92,1.79-7.82,4.35-.45.56-.56,1.45-.45,2.12.33,1.67,1.23,3.13,2.79,4.02,2.46,1.45,4.91,1.9,7.7,1.67,4.58-.22,9.04-.45,13.62-.67,2.79,0,4.47,1.79,3.46,4.02-.56,1.23-1.67,1.67-2.9,1.79-3.35.33-6.81.45-10.05,1.12-6.59,1.23-11.5,4.8-14.18,11.17-.33.67-.45,1.56-.33,2.34.22,3.01,2.46,4.58,5.25,3.68,2.23-.78,4.58-1.56,6.7-2.68,4.69-2.57,9.27-5.36,13.96-8.04,1.56-.89,3.01-.56,3.91.89.78,1.23.33,2.68-1,3.68-1.23.89-2.68,1.67-3.57,2.79-2.9,3.68-5.81,7.37-8.37,11.17-.78,1.12-.89,3.01-.89,4.47,0,1.79,1.9,3.46,3.46,3.24,2.01-.33,3.91-.67,5.81-1.34,3.24-1.12,6.14-2.9,8.93-5.02,5.36-4.02,8.04-9.27,8.49-15.74.11-2.34,1.9-3.91,4.24-3.46,1.23.22,2.34.56,3.46.89,4.58,1.45,9.27,3.01,13.85,4.47.89.33,1.9.56,2.9.78l.45.34ZM49.9,406h.22c.11.89.33,1.79.33,2.79.22,4.8,1.79,9.38,3.13,13.96,1.23,4.13,2.9,8.15,4.69,12.06,2.01,4.47,4.13,9.04,6.81,13.18,2.68,4.13,6.03,7.93,9.04,11.84,2.79,3.68,5.81,7.03,9.6,9.83,4.69,3.46,9.6,6.25,15.74,5.81,1.67-.11,2.79-.67,3.8-1.9,1.23-1.56,1.9-3.35,2.12-5.25.67-5.14,1.23-10.16,1.9-15.3v-1.34c-.45.11-1,.22-1.45.45-4.35,2.23-8.71,4.02-13.73,3.24-5.02-.89-9.27-3.24-12.73-6.81-3.35-3.46-5.47-7.7-7.15-12.17-2.23-5.92-3.13-11.95-2.23-18.2.78-5.69,2.46-11.17,4.91-16.41.67-1.56.78-2.57-.45-4.02-3.13-3.68-6.25-7.48-10.72-9.71-2.01-1-4.02-2.12-6.36-1.12-2.9,1.23-4.91,3.57-5.58,6.59-.89,4.13-1.34,8.49-2.01,12.73l.11-.22ZM45.77,394.94c-1,.78-1.79,1.12-2.34,1.79-2.57,3.46-4.35,7.37-4.8,11.72-.45,4.35.22,8.6,1.12,12.84,2.12,10.27,5.81,19.76,12.06,28.25,2.68,3.57,5.81,6.59,9.6,8.93,1.56,1,3.01,2.23,4.24,3.57,2.9,3.24,3.57,7.26,2.9,11.39-.22,1.45,0,2.68,1.12,3.68,1,.89,1.9,1.9,2.9,2.79,2.46,2.23,5.02,4.24,8.26,5.36,6.81,2.34,11.28,1.67,14.74-4.47-1.23-.33-2.46-.56-3.57-.89-5.25-1.79-10.05-4.47-13.96-8.37-3.8-3.8-7.37-7.93-10.83-11.95-2.01-2.34-3.91-4.69-5.47-7.26-6.25-10.16-11.05-20.99-14.29-32.6-1.56-5.58-2.57-11.28-2.23-17.2.11-2.46.33-5.02.67-7.93l-.11.34ZM396.94,379.87c1.23,1.23,2.46,2.34,3.35,3.57,1.45,2.01,2.68,4.24,4.02,6.36,3.91,6.36,7.37,12.95,9.6,20.1,3.13,9.6,5.81,19.32,7.26,29.37,1.34,9.49,1.45,18.98-.56,28.36-1.12,5.02-2.79,9.71-6.25,13.73-.11.11-.22.33-.33.56,1.79,1.34,2.68,1.34,4.35.33,3.24-1.9,5.25-4.91,6.36-8.26,4.35-12.51,5.02-25.35,2.46-38.41-.78-4.13-2.12-8.04-5.25-11.17-1.67-1.67-2.57-3.8-3.01-6.14-1.12-4.91-1.12-9.71,0-14.63.56-3.01.45-5.81-.67-8.71-1.45-4.02-3.57-7.7-5.92-11.17-3.57-5.14-9.38-6.7-15.41-3.91h0ZM369.8,401.75c2.23,2.79,3.57,5.58,4.35,8.49.56,2.23.67,4.47,1.34,6.59.89,2.9,2.23,5.69,3.35,8.6.56,1.45,1.34,2.79,2.12,4.35,1.45-1.67,2.79-3.13,3.8-4.8.67-1.12,1-2.68.89-3.91-.33-2.9,2.79-5.81,5.69-5.02,3.57,1,5.02,4.58,3.8,7.82-1.12,3.24-3.01,4.02-6.36,3.13-.45-.11-1.23.11-1.56.56-1.34,1.56-2.57,3.35-3.91,4.91-.56.67-.56,1.12,0,1.79,2.12,3.35,4.24,6.81,6.48,10.16.78,1.23,1.9,2.34,2.79,3.46.22,0,.33-.11.45-.22,2.9-3.91,5.36-8.04,6.59-12.73.56-2.12.89-4.24.89-6.48s-.45-4.35-1-6.36c-.89-3.35-2.12-6.7-4.24-9.38-3.8-4.91-9.04-8.15-14.74-10.38-2.01-.78-4.35-.78-6.59-1-1.12,0-2.34.22-3.8.45h-.33ZM179.87,374.06c-.56-.33-.67-.56-.89-.67-5.25-2.79-10.5-5.58-15.74-8.26-.78-.45-1.79-.56-2.68-.56-1.45,0-2.9.22-4.35.56-8.6,1.9-17.08,4.35-25.12,8.26-.33.22-.67.89-.67,1.34.22,2.9,1.67,5.36,3.13,7.7,1.23,1.9,2.79,3.46,4.24,5.14.45.56,1,.56,1.67.11,2.57-1.45,5.14-2.79,7.82-4.02,3.91-1.79,7.82-3.46,11.84-4.91,6.59-2.34,13.4-3.8,20.77-4.69h0ZM86.75,423.75c-.78,1.67-.56,2.9,0,4.02,1.45,2.9.56,5.47-1.23,7.59-1.12,1.23-3.35,1.56-4.47.67-3.68-2.79-2.34-8.93,1.12-10.27.45-.11.78-.67,1-1.12.22-.67.22-1.45.45-2.12.45-1.12,0-2.01-.78-2.68-2.12-2.01-4.13-4.13-6.14-6.14-.22-.22-.56-.45-1.23-1-.33,2.46-.67,4.58-1,6.7-.67,3.91-.33,7.82.78,11.61.89,3.01,2.12,6.03,3.46,8.93,2.23,4.58,5.69,8.04,10.5,10.05,1.79.78,3.91,1.34,5.81,1.23,4.47-.22,8.49-2.01,12.06-4.91,1.45-1.12,2.01-2.79,1.45-4.58-.67,0-1.34,0-2.01-.33-4.47-1.67-8.6-3.91-11.84-7.48-1-1.12-2.23-2.23-2.46-3.57-.56-3.35-3.35-4.35-5.36-6.59h-.11ZM340.77,418.84c4.58,6.7,6.92,14.07,7.37,22.44,1.9-1.34,3.46-2.57,5.14-3.68,1.12-.78,1.67-1.9,1.34-3.24-.67-3.35-1.12-6.81-2.12-10.05-1-3.57-2.68-6.81-4.91-10.05-2.34,1.56-4.58,3.13-6.81,4.69v-.11ZM126.5,377.19c-2.34,3.91-4.58,7.59-6.7,11.28-.22.45-.11,1.34,0,1.9.67,1.67,1.45,3.24,2.34,4.8,1.34,2.23,3.24,4.02,5.36,5.47,2.46-3.24,4.91-6.36,7.37-9.6-3.8-3.91-6.7-8.37-8.49-13.85h.11ZM331.17,424.53c4.69,7.59,6.92,15.63,5.81,24.79,1.9-1.45,3.57-2.79,5.36-3.91,1.23-.78,1.56-1.9,1.56-3.35,0-4.91-1.12-9.49-3.13-13.96-1.12-2.46-2.01-4.91-4.13-6.81-1.79,1-3.57,2.12-5.47,3.24ZM101.71,417.72c-1.67,3.01-3.35,5.92-4.91,8.82-.56,1-.33,1.9.56,2.79,2.68,2.68,5.58,4.91,9.27,6.25,1.23.45,2.57.45,3.8.56.33,0,.78-.33.89-.56.89-2.01,1.67-4.13,2.46-6.25-5.69-2.12-8.93-6.48-12.06-11.5v-.11ZM191.48,27.8c0,3.24,1,4.02,3.35,3.13,1.79-.67,3.57-1.67,5.25-2.57,2.12-1,3.91-2.46,5.14-4.58,1.45-2.23,1.34-4.69-.33-6.48-1.56-1.67-4.13-2.01-6.36-.67-4.35,2.68-6.48,6.81-7.15,11.05l.11.11ZM118.68,417.05c-3.91-3.01-7.15-6.7-9.49-11.17-1.45,2.46-2.9,4.69-4.13,7.03-.33.56-.22,1.67,0,2.23,1.56,2.23,3.13,4.47,4.91,6.48,1.34,1.56,3.13,2.79,5.36,3.24,1.12-2.57,2.12-5.02,3.24-7.7l.11-.11ZM116.56,393.71c-1.67,2.68-3.24,5.02-4.69,7.48-.22.33,0,1.12.11,1.45,1.67,2.34,3.24,4.8,5.14,7.03,1,1.23,2.34,2.23,3.68,3.35,1.56-2.9,3.01-5.47,4.58-8.26-3.68-2.9-6.48-6.59-8.82-11.05h0ZM355.29,408.34c-1.45,1-2.68,2.12-4.13,3.13,4.02,6.7,7.03,13.73,7.37,21.66,1.23-.89,2.12-1.67,3.13-2.34,1.34-.89,1.67-2.01,1.34-3.46-.78-3.91-1.79-7.7-3.35-11.39-1.23-2.68-2.46-5.36-4.47-7.7l.11.11ZM367.12,425.98c1.9-.67,2.57-2.01,2.9-3.68.78-4.47,0-8.71-1.79-12.95-1.23-2.79-2.68-5.47-5.14-7.37-1.23,1-2.46,2.01-3.57,3.01-.22.22-.22,1,0,1.34,1.12,2.12,2.46,4.24,3.57,6.36,2.12,4.13,3.35,8.6,4.13,13.29h-.11ZM380.52,436.59c-.89,1.79-1.56,3.24-2.23,4.8-.22.45-.56,1-.45,1.45.67,3.46,1.45,6.92,2.23,10.38,0,.33.67.89,1,.89,3.35-.22,6.36-1.34,8.71-3.8-3.01-4.58-6.03-9.04-9.27-13.73h0ZM169.93,26.13c-2.34,0-3.35.78-4.13,2.79-.78,2.12,0,4.47,2.01,6.03,2.01,1.56,4.47,2.12,6.92,2.68,1.79.45,1.79.33,2.46-1.56.33-.89.78-1.67,1-2.57.22-.67.33-1.56,0-2.12-1.79-3.13-4.58-5.02-8.26-5.25ZM199.41,53.49c.22-4.02-1.56-6.81-4.91-8.82q-2.12-1.34-3.91.33c-.33.33-.89.67-1.12,1.12-.33.56-.78,1.34-.67,1.9.78,2.46,1.45,5.02,2.57,7.37.78,1.67,2.34,3.01,4.47,2.68,2.34-.33,3.46-1.67,3.46-4.58h.11ZM472.75,132.09c-3.01.22-5.69,1.34-7.48,4.02-1.12,1.79-.56,3.57.33,5.14.78,1.45,2.12,2.46,3.8,2.12,2.34-.45,4.58-1.34,6.25-3.01,1.45-1.34,1.9-4.24,1-6.14-.78-1.67-2.34-2.12-4.02-2.12h.11ZM187.91,21.44h-.22v-1.45c-.22-2.23-.33-4.58-2.34-6.14-1.9-1.56-4.69-.78-5.36,1.56-.89,3.35-.89,6.7.67,9.83,1.9,3.8,1.45,3.24,5.02,2.79,1,0,1.34-.45,1.45-1.34.22-1.67.56-3.46.78-5.14v-.11ZM184.78,52.15c0-3.13,0-3.24-3.01-4.24-.22,0-.45-.11-.67-.22-2.01-1-2.57-.89-3.91,1.67-1.45,2.79-1.56,5.81-1.9,8.82-.22,1.79,1.12,2.57,2.12,3.57.11.11.56,0,.89,0,4.35-2.34,6.14-3.91,6.36-9.49l.11-.11ZM203.65,42.77c1.56-.33,2.79-.45,3.91-.78,1.45-.45,2.01-1.79,1.56-3.01-1-2.79-5.02-5.47-8.04-5.02-2.23.33-4.35,1-6.59,1.67-.45.11-.78.78-1,1.23-.67,1.45,0,2.12,1.34,2.68,1.34.56,2.57,1.34,3.8,1.9,1.67.56,3.35,1,4.8,1.34h.22ZM483.36,136.67c2.79,0,4.91-1,6.81-2.68,2.01-1.67,2.34-3.57,1.12-5.69-1.34-2.23-3.91-3.46-6.03-2.34-1.67.89-3.24,2.12-4.8,3.24-.33.22-.45,1.12-.33,1.56.33,1.45,1,2.9,1.34,4.35.33,1.12.78,1.9,1.9,1.56h0ZM478.34,153.53c-.45-1.12-.89-2.23-1.45-3.24-.45-.67-1.12-1.23-1.56-1.9-.78-1.12-1.56-1.34-2.9-1-3.24.89-3.46.78-3.68,4.13-.22,2.79.22,5.47,1.9,7.7,1,1.45,1.9,1.67,3.57.89,2.68-1.23,3.8-3.57,4.13-6.48v-.11ZM453.1,152.19c.22,1.12.33,1.9.67,2.57.78,1.9,2.9,2.79,4.58,1.9,2.9-1.56,4.91-3.91,5.92-7.15.56-1.79.45-3.24-1.23-4.47-.67-.45-1.12-.78-1.9-.45-2.57,1.12-4.91,2.68-6.81,4.8-.67.78-.89,1.9-1.34,2.79h.11ZM467.17,128.07c-.22-.89-.33-1.67-.67-2.12-1.67-1.9-3.68-3.57-6.25-4.02-2.12-.33-4.91,1.9-4.69,3.57.33,1.9,1.23,3.57,3.01,4.47,1.23.56,2.46,1,3.68,1.45.33,0,.78,0,1.12-.11,1-.67,2.01-1.34,3.01-2.01.33-.33.56-.78.89-1.23h-.11ZM471.08,123.72c0,.89.11,1.9.33,2.79.33,1.45,2.12,2.23,3.13,1.23,1.79-2.01,3.57-4.13,5.02-6.48,1-1.56.56-3.01-.67-4.02-1.34-1.12-2.79-1.23-4.35-.33-2.79,1.45-3.46,4.02-3.46,6.92v-.11ZM478.23,144.38c1.56,1.79,2.79,3.57,4.47,5.02,1.79,1.56,4.24,1.56,5.58.22,1.56-1.45,1.67-3.57.33-5.58-1.23-1.79-5.58-3.35-7.7-2.68-.22,0-.45.22-.67.45-.67.78-1.23,1.56-2.01,2.68v-.11ZM189.58,36.07c-.33-.89-.67-1.9-1.23-2.79s-1.56-1.12-2.46-.78c-3.91,1.45-5.69,4.47-4.91,8.82.33,2.01,1.79,2.68,3.68,2.01,2.79-1,4.58-3.8,4.91-7.26ZM175.74,42.65h-3.8c-3.8,0-7.26,1.56-10.72,3.01-1.12.45-1.23,1.67-1.12,2.79,0,1.12,1,.89,1.56,1,5.14,1,11.28-2.01,13.96-6.81h.11ZM460.47,138.24c0-2.23-.22-2.57-1.67-3.01-2.34-.78-6.36.33-7.93,2.23-.78,1-1.12,2.12-.33,3.24s1.67,2.23,3.13,1.9c1.79-.45,3.57-1.12,5.25-1.79,1.23-.45,1.9-1.23,1.56-2.46v-.11ZM78.48,403.2c-.67,1.79-1.12,3.35-1.67,4.91-.22.67-.11,1.23.45,1.79,1.34,1.34,2.57,2.79,3.91,4.02.89.89,2.01,1.67,3.24,2.79.22-1.9.89-3.46-.22-5.14-1.45-2.01-2.68-4.13-4.13-6.25-.45-.67-.89-1.34-1.56-2.23v.11ZM375.72,426.99c-.11,0-.33.11-.45.22,0,3.13.56,6.25,1.45,9.49,2.01-2.46,2.12-3.13,1-5.69-.33-.89-.78-1.67-1.12-2.57-.22-.45-.56-1-.78-1.45h-.11Z"/>
  <path d="M122.14,481.59v-1.9c0-1.56.45-2.34,1.56-2.34,1.34,0,1.79,1,1.79,2.01,0,2.01.11,4.13-.22,6.14-1.79,9.6-7.15,16.3-16.41,19.43-1.45.45-3.01.56-4.58.67-1.23,0-1.9-.67-1.9-1.79s.67-1.67,1.79-1.67c6.92-.33,11.61-4.24,15.07-9.94,1.9-3.24,3.13-6.81,3.01-10.72l-.11.11Z"/>
  <path d="M454.67,315.33c-3.91,0-7.03-1.23-9.94-3.13-.22-.11-.45-.45-.67-.67-.78-.78-1-1.67-.22-2.46.67-.89,1.56-.67,2.34-.22,1,.56,2.01,1.23,3.13,1.79,6.92,3.01,15.07-.22,18.09-7.26.33-.78.67-1.45.89-2.23.33-1,.89-1.67,2.01-1.45,1,.22,1.45,1.12,1.12,2.46-1.34,4.47-3.68,8.04-7.7,10.5-2.9,1.67-6.03,2.46-8.93,2.57l-.11.11Z"/>
  <path class="cls-4" d="M444.62,483.6c-.67,8.26-3.91,14.85-11.61,18.65-2.79,1.34-5.81,1.79-8.82.89-.33,0-.78-.22-1.12-.45-.78-.56-1.34-1.23-.89-2.23.45-.89,1.23-1,2.12-.67,3.35,1.12,6.14,0,8.93-1.67,5.58-3.57,7.59-8.93,8.04-15.19,0-.45,0-1,.22-1.34.33-.45.89-1,1.34-1,.56,0,1.23.45,1.56.89.33.56.22,1.34.33,2.12h-.11Z"/>
  <path d="M474.76,94.8c-5.02-.33-8.26,2.23-10.5,6.59-.33.56-1,1.34-1.67,1.34-1,.11-1.67-1.12-1.12-2.34.78-1.79,1.67-3.57,3.01-4.91,3.57-3.91,8.04-4.91,13.29-4.02,3.91.67,6.7,2.46,8.37,5.92.56,1,.22,1.9-.67,2.57-1,.67-1.79.11-2.23-.78-1.56-3.46-4.47-4.35-7.82-4.35h-.67Z"/>
  <path d="M473.98,183.79c-4.47-.22-8.04-.89-10.94-3.35-1-.89-1.34-1.79-.67-2.68.78-1,1.67-.78,2.57-.22,2.34,1.56,4.91,2.46,7.7,2.57,5.25,0,9.27-2.01,11.95-6.59.56-.89,1.12-1.56,2.23-1,1,.45,1.23,1.34.67,2.57-.33.78-.78,1.45-1.23,2.23-1.67,2.46-4.02,4.13-6.81,5.14-2.01.67-4.24,1-5.58,1.34h.11Z"/>
  <path class="cls-4" d="M453.33,495.66c-.67,6.25-4.13,12.39-10.72,14.96-1.45.56-3.01.89-4.58,1.34-1.12.22-2.46-.56-2.79-1.56-.33-.89.22-1.9,1.34-2.01,1-.11,1.9-.22,2.9-.33,2.79-.33,5.02-1.79,6.7-4.02,2.01-2.46,3.68-5.14,3.68-8.49,0-1.56.67-2.34,1.79-2.23,1.12,0,1.67,1,1.67,2.46v-.11Z"/>
  <path d="M132.97,50.47c.45-4.69,1-8.49,4.35-11.17.78-.67,1.56-1.34,2.57-.33.89,1,.33,1.79-.33,2.57-2.23,2.46-3.35,5.25-2.9,8.6.33,3.13,1.67,5.81,4.47,7.59.45.33.89.56,1.34.89.67.67,1,1.34.45,2.23s-1.45,1-2.34.56c-2.46-1.23-4.47-3.13-5.69-5.69-.89-1.9-1.34-4.02-1.79-5.25h-.11Z"/>
  <path d="M231.23,16.75c-.56,2.12-1.12,4.35-1.79,6.48-.56,1.56-1.67,2.01-2.57,1.56-1.12-.56-1.34-1.9-.45-3.24,2.34-3.8,1.23-10.05-2.46-12.51-1-.67-2.23-.89-3.35-1.23-.45-.11-1,0-1.34-.22-.56-.33-1.23-.89-1.23-1.45-.11-.89.45-1.56,1.34-1.67,3.35-.33,6.25.89,8.26,3.46,2.01,2.46,3.35,5.36,3.13,8.71h.33l.11.11Z"/>
  <path class="cls-4" d="M476.55,197.19c-3.24,0-6.25-.67-8.82-2.9-.89-.67-1.34-1.45-.67-2.57.67-1,1.67-.89,2.57-.33,3.35,2.23,6.92,2.68,10.72,1.45,1.45-.45,2.68-1.23,3.35-2.68.45-.89,1.12-1.45,2.12-1,1.12.45,1.34,1.45.89,2.34-.45,1-1.12,2.12-1.9,2.79-2.34,2.12-5.25,2.68-8.26,2.68v.22Z"/>
  <path class="cls-8" d="M113.1,239.96c2.01,2.79,4.8,3.91,7.59,5.14,2.46,1,4.91.67,6.92-1,5.14-3.91,8.04-9.27,9.16-15.52.22-1.56.33-3.24.45-4.8,1.56-.11,3.24,0,4.8-.45,5.02-1.12,9.49-6.48,10.05-11.72.22-2.12.45-4.24.33-6.36,0-2.12-.67-4.13-1-6.25,3.57-1.45,6.81-3.57,8.82-7.15,2.01-3.57,2.34-7.37,1.9-11.28.22,0,.33-.22.45-.22,3.35.33,6.14-1.23,8.82-3.01,1.12-.78,2.01-2.01,2.68-3.24,2.46-4.58,3.91-9.38,3.46-14.63v-.89c1-.22,1.9-.33,2.9-.56,3.24-.45,5.58-2.12,7.48-4.8.56-.78,1.23-1.56,1.67-2.46.45-.78.89-.89,1.67-.33,2.57,1.67,5.36,2.34,8.04.45,2.01-1.34,3.8-3.01,5.36-4.69,1.79-1.9,3.35-4.13,5.02-6.25.78,1,1.45,2.01,2.34,2.79,3.35,3.13,8.26,3.24,11.84.22,1.23-1,2.57-2.12,3.91-3.13.45.67.78,1.23,1.23,1.79,3.35,4.02,7.03,5.47,12.73,2.79,1.67-.78,3.24-2.01,4.91-3.01.33-.22.67-.56,1.12-.89,2.57,4.8,5.47,8.71,11.72,5.92.11,1.9,0,3.68.45,5.25,2.12,6.36,5.25,10.5,12.39,9.94,3.8-.33,6.81-2.34,9.38-4.91,1.79-1.79,3.24-3.91,4.91-5.92,0,0,.45.33.56.56,2.23,2.9,5.02,4.02,8.6,2.9,1-.33,1.34,0,1.56,1,1,4.35,3.46,7.7,7.26,10.05,2.9,1.9,6.03,2.23,9.27.78.56-.22,1.12-.45,1.56-.67h.22c-.67,3.57-.22,7.03,2.01,10.05,2.12,2.9,4.69,5.14,8.71,5.58-2.01,6.14-1.23,11.28,4.69,14.74-1,1.34-2.01,2.57-2.79,3.91-4.02,6.81-1.56,13.62,6.14,16.41.56.22,1.12.22,1.67.22,1.34,0,1.56.56,1.23,1.67-.89,3.46-.45,6.81,1.34,9.94,3.57,6.36,9.83,6.25,14.63,2.9.33-.22.67-.56,1.23-.89.89,2.34,1.79,4.58,2.68,6.7,1.67,3.91,4.8,6.03,8.37,5.58,3.91-.56,7.03-2.23,8.71-6.03.11-.33.33-.56.56-1,3.01,1.9,6.03,3.68,9.83,3.01,3.68-.67,5.92-3.35,8.04-6.36.11,2.34.33,4.69.45,6.92.11,3.91.33,7.82.33,11.84,0,1.12-.33,2.34-.78,3.46-.45,1.12-.45,2.12.33,3.01.78.89,1.9.78,2.9.45,6.92-2.57,13.85-5.14,20.77-7.7,3.91-1.45,7.82-2.9,11.84-4.24,2.68-.89,3.35-1.56,3.01-4.35-1-7.93,3.01-13.85,7.59-19.54,1.67-2.12,4.13-3.01,6.92-3.01,2.57,0,3.57,1.23,3.35,3.8-.33,3.01-1.9,5.47-3.57,7.82-2.01,2.79-4.13,5.47-6.14,8.15-.22.33-.45.56-.56.89-.56,1.23-.45,2.34.45,3.35.78.89,2.12,1,3.35.33.89-.56,1.79-1.23,2.68-1.79,4.58-2.9,9.71-3.91,14.85-4.91,3.57-.67,7.03-.22,10.27,1.45,1.45.78,2.57,1.79,2.68,3.57,0,2.01-.89,3.68-2.57,4.58-4.24,2.23-8.82,3.13-13.62,2.68-2.57-.22-5.25-.33-7.93-.45-1.9,0-3.01,1.34-2.79,3.24.11,1.45,1.12,2.12,2.46,2.34,2.57.45,5.14.89,7.82,1.12,4.58.33,8.26,2.46,11.28,5.69.89.89,1.56,2.12,2.01,3.24.33.67.22,1.56,0,2.34-.33.89-.89,1.79-1.45,2.57-1.45,1.79-2.23,1.79-4.47,1.34-5.47-1.23-9.38-4.91-13.51-8.37-1.12-.89-2.34-1.79-3.57-2.57-1.34-.78-2.46-.56-3.35.56s-1,2.46,0,3.57c.78.78,1.67,1.56,2.46,2.23,4.47,3.57,7.03,8.37,8.6,13.73.33,1.12.22,2.34.11,3.46,0,1.12-.78,1.79-1.79,2.12-1.9.56-3.68.33-5.47-.78-7.15-4.35-10.38-11.39-12.73-18.98-.33-1.23-.67-2.46-1.23-3.46-1.23-2.12-3.24-2.79-5.25-1.45-3.01,2.23-6.59,3.01-9.94,4.47-5.92,2.46-11.95,4.8-17.87,7.26-2.57,1.12-4.91,2.57-7.37,3.8-2.12,1-3.35,2.79-3.91,4.91-2.79,10.61-7.93,20.21-13.51,29.59-4.24,7.26-8.82,14.29-14.29,20.66-3.8,4.47-7.93,8.6-12.17,12.62-3.8,3.57-7.82,6.92-12.06,9.94-4.69,3.35-9.71,6.36-14.63,9.27-3.35,2.01-6.7,3.91-10.16,5.69-1.67.89-3.46,1.56-5.25,2.23-2.68.89-3.8,2.57-3.01,5.36,1.34,5.02,2.79,10.16,4.35,15.19,2.12,6.7,4.47,13.29,6.92,19.76,1.56,4.13,3.35,8.15,5.25,12.17,1,2.01,2.34,3.8,5.14,3.46.45,0,1.34.45,1.56,1,1.34,2.46,2.9,4.91,3.91,7.59,1,2.68,1.34,5.58,1.9,8.49.56,2.79,0,5.58-.67,8.37-.11.45-.33,1.12-.78,1.34-3.13,2.34-6.48,4.47-10.61,3.57-1.12-.22-2.34-1-3.24-1.9-4.13-3.91-6.92-8.71-9.49-13.73-5.25-10.27-9.16-20.99-12.62-31.93-2.57-7.93-5.25-15.86-7.82-23.78-.67-2.01-1.12-4.13-1.45-6.25-.45-2.12-1.67-3.01-3.8-2.57-8.26,2.12-16.64,3.24-25.12,3.24h-20.88c-6.7-.11-13.4-.89-19.99-2.23-7.37-1.56-14.85-2.79-22.11-4.35-10.16-2.23-19.32-6.81-28.03-12.39-7.93-5.02-15.07-10.94-21.44-17.87-6.7-7.26-12.73-14.96-17.42-23.67-2.68-4.8-5.14-9.71-7.26-14.74-4.02-9.49-7.15-19.32-8.93-29.48-.89-5.02-1.23-10.05-1.67-15.19-.33-4.02-.45-8.04-.56-12.06,0-.89.33-1.9.78-2.57,1-1.67,2.12-3.24,3.35-4.91l-.45-.45ZM207.67,276.92c.22,0,.33.11.56.22.22.67.56,1.34.78,2.01,1.45,4.91,2.79,9.71,4.24,14.63,1.12,3.57,2.34,7.15,3.35,10.72,1.12,3.91,2.01,7.82,3.13,11.72,2.01,6.92,4.58,13.73,8.71,19.76,3.35,4.8,7.59,8.37,13.06,10.61,6.25,2.57,12.62,2.23,18.76-.11,4.13-1.56,7.37-4.13,9.6-8.15,4.58-8.15,5.36-16.97,5.25-26.13,0-6.36,0-12.73.56-18.98.56-6.48,1.67-12.95,2.57-19.32.33-2.01.67-4.02,1-6.03h.56c2.9,1.56,6.03,3.01,7.82,6.03.56.89,1.45,1.12,2.34.67.89-.45,1.34-1.23.89-2.23-.33-.78-.67-1.56-1.12-2.12-3.01-3.13-6.48-5.69-10.72-6.92-3.13-.89-6.36-1.12-9.6,0-1,.33-1.67.89-1.34,2.12.22,1.23,1.12,1.34,2.12,1.23.78,0,1.56-.22,2.46-.33v1.23c.45,6.48-2.46,12.06-5.36,17.53-2.23,4.13-5.58,7.26-9.27,10.05-4.58,3.46-9.6,4.91-15.41,4.13-4.91-.67-9.27-2.68-13.62-5.02-7.59-4.13-13.18-10.16-16.86-17.87-.45-1-.33-1.56.78-1.9,1.56-.45,3.01-1,4.58-1.56,1.23-.45,1.79-1.34,1.45-2.46-.33-1.12-1.34-1.67-2.57-1.23-3.68,1.23-7.37,2.34-10.38,4.91-2.57,2.12-4.47,4.8-5.92,7.82-.45,1-.33,1.9.67,2.46,1,.56,1.67,0,2.23-.78.56-.78.89-1.56,1.45-2.23,1.12-1.45,2.34-2.9,3.46-4.35l-.22-.11ZM246.08,256.26c6.92-.45,13.4-4.24,17.2-12.06,4.47-9.27.67-19.88-7.82-25.01-8.93-5.36-19.54-3.57-26.58,4.02-6.59,7.15-6.92,18.09-.78,25.57,4.24,5.14,9.83,7.37,17.98,7.37v.11ZM257.36,192.17c.11,1,.33,3.01.67,4.8.22,1.45.56,2.9,1.12,4.24.56,1.67,1.56,3.13,3.24,4.02,3.8,2.01,9.16.22,11.39-3.57,2.46-4.13,2.9-8.49,3.01-13.06,0-2.79-.67-5.25-2.12-7.59-1.23-2.01-2.46-4.02-4.91-4.69-3.35-.89-7.03.33-9.04,3.13-2.46,3.57-3.24,7.59-3.46,12.62l.11.11ZM216.38,192.5v2.23c.45,3.68,1.45,7.26,4.35,9.94,4.02,3.57,9.38,2.23,11.39-2.57,2.57-6.03,2.57-12.17,1-18.42-.56-2.23-1.23-4.47-3.13-5.92-3.24-2.46-8.37-1.12-10.5,2.79-2.01,3.68-3.35,7.7-3.13,11.95h0Z"/>
  <path class="cls-12" d="M195.5,82.07c.78,1.34,1.45,2.68,2.23,4.02,1,1.67,2.23,2.23,3.46,1.67,1.34-.56,1.9-1.9,1.56-3.68-.56-2.9-.78-5.81.67-8.6.33-.67.78-1.34,1.23-1.9,1.34-1.56,2.46-1.56,3.8,0,.33.33.78.78,1,1.23,1.23,1.67,1.79,1.9,3.91,1.45,1.79,3.91,3.13,8.04,3.91,12.28.22,1.45.22,2.79.56,4.24.22,1.34,1.12,2.01,2.34,1.9,1.12,0,1.79-1,1.79-2.46,0-3.13-.45-6.25-1.45-9.16-1.56-4.69-3.01-9.38-5.81-13.62-1-1.56-.22-4.35,1.56-6.14,1.45-1.56,3.57-2.01,5.36-1.23,1.9.89,3.35,2.34,4.35,4.24.78,1.56,1.45,3.24,2.34,4.8.67,1.23,1.79,1.9,3.13,1.45.78-.33,1.45-1.23,1.9-2.01.22-.45,0-1.23-.11-1.9-.22-1.9-.78-3.68-.78-5.58,0-2.34,2.46-4.58,4.8-4.47,1.67,0,2.57,1.34,3.24,2.68.56,1.12,1.45,1.9,2.68,2.12,1.23.33,2.23,0,3.01-1.12.67-1.12.56-2.23-.33-3.13-3.01-3.01-3.68-6.92-4.02-10.83-.33-3.46,2.34-6.03,5.36-5.47,2.01.33,3.46,1.45,4.47,3.24.78,1.34,1.56,2.68,2.46,4.02,1,1.34,2.34,1.67,3.46,1,1.34-.67,1.67-1.9,1.12-3.57-.67-2.12-1.34-4.13-2.12-6.25-.78-2.23-.33-4.35.45-6.36.67-1.67,3.46-3.24,5.14-3.01.67.11,1.45.56,2.01,1.12,2.12,2.34,3.68,4.91,4.58,7.93.22.67.45,1.34.67,2.01.56,1.12,1.45,1.9,2.79,1.56,1.34-.22,2.01-1.23,2.01-2.46s0-2.46-.22-3.57c-.56-3.24.22-6.25.67-9.38.11-1,.45-2.01.67-3.01,1-4.24,3.8-6.7,7.82-8.04,1-.33,1.67-.22,2.34.56,2.79,3.01,3.8,6.7,3.68,10.72,0,2.57-.67,4.91-1.79,7.15-.45.78-.45,1.79-.45,2.68,0,1.12.67,1.79,1.67,2.12,1,.33,2.01.22,2.68-.67.67-.78,1.23-1.79,1.56-2.79,1.45-4.13,3.91-7.15,8.04-8.82,2.12-.89,3.13-.45,4.02,1.56,1.79,3.8,1.23,6.81-1.56,9.83-.45.45-.78.78-1.12,1.34-1.12,1.45-1.12,2.79,0,3.68,1.12,1,3.01,1,4.13,0,.67-.56,1.12-1.23,1.79-1.9,2.01-1.79,3.91-3.68,6.03-5.25,1.34-1,3.01-1.45,4.58-2.01.56-.22,1.34,0,1.9.33,2.57,1.45,3.57,4.58,2.57,7.59-1.45,4.24-4.35,7.15-8.15,9.27-1.56.89-3.13,1.79-4.47,2.79-1.34,1-1.45,2.79-.56,4.13.78,1.12,2.12,1.45,3.46.78,1.45-.78,2.79-1.67,4.24-2.57,1.79-1,3.57-1.34,5.47-.33,3.8,2.01,4.02,6.92.45,9.71-1.34,1-2.79,1.9-4.13,3.01-.67.56-1.34,1.23-1.79,2.01-.67,1.12-.33,2.23.56,3.13.89.89,2.01,1,3.01.33,1.34-.89,2.57-1.67,3.8-2.79,1.79-1.45,3.68-1.67,5.81-1.12.56.11,1.23.89,1.23,1.34,0,1.67-.22,3.46-.45,5.14,0,.45-.22.89-.33,1.45-.11,1.56.56,2.68,1.79,3.13,1.23.33,2.34-.11,3.13-1.45,1-2.01,1.9-4.02,3.13-5.92.78-1.23,2.01-2.12,3.24-3.01,1.12-.78,2.46-.78,3.68,0,1.23.89,1.9,2.12,1.56,3.68-.22.78-.33,1.45-.56,2.23-.45,1.9.33,3.46,1.9,3.91,1.45.33,2.57-.67,3.24-2.46.78-2.12,1.45-4.24,2.46-6.14,2.01-4.02,4.47-4.02,7.59-1.12,1,1,1.56,2.57,2.23,3.91.45.89.78,2.01,1.34,2.9.89,1.45,2.23,1.79,3.57,1.12,1.34-.78,2.12-2.68,1.34-3.91-1.67-2.57-1.23-5.25-.78-8.04.22-1.56,1-2.12,2.68-2.01,2.79.22,5.36.78,7.03,3.46,1,1.56,2.57,1.9,3.8,1,1.23-.89,1.67-2.46.67-4.02-1.23-2.01-2.79-3.8-4.13-5.81-1.67-2.46-1.34-4.91.67-6.81,2.46-2.23,5.92-1.79,7.7.89.78,1.23,2.23,1.56,3.68.89,1.67-.78,2.46-2.23,2.01-3.57-.22-.56-.56-1-.78-1.56-2.34-3.8-1.9-9.38,1.12-12.28,1.45-1.34,3.13-1.79,4.91-.89,3.01,1.45,5.02,3.8,5.14,7.15,0,3.01-.33,6.14-.67,9.16,0,.78-.22,1.56-.22,2.34,0,1.34.89,2.01,2.12,2.12,1.34.22,2.23-.33,2.68-1.67.33-1,.56-2.01.78-3.13.67-2.9,2.01-5.47,4.24-7.37,1.12-.89,2.46-2.01,3.68-1.34,1,.56,1.9,2.12,2.12,3.35.78,4.35,0,8.37-3.46,11.5-.33.22-.56.56-.89.78-1.23,1.12-1.45,2.79-.56,3.91.78.89,2.01,1.67,3.8.45,2.23-1.45,4.47-2.9,6.81-3.91,1.23-.56,2.79-.56,4.13-.33,2.68.33,3.8,3.13,2.34,5.36-1.79,2.79-4.24,4.69-7.37,5.58-.89.22-1.79.56-2.68.89-1.67.67-2.46,2.23-1.9,3.68.45,1.34,2.01,2.01,3.68,1.45,1.56-.45,3.01-1,4.58-1.45,2.68-.67,4.91.45,5.92,3.13.56,1.45-.22,2.68-1.12,3.8-2.46,3.24-6.03,4.24-9.83,4.69-1.34.11-2.68,0-4.02,0-1.9,0-3.24.78-3.57,2.34-.22,1.45.89,2.9,2.68,3.24,1.23.22,2.23.56,2.57,2.01.33,1.56,0,2.79-1.34,3.8-1.79,1.34-3.57,2.57-5.81,2.9-1.23.22-2.34.67-2.46,2.12-.11,1.34.22,2.68,1.34,3.57,1,.78,2.12.56,3.24,0,1.67-1,3.35-.78,4.47.56.56.78.67,1.45,0,2.12-.56.45-1.12.89-1.67,1.45-1.45,1.23-1.67,2.79-.78,4.02,1,1.34,2.46,1.45,4.02.33,2.34-1.56,4.58-3.24,6.92-4.8,1-.56,2.01-1.12,3.13-1.34,2.46-.67,4.02,0,5.14,1.79,1.45,2.34,1.45,5.02-.22,6.7-2.12,2.23-4.35,4.35-6.59,6.48-1.79,1.56-3.91,1.45-6.14,1.12-.45,0-.78,0-1.23-.22-1.23-.33-2.34-.22-3.13.89-.67,1-.67,2.23-.11,3.35.56,1.23,1.67,1.9,2.9,1.79,2.68-.22,5.14.33,7.48,1.67.33.22.56.33,1.12.78-.78.33-1.23.56-1.79.67-10.05,2.9-19.43,7.15-27.8,13.4-1.12.89-1.56,1.9-1.23,3.24.11.56.78,1.23,1.23,1.34.56.11,1.34-.22,1.79-.56.78-.56,1.45-1.34,2.23-1.9,8.15-5.02,16.64-9.04,25.91-11.5.45,0,.89-.11,1.45-.22,0,.56.11,1.12,0,1.56-1.45,4.91-4.24,8.71-9.16,10.83-1.45.56-2.79,1.34-4.13,2.12-1.45.89-1.67,2.23-1,3.57.67,1.23,1.9,1.67,3.46,1.12,1-.33,2.01-.78,2.9-1.23,1.56-.89,3.24-1.12,5.02-1.12,1.23,0,2.34.33,2.9,1.56.56,1.23.56,2.46-.22,3.57-1.79,2.34-4.13,3.8-6.92,4.58-.78.22-1.67.45-2.34.89-1.45.67-2.01,2.23-1.45,3.68.56,1.34,1.67,1.9,3.35,1.45,2.34-.67,4.69-1.56,7.15-2.12,3.8-.67,7.15.56,10.05,3.01,1.79,1.45,2.12,3.57,1.79,5.81-.11,1.34-2.01,2.79-3.57,2.79s-3.24,0-4.8-.22c-2.12-.22-3.57.56-3.8,2.34-.22,1.67,1.12,3.24,2.9,3.46.89.11,1.67.11,2.57.33,2.57.45,4.13,2.23,5.02,4.47.89,2.23.33,4.24-1.23,5.92-1.67,1.9-5.14,2.57-7.93,1.45-1.12-.45-2.12-1.34-3.01-2.01-.56-.45-.89-1.12-1.34-1.67-1.23-1.45-2.68-1.9-3.8-1-1.23.89-1.56,2.46-.67,4.02,2.9,5.02,2.34,10.05-.33,14.85-1.45,2.68-4.8,3.13-6.92.89-1.45-1.56-2.12-3.35-1.56-5.58.45-1.79.78-3.68,1-5.47.11-1.56-.89-2.79-2.23-3.01-1.23-.22-2.34.67-2.9,2.12-.22.78-.33,1.56-.56,2.34-.45,2.12-1.12,2.79-2.57,2.9-1.79.11-3.57-.78-4.24-2.46-.67-1.67-1.34-3.35-2.01-5.14-.89-2.12-2.12-3.01-3.68-2.46-1.56.56-2.01,2.12-1.45,4.35.67,2.34,1.67,4.69,1.12,7.15-.45,2.01-1.56,3.46-3.13,4.69-.89.78-1.9.45-2.79,0-.78-.45-1.45-.89-2.23-1.34-1.12-.56-2.23-.45-3.13.45-.89.89-.89,2.01-.45,3.13.33.78.78,1.45,1.23,2.23,2.12,4.24,1.45,8.82-1.79,12.28-1.9,2.12-6.36,1.45-7.7-1.34-.89-1.79-1.34-3.8-2.01-5.69-.22-.67-.22-1.45-.56-2.23-.45-1.12-1.34-1.79-2.46-1.67-1.23.11-2.01.89-2.34,2.12-.11.56-.11,1.12,0,1.67.22,2.9.11,5.81-1,8.6-.45,1-1.23,2.12-2.12,2.79-2.68,1.9-4.69,1.12-5.92-1.9-.78-1.79-1.45-3.68-2.23-5.47-.78-2.01-.67-3.91,0-5.92.22-.67.45-1.45.56-2.23.22-1.45-.56-2.68-1.79-3.13-1.23-.45-2.34,0-3.13,1.45-.67,1.34-1.23,2.9-2.01,4.24-1.34,2.34-3.24,4.02-6.03,4.47-1.12.22-2.01,0-2.79-.89-2.23-2.23-2.79-4.8-1.79-7.7.78-2.46,2.23-4.58,4.13-6.48.56-.56,1-1.23,1.23-1.9.56-1.23,0-2.57-1-3.35-1.12-.78-2.12-.45-3.24.33-1.45,1-2.9,2.01-4.47,2.79-3.13,1.56-5.58,0-7.15-2.34-1.12-1.56-.45-3.46.56-5.02,2.12-3.68,5.36-5.92,9.38-7.15,2.46-.67,3.46-2.79,2.46-4.8-.89-1.79-2.68-2.23-4.35-1-2.23,1.67-4.91,1.45-7.26.67-2.68-1-3.13-5.58-.89-7.37,2.34-2.01,4.8-3.8,7.03-5.92.78-.67,1.34-1.67,1.45-2.68.22-2.01-1.67-3.24-3.46-2.46-1,.45-1.9,1.12-2.9,1.67-2.68,1.79-5.69,1.9-8.6,1.45-2.46-.45-4.8-3.8-4.8-6.59,0-3.68.89-7.03,2.79-10.16.56-1,1.12-2.01.45-3.13-1-1.67-2.79-1.9-4.35-.45-1.67,1.56-3.13,3.35-5.02,4.69-1.79,1.34-3.8,2.46-6.36,1.67-4.35-1.34-7.03-6.7-5.25-10.94.78-1.79,1.67-3.57,2.46-5.36.33-.89.67-1.9.67-2.79,0-1.12-.56-2.01-1.79-2.46-1.12-.33-2.01,0-2.57.89-.56.78-1,1.67-1.45,2.57-.67,1.12-1.34,2.34-2.12,3.46-.33.45-.78.89-1.23,1.23-1.34,1.12-3.01,2.01-4.69,1.23-1.79-.78-2.57-2.46-2.79-4.35-.11-1.23-.11-2.46-.22-3.57-.11-1.67-1-2.68-2.23-2.9-1.34-.22-2.34.56-2.9,2.23-.78,2.23-1.56,4.47-2.34,6.7-1.34,3.8-4.13,6.48-7.7,8.37-3.8,2.01-7.82,0-9.04-4.02-1-3.46-.45-6.7,1.23-9.83.78-1.45,1.67-2.9,2.34-4.47.67-1.67.22-3.01-1.12-3.68-1.34-.67-3.01,0-3.68,1.67-1.34,3.24-3.57,5.25-6.81,6.25-1,.33-2.01.78-2.9-.11-1.12-1.12-2.01-2.34-1.56-4.02.56-2.12,1.23-4.13,1.79-6.14.22-.89.45-1.67.56-2.57.22-1.45-.45-2.68-1.67-3.13-1.34-.45-2.57.11-3.24,1.67-1.67,3.8-3.91,7.03-6.92,9.71-1.67,1.45-3.91,2.57-6.03,3.35-2.34.89-5.36-1.9-4.91-4.47.33-2.01.56-4.02.78-6.14.11-1.79-.67-3.01-1.9-3.24-1.45-.33-2.46.22-3.13,2.01-1,2.57-2.12,5.14-4.13,7.15-1.12,1.23-2.34,2.34-3.68,3.35-2.34,1.67-5.02.89-6.14-1.67-.56-1.45-.56-3.13-.89-4.69-.22-.89-.45-2.01-1-2.68-1.56-1.67-4.13-.89-4.69,1.34-1.67,6.03-5.69,10.5-10.27,14.52-.78.67-1.67,1-2.68.56-1.12-.56-1.45-1.45-1.45-2.68,0-1.9.22-3.8.33-5.69,0-1.56-.78-2.57-2.23-2.9-1.12-.22-2.34.45-2.79,1.79-.78,2.34-1.45,4.69-2.01,7.03-.78,2.9-2.12,5.47-4.24,7.59-1.45,1.34-3.13,1.79-4.91,1.45-.67-.11-1.34-1-1.79-1.56-1.56-2.01-4.35-1.9-5.81.22-.67,1-.67,2.57.33,3.13,1.56,1,1.79,2.46,1.9,4.02.45,4.47-.33,8.6-2.57,12.51-1.23,2.23-3.24,3.13-5.47,3.57-.33,0-.89,0-1.23-.33-1.34-1-2.57-2.12-3.8-3.24-.56-.56-.89-1.23-1.45-1.67-.89-.89-1.9-1-3.01-.33-1.12.78-1.67,1.79-1.12,3.01.67,1.56,1.56,3.13,2.23,4.69,1.34,3.01,1.67,6.14,1,9.49-.67,3.57-2.9,5.81-6.03,7.15-1.67.67-3.24.33-4.69-.78-.45-.33-1-.78-1.56-1-2.01-.78-3.68.67-3.35,2.68.22,1.45.78,2.46,2.12,3.35,1.23.78,2.46,2.01,3.01,3.35,1.67,4.69,1.9,9.38-.89,13.85-1,1.67-2.46,2.68-4.24,3.24-.56.22-1.45,0-2.01-.22-1.67-.89-3.01-2.12-3.57-4.13-.56-1.67-1.34-3.24-2.01-4.8-.67-1.34-1.9-1.9-3.01-1.45-1.45.45-2.23,1.79-1.79,3.24.45,1.56,1,3.01,1.67,4.58,3.46,8.49,2.34,16.86-4.24,23.67-1.23,1.23-2.46,1.45-4.02.78-.45-.22-.89-.33-1.34-.56-2.57-1-3.8-2.9-3.91-5.69v-6.7c0-.67,0-1.45-.33-2.12-.33-1.23-1.56-2.01-2.79-1.79-1.23.11-2.12,1-2.23,2.34-.45,4.02-1.23,8.04-2.68,11.84-1.45,3.68-3.91,6.48-6.7,9.04-1.12,1-2.46.67-3.57,0-2.12-1.23-3.01-3.24-3.46-5.47-.67-3.24.22-6.14,1.56-9.04.33-.78,1.12-1.23,1.67-1.9.67-.78,1.45-1.45,1.9-2.34.56-1.12,0-2.12-.89-3.01-.89-.78-1.9-.89-2.79-.22-1,.67-1.9,1.45-2.79,2.23-1.34,1.34-2.9,2.12-4.8,2.57-2.79.56-5.36-2.12-4.58-4.91.67-2.34,1.9-4.24,4.02-5.36,1.9-1,3.8-2.01,5.58-3.24.78-.56,1.56-1.34,1.9-2.12.67-2.12-1.23-3.8-3.46-3.35-2.57.56-5.14,1-7.82,1.12-1.67,0-3.35-.56-5.02-1-1.45-.33-1.9-1.56-1.9-2.9,0-2.23.56-4.24,1.79-6.03,2.79-4.13,6.81-6.25,11.61-7.15,3.68-.67,7.26-.78,10.72,1,1.12.56,2.34,0,3.01-1,.67-1.12.45-2.34-.67-3.24-1.45-1.12-2.9-2.12-4.24-3.24-.89-.67-1.34-1.45-1.23-2.68.22-1.23,1-1.67,2.01-2.01,1.34-.45,2.68-.89,3.91-1.34,1.45-.56,1.9-1.67,1.67-3.13-.22-1.23-1.23-2.12-2.68-2.12-1,0-2.01.33-3.01.56-2.23.45-4.35,1.12-6.59,1.45-1.34.22-2.46-.45-3.24-1.45-.22-.33-.22-1.23,0-1.56.67-1.12,1.45-2.12,2.34-3.13.78-.89,1.45-1.79,1.12-3.01-.56-2.34-2.9-3.01-4.8-1.12-2.34,2.34-5.02,4.02-7.93,5.69-2.46,1.34-4.58,1.12-6.7-.33-3.24-2.12-3.57-3.13-2.01-6.81,1.34-3.13,3.8-5.02,6.59-6.59.89-.56,1.9-.89,2.9-1.45,1.34-.67,1.79-2.01,1.45-3.24-.45-1.34-1.45-2.01-3.01-1.9-.67,0-1.23.45-1.9.56-2.23.56-4.47,1.45-6.81,1.67-1.45.11-2.9-.67-4.35-1.34-1.12-.45-1.34-1.56-1.12-2.68.67-3.57,2.79-6.03,5.47-8.15,3.13-2.46,6.81-3.68,10.83-3.8,1.45,0,2.9-.22,4.24-.45,1.67-.33,2.57-1.45,2.46-3.01-.11-1.45-1.12-2.34-2.9-2.46-.67,0-1.34,0-2.01-.11-.56,0-1.12-.22-1.67-.56-2.57-1.34-2.68-2.79-.45-4.58,2.23-1.79,4.91-2.34,7.82-2.46h3.24c1.79-.22,2.79-1.23,2.79-2.79s-1-2.57-2.9-2.68c-1.45-.11-3.01-.11-4.47-.45-1.56-.33-3.13-1.12-3.35-2.9-.11-1.67,1.45-2.46,2.79-3.01,3.24-1.45,6.7-1.34,10.16-.67,2.12.45,3.91-.89,3.57-3.01-.22-1.23-1-1.9-2.12-2.23-1.79-.67-3.68-1-5.25-1.9-1.34-.67-2.57-1.79-3.68-2.79-.78-.78-.67-1.67,0-2.57,2.34-2.79,6.14-4.02,9.71-2.68,2.23.89,4.35,2.12,6.48,3.24.33.22.56.56.78.89,1.23,1.9,2.23,2.12,3.91,1.23,1.67-1,2.23-2.9,1.34-4.47-.11-.22-.33-.56-.56-.78-1.12-1.45-2.23-2.9-3.35-4.35-2.68-3.24,0-8.26,3.91-9.16,2.9-.67,4.8,1,6.59,2.79,1.56,1.56,2.79,3.46,4.02,5.36,1.12,1.67,2.12,2.23,3.46,1.67,1.34-.56,1.9-2.01,1.34-3.8-.45-1.23-1.23-2.46-1.79-3.68-.67-1.23-1.12-2.34-.22-3.57s2.12-1.12,3.35-.78c5.02,1.12,8.82,4.13,12.17,7.82.45.56.89,1.23,1.45,1.56.78.33,1.67.45,2.46.33.89-.22,1.56-1.12,1.45-2.12-.11-.89-.33-1.67-.67-2.57-.45-1.12-1-2.23-1.34-3.35-.45-1.12-.67-2.34.45-3.35,1-.89,3.13-1.23,4.24-.56,3.35,2.01,6.59,4.13,7.59,8.37,0,.45.45.89.67,1.34.56.89,1.23,1.56,2.34,1.45,1.23-.22,2.01-1,2.34-2.23.22-.78.22-1.67.22-2.57.11-3.01,1.23-5.58,3.68-7.59,2.01-1.67,4.47-1.34,6.03.78,2.12,2.9,2.79,5.92,1.56,9.27-.45,1.34-.78,2.79-1.12,4.24-.45,1.67.33,3.13,1.79,3.57,1.34.45,2.57-.11,3.24-1.79.78-1.67,1.23-3.57,2.12-5.14.56-1,1.45-1.9,2.23-2.57,1.12-.89,2.23-.67,3.13.45,1,1.23,1.45,2.68,1.45,4.35,0,1.34.33,2.34,1.34,3.24.78.67,1.67,1,2.68.56,1-.45,1.56-1.23,1.56-2.34,0-2.23,0-4.47.22-6.7,0-2.12,1.34-3.57,2.9-4.8h-.11ZM281.59,89.55c1-.33,1.79-.67,2.57-.89,5.92-1.67,11.95-3.24,17.87-4.91.67-.22,1.34-.56,1.79-1,1.12-1.34.33-3.24-1.67-3.68-4.58-1-9.16-2.01-13.73-2.9-3.24-.67-6.59-1-9.83-1.67-.45,0-1.12-.67-1.23-1.12-.45-1.9-.67-3.8-.89-5.69-.45-2.68-.89-5.25-1.45-7.93-.22-1.12-.78-2.12-2.12-2.46-1.23-.22-1.9.67-2.57,1.56-2.57,4.13-5.14,8.37-7.7,12.51-.45.67-1.23,1.23-1.9,1.34-2.01.33-4.02.33-6.03.56-4.35.45-8.71.89-13.06,1.34-1.12.11-2.34.45-2.79,1.67-.45,1.45.33,2.34,1.23,3.24.33.33.78.67,1.12.89,1.45,1.12,3.01,2.23,4.58,3.35,2.46,1.79,4.91,3.68,7.48,5.58-2.34,3.68-4.58,7.26-6.81,10.83-1.67,2.68-3.35,5.36-4.91,8.15-.56.89-.45,1.9.33,2.68.67.78,1.67,1,2.68.67.56-.22,1.12-.45,1.56-.67,5.36-2.34,10.72-4.69,15.97-7.15,1.9-.89,3.57-.78,5.58.33,5.92,3.46,11.95,6.81,17.87,10.16,1,.56,1.9.89,2.9,0,1-.89,1-1.9.67-3.01-.67-2.12-1.45-4.24-2.12-6.36-1.79-5.25-3.57-10.5-5.36-15.86v.45ZM134.31,147.39c1.45,1.23,2.9,2.57,4.35,3.8,6.48,5.58,15.97,2.01,17.31-5.02.33-1.67.56-3.46.67-5.14.11-4.13-1-8.15-2.46-11.95-1.67-4.58-3.8-8.93-7.48-12.39-2.01-1.9-4.35-3.01-7.15-3.01-5.14,0-9.16,3.24-10.5,8.71-.22,1-.45,2.12-.67,3.35-.78-.67-1.34-1.23-1.9-1.67-4.47-3.35-8.93-3.46-12.39,1.12-.56.67-1,1.45-1.34,2.34-3.24,8.04-3.01,16.08,0,24.12,1.34,3.57,3.35,6.81,6.7,8.82,5.58,3.46,12.84,1.23,13.85-6.36.33-2.34.78-4.58,1.23-6.59l-.22-.11ZM360.31,126.4c-.45-1.67-.78-3.24-1.34-4.58-2.12-4.91-7.59-7.15-12.51-4.91-2.68,1.23-4.58,3.46-6.36,5.69-2.79,3.57-4.69,7.48-3.91,12.28.67,3.57,2.12,6.7,5.81,7.93,1.56.45,3.24.56,4.91.56s2.68.45,3.46,1.9c1.45,2.79,4.02,3.91,7.03,4.02h2.57c.22.89.56,1.67.67,2.57.45,2.46,1.67,4.47,3.68,5.92,3.46,2.46,7.48,3.35,11.39.78,3.68-2.46,5.92-6.03,7.15-10.16,1.12-3.57,1.34-7.26,0-10.83-.56-1.34-1.34-2.68-2.79-3.01-2.57-.56-5.25-.89-7.93-1.12-1.23,0-2.46.45-3.91.67-.67-4.58-3.13-7.37-7.82-7.59l-.11-.11Z"/>
  <path d="M381.85,458.82c4.8-.78,8.82-2.79,12.06-5.92,2.79-2.57,4.8-5.81,6.59-9.16,2.12-4.02,3.35-8.37,3.91-12.95.22-1.67,0-3.46-.22-5.14-.56-4.35-1.79-8.49-3.91-12.28-3.13-5.69-7.7-9.83-13.51-12.73-1.79-.89-3.8-1.67-5.58-2.57-2.46-1.12-4.91-1.23-7.59-.67-2.01.33-4.13.67-6.14.89-.45,0-1-.45-1.56-.67.22-.45.33-.89.56-1.23,2.23-2.68,4.35-5.58,6.92-7.93,4.13-3.91,9.27-6.36,14.96-7.15,1.23-.22,2.46.22,3.35,1.23,1.34,1.34,2.9,2.57,4.13,4.02,1,1.23,1.79,2.68,2.68,4.13,1.9,3.24,3.91,6.48,5.69,9.83,3.46,6.59,5.81,13.62,7.59,20.88,1.56,6.25,3.01,12.39,4.13,18.65.56,2.9.45,5.92.67,8.82,0,1.67.33,3.35.22,5.02-.11,6.25-.67,12.39-3.01,18.2-1.23,3.13-3.01,5.81-5.92,7.7-1.56,1-3.35,1.34-5.25,1.12h-1.9c-3.01,0-5.14-1.67-7.37-3.35-3.68-2.79-6.14-6.59-8.26-10.5-1-1.9-1.9-3.91-2.79-5.92-.33-.67-.45-1.45-.67-2.46l.22.11Z"/>
  <path class="cls-8" d="M105.84,277.25c-1-.33-2.01-.56-2.9-.78-4.58-1.45-9.27-3.01-13.85-4.47-1.12-.33-2.34-.67-3.46-.89-2.34-.45-4.13,1.12-4.24,3.46-.45,6.59-3.13,11.84-8.49,15.74-2.79,2.01-5.69,3.91-8.93,5.02-1.9.67-3.91,1-5.81,1.34-1.56.22-3.46-1.45-3.46-3.24,0-1.45,0-3.35.89-4.47,2.57-3.91,5.47-7.59,8.37-11.17.89-1.12,2.34-1.9,3.57-2.79,1.34-1,1.79-2.46,1-3.68-.89-1.45-2.34-1.79-3.91-.89-4.69,2.68-9.16,5.47-13.96,8.04-2.12,1.12-4.35,1.9-6.7,2.68-2.79.89-5.02-.67-5.25-3.68,0-.78,0-1.67.33-2.34,2.57-6.36,7.48-9.94,14.18-11.17,3.35-.56,6.7-.78,10.05-1.12,1.23-.11,2.34-.45,2.9-1.79,1-2.23-.67-4.13-3.46-4.02-4.58.22-9.04.33-13.62.67-2.79.22-5.36-.33-7.7-1.67-1.56-.89-2.46-2.34-2.79-4.02-.11-.67,0-1.56.45-2.12,1.9-2.68,4.58-4.24,7.82-4.35,6.81-.22,13.18,1.34,18.54,6.03.33.33.67.56,1.12.78,1.12.67,2.23.67,3.24-.22.89-.78,1-2.01.56-3.13-.33-.89-.89-1.67-1.45-2.57-2.9-4.47-5.25-9.04-6.03-14.4,0-.45,0-.89-.11-1.34,0-2.34,1.45-3.68,3.68-2.68,1.56.67,3.13,1.9,4.35,3.24,4.24,4.58,7.03,9.94,8.15,16.19.22,1.56.22,3.13.11,4.69-.22,2.46.45,3.8,2.9,4.47,5.36,1.45,10.72,2.9,16.19,4.24,1.67.45,3.46.78,5.25,1.12.67.11,1,.45,1.12,1.23.56,4.58,1.23,9.16,1.79,13.73v.67l-.45-.34Z"/>
  <path d="M49.9,406c.67-4.24,1.12-8.49,2.01-12.73.67-3.01,2.68-5.25,5.58-6.59,2.34-1,4.35.11,6.36,1.12,4.47,2.23,7.59,5.92,10.72,9.71,1.23,1.45,1.12,2.46.45,4.02-2.34,5.25-4.02,10.72-4.91,16.41-.89,6.25,0,12.28,2.23,18.2,1.67,4.47,3.91,8.71,7.15,12.17,3.46,3.68,7.7,6.03,12.73,6.81,5.02.89,9.49-.89,13.73-3.24.45-.22,1-.33,1.45-.45v1.34c-.67,5.14-1.23,10.16-1.9,15.3-.22,1.9-.89,3.68-2.12,5.25-.89,1.23-2.12,1.79-3.8,1.9-6.14.45-11.05-2.34-15.74-5.81-3.68-2.68-6.81-6.14-9.6-9.83-3.01-3.91-6.36-7.7-9.04-11.84s-4.8-8.71-6.81-13.18c-1.79-3.91-3.46-7.93-4.69-12.06-1.45-4.58-2.9-9.16-3.13-13.96,0-.89-.22-1.9-.33-2.79h-.22l-.11.22Z"/>
  <path class="cls-13" d="M45.77,394.94c-.22,2.9-.45,5.36-.67,7.93-.33,5.81.56,11.5,2.23,17.2,3.24,11.5,7.93,22.33,14.29,32.6,1.56,2.57,3.46,4.91,5.47,7.26,3.46,4.13,7.03,8.26,10.83,11.95,3.91,3.91,8.71,6.59,13.96,8.37,1.12.33,2.34.56,3.57.89-3.46,6.14-7.93,6.81-14.74,4.47-3.13-1.12-5.81-3.13-8.26-5.36-1-.89-1.9-1.9-2.9-2.79-1.12-1-1.34-2.23-1.12-3.68.67-4.24,0-8.15-2.9-11.39-1.23-1.34-2.68-2.68-4.24-3.57-3.8-2.46-6.92-5.36-9.6-8.93-6.25-8.49-9.94-18.09-12.06-28.25-.89-4.24-1.56-8.49-1.12-12.84.45-4.35,2.23-8.26,4.8-11.72.45-.67,1.34-1,2.34-1.79l.11-.34Z"/>
  <path class="cls-13" d="M396.94,379.87c6.03-2.79,11.84-1.23,15.41,3.91,2.46,3.46,4.47,7.15,5.92,11.17,1.12,2.79,1.23,5.69.67,8.71-1,4.91-1.12,9.71,0,14.63.56,2.34,1.34,4.47,3.01,6.14,3.13,3.13,4.47,7.03,5.25,11.17,2.57,12.95,1.9,25.79-2.46,38.41-1.23,3.46-3.24,6.36-6.36,8.26-1.79,1.12-2.68,1-4.35-.33,0-.22.11-.45.33-.56,3.46-3.91,5.14-8.71,6.25-13.73,2.01-9.38,1.79-18.87.56-28.36-1.34-10.05-4.13-19.76-7.26-29.37-2.23-7.15-5.69-13.73-9.6-20.1-1.34-2.12-2.57-4.24-4.02-6.36-.89-1.34-2.12-2.34-3.35-3.57h0Z"/>
  <path d="M370.14,401.76c1.45-.22,2.57-.56,3.8-.45,2.23.22,4.58.22,6.59,1,5.69,2.23,10.94,5.36,14.74,10.38,2.12,2.79,3.35,6.14,4.24,9.38.56,2.12,1,4.24,1,6.36s-.33,4.35-.89,6.48c-1.23,4.69-3.68,8.82-6.59,12.73,0,0-.11,0-.45.22-.89-1.12-2.01-2.23-2.79-3.46-2.23-3.35-4.24-6.81-6.48-10.16-.45-.67-.45-1.12,0-1.79,1.34-1.56,2.57-3.35,3.91-4.91.33-.33,1.12-.67,1.56-.56,3.35,1,5.25.11,6.36-3.13,1.23-3.35-.22-6.92-3.8-7.82-2.9-.78-5.92,2.01-5.69,5.02.11,1.23-.22,2.79-.89,3.91-1,1.67-2.46,3.01-3.8,4.8-.78-1.56-1.45-2.9-2.12-4.35-1.23-2.79-2.46-5.58-3.35-8.6-.67-2.12-.78-4.47-1.34-6.59-.78-3.01-2.01-5.81-4.35-8.49h.33Z"/>
  <path class="cls-8" d="M179.87,374.06c-7.26.89-14.07,2.34-20.77,4.69-4.02,1.45-7.93,3.13-11.84,4.91-2.68,1.23-5.25,2.57-7.82,4.02-.67.33-1.23.33-1.67-.11-1.45-1.67-3.01-3.24-4.24-5.14-1.45-2.34-2.9-4.8-3.13-7.7,0-.45.33-1.12.67-1.34,8.04-3.8,16.41-6.36,25.12-8.26,1.45-.33,2.9-.56,4.35-.56.89,0,1.9.11,2.68.56,5.25,2.68,10.5,5.47,15.74,8.26.22.11.45.33.89.67h0Z"/>
  <path d="M86.75,423.75c2.01,2.23,4.8,3.35,5.36,6.59.22,1.34,1.56,2.46,2.46,3.57,3.24,3.57,7.26,5.92,11.84,7.48.56.22,1.34.22,2.01.33.56,1.79,0,3.35-1.45,4.58-3.57,2.79-7.48,4.69-12.06,4.91-1.9,0-3.91-.56-5.81-1.23-4.8-1.9-8.26-5.36-10.5-10.05-1.34-2.9-2.57-5.81-3.46-8.93-1.12-3.8-1.45-7.7-.78-11.61.33-2.12.67-4.24,1-6.7.67.56,1,.78,1.23,1,2.01,2.01,4.13,4.13,6.14,6.14.78.78,1.23,1.56.78,2.68-.22.67-.22,1.45-.45,2.12-.22.45-.56.89-1,1.12-3.46,1.34-4.69,7.48-1.12,10.27,1.23.89,3.46.67,4.47-.67,1.79-2.12,2.79-4.8,1.23-7.59-.56-1.12-.78-2.46,0-4.02h.11Z"/>
  <path class="cls-2" d="M340.77,418.84c2.34-1.56,4.47-3.13,6.81-4.69,2.23,3.24,3.91,6.48,4.91,10.05,1,3.24,1.45,6.7,2.12,10.05.22,1.34-.22,2.46-1.34,3.24-1.56,1.12-3.24,2.34-5.14,3.68-.45-8.37-2.79-15.74-7.37-22.44v.11Z"/>
  <path class="cls-3" d="M126.5,377.19c1.79,5.58,4.69,9.94,8.49,13.85-2.46,3.24-4.91,6.36-7.37,9.6-2.23-1.45-4.02-3.24-5.36-5.47-.89-1.45-1.67-3.13-2.34-4.8-.22-.56-.33-1.45,0-1.9,2.12-3.68,4.35-7.37,6.7-11.28h-.11Z"/>
  <path class="cls-3" d="M331.17,424.53c1.9-1.12,3.68-2.23,5.47-3.24,2.23,1.79,3.13,4.35,4.13,6.81,2.01,4.47,3.01,9.16,3.13,13.96,0,1.34-.33,2.46-1.56,3.35-1.79,1.23-3.46,2.46-5.36,3.91,1.12-9.16-1.23-17.2-5.81-24.79Z"/>
  <path class="cls-5" d="M101.71,417.72c3.13,4.91,6.36,9.38,12.06,11.5-.78,2.12-1.56,4.13-2.46,6.25-.11.33-.56.67-.89.56-1.23,0-2.57,0-3.8-.56-3.57-1.23-6.59-3.57-9.27-6.25-.89-.89-1.12-1.79-.56-2.79,1.56-2.9,3.24-5.69,4.91-8.82v.11Z"/>
  <path class="cls-5" d="M191.48,27.8c.67-4.24,2.79-8.37,7.15-11.05,2.23-1.34,4.8-1,6.36.67,1.67,1.79,1.67,4.24.33,6.48-1.23,2.01-3.01,3.57-5.14,4.58-1.79.89-3.46,1.79-5.25,2.57-2.34.89-3.46,0-3.35-3.13l-.11-.11Z"/>
  <path class="cls-6" d="M118.68,417.05c-1.12,2.68-2.23,5.14-3.24,7.7-2.23-.45-3.91-1.67-5.36-3.24-1.79-2.01-3.35-4.24-4.91-6.48-.33-.56-.45-1.67,0-2.23,1.23-2.34,2.68-4.58,4.13-7.03,2.34,4.47,5.58,8.15,9.49,11.17l-.11.11Z"/>
  <path class="cls-2" d="M116.56,393.71c2.23,4.47,5.14,8.04,8.82,11.05-1.56,2.79-3.01,5.47-4.58,8.26-1.23-1.12-2.68-2.12-3.68-3.35-1.79-2.23-3.46-4.58-5.14-7.03-.22-.33-.33-1.12-.11-1.45,1.45-2.46,3.01-4.8,4.69-7.48h0Z"/>
  <path class="cls-6" d="M355.29,408.34c2.01,2.34,3.24,5.02,4.47,7.7,1.67,3.68,2.68,7.48,3.35,11.39.33,1.45,0,2.57-1.34,3.46-1,.67-2.01,1.45-3.13,2.34-.45-8.04-3.35-14.96-7.37-21.66,1.34-1,2.68-2.01,4.13-3.13l-.11-.11Z"/>
  <path class="cls-5" d="M367.12,425.98c-.78-4.58-2.01-9.04-4.13-13.29-1.12-2.23-2.46-4.24-3.57-6.36-.22-.33-.22-1.12,0-1.34,1.12-1.12,2.34-2.01,3.57-3.01,2.57,1.9,4.02,4.58,5.14,7.37,1.67,4.13,2.57,8.37,1.79,12.95-.33,1.79-1,3.13-2.9,3.68h.11Z"/>
  <path d="M380.51,436.34c3.24,4.87,6.15,9.4,9.28,13.93-2.35,2.49-5.37,3.62-8.73,3.85-.34,0-.89-.57-1.01-.91-.78-3.51-1.57-7.02-2.24-10.53,0-.45.22-1.02.45-1.47.67-1.59,1.45-3.06,2.24-4.87h0Z"/>
  <path class="cls-5" d="M169.93,26.13c3.68.22,6.36,2.12,8.26,5.25.33.56.22,1.45,0,2.12-.22.89-.78,1.67-1,2.57-.67,1.9-.56,1.9-2.46,1.56-2.46-.56-4.91-1-6.92-2.68-1.9-1.56-2.68-3.91-2.01-6.03.78-2.12,1.9-2.79,4.13-2.79Z"/>
  <path class="cls-5" d="M199.41,53.49c0,2.79-1,4.13-3.46,4.58-2.12.33-3.68-1-4.47-2.68-1.12-2.34-1.9-4.91-2.57-7.37-.11-.56.33-1.34.67-1.9.22-.45.78-.78,1.12-1.12,1.79-1.79,1.67-1.67,3.91-.33,3.35,2.01,5.14,4.91,4.91,8.82h-.11Z"/>
  <path class="cls-6" d="M472.75,132.09c1.67,0,3.24.45,4.02,2.12.89,1.9.45,4.8-1,6.14-1.79,1.67-3.91,2.57-6.25,3.01-1.79.33-3.01-.67-3.8-2.12-.89-1.67-1.56-3.46-.33-5.14,1.79-2.68,4.35-3.8,7.48-4.02h-.11Z"/>
  <path class="cls-5" d="M187.91,21.44c-.22,1.67-.45,3.46-.78,5.14-.11.78-.56,1.23-1.45,1.34-3.57.33-3.01.89-5.02-2.79-1.56-3.13-1.56-6.48-.67-9.83.67-2.34,3.46-3.13,5.36-1.56,2.01,1.67,2.01,3.91,2.34,6.14v1.45h.22v.11Z"/>
  <path class="cls-5" d="M184.78,52.15c-.22,5.69-2.01,7.15-6.36,9.49-.22.11-.67.22-.89,0-1-1-2.34-1.79-2.12-3.57.33-3.01.45-6.03,1.9-8.82,1.23-2.46,1.9-2.68,3.91-1.67.22,0,.45.11.67.22,2.9,1,3.01,1.12,3.01,4.24l-.11.11Z"/>
  <path class="cls-5" d="M203.65,42.77c-1.45-.45-3.13-.78-4.8-1.34-1.34-.45-2.57-1.34-3.8-1.9-1.34-.56-2.01-1.23-1.34-2.68.22-.45.56-1.12,1-1.23,2.12-.67,4.35-1.34,6.59-1.67,2.9-.45,7.03,2.12,8.04,5.02.45,1.23-.22,2.57-1.56,3.01-1.12.33-2.34.45-3.91.78h-.22Z"/>
  <path class="cls-8" d="M483.36,136.67c-1.12.33-1.67-.33-1.9-1.56-.33-1.45-1-2.9-1.34-4.35-.11-.45,0-1.34.33-1.56,1.56-1.23,3.13-2.46,4.8-3.24,2.12-1,4.69,0,6.03,2.34,1.23,2.12.89,3.91-1.12,5.69-1.9,1.67-4.02,2.68-6.81,2.68h0Z"/>
  <path class="cls-8" d="M478.34,153.53c-.33,3.01-1.45,5.25-4.13,6.48-1.67.78-2.57.56-3.57-.89-1.67-2.34-2.12-5.02-1.9-7.7.22-3.35.33-3.24,3.68-4.13,1.34-.33,2.12,0,2.9,1,.45.67,1.23,1.23,1.56,1.9.56,1,1,2.23,1.45,3.24v.11Z"/>
  <path class="cls-8" d="M453.1,152.19c.33-.78.56-2.01,1.34-2.79,1.9-2.12,4.24-3.68,6.81-4.8.78-.33,1.23,0,1.9.45,1.56,1.23,1.79,2.57,1.23,4.47-1,3.24-3.01,5.58-5.92,7.15-1.67.89-3.8,0-4.58-1.9-.33-.78-.45-1.56-.67-2.57h-.11Z"/>
  <path class="cls-8" d="M467.17,128.07c-.22.45-.45.89-.89,1.23-1,.78-2.01,1.45-3.01,2.01-.33.22-.78.22-1.12.11-1.23-.45-2.57-.89-3.68-1.45-1.79-.89-2.68-2.57-3.01-4.47-.22-1.67,2.57-3.8,4.69-3.57,2.68.33,4.58,2.12,6.25,4.02.45.45.45,1.34.67,2.12h.11Z"/>
  <path class="cls-8" d="M471.08,123.72c0-2.9.78-5.36,3.46-6.92,1.56-.89,3.01-.67,4.35.33,1.12,1,1.67,2.34.67,4.02-1.45,2.34-3.24,4.47-5.02,6.48-1,1-2.79.22-3.13-1.23-.22-.89-.22-1.9-.33-2.79v.11Z"/>
  <path class="cls-8" d="M478.23,144.38c.78-1,1.34-1.79,2.01-2.68.11-.22.45-.33.67-.45,2.12-.67,6.48.89,7.7,2.68,1.34,2.01,1.23,4.13-.33,5.58-1.34,1.34-3.91,1.45-5.58-.22-1.67-1.45-2.9-3.35-4.47-5.02v.11Z"/>
  <path class="cls-3" d="M189.58,36.07c-.22,3.46-2.01,6.25-4.91,7.26-1.9.67-3.35,0-3.68-2.01-.78-4.24,1-7.37,4.91-8.82,1-.33,1.9,0,2.46.78.56.89.78,1.79,1.23,2.79Z"/>
  <path class="cls-5" d="M175.74,42.65c-2.68,4.8-8.82,7.82-13.96,6.81-.56,0-1.56,0-1.56-1,0-1.12,0-2.34,1.12-2.79,3.46-1.45,6.81-3.01,10.72-3.01h3.8-.11Z"/>
  <path class="cls-8" d="M460.47,138.24c.33,1.23-.33,2.01-1.56,2.46-1.79.67-3.46,1.34-5.25,1.79-1.45.33-2.34-.78-3.13-1.9-.78-1.12-.33-2.23.33-3.24,1.56-2.01,5.58-3.13,7.93-2.23,1.45.56,1.67.89,1.67,3.01v.11Z"/>
  <path d="M78.48,403.2c.56.89,1.12,1.45,1.56,2.23,1.34,2.12,2.68,4.24,4.13,6.25,1.12,1.67.45,3.13.22,5.14-1.23-1.12-2.34-1.9-3.24-2.79-1.34-1.34-2.57-2.79-3.91-4.02-.56-.56-.67-1-.45-1.79.56-1.56,1-3.01,1.67-4.91v-.11Z"/>
  <path d="M375.83,426.99c.22.45.56.89.78,1.45.45.89.78,1.67,1.12,2.57,1.12,2.57,1,3.24-1,5.69-.89-3.24-1.45-6.36-1.45-9.49.11,0,.33-.11.45-.22h.11Z"/>
  <path class="cls-1" d="M207.67,276.92c-1.12,1.45-2.34,2.9-3.46,4.35-.56.67-.89,1.56-1.45,2.23-.56.78-1.23,1.34-2.23.78-1-.56-1.12-1.45-.67-2.46,1.34-3.01,3.24-5.69,5.92-7.82,3.01-2.57,6.7-3.68,10.38-4.91,1.23-.45,2.23.11,2.57,1.23.33,1.12-.11,2.01-1.45,2.46-1.56.56-3.01,1-4.58,1.56-1.12.33-1.23.78-.78,1.9,3.68,7.82,9.27,13.73,16.86,17.87,4.24,2.34,8.71,4.35,13.62,5.02,5.81.89,10.83-.67,15.41-4.13,3.68-2.79,7.03-5.81,9.27-10.05,2.9-5.47,5.81-11.05,5.36-17.53v-1.23c-.89.11-1.67.22-2.46.33-1,.11-1.9,0-2.12-1.23-.22-1.12.45-1.79,1.34-2.12,3.24-1.12,6.48-.89,9.6,0,4.24,1.23,7.7,3.8,10.72,6.92.56.56.89,1.34,1.12,2.12.45,1,0,1.79-.89,2.23-.89.45-1.79.22-2.34-.67-1.79-3.01-4.91-4.47-7.82-6.03h-.56c-.33,2.01-.78,4.02-1,6.03-.89,6.48-2.01,12.84-2.57,19.32-.56,6.25-.56,12.62-.56,18.98.11,9.16-.67,17.98-5.25,26.13-2.23,3.91-5.47,6.59-9.6,8.15-6.25,2.34-12.51,2.68-18.76.11-5.47-2.12-9.71-5.81-13.06-10.61-4.24-6.03-6.7-12.73-8.71-19.76-1.12-3.91-2.01-7.82-3.13-11.72-1-3.57-2.23-7.15-3.35-10.72-1.45-4.91-2.79-9.71-4.24-14.63-.22-.67-.56-1.34-.78-2.01-.22,0-.33-.11-.56-.22l.22.11Z"/>
  <path class="cls-10" d="M246.08,256.26c-8.15,0-13.73-2.34-17.98-7.37-6.25-7.48-5.92-18.42.78-25.57,7.03-7.59,17.64-9.38,26.58-4.02,8.49,5.14,12.28,15.74,7.82,25.01-3.8,7.82-10.16,11.61-17.2,12.06v-.11ZM244.86,221.87c-4.02,0-7.59,1.23-10.61,3.8-8.26,6.92-6.36,19.65,3.57,23.78,6.59,2.68,12.62,1.45,17.64-3.35,3.13-2.9,4.69-6.7,4.24-10.94-.78-7.7-7.03-13.18-14.85-13.18v-.11Z"/>
  <path class="cls-1" d="M257.36,192.17c.22-5.02,1-9.16,3.46-12.62,2.01-2.79,5.69-4.13,9.04-3.13,2.46.67,3.68,2.68,4.91,4.69,1.34,2.34,2.12,4.91,2.12,7.59,0,4.58-.56,9.04-3.01,13.06-2.23,3.8-7.59,5.47-11.39,3.57-1.67-.89-2.68-2.34-3.24-4.02-.45-1.34-.78-2.79-1.12-4.24-.33-1.9-.56-3.8-.67-4.8l-.11-.11Z"/>
  <path class="cls-1" d="M216.38,192.5c-.11-4.35,1.12-8.26,3.13-11.95,2.12-4.02,7.26-5.25,10.5-2.79,1.9,1.45,2.57,3.68,3.13,5.92,1.56,6.25,1.45,12.39-1,18.42-2.01,4.91-7.37,6.14-11.39,2.57-3.01-2.68-3.91-6.14-4.35-9.94v-2.23h0Z"/>
  <path class="cls-10" d="M281.59,89.55c1.79,5.36,3.57,10.61,5.36,15.86.67,2.12,1.45,4.24,2.12,6.36.33,1.12.45,2.23-.67,3.01-1,.78-1.9.45-2.9,0-6.03-3.35-11.95-6.7-17.87-10.16-1.9-1.12-3.57-1.23-5.58-.33-5.36,2.34-10.72,4.8-15.97,7.15-.56.22-1.12.45-1.56.67-1,.33-1.9.11-2.68-.67-.78-.78-.89-1.79-.33-2.68,1.56-2.68,3.24-5.47,4.91-8.15,2.23-3.57,4.47-7.15,6.81-10.83-2.57-1.9-5.02-3.8-7.48-5.58-1.45-1.12-3.01-2.23-4.58-3.35-.45-.33-.78-.56-1.12-.89-.89-.89-1.79-1.9-1.23-3.24.45-1.34,1.67-1.56,2.79-1.67,4.35-.56,8.71-.89,13.06-1.34,2.01-.22,4.02-.22,6.03-.56.67-.11,1.56-.67,1.9-1.34,2.68-4.13,5.14-8.37,7.7-12.51.56-.89,1.23-1.79,2.57-1.56,1.23.22,1.79,1.34,2.12,2.46.56,2.57,1,5.25,1.45,7.93.33,1.9.56,3.8.89,5.69,0,.45.78,1,1.23,1.12,3.24.56,6.59,1,9.83,1.67,4.58.89,9.16,1.9,13.73,2.9,2.01.45,2.79,2.34,1.67,3.68-.45.45-1.12.78-1.79,1-5.92,1.67-11.95,3.35-17.87,4.91-.78.22-1.45.56-2.57.89v-.45ZM246.75,78.83c.56.56.89.89,1.34,1.23,2.9,2.23,5.81,4.47,8.6,6.7,1.56,1.23,1.79,2.12.78,3.91-1.45,2.57-3.01,5.02-4.58,7.59-1.34,2.23-2.68,4.47-4.13,6.92,4.69-1.9,9.16-3.68,13.62-5.58,2.01-.89,3.91-.78,5.69.22,4.47,2.57,9.04,5.02,13.51,7.59.45.22.78.33,1.45.67-1.34-4.47-2.46-8.82-3.8-13.06-.56-1.79-1.23-3.46-1.67-5.25-.67-2.23.11-3.57,2.34-4.35,1.45-.45,3.01-.89,4.47-1.45,2.46-.78,4.8-1.56,7.37-2.46-.33-.11-.45-.22-.56-.22-4.58-1-9.27-2.01-13.85-2.79-2.57-.45-3.68-1.34-4.13-3.91-.22-1-.33-2.12-.45-3.13-.33-1.9-.56-3.8-.89-5.69-.11,0-.22,0-.33-.11,0,.11-.11.33-.22.45-1.9,2.9-3.91,5.92-5.81,8.82-.78,1.23-1.67,1.9-3.13,2.01-2.12.22-4.13.45-6.25.78-3.01.33-6.03.67-9.38,1.12h0Z"/>
  <path class="cls-10" d="M134.31,147.39c-.33,2.01-.89,4.24-1.23,6.59-1,7.59-8.15,9.94-13.85,6.36-3.35-2.01-5.36-5.25-6.7-8.82-3.01-8.04-3.24-16.08,0-24.12.33-.78.78-1.56,1.34-2.34,3.46-4.58,7.93-4.35,12.39-1.12.67.45,1.23,1,1.9,1.67.22-1.23.45-2.34.67-3.35,1.34-5.47,5.36-8.82,10.5-8.71,2.79,0,5.14,1.23,7.15,3.01,3.68,3.35,5.81,7.7,7.48,12.39,1.45,3.91,2.57,7.82,2.46,11.95,0,1.67-.33,3.46-.67,5.14-1.23,7.03-10.83,10.61-17.31,5.02-1.45-1.23-2.9-2.57-4.35-3.8l.22.11ZM134.87,135.56c.89-.45,1.79-.89,2.68-1.34,1.34-.56,2.57-.45,3.8.45,4.47,3.24,5.58,8.49,2.79,13.29-.22.33-.33.67-.56,1,2.68.89,4.91.67,6.92-1.34,1.79-1.79,2.01-4.02,2.01-6.36,0-6.81-2.46-12.84-6.03-18.54-1.12-1.79-2.68-3.46-4.91-4.24-3.68-1.34-7.59.78-7.93,4.58-.33,4.13-.22,8.26,1.34,12.39l-.11.11ZM129.07,137.68c-.67-3.57-2.12-6.81-4.69-9.49-2.9-2.9-5.58-2.68-7.48.33-.22.33-.33.67-.56,1.12-2.34,5.92-2.23,11.95-.67,17.98,1,3.57,2.68,6.59,5.58,8.82,1.67,1.34,3.68,1.45,5.47.33,1.67-.89,2.01-2.46,1.9-4.35-.33,0-.67-.22-1-.33-2.46-.67-4.13-2.23-4.35-4.8-.22-2.01,0-4.02.33-5.92.33-2.01,1.79-3.24,3.8-3.57.56,0,1-.22,1.67-.22v.11Z"/>
  <path class="cls-1" d="M360.31,126.4c4.69.22,7.15,3.01,7.82,7.59,1.34-.22,2.68-.78,3.91-.67,2.68.22,5.36.56,7.93,1.12,1.45.33,2.23,1.67,2.79,3.01,1.45,3.57,1.23,7.26,0,10.83-1.23,4.13-3.46,7.7-7.15,10.16-3.8,2.57-7.93,1.67-11.39-.78-2.01-1.45-3.24-3.46-3.68-5.92-.11-.78-.45-1.67-.67-2.57h-2.57c-3.01-.11-5.58-1.34-7.03-4.02-.78-1.45-1.79-1.9-3.46-1.9s-3.35,0-4.91-.56c-3.8-1.23-5.25-4.35-5.81-7.93-.78-4.69,1.12-8.71,3.91-12.28,1.79-2.23,3.57-4.47,6.36-5.69,4.91-2.12,10.38,0,12.51,4.91.56,1.45.89,3.01,1.34,4.58l.11.11ZM364.11,147.95c.33,1.23.56,2.01.67,2.9.78,3.8,5.81,6.7,9.83,2.9,2.01-2.01,3.46-4.24,4.13-7.03.56-2.23,1-4.58.22-6.81-.22-.67-.78-1.56-1.23-1.67-2.01-.45-4.02-.78-6.03-.78-2.23,0-3.24.89-3.8,3.13-.45,1.9-1.12,3.46-2.57,4.91-.67.67-.89,1.67-1.34,2.46h.11ZM346.02,138.79h1.79c.67,0,1.12-.22,1.23-.89.67-3.8,2.9-6.59,5.47-9.27.56-.56,1.12-1.34,1.23-2.12.67-2.46-1-3.91-2.68-5.25-1.67-1.45-3.57-1.45-5.36-.22-3.68,2.57-6.48,5.92-7.48,10.38-.89,4.13,1.56,7.37,5.69,7.37h.11ZM364.22,137.34c-.11-1.12-.22-2.34-.45-3.46-.22-1.12-.67-2.12-1.79-2.46-1.79-.45-3.68-.45-5.14,1-2.01,1.9-3.46,4.24-3.57,7.26-.11,2.23,1,4.35,2.9,4.91,2.01.56,3.91.45,5.47-1.12,1.79-1.67,2.68-3.57,2.68-6.03l-.11-.11Z"/>
  <path class="cls-7" d="M244.86,221.87c7.7,0,14.07,5.47,14.85,13.18.45,4.24-1.12,8.04-4.24,10.94-5.14,4.8-11.17,6.03-17.64,3.35-9.94-4.02-11.84-16.86-3.57-23.78,3.01-2.57,6.59-3.8,10.61-3.8v.11Z"/>
  <path class="cls-3" d="M246.75,78.83c3.24-.33,6.36-.78,9.38-1.12,2.12-.22,4.13-.56,6.25-.78,1.45-.11,2.34-.89,3.13-2.01,1.9-3.01,3.8-5.92,5.81-8.82,0-.11.11-.33.22-.45.11,0,.22,0,.33.11.33,1.9.56,3.8.89,5.69.11,1,.22,2.12.45,3.13.45,2.57,1.56,3.46,4.13,3.91,4.69.89,9.27,1.9,13.85,2.79.11,0,.22,0,.56.22-2.57.89-5.02,1.67-7.37,2.46-1.45.45-3.01.89-4.47,1.45-2.23.78-3.01,2.12-2.34,4.35.56,1.79,1.23,3.46,1.67,5.25,1.23,4.24,2.46,8.49,3.8,13.06-.56-.22-1-.45-1.45-.67-4.47-2.57-9.04-5.02-13.51-7.59-1.9-1.12-3.68-1.12-5.69-.22-4.47,1.9-8.93,3.68-13.62,5.58,1.45-2.46,2.79-4.69,4.13-6.92,1.56-2.57,3.01-5.02,4.58-7.59,1-1.67.78-2.68-.78-3.91-2.9-2.23-5.81-4.47-8.6-6.7-.45-.33-.78-.67-1.34-1.23h0Z"/>
  <path class="cls-11" d="M134.87,135.56c-1.56-4.02-1.67-8.26-1.34-12.39.33-3.8,4.24-5.92,7.93-4.58,2.23.78,3.68,2.34,4.91,4.24,3.57,5.69,6.03,11.72,6.03,18.54,0,2.23-.22,4.58-2.01,6.36-2.01,2.01-4.24,2.23-6.92,1.34.22-.33.45-.67.56-1,2.68-4.8,1.56-9.94-2.79-13.29-1.23-.89-2.46-1-3.8-.45-.89.45-1.79.89-2.68,1.34l.11-.11Z"/>
  <path class="cls-11" d="M129.07,137.68c-.56,0-1.12.22-1.67.22-2.01.33-3.46,1.56-3.8,3.57-.33,1.9-.45,4.02-.33,5.92.22,2.57,1.9,4.13,4.35,4.8.33,0,.67.22,1,.33,0,1.79-.22,3.35-1.9,4.35-1.9,1-3.8,1-5.47-.33-2.9-2.23-4.58-5.36-5.58-8.82-1.67-6.03-1.79-12.06.67-17.98.11-.33.33-.78.56-1.12,1.9-3.01,4.58-3.24,7.48-.33,2.57,2.57,3.91,5.81,4.69,9.49v-.11Z"/>
  <path class="cls-9" d="M364.11,147.95c.33-.78.67-1.79,1.34-2.46,1.45-1.34,2.12-3.01,2.57-4.91.56-2.23,1.56-3.24,3.8-3.13,2.01,0,4.02.33,6.03.78.56.11,1,1,1.23,1.67.78,2.23.33,4.58-.22,6.81-.67,2.79-2.12,5.02-4.13,7.03-4.02,3.8-9.04.78-9.83-2.9-.22-.89-.45-1.67-.67-2.9h-.11Z"/>
  <path class="cls-9" d="M346.02,138.79c-4.02,0-6.59-3.13-5.69-7.37,1-4.47,3.8-7.82,7.48-10.38,1.79-1.23,3.68-1.23,5.36.22,1.56,1.34,3.24,2.79,2.68,5.25-.22.78-.67,1.56-1.23,2.12-2.68,2.57-4.8,5.47-5.47,9.27-.11.67-.56,1-1.23.89h-1.9Z"/>
  <path class="cls-9" d="M364.22,137.34c0,2.46-.89,4.35-2.68,6.03-1.56,1.56-3.46,1.67-5.47,1.12-2.01-.56-3.01-2.68-2.9-4.91.11-2.9,1.56-5.25,3.57-7.26,1.45-1.34,3.35-1.45,5.14-1,1.23.33,1.56,1.34,1.79,2.46.22,1.12.33,2.23.45,3.46l.11.11Z"/>
</svg>