<?xml version="1.0" encoding="UTF-8"?>
<svg id="Layer_1" data-name="Layer 1" xmlns="http://www.w3.org/2000/svg" viewBox="0 0 512 512">
  <defs>
    <style>
      .cls-1 {
        fill: #22316d;
      }

      .cls-2 {
        fill: #030303;
      }

      .cls-3 {
        fill: #f8c800;
      }

      .cls-4 {
        fill: #aa182f;
      }
    </style>
  </defs>
  <g id="_4X7w7j" data-name="4X7w7j">
    <g>
      <path class="cls-2" d="M456.68,276.33c-1.4,17.01-4.36,33.64-10.21,49.8-19.3,53.34-59.69,81.02-112.92,92.62-19.35,4.22-19.49,3.4-17.85,23.39,1.39,16.92.94,34.08,6.86,50.4,1.3,3.59-1.15,5.5-3.85,7.19-7.46,4.67-15.51,7.97-24.18,9.16-20.53,2.83-41.19,5.75-61.49-1.16-10.86-3.69-19.96-9.75-22.06-22.25-.58-3.48-2.17-4.2-5.37-4.06-5.33.25-10.77.62-16.01-.11-8.18-1.15-17.26-3.93-18.35-12.9-1.11-9.13,6.72-14.97,14.54-18.4,15.5-6.8,32.18-8.5,48.86-10.05,2.31-.22,7.75,4.18,7-2.59-.6-5.4,3.76-13.98-6.47-14.99-12.78-1.26-24.89-4.81-36.74-9.37-25.07-9.64-47.02-23.9-63.97-45.05-3.21-4.01-5.19-5.8-9.9-1.65-5.48,4.82-12.25,4.11-17.4-.55-4.05-3.66-6.76-3.76-10.81-.48-5.16,4.18-11.35,6.56-17.7,3.3-6.86-3.52-7.89-10.24-7.3-17.29.56-.34.69-.81.38-1.39q1.2-4.08-6.03-5.18s.19.13.19.13c-3.38-2.84-6.76-5.68-10.14-8.52-.21-1.04-.42-2.09-.63-3.13,0-.66,0-1.32-.01-1.97.12-1.27.24-2.55.36-3.83.51-1.39,1.02-2.79,1.53-4.18.62-.33.83-.83.61-1.5.51-.85,1.01-1.69,1.52-2.54.91-1.29,1.82-2.58,2.73-3.87,4.85-3.79,10.41-6,17.62-7.3-3-3.61-5.42-6.51-7.83-9.41.17-.69-.05-1.22-.67-1.58-.44-.85-.89-1.7-1.33-2.54-2.13-9.49,1.93-15.57,10.73-18.61,10.25-3.55,15.96,3.29,22.15,9.69,2.59,2.67,1.6,9.38,6.76,8.15,4.25-1.01,3.67-6.46,4.39-10.39,5.35-29.08,31.18-70.18,54.32-86.18-4.34-4.87-10.38-6.94-15.67-9.9-16.01-8.98-32.3-17.48-47.39-28.01-9.87-6.89-9.55-8.02.62-13.32,33.41-17.4,66.32-35.7,98.75-54.87,5.32-3.15,6.61-5.53,2.76-11.4-8.33-12.7-14.24-26.5-11.88-42.38.43-2.88.04-6.33,4.07-7.12,3.38-.66,4.57,2.23,6.22,4.17,2.59,3.05,4.97,6.28,7.49,9.41,6.12,7.6,13.87,11.01,23.76,9.98,14.63-1.53,29.3-2.56,43.59-6.36,10.71-2.84,21.58-4.96,32.68-3.22,4.95.77,5.78-.93,5.05-5.23-1.73-10.27-4.57-20.14-9.09-29.55-2.72-5.66-3.51-9.23,5.64-8.12,8.13.99,16.58-1.12,24.9-1.24,9.98-.15,11.01,1.58,8.2,11.19-1.22,4.16-2.31,8.36-3.46,12.54-1.59,1.46-2.77,3.5-.97,5,.94.78,2.89-.81,3.47-2.54.81-.57,1.67-1.08,2.42-1.72q13.45-11.43,25.94,2.43,13.88,15.39-5.84,20.53c-5.42,1.43-11.16,1.95-16.96,5.71,26.33,8.58,48.7,22.27,67.37,41.73,14.06,14.65,24.41,31.45,30.11,51.14,4.33,14.95,2.71,28.96-4.99,42.25-1.62,2.79-2.54,4.88-1.29,8.16,6.21,16.28,8.93,33.42,11.78,50.5.08,6.43-.14,12.88,1.55,19.17-1.32,3.38-1.06,6.8-.21,10.23ZM209.63,64.99c9.22,23.45,27.61,34.94,51.4,39.22,11.14,2,22.36,3.59,33.54,5.36,14.33,2.28,23.06,11.18,28.12,24.15,9.16,23.51,6.86,45.67-8.29,66.18-2.17,1.73-4.82,3.06-5.87,6.5,17.88,1.86,35.01,1.31,52.02-2.23,20.6-2.29,40.72-6.43,60.39-13.25,17.37-6.02,21.56-13.67,21.44-34.61-.05-9.06-2.88-17.71-7.08-25.84-16.36-31.68-41.17-53.67-74.88-65.5-11.31-5.28-23.59-5.65-35.66-7.1-2.63-4.41-6.45-5.74-11.61-5.92-15.26-.55-29.41,5.16-44.19,7.06-18.95,2.44-38.16,7.69-56.4-3.18-1.81-2.1-3.18-4.73-6.55-5.51-.4,5.46.67,10.29,3.62,14.67ZM112.27,154.45c12.32,8.77,25.05,15.32,37.56,22.21,8.78,4.83,17.84,9.19,26.38,14.42,3.75,2.3,10.62,6.33,3.83,11.13-23.11,16.32-39.7,37.57-49.66,63.71-12.67,33.24-10.06,74.96,17.95,103.68,22.39,22.97,49.89,35.07,80.01,43.16,7.62,2.05,17.71-3.43,22.56,4.08,4.33,6.72-.04,16.43,3.07,24.44.12.3.11.66.14.99.54,5.9-.03,9.59-8.06,8.08-18.21-3.43-35.83.65-53.14,6.21-3.26,1.05-5.85,3.11-8.02,5.79-3.38,4.17-3.13,7.97,2.46,8.64,11.89,1.43,24.18,3.15,35.53-1.93,13.82-6.19,28.04-10.89,42.94-13.02,6.37-.91,7.17-4,5.8-8.8-2.08-7.27-1.2-14.63-1.1-21.95.05-3.36,1.03-7.26,5.3-7.21,4.6.05,4.69,4.1,4.55,7.48-.44,10.09,1.06,20.03,3.16,29.77,1.33,6.16.39,8.49-6.25,8.86-14.75.82-28.95,4.32-42.57,10.17-5.23,2.24-12.01,3.77-11.93,10.47.08,6.79,5.16,11.56,11.74,13.48,23.79,6.97,47.42,5.27,70.81-2.08,4.72-1.48,5.55-4.94,4.56-9.58-4.26-19.99-5.66-40.23-5.74-60.66-.03-7.83,1.04-12.88,10.44-13.15,5.91-.17,11.75-2.2,17.64-3.34,48.53-9.39,83.39-36.33,102.37-82.05,16.14-38.87,14.8-78.59,2.61-118.46-2.55-8.34-5.26-11.51-14.66-8.81-41.38,11.88-83.71,16.75-126.77,14.92-3.76-.16-8.1.12-9.56-3.86-1.75-4.73,3.49-4.95,5.97-6.35,25.25-14.36,28.3-40.34,22.54-64.83-3.76-15.95-14.13-23.19-29.64-23.52-23.03-.48-44.08-6.83-63.03-19.85-3.24-2.22-5.57-2.54-8.98-.46-32.75,20-67.3,36.84-100.78,58.22ZM85.07,315.19c-5.63,1-10.58,1.75-14.19,5.84-3.43,3.88-6.82,8.64-4.07,13.32,3.49,5.94,9.01,1.79,13.41.11,3.7-1.42,6.99-3.86,10.54-5.69,3.09-1.59,6.35-1.03,7.96,1.81,2.03,3.58-.79,5.63-3.9,6.52-3.51,1.01-5.83,3.44-7.66,6.15-3.47,5.15-9.3,12.55-3.45,16.54,5.07,3.46,10.86-4.32,14.71-9.13,3.06-3.82,2.02-12.33,9.25-11.01,7.73,1.42,2.58,8.92,3.84,13.55.59,2.18-.11,4.95,2.84,5.74,2.71.73,4.1-1.62,5.93-3,3.58-2.71,2.34-5.94.96-8.97-5.56-12.24-10.17-24.67-9.82-38.43.05-2.04.31-5.95-3.4-3.99-8.83,4.67-9.35-1.63-10.84-7.34-.84-3.21-1.86-6.43-3.27-9.43-1.98-4.22-5.46-6.15-9.83-3.73-3.94,2.18-5.37,5.48-3.18,10.13,3.41,7.23,8.67,12.55,15.32,16.76,1.98,1.25,4.03,3.04,2.92,5.73-1.4,3.42-3.95,1.08-5.97.64-2.91-.64-5.77-1.51-8.09-2.14ZM327.11,40.02c5.42-8.23,7.21-16.04,9.34-23.65,1.18-4.22-.02-6.82-5.38-6.83-10.27-.03-11.62,1.58-8.7,11.37,1.7,5.71,2.89,11.57,4.75,19.12ZM340.98,43.54c.46.58.91,1.17,1.37,1.75,7.91-2,15.85-3.89,23.73-6.02,4.95-1.34,5.4-3.71,1.94-7.71-3.96-4.59-7.46-5.89-12.26-1.2-4.72,4.61-9.83,8.81-14.78,13.19Z"/>
      <path class="cls-2" d="M346.78,26.19c-.58,1.73-2.52,3.33-3.47,2.54-1.8-1.5-.62-3.54.97-5,.83.82,1.67,1.64,2.5,2.46Z"/>
      <path class="cls-1" d="M112.27,154.45c33.48-21.38,68.04-38.22,100.78-58.22,3.41-2.08,5.75-1.76,8.98.46,18.95,13.01,40,19.36,63.03,19.85,15.51.33,25.88,7.57,29.64,23.52,5.77,24.5,2.71,50.47-22.54,64.83-2.47,1.41-7.71,1.63-5.97,6.35,1.47,3.98,5.8,3.7,9.56,3.86,43.06,1.84,85.38-3.04,126.77-14.92,9.41-2.7,12.11.47,14.66,8.81,12.19,39.87,13.53,79.59-2.61,118.46-18.98,45.72-53.85,72.66-102.37,82.05-5.89,1.14-11.73,3.17-17.64,3.34-9.4.27-10.47,5.32-10.44,13.15.07,20.43,1.47,40.67,5.74,60.66.99,4.64.16,8.1-4.56,9.58-23.39,7.35-47.02,9.04-70.81,2.08-6.58-1.93-11.66-6.7-11.74-13.48-.08-6.7,6.7-8.22,11.93-10.47,13.62-5.85,27.82-9.35,42.57-10.17,6.64-.37,7.58-2.7,6.25-8.86-2.1-9.74-3.6-19.68-3.16-29.77.15-3.38.05-7.42-4.55-7.48-4.27-.05-5.25,3.84-5.3,7.21-.1,7.32-.98,14.67,1.1,21.95,1.37,4.8.57,7.88-5.8,8.8-14.9,2.14-29.12,6.83-42.94,13.02-11.35,5.08-23.64,3.37-35.53,1.93-5.6-.67-5.85-4.48-2.46-8.64,2.17-2.68,4.76-4.74,8.02-5.79,17.31-5.56,34.93-9.63,53.14-6.21,8.03,1.51,8.6-2.18,8.06-8.08-.03-.33-.03-.69-.14-.99-3.11-8.01,1.26-17.72-3.07-24.44-4.84-7.51-14.94-2.03-22.56-4.08-30.13-8.09-57.62-20.2-80.01-43.16-28.01-28.73-30.62-70.44-17.95-103.68,9.96-26.14,26.55-47.4,49.66-63.71,6.79-4.8-.08-8.83-3.83-11.13-8.53-5.23-17.6-9.59-26.38-14.42-12.52-6.88-25.24-13.44-37.56-22.21ZM209.57,345.07c5.36-.39,10.96-2.02,14.89-7.3,11.77-15.84,22.14-32.59,29.19-51,2.47-6.46,9.83-14.15,3.32-20.79-7.68-7.83-14.68,1.12-21.29,4.42-10.93,5.45-21.46,8.59-33.17,2.18-4.71-2.58-6.96-7.03-10.4-10.55-1.39-1.42-3.14-2.94-5.26-2.13-2.61.99-2.88,3.45-2.54,5.9,2.7,19.14,2.85,38.45,3.89,57.71.7,12.98,9.07,21.34,21.38,21.56ZM372.64,257.01c.17-7.1-1.42-13.93-3.33-20.66-.9-3.15-3.6-5.47-6.8-4.36-2.95,1.03-.82,3.95-.61,6.12.35,3.65.4,7.33.71,10.98.45,5.23-2.36,6.7-6.76,5.52-12.46-3.35-19.37,4.26-25.59,12.9-5.22,7.25-3.62,15.96,4.41,19,6.82,2.58,7.09,5.12,5.02,11.58-2.96,9.23.11,18.01,7.73,24.23,6.61,5.4,13.26,3.12,18.99-2.04,2.58-2.32,4.01-1.8,6.7.04,9.73,6.67,15.26,6.01,23.21-2.98,3.05-3.45,5.83-5.56,10.68-6.18,18.92-2.42,28.33-24.99,16.97-40.21-1.75-2.35-3.05-3.99-.99-6.93,7.59-10.82,2.4-21.85-.1-32.68-.82-3.52-3.55-7.69-7.75-5.96-4.52,1.86-.95,5.58.08,8.42,4.77,13.13,2.27,24.24-7.33,30.21-2.95,1.83-6.48,2.8-4.65,7.21,1.6,3.87,4.99,3.94,8.49,3.16,8.07-1.81,9.61,3.26,8.77,9.24-.9,6.4-4.03,12.09-9.41,16.03-3.69,2.7-7.4,4.26-8.12-2.76-.42-4.11-2.72-7.51-4.91-10.86-1.6-2.45-4.16-4-6.86-2.53-3.6,1.96-1.2,5.18.19,6.78,5.99,6.9,2.72,13.12-.92,19.29-2.05,3.48-5.09,7.39-9.36,6-4.8-1.56-5.18-6.48-4.29-11.08.5-2.61,1.42-5.16,1.76-7.79.41-3.14-.05-6.3-3.7-7.26-4.4-1.15-5.15,2.66-5.56,5.37-.89,5.83-3.1,10.96-6.88,15.31-2.53,2.92-5.3,7.06-9.8,5.26-4.94-1.98-4.13-7.08-4.03-11.41.13-5.85,4.15-9.54,7.38-13.81,2.4-3.17,8.04-5.92,5.09-10.71-3.05-4.94-7.7-1.46-11.67,0-1.55.57-3.18,1.06-4.81,1.21-2.69.25-5.54.34-7.04-2.56-1.48-2.84.05-5.01,1.8-7.22,7.41-9.4,15.63-10.94,25.99-4.12,5.29,3.49,7.21,2.1,7.31-3.71.04-2,0-4.01,0-6.02ZM272.49,148.44c0-15.5-8.01-25.87-20.12-26.05-14.12-.22-25.7,13.14-25.89,29.85-.15,13.34,9.33,24.3,21.1,24.4,13.48.12,24.92-12.82,24.91-28.2Z"/>
      <path class="cls-3" d="M212.55,55.83c18.24,10.87,37.45,5.62,56.4,3.18,14.78-1.9,28.93-7.61,44.19-7.06,5.16.19,8.98,1.51,11.61,5.92,11.12,6.22,23.69,5.15,35.67,7.1,33.71,11.83,58.52,33.82,74.88,65.5,4.2,8.13,7.03,16.78,7.08,25.84.12,20.94-4.07,28.6-21.44,34.61-19.67,6.81-39.8,10.95-60.39,13.25-3.66-2.45-7.89-1.97-11.53-.96-9.18,2.55-18.44,1.05-27.65,1.49-3.49.16-6.82-.05-6.97-4.8,15.15-20.51,17.45-42.67,8.29-66.18-5.05-12.97-13.79-21.87-28.12-24.15-11.18-1.78-22.4-3.36-33.54-5.36-23.78-4.28-42.18-15.77-51.4-39.22.75-3.12-.87-7,2.92-9.16Z"/>
      <path class="cls-1" d="M85.07,315.19c2.32.62,5.18,1.5,8.09,2.14,2.03.44,4.57,2.78,5.97-.64,1.1-2.69-.94-4.48-2.92-5.73-6.65-4.21-11.91-9.53-15.32-16.76-2.19-4.65-.77-7.95,3.18-10.13,4.37-2.42,7.85-.49,9.83,3.73,1.41,3,2.43,6.21,3.27,9.43,1.48,5.71,2,12.01,10.84,7.34,3.71-1.96,3.45,1.95,3.4,3.99-.35,13.76,4.26,26.19,9.82,38.43,1.37,3.02,2.62,6.26-.96,8.97-1.83,1.38-3.22,3.73-5.93,3-2.95-.79-2.25-3.56-2.84-5.74-1.25-4.63,3.9-12.13-3.84-13.55-7.23-1.32-6.19,7.19-9.25,11.01-3.85,4.81-9.64,12.59-14.71,9.13-5.85-3.99-.02-11.39,3.45-16.54,1.83-2.71,4.15-5.14,7.66-6.15,3.1-.89,5.92-2.94,3.9-6.52-1.61-2.84-4.87-3.41-7.96-1.81-3.55,1.83-6.84,4.28-10.54,5.69-4.4,1.68-9.92,5.84-13.41-.11-2.75-4.69.64-9.44,4.07-13.32,3.61-4.09,8.56-4.84,14.19-5.84Z"/>
      <path class="cls-4" d="M327.11,40.02c-1.85-7.55-3.05-13.41-4.75-19.12-2.91-9.78-1.57-11.4,8.7-11.37,5.36.02,6.56,2.61,5.38,6.83-2.12,7.62-3.92,15.42-9.34,23.66Z"/>
      <path class="cls-4" d="M340.98,43.54c4.94-4.38,10.06-8.58,14.78-13.19,4.8-4.69,8.29-3.39,12.26,1.2,3.46,4,3.01,6.37-1.94,7.71-7.88,2.13-15.81,4.03-23.73,6.02-.45-.58-.91-1.17-1.37-1.75Z"/>
      <path class="cls-3" d="M314.39,199.9c.15,4.76,3.48,4.97,6.97,4.8,9.21-.43,18.47,1.07,27.65-1.49,3.63-1.01,7.87-1.49,11.53.96-17.01,3.53-34.14,4.09-52.02,2.23,1.05-3.44,3.7-4.77,5.87-6.5Z"/>
      <path class="cls-3" d="M360.42,64.98c-11.97-1.96-24.55-.89-35.67-7.1,12.07,1.45,24.36,1.82,35.67,7.1Z"/>
      <path class="cls-3" d="M212.55,55.83c-3.79,2.16-2.18,6.03-2.92,9.16-2.96-4.39-4.03-9.21-3.62-14.67,3.37.78,4.74,3.41,6.55,5.51Z"/>
      <path d="M209.57,345.07c-12.31-.22-20.67-8.59-21.38-21.56-1.04-19.26-1.19-38.57-3.89-57.71-.35-2.45-.07-4.91,2.54-5.9,2.12-.81,3.87.71,5.26,2.13,3.45,3.52,5.69,7.97,10.4,10.55,11.71,6.41,22.24,3.27,33.17-2.18,6.62-3.3,13.61-12.25,21.29-4.42,6.52,6.64-.85,14.33-3.32,20.79-7.05,18.42-17.41,35.17-29.19,51-3.93,5.28-9.53,6.91-14.89,7.3Z"/>
      <path class="cls-2" d="M372.64,257.01c0,2.01.03,4.01,0,6.02-.1,5.81-2.02,7.2-7.31,3.71-10.36-6.82-18.58-5.28-25.99,4.12-1.74,2.21-3.28,4.38-1.8,7.22,1.51,2.89,4.36,2.81,7.04,2.56,1.63-.15,3.26-.64,4.81-1.21,3.97-1.45,8.62-4.94,11.67,0,2.96,4.79-2.69,7.54-5.09,10.71-3.23,4.27-7.25,7.96-7.38,13.81-.1,4.33-.91,9.43,4.03,11.41,4.5,1.8,7.27-2.34,9.8-5.26,3.78-4.35,5.99-9.48,6.88-15.31.41-2.71,1.16-6.52,5.56-5.37,3.65.96,4.11,4.12,3.7,7.26-.34,2.63-1.26,5.17-1.76,7.79-.89,4.6-.5,9.51,4.29,11.08,4.27,1.39,7.3-2.52,9.36-6,3.64-6.16,6.9-12.38.92-19.29-1.39-1.6-3.79-4.82-.19-6.78,2.7-1.47,5.26.08,6.86,2.53,2.19,3.35,4.49,6.76,4.91,10.86.72,7.03,4.43,5.47,8.12,2.76,5.37-3.94,8.51-9.64,9.41-16.03.84-5.98-.71-11.05-8.77-9.24-3.51.79-6.89.71-8.49-3.16-1.83-4.41,1.7-5.38,4.65-7.21,9.6-5.96,12.11-17.07,7.33-30.21-1.03-2.84-4.6-6.56-.08-8.42,4.2-1.73,6.93,2.44,7.75,5.96,2.51,10.83,7.7,21.86.1,32.68-2.06,2.94-.76,4.58.99,6.93,11.36,15.22,1.96,37.79-16.97,40.21-4.85.62-7.63,2.74-10.68,6.18-7.95,8.99-13.47,9.65-23.21,2.98-2.69-1.84-4.12-2.36-6.7-.04-5.72,5.16-12.37,7.44-18.99,2.04-7.62-6.22-10.69-15-7.73-24.23,2.07-6.45,1.8-9-5.02-11.58-8.03-3.04-9.63-11.75-4.41-19,6.22-8.64,13.12-16.24,25.59-12.9,4.4,1.18,7.21-.29,6.76-5.52-.31-3.66-.36-7.33-.71-10.98-.21-2.17-2.34-5.09.61-6.12,3.21-1.12,5.91,1.21,6.8,4.36,1.91,6.73,3.5,13.56,3.33,20.66Z"/>
      <path class="cls-2" d="M272.49,148.44c0,15.38-11.43,28.33-24.91,28.21-11.77-.11-21.24-11.07-21.1-24.4.19-16.71,11.77-30.07,25.89-29.85,12.1.19,20.11,10.55,20.12,26.05Z"/>
    </g>
  </g>
</svg>