<?xml version="1.0" encoding="UTF-8"?>
<svg id="Layer_1" data-name="Layer 1" xmlns="http://www.w3.org/2000/svg" viewBox="0 0 512 512">
  <defs>
    <style>
      .cls-1 {
        fill: #e6388c;
      }

      .cls-2 {
        fill: #f2c7c1;
      }
    </style>
  </defs>
  <g id="LAMAaX">
    <g>
      <path d="M399.72,117.75c0,4.16.3,8.34-.05,12.47-1.51,17.8,4.47,33.17,14.3,47.65,9.55,14.05,20.22,27.22,30.56,40.66,15.51,20.18,25.55,42.35,27.03,68.29,1.93,33.72-11.4,60.34-35.64,82.62-31.39,28.86-68.23,46.62-109.89,54.85-9.09,1.79-9.05,1.96-9.24,11.04-.03,1.39.04,2.79-.14,4.15-.42,3.17.14,4.44,4.04,4.14,20.32-1.54,42.96,15.74,48.99,32.5,4.4,12.22,3.03,22.65-12.58,27.03-29.87,8.38-59.4,7.54-87.57-5.62-7.5-3.51-12.17-2.78-17.83,1.42-14.46,10.74-31.68,10.97-48.47,12.45-8.26.73-16.7,1.08-24.87-.55-11.34-2.27-20.36-7.66-25.02-19.3-2.53-6.33-1.15-10.85,2.94-15.49,13.37-15.16,30.1-23.97,50.07-26.75q9.5-1.32,7.78-10.67c-.91-4.91-.51-10.96-3.31-14.36-2.66-3.24-8.96-2.56-13.7-3.27-42.44-6.36-80.3-23.59-113.09-50.74-27.12-22.46-44.64-50.85-43.75-87.82.27-11.12,2.99-21.78,6.17-32.33,1.5-4.97,2.55-9.97,4.78-14.91,3.35-7.44,7.91-13.83,12.92-19.82,6.89-8.24,13.91-16.45,22.46-23.19,15.68-12.36,32.6-22.87,50.03-32.41,18.88-10.33,31.76-25.74,41.74-44.18,5.28-9.74,9.27-20.06,13.47-30.26,11.39-27.59,30.02-49.67,54.28-66.1C268.85,3.85,294.91-2.04,322.69.61c15.6,1.49,29.3,7.6,42.57,15.21,7.64,4.39,13.75,10.48,18.57,17.81,8.32,12.63,13.23,26.39,14.48,41.59,1.16,14.17,2.13,28.31,1.41,42.52Z"/>
      <path class="cls-1" d="M387.48,114.79c0,3.81.38,7.67-.06,11.42-2.63,22.59,5.94,41.57,18.38,59.57,10.54,15.25,22.37,29.51,33.3,44.46,19.04,26.03,23.76,54.88,16.75,85.73-4.93,21.68-18.84,37.68-35.38,51.8-28.47,24.29-61.28,39.23-97.77,46.61-4.79.97-9.65,0-14.45,1.25-3.76.98-5.11,2.87-4.83,6.62.62,8.15.09,16.23-1.73,24.25-1.07,4.72,2.33,8.05,8.04,8.17,7.25.15,14.68-1.46,21.69.82,12.95,4.22,25.92,16.27,26.08,28.01.05,4-1.06,6.45-5.11,7.75-24.47,7.87-48.74,7.28-72.65-1.93-7.56-2.91-12.27-8.08-13.26-17.28-1.72-16.03-4.41-31.88-.8-47.96.82-3.64-1.4-5.72-4.78-5.94-3.29-.22-7.58-2.23-8.84,3.32-1.05,4.58-1.62,9.24-1.42,13.9.55,12.77-.18,25.64,2.4,38.25,1.33,6.53-1.21,10.07-6.52,13.91-13.36,9.66-28.5,11.84-44.18,12.54-6.22.28-12.47-.09-18.7.12-4.64.16-8.5-1.82-12.03-4.24-5.76-3.93-6.21-10-1.32-14.87,14.39-14.34,31.48-22.19,52.11-21.44,6.63.24,8.18-1.75,7.23-8.08-1.46-9.73-3.74-19.34-4.08-29.24-.13-3.82-6.25-8.84-10.85-9.36-19.12-2.17-37.98-5.66-56.17-12.1-25.9-9.17-49.86-22.47-70.1-40.71-23.4-21.09-38.02-47.36-35.73-80.59,2.51-36.26,18.76-64.47,48.6-85.12,12.97-8.97,26.09-17.72,40.01-25.07,28.27-14.94,45.54-38.89,55.88-68.16,10.74-30.38,28.45-55.58,54.86-73.71,24.72-16.98,52.7-23.23,82.07-15.3,31.52,8.51,48.64,27.33,52.36,63.67,1.32,12.96,1.34,25.93,1.01,38.92Z"/>
      <path d="M323.83,242.97c-.38,1.62,1.52,4.31-.62,6.64-2.99,3.25-8.18,2.12-10.85-2.39-2.94-4.98-7.06-6.43-13.15-4.64-5.84,1.72-10.26,6.86-10.28,11.73-.01,2.67,1.31,2.2,2.99,1.63,5.82-1.96,11.8-2.8,17.87-1.78,2.59.44,5.14,1.64,4.92,5.01-.23,3.37-2.4,4.76-5.59,4.86-1.21.04-2.43.04-3.63.16-6.1.62-11.36,2.88-15.07,8.01-.6.83-1.21,1.71-1.55,2.66-.41,1.12-.83,2.52.14,3.45,1.25,1.19,2.19-.3,3.1-.86,3.55-2.15,7-4.44,10.53-6.62,2.32-1.43,4.92-1.66,7.53-1.2,2.99.53,6.45,1.7,6.9,4.66.41,2.69-3.1,3.55-5.42,4.64-4.07,1.91-8.07,4.01-11.54,6.91-2.87,2.39-5.16,5.27-4.85,9.27.61,7.97,8.56,11.67,15.08,6.95,4.1-2.97,6.57-6.98,6.65-12.29.1-6.56,1.92-8.12,8.4-8.97,14.84-1.94,26.71,3.71,36.82,14,2.91,2.96,5.5,6.22,8.27,9.31,2.41,2.68,4.02,5.64.84,8.59-3.13,2.9-6.9,2.4-9.85-.22-2.68-2.38-4.65-5.54-7.04-8.27-4.47-5.1-9.12-9.99-15.86-12.13-6.25-1.99-7.97-1.03-9.8,5.09-3.58,11.97-12.05,17.49-27.05,16.63-13.23-.76-19.62-8.25-20.03-21.74-.06-1.9-.7-3.11-1.9-4.51-5.86-6.86-6.34-13.63-1.66-21.33.67-1.1,1.1-1.81.52-3.21-6.27-15.18,1.56-28.72,17.84-31.06,4.14-.59,8.25-.76,12.39.09,1.99.41,3.45.46,3.78-2.51,1.49-13.13,11.72-20.11,24.89-17.3,11.05,2.35,17.49,14.34,13.23,26.16-1.8,4.97-.2,5.12,3.79,5.38,8.93.58,16.69,4.12,23.18,10.35,2.5,2.4,3.12,5.3.87,7.83-2.12,2.39-5.5,2.25-7.43-.06-7.62-9.13-17.79-9.69-28.4-9.24-1.56.07-3.12.02-4.67.04-3.43.03-5.44-2.28-6.85-4.83-1.27-2.31.61-4.2,2-5.96,3.14-3.96,6.14-8,6.15-13.4,0-2.61.28-5.45-2.96-6.47-3.2-1-6.22-.65-8.4,2.26-4.02,5.33-3.88,11.64-4.23,18.69Z"/>
      <path d="M168.87,228.96c3.31.81,6.39-.16,8.5-3.95,3.19-5.74,1.16-9.68-5.3-9.89-12.07-.38-21.2,4.91-25.47,15.02-1.26,2.98-2.14,6.25-6.32,5.25-4.15-.99-6.78-3.9-6.47-8.19.3-4.16-.46-7.79-2.55-11.32-.84-1.42-.72-3.72-3.09-3.51-2.45.22-3.48,2.17-3.78,4.33-.67,4.75.41,9.31,1.99,13.73,2.12,5.95,1.33,7.91-4.7,9.14-10.71,2.19-19.41,7.92-27.52,14.86-1.8,1.54-3.39,3.36-6.35,2-5.56-2.56-6.09-4.99-1.31-8.91,7.66-6.29,15.92-11.67,25.38-14.84,2.93-.98,3.74-2.1,2.76-5.2-1.08-3.42-1.74-7.04-1.58-10.73.31-7.29,4.68-13.15,11.05-14.61,6.68-1.54,13.12,1.34,16.41,7.91,1.54,3.08,2.59,3.65,5.73,1.75,9.13-5.51,18.99-7.74,29.79-6.38,5.67.72,10.05,2.5,12.31,7.84,2.57,6.07,3.01,12.45-1.32,17.7-2.42,2.94-2,4.83-.71,7.73,4.51,10.13,3.44,16.02-4.24,23.7-1.39,1.39-1.38,2.56-.94,4.14.85,3.06.7,6.21.32,9.29-1.24,10.19-6.88,14.76-16.68,13.46-10.49-1.39-21.05-2.72-28.58-11.51-1.3-1.52-2.6-.47-3.67.25-6.97,4.71-13.02,10.28-16.69,18.07-2.28,4.84-5.8,6.37-9.85,4.43-3.76-1.8-4.3-4.59-1.85-9.67,4.16-8.66,10.5-15.46,18.57-20.47,4.13-2.57,7.06-7.69,12.77-7.12,5.53.55,7.05,6.12,10.38,9.37,5.28,5.15,11.88,5.98,18.53,6.98.69.1,1.67-.46,2.24-1,3.98-3.76,1.74-13.83-3.4-15.51-2.3-.75-4.64-1.41-6.9-2.27-2.19-.84-3.21-2.51-2.91-4.91.28-2.19,1.62-3.28,3.68-3.77,4.27-1.01,8.31-.23,11.97,1.95,3.83,2.29,5.56.83,6.79-2.91,2.65-8.03-.51-12.34-8.99-12.24-3.23.04-6.13,1-8.91,2.44-3.12,1.61-5.88,1.06-7.72-1.81-2.02-3.18.51-5.11,2.64-6.88,3.32-2.75,8.04-3.86,15.94-3.77Z"/>
      <path d="M279.57,186.4c15.28.05,27.68-2.87,38.94-9.52,18.78-11.08,26.8-29.04,30.61-49.49.25-1.36.52-2.76.45-4.12-.27-5.05,2.54-6.31,6.86-5.79,4.32.52,6.49,2.82,6.06,7.35-2.25,23.62-10.95,44.01-30.58,58.32-10.53,7.67-23.17,10.89-35.81,12.91-16.29,2.6-32.49,1.7-47.75-5.48-16.74-7.87-27.7-20.92-33.18-38.5-2.67-8.56-5.65-17.12-4.69-26.38.56-5.41,2.23-7.3,6.82-6.92,5.13.42,8.06,3.7,7.3,8.54-.97,6.2.7,11.99,2.29,17.83.69,2.56,2.04,2.83,4.19,1.69,3.68-1.94,7.46-3.59,11.56-4.54,15.84-3.66,27.96,8.18,24.82,24.16-.91,4.63-2.7,8.92-4.11,13.35-.92,2.87-.25,4.43,2.97,5.06,5.12,1.01,10.24,1.65,13.25,1.52Z"/>
      <path d="M332.21,77.93c-12.47-.03-22.5-7.85-23.49-18.32-.63-6.67,1.9-9.31,8.12-8.48,2.96.39,4.6,1.83,4.87,5,.62,7.27,3.38,10.4,9.53,11.22,5.19.7,10.09-2.47,12.48-8.17.6-1.43.85-2.99,1.41-4.44,1.53-3.93,4.89-4.27,8.2-3.43,3.35.86,5.03,3.08,4.16,7.03-2.62,11.89-12.43,19.61-25.28,19.58Z"/>
      <path d="M267.6,74.11c-14.95-.11-23.19-7.59-22.59-18.15.18-3.13.83-6.11,4.62-6.32,3.74-.21,6.65,1.4,7.94,5.2.11.32.06.69.15,1.02.88,3.17.28,7.45,4.94,8.07,4.67.62,8.34-1.68,11.28-5.1.88-1.03,1.39-2.38,2.06-3.59,2.49-4.56,6.55-6.58,10-4.96,2.17,1.02,3.18,7.87,1.22,10.91-5.18,8.01-12.52,12.54-19.61,12.92Z"/>
      <path class="cls-2" d="M254.31,162.48c-.21,4.24-2.32,8.8-4.18,13.45-.79,1.98-1.95,1.49-3.2.6-4.73-3.34-8.29-7.81-11.8-12.31-.58-.74-.84-1.97-.76-2.93.24-2.72,10.33-9.26,13.77-9.06,3.83.22,6.26,3.91,6.17,10.25Z"/>
    </g>
  </g>
</svg>