<?xml version="1.0" encoding="UTF-8"?>
<svg id="Layer_1" data-name="Layer 1" xmlns="http://www.w3.org/2000/svg" viewBox="0 0 512 512">
  <defs>
    <style>
      .cls-1 {
        fill: #9275b0;
      }

      .cls-2 {
        fill: #1c1c1c;
      }

      .cls-3 {
        fill: #f9cf1a;
      }

      .cls-4 {
        fill: #212121;
      }

      .cls-5 {
        fill: #1f1f1f;
      }
    </style>
  </defs>
  <g id="XOMxD3">
    <g>
      <path class="cls-2" d="M290.04,308.1c-8.42,27.32-19.27,52.59-28.28,78.53-2.14,6.16-4.58,12.21-6.81,18.34-.7,1.92-1.48,3.91-1.64,5.92-.56,6.99,2.33,9.42,8.97,7.69,5.31-1.38,10.39-3.73,15.96-3.95,6.49-.26,7.9,1.03,7.92,7.5.03,10.46-3.49,20.29-5.66,30.35-3.51,16.3-10.32,31.25-19.57,45.07-2.98,4.46-6.72,8.3-11.06,11.49-4.79,3.51-11.52,3.98-16,1.02-4.84-3.2-5.44-8.06-4.72-13.26,1.9-13.7,6.69-26.54,12.2-39.33-15.31,3.02-20.31-6.52-20.34-23.4-7.4,5.14-13.93,10.58-19.55,16.98-4.43,5.05-8.83,10.09-13.59,14.84-2.67,2.67-4.98,2.43-7.54.15-.64-.57-1.37-1.08-1.89-1.75-11.68-15.09-23.53-30.08-30.82-48.01-1.76-4.33-2.85-8.84-3.53-13.43-1.11-7.41,1.09-11.93,7.07-15.09,4.22-2.23,11.46-1,15.82,2.77,9.5,8.2,17.07,17.94,22.75,29.1,1.5,2.94,2.49,3.55,5.48,1.45,5.79-4.06,10.21-9.68,16.32-13.4,3.12-1.9.24-4.3-1.03-6.04-7.09-9.74-14.38-19.33-21.48-29.07-11.15-15.3-22.21-30.67-33.71-45.72-2.87-3.76-5.33-4.42-9.33-2.29-3.07,1.64-5.87,3.54-8.52,5.72.19.4.25.82.47.95,9.41,5.24,10.79,8.46,7.58,18.76-.97,3.1-2.25,6.13-3.72,9.03-4.07,8.02-11.92,10.37-19.97,6.15-4.54-2.38-8.05-5.99-10.86-10.11-2.05-3.01-3.49-2.54-5.45-.27-2.09,2.43-4.64,3.94-7.92,4.38-8.24,1.11-13.79-3.5-14-11.78-.13-5.12,1.54-9.83,3.5-14.42.78-1.84,1.09-2.75-1.19-3.81-9.74-4.52-10.71-13.07-2.52-20.13,2.82-2.43,6.22-3.45,9.77-4.39-.6-2.61-2.72-4.02-4.12-5.91-1.65-2.23-3.13-4.47-3.44-7.36-.9-8.53,3.33-12.65,11.85-11.46,8.16,1.14,14.38,5.76,19.46,11.73,3.72,4.38,5.96.7,8.63-.74,3.77-2.04.75-4.07-.41-5.75-21.72-31.63-44.02-62.85-66.93-93.63-1.74-2.33-4.02-4.26-5.84-6.53-2.72-3.4-2.21-6.31,1.5-7.9,38.15-16.37,73.56-38,110.25-57.18,51.46-26.91,102.66-54.32,153.96-81.55,6.25-3.32,6.22-3.43,2.13-9.31-1.47-2.12-3.13-4.11-4.59-6.24-1.62-2.37-4.19-5.09-.33-7.35,3-1.76,5.88-1.11,7.67,2.49,1.14,2.29,2.88,4.28,4.16,6.52,1.88,3.29,3.37,4.26,6.6.88,7.6-7.97,15.57-15.56,24.25-22.44,4.03-3.19,8.23-3.2,12.62-2.66,3.94.49,5.68,3.34,6.03,7.26.35,4.01-1.15,7.77-1.42,12.08,2.64-.63,4.27-2.41,6.19-3.66,6.06-3.95,12.95-4.02,16.69-.17,3.41,3.5,3.42,9.01-.84,15.14-4.6,6.64-9.87,12.81-14.7,19.3-2.03,2.72-5.5,6.07-4.24,8.88,1.36,3.06,6.14,1.77,9.49,2.09,2.05.2,4.12.36,6.12.8,3.13.68,3.41,3.07,2.73,5.59-.62,2.31-1.77,3.97-4.79,3.31-5.84-1.28-11.99-.92-17.68-2.97-2.84-1.03-3.16,1.05-3.98,2.64-5.49,10.55-8.64,22.03-13.08,33-13.21,32.64-22.44,66.68-35.17,99.49-1.64,4.23-1.36,8.08.82,12.3,4.51,8.75,5.41,18.41,5.35,28.11-.02,3.62.12,5.23,4.68,4.02,11.85-3.15,18.94-.1,23.86,9.37,4.83,9.3,2.99,22.91-5.48,28.59-4.99,3.35-7.05,7.37-9.19,12.35-3.28,7.64-11,13.59-19.93,9.49-1.97-.9-2.7-.02-3.57,1.46-1.04,1.78-2.16,3.54-3.49,5.11-6.09,7.15-15.52,6.87-21.27-.57-1.03-1.33-1.94-2.75-3.64-5.17Z"/>
      <path class="cls-4" d="M424.92,434.06c-3.06-.67-4.25-2.91-5.7-4.77-2.32-2.97-5.36-3.43-8.21-1.63-3.52,2.22-6.47,5.27-6.35,9.93.06,2.24,3.2,1.67,4.02,3.55-5.11,1.14-7.69-.69-7.6-5.15.2-9.07,10.26-14.97,17.86-10.31,2.25,1.38,3.57,1.52,4.83-.98,6.26-12.49,14.22-10.12,22.42-2.02,3.67,3.63,7.35,7.29,8.05,12.84.1.77.66,1.58,1.21,2.18,6.11,6.65,6.61,12.08.99,19.23-2.02,2.57-2.04,3.64.37,5.94,7.48,7.18,5.52,17.75-3.98,21.77-2.3.97-3.47,2.05-4.34,4.39-1.73,4.67-5.05,8.25-9.7,10.19-4.75,1.98-9.36,1.63-12.28-3.11-2.3-3.73-3.86-2.74-5.88,0-1.33,1.81-2.92,3.46-5.06,4.28-4.37,1.67-8.91-.16-11.21-4.78-3.26-6.58-2.77-13.3-.06-19.95.37-.91.69-2.2,1.99-1.79,1.07.34,1.38,1.55,1.23,2.61-.33,2.38-.71,4.75-1.25,7.09-.71,3.11-.4,6.14.24,9.2.57,2.75,1.97,4.91,4.8,5.44,2.83.53,4.95-1.09,6.54-3.3,2.27-3.15,2.92-6.92,3.85-10.57.23-.9,0-2.3,1.54-2.15,1.07.1,1.8.75,2.05,1.96.69,3.37,1.52,6.7,3.15,9.78,1.87,3.52,4.61,4.29,8.21,2.92,6.85-2.61,9.48-8.16,6.91-14.8-.32-.82-.88-1.64.11-2.22.49-.29,1.56-.38,1.86-.08,3.02,3.1,6,3.06,8.78-.14,3.07-3.53,3.73-7.64,2.13-12.05-1.52-4.2-4.53-6.27-9.04-6.29-1.95-.01-5.11.61-5.05-1.98.05-2.53,3.04-.99,4.69-1.1,6.48-.42,11.69-10.03,8.57-15.79-1.38-2.54-2.4-.7-3.52.05-1.15.77-2.27,1.86-3.59.43-1.2-1.29.06-2.29.72-3.13,1.89-2.4,1.4-4.87.31-7.28-1.86-4.12-4.52-7.73-7.96-10.68-5.01-4.29-9.96-3.42-13.29,2.24-1.77,3.01-2.3,6.45-3.36,9.99Z"/>
      <path class="cls-4" d="M337.07,482.39c-.01-.17-.07-.35-.04-.51.33-1.69-1.09-4.53,1.2-4.83,2.83-.36,3.24,2.39,3.24,4.78,0,1.2-.04,2.43.15,3.61.51,3.18,2.38,5.35,5.45,6.24,3.06.89,5.34-.74,7.21-2.89,5.07-5.84,4.64-15.54-.92-21.11-1.12-1.12-2.78-2.43-1.66-3.81,1.33-1.66,2.81,0,3.77,1.13,1.11,1.3,2.38,1.88,4.04,1.82,9.21-.31,15.36-11.2,10.58-18.9-1.95-3.14-4.4-5.42-8.5-3.15-1.2.66-2.72,1.39-3.59-.3-.84-1.64.63-2.33,1.79-3.14,5.75-4.05,5.13-16.52-.96-20.1-3.6-2.12-7.25-.58-9.67,3.73-1.11,1.97-.93,5.77-3.54,5.58-3.32-.24-2.91-4.08-3.61-6.65-2.02-7.4-7.64-9.2-13.7-4.42-7.09,5.6-9.22,13.12-6.14,21.79.23.66.67,1.24-.01,1.82-.64.55-1.28.2-1.88-.13-2.54-1.39-3.38-3.8-3.69-6.43-1.07-8.89,6.79-20.52,15.41-22.71,5.71-1.45,8.96,2.33,12.12,6.06,1.16,1.37,2.06,3.1,3.75.64,2.65-3.85,6.31-3.85,10.09-2.38,4.45,1.73,8.29,4.26,9.25,9.49.06.34.13.7.09,1.03-1.03,7.65-.85,14.12,6.51,19.85,5.17,4.03,2.16,14.05-4.89,17.21-6.85,3.07-10.01,6.08-7.35,14.14,1.58,4.8-1.82,9.29-6.28,12-4.41,2.68-9.27,3.58-13.49.14-2.75-2.24-3.88-.13-5.57.85-5.96,3.47-12.87,3.27-17.42-.57-4.31-3.63-5.63-10.59-2.98-16.63.63-1.43,1.1-3.94,3.31-3.19,2.7.93.71,2.83.09,4.2-1.04,2.3-1.1,4.66-.87,7.07.58,6.06,4.02,9.71,8.86,9.43,5.64-.32,10.1-5.2,9.85-10.77Z"/>
      <path d="M421.27,464.43c-7.63,2.28-32.06,2.12-37.26-.06,2.96-2.11,33.38-2.32,37.26.06Z"/>
      <path d="M302.06,449.61c10.66-.64,20.78-1.26,30.9-1.86,1.26-.07,2.79.12,2.96,1.46.19,1.53-1.4,1.64-2.58,1.72-8.59.53-17.18,1.11-25.78,1.49-1.77.08-3.86.14-5.5-2.81Z"/>
      <path d="M330.09,462.29c-3.71,2.66-28.25,2.65-32.36-.05,10.79-1.06,21.57-1.61,32.36.05Z"/>
      <path d="M422.18,449.38c-.19,1.66-1.12,2.02-1.88,2.05-8.57.37-17.13,1.18-25.72.62-1.47-.1-3.63-.41-3.22-2.36.36-1.71,2.29-.7,3.55-.53,7.41,1.04,14.77-.73,22.16-.35,1.65.08,3.38-.42,5.11.57Z"/>
      <path class="cls-1" d="M321.6,293.99c.7-3.94-.48-7.62-1.1-11.32-.63-3.75-3.47-5.15-6.91-4.31-4.04.99-2.88,4.03-1.82,6.62,3.25,7.92,1.94,15.47-1.85,22.75-1.11,2.12-2.88,4.07-5.76,3.5-2.53-.5-3.48-2.58-4.16-4.78-2.15-6.91-1.14-13.53,1.74-20.03.77-1.75,2.56-3.98.13-5.54-2.47-1.57-4.92-.71-6.87,1.52-1.81,2.06-3.41,4.4-6.03,5.55-1.97.86-3.9,2.53-6.19.75-1.96-1.52-2.42-3.69-2.36-5.99.24-8.55,11.14-17.29,19.56-15.73,5.4,1,5.76.64,5.35-4.94-.55-7.56-2.59-14.81-4.42-22.11-.32-1.3-1.05-2.55-1.82-3.66-1.53-2.2-3.99-2.21-6.05-1.47-2.43.88-1.48,3.28-.95,4.92,1.64,5.04,3.3,10.01,3.9,15.37.47,4.17-1.17,5.63-4.91,6.45-9.54,2.08-16.94,10.2-18.44,19.8-.89,5.67,2.15,12.59,7.19,14.04,4.63,1.32,4.13,3.82,3.28,7.14-3.18,12.46-7.14,24.67-11.94,36.6-8.72,21.63-15.75,43.88-24.13,65.61-2.55,6.61-1.59,11.99.34,17.8,1.46,4.4,5.14,5.94,9.48,4.92,5.15-1.2,10.16-3.02,15.3-4.31,2.91-.73,5.63-.73,4.9,3.79-3.74,23.15-9.54,45.6-22.41,65.63-2.61,4.06-5.29,8.09-9.43,10.8-4.05,2.65-6.98,1.12-7.25-3.73-.49-8.66,3.03-16.45,5.58-24.39,3.05-9.51,7.28-18.53,12.91-26.85,1.29-1.91,3.49-4.02,1.34-6.41-2.06-2.29-4.85-1.46-7.16-.21-3.77,2.05-7.34,4.46-11.08,6.58-4.85,2.75-6.95,1.8-8.89-3.47-2.15-5.86-.01-11.54.48-17.3.04-.5.54-1.03.44-1.46-.53-2.36,2.4-5.39-.69-7.02-2.97-1.56-6.26-.57-8.58,1.76-8.28,8.3-18.17,14.8-26.02,23.56-2.87,3.21-5.92,6.26-8.77,9.48-1.8,2.04-3.38,2.7-5.42.29-12.02-14.2-23.73-28.57-28.25-47.25-.4-1.66-.61-3.36-.9-5.04-.5-2.83-.52-5.91,2.16-7.37,2.9-1.57,6.39-.94,8.54,1.61,8.68,10.3,18.66,19.82,21.56,33.83.98,4.74,3.86,5.7,7.67,2.45,5.63-4.8,11.2-9.68,16.74-14.59,2.84-2.52,5.77-4.83,9.21-6.51,5.5-2.7,6.25-5.7,2.17-10.51-16.93-19.96-31.06-42.01-46.95-62.76-25.62-33.45-48.93-68.61-73.57-102.78-11.56-16.03-22.21-32.74-34.81-48-2.81-3.4-2.37-4.91,1.63-7.01,52.28-27.51,104.52-55.1,156.66-82.9,31.21-16.64,62.41-33.3,93.99-49.21,12.69-6.39,12.78-5.98,24.07,2.54,4.79,3.62,9.65,7.39,15.03,9.92,5.57,2.62,5.37,5.78,3.53,10.57-5.53,14.35-11.04,28.73-16.07,43.26-9.51,27.49-18.68,55.1-28,82.66-4.09,12.1-3.94,13.64-.27,25.54,2.63,8.54,4.76,17.2,2.57,26.3-.64,2.68-.56,5.58,2.06,7.52,2.62,1.93,5.13,1.23,7.65-.37,1.15-.73,2.46-1.21,3.73-1.71,7.82-3.08,12.34-1.88,16,4.22,3.76,6.27,2.59,16.4-2.21,20.56-2.24,1.94-2.84.45-3.63-1.3-1.5-3.3-3.2-6.46-5.84-9.05-1.3-1.27-2.63-2.11-4.53-2.02-1.93.09-3.99.01-4.89,2.06-.82,1.88.58,3.23,1.77,4.5,2.8,2.98,6.1,5.51,6.7,10.07.85,6.46-1.28,11.84-5.58,16.41-2.02,2.15-5.22,1.67-7.3.68-2.58-1.23-.33-4.4-1.15-6.53Z"/>
      <path class="cls-1" d="M115.96,340.48c-.86-2.35,2.13-6.3-2.78-7.39-3.1-.69-4.69.78-5.54,3.74-1.54,5.39-4.14,10.2-8.77,13.61-1.49,1.1-3.12,2.29-5.15,1.21-1.86-.98-1.75-2.89-1.79-4.55-.19-7.72,3.43-13.82,8.48-19.27.46-.5,1.11-.82,1.58-1.32,1.73-1.81,4.47-3.55,2.44-6.46-1.94-2.77-4.89-1.86-7.49-.83-1.59.63-2.99,1.75-4.59,2.31-1.51.52-3.29,2.14-4.73.48-1.3-1.5-.81-3.62-.16-5.41.75-2.08,2.38-3.57,4.49-3.91,5.48-.9,10.75-3.74,16.59-1.54,2.01.76,3.67-.3,4.24-2.59.59-2.35-.66-3.39-2.64-4.19-3.02-1.22-5.97-2.59-8.93-3.96-.77-.36-1.47-.89-2.14-1.43-3.99-3.24-6.33-9.29-4.55-11.73,1.4-1.92,7.96-.25,11.54,3.22,3.17,3.08,6.56,5.94,8.04,10.52,1.19,3.69,4.2,4,7.24,1.25.64-.58,1.16-1.29,1.82-1.83,6.44-5.24,9.87-4.89,14.67,1.55,1.75,2.34,3.42,4.75,5.04,7.19,3.14,4.75,2.9,6.62-2.18,9.45-5.42,3.02-10.46,6.57-15.66,9.91-1.77,1.13-3.74,2.32-3.1,4.76.7,2.68,3.18,2.74,5.44,2.84,12.1.52,13.68,2.75,9.06,13.82-1.6,3.84-1.76,9.5-7.51,9.81-4.77.25-12.15-7.82-12.9-13.34-.25-1.85-.04-3.77-.04-5.92Z"/>
      <path class="cls-3" d="M366.7,7.73c1.33,4.1-.14,6.76-.88,9.53-1.13,4.22-2.4,8.86,1.86,11.78,4.09,2.81,8.55,1.33,12.5-1.25,3.07-2,5.52-5.08,9.78-5.73.32,3.57-1.62,6.1-3.37,8.49-5.58,7.61-11.39,15.04-17.08,22.57-1.72,2.27-3.55,3.74-6.47,1.87-8.09-5.18-16.47-9.93-23.43-16.69-1.36-1.32-2.91-2.42-1.22-4.68,7.69-10.27,17.27-18.38,28.33-25.89Z"/>
      <path class="cls-5" d="M226.83,118.75c.03-7.35,1.72-9.73,5.75-8.98,3.73.69,4.65,3.17,3.91,6.49-.9,4.06-.62,7.78,2.14,11.17,3.93,4.82,8.7,5.22,13.22.92,3.76-3.58,4.93-8.05,4.7-13.12-.11-2.48-.59-5.27,2.38-6.79,1.91-.98,3.7-.79,5.3.51,2.55,2.07,3.17,4.55,2,7.79-1.1,3.03-1.33,6.37-2.3,9.46-2.78,8.77-10.11,13.76-18.68,12.93-10.07-.98-16.38-6.71-17.82-16.18-.26-1.69-.47-3.4-.58-4.21Z"/>
    </g>
  </g>
</svg>