<?xml version="1.0" encoding="UTF-8"?>
<svg id="Layer_1" data-name="Layer 1" xmlns="http://www.w3.org/2000/svg" viewBox="0 0 512 512">
  <defs>
    <style>
      .cls-1 {
        fill: #050505;
      }

      .cls-2 {
        fill: #030303;
      }

      .cls-3 {
        fill: #009be0;
      }
    </style>
  </defs>
  <g id="OOgRCR">
    <g>
      <path class="cls-1" d="M202.29,439.09c-3.12-1.1-6.24-2.21-9.36-3.31-1.82-1.3-3.67-2.54-6.02-2.57-2.74-2.21-5.91-3.52-9.31-4.32-14.5-8.02-29.5-15.35-40.78-28.04-3.34-3.75-6.86-7.35-7.98-12.58-1.84-8.59.28-12.68,8.5-15.87,9.8-3.8,19.36-1.73,28.76,1.45,9.76,3.3,19.46,6.81,29.08,10.51,3.68,1.41,5.37.49,6.78-3.07,3.32-8.38,6.99-16.62,10.86-25.72-7.15-.69-13.76-1.12-20.32-2-23.51-3.15-42.07-14.47-55.13-34.35-2.06-3.13-3.26-4.24-6.7-1.71-3.82,2.81-8.1,5.07-12.38,7.17-24.05,11.82-47.03.75-53.14-25.48-2.29-9.83-1.45-20.67,3.14-39.2-9.05,1.92-17.96,3.05-26.97,2.45-10.82-.72-20.77-3.81-29.06-11.12-11.12-9.81-15.09-25.16-10.22-39.11,9.91-28.38,33.09-42.81,64.16-39.99,4.21.38,8.4,1.45,13.15.57-7.78-24.17-2.08-45.06,17.69-60.17,19.14-14.63,40.84-17.43,63.28-5.37,1.8-13.6,4.06-26,11.03-36.84,13.77-21.42,34.56-29.24,58.82-28.42,13.93.47,21.53,10.72,27.14,22.3,1.71,3.53,2.89,7.33,4.62,11.8,7.37-7.84,14.53-14.73,23.32-19.73,10.53-6,21.7-9.16,33.85-8.87,14.22.34,23.05,9.11,23.06,23.24,0,4.75-.43,9.51-.7,14.96,12.89-6.2,25.58-12.15,39.55-14.36,9.8-1.55,19.53-1.8,29.12,1.4,24.21,8.07,34.95,33.97,23.59,56.77-3.59,7.2-8.05,13.82-14.53,22.67,44.77-13.07,75.44.97,92.75,42.26.02,4.52.04,9.04.05,13.57-.12.94-.23,1.89-.34,2.83-1.11,1.39-1.59,2.97-1.36,4.74-.42.29-.5.66-.23,1.09-.32.63-.64,1.27-.96,1.9-.14.49-.28.97-.42,1.46-1.05.77-1.52,1.82-1.47,3.11h0c-1.14,1.92-2.27,3.83-3.41,5.74l.08-.09c-.43.62-.87,1.25-1.3,1.87l.04-.05c-.43.56-.87,1.11-1.3,1.66l-.09.14c-.37.42-.74.84-1.11,1.27-2.88,2.95-5.76,5.9-8.64,8.85-1.98,1.53-3.95,3.06-5.93,4.59-.53-.1-.89.1-1.06.62-.49.37-.98.74-1.47,1.11h0c-.71.43-1.43.86-2.14,1.29-.47-.15-.77,0-.91.47-.62.37-1.24.75-1.86,1.12-.53-.16-.92,0-1.17.5-.58.35-1.16.71-1.74,1.06l-.71-.03-.57.43c-.71.33-1.43.66-2.14.98-.8.19-1.6.38-2.4.57-1.01.38-2.03.76-3.04,1.14h.03c-4.46,1.46-12.67.46-6.08,9.21.15.48.3.96.45,1.44.35.56.69,1.12,1.04,1.69-.17.54-.03.98.42,1.33.34.62.68,1.25,1.02,1.87-.19.5-.05.88.41,1.15.34.75.67,1.5,1.01,2.25.18.76.36,1.53.54,2.29.34,1.21.68,2.41,1.02,3.62.13,2.32.25,4.64.38,6.95-.1,5.01-.2,10.02-.29,15.03l.02-.06c-1.1,1.37-1.36,2.95-1.17,4.65-.14.85-.28,1.7-.42,2.55-1.03.95-1.37,2.14-1.22,3.51-.42.28-.52.64-.28,1.09-.32.64-.65,1.28-.97,1.92-.13.51-.25,1.02-.38,1.52-.96.78-1.57,1.73-1.41,3.03-.23.44-.45.88-.68,1.32-22.42,36.28-56.76,49.63-97.52,51.33-22.16.93-43.64-1.67-64.59-8.87-1.41-.49-2.86-.9-4.3-1.3-.18-.05-.44.22-1.03.54,5.65,11.17,13.22,21.09,20.29,31.33,4.57,6.62,9.01,13.34,13.86,19.75,2.88,3.8,2.65,6.03-1.27,9.14-24.58,19.52-50.87,35.85-81.23,44.86-.96.11-1.91.21-2.87.32-5.62.16-11.29.85-16.62-1.71-1.52-2.03-3.03-4.06-4.55-6.09-.03-2.52-.06-5.05-.08-7.57,2.23-3.91,4.45-7.81,6.68-11.72l-.1.09c3.43-3.58,6.85-7.15,10.28-10.73,1.39-1.14,2.77-2.28,4.16-3.42,1.13-.89,2.26-1.78,3.39-2.67.53-.39,1.07-.78,1.6-1.17,4.96-3.31,9.92-6.62,14.88-9.94,2.54-1.41,5.08-2.81,7.62-4.22,1.49-.65,2.97-1.31,4.46-1.97,1.69-.8,3.39-1.61,5.08-2.42,1.33-.27,3.68-.06,1.75-2.38-1.41-1.7-3.37-2.94-5.09-4.39l-7.26-7.26c-7.63-9.09-15.6-17.91-22.1-28.79-9.05,18.02-16.33,35.31-22.41,53.11-1.57,1.75-2.45,3.8-2.66,6.14-1.12,1.28-1.95,2.67-1.88,4.45-3.27,3.84-3.5,9.99-9.14,12.03-2.27-.05-4.53-.09-6.8-.14ZM354.38,367.24c6.04-.27,12.09-.41,18.12-.82,26.81-1.82,49.62-12.23,67.98-32,22.16-23.87,23.22-52.96,2.9-77.78-.98-1.19-2.04-2.4-1.18-4.01,1.06-1.99,2.85-1.81,4.59-1.09,7.99,3.32,15.5.62,22.66-2.39,18.11-7.62,30.05-20.66,33.7-40.45,3.76-20.44-8.5-33.48-22.15-44.98-10.03-8.45-22.41-12.37-35.99-10.36-13.27,1.96-26.16,5.01-37.69,12.32-2.66,1.69-5.64,4.24-8.64.56-3.44-4.22,1.55-4.98,3.23-6.72,10.73-11.05,21.63-21.97,26.58-37.11,7.34-22.41-6.42-43.59-29.83-45.86-3.98-.39-8.11-.37-12.04.26-19.51,3.12-37.68,9.25-51.58,24.32-2.24,2.43-4.59,4.09-7.79,1.68-3.22-2.42-1.32-4.69.2-7.09,4.59-7.2,6.37-15.34,7-23.66.88-11.56-5.82-18.45-17.32-18.34-22.79.2-43.15,14.4-51.13,35.7-.89,2.38-1.57,5.31-4.7,5-3.1-.31-4.42-2.78-4.78-5.89-.44-3.74-.77-7.58-1.93-11.13-8.28-25.35-17.04-35.78-47.3-26.06-28.56,9.18-41.77,38.95-37.47,65.98.34,2.15,1.64,4.77-1.42,5.79-3.16,1.06-5.02-1.25-5.32-3.83-.72-6.13-5.02-8.09-9.91-9.98-27.28-10.54-53.02.2-66.44,27.82-6.74,13.86-6.25,27.17,2.97,39.84,1.33,1.82,3.17,3.73,1.21,6-1.8,2.07-3.62.25-5.39-.56-28.11-12.92-56.38-3.53-71.05,19.32-13.86,21.58-6.53,44.85,16.85,52.46,4.56,1.49,9.32,2.01,14.13,2.28,8.74.48,16.94-1.74,25.14-4.35,2.71-.86,6.15-2.2,8.49.62,2.36,2.84-.73,5.1-1.75,7.46-6.65,15.23-8.07,30.65-1.28,46.13,7,15.96,21.53,21.5,37.4,14.5,6.48-2.86,12.21-6.79,17.22-12,5.55-5.78,8.13-5.16,11.58,2,7.52,15.61,20.03,25.59,35.82,31.8,12.15,4.78,24.86,6.23,37.83,5.64,5.8-.27,8.08,1.24,5.33,7.43-5.31,11.93-10.71,23.84-14.77,36.29-.92,2.84-3.04,4.72-5.63,2.53-7.81-6.6-17.88-7.77-26.78-11.69-8.55-3.76-17.59-6.19-27.05-6.31-9.72-.12-13.08,5.77-8.15,14.33,3.57,6.2,8.4,11.3,14.21,15.45,12.17,8.68,25.85,14.61,39.1,21.3,13.14,6.65,14.48,5.93,19.94-7.77.19-.47.32-.96.51-1.42,8.58-20.98,17.37-41.87,27.25-62.28,1.25-2.59,2.68-4.7,6.05-4.86,3.89-.18,4.32,2.76,5.36,5.24,2.54,6.08,5.8,11.74,9.97,16.85,8.59,10.55,17.26,21.02,28.83,28.59,1.58,1.03,3.84,2.24,3.33,4.59-.49,2.23-2.86,2.33-4.75,3.04-17.34,6.59-32.98,16.12-47.28,27.86-3.7,3.04-6.79,6.77-9.13,11-2.16,3.92-5.5,8.05-2.12,12.5,3.36,4.42,8.22,2.41,12.57,1.36,27.1-6.5,49.73-21.36,71.48-37.98,4.61-3.52,4.74-6.04,1.31-10.74-12.63-17.26-25.8-34.21-35.25-53.56-1.3-2.67-4.51-5.83-.94-8.74,2.76-2.26,6.17-1.53,9.19.37,20.2,12.72,42.61,16.03,65.94,15.56Z"/>
      <path class="cls-3" d="M354.38,367.24c-23.33.48-45.73-2.84-65.94-15.55-3.02-1.9-6.42-2.64-9.19-.37-3.56,2.92-.36,6.08.94,8.74,9.45,19.35,22.62,36.3,35.25,53.56,3.43,4.69,3.3,7.22-1.31,10.74-21.75,16.62-44.38,31.49-71.48,37.98-4.36,1.04-9.22,3.06-12.57-1.36-3.38-4.45-.04-8.59,2.12-12.5,2.34-4.23,5.42-7.96,9.13-11,14.3-11.74,29.94-21.27,47.28-27.86,1.89-.72,4.27-.81,4.75-3.04.51-2.35-1.75-3.56-3.33-4.59-11.57-7.58-20.24-18.04-28.83-28.59-4.16-5.11-7.43-10.76-9.97-16.85-1.03-2.48-1.47-5.42-5.36-5.24-3.37.16-4.8,2.27-6.05,4.86-9.88,20.41-18.67,41.3-27.25,62.28-.19.47-.32.96-.51,1.42-5.45,13.7-6.8,14.41-19.94,7.77-13.24-6.7-26.93-12.62-39.1-21.3-5.82-4.15-10.65-9.25-14.21-15.45-4.93-8.56-1.57-14.45,8.15-14.33,9.47.12,18.5,2.54,27.05,6.31,8.91,3.92,18.97,5.09,26.78,11.69,2.59,2.19,4.71.3,5.63-2.53,4.05-12.45,9.46-24.36,14.77-36.29,2.76-6.19.47-7.7-5.33-7.43-12.97.6-25.68-.86-37.83-5.64-15.79-6.21-28.3-16.19-35.82-31.8-3.45-7.16-6.03-7.78-11.58-2-5.01,5.21-10.73,9.14-17.22,12-15.88,7-30.4,1.46-37.4-14.5-6.79-15.48-5.37-30.91,1.28-46.13,1.03-2.36,4.12-4.61,1.75-7.46-2.34-2.82-5.78-1.48-8.49-.62-8.21,2.61-16.4,4.83-25.14,4.35-4.81-.26-9.57-.79-14.13-2.28-23.37-7.61-30.71-30.88-16.85-52.46,14.68-22.85,42.94-32.24,71.05-19.32,1.77.81,3.58,2.63,5.39.56,1.97-2.27.12-4.18-1.21-6-9.22-12.67-9.7-25.98-2.97-39.84,13.42-27.62,39.17-38.35,66.44-27.82,4.89,1.89,9.19,3.85,9.91,9.98.3,2.58,2.17,4.89,5.32,3.83,3.06-1.03,1.77-3.64,1.42-5.79-4.3-27.03,8.91-56.8,37.47-65.98,30.25-9.72,39.02.71,47.3,26.06,1.16,3.54,1.49,7.39,1.93,11.13.36,3.11,1.68,5.58,4.78,5.89,3.13.31,3.81-2.62,4.7-5,7.98-21.3,28.35-35.5,51.13-35.7,11.49-.1,18.19,6.78,17.32,18.34-.63,8.33-2.42,16.46-7,23.66-1.53,2.4-3.42,4.67-.2,7.09,3.2,2.41,5.55.75,7.79-1.68,13.9-15.07,32.07-21.2,51.58-24.32,3.93-.63,8.07-.64,12.04-.26,23.41,2.27,37.16,23.45,29.83,45.86-4.95,15.14-15.85,26.05-26.58,37.11-1.68,1.73-6.67,2.49-3.23,6.72,3,3.68,5.98,1.12,8.64-.56,11.53-7.31,24.42-10.36,37.69-12.32,13.58-2.01,25.96,1.91,35.99,10.36,13.64,11.49,25.91,24.54,22.15,44.98-3.64,19.79-15.58,32.84-33.7,40.45-7.17,3.01-14.67,5.71-22.66,2.39-1.74-.72-3.53-.91-4.59,1.09-.86,1.62.2,2.82,1.18,4.01,20.32,24.82,19.26,53.91-2.9,77.78-18.36,19.77-41.17,30.18-67.98,32-6.03.4-12.08.55-18.12.82ZM270.29,276.58c30.57-1.2,63.5-17.66,85.43-53.63,8.81-14.44,13.3-30.31,14.14-47.21.18-3.58-.27-6.67-4.71-7.12-4.15-.42-5.93,1.85-6.38,5.69-.35,3-1.08,5.96-1.25,8.96-.56,9.97-3.23,19.41-7.75,28.18-31.77,61.8-94.59,69.38-149.78,39.25-28.25-15.42-42.4-42.77-47.54-74.41-.7-4.32-1.52-8.36-7.16-7.39-5.73.99-4.1,5.44-3.48,8.99,10.85,61.27,55.62,98.79,128.47,98.69ZM408.88,284.3c11.79-11.34,9.37-23.76,4.89-36.37-1.07-3.02-3.19-4.72-6.4-3.42-2.97,1.2-2.09,3.92-1.08,5.83,6.72,12.72,3.16,23.25-6.5,32.66-1.18,1.15-2.93,2.33-1.95,4.45.96,2.07,2.78,2.68,4.97,2.73,2.76.06,5.55.08,8.27.51,8.73,1.39,12.26,6.01,11.19,14.65-.61,4.85-2.48,9.2-5.89,12.82-3.21,3.41-6.94,6.4-11.77,5.62-5.63-.91-2.87-6.03-3.67-9.33-.76-3.16-1.83-6.2-5.78-5.43-4.18.82-1.72,4-1.43,6.11,1.02,7.45-1.3,13.46-7.44,17.75-3.26,2.28-6.49,1.85-9.58-.94-2.88-2.59-2.48-5.03-.74-7.97,2.37-4,3.19-8.44,2.98-13.07-.13-2.91.71-6.89-3.79-6.7-3.62.15-3.27,3.33-3.21,6.35.18,8.49-3.81,15.08-10.96,19.4-7.38,4.47-14.47.22-14.37-8.33.09-7.26,3.25-13.02,8.79-17.63,1.63-1.35,4.26-2.84,2.24-5.41-1.86-2.36-4.58-1.78-6.83-.27-2.08,1.4-3.83,3.28-5.9,4.68-3.78,2.54-8.13,3.93-11.78.52-4.07-3.8-2.36-8.35.29-12.35,1.82-2.76,4.37-4.82,7.4-6.27,6.37-3.04,12.92-3.98,19.73-1.68,2.81.95,6.07.58,5.15-2.77-2.26-8.26-3.81-16.62-5.43-25-.34-1.77-1.59-3.35-3.69-3.12-2.37.27-2.3,2.32-2.33,4.07-.08,4.54-.06,9.12,1.35,13.47,1.78,5.5,1.1,8.14-5.74,7.48-8.15-.79-15.47,1.96-20.9,8.38-8.66,10.24-7.25,22.01,3.82,25.08,6.61,1.83,6.23,5.07,6.12,9.98-.28,12.56,7.59,19.04,19.87,16.67,2.21-.43,4.48-.98,6.47-1.96,2.35-1.16,3.85-.78,6.01.75,10.54,7.47,15.55,6.9,24.74-2.75,2.08-2.18,3.91-3.19,7.06-3.11,12.24.28,24.09-9.47,26.59-21.4,2.24-10.7-1.4-17.28-11.74-21.24-2.58-.98-5.16-1.94-9.04-3.41ZM298.45,146.64c0-1.1.02-2.86,0-4.63-.09-6.14-2.7-10.83-8.55-12.95-6.12-2.22-11.92-.44-15.59,4.56-7.8,10.63-11.01,22.53-6.94,35.62,1.64,5.27,5.3,8.65,10.8,9.32,5.15.63,9.46-1.47,12.26-5.86,4.94-7.72,8.83-15.85,8.02-26.07ZM243.5,144.31c-.15-2.01-.42-4.01-.43-6.02-.02-6-2.92-10.13-8.38-12.21-5.53-2.1-10.47-.27-14.57,3.55-8.37,7.81-12.03,27.66-7.24,38.18,4.15,9.14,15.42,10.99,21.57,3.07,5.95-7.68,9.57-16.51,9.05-26.57Z"/>
      <path class="cls-1" d="M270.29,276.58c-72.85.1-117.61-37.41-128.47-98.68-.63-3.54-2.26-8,3.48-8.99,5.64-.97,6.46,3.07,7.16,7.39,5.14,31.64,19.3,58.99,47.54,74.41,55.18,30.13,118,22.55,149.78-39.25,4.51-8.78,7.18-18.22,7.75-28.18.17-3,.9-5.97,1.25-8.96.45-3.84,2.23-6.1,6.38-5.69,4.43.45,4.89,3.54,4.71,7.12-.84,16.9-5.33,32.76-14.14,47.21-21.93,35.96-54.86,52.43-85.43,53.63Z"/>
      <path class="cls-1" d="M408.88,284.3c3.88,1.46,6.46,2.42,9.04,3.41,10.34,3.96,13.97,10.54,11.74,21.24-2.49,11.93-14.35,21.68-26.59,21.4-3.15-.07-4.99.93-7.06,3.11-9.18,9.65-14.2,10.23-24.74,2.75-2.17-1.54-3.67-1.92-6.01-.75-2,.99-4.26,1.54-6.47,1.96-12.28,2.37-20.15-4.11-19.87-16.67.11-4.91.49-8.15-6.12-9.98-11.07-3.07-12.48-14.85-3.82-25.08,5.44-6.43,12.75-9.17,20.9-8.38,6.84.66,7.52-1.98,5.74-7.48-1.41-4.35-1.43-8.93-1.35-13.47.03-1.75-.04-3.8,2.33-4.07,2.11-.24,3.35,1.35,3.69,3.12,1.62,8.37,3.16,16.74,5.43,25,.92,3.35-2.33,3.72-5.15,2.77-6.81-2.3-13.36-1.36-19.73,1.68-3.03,1.44-5.58,3.51-7.4,6.27-2.64,4-4.36,8.55-.29,12.35,3.65,3.41,8,2.02,11.78-.52,2.08-1.4,3.83-3.28,5.9-4.68,2.24-1.51,4.97-2.09,6.83.27,2.02,2.57-.62,4.06-2.24,5.41-5.54,4.61-8.7,10.36-8.79,17.63-.1,8.55,6.98,12.8,14.37,8.33,7.15-4.32,11.14-10.91,10.96-19.4-.06-3.02-.41-6.19,3.21-6.35,4.5-.19,3.66,3.79,3.79,6.7.21,4.63-.61,9.07-2.98,13.07-1.74,2.94-2.14,5.38.74,7.97,3.09,2.79,6.32,3.22,9.58.94,6.14-4.29,8.46-10.31,7.44-17.75-.29-2.11-2.75-5.29,1.43-6.11,3.96-.78,5.02,2.27,5.78,5.43.79,3.3-1.96,8.42,3.67,9.33,4.83.78,8.56-2.21,11.77-5.62,3.4-3.62,5.28-7.97,5.89-12.82,1.08-8.64-2.45-13.26-11.19-14.65-2.72-.43-5.51-.45-8.27-.51-2.19-.04-4.01-.66-4.97-2.73-.98-2.12.77-3.3,1.95-4.45,9.66-9.42,13.23-19.94,6.5-32.66-1.01-1.9-1.89-4.62,1.08-5.83,3.2-1.3,5.32.4,6.4,3.42,4.49,12.61,6.91,25.03-4.88,36.37Z"/>
      <path class="cls-2" d="M298.45,146.64c.81,10.22-3.08,18.35-8.02,26.07-2.81,4.38-7.11,6.49-12.26,5.86-5.5-.68-9.16-4.06-10.8-9.32-4.08-13.09-.86-24.99,6.94-35.62,3.67-5,9.47-6.79,15.59-4.56,5.85,2.12,8.46,6.81,8.55,12.95.03,1.76,0,3.52,0,4.63Z"/>
      <path class="cls-2" d="M243.5,144.31c.52,10.05-3.1,18.89-9.05,26.57-6.14,7.93-17.41,6.07-21.57-3.07-4.78-10.52-1.13-30.36,7.24-38.18,4.09-3.82,9.04-5.66,14.57-3.55,5.46,2.08,8.35,6.2,8.38,12.21,0,2.01.28,4.01.43,6.02Z"/>
    </g>
  </g>
</svg>