<?xml version="1.0" encoding="UTF-8"?>
<svg id="Layer_1" data-name="Layer 1" xmlns="http://www.w3.org/2000/svg" viewBox="0 0 512 512">
  <defs>
    <style>
      .cls-1 {
        fill: #ea0029;
      }

      .cls-2 {
        fill: #212121;
      }

      .cls-3 {
        fill: #ec9bad;
      }

      .cls-4 {
        fill: #fff;
      }

      .cls-5 {
        fill: #00a0df;
      }

      .cls-6 {
        fill: #9eade5;
      }
    </style>
  </defs>
  <path class="cls-2" d="M339.9,8.63c25.35,8.38,54.95,27.92,56.74,57.96,1.12,19.21-8.38,36.41-23.01,49.7,6.81,3.91,16.19,8.38,19.21,16.64,4.13,9.16,2.68,21.56-4.58,28.7l-6.03,5.36c19.32,12.17,30.04,34.62,36.63,55.62,2.57,11.62,4.69,26.25,1.12,37.75l7.59,1.9c2.79-9.6,5.47-21.22,15.75-25.69,4.24-.89,8.15-6.25,12.96-2.68,7.26,2.57,7.71,11.17,11.06,16.98,1.56,4.69,1.56,11.84,0,16.53,3.35,1.23,7.59.78,10.83,1.9,4.58,1.45,10.27,3.46,12.17,8.04,1.79,4.58,4.58,10.05,1.9,15.08-2.23,3.57-6.03,5.36-9.49,6.81,3.91,3.46,9.6,9.16,9.49,15.86-.78,7.26-3.46,14.97-11.06,18.09-5.36,3.57-13.18,2.68-19.21.78-.11,12.62-6.03,24.57-16.98,30.49-6.14,2.68-12.62.89-17.31-3.35-7.26-10.39-4.69-26.25-.45-37.19-3.46-.45-9.16.34-11.39,3.8,1.45,21.22-7.59,39.09-21.44,54.5-16.53,20.44-39.09,32.72-61.76,41.21-12.4,3.57-23.9,3.8-37.3,4.13-2.23,11.17-2.01,23.12-3.02,34.85,19.66-3.13,38.08,4.13,54.28,12.73,3.57,3.13,8.49,7.37,8.71,12.17-6.81,16.19-24.57,23.12-40.32,24.57-19.66,1.23-37.97-7.04-56.4-12.17-7.59-4.91-16.42.89-24.24,2.35-24.57,3.46-51.37,10.39-77.73,7.04-5.81-1.9-13.4-6.03-14.3-12.73.89-3.57-2.68-8.38,1.9-10.27,13.18-11.5,30.49-13.07,46.13-18.87,9.49-2.68,19.1-1.23,28.7-1.9l-.78-37.53-1.12-1.12c-33.39-1.56-66.01-8.93-92.92-28.7-26.25-20.66-36.19-51.15-35.85-84.21.78-8.04-.11-15.3.67-24.57-3.02-.78-6.03.89-8.93,1.45-1.23,13.74-5.36,26.92-17.42,34.51-6.03,2.68-13.07.11-17.31-3.8-4.47-4.69-6.48-10.83-6.03-17.76-1.56-.78-4.13.67-6.14.78-6.48.67-11.17-4.24-13.96-9.16-2.79-8.93,4.58-16.42,11.28-21.56-4.69-1.56-8.93-5.47-11.28-10.27-.89-3.13-.11-7.04,2.35-8.93,6.03-5.47,16.08-3.57,23.01-4.58.89-1.79-1.45-3.13-1.9-4.91-1.56-7.37-3.8-17.31,1.9-23.45,4.36-4.58,11.84-5.36,17.42-3.8,12.96,5.81,15.64,20.66,17.65,33.17,3.35-1.12,8.71,1.12,9.94-3.35,6.03-25.02,15.64-48.69,34.29-68.46,5.7-5.47,12.4-8.38,18.54-13.18-4.69-2.68-8.04-8.04-9.16-13.18.11-16.42,10.83-30.49,24.57-38.87,3.91-.67,6.81-3.46,11.06-3.02-.45-2.68-2.35-5.7-3.8-8.38-6.14-26.25-1.12-55.84,18.87-74.83C217.72-.75,265.97-1.87,309.52,1.14l30.38,7.48Z"/>
  <path class="cls-4" d="M329.29,15.89c20.77,2.79,39.65,16.08,52.38,32.39,7.04,12.29,5.81,29.71,0,41.21-6.03,10.61-16.08,22.78-27.03,28.37-.89,2.68-4.24,3.46-3.13,7.26,1.79,2.57,4.47,4.91,7.59,3.35,3.35-1.23,7.04-10.72,11.06-3.35,4.36.89,8.71,2.01,11.62,6.03,3.91,5.03,5.25,13.18,2.35,19.21-2.35,3.13-4.36,8.04-8.38,8.82-3.57,0-9.16,1.9-11.62-1.9-3.91-3.35-3.13-12.96-10.72-10.27-5.47,2.79-.11,8.49-3.02,13.18-2.35,5.47-2.35,12.96-8.71,15.86-3.46.11-6.81-.11-9.16-2.68-9.6-4.13,1.23-23.12-13.51-18.54-4.13,2.01-.11,5.81-1.9,8.71-1.23,6.59-7.15,12.62-13.18,15.08-5.47,2.01-13.51,4.69-18.09-.67-5.25-6.14-3.8-15.86-3.46-23.12-1.79-2.23-4.36-2.35-7.04-2.23-4.58,5.47-5.7,12.62-11.39,17.76-7.82,6.92-17.65,11.84-27.7,11.39-10.05-5.7-9.16-18.76-8.71-28.81-.34-2.35-2.79-3.8-4.91-4.58-7.71-.45-5.81,8.38-10.5,11.84-5.81,6.92-13.51,12.17-21.56,16.19-3.8.34-7.26,1.23-9.72-2.23-1.9-6.59,1.23-13.07,4.91-18.32-.11-2.68.45-6.14-2.68-7.04-1.45-.67-3.35-.34-4.91-.45-5.47,7.59-13.85,13.07-23.45,12.96-4.69-.34-9.49-2.23-11.62-6.81.67-11.84,6.14-22.23,15.75-29.48,5.47-2.01,10.72-7.71,16.64-5.03,2.23,2.68,2.68,7.93,7.59,6.92,1.23-.45,2.79-1.23,3.46-2.68-.45-6.48-5.47-11.06-8.82-16.19-8.04-10.27-5.25-25.02-5.25-37.75,3.35-22.56,21.22-41.88,42.33-49.92,28.81-11.62,61.76-10.83,94.04-9.49,7.26.89,13.74,3.46,20.44,5.03h0Z"/>
  <path class="cls-2" d="M245.42,65.03c3.35,2.57,6.25,4.91,9.72,7.59,5.7-1.56,10.5-6.92,16.64-4.91,9.16-3.8,14.18,12.4,21.89,1.9.45-2.35,3.46-.11,4.58-1.9,4.13-4.13,9.72-1.23,13.96-5.36,2.57.11,5.25,1.56,6.03,4.24-.89,15.3-4.13,31.61-4.58,46.8-.89,1.12-1.45,2.79-3.02,3.46-2.79-.67-6.25-2.79-6.81-6.14-6.03-4.36-12.4-7.71-18.54-11.62-7.37,3.57-15.08,8.82-24.57,5.7-3.35-1.9-7.59-3.91-8.93-7.82-5.47.45-10.5,4.36-15.86,6.81-5.36,1.79-6.59,11.17-12.96,8.38-7.37-6.14-.11-15.41-.34-23.12l6.48-30.49c7.15-6.03,10.27,4.69,16.31,6.48h0Z"/>
  <path class="cls-1" d="M249.22,85.02v.78c-5.7,3.91-12.17,6.03-17.76,9.72,1.45-8.82,3.35-18.43,6.14-27.03,4.02,5.58,16.75,7.71,11.62,16.53h0Z"/>
  <path class="cls-1" d="M307.4,74.74c.34,9.27-2.23,17.42-2.35,26.47-3.57-2.57-8.38-3.8-10.5-7.93l-3.46-1.9c.89-2.79,1.79-6.03.78-9.16,4.8-2.9,9.94-6.03,15.52-7.48h0Z"/>
  <path class="cls-1" d="M281.27,78.99c1.12,3.35,1.12,6.81,0,10.27-5.03,4.58-12.4,8.93-19.66,6.03-3.57-2.68-2.68-7.59-2.23-11.39,1.23-4.58,6.14-6.92,10.27-7.82,4.24,1.23,9.16-1.68,11.62,2.9h0Z"/>
  <path class="cls-3" d="M372.29,172.69c17.76,3.91,23.9,23.79,32.61,36.97,5.36,15.75,10.83,36.07,2.23,51.49,0,3.35,1.9,6.25,4.58,7.82,6.81.45,15.3-.67,19.66,5.7,2.68.67,4.69-.89,6.03-3.02,1.12-10.5,2.23-23.34,13.51-27.59l3.46-1.56c3.57,6.48,7.04,14.97,1.9,21.89-2.57,5.36-14.18,4.58-8.71,12.4,1.68,2.57,4.36,3.8,7.04,2.68,6.59-4.24,17.31-3.57,24.57-1.45,2.79,1.23,3.57,4.24,4.24,6.81-1.9,5.47-8.6,5.81-13.74,7.59-4.91,2.01-10.5-2.23-13.51,3.02,2.01,15.08,25.8,2.23,25.69,19.21-.11,2.79-1.23,5.36-3.02,7.59-3.57,2.01-7.26,5.03-11.62,3.8-7.37-.45-10.83-12.96-18.32-6.03.78,6.48,3.57,14.18,1.56,20.77-2.01,6.14-5.81,13.85-12.96,15.41-2.01.34-2.57-2.23-3.57-3.35-1.9-11.5,2.35-23.34,7.93-33.17-.34-2.68-.45-5.7-3.46-6.92-7.15-.67-15.41.78-22.67,2.35-3.8,1.56-8.71.89-11.39,4.91,2.79,7.82-.11,16.86-.34,24.57-7.59,23.9-28.03,46.57-50.26,58.52-18.87,12.62-43,16.42-65.78,14.85-5.7,1.56-1.79,7.26-3.35,11.39-1.12,12.73-2.68,26.13-3.13,39.65,1.56,2.57,4.69,3.02,7.26,3.8,16.64-7.04,34.29.89,49.14,7.59,2.68,1.56,4.91,3.57,6.48,6.25-8.6,14.63-28.37,18.32-44.56,15.64-14.97-4.58-30.49-7.04-43.89-15.08.11-20.77-.78-40.21,2.35-61.54-.78-1.56-1.79-3.35-3.46-4.24-3.13,0-6.48-.34-7.93,3.02.45,11.84-2.35,23.45-1.9,35.29l-.45,30.6c-27.7,4.69-54.84,14.3-83.09,10.5-3.13-.34-5.7-2.23-8.38-4.13-.67-1.68-.11-3.8-.34-5.7,11.95-8.82,26.58-10.61,39.98-15.64,10.83-2.01,23.9-.45,34.85-1.45l3.02-3.02c-1.56-15.64-1.45-33.95-1.45-48.47-4.24-5.47-12.4-3.35-18.54-4.91-42.78-3.35-93.7-19.66-106.88-66.45-4.24-21.89-6.25-43-2.68-65.78-.11-1.9-.89-3.46-2.23-4.91-9.6-.34-18.87.11-28.37,1.56-3.8,3.57.89,8.49-1.12,12.4-1.23,8.93-4.24,17.98-11.84,23.45-3.13-.45-6.92-2.68-7.59-6.14-3.35-10.05,3.46-17.76,8.71-25.35.34-2.68-.11-5.7-3.02-6.25-5.03-.67-8.38,3.13-10.5,7.04-4.24,4.24-9.16,8.49-14.85,8.38-1.56-1.45-2.01-3.8-1.45-5.7,4.13-9.6,14.85-12.96,22.67-18.09,1.9-.78,4.36.11,5.7-2.35.78-1.56.34-3.8-.78-5.25-8.71-4.58-17.2,3.91-26.13,0-.89-.89-1.9-1.9-1.45-3.46,5.47-4.69,14.3-1.79,21.56-2.68,3.02,1.12,5.81,4.24,9.49,3.13,1.56-1.79,3.13-4.47,1.45-6.48-8.04-5.25-11.84-13.85-10.5-23.79.89-2.35,3.91-4.58,6.48-5.7,7.04,1.9,8.82,9.94,10.83,15.75.11,4.13,2.35,9.27.45,13.74.34,2.79,2.23,5.25,4.91,6.48,4.13.11,7.37-2.35,11.06-1.9,4.58-3.13,12.96,1.9,13.85-5.7,7.59-32.17,22-67.12,54.5-83.09,5.81-.34,11.5.67,16.64-2.35.45,4.69,1.56,9.27,4.91,12.96,4.24,3.46,9.16,5.7,15.08,5.14,10.72-2.68,20.44-9.49,28.37-17.65,1.23,7.71,5.7,16.64,13.51,20.33,15.3,4.69,30.38-3.13,41.21-13.96-.11-.34.11-.45.34-.67,2.35,7.71,9.16,13.85,16.98,15.41,10.05,1.45,18.87-2.68,26.92-7.59,1.9-2.23,3.8-5.03,6.25-5.7,5.25,5.47,13.07,9.6,21.22,8.38,9.27-1.68,12.62-11.95,14.63-19.66,4.02,4.24,10.61,2.23,13.4,7.71h0Z"/>
  <path class="cls-2" d="M246.2,202.96c2.35,4.69,3.46,10.83,1.9,16.19-3.46,8.15-10.39,16.53-18.87,19.99-7.04,1.45-13.4-3.02-17.76-7.82-4.58-9.94-3.13-23.34,3.02-32.39,5.25-6.03,13.85-7.82,21.22-5.7,3.91,2.12,8.6,5.58,10.5,9.72h0Z"/>
  <path class="cls-2" d="M310.75,199.94c4.91,9.94,4.36,23.9-2.68,32.95-3.8,7.59-12.29,10.39-19.99,9.72-9.27-1.56-10.05-12.73-13.96-19.66-.78-9.16.45-18.32,6.92-24.91,4.91-5.14,13.07-7.59,19.99-5.36,3.69,1.12,7.82,3.35,9.72,7.26h0Z"/>
  <path class="cls-2" d="M145.57,237.69c-7.59,19.99-.67,42.55,4.24,61.54,6.59,17.31,19.99,35.29,37.75,42.66,34.96,17.65,80.19,13.74,116.04,1.9,26.47-10.72,44.12-37.19,48.36-64.22,2.57-9.49,2.68-19.88,4.13-29.71,1.56-4.24,4.91-.89,7.59-.78,2.57,1.45,3.35,4.69,2.35,7.59-1.23,18.09-5.81,34.85-11.84,51.04-10.83,17.31-24.46,38.87-45.68,44.56-34.62,12.17-80.64,16.19-115.26,2.23-34.18-10.05-54.17-44.45-59.08-77.51-1.79-13.85-3.46-29.93,1.56-43.45,3.57-1.34,8.71.22,9.83,4.13h0Z"/>
  <path class="cls-2" d="M282.83,253.1c2.35,11.28-3.02,21.78-11.28,29.15-8.71,6.92-22.67,7.82-32.17,2.23-8.49-4.24-13.96-13.74-13.18-23.01.11-6.25,3.35-11.5,6.25-16.64l12.62-8.93c9.94-4.91,20.44-1.23,28.93,4.13,4.13,3.24,7.48,8.04,8.82,13.07h0Z"/>
  <path class="cls-5" d="M272.22,251.99c2.57,8.71-1.9,16.64-8.15,22.34-5.03,4.69-13.74,5.25-19.66,2.57-3.02-1.68-5.47-3.57-7.26-6.81-3.57-7.26,1.23-13.74,4.58-19.66,6.48-4.36,14.85-9.6,22.67-6.25,3.02,1.23,6.81,4.36,7.82,7.82h0Z"/>
  <path class="cls-6" d="M386.81,65.36l-1.9-8.71c-1.56,0-3.35.34-4.58-.34,1.45-2.57.45-5.81.78-8.71-5.47-6.03-9.72-12.17-16.64-16.64-1.9-1.12-5.36.67-6.48-1.56.67-4.69-4.91-4.69-7.59-6.25-1.45,2.01-1.9,4.69-2.23,7.59l-13.18-.45c-1.45-3.8-.45-8.49-2.35-12.17-1.23-3.8-7.26-3.13-10.05-3.8-2.68,4.69.34,10.39-1.23,15.64h-13.85c-.45-6.92.89-13.07-1.23-19.32-3.8,0-6.25.34-9.72-.34-.34,6.03,1.12,13.51,0,19.66-5.7-.67-10.83,1.23-15.86-.78l.45-13.51-2.35-5.36c-2.68-1.12-5.81.67-8.93,0-.11,6.25.11,12.62-.45,19.99l-15.86.45c-.67-6.92.34-12.29-2.23-19.32l-8.38,1.12-.34,18.54h-18.54c1.12-5.14-1.68-9.16-3.02-12.96l-6.81,2.68c0,3.91,1.45,6.92,0,10.5-5.81-.67-11.5,1.68-15.86-1.9l-9.49,8.82c.78,7.04-1.56,13.96-.78,21.11-3.91,2.01-8.04,1.12-12.4.78l-2.23,8.38,13.85.34c-.89,4.91.45,10.72-1.12,15.41-4.69.34-8.93-.45-13.51-.67l-.45,7.59c4.13,2.01,9.94.45,14.52,1.45v14.3c-.45,4.47-6.14,1.45-8.82,1.23l5.36,8.15h1.12c3.35-.45,1.45,3.46,1.9,4.58-1.01,5.03.67,14.18-1.45,19.99l-16.42.78-1.12-20.77c-12.17.67-6.48,12.06-7.93,19.99l-.78,1.23h-13.18l-1.9,8.15c4.69.34,10.27-.67,15.41.78-.89,3.35-2.68,7.04-1.45,10.27,3.57-.45,6.81-2.01,10.27-3.02l.34-7.59c4.69.45,9.72-2.57,13.96-1.9,1.56.89,2.79-.45,3.35,1.9.67,2.68.89,6.03-1.45,7.82,1.9,6.03-3.35,11.84-.78,17.76,2.57,1.56,5.81.34,8.38-.34,2.79-7.93,2.23-18.43,3.35-26.92,5.25-.78,10.27,0,15.64.78-2.01,3.46.45,6.81.78,10.27,5.36-2.23,4.36-10.72,10.83-11.84,6.81,1.45,14.3,1.9,20.77,2.68.89,10.05.45,19.88,0,29.93,3.46,0,7.04-1.45,10.27-3.02-2.68-9.49,2.01-16.86.34-26.13,5.25-.78,10.27-.11,15.64.78.34,1.9-.45,3.35-1.56,4.58-.34,2.35-1.23,6.25.78,7.82,3.35-3.8,3.8-8.71,7.26-12.4h16.19l-1.12,17.76c-.45,3.35-1.56,7.26,0,10.5,3.02.78,6.81.34,9.49-1.12,1.12-8.93-1.23-16.64.67-25.35.11-.78-1.45-1.23-.34-1.9,5.03-.67,10.5-.34,15.86-.45l2.23,3.46,1.56-1.12c2.68-1.12,5.81,0,7.59,1.9.45-8.15,10.5-3.35,15.41-5.7,1.23,2.23-.67,6.03,0,7.82.67,4.47-4.13,7.93-1.9,12.96.34,1.79,2.23,4.13,4.24,2.68,3.46-7.59,7.04-15.86,5.7-24.57,1.45-1.79,2.68-3.13,5.25-3.13,3.02,2.79,6.14,3.13,10.27,2.35,3.8,2.68-2.57,6.25,0,9.72,2.23,1.45,5.36.45,7.93.78,6.48-.78-.11-7.37,1.9-10.5,3.02-1.45,6.81,1.12,9.16-1.12.45-2.68.78-6.14-.34-8.38h-9.49c-1.12-4.36-.11-8.82-.78-13.18-2.35-.45-4.58-2.23-6.81-1.56l-1.23,15.86c-4.91,1.23-9.6.67-14.3,1.12-.45-5.03-.78-10.27.45-15.41l-.78-.78c-1.56-6.25,6.59-9.27,10.27-13.18-3.13.78-6.25.11-9.16-.78.45-5.03.45-10.83,1.56-16.53,3.91-.67,9.49-.67,13.85,0-.11,4.91-2.57,9.27-2.23,13.85,3.57-2.79,6.81-6.48,9.49-9.72,1.45-1.56.11-5.25,2.68-5.36,3.13-1.9,4.69-6.25,4.58-9.72-1.56.11-3.35,1.56-4.58,0,.78-5.36,1.56-11.28,1.45-16.64.22-3.57,3.69-.34,6.37-1.68h0ZM210.57,140.53c-4.24-.34-10.27-.45-14.63-.34-.11-7.59,1.56-15.08,1.45-23.12l13.96.45c-.22,7.15.67,15.86-.78,23.01h0ZM211.69,109.25h-13.51v-16.64c4.58-.45,10.5-.78,14.74-.34l-1.23,16.98ZM212.92,82.79c-5.47,0-10.27,1.45-15.08.34.67-4.58-.34-9.94,1.12-14.3l13.51-.34c1.01,4.24,1.79,9.6.45,14.3h0ZM212.47,59.67l-13.51-.34.78-19.66c4.36.45,8.93.78,13.51,1.12-.34,5.92,2.35,14.97-.78,18.87h0ZM280.49,38.56l15.86.78c-1.56,6.03,0,10.39-1.12,16.53-5.81.78-10.39,1.23-15.64.45-1.23-6.14,1.23-11.62.89-17.76h0ZM269.21,39.68l-.78,16.19c-3.91,1.56-8.15.34-11.95,1.23l-1.56-1.9-.34-15.08c4.36-2.35,10.05-.11,14.63-.45h0ZM242.74,142.09c-6.92,0-15.64-1.79-22.67-1.56-.11-7.37,1.9-14.97,1.12-23.01l.78-.45c7.04-.11,14.85.11,21.89,1.12l-1.12,23.9ZM269.65,143.54l-15.86-.78c-.45-8.04.78-16.64.34-24.91h15.64v25.69h-.11ZM291.88,143.54l-12.73.45c.78-8.49-.11-18.43.67-26.13,4.24.11,9.6-.34,14.07.34l-2.01,25.35ZM318.35,143.54c-5.25.67-10.83.67-16.53,0-.45-8.71.67-16.86,1.9-24.57,4.69.67,10.05.34,15.08.45-.22,7.15.11,16.75-.45,24.12h0ZM319.13,85.8c-4.24-.67-2.79,4.47-3.8,7.59,7.37,2.57,1.79,10.83,3.46,17.31-1.79,1.79-5.7-1.9-5.03,2.35-1.23.89-.67,3.02-2.57,3.35-7.04.89-6.14-8.49-12.17-8.93l-3.46-1.9c-.89,1.23-1.79,2.35-1.45,4.13h-15.64l-.78-5.7c-2.79-.11-6.03,1.9-8.93,1.12-1.56,1.79,1.45,2.79,0,4.58-4.69.67-10.05.67-14.74,0-.45-4.58,1.12-10.27-3.02-13.51-2.68,1.12-5.47,2.35-7.59,4.58l.34,8.93-13.85-.78c-1.79,1.56-2.79,5.25-5.7,3.46-6.14-2.01-4.69-7.93-3.8-12.96,2.35-5.03,1.45-11.5,3.8-16.53-.34-.45-.78-.45-1.23-.45-1.12-4.36.67-8.49,0-13.18,2.57.89,5.7-1.12,5.03-4.13-.34-2.01.11-4.69,1.12-6.81-2.01-1.45-3.13,2.35-5.7,1.12.78-7.26-1.9-12.96.78-19.66,5.7.89,10.83.11,17.65.45,2.23,5.03.78,11.95,1.23,17.31l-3.8,3.02,12.73,9.49c.78-8.82,10.05-1.9,15.08-4.58.34,2.68,4.69,1.45,7.26,2.35,1.9-.89,5.25,3.46,5.25-.78v-1.68c5.03.89,9.27-1.56,13.18-.67.34.78-.34,2.68.45,3.8,6.48-1.45,12.17-3.35,18.43-5.7,3.8-1.79,4.47,3.91,8.38,2.57,0,6.37-1.56,13.18-.89,20.44h0ZM321.03,56.32l-15.08-.45c.89-5.47-.34-12.17,1.56-17.31,4.36.67,9.27.34,13.85.34l-.34,17.42ZM342.92,142.09l-13.18,1.12c.11-7.26.67-14.63,0-23.45h14.3c.22,7.26-.22,15.41-1.12,22.34h0ZM344.71,111.15c-4.91-.11-9.94.34-14.63-.45-.89-5.7,1.56-9.72.67-15.41,4.58-.67,9.6-.67,13.96,0v15.86ZM345.49,85.47c-4.69.67-9.72.11-14.74.34.45-6.81-.89-14.3,1.23-20.44h14.63c.78,6.25-1.23,13.18-1.12,20.1h0ZM347.16,56.65c-4.13.67-9.94.67-14.52,0l1.56-17.76h13.18c0,6.37.34,11.17-.22,17.76h0ZM370.06,84.24c-4.69.45-10.61,2.23-15.08,1.56l1.9-17.31c-.67-.67-.34-1.56-.34-2.35l2.23-1.12,12.96.78c.56,6.59-1.12,12.29-1.68,18.43h0ZM372.29,52.07c-.67,1.45-.11,3.13-.34,4.58h-14.85c-.67-5.47,1.45-10.83,1.23-16.53,3.91-1.45,8.15.89,11.39.67h.67c-1.9,4.36,4.13,6.92,1.9,11.28h0Z"/>
</svg>