<?xml version="1.0" encoding="UTF-8"?>
<svg id="Layer_1" data-name="Layer 1" xmlns="http://www.w3.org/2000/svg" viewBox="0 0 512 512">
  <defs>
    <style>
      .cls-1 {
        fill: none;
      }

      .cls-2 {
        fill: #ee7623;
      }

      .cls-3 {
        fill: #fff;
      }

      .cls-4 {
        fill: #ffcd00;
      }

      .cls-5 {
        fill: #009845;
      }
    </style>
  </defs>
  <g>
    <path class="cls-1" d="M278.01,456.09c.11-4.96-4.63-9.7-9.59-6.32,2.82,2.37,4.17,7.79,9.59,6.32Z"/>
    <path d="M461.93,197.25c-1.92-11.17-13.54-16.25-26.18-16.59-3.27-9.37-2.93-19.07-8.01-26.18-.68-.9-2.14-1.92-2.93-2.93-5.08-6.43-13.43-8.35-24.94-8.91-.34-1.35-.68-2.6-1.02-3.95-5.08-4.17-6.32-11.4-8.91-17.6-2.26-5.42-5.53-10.72-8.01-16.25-1.24-2.93-2.26-5.98-3.27-8.91-1.13-2.93-2.93-5.75-2.71-8.91-4.17-5.08-6.54-12.07-8.58-19.29-4.17-5.53-6.54-12.64-10.61-18.28-.68-1.02.34-1.81-.34-2.6-.34-.68-1.92-.11-2.03-1.02-6.66-12.75-15.91-24.03-30.24-31.14-6.43-3.27-14.56-5.64-22.57-8.01-8.12-2.37-16.59-4.63-24.94-5.3-8.8-.79-18.62-1.47-26.85-1.35-3.84.11-7.9,1.58-10.61,2.37-5.87,1.47-12.52,1.58-18.28,3.27-7.22,2.14-13.31,6.43-19.86,7.67-2.6,1.47-5.08,3.16-8.58,3.61-8.35,5.3-17.72,9.48-26.18,15.23-16.36,11.17-28.77,27.19-41.86,41.52-3.16,3.39-5.98,7.9-8.58,12.3-9.03,15.12-15.23,33.51-14.56,54.72-10.16,5.3-22.79,10.83-31.14,17.94-2.93,2.48-4.85,3.84-7.33,6.66-3.61,4.06-5.64,7.33-8.35,12.98-1.47,3.05-2.93,6.66-3.61,9.93-3.05,14.89.9,30.01,5.98,40.17,1.35,2.6,2.37,3.95,3.95,6.32,1.58,2.48,3.27,4.06,4.96,5.64,4.63,4.29,11.28,10.27,17.6,11.96,8.58,2.37,19.07,3.5,29.9,1.35,5.08,8.35-5.87,9.7-9.25,15.23-1.35,2.26-3.27,7.22-3.27,9.93,0,1.13,1.13,2.93,1.69,4.29,2.26,5.19,3.95,7.79,8.58,9.93-2.26,4.51-4.29,11.73-1.02,16.59.68,1.81,5.53,2.6,6.32,4.96.68,2.14-1.13,4.74-1.02,6.66.45,6.32,8.58,11.51,15.91,10.61,3.05-.34,5.08-2.71,8.58-2.71,3.95,3.95-2.14,6.43-2.37,9.93-.11,2.82,4.17,11.06,5.98,12.3,4.06,2.71,8.46.68,12.3,0,9.14,13.43,16.47,27.31,28.21,37.46,3.95,3.39,7.67,7.45,11.62,10.61,8.8,7.22,20.65,12.64,32.16,16.93,15.12,5.64,32.16,7.79,50.44,10.94-1.47,4.17-3.16,8.58-3.27,13.65,0,1.81.9,4.4,0,5.98-3.05-.34-8.12-.56-9.25,2.03,1.13,3.61,5.08,4.29,5.64,8.35-14.89,1.69-34.41,6.54-39.15,19.86-5.42,15.12,11.17,22.79,24.94,23.24,4.4.11,8.58-.45,12.3,0,2.48,4.63,7.56,8.58,12.98,9.93,11.17,2.93,23.81,1.35,35.2-.34,20.87-3.05,41.52-11.4,55.06-19.63,1.47-2.93,3.72-5.08,4.96-8.35-.68-2.6-1.13-5.53-1.35-8.58-2.48-2.93-4.63-5.98-8.01-8.58-3.05-2.37-7.11-4.06-10.27-6.66-.45-.45-.56-1.47-1.02-2.03-1.47-1.47-4.29-2.03-5.64-3.27-1.24-1.24-2.82-3.39-4.29-4.96-6.54-6.88-7.79-17.83-1.69-27.19,10.49-3.5,20.87-8.12,29.9-14.89,4.17-3.16,7.9-6.77,11.96-10.27,6.43-5.64,12.75-10.49,17.94-16.59,1.92-2.14,3.95-4.17,5.64-6.32,1.81-2.26,2.71-4.96,4.29-7.33,10.27-14.33,19.52-31.59,23.24-51.45,2.82-14.67,2.14-30.92.68-45.81-1.35-3.16-3.05-8.12-3.95-12.98-.45-2.26-1.35-5.98-1.02-8.01.45-2.93,3.5-4.74,4.29-7.33,8.35,2.37,11.62-1.58,14.89-7,3.05-5.08,5.3-10.49,4.63-17.6,2.6-5.3,5.3-10.94,4.17-17.94ZM146.22,194.65c-.23-1.47-.68-3.84-1.35-5.64-2.37-7.33-7.45-16.25-12.64-23.24-1.69-2.26-4.4-4.63-7-6.66-2.71-2.03-4.29-2.82-8.01-4.63-3.95-1.92-8.12-3.16-13.31-4.63,3.72-3.39,11.62-5.98,18.28-5.3,1.13.11,1.81.79,2.93,1.02,2.37.34,4.85-.23,6.66.34,2.48.68,7.45,3.61,9.93,5.3,2.6,1.81,5.64,5.08,7.67,7.33,5.08,5.64,9.03,13.43,9.59,22.57,1.13,17.26-2.82,35.88-13.99,42.43,2.37-9.37,2.6-19.41,1.24-28.89ZM63.96,223.2c-5.42-11.28-8.35-27.08-2.37-40.85,2.82-6.32,7.56-13.88,13.31-17.94,7.45-5.19,20.99-8.58,32.16-4.63,1.69.56,4.4,2.26,6.66,3.61,6.09,3.61,10.94,8.35,14.56,14.56,3.5,5.98,7.45,13.77,8.35,23.58.9,10.27-1.35,23.81-6.32,30.24-2.48,3.27-7.11,5.19-8.91,9.93-25.05,11.73-47.73,1.58-57.43-18.5ZM109.77,276.57c0-10.83,19.75-13.54,17.6,0-.23,1.24-1.35,1.58-1.69,3.61-2.26,1.81-5.19,2.71-7.67,4.29-5.3.23-8.24-3.61-8.24-7.9ZM118.35,304.1c-3.95-4.17.68-9.14,2.93-11.96,4.51-.34,5.87-3.72,9.93-4.29,3.5.23,4.63,5.42,3.61,8.91-.11.56-3.05,5.42-3.95,6.32-3.05,2.93-8.69,2.37-12.52,1.02ZM136.63,320.69c-4.4,2.93-14.67,1.92-11.96-5.64,5.87-1.35,9.93-6.21,15.91-6.32,1.92,3.39,0,9.48-3.95,11.96ZM159.53,342.01c-3.39.11-5.64,3.27-8.58,2.93-3.05-.34-3.27-3.5-5.3-5.64,4.51-2.6,9.82-4.29,15.57-5.64,3.05,2.26.11,6.77-1.69,8.35ZM149.94,254c12.07-3.5,12.98,18.84,2.37,18.96-8.46,0-10.04-16.7-2.37-18.96ZM268.42,449.77c4.96-3.39,9.7,1.35,9.59,6.32-5.42,1.47-6.77-3.95-9.59-6.32ZM269.77,490.28c-2.71.56-8.91,1.47-11.62,1.35-.79,0-1.81-.79-2.71-1.02-1.47-.34-3.05.23-3.95,0-3.27-.68-10.38-4.17-9.59-9.25.79-5.19,9.59-11.17,14.56-12.98.9-.34,2.14-.11,2.93-.34,3.61-.9,7-2.82,11.96-3.27,3.72-.34,7.45-.9,11.28-1.02,2.82-.11,5.75,1.13,8.58,1.02,6.54-.23,16.93-5.42,19.86.34-6.66,2.71-13.65,4.06-19.63,7.33-1.69.9-3.16,2.6-4.96,3.61-1.81,1.13-3.72,1.58-5.3,2.93-1.58,1.47-3.5,3.16-5.3,4.96-2.26,2.37-2.71,5.64-6.09,6.32ZM301.59,454.17c-2.71.45-6.09,2.03-8.01.68,1.47-3.05,4.17-7.56,2.93-11.96-.45-1.69-2.37-4.06-3.95-4.29-3.61-.56-4.85,2.93-7.67,3.95-1.69-6.32,2.48-11.96,5.3-15.91,3.27,0,5.53-.56,8.35,0-4.29,8.46-.34,20.65,3.05,27.53ZM286.36,449.77c1.02-3.61,2.03-7.11,5.3-8.35,4.96,3.84-2.14,16.59-5.3,8.35ZM347.74,462.41c-.11-.23.11-.34.34-.34,4.06,2.14,7.11,4.63,10.94,7.67,4.29,3.27,11.28,9.14,4.29,14.56-1.02.79-3.27,2.14-4.96,2.93-.9.45-2.14.23-2.93.68-1.47.79-2.37,2.14-3.27,2.71-2.37,1.13-5.75,1.81-8.91,2.93-5.19,2.03-12.19,4.63-19.29,5.98-5.75,1.02-11.06,2.48-14.89,2.93-9.25,1.13-31.26,1.69-27.53-8.01.23-.45.9-.34,1.35-1.02.45-.68.11-1.58.34-2.03,2.93-4.4,6.66-7.9,10.94-10.61,2.26-1.47,5.3-2.03,8.35-3.27,4.17-1.69,7.9-4.74,13.31-4.29,3.72-2.37,7.56-.56,11.28-1.02,7.67-.79,15.23-6.21,20.65-9.82ZM319.87,449.55c2.71,1.24,1.02,7.22,0,8.91-6.09.11-4.96-8.69,0-8.91ZM450.31,202.89c-4.63-2.48-9.59-5.87-15.57-5.98-1.02.56-2.26,1.92-2.37,3.27-.34,4.4,4.06,4.06,7.33,5.98,8.01,4.63,10.72,17.04,2.37,24.26-2.26.11-2.93-1.47-4.29-2.37-.79-7.45-2.71-13.88-7.33-17.6-3.16-.68-8.12,0-8.35,3.61-.11,2.71,2.71,3.5,3.95,5.98,1.69,3.39,2.82,13.65,1.35,17.94-1.69,5.19-6.21,9.14-9.93,12.3-2.93-.68-4.06-3.05-5.3-4.96-1.81-2.71-4.17-6.66-4.29-11.62-.11-5.3,3.95-11.73-1.02-15.23-3.72-.34-5.53,1.35-8.35,2.03,0,1.81-1.02,2.37-.34,3.95-2.93,3.72-10.27,15.12-16.25,12.98-3.5-1.24-2.6-7.79-1.69-10.61,1.69-5.08,9.25-12.64,12.98-14.22,2.03-.9,3.95-.79,5.98-.68,2.26-1.47,4.4-3.16,4.96-6.32-4.29-7.45-10.94-15.46-20.87-17.26-8.69-1.58-17.6,2.71-25.27,4.96-2.14,4.06,2.37,5.87,4.96,7.33,5.87-.79,11.17-3.95,17.6-2.93,2.93.45,9.7,3.72,9.59,6.32,0,2.26-4.96,3.05-7.67,4.96-2.37,1.69-4.29,4.74-7,7.67-2.26,2.37-5.42,6.66-5.98,8.58-1.81,5.98-.11,15.57,3.95,18.96,8.35,7,16.81-.56,24.6-4.29,3.39,10.72,10.94,23.24,25.5,17.6,6.66,12.98,6.09,32.95,3.95,49.08-.34,2.48,0,5.08-.68,7.67-3.61,14.56-9.25,28.66-17.26,40.85-13.88,21.1-30.24,36.9-50.78,50.1-7.11,2.14-11.06,5.75-18.96,6.66-1.35.9-2.37,2.03-3.95,2.71-2.93,8.91-6.88,16.14-4.29,26.85.56,2.14,1.69,4.74,2.71,6.66,2.6,4.96,8.12,6.88,2.03,11.62-3.27,2.48-7.79,4.4-12.64,1.35.68-4.85,2.82-12.41-2.93-13.65-4.4-.9-5.64,2.71-8.91,4.29-3.5-4.63-7-11.28-4.96-18.28,1.69-5.64,7.33-11.28,6.66-15.57-.56-3.5-7-4.4-9.25-2.03-5.64-1.02-14.67,1.58-22.57,1.02-21.55-1.58-41.64-5.87-58.79-12.64-3.27-2.71-7.56-3.5-11.28-5.64-2.14-1.24-4.29-3.27-6.66-4.96-6.43-4.51-13.43-10.38-18.62-16.25-5.3-6.09-10.04-13.09-14.56-20.2-2.26-3.5-4.29-5.98-5.64-10.27.68-2.37,4.51-3.72,5.64-7.33,2.03-6.43-.9-15.57-7.33-15.57-8.91-11.62-11.85-27.31-16.93-42.43,12.64.45,17.49-6.88,21.55-14.89,1.02-4.96-.45-8.58-1.69-12.3-.56-1.69-.79-3.27-1.69-4.29-3.84-4.85-16.59-7-22.57-2.71-2.71,1.92-2.71,5.3-4.96,7.33-2.71-1.47-2.26-6.09-3.27-9.25,6.88-5.98,15.23-10.72,21.89-16.93,3.61-6.43,7.22-12.41,9.59-20.87,1.24-4.51,1.58-8.12,2.03-13.65.34-5.42,1.47-11.62-.34-17.94,11.62-2.14,23.24-15.01,19.86-28.21-2.03-8.12-6.43-14.78-12.3-20.2-14.1-7.33-29.68-.45-30.24,15.91-6.54-3.27-13.88-6.66-22.57-7,11.17-18.62,27.53-32.05,49.76-39.49,5.87-4.4,1.47-14.1-5.98-9.93-2.14,2.14-5.08,3.27-8.35,4.29-8.35,6.66-18.28,10.83-25.84,17.94-3.95,3.72-7.22,8.12-10.61,12.3-3.39,4.06-6.21,8.69-10.27,12.3.9-2.14-.56-4.51.34-7.33.56-1.92,3.27-2.93,4.29-4.63,1.81-2.82,2.82-5.53,4.63-8.01,1.69-2.26,3.39-4.74,5.64-7,1.24-1.24,3.05-1.69,4.63-2.93,2.26-1.81,3.39-4.51,5.64-6.32,2.14-1.69,4.63-3.16,7-4.96,3.95-3.16,6.88-5.64,11.96-8.01,1.81-.9,3.72-2.03,5.3-2.71,3.5-1.47,8.91-2.37,8.91-7.33,0-2.93-2.6-5.64-6.32-5.3-2.93.34-6.32,3.72-9.25,5.64-6.09,4.06-14.56,7.11-18.28,12.98-6.88,3.16-9.93,9.93-16.59,13.31.79-5.75,4.06-8.69,7.67-12.64,4.63-5.08,9.37-9.37,14.56-14.22,4.96-4.74,10.38-6.21,16.59-9.25,4.96.11,10.61-2.71,9.93-8.01-.68-5.87-9.14-5.75-12.98-2.03-.45-.79,1.47-2.48,2.71-3.61,8.35-8.46,19.63-16.59,31.48-21.55,23.36-14.67,61.61-25.28,93.54-17.26-6.32,1.35-13.43,1.24-19.86,1.69-2.82.23-5.08,1.24-7.67,1.69-7.67,1.13-15.68,2.03-23.58,3.95-1.81.45-3.95,1.35-5.98,2.03-14.33,4.29-29.56,10.61-40.85,16.25-3.27,1.69-9.82,5.53-9.93,7.67-.23,3.39,4.29,5.75,7,5.64s4.85-3.05,7.67-4.63c2.93-1.58,6.54-3.39,9.93-4.96,13.77-6.54,31.14-11.85,47.84-15.57,13.09-2.93,25.5-4.4,39.49-3.61,11.73.68,25.61.9,35.2,6.66,9.82.23,13.2,6.88,17.26,12.98-.56,1.13-2.71-1.69-3.61-2.37-3.84-1.47-8.01-2.6-11.28-4.63-5.75.11-9.93-2.48-14.56-2.93-5.3-.56-11.51.23-16.25-1.69-3.95.9-9.03.11-13.31,0-5.3-.11-10.38,1.02-15.57,1.35-17.04,1.13-33.06,5.53-46.83,10.94-8.01,5.3-21.78,8.91-31.82,14.89-3.05,1.81-8.12,4.4-8.35,7.33-.34,4.4,3.95,4.63,7.67,5.64,9.93-7.9,24.6-14.33,37.8-19.86,8.24-3.5,17.26-5.64,27.19-7.67,3.05-.56,6.09-1.92,8.91-2.37,9.37-1.24,19.29-.9,28.55-1.35,5.42-.23,11.85.56,17.6,1.35,3.27.45,6.66,2.26,9.93,2.93,4.06.9,4.96.9,8.35,2.71,1.47.79,3.27,1.35,4.29,2.03,2.48,1.58,3.72,3.61,7,3.27,3.72-.34,5.08-3.61,5.3-7,3.5,2.14,4.74,6.21,6.66,9.59,1.92,3.39,4.51,6.54,6.32,9.93,2.82,5.53,4.74,11.73,7.33,17.6,2.14,4.85,4.63,9.82,6.66,14.89,2.14,5.19,3.61,10.61,5.98,15.57,4.74,10.04,10.04,20.2,11.96,31.14-4.51,2.14-16.25-.45-17.6,4.29-.9,3.27,3.61,6.88,6.66,7,4.51.23,9.7-2.03,15.23-2.37,5.19-.23,11.17-.34,16.25.34,11.17,1.35,15.46,10.61,16.93,19.86.68,4.17-.11,6.66,2.37,9.59-1.47,11.62,15.12,6.21,21.55,10.61,1.92,2.48,4.17,4.63,3.5,9.7Z"/>
    <path class="cls-5" d="M425.37,182.35c-2.48-3.05-1.69-5.42-2.37-9.59-1.47-9.37-5.75-18.5-16.93-19.86-5.08-.68-11.06-.56-16.25-.34-5.53.34-10.72,2.48-15.23,2.37-3.05-.11-7.56-3.72-6.66-7,1.35-4.74,13.09-2.14,17.6-4.29-1.92-11.06-7.22-21.1-11.96-31.14-2.37-5.08-3.84-10.38-5.98-15.57-2.03-5.08-4.51-10.04-6.66-14.89-2.48-5.87-4.4-12.07-7.33-17.6-1.81-3.5-4.4-6.54-6.32-9.93-1.92-3.39-3.16-7.45-6.66-9.59-.23,3.39-1.58,6.66-5.3,7-3.16.23-4.4-1.81-7-3.27-1.13-.68-2.82-1.24-4.29-2.03-3.27-1.81-4.17-1.81-8.35-2.71-3.27-.68-6.66-2.6-9.93-2.93-5.75-.79-12.19-1.58-17.6-1.35-9.25.45-19.18.11-28.55,1.35-2.82.34-5.98,1.69-8.91,2.37-9.93,2.03-18.96,4.17-27.19,7.67-13.2,5.64-27.98,12.07-37.8,19.86-3.72-1.02-7.9-1.24-7.67-5.64.23-2.93,5.19-5.42,8.35-7.33,10.04-5.98,23.92-9.59,31.82-14.89,13.65-5.42,29.79-9.82,46.83-10.94,5.19-.34,10.27-1.47,15.57-1.35,4.29.11,9.37.9,13.31,0,4.74,1.81,10.94,1.02,16.25,1.69,4.63.56,8.8,3.05,14.56,2.93,3.27,2.03,7.45,3.16,11.28,4.63,1.02.68,3.16,3.39,3.61,2.37-3.95-6.09-7.45-12.75-17.26-12.98-9.59-5.64-23.47-5.98-35.2-6.66-13.99-.79-26.4.68-39.49,3.61-16.59,3.72-33.96,9.03-47.84,15.57-3.39,1.58-7,3.39-9.93,4.96-2.82,1.58-4.96,4.51-7.67,4.63-2.6.11-7.22-2.26-7-5.64.23-2.14,6.66-5.98,9.93-7.67,11.28-5.75,26.52-11.96,40.85-16.25,2.03-.56,4.17-1.58,5.98-2.03,7.9-1.92,15.91-2.82,23.58-3.95,2.6-.34,4.74-1.47,7.67-1.69,6.54-.45,13.65-.34,19.86-1.69-31.93-8.01-70.18,2.6-93.54,17.26-11.96,5.08-23.13,13.09-31.48,21.55-1.13,1.24-3.16,2.82-2.71,3.61,3.72-3.72,12.19-3.84,12.98,2.03.68,5.19-4.96,8.01-9.93,8.01-6.21,3.16-11.62,4.63-16.59,9.25-5.19,4.96-9.93,9.25-14.56,14.22-3.61,3.84-6.77,6.88-7.67,12.64,6.66-3.27,9.7-10.16,16.59-13.31,3.72-5.87,12.07-8.91,18.28-12.98,2.93-1.92,6.32-5.3,9.25-5.64,3.72-.34,6.32,2.37,6.32,5.3,0,4.96-5.42,5.75-8.91,7.33-1.58.68-3.5,1.81-5.3,2.71-5.08,2.37-8.01,4.85-11.96,8.01-2.26,1.92-4.85,3.27-7,4.96-2.26,1.81-3.39,4.51-5.64,6.32-1.58,1.24-3.39,1.81-4.63,2.93-2.26,2.14-3.95,4.74-5.64,7-1.81,2.48-2.82,5.08-4.63,8.01-1.02,1.69-3.72,2.71-4.29,4.63-.9,2.71.56,5.19-.34,7.33,4.06-3.5,6.88-8.12,10.27-12.3,3.39-4.06,6.66-8.58,10.61-12.3,7.67-7.11,17.49-11.28,25.84-17.94,3.16-1.02,6.21-2.26,8.35-4.29,7.45-4.17,11.85,5.64,5.98,9.93-22.34,7.45-38.59,20.87-49.76,39.49,8.69.23,16.02,3.61,22.57,7,.45-16.36,10.94-14.44,25.05-7.11,5.75,5.53,7.22,5.75,9.25,13.88,3.27,13.2-.11,23.58-11.73,25.73,1.81,6.32.68,12.52.34,17.94-.34,5.42-.68,9.14-2.03,13.65-2.48,8.58-6.09,14.56-9.59,20.87-6.66,6.21-15.01,10.94-21.89,16.93,1.02,3.16.68,7.79,3.27,9.25,2.26-2.03,2.26-5.42,4.96-7.33,5.98-4.29,18.73-2.26,22.57,2.71.79,1.02,1.13,2.6,1.69,4.29,1.24,3.72,2.71,7.33,1.69,12.3-4.06,8.12-8.91,15.35-21.55,14.89,5.08,15.12,8.01,30.8,16.93,42.43,6.43,0,9.37,9.14,7.33,15.57-1.13,3.61-4.96,4.96-5.64,7.33,1.35,4.29,3.39,6.77,5.64,10.27,4.51,7.11,9.25,14.22,14.56,20.2,5.19,5.87,12.07,11.73,18.62,16.25,2.37,1.69,4.51,3.72,6.66,4.96,3.72,2.14,8.01,2.93,11.28,5.64,17.15,6.77,37.12,11.06,58.79,12.64,7.9.56,16.93-2.03,22.57-1.02,2.26-2.37,8.8-1.58,9.25,2.03.68,4.29-4.96,9.93-6.66,15.57-2.03,7,1.58,13.65,4.96,18.28,3.39-1.69,4.63-5.19,8.91-4.29,5.87,1.13,3.61,8.8,2.93,13.65,4.74,3.05,9.37,1.24,12.64-1.35,6.21-4.74.68-6.66-2.03-11.62-1.02-1.92-2.14-4.51-2.71-6.66-2.6-10.72,1.35-17.94,4.29-26.85,1.58-.56,2.71-1.81,3.95-2.71,7.79-.9,11.85-4.51,18.96-6.66,20.54-13.2,36.9-29,50.78-50.1,7.9-12.07,13.65-26.29,17.26-40.85.68-2.6.34-5.19.68-7.67,2.14-16.14,2.71-36.11-3.95-49.08-14.56,5.75-22.23-6.88-25.5-17.6-7.67,3.72-16.25,11.28-24.6,4.29-4.06-3.39-5.87-12.86-3.95-18.96.56-2.03,3.72-6.32,5.98-8.58,2.71-2.93,4.63-5.98,7-7.67,2.6-1.92,7.56-2.71,7.67-4.96.11-2.6-6.66-5.87-9.59-6.32-6.43-1.02-11.73,2.14-17.6,2.93-2.6-1.47-7.11-3.16-4.96-7.33,7.56-2.26,16.59-6.54,25.27-4.96,9.93,1.81,16.7,9.82,20.87,17.26-.56,3.16-2.71,4.74-4.96,6.32-2.03-.11-3.95-.34-5.98.68-3.61,1.69-11.28,9.25-12.98,14.22-.9,2.82-1.81,9.37,1.69,10.61,5.98,2.14,13.31-9.25,16.25-12.98-.68-1.69.34-2.14.34-3.95,2.82-.68,4.51-2.37,8.35-2.03,4.96,3.61.9,10.04,1.02,15.23.11,4.96,2.48,8.91,4.29,11.62,1.24,1.92,2.37,4.29,5.3,4.96,3.84-3.16,8.24-7.11,9.93-12.3,1.47-4.29.34-14.56-1.35-17.94-1.24-2.48-4.17-3.27-3.95-5.98.23-3.72,5.08-4.29,8.35-3.61,4.63,3.72,6.43,10.16,7.33,17.6,1.35.79,2.03,2.37,4.29,2.37,8.35-7.22,5.64-19.63-2.37-24.26-3.27-1.81-7.67-1.58-7.33-5.98.11-1.35,1.35-2.71,2.37-3.27,6.09.11,10.94,3.5,15.57,5.98.68-5.08-1.58-7.33-3.27-9.93-6.54-4.29-23.02,1.13-21.66-10.38ZM212,251.97c.56,2.37,2.03,6.32-1.35,7-4.4.79-5.42-6.21-6.32-9.93-1.58-7.22-1.92-14.1-1.35-19.29-2.6.23-4.06,3.72-4.63,5.98-2.14,8.58-.68,21.21,2.03,28.55-2.14,4.29-6.21,1.58-7.67-2.03-3.72-8.91-2.14-28.1,2.03-35.88-6.54-5.64-11.96-11.06-13.99-21.55-2.37-12.07,4.74-25.39,9.93-32.83,2.82-2.6,7-3.95,11.28-5.3,1.58-.56,2.93-1.69,4.63-2.03,8.35-1.69,16.02,1.02,22.91,3.27,9.59,6.43,14.33,22.68,9.93,37.12,4.4-.34,8.58-1.92,13.65-1.69,6.43.34,11.96,1.02,17.6,3.61,4.29,5.19,10.16,8.91,10.94,17.6-1.92,2.37-6.66,4.74-9.25,1.69-2.26-9.7-10.38-15.35-21.89-14.56,1.92,2.26,4.85,5.08,8.01,8.58,4.29,4.74,12.07,12.3,0,13.65-.9-1.13-2.37-1.92-2.03-4.29-1.35-2.14-3.72-4.06-6.32-6.66-2.6-2.6-4.63-7.22-9.93-5.64,2.37,3.5,5.98,8.01,8.91,14.22,2.93,6.21,7.79,16.93-2.93,14.56-1.92-7.56-5.3-15.23-9.59-20.87-1.81-2.37-4.06-4.74-6.66-5.64-.68,2.37,2.14,4.63,3.27,7.33,1.13,2.71,2.03,7,3.27,10.61,2.26,6.54,6.32,16.59-3.95,14.56,0-6.54-2.93-11.06-4.63-16.25-1.24-3.95-1.81-8.01-4.63-10.61-6.09,8.12,4.17,21.33,2.37,30.58-6.32,4.51-6.43-2.82-8.35-8.58-1.13-3.5-2.93-8.35-3.27-10.94-.45-2.93.34-5.98-2.03-6.66-4.06,4.29-1.58,15.35,0,22.34ZM292,246.67c-1.58,5.08-7.33.23-11.62.68-3.16.34-5.87,3.95-6.66,7.33-1.02,4.29.56,10.04-.34,14.22-.68,3.27-3.27,3.72-4.29,6.66-5.08,3.5-10.04,5.75-18.62,4.29-4.74-.79-9.14-3.05-12.64-2.71-2.37.34-6.54,2.82-8.35,4.29-2.14,1.81-5.75,5.75-6.32,8.58-.56,3.05,1.47,5.75.34,8.35-1.02,2.26-5.3,3.39-8.58,2.03-4.17-14.67,6.09-24.26,15.57-28.89,2.82-1.35,4.74-2.71,8.01-2.93,7.9-.56,14.67,5.75,20.87,2.93,5.3-2.37,3.5-9.14,3.95-15.57.56-7.45,7.22-15.57,13.31-16.93,4.51-1.02,17.6.56,15.35,7.67ZM335.1,68.5c-4.4,2.93-10.61-2.71-13.99-3.61-3.95-1.13-8.8-1.81-13.65-2.71-13.09-2.48-28.55-3.16-43.1-2.03-10.72.9-21.21,4.17-30.24,7-9.93,3.16-18.28,7.33-26.52,10.94-2.71,1.24-6.77,3.61-9.59,5.3-4.63,2.82-7.56,8.46-13.31,3.95s1.69-8.69,6.66-11.62c3.39-2.03,7.56-4.06,10.27-5.3,7.33-3.27,15.23-7.67,21.55-9.93,6.21-2.26,12.86-3.39,18.62-4.96,4.29-1.13,9.25-3.05,14.56-3.61,5.64-.68,11.17-1.13,15.91-1.35.9,0,2.82.45,4.63.68,10.61,1.13,20.31-1.02,31.48,1.69,4.63,1.13,8.24,2.14,13.99,3.27,3.5.68,10.72,1.35,12.98,3.61,2.82,2.93,1.02,7.9-.23,8.69Z"/>
    <path d="M322.47,56.2c-5.75-1.13-9.37-2.26-13.99-3.27-11.17-2.6-20.87-.56-31.48-1.69-1.81-.23-3.84-.68-4.63-.68-4.74.11-10.27.68-15.91,1.35-5.3.56-10.27,2.48-14.56,3.61-5.75,1.58-12.41,2.71-18.62,4.96-6.32,2.26-14.22,6.66-21.55,9.93-2.71,1.24-6.88,3.39-10.27,5.3-4.96,2.93-12.3,7.11-6.66,11.62,5.75,4.51,8.58-1.13,13.31-3.95,2.82-1.69,6.88-4.06,9.59-5.3,8.24-3.72,16.59-7.9,26.52-10.94,9.03-2.82,19.41-6.09,30.24-7,14.56-1.24,30.13-.45,43.1,2.03,4.74.9,9.7,1.47,13.65,2.71,3.27,1.02,9.48,6.66,13.99,3.61,1.24-.79,3.05-5.75.34-8.58-2.26-2.37-9.59-3.05-13.09-3.72Z"/>
    <path class="cls-4" d="M159.19,181c-.56-9.14-4.51-16.93-9.59-22.57-2.03-2.26-4.96-5.53-7.67-7.33-2.48-1.69-7.56-4.63-9.93-5.3-1.81-.56-4.29,0-6.66-.34-1.13-.23-1.92-.9-2.93-1.02-6.66-.68-14.56,1.92-18.28,5.3,5.19,1.47,9.37,2.71,13.31,4.63,3.61,1.81,5.3,2.6,8.01,4.63,2.6,1.92,5.3,4.4,7,6.66,5.19,7,10.16,15.8,12.64,23.24.56,1.81,1.13,4.17,1.35,5.64,1.35,9.48,1.13,19.52-1.02,28.89,11.06-6.54,14.89-25.16,13.77-42.43Z"/>
    <path class="cls-4" d="M130.31,231.78c4.96-6.43,7.22-19.86,6.32-30.24-.79-9.82-4.74-17.6-8.35-23.58-3.72-6.32-8.58-10.94-14.56-14.56-2.26-1.35-4.96-3.05-6.66-3.61-11.17-3.95-24.71-.56-32.16,4.63-5.75,4.06-10.49,11.62-13.31,17.94-5.98,13.65-3.05,29.56,2.37,40.85,9.7,20.2,32.38,30.24,57.43,18.62,1.92-4.85,6.43-6.77,8.91-10.04ZM108.08,239.11c-15.8,5.87-32.38-6.66-37.8-16.59-7.9-14.44-7.33-34.19,1.02-47.5,3.95-6.21,9.14-8.58,18.96-9.93,14.44-2.03,25.61,5.87,30.92,13.31,3.72,5.42,8.24,15.68,9.25,22.91,2.37,17.04-8.35,32.61-22.34,37.8Z"/>
    <path d="M214.03,236.4c.45,2.6,2.14,7.45,3.27,10.94,1.92,5.75,2.03,13.09,8.35,8.58,1.92-9.25-8.35-22.45-2.37-30.58,2.82,2.6,3.39,6.66,4.63,10.61,1.69,5.3,4.74,9.7,4.63,16.25,10.27,1.92,6.32-8.12,3.95-14.56-1.24-3.61-2.14-7.9-3.27-10.61s-3.95-4.85-3.27-7.33c2.6.9,4.85,3.27,6.66,5.64,4.4,5.75,7.67,13.31,9.59,20.87,10.83,2.37,5.87-8.35,2.93-14.56-2.93-6.21-6.54-10.72-8.91-14.22,5.3-1.58,7.33,3.05,9.93,5.64,2.48,2.6,4.96,4.51,6.32,6.66-.34,2.48,1.02,3.16,2.03,4.29,12.07-1.35,4.29-8.91,0-13.65-3.16-3.5-6.09-6.32-8.01-8.58,11.51-.68,19.75,4.85,21.89,14.56,2.6,3.05,7.45.68,9.25-1.69-.9-8.69-6.66-12.41-10.94-17.6-5.64-2.71-11.17-3.27-17.6-3.61-4.96-.34-9.25,1.24-13.65,1.69,4.4-14.56-.34-30.69-9.93-37.12-6.88-2.37-14.56-4.96-22.91-3.27-1.69.34-3.05,1.47-4.63,2.03-4.29,1.35-8.46,2.71-11.28,5.3-5.3,7.45-12.3,20.76-9.93,32.83,2.03,10.61,7.45,16.02,13.99,21.55-4.06,7.79-5.64,26.85-2.03,35.88,1.47,3.5,5.53,6.32,7.67,2.03-2.6-7.33-4.17-19.97-2.03-28.55.56-2.26,2.03-5.75,4.63-5.98-.56,5.19-.23,11.96,1.35,19.29.79,3.72,1.92,10.83,6.32,9.93,3.39-.68,1.92-4.63,1.35-7-1.58-7-4.06-18.17,0-22.23,2.26.56,1.47,3.61,2.03,6.54ZM208.62,219.81c-7.67.23-14.78-6.09-16.59-12.64-2.14-8.01-.23-18.62,3.95-23.58,4.85-5.75,9.03-8.8,18.28-9.59,11.51-1.02,17.83,11.06,16.25,23.24-1.35,11.62-11.96,22.34-21.89,22.57Z"/>
    <path d="M130.31,201.2c-1.02-7.22-5.53-17.49-9.25-22.91-5.19-7.45-16.47-15.35-30.92-13.31-9.82,1.47-15.01,3.72-18.96,9.93-8.35,13.2-8.91,33.06-1.02,47.5,5.53,9.93,22,22.45,37.8,16.59,14.1-5.08,24.82-20.65,22.34-37.8ZM118.01,228.5c-4.29,4.4-11.73,9.48-20.54,8.91-5.98-.34-12.64-4.29-16.93-8.35-2.71-2.48-6.66-7-8.35-10.61-5.75-12.3-5.75-33.4,3.61-44.12,4.29-3.27,9.82-5.64,15.91-6.32,8.12-.79,16.47,2.48,20.87,5.98,6.32,4.96,13.31,19.52,13.99,30.24.56,9.14-2.82,18.28-8.58,24.26Z"/>
    <path class="cls-3" d="M112.71,174c-4.4-3.5-12.86-6.77-20.87-5.98-6.09.56-11.62,3.05-15.91,6.32-9.37,10.72-9.37,31.82-3.61,44.12,1.69,3.61,5.64,8.12,8.35,10.61,4.29,4.06,10.94,8.01,16.93,8.35,8.8.45,16.25-4.51,20.54-8.91,5.75-5.87,9.14-15.12,8.58-24.26-.56-10.61-7.67-25.27-13.99-30.24Z"/>
    <path class="cls-4" d="M230.62,197.25c1.47-12.19-4.74-24.26-16.25-23.24-9.25.9-13.43,3.84-18.28,9.59-4.17,4.96-6.09,15.57-3.95,23.58,1.81,6.54,8.91,12.86,16.59,12.64,9.82-.23,20.42-10.94,21.89-22.57Z"/>
    <path d="M276.66,239.11c-5.98,1.35-12.75,9.48-13.31,16.93-.45,6.43,1.35,13.2-3.95,15.57-6.21,2.71-13.09-3.61-20.87-2.93-3.27.23-5.19,1.58-8.01,2.93-9.48,4.63-19.86,14.22-15.57,28.89,3.27,1.35,7.67.23,8.58-2.03,1.13-2.48-.9-5.3-.34-8.35.56-2.93,4.17-6.88,6.32-8.58,1.69-1.47,5.98-4.06,8.35-4.29,3.5-.45,7.9,1.81,12.64,2.71,8.58,1.47,13.54-.79,18.62-4.29,1.02-2.93,3.61-3.27,4.29-6.66.9-4.29-.68-9.93.34-14.22.79-3.27,3.5-7,6.66-7.33,4.29-.45,10.04,4.4,11.62-.68,2.26-7.22-10.83-8.8-15.35-7.67Z"/>
    <path class="cls-5" d="M152.2,272.96c10.72-.11,9.7-22.45-2.37-18.96-7.56,2.26-5.98,18.96,2.37,18.96Z"/>
    <path class="cls-5" d="M125.68,280.18c.34-2.03,1.47-2.48,1.69-3.61,2.14-13.54-17.6-10.83-17.6,0,0,4.29,2.93,8.12,8.35,8.01,2.37-1.58,5.42-2.6,7.56-4.4Z"/>
    <path class="cls-5" d="M130.99,303.09c.9-.9,3.84-5.75,3.95-6.32,1.02-3.5-.11-8.8-3.61-8.91-4.17.68-5.53,4.06-9.93,4.29-2.37,2.82-6.88,7.79-2.93,11.96,3.72,1.35,9.37,1.92,12.52-1.02Z"/>
    <path class="cls-5" d="M124.67,315.05c-2.71,7.56,7.45,8.58,11.96,5.64,3.95-2.6,5.75-8.69,3.95-11.96-5.98.11-10.04,4.96-15.91,6.32Z"/>
    <path class="cls-4" d="M161.23,333.66c-5.75,1.35-11.06,3.05-15.57,5.64,2.03,2.14,2.26,5.3,5.3,5.64,3.05.34,5.3-2.82,8.58-2.93,1.81-1.58,4.74-6.09,1.69-8.35Z"/>
    <path class="cls-5" d="M290.31,426.64c-2.82,3.95-7,9.59-5.3,15.91,2.82-1.13,4.06-4.63,7.67-3.95,1.58.23,3.5,2.6,3.95,4.29,1.24,4.4-1.47,8.91-2.93,11.96,1.81,1.35,5.3-.11,8.01-.68-3.39-6.88-7.33-18.96-2.93-27.53-2.93-.68-5.19,0-8.46,0Z"/>
    <path class="cls-5" d="M291.66,441.54c-3.27,1.24-4.29,4.74-5.3,8.35,3.16,8.12,10.27-4.63,5.3-8.35Z"/>
    <path class="cls-5" d="M319.87,449.55c-4.96.23-6.09,9.14,0,8.91,1.02-1.69,2.6-7.67,0-8.91Z"/>
    <path class="cls-2" d="M286.7,476.06c1.81-1.13,3.27-2.71,4.96-3.61,5.87-3.27,12.98-4.63,19.63-7.33-3.05-5.75-13.31-.56-19.86-.34-2.93.11-5.87-1.13-8.58-1.02-3.84.11-7.56.68-11.28,1.02-4.96.45-8.35,2.37-11.96,3.27-.79.23-2.14,0-2.93.34-5.08,1.69-13.77,7.79-14.56,12.98-.79,5.08,6.32,8.58,9.59,9.25,1.02.23,2.6-.34,3.95,0,.9.23,1.81.9,2.71,1.02,2.71.23,8.91-.79,11.62-1.35,3.39-.68,3.95-3.95,6.32-6.32,1.81-1.81,3.72-3.5,5.3-4.96,1.24-1.35,3.16-1.81,5.08-2.93Z"/>
    <path class="cls-2" d="M315.58,473.35c-5.42-.45-9.14,2.6-13.31,4.29-3.05,1.24-6.09,1.92-8.35,3.27-4.29,2.71-8.01,6.21-10.94,10.61-.23.34.11,1.24-.34,2.03-.34.68-1.13.45-1.35,1.02-3.72,9.7,18.28,9.03,27.53,8.01,3.95-.45,9.14-1.92,14.89-2.93,7-1.24,13.99-3.95,19.29-5.98,3.27-1.24,6.66-1.81,8.91-2.93.9-.45,1.81-1.92,3.27-2.71.79-.45,2.14-.23,2.93-.68,1.69-.79,3.95-2.14,4.96-2.93,6.88-5.53,0-11.28-4.29-14.56-3.84-3.05-6.88-5.53-10.94-7.67-.23,0-.34,0-.34.34-5.42,3.61-12.98,8.91-20.87,9.93-3.5.45-7.33-1.47-11.06.9Z"/>
  </g>
  <path d="M235.24,92.65c-.23-.9-1.24-.9-2.37-.79-4.29,4.4-8.91,9.48-14.67,13.09-1.35.9-3.05,1.24-4.51,2.14-3.5,2.14-6.54,4.51-10.38,5.64-1.13.34-2.82-.45-3.16,1.35,1.13,2.03,4.17.56,6.43.56-5.98,13.43,4.63,30.01,16.81,30.47,7.11.23,12.07-4.06,14.44-9.93,1.81-4.4,3.27-8.69,2.14-16.02-1.24-8.01-7-12.52-15.23-14.67,2.71-4.4,9.03-6.77,10.49-11.85Z"/>
</svg>