<?xml version="1.0" encoding="UTF-8"?>
<svg id="Layer_1" data-name="Layer 1" xmlns="http://www.w3.org/2000/svg" viewBox="0 0 512 512">
  <defs>
    <style>
      .cls-1 {
        fill: #030303;
      }

      .cls-2 {
        fill: #de1483;
      }

      .cls-3 {
        fill: #3d2682;
      }

      .cls-4 {
        fill: #3cb6a7;
      }
    </style>
  </defs>
  <g id="WNAuA6.tif">
    <g>
      <path d="M91.96,176.79c2.2-3.54,1.48-7.63,1.91-11.45.46-4.04,1.79-7.32,4.59-10.26,20.64-21.7,46.29-34.53,74.69-42.55,13.16-3.72,26.62-5.78,40.19-7.4-2.36-9.75-.64-14.34,7.78-20.27,1.95-1.38,2.86-2.14,1.46-4.85-17.36-33.86-.15-69.46,37.86-77.85,20.29-4.48,39.25-1.56,55.69,12.44,7.86,6.7,16.03,13.05,24.24,19.32,14.81,11.32,31.28,12.87,48.75,7.8,2.3-.67,4.78-2.35,6.92-.36,2.52,2.34.41,5.02-.49,7.28-7.53,18.89-23.16,27.08-41.74,31.25-12.26,2.75-22.44-.09-29.97-10.77-3.24-4.59-8.01-7.18-13.41-8.66-4.42-1.22-8-.03-10.6,3.68-4.58,6.53-6.16,14.97-12.93,20.15-1.28.98.12,1.73.94,2.31,2.43,1.72,5.01,3.26,7.27,5.17,4.83,4.09,8.04,9.23,5.94,15.66-1.18,3.63.48,3.61,2.85,4.16,25.79,6.02,50.58,14.76,74.09,27.06,12.89,6.75,25.14,14.46,36.97,22.92,3.03,2.17,4.25,4.74,4.51,8.31,3.42,47.56-8.93,90.78-35.75,129.96-1.96,2.86-2.47,4.94-1.18,8.41,5.41,14.5,2.33,27.6-8.17,38.78-2.6,2.77-3.64,4.43-1.23,8.08,4.61,6.99,4.61,14.99,2.5,22.82-2.3,8.53-9.58,11.87-17.58,8.29-1.83-.82-2.93-1.03-4.58.35-5.31,4.47-10.89,5.32-16.59.58-.27-.22-.52-.49-.83-.65-.69-.34-16.71,3.62-17.22,4.24-12.34,15.05-26.47,27.95-44.01,36.74-1.96.98-2.22,2.28-2.06,4.2.62,7.68,1.24,15.36,1.6,23.06.17,3.6,1.18,4.67,4.99,3.83,10.03-2.21,20.14-2.36,30.14.42,5.64,1.57,10.75,4.17,15.03,8.23,8.02,7.62,8.24,18.04.63,26.09-8.34,8.82-19.17,12.01-30.72,12.94-16.17,1.31-31.78-.96-46.15-9.08-1.97-1.11-3.57-1.31-5.7.09-14.09,9.26-29.84,13.37-46.48,14.53h-10.64c-8.28-.59-16.29-2.26-23.45-6.68-12.09-7.45-13.06-21.57-2.23-30.78,5.31-4.52,11.53-7.18,18.13-9.07,10.03-2.88,20.4-2.74,30.68-3.43,2.06-.14,4.65.37,4.33-3.41-.83-9.94-1.41-19.9-2-29.86-.15-2.6-1.42-4.06-3.69-5.15-19.46-9.27-34.54-23.57-46.79-41.09-2.51-3.59-11.57-6.17-15.75-4.65-7.4,2.68-20.73.48-25.36-8.17-3.94-7.36-5.55-14.73-2.7-22.64.99-2.74.75-4.19-1.73-5.98-7.22-5.21-12.6-12.07-16.44-20.12-6.86-14.38-4.26-31.39,6.9-41.56,2.93-2.67,2.88-4.77,1.86-8-5.43-17.19-9.78-34.63-12.57-52.48-.92-5.9-.37-12.05-2.74-17.73v-4.21c1.73-4.91,1.69-9.83,0-14.74,0-1.75,0-3.51,0-5.26ZM259.28,84.08c-5.97-1.63-11.95-1.69-17.92.02-7.81.71-14.98,3.09-20.57,8.83-3.5,3.6-3.95,7.56.07,11.31.71.99,1.78.97,2.82.96,9.73-.05,19.46-.12,29.19-.19,12,.71,23.94,1.9,35.76,4.2,4.75.93,6.21-.58,6.33-5.56.12-5-3.48-7.55-6.84-9.82-8.67-5.87-18.41-8.94-28.85-9.75ZM285.35,7.26c-5.89-1.75-11.77-1.65-17.66,0-7.07-.34-13.5,2.15-19.37,5.53-24.95,14.36-35.2,36.65-21.63,64.36.96,1.96,1.7,4.53,4.82,3.74,4.02-1.03,8.02-2.16,12.03-3.25,4.47,0,8.93,0,13.4.01,5.56,1.24,11.21,2.19,16.65,3.82,4.23,1.26,7.34.14,10.46-2.57,4-3.48,5.58-8.33,7.81-12.82,5.93-11.97,14.74-14.73,26.74-8.61,5.15,2.62,8.58,7.03,12.52,10.95,2.26,2.25,4.04,5.48,8,5.19,4.06,2.15,8.33.84,12.52.75,15.98-3.32,29.7-9.86,37.82-25.55-1.25-.31-1.58-.47-1.91-.46-.52.01-1.04.1-1.54.22-15.38,3.61-29.92,1.97-43.64-6.37-10.52-6.39-19.39-14.85-29-22.39-8.34-6.55-16.88-12.4-28.03-12.55ZM99.3,202.98c-.66,7.56,1.43,14.86,2.13,22.28.3,3.12,1.93,4.34,5.21,4.29,8.76-.15,17.32-1.63,25.63-4.11,51.07-15.27,88.71-47.16,114.41-93.53,3.45-6.22,6.26-12.88,6.23-20.28-.4-2.21-2.13-1.12-3.19-1.13-10.15-.1-20.3-.11-30.46-.04-1.85.01-3.88-.46-5.49,1.03-8.41-.42-16.54,1.54-24.67,3.16-28.22,5.6-54.08,16.44-76.58,34.76-8.44,6.88-15.1,14.46-13.23,26.42-1.68,9.05-1.69,18.1,0,27.15ZM242.36,489.63c2.05-4.56,1.12-9.11,0-13.67-.05-1.48-.1-2.96-.16-4.44.18-3.97.58-7.95-.83-11.81.25-9.48-1.62-18.76-2.78-28.1-.27-2.18-1.05-4.5,1.75-5.14,3.14-.73,2.93,2.21,3.5,4.09.3.99.46,2.03.59,3.06,1.13,9.52,2.23,19.03,3.34,28.55-.17,4.17-.46,8.34.9,12.39-.01,2.46-.02,4.91-.03,7.36q-.06,9.23,8.28,12.85c13.5,5.84,27.64,7.08,41.98,4.98,8.14-1.19,15.94-3.97,21.83-10.32,5.55-5.99,5.25-13.05-.86-18.43-4-3.52-8.7-5.77-13.93-6.81-9.56-1.9-19.04-1.46-28.53.7-3.05.69-6.59,2.31-8.83-1.76-.02-4.17.44-8.38-.98-12.44-.05-1.49-.1-2.97-.15-4.46.14-3.88.67-7.8-.87-11.56,0-2.1.06-4.21-.05-6.31-.11-2.12.45-3.42,2.61-4.48,17.09-8.35,31.23-20.44,43.54-34.83,2.51-2.93,3.9-5.35,1.24-9-1.69-2.32-1.4-5.28-.59-8.09,1.29-4.47,3.57-8.35,6.67-11.76,1.47-1.61,1.97-2.57-.75-3.66-5.5-2.21-8.91-6.39-8.43-12.53.48-6.08,5.82-11,12.28-12.67,7.1-1.84,12.61,1.07,17.56,5.54,1.97,1.78,3.19,1.99,5.17.06,6.17-6.02,8.57-12.92,5.94-21.38-1.39-4.48-4.09-8.04-7.07-11.49-1.05-1.22-2.04-2.42-.37-4.05,1.68-1.64,2.93-.51,4.02.52,11.71,11.17,14.42,30.21-.55,40.87-3.44,2.45-6.3,3.11-9.59-.07-2.52-2.44-5.41-4.29-9.06-4.91-4.78-.81-8.68.36-11.48,4.37-1.69,2.42-2.52,5.13-.5,7.77,3,3.93,7.29,4.79,11.73,3.72,2.14-.51,3.91-.86,4.9,1.15,1.23,2.49-1.23,3.22-2.72,4.28-5.33,3.8-10.07,8.03-12.34,14.52-1.2,3.43-.77,6.23,1.93,8.53,2.96,2.53,6.22,2.97,9.64.75,4.47-2.91,6.97-7.18,8.83-12.05,1.1-2.86.64-5.89,1.49-8.72.44-1.45.79-3.26,3.03-2.83,1.89.37,1.66,1.92,1.77,3.31.47,6.01-1.65,11.3-4.37,16.47-.67,1.27-2.73,2.39-1.43,4.05,1.3,1.66,3.28,2.58,5.56,2.44,3.37-.21,5.34-2.27,6.74-5.09,3.12-6.28,3.04-12.69,1.05-19.29-.5-1.65-1.44-4.23,1.25-4.89,2.33-.57,3.14,1.62,3.8,3.49,2.04,5.8,1.56,11.73.73,17.64-.24,1.71-1.44,3.46.87,4.5,2.2.99,4.4,2.25,6.91.58,2.74-1.82,3.84-4.55,4.1-7.57.65-7.33,0-14.39-5.64-19.96-2.01-1.99-1.44-3.3.45-5.12,16.71-16.09,18.22-31.6,5.08-50.31-1.05-1.5-3.15-3.13-1.2-4.98,2.2-2.08,3.98-.06,5.1,1.67,2.19,3.34,3.74,3.18,5.91-.12,8.84-13.47,16.19-27.67,22.02-42.7,1.53-3.95.74-5.46-3.31-6.52-53.92-14.05-93.35-48.09-125.6-91.83-7.21-9.78-12.44-20.72-16-33.75-1.79,4.28-2.85,7.37-4.32,10.25-15.05,29.54-35.54,54.48-63.04,73.21-24.94,16.98-51.66,29.66-82.46,31.27-4.49.23-3.42,2.96-2.78,5.4,2.92,11.25,5.48,22.62,9.47,33.56,1.07,2.94.81,4.5-1.9,6.49-9.1,6.7-12.51,16.23-11.37,27.18,1.46,13.91,9.66,23.67,20.86,31.15,3.32,2.22,4.64,3.86,1.89,7.82-4.63,6.66-3.04,17.95,3,23.14-.64-2.14-1.19-3.74-1.6-5.39-1.18-4.66-1.44-9.31.49-13.86.7-1.65,1.55-3.38,3.79-2.73,2.52.73,1.84,2.88,1.18,4.33-1.25,2.74-.91,5.55-.77,8.29.41,7.98,5.47,12.91,12.39,12.08-.66-1.14-1.28-2.17-1.86-3.22-3.31-5.97-5.19-12.21-3.11-19.01.71-2.32,2.08-5.15,4.92-4.14,2.73.97.99,3.44.33,5.4-2.03,6.04.77,15.24,5.85,18.91,2.06,1.49,4.29,3.38,7.13,1.81,2.67-1.48,3.7-3.9,3.81-6.96.22-6.66-1.56-12.4-6.86-16.76-1.28-1.05-2.39-2.41-1.38-4.07,1.07-1.76,2.71-.96,4.18-.33,1.76.75,3.48,1.66,5.31,2.2,5.96,1.74,11.82,0,13.54-3.87,1.6-3.61-.42-8.91-4.94-11.61-6.19-3.71-12.33-2.9-18.16,1.1-1.71,1.17-3.27,2.74-5.67,1.69-7.62-3.37-14.66-7.41-18.95-15.04-4.92-8.75-4.59-21.31.95-26.98,1.05-1.08,2.07-2.68,3.93-1.19,1.57,1.26,1.27,2.81.31,4.19-1.2,1.73-2.37,3.39-2.85,5.52-2.22,9.99,2.32,21.26,15.05,26.88,2.33,1.03,4.08,1.34,6.2-.17,4.33-3.09,9.25-3.79,14.45-3.39,9.81.74,18.04,11.98,14.78,20.41-2.05,5.29-6.07,7.9-11.71,8.07-3.76.11-6.08.82-3.86,5.54,2.07,4.42,1.79,9.29-.32,13.7-1.17,2.44-.86,4.05.6,6.18,12.49,18.26,27.75,33.28,48.45,42.02,2.47,1.04,3.85,2.62,4.07,5.44.5,6.26,1.23,12.5,1.87,18.75-.17,5.01-.59,10.04.83,14.97.21,8.9.19,8.66-8.52,9.62-4.72.52-9.42.27-14.11.64-9.55.76-19.15,1.74-27.64,6.73-5.66,3.33-11.28,7.31-10.55,14.92.72,7.5,6.81,10.41,12.94,12.9.32.13.69.11,1.02.21,14.64,4.55,29.21,3.06,43.67-.75,9.61-2.52,18.91-5.85,26.4-12.83ZM413.76,185.94c0-1.4-.24-2.86.04-4.2,2.3-11.02-3.33-17.09-12.11-22.77-32.44-20.96-67.49-35.28-105.18-43.15-10.17-2.13-20.44-3.97-30.89-4.42-3.15-.14-3.76,1.07-3.37,3.83,1.35,9.45,4.69,18.18,9.54,26.34,12.47,20.99,29.01,38.44,47.08,54.66,23.68,21.27,50.61,36.31,81.38,44.51,4.29,1.14,6.15-.02,7.21-4.22,4.21-16.61,6.99-33.37,6.29-50.58Z"/>
      <path d="M91.96,182.05c1.69,4.91,1.73,9.83,0,14.74v-14.74Z"/>
      <path class="cls-4" d="M218.31,443.23c-.64-6.25-1.38-12.49-1.87-18.75-.22-2.82-1.6-4.4-4.07-5.44-20.7-8.74-35.96-23.75-48.45-42.02-1.46-2.13-1.77-3.74-.6-6.18,2.11-4.41,2.39-9.28.32-13.7-2.22-4.72.1-5.43,3.86-5.54,5.63-.17,9.66-2.77,11.71-8.07,3.26-8.43-4.97-19.67-14.78-20.41-5.21-.39-10.12.31-14.45,3.39-2.12,1.51-3.87,1.2-6.2.17-12.74-5.62-17.27-16.89-15.05-26.88.47-2.13,1.65-3.8,2.85-5.52.96-1.38,1.26-2.93-.31-4.19-1.85-1.49-2.87.12-3.93,1.19-5.54,5.67-5.87,18.23-.95,26.98,4.3,7.64,11.33,11.68,18.95,15.04,2.4,1.06,3.95-.51,5.67-1.69,5.83-4,11.97-4.81,18.16-1.1,4.51,2.7,6.54,8,4.94,11.61-1.72,3.87-7.58,5.6-13.54,3.87-1.83-.53-3.55-1.44-5.31-2.2-1.47-.63-3.11-1.43-4.18.33-1.01,1.65.1,3.01,1.38,4.07,5.3,4.36,7.08,10.1,6.86,16.76-.1,3.06-1.14,5.48-3.81,6.96-2.84,1.57-5.08-.32-7.13-1.81-5.07-3.67-7.88-12.87-5.85-18.91.66-1.96,2.4-4.43-.33-5.4-2.84-1.01-4.21,1.82-4.92,4.14-2.08,6.8-.2,13.05,3.11,19.01.58,1.05,1.2,2.08,1.86,3.22-6.92.83-11.97-4.1-12.39-12.08-.14-2.74-.48-5.55.77-8.29.66-1.45,1.34-3.6-1.18-4.33-2.24-.65-3.09,1.09-3.79,2.73-1.93,4.55-1.67,9.2-.49,13.86.42,1.64.96,3.25,1.6,5.39-6.04-5.19-7.63-16.48-3-23.14,2.75-3.96,1.44-5.6-1.89-7.82-11.2-7.48-19.4-17.24-20.86-31.15-1.15-10.95,2.27-20.48,11.37-27.18,2.71-1.99,2.97-3.55,1.9-6.49-3.99-10.94-6.55-22.31-9.47-33.56-.63-2.44-1.71-5.17,2.78-5.4,30.8-1.61,57.51-14.29,82.46-31.27,27.5-18.72,47.99-43.66,63.04-73.21,1.47-2.88,2.53-5.97,4.32-10.25,3.56,13.03,8.79,23.97,16,33.75,32.25,43.74,71.68,77.78,125.6,91.83,4.05,1.05,4.84,2.57,3.31,6.52-5.83,15.03-13.18,29.23-22.02,42.7-2.17,3.3-3.72,3.46-5.91.12-1.13-1.72-2.9-3.75-5.1-1.67-1.94,1.84.15,3.47,1.2,4.98,13.14,18.71,11.63,34.22-5.08,50.31-1.89,1.82-2.46,3.14-.45,5.12,5.63,5.57,6.29,12.62,5.64,19.96-.27,3.02-1.37,5.74-4.1,7.57-2.52,1.67-4.71.42-6.91-.58-2.3-1.04-1.11-2.79-.87-4.5.83-5.9,1.32-11.83-.73-17.64-.66-1.87-1.46-4.06-3.8-3.49-2.69.66-1.75,3.24-1.25,4.89,1.99,6.6,2.07,13.01-1.05,19.29-1.4,2.82-3.37,4.88-6.74,5.09-2.27.14-4.26-.78-5.56-2.44-1.3-1.65.77-2.78,1.43-4.05,2.72-5.17,4.85-10.46,4.37-16.47-.11-1.39.12-2.94-1.77-3.31-2.24-.44-2.6,1.37-3.03,2.83-.85,2.83-.39,5.86-1.49,8.72-1.87,4.86-4.37,9.14-8.83,12.05-3.41,2.22-6.67,1.78-9.64-.75-2.69-2.3-3.13-5.1-1.93-8.53,2.28-6.49,7.01-10.72,12.34-14.52,1.49-1.07,3.95-1.79,2.72-4.28-.99-2.01-2.75-1.67-4.9-1.15-4.45,1.07-8.73.21-11.73-3.72-2.02-2.64-1.19-5.35.5-7.77,2.8-4.01,6.7-5.18,11.48-4.37,3.65.62,6.54,2.47,9.06,4.91,3.29,3.18,6.15,2.52,9.59.07,14.98-10.66,12.26-29.71.55-40.87-1.08-1.03-2.33-2.16-4.02-.52-1.67,1.63-.69,2.83.37,4.05,2.98,3.45,5.68,7.01,7.07,11.49,2.63,8.47.23,15.36-5.94,21.38-1.98,1.93-3.21,1.72-5.17-.06-4.95-4.47-10.46-7.37-17.56-5.54-6.46,1.67-11.8,6.59-12.28,12.67-.49,6.15,2.92,10.33,8.43,12.53,2.71,1.09,2.21,2.05.75,3.66-3.11,3.41-5.39,7.29-6.67,11.76-.81,2.81-1.1,5.76.59,8.09,2.66,3.65,1.27,6.06-1.24,9-12.32,14.4-26.45,26.48-43.54,34.83-2.16,1.06-2.73,2.35-2.61,4.48.11,2.1.04,4.21.05,6.31.4,3.84-1.05,7.83.87,11.56.05,1.49.1,2.97.15,4.46.55,4.13-1.11,8.43.98,12.44,2.24,4.07,5.78,2.45,8.83,1.76,9.49-2.16,18.97-2.61,28.53-.7,5.23,1.04,9.93,3.29,13.93,6.81,6.11,5.37,6.41,12.44.86,18.43-5.89,6.36-13.69,9.13-21.83,10.32-14.34,2.1-28.48.86-41.98-4.98q-8.33-3.6-8.28-12.85c.02-2.46.02-4.91.03-7.36-.52-4.11,1.04-8.38-.9-12.39-1.11-9.52-2.21-19.04-3.34-28.55-.12-1.03-.29-2.07-.59-3.06-.57-1.87-.35-4.81-3.5-4.09-2.8.64-2.02,2.96-1.75,5.14,1.16,9.34,3.03,18.62,2.78,28.1.34,3.93-1.07,7.99.83,11.81.05,1.48.1,2.96.16,4.44,0,4.56,0,9.11,0,13.67-7.48,6.98-16.79,10.31-26.4,12.84-14.46,3.8-29.03,5.3-43.67.75-.33-.1-.71-.08-1.02-.21-6.13-2.49-12.23-5.4-12.94-12.9-.73-7.61,4.89-11.6,10.55-14.92,8.48-4.99,18.09-5.97,27.64-6.73,4.68-.37,9.39-.12,14.11-.64,8.7-.96,8.73-.72,8.52-9.63-.34-4.99,1.09-10.07-.83-14.97ZM254.92,356.99c5.6-1.21,11.32-1.92,16.64-4.23,28.87-12.54,42.25-36.06,46.41-65.96.46-3.31.8-4.62,4.62-3.85,4.49.91,8.24-.88,11.05-4.48-12.62,5.47-19.73-2.05-26.61-11.44-.27,4.95-.25,4.93,2.39,8.3,1.59,2.04,3.61,3.86,3.26,6.87-1.79,15.66-6.15,30.35-15.63,43.24-15.79,21.47-41.18,30.88-64.91,22.67-22.75-7.86-35.71-25.27-42.31-47.84-1.07-3.65-1.36-7.51-2.25-11.22-.52-2.17-.23-5.53-3.87-5.01-3.75.53-2.22,3.79-2.28,5.97-.05,1.69.58,3.41.93,5.11,3.56,17.17,10.9,32.27,23.91,44.38,10.28,9.57,22.39,15.17,36.13,17.49,4.16,1.47,8.33,1.46,12.5,0ZM245.36,237.51c-11.24-.1-19.75,8.1-19.84,19.13-.09,11.03,9.6,21.04,20.45,21.11,10.53.07,19.52-9.06,19.53-19.84.01-11.19-8.98-20.29-20.14-20.4ZM242.4,205.62c-5.55-.4-10.09-2.95-14.09-6.69-2.03-1.9-4.16-3.88-6.6-5.11-4.02-2.03-8.17-2.33-11.69,1.65,6.26-2.22,11.19-.4,15.61,4.16,1.87,1.93,1.96,3.31.44,5.29-2.9,3.75-3.85,8.08-3.74,12.78.15,6.4,2.73,10.88,6.74,10.7,6.04-.26,5.97-5.49,6.91-9.52.62-2.68.32-5.58.44-8.38.16-3.88,5.4-1.01,6-4.88ZM265.25,221.42c-.86,2.28,1.57,4.54,2.76,7.13,1.07,2.33,2.94,4.08,5.63,3.94,2.64-.13,4.54-1.86,5.43-4.3,2.25-6.16,3.28-12.4.54-18.73-1.7-3.95-5.78-4.85-8.73-1.56-3.13,3.48-5.28,7.6-5.63,13.52ZM295.74,197.18c1.4,2.21,3.1,2.21,4.44,2.65,9.64,3.22,11.38,7.12,7.49,16.51-.72,1.75-3.07,4.52-1.4,5.34,2.91,1.44,3.54-2.36,4.98-4.11.43-.52.67-1.24.85-1.9,1.3-4.84,2.06-9.7-1.99-13.68-3.82-3.75-8.4-5.39-14.36-4.81Z"/>
      <path class="cls-3" d="M252.92,111.63c.03,7.41-2.79,14.06-6.23,20.28-25.7,46.37-63.35,78.26-114.41,93.53-8.31,2.48-16.87,3.96-25.63,4.11-3.28.06-4.92-1.16-5.21-4.29-.71-7.43-2.8-14.73-2.13-22.28,0-9.05,0-18.1,0-27.15-1.87-11.96,4.79-19.55,13.23-26.42,22.5-18.32,48.36-29.16,76.58-34.76,8.14-1.61,16.26-3.57,24.67-3.16,13.05.05,26.09.09,39.13.14Z"/>
      <path class="cls-3" d="M413.76,185.94c.7,17.21-2.08,33.97-6.29,50.58-1.06,4.2-2.92,5.36-7.21,4.22-30.77-8.2-57.7-23.24-81.38-44.51-18.07-16.23-34.6-33.67-47.08-54.66-4.85-8.15-8.19-16.88-9.54-26.34-.39-2.76.22-3.97,3.37-3.83,10.45.45,20.72,2.29,30.89,4.42,37.69,7.88,72.74,22.2,105.18,43.15,8.78,5.67,14.41,11.75,12.11,22.77-.28,1.34-.04,2.8-.04,4.2Z"/>
      <path class="cls-3" d="M339.13,73.61c-3.96.29-5.74-2.93-8-5.19-3.95-3.93-7.38-8.33-12.52-10.95-12.01-6.12-20.81-3.36-26.74,8.61-2.23,4.5-3.81,9.35-7.81,12.82-3.13,2.72-6.24,3.84-10.46,2.57-5.45-1.62-11.09-2.58-16.65-3.82-4.46-1.48-8.93-1.45-13.4-.01-4.01,1.09-8.01,2.22-12.03,3.25-3.12.8-3.86-1.78-4.82-3.74-13.57-27.72-3.32-50,21.63-64.36,5.87-3.38,12.29-5.87,19.37-5.53h17.66c11.15.15,19.69,6,28.03,12.55,9.6,7.54,18.48,15.99,29,22.39,13.72,8.34,28.26,9.98,43.64,6.37.51-.12,1.03-.21,1.54-.22.33,0,.67.15,1.91.46-8.12,15.69-21.84,22.24-37.82,25.55-4.09-1.6-8.36-.36-12.52-.76Z"/>
      <path class="cls-2" d="M220.86,104.24c-4.01-3.75-3.57-7.7-.07-11.31,5.58-5.74,12.76-8.12,20.57-8.83,5.97,0,11.95-.01,17.92-.02,10.44.81,20.18,3.88,28.85,9.75,3.36,2.27,6.96,4.82,6.84,9.82-.12,4.99-1.58,6.49-6.33,5.56-11.82-2.3-23.76-3.5-35.77-4.2-1.26-1.37-2.92-.87-4.42-.87-9.2,0-18.4.05-27.59.09Z"/>
      <path class="cls-3" d="M252.92,111.63c-13.05-.05-26.09-.09-39.14-.14,1.61-1.49,3.64-1.02,5.49-1.03,10.15-.06,20.3-.05,30.46.04,1.07.01,2.8-1.08,3.19,1.13Z"/>
      <path class="cls-2" d="M220.86,104.24c9.2-.04,18.39-.1,27.59-.09,1.5,0,3.16-.5,4.42.87-9.73.06-19.46.13-29.18.19-1.04,0-2.11.03-2.82-.96Z"/>
      <path d="M99.3,175.83c0,9.05,0,18.1,0,27.15-1.69-9.05-1.69-18.1,0-27.15Z"/>
      <path class="cls-2" d="M259.28,84.08c-5.97,0-11.95.01-17.92.02,5.97-1.71,11.94-1.65,17.92-.02Z"/>
      <path class="cls-3" d="M285.35,7.26h-17.66c5.89-1.65,11.77-1.75,17.66,0Z"/>
      <path class="cls-4" d="M218.31,443.23c1.92,4.9.49,9.98.83,14.97-1.42-4.92-1-9.95-.83-14.97Z"/>
      <path class="cls-3" d="M243.54,77.65c4.47-1.44,8.93-1.46,13.4.01-4.47,0-8.93,0-13.4-.01Z"/>
      <path class="cls-4" d="M242.36,489.63c0-4.56,0-9.11,0-13.67,1.13,4.56,2.06,9.11,0,13.67Z"/>
      <path class="cls-4" d="M268.57,463.15c-2.09-4.01-.44-8.31-.98-12.44,1.43,4.06.97,8.27.98,12.44Z"/>
      <path class="cls-3" d="M339.13,73.61c4.16.4,8.43-.84,12.52.75-4.19.09-8.46,1.4-12.52-.75Z"/>
      <path class="cls-4" d="M247.75,462.17c1.94,4.01.39,8.28.9,12.39-1.36-4.05-1.07-8.23-.9-12.39Z"/>
      <path class="cls-4" d="M267.43,446.26c-1.92-3.73-.46-7.71-.87-11.56,1.53,3.76,1,7.67.87,11.56Z"/>
      <path class="cls-4" d="M242.19,471.52c-1.9-3.82-.49-7.88-.83-11.81,1.4,3.86,1,7.84.83,11.81Z"/>
      <path d="M242.42,356.98c-13.74-2.31-25.85-7.92-36.13-17.49-13.01-12.11-20.35-27.21-23.91-44.38-.35-1.7-.98-3.42-.93-5.11.06-2.18-1.47-5.44,2.28-5.97,3.65-.52,3.35,2.84,3.87,5.01.89,3.71,1.18,7.57,2.25,11.22,6.59,22.57,19.56,39.98,42.31,47.84,23.74,8.21,49.12-1.2,64.91-22.67,9.47-12.88,13.84-27.58,15.63-43.24.35-3.02-1.67-4.84-3.26-6.87-2.64-3.37-2.66-3.35-2.39-8.3,6.88,9.39,13.99,16.92,26.61,11.44-2.81,3.6-6.56,5.39-11.05,4.48-3.82-.77-4.16.53-4.62,3.85-4.16,29.9-17.55,53.42-46.41,65.96-5.33,2.31-11.05,3.02-16.64,4.23-4.16,0-8.33,0-12.5,0Z"/>
      <path d="M245.36,237.51c11.16.1,20.15,9.21,20.14,20.4-.01,10.78-9,19.92-19.53,19.84-10.85-.08-20.54-10.09-20.45-21.11.09-11.02,8.6-19.23,19.84-19.13ZM245.43,244.17c-9.18,0-14.02,4.13-14.21,12.13-.2,8.39,6.3,15.19,14.58,15.24,8.16.05,14.25-5.84,13.91-13.69-.29-6.73-5.16-15.28-14.29-13.68Z"/>
      <path d="M242.4,205.62c-.6,3.87-5.84,1-6,4.88-.12,2.8.19,5.7-.44,8.38-.94,4.02-.87,9.25-6.91,9.52-4.01.17-6.58-4.3-6.74-10.7-.11-4.7.84-9.03,3.74-12.78,1.53-1.98,1.43-3.36-.44-5.29-4.42-4.57-9.35-6.38-15.61-4.16,3.53-3.97,7.67-3.68,11.69-1.65,2.44,1.24,4.57,3.21,6.6,5.11,4,3.74,8.53,6.3,14.09,6.69Z"/>
      <path d="M265.25,221.42c.36-5.92,2.51-10.03,5.63-13.52,2.96-3.29,7.03-2.39,8.73,1.56,2.73,6.33,1.71,12.57-.54,18.73-.89,2.44-2.79,4.17-5.43,4.3-2.69.14-4.56-1.61-5.63-3.94-1.19-2.59-3.63-4.85-2.76-7.13Z"/>
      <path class="cls-1" d="M295.74,197.18c5.96-.59,10.55,1.06,14.36,4.81,4.05,3.98,3.29,8.84,1.99,13.68-.18.67-.42,1.38-.85,1.9-1.44,1.75-2.06,5.55-4.98,4.11-1.67-.83.68-3.6,1.4-5.34,3.9-9.39,2.16-13.29-7.49-16.51-1.34-.45-3.04-.45-4.44-2.66Z"/>
      <path class="cls-4" d="M242.42,356.98c4.17,0,8.34,0,12.5,0-4.17,1.46-8.34,1.46-12.5,0Z"/>
      <path class="cls-2" d="M245.43,244.17c9.13-1.6,14,6.95,14.29,13.68.34,7.86-5.76,13.75-13.91,13.69-8.28-.05-14.78-6.85-14.58-15.24.19-8,5.03-12.13,14.21-12.13Z"/>
    </g>
  </g>
</svg>