<?xml version="1.0" encoding="UTF-8"?>
<svg id="Layer_1" data-name="Layer 1" xmlns="http://www.w3.org/2000/svg" viewBox="0 0 512 512">
  <defs>
    <style>
      .cls-1 {
        fill: #009cdb;
      }

      .cls-2 {
        fill: #ffd300;
      }

      .cls-3 {
        fill: #f27321;
      }
    </style>
  </defs>
  <path class="cls-1" d="M243.23,125.05c8.22,2.96,16-2.74,16.11-11.5-5.81-10.63-22.79-.44-16.11,11.5Z"/>
  <path class="cls-2" d="M244.43,89.22c5.48-18.63,24.98-17.42,36.92-27.72,13.59-11.61,10.74-34.4-2.3-42.73-23.34-14.9-62.01-15.89-77.13,40.76,23.01-27.28,33.09-21.69,41.3-17.75,22.9,11.18.33,33.42,1.21,47.44Z"/>
  <path class="cls-1" d="M269.74,125.05c10.85,3.07,19.83-4.49,17.31-18.52-3.73-5.92-14.24-5.26-18.52,0,3.4,5.81,1.42,14.57,1.21,18.52Z"/>
  <path class="cls-1" d="M217.92,126.8c3.18,1.97,8.33,1.31,11.39-.66,4.16-2.63,4.93-10.74,3.07-14.9-.44-.99-1.1-1.86-1.75-2.41-4.38-3.94-12.27.88-14.46,6.14-1.53,3.83-2.41,9.09,1.75,11.83Z"/>
  <g>
    <path class="cls-3" d="M377.11,361.69c14.24-4.16,22.35-27.28,9.2-39.22-.33,14.9-7.89,28.92-9.2,39.22Z"/>
    <path class="cls-2" d="M170.48,211.6c21.36-2.96,40.54-23.01,51.93-38.13,5.81-7.67,13.37-25.09,19.61-25.42,7.45-.33,9.09,12.38,11.5,17.31,4.82,9.75,17.97,25.09,25.42,30.02,11.61,7.67,32.21,16.54,51.93,12.71,14.9-2.85,32.1-19.28,30.02-39.22-2.63-25.42-37.25-38.13-64.64-42.73-8.11,8.76-25.2,12.71-35.83,4.6-6.9,5.7-18.3,5.04-25.42,0-6.24,8.98-22.13,7.45-30.02,1.21-20.49,6.03-38.67,13.48-49.63,25.42-4.71,5.15-21.04,25.53-18.52,39.22,2.52,12.71,18.3,17.2,33.63,15.01Z"/>
    <path class="cls-3" d="M344.9,215.1c-44.7,13.8-87.32-14.13-102.77-47.33-18.95,28.59-45.36,60.04-92.36,53.14-23.77,26.4-39.66,73.62-30.02,123.58,8.76,45.14,44.26,81.4,90.06,88.85,8.33,1.31,16.87,1.75,25.42,5.81-.66,11.72,3.83,22.9,0,32.32-20.71.99-47.44,3.51-55.44,20.82,15.23,15.56,50.29,7.12,66.94-1.21.33-19.61-.99-40.98,4.6-55.44h6.9c7.01,13.26,0,36.48,1.21,53.14,15.45,13.69,79.32,19.39,72.75-10.41-3.29-14.57-31.01-12.16-47.33-12.71-6.46-6.9-.44-29.58-1.21-38.13,57.08-14.24,104.52-76.8,90.06-154.7-4.05-22.13-15.12-42.73-28.81-57.74ZM208.28,231.43c1.31-3.73,3.62-7.23,7.01-9.2,1.75-.99,3.62-1.53,5.59-1.64,3.62-.22,6.14.33,8.11,3.4,1.64,2.74,2.52,5.92,2.74,8.98.55,6.14-1.1,13.15-5.59,17.64-2.63,2.63-6.24,3.83-9.97,3.4-10.19-1.1-10.52-15.23-7.89-22.57ZM274.67,252.02c-2.63,2.63-6.24,3.83-9.97,3.4-10.3-1.1-10.63-15.23-8-22.57,1.31-3.73,3.62-7.23,7.01-9.2,1.75-.99,3.62-1.53,5.59-1.64,3.62-.22,6.14.33,8.11,3.4,1.64,2.74,2.52,5.92,2.74,8.98.55,6.14-.99,13.26-5.48,17.64Z"/>
    <path d="M216.27,254c3.73.44,7.23-.88,9.97-3.4,4.49-4.38,6.14-11.5,5.59-17.64-.33-3.18-1.1-6.35-2.74-8.98-1.97-3.18-4.49-3.62-8.11-3.4-1.97.11-3.94.66-5.59,1.64-3.4,1.97-5.7,5.59-7.01,9.2-2.74,7.34-2.41,21.47,7.89,22.57Z"/>
    <path d="M277.41,225.4c-1.97-3.18-4.49-3.62-8.11-3.4-1.97.11-3.94.66-5.59,1.64-3.4,1.97-5.7,5.59-7.01,9.2-2.63,7.34-2.3,21.47,8,22.57,3.73.44,7.23-.88,9.97-3.4,4.49-4.38,6.14-11.5,5.59-17.64-.33-3.07-1.21-6.24-2.85-8.98Z"/>
    <path d="M193.38,413.51c-.44,0-.99-.11-1.53-.22-2.52-.77-4.05-2.85-3.83-5.48.11-.66.11-1.31.22-1.97.11-1.21.22-2.3.33-3.51v-.99c.11-2.41.11-4.93.77-7.23.66-2.41,2.08-4.49,3.83-5.37.44-.22.77-.33,1.21-.33.88,0,1.75.55,2.85,1.21.44.33.88.55,1.31.88,1.97,1.1,4.38,2.3,7.01,3.29,3.62,1.31,6.9,1.97,9.75,1.97,2.19,0,4.16-.44,5.81-1.21,1.64-.77,2.63-2.19,2.85-4.05.22-2.41-1.21-5.37-3.4-7.01-2.41-1.75-5.7-2.19-8.87-2.63-3.94-.55-7.67-1.1-9.53-4.05-.22-.33-.44-.77-.55-1.1,1.97-3.62,7.89-3.73,14.13-3.73,7.45-.11,15.89-.22,16.98-7.78v-.22l-.11-.22c-.99-2.96-2.85-5.04-5.37-6.03-1.64-.66-3.29-.99-5.26-.99-2.63,0-5.26.55-7.78,1.1-2.41.55-4.93,1.1-7.34,1.1-.77,0-1.42-.11-2.19-.22-1.97-.33-3.51-1.31-4.16-2.52-.55-.99-.44-2.08.22-3.29,1.31-2.52,3.83-4.38,6.24-6.14.99-.77,1.97-1.42,2.85-2.19,2.08-1.75,4.49-3.94,6.24-6.68,0-.11,3.83-7.78,2.96-9.75l-.22-.55-.66-.33c-1.75-.44-3.4-.66-5.15-.66-7.01,0-12.93,3.83-16.76,10.74-1.75,3.07-3.07,6.68-4.49,11.5-.99,3.62-2.08,5.15-3.73,5.15-.77,0-1.86-.33-2.96-.99-1.42-.77-2.52-2.19-3.62-4.49-.33-.55-.55-1.53-.99-2.63-1.31-3.83-3.07-8.98-6.24-9.53-.88-.11-1.53-.22-2.3-.22-4.71,0-7.23,2.52-9.09,5.26l-.22.33.11.44c1.21,6.57,5.59,9.97,9.75,13.26,2.85,2.19,5.59,4.27,7.34,7.34-2.52,4.16-5.37,8.11-8.22,12.05-1.64,2.19-3.29,4.38-4.82,6.68-1.1,1.64-3.62,2.85-5.92,2.85-1.53,0-3.4-.55-4.05-2.85-.55-1.86.88-4.38,1.86-6.03.66-1.1,6.79-9.75,7.89-10.52h-.88l.99-1.86c-8.98-4.6-14.9-16.32-12.82-25.09,1.64-6.57,7.56-10.3,16.76-10.3,1.86,0,3.83.11,5.81.44,1.97.22,3.18,1.21,4.49,2.3.99.77,1.97,1.64,3.4,2.19l.88.33.44-.88c3.94-8,18.3-15.23,30.02-15.23,5.15,0,14.02,1.42,15.34,11.39.77,6.14-1.86,9.53-4.82,13.48-.99,1.31-2.08,2.74-3.07,4.27l-1.1,1.75,2.08-.11h1.21c10.08,0,16.98,8.33,17.53,16,.55,7.01-3.94,11.83-11.94,13.04l-2.08.33,1.53,1.53c4.71,4.6,6.24,9.53,4.38,14.13-2.63,6.35-11.28,11.07-20.49,11.07h0c-4.05,0-8-.88-11.5-2.63l-.66-.33-.55.44c-1.86,1.53-2.19,3.73-2.52,5.7-.22,1.31-.44,2.63-1.1,3.62-1.75,2.08-2.96,2.96-4.49,2.96Z"/>
    <path d="M356.4,209.3c44.7-39.44-9.64-92.03-56.53-94.66,0-10.63-5.04-19.72-13.91-21.91-12.27-3.07-22.13,4.49-28.81,6.9,3.73-28.38,42.4-20.6,46.23-51.93.11-.88.22-1.75.22-2.63.22-4.82-.44-9.75-2.19-14.35-3.73-9.75-11.61-17.09-20.49-22.35-2.41-1.42-4.93-2.74-7.45-3.83-3.73-1.75-7.89-3.18-12.05-3.94-3.07-.55-6.14-.66-9.2-.55-7.12.11-14.13,1.75-20.82,4.27-4.05,1.53-8,3.62-11.61,6.03-7.12,4.82-13.15,11.28-16.98,18.84-3.51,6.79-15.78,46.67-1.21,45.03,6.35-.66,10.63-14.9,17.53-19.72,3.29-2.41,8.33-7.23,14.9-5.7,23.66,5.7-19.28,36.59,3.51,51.93-7.01-3.29-15.34-2.85-22.35,0-6.35,2.63-10.19,9.64-11.94,16.11-.22.77-.55,5.81-1.42,5.92-42.4,2.08-101.12,57.19-63.54,93.56-18.19,19.5-29.14,46.23-33.53,79.65v32.32c8.76,69.79,47.11,109.89,117.78,117.78-.66,5.81-.77,8.11,0,15.01-17.2,3.51-54.67,8.76-56.53,27.72-2.63,26.4,46.12,25.97,68.15,19.61,6.68-1.97,13.59-6.79,19.61-6.9,10.63-.33,23.45,7.89,35.83,9.2,26.95,2.96,60.26-6.46,56.53-31.22-2.74-18.41-23.77-25.2-50.84-24.21,1.64-4.16,1.42-16.21,1.21-18.52,30.57-13.26,55-32.76,71.54-60.04,14.57-2.96,38.46-14.46,39.22-34.62.55-15.23-9.64-25.09-18.52-35.83.44-43.49-13.15-73.08-32.32-96.96ZM287.16,106.53c2.52,14.02-6.46,21.58-17.31,18.52.22-3.94,2.19-12.71-1.21-18.52,4.27-5.26,14.68-5.92,18.52,0ZM259.44,113.43c-.11,8.87-7.89,14.46-16.11,11.5-6.79-11.83,10.19-22.02,16.11-11.5ZM201.92,59.53C217.04,2.78,255.83,3.87,279.05,18.77c13.04,8.33,15.89,31.11,2.3,42.73-11.94,10.19-31.44,9.09-36.92,27.72-.88-14.02,21.69-36.26-1.1-47.33-8.44-4.05-18.41-9.64-41.41,17.64ZM216.27,114.86c2.08-5.26,10.08-10.08,14.46-6.14.66.66,1.21,1.42,1.75,2.41,1.86,4.27,1.1,12.27-3.07,14.9-3.07,1.97-8.22,2.63-11.39.66-4.27-2.63-3.4-7.89-1.75-11.83ZM137.06,196.59c-2.52-13.69,13.69-34.07,18.52-39.22,10.96-11.94,29.14-19.39,49.63-25.42,7.89,6.24,23.77,7.78,30.02-1.21,7.01,5.04,18.52,5.7,25.42,0,10.63,8.11,27.61,4.16,35.83-4.6,27.39,4.6,62.01,17.31,64.64,42.73,2.08,19.94-15.12,36.37-30.02,39.22-19.72,3.83-40.32-5.04-51.93-12.71-7.45-4.93-20.6-20.27-25.42-30.02-2.41-4.93-4.05-17.64-11.5-17.31-6.35.33-13.8,17.75-19.61,25.42-11.39,15.01-30.57,35.06-51.93,38.13-15.56,2.19-31.33-2.3-33.63-15.01ZM283.65,427.54c.77,8.55-5.37,31.22,1.21,38.13,16.32.55,44.04-1.86,47.33,12.71,6.68,29.8-57.3,24.1-72.75,10.41-1.1-16.65,5.92-39.77-1.21-53.14h-6.9c-5.59,14.46-4.27,35.72-4.6,55.44-16.76,8.33-51.71,16.76-66.94,1.21,8-17.31,34.73-19.83,55.44-20.82,3.83-9.42-.66-20.6,0-32.32-8.55-3.94-17.09-4.38-25.42-5.81-45.8-7.45-81.29-43.71-90.06-88.85-9.64-49.96,6.24-97.18,30.02-123.58,47,6.9,73.4-24.54,92.36-53.14,15.56,33.31,58.18,61.24,102.77,47.33,13.69,15.01,24.76,35.72,28.81,57.74,14.46,77.9-32.98,140.45-90.06,154.7ZM377.11,361.69c1.21-10.3,8.76-24.32,9.2-39.22,13.15,11.94,5.04,35.06-9.2,39.22Z"/>
    <path d="M236.87,314.03c-1.53,2.3-2.63,4.93-2.85,7.67-.44,5.92,2.85,11.18,7.01,12.49,2.96.99,6.46-.11,9.31-4.49,3.4-5.04,3.29-12.49-.55-17.31-4.49-5.92-9.2-3.73-12.93,1.64Z"/>
    <g>
      <path d="M176.07,267.25c.77.22,1.53.22,2.19.11,7.67-1.75-3.18-9.86-4.6-4.38-.33,1.53,1.1,3.83,2.41,4.27Z"/>
      <path d="M195.02,265.72c.33-.11.66-.33.88-.55,1.75-1.42.55-4.38-1.64-5.15-1.64-.66-4.6-.55-4.49,1.86,0,.22.11.55.11.88.22.88.88,1.64,1.64,2.19.11.11.22.11.22.11h.11l.11.11h0c.99.66,2.08.88,3.07.55Z"/>
      <path d="M187.46,277.22c2.85-2.08-.88-5.81-3.51-5.48-1.53.22-2.63,1.75-2.52,3.29,0,.22.11.33.11.55.88,2.19,4.05,2.96,5.92,1.64Z"/>
      <path d="M199.84,279.63c.66-3.51-4.6-7.01-6.79-3.4-.44.66-.55,1.64-.55,2.41.11.88.55,1.75,1.21,2.52,1.86,2.08,5.59,1.53,6.14-1.53Z"/>
      <path d="M167.63,271.85c1.53-1.1,2.96-2.96,1.21-4.82-1.42-1.42-4.49-1.86-5.81.11-.88,1.21-.66,2.3-.11,3.07.88,1.42,3.07,2.08,4.71,1.64Z"/>
    </g>
    <g>
      <path d="M310.28,267.25c-.77.22-1.53.22-2.19.11-7.67-1.75,3.18-9.86,4.6-4.38.33,1.53-.99,3.83-2.41,4.27Z"/>
      <path d="M291.32,265.72c-.33-.11-.66-.33-.88-.55-1.75-1.42-.55-4.38,1.64-5.15,1.64-.66,4.6-.55,4.49,1.86,0,.22-.11.55-.11.88-.22.88-.88,1.64-1.64,2.19-.11.11-.22.11-.22.11h-.11l-.11.11h0c-.88.66-2.08.88-3.07.55Z"/>
      <path d="M298.99,277.22c-2.85-2.08.88-5.81,3.51-5.48,1.53.22,2.63,1.75,2.52,3.29,0,.22,0,.33-.11.55-.99,2.19-4.16,2.96-5.92,1.64Z"/>
      <path d="M286.5,279.63c-.66-3.51,4.6-7.01,6.79-3.4.44.66.55,1.64.55,2.41-.11.88-.55,1.75-1.21,2.52-1.86,2.08-5.59,1.53-6.14-1.53Z"/>
      <path d="M318.82,271.85c-1.53-1.1-2.96-2.96-1.21-4.82,1.42-1.42,4.49-1.86,5.81.11.88,1.21.66,2.3.11,3.07-.99,1.42-3.07,2.08-4.71,1.64Z"/>
    </g>
  </g>
</svg>