<?xml version="1.0" encoding="UTF-8"?>
<svg id="Layer_1" data-name="Layer 1" xmlns="http://www.w3.org/2000/svg" viewBox="0 0 512 512">
  <defs>
    <style>
      .cls-1 {
        fill: #eba4ba;
      }

      .cls-2 {
        fill: #eaa0b7;
      }

      .cls-3 {
        fill: #1c1c1c;
      }

      .cls-4 {
        fill: #eba5bb;
      }

      .cls-5 {
        fill: #1f1f1f;
      }

      .cls-6 {
        fill: #28a0d9;
      }

      .cls-7 {
        fill: #269fd9;
      }
    </style>
  </defs>
  <g id="AyvTIl">
    <g>
      <path class="cls-3" d="M113.39,222.44c7.53-22.12,13.95-43.08,22.73-63.22,16.24-37.25,37.76-70.04,74.37-90.39,4.21-2.34,3.44-5.09,2.62-8.42-3.14-12.77-3.03-25.61.81-38.11,2.98-9.69,6.89-19.83,18.53-21.77,17.73-2.96,30.12,6.54,35.44,17.16,2.66,5.3,4.66,6.51,10.96,6.68,10.54.28,16.16-3.8,22.29-11.78,10.87-14.15,33.87-10.2,43.28,6.53,6.31,11.21,6.03,22.82,1.15,34.46-1.27,3.02-3.68,5.21,1.61,7.67,35.85,16.7,55.34,46.9,66.91,83.17,3.61,11.32,6.31,22.96,8.86,34.58.84,3.84,1.38,5.61,6.02,5.63,15.74.08,25.08,8.18,27.27,22.72,2.29,15.21-4.15,24.71-19.33,30.66-7.21,2.83-10.86,9.65-11.82,17.15-3.78,29.65-11,58.19-25.63,84.54-17.44,31.43-42.33,55.15-74.01,71.91-9.07,4.8-9.32,6.53-.91,12.66,4.17,3.03,8.71,5.91,13.53,7.62,7.1,2.51,7.79,6.71,5.05,12.67-9.65,20.95-21.49,40.51-37.29,57.45-4.47,4.79-10.19,7.86-16.62,9.24-16.11,3.46-26.88-5.3-25.82-21.69.99-15.21,7.77-27.37,22.23-35.2-4.83-6.06-12.31-8.18-17.19-13.62-3.28-3.66-4.58,1.3-5.85,2.99-7.59,10.1-11.89,21.99-17.65,33.1-10.44,20.14-5.18,20.75-29.42,10.39-13.9-5.94-25.95-15.09-34.12-28.34-6.99-11.35-7.39-24.42-1.2-30.88,6.29-6.57,20.48-6.69,31.77-.18,2.09,1.21,4.46,2.37,5.91,4.18,4.1,5.11,6.21,3.39,9.01-1.4,3.27-5.6,3.21-7.59-4.04-9.37-30.49-7.45-58.34-20.07-79.56-44.35-16.17-18.5-25.13-40.3-29-64.31-1-6.2-1.33-11.63-10.33-10.63-7.49.83-10.6-7.55-15.83-10.01-4.13-1.94-11.29,4.6-18.04,1.57-9.38-4.21-12.57-14.87-6.4-24.79,2.45-3.94,2.69-5.42-1.46-8.27-9.26-6.34-9.12-13.67-.38-20.63,1.19-.95,2.44-2.01,3.84-2.48,7.91-2.65,10.47-6.51,6.14-14.97-3.89-7.59-.09-14.34,7-18.63,7.86-4.76,18.58-3.05,25.09,4.31,3.35,3.79,5.66,8.51,9.46,14.39Z"/>
      <path d="M360.01,459.13c3.12-13.48,6.84-25.68-2.64-37.43,9.08,0,11.09,5.96,12.56,11.82,2.87,11.43-.02,19.49-9.92,25.61Z"/>
      <path class="cls-4" d="M229.02,75.82c10.61.96,19.44-1.69,26.16-9.39,2.47-2.83,4.32-3.1,7.67-1.39,9.52,4.84,19.41,5.36,28.78-.25,3.6-2.16,5.47-.33,8.05,1.22,8.6,5.18,18.08,6.18,27.41,3.41,4.65-1.38,8.24-.76,12.2.98,30.16,13.27,48.5,37.03,60.21,67,5.6,14.33,8.12,29.27,10.94,44.23,2.61,13.85,4.48,14.99,17.92,15.08,5.67.04,13.13-.39,14.58,6.6,1.57,7.52,2.71,15.95-3.44,22.72-2.92,3.21-5.23,2.58-6.67-1.38-1.35-3.72-2.59-7.47-3.8-11.24-1.51-4.7-4.63-6.17-9.23-4.73-5.38,1.68-2.25,5.49-1.64,8.15,1.63,7.05,5.32,13.93.65,21.1-1.15,1.77-2.55,3.83-5.09,3.04-2.46-.76-1.23-3.09-1.31-4.7-.19-3.97.31-8.02-.26-11.93-.5-3.47-1.23-7.86-6.08-7.77-4.9.09-5.48,4.37-5.7,8.02-.2,3.32.45,6.7.69,10.06.32,4.42-.01,8.74-4.02,11.51-2.39,1.66-4.77.18-6.7-1.36-4-3.2-3.75-7.25-2.09-11.6,1.3-3.41,2.6-6.85,3.41-10.39.5-2.17,2.49-4.92.15-6.7-1.92-1.46-4.75-.89-7.08-.04-2.78,1.02-5.33,3.43-8.53,1.66-3.74-2.07-7.93-4.29-7.88-9.21.05-4.41,3.42-7.12,7.3-8.56,3.4-1.26,7.05-2.58,10.59-2.59,8.66-.02,7.42-4.47,4.35-9.24-3.75-5.83-8.92-10.52-9.97-18.19-.57-4.14-5.58-2.3-8.56-1.72-2.94.58-3.62,3.13-2.02,5.61,6.08,9.43,6.61,15.59-5.23,22.69-11.75,7.04-7.78,23.48,6,28.86,5.93,2.32,6.85,4.3,5.53,10.47-2.56,11.99,10.92,23.04,23.1,19.83,12.6-3.32,12.97-3.26,11,9.79-5.75,38.15-18.99,73.06-45.38,102.08-16.98,18.68-37.41,32.42-60.77,41.66-6.72,2.66-7.17,4.97-2.38,10.01,6.84,7.18,14.6,12.98,23.27,17.67,3.06,1.66,6.03,3.17,3.6,7.65-7.11,13.14-12.63,27.17-22.19,38.92-5.53,6.8-12.28,11.85-20.59,14.76-5.64,1.97-8.73-.22-9.59-5.94-1.3-8.64,2-15.67,8.12-21.38,4.23-3.95,8.57-8.11,13.58-10.82,7.05-3.81,6.36-7.29.72-11.09-10.3-6.94-21.72-12.09-29.09-23.17-3.38-5.08-9.22-3.04-11.67,2.5-7.42,16.81-20.06,30.69-26.58,47.99-.73,1.94-1.32,5.33-5,3.36-14.79-7.92-30.7-14.62-35.5-33.26-1.07-4.16-2.96-8.86.32-12.08,3.82-3.74,8.84-1.11,12.99.55,7.03,2.81,11.73,8.75,16.79,14.02,3.11,3.23,5.13,4.35,8.13-.23,5.53-8.45,10.86-16.82,14.23-26.54,2.53-7.3-.06-9.26-6.49-9.76-11.64-.92-22.81-4.04-33.64-8.17-44.31-16.93-69.54-50.37-77.36-95.83-12.08-70.29,6.29-134.3,46.03-192.48,11.56-16.92,28.74-28.15,46.04-38.82,3.91-2.41,7.76-.63,11-1.28Z"/>
      <path class="cls-1" d="M112.01,234.45v53.66c0,2.37-.5,4.66-3.49,4-3.73-.82-7.46-2.58-6.83-7.18.61-4.46,2.5-8.73,3.35-13.18.35-1.86,2.68-4.16.24-5.82-2.09-1.42-4.77-1.09-7.01.15-4.98,2.75-7.83,7.66-11.62,11.63-3.32,3.48-8.28,9.25-11.66,6.02-4.02-3.85-2.05-10.93,2.35-15.76,4.83-5.29,11.12-8.54,17.04-12.33,1.71-1.09,4.27-1.85,2.94-4.74-1.1-2.4-3.59-2.68-5.56-2.08-4.35,1.33-8.46,3.45-12.8,4.81-4,1.26-8.76,1.39-9.94-3.42-1.09-4.43,2.82-7.43,6.8-8.4,5.32-1.3,10.89-1.55,16.32-2.44,2.2-.36,4.25-1.87,4.73-3.88.48-1.99-2.1-2.52-3.44-3.6-4.26-3.42-8.96-6.33-11.02-11.94-1.51-4.1-.11-7.61,2.47-10.01,3.32-3.09,6.21.68,8.5,2.48,4.25,3.34,6.16,8.28,6.64,13.64.68,7.62,4.34,11.01,12.01,8.37Z"/>
      <path class="cls-6" d="M222.93,40.85c-.72-8.16,1.04-15.85,5.33-22.74,5.14-8.26,13.1-10.78,20.19-6.94,8.92,4.84,13.55,15.66,9.64,23.74-1.77,3.65-2.81,7.4-3.49,11.26-1.99,11.4-7.6,17.17-19.04,19.93-4.29,1.04-6.34-1.12-8.09-4.14-3.79-6.52-5.11-13.62-4.54-21.11Z"/>
      <path class="cls-6" d="M301.66,48.06c.97-10.17,1.5-18.1,5.7-25.19,3.3-5.56,8.21-8.11,14.59-7.44,6.27.65,10.89,3.77,13.01,9.95,4.06,11.85.91,22.4-6.7,31.59-4.49,5.43-10.87,6.65-17.46,3.81-6.45-2.77-10.74-7.12-9.14-12.72Z"/>
      <path class="cls-7" d="M275.13,59.18c-4.44-.63-9.97-1.45-9.89-9.03.09-8.55,7.92-16.63,16.17-16.57,6.14.04,10.88,2.24,11.01,9.29.16,8.86-7.47,16.42-17.29,16.32Z"/>
      <path class="cls-5" d="M218.95,208.67c9.51-1.7,15.89,3.21,22.23,7.12,24.5,15.09,51.81,6.93,68.48-10.63,2.98-3.13,6.22-5.71-.16-8.54-1.44-.63-2.28-2.19-1.81-3.85.6-2.14,2.66-2.29,4.41-2.61,9.37-1.73,21.26,10.52,19.42,19.83-.56,2.8-2.24,4.08-4.43,2.66-5.2-3.36-7.45.57-10.47,3.42-19.84,18.72-61.24,22.64-84.33,8.04-5.74-3.64-10.54-8.14-13.33-15.44Z"/>
      <path class="cls-3" d="M320.17,117.03c-.82,8.04-3.61,16.63-11.38,22.71-9.01,7.05-18.86,3.79-22.17-7.14-3.55-11.71,4.96-28.57,16.38-32.43,9.38-3.18,16.94,3.64,17.17,16.86Z"/>
      <path class="cls-5" d="M295.06,162.94c.07,12.52-9.61,21.07-23.7,20.93-12.99-.13-21.3-7.5-21.22-18.84.08-11.65,8.86-17.57,26.05-17.6,13.22-.02,18.81,4.58,18.87,15.51Z"/>
      <path class="cls-5" d="M263.95,115.07c.21,7.59-1.52,13.73-5.05,19.22-3.06,4.77-7.67,6.72-13.38,5.97-5.52-.72-8.57-4.1-10.25-9.1-3.08-9.18-1.18-17.6,4.66-24.91,4.61-5.77,10.97-7.5,18.08-4.93,7.36,2.66,4.95,9.46,5.94,13.77Z"/>
      <path class="cls-2" d="M271.71,173.39c-5.36-.29-10.25-1.8-9.78-7.5.59-7.09,6.4-10.24,12.86-10.47,3.89-.14,9.32.48,8.65,6.7-.75,6.95-5.13,10.64-11.73,11.27Z"/>
    </g>
  </g>
</svg>