<?xml version="1.0" encoding="UTF-8"?>
<svg id="Layer_1" data-name="Layer 1" xmlns="http://www.w3.org/2000/svg" viewBox="0 0 512 512">
  <defs>
    <style>
      .cls-1 {
        fill: #171717;
      }

      .cls-2 {
        fill: #fff;
      }

      .cls-3 {
        fill: #29a1d6;
      }
    </style>
  </defs>
  <g id="En7SHM">
    <g>
      <path class="cls-1" d="M499.59,246c-4-1.66-5.09-3.14-2.36-7.41,4.85-7.57,3.72-13.21-2.94-20.76-5.2-5.89-11.78-6.96-18.76-4.2-7.47,2.95-14.16,7.12-17.78,14.88-1.89,4.05-4.72,5.8-9.57,4.56-5.17-1.33-4.58-4.72-4.27-8.47.48-5.79.94-11.6,1.16-17.41,1.03-28.26-6.72-54.87-15.53-81.25-8.06-24.13-23.16-43.58-43.49-58.06-56.19-40.01-116.84-34.8-178.17-14.8-23.36,7.62-42.83,22.61-62.52,36.84-9.35,6.76-16.78,15.26-22.64,25.18-7.8,13.18-15.22,26.57-23.61,39.4-11.58,17.71-18.68,37.38-21.6,58.23-.96,6.87-3.81,8.64-9.64,9.47-6.08.86-7.92-2.79-9.33-7.38-2.59-8.47-9-13.6-16.25-17.59-6.13-3.37-12.53-2.59-17.69,2.16-5.08,4.66-10.68,9.93-6.84,17.73,3.18,6.45.62,7.72-5.12,9.37-14.14,4.06-16.51,14.7-6.65,25.54,1.77,1.94,5.8,2.4,4.79,7.26-1.63,7.85,1.54,14.64,7.57,19.98l-.07-.08c6.76,1.14,14.72.74,13.7,11.39-.1,1.02,1.13,2.28,1.93,3.26,7.24,8.88,16.93,8.71,27.97-.45,2.99-5.5,6.07-10.95,7.64-17.1.47-1.83,1.62-3.56,3.77-3.35,2.81.26,1.65,2.75,1.88,4.34.56,3.86.94,7.74,1.39,11.62,1.27,5.97,2.83,11.85,5.48,17.38,4.58,9.19,8.9,18.51,13.78,27.53,6.72,12.42,14.52,24.66,26.62,32.02,31.29,19.07,63.98,35,101.56,37.49,8.46.56,11.69,5.35,10.25,15.66-.9,6.44-6.76,2.02-10.12,3.35-.7.27-1.58.06-2.37.11-21.73,1.37-42.08,7.25-60.79,18.53-6.4,3.86-10.32,9.41-9.51,16.98.73,6.86,6.28,9.96,12.07,12.27,5.43,2.17,11.07,3.26,16.96,3.63,25.48,1.61,49.99-2.92,74.05-10.88,6.97-2.31,13.89-5.09,21.6-3.9,13.06,1.99,26.14,3.87,39.25,5.48,21.25,2.6,42.5,5.54,63.99,2.44,7.13-1.02,14.15-2.33,19.98-6.88,9.68-7.57,9.2-19.55-.89-26.42-4.01-2.73-8.51-4.15-13.15-5.29-20.63-5.1-41.73-6.65-62.8-8.33-4.21-.34-9.09-.01-8.3-6.44.66-5.39-2.82-12.29,6.48-14.48,15.63-3.69,29.31-11.59,42.29-20.98,32.02-23.13,51.51-55.33,66.79-90.74.87-1.99.23-6.23,4.09-5.48,3.14.6,2.81,4.1,3.13,6.65.74,5.82,2.16,11.43,5.18,16.5,3.65,6.13,8.78,9.99,16.29,8.96,7.24-1,12.26-4.86,13.53-12.4.46-2.76,1.29-4.74,4.39-4.16,9.34,1.72,14.82-3.68,19.67-10.36-1.33-8.81,3.38-13.54,11-16.31,1.64-2.47,3.29-4.95,4.93-7.42.27-8.94-4.72-14.23-12.4-17.41ZM75.18,258.01c-.05.39-.13.76-.23,1.11-.21.69-.53,1.28-.99,1.76-.11.12-.23.24-.37.35-.13.11-.28.21-.43.31-.3.19-.64.36-1.02.49-.18.07-.38.13-.6.19-.42.11-.89.2-1.39.25-.25.03-.51.05-.79.07-6,.32-8.73,4.03-9.07,9.94-.03.57-.08,1.13-.14,1.69-.04.39-.09.77-.15,1.15-.04.28-.08.56-.13.83-.02.16-.05.32-.08.47-.06.33-.13.66-.21.99-.05.22-.1.44-.16.66-.05.23-.12.45-.18.68-.19.69-.42,1.37-.68,2.03-.13.33-.26.66-.41.99-.1.24-.22.49-.34.73-.08.17-.17.34-.26.51-.07.14-.14.29-.23.43-.08.16-.17.32-.27.48-.5.85-1.06,1.68-1.7,2.48-.19.23-.38.47-.58.69-.29.34-.6.67-.92.99-2.05,2.07-4.29,4.53-7.51,2.84-.26-.14-.5-.29-.72-.44-.22-.16-.42-.32-.6-.5-.18-.17-.34-.35-.48-.53-.29-.37-.51-.77-.66-1.19-.08-.21-.14-.41-.19-.63-.05-.2-.08-.41-.1-.63,0-.06-.02-.13-.02-.19-.02-.19-.02-.38-.02-.57,0-.23,0-.46.04-.7,0-.05,0-.09.02-.14,0-.08.02-.16.02-.23,0-.06.02-.11.03-.17.02-.11.04-.21.06-.31.03-.19.07-.37.12-.56.13-.56.3-1.11.5-1.64,1.27-3.42,3.45-6.49,5.12-9.77.17-.34.35-.69.52-1.03.12-.22.23-.45.34-.68.06-.11.11-.23.16-.34.11-.23.21-.46.3-.69s.18-.46.26-.69c.06-.17.11-.34.15-.52.11-.39.18-.78.21-1.17.04-.58-.01-1.16-.19-1.74-.1-.3-.22-.6-.39-.9-.09-.15-.18-.3-.28-.45-.21-.3-.46-.6-.76-.9-.08-.09-.16-.16-.24-.24-1.44-1.33-2.67-1.69-3.78-1.49-.07.01-.14.02-.2.04-.44.1-.85.28-1.26.52-.07.04-.14.09-.21.13-.12.08-.25.16-.37.24-.86.59-1.69,1.38-2.56,2.1-.11.1-.22.2-.34.29-.25.2-.51.4-.77.59-.03.02-.06.04-.08.06-.4.3-.82.59-1.24.87-.37.26-.75.5-1.14.74-.28.18-.57.35-.86.51-.25.15-.5.29-.76.42-.17.1-.35.19-.53.28-.32.17-.64.32-.97.47-.18.09-.36.17-.54.24-.18.08-.36.16-.54.23-3.54,1.43-7.59,2.24-9.63-2.19-.29-.62-.47-1.2-.57-1.75-.09-.5-.1-.97-.04-1.41,0-.17.04-.33.08-.49.07-.32.18-.63.32-.92.19-.41.44-.8.75-1.16.1-.12.21-.24.32-.36.09-.1.18-.19.27-.28.12-.12.25-.24.38-.35.13-.12.27-.23.42-.34.17-.13.34-.26.52-.38.16-.12.33-.23.5-.33.18-.12.36-.23.54-.34.18-.11.37-.22.56-.32.16-.09.33-.18.5-.27.35-.19.7-.36,1.06-.52h0c.36-.17.72-.32,1.09-.46.74-.3,1.49-.57,2.23-.85.54-.2,1.09-.4,1.64-.6.22-.08.44-.17.65-.25.08-.03.16-.06.23-.09.24-.09.46-.18.69-.28.45-.18.89-.39,1.3-.61.18-.1.36-.2.53-.3.72-.44,1.34-.96,1.77-1.59.09-.13.17-.27.24-.41.03-.03.04-.06.05-.1.04-.06.07-.12.09-.19.03-.04.04-.08.05-.13.03-.07.06-.15.08-.23.03-.07.05-.14.06-.22.03-.11.05-.23.07-.35.02-.06.02-.11.02-.18.02-.15.03-.31.03-.47,0-.88-.24-1.9-.79-3.12-.74-1.63-1.64-2.59-2.64-3.07-.2-.1-.41-.18-.62-.24-.42-.13-.85-.18-1.3-.18-.18,0-.37.01-.55.03-.15.01-.29.03-.44.05-.12.02-.25.04-.37.07-.3.06-.6.14-.9.23-.26.08-.52.17-.78.26-.27.1-.53.21-.8.32-.22.09-.44.19-.66.29-.57.25-1.14.53-1.71.8-2.33,1.11-4.99,2.09-7.51,2.13-4.35.08-7.99-2.17-8.75-6.57-.76-4.42,2.73-6.32,6.43-7.72,4.29-1.63,8.3-.22,12.44.56.21.04.42.08.63.11.22.03.43.07.64.1.21.03.42.06.64.08,1.21.14,2.4.14,3.48-.15.15-.04.3-.09.44-.14.11-.03.2-.07.3-.12.06-.03.12-.06.19-.09.15-.07.29-.15.43-.23.15-.09.28-.19.42-.29.09-.06.17-.13.25-.2.08-.07.16-.14.23-.22.12-.12.24-.25.35-.39.12-.14.23-.29.33-.45.11-.16.21-.33.3-.51.05-.09.1-.18.14-.28.05-.09.09-.19.13-.29.59-1.41.42-2.41-.13-3.22-.16-.23-.34-.44-.55-.64-.41-.41-.9-.77-1.41-1.13-.21-.15-.43-.29-.63-.44-.23-.16-.46-.33-.67-.5-.18-.14-.35-.28-.51-.43-.05-.05-.11-.1-.16-.15s-.1-.1-.15-.15c-.61-.67-1.24-1.32-1.87-1.98-.12-.13-.25-.26-.37-.39-.26-.26-.51-.53-.75-.79-.25-.26-.5-.53-.74-.8-.25-.27-.49-.54-.71-.82-.46-.55-.9-1.12-1.31-1.71-.12-.18-.24-.37-.35-.55-.43-.72-.73-1.42-.9-2.1t0-.01c-.04-.17-.08-.34-.1-.51-.04-.17-.06-.34-.07-.51-.03-.32-.03-.65,0-.97.02-.26.06-.53.12-.79.03-.14.07-.28.11-.41.03-.14.08-.28.14-.41.12-.34.28-.68.48-1.01.06-.11.13-.22.2-.32.36-.6.83-1.17,1.38-1.73.18-.18.37-.36.56-.53.2-.18.4-.35.61-.52.17-.14.34-.27.51-.4.17-.13.34-.25.51-.37.16-.11.32-.21.48-.31.38-.24.76-.44,1.14-.6.07-.03.15-.06.22-.09.15-.07.3-.12.45-.17.12-.04.24-.08.36-.11.12-.04.23-.07.34-.09.05-.02.1-.03.15-.03.14-.03.28-.06.42-.07.09-.02.19-.03.28-.04.1-.01.2-.02.3-.01.42-.03.83,0,1.25.07.32.05.65.13.97.23.02.01.05.02.08.03.1.03.2.07.31.12.03,0,.06.01.1.04.08.03.16.07.24.1.16.07.33.15.49.24.08.05.16.09.24.14.33.18.66.4.98.66.09.06.17.12.25.19.09.06.17.13.25.21.11.08.22.18.33.28.17.15.33.3.48.46.16.15.31.3.46.46s.29.32.43.48c.41.48.79.97,1.12,1.47.08.12.15.23.22.34.21.33.4.66.58,1,.09.17.18.34.26.51.57,1.15.99,2.35,1.33,3.59.18.68.34,1.38.47,2.08.34,1.77.55,3.59.75,5.43.9,8.34,4.08,10.69,11.95,9.6q13.79-1.91,14.06,12.82c0,2.91-.21,5.84.05,8.72.09,1,.1,1.9,0,2.69ZM348.02,57.45c-47.99,5.9-96.09,8.77-144.4,6.88,47.41-16.98,95.25-25.47,144.4-6.88ZM184.93,74.16c1.68-1.08,3.25-1.42,5.21-1.01,29.19,6.09,58.5,1.92,87.72.59,26.66-1.22,53.26-3.67,79.91-5.21,5.4-.31,10.67-3.67,16.51.65,10.27,7.59,20.34,15.34,27.37,26.08,3.18,4.87-2.34,4.18-4.51,4.33-13.18.87-26.37,1.72-39.58,2-29.88.65-59.7-1.27-89.55-2.43-26.66-1.04-53.37-.94-79.94-3.95-8.9-1.01-17.74-2.29-28.3-5.05,9.64-6.11,17.44-11,25.16-16ZM123.54,132.21c5.57-9.95,11.52-19.54,19.18-28.05,3.09-3.44,6.19-4.95,11-4.19,68.41,10.79,137.49,9.79,206.41,11.23,15.54.33,31.14-1.33,46.7-2.24,4.9-.29,10.59,4.96,11.42,12.02.75,6.33-5.28,5.03-8.32,5.47-29.22,4.31-58.49,8.09-88.03,9.71-34.56,1.89-69.05,5.31-107.39,4.83-26.48,1.95-56.53-.2-86.6-1.84-5.76-.32-7.64-1.11-4.37-6.94ZM313.41,390.11c-5.63.17-7.8,1.67-8.33,7.56-.64,7.16-.89,14.16-.2,21.32.14,1.49.4,2.79.8,3.91.07.19.14.38.22.57.08.21.17.41.27.6s.2.37.3.55c.21.36.45.7.71,1.01.04.06.09.11.14.16.55.64,1.2,1.16,1.96,1.6.26.15.53.28.81.41.29.13.6.25.93.36.22.07.44.14.67.2.23.07.47.13.71.18.04.01.08.02.13.03.35.08.72.14,1.11.2.58.09,1.19.15,1.83.2,21.62,1.56,43.29,2.87,64.52,7.69.89.2,1.79.43,2.68.67s1.78.51,2.66.8c1.76.58,3.49,1.24,5.16,1.99,6.9,3.12,7.41,6.55,1.86,11.77-6.04,5.69-13.94,6.12-21.54,6.67-29.82,2.15-59-3.59-88.31-7.7-3.96-.56-4.39-3.12-4.51-6.2-.45-11.63-.88-23.26-1.39-34.89-.1-2.37-.23-4.79-.82-7.06-.85-3.23-3.25-4.71-6.61-4.35-3.68.39-3.74,3.17-3.66,5.9.36,12.9.47,25.82,1.32,38.7.29,4.4-1.14,6.25-4.89,7.58-24.82,8.79-50.03,15.44-76.69,14.42-6.62-.26-13.2-.82-19.37-3.57-4.42-1.98-5.11-4.76-2-8.66,2.21-2.76,4.91-4.7,7.98-6.36,19.78-10.69,40.89-15.47,63.36-14.74,10.73.34,11.44-.73,9.48-11.28-.16-.88-.31-1.73-.46-2.54-.07-.41-.15-.82-.21-1.21-.08-.47-.16-.94-.24-1.39-.14-.81-.27-1.59-.39-2.33-.03-.21-.07-.43-.1-.63-.12-.67-.22-1.31-.32-1.93-.1-.61-.2-1.2-.29-1.76-.05-.32-.11-.64-.16-.94-.09-.5-.17-.97-.25-1.42-.02-.11-.04-.21-.06-.31-.05-.28-.1-.54-.15-.8-.06-.27-.11-.53-.16-.78-.2-.94-.4-1.77-.63-2.51-.05-.17-.1-.33-.15-.49-.06-.16-.11-.31-.17-.46-.07-.2-.15-.39-.23-.58-.06-.14-.12-.27-.18-.4-.13-.26-.26-.51-.4-.74-.07-.11-.15-.22-.22-.33-.1-.14-.2-.28-.31-.41,0-.02-.02-.03-.04-.05-.09-.1-.17-.19-.26-.28-.18-.19-.37-.37-.58-.52-.1-.08-.2-.16-.31-.23-.1-.07-.2-.14-.31-.2-.12-.08-.25-.14-.38-.21-.13-.06-.25-.12-.38-.18-.11-.05-.22-.1-.33-.14-.45-.18-.94-.33-1.49-.47-.13-.03-.27-.07-.41-.1-.15-.03-.29-.06-.44-.09-.23-.05-.46-.09-.7-.13-.25-.04-.5-.08-.76-.12-.15-.03-.31-.05-.47-.07-.21-.03-.43-.06-.66-.09-.4-.05-.83-.1-1.27-.15-.19-.02-.39-.04-.6-.06-.2-.02-.41-.04-.62-.06-.39-.04-.79-.07-1.2-.11-1.25-.11-2.62-.23-4.14-.37-.62-.06-1.27-.12-1.94-.18-.42-.04-.84-.08-1.28-.12-.69-.07-1.41-.14-2.16-.22-.88-.09-1.8-.19-2.76-.3-28.6-3.28-53.63-15.42-78.55-28.39-5.91-3.07-11.61-6.2-16.56-13.39,71.25,16.42,141.38,30.71,216.06,29.22-8.26,6.19-15.78,8.49-23.67,8.73ZM363.08,364.11c-6.67,4.84-14.98,4.81-22.77,5.86-32.61,4.39-64.91-.06-97.19-3.91-41-4.89-81.25-13.73-121.27-23.63-4.81-1.19-10.88-1.18-13.77-5.33-4.94-7.11-9.29-14.85-12.43-22.9-1.73-4.42,2.94-1.94,4.5-1.63,24.32,4.96,48.62,10.04,72.92,15.16,61.56,12.96,123.65,15.15,186.14,8.96,5.51-.55,10.99-1.51,16.45-2.49,5.43-.97,10.8-2.2,17.92-3.67-8.64,13.91-18.44,24.84-30.5,33.58ZM405.29,313.03c-1.85,3.94-5.51,4.71-9.05,5.61-24.69,6.29-49.83,8.81-75.23,10.62-59.52,4.26-117.57-3.93-175.28-17.38-16.44-3.83-33.29-5.91-49.41-11.23-7.42-2.46-13.87-14.72-11.82-22.08,1.12-4.05,3.38-1.38,4.77-.78,7.26,3.13,13.9,7.42,21.34,10.32,65.23,25.4,132.68,34.99,202.24,27.67,26.78-2.82,53.15-8.85,78.99-16.64,6.89-2.07,13.93-2.34,22.7-4.63-3.64,7.24-6.58,12.82-9.25,18.52ZM426.35,266.4c-3.09,11.81-10.18,16.84-20.31,18.9-27.71,5.63-54.73,14.39-82.82,18.28-1.25.17-2.49.36-4.85.71,1.9-2.81,3.67-5.56,5.28-8.32.64-1.1,1.26-2.21,1.85-3.32.29-.52.56-1.05.83-1.58.18-.36.36-.72.53-1.08.18-.36.35-.72.52-1.09.99-2.09,1.86-4.22,2.6-6.38.39-1.16.75-2.33,1.08-3.52.16-.59.31-1.19.45-1.79.43-1.8,1.02-3.57,1.25-5.4.53-4.2-1.95-6.55-5.6-7.43-4.32-1.05-5.58,2.16-5.99,5.51-1.26,10-5.83,18.57-11.16,26.86-4.23,6.58-10.23,9.76-18.01,9.57-1.21-.03-2.42-.06-3.63-.08-.8-.01-1.61-.03-2.41-.04-2-.03-4.01-.05-6.01-.07-3.35-.03-6.7-.04-10.04-.05-2.01-.01-4.02-.01-6.03-.02-.67,0-1.34,0-2.01-.01-4.02-.02-8.04-.06-12.05-.13-2.01-.03-4.02-.07-6.02-.13-2.68-.07-5.36-.16-8.04-.29-2.68-.12-5.35-.27-8.03-.46-18.43-1.27-38.51-21.14-42.8-42.68-1.57-7.86-1.77-15.75-.93-23.7.28-2.63.4-5.29.92-7.88.17-.83.22-1.6.17-2.29,0-.16-.03-.31-.05-.46,0-.02,0-.03,0-.05,0-.04,0-.08-.02-.11,0-.08-.03-.16-.04-.24-.04-.19-.08-.37-.14-.55-.05-.18-.12-.35-.19-.52,0-.01,0-.03-.01-.04-.02-.07-.06-.14-.09-.2-.15-.33-.33-.63-.56-.92-.07-.11-.16-.22-.25-.32-.08-.11-.18-.21-.27-.3-.26-.26-.54-.5-.84-.71-.23-.16-.47-.32-.73-.45-.12-.07-.25-.14-.38-.2-.66-.32-1.39-.57-2.16-.76-5.11-1.23-4.52,3.71-5,6.23-4.51,23.53-.88,45.23,15.09,64.03,2.16,2.54,5.02,4.65,6.22,8.74-16.3-2.58-32.2-5.34-47.36-10.52-2.27-.77-4.55-1.54-6.83-2.3-2.28-.76-4.57-1.51-6.85-2.27-2.28-.76-4.56-1.52-6.83-2.31-2.98-1.03-5.95-2.1-8.9-3.22-.99-.37-1.97-.75-2.95-1.14-1.12-.44-2.23-.89-3.35-1.35-1.11-.46-2.22-.94-3.32-1.42-2.32-1.02-4.61-2.09-6.89-3.24-.37-.18-.76-.38-1.13-.58-.59-.29-1.18-.61-1.78-.92-.8-.43-1.6-.87-2.4-1.32-.8-.44-1.59-.9-2.38-1.37-7.79-4.62-11.32-9.35-11.27-18.6.16-34.87,6.23-67.79,26.91-96.99,3.6-5.09,7.03-6.69,12.93-6.14,50.7,4.73,101.53,4.14,152.22.95,37.71-2.38,75.58-3.45,113.05-9.08,9.91-1.49,19.93-2.25,29.86-3.6,3.85-.53,5.4.57,6.73,4.43,14.4,41.83,12.26,83.54,1.22,125.73ZM496.58,265.57c-.2.16-.42.31-.62.46-.22.14-.42.27-.63.39-.37.22-.74.4-1.1.56-.16.07-.31.13-.47.19-.21.08-.42.15-.64.2-.1.02-.19.05-.28.07-.09.03-.18.05-.28.06-.31.07-.63.11-.94.14-.1.01-.21.02-.31.02-.65.03-1.3-.01-1.95-.12-.26-.04-.51-.1-.77-.16-.51-.13-1.02-.29-1.53-.49-.51-.19-1.03-.42-1.54-.69-.26-.13-.52-.27-.77-.42-.51-.29-1.02-.6-1.51-.92-.15-.09-.29-.19-.43-.29-.59-.4-1.18-.81-1.77-1.23-.73-.51-1.46-1.03-2.2-1.52-3.01-1.97-5.6-1.27-7.49,1.58-1.87,2.82-1.49,5.63,1.26,7.68,2.93,2.21,6.27,3.92,9.07,6.27.2.16.39.34.58.51.09.09.19.18.27.27.14.13.27.27.39.41.12.14.24.29.36.43.13.16.25.33.36.5.09.13.17.27.25.41.14.24.25.49.34.74.06.15.11.3.15.45.03.1.05.19.07.28.03.12.05.24.06.36,0,.04.02.09.02.14,0,.04,0,.09,0,.14.06.93-.17,1.93-.8,3.01-2.06,3.5-5.25,3.13-8.37,2.06-.26-.09-.52-.19-.77-.29-.11-.04-.22-.09-.32-.15-.3-.11-.59-.25-.87-.41-.2-.1-.4-.2-.59-.31-.71-.4-1.37-.85-2.01-1.35-.26-.19-.51-.4-.76-.63-.06-.04-.12-.09-.17-.15-.25-.21-.49-.44-.73-.67-1.07-1.02-2.04-2.16-2.94-3.35-.45-.59-.9-1.17-1.37-1.69-.08-.1-.17-.2-.26-.29-.14-.14-.28-.28-.42-.41-.11-.1-.22-.2-.33-.29-.02-.02-.03-.03-.05-.04-.13-.1-.26-.2-.4-.29-.15-.1-.3-.19-.46-.27-.15-.09-.31-.16-.47-.21-.05-.01-.09-.03-.14-.05-.05-.02-.1-.03-.15-.04-.1-.03-.2-.06-.31-.07-.1-.02-.2-.03-.3-.04-.42-.04-.86,0-1.33.12-.18.05-.37.1-.56.18-.19.07-.38.15-.58.25-3.59,1.78-3.3,5.13-2.46,8.3,1.13,4.29,3.94,8.1,3.57,12.84-.03.39-.05.79-.07,1.19,0,.19-.02.39-.03.58,0,.15,0,.29-.03.44,0,.15-.02.29-.04.44-.04.44-.1.86-.21,1.26,0,.07-.03.15-.06.22-.05.2-.12.39-.2.57-.04.11-.09.21-.15.31-.04.09-.1.19-.16.28-.03.07-.08.14-.15.2,0,.01,0,.02-.02.03-.04.07-.09.13-.15.19-.18.22-.39.41-.65.58-.09.07-.18.13-.29.18-.01,0-.02.02-.03,0-.12.07-.25.13-.39.19-.08.04-.18.07-.27.11-.72.26-1.39.35-2,.3-.11-.01-.22-.02-.32-.04-.11-.02-.21-.04-.32-.06-.03,0-.06-.02-.09-.03-.07-.02-.14-.04-.21-.06-.2-.07-.39-.14-.58-.23-.04-.02-.09-.04-.14-.07s-.09-.05-.14-.08c-.22-.12-.43-.26-.63-.41-.34-.26-.67-.55-.99-.87-.64-.64-1.21-1.37-1.77-2.09-3.47-4.46-3.89-9.68-3.55-16.12.8-5.35-.36-10.54-7.7-12.38-3.01-.75-2.97-2.86-2.28-5.59,1.67-6.64,3.02-13.37,4.32-20.09.02-.1.04-.19.06-.28.02-.1.04-.18.06-.27.13-.53.28-.99.47-1.39.07-.14.14-.28.22-.41.08-.13.16-.24.24-.35.09-.11.18-.21.27-.3,0-.02.03-.03.04-.04.05-.05.1-.09.15-.13.03-.03.07-.06.11-.08.05-.03.1-.07.16-.1.05-.04.11-.07.17-.09.09-.05.19-.09.29-.12.14-.05.3-.08.46-.1.13-.02.27-.03.42-.03.33,0,.7.05,1.09.14.39.09.82.23,1.27.41.49.2.98.38,1.48.56,1.49.52,3.03.94,4.54,1.4,7.77,2.36,11.35.57,13.48-7.32,1.49-5.49,3.41-10.52,8.19-14.03.45-.33.89-.61,1.33-.86.44-.25.87-.45,1.3-.61,3.09-1.16,5.91-.18,8.57,2.7,3.38,3.67,4.07,7.48.14,11.06-2.52,2.29-5.45,4.11-8.22,6.11-1.79,1.29-5,1.68-3.87,4.95.92,2.67,3.23,4.25,6.05,4.46,2.46.19,4.96,0,7.43.05.63.01,1.26.04,1.88.1h0c.31.02.63.06.94.1,2.19.3,4.21.98,5.88,2.15.21.15.41.3.61.46.19.16.39.33.56.51.14.13.27.27.4.41.1.11.2.22.29.33.07.08.14.17.21.26.09.1.17.21.24.32.1.13.19.26.28.4.08.12.15.25.22.38.1.15.18.3.26.46.12.23.24.47.34.72.11.26.22.53.31.81.88,2.59-.68,4.57-2.64,6.12Z"/>
      <path class="cls-2" d="M348.02,57.45c-47.99,5.9-96.09,8.77-144.4,6.88,47.41-16.98,95.25-25.47,144.4-6.88Z"/>
      <path class="cls-2" d="M397.14,99.59c-13.18.87-26.37,1.72-39.58,2-29.88.65-59.7-1.27-89.55-2.43-26.66-1.04-53.37-.94-79.94-3.95-8.9-1.01-17.74-2.29-28.3-5.05,9.64-6.11,17.44-11,25.16-16,1.68-1.08,3.25-1.42,5.21-1.01,29.19,6.09,58.5,1.92,87.72.59,26.66-1.22,53.26-3.67,79.91-5.21,5.4-.31,10.67-3.67,16.51.65,10.27,7.59,20.34,15.34,27.37,26.08,3.18,4.87-2.34,4.18-4.51,4.33Z"/>
      <path class="cls-2" d="M409.93,126.45c-29.22,4.31-58.49,8.09-88.03,9.71-34.56,1.89-69.05,5.31-107.39,4.83-26.48,1.95-56.53-.2-86.6-1.84-5.76-.32-7.64-1.11-4.37-6.94,5.57-9.95,11.52-19.54,19.18-28.05,3.09-3.44,6.19-4.95,11-4.19,68.41,10.79,137.49,9.79,206.41,11.23,15.54.33,31.14-1.33,46.7-2.24,4.9-.29,10.59,4.96,11.42,12.02.75,6.33-5.28,5.03-8.32,5.47Z"/>
      <path class="cls-2" d="M393.58,330.53c-8.64,13.91-18.44,24.84-30.5,33.58-6.67,4.84-14.98,4.81-22.77,5.86-32.61,4.39-64.91-.06-97.19-3.91-41-4.89-81.25-13.73-121.27-23.63-4.81-1.19-10.88-1.18-13.77-5.33-4.94-7.11-9.29-14.85-12.43-22.9-1.73-4.42,2.94-1.94,4.5-1.63,24.32,4.96,48.62,10.04,72.92,15.16,61.56,12.96,123.65,15.15,186.14,8.96,5.51-.55,10.99-1.51,16.45-2.49,5.43-.97,10.8-2.2,17.92-3.67Z"/>
      <path class="cls-2" d="M414.54,294.51c-3.64,7.24-6.58,12.82-9.25,18.52-1.85,3.94-5.51,4.71-9.05,5.61-24.69,6.29-49.83,8.81-75.23,10.62-59.52,4.26-117.57-3.93-175.28-17.38-16.44-3.83-33.29-5.91-49.41-11.23-7.42-2.46-13.87-14.72-11.82-22.08,1.12-4.05,3.38-1.38,4.77-.78,7.26,3.13,13.9,7.42,21.34,10.32,65.23,25.4,132.68,34.99,202.24,27.67,26.78-2.82,53.15-8.85,78.99-16.64,6.89-2.07,13.93-2.34,22.7-4.63Z"/>
      <path class="cls-3" d="M318.37,304.29c6.06-8.97,10.87-17.44,13.14-27.07.42-1.8,1.01-3.58,1.24-5.4.53-4.21-1.95-6.56-5.59-7.44-4.32-1.04-5.58,2.16-6,5.51-1.25,10-5.82,18.58-11.15,26.87-4.23,6.57-10.23,9.76-18.01,9.57-21.42-.53-42.87.2-64.28-1.28-18.43-1.28-38.5-21.14-42.8-42.68-1.57-7.86-1.77-15.75-.92-23.69.28-2.63.39-5.3.91-7.88.95-4.72-1.75-7.21-5.56-8.13-5.11-1.23-4.52,3.71-5,6.23-4.51,23.53-.88,45.24,15.09,64.03,2.16,2.54,5.02,4.66,6.22,8.74-16.3-2.58-32.21-5.34-47.36-10.52-18.18-6.21-36.76-11.45-53.61-21.44-7.79-4.62-11.32-9.35-11.27-18.6.17-34.86,6.24-67.79,26.91-96.98,3.61-5.09,7.04-6.69,12.93-6.14,50.7,4.73,101.53,4.13,152.22.94,37.71-2.37,75.58-3.45,113.06-9.08,9.91-1.49,19.92-2.25,29.86-3.6,3.85-.52,5.41.58,6.74,4.44,14.39,41.82,12.26,83.54,1.22,125.73-3.09,11.81-10.18,16.84-20.31,18.9-27.71,5.63-54.73,14.39-82.82,18.28-1.24.17-2.48.36-4.85.71ZM248.57,194.4c0-5.04.16-11.43-7.27-13.79-5.02-1.59-9.79-.05-12.58,4.19-5.39,8.18-7.6,17.25-4.82,27.02,1.26,4.43,4,7.35,8.75,7.94,4.4.55,7.75-1.44,9.98-5.02,3.65-5.86,6.38-12.09,5.94-20.35ZM306.06,195.33c0-5.96.29-11.86-6.2-14.46-4.94-1.98-9.85-.87-12.88,3.32-6.17,8.52-8.77,18.05-5.12,28.45,1.41,4.01,4.17,6.65,8.72,6.98,4.41.32,7.78-1.37,9.98-5.13,3.51-6.01,6.3-12.26,5.51-19.16Z"/>
      <path class="cls-3" d="M121.02,352.16c71.25,16.42,141.39,30.71,216.07,29.21-8.25,6.2-15.79,8.5-23.67,8.74-5.64.17-7.8,1.66-8.33,7.56-.64,7.16-.89,14.16-.21,21.32.65,6.79,3.74,9.49,10.6,9.98,21.61,1.55,43.29,2.86,64.52,7.68,3.58.81,7.16,1.96,10.5,3.47,6.89,3.11,7.41,6.54,1.86,11.76-6.05,5.69-13.95,6.12-21.54,6.67-29.83,2.15-59-3.59-88.31-7.7-3.97-.56-4.39-3.12-4.51-6.2-.45-11.63-.88-23.26-1.39-34.89-.1-2.36-.23-4.78-.82-7.05-.85-3.24-3.25-4.71-6.61-4.36-3.69.39-3.74,3.17-3.67,5.9.36,12.9.48,25.83,1.33,38.7.29,4.4-1.15,6.25-4.89,7.58-24.82,8.79-50.03,15.44-76.68,14.42-6.62-.26-13.21-.82-19.37-3.57-4.43-1.98-5.12-4.76-2-8.65,2.21-2.77,4.91-4.71,7.98-6.36,19.78-10.7,40.89-15.47,63.36-14.74,10.73.35,11.44-.72,9.48-11.28-5.22-28.16-.32-23.16-28.57-26.41-28.6-3.28-53.63-15.42-78.55-28.39-5.91-3.07-11.61-6.21-16.56-13.39Z"/>
      <path class="cls-3" d="M75.13,246.6c0,2.91-.21,5.84.05,8.72.4,4.43-.83,6.94-5.83,7.21-5.99.32-8.73,4.03-9.06,9.95-.34,5.94-2.12,11.44-6.45,15.8-2.05,2.07-4.28,4.53-7.51,2.83-3.56-1.87-3.1-5.47-2-8.42,1.27-3.42,3.45-6.49,5.12-9.77,1.56-3.07,3.46-6.25.08-9.36-3.74-3.45-6.01-.32-8.71,1.83-2.25,1.78-4.79,3.34-7.44,4.41-3.54,1.43-7.58,2.24-9.62-2.19-2.03-4.41,1.07-6.85,4.55-8.71,1.39-.74,2.9-1.27,4.39-1.82,4.26-1.6,9.52-2.91,6.71-9.12-2.45-5.42-6.71-3.4-10.78-1.45-2.33,1.12-4.98,2.09-7.51,2.14-4.34.08-7.99-2.18-8.75-6.57-.76-4.42,2.73-6.32,6.43-7.72,4.29-1.63,8.3-.22,12.44.56,3.44.65,7.21.94,8.9-3.07,1.6-3.8-2.4-4.67-4.21-6.66-1.95-2.14-4.14-4.12-5.75-6.5-2.75-4.03-1.34-7.48,2.18-10.37,3.57-2.92,7.08-3.21,10.65.02,4.71,4.26,5.46,9.92,6.1,15.82.9,8.34,4.08,10.69,11.95,9.61q13.79-1.91,14.06,12.82Z"/>
      <path class="cls-3" d="M446.55,284.76c.8-5.35-.36-10.53-7.71-12.37-3.01-.75-2.96-2.86-2.28-5.59,1.67-6.64,3.02-13.37,4.32-20.09.66-3.4,2.21-4.47,5.49-3.13,1.95.8,4,1.34,6.02,1.95,7.76,2.35,11.35.56,13.48-7.32,1.48-5.49,3.41-10.52,8.19-14.02,4.15-3.04,7.8-2.46,11.2,1.23,3.38,3.67,4.07,7.48.14,11.06-2.51,2.29-5.45,4.11-8.22,6.11-1.79,1.29-5,1.68-3.87,4.95.92,2.67,3.23,4.25,6.05,4.46,3.41.26,6.89-.2,10.26.25,4.38.59,8.09,2.72,9.6,7.2.88,2.59-.69,4.58-2.64,6.13-3.87,3.06-7.89,2.46-11.83.22-2.06-1.17-3.93-2.66-5.91-3.96-3.01-1.97-5.6-1.27-7.49,1.58-1.87,2.82-1.49,5.63,1.26,7.68,2.94,2.21,6.27,3.91,9.08,6.26,2.26,1.89,3.93,4.46,2.05,7.65-2.06,3.5-5.25,3.13-8.37,2.06-3.87-1.33-6.74-4.14-9.16-7.31-1.87-2.45-3.72-4.82-7.12-3.14-3.59,1.78-3.3,5.13-2.47,8.3,1.13,4.29,3.94,8.1,3.58,12.85-.2,2.64.12,5.7-2.9,6.78-3.34,1.2-5.38-1.32-7.19-3.65-3.47-4.46-3.89-9.68-3.55-16.12Z"/>
      <path class="cls-1" d="M248.57,194.4c.43,8.26-2.29,14.49-5.94,20.35-2.23,3.58-5.57,5.56-9.98,5.02-4.74-.59-7.48-3.51-8.75-7.94-2.79-9.78-.57-18.84,4.82-27.02,2.79-4.24,7.56-5.79,12.58-4.19,7.43,2.36,7.27,8.75,7.27,13.79Z"/>
      <path class="cls-1" d="M306.06,195.33c.79,6.9-2,13.15-5.51,19.16-2.2,3.76-5.57,5.45-9.98,5.13-4.55-.33-7.31-2.97-8.72-6.98-3.65-10.4-1.04-19.93,5.12-28.45,3.03-4.19,7.94-5.3,12.88-3.32,6.49,2.61,6.2,8.5,6.2,14.46Z"/>
    </g>
  </g>
</svg>