<?xml version="1.0" encoding="UTF-8"?>
<svg id="Layer_1" data-name="Layer 1" xmlns="http://www.w3.org/2000/svg" viewBox="0 0 512 512">
  <defs>
    <style>
      .cls-1 {
        fill: #017dc2;
      }

      .cls-2 {
        fill: #7ac041;
      }

      .cls-3 {
        fill: #212121;
      }

      .cls-4 {
        fill: #f58e1e;
      }
    </style>
  </defs>
  <g id="s1z3i0">
    <g>
      <path class="cls-3" d="M414.55,187.62c4.74.13,9.11-.29,13.18,1.9,5.17,2.78,8.32,6.87,8.64,12.77.3,5.54-2.6,9.3-7.47,11.49-1.97.89-2.36,1.62-.97,3.35.74.92,1.19,2.12,1.58,3.27,3.35,9.96-2.39,16.7-12.71,14.97-1.02-.17-2.04-.31-3.27-.5-.07,1.35-.21,2.55-.19,3.74.14,12.08-.89,12.09-12.79,14.84-7.73,1.79-13.43-2.12-16.29-10.42-1.31-3.78-2.41-7.68-2.53-11.71-.12-4.18-2.87-3.78-5.76-3.81-3.36-.03-3.86,1.5-3.83,4.53.16,19.64-1.92,39.25-6.22,58.22-6.33,27.89-19.86,52.01-44.98,67.91-4.43,2.8-9.09,5.19-14.4,5.91-2.38.32-3.35,1.38-3.66,3.99-1.51,12.79.21,25.48.73,38.2.23,5.57.72,11.13,1.12,17.09,10.86-2.97,21.74-4,32.77-2.88,9.48.97,18.54,3.34,26.35,9.12,10.48,7.75,13.08,21.61,6.05,32.58-1.25,1.94-2.32,3.02.48,4.66,3.01,1.76,3.32,5.12,3.32,8.36,0,6.7-1.67,13.19-3.4,19.52-1.08,3.94-5.96,5.6-9.44,6.28-18.23,3.6-36.6,5.97-55.33-1.36,2.36,6.15-2.11,7.28-5.84,8.7-6.96,2.66-14.07,2.66-20.97-.09-5.37-2.14-10.11-2.03-15.46.69-7.57,3.87-15.86,3.69-24.01,1.45-2.57-.71-5.4-2.14-5.81-4.81-.75-4.86-3.04-3.51-5.6-2-16.91,9.95-34.77,8.19-52.8,4.31-6.79-1.46-10.59-5.6-11.24-12.59-.36-3.85-1.46-7.4-3.48-10.82-1.89-3.19-.15-6.53,1.4-9.33.91-1.65,1.38-2.36.25-4.22-8.4-13.88-5.08-31.68,8.21-40.93,17.46-12.15,36.92-16.02,57.75-11.37,3.55.79,4.61.38,4.76-3.1.59-13.46.74-26.89-.97-40.29-.35-2.76-1.69-4.36-4.38-5.17-45.72-13.75-68.27-47.34-78.26-91.6-3.28-14.53-4.66-29.31-4.66-44.18,0-4.44-1.48-6.85-5.69-7.76-.67-.15-1.29-.53-1.95-.75-3.64-1.18-7.55-3.76-10.85-3.13-3.59.69-2.57,6.1-4.16,9.25-4.47,8.84-11.75,13.65-19.34,12.14-8-1.59-13.21-10.42-11.77-20.07.28-1.89.82-3.74,1.31-5.92-2.91-.3-5.83-.45-8.7-.91-6.58-1.05-9.3-6.17-6.67-12.32.07-.16.1-.34.18-.49,1.95-4.08,6.79-6.22,8.38-9.62,1.47-3.15-4.99-6-5.34-10.6-.39-5.11,2.17-8.91,7.77-10.03,6.72-1.34,13.16-.29,19.39,2.96,0-2.37-.09-4.54.02-6.71.28-5.51,3.72-10.12,8.09-10.97,5.66-1.11,11.93,2.22,14.07,7.52,2,4.96,2.57,10.21,2.19,15.43-.3,4.16,1.18,5.71,5.16,6.47,9.3,1.77,9.27,1.97,10.69-7.55,4.53-30.37,11.13-60.29,19.48-89.83,2.66-9.42,2.79-9.74-6.04-13.41-13.89-5.78-21.76-16.44-25.51-30.46-3.38-12.66-1.82-24.52,6.88-34.95,2.79-3.34,5.35-6.89,7.77-10.52.99-1.49,1.77-2.55,3.67-1.87,1.78.64,2.23,1.97,2.04,3.73-.13,1.21-.12,2.44-.11,3.66.06,17.36,10.3,25.87,27.17,22.27,19.09-4.07,38.01-8.9,57.39-11.55,24.21-3.3,48.45-5.06,72.1,2.68,21.05,6.89,37.47,20.4,50.36,38.34,6.31,8.78,6.45,19.38,8.9,29.27,3.2,12.9,2.62,26.05.86,39.06-1.98,14.61-2.32,29.22-1.72,43.91.2,4.88.39,9.82-.1,14.66-.43,4.19.89,5.26,4.76,4.39,3.4-.76,7.2-.57,10.21-2.06,3.76-1.85.66-6.26,2.04-9.3,1.01-2.21,1.5-4.66,2.62-6.8,3.93-7.48,11.61-10.87,18.29-8.26,6.54,2.55,10.28,11.26,8.11,19.01-.37,1.33-1.05,2.57-1.8,4.38Z"/>
      <path class="cls-1" d="M267.32,386.52c0-4.7.63-9.44-.62-14.09-.49-1.84-1.07-3.46-3.31-3.29-2.55.2-2.44,2.35-2.23,3.98,1.8,14.24.47,28.61,1.84,42.84.86,8.96-1.54,11.67-10.55,10.74-4.2-.44-8.05-2.14-11.85-3.94-3.57-1.69-2.19-4.66-1.94-7.31,1.27-13.96,1.17-27.9-.89-41.78-.67-4.53-2.18-7.55-7.82-9.3-37.36-11.56-60.27-37.44-71.35-74.42-4.74-15.81-6.98-32.05-7.24-48.49-.73-46.46,5.31-92.05,18.3-136.7,1.56-5.35,3.1-10.72,4.29-16.16.65-2.94,1.57-3.65,4.59-2.69,26.76,8.5,54.22,8.73,81.86,6.65,16-1.2,32.22-1.08,47.96-3.78,11.41-1.96,17.47,1.58,23.57,10.59,8.17,12.05,20.56,20.28,31.32,29.96,1.92,1.72,2.95,3.39,2.55,5.83-1.47,9.03-.69,18.14-.96,27.21-.26,8.55-.51,17.1-.68,25.65-.11,5.79,2.41,8.16,8.14,8.13,5.98-.04,11.73-1.29,17.51-2.7,3.12-.76,3.79-1.83,3.08-5-1.09-4.93.1-9.71,2.76-14.04,3.03-4.94,7.77-6.65,11.87-4.35,4,2.25,5.31,8.1,2.52,12.8-1.77,2.99-4.09,5.65-6.16,8.45-.96,1.3-1.88,2.63-.77,4.27,1.2,1.76,2.93,1.07,4.26.5,5.14-2.21,10.43-2.85,15.89-1.93,5.66.95,8.5,4.5,7.59,9.24-.89,4.63-5.12,7.3-10.44,6.11-3.73-.83-7.31-2.3-10.97-3.45-1.75-.55-3.94-.81-4.68,1-.91,2.21,1.19,3.41,2.95,4.19,1.74.77,3.6,1.29,5.43,1.85,2.68.82,5.28,1.78,7.43,3.68,4.02,3.55,5.21,7.98,2.78,11.6-2.82,4.2-6.5,1.77-9.79.79-3.06-.91-5.34-3.22-7.88-5.09-1.6-1.18-3.52-3.08-5.45-.71-1.73,2.13.38,3.73,1.68,4.83,3.94,3.32,5.34,7.41,5.47,12.46.12,4.75-2.39,6.5-6.35,7.46-3.91.95-7.16.71-9.29-3.44-2.93-5.69-4.87-11.68-4.73-18.04.11-5.02-2.31-6-6.47-5.4-.35.05-.7.04-1.04.09-14.01,1.93-14.1,1.93-14.26,16.15-.21,18.72-2.08,37.23-6.65,55.42-5.88,23.37-17.49,43.14-36.8,58-5.2,4-10.91,6.74-17.5,7.75-6.49.99-7.62,2.41-7.57,8.89.13,17.98-.81,36,1.87,53.89.43,2.88-.6,4.97-3.19,6.56-6.44,3.95-18,3.83-24.08-.32-1.74-1.19-1.85-2.88-1.95-4.59-.73-12.18-1.4-24.36-2.09-36.54Z"/>
      <path class="cls-2" d="M149.63,10.98c1.46,2.29,1.19,4.98,1.85,7.42,3.91,14.51,15.04,20.47,32.05,16.77,16.84-3.66,33.46-8.42,50.6-10.56,23.94-2.99,47.99-5.08,71.81.59,25.65,6.11,57.19,28.04,61.44,65.16,1.16,10.16.89,20.16-.24,30.23-.29,2.58-1.12,3.09-3.18,1.22-12.89-11.74-26.89-22.42-36.17-37.6-1.49-2.44-3.35-2.7-5.7-2.5-13.89,1.21-27.78,2.51-41.68,3.61-29.93,2.38-59.95,5.07-89.61-1.72-15.17-3.47-29.94-8.6-41.07-20.52-14.73-15.76-14.8-38.23-.1-52.12Z"/>
      <path class="cls-1" d="M145.77,209.07c0,3.14-.09,6.29.03,9.43.13,3.53-1.31,4.41-4.45,2.99-5.74-2.59-11.68-4.61-17.77-6.17-5.3-1.36-5.45-.93-5.26,4.53.26,7.21-2.44,13.39-8.44,17.63-5.11,3.61-11.68.94-13.08-5.23-1.72-7.59.3-14.16,6.07-19.48,1.16-1.06,2.47-1.97,3.55-3.09,1-1.03,3.15-1.89,1.95-3.7-1.38-2.09-3.39-1.17-5.08-.07-4.11,2.67-8.33,5.18-13.08,6.48-2.73.75-6.07,1.07-7.79-1.4-1.88-2.71-.24-5.66,1.63-8.12,3.96-5.2,9.58-5.74,15.53-5.74,2.4,0,6.43,1.38,6.79-1.76.39-3.34-3.61-3.34-6.32-3.68-2.59-.33-5.2-.56-7.76-1.03-3.5-.65-6.1-2.14-6.49-6.3-.41-4.41,3.02-4.76,5.62-5.52,4.86-1.42,9.29.56,13.37,3.02,2.98,1.79,5.71,4,8.49,6.11,1.41,1.07,2.98,1.47,4.31.4,1.43-1.16.17-2.57-.35-3.77-1.79-4.08-5.37-7.35-5.22-12.35.1-3.51.18-6.82,4.52-7.63,4.37-.82,6.53,2,7.75,5.46,1.95,5.53,1.68,11.37,1.49,17.12-.12,3.62.35,6.25,4.88,5.93.99-.07,2.01.51,3.03.73q12.19,2.63,12.07,15.19Z"/>
      <path class="cls-4" d="M251.1,432.12c-7.24,6.89-13,14.02-17.42,22.16-4.02,7.42-7.19,15.16-7.17,23.77,0,3.15-1.72,3.18-3.98,3.33-2.88.18-2.51-1.79-2.48-3.47.18-9.79-.32-19.52-2.6-29.09-1.42-5.98-3.45-11.74-6.96-16.81-1.52-2.2-1.42-3.07,1.21-3.93,7.04-2.29,9.24-.59,9,7.14-.11,3.42,1.71,5.62,4.99,6.4,3.42.81,6.7.68,8.63-2.91,1.81-3.37.08-6.39-4.23-7.73-2.89-.9-7.94-1.22-7.03-4.55.88-3.24,5.65-1.51,8.72-.74,6.41,1.61,11.93,5.69,19.3,6.45Z"/>
      <path class="cls-4" d="M166.23,464.66c1.26,0,2.53.28,3.6-.05,4-1.25,5.89-.44,7.79,3.96,2.77,6.42,15.78,5.73,19.05-1.03,2.37-4.89,4.56-10.23,3.97-16.04-.65-6.4-4.99-8.85-10.69-5.86-4.15,2.17-7.63,5.18-8.18,10.17-.31,2.85.59,5.54,3.51,7.01,2.4,1.2,4.51.52,6.15-1.28,1.64-1.79,2.12-3.98.84-6.28-.6-1.08-1.26-2.46-2.66-2-1.22.41-.68,1.73-.38,2.71.54,1.71,1.23,3.97-1.31,4.02-1.97.04-2.11-2.39-2.08-4.12.05-2.98,1.29-5.42,3.72-7.15,1.44-1.02,3.12-1.85,4.88-1.21,2.09.76,1.79,2.82,1.75,4.51-.16,5.72.31,11.75-5.22,15.62-5.27,3.69-9.22,2.28-10.94-3.99-1.49-5.44-.67-10.77,2.01-15.7,2.82-5.19,7.09-8.95,12.22-11.88,2.52-1.44,3.7-.82,4.65,1.72,4.99,13.29,6.85,26.93,5.14,41.07-.38,3.17-1.58,4.08-4.69,3.58-10.94-1.79-21.66-4.04-29.81-12.4-1.39-1.42-3.27-2.68-3.31-5.37Z"/>
      <path class="cls-4" d="M313,470.56c.08-13.17-5.1-23.95-14.8-32.29-4.11-3.54-1.82-4.63,1.16-5.8,3.6-1.41,7.48-1.64,11.33-1.33,1.01.08,2.76-.73,2.73,1.33-.02,1.34-1.02,2.28-2.3,2.5-2.36.4-5.31.03-5.05,3.7.24,3.37,2.73,5.07,5.54,6.34,1.84.84,3.7,1.27,5.24-.53,1.36-1.6.73-3.21-.08-4.85-1.55-3.13.52-7.91,4.02-8.46,2.69-.42,5.54.02,8.31.27,2.02.18,2.02,1.46,1.24,2.98-6.63,12.84-8.68,26.73-9.18,40.92-.15,4.27-3.11,2.7-5.21,2.98-2.39.32-3.63-.54-3.2-3.21.25-1.54.18-3.13.25-4.55Z"/>
      <path class="cls-4" d="M352.45,469.21c-5.25,4.29-10.75,5.32-16.06,6.78-2.09.57-2.71-.57-2.79-2.53-.57-12.92,3.64-24.68,8.68-36.24.35-.81.95-1.28,1.98-1.41,9.77-1.2,20.04,10.48,17.51,20-1.67,6.31-7.71,10.43-14.17,10-3.06-.21-4.37-1.72-4.66-4.51-.38-3.6.38-6.95,2.41-9.95,1.5-2.22,3.17-4.35,6.32-3.61,2.15.5,3.41,2.39,3.36,4.22-.09,3.05-1.83,5.3-4.94,6.2-.95-1.58.14-2.22.68-3.03.79-1.17,2.88-2.39.56-3.72-1.75-1.01-3.49.05-4.4,1.71-1.46,2.69-1.5,5.68.95,7.64,2.64,2.11,5.63,1.45,8-.92,3.37-3.35,2.92-11.17-.73-14.27-3.96-3.37-9.06-2.29-12.52,2.66-2.87,4.1-3.54,8.71-2.65,13.49.94,5.05,4.08,6.95,12.47,7.5Z"/>
      <path class="cls-4" d="M214.19,493.3c-14.73,1.63-28.13-3.68-41.61-8.27-2.37-.81-6.78-2.35-5-5.79,1.83-3.55,4.54.46,6.35,1.43,17.18,9.25,34.98,10.33,53.67,5.6,10.61-2.68,21.58-4.02,31.28-9.59.74-.42,1.83-1.14,2.22-.12.59,1.55,1.11,3.31-.56,4.8-2.65,2.36-5.7,4.01-8.96,5.26-9.51,3.65-19.51,5.08-29.56,6.21-2.6.29-5.22.32-7.84.48Z"/>
      <path class="cls-4" d="M306.37,493.68c16.19-1.31,32.36-2.23,47.99-7.08,2.83-.88,5.62-1.89,8.35-3.05,2.49-1.05,2.92-.26,2.87,2.19-.09,4.88-1.91,7.8-6.97,9.24-17.59,5.03-34.96,5.03-52.24-1.31Z"/>
      <path class="cls-4" d="M313.85,487.56c-12.44-.27-25.73-1.66-38.5-6.32-1.96-.71-3.88-1.57-5.76-2.47-2.15-1.03-3.45-3.58-2.71-5.1,1.12-2.29,3.39-.39,4.86.52,11.41,7.07,24.36,10.63,37.19,10.85,18.96.34,37.99-2.15,53.39-15.46,1.52-1.31,2.89-1.93,4.49-.29,1.5,1.54,1.19,3.17.07,4.73-2.46,3.44-6.1,5.06-9.94,6.39-13.63,4.72-27.66,6.97-43.1,7.15Z"/>
      <path class="cls-4" d="M224.69,497.98c-6.33,5.27-14.05,6.42-21.77,7.17-8.2.8-16.34-.14-24.27-2.39-9.03-2.56-9.52-3.32-9.43-13.8,17.74,8.21,36.17,10.99,55.47,9.02Z"/>
      <path class="cls-4" d="M270.94,486.34c8.48,1.8,16.8,3.53,25.1,5.35,5.08,1.11,2.14,5.82,3.56,8.65,1.16,2.32-1.68,2.85-3.53,3.29-7.74,1.84-15.2-.03-22.66-1.75-1.87-.43-2.43-1.86-2.45-3.54-.05-3.98-.01-7.96-.01-12.01Z"/>
      <path class="cls-4" d="M265.37,484.99c0,5.98-.06,10.45.03,14.91.04,1.76-.97,2.54-2.3,3.06-6.23,2.42-12.6,4.01-19.36,2.73-3.54-.67-7.14-5.69-6.58-9.03.34-2.06,2.01-1.52,3.26-1.76,8.37-1.6,16.83-2.94,24.95-9.92Z"/>
      <path class="cls-4" d="M208.89,467.54c.1-11.32-2.76-21.17-5.41-31.07-.38-1.43-2.4-3.38.09-4.41,2.14-.88,3.4,1.05,4.43,2.75,4.55,7.5,5.8,15.97,6.83,24.4.8,6.55.92,13.18,1.31,19.77.34,5.79-4.28,3.95-6.96,4.03-4.17.12-1.56-2.91-1.35-4.48.54-3.96,1.34-7.89,1.07-11Z"/>
      <path class="cls-4" d="M289.66,474.78c5-2.23,7.35-6.09,6.96-11.16-.37-4.75-2.82-8.43-7.81-9.16-2.98-.43-3.69-1.65-3.53-4.35.09-1.52-.42-3.08-.72-4.62-.52-2.63-1.98-4.45-4.69-4.97-2.91-.56-5.08.68-6.66,3.08-.55.83-1.03,1.7-1.55,2.57-1.41-.52-.93-1.54-.98-2.26-.73-10.31-.47-10.54,9.1-6.57,12.58,5.22,18.22,15.49,20.23,28.3.16,1.03.16,2.08.23,3.13.63,9.82-.46,10.49-10.58,6.01Z"/>
      <path class="cls-4" d="M165.94,452.93c3.52,2.44,5.95.73,7.78-2.26,2.22-3.63,2.93-7.94.95-11.5-1.81-3.24-.28-4.34,1.74-5.68,3.74-2.48,7.21-5.57,12.08-5.73,2.48-.08,4.82.68,5.66,2.95.99,2.66-2.06,2.66-3.42,3.56-8.52,5.6-15.12,12.4-15.4,23.38-.09,3.4-3.06,3.54-5.12,4.29-2.07.75-3.65-.69-4.36-2.74-.45-1.31-.73-2.67-1.09-4.01-.65-1.3-.79-2.34,1.2-2.24Z"/>
      <path class="cls-4" d="M249.8,474.16c-2.67,1.74-5.77,2.25-8.75,3.14-3.04.91-4.28.16-3.64-3.11,3.28-16.79,11.29-30.35,26.77-39.71,0,4.82,0,8.94,0,13.05-8.14-5.25-13.31-3.13-15.05,6.32-.34,1.84-1.07,3.15-2.25,4.51-1.23,1.43-2.38,3.07-3.04,4.82-2.13,5.68-.32,8.55,5.88,9.78.58.37.61.77.08,1.21Z"/>
      <path class="cls-4" d="M325.57,468.83c.21-11.71,3.62-22.62,8.41-33.18.85-1.86,2.03-2.97,4.03-2.17,2.49.99.75,2.6.2,3.83-5.17,11.74-9.25,23.72-8.89,36.8.03,1.25.5,3.12-1.7,3.08-1.98-.03-1.87-1.85-2-3.13-.18-1.73-.05-3.49-.05-5.23Z"/>
      <path class="cls-4" d="M285.91,436.93c3.03-1.08,4.64-.67,6.31.72,10.8,8.95,16.58,20.35,17.03,34.39.04,1.38-.21,2.76-.37,4.14-.16,1.38-.79,2.31-2.37,2.05-1.44-.23-1.25-1.4-1.35-2.4-.41-4.15-.52-8.35-1.3-12.43-2.08-11-7.04-20.28-17.97-26.46Z"/>
      <path class="cls-4" d="M281.42,472.62c-3.07-1.48-5.33-2.57-7.83-3.78,3.45-3.7,6.48-7.03,9.6-10.28,2.04-2.13,4.47-1.9,6.59-.31,3.15,2.36,3.83,5.79,2.86,9.42-.7,2.63-2.82,4-5.5,4.02-2.34.02-2.06-1.97-2.08-3.47-.02-1.02.09-2.33,1.68-1.07.95.75,2.08.96,2.6-.28.8-1.89-.51-3.31-1.59-4.67-.86-1.08-1.82-.65-2.75-.01-3.42,2.33-4.02,5.88-3.58,10.43Z"/>
      <path class="cls-4" d="M270.61,465.21c0-3.25-.01-5.86,0-8.47.02-2.66-1.44-6.03,3.96-5.17,2.15.35,3.66-2.36,3.19-5.02-.18-1.04-1.77-2.35.28-2.92,2.32-.65,2.45,1.52,2.81,2.9,1.63,6.19-2.22,13.45-10.24,18.69Z"/>
      <path class="cls-4" d="M366.46,453.94c-1.05-10.91-6.73-17.41-16.84-20.32-1.39-.4-4.9.18-3.48-3.55,1.38-3.63,3.83-1.63,5.54-.82,7.77,3.69,14.33,8.54,15.92,17.87.4,2.34.2,4.4-1.14,6.83Z"/>
      <path class="cls-4" d="M264.13,452.67v14.57c-4.59-3.29-6.63-7.9-10.7-10.51-2.01-1.29.86-7.99,3.45-8.73.83-.24,1.86-.46,2.12.66.17.75.05,1.77-.35,2.42-.65,1.06-3.73.91-1.84,3.15,1.45,1.71,3.42,1.24,5.11-.11.5-.4,1.07-.71,2.2-1.45Z"/>
      <path class="cls-4" d="M249.16,441.52c-2.18,3.12-4.34,6.25-6.53,9.36-5.33,7.56-8.93,15.72-8.82,25.19.02,1.56.17,3.63-2.13,3.3-1.96-.29-.98-2.24-.93-3.47.49-11.96,7.79-26.22,18.41-34.38Z"/>
      <path class="cls-4" d="M249.8,474.16c-.03-.4-.05-.81-.08-1.21.83-.24,1.66-.54,2.51-.72,2.12-.46,3.35-1.76,3.69-3.86.27-1.72-.44-3.05-1.96-3.91-1.95-1.1-3.74-.57-5.29.74-.56.48-.71,1.46-1.45,3.14-1.31-4.55-.23-6.62,2.15-7.86,2.48-1.29,4.55.19,5.91,2,5.83,7.76,5.46,7.99-5.47,11.69Z"/>
      <path class="cls-4" d="M165.94,452.93c-.97.44-1.12,1.33-1.19,2.24-.95-3.53,1.58-12.25,4-14.09,1.55-1.18,2.47-.84,3.04.96.94,2.97-1.26,5.76-4.39,6.27-2.87.48-1.44,2.91-1.47,4.62Z"/>
      <path class="cls-4" d="M213.32,424.02c-5.23,3.51-6.07,3.51-9.41-.02,4.09-1.95,5.63-1.95,9.41.02Z"/>
      <path class="cls-4" d="M323.06,427.21c3.03-2.14,5.52-1.43,7.8-1.42,1.2,0,3.5-.74,3.45,1.05-.07,2.33-2.44,1.92-4.11,1.7-2.04-.27-4.04-.74-7.14-1.32Z"/>
      <path class="cls-4" d="M194.22,425.45c1.06-1.26,2.46-.84,3.69-.54,1.51.36,2.83,1.21,3.43,2.77.32.83-.38,1.23-.92,1.6-1.9,1.29-2.76-.4-3.77-1.42-.78-.79-2.34-.79-2.42-2.4Z"/>
      <path class="cls-4" d="M251.26,438.87c1.83-4.09,5.08-6.01,9.4-6.28-3.13,2.09-6.27,4.19-9.4,6.28Z"/>
      <path class="cls-4" d="M343.63,427.49c-.56,1.31-1.22,2.6-2.64,3.03-.9.27-1.98-.37-2.03-1.2-.09-1.63,1.26-2.34,2.62-2.83.99-.36,1.66.02,2.05,1Z"/>
      <path class="cls-4" d="M246.67,469.1c2.65.09,3.37-2.69,5.53-1.98.67.22.82,1.23.36,1.77-1.35,1.56-2.97,2.21-5.89.22Z"/>
      <path class="cls-3" d="M313.76,209.33c.7-7.02-1.46-14.49-2.2-22.1-.16-1.62-1.3-4.14,1.51-4.84,2.8-.7,3.57,1.42,4.16,3.55,7.94,28.68.66,68.18-25,87.64-25.56,19.38-73.15,17.22-93.85-18.39-9.92-17.06-15.17-35.48-13.8-55.42.2-2.85-.49-7.73,3.31-7.35,4.81.47,2.79,5.28,2.66,8.61-.79,21.43,8.47,58.36,33.79,71.87,28.28,15.1,71,8.56,85.17-34.03,3.11-9.36,4.62-18.94,4.26-29.54Z"/>
      <path class="cls-3" d="M246.49,125.36c.16-5.84,1-10.08,2.96-14.06,1.87-3.79,4.93-5.24,9.03-4.5,4.11.74,6.51,3.38,7,7.38.93,7.63-1.47,14.51-5.79,20.65-2.74,3.9-8.53,3.29-10.82-.84-1.73-3.12-2.58-6.47-2.38-8.63Z"/>
      <path class="cls-3" d="M207.64,121.92c-.24-4.35.46-8.34,3.2-11.86,3.14-4.04,6.48-4.33,9.93-.66,5.86,6.24,3.74,21.11-3.58,25.56-3.58,2.17-6.1,1.75-7.75-2.42-1.37-3.47-2.04-6.99-1.8-10.62Z"/>
      <path d="M165.46,60.19c8.04,5.44,16.19,10.35,25.98,11.59,4.31.55,8.63,1.11,12.96,1.38,21.07,1.29,42.15,3,63.25,2.06,13.5-.6,26.97-2.52,40.2-5.6,1.73-.4,3.38-.73,5.49.25-4,3.04-8.72,2.34-12.88,3.36-12.86,3.18-26.04,5.26-39.23,4.9-16.39-.45-32.81,0-49.2-1.24-10.43-.79-20.8-1.39-30.85-4.59-6.7-2.14-11.73-6.45-15.74-12.11Z"/>
      <path d="M181.36,51.25c36.61,12.48,73.82,11.7,112.39,4.38-5.69,5.7-33.91,10.25-57.21,8-23.93-2.31-32.95.3-55.18-12.38Z"/>
      <path d="M208.82,41.13c25.19,2.64,50.11.75,74.99-2.48-24.74,7.55-49.78,8.1-74.99,2.48Z"/>
    </g>
  </g>
</svg>