<?xml version="1.0" encoding="UTF-8"?>
<svg id="Layer_1" data-name="Layer 1" xmlns="http://www.w3.org/2000/svg" viewBox="0 0 512 512">
  <defs>
    <style>
      .cls-1 {
        fill: #fff;
      }

      .cls-1, .cls-2, .cls-3, .cls-4, .cls-5, .cls-6, .cls-7 {
        fill-rule: evenodd;
      }

      .cls-2 {
        fill: #212121;
      }

      .cls-3 {
        fill: #ffcd00;
      }

      .cls-4 {
        fill: #009845;
      }

      .cls-5 {
        fill: #00a0df;
      }

      .cls-6 {
        fill: #0033a1;
      }

      .cls-7 {
        fill: #cf3339;
      }
    </style>
  </defs>
  <path class="cls-2" d="M265.95,116c6.28-1.68,11.2-6.28,16.12-10.37,4.92-4.08,10.05-8.06,13.82-12.88,3.87-.94,4.61-8.06,8.69-9,2.72-.63,7.33,1.47,7.75,4.19.52,3.35-6.7,8.38-8.69,10.37-9.42,9.21-20.94,18.64-30.99,25.13,7.01,2.3,13.09,1.15,20.31,2.3,13.19,1.99,26.7,7.01,38.74,12.25,12.04,5.23,23.35,10.68,32.56,18.11,3.77,2.93,6.81,5.76,10.37,9,5.44,5.13,9.53,10.78,14.24,17.38,7.12,10.05,14.03,20.52,18.11,32.56.63,1.99.73,4.5,1.26,6.81.52,1.99,1.57,4.08,1.88,5.76.52,3.04.52,6.18.94,9,2.62,15.5,1.05,32.04-2.3,47.74-2.41,11.41-7.64,22.41-12.56,32.56-9.53,19.58-22.72,37.8-40.94,49.31-6.81,4.29-13.51,8.9-20.94,12.88-2.51,1.36-4.82,3.25-7.12,4.19-2.93,1.26-7.33,1.36-10.99,2.3-3.56.94-6.6,2.93-9.32,3.56-4.5.94-8.48,0-9.63,5.44-.63,2.72-.21,7.64.31,11.94.63,4.71,2.3,10.99,3.56,17.07,1.26,5.97,2.62,12.04,3.87,16.44.52,1.68,1.78,3.66,2.3,5.13,1.05,3.66.52,5.44,2.62,7.43,3.35,3.14,10.05,3.77,12.88,8.69,2.2,3.66,3.66,11.2,1.57,16.44-4.4,11.2-22.2,15.5-35.81,16.75-2.2.21-4.82-.42-7.12,0-1.68.31-3.98,2.3-6.18,3.56-18.85,11.31-62.19,18.74-88.99,10.37-7.64-2.41-13.61-8.06-17.69-13.92-2.09-5.86,0-11.62,1.26-17.38,1.47-1.68,3.04-3.14,4.19-5.13-1.68-2.83-3.77-5.03-5.76-7.43-5.55-19.68,7.22-34.13,22.61-39.05,5.34-16.23,30.36-18.32,48.69-17.38.1-3.87-1.15-6.39-1.57-9.63-2.2-3.66-6.81-3.04-11.94-3.87-6.7-1.15-13.51-3.25-20.31-4.5-19.26-3.56-35.49-10.99-50.36-20.94-4.61-3.14-8.48-7.33-12.88-10.99-20.94-17.17-35.28-45.54-41.57-77.48-2.41-11.94-1.05-25.86.31-38.42,1.68-14.97,7.12-28.9,11.94-41.57,9.84-15.39,23.98-26.59,37.06-38.74-10.26-.21-22.41.94-33.19-.94-5.86-1.05-12.88-2.72-13.92-8.38,5.23-5.03,13.3.94,20.94,1.57,11.41.94,22.2-.84,30.99-3.56-3.35-4.5-6.7-9-9.63-13.92-9.11-24.19-17.8-53.61-9.32-82.61,5.76-19.58,15.29-34.24,31.93-43.55,13.61-7.64,32.14-12.15,53.5-10.05,2.09.21,5.03.73,7.12,1.26,19.89,5.86,38.22,22.41,43.87,44.18,1.88,7.12,4.5,17.28,3.56,26.8-1.68,15.5-4.4,30.68-10.16,43.24h0ZM260.72,101.86c2.83-9.74,4.61-20.21,5.44-31.62,1.26-17.28-6.49-35.18-16.12-45.13-5.34-5.44-12.04-10.26-19.37-12.25-3.25-.94-5.97-2.51-9.32-2.93-37.17-4.5-64.39,12.35-73.92,39.37-1.26,3.66-2.83,7.43-3.87,10.99-3.46,12.25-2.72,26.59-.63,38.74,1.57,9.32,4.19,17.69,7.12,25.44,3.46,9.42,6.18,16.23,13.51,21.57,3.87-2.93,6.81-7.54,10.99-10.99,1.99-1.57,4.82-3.14,7.43-4.82s4.92-3.98,7.43-5.13c1.15-.52,2.41-.42,3.56-.94,1.26-.63,2.2-1.99,3.56-2.62,1.78-.84,4.61-1.68,6.81-2.3,16.12-3.98,32.04-.63,48.37,1.57,4.5-5.86,6.6-10.57,9-18.95h0ZM242.08,227.29c2.41-1.05,4.82-3.14,7.12-4.5,5.76-3.56,8.69-6.07,12.88-10.99,4.61-5.34,10.68-11.62,13.51-17.69,9.84-21.04,3.87-48.69-11.31-59.36-2.2-1.57-5.34-3.04-8.06-4.19-7.85-3.35-15.5-4.5-25.76-4.82-4.92-.21-13.09-.42-18.11.94-4.71,1.36-9.11,4.19-13.92,5.13-1.36.31-2.83-.1-4.19.31-4.19,1.36-10.26,6.49-13.82,9.63-9,7.75-17.59,18.64-20.94,30.68-3.98,14.45,1.26,30.05,8.06,42.3,15.08,19.06,50.36,23.35,74.55,12.56h0ZM298.2,381.51c2.09-.21,4.71-1.57,7.12-2.3,5.65-1.68,10.16-2.09,15.18-4.19,2.83-1.15,5.76-1.88,8.06-2.93,8.48-3.66,16.23-9.84,24.19-15.18,7.64-5.03,14.45-12.77,19.68-19.68,11.52-15.18,20.94-32.88,26.49-52.56,5.03-18.22,5.03-38.11,1.57-56.75-2.62-14.45-8.27-26.07-15.18-36.44-6.39-9.63-12.15-16.65-20.31-23.56-3.25-2.72-6.07-5.86-9.32-8.38-3.35-2.62-7.43-4.29-11.31-6.49-4.08-2.3-8.06-4.19-12.25-5.76-8.06-3.14-16.23-7.75-25.44-10.37-9.63-2.62-19.89-3.77-31.3-4.5-.31,0-.42.21-.63.31.1.21,0,.63.31.63.31,1.78,1.88,2.41,2.93,3.56,9.53,10.26,14.55,31.3,10.37,49.73-.63,2.93-1.88,8.17-3.25,10.68-2.2,4.19-6.49,10.68-9.32,13.92-6.28,7.12-12.04,12.56-20,17.69-12.67,8.17-29.63,14.66-50.05,11.94-8.27-1.15-14.87-3.14-21.25-5.13-15.91-5.13-24.6-14.45-30.36-29.32-3.46-9.11-5.97-18.53-3.87-30.68-10.16,5.65-16.54,15.08-24.5,22.93-9.84,14.24-14.03,35.07-15.81,54.86-.84,9.21-1.36,17.38.31,25.76,3.04,15.7,7.33,28.58,13.82,41.25,7.96,15.5,15.7,24.08,28.37,35.18,6.81,5.86,14.76,10.99,22.3,15.18,11.94,6.7,27.54,10.05,42.93,12.88,5.44,1.05,11.41,2.09,16.44,2.3,2.62.1,5.03-.73,7.12,0,4.19,1.57,4.29,6.49,5.13,11.31.42,1.99,1.15,4.19,1.57,6.49,1.47,6.81,2.62,16.23,6.49,20,3.46.94,7.96.52,10.99-.63-1.26-7.43-1.26-17.28-2.3-25.44-.63-4.82-2.51-10.57,4.19-10.05,8.06.73,2.93,21.57,6.81,26.49,5.23.52,11.2-.42,14.87-2.62-.73-9.42-2.2-18.22-1.88-26.8,2.41-4.82,6.28-2.93,11.1-3.35h0ZM224.91,418.99c6.28,0,12.35,1.78,17.38,1.88.21-.94-.31-1.15-.31-1.88-4.5.52-13.61-6.49-17.07,0h0ZM209.73,420.25c3.04-1.05,9.42,1.26,9.63-2.62-3.66.31-6.91,1.15-9.63,2.62h0ZM274.96,422.87c.84,2.72.21,6.91,2.3,8.38,2.62-2.62,5.44-4.71,8.69-6.49,1.78-.94,4.5-1.26,5.13-3.56-4.92-.31-10.89.94-16.12,1.68h0ZM225.22,429.26c1.26.21,4.08-.63,4.82-1.88-1.88-1.47-4.61-.21-4.82,1.88h0ZM206.59,432.82c-1.26,1.99-2.3,4.82-2.93,6.81,6.28-1.47,10.05-5.44,15.81-7.43.63-1.68,2.09-2.62,2.3-4.82-7.54,0-12.56,1.15-15.18,5.44h0ZM248.47,430.93c-1.57-.31-3.04-1.88-4.19-2.3-6.07-1.88-9.21,1.68-13.19,2.62-3.87.84-5.97,2.2-9,3.56-.21,2.2-1.15,3.56-.94,6.18,7.85,3.46,3.87,16.12-3.25,16.12-3.35,0-5.23-2.2-5.44-4.82-.52-6.39,6.81-8.59,5.76-15.5-6.28,1.68-10.99,4.92-16.44,7.43.94,9.95,6.81,18.43,17.38,19.06,8.9.52,18.53-3.35,23.24-8.69,2.93-3.35,4.71-7.96,7.43-11.62,2.93-3.98,6.28-6.91,8.69-10.68-3.35-1.47-7.54-.84-10.05-1.36h0ZM279.77,441.82c1.78,4.5,4.61,12.67,8.06,14.24,3.25,1.36,7.43-.73,11.31-1.88-.63-5.76-3.35-11.31-4.5-16.75-.52-2.51-.1-5.65-2.62-7.12-5.55,2.3-9,6.81-12.25,11.52h0ZM251.71,457c-6.91,9.21-18.11,12.46-33.92,13.19-9.21-2.62-19.68-7.43-22.61-16.75-2.2-7.12-1.36-14.13,1.88-20.63-.31,0-.42-.31-.63-.31-9.42,3.66-16.86,9.32-20,19.37-.31,17.48,15.6,24.81,31.62,25.44,21.46.94,43.55-4.71,59.99-11.31,4.08-1.68,8.27-3.04,10.68-5.76-4.29-6.7-7.22-14.66-10.68-22.3-8.79,2.93-11.31,12.35-16.33,19.06h0ZM315.26,467.99c-.63-3.46-4.82-7.85-9-7.75-1.99,0-3.77,1.99-6.18,2.62-3.87.94-7.85,1.05-10.99,2.93,1.88,5.97,2.51,13.92-.31,19.37,9.95-.21,28.69-4.5,26.49-17.17h0ZM222.08,485.37c-14.45.73-29,.31-39.37-6.81-5.13,2.62-7.12,10.37-3.56,15.81,12.25,9.95,37.9,10.57,58.42,7.12,5.23-.94,10.89-2.93,16.44-4.5,13.92-4.08,27.64-10.16,27.12-26.17h-.63c-16.02,6.49-37.48,13.51-58.42,14.55h0Z"/>
  <path class="cls-4" d="M251.71,120.92c-16.33-2.2-32.25-5.55-48.37-1.57-2.2.52-5.03,1.47-6.81,2.3-1.26.63-2.3,1.99-3.56,2.62-1.15.52-2.41.42-3.56.94-2.51,1.15-4.82,3.46-7.43,5.13-2.62,1.68-5.44,3.25-7.43,4.82-4.19,3.46-7.12,7.96-10.99,10.99-7.33-5.34-10.05-12.25-13.51-21.57-2.83-7.75-5.55-16.23-7.12-25.44-1.99-12.15-2.83-26.49.63-38.74,1.05-3.56,2.62-7.33,3.87-10.99,9.53-27.01,36.64-43.87,73.92-39.37,3.35.42,6.07,1.99,9.32,2.93,7.33,2.09,14.03,6.81,19.37,12.25,9.63,9.95,17.38,27.85,16.12,45.13-.84,11.31-2.72,21.88-5.44,31.62-2.41,8.27-4.5,12.98-9,18.95h0Z"/>
  <path class="cls-7" d="M167.53,214.73c-6.81-12.15-12.04-27.85-8.06-42.3,3.35-11.94,11.94-22.82,20.94-30.68,3.66-3.14,9.74-8.38,13.82-9.63,1.36-.42,2.83,0,4.19-.31,4.82-1.05,9.11-3.87,13.92-5.13,4.92-1.36,13.09-1.15,18.11-.94,10.26.31,17.9,1.47,25.76,4.82,2.72,1.15,5.86,2.62,8.06,4.19,15.18,10.68,21.15,38.32,11.31,59.36-2.83,6.18-8.9,12.46-13.51,17.69-4.19,4.82-7.22,7.43-12.88,10.99-2.3,1.36-4.71,3.46-7.12,4.5-24.19,10.78-59.47,6.49-74.55-12.56h0Z"/>
  <path class="cls-3" d="M286.89,384.76c-.21,8.59,1.15,17.38,1.88,26.8-3.56,2.2-9.53,3.04-14.87,2.62-3.77-4.92,1.26-25.76-6.81-26.49-6.7-.63-4.82,5.13-4.19,10.05,1.05,8.27,1.05,18.01,2.3,25.44-3.04,1.15-7.54,1.68-10.99.63-3.77-3.77-5.03-13.19-6.49-20-.42-2.2-1.26-4.4-1.57-6.49-.94-4.82-.94-9.74-5.13-11.31-2.09-.73-4.5.1-7.12,0-5.03-.21-10.99-1.26-16.44-2.3-15.39-2.93-30.89-6.28-42.93-12.88-7.54-4.19-15.5-9.21-22.3-15.18-12.67-10.99-20.42-19.68-28.37-35.18-6.6-12.67-10.78-25.65-13.82-41.25-1.68-8.38-1.15-16.65-.31-25.76,1.78-19.79,5.97-40.52,15.81-54.86,7.96-7.85,14.34-17.28,24.5-22.93-2.09,12.15.42,21.57,3.87,30.68,5.76,14.97,14.45,24.29,30.36,29.32,6.39,2.09,12.98,4.08,21.25,5.13,20.42,2.72,37.27-3.77,50.05-11.94,7.96-5.13,13.72-10.68,20-17.69,2.83-3.25,7.12-9.74,9.32-13.92,1.36-2.51,2.51-7.64,3.25-10.68,4.19-18.43-.84-39.37-10.37-49.73-1.05-1.15-2.62-1.78-2.93-3.56-.31,0-.21-.42-.31-.63.31-.1.31-.31.63-.31,11.41.73,21.67,1.88,31.3,4.5,9.32,2.62,17.38,7.12,25.44,10.37,4.19,1.68,8.17,3.56,12.25,5.76,3.87,2.2,7.96,3.87,11.31,6.49,3.25,2.51,6.07,5.65,9.32,8.38,8.17,6.91,13.92,13.92,20.31,23.56,6.91,10.37,12.56,21.99,15.18,36.44,3.35,18.64,3.46,38.53-1.57,56.75-5.44,19.79-14.97,37.38-26.49,52.56-5.23,6.91-12.04,14.66-19.68,19.68-8.06,5.23-15.7,11.41-24.19,15.18-2.3,1.05-5.23,1.78-8.06,2.93-4.92,2.09-9.53,2.51-15.18,4.19-2.41.73-5.03,2.09-7.12,2.3-4.61.52-8.48-1.36-11.1,3.35h0ZM319.14,170.86c-.31,2.83,2.72,7.01,3.87,9.95,2.62,6.6,3.46,14.03,4.5,21.25,2.09,14.87.73,29.32-4.19,41.25-7.12,1.47-9.74,7.43-12.88,12.88-5.44-3.98-11.52-10.16-19.37-12.56-5.86-1.78-14.34-.73-17.38,3.56-.94,7.75,1.47,14.03,3.25,18.11-10.68,1.57-24.71,2.62-20.63,16.75,2.09,3.46,7.01,5.65,8.69,8.38-9.74,3.66-17.59,20.52-7.75,29-1.57,1.88-4.08,1.57-6.81,2.3-1.57.42-3.14,1.47-4.82,1.88-4.4,1.05-9.84,2.09-13.51,2.3-3.14.1-7.43-.42-9-3.25,2.3-3.56,6.39-5.44,9.63-8.06,2.2-4.19,5.97-10.05,6.49-16.12,1.05-12.88-7.43-16.65-18.43-16.75,2.93-9,2.2-18.32-4.5-21.99-12.88-6.91-20.42,5.65-25.44,12.25-3.25-5.86-6.6-13.72-14.87-12.88-5.34.52-12.88,8.48-14.24,14.24-.73,2.93.73,6.39-1.26,9-3.77-2.83-7.12-6.18-8.69-10.68-3.04-8.79-5.76-21.67-6.49-30.36-.31-4.08.94-8.27.63-12.25-.31-3.46-5.55-5.34-8.69-4.19-1.57,3.56-1.36,8.27-1.26,12.56.1,14.76,4.71,31.41,9,43.55-2.72,1.36-4.5,3.66-6.49,5.76-2.93,11.41,4.08,18.43,10.37,23.56-3.35,2.51-5.55,6.07-7.43,10.05.1,6.39,2.09,9.95,5.76,12.88,2.72,2.2,7.12,2.93,7.75,5.13.52,1.78-1.26,3.56-.63,5.13,1.15,3.25,5.55,3.77,8.06,1.88,1.47-4.5.21-11.83,2.93-15.18,4.61-.73,9.74-.84,15.81,0,3.56.52,12.67,2.93,12.88,5.76.42,5.65-3.14,11.73-3.25,18.43,1.47,1.99,5.65,1.88,8.38.94,2.51-1.99,1.05-7.96,3.56-9.95,10.26.94,15.08-6.18,20.63-10.99,12.35,1.88,24.71-1.99,36.75-4.19,1.47-2.09,4.29-2.3,6.81-3.87s4.19-4.4,6.81-5.13c4.71-1.36,9,.31,12.88-2.3,3.14,3.14,5.23,6.6,10.68,6.81,5.55.21,10.05-3.35,13.92-5.44,1.88,3.35,3.77,8.48,10.05,6.49,2.72-8.48-6.91-12.25-9.63-18.43,1.57-3.46,4.61-5.03,7.75-7.75,4.19-3.66,8.38-8.06,14.24-4.5,6.6,4.08,7.33,14.45,16.75,15.18,6.91-6.81-5.44-12.25-7.12-17.69,3.25-4.29,1.57-7.75,0-11.62-.63-1.57-.94-3.46-1.57-4.5-1.78-2.62-5.23-3.25-6.49-5.44,2.2-4.92,5.76-9.63,4.82-17.38-.73-6.07-5.34-7.01-4.82-12.88.42-4.4,2.3-10.37,2.93-14.55,2.3-16.75-2.93-33.92-6.18-49.63-2.2-1.99-1.88-6.49-3.87-8.69-2.62-1.26-8.48-2.2-8.9,1.99h0Z"/>
  <path class="cls-2" d="M327.83,168.97c1.99,2.2,1.68,6.7,3.87,8.69,3.14,15.7,8.38,32.88,6.18,49.63-.52,4.19-2.51,10.16-2.93,14.55-.52,5.86,4.08,6.91,4.82,12.88.94,7.85-2.62,12.46-4.82,17.38,1.26,2.2,4.71,2.83,6.49,5.44.73,1.05.94,2.93,1.57,4.5,1.57,3.87,3.25,7.33,0,11.62,1.68,5.44,13.92,10.89,7.12,17.69-9.42-.73-10.16-11.1-16.75-15.18-5.76-3.56-10.05.84-14.24,4.5-3.14,2.72-6.18,4.29-7.75,7.75,2.72,6.18,12.46,9.95,9.63,18.43-6.28,1.99-8.06-3.04-10.05-6.49-3.87,2.09-8.38,5.65-13.82,5.44-5.44-.21-7.54-3.66-10.68-6.81-3.87,2.62-8.27.94-12.88,2.3-2.51.73-4.29,3.56-6.81,5.13-2.51,1.57-5.23,1.78-6.81,3.87-12.15,2.2-24.39,6.07-36.75,4.19-5.55,4.82-10.47,11.94-20.63,10.99-2.51,1.99-1.05,7.96-3.56,9.95-2.72.84-6.91,1.05-8.38-.94,0-6.6,3.66-12.77,3.25-18.43-.21-2.83-9.42-5.34-12.88-5.76-6.07-.84-11.2-.73-15.81,0-2.72,3.35-1.36,10.68-2.93,15.18-2.51,1.88-6.91,1.26-8.06-1.88-.63-1.57,1.15-3.46.63-5.13-.63-2.2-5.03-3.04-7.75-5.13-3.77-2.93-5.76-6.6-5.76-12.88,1.88-3.87,4.08-7.54,7.43-10.05-6.18-5.13-13.3-12.15-10.37-23.56,1.99-2.09,3.77-4.4,6.49-5.76-4.29-12.15-8.9-28.79-9-43.55,0-4.29-.31-9,1.26-12.56,3.14-1.15,8.48.73,8.69,4.19.31,3.98-.94,8.17-.63,12.25.63,8.69,3.46,21.57,6.49,30.36,1.57,4.5,4.92,7.75,8.69,10.68,1.99-2.62.63-6.18,1.26-9,1.36-5.65,8.9-13.72,14.24-14.24,8.27-.84,11.52,7.01,14.87,12.88,5.13-6.6,12.56-19.16,25.44-12.25,6.81,3.66,7.54,12.98,4.5,21.99,10.99.1,19.47,3.87,18.43,16.75-.52,6.07-4.29,12.04-6.49,16.12-3.35,2.62-7.33,4.5-9.63,8.06,1.57,2.83,5.86,3.35,9,3.25,3.66-.1,9.21-1.15,13.51-2.3,1.68-.42,3.25-1.57,4.82-1.88,2.72-.63,5.23-.31,6.81-2.3-9.84-8.59-1.99-25.34,7.75-29-1.78-2.72-6.7-4.92-8.69-8.38-4.08-14.13,9.95-15.29,20.63-16.75-1.78-4.08-4.08-10.26-3.25-18.11,3.14-4.29,11.62-5.34,17.38-3.56,7.85,2.41,13.92,8.59,19.37,12.56,3.14-5.44,5.76-11.41,12.88-12.88,4.92-12.04,6.28-26.49,4.19-41.25-1.05-7.33-1.88-14.66-4.5-21.25-1.15-2.93-4.19-7.12-3.87-9.95.52-4.29,6.39-3.35,8.79-1.99h0ZM330.76,259.22c.73-4.82-.73-9.53-3.56-9.63-2.09-.1-5.03,3.14-6.18,4.82-1.15,1.88-2.72,5.76-3.56,8.69-.73,2.83-.84,8.38-3.25,9-3.66,1.05-7.96-3.04-6.81-7.75-4.4-6.6-13.82-20.1-25.44-13.92-1.68,14.66,12.88,15.91,21.25,21.57,1.88,2.51.52,5.76-2.62,6.18-3.25.42-5.65-2.51-8.06-3.56-2.72-1.26-6.91-1.68-10.05-2.3-1.47-.21-3.14-.94-4.19-.94-4.5-.1-13.82,2.41-14.24,6.49-.31,3.98,5.03,7.01,10.37,7.75,5.55.84,11.41-1.68,15.18-1.57,5.65.1,9,5.03,4.5,8.06-9.53,1.05-18.32,1.88-26.17,5.13-1.99,3.77-8.48,7.96-6.18,13.51,2.72,6.39,15.29,2.51,20,0,3.14-2.83,9.11-14.97,13.19-7.12-1.57,2.83-3.14,11.83.31,13.51,2.09,1.05,6.39-.52,6.18-3.56-.21-2.41-3.46-2.62-3.56-5.76.42-2.41,3.35-2.62,5.44-4.19,1.57-1.15,3.04-3.46,4.82-5.13,1.68-1.57,3.56-3.04,5.44-4.5,3.87-3.04,8.06-6.91,11.62-8.38,4.5-1.78,6.81.94,10.37,2.62,1.47-3.35,0-8.38-2.3-9.95-10.16-3.56-11.94,7.33-20,4.82-2.51-7.12,5.44-9.63,10.68-10.37,1.88-4.82,5.97-8.06,6.81-13.51h0ZM205.85,267.29c-4.4,3.56-11.2,16.54-12.25,21.57-.52,2.3.1,4.5-.63,5.76-2.72,4.71-9.11-.73-9.63-4.19-.31-1.78.63-3.66.63-5.44.1-7.33-2.09-14.55-6.18-17.38-6.28,2.72-9.53,9.53-7.75,18.43.73,3.56,4.08,6.07,3.56,9.32-.31,1.99-2.62,3.14-4.19,3.56-6.7-3.25-9.95-11.1-20.31-9.63-5.23,2.72-2.62,10.16,0,13.19,1.36,1.47,7.64,5.86,9,6.18,7.64,1.78,19.47-4.5,20,5.76-7.33,4.4-28.06-.52-29,9-.42,4.08,3.04,6.07,6.18,7.43,1.15-1.78,1.05-5.03,1.57-7.43,1.57-1.99,4.19-1.68,7.12-1.57,8.59.31,20.84.73,28.69,3.56,6.91,2.41,15.29,4.29,12.25,12.25,4.92-1.88,9.53-4.19,9-11.62-1.36-4.5-12.77-2.41-11.94-9,.63-5.03,5.23-1.36,8.06-1.26,1.47,0,6.7-1.26,8.38-1.88,6.91-2.72,14.55-14.45,9.63-22.93-10.78-4.19-14.03,9.32-19.06,9.63-2.62.21-5.97-2.3-5.76-5.44.1-3.04,4.29-5.97,6.18-9,3.46-5.97,4.82-12.56,3.87-19.37-3.04-1.57-5.55-.94-7.43.52h0Z"/>
  <path class="cls-5" d="M324.27,272.84c-5.13.73-13.09,3.14-10.68,10.37,8.06,2.51,9.84-8.38,20-4.82,2.3,1.68,3.77,6.6,2.3,9.95-3.56-1.68-5.76-4.4-10.37-2.62-3.56,1.47-7.75,5.34-11.62,8.38-1.88,1.47-3.77,2.93-5.44,4.5-1.78,1.68-3.25,3.98-4.82,5.13-2.09,1.57-5.03,1.78-5.44,4.19.1,3.25,3.35,3.46,3.56,5.76.21,3.04-3.98,4.61-6.18,3.56-3.46-1.68-1.88-10.78-.31-13.51-4.19-7.85-10.05,4.29-13.19,7.12-4.82,2.51-17.28,6.39-20,0-2.41-5.55,4.19-9.84,6.18-13.51,7.75-3.35,16.54-4.08,26.17-5.13,4.5-3.04,1.15-7.96-4.5-8.06-3.66-.1-9.63,2.41-15.18,1.57-5.34-.73-10.68-3.66-10.37-7.75.31-4.08,9.74-6.6,14.24-6.49,1.05,0,2.72.73,4.19.94,3.14.52,7.22,1.05,10.05,2.3,2.41,1.05,4.82,3.98,8.06,3.56,3.14-.42,4.4-3.66,2.62-6.18-8.38-5.65-22.93-6.91-21.25-21.57,11.62-6.18,21.04,7.22,25.44,13.92-1.26,4.71,3.14,8.79,6.81,7.75,2.41-.63,2.41-6.18,3.25-9,.84-2.93,2.41-6.81,3.56-8.69,1.05-1.78,4.08-4.92,6.18-4.82,2.83.21,4.19,4.82,3.56,9.63-1.15,5.34-5.23,8.59-6.81,13.51h0Z"/>
  <path class="cls-5" d="M213.29,266.66c.94,6.81-.42,13.3-3.87,19.37-1.78,3.14-5.97,5.97-6.18,9-.1,3.14,3.14,5.65,5.76,5.44,5.03-.31,8.17-13.82,19.06-9.63,4.82,8.48-2.72,20.21-9.63,22.93-1.68.63-6.91,1.99-8.38,1.88-2.83-.1-7.43-3.77-8.06,1.26-.84,6.7,10.57,4.5,11.94,9,.52,7.43-4.08,9.74-9,11.62,3.04-7.96-5.34-9.84-12.25-12.25-7.85-2.83-20.21-3.25-28.69-3.56-2.93-.1-5.55-.31-7.12,1.57-.52,2.41-.42,5.55-1.57,7.43-3.04-1.36-6.49-3.35-6.18-7.43.94-9.63,21.78-4.71,29-9-.52-10.26-12.35-4.08-20-5.76-1.36-.31-7.75-4.61-9-6.18-2.62-3.04-5.23-10.47,0-13.19,10.37-1.36,13.61,6.39,20.31,9.63,1.57-.42,3.87-1.47,4.19-3.56.52-3.25-2.83-5.76-3.56-9.32-1.78-8.9,1.47-15.6,7.75-18.43,4.08,2.83,6.28,10.16,6.18,17.38,0,1.88-.94,3.77-.63,5.44.52,3.46,6.91,9,9.63,4.19.73-1.36.21-3.46.63-5.76,1.05-5.13,7.85-18.11,12.25-21.57,1.88-1.36,4.4-1.99,7.43-.52h0Z"/>
  <path class="cls-1" d="M242.08,418.99c0,.73.52.94.31,1.88-5.03-.1-11.2-1.88-17.38-1.88,3.35-6.49,12.46.52,17.07,0h0Z"/>
  <path class="cls-6" d="M219.46,417.63c-.21,3.87-6.6,1.57-9.63,2.62,2.62-1.47,5.86-2.3,9.63-2.62h0Z"/>
  <path class="cls-1" d="M291.08,421.19c-.63,2.3-3.46,2.62-5.13,3.56-3.25,1.78-6.18,3.77-8.69,6.49-2.09-1.47-1.47-5.65-2.3-8.38,5.23-.73,11.2-1.99,16.12-1.68h0Z"/>
  <path class="cls-1" d="M230.14,427.37c-.84,1.26-3.56,2.09-4.82,1.88.1-2.09,2.83-3.35,4.82-1.88h0Z"/>
  <path class="cls-1" d="M221.66,427.37c-.1,2.2-1.57,3.14-2.3,4.82-5.76,1.99-9.53,5.97-15.81,7.43.52-1.88,1.68-4.71,2.93-6.81,2.72-4.29,7.75-5.44,15.18-5.44h0Z"/>
  <path class="cls-1" d="M258.52,432.19c-2.41,3.66-5.86,6.7-8.69,10.68-2.62,3.66-4.5,8.27-7.43,11.62-4.61,5.34-14.34,9.21-23.24,8.69-10.68-.63-16.44-9-17.38-19.06,5.44-2.51,10.16-5.76,16.44-7.43,1.05,6.91-6.39,9.11-5.76,15.5.21,2.72,2.2,4.82,5.44,4.82,7.12,0,10.99-12.67,3.25-16.12-.21-2.51.84-3.98.94-6.18,3.04-1.36,5.13-2.72,9-3.56,3.98-.84,7.12-4.4,13.19-2.62,1.15.31,2.62,1.88,4.19,2.3,2.51.63,6.7,0,10.05,1.36h0Z"/>
  <path class="cls-6" d="M292.02,430.2c2.51,1.47,1.99,4.61,2.62,7.12,1.26,5.55,3.87,11.1,4.5,16.75-3.87,1.15-8.06,3.35-11.31,1.88-3.46-1.47-6.28-9.63-8.06-14.24,3.25-4.61,6.7-9.11,12.25-11.52h0Z"/>
  <path class="cls-6" d="M268.15,437.95c3.46,7.54,6.39,15.6,10.68,22.3-2.3,2.83-6.6,4.19-10.68,5.76-16.44,6.6-38.63,12.25-59.99,11.31-16.02-.73-31.93-8.06-31.62-25.44,3.14-9.95,10.57-15.7,20-19.37.21.1.31.31.63.31-3.25,6.49-4.19,13.61-1.88,20.63,2.93,9.32,13.3,14.13,22.61,16.75,15.7-.84,26.91-3.98,33.92-13.19,4.92-6.7,7.43-16.12,16.33-19.06h0Z"/>
  <path class="cls-1" d="M288.78,485.06c2.93-5.44,2.2-13.4.31-19.37,3.04-1.88,7.01-1.88,10.99-2.93,2.3-.63,4.19-2.51,6.18-2.62,4.29-.1,8.48,4.29,9,7.75,2.2,12.77-16.54,17.07-26.49,17.17h0Z"/>
  <path class="cls-1" d="M280.4,470.93h.63c.52,16.02-13.19,22.09-27.12,26.17-5.55,1.57-11.2,3.66-16.44,4.5-20.42,3.56-46.17,2.93-58.42-7.12-3.56-5.44-1.68-13.19,3.56-15.81,10.37,7.01,24.92,7.54,39.37,6.81,21.04-1.15,42.51-8.17,58.42-14.55h0Z"/>
</svg>