<?xml version="1.0" encoding="UTF-8"?>
<svg id="Layer_1" data-name="Layer 1" xmlns="http://www.w3.org/2000/svg" viewBox="0 0 512 512">
  <defs>
    <style>
      .cls-1 {
        fill: #171717;
      }

      .cls-2 {
        fill: #e52d3c;
      }

      .cls-3 {
        fill: #141414;
      }

      .cls-4 {
        fill: #eed740;
      }

      .cls-5 {
        fill: #13a8da;
      }

      .cls-6 {
        fill: #7d7bb6;
      }

      .cls-7 {
        fill: #0b9f5b;
      }

      .cls-8 {
        fill: #1a1a1a;
      }
    </style>
  </defs>
  <g id="yrcf7O">
    <g>
      <path class="cls-3" d="M304.4,435.04c3.84,19.64,14.28,36.77,20.99,55.32,4.08,11.28,3.55,11.99-8.01,13.47-8.39,1.08-16.79,2.14-24.73,5.16-6.79,2.58-9.13-.48-9.06-6.66.06-4.86.56-9.71.87-14.7-4.33-.69-5.71,3-7.98,4.85-15.37,12.53-32.44,20.45-52.67,19.44-10.46-.52-20.13-3.31-24.09-14.63-1.15-3.29-3.41-3.07-5.93-3.67-12.94-3.1-16.09-8.43-12.52-21.23,2.24-8.04,7.15-14.47,13.11-20.18,3.1-2.97,7.07-5.03,5.85-10.99-.71-3.47,2.49-4.33,6.09-2.7,5.2,2.36,9.04,2.47,8.78-5.49-.13-4,2.86-6.91,7.1-2.74,5.22,5.13,7.9,4.71,9.14-3.08.79-4.98,3.4-4.04,6.66-.98,5.47,5.14,11.46,3.09,13.45-4.1,2.67,2.57,2.19,8.57,8.19,7.51,1.08.55,2.16,1.1,3.23,1.65,1.37,2.74,4.03,2.48,6.45,2.75-3.01,2.8-6.89,1.44-10.33,2.15-13.78-2.46-26.63,1.63-38.52,7.4-13.1,6.36-25.73,14.39-30.92,29.32-1.57,4.53-3.85,10.58,3.31,13.2,6.55,2.39,6.94-4.13,10.24-6.95,7.89-6.75,4.11-23.88,20.33-22.72,1.88-7.33,6.03-10.55,14-9.06,1.69.31,1.1-7,4.79-5.73,6.9,2.37,12.46-2,18.71-2.17,4.46.08,8.74-.44,12.19-3.69,11.22,11.36,21.99,11.99,31.27-.75ZM292.64,485.29q-.18,15.47,13.91,13.22c1.93-.31,3.85-.64,5.79-.85,5.58-.6,7.1-3.19,4.72-8.44-4.43-9.76-8.88-19.53-12.77-29.5-3.07-7.86-4.48-17.12-16.69-12.53-.52.2-1.27-.16-1.9-.3-24.6-5.27-61.43,11.15-74.06,32.94-3.6,6.22-6.08,13.3-2.02,19.33,4.01,5.96,11.65,6.43,18.63,5.95,20.24-1.38,36.43-10.7,49.94-25.45,3.32-3.63,5.28-11.4,11.01-9.33,6.93,2.5,2.1,10.38,3.45,14.95Z"/>
      <path class="cls-1" d="M259.65,429.64c-6,1.06-5.53-4.94-8.19-7.51.13-14.19-9.7-14.55-20.34-16.04-33-4.63-63.44-15.9-89.32-37.75-32.13-27.12-41.99-63.45-43.06-103.45-.08-2.91.11-5.82.17-8.74,7.08-45.38,27.21-84.13,59.35-116.77,1.27-1.29,3.3-2.47,1.39-4.74,14.37-2.56,26.08-9.72,35.63-20.62,2.43-2.78,5.22-4.79,9.17-4.31-2.34,2.98-6.88,3.95-7.64,8.37-4.63,4.05-9.06,8.38-13.93,12.12-32.96,25.27-56.23,57.51-68.71,97.09-15.62,49.56-7.79,94.81,29.38,132.23,24.5,24.67,56.54,34.93,90.46,39.17,21.13,2.64,21.18,2.36,24.72,23.2.44,2.56.62,5.16.92,7.74Z"/>
      <path class="cls-1" d="M403.11,226.78c.47,1.18,1.57,2.54,1.3,3.51-2.65,9.51,3.1,15.73,8.39,22.15,1.35,8.78.15,16.72-7.45,22.55-7.85,1.67-14.97,3.88-10.65,14.5-.28,2.55-.56,5.11-.84,7.67-4.18-3.48,1.06-12.75-8.1-13.17,0,0,.16-.04.16-.04-1.59-3.08-4.6-3.1-6.66-1.67-6.09,4.21-13.91,2.07-20.2,6.21-2.59,1.71-8.48,3.51-9.9-3.23,9.96.94,13.37-5.63,15.37-13.6.64-2.54-.8-6.61,4.09-5.46,4,.94,4.69,3.43,2.63,7.24-1.14,2.11-1.5,5.06,1.17,6.96,3.53,2.51,5.22-1.23,7.21-2.62,1.95-1.36,2.97-4.03,4.41-6.13,2.58-.64,5.17-1.27,7.75-1.9,10.02-1.57,14.8-6.24,13.5-13.87-1.28-7.5-6.61-8.74-13.14-7.39-3.52-.43-5.93-2.01-6.11-5.9,4.25-2.09,9.45-2.9,10.48-8.99.61-3.58-1.32-5.66-3.64-7.34-2.56-1.86-3.15,1.05-4.14,2.45-7.67,10.83-24.59,15.75-36.49,9.63-4.42-2.28-6.14-.55-7.56,2.43-1.84,3.89,1.32,5.3,4.29,5.9,4.44.89,8.98,1.31,13.47,1.93.41,3.03-1.72,4.44-3.77,5.9-6.92.19-14.31-1.7-19.84,4.57-1.26,1.43-3.1,2.86-1.96,4.93,1.1,2,3.25,1.63,5.17,1.11,1.54-.42,3.07-.86,4.6-1.29,2.89.76,8.48-4.62,8.11,3.57-5.73,4.75-6.44,11.07-5.62,17.88-5.05-.28-3.78-4.19-4.14-7.18-.44-3.62-1.36-6.55-5.38-8.27-7.94-3.41-8.92-8.63-2.34-14.17,3.72-3.14,5.01-5.89,4.08-10.66-1.24-6.33.65-10.78,8.49-10.45,2.41.1,4.88-1.32,7.32-2.04,9.13.54,18.02.36,24.39-7.77,3.86-7.41,11.44-6.02,17.56-6.44,4.66-.32.91,6.35,4.01,8.5Z"/>
      <path class="cls-1" d="M385.75,283.99c9.16.41,3.92,9.69,8.1,13.17-4.03,62.11-30.79,97.07-80.2,112.51-3.94,1.23-11.5-2.15-11.4,6.58-9.72,5.05,1.38,7.72,1.33,11.66.27,2.37.54,4.75.81,7.12-9.27,12.74-20.05,12.11-31.27.75-.82-1.54-2.26-1.75-3.79-1.74-2.43-.28-5.08-.01-6.45-2.75,2.53-1.82,5.06-3.64,7.59-5.46,6.88-6.97,5.47,2.94,8.36,4.1-1.08,8.16,3.59,10.09,10.48,9.83,7.78-.3,7.53-5.45,6.87-11-.65-5.47-1.1-10.97-1.81-16.44-.91-7.02,1.99-9.88,9.11-10.32,18.99-1.16,35.39-9.64,48.28-22.69,25.88-26.2,34.49-59.32,33.98-95.33Z"/>
      <path class="cls-3" d="M303.58,427.91c.06-3.94-11.05-6.62-1.33-11.66.44,3.89.89,7.78,1.33,11.66Z"/>
      <path class="cls-8" d="M228.37,76.48c2.82-53.75,51.66-88.79,100.93-72.43,17.23,5.72,26.48,17.72,28.09,35.79.31,3.45-1.26,7.15,1.09,10.39-3.47,3.13-5.23,6.91-6.37,11.58-2.98,12.25-5.19,13.02-16.69,6.91-1.81-.96-3.27-1.34-5.31-1.34-25.25-.09-50.5.04-75.73-.8-10.49-.35-19.16,1.81-26.01,9.91ZM348.75,43.22c-.18-17.56-7.85-28.28-22.2-33.14-15.13-5.12-30.14-3.32-44.71,1.95-19.91,7.2-34.74,20.15-41.49,40.72-1.14,3.49-5.64,10.72,4.85,10.23,26.84-1.26,53.64-1.44,80.49,1.18,5.96.58,14.46,6.97,18.96-1.49,3.4-6.38,3.92-14.28,4.1-19.45Z"/>
      <path class="cls-1" d="M228.37,76.48c6.85-8.1,15.53-10.25,26.02-9.91,25.23.84,50.48.71,75.73.8,2.04,0,3.5.38,5.31,1.34,11.5,6.1,13.7,5.34,16.69-6.91,1.14-4.67,2.9-8.45,6.37-11.58,1.7-.91,3.34-1.93,5.1-2.7,5.26-2.3,10.66-3.43,15.14,1.29,4.7,4.95,1.88,10.18-.37,15.12-1.04,2.3-2.62,4.36-3.95,6.52.36,2.83.56,5.69,1.13,8.47,1.71,8.37-4.44,12.59-10.11,13.95-5.64,1.36-13.64,5.87-18.16-3.19,5.44.24,10.89.59,16.33.67,3.87.06,5.7-2.75,6.62-5.93.77-2.68,1.77-5.86-1.09-7.98-2.77-2.04-5.89-2.18-9.02-.41-5.36,3.02-10.42,6.34-13.18,12.16-3.18-2.63-6.31-.46-9.45.12,5.96-14.8,5.73-15.22-10.21-16.52-5.13-.42-10.28-.59-15.43-.87-3.06-.18-6.12-.35-9.18-.53-11.25-2.71-22.48-1.91-33.7.26-9.34-1.06-18.62-.74-27.92.79-6.77,1.11-5.02,6.33-5.57,10.47-.51,3.86,2.05,4.13,4.9,3.85,26.17-2.56,52.29.96,78.44.76,5.98,2.44,12.35,1.13,18.5,1.88-.02,1.88-.04,3.76-.06,5.65-12.37,2.16-23.98-2.68-35.98-3.94-13.44-1.42-26.87.62-40.25-.11-16.58-.9-29.74,2.92-34.96,22.8-1.87-5.1-2.94-8.01-4.01-10.92,6.17-3.88,11.92-7.88,4.21-15.53.7-3.3,1.41-6.61,2.12-9.91ZM352.85,71.29c4.18-1.26,7.82-1.77,10.84-3.4,4.68-2.52,7.81-6.65,8.9-12.02.26-1.28-.11-2.97-1.68-2.82-4.64.43-8.61,2.55-11.84,5.91-3.08,3.2-6.54,6.24-6.22,12.33Z"/>
      <path class="cls-1" d="M347.25,89.71c4.52,9.06,12.51,4.55,18.16,3.19,5.67-1.37,11.83-5.59,10.11-13.95-.57-2.78-.76-5.64-1.13-8.47,5.44,4.53,6.96,10.24,3.78,16.45-2.48,4.84-1.98,7.02,3.75,7.15,4.64.1,8.77,2.1,12.98,3.77,20.27,8.06,24.39,25.74,8.51,40.91-5.83,5.57-8.5,10.34-5.96,17.83-4.42-.43-6.96-3.72-6.17-7.25,1.06-4.72-1.25-7.57-3.52-10.53-3.19-4.17-4.36-8.59-3.4-13.67,1.21,1.48,2.92,2.76,3.55,4.46,3.06,8.19,6.97,5.78,11.01,1.02,1.21-1.43,1.9-3.29,2.83-4.95,4.18-10.56,2.78-14.88-6.68-19.34-10.91-5.14-22.57-6.59-36.46-7.07,5.01,3.02,8.27,4.99,11.54,6.96,4.83,6.24,11.69,10.94,14.25,18.89-4.19-1.54-6.12-5.28-8.78-8.47-5.36-6.44-11.52-11.96-20.99-10.42,0,0-.08-.1-.08-.1-.32-6.47-7-3.09-9.52-6.14-2.6-1.96-5.2-3.92-7.8-5.88.02-1.88.04-3.76.06-5.65l.16-.09c3.14-.58,6.27-2.76,9.45-.12.36.44.47.93.34,1.48Z"/>
      <path class="cls-8" d="M226.24,86.39c7.71,7.65,1.96,11.64-4.21,15.53-6.81.44-11.93,4.72-17.58,7.79-3.96-.48-6.74,1.53-9.17,4.31-9.54,10.9-21.26,18.06-35.63,20.62-7.13-2.64-13.89-5.62-14.36-14.77-.52-9.9,4.03-16.25,12.86-20.63,14.54-7.22,30.21-8.9,45.93-10.6,7.38-.8,14.77-1.5,22.15-2.24ZM175.56,123.47c.56-.5,1.12-1.01,1.67-1.51,12.35-8.39,24.08-17.68,37.16-25.19-16.24-.33-31.75,2.17-46.77,7.4-2.99,1.04-5.85,2.81-8.38,4.75-6.48,4.99-8.47,13.47-3.56,17.5,6.75,5.55,11.55,8.4,19.89-2.96Z"/>
      <path class="cls-1" d="M384.37,125.13c-.97,5.08.2,9.49,3.39,13.67,2.26,2.96,4.58,5.82,3.52,10.53-.79,3.52,1.75,6.82,6.17,7.25.1.65.21,1.3.31,1.95-6.21,14.12,3.38,27.11,3.48,40.87.25-4.1.51-8.21.76-12.31,2.58,13.17,1.57,26.44,1.11,39.69-3.09-2.15.65-8.82-4.01-8.51-6.12.42-13.71-.97-17.56,6.44,1.07-6.42,1.77-12.84-.26-19.2-.71-2.23-1.59-4.7,1.56-5.52,2.6-.67,4.3,1.29,5.16,3.46,1.59,4.01,2.88,8.15,4.29,12.23,3.01-24.89,1.81-49.2-6.74-72.53-5.79-15.81-15.06-29.27-30.9-36.94,9.48-1.54,15.63,3.98,20.99,10.42,2.66,3.19,4.59,6.93,8.78,8.47l-.04.03Z"/>
      <path class="cls-1" d="M402,187.09c-.25,4.1-.51,8.21-.76,12.31-.1-13.76-9.69-26.75-3.48-40.87,3,9.29,4.55,18.79,4.24,28.56Z"/>
      <path class="cls-2" d="M354.64,106.21c15.85,7.67,25.12,21.13,30.9,36.94,8.54,23.33,9.75,47.64,6.74,72.53-1.41-4.08-2.7-8.22-4.29-12.23-.86-2.17-2.56-4.13-5.16-3.46-3.15.81-2.28,3.28-1.56,5.52,2.04,6.37,1.34,12.79.26,19.2-6.37,8.12-15.26,8.31-24.39,7.77-.79-9.03-1.58-18.07-2.37-27.1-.46-3.97-3.25-6.57-6.42-4.6-2.82,1.76-1.68,5.78.45,8.62l-.02-.04c-1.09,6.39,3.06,13.35-2.05,19.31-8.04,2.62-13.01,7.8-10.73,16.52,1.23,4.71-1.31,6.39-3.69,8.93-6.7,7.17-6.02,14,2.82,17.62,5.31,2.17,6.21,5.1,6.74,10.03.8,7.36,6.29,13.94,12.91,10.87,10.14-4.7,21.53-3.25,31.12-8.69,0,0-.16.03-.16.04.5,36-8.1,69.13-33.98,95.33-12.89,13.05-29.29,21.53-48.28,22.69-7.12.43-10.02,3.3-9.11,10.32.71,5.46,1.15,10.96,1.81,16.44.66,5.54.92,10.7-6.87,11-6.89.27-11.56-1.67-10.48-9.83-.8-6.75-1.51-13.52-2.44-20.25-.39-2.84-2.2-5.02-5.21-4.73-3.32.32-2.51,3.38-2.37,5.42.36,5.17,1.08,10.31,1.66,15.46-2.53,1.82-5.06,3.64-7.59,5.46-1.08-.55-2.16-1.1-3.23-1.65-.3-2.58-.48-5.19-.91-7.74-3.54-20.84-3.59-20.56-24.72-23.2-33.92-4.25-65.96-14.51-90.46-39.17-37.17-37.42-45-82.68-29.38-132.23,12.48-39.59,35.75-71.82,68.71-97.09,4.88-3.74,9.3-8.06,13.93-12.12,8.13-3.71,14.54-10.9,23.87-12.15,1.99,3.25.02,5.96-.44,8.73-4.11,24.82,1.03,46.71,21.52,62.78,17.12,13.44,36.89,11.45,56.85,8.09,43.55-7.33,62.67-49.42,54.71-79.28l.63.08.6-.22.08.1ZM157.22,258.48c3.55,8.64,3.41,16.36-5.63,21.68-2.21,1.3-4.68,2.16-6.97,3.33-2.33,1.19-5.13,2.7-3.81,5.71,1.56,3.57,5,2.82,7.38,1.03,4.45-3.34,8.62-3.13,13.55-1.1,3.98,1.64,8.36,1.07,12.02-1.55,2.85-2.03,5.86-2.45,9.16-1.92l-.11-.06c8.65,6.75,16.83,14.37,28.03,16.75,62.99,13.42,96.48-26.3,108.97-82.96.53-2.4.63-5.65-3.08-6-3.5-.32-4.13,2.61-4.51,5.2-2.85,19.52-12.48,36.03-23.29,51.94-16.93,24.93-57.25,35.62-84.59,22.67-5.56-2.63-10-5.06-3.77-11.81,3.26-3.53,2.53-8.66,1.63-13.13-.59-2.92-1.81-5.59.97-7.97,9.76-4.96,11.4-11.55,4.42-19.62-2.31-2.66-3.14-4.45-2.22-8.3,2.91-12.12-5.42-19.84-17.21-15.62-5.59,2-8.24.89-10.62-3.71-1.23-6.02-10.56-6.53-8.73-15.55,3.21-15.87,8.07-30.69,17.79-43.73,1.64-2.2,5.33-4.02,2.43-7.24-3.19-3.54-6.08-.67-8.1,1.78-3.08,3.74-6.02,7.7-8.35,11.93-8.69,15.77-11.6,32.93-11.49,50.74l.09-.08c-6.07,2.32-2.8,11.6-8.46,12.93-9.79,2.3-14.44,7.78-14.89,17.43-.12,2.62-2.1,3.75-3.76,5.29-2.13,1.98-6.93,3.44-4.09,7.29,3.01,4.08,5.54-.3,7.94-1.95,10.87-7.44,11.17-7.38,17.61,4.25.45.82,1.19,1.48,1.79,2.21l-.1.1Z"/>
      <path class="cls-6" d="M292.64,485.29c-1.34-4.57,3.48-12.45-3.44-14.95-5.72-2.07-7.69,5.7-11.01,9.33-13.51,14.75-29.7,24.07-49.94,25.45-6.98.48-14.62,0-18.63-5.95-4.06-6.03-1.58-13.11,2.02-19.33,12.63-21.8,49.46-38.21,74.06-32.94.63.14,1.38.49,1.9.3,12.21-4.59,13.62,4.67,16.69,12.53,3.89,9.98,8.34,19.75,12.77,29.5,2.38,5.25.86,7.84-4.72,8.44-1.94.21-3.86.54-5.79.85q-14.09,2.25-13.91-13.21Z"/>
      <path class="cls-6" d="M260.94,439.48c-6.26.18-11.81,4.54-18.71,2.17-3.69-1.27-3.1,6.05-4.79,5.73-7.97-1.48-12.12,1.74-14,9.06-16.21-1.16-12.43,15.97-20.33,22.72-3.3,2.82-3.69,9.34-10.24,6.95-7.16-2.61-4.88-8.67-3.31-13.2,5.18-14.93,17.82-22.95,30.92-29.32,11.88-5.77,24.74-9.86,38.52-7.4.64,1.09,1.29,2.18,1.93,3.28Z"/>
      <path class="cls-6" d="M260.94,439.48c-.64-1.09-1.29-2.19-1.93-3.28,3.44-.71,7.32.64,10.33-2.15,1.54,0,2.97.2,3.79,1.74-3.45,3.25-7.73,3.77-12.19,3.69Z"/>
      <path d="M353.32,106.24c7.96,29.86-11.16,71.95-54.71,79.28-19.96,3.36-39.73,5.35-56.85-8.09-20.49-16.07-25.63-37.96-21.52-62.78.46-2.76,2.43-5.47.44-8.73-9.33,1.25-15.74,8.44-23.87,12.15.76-4.42,5.3-5.39,7.64-8.37,5.65-3.07,10.76-7.34,17.58-7.79,1.07,2.91,2.14,5.82,4.01,10.92,5.22-19.88,18.38-23.7,34.96-22.8,13.38.73,26.81-1.31,40.25.11,12,1.26,23.61,6.1,35.98,3.94,2.6,1.96,5.2,3.92,7.8,5.88-.31,6.14,2.28,8.46,8.28,6.28ZM277.28,93.89c-6.26-.33-10.15-.66-14.05-.69-3.88-.03-7.84.8-11.64.29-13.3-1.76-17.54,5.18-21.68,19.63-.8,2.79-1.1,5.74-1.51,8.63-3.86,27.46,8.13,49.85,30.79,56,18.68,5.07,37.23,1.99,53.95-6.55,20.81-10.62,32.47-28.78,33.38-52.41.6-15.54-6.9-22.49-22.05-22.83-16.54-.38-32.96-3.44-47.2-2.06Z"/>
      <path class="cls-5" d="M349.14,285.25c-.82-6.81-.11-13.13,5.62-17.88,4.09-1.44,3.65-4.07,1.88-7.07.68-1.94,1.36-3.88,2.05-5.81,2.06-1.45,4.18-2.86,3.78-5.9.25-2-6.42-4.55-.15-5.73,5.81-1.09,12.76-2.46,15.87,5.53,4.64,2.72,9.29,3.45,13.97.1,6.53-1.35,11.86-.11,13.14,7.39,1.3,7.62-3.48,12.29-13.5,13.87-1.96-3.66-1.54-10.88-7.23-9.5-6.26,1.52,1.03,6.92-.68,10.47-.11.23.1.62.16.93-1.43,2.1-2.46,4.77-4.41,6.13-1.99,1.39-3.68,5.13-7.21,2.62-2.67-1.9-2.31-4.85-1.17-6.96,2.06-3.81,1.37-6.3-2.63-7.24-4.89-1.15-3.45,2.92-4.09,5.46-2,7.96-5.41,14.54-15.37,13.59,0,0-.01,0-.01,0Z"/>
      <path class="cls-1" d="M354.78,205.38c.79,9.03,1.58,18.07,2.37,27.1-2.44.72-4.91,2.14-7.32,2.04-7.84-.33-9.73,4.11-8.49,10.45.94,4.77-.35,7.52-4.08,10.66-6.57,5.54-5.6,10.77,2.34,14.17,4.01,1.72,4.94,4.65,5.38,8.27.36,2.99-.91,6.91,4.14,7.18,0,0,.01.01.01.01,1.43,6.74,7.31,4.94,9.9,3.23,6.29-4.14,14.1-2,20.2-6.21,2.06-1.43,5.07-1.4,6.66,1.67-9.58,5.44-20.98,3.99-31.12,8.69-6.62,3.07-12.11-3.51-12.91-10.87-.54-4.93-1.43-7.85-6.74-10.03-8.84-3.62-9.52-10.45-2.82-17.62,2.38-2.54,4.92-4.22,3.69-8.93-2.28-8.72,2.69-13.9,10.73-16.52,7.97-5.66,4.3-12.56,2.05-19.31,0,0,.02.04.02.04.03-4.25,1.17-6.85,5.96-4.02Z"/>
      <path class="cls-5" d="M378.17,248.39c-3.11-7.99-10.06-6.63-15.87-5.53-6.27,1.18.39,3.74.15,5.73-4.5-.62-9.03-1.04-13.47-1.93-2.96-.59-6.12-2.01-4.29-5.9,1.41-2.98,3.13-4.7,7.56-2.43,11.9,6.12,28.82,1.2,36.49-9.63.99-1.39,1.58-4.3,4.14-2.45,2.32,1.68,4.25,3.76,3.64,7.34-1.03,6.09-6.23,6.9-10.48,8.99-3.8.34-8.92-1.12-7.87,5.79Z"/>
      <path class="cls-5" d="M358.68,254.49c-.68,1.94-1.36,3.88-2.05,5.81-4.18-1.28-7.54-.18-9.98,3.5-1.53.43-3.06.88-4.6,1.29-1.92.52-4.07.89-5.17-1.11-1.14-2.07.69-3.5,1.96-4.93,5.53-6.27,12.92-4.38,19.84-4.57Z"/>
      <path d="M378.17,248.39c-1.05-6.91,4.07-5.46,7.87-5.79.18,3.89,2.59,5.47,6.11,5.9-4.68,3.34-9.34,2.62-13.97-.1Z"/>
      <path d="M384.04,271.66c-.06-.31-.27-.7-.16-.93,1.7-3.55-5.58-8.96.68-10.47,5.69-1.38,5.27,5.84,7.23,9.5-2.58.63-5.17,1.27-7.75,1.9Z"/>
      <path d="M346.64,263.8c2.45-3.68,5.8-4.78,9.98-3.5,1.78,2.99,2.21,5.63-1.88,7.07.38-8.19-5.22-2.8-8.11-3.57Z"/>
      <path d="M270.47,425.83c-.58-5.15-1.3-10.29-1.66-15.46-.14-2.04-.95-5.1,2.37-5.42,3.01-.29,4.81,1.89,5.21,4.73.94,6.73,1.64,13.5,2.44,20.25-2.89-1.16-1.49-11.07-8.36-4.1Z"/>
      <path class="cls-7" d="M348.75,43.22c-.18,5.17-.71,13.07-4.1,19.45-4.5,8.46-13,2.07-18.96,1.49-26.85-2.62-53.65-2.45-80.49-1.18-10.49.49-6-6.73-4.85-10.23,6.75-20.57,21.58-33.52,41.49-40.72,14.57-5.27,29.58-7.07,44.71-1.95,14.35,4.86,22.02,15.58,22.2,33.14Z"/>
      <path class="cls-4" d="M318.8,86.55c-26.15.21-52.26-3.32-78.44-.76-2.85.28-5.4,0-4.9-3.85.54-4.14-1.2-9.36,5.57-10.47,9.3-1.53,18.58-1.85,27.92-.79,11.23-.09,22.47-.17,33.7-.26,3.06.18,6.12.35,9.18.53,0,.57,0,1.15.02,1.72-18.81-.02-37.62-.03-56.42-.04-3.89,0-7.72-.04-11.48,1.47-2.74,1.1-6.24,1.62-5.68,5.39.63,4.19,4.53,2.81,7.16,2.84,14.92.13,29.96-1.13,44.71.44,13.04,1.38,26.36-.37,39.15,3.45-3.5.11-6.99.22-10.49.33Z"/>
      <path class="cls-4" d="M352.85,71.29c-.33-6.09,3.13-9.13,6.22-12.33,3.23-3.36,7.2-5.47,11.84-5.91,1.57-.15,1.94,1.54,1.68,2.82-1.08,5.37-4.22,9.5-8.9,12.02-3.03,1.63-6.66,2.14-10.84,3.4Z"/>
      <path class="cls-4" d="M347.25,89.71c.14-.55.02-1.05-.34-1.49,2.76-5.83,7.82-9.14,13.18-12.16,3.12-1.76,6.25-1.63,9.02.41,2.87,2.12,1.86,5.3,1.09,7.98-.91,3.18-2.75,5.99-6.62,5.93-5.45-.08-10.89-.44-16.33-.67ZM353.99,85.29c5.01,3.97,9.52,4.13,13.36-1.23,1.23-1.71,1.42-4.21-.8-4.96-5.94-2.01-9.8.96-12.56,6.19Z"/>
      <path class="cls-4" d="M318.8,86.55c3.5-.11,6.99-.22,10.49-.33,4.26.14,7.92-.72,7.75-6.02-.17-5.36-4.17-5.75-8.21-5.6-5.77.21-11.45-.18-16.98-1.92-.01-.57-.02-1.15-.02-1.72,5.14.28,10.29.45,15.43.87,15.94,1.3,16.17,1.72,10.21,16.52l-.16.09c-6.15-.75-12.52.55-18.5-1.89Z"/>
      <path class="cls-4" d="M302.65,70.43c-11.23.09-22.47.17-33.7.26,11.22-2.16,22.44-2.97,33.7-.26Z"/>
      <path class="cls-7" d="M384.41,125.1c-2.56-7.95-9.42-12.65-14.25-18.89,14.95-6.86,31.22,3.15,31.6,19.45-.93,1.66-1.62,3.53-2.83,4.95-4.04,4.76-7.95,7.17-11.01-1.02-.63-1.69-2.34-2.98-3.55-4.46,0,0,.04-.03.04-.03Z"/>
      <path class="cls-7" d="M401.76,125.66c-.38-16.29-16.65-26.31-31.6-19.45-3.27-1.97-6.53-3.94-11.54-6.96,13.89.48,25.54,1.93,36.46,7.07,9.46,4.46,10.86,8.78,6.68,19.34Z"/>
      <path class="cls-1" d="M353.32,106.24c-6,2.18-8.59-.14-8.28-6.28,2.52,3.06,9.2-.32,9.52,6.14,0,0-.6.22-.6.22l-.63-.08Z"/>
      <path class="cls-7" d="M177.23,121.96c-.56.5-1.12,1.01-1.68,1.51-1.52.44-3.49.43-4.47,1.41-5.35,5.32-10.21,3.51-13.91-1.43-3.94-5.27-.03-9.33,4.02-12.18,11.87-8.35,25.69-9.45,39.6-10.36-7.53,7.72-18.77,10.68-23.56,21.05Z"/>
      <path class="cls-7" d="M177.23,121.96c4.79-10.37,16.03-13.34,23.56-21.05-13.91.91-27.73,2.02-39.6,10.36-4.05,2.85-7.96,6.91-4.02,12.18,3.7,4.94,8.56,6.75,13.91,1.43.98-.98,2.95-.96,4.47-1.41-8.34,11.35-13.14,8.51-19.88,2.96-4.9-4.03-2.92-12.51,3.56-17.5,2.53-1.94,5.39-3.71,8.38-4.75,15.02-5.23,30.53-7.72,46.77-7.4-13.07,7.51-24.8,16.8-37.16,25.19Z"/>
      <path class="cls-1" d="M177.54,213.07c2.38,4.6,5.03,5.71,10.62,3.71,11.79-4.22,20.12,3.5,17.21,15.62-.93,3.85-.09,5.64,2.22,8.3,6.98,8.06,5.35,14.66-4.42,19.62-4.11-.15-4.61,2.22-4.25,5.63,1.71,16.17-1.55,20.09-16.1,19.67,0,0,.11.06.11.06-2.55-3.7-6.42-1.68-9.69-2.22,1.09-4.01,5.88-3.05,7.86-5.87,1.06.76,2.11,1.52,3.17,2.28,2.75,2.73,5.57,2.92,8.34.09,3.34-3.41,3.31-7.71,2.01-11.7-1.46-4.49-5.57-4.66-9.59-4.24-3.23-1.65-4.69-4.01-3.08-7.61l.5.26.51-.24c5.18.75,10.46,1.14,15.43-.46,3.86-1.24,7.06-4.23,6.15-8.75-.91-4.51-5.14-3.06-8.11-2.95-2.5.09-5.01,1.01-7.45,1.8-2.87.93-5.61.47-6.6-2.26-1.01-2.78,1.99-3.7,3.95-4.58,3.85-1.74,7.81-3.25,10.72-6.51,2.39-2.68,3.29-5.87,1.36-8.93-2.34-3.73-5.7-1.98-8.63-.61-3.61,1.68-6.62,4.24-8.54,7.72-1.85,3.33-3.93,5.09-7.7,2.93.05-3.87.22-7.73.11-11.59-.09-3.08.72-7.55-3.47-7.84-3.64-.25-6.41,2.87-6.86,6.92-.25,2.24-.13,4.53-.05,6.79.14,3.91-1.21,5.55-5.21,3.76-5.86-2.62-8.86,1.09-12.43,5.81,11.53-.96,11.15,9.18,15.52,14.74.13,1.57.25,3.14.37,4.71-1.42.46-2.85.92-4.27,1.38,0,0,.1-.1.1-.1,1.11-6.82-1.56-12.74-7.54-14.82-3.49-1.21-7.47.42-7.78-5.25-.3-5.33,2.8-9.61,6.92-10.41,10.07-1.95,10.26-9.87,12.26-16.98,0,0-.09.08-.09.08,5.95-3.01,11.33-1.54,16.45,2.07Z"/>
      <path d="M182.81,285.61c14.55.42,17.81-3.5,16.1-19.67-.36-3.41.14-5.78,4.25-5.63-2.78,2.38-1.56,5.05-.97,7.97.9,4.46,1.63,9.6-1.63,13.13-6.23,6.75-1.79,9.18,3.77,11.81,27.35,12.94,67.66,2.26,84.59-22.67,10.81-15.91,20.43-32.42,23.29-51.94.38-2.6,1.01-5.53,4.51-5.2,3.71.34,3.61,3.6,3.08,6-12.5,56.67-45.98,96.38-108.97,82.96-11.2-2.38-19.38-10.01-28.02-16.75Z"/>
      <path d="M177.54,213.07c-5.12-3.61-10.5-5.08-16.45-2.07-.11-17.81,2.81-34.97,11.49-50.74,2.33-4.23,5.27-8.19,8.35-11.93,2.01-2.45,4.9-5.32,8.1-1.78,2.91,3.22-.79,5.04-2.43,7.24-9.72,13.04-14.58,27.86-17.79,43.73-1.82,9.02,7.51,9.54,8.73,15.55Z"/>
      <path d="M161.17,210.92c-2,7.12-2.19,15.04-12.26,16.98-4.12.8-7.22,5.08-6.92,10.41.31,5.67,4.29,4.04,7.78,5.25,5.98,2.08,8.65,8,7.54,14.82-.61-.73-1.34-1.39-1.79-2.21-6.44-11.64-6.74-11.69-17.61-4.25-2.4,1.65-4.93,6.02-7.94,1.95-2.84-3.85,1.96-5.31,4.09-7.29,1.66-1.54,3.64-2.67,3.76-5.29.45-9.66,5.1-15.14,14.89-17.43,5.67-1.33,2.4-10.61,8.47-12.93Z"/>
      <path d="M157.22,258.48c1.42-.46,2.85-.92,4.26-1.38,0,0-.04.14-.04.14-1.49,7.36,2.29,15.24-3.14,22.41-1.96,2.59,1.33,5.24,4.63,5.7,3.6.51,7.11.1,10.28-1.91,3.28.54,7.14-1.48,9.69,2.22-3.3-.52-6.32-.11-9.16,1.92-3.66,2.61-8.04,3.19-12.02,1.55-4.93-2.03-9.1-2.24-13.55,1.1-2.38,1.79-5.82,2.54-7.38-1.03-1.32-3.02,1.48-4.53,3.81-5.71,2.3-1.17,4.76-2.03,6.97-3.33,9.04-5.32,9.19-13.04,5.64-21.68Z"/>
      <path d="M348.8,209.36c2.25,6.75,5.91,13.65-2.05,19.31,5.12-5.97.96-12.92,2.05-19.31Z"/>
      <path d="M354.78,205.38c-4.8-2.83-5.94-.24-5.96,4.02-2.14-2.83-3.28-6.86-.45-8.62,3.16-1.97,5.96.62,6.42,4.6Z"/>
      <path class="cls-2" d="M277.28,93.89c14.25-1.38,30.66,1.68,47.2,2.06,15.15.35,22.65,7.3,22.05,22.83-.91,23.64-12.57,41.79-33.38,52.41-16.73,8.54-35.28,11.62-53.95,6.55-22.66-6.15-34.65-28.54-30.79-56,.41-2.89.71-5.84,1.51-8.63,4.14-14.45,8.38-21.39,21.68-19.63,3.8.5,7.76-.32,11.64-.29,3.89.03,7.78.37,14.05.69Z"/>
      <path class="cls-4" d="M311.85,72.68c5.54,1.74,11.21,2.13,16.98,1.92,4.04-.14,8.05.25,8.21,5.6.17,5.29-3.49,6.16-7.75,6.02-12.79-3.82-26.11-2.07-39.15-3.45-14.75-1.57-29.8-.31-44.71-.44-2.63-.02-6.53,1.36-7.16-2.84-.57-3.77,2.93-4.29,5.68-5.39,3.76-1.5,7.59-1.47,11.48-1.47,18.81.02,37.62.03,56.42.05Z"/>
      <path class="cls-4" d="M353.99,85.29c2.77-5.23,6.63-8.2,12.56-6.19,2.22.75,2.03,3.25.8,4.96-3.85,5.35-8.36,5.2-13.36,1.23Z"/>
      <path class="cls-5" d="M182.93,256.41l-.51.24s-.5-.26-.5-.26c-1.58,1.2-3.17,2.4-4.75,3.61-5.22-2.83-13.33.46-16.06-7.61-4.37-5.56-3.99-15.7-15.52-14.74,3.57-4.72,6.57-8.43,12.43-5.81,4,1.78,5.34.15,5.21-3.76-.08-2.26-.2-4.55.05-6.79.45-4.05,3.22-7.17,6.86-6.92,4.19.29,3.38,4.75,3.47,7.84.12,3.86-.06,7.73-.11,11.6.79,1.35,1.73,2.65,2.35,4.07,4.17,9.48,9.68,15.41,20.77,8.74,1.27-.76,4.38-.78,4.75,1.75.45,3.07-2.23,4.44-4.65,5.39-4.41,1.74-9.85-1.66-13.8,2.66Z"/>
      <path class="cls-5" d="M182.93,256.41c3.95-4.32,9.39-.92,13.8-2.66,2.42-.95,5.1-2.33,4.65-5.39-.37-2.53-3.49-2.51-4.75-1.75-11.09,6.67-16.6.75-20.77-8.74-.63-1.43-1.56-2.72-2.35-4.07,3.77,2.16,5.86.4,7.7-2.93,1.92-3.47,4.93-6.04,8.54-7.72,2.94-1.36,6.29-3.12,8.63.61,1.92,3.07,1.03,6.26-1.36,8.93-2.91,3.26-6.87,4.77-10.72,6.51-1.96.88-4.96,1.79-3.95,4.58.99,2.73,3.73,3.18,6.6,2.26,2.43-.79,4.94-1.71,7.45-1.8,2.97-.11,7.21-1.56,8.11,2.95.91,4.52-2.29,7.52-6.15,8.75-4.97,1.59-10.26,1.21-15.44.46Z"/>
      <path d="M173.22,283.45c-3.17,2.01-6.68,2.41-10.28,1.91-3.3-.46-6.59-3.11-4.63-5.7,5.43-7.17,1.65-15.06,3.14-22.4,6.27,8.23,9.32,16.65-.69,25.84,12.04-.63,14.88-4.97,11.47-15.44-1.7-5.24-1.86-7.82,4.62-5.2,2.08,4.85,5.06,9.46,4.23,15.12-1.97,2.82-6.77,1.86-7.86,5.87Z"/>
      <path class="cls-5" d="M176.85,262.46c-6.48-2.63-6.32-.04-4.62,5.2,3.4,10.46.56,14.8-11.47,15.44,10-9.18,6.95-17.6.69-25.84,0-.01.04-.15.04-.15-.12-1.57-.25-3.14-.37-4.71,2.73,8.08,10.85,4.78,16.06,7.61-.11.82-.22,1.64-.33,2.45Z"/>
      <path class="cls-5" d="M176.85,262.46c.11-.82.22-1.63.32-2.45,1.58-1.2,3.17-2.41,4.75-3.61-1.61,3.61-.15,5.97,3.08,7.61,3.63,2.57,8.94,3.65,7.74,10.18-.95,5.16-4.67,5.28-8.49,5.67-1.06-.76-2.11-1.52-3.17-2.28.84-5.67-2.15-10.27-4.23-15.12Z"/>
      <path class="cls-5" d="M184.25,279.86c3.82-.39,7.54-.52,8.49-5.67,1.2-6.53-4.11-7.6-7.74-10.18,4.02-.42,8.13-.25,9.59,4.24,1.3,4,1.33,8.29-2.01,11.7-2.77,2.83-5.59,2.64-8.34-.09Z"/>
    </g>
  </g>
</svg>