<?xml version="1.0" encoding="UTF-8"?>
<svg id="Layer_1" data-name="Layer 1" xmlns="http://www.w3.org/2000/svg" viewBox="0 0 512 512">
  <defs>
    <style>
      .cls-1 {
        fill: #fff;
      }

      .cls-1, .cls-2, .cls-3, .cls-4 {
        fill-rule: evenodd;
      }

      .cls-2 {
        fill: #212121;
      }

      .cls-5, .cls-3 {
        fill: #8a1e41;
      }

      .cls-4 {
        fill: #fbce2f;
      }
    </style>
  </defs>
  <path class="cls-2" d="M223.42,33.82c-4.4,8.91-1.1,21.66-.55,31.23,1.54.88,3.41,1.32,5.94,1.21,1.76-3.96.11-8.91-.33-13.52-.66-6.93-1.43-13.41-2.97-19.46-.99-.11-1.87-.11-2.09.55h0ZM224.63,88.47c-.66,6.27-1.32,14.95,0,20.34,2.31.55,5.5-.55,7.92-1.43-.66-7.81-.11-14.62-.33-22.1-3.63-1.1-6.05,1.43-7.59,3.19h0ZM254.31,477.46c9.13,1.87,18.25,3.3,23.2,7.92,1.54,1.43,2.53,4.51,4.4,4.73,1.43.22,5.94-1.98,7.7-3.19,4.73-3.52,3.85-10.34-1.43-13.19-6.49-7.15-23.64-8.25-34.96-7.04-2.42.22-4.62,1.65-6.82,1.21-2.53-.55-4.95-2.86-5.28-4.95-.33-1.87,1.21-3.96,1.43-6.16.55-5.28.44-11.1,0-16.49,1.54-3.08,5.5-2.09,9.46-2.31,2.53-.22,5.28-.99,7.92-1.43,8.69-1.65,15.5-3.85,22.32-6.49,9.57-3.63,17.7-8.25,24.96-13.52,15.06-10.88,26.94-25.07,33.53-43.21,3.74-10.44,6.05-20.67,5.94-31.77-.22-10.99-2.97-21.55-6.82-31.23-7.26-18.14-15.39-36.28-23.53-53.54-1.21-2.31-7.59-6.27-7.04-10.34.55-4.4,9.79-2.2,12.97-2.64,5.17-.66,11.32-2.64,17.04-4.4,5.5-1.76,11.21-3.96,16.49-5.94,11.43-4.29,21.44-10.66,28.59-15.83,4.73-5.28,7.59-8.47,10.55-13.52,2.97-4.95,6.05-10.44,6.49-17.92,1.1-19.02-10.88-31.12-23.2-37.93-4.84-2.64-8.91-4.51-14.73-6.82-10.55-4.07-22.76-6.71-33.86-9.68-7.59-2.09-15.06-4.62-22.98-5.83-3.85-.66-7.81-.88-11.76-1.43-4.07-.55-8.47-1.87-12.09-2.09-3.96-.22-8.69,1.98-13.19,2.97-17.04,3.52-36.39,8.58-55.3,9.68-5.28.33-11.76-1.21-16.82,0-2.2.55-5.83,3.52-8.58,5.28-3.08,1.98-6.16,3.52-8.58,5.28-16.16,12.09-29.47,27.38-40.35,43.54-12.97,19.35-24.74,40.46-31.44,65.86-.99,3.74-2.31,7.59-2.97,11.21-.55,3.3.22,7.81-1.76,10.01-1.98,2.2-4.73.11-7.7.33-3.74.33-7.04,3.52-9.46,5.61-3.19,2.86-8.14,7.7-9.13,10.88-1.43,4.95-.66,10.44,3.52,12.97,2.86-6.49,7.59-14.62,13.19-17.37,1.65-.77,4.18-1.54,5.28-.55,3.85,3.3-4.73,8.25-5.61,9.46-2.64,3.52-5.94,10.99-5.28,14.95.33,2.2,1.65,3.85,3.19,6.49,4.4,1.32,7.26-1.54,8.8-3.85,2.75-3.96,4.95-11.65,6.49-15.83,2.97-2.09,7.37-2.97,8.25.55,1.21,4.95-4.51,9.79-4.4,16.82.11,4.4,2.75,9.24,4.07,10.55.55.55,4.4,3.74,8.58,2.64,1.98-.55,3.74-4.29,4.73-6.49,1.76-3.85,4.07-8.8,3.19-13.19-.55-2.97-5.39-4.18-4.73-8.58.22-1.43,2.2-3.74,4.95-3.85,5.5-.11,4.73,9.02,10.88,8.58,3.52-.33,9.13-9.02,10.01-11.76,2.97-10.01-3.96-14.4-13.52-13.52-4.62.44-13.63,4.95-15.28-.88-.55-1.87,1.54-4.95,2.31-7.37,2.97-8.25,5.5-16.71,7.04-24.74,1.65-1.65,4.29-2.53,7.37-2.09,4.29,2.86.44,6.49-.88,10.01-2.2,5.83-4.07,14.18-5.61,19.68,7.7-.22,19.79-.66,24.41,4.4,8.25,9.02-2.31,27.93-10.88,31.77-2.53,1.1-5.39.99-7.92,1.21-3.41,10.44-5.94,24.19-20.89,22.98-2.75-.22-8.25-2.31-9.46-3.19-3.19-2.31-3.41-7.04-6.49-10.01-2.97.55-2.2,3.74-2.31,5.94-.33,5.61-.77,11.21-1.21,16.49-1.54,17.7,1.1,36.61,9.13,50.03,1.87,3.19,5.06,5.17,6.16,8.58,6.6,5.72,12.42,12.31,19.46,17.7,13.08,8.14,29.25,14.95,47.94,17.7,3.08.44,6.05,1.32,8.8,1.76,1.54.22,2.97,0,4.4.33,2.53.55,7.04,4.62,7.7,6.49.44,1.21.55,4.62.55,6.49.44,16.49-6.16,29.14-6.82,44.97,8.14,7.15,25.84,6.6,38.26,5.94,12.75-.66,26.06-1.21,33.53-7.7,3.63-3.08,4.73-7.04,0-9.68-8.36-2.31-19.02-4.62-29.14-5.61-3.3-.33-6.93-.55-9.68-.33-1.65.22-4.18,1.32-5.94,1.21-2.53-.22-5.61-2.75-5.94-4.73-.11-.99.55-3.08.88-4.73,1.1-4.95,1.98-10.12,2.64-14.73.88-5.94-.44-10.99,1.21-15.61,2.2-.88,4.95-.66,6.82.33,2.31,2.53.88,6.16.55,9.46-.66,7.48-1.87,16.38-2.31,22.32,9.46-.11,17.92.11,26.83,1.98h0ZM386.69,238.87c1.87,1.54,5.28,1.65,8.25,2.09,3.52.44,8.03.66,11.43.33,4.51-.44,9.46-1.21,11.76-3.85-8.58-1.32-22.76-2.75-31.44,1.43h0ZM383.72,245.58c.33,2.31,1.1,4.07.88,6.82,11.54,3.41,20.78,1.76,32.1.33.22-2.86,2.31-3.96,2.31-7.04-10.34,3.08-24.08,1.32-35.29-.11h0ZM383.72,255.59c-2.97,3.52.22,9.02,1.21,12.09,10.55,1.98,22.54,1.43,31.44-.88-.11-4.29,2.64-5.83,2.09-10.55-12.42,1.1-24.19,2.64-34.74-.66h0ZM415.82,270.65c-2.64-.44-7.48,1.1-11.76,1.43-7.48.55-14.73-.66-19.68-1.21-2.2,3.41-.22,7.48,1.43,10.34,9.68,1.32,22.21,2.42,30.9-.55,1.21-3.52,3.3-9.35-.88-10.01h0ZM385.81,284.17c-1.54,3.96.55,7.92,1.43,11.21,10.01,1.98,22.21,1.76,29.69-2.31.33-2.97,1.1-6.6-.55-8.58-10.77,1.54-20.34,1.43-30.57-.33h0ZM387.24,298.57c-.66,2.42-1.32,4.95-1.21,8.25,8.8,2.75,23.42,2.2,30.9-2.09-.22-2.53-.77-4.73-1.43-6.82-9.24,1.32-18.91,2.09-28.26.66h0ZM386.69,310.34c-.77,2.31-.33,4.18-.88,6.82,6.05,4.4,16.82,2.2,25.62,1.43,1.43-1.21,3.85-1.43,4.95-2.97-.33-2.53-.22-4.4-.55-6.49-8.25,3.08-20.45,2.53-29.14,1.21h0ZM434.07,323.53c-1.1-2.64-5.17-4.29-8.25-2.64.44,4.95.44,9.13.88,12.31,3.96,2.64,9.02-5.72,7.37-9.68h0ZM385.81,320.67c-.55,2.64-1.54,4.95-1.76,7.92,4.73,5.06,21.88,6.71,28.81,2.31,1.32-.77,4.18-3.19,4.4-4.07.55-1.76-.11-4.62-.88-6.49-8.36,1.98-21.77,3.19-30.57.33h0ZM442.87,325.4c-.33-3.19-2.42-4.95-4.4-7.03-3.74-4.07-8.03-4.84-14.07-6.82.33-4.29,1.32-9.02-.55-12.31,2.53-4.84,0-10.56.55-15.84.22-2.53,1.87-4.72,1.76-7.36-.11-2.31-2.09-4.62-2.09-7.04,0-2.2,1.65-4.07,2.09-6.49.44-2.86-1.32-6.04-1.21-8.24.22-2.53,2.09-4.29,2.09-7.04,0-3.52-2.53-5.72-1.76-9.68-3.19-5.71-11.22-5.71-18.8-6.81-4.07-.55-8.25-1.43-10.89-.88-5.39.99-16.71,2.97-19.13,6.49-2.86,3.95.77,8.9.55,13.19-.11,3.08-2.09,5.83-2.09,8.79,0,2.75,1.54,4.95,1.76,7.37.33,3.3-1.76,6.05-1.43,8.8.22,2.53,2.09,4.29,2.31,6.81.33,2.75-.66,5.06,0,8.25-2.31,1.65-5.5,1.76-7.92,3.52-5.71,4.18-9.23,15.61-6.48,22.65-2.64,1.98-7.48,1.65-11.44,2.31-1.65-5.94-4.62-11.44-7.03-17.05-2.53-5.71-4.51-11.65-6.82-17.37-4.62-11.32-10.56-21.99-14.95-32.65,12.75-2.64,25.61-7.26,37.93-11.77,13.96-5.05,27.37-11.87,35.29-22.1,3.96-5.05,7.59-9.67,10.56-16.16,3.84-8.35,4.5-17.92,2.08-27.7-2.3-9.46-6.15-15.62-12.31-21.22-10.33-9.46-22.87-15.51-37.38-20.34-10.23-3.41-20.12-5.5-30.35-8.25-7.14-1.87-14.4-3.74-22.65-4.95-2.64-.33-5.49-.33-7.91-1.76,6.37-3.08,12.97-5.38,19.68-7.69,4.4-1.65,8.13-5.17,13.19-5.61,1.87-2.53,5.39-2.64,5.61-6.16.11-2.31-1.65-4.62-3.52-4.95-3.19-.55-5.17,2.97-8.25,2.97-8.02,7.37-20.23,10.45-31.22,14.74-1.87-6.27-2.09-12.76-3.19-19.02-.77-6.49-1.21-12.98-2.31-19.47-2.75-16.71-3.3-34.08-4.4-51.45-.22-3.74-1.31-7.59-1.42-11.44,0-1.86.87-4.28,0-6.15-2.09-4.29-6.38-1.87-10.34-1.21-3.52.55-7.48.55-11.43.88-11.66,1.1-22.65,2.75-33.87,4.4-6.59.99-13.3,2.41-19.46,2.96-2.2.22-4.4-.22-6.49,0-4.28.55-9.67,2.2-13.85,2.09-1.21,0-2.64-.66-3.85-.55-5.05.55-4.07,4.95-3.85,8.8.33,4.07-.76,8.25-.55,12.31.11,1.43.77,2.86.88,4.4.44,6.38.33,13.09.33,19.46,0,12.21,1.87,24.85,2.64,38.26.66,10.89,2.97,21.55,2.09,32.33-8.02.44-15.83-.99-22.98-2.64-4.72-1.1-9.67-3.96-13.85-.33.66,6.71,9.02,6.38,14.73,7.37,6.49,1.1,12.87,2.3,18.58,3.18-4.06,4.4-10.33,6.6-14.07,11.44-32.43,28.81-56.51,66.96-68.83,115.88-.66,2.64-.33,5.72-2.09,7.92-1.97.88-4.39.44-7.03,1.43-4.18,1.54-14.3,10.55-17.04,14.95-6.38,10.34-2.09,25.4,8.57,27.38,1.32,3.63,1.98,7.91,5.61,10.33,1.87,1.32,4.18,1.1,5.28,2.64,1.32,1.98.55,8.58.33,12.1-.44,7.91-1.65,15.94-.88,23.2,1.21,10.77,2.53,21.44,6.48,29.46,4.07,8.36,9.35,14.95,15.62,21.77,11.87,12.86,27.37,22.21,46.17,28.59,2.42-.66,3.85,1.1,5.94,1.76,7.37,2.2,15.39,2.63,22.1,5.6,3.52-.66,6.16.99,7.92,2.97,2.31,19.57-7.59,31.34-7.04,48.27,1.98,4.07,5.17,6.93,10.01,8.57,3.73,1.21,8.13,2.86,12.64,3.19,8.14.66,16.93.22,26.72,0,11.65-.22,22.76-.44,30.56-4.06,3.96-1.76,8.58-5.94,10.89-8.8,3.3-.44,6.59-1.87,9.67-2.97,6.93-2.31,11.88-5.94,13.86-12.64-.44-8.47-5.5-12.1-9.46-16.83-6.38-2.96-12.64-5.49-20.56-6.48-6.71-.88-13.63-.44-21.22-.88-.22-3.74-.44-10.78,1.76-13.85,21.88-2.97,40.9-9.57,56.18-19.69,16.16-10.77,30.02-25.83,37.93-44.41,3.3-7.59,5.83-16.5,7.7-25.62,6.49-1.87,12.2-2.64,20.89-2.31,2.64,7.59,6.71,16.16,13.85,20.56,3.85,2.31,11,3.19,15.62,1.43,5.27-1.98,8.9-8.58,10.33-14.4,10.89-1.32,17.48-6.93,17.92-18.81,4.84-4.28,10.34-9.34,9.46-16.49ZM409.19,348.39c.33.3.64.58.92.83-1.18-1.42-2.43-2.94-3.85-3.81-2.42-1.54-4.4-1.21-6.49-2.64-.04.02-.09.04-.13.06-.77.32-1.39.68-1.86,1.1-.07.06-.14.13-.2.2-.51.52-.78,1.11-.78,1.83,0,3.08,3.19,2.42,5.61,4.07.99.77,3.96,4.4,4.4,5.94,1.89,5.98-3.01,12.61-8.78,12.78-.1,0-.2,0-.31,0-.49,0-.97-.05-1.47-.15-1.76-.44-5.94-3.19-7.04-4.73-1.21-1.65-2.52-5.38-3.51-8.24-.33-.99-1.1-2.09-1.21-2.64-.22-.99.99-3.41.55-5.28-.43-2.17-1.95-3.14-3.91-3.45-.1-.02-.19-.03-.29-.05-.6-.07-1.24-.09-1.9-.07-.12,0-.25,0-.38.01-.12,0-.25,0-.38.03-1.83.13-3.77.53-5.46.89-3.78.82-7.39,1.05-10.82,1.26-.01,0-.03,0-.05,0-2.04.13-4.02.25-5.95.5v-.02c-.33-7.35-1.43-15.05-2.09-22.3,1.36-.72,2.91-1.04,4.55-1.15.23-.02.46-.03.7-.03.52-.02,1.04,0,1.57,0,1.92.04,3.9.24,5.77.3.43,0,.85,0,1.26,0h.22c2.53,0,4.73-1.21,4.95-3.18.33-2.2-1.87-4.07-2.31-5.94-1.43-6.6,1.43-12.98,6.49-15.61h.77c.07.05.13.11.19.17.6.56.71,1.24.66,1.97-.05.81-.3,1.7-.3,2.58,0,1.5.25,3.2.36,4.89.08,1.04.1,2.06-.03,3.03-.14.85-.51,1.65-.82,2.47-.16.45-.31.91-.39,1.38-.22,1.54.22,3.3,0,4.73-.55,2.74-2.97,5.38-2.64,8.79.04.3.14.66.29,1.04.21.6.54,1.26.89,1.8.07.12.16.23.25.35,2.11,2.73,5.8,4.65,10.21,5.94.07.02.13.04.19.06,1.47.42,3.02.77,4.61,1.06,3.88.72,8.05,1.08,12.03,1.17.63.01,1.26.02,1.88.02h.06c.27,0,.55,0,.83-.02,2.02-.05,4.23-.36,5.81-.86,1.2-.36,2.36-.83,3.53-1.2.24-.08.49-.16.73-.23.02,0,.04-.02.06,0,.72-.19,1.44-.34,2.19-.38.1-.01.21-.01.31-.01.18,0,.36,0,.55.02.14,0,.29.01.43.03.88.09,1.79.35,2.75.86.22.1.44.23.67.37.2.15.39.32.55.49.48.48.82,1.03,1.04,1.62,1.48,3.98-2.42,10.01-7.05,11.44-.13.04-.25.08-.38.11-.25.07-.49.12-.73.15-.96.14-1.94.06-2.89-.29-.72-.27-1.42-.89-2.14-1.66.05.08.1.15.16.23.07.13.15.26.22.39-.87-.82-1.74-1.93-2.67-3.02Z"/>
  <path class="cls-1" d="M225.5,33.16c1.54,6.05,2.31,12.42,2.97,19.46.44,4.62,2.09,9.57.33,13.52-2.53.22-4.4-.33-5.94-1.21-.55-9.57-3.85-22.21.55-31.23.22-.55,1.1-.55,2.09-.55h0Z"/>
  <path class="cls-1" d="M232.21,85.28c.22,7.48-.33,14.29.33,22.1-2.42.99-5.61,1.98-7.92,1.43-1.32-5.39-.66-14.07,0-20.34,1.54-1.76,3.96-4.29,7.59-3.19h0Z"/>
  <path class="cls-1" d="M255.19,199.07c-3.74,2.53-7.15,5.61-6.82,9.46.44,3.85,6.49,6.16,7.04,10.01.55,3.74-.88,6.49-2.31,8.25-3.85,4.51-14.84,4.4-15.28,10.88-.33,4.29,4.95,8.14,5.28,12.97.22,2.75-.22,5.61-2.64,7.92-1.1-.44-2.31-.66-3.19-1.21,0-2.75,1.1-3.74,1.21-5.61.22-5.72-5.83-9.35-4.95-15.28.55-4.07,5.94-8.36,10.01-10.01,3.41-1.43,8.25-1.65,7.7-7.37-.44-4.29-6.71-6.16-7.04-10.88-.33-4.07,2.64-7.81,6.16-10.88-7.48-6.27-14.73-11.98-14.4-23.53.44-15.61,11.76-29.69,27.93-31.44,4.4-.55,10.01.77,14.07,1.21,2.31.22,5.83.88,8.25,1.76.55.22,1.1,1.21,1.76,1.43.99.44,2.09.22,2.64.55,2.86,1.76,5.5,5.83,7.04,9.46,2.75,6.38,3.19,12.75,1.21,19.13-1.76,5.72-4.84,11.1-8.58,15.28-2.42,2.75-6.71,5.28-10.88,7.04-6.49,2.86-15.83,4.18-24.19.88h0ZM274.54,199.73c4.95-1.32,11.76-4.95,15.28-9.13,3.96-4.62,6.05-8.58,7.92-14.4,1.1-3.19,2.31-6.27,1.76-10.55-.88-6.71-4.95-13.41-8.8-17.37-4.07-2.64-9.79-3.19-15.94-4.07-3.74-.55-7.26-1.65-11.21-1.21-14.4,1.65-21.55,11.21-26.17,22.32-1.54,7.7-1.76,13.19,1.21,19.13,2.86,5.83,8.14,8.91,12.09,12.97-3.19,2.42-6.27,7.26-5.83,11.43,2.2,5.06,10.66,9.9,4.73,16.16-6.05,2.09-13.52,5.28-15.28,10.88-.22.55-.33,1.43-.33,2.09.22,4.51,5.28,8.47,4.95,13.85-.11,1.98-1.76,3.41-.88,5.61.66.22,1.54.22,2.09.55,1.54-1.98,2.2-3.41,2.31-5.61.44-5.61-5.61-10.01-5.28-14.73.33-5.06,6.93-6.27,11.43-8.58,2.75-1.32,3.96-3.3,5.94-5.61-.11-2.64.77-4.29-.55-7.04-1.65-3.19-5.83-4.73-6.16-7.92-.44-4.4,3.85-7.59,7.04-10.01,6.6,1.98,13.74,2.75,19.68,1.21h0Z"/>
  <path class="cls-2" d="M254.86,198.52c-3.19,2.42-7.48,5.61-7.04,10.01.33,3.19,4.51,4.73,6.16,7.92,1.43,2.75.44,4.4.55,7.04-1.98,2.31-3.08,4.18-5.94,5.61-4.62,2.2-11.1,3.52-11.43,8.58-.33,4.73,5.72,9.02,5.28,14.73-.11,2.09-.88,3.63-2.31,5.61-.55-.33-1.43-.33-2.09-.55-.88-2.2.77-3.63.88-5.61.33-5.39-4.84-9.35-4.95-13.85,0-.66.11-1.54.33-2.09,1.76-5.61,9.24-8.8,15.28-10.88,5.94-6.27-2.53-11.1-4.73-16.16-.44-4.18,2.64-9.02,5.83-11.43-3.96-4.07-9.24-7.15-12.09-12.97-2.86-5.94-2.64-11.43-1.21-19.13,4.62-11.1,11.76-20.78,26.17-22.32,3.96-.44,7.48.55,11.21,1.21,6.05.99,11.87,1.54,15.83,4.07,3.85,3.96,7.92,10.66,8.8,17.37.55,4.4-.66,7.37-1.76,10.55-1.87,5.83-3.96,9.79-7.92,14.4-3.52,4.07-10.34,7.81-15.28,9.13-5.83,1.54-12.97.77-19.57-1.21h0ZM284,152.02c-6.82-1.32-12.97-2.31-19.13-1.76-2.97.33-4.84,2.31-7.37,3.19-1.21.44-2.64.22-3.85.88-1.1.66-2.64,3.3-3.85,4.95-3.41,4.95-6.93,12.64-4.4,20.34,2.64,5.28,6.82,8.8,11.43,12.09,6.38.77,12.75,3.19,17.37-.55-2.86-1.76-5.39-2.53-7.04-4.95-8.36-12.09,9.35-30.57,20.89-19.68.88,1.21,1.1,3.19,2.64,3.85.77-7.04-2.64-14.29-6.71-18.36h0Z"/>
  <path class="cls-1" d="M290.81,170.27c-1.54-.66-1.76-2.64-2.64-3.85-11.54-10.88-29.25,7.7-20.89,19.68,1.65,2.42,4.18,3.3,7.04,4.95-4.62,3.74-10.99,1.32-17.37.55-4.62-3.19-8.91-6.82-11.43-12.09-2.53-7.7.99-15.28,4.4-20.34,1.21-1.76,2.75-4.4,3.85-4.95,1.1-.66,2.64-.44,3.85-.88,2.53-.99,4.4-2.97,7.37-3.19,6.16-.55,12.31.44,19.13,1.76,3.96,4.18,7.37,11.43,6.71,18.36h0Z"/>
  <path class="cls-2" d="M314.89,305.06c6.38,4.51-.99,11.43-2.97,15.61-4.07,3.19-6.93,7.92-11.21,11.21-.88.66-2.31.99-3.52,1.76-2.86,1.76-6.05,4.29-9.68,5.94-8.03,3.52-14.95,6.38-25.84,6.82-18.14.66-33.09-5.06-46.51-12.31-20.23-14.07-36.83-36.28-40.9-67.4-2.2-17.15-.11-35.84,4.07-51.24,1.43-4.95,2.53-10.12,5.28-14.07,9.46-1.1,5.5,7.48,3.52,13.85-4.18,13.96-7.59,34.19-4.73,52.33,1.65,10.66,6.05,21.66,10.88,31.23,4.84,9.46,11.32,17.59,18.8,23.2,3.3,2.53,6.6,5.94,10.55,7.92,1.87.99,4.4,1.65,6.49,2.64,10.88,5.39,27.49,7.59,42.33,4.95,6.82-1.21,15.28-5.5,20.89-9.68,5.61-4.18,11.87-9.46,14.4-15.94,1.65-3.85,1.1-7.81,8.14-6.82h0Z"/>
  <path class="cls-4" d="M418.13,237.33c-2.31,2.64-7.26,3.41-11.76,3.85-3.41.33-7.92.11-11.43-.33-2.97-.33-6.38-.55-8.25-2.09,8.69-4.07,22.87-2.64,31.44-1.43h0Z"/>
  <path class="cls-4" d="M419.01,245.58c0,3.08-2.09,4.18-2.31,7.04-11.21,1.43-20.56,3.19-32.1-.33.22-2.75-.55-4.51-.88-6.82,11.21,1.54,24.96,3.3,35.29.11h0Z"/>
  <path class="cls-4" d="M418.46,256.25c.55,4.73-2.2,6.27-2.09,10.55-8.91,2.31-20.89,2.86-31.44.88-.99-2.97-4.18-8.58-1.21-12.09,10.55,3.3,22.32,1.76,34.74.66h0Z"/>
  <path class="cls-4" d="M416.7,280.65c-8.58,3.08-21.22,1.87-30.9.55-1.65-2.75-3.74-6.93-1.43-10.34,4.95.55,12.31,1.76,19.68,1.21,4.29-.33,9.13-1.87,11.76-1.43,4.18.66,2.09,6.49.88,10.01h0Z"/>
  <path class="cls-4" d="M416.37,284.39c1.65,1.87.88,5.5.55,8.58-7.48,4.07-19.79,4.29-29.69,2.31-.88-3.3-3.08-7.15-1.43-11.21,10.23,1.87,19.79,1.98,30.57.33h0Z"/>
  <path class="cls-4" d="M415.49,298.03c.77,1.98,1.32,4.18,1.43,6.82-7.48,4.29-22.1,4.84-30.9,2.09-.11-3.3.55-5.83,1.21-8.25,9.35,1.32,19.02.55,28.26-.66h0Z"/>
  <path class="cls-3" d="M419.79,337.75c.18.06.36.12.54.19.62.23,2.02.7,2.53.83-.52-.49-2.18-.97-3.07-1.02ZM406.05,340.34c2.02-.05,4.23-.36,5.81-.86,1.2-.36,2.36-.83,3.53-1.2.23-.1.48-.18.73-.23.02,0,.04-.02.06,0,.72-.19,1.44-.34,2.19-.38-2.33.06-4.46,1.13-6.73,1.82-1.52.48-3.63.79-5.59.86ZM413.62,352.45c-.72-.27-1.42-.89-2.14-1.66.05.08.1.15.16.23.07.13.15.26.22.39.52.47,1.03.84,1.54,1.04,1.02.39,2.07.47,3.11.29-.96.14-1.94.06-2.89-.29ZM406.26,345.41c-2.42-1.54-4.4-1.21-6.49-2.64-.04.02-.09.04-.13.06.75.49,1.49.77,2.24,1,1.31.39,2.65.62,4.16,1.58,1.14.7,2.18,1.83,3.15,2.98.33.3.64.58.92.83-1.18-1.42-2.43-2.94-3.85-3.81ZM389.21,363.88c-1.21-1.65-2.52-5.38-3.51-8.24-.33-.99-1.1-2.09-1.21-2.64-.22-.99.99-3.41.55-5.28-.43-2.17-1.95-3.14-3.91-3.45,1.85.37,3.27,1.36,3.69,3.45.44,1.87-.66,4.29-.55,5.28.11.55.88,1.65,1.21,2.64.99,2.86,2.19,6.59,3.51,8.24,1.1,1.54,5.17,4.4,7.04,4.73.57.12,1.14.16,1.69.15-.49,0-.97-.05-1.47-.15-1.76-.44-5.94-3.19-7.04-4.73ZM377.99,313.17c.21-.53.4-1.05.45-1.62.04-.4.05-.8.05-1.22-.13.91-.3,1.81-.49,2.76,0,.03-.01.05-.01.08ZM376.6,299.02h-.01c-4.94,2.69-7.7,8.99-6.29,15.5.33,1.98,2.53,3.85,2.31,5.94-.22,1.97-2.31,3.07-4.95,3.18h.22c2.53,0,4.73-1.21,4.95-3.18.33-2.2-1.87-4.07-2.31-5.94-1.43-6.6,1.43-12.98,6.49-15.61h-.22c-.06.03-.13.07-.19.11ZM356.02,323.67c-.2.05-.4.1-.6.14-.64.17-1.25.41-1.83.71.66,7.26,1.76,14.96,2.09,22.32.07,0,.15-.02.22-.02-.33-7.35-1.43-15.05-2.09-22.3,1.36-.72,2.91-1.04,4.55-1.15-.81.04-1.59.13-2.34.3Z"/>
  <path class="cls-3" d="M417.62,352.48c-.13.04-.25.08-.38.11-.25.07-.49.12-.73.15-.96.14-1.94.06-2.89-.29-.72-.27-1.42-.89-2.14-1.66.05.08.1.15.16.23.07.13.15.26.22.39-.87-.82-1.74-1.93-2.67-3.02.33.3.64.58.92.83-1.18-1.42-2.43-2.94-3.85-3.81-2.42-1.54-4.4-1.21-6.49-2.64-.04.02-.09.04-.13.06-.03-.02-.06-.04-.09-.06-1.87.77-2.97,1.76-2.97,3.19,0,3.19,3.19,2.42,5.61,4.07.99.66,3.96,4.29,4.4,5.94,1.77,5.9-2.9,12.43-8.56,12.78-.1,0-.2,0-.31,0-.49,0-.97-.05-1.47-.15-1.76-.44-5.94-3.19-7.04-4.73-1.21-1.65-2.52-5.38-3.51-8.24-.33-.99-1.1-2.09-1.21-2.64-.22-.99.99-3.41.55-5.28-.43-2.17-1.95-3.14-3.91-3.45-.1-.02-.19-.03-.29-.05-2.5-.4-5.71.25-8.34.86-3.64.81-7.2,1.04-10.6,1.26-.01,0-.03,0-.05,0-2.05.12-4.04.24-5.95.48-.33-7.35-1.43-15.05-2.09-22.3,1.36-.72,2.91-1.04,4.55-1.15.23-.02.46-.03.7-.03.52-.02,1.04,0,1.57,0,1.94.06,3.92.26,5.77.3.43,0,.85,0,1.26,0h.22c2.53,0,4.73-1.21,4.95-3.18.33-2.2-1.87-4.07-2.31-5.94-1.43-6.6,1.43-12.98,6.49-15.61h.55c.34.25.57.52.71.81.01.04.03.07.04.11.03.09.07.18.09.27.26,1.05-.29,2.29-.29,3.53,0,2.13.39,4.5.38,6.7-.13.91-.3,1.81-.49,2.76,0,.03-.01.05-.01.08-.29.71-.63,1.41-.76,2.23-.22,1.54.22,3.3,0,4.73-.55,2.74-2.97,5.38-2.64,8.79.11.99.88,2.42,1.43,3.19,4.57,5.92,16.58,8.01,27.26,8.23.63.01,1.26.02,1.88.02h.06c.27,0,.55,0,.83-.02,2.02-.05,4.23-.36,5.81-.86,1.2-.36,2.36-.83,3.53-1.2-1.3.5-2.47,1.42-3.53,1.75-5.38,1.53-12.53.77-18.58.33-3.74-.22-8.46-1.54-11.43-3.19-3.19-1.76-7.15-3.96-7.7-7.92-.44-3.63,2.09-6.16,2.64-9.12.33-1.54-.22-3.19,0-4.73.55-3.3,1.21-5.72,1.21-8.8-.11-2.86.33-4.84-.55-6.82-5.17,1.1-7.48,9.02-6.38,14.41.44,2.31,2.64,3.96,2.31,6.16-.55,4.72-5.83,3.51-9.67,3.18-3.85-.22-6.71.66-9.68,1.43,1.21,6.6,1.87,14.19,2.09,21.22,4.51-.77,9.13-.11,14.4-1.21,3.52-.77,6.38-2.09,9.13-1.76,4.73.44,7.15,4.51,5.28,9.68,2.08,3.96,2.3,7.92,4.72,10.88,1.21,1.43,6.16,4.29,7.7,4.4,6.05.44,10.66-6.81,8.8-12.31-.55-1.76-3.08-4.62-4.07-5.28-2.97-2.09-5.94-.33-5.83-4.73.11-5.6,6.93-3.08,10.01-1.21,1.42.88,4.17,3.3,5.27,4.4s1.32,2.64,2.64,2.97c4.95,1.32,9.79-3.52,10.34-9.68-.66-.99-1.21-1.86-1.76-2.96-1.65-.22-4.07-1.54-5.94-1.43-.21.01-.43.05-.63.1.72-.19,1.44-.34,2.19-.38.1-.01.21-.01.31-.01.18,0,.36.01.55.02.18.02.37.05.56.08.18.06.36.12.54.19.62.23,1.19.41,1.7.54.27.12.55.28.83.45,4.65,3.51.25,11.74-5.24,13.55Z"/>
  <path class="cls-4" d="M415.82,309.13c.33,2.09.22,3.96.55,6.49-1.1,1.54-3.52,1.76-4.95,2.97-8.69.66-19.57,2.86-25.62-1.43.55-2.64.11-4.51.88-6.82,8.69,1.32,20.89,1.87,29.14-1.21h0Z"/>
  <path class="cls-1" d="M426.71,333.32c-.44-3.3-.44-7.37-.88-12.31,3.08-1.65,7.15,0,8.25,2.64,1.65,3.85-3.41,12.2-7.37,9.68h0ZM433.74,326.17c.22-3.96-3.52-5.94-7.37-5.28.55,4.07.33,7.92,1.21,12.09,2.75,1.21,6.05-4.29,6.16-6.82h0Z"/>
  <path class="cls-4" d="M416.37,320.34c.77,1.87,1.43,4.62.88,6.49-.33.88-3.08,3.3-4.4,4.07-6.93,4.4-24.08,2.75-28.81-2.31.22-2.97,1.21-5.28,1.76-7.92,8.8,2.86,22.21,1.65,30.57-.33h0Z"/>
  <path class="cls-5" d="M377.56,298.91h-.55l.77-.22.19.39.14.27c.06.12.11.25.16.37-.14-.29-.37-.56-.71-.81Z"/>
  <path class="cls-5" d="M378.4,300.1c.1.32.18.63.23.95.19,1.1.14,2.23.14,3.46v2.09c0,.66-.03,1.3-.08,1.92-.04.61-.11,1.21-.2,1.81.01-2.2-.38-4.57-.38-6.7,0-1.24.55-2.48.29-3.53Z"/>
  <path class="cls-5" d="M382.07,336.29c1.25.65,2.77,1.26,4.38,1.76.07.02.13.04.19.06,1.52.46,3.1.83,4.61,1.06.66.09,1.3.16,1.92.2l2.2.22c2.75.22,5.61.44,8.36.44,3.08,0,5.49-.33,7.58-.88.55-.11,1.1-.44,1.65-.77,1.1-.55,2.2-1.32,3.63-1.32,1.08,0,2.08.29,3.07.64.04,0,.08.03.13.05-.19-.03-.38-.06-.56-.08-.19,0-.37-.02-.55-.02-.1,0-.21,0-.31.01-.75.04-1.47.19-2.19.38.2-.05.42-.09.63-.1,1.87-.11,4.29,1.21,5.94,1.43.55,1.1,1.1,1.97,1.76,2.96-.55,6.16-5.39,11-10.34,9.68-1.32-.33-1.54-1.87-2.64-2.97s-3.85-3.52-5.27-4.4c-3.08-1.87-9.9-4.39-10.01,1.21-.11,4.4,2.86,2.64,5.83,4.73.99.66,3.52,3.52,4.07,5.28,1.86,5.5-2.75,12.75-8.8,12.31-1.54-.11-6.49-2.97-7.7-4.4-2.42-2.96-2.64-6.92-4.72-10.88,1.87-5.17-.55-9.24-5.28-9.68-2.75-.33-5.61.99-9.13,1.76-5.27,1.1-9.89.44-14.4,1.21-.22-7.03-.88-14.62-2.09-21.22,2.97-.77,5.83-1.65,9.68-1.43,3.84.33,9.12,1.54,9.67-3.18.33-2.2-1.87-3.85-2.31-6.16-1.1-5.39,1.21-13.31,6.38-14.41.88,1.98.44,3.96.55,6.82,0,3.08-.66,5.5-1.21,8.8-.22,1.54.33,3.19,0,4.73-.55,2.96-3.08,5.49-2.64,9.12.55,3.96,4.51,6.16,7.7,7.92,2.97,1.65,7.69,2.97,11.43,3.19,6.05.44,13.2,1.2,18.58-.33,1.06-.33,2.23-1.25,3.53-1.75-1.17.37-2.33.84-3.53,1.2-1.58.5-3.79.81-5.81.86-.28.01-.56.02-.83.02h-.06c-.62,0-1.25,0-1.88-.02-10.68-.22-22.69-2.31-27.26-8.23-.55-.77-1.32-2.2-1.43-3.19-.33-3.41,2.09-6.05,2.64-8.79.22-1.43-.22-3.19,0-4.73.13-.82.47-1.52.76-2.23-.04.29-.09.57-.15.85-.1.53-.21,1.04-.28,1.6-.11.55-.11,1.21,0,1.98.11.88.22,1.87,0,2.75-.22,1.2-.77,2.41-1.32,3.51-.77,1.65-1.54,3.3-1.32,5.28.04.28.09.56.18.82.18.66.49,1.25.89,1.8.07.12.16.23.25.35,1.45,1.79,3.82,3.06,5.83,4.18Z"/>
  <path class="cls-5" d="M410.11,349.22c-.28-.25-.59-.53-.92-.83-1.23-1.1-2.71-2.35-3.59-2.87-.96-.62-2.35-1.28-3.72-1.69-.82-.25-1.63-.4-2.33-.4-.78,0-1.37.15-1.77.5-.07.06-.14.13-.2.2-.3.39-.45.95-.45,1.72,0,2.09.44,2.2,2.09,2.53.99.22,2.2.44,3.41,1.32,1.21.88,3.85,3.85,4.51,5.83.98,2.97.33,6.6-1.76,9.45-1.98,2.64-4.73,4.18-7.59,4.18h-.55c-1.76-.22-7.04-3.19-8.36-4.84-1.43-1.87-2.08-3.95-2.85-6.15-.44-1.54-.99-3.19-1.87-4.84l-.22-.33.11-.44c.88-2.31.77-4.51-.22-6.05-.88-1.32-2.31-2.09-4.18-2.31-.24-.03-.47-.05-.71-.05-.12,0-.25,0-.38.01-.12,0-.25,0-.38.03-1.19.11-2.44.51-3.92.89-1.1.33-2.2.66-3.41.88-3.08.66-5.82.66-8.46.77-2.09.11-4.07.11-6.05.44l-1.1.22v-1.1c-.22-5.49-.77-13.63-2.09-21l-.22-.88,1.87-.44c.21-.05.41-.1.62-.16.2-.04.4-.09.6-.14,2.3-.57,4.81-1.1,7.8-.91.55,0,1.1.11,1.65.11.98.11,1.97.22,2.96.22,2.64,0,3.74-.66,3.96-2.63.11-.99-.33-1.87-.99-2.97-.55-.88-1.1-1.87-1.32-2.97-1.29-5.89,1.39-13.97,6.51-15.5h.01c.14-.04.27-.08.41-.11-5.06,2.63-7.92,9.01-6.49,15.61.44,1.87,2.64,3.74,2.31,5.94-.22,1.97-2.42,3.18-4.95,3.18h-.22c-.41,0-.83,0-1.26,0-1.85-.04-3.83-.24-5.77-.3-.53,0-1.05-.02-1.57,0-.24,0-.47.01-.7.03-1.64.11-3.19.43-4.55,1.15.66,7.25,1.76,14.95,2.09,22.3,1.91-.24,3.9-.36,5.95-.48.02,0,.04,0,.05,0,3.4-.22,6.96-.45,10.6-1.26,2.63-.61,5.84-1.26,8.34-.86.1.02.19.03.29.05,1.96.31,3.48,1.28,3.91,3.45.44,1.87-.77,4.29-.55,5.28.11.55.88,1.65,1.21,2.64.99,2.86,2.3,6.59,3.51,8.24,1.1,1.54,5.28,4.29,7.04,4.73.5.1.98.15,1.47.15.11,0,.21,0,.31,0,5.66-.35,10.33-6.88,8.56-12.78-.44-1.65-3.41-5.28-4.4-5.94-2.42-1.65-5.61-.88-5.61-4.07,0-1.43,1.1-2.42,2.97-3.19.03.02.06.04.09.06.04-.02.09-.04.13-.06,2.09,1.43,4.07,1.1,6.49,2.64,1.42.87,2.67,2.39,3.85,3.81Z"/>
  <path class="cls-5" d="M425.39,342.25l.11.3c-.55,5.94-4.84,10.78-9.68,10.78-.66,0-1.21-.11-1.87-.22-1.11-.28-1.67-1.02-2.09-1.7-.07-.13-.15-.26-.22-.39-.06-.08-.11-.15-.16-.23.72.77,1.42,1.39,2.14,1.66.95.35,1.93.43,2.89.29.24-.03.48-.08.73-.15.13-.03.25-.07.38-.11,5.49-1.81,9.89-10.04,5.24-13.55-.28-.17-.56-.33-.83-.45.13.03.26.05.38.08.08,0,.15.03.23.04l.44.17.33.27c.17.13.27.14.38.25.47.42.43.56.81,1.33.16.32.47,1,.68,1.27l.11.36Z"/>
  <path class="cls-5" d="M433.19,321.88c-1.54-1.65-4.29-2.42-6.93-1.98l-.99.11.11.99c.22,1.65.33,3.3.44,4.95.11,2.31.22,4.73.77,7.26l.11.44.44.22c.44.22.88.22,1.21.22,3.3,0,6.16-5.28,6.27-7.92.22-1.65-.33-3.19-1.43-4.29h0Z"/>
  <path class="cls-1" d="M182.52,375.32c-.44.88-.11.99,0,2.09-1.65,0-1.1-1.98,0-2.09h0Z"/>
  <path class="cls-3" d="M228.14,474.82c.55-5.94,1.65-14.84,2.31-22.32.33-3.3,1.76-6.93-.55-9.46-1.87-.88-4.62-1.1-6.82-.33-1.54,4.62-.33,9.68-1.21,15.61-.66,4.62-1.54,9.79-2.64,14.73-.33,1.54-.99,3.74-.88,4.73.22,1.98,3.41,4.51,5.94,4.73,1.65.11,4.29-.99,5.94-1.21,2.75-.33,6.38,0,9.68.33,10.12.99,20.78,3.19,29.14,5.61,4.73,2.64,3.63,6.71,0,9.68-7.48,6.38-20.78,6.93-33.53,7.7-12.42.66-30.13,1.32-38.26-5.94.55-15.83,7.26-28.48,6.82-44.97,0-1.87-.22-5.28-.55-6.49-.66-1.87-5.17-5.94-7.7-6.49-1.43-.33-2.86-.11-4.4-.33-2.86-.44-5.83-1.32-8.8-1.76-18.69-2.75-34.85-9.57-47.94-17.7-7.04-5.39-12.86-11.87-19.46-17.7-1.21-3.3-4.29-5.39-6.16-8.58-8.03-13.41-10.66-32.32-9.13-50.03.44-5.28.88-10.88,1.21-16.49.11-2.09-.66-5.39,2.31-5.94,3.08,2.86,3.3,7.7,6.49,10.01,1.21.88,6.6,2.97,9.46,3.19,14.95,1.21,17.48-12.53,20.89-22.98,2.53-.11,5.5,0,7.92-1.21,8.58-3.85,19.13-22.76,10.88-31.77-4.62-5.06-16.82-4.62-24.41-4.4,1.54-5.61,3.41-13.96,5.61-19.68,1.32-3.52,5.17-7.15.88-10.01-2.97-.44-5.72.44-7.37,2.09-1.54,8.03-4.18,16.38-7.04,24.74-.88,2.42-2.86,5.5-2.31,7.37,1.65,5.83,10.66,1.32,15.28.88,9.57-.88,16.49,3.52,13.52,13.52-.88,2.75-6.49,11.43-10.01,11.76-6.16.55-5.39-8.69-10.88-8.58-2.75.11-4.84,2.42-4.95,3.85-.66,4.29,4.18,5.61,4.73,8.58.88,4.51-1.54,9.35-3.19,13.19-.99,2.2-2.75,5.94-4.73,6.49-4.18,1.1-8.03-2.09-8.58-2.64-1.43-1.32-4.07-6.16-4.07-10.55-.11-6.93,5.61-11.87,4.4-16.71-.88-3.63-5.28-2.64-8.25-.55-1.54,4.18-3.74,11.87-6.49,15.83-1.65,2.31-4.4,5.06-8.8,3.85-1.65-2.53-2.86-4.29-3.19-6.49-.55-4.07,2.64-11.43,5.28-14.95.88-1.21,9.46-6.16,5.61-9.46-1.1-.88-3.63-.22-5.28.55-5.72,2.75-10.34,10.88-13.19,17.37-4.18-2.42-5.06-8.03-3.52-12.97.99-3.19,5.83-8.03,9.13-10.88,2.31-2.09,5.61-5.28,9.46-5.61,2.97-.22,5.72,1.87,7.7-.33s1.21-6.6,1.76-10.01c.55-3.52,1.98-7.48,2.97-11.21,6.82-25.4,18.47-46.51,31.44-65.86,10.77-16.16,24.08-31.44,40.35-43.54,2.31-1.76,5.5-3.3,8.58-5.28,2.75-1.76,6.38-4.84,8.58-5.28,5.06-1.21,11.54.33,16.82,0,18.91-1.21,38.26-6.16,55.3-9.68,4.51-.99,9.24-3.19,13.19-2.97,3.63.22,7.92,1.43,12.09,2.09,3.96.55,7.92.88,11.76,1.43,7.81,1.21,15.39,3.85,22.98,5.94,11.1,2.97,23.31,5.61,33.86,9.68,5.72,2.2,9.9,4.07,14.73,6.82,12.42,6.82,24.3,18.91,23.2,37.93-.44,7.48-3.52,12.97-6.49,17.92-2.97,5.06-5.83,8.25-10.55,13.52-7.15,5.28-17.04,11.54-28.59,15.83-5.17,1.98-10.99,4.18-16.49,5.94-5.72,1.76-11.87,3.74-17.04,4.4-3.19.44-12.42-1.76-12.97,2.64-.55,4.07,5.83,8.03,7.04,10.34,8.14,17.26,16.27,35.4,23.53,53.54,3.85,9.68,6.6,20.23,6.82,31.23.22,11.1-2.09,21.33-5.94,31.77-6.6,18.25-18.47,32.43-33.53,43.21-7.26,5.28-15.5,9.9-24.96,13.52-6.93,2.64-13.74,4.84-22.32,6.49-2.75.55-5.39,1.32-7.92,1.43-3.85.33-7.81-.66-9.46,2.31.44,5.39.55,11.21,0,16.49-.22,2.2-1.76,4.4-1.43,6.16.33,2.09,2.86,4.51,5.28,4.95,2.2.44,4.4-.88,6.82-1.21,11.32-1.21,28.48-.11,34.96,7.04,5.28,2.86,6.16,9.79,1.43,13.19-1.65,1.21-6.27,3.41-7.7,3.19-1.87-.22-2.86-3.3-4.4-4.73-5.06-4.62-14.18-6.16-23.2-7.92-9.57-1.43-18.03-1.65-26.83-2.2h0ZM272.78,481.53c1.65.66,3.52,2.2,4.73,3.19,1.54,1.43,2.64,3.96,4.4,4.73,4.4-1.54,8.91-2.53,10.01-6.82,1.1-4.29-2.2-7.37-4.07-8.8-1.32-.99-2.42-2.31-4.07-3.19-.77-.33-1.98-.22-2.97-.55-1.54-.55-1.98-1.21-3.19-1.43-6.6-1.54-17.59-2.2-24.41-1.43-1.87.22-3.96,1.54-5.83,1.43-3.08,0-6.49-3.52-6.82-5.61-.33-2.53,1.21-4.84,1.43-7.04.55-5.17.77-9.68,0-15.61,1.21-3.74,4.62-2.75,8.25-2.97,3.41-.22,7.26-1.43,10.88-2.09,26.17-4.62,44.97-17.15,60.36-31.77,16.16-17.7,28.7-44.42,23.53-76.74-3.08-12.97-9.24-24.3-13.52-35.62-4.62-11.98-10.12-22.87-15.61-34.41-1.98-3.41-7.59-5.5-7.04-10.55s9.57-2.97,13.19-3.19c4.29-.22,9.13-1.98,13.52-3.19,4.4-1.32,8.69-3.08,12.64-4.4,17.59-5.94,31.77-13.08,42.11-25.62,4.95-6.05,9.68-14.18,10.55-23.2,1.21-10.99-4.29-22.54-9.46-28.26-4.62-5.06-11.87-8.91-18.58-12.31-14.95-7.7-33.2-11.1-50.91-16.16-5.5-1.54-11.21-2.64-16.82-3.52-5.94-.99-12.09-1.1-17.92-2.31-1.54-.33-2.64-1.1-4.07-1.21-3.96-.22-6.38,1.54-9.68,2.31-8.25,2.09-16.38,3.63-24.41,4.95-11.32,1.98-22.54,4.51-34.08,5.28-4.51.33-15.28-1.32-19.46,1.21-2.42,1.43-4.73,2.53-6.82,3.85-19.79,12.42-35.84,30.46-48.27,48.82-16.49,24.41-30.24,52.01-35.62,87.08-2.31,2.75-5.39.33-8.58.55-3.41.33-6.93,3.74-9.13,5.61-5.94,5.17-13.85,14.18-6.16,22.32,4.18-8.03,7.7-16.6,18.25-18.25.77.77,1.87,1.54,2.09,2.97.44,4.29-4.73,5.61-6.82,8.25-.55.77-.99,2.64-1.76,4.07-1.65,2.86-3.74,6.16-2.97,10.88.22,1.21.99,4.73,3.52,5.61,2.75.88,5.72-1.87,7.04-3.85,2.75-4.07,4.95-11.1,6.16-15.61,2.53-2.31,8.58-3.85,9.68.33.99,3.74-2.64,8.47-3.85,13.19-1.65,6.38,1.32,10.23,3.52,14.4,2.64.77,4.73,2.97,7.7,2.09,2.75-.88,4.4-6.05,5.28-8.58,1.43-3.63,3.08-7.81,2.09-10.88-1.32-3.74-4.62-3.63-4.4-7.92.11-2.53,3.41-4.62,4.95-4.73,6.27-.55,6.05,9.24,11.43,8.8,1.54-.11,4.18-3.52,5.28-4.95,1.54-1.98,3.52-4.73,4.07-6.49,2.97-9.24-3.74-14.07-13.19-12.97-2.86.33-6.93,2.75-11.21,2.09-7.26-1.21-3.74-6.6-2.09-11.43,1.98-5.72,3.74-10.66,5.28-15.83.66-2.2.66-6.27,2.09-8.58,2.64-4.29,10.01-2.64,10.34,1.43.22,2.86-1.98,4.29-2.97,6.82-1.21,3.19-1.65,6.82-2.64,10.01-1.1,3.3-2.86,6.27-2.97,9.68,15.83-3.19,31.88,2.75,26.5,20.01-2.09,6.49-9.02,15.17-13.85,17.04-2.2.77-4.73.88-7.37.55-2.53,12.31-8.36,25.84-23.2,22.98-5.39-1.1-8.91-4.07-11.21-7.92-.99-1.65-1.32-4.07-2.97-4.73-1.87.77-1.54,3.74-1.76,5.61-.55,5.17-.44,10.88-.88,15.61-1.65,18.25,1.43,38.26,9.68,51.24,4.51,6.93,10.99,12.64,16.82,18.25,6.05,5.83,13.85,9.57,20.89,14.07,3.41.66,6.27,2.53,9.68,3.85,11.32,4.18,26.17,7.04,37.6,7.92.66.66,1.65.88,2.97.88,1.65,2.53,4.18,3.08,5.28,5.61,1.65,3.52,1.21,11.32.88,15.61-.99,12.64-6.05,24.63-7.04,35.62.77,1.98,3.41,3.52,6.49,4.4,11.54,3.19,21.44,2.42,32.1,2.09,10.77-.44,19.13-.55,26.72-3.85,4.51-1.98,13.41-7.92,6.82-12.09-7.7-2.42-18.8-4.95-29.14-5.94-3.19-.33-6.93-.55-9.68-.33-1.87.22-4.4,1.32-6.16,1.21-2.86-.33-6.27-2.86-6.49-5.28-.22-1.87,1.1-4.4,1.43-6.49,1.32-8.14,3.19-18.03,2.31-27.05.99-2.31,4.84-3.63,7.37-2.31,3.63,1.76,2.42,6.16,2.09,9.68-.44,3.63-.11,7.59-.88,11.43-.88,4.51-1.43,8.58-1.76,11.21,14.84.77,33.2,2.31,44.75,7.26h0Z"/>
  <path class="cls-1" d="M190.43,203.25c-.22,5.06-2.64,9.13-3.85,14.07-3.74,15.17-5.5,32.21-3.85,48.49.66,6.6,3.52,13.63,5.61,20.01,4.18,12.64,10.99,22.98,19.13,31.44,1.54,1.54,3.52,2.64,4.95,4.07,12.64,10.77,27.6,16.6,49.15,16.16,16.49-.33,28.7-7.7,37.93-16.82,2.31-2.31,4.07-5.17,6.16-8.25.99-1.43.77-4.4,2.09-6.16,2.31-3.19,8.91-3.08,10.34,1.43.11,4.4-1.1,5.5-3.19,8.58-2.86,3.96-4.84,6.82-8.25,10.34-5.28,5.39-11.54,9.9-19.13,13.19-5.5,2.42-10.66,5.17-15.83,5.94-8.47,1.21-17.48.55-25.84-.33-11.98-1.21-21.88-6.27-30.9-11.76-9.46-5.72-18.03-14.07-24.08-22.65-6.6-9.35-10.66-20.01-14.07-32.32-1.65-6.05-3.19-12.2-3.52-19.68-.88-18.25,1.98-34.96,6.82-50.36.66-2.2,1.76-7.15,3.52-7.92,2.31-.88,5.5.77,6.82,2.53h0ZM306.98,311.77c-2.64,6.49-8.8,11.65-14.4,15.83-5.61,4.18-14.07,8.47-20.89,9.68-14.84,2.64-31.55.33-42.33-4.95-2.09-.99-4.51-1.65-6.49-2.64-3.96-2.09-7.26-5.39-10.55-7.92-7.59-5.61-13.96-13.74-18.8-23.2-4.84-9.46-9.24-20.56-10.88-31.23-2.86-18.14.44-38.48,4.73-52.33,1.87-6.27,5.94-14.84-3.52-13.85-2.75,3.96-3.96,9.13-5.28,14.07-4.29,15.39-6.38,34.08-4.07,51.24,4.07,31.12,20.67,53.32,40.9,67.4,13.41,7.26,28.37,12.97,46.51,12.31,10.99-.44,17.81-3.19,25.84-6.82,3.63-1.65,6.82-4.07,9.68-5.94,1.21-.77,2.64-1.1,3.52-1.76,4.29-3.3,7.15-7.92,11.21-11.21,1.98-4.18,9.35-11.1,2.97-15.61-7.26-.77-6.71,3.19-8.14,6.93h0Z"/>
  <path class="cls-5" d="M392.07,157.51c-4.62-5.06-11.76-8.91-18.8-12.53-11.21-5.72-23.86-9.02-37.38-12.53-4.51-1.21-9.13-2.42-13.63-3.63-5.94-1.65-11.87-2.75-16.93-3.52-2.53-.44-5.17-.66-7.81-.99-3.41-.33-6.82-.66-10.12-1.43-.55-.11-1.1-.33-1.65-.55-.77-.33-1.65-.66-2.64-.66-2.86-.22-5.06.66-7.15,1.43-.88.33-1.87.66-2.86.99-8.36,2.2-16.6,3.63-24.3,4.95-2.86.44-5.72.99-8.47,1.54-8.25,1.54-16.82,3.19-25.51,3.74-1.32.11-3.3,0-5.39-.11-1.76-.11-3.63-.11-5.5-.11-4.4,0-7.26.55-9.02,1.54-1.21.66-2.31,1.32-3.41,1.87-1.21.66-2.31,1.21-3.41,1.98-17.81,11.21-34.19,27.82-48.6,49.15-19.68,29.25-31.01,56.95-35.73,87.19-.99.99-2.31.77-4.07.44-1.1-.22-2.31-.55-3.63-.44-3.41.33-6.6,3.19-9.02,5.17l-.77.66c-6.16,5.39-9.46,10.44-9.68,15.17-.11,3.08.99,5.94,3.41,8.58l.99.99.66-1.21c.33-.66.77-1.43,1.1-2.09,3.63-7.15,7.15-13.96,15.94-15.5l.11.11c.66.55,1.21,1.1,1.32,1.98.22,2.09-1.21,3.3-3.52,4.95-1.1.77-2.2,1.54-3.08,2.64-.44.55-.66,1.32-.99,2.2-.22.77-.55,1.43-.88,2.09l-.44.77c-1.54,2.75-3.41,6.16-2.64,10.77.22,1.54,1.21,5.39,4.18,6.38.44.11.88.22,1.43.22,2.97,0,5.61-2.75,6.82-4.4,2.75-3.96,4.84-10.66,6.27-15.61,1.32-1.1,3.41-1.87,5.06-1.87,1.54,0,2.53.66,2.86,1.87.55,2.09-.55,4.62-1.87,7.37-.77,1.76-1.54,3.52-1.98,5.28-1.54,5.83.66,9.79,2.75,13.52.33.55.66,1.1.88,1.65l.22.33.44.11c.77.22,1.54.66,2.31.99,1.32.66,2.64,1.32,4.18,1.32.55,0,1.1-.11,1.65-.22,2.97-.88,4.51-5.39,5.61-8.25l.66-1.65c1.32-3.52,2.86-7.48,1.76-10.77-.66-1.87-1.65-2.86-2.64-3.74-1.1-1.1-1.87-1.87-1.76-3.85.11-1.87,2.86-3.63,4.07-3.74,2.64-.22,3.85,1.76,5.28,4.18,1.43,2.31,2.97,4.95,6.16,4.73,1.43-.11,3.19-1.76,6.05-5.39,1.87-2.42,3.74-4.95,4.29-6.82,1.21-3.96.88-7.48-.99-10.01-2.42-3.3-7.37-4.95-13.3-4.18-1.1.11-2.31.55-3.63.99-2.2.66-4.73,1.54-7.26,1.1-1.76-.33-2.86-.77-3.3-1.65-.77-1.43.22-3.85,1.1-6.27.33-.77.55-1.54.88-2.2,1.98-5.72,3.74-10.66,5.28-15.94.22-.88.44-1.98.55-3.08.22-1.87.55-3.96,1.32-5.17.77-1.32,2.31-2.09,3.96-2.09,2.09,0,4.29,1.21,4.51,3.08.11,1.43-.55,2.42-1.43,3.74-.55.77-1.1,1.65-1.43,2.64-.66,1.76-1.1,3.74-1.54,5.61-.33,1.54-.66,2.97-1.1,4.4-.33.99-.77,1.98-1.1,2.97-.88,2.2-1.87,4.51-1.87,7.04v1.21l1.21-.22c2.64-.55,5.28-.77,7.81-.77,7.48,0,13.41,2.31,16.38,6.38,2.42,3.41,2.86,7.81,1.21,13.19-1.98,6.27-8.8,14.73-13.19,16.38-1.76.66-4.07.88-6.93.55l-.88-.11-.22.88c-3.52,16.93-10.88,24.41-22.1,22.21-4.73-.88-8.14-3.41-10.55-7.48-.33-.44-.55-.99-.77-1.54-.55-1.43-1.21-2.97-2.75-3.52l-.33-.11-.33.11c-2.09.88-2.2,3.52-2.31,5.39,0,.33,0,.77-.11,1.1-.22,2.75-.33,5.72-.55,8.58-.11,2.53-.22,4.84-.44,7.04-1.76,19.79,2.09,39.69,9.9,51.79,3.85,5.94,9.13,10.88,14.18,15.72.88.88,1.87,1.76,2.75,2.64,4.4,4.29,9.79,7.48,14.95,10.55,1.98,1.21,4.18,2.42,6.16,3.74l.33.11c1.98.44,3.85,1.21,5.72,2.09,1.21.55,2.53,1.1,3.85,1.65,10.34,3.85,25.07,6.93,37.6,8.03.66.55,1.65.88,2.86.88.77.99,1.65,1.76,2.53,2.42.99.77,1.87,1.43,2.42,2.64,1.1,2.42,1.43,7.48.77,15.06-.55,6.6-2.2,12.97-3.74,19.24-1.43,5.72-2.86,11.1-3.3,16.38v.22l.11.22c.77,2.2,3.41,3.96,7.15,5.06,6.16,1.65,12.31,2.42,20.01,2.42,3.3,0,6.49-.11,9.9-.22l4.62-.22c9.9-.33,17.7-.66,25.07-3.85,2.64-1.1,9.35-4.95,9.68-9.24.11-1.21-.33-2.97-2.86-4.51l-.22-.11c-6.93-2.2-18.25-4.95-29.36-5.94-3.19-.33-7.26-.55-9.9-.33-.77.11-1.76.33-2.64.55-1.21.33-2.42.66-3.3.55-2.53-.22-5.39-2.53-5.61-4.4-.11-.99.33-2.2.77-3.41.33-.88.55-1.87.77-2.75l.55-3.19c1.21-7.48,2.64-15.83,1.87-23.86.66-1.21,2.31-1.98,4.07-1.98.66,0,1.32.11,1.87.44,2.31,1.1,2.2,3.63,1.65,7.37-.11.44-.11.88-.22,1.32-.22,1.54-.22,3.08-.33,4.62-.11,2.2-.11,4.51-.55,6.71-.66,3.52-1.1,6.6-1.43,9.13l-.44,3.08,1.1.11c15.61.99,32.98,2.53,44.09,7.26,1.43.55,3.19,1.98,4.4,3.08.55.44,1.1,1.21,1.54,1.87.88,1.21,1.76,2.42,3.08,2.97l.33.11.33-.11c.66-.22,1.21-.44,1.87-.66,3.85-1.32,7.81-2.64,8.8-6.82.88-3.52-.66-7.04-4.51-9.9-.44-.33-.88-.77-1.32-1.1-.77-.77-1.76-1.54-2.97-2.2-.55-.33-1.21-.33-1.76-.44-.44,0-.88-.11-1.21-.22-.55-.22-.99-.44-1.43-.66-.55-.33-1.1-.66-1.98-.77-4.84-1.1-11.98-1.76-18.25-1.76-2.42,0-4.62.11-6.49.33-.99.11-1.87.44-2.75.77-.99.33-1.98.66-2.97.66h0c-2.53,0-5.61-3.3-5.83-4.73-.22-1.32.22-2.53.77-3.85.33-.99.66-1.98.77-2.97.55-5.06.77-9.68,0-15.61.66-1.76,1.87-1.98,4.29-1.98h3.08c2.31-.11,4.73-.66,7.04-1.21,1.32-.33,2.64-.66,3.96-.88,22.76-4.07,42.11-14.18,60.91-32.1,11.54-12.53,29.91-39.36,23.75-77.73-2.09-8.8-5.61-16.93-9.02-24.63-1.65-3.85-3.19-7.37-4.62-10.99-3.74-9.79-8.03-18.69-12.53-28.04-.99-2.09-2.09-4.29-3.08-6.49-.77-1.32-1.98-2.42-3.19-3.52-2.09-1.87-4.07-3.63-3.74-6.49.11-1.21.88-2.53,5.72-2.53,1.1,0,2.2.11,3.3.11,1.32.11,2.42.11,3.3.11,3.63-.22,7.59-1.43,11.43-2.64.77-.22,1.54-.44,2.31-.66,2.75-.77,5.5-1.87,8.25-2.86,1.54-.55,3.08-1.1,4.51-1.65,14.51-4.95,31.01-11.87,42.55-25.95,4.29-5.28,9.79-13.63,10.77-23.75,1.1-11.32-4.07-23.31-9.79-29.58h0ZM234.41,236.56c.44-3.41,5.17-7.48,9.35-9.24.66-.22,1.21-.44,1.87-.66,3.08-.99,6.93-2.2,6.38-7.7-.33-2.42-1.98-4.07-3.74-5.72-1.65-1.54-3.19-3.08-3.3-5.17-.22-3.19,1.76-6.6,5.83-10.12l.88-.77-1.43-1.21c-7.37-6.16-13.74-11.54-13.52-22.32.44-15.72,11.98-28.81,27.05-30.57,2.97-.33,6.49.22,9.79.66,1.43.22,2.86.44,4.18.55,2.31.22,5.72.88,7.92,1.65.11,0,.33.33.44.44.33.33.77.77,1.32.99.66.33,1.32.33,1.76.44.33,0,.66.11.77.11,2.31,1.43,4.84,4.73,6.71,8.91,2.64,6.16,3.08,12.31,1.1,18.47-1.76,5.5-4.73,10.77-8.36,14.95-2.09,2.31-5.83,4.73-10.55,6.82-3.96,1.76-8.69,2.64-13.08,2.64-3.63,0-7.04-.66-10.23-1.87l-.44-.22-.44.33c-3.63,2.42-7.7,5.83-7.15,10.34.22,2.31,2.09,4.07,3.85,5.72,1.54,1.43,2.97,2.75,3.19,4.4.55,3.63-1.1,6.16-2.09,7.48-1.43,1.65-4.07,2.75-6.71,3.74-4.18,1.65-8.47,3.3-8.8,7.7-.22,2.53,1.21,4.84,2.64,7.04,1.21,1.98,2.53,3.96,2.64,6.05.22,2.86-.44,5.06-1.98,6.71-.22-.11-.44-.11-.66-.22-.44-.11-.88-.33-1.32-.44.11-.99.33-1.76.55-2.42.22-.77.55-1.54.55-2.42.11-2.97-1.32-5.5-2.64-7.81-1.32-2.2-2.64-4.4-2.31-7.26h0ZM312.69,305.28c1.76,0,3.74.77,4.51,2.86.11,3.52-.77,4.62-2.42,6.93l-1.32,1.76c-2.42,3.41-4.4,6.05-7.48,9.24-5.61,5.72-11.76,9.9-18.8,12.97-1.1.44-2.2.99-3.19,1.43-4.29,1.98-8.36,3.85-12.42,4.4-3.08.44-6.38.66-10.12.66-5.5,0-10.99-.44-15.61-.99-11.87-1.21-21.66-6.27-30.46-11.65-8.91-5.39-17.59-13.52-23.86-22.32-5.83-8.25-10.12-18.14-13.96-32.1-1.54-5.39-3.08-11.76-3.52-19.46-.88-16.6,1.32-32.87,6.71-49.92.11-.44.22-.88.44-1.43.55-1.76,1.54-5.39,2.53-5.94.44-.22.77-.22,1.32-.22,1.65,0,3.41.99,4.4,2.09-.22,2.86-1.1,5.5-2.09,8.25-.66,1.65-1.21,3.41-1.65,5.39-4.07,16.71-5.39,33.64-3.85,48.93.55,5.39,2.42,10.88,4.29,16.27.44,1.32.88,2.64,1.32,3.96,3.85,11.87,10.44,22.54,19.35,31.88.88.88,1.76,1.54,2.75,2.31.88.66,1.65,1.21,2.31,1.87,13.85,11.76,29.03,16.82,49.81,16.38,14.51-.33,27.16-5.83,38.59-17.04,2.09-1.98,3.63-4.4,5.28-6.93l.99-1.54c.55-.88.77-1.98.99-3.08.22-1.1.44-2.31.99-3.08.88-1.1,2.42-1.87,4.18-1.87h0Z"/>
</svg>