<?xml version="1.0" encoding="UTF-8"?>
<svg id="Layer_1" data-name="Layer 1" xmlns="http://www.w3.org/2000/svg" viewBox="0 0 512 512">
  <defs>
    <style>
      .cls-1 {
        fill: #1c1c1c;
      }

      .cls-2 {
        fill: #fefefe;
      }

      .cls-3 {
        fill: #1f1f1f;
      }
    </style>
  </defs>
  <g id="v4bJeO">
    <g>
      <path class="cls-1" d="M227.45,76.34c-2.05-7.44-.59-14.46,2.76-21.09,2.16-4.26,5.46-7.56,10.87-6.55,5.1.95,6.74,5.04,7.64,9.5.36,1.82.41,3.71.5,4.6-.02,6.49-1.09,11.73-4.29,16.32-2.42,3.47-5.77,5.55-10.11,4.79-4.09-.72-6.28-3.64-7.37-7.56Z"/>
      <path class="cls-1" d="M302.71,260.79c-7.9,19.99-34.49,27.81-47.16,12.79-2.23-2.65-3.43-.85-4.72.95-2.63,3.72-3.97,8.29-7.41,11.46-1.66,1.52-3.79,3.46-5.98,1.92-2.13-1.49-.48-4.01.38-5.64,3.69-7.01,8.72-13.11,13.48-19.4,1.41-1.86,2.6-1.71,4-.23,1.98,2.12,3.97,4.24,5.87,6.43,5.26,6.08,12.11,8.09,19.56,5.14,9.91-3.92,15.74-11.39,17.08-21.93.7-5.52-1.29-10.4-6.59-13.01-4.92-2.43-9.55-1.94-13.64,2.26-1.74,1.78-3.88,4.37-6.68,1.14-2.82-3.23.12-4.78,2.04-6.45,3.14-2.71,6.69-4.98,9.57-7.93,3.08-3.15,4.6-7.32,1.9-11.34-2.59-3.86-6.72-2.54-10.24-1.38-5.23,1.72-9.82,4.5-12.55,9.6-.49.91-1.17,1.71-1.76,2.56-1.6,2.32-3.82,4.99-6.48,3.67-3.12-1.53-.24-4.43.47-6.38,1.92-5.25,4.52-10.3,5.14-15.93.51-4.44.05-8.89-4.2-11.64-4.4-2.85-8.95-1.85-12.86.84-7.53,5.18-11.07,12.64-11.17,21.78-.03,3.03,1.17,7.42-2.18,8.34-3.61.99-4.12-3.74-5.58-6.23-1.47-2.49-2.47-5.27-3.86-7.81-3.95-7.22-9.54-9.15-16.65-5.87-7.57,3.49-11,10.7-8.25,17.78,3.17,8.19,9.95,12.44,17.65,15.57,5.71,2.34,6.32,4.36,1.84,8.69-6.5,6.28-11.48,13.64-16.28,21.17-.66,1.05-1.37,2.08-2.15,3.05-1.27,1.62-3.21,2.61-4.88,1.55-1.55-.96-.78-3.13-.22-4.61,1.95-5.18,6.24-8.76,9.3-13.19,2.45-3.55,6.89-7.01,6.92-10.54.03-2.56-5.79-5.1-8.87-7.79-5.06-4.42-9.75-9.13-10.63-16.28-1.17-9.44,2.94-16.63,11.68-20.53,9.9-4.4,18.79-2.36,26.61,6.39,3.89-11.59,12.84-18.92,23.61-19.6,10.31-.64,16.59,4.53,16.45,14.79-.08,5.57,1.46,5.68,5.74,3.94,2.05-.83,4.5-1,6.74-.93,12.12.39,17.43,9.03,12.27,19.98-1.15,2.41-1.73,3.39,1.6,4.78,12.29,5.11,16.12,15.27,11.07,28.04Z"/>
      <path class="cls-1" d="M294.71,93.37c-15.15-4.5-30.14-3.5-43.64,5.25-11.84,7.68-18.01,19.2-16.63,33.32,1.27,13.12,10.3,20.78,22.15,25.11,3.85,1.4,8.02,2.25,12.11,2.55,20.16,1.5,43.67-8.62,43.93-35.52-.07-14.68-7.15-27.53-17.92-30.71ZM271.62,153.33c-3.89-.13-7.91-.86-11.59-2.14-9.78-3.39-17.33-9.24-18.41-20.43-1.14-11.71,5.12-22.72,15.25-27.75,7.84-3.9,16.35-4.46,24.85-5.08,12.96-.34,20.59,5.79,23.49,18.43,5.71,24.89-13.16,37.66-33.59,36.97Z"/>
      <path class="cls-1" d="M321.32,59.39c-.12,6.56-1.69,12.35-5.64,17.17-4.85,5.91-11.86,4.57-14.54-2.65-2.24-5.99-1.35-11.86.98-17.59,2.72-6.66,7.44-10.19,12.52-9.01,6.77,1.58,6.35,7.28,6.68,12.09Z"/>
      <path class="cls-1" d="M451.63,269.83c-4.77,10.87-19,17.67-28.28,12.35-.67-.38-1.49-.5-2.63-.87.27,7.8-1.89,14.54-6.82,20.3-11.54,13.51-23.98,11.13-30.97-6.21-4.29,3.65-8.44,7.31-14.28,8.26-9.18,1.51-15.7-3.7-15.22-13.03.21-4.07-.12-5.51-4.92-5.57-14.05-.18-22.29-12.83-18.73-28.74,4.03-17.98,21.04-30,37.7-22.78,3.73,1.61,3.88-.72,4.28-2.8.79-4.06.96-8.27,1.95-12.28.63-2.55,2.18-5.78,5.31-5.04,2.55.6,1.79,3.94,1.59,6.08-.73,7.65-3.05,15-4.91,22.42-.59,2.32-2.02,2.31-3.75,1.52-2.83-1.28-5.69-2.49-8.42-3.95-5.74-3.07-11.21-2.34-16.51.95-9.31,5.79-13.87,20.17-9.71,30.32,2.09,5.1,5.89,8.28,11.35,8.3,5.04.02,9.21-2.11,11.03-7.47.7-2.07,1.7-4.89,4.48-4.18,2.3.59,4.52,2.36,2.71,5.55-1.73,3.07-3.38,6.18-5.13,9.24-1.83,3.18-2.77,6.53-1.89,10.16,1.27,5.21,5.39,7.13,9.9,4.28,6.02-3.83,10-9.2,11.15-16.5.57-3.57.82-8.94,5.22-8.51,3.14.31,1.84,5.64,1.98,8.8.25,5.17-.26,10.41,1.78,15.37,1.56,3.77,3.67,7.13,8.1,7.81,4.61.71,8.11-1.61,10.66-5.09,5.02-6.81,5.96-14.43,3.48-22.47-.43-1.38-1.05-2.7-1.64-4.03-1.1-2.5-2.62-5.73-.31-7.45,2.19-1.63,4.43,1.37,6.3,2.83,2.45,1.92,4.57,4.25,6.93,6.28,6.44,5.54,12.84,5.38,18.15-.38,5.97-6.46,6.16-15.04.21-20.58-6.01-5.6-13.58-6.8-21.4-6.86-6.45-.05-7.53-1.52-5.01-7.73,3.31-8.11,5.3-16.54,6.55-25.18.44-2.99.82-7.44,4.63-6.86,3.17.49,2.37,4.74,1.75,7.47-1.67,7.26-3.34,14.55-5.53,21.67-.96,3.07-.33,3.9,2.57,4.52,5.06,1.08,10.11,2.28,14.81,4.58,11.03,5.37,15.79,15.75,11.52,25.48Z"/>
      <path class="cls-1" d="M505.59,154.59c-10.59-36.98-32.22-66.33-60.89-91.48C399.04,23.08,346.11,2.51,285.63,4.5c-33.55,1.11-67.16,4.82-100.07,12.57-29.45,6.93-57.96,16.24-82.97,33.98-21.52,15.26-38.98,34.24-53.93,56.02C17.24,152.82-1.12,202.57.04,258.57c.55,26.7,5.12,52.86,19.74,75.66,30.64,47.82,75.09,74.48,131.07,82.45,23.18,3.31,46.46,3.28,69.75,1.84,4.15-.26,5.47,1.02,5.97,4.77.64,4.7,1.75,9.33,2.78,14.73-10.74-1.29-20.86-2.29-31.04-1.51-12.83.97-25.05,3.84-35.27,12.33-12.13,10.08-13.88,23.51-5.01,36.45,6,8.78,14.85,13.11,24.54,16.03,21.21,6.4,43.01,7.18,64.87,5.47,14.81-1.15,29.24-4.17,40.88-14.65,7.42-6.68,7.9-6.52,16.72-1.31,18.17,10.73,37.24,14.48,57.94,7.95,11.81-3.72,22.38-9.63,33.03-15.73,11.26-6.45,17.5-16.34,21.29-28.06,6.1-18.89-2.66-33.92-22.14-37.37-17.91-3.17-35.11.85-51.83,7.16-7.31,2.75-7.4,2.88-7.67-5.15-.09-2.85-2.16-6.7,3.46-7.5,32.12-4.54,61.59-16.3,89.47-32.62,26.65-15.6,46.99-36.64,58.65-65.57,9.25-22.97,16.23-46.6,20.46-70.99,5.11-29.57,6.26-59.07-2.13-88.36ZM500.98,238.47c-5.33,23.67-9.15,47.54-19.58,69.83-11.2,23.93-27.78,42.68-48.41,59.12-28.91,23.04-61.94,33.77-97.72,38.39-2.06.27-4.08.84-6.12,1.15-2.22.33-3,1.62-1.99,3.47,2.87,5.26,2,10.93,2.18,16.5.3,9.79,2,10.92,11.14,6.89,6.83-2.99,13.09-7.4,20.4-9.15,11.9-2.85,23.99-2.63,35.85.16,13.12,3.09,18.51,14.68,14.4,29.45-2.02,7.27-6.25,13.1-11.85,17.93-20.48,17.61-65.49,28.28-96.13,9.92-3.24-1.94-4.62-3.7-4.06-7.75.8-5.9-1.25-11.53-4.42-16.53-2.78-4.38-5.78-8.65-9.03-12.68-5.58-6.91-8.77-14.4-7.82-23.52.47-4.5.09-9.12-4.33-13.12-4.74,10.86-3.61,20.66,1.71,29.99,3.49,6.12,7.7,11.82,11.4,17.83,10.53,17.08,6.45,28.81-12.36,35.97-14.08,5.36-28.85,5.99-43.61,5.89-16.65-.13-33.26-1.27-49.17-6.82-7.36-2.56-14.12-6.09-18.64-12.83-6.58-9.82-5.09-18.69,4.73-25.23,10.83-7.22,23.19-9.7,35.97-10.75,9.06-.74,17.8,1.28,26.58,2.72,5.37.88,6.57-1.57,6.45-6.07-.23-9.02-3.96-17.37-5.05-26.25-.4-3.27-3.29-1.82-5.06-1.66-19.94,1.97-39.86,1.59-59.83.31-53.76-3.44-97.84-25.98-131.77-67.56-16.37-20.05-22.28-44.76-25.94-69.77-7.61-51.83,7.62-98.45,33.31-142.69,20.28-34.94,45.47-65.01,81.27-84.97,26.26-14.65,54.9-22.04,84.24-27.25,22.95-4.07,46.16-6.3,69.33-7.69,58.37-3.51,110.38,13.43,156.16,50.28,37.21,29.95,60.48,67.83,69.13,114.7,3.81,20.64,3.35,41.01-1.32,61.77Z"/>
      <path class="cls-2" d="M227.45,76.34c-2.05-7.44-.59-14.46,2.76-21.09,2.16-4.26,5.46-7.56,10.87-6.55,5.1.95,6.74,5.04,7.64,9.5.36,1.82.41,3.71.5,4.6-.02,6.49-1.09,11.73-4.29,16.32-2.42,3.47-5.77,5.55-10.11,4.79-4.09-.72-6.28-3.64-7.37-7.56Z"/>
      <path class="cls-2" d="M302.71,260.79c-7.9,19.99-34.49,27.81-47.16,12.79-2.23-2.65-3.43-.85-4.72.95-2.63,3.72-3.97,8.29-7.41,11.46-1.66,1.52-3.79,3.46-5.98,1.92-2.13-1.49-.48-4.01.38-5.64,3.69-7.01,8.72-13.11,13.48-19.4,1.41-1.86,2.6-1.71,4-.23,1.98,2.12,3.97,4.24,5.87,6.43,5.26,6.08,12.11,8.09,19.56,5.14,9.91-3.92,15.74-11.39,17.08-21.93.7-5.52-1.29-10.4-6.59-13.01-4.92-2.43-9.55-1.94-13.64,2.26-1.74,1.78-3.88,4.37-6.68,1.14-2.82-3.23.12-4.78,2.04-6.45,3.14-2.71,6.69-4.98,9.57-7.93,3.08-3.15,4.6-7.32,1.9-11.34-2.59-3.86-6.72-2.54-10.24-1.38-5.23,1.72-9.82,4.5-12.55,9.6-.49.91-1.17,1.71-1.76,2.56-1.6,2.32-3.82,4.99-6.48,3.67-3.12-1.53-.24-4.43.47-6.38,1.92-5.25,4.52-10.3,5.14-15.93.51-4.44.05-8.89-4.2-11.64-4.4-2.85-8.95-1.85-12.86.84-7.53,5.18-11.07,12.64-11.17,21.78-.03,3.03,1.17,7.42-2.18,8.34-3.61.99-4.12-3.74-5.58-6.23-1.47-2.49-2.47-5.27-3.86-7.81-3.95-7.22-9.54-9.15-16.65-5.87-7.57,3.49-11,10.7-8.25,17.78,3.17,8.19,9.95,12.44,17.65,15.57,5.71,2.34,6.32,4.36,1.84,8.69-6.5,6.28-11.48,13.64-16.28,21.17-.66,1.05-1.37,2.08-2.15,3.05-1.27,1.62-3.21,2.61-4.88,1.55-1.55-.96-.78-3.13-.22-4.61,1.95-5.18,6.24-8.76,9.3-13.19,2.45-3.55,6.89-7.01,6.92-10.54.03-2.56-5.79-5.1-8.87-7.79-5.06-4.42-9.75-9.13-10.63-16.28-1.17-9.44,2.94-16.63,11.68-20.53,9.9-4.4,18.79-2.36,26.61,6.39,3.89-11.59,12.84-18.92,23.61-19.6,10.31-.64,16.59,4.53,16.45,14.79-.08,5.57,1.46,5.68,5.74,3.94,2.05-.83,4.5-1,6.74-.93,12.12.39,17.43,9.03,12.27,19.98-1.15,2.41-1.73,3.39,1.6,4.78,12.29,5.11,16.12,15.27,11.07,28.04Z"/>
      <path class="cls-2" d="M294.71,93.37c-15.15-4.5-30.14-3.5-43.64,5.25-11.84,7.68-18.01,19.2-16.63,33.32,1.27,13.12,10.3,20.78,22.15,25.11,3.85,1.4,8.02,2.25,12.11,2.55,20.16,1.5,43.67-8.62,43.93-35.52-.07-14.68-7.15-27.53-17.92-30.71ZM271.62,153.33c-3.89-.13-7.91-.86-11.59-2.14-9.78-3.39-17.33-9.24-18.41-20.43-1.14-11.71,5.12-22.72,15.25-27.75,7.84-3.9,16.35-4.46,24.85-5.08,12.96-.34,20.59,5.79,23.49,18.43,5.71,24.89-13.16,37.66-33.59,36.97Z"/>
      <path class="cls-2" d="M321.32,59.39c-.12,6.56-1.69,12.35-5.64,17.17-4.85,5.91-11.86,4.57-14.54-2.65-2.24-5.99-1.35-11.86.98-17.59,2.72-6.66,7.44-10.19,12.52-9.01,6.77,1.58,6.35,7.28,6.68,12.09Z"/>
      <path class="cls-2" d="M451.63,269.83c-4.77,10.87-19,17.67-28.28,12.35-.67-.38-1.49-.5-2.63-.87.27,7.8-1.89,14.54-6.82,20.3-11.54,13.51-23.98,11.13-30.97-6.21-4.29,3.65-8.44,7.31-14.28,8.26-9.18,1.51-15.7-3.7-15.22-13.03.21-4.07-.12-5.51-4.92-5.57-14.05-.18-22.29-12.83-18.73-28.74,4.03-17.98,21.04-30,37.7-22.78,3.73,1.61,3.88-.72,4.28-2.8.79-4.06.96-8.27,1.95-12.28.63-2.55,2.18-5.78,5.31-5.04,2.55.6,1.79,3.94,1.59,6.08-.73,7.65-3.05,15-4.91,22.42-.59,2.32-2.02,2.31-3.75,1.52-2.83-1.28-5.69-2.49-8.42-3.95-5.74-3.07-11.21-2.34-16.51.95-9.31,5.79-13.87,20.17-9.71,30.32,2.09,5.1,5.89,8.28,11.35,8.3,5.04.02,9.21-2.11,11.03-7.47.7-2.07,1.7-4.89,4.48-4.18,2.3.59,4.52,2.36,2.71,5.55-1.73,3.07-3.38,6.18-5.13,9.24-1.83,3.18-2.77,6.53-1.89,10.16,1.27,5.21,5.39,7.13,9.9,4.28,6.02-3.83,10-9.2,11.15-16.5.57-3.57.82-8.94,5.22-8.51,3.14.31,1.84,5.64,1.98,8.8.25,5.17-.26,10.41,1.78,15.37,1.56,3.77,3.67,7.13,8.1,7.81,4.61.71,8.11-1.61,10.66-5.09,5.02-6.81,5.96-14.43,3.48-22.47-.43-1.38-1.05-2.7-1.64-4.03-1.1-2.5-2.62-5.73-.31-7.45,2.19-1.63,4.43,1.37,6.3,2.83,2.45,1.92,4.57,4.25,6.93,6.28,6.44,5.54,12.84,5.38,18.15-.38,5.97-6.46,6.16-15.04.21-20.58-6.01-5.6-13.58-6.8-21.4-6.86-6.45-.05-7.53-1.52-5.01-7.73,3.31-8.11,5.3-16.54,6.55-25.18.44-2.99.82-7.44,4.63-6.86,3.17.49,2.37,4.74,1.75,7.47-1.67,7.26-3.34,14.55-5.53,21.67-.96,3.07-.33,3.9,2.57,4.52,5.06,1.08,10.11,2.28,14.81,4.58,11.03,5.37,15.79,15.75,11.52,25.48Z"/>
      <path class="cls-3" d="M302.71,260.79c-7.9,19.99-34.49,27.81-47.16,12.79-2.23-2.65-3.43-.85-4.72.95-2.63,3.72-3.97,8.29-7.41,11.46-1.66,1.52-3.79,3.46-5.98,1.92-2.13-1.49-.48-4.01.38-5.64,3.69-7.01,8.72-13.11,13.48-19.4,1.41-1.86,2.6-1.71,4-.23,1.98,2.12,3.97,4.24,5.87,6.43,5.26,6.08,12.11,8.09,19.56,5.14,9.91-3.92,15.74-11.39,17.08-21.93.7-5.52-1.29-10.4-6.59-13.01-4.92-2.43-9.55-1.94-13.64,2.26-1.74,1.78-3.88,4.37-6.68,1.14-2.82-3.23.12-4.78,2.04-6.45,3.14-2.71,6.69-4.98,9.57-7.93,3.08-3.15,4.6-7.32,1.9-11.34-2.59-3.86-6.72-2.54-10.24-1.38-5.23,1.72-9.82,4.5-12.55,9.6-.49.91-1.17,1.71-1.76,2.56-1.6,2.32-3.82,4.99-6.48,3.67-3.12-1.53-.24-4.43.47-6.38,1.92-5.25,4.52-10.3,5.14-15.93.51-4.44.05-8.89-4.2-11.64-4.4-2.85-8.95-1.85-12.86.84-7.53,5.18-11.07,12.64-11.17,21.78-.03,3.03,1.17,7.42-2.18,8.34-3.61.99-4.12-3.74-5.58-6.23-1.47-2.49-2.47-5.27-3.86-7.81-3.95-7.22-9.54-9.15-16.65-5.87-7.57,3.49-11,10.7-8.25,17.78,3.17,8.19,9.95,12.44,17.65,15.57,5.71,2.34,6.32,4.36,1.84,8.69-6.5,6.28-11.48,13.64-16.28,21.17-.66,1.05-1.37,2.08-2.15,3.05-1.27,1.62-3.21,2.61-4.88,1.55-1.55-.96-.78-3.13-.22-4.61,1.95-5.18,6.24-8.76,9.3-13.19,2.45-3.55,6.89-7.01,6.92-10.54.03-2.56-5.79-5.1-8.87-7.79-5.06-4.42-9.75-9.13-10.63-16.28-1.17-9.44,2.94-16.63,11.68-20.53,9.9-4.4,18.79-2.36,26.61,6.39,3.89-11.59,12.84-18.92,23.61-19.6,10.31-.64,16.59,4.53,16.45,14.79-.08,5.57,1.46,5.68,5.74,3.94,2.05-.83,4.5-1,6.74-.93,12.12.39,17.43,9.03,12.27,19.98-1.15,2.41-1.73,3.39,1.6,4.78,12.29,5.11,16.12,15.27,11.07,28.04Z"/>
      <path class="cls-3" d="M451.63,269.83c-4.77,10.87-19,17.67-28.28,12.35-.67-.38-1.49-.5-2.63-.87.27,7.8-1.89,14.54-6.82,20.3-11.54,13.51-23.98,11.13-30.97-6.21-4.29,3.65-8.44,7.31-14.28,8.26-9.18,1.51-15.7-3.7-15.22-13.03.21-4.07-.12-5.51-4.92-5.57-14.05-.18-22.29-12.83-18.73-28.74,4.03-17.98,21.04-30,37.7-22.78,3.73,1.61,3.88-.72,4.28-2.8.79-4.06.96-8.27,1.95-12.28.63-2.55,2.18-5.78,5.31-5.04,2.55.6,1.79,3.94,1.59,6.08-.73,7.65-3.05,15-4.91,22.42-.59,2.32-2.02,2.31-3.75,1.52-2.83-1.28-5.69-2.49-8.42-3.95-5.74-3.07-11.21-2.34-16.51.95-9.31,5.79-13.87,20.17-9.71,30.32,2.09,5.1,5.89,8.28,11.35,8.3,5.04.02,9.21-2.11,11.03-7.47.7-2.07,1.7-4.89,4.48-4.18,2.3.59,4.52,2.36,2.71,5.55-1.73,3.07-3.38,6.18-5.13,9.24-1.83,3.18-2.77,6.53-1.89,10.16,1.27,5.21,5.39,7.13,9.9,4.28,6.02-3.83,10-9.2,11.15-16.5.57-3.57.82-8.94,5.22-8.51,3.14.31,1.84,5.64,1.98,8.8.25,5.17-.26,10.41,1.78,15.37,1.56,3.77,3.67,7.13,8.1,7.81,4.61.71,8.11-1.61,10.66-5.09,5.02-6.81,5.96-14.43,3.48-22.47-.43-1.38-1.05-2.7-1.64-4.03-1.1-2.5-2.62-5.73-.31-7.45,2.19-1.63,4.43,1.37,6.3,2.83,2.45,1.92,4.57,4.25,6.93,6.28,6.44,5.54,12.84,5.38,18.15-.38,5.97-6.46,6.16-15.04.21-20.58-6.01-5.6-13.58-6.8-21.4-6.86-6.45-.05-7.53-1.52-5.01-7.73,3.31-8.11,5.3-16.54,6.55-25.18.44-2.99.82-7.44,4.63-6.86,3.17.49,2.37,4.74,1.75,7.47-1.67,7.26-3.34,14.55-5.53,21.67-.96,3.07-.33,3.9,2.57,4.52,5.06,1.08,10.11,2.28,14.81,4.58,11.03,5.37,15.79,15.75,11.52,25.48Z"/>
      <path class="cls-3" d="M294.71,93.37c-15.15-4.5-30.14-3.5-43.64,5.25-11.84,7.68-18.01,19.2-16.63,33.32,1.27,13.12,10.3,20.78,22.15,25.11,3.85,1.4,8.02,2.25,12.11,2.55,20.16,1.5,43.67-8.62,43.93-35.52-.07-14.68-7.15-27.53-17.92-30.71ZM271.62,153.33c-3.89-.13-7.91-.86-11.59-2.14-9.78-3.39-17.33-9.24-18.41-20.43-1.14-11.71,5.12-22.72,15.25-27.75,7.84-3.9,16.35-4.46,24.85-5.08,12.96-.34,20.59,5.79,23.49,18.43,5.71,24.89-13.16,37.66-33.59,36.97Z"/>
      <path class="cls-3" d="M249.22,62.79c-.02,6.49-1.09,11.73-4.29,16.32-2.42,3.47-5.77,5.55-10.11,4.79-4.09-.72-6.28-3.64-7.37-7.56-2.05-7.44-.59-14.46,2.76-21.09,2.16-4.26,5.46-7.56,10.87-6.55,5.1.95,6.74,5.04,7.64,9.5.36,1.82.41,3.71.5,4.6Z"/>
      <path class="cls-1" d="M321.32,59.39c-.12,6.56-1.69,12.35-5.64,17.17-4.85,5.91-11.86,4.57-14.54-2.65-2.24-5.99-1.35-11.86.98-17.59,2.72-6.66,7.44-10.19,12.52-9.01,6.77,1.58,6.35,7.28,6.68,12.09Z"/>
    </g>
  </g>
</svg>